<svg width="405" height="181" viewBox="0 0 405 181" fill="none" xmlns="http://www.w3.org/2000/svg">
<g clip-path="url(#clip0_5026_4341)">
<g filter="url(#filter0_f_5026_4341)">
<circle cx="205" cy="167" r="98" stroke="#D252B5" stroke-width="4"/>
</g>
<g filter="url(#filter1_f_5026_4341)">
<circle cx="205" cy="167" r="64" stroke="#D252B5" stroke-width="4"/>
</g>
<g filter="url(#filter2_f_5026_4341)">
<circle cx="205" cy="167" r="35" stroke="#D252B5" stroke-width="4"/>
</g>
<circle opacity="0.3" cx="205" cy="167" r="99.5" stroke="#D252B5"/>
<g opacity="0.2" filter="url(#filter3_f_5026_4341)" style="mix-blend-mode:screen">
<path d="M205.019 55.0056C211.854 54.8013 217.577 60.1832 217.804 67.0186C218.008 73.854 212.626 79.5767 205.791 79.8037C198.955 80.0081 193.233 74.6262 193.006 67.7908C192.801 60.9554 198.183 55.2327 205.019 55.0056Z" fill="url(#paint0_radial_5026_4341)"/>
</g>
<g opacity="0.5" filter="url(#filter4_f_5026_4341)" style="mix-blend-mode:screen">
<path d="M205.363 61.003C208.982 60.8948 212.011 63.7441 212.131 67.3628C212.24 70.9815 209.39 74.0112 205.772 74.1314C202.153 74.2396 199.123 71.3903 199.003 67.7716C198.895 64.1529 201.744 61.1232 205.363 61.003Z" fill="url(#paint1_radial_5026_4341)"/>
</g>
<path d="M205.449 66.0007C206.273 65.976 206.962 66.6249 206.99 67.449C207.014 68.2732 206.366 68.9631 205.542 68.9905C204.718 69.0151 204.028 68.3662 204.001 67.5421C203.976 66.718 204.625 66.0281 205.449 66.0007Z" fill="#D252B5"/>
<g opacity="0.2" filter="url(#filter5_f_5026_4341)" style="mix-blend-mode:screen">
<path d="M277.019 87.0056C283.854 86.8013 289.577 92.1832 289.804 99.0186C290.008 105.854 284.626 111.577 277.791 111.804C270.955 112.008 265.233 106.626 265.006 99.7908C264.801 92.9554 270.183 87.2327 277.019 87.0056Z" fill="url(#paint2_radial_5026_4341)"/>
</g>
<g opacity="0.5" filter="url(#filter6_f_5026_4341)" style="mix-blend-mode:screen">
<path d="M277.363 93.003C280.982 92.8948 284.011 95.7441 284.131 99.3628C284.24 102.982 281.39 106.011 277.772 106.131C274.153 106.24 271.123 103.39 271.003 99.7716C270.895 96.1529 273.744 93.1232 277.363 93.003Z" fill="url(#paint3_radial_5026_4341)"/>
</g>
<path d="M277.449 98.0007C278.273 97.976 278.962 98.6249 278.99 99.449C279.014 100.273 278.366 100.963 277.542 100.99C276.718 101.015 276.028 100.366 276.001 99.5421C275.976 98.718 276.625 98.0281 277.449 98.0007Z" fill="#D252B5"/>
<g opacity="0.2" filter="url(#filter7_f_5026_4341)" style="mix-blend-mode:screen">
<path d="M131.019 87.0056C137.854 86.8013 143.577 92.1832 143.804 99.0186C144.008 105.854 138.626 111.577 131.791 111.804C124.955 112.008 119.233 106.626 119.006 99.7908C118.801 92.9554 124.183 87.2327 131.019 87.0056Z" fill="url(#paint4_radial_5026_4341)"/>
</g>
<g opacity="0.5" filter="url(#filter8_f_5026_4341)" style="mix-blend-mode:screen">
<path d="M131.363 93.003C134.982 92.8948 138.011 95.7441 138.131 99.3628C138.24 102.982 135.39 106.011 131.772 106.131C128.153 106.24 125.123 103.39 125.003 99.7716C124.895 96.1529 127.744 93.1232 131.363 93.003Z" fill="url(#paint5_radial_5026_4341)"/>
</g>
<path d="M131.449 98.0007C132.273 97.976 132.962 98.6249 132.99 99.449C133.014 100.273 132.366 100.963 131.542 100.99C130.718 101.015 130.028 100.366 130.001 99.5421C129.976 98.718 130.625 98.0281 131.449 98.0007Z" fill="#D252B5"/>
<g opacity="0.2" filter="url(#filter9_f_5026_4341)" style="mix-blend-mode:screen">
<path d="M304.019 155.006C310.854 154.801 316.577 160.183 316.804 167.019C317.008 173.854 311.626 179.577 304.791 179.804C297.955 180.008 292.233 174.626 292.006 167.791C291.801 160.955 297.183 155.233 304.019 155.006Z" fill="url(#paint6_radial_5026_4341)"/>
</g>
<g opacity="0.5" filter="url(#filter10_f_5026_4341)" style="mix-blend-mode:screen">
<path d="M304.363 161.003C307.982 160.895 311.011 163.744 311.131 167.363C311.24 170.982 308.39 174.011 304.772 174.131C301.153 174.24 298.123 171.39 298.003 167.772C297.895 164.153 300.744 161.123 304.363 161.003Z" fill="url(#paint7_radial_5026_4341)"/>
</g>
<path d="M304.449 166.001C305.273 165.976 305.962 166.625 305.99 167.449C306.014 168.273 305.366 168.963 304.542 168.99C303.718 169.015 303.028 168.366 303.001 167.542C302.976 166.718 303.625 166.028 304.449 166.001Z" fill="#D252B5"/>
<g opacity="0.2" filter="url(#filter11_f_5026_4341)" style="mix-blend-mode:screen">
<path d="M105.019 155.006C111.854 154.801 117.577 160.183 117.804 167.019C118.008 173.854 112.626 179.577 105.791 179.804C98.9553 180.008 93.2327 174.626 93.0056 167.791C92.8013 160.955 98.1833 155.233 105.019 155.006Z" fill="url(#paint8_radial_5026_4341)"/>
</g>
<g opacity="0.5" filter="url(#filter12_f_5026_4341)" style="mix-blend-mode:screen">
<path d="M105.363 161.003C108.982 160.895 112.011 163.744 112.131 167.363C112.24 170.982 109.39 174.011 105.772 174.131C102.153 174.24 99.1232 171.39 99.003 167.772C98.8948 164.153 101.744 161.123 105.363 161.003Z" fill="url(#paint9_radial_5026_4341)"/>
</g>
<path d="M105.449 166.001C106.273 165.976 106.962 166.625 106.99 167.449C107.014 168.273 106.366 168.963 105.542 168.99C104.718 169.015 104.028 168.366 104.001 167.542C103.976 166.718 104.625 166.028 105.449 166.001Z" fill="#D252B5"/>
<path d="M319 167H436.5" stroke="url(#paint10_linear_5026_4341)"/>
<path d="M285.973 87.2734L369.058 4.18839" stroke="url(#paint11_linear_5026_4341)"/>
<path d="M126.52 87.2734L43.435 4.18839" stroke="url(#paint12_linear_5026_4341)"/>
<path d="M93.5 167H-24" stroke="url(#paint13_linear_5026_4341)"/>
<path d="M206.255 54.2578L206.255 -20.998" stroke="url(#paint14_linear_5026_4341)"/>
</g>
<defs>
<filter id="filter0_f_5026_4341" x="89" y="51" width="232" height="232" filterUnits="userSpaceOnUse" color-interpolation-filters="sRGB">
<feFlood flood-opacity="0" result="BackgroundImageFix"/>
<feBlend mode="normal" in="SourceGraphic" in2="BackgroundImageFix" result="shape"/>
<feGaussianBlur stdDeviation="8" result="effect1_foregroundBlur_5026_4341"/>
</filter>
<filter id="filter1_f_5026_4341" x="123" y="85" width="164" height="164" filterUnits="userSpaceOnUse" color-interpolation-filters="sRGB">
<feFlood flood-opacity="0" result="BackgroundImageFix"/>
<feBlend mode="normal" in="SourceGraphic" in2="BackgroundImageFix" result="shape"/>
<feGaussianBlur stdDeviation="8" result="effect1_foregroundBlur_5026_4341"/>
</filter>
<filter id="filter2_f_5026_4341" x="152" y="114" width="106" height="106" filterUnits="userSpaceOnUse" color-interpolation-filters="sRGB">
<feFlood flood-opacity="0" result="BackgroundImageFix"/>
<feBlend mode="normal" in="SourceGraphic" in2="BackgroundImageFix" result="shape"/>
<feGaussianBlur stdDeviation="8" result="effect1_foregroundBlur_5026_4341"/>
</filter>
<filter id="filter3_f_5026_4341" x="189" y="51" width="32.8096" height="32.8086" filterUnits="userSpaceOnUse" color-interpolation-filters="sRGB">
<feFlood flood-opacity="0" result="BackgroundImageFix"/>
<feBlend mode="normal" in="SourceGraphic" in2="BackgroundImageFix" result="shape"/>
<feGaussianBlur stdDeviation="2" result="effect1_foregroundBlur_5026_4341"/>
</filter>
<filter id="filter4_f_5026_4341" x="198" y="60" width="15.1343" height="15.1328" filterUnits="userSpaceOnUse" color-interpolation-filters="sRGB">
<feFlood flood-opacity="0" result="BackgroundImageFix"/>
<feBlend mode="normal" in="SourceGraphic" in2="BackgroundImageFix" result="shape"/>
<feGaussianBlur stdDeviation="0.5" result="effect1_foregroundBlur_5026_4341"/>
</filter>
<filter id="filter5_f_5026_4341" x="261" y="83" width="32.8096" height="32.8086" filterUnits="userSpaceOnUse" color-interpolation-filters="sRGB">
<feFlood flood-opacity="0" result="BackgroundImageFix"/>
<feBlend mode="normal" in="SourceGraphic" in2="BackgroundImageFix" result="shape"/>
<feGaussianBlur stdDeviation="2" result="effect1_foregroundBlur_5026_4341"/>
</filter>
<filter id="filter6_f_5026_4341" x="270" y="92" width="15.1343" height="15.1328" filterUnits="userSpaceOnUse" color-interpolation-filters="sRGB">
<feFlood flood-opacity="0" result="BackgroundImageFix"/>
<feBlend mode="normal" in="SourceGraphic" in2="BackgroundImageFix" result="shape"/>
<feGaussianBlur stdDeviation="0.5" result="effect1_foregroundBlur_5026_4341"/>
</filter>
<filter id="filter7_f_5026_4341" x="115" y="83" width="32.8096" height="32.8086" filterUnits="userSpaceOnUse" color-interpolation-filters="sRGB">
<feFlood flood-opacity="0" result="BackgroundImageFix"/>
<feBlend mode="normal" in="SourceGraphic" in2="BackgroundImageFix" result="shape"/>
<feGaussianBlur stdDeviation="2" result="effect1_foregroundBlur_5026_4341"/>
</filter>
<filter id="filter8_f_5026_4341" x="124" y="92" width="15.1343" height="15.1328" filterUnits="userSpaceOnUse" color-interpolation-filters="sRGB">
<feFlood flood-opacity="0" result="BackgroundImageFix"/>
<feBlend mode="normal" in="SourceGraphic" in2="BackgroundImageFix" result="shape"/>
<feGaussianBlur stdDeviation="0.5" result="effect1_foregroundBlur_5026_4341"/>
</filter>
<filter id="filter9_f_5026_4341" x="288" y="151" width="32.8096" height="32.8086" filterUnits="userSpaceOnUse" color-interpolation-filters="sRGB">
<feFlood flood-opacity="0" result="BackgroundImageFix"/>
<feBlend mode="normal" in="SourceGraphic" in2="BackgroundImageFix" result="shape"/>
<feGaussianBlur stdDeviation="2" result="effect1_foregroundBlur_5026_4341"/>
</filter>
<filter id="filter10_f_5026_4341" x="297" y="160" width="15.1343" height="15.1328" filterUnits="userSpaceOnUse" color-interpolation-filters="sRGB">
<feFlood flood-opacity="0" result="BackgroundImageFix"/>
<feBlend mode="normal" in="SourceGraphic" in2="BackgroundImageFix" result="shape"/>
<feGaussianBlur stdDeviation="0.5" result="effect1_foregroundBlur_5026_4341"/>
</filter>
<filter id="filter11_f_5026_4341" x="89" y="151" width="32.8096" height="32.8086" filterUnits="userSpaceOnUse" color-interpolation-filters="sRGB">
<feFlood flood-opacity="0" result="BackgroundImageFix"/>
<feBlend mode="normal" in="SourceGraphic" in2="BackgroundImageFix" result="shape"/>
<feGaussianBlur stdDeviation="2" result="effect1_foregroundBlur_5026_4341"/>
</filter>
<filter id="filter12_f_5026_4341" x="98" y="160" width="15.1343" height="15.1328" filterUnits="userSpaceOnUse" color-interpolation-filters="sRGB">
<feFlood flood-opacity="0" result="BackgroundImageFix"/>
<feBlend mode="normal" in="SourceGraphic" in2="BackgroundImageFix" result="shape"/>
<feGaussianBlur stdDeviation="0.5" result="effect1_foregroundBlur_5026_4341"/>
</filter>
<radialGradient id="paint0_radial_5026_4341" cx="0" cy="0" r="1" gradientUnits="userSpaceOnUse" gradientTransform="translate(205.405 67.4047) rotate(90) scale(12.4047)">
<stop stop-color="#D252B5" stop-opacity="0"/>
<stop offset="1" stop-color="#D252B5"/>
</radialGradient>
<radialGradient id="paint1_radial_5026_4341" cx="0" cy="0" r="1" gradientUnits="userSpaceOnUse" gradientTransform="translate(205.567 67.5672) rotate(90) scale(6.56719)">
<stop stop-color="#D252B5" stop-opacity="0"/>
<stop offset="1" stop-color="#D252B5"/>
</radialGradient>
<radialGradient id="paint2_radial_5026_4341" cx="0" cy="0" r="1" gradientUnits="userSpaceOnUse" gradientTransform="translate(277.405 99.4047) rotate(90) scale(12.4047)">
<stop stop-color="#D252B5" stop-opacity="0"/>
<stop offset="1" stop-color="#D252B5"/>
</radialGradient>
<radialGradient id="paint3_radial_5026_4341" cx="0" cy="0" r="1" gradientUnits="userSpaceOnUse" gradientTransform="translate(277.567 99.5672) rotate(90) scale(6.56719)">
<stop stop-color="#D252B5" stop-opacity="0"/>
<stop offset="1" stop-color="#D252B5"/>
</radialGradient>
<radialGradient id="paint4_radial_5026_4341" cx="0" cy="0" r="1" gradientUnits="userSpaceOnUse" gradientTransform="translate(131.405 99.4047) rotate(90) scale(12.4047)">
<stop stop-color="#D252B5" stop-opacity="0"/>
<stop offset="1" stop-color="#D252B5"/>
</radialGradient>
<radialGradient id="paint5_radial_5026_4341" cx="0" cy="0" r="1" gradientUnits="userSpaceOnUse" gradientTransform="translate(131.567 99.5672) rotate(90) scale(6.56719)">
<stop stop-color="#D252B5" stop-opacity="0"/>
<stop offset="1" stop-color="#D252B5"/>
</radialGradient>
<radialGradient id="paint6_radial_5026_4341" cx="0" cy="0" r="1" gradientUnits="userSpaceOnUse" gradientTransform="translate(304.405 167.405) rotate(90) scale(12.4047)">
<stop stop-color="#D252B5" stop-opacity="0"/>
<stop offset="1" stop-color="#D252B5"/>
</radialGradient>
<radialGradient id="paint7_radial_5026_4341" cx="0" cy="0" r="1" gradientUnits="userSpaceOnUse" gradientTransform="translate(304.567 167.567) rotate(90) scale(6.56719)">
<stop stop-color="#D252B5" stop-opacity="0"/>
<stop offset="1" stop-color="#D252B5"/>
</radialGradient>
<radialGradient id="paint8_radial_5026_4341" cx="0" cy="0" r="1" gradientUnits="userSpaceOnUse" gradientTransform="translate(105.405 167.405) rotate(90) scale(12.4047)">
<stop stop-color="#D252B5" stop-opacity="0"/>
<stop offset="1" stop-color="#D252B5"/>
</radialGradient>
<radialGradient id="paint9_radial_5026_4341" cx="0" cy="0" r="1" gradientUnits="userSpaceOnUse" gradientTransform="translate(105.567 167.567) rotate(90) scale(6.56719)">
<stop stop-color="#D252B5" stop-opacity="0"/>
<stop offset="1" stop-color="#D252B5"/>
</radialGradient>
<linearGradient id="paint10_linear_5026_4341" x1="319" y1="167.5" x2="444" y2="167.5" gradientUnits="userSpaceOnUse">
<stop offset="0.5481" stop-color="#D252B5" stop-opacity="0.5"/>
<stop offset="1" stop-color="#D252B5" stop-opacity="0"/>
</linearGradient>
<linearGradient id="paint11_linear_5026_4341" x1="286.326" y1="87.627" x2="374.715" y2="-0.761355" gradientUnits="userSpaceOnUse">
<stop offset="0.5481" stop-color="#D252B5" stop-opacity="0.5"/>
<stop offset="1" stop-color="#D252B5" stop-opacity="0"/>
</linearGradient>
<linearGradient id="paint12_linear_5026_4341" x1="126.166" y1="87.627" x2="37.7781" y2="-0.761355" gradientUnits="userSpaceOnUse">
<stop offset="0.5481" stop-color="#D252B5" stop-opacity="0.5"/>
<stop offset="1" stop-color="#D252B5" stop-opacity="0"/>
</linearGradient>
<linearGradient id="paint13_linear_5026_4341" x1="93.5" y1="167.5" x2="-31.5" y2="167.5" gradientUnits="userSpaceOnUse">
<stop offset="0.5481" stop-color="#D252B5" stop-opacity="0.5"/>
<stop offset="1" stop-color="#D252B5" stop-opacity="0"/>
</linearGradient>
<linearGradient id="paint14_linear_5026_4341" x1="205.755" y1="54.2578" x2="205.755" y2="-5.49805" gradientUnits="userSpaceOnUse">
<stop offset="0.5481" stop-color="#D252B5" stop-opacity="0.5"/>
<stop offset="1" stop-color="#D252B5" stop-opacity="0"/>
</linearGradient>
<clipPath id="clip0_5026_4341">
<rect width="405" height="181" fill="white"/>
</clipPath>
</defs>
</svg>
