<svg width="480" height="400" viewBox="0 0 480 400" fill="none" xmlns="http://www.w3.org/2000/svg">
<g clip-path="url(#clip0_5026_4858)">
<g opacity="0.3">
<path d="M411 0L411 459.5" stroke="url(#paint0_linear_5026_4858)"/>
<path d="M354 0L354 459.5" stroke="url(#paint1_linear_5026_4858)"/>
<path d="M297 0L297 459.5" stroke="url(#paint2_linear_5026_4858)"/>
<path d="M240 0L240 459.5" stroke="url(#paint3_linear_5026_4858)"/>
<path d="M183 0L183 459.5" stroke="url(#paint4_linear_5026_4858)"/>
<path d="M126 0L126 459.5" stroke="url(#paint5_linear_5026_4858)"/>
<path d="M69 0L69 459.5" stroke="url(#paint6_linear_5026_4858)"/>
</g>
<g opacity="0.3">
<path d="M10 29H469.5" stroke="url(#paint7_linear_5026_4858)"/>
<path d="M10 86H469.5" stroke="url(#paint8_linear_5026_4858)"/>
<path d="M10 143H469.5" stroke="url(#paint9_linear_5026_4858)"/>
<path d="M10 200H469.5" stroke="url(#paint10_linear_5026_4858)"/>
<path d="M10 257H469.5" stroke="url(#paint11_linear_5026_4858)"/>
<path d="M10 314H469.5" stroke="url(#paint12_linear_5026_4858)"/>
<path d="M10 371H469.5" stroke="url(#paint13_linear_5026_4858)"/>
</g>
<path opacity="0.3" d="M449 116L20 303.333V397H449V116Z" fill="url(#paint14_linear_5026_4858)"/>
<path d="M20 303L449 116" stroke="#D252B5" stroke-width="1.5"/>
<path d="M46.5989 365.853L50.6732 358.98C51.0334 358.373 51.6873 358 52.3937 358H59.6063C60.3127 358 60.9666 358.373 61.3268 358.98L65.4011 365.853C65.7708 366.477 65.774 367.252 65.4093 367.879L61.3242 374.9C60.9661 375.516 60.3077 375.895 59.5955 375.895H52.4045C51.6923 375.895 51.0339 375.516 50.6758 374.9L46.5907 367.879C46.226 367.252 46.2292 366.477 46.5989 365.853Z" fill="url(#paint15_linear_5026_4858)"/>
<path d="M54.9467 361.16H52.6309L49.1572 366.698L52.6309 372.739H54.9467L51.473 366.698L54.9467 361.16Z" fill="#131313"/>
<path d="M57.0523 361.16H59.3681L62.8418 366.698L59.3681 372.739H57.0523L60.526 366.698L57.0523 361.16Z" fill="#131313"/>
<path d="M133.599 365.853L137.673 358.98C138.033 358.373 138.687 358 139.394 358H146.606C147.313 358 147.967 358.373 148.327 358.98L152.401 365.853C152.771 366.477 152.774 367.252 152.409 367.879L148.324 374.9C147.966 375.516 147.308 375.895 146.595 375.895H139.405C138.692 375.895 138.034 375.516 137.676 374.9L133.591 367.879C133.226 367.252 133.229 366.477 133.599 365.853Z" fill="url(#paint16_linear_5026_4858)"/>
<path d="M141.947 361.16H139.631L136.157 366.698L139.631 372.739H141.947L138.473 366.698L141.947 361.16Z" fill="#131313"/>
<path d="M144.052 361.16H146.368L149.842 366.698L146.368 372.739H144.052L147.526 366.698L144.052 361.16Z" fill="#131313"/>
<path d="M238.599 365.853L242.673 358.98C243.033 358.373 243.687 358 244.394 358H251.606C252.313 358 252.967 358.373 253.327 358.98L257.401 365.853C257.771 366.477 257.774 367.252 257.409 367.879L253.324 374.9C252.966 375.516 252.308 375.895 251.595 375.895H244.405C243.692 375.895 243.034 375.516 242.676 374.9L238.591 367.879C238.226 367.252 238.229 366.477 238.599 365.853Z" fill="url(#paint17_linear_5026_4858)"/>
<path d="M246.947 361.16H244.631L241.157 366.698L244.631 372.739H246.947L243.473 366.698L246.947 361.16Z" fill="#131313"/>
<path d="M249.052 361.16H251.368L254.842 366.698L251.368 372.739H249.052L252.526 366.698L249.052 361.16Z" fill="#131313"/>
<path d="M355.599 365.853L359.673 358.98C360.033 358.373 360.687 358 361.394 358H368.606C369.313 358 369.967 358.373 370.327 358.98L374.401 365.853C374.771 366.477 374.774 367.252 374.409 367.879L370.324 374.9C369.966 375.516 369.308 375.895 368.595 375.895H361.405C360.692 375.895 360.034 375.516 359.676 374.9L355.591 367.879C355.226 367.252 355.229 366.477 355.599 365.853Z" fill="url(#paint18_linear_5026_4858)"/>
<path d="M363.947 361.16H361.631L358.157 366.698L361.631 372.739H363.947L360.473 366.698L363.947 361.16Z" fill="#131313"/>
<path d="M366.052 361.16H368.368L371.842 366.698L368.368 372.739H366.052L369.526 366.698L366.052 361.16Z" fill="#131313"/>
<g opacity="0.8">
<path d="M149.599 365.853L153.673 358.98C154.033 358.373 154.687 358 155.394 358H162.606C163.313 358 163.967 358.373 164.327 358.98L168.401 365.853C168.771 366.477 168.774 367.252 168.409 367.879L164.324 374.9C163.966 375.516 163.308 375.895 162.595 375.895H155.405C154.692 375.895 154.034 375.516 153.676 374.9L149.591 367.879C149.226 367.252 149.229 366.477 149.599 365.853Z" fill="url(#paint19_linear_5026_4858)"/>
<path d="M157.947 361.16H155.631L152.157 366.698L155.631 372.739H157.947L154.473 366.698L157.947 361.16Z" fill="#131313"/>
<path d="M160.052 361.16H162.368L165.842 366.698L162.368 372.739H160.052L163.526 366.698L160.052 361.16Z" fill="#131313"/>
</g>
<g opacity="0.8">
<path d="M254.599 365.853L258.673 358.98C259.033 358.373 259.687 358 260.394 358H267.606C268.313 358 268.967 358.373 269.327 358.98L273.401 365.853C273.771 366.477 273.774 367.252 273.409 367.879L269.324 374.9C268.966 375.516 268.308 375.895 267.595 375.895H260.405C259.692 375.895 259.034 375.516 258.676 374.9L254.591 367.879C254.226 367.252 254.229 366.477 254.599 365.853Z" fill="url(#paint20_linear_5026_4858)"/>
<path d="M262.947 361.16H260.631L257.157 366.698L260.631 372.739H262.947L259.473 366.698L262.947 361.16Z" fill="#131313"/>
<path d="M265.052 361.16H267.368L270.842 366.698L267.368 372.739H265.052L268.526 366.698L265.052 361.16Z" fill="#131313"/>
</g>
<g opacity="0.8">
<path d="M371.599 365.853L375.673 358.98C376.033 358.373 376.687 358 377.394 358H384.606C385.313 358 385.967 358.373 386.327 358.98L390.401 365.853C390.771 366.477 390.774 367.252 390.409 367.879L386.324 374.9C385.966 375.516 385.308 375.895 384.595 375.895H377.405C376.692 375.895 376.034 375.516 375.676 374.9L371.591 367.879C371.226 367.252 371.229 366.477 371.599 365.853Z" fill="url(#paint21_linear_5026_4858)"/>
<path d="M379.947 361.16H377.631L374.157 366.698L377.631 372.739H379.947L376.473 366.698L379.947 361.16Z" fill="#131313"/>
<path d="M382.052 361.16H384.368L387.842 366.698L384.368 372.739H382.052L385.526 366.698L382.052 361.16Z" fill="#131313"/>
</g>
<path d="M270.599 365.853L274.673 358.98C275.033 358.373 275.687 358 276.394 358H283.606C284.313 358 284.967 358.373 285.327 358.98L289.401 365.853C289.771 366.477 289.774 367.252 289.409 367.879L285.324 374.9C284.966 375.516 284.308 375.895 283.595 375.895H276.405C275.692 375.895 275.034 375.516 274.676 374.9L270.591 367.879C270.226 367.252 270.229 366.477 270.599 365.853Z" fill="url(#paint22_linear_5026_4858)"/>
<path d="M278.947 361.16H276.631L273.157 366.698L276.631 372.739H278.947L275.473 366.698L278.947 361.16Z" fill="#131313"/>
<path d="M281.052 361.16H283.368L286.842 366.698L283.368 372.739H281.052L284.526 366.698L281.052 361.16Z" fill="#131313"/>
<path d="M387.599 365.853L391.673 358.98C392.033 358.373 392.687 358 393.394 358H400.606C401.313 358 401.967 358.373 402.327 358.98L406.401 365.853C406.771 366.477 406.774 367.252 406.409 367.879L402.324 374.9C401.966 375.516 401.308 375.895 400.595 375.895H393.405C392.692 375.895 392.034 375.516 391.676 374.9L387.591 367.879C387.226 367.252 387.229 366.477 387.599 365.853Z" fill="url(#paint23_linear_5026_4858)"/>
<path d="M395.947 361.16H393.631L390.157 366.698L393.631 372.739H395.947L392.473 366.698L395.947 361.16Z" fill="#131313"/>
<path d="M398.052 361.16H400.368L403.842 366.698L400.368 372.739H398.052L401.526 366.698L398.052 361.16Z" fill="#131313"/>
<g opacity="0.8">
<path d="M403.599 365.853L407.673 358.98C408.033 358.373 408.687 358 409.394 358H416.606C417.313 358 417.967 358.373 418.327 358.98L422.401 365.853C422.771 366.477 422.774 367.252 422.409 367.879L418.324 374.9C417.966 375.516 417.308 375.895 416.595 375.895H409.405C408.692 375.895 408.034 375.516 407.676 374.9L403.591 367.879C403.226 367.252 403.229 366.477 403.599 365.853Z" fill="url(#paint24_linear_5026_4858)"/>
<path d="M411.947 361.16H409.631L406.157 366.698L409.631 372.739H411.947L408.473 366.698L411.947 361.16Z" fill="#131313"/>
<path d="M414.052 361.16H416.368L419.842 366.698L416.368 372.739H414.052L417.526 366.698L414.052 361.16Z" fill="#131313"/>
</g>
<path d="M115.312 92.3442C115.312 101.601 111.707 110.304 105.161 116.85C98.6156 123.395 89.9127 127 80.6559 127C71.399 127 62.6961 123.395 56.1505 116.85C49.6049 110.304 46 101.601 46 92.3442C46 86.1534 47.653 80.0766 50.7805 74.771C53.8147 69.6235 58.1521 65.321 63.3236 62.3288C64.5183 61.6371 66.0482 62.0453 66.7394 63.2407C67.431 64.4357 67.0227 65.9652 65.8275 66.6564C57.4085 71.5275 51.9289 80.2558 51.1105 89.844H53.8745C55.2553 89.844 56.3746 90.9632 56.3746 92.344C56.3746 93.7248 55.2553 94.844 53.8745 94.844H51.1064C52.3111 109.206 63.7938 120.689 78.1558 121.894V119.125C78.1558 117.745 79.2751 116.625 80.6559 116.625C82.0366 116.625 83.1559 117.745 83.1559 119.125V121.894C97.5179 120.689 109.001 109.206 110.205 94.8442H107.437C106.056 94.8442 104.937 93.7249 104.937 92.3442C104.937 90.9634 106.056 89.8441 107.437 89.8441H110.201C109.383 80.256 103.903 71.5274 95.4838 66.6566C94.2888 65.9652 93.8804 64.436 94.572 63.2408C95.2634 62.0458 96.7929 61.6375 97.9878 62.3289C103.159 65.3208 107.497 69.6235 110.531 74.7711C113.659 80.0766 115.312 86.1534 115.312 92.3442ZM75.7533 57.9378L78.1376 55.5536L78.0973 66.7879C78.0924 68.1686 79.2076 69.2918 80.5882 69.2969H80.5974C81.974 69.2969 83.0923 68.1835 83.0973 66.806L83.1377 55.5172L85.5584 57.9378C86.0465 58.426 86.6863 58.6702 87.326 58.6702C87.9657 58.6702 88.6056 58.426 89.0937 57.9378C90.0699 56.9616 90.0699 55.3786 89.0937 54.4024L82.4235 47.7322C81.4473 46.7559 79.8643 46.7559 78.888 47.7322L72.2179 54.4024C71.2416 55.3786 71.2416 56.9616 72.2179 57.9378C73.1941 58.9141 74.7771 58.9141 75.7533 57.9378ZM83.1559 74.2433V84.3415C85.7715 85.1602 87.8398 87.2287 88.6587 89.8441H96.5482C97.929 89.8441 99.0482 90.9634 99.0482 92.3442C99.0482 93.7249 97.929 94.8442 96.5482 94.8442H88.6587C87.5926 98.2496 84.4084 100.728 80.6559 100.728C76.0332 100.728 72.2724 96.967 72.2724 92.3442C72.2724 88.5918 74.7505 85.4076 78.1558 84.3415V74.2433C78.1558 72.8626 79.2751 71.7433 80.6559 71.7433C82.0366 71.7433 83.1559 72.8626 83.1559 74.2433ZM84.0395 92.3442C84.0395 90.4785 82.5215 88.9607 80.6559 88.9607C78.7902 88.9607 77.2724 90.4785 77.2724 92.3442C77.2724 94.2098 78.7902 95.7278 80.6559 95.7278C82.5215 95.7278 84.0395 94.2099 84.0395 92.3442Z" fill="url(#paint25_linear_5026_4858)"/>
</g>
<defs>
<linearGradient id="paint0_linear_5026_4858" x1="399.496" y1="460" x2="399.496" y2="3.96225e-06" gradientUnits="userSpaceOnUse">
<stop stop-color="#D252B5" stop-opacity="0"/>
<stop offset="0.298115" stop-color="#D252B5"/>
<stop offset="0.712756" stop-color="#D252B5"/>
<stop offset="1" stop-color="#D252B5" stop-opacity="0"/>
</linearGradient>
<linearGradient id="paint1_linear_5026_4858" x1="342.496" y1="460" x2="342.496" y2="3.96225e-06" gradientUnits="userSpaceOnUse">
<stop stop-color="#D252B5" stop-opacity="0"/>
<stop offset="0.298115" stop-color="#D252B5"/>
<stop offset="0.712756" stop-color="#D252B5"/>
<stop offset="1" stop-color="#D252B5" stop-opacity="0"/>
</linearGradient>
<linearGradient id="paint2_linear_5026_4858" x1="285.496" y1="460" x2="285.496" y2="3.96225e-06" gradientUnits="userSpaceOnUse">
<stop stop-color="#D252B5" stop-opacity="0"/>
<stop offset="0.298115" stop-color="#D252B5"/>
<stop offset="0.712756" stop-color="#D252B5"/>
<stop offset="1" stop-color="#D252B5" stop-opacity="0"/>
</linearGradient>
<linearGradient id="paint3_linear_5026_4858" x1="228.496" y1="460" x2="228.496" y2="3.96225e-06" gradientUnits="userSpaceOnUse">
<stop stop-color="#D252B5" stop-opacity="0"/>
<stop offset="0.298115" stop-color="#D252B5"/>
<stop offset="0.712756" stop-color="#D252B5"/>
<stop offset="1" stop-color="#D252B5" stop-opacity="0"/>
</linearGradient>
<linearGradient id="paint4_linear_5026_4858" x1="171.496" y1="460" x2="171.496" y2="3.96225e-06" gradientUnits="userSpaceOnUse">
<stop stop-color="#D252B5" stop-opacity="0"/>
<stop offset="0.298115" stop-color="#D252B5"/>
<stop offset="0.712756" stop-color="#D252B5"/>
<stop offset="1" stop-color="#D252B5" stop-opacity="0"/>
</linearGradient>
<linearGradient id="paint5_linear_5026_4858" x1="114.496" y1="460" x2="114.496" y2="3.96225e-06" gradientUnits="userSpaceOnUse">
<stop stop-color="#D252B5" stop-opacity="0"/>
<stop offset="0.298115" stop-color="#D252B5"/>
<stop offset="0.712756" stop-color="#D252B5"/>
<stop offset="1" stop-color="#D252B5" stop-opacity="0"/>
</linearGradient>
<linearGradient id="paint6_linear_5026_4858" x1="57.4961" y1="460" x2="57.4959" y2="3.96225e-06" gradientUnits="userSpaceOnUse">
<stop stop-color="#D252B5" stop-opacity="0"/>
<stop offset="0.298115" stop-color="#D252B5"/>
<stop offset="0.712756" stop-color="#D252B5"/>
<stop offset="1" stop-color="#D252B5" stop-opacity="0"/>
</linearGradient>
<linearGradient id="paint7_linear_5026_4858" x1="470" y1="40.5039" x2="10" y2="40.5041" gradientUnits="userSpaceOnUse">
<stop stop-color="#D252B5" stop-opacity="0"/>
<stop offset="0.298115" stop-color="#D252B5"/>
<stop offset="0.712756" stop-color="#D252B5"/>
<stop offset="1" stop-color="#D252B5" stop-opacity="0"/>
</linearGradient>
<linearGradient id="paint8_linear_5026_4858" x1="470" y1="97.5039" x2="10" y2="97.5041" gradientUnits="userSpaceOnUse">
<stop stop-color="#D252B5" stop-opacity="0"/>
<stop offset="0.298115" stop-color="#D252B5"/>
<stop offset="0.712756" stop-color="#D252B5"/>
<stop offset="1" stop-color="#D252B5" stop-opacity="0"/>
</linearGradient>
<linearGradient id="paint9_linear_5026_4858" x1="470" y1="154.504" x2="10" y2="154.504" gradientUnits="userSpaceOnUse">
<stop stop-color="#D252B5" stop-opacity="0"/>
<stop offset="0.298115" stop-color="#D252B5"/>
<stop offset="0.712756" stop-color="#D252B5"/>
<stop offset="1" stop-color="#D252B5" stop-opacity="0"/>
</linearGradient>
<linearGradient id="paint10_linear_5026_4858" x1="470" y1="211.504" x2="10" y2="211.504" gradientUnits="userSpaceOnUse">
<stop stop-color="#D252B5" stop-opacity="0"/>
<stop offset="0.298115" stop-color="#D252B5"/>
<stop offset="0.712756" stop-color="#D252B5"/>
<stop offset="1" stop-color="#D252B5" stop-opacity="0"/>
</linearGradient>
<linearGradient id="paint11_linear_5026_4858" x1="470" y1="268.504" x2="10" y2="268.504" gradientUnits="userSpaceOnUse">
<stop stop-color="#D252B5" stop-opacity="0"/>
<stop offset="0.298115" stop-color="#D252B5"/>
<stop offset="0.712756" stop-color="#D252B5"/>
<stop offset="1" stop-color="#D252B5" stop-opacity="0"/>
</linearGradient>
<linearGradient id="paint12_linear_5026_4858" x1="470" y1="325.504" x2="10" y2="325.504" gradientUnits="userSpaceOnUse">
<stop stop-color="#D252B5" stop-opacity="0"/>
<stop offset="0.298115" stop-color="#D252B5"/>
<stop offset="0.712756" stop-color="#D252B5"/>
<stop offset="1" stop-color="#D252B5" stop-opacity="0"/>
</linearGradient>
<linearGradient id="paint13_linear_5026_4858" x1="470" y1="382.504" x2="10" y2="382.504" gradientUnits="userSpaceOnUse">
<stop stop-color="#D252B5" stop-opacity="0"/>
<stop offset="0.298115" stop-color="#D252B5"/>
<stop offset="0.712756" stop-color="#D252B5"/>
<stop offset="1" stop-color="#D252B5" stop-opacity="0"/>
</linearGradient>
<linearGradient id="paint14_linear_5026_4858" x1="234.5" y1="116" x2="234.5" y2="397" gradientUnits="userSpaceOnUse">
<stop stop-color="#D252B5"/>
<stop offset="1" stop-color="#D252B5" stop-opacity="0.12"/>
</linearGradient>
<linearGradient id="paint15_linear_5026_4858" x1="56" y1="358" x2="56" y2="375.895" gradientUnits="userSpaceOnUse">
<stop stop-color="#D252B5" stop-opacity="0.35"/>
<stop offset="0.605793" stop-color="#D252B5"/>
</linearGradient>
<linearGradient id="paint16_linear_5026_4858" x1="143" y1="358" x2="143" y2="375.895" gradientUnits="userSpaceOnUse">
<stop stop-color="#D252B5" stop-opacity="0.35"/>
<stop offset="0.605793" stop-color="#D252B5"/>
</linearGradient>
<linearGradient id="paint17_linear_5026_4858" x1="248" y1="358" x2="248" y2="375.895" gradientUnits="userSpaceOnUse">
<stop stop-color="#D252B5" stop-opacity="0.35"/>
<stop offset="0.605793" stop-color="#D252B5"/>
</linearGradient>
<linearGradient id="paint18_linear_5026_4858" x1="365" y1="358" x2="365" y2="375.895" gradientUnits="userSpaceOnUse">
<stop stop-color="#D252B5" stop-opacity="0.35"/>
<stop offset="0.605793" stop-color="#D252B5"/>
</linearGradient>
<linearGradient id="paint19_linear_5026_4858" x1="159" y1="358" x2="159" y2="375.895" gradientUnits="userSpaceOnUse">
<stop stop-color="#D252B5" stop-opacity="0.35"/>
<stop offset="0.605793" stop-color="#D252B5"/>
</linearGradient>
<linearGradient id="paint20_linear_5026_4858" x1="264" y1="358" x2="264" y2="375.895" gradientUnits="userSpaceOnUse">
<stop stop-color="#D252B5" stop-opacity="0.35"/>
<stop offset="0.605793" stop-color="#D252B5"/>
</linearGradient>
<linearGradient id="paint21_linear_5026_4858" x1="381" y1="358" x2="381" y2="375.895" gradientUnits="userSpaceOnUse">
<stop stop-color="#D252B5" stop-opacity="0.35"/>
<stop offset="0.605793" stop-color="#D252B5"/>
</linearGradient>
<linearGradient id="paint22_linear_5026_4858" x1="280" y1="358" x2="280" y2="375.895" gradientUnits="userSpaceOnUse">
<stop stop-color="#D252B5" stop-opacity="0.35"/>
<stop offset="0.605793" stop-color="#D252B5"/>
</linearGradient>
<linearGradient id="paint23_linear_5026_4858" x1="397" y1="358" x2="397" y2="375.895" gradientUnits="userSpaceOnUse">
<stop stop-color="#D252B5" stop-opacity="0.35"/>
<stop offset="0.605793" stop-color="#D252B5"/>
</linearGradient>
<linearGradient id="paint24_linear_5026_4858" x1="413" y1="358" x2="413" y2="375.895" gradientUnits="userSpaceOnUse">
<stop stop-color="#D252B5" stop-opacity="0.35"/>
<stop offset="0.605793" stop-color="#D252B5"/>
</linearGradient>
<linearGradient id="paint25_linear_5026_4858" x1="80.6558" y1="47" x2="80.6558" y2="127" gradientUnits="userSpaceOnUse">
<stop stop-color="#D252B5" stop-opacity="0.35"/>
<stop offset="0.605793" stop-color="#D252B5"/>
</linearGradient>
<clipPath id="clip0_5026_4858">
<rect width="480" height="400" fill="white"/>
</clipPath>
</defs>
</svg>
