<svg width="405" height="181" viewBox="0 0 405 181" fill="none" xmlns="http://www.w3.org/2000/svg">
<g clip-path="url(#clip0_5026_4328)">
<g opacity="0.2" filter="url(#filter0_f_5026_4328)">
<ellipse cx="172.5" cy="107" rx="43.5" ry="43" fill="#D252B5"/>
</g>
<g opacity="0.2" filter="url(#filter1_f_5026_4328)">
<ellipse cx="241.5" cy="154" rx="43.5" ry="43" fill="#D252B5"/>
</g>
<g opacity="0.2" filter="url(#filter2_f_5026_4328)">
<ellipse cx="237.5" cy="48" rx="43.5" ry="43" fill="#D252B5"/>
</g>
<path opacity="0.3" d="M171.5 75.5C189.733 75.5 204.5 90.0578 204.5 108C204.5 125.942 189.733 140.5 171.5 140.5C153.267 140.5 138.5 125.942 138.5 108C138.5 90.0578 153.267 75.5 171.5 75.5Z" stroke="#D252B5"/>
<path opacity="0.3" d="M240.5 122.5C258.733 122.5 273.5 137.058 273.5 155C273.5 172.942 258.733 187.5 240.5 187.5C222.267 187.5 207.5 172.942 207.5 155C207.5 137.058 222.267 122.5 240.5 122.5Z" stroke="#D252B5"/>
<path opacity="0.3" d="M236.5 16.5C254.733 16.5 269.5 31.0578 269.5 49C269.5 66.9422 254.733 81.5 236.5 81.5C218.267 81.5 203.5 66.9422 203.5 49C203.5 31.0578 218.267 16.5 236.5 16.5Z" stroke="#D252B5"/>
<g clip-path="url(#clip1_5026_4328)">
<path d="M174.512 124C174.269 124 174.023 123.945 173.791 123.829C172.995 123.43 172.673 122.461 173.072 121.665C174.021 119.77 174.79 117.789 175.368 115.75C175.61 114.893 176.502 114.395 177.358 114.638C178.215 114.88 178.713 115.771 178.471 116.628C177.837 118.863 176.995 121.033 175.955 123.11C175.672 123.674 175.103 124 174.512 124ZM167.366 123.56C167.062 123.56 166.765 123.474 166.508 123.312C165.755 122.838 165.528 121.842 166.002 121.088C168.744 116.73 170.194 111.691 170.194 106.515C170.194 105.624 170.916 104.902 171.806 104.902C172.697 104.902 173.418 105.624 173.418 106.515C173.418 112.299 171.798 117.933 168.732 122.806C168.426 123.293 167.901 123.56 167.366 123.56ZM161.819 120.27C161.527 120.27 161.241 120.191 160.991 120.04C160.227 119.582 159.98 118.591 160.438 117.828L160.525 117.683C160.531 117.673 160.537 117.663 160.543 117.654C162.645 114.314 163.752 110.464 163.744 106.518C163.744 104.361 164.583 102.337 166.105 100.814C167.628 99.2911 169.653 98.4525 171.806 98.4525C173.96 98.4525 175.984 99.2911 177.507 100.814C179.03 102.336 179.868 104.361 179.868 106.515C179.868 108.195 179.753 109.895 179.526 111.568C179.407 112.451 178.594 113.069 177.712 112.95C176.829 112.83 176.211 112.018 176.331 111.135C176.538 109.604 176.643 108.06 176.643 106.515C176.643 105.222 176.14 104.008 175.227 103.094C174.313 102.181 173.098 101.677 171.806 101.677C170.514 101.677 169.299 102.181 168.386 103.094C167.472 104.008 166.969 105.223 166.969 106.515C166.978 111.062 165.703 115.504 163.282 119.356L163.203 119.488C162.901 119.991 162.367 120.27 161.819 120.27ZM183.11 119.627C182.96 119.627 182.812 119.606 182.668 119.565C181.811 119.321 181.314 118.429 181.558 117.573C182.577 113.995 183.093 110.275 183.093 106.515C183.093 104.533 182.572 102.586 181.582 100.87C180.591 99.1542 179.166 97.7291 177.451 96.7377C175.734 95.7473 173.788 95.2256 171.807 95.2249H171.806C169.825 95.2256 167.879 95.747 166.163 96.737C165.391 97.1822 164.405 96.918 163.96 96.1468C163.515 95.3756 163.779 94.3894 164.55 93.9442C166.753 92.6723 169.262 92 171.806 92H171.807C174.354 92.001 176.857 92.6718 179.063 93.945C181.267 95.2175 183.103 97.0546 184.375 99.258C185.648 101.465 186.318 103.967 186.318 106.515C186.318 110.573 185.76 114.591 184.66 118.456C184.458 119.165 183.812 119.627 183.11 119.627ZM157.293 115.164C157.057 115.164 156.817 115.112 156.591 115.002C155.789 114.613 155.455 113.648 155.844 112.847C156.806 110.864 157.294 108.733 157.294 106.515C157.294 103.966 157.966 101.457 159.236 99.2584C159.681 98.4873 160.668 98.2232 161.439 98.6689C162.21 99.1144 162.474 100.101 162.028 100.872C161.041 102.58 160.519 104.532 160.519 106.515C160.519 109.225 159.922 111.829 158.745 114.255C158.466 114.83 157.892 115.164 157.293 115.164Z" fill="#D252B5"/>
</g>
<g clip-path="url(#clip2_5026_4328)">
<path d="M251.652 147.697C254.053 147.697 256 145.75 256 143.348C256 140.947 254.053 139 251.652 139C249.25 139 247.303 140.947 247.303 143.348C247.303 145.75 249.25 147.697 251.652 147.697ZM251.652 140.875C253.016 140.875 254.125 141.985 254.125 143.348C254.125 144.712 253.016 145.821 251.652 145.821C250.288 145.821 249.178 144.712 249.178 143.348C249.178 141.985 250.288 140.875 251.652 140.875ZM228.348 150.652C225.947 150.652 224 152.599 224 155C224 157.401 225.947 159.348 228.348 159.348C230.75 159.348 232.697 157.401 232.697 155C232.697 152.599 230.75 150.652 228.348 150.652ZM228.348 157.473C226.984 157.473 225.875 156.364 225.875 155C225.875 153.636 226.984 152.527 228.348 152.527C229.712 152.527 230.822 153.636 230.822 155C230.822 156.364 229.712 157.473 228.348 157.473ZM251.652 150.652C249.25 150.652 247.303 152.599 247.303 155C247.303 157.401 249.25 159.348 251.652 159.348C254.053 159.348 256 157.401 256 155C256 152.599 254.053 150.652 251.652 150.652ZM251.652 157.473C250.288 157.473 249.178 156.364 249.178 155C249.178 153.636 250.288 152.527 251.652 152.527C253.016 152.527 254.125 153.636 254.125 155C254.125 156.364 253.016 157.473 251.652 157.473ZM228.348 162.303C225.947 162.303 224 164.25 224 166.652C224 169.053 225.947 171 228.348 171C230.75 171 232.697 169.053 232.697 166.652C232.697 164.25 230.75 162.303 228.348 162.303ZM228.348 169.125C226.984 169.125 225.875 168.016 225.875 166.652C225.875 165.288 226.984 164.178 228.348 164.178C229.712 164.178 230.822 165.288 230.822 166.652C230.822 168.016 229.712 169.125 228.348 169.125Z" fill="#D252B5"/>
<path d="M251.652 162.303C249.685 162.303 248.024 163.61 247.487 165.402H244.165C243.747 164.006 242.646 162.905 241.25 162.487V159.165C243.042 158.628 244.348 156.967 244.348 155C244.348 153.033 243.042 151.372 241.25 150.835V147.513C243.042 146.976 244.348 145.315 244.348 143.348C244.348 140.947 242.401 139 240 139C238.033 139 236.372 140.306 235.835 142.098H232.513C231.976 140.306 230.315 139 228.348 139C225.947 139 224 140.947 224 143.348C224 145.75 225.947 147.696 228.348 147.696C230.315 147.696 231.976 146.39 232.513 144.598H235.835C236.253 145.994 237.354 147.095 238.75 147.513V150.835C236.958 151.372 235.652 153.033 235.652 155C235.652 156.967 236.958 158.628 238.75 159.165V162.487C236.958 163.024 235.652 164.685 235.652 166.652C235.652 169.053 237.599 171 240 171C241.967 171 243.628 169.694 244.165 167.902H247.487C248.024 169.694 249.685 171 251.652 171C254.053 171 256 169.053 256 166.652C256 164.25 254.053 162.303 251.652 162.303Z" fill="#D252B5"/>
</g>
<g opacity="0.8" clip-path="url(#clip3_5026_4328)">
<path d="M20 87C25.3431 87 30.3644 89.0793 34.1426 92.8574C37.9207 96.6356 40 101.657 40 107C40 112.343 37.9207 117.364 34.1426 121.143C30.3644 124.921 25.3431 127 20 127C14.6569 127 9.63556 124.921 5.85737 121.143C2.07926 117.364 0 112.343 0 107C0 101.657 2.07934 96.6356 5.85737 92.8574C9.63556 89.0793 14.6569 87 20 87ZM20 110.046C13.8169 110.046 8.58797 114.741 7.88061 120.827L7.84856 121.102L8.0609 121.279C11.2951 123.987 15.4602 125.622 20 125.622C24.5399 125.622 28.706 123.988 31.9401 121.279L32.1514 121.102L32.1194 120.826C31.8033 118.11 30.5757 115.567 28.6288 113.62C26.3245 111.316 23.2577 110.046 20 110.046ZM20 88.3782C9.73144 88.3782 1.37821 96.7314 1.37821 107C1.37821 111.657 3.09689 115.92 5.93149 119.188L6.57953 119.935L6.81691 118.975C7.44405 116.437 8.79705 114.124 10.7462 112.308C12.092 111.055 13.6552 110.103 15.3446 109.487L16.2871 109.143L15.4567 108.581C13.2977 107.118 11.879 104.647 11.879 101.852C11.8792 97.3744 15.5226 93.7308 20 93.7308C24.4774 93.7308 28.1208 97.3744 28.121 101.852C28.121 104.645 26.7036 107.116 24.5463 108.579L23.7159 109.141L24.6585 109.484C26.4939 110.153 28.1778 111.221 29.6024 112.645C31.3488 114.391 32.5869 116.58 33.1821 118.977L33.4195 119.936L34.0665 119.19C36.9022 115.922 38.6218 111.658 38.6218 107C38.6218 96.7314 30.2686 88.3782 20 88.3782ZM20 95.109C16.2818 95.109 13.2574 98.1332 13.2572 101.852C13.2572 105.398 16.0075 108.311 19.4872 108.574V108.596H20C23.7184 108.596 26.7428 105.57 26.7428 101.852C26.7426 98.1332 23.7182 95.109 20 95.109Z" fill="#D252B5"/>
<circle opacity="0.1" cx="86.1396" cy="168.141" r="52.5" fill="white"/>
</g>
<g opacity="0.8" clip-path="url(#clip4_5026_4328)">
<path d="M89 134C94.3431 134 99.3644 136.079 103.143 139.857C106.921 143.636 109 148.657 109 154C109 159.343 106.921 164.364 103.143 168.143C99.3644 171.921 94.3431 174 89 174C83.6569 174 78.6356 171.921 74.8574 168.143C71.0793 164.364 69 159.343 69 154C69 148.657 71.0793 143.636 74.8574 139.857C78.6356 136.079 83.6569 134 89 134ZM89 157.046C82.8169 157.046 77.588 161.741 76.8806 167.827L76.8486 168.102L77.0609 168.279C80.2951 170.987 84.4602 172.622 89 172.622C93.5399 172.622 97.706 170.988 100.94 168.279L101.151 168.102L101.119 167.826C100.803 165.11 99.5757 162.567 97.6288 160.62C95.3245 158.316 92.2577 157.046 89 157.046ZM89 135.378C78.7314 135.378 70.3782 143.731 70.3782 154C70.3782 158.657 72.0969 162.92 74.9315 166.188L75.5795 166.935L75.8169 165.975C76.444 163.437 77.7971 161.124 79.7462 159.308C81.092 158.055 82.6552 157.103 84.3446 156.487L85.2871 156.143L84.4567 155.581C82.2977 154.118 80.879 151.647 80.879 148.852C80.8792 144.374 84.5226 140.731 89 140.731C93.4774 140.731 97.1208 144.374 97.121 148.852C97.121 151.645 95.7036 154.116 93.5463 155.579L92.7159 156.141L93.6585 156.484C95.4939 157.153 97.1778 158.221 98.6024 159.645C100.349 161.391 101.587 163.58 102.182 165.977L102.419 166.936L103.067 166.19C105.902 162.922 107.622 158.658 107.622 154C107.622 143.731 99.2686 135.378 89 135.378ZM89 142.109C85.2818 142.109 82.2574 145.133 82.2572 148.852C82.2572 152.398 85.0075 155.311 88.4872 155.574V155.596H89C92.7184 155.596 95.7428 152.57 95.7428 148.852C95.7426 145.133 92.7182 142.109 89 142.109Z" fill="#D252B5"/>
<circle opacity="0.1" cx="155.14" cy="215.141" r="52.5" fill="white"/>
</g>
<g opacity="0.8" clip-path="url(#clip5_5026_4328)">
<path d="M85 28C90.3431 28 95.3644 30.0793 99.1426 33.8574C102.921 37.6356 105 42.6569 105 48C105 53.3431 102.921 58.3644 99.1426 62.1426C95.3644 65.9207 90.3431 68 85 68C79.6569 68 74.6356 65.9207 70.8574 62.1426C67.0793 58.3644 65 53.3431 65 48C65 42.6569 67.0793 37.6356 70.8574 33.8574C74.6356 30.0793 79.6569 28 85 28ZM85 51.0459C78.8169 51.0459 73.588 55.7412 72.8806 61.8271L72.8486 62.1016L73.0609 62.2788C76.2951 64.9875 80.4602 66.6218 85 66.6218C89.5399 66.6218 93.706 64.9875 96.9401 62.2788L97.1514 62.1016L97.1194 61.8261C96.8033 59.11 95.5757 56.5668 93.6288 54.6196C91.3245 52.3158 88.2577 51.0459 85 51.0459ZM85 29.3782C74.7314 29.3782 66.3782 37.7314 66.3782 48C66.3782 52.6566 68.0969 56.9196 70.9315 60.1875L71.5795 60.9347L71.8169 59.9752C72.444 57.437 73.7971 55.1236 75.7462 53.3085C77.092 52.0547 78.6552 51.1026 80.3446 50.487L81.2871 50.1434L80.4567 49.5805C78.2977 48.1178 76.879 45.6466 76.879 42.8518C76.8792 38.3744 80.5226 34.7308 85 34.7308C89.4774 34.7308 93.1208 38.3744 93.121 42.8518C93.121 45.645 91.7036 48.1155 89.5463 49.5785L88.7159 50.1414L89.6585 50.484C91.4939 51.1527 93.1778 52.2205 94.6024 53.645C96.3488 55.391 97.5869 57.5805 98.1821 59.9772L98.4195 60.9357L99.0665 60.1895C101.902 56.9216 103.622 52.6576 103.622 48C103.622 37.7314 95.2686 29.3782 85 29.3782ZM85 36.109C81.2818 36.109 78.2574 39.1332 78.2572 42.8518C78.2572 46.3976 81.0075 49.3106 84.4872 49.5735V49.5956H85C88.7184 49.5956 91.7428 46.5702 91.7428 42.8518C91.7426 39.1332 88.7182 36.109 85 36.109Z" fill="#D252B5"/>
<circle opacity="0.1" cx="151.14" cy="109.141" r="52.5" fill="white"/>
</g>
<path opacity="0.6" d="M44 109H127" stroke="#D252B5" stroke-linecap="round" stroke-linejoin="round" stroke-dasharray="1 3"/>
<path opacity="0.6" d="M113 156H196" stroke="#D252B5" stroke-linecap="round" stroke-linejoin="round" stroke-dasharray="1 3"/>
<path opacity="0.6" d="M109 50H192" stroke="#D252B5" stroke-linecap="round" stroke-linejoin="round" stroke-dasharray="1 3"/>
<path opacity="0.6" d="M213 109H296" stroke="#D252B5" stroke-linecap="round" stroke-linejoin="round" stroke-dasharray="1 3"/>
<path opacity="0.6" d="M282 156H365" stroke="#D252B5" stroke-linecap="round" stroke-linejoin="round" stroke-dasharray="1 3"/>
<path opacity="0.6" d="M278 50H361" stroke="#D252B5" stroke-linecap="round" stroke-linejoin="round" stroke-dasharray="1 3"/>
<rect x="299" y="92" width="36" height="36" rx="18" fill="#131313"/>
<rect x="299" y="92" width="36" height="36" rx="18" stroke="#131313" stroke-width="4"/>
<path d="M317 94C308.2 94 301 101.2 301 110C301 118.8 308.2 126 317 126C325.8 126 333 118.8 333 110C333 101.2 325.8 94 317 94ZM323.72 107.28L316.04 114.96C315.4 115.6 314.44 115.6 313.8 114.96L310.28 111.44C309.64 110.8 309.64 109.84 310.28 109.2C310.92 108.56 311.88 108.56 312.52 109.2L314.92 111.6L321.48 105.04C322.12 104.4 323.08 104.4 323.72 105.04C324.36 105.68 324.36 106.64 323.72 107.28Z" fill="#D252B5"/>
<rect x="368" y="139" width="36" height="36" rx="18" fill="#131313"/>
<rect x="368" y="139" width="36" height="36" rx="18" stroke="#131313" stroke-width="4"/>
<path d="M386 141C377.2 141 370 148.2 370 157C370 165.8 377.2 173 386 173C394.8 173 402 165.8 402 157C402 148.2 394.8 141 386 141ZM392.72 154.28L385.04 161.96C384.4 162.6 383.44 162.6 382.8 161.96L379.28 158.44C378.64 157.8 378.64 156.84 379.28 156.2C379.92 155.56 380.88 155.56 381.52 156.2L383.92 158.6L390.48 152.04C391.12 151.4 392.08 151.4 392.72 152.04C393.36 152.68 393.36 153.64 392.72 154.28Z" fill="#D252B5"/>
<rect x="364" y="33" width="36" height="36" rx="18" fill="#131313"/>
<rect x="364" y="33" width="36" height="36" rx="18" stroke="#131313" stroke-width="4"/>
<path d="M382 35C373.2 35 366 42.2 366 51C366 59.8 373.2 67 382 67C390.8 67 398 59.8 398 51C398 42.2 390.8 35 382 35ZM388.72 48.28L381.04 55.96C380.4 56.6 379.44 56.6 378.8 55.96L375.28 52.44C374.64 51.8 374.64 50.84 375.28 50.2C375.92 49.56 376.88 49.56 377.52 50.2L379.92 52.6L386.48 46.04C387.12 45.4 388.08 45.4 388.72 46.04C389.36 46.68 389.36 47.64 388.72 48.28Z" fill="#D252B5"/>
<path d="M233.152 57.9609L231.477 59.6416C230.798 60.3233 229.603 60.338 228.909 59.6416L227.234 57.9609L221.217 63.9967C221.441 64.1003 221.688 64.1621 221.951 64.1621H238.435C238.698 64.1621 238.944 64.1004 239.168 63.9968L233.152 57.9609Z" fill="#D252B5"/>
<path d="M238.435 50.1016H221.951C221.688 50.1016 221.441 50.1634 221.217 50.2669L227.646 56.717C227.647 56.7175 227.647 56.7175 227.648 56.718C227.648 56.7182 227.648 56.7186 227.648 56.719L229.738 58.8163C229.96 59.0383 230.425 59.0383 230.647 58.8163L232.737 56.7193C232.737 56.7193 232.738 56.7184 232.738 56.718C232.738 56.718 232.739 56.7175 232.74 56.717L239.168 50.2669C238.944 50.1633 238.698 50.1016 238.435 50.1016ZM220.38 51.0864C220.264 51.3207 220.193 51.5808 220.193 51.8594V62.4062C220.193 62.6848 220.264 62.9449 220.38 63.1792L226.406 57.133L220.38 51.0864ZM240.006 51.0863L233.979 57.133L240.006 63.1793C240.122 62.945 240.193 62.6849 240.193 62.4062V51.8594C240.193 51.5807 240.122 51.3206 240.006 51.0863Z" fill="#D252B5"/>
<path d="M244.157 40.3564C244.157 40.3278 244.149 40.2997 244.135 40.275C244.12 40.2504 244.099 40.2301 244.074 40.2164L239.665 37.8051L237.254 33.3957C237.197 33.2933 237.029 33.2933 236.973 33.3957L234.562 37.8048L230.153 40.2161C230.128 40.23 230.107 40.2503 230.092 40.275C230.078 40.2997 230.07 40.3279 230.07 40.3566C230.07 40.3853 230.078 40.4135 230.092 40.4382C230.107 40.463 230.128 40.4833 230.153 40.4971L234.562 42.9091L236.973 47.3183C237.001 47.3695 237.055 47.4016 237.113 47.4016C237.171 47.4016 237.225 47.3697 237.253 47.3183L239.665 42.9091L244.074 40.4971C244.099 40.4833 244.12 40.4629 244.135 40.4382C244.15 40.4134 244.157 40.3851 244.157 40.3564ZM241.903 32.8147L244.195 34.0674L245.447 36.3585C245.456 36.376 245.471 36.3907 245.488 36.4009C245.505 36.411 245.524 36.4164 245.544 36.4164C245.564 36.4164 245.584 36.411 245.601 36.4009C245.618 36.3907 245.633 36.376 245.642 36.3585L246.896 34.0677L249.186 32.8147C249.204 32.8051 249.218 32.791 249.228 32.7739C249.238 32.7568 249.243 32.7374 249.243 32.7175C249.243 32.6977 249.238 32.6782 249.228 32.6611C249.218 32.6441 249.204 32.63 249.186 32.6204L246.896 31.3677L245.642 29.077C245.603 29.0051 245.486 29.0061 245.447 29.077L244.195 31.3677L241.904 32.6204C241.887 32.6299 241.872 32.644 241.862 32.661C241.852 32.6781 241.846 32.6976 241.846 32.7174C241.846 32.7372 241.852 32.7567 241.862 32.7738C241.872 32.7909 241.886 32.805 241.903 32.8147ZM252.931 45.9867L249.781 44.264L248.059 41.1131C248.047 41.0921 248.03 41.0747 248.01 41.0625C247.989 41.0503 247.966 41.0439 247.942 41.0439C247.918 41.0439 247.895 41.0503 247.874 41.0625C247.853 41.0747 247.837 41.0921 247.825 41.1131L246.102 44.2642L242.951 45.9869C242.93 45.9984 242.912 46.0153 242.9 46.0358C242.888 46.0564 242.882 46.0798 242.882 46.1037C242.882 46.1276 242.888 46.1511 242.9 46.1716C242.912 46.1922 242.93 46.2091 242.951 46.2205L246.102 47.9442L247.825 51.0941C247.837 51.115 247.854 51.1324 247.874 51.1445C247.895 51.1567 247.918 51.1631 247.942 51.1631C247.966 51.1631 247.989 51.1567 248.01 51.1445C248.03 51.1324 248.047 51.115 248.059 51.0941L249.781 47.9442L252.931 46.2205C252.952 46.2091 252.969 46.1922 252.981 46.1716C252.994 46.1511 253 46.1276 253 46.1037C253 46.0798 252.994 46.0564 252.981 46.0358C252.969 46.0153 252.952 45.9984 252.931 45.9869L252.931 45.9867Z" fill="#D252B5"/>
</g>
<defs>
<filter id="filter0_f_5026_4328" x="97" y="32" width="151" height="150" filterUnits="userSpaceOnUse" color-interpolation-filters="sRGB">
<feFlood flood-opacity="0" result="BackgroundImageFix"/>
<feBlend mode="normal" in="SourceGraphic" in2="BackgroundImageFix" result="shape"/>
<feGaussianBlur stdDeviation="16" result="effect1_foregroundBlur_5026_4328"/>
</filter>
<filter id="filter1_f_5026_4328" x="166" y="79" width="151" height="150" filterUnits="userSpaceOnUse" color-interpolation-filters="sRGB">
<feFlood flood-opacity="0" result="BackgroundImageFix"/>
<feBlend mode="normal" in="SourceGraphic" in2="BackgroundImageFix" result="shape"/>
<feGaussianBlur stdDeviation="16" result="effect1_foregroundBlur_5026_4328"/>
</filter>
<filter id="filter2_f_5026_4328" x="162" y="-27" width="151" height="150" filterUnits="userSpaceOnUse" color-interpolation-filters="sRGB">
<feFlood flood-opacity="0" result="BackgroundImageFix"/>
<feBlend mode="normal" in="SourceGraphic" in2="BackgroundImageFix" result="shape"/>
<feGaussianBlur stdDeviation="16" result="effect1_foregroundBlur_5026_4328"/>
</filter>
<clipPath id="clip0_5026_4328">
<rect width="405" height="181" fill="white"/>
</clipPath>
<clipPath id="clip1_5026_4328">
<rect width="32" height="32" fill="white" transform="translate(155 92)"/>
</clipPath>
<clipPath id="clip2_5026_4328">
<rect width="32" height="32" fill="white" transform="translate(224 139)"/>
</clipPath>
<clipPath id="clip3_5026_4328">
<rect width="40" height="40" fill="white" transform="translate(0 87)"/>
</clipPath>
<clipPath id="clip4_5026_4328">
<rect width="40" height="40" fill="white" transform="translate(69 134)"/>
</clipPath>
<clipPath id="clip5_5026_4328">
<rect width="40" height="40" fill="white" transform="translate(65 28)"/>
</clipPath>
</defs>
</svg>
