<svg width="404" height="180" viewBox="0 0 404 180" fill="none" xmlns="http://www.w3.org/2000/svg">
<g clip-path="url(#clip0_4945_3757)">
<g opacity="0.2" filter="url(#filter0_f_4945_3757)" style="mix-blend-mode:screen">
<path d="M294.019 24.0056C300.854 23.8013 306.577 29.1832 306.804 36.0186C307.008 42.854 301.626 48.5767 294.791 48.8037C287.955 49.0081 282.233 43.6262 282.006 36.7908C281.801 29.9554 287.183 24.2327 294.019 24.0056Z" fill="url(#paint0_radial_4945_3757)"/>
</g>
<g opacity="0.5" filter="url(#filter1_f_4945_3757)" style="mix-blend-mode:screen">
<path d="M294.363 30.003C297.982 29.8948 301.011 32.7441 301.131 36.3628C301.24 39.9815 298.39 43.0112 294.772 43.1314C291.153 43.2396 288.123 40.3903 288.003 36.7716C287.895 33.1529 290.744 30.1232 294.363 30.003Z" fill="url(#paint1_radial_4945_3757)"/>
</g>
<path d="M294.449 35.0007C295.273 34.976 295.962 35.6249 295.99 36.449C296.014 37.2732 295.366 37.9631 294.542 37.9905C293.718 38.0151 293.028 37.3662 293.001 36.5421C292.976 35.718 293.625 35.0281 294.449 35.0007Z" fill="#3FA1E3"/>
<g opacity="0.2" filter="url(#filter2_f_4945_3757)" style="mix-blend-mode:screen">
<path d="M122.481 98.0056C115.646 97.8013 109.923 103.183 109.696 110.019C109.492 116.854 114.874 122.577 121.709 122.804C128.545 123.008 134.267 117.626 134.494 110.791C134.699 103.955 129.317 98.2327 122.481 98.0056Z" fill="url(#paint2_radial_4945_3757)"/>
</g>
<g opacity="0.5" filter="url(#filter3_f_4945_3757)" style="mix-blend-mode:screen">
<path d="M122.137 104.003C118.518 103.895 115.489 106.744 115.369 110.363C115.26 113.982 118.11 117.011 121.728 117.131C125.347 117.24 128.377 114.39 128.497 110.772C128.605 107.153 125.756 104.123 122.137 104.003Z" fill="url(#paint3_radial_4945_3757)"/>
</g>
<path d="M122.051 109.001C121.227 108.976 120.538 109.625 120.51 110.449C120.486 111.273 121.134 111.963 121.958 111.99C122.782 112.015 123.472 111.366 123.499 110.542C123.524 109.718 122.875 109.028 122.051 109.001Z" fill="#3FA1E3"/>
<rect x="49" y="2" width="209" height="67" rx="20" fill="#0A0F2B" fill-opacity="0.8" stroke="url(#paint4_linear_4945_3757)"/>
<path d="M91 24H228" stroke="#3FA1E3"/>
<path d="M91 36H215.5" stroke="#3FA1E3"/>
<path d="M91 48H147" stroke="#3FA1E3"/>
<rect x="159" y="78" width="209" height="67" rx="20" fill="#0A0F2B" fill-opacity="0.8" stroke="url(#paint5_linear_4945_3757)"/>
<path d="M205 100H342" stroke="#3FA1E3"/>
<path d="M205 112H329.5" stroke="#3FA1E3"/>
<path d="M205 124H261" stroke="#3FA1E3"/>
<path opacity="0.6" d="M261 36.5H289" stroke="#3FA1E3" stroke-linecap="round" stroke-linejoin="round" stroke-dasharray="1 3"/>
<path opacity="0.6" d="M155.5 110.5H127.5" stroke="#3FA1E3" stroke-linecap="round" stroke-linejoin="round" stroke-dasharray="1 3"/>
<path opacity="0.6" d="M300 36.5H408.5" stroke="#3FA1E3" stroke-linecap="round" stroke-linejoin="round" stroke-dasharray="1 3"/>
<path opacity="0.6" d="M116.5 110.5H0" stroke="#3FA1E3" stroke-linecap="round" stroke-linejoin="round" stroke-dasharray="1 3"/>
<circle cx="71" cy="31" r="9" stroke="#3FA1E3"/>
<path d="M175.361 108.264L180.658 100.8C181.824 99.1575 184.244 99.1071 185.477 100.699L191.256 108.163C192.782 110.135 191.377 113 188.883 113H177.808C175.372 113 173.951 110.25 175.361 108.264Z" stroke="#3FA1E3"/>
<g opacity="0.2" filter="url(#filter4_f_4945_3757)" style="mix-blend-mode:screen">
<path d="M254.019 157.006C260.854 156.801 266.577 162.183 266.804 169.019C267.008 175.854 261.626 181.577 254.791 181.804C247.955 182.008 242.233 176.626 242.006 169.791C241.801 162.955 247.183 157.233 254.019 157.006Z" fill="url(#paint6_radial_4945_3757)"/>
</g>
<g opacity="0.5" filter="url(#filter5_f_4945_3757)" style="mix-blend-mode:screen">
<path d="M254.363 163.003C257.982 162.895 261.011 165.744 261.131 169.363C261.24 172.982 258.39 176.011 254.772 176.131C251.153 176.24 248.123 173.39 248.003 169.772C247.895 166.153 250.744 163.123 254.363 163.003Z" fill="url(#paint7_radial_4945_3757)"/>
</g>
<path d="M254.449 168.001C255.273 167.976 255.962 168.625 255.99 169.449C256.014 170.273 255.366 170.963 254.542 170.99C253.718 171.015 253.028 170.366 253.001 169.542C252.976 168.718 253.625 168.028 254.449 168.001Z" fill="#3FA1E3"/>
<rect x="9" y="135" width="209" height="67" rx="20" fill="#0A0F2B" fill-opacity="0.8" stroke="url(#paint8_linear_4945_3757)"/>
<path d="M51 157H188" stroke="#3FA1E3"/>
<path d="M51 169H175.5" stroke="#3FA1E3"/>
<path opacity="0.6" d="M221 169.5H249" stroke="#3FA1E3" stroke-linecap="round" stroke-linejoin="round" stroke-dasharray="1 3"/>
<path opacity="0.6" d="M260 169.5H436" stroke="#3FA1E3" stroke-linecap="round" stroke-linejoin="round" stroke-dasharray="1 3"/>
<circle cx="31" cy="164" r="9" stroke="#3FA1E3"/>
</g>
<defs>
<filter id="filter0_f_4945_3757" x="278" y="20" width="32.8093" height="32.8086" filterUnits="userSpaceOnUse" color-interpolation-filters="sRGB">
<feFlood flood-opacity="0" result="BackgroundImageFix"/>
<feBlend mode="normal" in="SourceGraphic" in2="BackgroundImageFix" result="shape"/>
<feGaussianBlur stdDeviation="2" result="effect1_foregroundBlur_4945_3757"/>
</filter>
<filter id="filter1_f_4945_3757" x="287" y="29" width="15.1344" height="15.1348" filterUnits="userSpaceOnUse" color-interpolation-filters="sRGB">
<feFlood flood-opacity="0" result="BackgroundImageFix"/>
<feBlend mode="normal" in="SourceGraphic" in2="BackgroundImageFix" result="shape"/>
<feGaussianBlur stdDeviation="0.5" result="effect1_foregroundBlur_4945_3757"/>
</filter>
<filter id="filter2_f_4945_3757" x="105.691" y="94" width="32.8093" height="32.8086" filterUnits="userSpaceOnUse" color-interpolation-filters="sRGB">
<feFlood flood-opacity="0" result="BackgroundImageFix"/>
<feBlend mode="normal" in="SourceGraphic" in2="BackgroundImageFix" result="shape"/>
<feGaussianBlur stdDeviation="2" result="effect1_foregroundBlur_4945_3757"/>
</filter>
<filter id="filter3_f_4945_3757" x="114.366" y="103" width="15.1344" height="15.1348" filterUnits="userSpaceOnUse" color-interpolation-filters="sRGB">
<feFlood flood-opacity="0" result="BackgroundImageFix"/>
<feBlend mode="normal" in="SourceGraphic" in2="BackgroundImageFix" result="shape"/>
<feGaussianBlur stdDeviation="0.5" result="effect1_foregroundBlur_4945_3757"/>
</filter>
<filter id="filter4_f_4945_3757" x="238" y="153" width="32.8093" height="32.8086" filterUnits="userSpaceOnUse" color-interpolation-filters="sRGB">
<feFlood flood-opacity="0" result="BackgroundImageFix"/>
<feBlend mode="normal" in="SourceGraphic" in2="BackgroundImageFix" result="shape"/>
<feGaussianBlur stdDeviation="2" result="effect1_foregroundBlur_4945_3757"/>
</filter>
<filter id="filter5_f_4945_3757" x="247" y="162" width="15.1344" height="15.1348" filterUnits="userSpaceOnUse" color-interpolation-filters="sRGB">
<feFlood flood-opacity="0" result="BackgroundImageFix"/>
<feBlend mode="normal" in="SourceGraphic" in2="BackgroundImageFix" result="shape"/>
<feGaussianBlur stdDeviation="0.5" result="effect1_foregroundBlur_4945_3757"/>
</filter>
<radialGradient id="paint0_radial_4945_3757" cx="0" cy="0" r="1" gradientUnits="userSpaceOnUse" gradientTransform="translate(294.405 36.4047) rotate(90) scale(12.4047)">
<stop stop-color="#3FA1E3" stop-opacity="0"/>
<stop offset="1" stop-color="#3FA1E3"/>
</radialGradient>
<radialGradient id="paint1_radial_4945_3757" cx="0" cy="0" r="1" gradientUnits="userSpaceOnUse" gradientTransform="translate(294.567 36.5672) rotate(90) scale(6.56719)">
<stop stop-color="#3FA1E3" stop-opacity="0"/>
<stop offset="1" stop-color="#3FA1E3"/>
</radialGradient>
<radialGradient id="paint2_radial_4945_3757" cx="0" cy="0" r="1" gradientUnits="userSpaceOnUse" gradientTransform="translate(122.095 110.405) rotate(90) scale(12.4047)">
<stop stop-color="#3FA1E3" stop-opacity="0"/>
<stop offset="1" stop-color="#3FA1E3"/>
</radialGradient>
<radialGradient id="paint3_radial_4945_3757" cx="0" cy="0" r="1" gradientUnits="userSpaceOnUse" gradientTransform="translate(121.933 110.567) rotate(90) scale(6.56719)">
<stop stop-color="#3FA1E3" stop-opacity="0"/>
<stop offset="1" stop-color="#3FA1E3"/>
</radialGradient>
<linearGradient id="paint4_linear_4945_3757" x1="153.5" y1="2" x2="153.5" y2="69" gradientUnits="userSpaceOnUse">
<stop stop-color="#3FA1E3"/>
<stop offset="1" stop-color="#3FA1E3" stop-opacity="0.35"/>
</linearGradient>
<linearGradient id="paint5_linear_4945_3757" x1="263.5" y1="78" x2="263.5" y2="145" gradientUnits="userSpaceOnUse">
<stop stop-color="#3FA1E3"/>
<stop offset="1" stop-color="#3FA1E3" stop-opacity="0.35"/>
</linearGradient>
<radialGradient id="paint6_radial_4945_3757" cx="0" cy="0" r="1" gradientUnits="userSpaceOnUse" gradientTransform="translate(254.405 169.405) rotate(90) scale(12.4047)">
<stop stop-color="#3FA1E3" stop-opacity="0"/>
<stop offset="1" stop-color="#3FA1E3"/>
</radialGradient>
<radialGradient id="paint7_radial_4945_3757" cx="0" cy="0" r="1" gradientUnits="userSpaceOnUse" gradientTransform="translate(254.567 169.567) rotate(90) scale(6.56719)">
<stop stop-color="#3FA1E3" stop-opacity="0"/>
<stop offset="1" stop-color="#3FA1E3"/>
</radialGradient>
<linearGradient id="paint8_linear_4945_3757" x1="113.5" y1="135" x2="113.5" y2="202" gradientUnits="userSpaceOnUse">
<stop stop-color="#3FA1E3"/>
<stop offset="1" stop-color="#3FA1E3" stop-opacity="0.35"/>
</linearGradient>
<clipPath id="clip0_4945_3757">
<rect width="404" height="180" fill="white"/>
</clipPath>
</defs>
</svg>
