<svg width="404" height="180" viewBox="0 0 404 180" fill="none" xmlns="http://www.w3.org/2000/svg">
<g clip-path="url(#clip0_4896_3180)">
<g opacity="0.2" filter="url(#filter0_f_4896_3180)">
<circle cx="200.5" cy="89.5" r="61.5" fill="#3FA1E3"/>
</g>
<path d="M173.01 86.3535L184.203 67.4716C185.464 65.345 187.752 64.041 190.225 64.041H209.928C212.4 64.041 214.689 65.345 215.95 67.4716L227.142 86.3535C228.437 88.5367 228.448 91.2494 227.171 93.4431L215.941 112.746C214.687 114.901 212.383 116.226 209.89 116.226H190.262C187.77 116.226 185.465 114.901 184.212 112.746L172.981 93.4431C171.705 91.2494 171.716 88.5367 173.01 86.3535Z" fill="url(#paint0_linear_4896_3180)"/>
<path d="M197.006 73.25H190.253L180.123 89.3994L190.253 107.017H197.006L186.876 89.3994L197.006 73.25Z" fill="#131313"/>
<path d="M203.146 73.25H209.9L220.03 89.3994L209.9 107.017H203.146L213.276 89.3994L203.146 73.25Z" fill="#131313"/>
<g opacity="0.2" filter="url(#filter1_f_4896_3180)">
<circle cx="200" cy="91" r="44.5" stroke="#3FA1E3"/>
</g>
<g opacity="0.5" filter="url(#filter2_f_4896_3180)">
<path d="M165.108 87.1469L180.406 61.4221C181.667 59.3003 183.954 58 186.422 58H213.578C216.046 58 218.333 59.3003 219.594 61.4221L234.892 87.1469C236.193 89.3343 236.204 92.0554 234.921 94.2534L219.585 120.529C218.331 122.678 216.029 124 213.54 124H186.46C183.971 124 181.669 122.678 180.415 120.529L165.079 94.2534C163.796 92.0554 163.807 89.3343 165.108 87.1469Z" stroke="#3FA1E3"/>
</g>
<path d="M32.0358 29.8995C32.0358 30.687 32.121 31.3256 32.27 31.7939C32.4402 32.2622 32.6531 32.773 32.9511 33.3265C33.0575 33.4967 33.1001 33.667 33.1001 33.816C33.1001 34.0289 32.9724 34.2417 32.6957 34.4546L31.3547 35.3486C31.1631 35.4763 30.9715 35.5402 30.8012 35.5402C30.5884 35.5402 30.3755 35.4337 30.1627 35.2422C29.8647 34.9229 29.6092 34.5823 29.3964 34.2417C29.1835 33.8799 28.9707 33.4755 28.7365 32.9859C27.0762 34.9442 24.9902 35.9233 22.4785 35.9233C20.6905 35.9233 19.2644 35.4124 18.2214 34.3907C17.1784 33.369 16.6462 32.0068 16.6462 30.3039C16.6462 28.4946 17.2848 27.0259 18.5832 25.9191C19.8817 24.8122 21.6058 24.2588 23.7982 24.2588C24.522 24.2588 25.267 24.3227 26.0545 24.4291C26.8421 24.5355 27.651 24.7058 28.5024 24.8974V23.3435C28.5024 21.7258 28.1618 20.5977 27.502 19.9378C26.8208 19.278 25.6714 18.9587 24.0324 18.9587C23.2874 18.9587 22.5211 19.0438 21.7335 19.2354C20.946 19.427 20.1797 19.6611 19.4347 19.9591C19.0941 20.1081 18.8387 20.1933 18.6897 20.2358C18.5407 20.2784 18.4342 20.2997 18.3491 20.2997C18.0511 20.2997 17.9021 20.0868 17.9021 19.6398V18.5968C17.9021 18.2563 17.9447 18.0008 18.0511 17.8518C18.1575 17.7028 18.3491 17.5538 18.6471 17.4048C19.3921 17.0217 20.2861 16.7024 21.3291 16.447C22.3721 16.1703 23.479 16.0426 24.6497 16.0426C27.1827 16.0426 29.0345 16.6173 30.2265 17.7667C31.3972 18.9161 31.9932 20.6615 31.9932 23.003V29.8995H32.0358ZM23.3938 33.1349C24.0962 33.1349 24.82 33.0072 25.5862 32.7518C26.3525 32.4963 27.0337 32.028 27.6084 31.3895C27.949 30.985 28.2044 30.538 28.3321 30.0272C28.4598 29.5163 28.545 28.8991 28.545 28.1754V27.2814C27.9277 27.1324 27.2678 27.0046 26.5867 26.9195C25.9055 26.8344 25.2457 26.7918 24.5858 26.7918C23.1597 26.7918 22.1167 27.0685 21.4142 27.6432C20.7118 28.2179 20.3712 29.0268 20.3712 30.0911C20.3712 31.0915 20.6267 31.8365 21.1588 32.3473C21.6697 32.8795 22.4147 33.1349 23.3938 33.1349ZM40.4863 35.4337C40.1031 35.4337 39.8477 35.3699 39.6774 35.2209C39.5071 35.0932 39.3581 34.7952 39.2304 34.3907L34.2282 17.937C34.1005 17.5113 34.0367 17.2346 34.0367 17.0856C34.0367 16.745 34.207 16.5534 34.5475 16.5534H36.6335C37.038 16.5534 37.3147 16.6173 37.4637 16.7663C37.634 16.894 37.7617 17.192 37.8894 17.5964L41.4654 31.6875L44.786 17.5964C44.8924 17.1707 45.0201 16.894 45.1904 16.7663C45.3607 16.6386 45.6587 16.5534 46.0418 16.5534H47.7447C48.1491 16.5534 48.4258 16.6173 48.5961 16.7663C48.7664 16.894 48.9154 17.192 49.0005 17.5964L52.3637 31.8578L56.0461 17.5964C56.1738 17.1707 56.3228 16.894 56.4718 16.7663C56.6421 16.6386 56.9188 16.5534 57.302 16.5534H59.2815C59.6221 16.5534 59.8137 16.7237 59.8137 17.0856C59.8137 17.192 59.7924 17.2984 59.7711 17.4261C59.7498 17.5538 59.7073 17.7241 59.6221 17.9583L54.4923 34.412C54.3645 34.8377 54.2155 35.1144 54.0453 35.2422C53.875 35.3699 53.5983 35.455 53.2364 35.455H51.4058C51.0014 35.455 50.7247 35.3912 50.5544 35.2422C50.3841 35.0932 50.2351 34.8165 50.15 34.3907L46.8507 20.6615L43.5727 34.3695C43.4663 34.7952 43.3385 35.0719 43.1683 35.2209C42.998 35.3699 42.7 35.4337 42.3168 35.4337H40.4863ZM67.8384 36.0084C66.7316 36.0084 65.6247 35.8807 64.5604 35.6253C63.4961 35.3699 62.666 35.0932 62.1125 34.7739C61.772 34.5823 61.5378 34.3695 61.4527 34.1779C61.3675 33.9863 61.325 33.7735 61.325 33.5819V32.4963C61.325 32.0493 61.4953 31.8365 61.8145 31.8365C61.9423 31.8365 62.07 31.8578 62.1977 31.9003C62.3254 31.9429 62.517 32.028 62.7298 32.1132C63.4535 32.4325 64.2411 32.6879 65.0713 32.8582C65.9227 33.0285 66.7528 33.1136 67.6043 33.1136C68.9453 33.1136 69.9883 32.8795 70.712 32.4112C71.4357 31.9429 71.8188 31.2618 71.8188 30.389C71.8188 29.7931 71.6273 29.3035 71.2441 28.8991C70.861 28.4946 70.1373 28.1328 69.0943 27.7922L66.0078 26.8344C64.454 26.3448 63.3045 25.6211 62.6021 24.6632C61.8997 23.7267 61.5378 22.6837 61.5378 21.5768C61.5378 20.6828 61.7294 19.8953 62.1125 19.2141C62.4957 18.533 63.0065 17.937 63.6451 17.4687C64.2837 16.9791 65.0074 16.6173 65.8588 16.3619C66.7103 16.1064 67.6043 16 68.5408 16C69.0091 16 69.4987 16.0213 69.967 16.0851C70.4566 16.149 70.9036 16.2341 71.3506 16.3193C71.7763 16.4257 72.1807 16.5321 72.5638 16.6599C72.947 16.7876 73.245 16.9153 73.4578 17.043C73.7558 17.2133 73.9687 17.3836 74.0964 17.5751C74.2241 17.7454 74.288 17.9796 74.288 18.2776V19.278C74.288 19.725 74.1177 19.9591 73.7984 19.9591C73.6281 19.9591 73.3514 19.874 72.9895 19.7037C71.7763 19.1503 70.414 18.8736 68.9027 18.8736C67.6894 18.8736 66.7315 19.0651 66.0717 19.4695C65.4118 19.874 65.0713 20.4913 65.0713 21.364C65.0713 21.96 65.2841 22.4708 65.7098 22.8752C66.1356 23.2797 66.9231 23.6841 68.0513 24.0459L71.0738 25.0038C72.6064 25.4934 73.7133 26.1745 74.3731 27.0472C75.033 27.9199 75.3523 28.9203 75.3523 30.0272C75.3523 30.9425 75.1607 31.7726 74.7988 32.4963C74.4157 33.22 73.9048 33.8586 73.245 34.3695C72.5851 34.9016 71.7976 35.2847 70.8823 35.5614C69.9244 35.8594 68.924 36.0084 67.8384 36.0084Z" stroke="url(#paint1_linear_4896_3180)"/>
<path fill-rule="evenodd" clip-rule="evenodd" d="M71.8614 46.3541C64.8584 51.5265 54.6838 54.2723 45.9354 54.2723C33.6748 54.2723 22.6275 49.7385 14.2835 42.2034C13.6237 41.6074 14.2197 40.7985 15.0072 41.2668C24.0324 46.5031 35.1648 49.6746 46.6804 49.6746C54.4497 49.6746 62.9853 48.0569 70.8397 44.7364C72.0104 44.2042 73.0109 45.5026 71.8614 46.3541Z" stroke="url(#paint2_linear_4896_3180)"/>
<path fill-rule="evenodd" clip-rule="evenodd" d="M74.7776 43.0326C73.8836 41.8832 68.8601 42.4792 66.5826 42.7559C65.9014 42.841 65.795 42.245 66.4123 41.798C70.414 38.9883 76.9913 39.7972 77.7576 40.7337C78.5239 41.6916 77.5447 48.2688 73.7984 51.4191C73.2237 51.9087 72.6703 51.6532 72.9257 51.0147C73.7771 48.9074 75.6716 44.1607 74.7776 43.0326Z" stroke="url(#paint3_linear_4896_3180)"/>
<path d="M44.608 165.33C52.8305 163.865 59.6218 162.652 59.6998 162.636L59.8416 162.605L52.0788 153.292C47.8092 148.169 44.3159 143.959 44.3159 143.934C44.3159 143.888 52.3317 121.624 52.3768 121.545C52.3919 121.518 57.8469 131.017 65.6001 144.571C72.8588 157.261 78.8432 167.724 78.8989 167.822L79 168L54.329 167.997L29.658 167.994L44.608 165.33ZM15 162.49C15 162.477 18.6578 156.072 23.1285 148.257L31.257 134.049L40.7298 126.03C45.9399 121.62 50.2167 118.007 50.2338 118C50.251 117.994 50.1824 118.168 50.0815 118.387C49.9806 118.606 45.3518 128.62 39.7954 140.64L29.6927 162.495L22.3463 162.504C18.3059 162.509 15 162.503 15 162.49Z" stroke="url(#paint4_linear_4896_3180)"/>
<path d="M356.67 2.05371L356.526 1.57478L356.526 1.57479L356.67 2.05371ZM369.209 1.58008L369.316 1.09168L369.316 1.09168L369.209 1.58008ZM380.399 7.25781L380.896 7.31709L380.927 7.05656L380.73 6.88294L380.399 7.25781ZM380.384 7.38867L380.737 7.7422L380.86 7.61981L380.88 7.44795L380.384 7.38867ZM372.689 15.084L372.336 14.7305L371.945 15.1214L372.373 15.4712L372.689 15.084ZM372.807 15.1836V15.6836H374.185L373.128 14.8L372.807 15.1836ZM372.65 15.1836L372.336 15.5723L372.473 15.6836H372.65V15.1836ZM362.867 12.1328L362.829 11.6343L362.829 11.6343L362.867 12.1328ZM353.657 16.6279L353.559 17.1183L353.836 17.1736L354.027 16.9646L353.657 16.6279ZM353.498 16.6699L353.402 17.1606L353.589 17.1971L353.752 17.1003L353.498 16.6699ZM349.968 16.334L349.966 15.834L349.965 15.834L349.968 16.334ZM340.108 19.3311L340.234 19.8151L340.314 19.7941L340.384 19.7482L340.108 19.3311ZM339.72 19.458L339.237 19.3271L338.972 20.3048L339.909 19.9207L339.72 19.458ZM345.939 8.55957L345.581 8.21072L345.581 8.21072L345.939 8.55957ZM356.67 2.05371L356.813 2.53264C360.803 1.33609 365.033 1.17621 369.102 2.06847L369.209 1.58008L369.316 1.09168C365.081 0.163001 360.679 0.32941 356.526 1.57478L356.67 2.05371ZM369.209 1.58008L369.102 2.06847C373.171 2.9608 376.945 4.87617 380.068 7.63269L380.399 7.25781L380.73 6.88294C377.48 4.01397 373.551 2.02043 369.316 1.09168L369.209 1.58008ZM380.399 7.25781L379.903 7.19853L379.887 7.32939L380.384 7.38867L380.88 7.44795L380.896 7.31709L380.399 7.25781ZM380.384 7.38867L380.03 7.03514L372.336 14.7305L372.689 15.084L373.043 15.4375L380.737 7.7422L380.384 7.38867ZM372.689 15.084L372.373 15.4712C372.414 15.5045 372.431 15.5209 372.487 15.5672L372.807 15.1836L373.128 14.8C373.105 14.7802 373.045 14.7287 373.006 14.6968L372.689 15.084ZM372.807 15.1836V14.6836H372.65V15.1836V15.6836H372.807V15.1836ZM372.65 15.1836L372.965 14.7949C370.113 12.4872 366.487 11.3562 362.829 11.6343L362.867 12.1328L362.905 12.6314C366.308 12.3726 369.682 13.425 372.336 15.5723L372.65 15.1836ZM362.867 12.1328L362.829 11.6343C359.171 11.9125 355.757 13.5788 353.287 16.2913L353.657 16.6279L354.027 16.9646C356.325 14.4406 359.501 12.8902 362.905 12.6314L362.867 12.1328ZM353.657 16.6279L353.755 16.1376C353.525 16.0917 353.336 16.1846 353.243 16.2395L353.498 16.6699L353.752 17.1003C353.756 17.098 353.743 17.1066 353.715 17.1143C353.686 17.1224 353.63 17.1324 353.559 17.1183L353.657 16.6279ZM353.498 16.6699L353.594 16.1792C352.403 15.9462 351.188 15.8296 349.966 15.834L349.968 16.334L349.969 16.834C351.125 16.8299 352.275 16.9402 353.402 17.1606L353.498 16.6699ZM349.968 16.334L349.965 15.834C346.354 15.8556 342.835 16.9293 339.833 18.9139L340.108 19.3311L340.384 19.7482C343.225 17.8703 346.555 16.8544 349.971 16.834L349.968 16.334ZM340.108 19.3311L339.983 18.8471C339.835 18.8853 339.683 18.9328 339.53 18.9954L339.72 19.458L339.909 19.9207C340.01 19.8793 340.118 19.845 340.234 19.8151L340.108 19.3311ZM339.72 19.458L340.202 19.5889C341.293 15.5686 343.391 11.8927 346.298 8.90842L345.939 8.55957L345.581 8.21072C342.556 11.3168 340.372 15.1426 339.237 19.3271L339.72 19.458ZM345.939 8.55957L346.298 8.90842C349.204 5.9241 352.823 3.72929 356.813 2.53264L356.67 2.05371L356.526 1.57479C352.373 2.8203 348.606 5.10468 345.581 8.21072L345.939 8.55957Z" fill="url(#paint5_linear_4896_3180)"/>
<path d="M380.498 7.27539L380.829 6.90137L380.477 6.58879L380.144 6.92184L380.498 7.27539ZM388.051 19.4561L387.569 19.5871L387.617 19.7662L387.771 19.8702L388.051 19.4561ZM394.981 28.4443L395.453 28.2788V28.2788L394.981 28.4443ZM395.186 39.792L395.664 39.9404L395.664 39.9403L395.186 39.792ZM388.586 49.0244L388.881 49.4282L388.881 49.4282L388.586 49.0244ZM377.784 52.5039L377.788 52.0039H377.784V52.5039ZM363.885 52.5039L363.532 52.8575L363.678 53.0039H363.885V52.5039ZM363.808 52.4268V51.9268H362.601L363.455 52.7803L363.808 52.4268ZM363.866 52.4268V52.9268H364.366V52.4268H363.866ZM363.866 41.3965L363.512 41.0429L363.366 41.1894V41.3965H363.866ZM363.885 41.377V40.877H363.678L363.532 41.0234L363.885 41.377ZM377.784 41.377V40.877V40.877V41.377ZM380.443 40.8486L380.634 41.3106L380.634 41.3106L380.443 40.8486ZM382.698 39.3418L383.051 39.6954V39.6954L382.698 39.3418ZM384.205 37.0869L384.667 37.2783L384.667 37.2782L384.205 37.0869ZM384.733 34.4277H385.233V34.4277L384.733 34.4277ZM384.205 31.7686L384.667 31.5772L384.667 31.5772L384.205 31.7686ZM382.698 29.5146L383.051 29.1611L383.051 29.1611L382.698 29.5146ZM380.443 28.0078L380.634 27.5459L380.634 27.5459L380.443 28.0078ZM377.784 27.4785H377.284V27.9785H377.784V27.4785ZM377.784 26.0928L377.284 26.0833V26.0928H377.784ZM376.503 20.002L376.957 19.792V19.792L376.503 20.002ZM372.689 15.084L372.335 14.7304L371.944 15.1214L372.373 15.4712L372.689 15.084ZM380.498 7.27539L380.166 7.64941C383.743 10.823 386.316 14.9721 387.569 19.5871L388.051 19.4561L388.534 19.325C387.23 14.5222 384.552 10.2043 380.829 6.90137L380.498 7.27539ZM388.051 19.4561L387.771 19.8702C390.897 21.9845 393.26 25.0489 394.509 28.6099L394.981 28.4443L395.453 28.2788C394.132 24.5152 391.635 21.2765 388.331 19.0419L388.051 19.4561ZM394.981 28.4443L394.509 28.6099C395.759 32.1708 395.828 36.0397 394.709 39.6436L395.186 39.792L395.664 39.9403C396.847 36.1315 396.773 32.0424 395.453 28.2788L394.981 28.4443ZM395.186 39.792L394.709 39.6436C393.589 43.2473 391.339 46.3947 388.291 48.6207L388.586 49.0244L388.881 49.4282C392.102 47.0756 394.48 43.7491 395.664 39.9404L395.186 39.792ZM388.586 49.0244L388.291 48.6207C385.244 50.8467 381.561 52.0333 377.788 52.0039L377.784 52.5039L377.78 53.0039C381.768 53.0349 385.661 51.7808 388.881 49.4282L388.586 49.0244ZM377.784 52.5039V52.0039H363.885V52.5039V53.0039H377.784V52.5039ZM363.885 52.5039L364.239 52.1504L364.162 52.0732L363.808 52.4268L363.455 52.7803L363.532 52.8575L363.885 52.5039ZM363.808 52.4268V52.9268H363.866V52.4268V51.9268H363.808V52.4268ZM363.866 52.4268H364.366V41.3965H363.866H363.366V52.4268H363.866ZM363.866 41.3965L364.219 41.75L364.239 41.7305L363.885 41.377L363.532 41.0234L363.512 41.0429L363.866 41.3965ZM363.885 41.377V41.877H377.784V41.377V40.877H363.885V41.377ZM377.784 41.377V41.877C378.762 41.877 379.73 41.6849 380.634 41.3106L380.443 40.8486L380.252 40.3867C379.469 40.7106 378.631 40.877 377.784 40.877V41.377ZM380.443 40.8486L380.634 41.3106C381.538 40.9362 382.36 40.387 383.051 39.6954L382.698 39.3418L382.344 38.9882C381.745 39.5871 381.034 40.0626 380.252 40.3867L380.443 40.8486ZM382.698 39.3418L383.051 39.6954C383.743 39.0037 384.292 38.1821 384.667 37.2783L384.205 37.0869L383.743 36.8956C383.419 37.678 382.943 38.3893 382.344 38.9882L382.698 39.3418ZM384.205 37.0869L384.667 37.2782C385.041 36.3744 385.233 35.4056 385.233 34.4277H384.733H384.233C384.233 35.2747 384.067 36.1135 383.743 36.8956L384.205 37.0869ZM384.733 34.4277L385.233 34.4277C385.233 33.4498 385.041 32.4811 384.667 31.5772L384.205 31.7686L383.743 31.9599C384.067 32.742 384.233 33.5807 384.233 34.4278L384.733 34.4277ZM384.205 31.7686L384.667 31.5772C384.292 30.6733 383.743 29.8526 383.051 29.1611L382.698 29.5146L382.344 29.8682C382.943 30.4672 383.419 31.1778 383.743 31.9599L384.205 31.7686ZM382.698 29.5146L383.051 29.1611C382.36 28.4694 381.538 27.9202 380.634 27.5459L380.443 28.0078L380.252 28.4698C381.034 28.7938 381.745 29.2693 382.344 29.8682L382.698 29.5146ZM380.443 28.0078L380.634 27.5459C379.731 27.1717 378.762 26.9785 377.784 26.9785V27.4785V27.9785C378.63 27.9785 379.469 28.1457 380.252 28.4698L380.443 28.0078ZM377.784 27.4785H378.284V26.0928H377.784H377.284V27.4785H377.784ZM377.784 26.0928L378.284 26.1022C378.325 23.9256 377.872 21.7678 376.957 19.792L376.503 20.002L376.05 20.2119C376.9 22.0502 377.322 24.0579 377.284 26.0833L377.784 26.0928ZM376.503 20.002L376.957 19.792C376.043 17.8161 374.691 16.0742 373.005 14.6968L372.689 15.084L372.373 15.4712C373.941 16.753 375.199 18.3737 376.05 20.2119L376.503 20.002ZM372.689 15.084L373.043 15.4375L380.851 7.62894L380.498 7.27539L380.144 6.92184L372.335 14.7304L372.689 15.084Z" fill="url(#paint6_linear_4896_3180)"/>
<path d="M347.111 40.6816L347.318 40.2264L347.002 40.0831L346.757 40.3281L347.111 40.6816ZM349.967 41.3018L349.967 41.8018H349.967V41.3018ZM363.866 41.3018H364.366V40.8018H363.866V41.3018ZM363.866 52.4277V52.9277H364.366V52.4277H363.866ZM349.967 52.4277V51.9277L349.965 51.9277L349.967 52.4277ZM339.056 48.7979L338.57 48.6807L338.493 48.9994L338.755 49.1969L339.056 48.7979ZM339.076 48.7168L338.722 48.3632L338.623 48.4628L338.59 48.5997L339.076 48.7168ZM347.111 40.6816L346.904 41.1368C347.866 41.5739 348.91 41.8015 349.967 41.8018L349.967 41.3018L349.967 40.8018C349.054 40.8015 348.15 40.6048 347.318 40.2264L347.111 40.6816ZM349.967 41.3018V41.8018H363.866V41.3018V40.8018H349.967V41.3018ZM363.866 41.3018H363.366V52.4277H363.866H364.366V41.3018H363.866ZM363.866 52.4277V51.9277H349.967V52.4277V52.9277H363.866V52.4277ZM349.967 52.4277L349.965 51.9277C346.138 51.9443 342.412 50.7049 339.358 48.3988L339.056 48.7979L338.755 49.1969C341.984 51.6349 345.924 52.9452 349.97 52.9277L349.967 52.4277ZM339.056 48.7979L339.542 48.915L339.562 48.8339L339.076 48.7168L338.59 48.5997L338.57 48.6807L339.056 48.7979ZM339.076 48.7168L339.429 49.0704L347.464 41.0352L347.111 40.6816L346.757 40.3281L338.722 48.3632L339.076 48.7168Z" fill="url(#paint7_linear_4896_3180)"/>
<path d="M349.968 16.3341C346.202 16.3566 342.537 17.5547 339.485 19.7611C336.434 21.9674 334.147 25.0719 332.945 28.6408C331.743 32.2098 331.686 36.0649 332.782 39.6679C333.877 43.2709 336.071 46.4418 339.056 48.7376L347.118 40.6758C346.093 40.2129 345.196 39.5084 344.504 38.6227C343.812 37.737 343.345 36.6966 343.143 35.5906C342.941 34.4847 343.01 33.3463 343.345 32.2731C343.68 31.1999 344.27 30.224 345.065 29.4291C345.86 28.6342 346.836 28.044 347.909 27.7091C348.982 27.3743 350.121 27.3048 351.227 27.5067C352.333 27.7085 353.373 28.1757 354.259 28.868C355.144 29.5604 355.849 30.4573 356.312 31.4818L364.374 23.4199C362.682 21.2078 360.501 19.4171 358.001 18.1879C355.502 16.9586 352.753 16.3242 349.968 16.3341Z" stroke="url(#paint8_linear_4896_3180)"/>
<path d="M392.162 136.236C391.211 132.43 389.086 128.978 386.076 126.393C382.626 123.431 378.226 121.8 373.685 121.8C370.277 121.8 367.014 122.678 364.133 124.357C361.083 121.567 357.083 120 352.88 120C343.866 120 336.498 127.186 336.204 136.13C333.088 137.001 330.266 138.774 328.109 141.248C325.46 144.283 324.001 148.175 324 152.204C324 161.404 331.485 168.889 340.685 168.889H387.315C396.515 168.889 404 161.404 404 152.204C404 144.827 399.107 138.347 392.162 136.236Z" stroke="url(#paint9_linear_4896_3180)"/>
<path d="M321.5 42.5L237 75" stroke="#232F6F" stroke-linecap="round" stroke-linejoin="round" stroke-dasharray="1 3"/>
<path d="M321.5 137.5L237 105" stroke="#232F6F" stroke-linecap="round" stroke-linejoin="round" stroke-dasharray="1 3"/>
<path d="M163.5 105L79 137.5" stroke="#232F6F" stroke-linecap="round" stroke-linejoin="round" stroke-dasharray="1 3"/>
<path d="M163.5 75L79 42.5" stroke="#232F6F" stroke-linecap="round" stroke-linejoin="round" stroke-dasharray="1 3"/>
</g>
<defs>
<filter id="filter0_f_4896_3180" x="107" y="-4" width="187" height="187" filterUnits="userSpaceOnUse" color-interpolation-filters="sRGB">
<feFlood flood-opacity="0" result="BackgroundImageFix"/>
<feBlend mode="normal" in="SourceGraphic" in2="BackgroundImageFix" result="shape"/>
<feGaussianBlur stdDeviation="16" result="effect1_foregroundBlur_4896_3180"/>
</filter>
<filter id="filter1_f_4896_3180" x="151" y="42" width="98" height="98" filterUnits="userSpaceOnUse" color-interpolation-filters="sRGB">
<feFlood flood-opacity="0" result="BackgroundImageFix"/>
<feBlend mode="normal" in="SourceGraphic" in2="BackgroundImageFix" result="shape"/>
<feGaussianBlur stdDeviation="2" result="effect1_foregroundBlur_4896_3180"/>
</filter>
<filter id="filter2_f_4896_3180" x="159.624" y="53.5" width="80.7511" height="75" filterUnits="userSpaceOnUse" color-interpolation-filters="sRGB">
<feFlood flood-opacity="0" result="BackgroundImageFix"/>
<feBlend mode="normal" in="SourceGraphic" in2="BackgroundImageFix" result="shape"/>
<feGaussianBlur stdDeviation="2" result="effect1_foregroundBlur_4896_3180"/>
</filter>
<linearGradient id="paint0_linear_4896_3180" x1="200.076" y1="64.041" x2="200.076" y2="116.226" gradientUnits="userSpaceOnUse">
<stop stop-color="#3FA1E3" stop-opacity="0.35"/>
<stop offset="0.605793" stop-color="#3FA1E3"/>
</linearGradient>
<linearGradient id="paint1_linear_4896_3180" x1="45.9993" y1="16" x2="45.9993" y2="36.0084" gradientUnits="userSpaceOnUse">
<stop stop-color="#3FA1E3"/>
<stop offset="1" stop-color="#3FA1E3" stop-opacity="0.35"/>
</linearGradient>
<linearGradient id="paint2_linear_4896_3180" x1="43.1848" y1="41.127" x2="43.1848" y2="54.2723" gradientUnits="userSpaceOnUse">
<stop stop-color="#3FA1E3"/>
<stop offset="1" stop-color="#3FA1E3" stop-opacity="0.35"/>
</linearGradient>
<linearGradient id="paint3_linear_4896_3180" x1="72.0025" y1="39.8594" x2="72.0025" y2="51.6751" gradientUnits="userSpaceOnUse">
<stop stop-color="#3FA1E3"/>
<stop offset="1" stop-color="#3FA1E3" stop-opacity="0.35"/>
</linearGradient>
<linearGradient id="paint4_linear_4896_3180" x1="47" y1="118" x2="47" y2="168" gradientUnits="userSpaceOnUse">
<stop stop-color="#3FA1E3"/>
<stop offset="1" stop-color="#3FA1E3" stop-opacity="0.35"/>
</linearGradient>
<linearGradient id="paint5_linear_4896_3180" x1="360.059" y1="1" x2="360.059" y2="19.4582" gradientUnits="userSpaceOnUse">
<stop stop-color="#3FA1E3"/>
<stop offset="1" stop-color="#3FA1E3" stop-opacity="0.35"/>
</linearGradient>
<linearGradient id="paint6_linear_4896_3180" x1="379.904" y1="7.27539" x2="379.904" y2="52.5045" gradientUnits="userSpaceOnUse">
<stop stop-color="#3FA1E3"/>
<stop offset="1" stop-color="#3FA1E3" stop-opacity="0.35"/>
</linearGradient>
<linearGradient id="paint7_linear_4896_3180" x1="351.461" y1="40.6816" x2="351.461" y2="52.4279" gradientUnits="userSpaceOnUse">
<stop stop-color="#3FA1E3"/>
<stop offset="1" stop-color="#3FA1E3" stop-opacity="0.35"/>
</linearGradient>
<linearGradient id="paint8_linear_4896_3180" x1="348.187" y1="16.334" x2="348.187" y2="48.7376" gradientUnits="userSpaceOnUse">
<stop stop-color="#3FA1E3"/>
<stop offset="1" stop-color="#3FA1E3" stop-opacity="0.35"/>
</linearGradient>
<linearGradient id="paint9_linear_4896_3180" x1="364" y1="120" x2="364" y2="168.889" gradientUnits="userSpaceOnUse">
<stop stop-color="#3FA1E3"/>
<stop offset="1" stop-color="#3FA1E3" stop-opacity="0.35"/>
</linearGradient>
<clipPath id="clip0_4896_3180">
<rect width="404" height="180" fill="white"/>
</clipPath>
</defs>
</svg>
