<svg width="404" height="180" viewBox="0 0 404 180" fill="none" xmlns="http://www.w3.org/2000/svg">
<g clip-path="url(#clip0_4837_1844)">
<circle cx="195.5" cy="188.5" r="153" stroke="#232F6F"/>
<path d="M86.4578 113.941C85.531 110.204 83.4592 106.815 80.5239 104.277C77.1607 101.368 72.8703 99.767 68.4424 99.767C65.1206 99.767 61.9386 100.63 59.1301 102.278C56.1559 99.5387 52.2562 98 48.1585 98C39.3693 98 32.1857 105.055 31.899 113.837C28.8605 114.692 26.1093 116.433 24.0062 118.861C21.4239 121.842 20.0007 125.663 20 129.618C20 138.651 27.2979 146 36.2683 146H81.7317C90.7021 146 98 138.651 98 129.618C98 122.375 93.2298 116.013 86.4578 113.941Z" fill="#0A0F2B" fill-opacity="0.8" stroke="url(#paint0_linear_4837_1844)"/>
<path d="M250.31 26.9408C249.371 23.2039 247.273 19.815 244.3 17.2765C240.894 14.3684 236.548 12.767 232.063 12.767C228.699 12.767 225.476 13.6296 222.632 15.2776C219.619 12.5387 215.67 11 211.519 11C202.618 11 195.342 18.0554 195.052 26.8368C191.974 27.692 189.188 29.4329 187.058 31.8612C184.442 34.8415 183.001 38.6627 183 42.618C183 51.6511 190.391 59 199.477 59H245.523C254.609 59 262 51.6511 262 42.618C262 35.3755 257.169 29.013 250.31 26.9408Z" fill="#0A0F2B" fill-opacity="0.8" stroke="url(#paint1_linear_4837_1844)"/>
<path d="M136.095 40.664H119.763C118.634 40.664 117.721 39.7509 117.721 38.6224C117.721 37.494 118.634 36.5809 119.763 36.5809H136.095C137.223 36.5809 138.137 37.494 138.137 38.6224C138.137 39.7509 137.223 40.664 136.095 40.664ZM103.158 40.664C102.031 40.664 101.117 39.7499 101.117 38.6224C101.117 37.4947 102.031 36.5809 103.158 36.5809C104.286 36.5809 105.2 37.4947 105.2 38.6224C105.2 39.7499 104.286 40.664 103.158 40.664ZM94.9922 40.664C93.8647 40.664 92.9506 39.7499 92.9506 38.6224C92.9506 37.4947 93.8647 36.5809 94.9922 36.5809C96.1196 36.5809 97.0337 37.4947 97.0337 38.6224C97.0337 39.7499 96.1196 40.664 94.9922 40.664ZM86.8261 40.664C85.6986 40.664 84.7845 39.7499 84.7845 38.6224C84.7845 37.4947 85.6986 36.5809 86.8261 36.5809C87.9535 36.5809 88.8676 37.4947 88.8676 38.6224C88.8676 39.7499 87.9535 40.664 86.8261 40.664ZM140.178 28.4148H82.743C79.3658 28.4148 76.6184 31.1621 76.6184 34.5394V42.7055C76.6184 46.0827 79.3658 48.8301 82.743 48.8301H140.178C143.555 48.8301 146.303 46.0827 146.303 42.7055V34.5394C146.303 31.1621 143.555 28.4148 140.178 28.4148Z" fill="#0A0F2B" fill-opacity="0.8" stroke="url(#paint2_linear_4837_1844)"/>
<path d="M136.095 65.2987H119.763C118.634 65.2987 117.721 64.3856 117.721 63.2572C117.721 62.1288 118.634 61.2157 119.763 61.2157H136.095C137.223 61.2157 138.137 62.1288 138.137 63.2572C138.137 64.3856 137.223 65.2987 136.095 65.2987ZM103.158 65.2987C102.031 65.2987 101.117 64.3847 101.117 63.2572C101.117 62.1295 102.031 61.2157 103.158 61.2157C104.286 61.2157 105.2 62.1295 105.2 63.2572C105.2 64.3847 104.286 65.2987 103.158 65.2987ZM94.9922 65.2987C93.8647 65.2987 92.9506 64.3847 92.9506 63.2572C92.9506 62.1295 93.8647 61.2157 94.9922 61.2157C96.1196 61.2157 97.0337 62.1295 97.0337 63.2572C97.0337 64.3847 96.1196 65.2987 94.9922 65.2987ZM86.8261 65.2987C85.6986 65.2987 84.7845 64.3847 84.7845 63.2572C84.7845 62.1295 85.6986 61.2157 86.8261 61.2157C87.9535 61.2157 88.8676 62.1295 88.8676 63.2572C88.8676 64.3847 87.9535 65.2987 86.8261 65.2987ZM140.178 53.0495H82.743C79.3658 53.0495 76.6184 55.7969 76.6184 59.1741V67.3403C76.6184 70.7175 79.3658 73.4648 82.743 73.4648H140.178C143.555 73.4648 146.303 70.7175 146.303 67.3403V59.1741C146.303 55.7969 143.555 53.0495 140.178 53.0495Z" fill="#0A0F2B" fill-opacity="0.8" stroke="url(#paint3_linear_4837_1844)"/>
<path d="M338.615 85.3085H322.283C321.154 85.3085 320.241 84.3954 320.241 83.267C320.241 82.1385 321.154 81.2254 322.283 81.2254H338.615C339.743 81.2254 340.656 82.1385 340.656 83.267C340.656 84.3954 339.743 85.3085 338.615 85.3085ZM305.678 85.3085C304.551 85.3085 303.637 84.3944 303.637 83.267C303.637 82.1392 304.551 81.2254 305.678 81.2254C306.806 81.2254 307.72 82.1392 307.72 83.267C307.72 84.3944 306.806 85.3085 305.678 85.3085ZM297.512 85.3085C296.384 85.3085 295.47 84.3944 295.47 83.267C295.47 82.1392 296.384 81.2254 297.512 81.2254C298.639 81.2254 299.553 82.1392 299.553 83.267C299.553 84.3944 298.639 85.3085 297.512 85.3085ZM289.346 85.3085C288.218 85.3085 287.304 84.3944 287.304 83.267C287.304 82.1392 288.218 81.2254 289.346 81.2254C290.473 81.2254 291.387 82.1392 291.387 83.267C291.387 84.3944 290.473 85.3085 289.346 85.3085ZM342.698 73.0593H285.263C281.886 73.0593 279.138 75.8067 279.138 79.1839V87.35C279.138 90.7273 281.886 93.4746 285.263 93.4746H342.698C346.075 93.4746 348.822 90.7273 348.822 87.35V79.1839C348.822 75.8067 346.075 73.0593 342.698 73.0593Z" fill="#0A0F2B" fill-opacity="0.8" stroke="url(#paint4_linear_4837_1844)"/>
<path d="M338.615 109.941H322.283C321.154 109.941 320.241 109.028 320.241 107.9C320.241 106.771 321.154 105.858 322.283 105.858H338.615C339.743 105.858 340.656 106.771 340.656 107.9C340.656 109.028 339.743 109.941 338.615 109.941ZM305.678 109.941C304.551 109.941 303.637 109.027 303.637 107.9C303.637 106.772 304.551 105.858 305.678 105.858C306.806 105.858 307.72 106.772 307.72 107.9C307.72 109.027 306.806 109.941 305.678 109.941ZM297.512 109.941C296.384 109.941 295.47 109.027 295.47 107.9C295.47 106.772 296.384 105.858 297.512 105.858C298.639 105.858 299.553 106.772 299.553 107.9C299.553 109.027 298.639 109.941 297.512 109.941ZM289.346 109.941C288.218 109.941 287.304 109.027 287.304 107.9C287.304 106.772 288.218 105.858 289.346 105.858C290.473 105.858 291.387 106.772 291.387 107.9C291.387 109.027 290.473 109.941 289.346 109.941ZM342.698 97.6921H285.263C281.886 97.6921 279.138 100.439 279.138 103.817V111.983C279.138 115.36 281.886 118.107 285.263 118.107H342.698C346.075 118.107 348.822 115.36 348.822 111.983V103.817C348.822 100.439 346.075 97.6921 342.698 97.6921Z" fill="#0A0F2B" fill-opacity="0.8" stroke="url(#paint5_linear_4837_1844)"/>
<path d="M371.31 163.941C370.371 160.204 368.273 156.815 365.3 154.277C361.894 151.368 357.548 149.767 353.063 149.767C349.699 149.767 346.476 150.63 343.632 152.278C340.619 149.539 336.67 148 332.519 148C323.618 148 316.342 155.055 316.052 163.837C312.974 164.692 310.188 166.433 308.058 168.861C305.442 171.842 304.001 175.663 304 179.618C304 188.651 311.391 196 320.477 196H366.523C375.609 196 383 188.651 383 179.618C383 172.375 378.169 166.013 371.31 163.941Z" fill="#0A0F2B" fill-opacity="0.8" stroke="url(#paint6_linear_4837_1844)"/>
</g>
<defs>
<linearGradient id="paint0_linear_4837_1844" x1="59" y1="98" x2="59" y2="146" gradientUnits="userSpaceOnUse">
<stop stop-color="#3FA1E3"/>
<stop offset="1" stop-color="#3FA1E3" stop-opacity="0.35"/>
</linearGradient>
<linearGradient id="paint1_linear_4837_1844" x1="222.5" y1="11" x2="222.5" y2="59" gradientUnits="userSpaceOnUse">
<stop stop-color="#3FA1E3"/>
<stop offset="1" stop-color="#3FA1E3" stop-opacity="0.35"/>
</linearGradient>
<linearGradient id="paint2_linear_4837_1844" x1="111.461" y1="48.8301" x2="111.461" y2="28.4148" gradientUnits="userSpaceOnUse">
<stop stop-color="#3FA1E3"/>
<stop offset="1" stop-color="#3FA1E3" stop-opacity="0.35"/>
</linearGradient>
<linearGradient id="paint3_linear_4837_1844" x1="111.461" y1="73.4648" x2="111.461" y2="53.0495" gradientUnits="userSpaceOnUse">
<stop stop-color="#3FA1E3"/>
<stop offset="1" stop-color="#3FA1E3" stop-opacity="0.35"/>
</linearGradient>
<linearGradient id="paint4_linear_4837_1844" x1="313.98" y1="93.4746" x2="313.98" y2="73.0593" gradientUnits="userSpaceOnUse">
<stop stop-color="#3FA1E3"/>
<stop offset="1" stop-color="#3FA1E3" stop-opacity="0.35"/>
</linearGradient>
<linearGradient id="paint5_linear_4837_1844" x1="313.98" y1="118.107" x2="313.98" y2="97.6921" gradientUnits="userSpaceOnUse">
<stop stop-color="#3FA1E3"/>
<stop offset="1" stop-color="#3FA1E3" stop-opacity="0.35"/>
</linearGradient>
<linearGradient id="paint6_linear_4837_1844" x1="343.5" y1="148" x2="343.5" y2="196" gradientUnits="userSpaceOnUse">
<stop stop-color="#3FA1E3"/>
<stop offset="1" stop-color="#3FA1E3" stop-opacity="0.35"/>
</linearGradient>
<clipPath id="clip0_4837_1844">
<rect width="404" height="180" fill="white"/>
</clipPath>
</defs>
</svg>
