<svg width="404" height="180" viewBox="0 0 404 180" fill="none" xmlns="http://www.w3.org/2000/svg">
<g clip-path="url(#clip0_4834_1536)">
<rect x="14.5" y="3.5" width="87" height="87" rx="29.5" stroke="#232F6F"/>
<rect x="110.5" y="99.5" width="87" height="87" rx="29.5" stroke="#232F6F"/>
<rect x="110.5" y="3.5" width="87" height="87" rx="29.5" stroke="#232F6F"/>
<rect opacity="0.2" x="115" y="8" width="78" height="78" rx="25" fill="url(#paint0_radial_4834_1536)"/>
<rect opacity="0.2" x="115" y="104" width="78" height="78" rx="25" fill="url(#paint1_radial_4834_1536)"/>
<rect opacity="0.2" x="211" y="8" width="78" height="78" rx="25" fill="url(#paint2_radial_4834_1536)"/>
<rect opacity="0.2" x="211" y="104" width="78" height="78" rx="25" fill="url(#paint3_radial_4834_1536)"/>
<rect opacity="0.2" x="307" y="104" width="78" height="78" rx="25" fill="url(#paint4_radial_4834_1536)"/>
<rect opacity="0.2" x="19" y="8" width="78" height="78" rx="25" fill="url(#paint5_radial_4834_1536)"/>
<rect x="206.5" y="99.5" width="87" height="87" rx="29.5" stroke="#232F6F"/>
<rect x="206.5" y="3.5" width="87" height="87" rx="29.5" stroke="#232F6F"/>
<rect x="302.5" y="99.5" width="87" height="87" rx="29.5" stroke="#232F6F"/>
<path d="M56.7382 64C56.2883 63.9995 55.846 63.884 55.4533 63.6644L50.3592 60.8347C47.8266 59.4266 45.7162 57.3674 44.2465 54.87C42.7769 52.3726 42.0013 49.5278 42 46.6301V38.7758C41.9999 38.1222 42.2422 37.4918 42.68 37.0065C43.1178 36.5212 43.7201 36.2155 44.3702 36.1486C46.397 35.9338 48.3918 35.4828 50.3139 34.8048C52.0761 34.1818 53.7667 33.372 55.3566 32.3892C55.7725 32.1347 56.2506 32 56.7382 32C57.2258 32 57.7039 32.1347 58.1198 32.3892C59.7099 33.3717 61.4004 34.1815 63.1625 34.8048C65.0846 35.4828 67.0794 35.9338 69.1062 36.1486C69.7563 36.2155 70.3585 36.5212 70.7964 37.0065C71.2342 37.4918 71.4765 38.1222 71.4764 38.7758V46.6301C71.4751 49.5278 70.6995 52.3726 69.2299 54.87C67.7602 57.3674 65.6498 59.4266 63.1172 60.8347L58.0231 63.6659C57.6303 63.8851 57.188 64.0001 56.7382 64ZM56.7382 34.2666C56.6717 34.266 56.6063 34.2838 56.5492 34.318C54.8215 35.3859 52.9845 36.2661 51.0697 36.9437C48.981 37.6809 46.8132 38.171 44.6106 38.4039C44.517 38.4119 44.4298 38.4546 44.3663 38.5238C44.3027 38.5929 44.2675 38.6834 44.2674 38.7773V46.6316C44.2682 49.125 44.9354 51.5729 46.1999 53.7219C47.4645 55.8709 49.2804 57.6429 51.4597 58.8545L56.5538 61.6842C56.6096 61.7156 56.6726 61.7321 56.7367 61.7321C56.8008 61.7321 56.8637 61.7156 56.9196 61.6842L62.0167 58.8545C64.196 57.6429 66.0119 55.8709 67.2765 53.7219C68.541 51.5729 69.2082 49.125 69.209 46.6316V38.7758C69.2089 38.6819 69.1737 38.5914 69.1101 38.5223C69.0466 38.4531 68.9594 38.4103 68.8658 38.4024C66.6632 38.1694 64.4954 37.6794 62.4067 36.9422C60.492 36.2656 58.6551 35.3864 56.9271 34.3195C56.8704 34.2845 56.8049 34.2662 56.7382 34.2666Z" fill="#3FA1E3"/>
<path d="M55.9822 51.367C55.7045 51.3673 55.4364 51.265 55.2294 51.0798L51.8283 48.0566C51.6174 47.8534 51.4933 47.5765 51.482 47.2839C51.4708 46.9913 51.5731 46.7056 51.7677 46.4868C51.9623 46.268 52.2341 46.1329 52.526 46.11C52.818 46.087 53.1075 46.1779 53.3339 46.3636L55.9097 48.6522L60.8239 43.4114C60.9251 43.3003 61.0474 43.2104 61.1836 43.147C61.3198 43.0835 61.4673 43.0478 61.6175 43.0419C61.7677 43.036 61.9175 43.06 62.0583 43.1125C62.1991 43.165 62.3281 43.245 62.4377 43.3478C62.5473 43.4506 62.6354 43.5742 62.6969 43.7113C62.7583 43.8485 62.7918 43.9965 62.7955 44.1467C62.7993 44.297 62.7731 44.4464 62.7185 44.5865C62.6639 44.7265 62.582 44.8543 62.4776 44.9624L56.8091 51.0088C56.7032 51.1221 56.5752 51.2123 56.4329 51.274C56.2907 51.3356 56.1373 51.3673 55.9822 51.367Z" fill="#3FA1E3"/>
<path d="M151.828 35.114C155.98 30.962 162.734 30.962 166.886 35.114C170.908 39.1362 171.034 45.5997 167.263 49.7745L166.886 50.1716C164.181 52.8785 160.325 53.8278 156.703 52.8603L154.835 54.7059C154.493 55.0445 154.032 55.2352 153.55 55.2353H152.879V55.9375L152.868 56.1299C152.847 56.3205 152.797 56.507 152.718 56.6826C152.613 56.9169 152.46 57.1268 152.268 57.2978L152.266 57.3003C151.892 57.6318 151.378 57.8142 150.844 57.7476L150.458 57.7034L150.374 58.6029C150.334 59.0257 150.148 59.4215 149.848 59.7218C149.548 60.022 149.152 60.2069 148.729 60.2463L147.828 60.3321L147.874 60.7181C147.905 60.991 147.876 61.2675 147.786 61.527C147.695 61.7864 147.547 62.0226 147.353 62.2169L146.104 63.4657C145.763 63.8073 145.299 64 144.815 64H139.824C138.816 64 138 63.184 138 62.1765V57.1851C138 56.9455 138.047 56.7079 138.138 56.4865L138.216 56.3248C138.3 56.1669 138.407 56.0216 138.534 55.8946L149.071 45.3566C148.111 41.7209 149.131 37.811 151.828 35.114ZM165.555 36.4449C162.138 33.028 156.576 33.028 153.159 36.4449C150.826 38.7781 150.015 42.2185 151.026 45.3407L151.203 45.8885L150.795 46.2954L139.882 57.2083V62.1176H144.79L146 60.9056L145.739 58.6385L148.504 58.3775L148.675 56.5686L148.765 55.6115L149.721 55.723L150.996 55.8701V53.353H153.524L156.183 50.7316L156.727 50.9069C159.858 51.922 163.229 51.168 165.555 48.8407C168.972 45.4239 168.972 39.8618 165.555 36.4449ZM159.316 37.6103C160.716 36.2108 162.99 36.2106 164.39 37.6103C165.789 39.0101 165.789 41.284 164.39 42.6839C162.99 44.0837 160.716 44.0837 159.316 42.6839C157.916 41.284 157.916 39.0102 159.316 37.6103ZM163.059 38.9412C162.394 38.2766 161.312 38.2767 160.647 38.9412C159.982 39.6059 159.982 40.6882 160.647 41.353C161.312 42.0177 162.394 42.0177 163.059 41.353C163.723 40.6882 163.723 39.6058 163.059 38.9412Z" fill="#3FA1E3"/>
<path d="M249.739 64C249.289 63.9999 248.847 63.8849 248.454 63.6659L243.359 60.8346C240.827 59.4266 238.716 57.3673 237.246 54.8699C235.777 52.3724 235.001 49.5275 235 46.6297V38.7751C235 38.1215 235.242 37.4911 235.68 37.0059C236.118 36.5206 236.72 36.2149 237.37 36.1479C239.397 35.9329 241.392 35.4818 243.314 34.804C245.076 34.1813 246.766 33.3715 248.355 32.3884H248.357C248.773 32.1344 249.251 32 249.739 32C250.226 32 250.704 32.1344 251.12 32.3884C252.71 33.3714 254.401 34.1812 256.163 34.804C258.085 35.4818 260.08 35.9329 262.107 36.1479C262.757 36.2149 263.359 36.5206 263.797 37.0059C264.235 37.4911 264.477 38.1215 264.477 38.7751V46.6297C264.476 49.5275 263.7 52.3724 262.231 54.8699C260.761 57.3673 258.651 59.4266 256.118 60.8346L251.023 63.6659C250.631 63.8849 250.188 63.9999 249.739 64ZM249.55 34.3188C247.822 35.3859 245.985 36.2652 244.07 36.9415C241.981 37.6789 239.813 38.169 237.611 38.4018C237.517 38.4097 237.43 38.4525 237.366 38.5216C237.303 38.5908 237.268 38.6812 237.267 38.7751V46.6297C237.268 49.1232 237.935 51.5711 239.2 53.7202C240.465 55.8692 242.281 57.6413 244.46 58.8528L249.554 61.6826C249.61 61.7149 249.674 61.7318 249.739 61.7318C249.803 61.7318 249.867 61.7149 249.923 61.6826L255.017 58.8528C257.197 57.6413 259.013 55.8692 260.277 53.7202C261.542 51.5711 262.209 49.1232 262.21 46.6297V38.7751C262.21 38.6812 262.174 38.5908 262.111 38.5216C262.047 38.4525 261.96 38.4097 261.867 38.4018C259.664 38.169 257.496 37.6789 255.407 36.9415C253.492 36.2652 251.655 35.3859 249.928 34.3188C249.87 34.2844 249.805 34.2662 249.739 34.2662C249.672 34.2662 249.607 34.2844 249.55 34.3188Z" fill="#3FA1E3"/>
<path d="M253.518 55.9018H245.959C245.058 55.901 244.193 55.5424 243.555 54.9047C242.918 54.2671 242.559 53.4024 242.558 52.5006V47.9657C242.559 47.0638 242.918 46.1992 243.555 45.5615C244.193 44.9239 245.058 44.5653 245.959 44.5645H253.518C254.42 44.5653 255.284 44.9239 255.922 45.5615C256.56 46.1992 256.918 47.0638 256.919 47.9657V52.5006C256.918 53.4024 256.56 54.2671 255.922 54.9047C255.284 55.5424 254.42 55.901 253.518 55.9018ZM245.959 46.8319C245.659 46.8319 245.37 46.9514 245.158 47.164C244.945 47.3766 244.826 47.665 244.826 47.9657V52.5006C244.826 52.8013 244.945 53.0897 245.158 53.3023C245.37 53.5149 245.659 53.6343 245.959 53.6343H253.518C253.818 53.6343 254.107 53.5149 254.319 53.3023C254.532 53.0897 254.651 52.8013 254.651 52.5006V47.9657C254.651 47.665 254.532 47.3766 254.319 47.164C254.107 46.9514 253.818 46.8319 253.518 46.8319H245.959Z" fill="#3FA1E3"/>
<path d="M252.762 46.8316H246.715C246.415 46.8316 246.126 46.7122 245.914 46.4996C245.701 46.287 245.582 45.9986 245.582 45.6979V42.6746C245.582 41.5721 246.02 40.5147 246.799 39.7351C247.579 38.9555 248.636 38.5176 249.739 38.5176C250.841 38.5176 251.898 38.9555 252.678 39.7351C253.458 40.5147 253.896 41.5721 253.896 42.6746V45.6979C253.896 45.9986 253.776 46.287 253.564 46.4996C253.351 46.7122 253.063 46.8316 252.762 46.8316ZM247.849 44.5642H251.628V42.6746C251.628 42.1735 251.429 41.6928 251.075 41.3385C250.72 40.9841 250.24 40.785 249.739 40.785C249.237 40.785 248.757 40.9841 248.402 41.3385C248.048 41.6928 247.849 42.1735 247.849 42.6746V44.5642Z" fill="#3FA1E3"/>
<path d="M165.314 131.686C163.828 130.201 162.064 129.022 160.123 128.218C158.182 127.414 156.101 127 154 127C149.757 127 145.687 128.686 142.686 131.686C139.686 134.687 138 138.757 138 143C138 147.243 139.686 151.313 142.686 154.314C145.687 157.314 149.757 159 154 159C158.243 159 162.313 157.314 165.314 154.314C168.314 151.313 170 147.243 170 143C170 138.757 168.314 134.687 165.314 131.686ZM163.723 152.723C161.473 154.972 158.513 156.372 155.348 156.684C152.182 156.996 149.006 156.2 146.361 154.433C143.716 152.665 141.766 150.035 140.842 146.991C139.919 143.947 140.079 140.677 141.297 137.738C142.514 134.799 144.713 132.373 147.518 130.874C150.324 129.374 153.563 128.894 156.683 129.514C159.803 130.135 162.611 131.818 164.629 134.277C166.647 136.736 167.75 139.819 167.75 143C167.755 144.806 167.402 146.596 166.71 148.265C166.019 149.934 165.003 151.449 163.723 152.723ZM152.078 136.578V149.422C152.078 149.72 151.96 150.006 151.749 150.217C151.538 150.428 151.251 150.547 150.953 150.547C150.655 150.547 150.369 150.428 150.158 150.217C149.947 150.006 149.828 149.72 149.828 149.422V140.099L148.166 142.434C147.992 142.675 147.73 142.837 147.437 142.886C147.144 142.934 146.843 142.865 146.601 142.693C146.359 142.52 146.195 142.259 146.145 141.966C146.095 141.673 146.162 141.372 146.333 141.129L150.037 135.926C150.175 135.732 150.371 135.586 150.598 135.511C150.824 135.435 151.068 135.434 151.296 135.507C151.523 135.579 151.721 135.722 151.862 135.915C152.002 136.107 152.078 136.34 152.078 136.578ZM161.667 144.871L157.963 150.074C157.825 150.269 157.629 150.414 157.402 150.489C157.176 150.565 156.932 150.566 156.704 150.494C156.477 150.421 156.279 150.278 156.138 150.085C155.998 149.893 155.922 149.66 155.922 149.422V136.578C155.922 136.28 156.04 135.994 156.251 135.783C156.462 135.572 156.749 135.453 157.047 135.453C157.345 135.453 157.631 135.572 157.842 135.783C158.053 135.994 158.172 136.28 158.172 136.578V145.901L159.834 143.566C159.919 143.445 160.027 143.342 160.153 143.263C160.278 143.183 160.418 143.13 160.564 143.105C160.71 143.08 160.86 143.084 161.004 143.117C161.149 143.15 161.286 143.211 161.406 143.297C161.527 143.383 161.63 143.492 161.708 143.618C161.787 143.744 161.84 143.884 161.864 144.03C161.888 144.176 161.883 144.326 161.849 144.47C161.816 144.615 161.753 144.751 161.667 144.871Z" fill="#3FA1E3"/>
<path d="M250.038 127C241.19 127 234 134.19 234 143.038C234 151.317 240.289 158.146 248.354 158.988C249.712 159.131 250.84 157.99 250.84 156.67V150.255C250.84 149.803 251.19 149.453 251.642 149.453H262.067C263.625 149.453 265.189 148.451 265.59 146.855C265.904 145.609 266.067 144.331 266.076 143.046C266.076 143.045 266.076 143.044 266.076 143.043C266.076 143.042 266.076 143.041 266.076 143.04C266.076 134.191 258.886 127 250.038 127ZM245.227 133.415C246.547 133.415 247.632 134.501 247.632 135.821C247.632 137.141 246.547 138.227 245.227 138.227C243.907 138.227 242.821 137.141 242.821 135.821C242.821 134.501 243.907 133.415 245.227 133.415ZM254.849 133.415C256.169 133.415 257.255 134.501 257.255 135.821C257.255 137.141 256.169 138.227 254.849 138.227C253.53 138.227 252.444 137.141 252.444 135.821C252.444 134.501 253.53 133.415 254.849 133.415ZM241.217 139.83C242.537 139.83 243.623 140.916 243.623 142.236C243.623 143.556 242.537 144.642 241.217 144.642C239.897 144.642 238.811 143.556 238.811 142.236C238.811 140.916 239.897 139.83 241.217 139.83ZM258.859 139.83C260.179 139.83 261.265 140.916 261.265 142.236C261.265 143.556 260.179 144.642 258.859 144.642C257.539 144.642 256.453 143.556 256.453 142.236C256.453 140.916 257.539 139.83 258.859 139.83Z" stroke="#3FA1E3" stroke-width="1.8"/>
</g>
<defs>
<radialGradient id="paint0_radial_4834_1536" cx="0" cy="0" r="1" gradientUnits="userSpaceOnUse" gradientTransform="translate(154 47) rotate(90) scale(39)">
<stop offset="0.480792" stop-color="#232F6F" stop-opacity="0"/>
<stop offset="1" stop-color="#232F6F"/>
</radialGradient>
<radialGradient id="paint1_radial_4834_1536" cx="0" cy="0" r="1" gradientUnits="userSpaceOnUse" gradientTransform="translate(154 143) rotate(90) scale(39)">
<stop offset="0.480792" stop-color="#232F6F" stop-opacity="0"/>
<stop offset="1" stop-color="#232F6F"/>
</radialGradient>
<radialGradient id="paint2_radial_4834_1536" cx="0" cy="0" r="1" gradientUnits="userSpaceOnUse" gradientTransform="translate(250 47) rotate(90) scale(39)">
<stop offset="0.480792" stop-color="#232F6F" stop-opacity="0"/>
<stop offset="1" stop-color="#232F6F"/>
</radialGradient>
<radialGradient id="paint3_radial_4834_1536" cx="0" cy="0" r="1" gradientUnits="userSpaceOnUse" gradientTransform="translate(250 143) rotate(90) scale(39)">
<stop offset="0.480792" stop-color="#232F6F" stop-opacity="0"/>
<stop offset="1" stop-color="#232F6F"/>
</radialGradient>
<radialGradient id="paint4_radial_4834_1536" cx="0" cy="0" r="1" gradientUnits="userSpaceOnUse" gradientTransform="translate(346 143) rotate(90) scale(39)">
<stop offset="0.480792" stop-color="#232F6F" stop-opacity="0"/>
<stop offset="1" stop-color="#232F6F"/>
</radialGradient>
<radialGradient id="paint5_radial_4834_1536" cx="0" cy="0" r="1" gradientUnits="userSpaceOnUse" gradientTransform="translate(58 47) rotate(90) scale(39)">
<stop offset="0.480792" stop-color="#232F6F" stop-opacity="0"/>
<stop offset="1" stop-color="#232F6F"/>
</radialGradient>
<clipPath id="clip0_4834_1536">
<rect width="404" height="180" fill="white"/>
</clipPath>
</defs>
</svg>
