<svg width="392" height="146" viewBox="0 0 392 146" fill="none" xmlns="http://www.w3.org/2000/svg">
<g clip-path="url(#clip0_5458_4388)">
<g opacity="0.3">
<path d="M66.7479 7.63093C67.0001 5.95026 68.5126 3.84942 71.3697 3.84942C74.0587 3.84942 75.5715 5.7822 75.8235 7.63093H66.7479ZM63.0504 8.97547C63.0504 13.6814 66.4958 16.8746 71.4538 16.8746C74.731 16.8746 76.916 15.278 78.1764 13.8494C78.3446 13.6814 78.3446 13.5132 78.1764 13.3452L76.4118 11.7486C76.2436 11.5805 75.9916 11.5805 75.9075 11.7486C74.9832 12.5049 73.6386 13.7654 71.5378 13.7654C69.1008 13.7654 67.3362 12.2528 66.9159 10.32H79.1008C79.437 10.32 79.605 10.1519 79.605 9.81574V9.0595C79.605 4.52169 76.6638 0.824219 71.7058 0.824219C66.2437 0.824219 63.0504 4.43766 63.0504 8.97547ZM57.6723 16.2864C57.6723 16.5384 57.8403 16.7066 58.0924 16.7066H60.6135C60.8655 16.7066 61.0336 16.5384 61.0336 16.2864V7.5469C61.0336 3.84942 58.8488 0.824219 54.227 0.824219H54.1428C51.8739 0.824219 50.1933 1.58052 49.1848 2.42085V1.58052C49.1848 1.32841 49.0168 1.16035 48.7647 1.16035H46.1596C45.9075 1.16035 45.7395 1.32841 45.7395 1.58052V16.2023C45.7395 16.4544 45.9075 16.6226 46.1596 16.6226H48.7647C49.0168 16.6226 49.1848 16.4544 49.1848 16.2023V8.13514C49.1848 5.61412 50.4454 3.76539 53.4706 3.76539C56.4958 3.76539 57.6723 5.61412 57.6723 8.13514V16.2864ZM40.1093 8.89144C40.1093 11.5805 38.0924 13.7654 35.3193 13.7654C32.5462 13.7654 30.6975 11.4125 30.6975 8.89144V8.72337C30.6975 6.11833 32.6302 3.93346 35.3193 3.93346C38.0084 3.93346 40.1093 6.11833 40.1093 8.89144ZM27 8.89144C27 13.2612 30.5294 16.9586 35.3193 16.9586C40.1093 16.9586 43.6386 13.2612 43.6386 8.89144V8.72337C43.6386 4.35363 40.1093 0.824219 35.3193 0.824219C30.5294 0.824219 27 4.35363 27 8.89144Z" fill="#D252B5"/>
</g>
<path d="M100.575 19.3906H112.088L115.648 30.3382C117.846 37.0377 115.887 43.5638 109.891 47.876L106.332 36.8664L115.646 30.3377H104.133L100.575 19.3906L97.0168 30.3377H85.5034L94.8184 36.8662L91.2601 47.8756L100.575 41.2527L109.89 47.8756L100.575 54.3906L91.2601 47.8756C85.2643 43.5636 83.304 37.0372 85.5034 30.3377L89.0626 19.3906H100.575Z" fill="#D252B5"/>
<path d="M103.457 87.832C102.79 88.2984 102.225 88.8942 101.798 89.583L101.719 89.7133L100.237 92.2509L94.065 102.832L99.9107 112.825L98.4292 115.363C97.853 116.354 96.9466 117.115 95.8652 117.517C94.7838 117.919 93.5946 117.937 92.5015 117.567C91.3516 117.187 90.4193 116.355 89.79 115.331L89.7259 115.224L83.5884 104.713C83.2497 104.147 83.0753 103.49 83.0753 102.832C83.0745 102.213 83.2299 101.604 83.5272 101.06L83.5884 100.952L89.9003 90.1393C90.2988 89.4529 90.8699 88.8799 91.5582 88.476C92.2465 88.072 93.0286 87.8507 93.8288 87.8336L93.9376 87.8323L103.457 87.832ZM105.416 88.097C106.492 87.7383 107.659 87.7519 108.726 88.1355C109.793 88.519 110.696 89.2498 111.288 90.2079L111.344 90.301L117.563 100.951C117.901 101.516 118.075 102.175 118.075 102.832C118.075 103.449 117.922 104.065 117.624 104.605L117.563 104.712L111.25 115.525C110.852 116.211 110.281 116.784 109.593 117.188C108.904 117.592 108.122 117.814 107.322 117.831L107.213 117.832H97.6936C98.3557 117.365 98.9177 116.773 99.347 116.09L99.4315 115.951L100.914 113.412L107.086 102.832L101.24 92.8272L102.641 90.4396C103.27 89.3657 104.228 88.4895 105.416 88.097Z" fill="#D252B5"/>
<g opacity="0.6">
<path fill-rule="evenodd" clip-rule="evenodd" d="M50.0402 53.667C53.4583 51.1887 56.8765 51.9493 60.0383 55.4389V55.4443C63.2002 58.938 66.7037 65.756 65.5021 72.9847C65.2571 74.5455 64.7371 76.0487 63.9666 77.4219C62.4551 80.0131 59.9685 81.8661 57.0808 82.5534C53.8782 83.3872 50.4803 82.8948 47.6354 81.1841C47.2747 80.9514 46.9286 80.696 46.5993 80.4195C44.0803 78.1551 42.5621 74.9588 42.3853 71.5476C42.2458 69.6499 42.3834 67.7416 42.7939 65.8848C43.1667 64.1789 43.7279 62.5212 44.4669 60.9431C45.6914 58.0798 47.6084 55.577 50.0402 53.667ZM47.3629 63.4864C47.7541 62.0697 49.1347 57.9429 52.394 55.8672C52.5567 55.7655 52.6536 55.5834 52.6482 55.3895C52.6427 55.1956 52.5358 55.0194 52.3677 54.9272C52.1996 54.8351 51.9959 54.8409 51.8332 54.9426C49.915 56.248 48.3954 58.0732 47.447 60.211C46.989 61.1698 46.6155 62.1679 46.3308 63.1935C46.2907 63.3386 46.3118 63.4939 46.389 63.6226C46.4663 63.7511 46.5927 63.8412 46.738 63.8714C47.0137 63.9306 47.2872 63.762 47.3629 63.4864Z" fill="#D252B5"/>
<path d="M56.6201 85.1394C60.6641 87.0213 65.4108 86.3982 68.8507 83.5343C74.6402 78.6239 76.2439 68.5929 76.2439 68.5929C76.2439 68.5929 77.2666 63.3964 75.384 60.3975C73.5013 57.3987 68.8507 57.4244 64.5953 58.9062C66.497 62.8452 67.5442 67.1525 67.6664 71.5375C67.6124 78.1505 63.0061 83.8221 56.6227 85.1353" fill="#D252B5"/>
</g>
<path d="M141.006 62.8495L141.705 54.2361L141.705 54.2456C141.724 54.1134 141.62 54 141.488 54H139.173C139.05 54 138.946 54.1134 138.955 54.2458L139.295 58.467H138.586C138.555 58.4672 138.524 58.4738 138.495 58.4864C138.467 58.4991 138.441 58.5175 138.419 58.5405C138.398 58.5636 138.382 58.5908 138.372 58.6204C138.361 58.6501 138.357 58.6815 138.359 58.7128L138.757 62.8872C139.163 62.8209 139.579 62.7927 140.004 62.7927C140.339 62.7927 140.673 62.8117 141.006 62.8495Z" fill="#D252B5"/>
<path d="M135.572 54.51C135.695 54.4627 135.827 54.5382 135.865 54.6611H135.874L138.161 62.9911C137.425 63.1592 136.716 63.4294 136.054 63.7938L134.249 60.0066C134.192 59.8932 134.249 59.7516 134.372 59.7045L135.043 59.4589L133.275 55.6054C133.219 55.4922 133.275 55.3506 133.398 55.3033L135.572 54.51Z" fill="#D252B5"/>
<path d="M135.534 64.1054L130.535 57.06H130.525C130.45 56.9561 130.308 56.9371 130.204 57.0221L128.437 58.5051C128.412 58.5245 128.392 58.5489 128.378 58.5766C128.363 58.6043 128.355 58.6348 128.353 58.666C128.351 58.6973 128.356 58.7285 128.367 58.7577C128.378 58.7869 128.396 58.8134 128.418 58.8355L131.395 61.8484L130.847 62.3018C130.824 62.3225 130.805 62.3476 130.792 62.3756C130.779 62.4037 130.772 62.434 130.771 62.4649C130.77 62.4958 130.776 62.5266 130.787 62.5553C130.798 62.5841 130.816 62.6102 130.837 62.6321L133.833 65.5787C134.324 65.0121 134.901 64.521 135.534 64.1054Z" fill="#D252B5"/>
<path d="M126.017 61.2154C126.083 61.1022 126.235 61.0644 126.339 61.1399L133.455 66.0511C132.999 66.651 132.63 67.3124 132.359 68.0155L128.541 66.2683C128.418 66.2211 128.37 66.0699 128.437 65.9566L128.796 65.3427L124.959 63.5293C124.932 63.5158 124.907 63.4968 124.887 63.4735C124.868 63.4502 124.853 63.4232 124.844 63.394C124.835 63.3648 124.832 63.3341 124.836 63.3038C124.839 63.2735 124.849 63.2442 124.864 63.2177L126.017 61.2154Z" fill="#D252B5"/>
<path d="M123.787 66.4006C123.664 66.3722 123.532 66.4477 123.513 66.5799L123.504 66.5704L123.107 68.8466C123.087 68.9788 123.173 69.1017 123.305 69.1109L127.529 69.5076L127.407 70.2065C127.4 70.2372 127.4 70.2689 127.406 70.2996C127.413 70.3302 127.426 70.3591 127.445 70.3842C127.464 70.4093 127.488 70.4301 127.515 70.445C127.543 70.46 127.574 70.4689 127.605 70.471L131.792 70.8111C131.809 70.0552 131.929 69.3052 132.151 68.5822L123.787 66.4006Z" fill="#D252B5"/>
<path d="M123.003 72.4922C122.984 72.3601 123.069 72.2372 123.201 72.228L123.192 72.2276L131.801 71.4347C131.839 72.1996 131.99 72.9455 132.226 73.6445L128.182 74.7588C128.059 74.7872 127.926 74.7117 127.908 74.5795L127.785 73.8805L123.683 74.9477C123.56 74.9761 123.428 74.9006 123.409 74.7685L123.003 72.4922Z" fill="#D252B5"/>
<path d="M124.515 78.1296C124.518 78.1599 124.528 78.1892 124.543 78.2156L124.534 78.2154L125.696 80.2177C125.762 80.3311 125.914 80.369 126.018 80.2935L129.505 77.8851L129.864 78.5083C129.88 78.5348 129.901 78.5577 129.926 78.5756C129.951 78.5934 129.98 78.6059 130.01 78.6121C130.04 78.6183 130.071 78.6181 130.102 78.6117C130.132 78.6052 130.16 78.5925 130.185 78.5744L133.606 76.1378C133.134 75.5523 132.737 74.9006 132.444 74.2016L124.638 77.904C124.61 77.9176 124.586 77.9366 124.566 77.9598C124.547 77.9831 124.532 78.0102 124.523 78.0394C124.514 78.0686 124.511 78.0993 124.515 78.1296Z" fill="#D252B5"/>
<path d="M127.926 82.7393L134.003 76.5913L134.012 76.5909C134.523 77.1388 135.118 77.6204 135.761 78.017L133.379 81.4737C133.362 81.5 133.339 81.5224 133.312 81.5393C133.286 81.5562 133.256 81.5673 133.225 81.5718C133.193 81.5762 133.161 81.574 133.131 81.5653C133.101 81.5565 133.073 81.5414 133.049 81.521L132.5 81.0581L130.043 84.5148C129.968 84.6187 129.826 84.6376 129.722 84.5526L127.945 83.0697C127.921 83.0503 127.9 83.0259 127.886 82.9982C127.872 82.9704 127.863 82.9399 127.861 82.9087C127.86 82.8775 127.864 82.8463 127.876 82.8171C127.887 82.7879 127.904 82.7614 127.926 82.7393Z" fill="#D252B5"/>
<path d="M132.68 86.1585C132.624 86.2717 132.68 86.4133 132.803 86.4606L132.794 86.4512L134.967 87.2444C135.09 87.2918 135.222 87.216 135.26 87.0931L136.385 83.004L137.056 83.2493C137.179 83.2967 137.321 83.2211 137.349 83.0983L138.407 79.0373C137.661 78.8957 136.942 78.6407 136.281 78.3004L132.68 86.1585Z" fill="#D252B5"/>
<path d="M138.303 87.7545L139.003 79.1412C139.333 79.1884 139.664 79.2073 140.004 79.2073C140.43 79.2073 140.845 79.1789 141.252 79.1128L141.649 83.2872C141.658 83.4195 141.554 83.5328 141.422 83.5328H140.713L141.053 87.7542C141.072 87.8866 140.968 88 140.836 88H138.521C138.398 88 138.294 87.8866 138.303 87.7545Z" fill="#D252B5"/>
<path d="M147.215 55.5208C147.338 55.568 147.395 55.7001 147.338 55.823L143.728 63.6712C143.066 63.3406 142.357 63.0854 141.602 62.9343L142.66 58.8731C142.698 58.7505 142.83 58.6749 142.953 58.7221L143.624 58.9678L144.748 54.8783C144.786 54.7554 144.918 54.68 145.041 54.7272L147.215 55.5208Z" fill="#D252B5"/>
<path d="M146.005 65.3993L152.082 59.2514L152.092 59.2508C152.177 59.1564 152.177 59.0053 152.073 58.9203L150.296 57.4375C150.202 57.3525 150.05 57.3714 149.975 57.4754L147.518 60.932L146.969 60.4691C146.865 60.3841 146.714 60.4125 146.639 60.5165L144.257 63.9731C144.902 64.3664 145.491 64.8462 146.005 65.3993Z" fill="#D252B5"/>
<path d="M155.466 63.7751C155.532 63.8885 155.494 64.0303 155.371 64.0867L155.362 64.0962L147.556 67.7984C147.253 67.0996 146.866 66.4479 146.393 65.8624L149.814 63.4256C149.918 63.3408 150.069 63.3785 150.136 63.4919L150.495 64.1056L153.982 61.6973C154.086 61.6312 154.237 61.6596 154.303 61.7728L155.466 63.7751Z" fill="#D252B5"/>
<path d="M156.997 69.4985L156.6 67.2223L156.581 67.2317C156.562 67.0996 156.43 67.0241 156.307 67.0523L152.205 68.1195L152.082 67.4205C152.063 67.2885 151.931 67.2035 151.808 67.2412L147.763 68.3557C148 69.0545 148.151 69.7912 148.189 70.5657L156.798 69.7628C156.829 69.7592 156.859 69.7494 156.885 69.734C156.912 69.7185 156.936 69.6979 156.954 69.6731C156.973 69.6484 156.986 69.6202 156.993 69.5902C157.001 69.5602 157.002 69.529 156.997 69.4985Z" fill="#D252B5"/>
<path d="M156.487 75.4012C156.468 75.5333 156.335 75.6089 156.212 75.5807L156.203 75.571L147.839 73.3894C148.06 72.6665 148.181 71.9166 148.198 71.1607L152.385 71.5006C152.415 71.5042 152.445 71.514 152.472 71.5294C152.499 71.5448 152.522 71.5655 152.541 71.5903C152.559 71.615 152.573 71.6433 152.58 71.6733C152.587 71.7033 152.588 71.7346 152.583 71.7651L152.46 72.4638L156.685 72.8607C156.716 72.8643 156.745 72.8741 156.772 72.8895C156.799 72.9049 156.822 72.9256 156.841 72.9503C156.859 72.975 156.873 73.0032 156.88 73.0333C156.887 73.0633 156.888 73.0945 156.883 73.125L156.487 75.4012Z" fill="#D252B5"/>
<path d="M153.661 80.8506C153.765 80.9167 153.916 80.8883 153.982 80.7751L155.135 78.7728C155.201 78.6594 155.154 78.5178 155.04 78.4612L151.204 76.6479L151.563 76.0339C151.629 75.9207 151.581 75.7789 151.459 75.7223L147.641 73.975C147.37 74.6782 147 75.3396 146.544 75.9396L153.661 80.8506Z" fill="#D252B5"/>
<path d="M149.465 84.9211L144.465 77.8756H144.456C145.089 77.4695 145.656 76.969 146.157 76.4023L149.153 79.3489C149.247 79.4434 149.247 79.5945 149.143 79.6795L148.595 80.1329L151.572 83.1456C151.657 83.2401 151.657 83.3911 151.553 83.4761L149.786 84.9589C149.691 85.0439 149.54 85.025 149.465 84.9211Z" fill="#D252B5"/>
<path d="M144.125 87.32C144.163 87.4428 144.295 87.5184 144.418 87.471H144.427L146.601 86.6778C146.724 86.6306 146.78 86.4985 146.724 86.3756L144.956 82.5224L145.628 82.2766C145.75 82.2389 145.807 82.0973 145.75 81.9744L143.945 78.1872C143.284 78.5517 142.574 78.8219 141.838 78.99L144.125 87.32Z" fill="#D252B5"/>
<path d="M252.166 83.0391H222.286C206.963 83.0391 193.666 93.6106 190.212 108.539C186.758 123.468 173.461 134.039 158.138 134.039H78.1662" stroke="url(#paint0_linear_5458_4388)" stroke-width="1.17753"/>
<path d="M252.166 59.0391H222.286C206.963 59.0391 193.666 48.4675 190.212 33.5391C186.758 18.6106 173.461 8.03906 158.138 8.03906H78.1662" stroke="url(#paint1_linear_5458_4388)" stroke-width="1.17753"/>
<path d="M251.411 76.9297H218.574C207.174 76.9297 196.333 81.869 188.853 90.4713C181.373 99.0736 170.532 104.013 159.133 104.013H131.303" stroke="url(#paint2_linear_5458_4388)" stroke-width="1.17753"/>
<path d="M251.411 65.1523H218.574C207.174 65.1523 196.333 60.2131 188.853 51.6108C181.373 43.0085 170.532 38.0692 159.133 38.0692H131.303" stroke="url(#paint3_linear_5458_4388)" stroke-width="1.17753"/>
<path d="M252 71.0391H161.331" stroke="url(#paint4_linear_5458_4388)" stroke-width="1.17753"/>
<path d="M270.024 67.3203L278.061 53.4839C279.314 51.3272 281.62 50 284.114 50H297.886C300.38 50 302.686 51.3272 303.939 53.4839L311.976 67.3203C313.229 69.4768 313.24 72.1369 312.005 74.3034L303.93 88.467C302.684 90.6514 300.363 92 297.848 92H284.152C281.637 92 279.316 90.6514 278.07 88.467L269.995 74.3034C268.76 72.1369 268.771 69.4768 270.024 67.3203Z" fill="url(#paint5_linear_5458_4388)"/>
<path d="M289 58H283.4L275 70.4348L283.4 84H289L280.6 70.4348L289 58Z" fill="#131313"/>
<path d="M293 58H298.6L307 70.4348L298.6 84H293L301.4 70.4348L293 58Z" fill="#131313"/>
<g filter="url(#filter0_f_5458_4388)">
<path d="M262.196 67.1407L274.243 47.3592C275.513 45.2731 277.779 44 280.221 44H301.779C304.221 44 306.487 45.2731 307.757 47.3592L319.804 67.1407C321.154 69.3591 321.166 72.1432 319.833 74.3727L307.749 94.5912C306.486 96.7055 304.204 98 301.741 98H280.259C277.796 98 275.514 96.7055 274.251 94.5912L262.167 74.3727C260.834 72.1432 260.846 69.3591 262.196 67.1407Z" stroke="#D252B5"/>
</g>
<g opacity="0.3" filter="url(#filter1_f_5458_4388)">
<path d="M253.179 67.0781L269.973 39.3715C271.242 37.2784 273.512 36 275.959 36H306.041C308.488 36 310.758 37.2784 312.027 39.3715L328.821 67.0781C330.162 69.2905 330.173 72.0622 328.851 74.2856L312.018 102.579C310.756 104.7 308.471 106 306.002 106H275.998C273.529 106 271.244 104.7 269.982 102.579L253.149 74.2856C251.827 72.0622 251.838 69.2905 253.179 67.0781Z" stroke="#D252B5"/>
</g>
<g filter="url(#filter2_f_5458_4388)">
<circle cx="290" cy="72" r="84" stroke="#D252B5" stroke-width="4"/>
</g>
<circle cx="290" cy="72" r="86" stroke="url(#paint6_linear_5458_4388)"/>
<g opacity="0.4">
<path fill-rule="evenodd" clip-rule="evenodd" d="M23 141.408H43.0002V121H23V141.408Z" fill="#D252B5"/>
<path fill-rule="evenodd" clip-rule="evenodd" d="M81.8332 126.555L83 128.47C82.3948 129.078 81.8123 129.326 81.0414 129.326C80.7703 129.326 80.4774 129.282 80.3106 129.26C80.7276 129.799 80.9377 130.385 80.9377 131.151C80.9377 133.132 79.2691 134.575 76.9974 134.575C76.8718 134.575 76.7883 134.575 76.5806 134.552C75.8725 134.913 75.4766 135.183 75.4766 135.498C75.4766 135.655 75.6424 135.768 75.9347 135.768L77.4361 135.791C79.0608 135.813 79.915 136.083 80.666 136.827C81.2905 137.458 81.5833 138.246 81.5833 139.283C81.5833 140.251 81.3119 140.994 80.7276 141.669C79.7906 142.751 78.1845 143.155 76.5175 143.155C74.9975 143.155 73.4336 142.886 72.4753 141.917C71.8916 141.332 71.6001 140.655 71.6001 139.868C71.6001 139.237 71.7452 138.921 71.8499 138.697H74.4345C74.3296 138.967 74.3083 139.124 74.3083 139.439C74.3083 140.363 75.0184 140.857 76.3106 140.857C77.0187 140.857 77.6237 140.769 78.0607 140.475C78.4773 140.205 78.7478 139.778 78.7478 139.304C78.7478 138.269 77.8942 137.953 76.7883 137.93L75.6008 137.908C74.3508 137.884 73.5385 137.773 73.0376 137.547C72.5366 137.345 72.2251 136.827 72.2251 136.039C72.2251 135.296 72.4326 134.596 74.184 134.102C72.6414 133.673 71.8916 132.615 71.8916 130.904C71.8916 128.539 73.6635 127.007 76.3928 127.007C76.9974 127.007 77.539 127.097 78.3108 127.299C78.8932 127.456 79.2691 127.548 79.6237 127.548C80.3946 127.548 81.1866 127.187 81.8332 126.555ZM64.1152 126.917C64.3663 127.39 64.512 127.885 64.512 128.358C64.9284 128.042 65.283 127.772 65.7419 127.502C66.3044 127.187 67.0345 127.007 67.6589 127.007C68.8472 127.007 69.8892 127.682 70.2225 128.674C70.3681 129.101 70.4311 129.597 70.4311 130.318V138.742H67.6791V131.241C67.6791 129.935 67.4715 129.553 66.7417 129.553C66.1802 129.553 65.4509 129.958 64.8048 130.587V138.742H62.0108V130.385C62.0108 129.394 61.8855 128.448 61.6362 127.682L64.1152 126.917ZM59.7382 126.938V138.742H56.9462V127.411L59.7382 126.938ZM49.6701 123.088C52.1291 123.088 52.8798 123.357 53.6938 123.853C55.0469 124.664 55.7755 126.105 55.7755 127.908C55.7755 129.98 54.8596 131.647 53.2761 132.457C52.609 132.795 51.9832 132.976 50.379 132.976H48.7749V138.742H45.8568V123.088H49.6701ZM76.3717 129.214C75.3093 129.214 74.7046 129.845 74.7046 130.926C74.7046 132.097 75.3716 132.57 76.3512 132.57C77.4563 132.57 78.0607 131.984 78.0607 130.926C78.0607 129.845 77.4361 129.214 76.3717 129.214ZM50.6281 125.632H48.7749V130.408H50.296C51.4837 130.408 51.8384 130.25 52.2331 129.597C52.4847 129.17 52.5876 128.719 52.5876 127.975C52.5876 126.511 51.8586 125.632 50.6281 125.632ZM58.3834 122.164C59.3215 122.164 60.0725 122.998 60.0725 124.033C60.0725 125.069 59.3003 125.903 58.3416 125.903C57.4045 125.903 56.633 125.069 56.633 124.033C56.633 122.998 57.4252 122.164 58.3834 122.164Z" fill="#D252B5"/>
</g>
</g>
<defs>
<filter id="filter0_f_5458_4388" x="257.675" y="40.5" width="66.6496" height="61" filterUnits="userSpaceOnUse" color-interpolation-filters="sRGB">
<feFlood flood-opacity="0" result="BackgroundImageFix"/>
<feBlend mode="normal" in="SourceGraphic" in2="BackgroundImageFix" result="shape"/>
<feGaussianBlur stdDeviation="1.5" result="effect1_foregroundBlur_5458_4388"/>
</filter>
<filter id="filter1_f_5458_4388" x="248.665" y="32.5" width="84.6697" height="77" filterUnits="userSpaceOnUse" color-interpolation-filters="sRGB">
<feFlood flood-opacity="0" result="BackgroundImageFix"/>
<feBlend mode="normal" in="SourceGraphic" in2="BackgroundImageFix" result="shape"/>
<feGaussianBlur stdDeviation="1.5" result="effect1_foregroundBlur_5458_4388"/>
</filter>
<filter id="filter2_f_5458_4388" x="188" y="-30" width="204" height="204" filterUnits="userSpaceOnUse" color-interpolation-filters="sRGB">
<feFlood flood-opacity="0" result="BackgroundImageFix"/>
<feBlend mode="normal" in="SourceGraphic" in2="BackgroundImageFix" result="shape"/>
<feGaussianBlur stdDeviation="8" result="effect1_foregroundBlur_5458_4388"/>
</filter>
<linearGradient id="paint0_linear_5458_4388" x1="252.166" y1="94.4701" x2="98.1662" y2="94.4701" gradientUnits="userSpaceOnUse">
<stop offset="0.822123" stop-color="#D252B5"/>
<stop offset="1" stop-color="#D252B5" stop-opacity="0"/>
</linearGradient>
<linearGradient id="paint1_linear_5458_4388" x1="252.166" y1="47.608" x2="98.1662" y2="47.608" gradientUnits="userSpaceOnUse">
<stop offset="0.822123" stop-color="#D252B5"/>
<stop offset="1" stop-color="#D252B5" stop-opacity="0"/>
</linearGradient>
<linearGradient id="paint2_linear_5458_4388" x1="251.411" y1="83" x2="131.303" y2="83" gradientUnits="userSpaceOnUse">
<stop offset="0.822123" stop-color="#D252B5"/>
<stop offset="1" stop-color="#D252B5" stop-opacity="0"/>
</linearGradient>
<linearGradient id="paint3_linear_5458_4388" x1="251.411" y1="59.082" x2="131.303" y2="59.082" gradientUnits="userSpaceOnUse">
<stop offset="0.822123" stop-color="#D252B5"/>
<stop offset="1" stop-color="#D252B5" stop-opacity="0"/>
</linearGradient>
<linearGradient id="paint4_linear_5458_4388" x1="252" y1="71.2632" x2="161.331" y2="71.2631" gradientUnits="userSpaceOnUse">
<stop offset="0.822123" stop-color="#D252B5"/>
<stop offset="1" stop-color="#D252B5" stop-opacity="0"/>
</linearGradient>
<linearGradient id="paint5_linear_5458_4388" x1="291" y1="50" x2="291" y2="92" gradientUnits="userSpaceOnUse">
<stop stop-color="#D252B5" stop-opacity="0.35"/>
<stop offset="0.605793" stop-color="#D252B5"/>
</linearGradient>
<linearGradient id="paint6_linear_5458_4388" x1="290.878" y1="-12.2752" x2="290.878" y2="157.97" gradientUnits="userSpaceOnUse">
<stop offset="0.15" stop-color="#D252B5"/>
<stop offset="1" stop-color="#D252B5" stop-opacity="0"/>
</linearGradient>
<clipPath id="clip0_5458_4388">
<rect width="392" height="146" fill="white"/>
</clipPath>
</defs>
</svg>
