<svg width="404" height="180" viewBox="0 0 404 180" fill="none" xmlns="http://www.w3.org/2000/svg">
<g clip-path="url(#clip0_4950_2417)">
<path opacity="0.3" d="M404 48H0V180H404V48Z" fill="url(#paint0_linear_4950_2417)"/>
<path d="M-0.5 48L404 48" stroke="#3FA1E3" stroke-width="1.5"/>
<path d="M376 27.7778H377.944C379.241 27.7778 381.833 27 381.833 23.8889C381.833 20.7778 379.241 20 377.944 20H374.056C372.759 20 370.167 19.2222 370.167 16.1111C370.167 13 372.759 12.2222 374.056 12.2222H376M376 27.7778H370.167M376 27.7778V31.6667M381.833 12.2222H376M376 12.2222V8.33333M393.5 20C393.5 29.665 385.665 37.5 376 37.5C366.335 37.5 358.5 29.665 358.5 20C358.5 10.335 366.335 2.5 376 2.5C385.665 2.5 393.5 10.335 393.5 20Z" stroke="#3FA1E3" stroke-width="3" stroke-linecap="round" stroke-linejoin="round"/>
<path d="M31.8284 138.114C35.9804 133.962 42.7339 133.962 46.886 138.114C50.9081 142.136 51.034 148.6 47.2634 152.775L46.886 153.172C44.1807 155.879 40.3254 156.828 36.7034 155.86L34.8345 157.706C34.4934 158.045 34.0322 158.235 33.5502 158.235H32.8786V158.938L32.8676 159.13C32.8473 159.32 32.7968 159.507 32.7181 159.683C32.6131 159.917 32.4598 160.127 32.2684 160.298L32.2659 160.3C31.8915 160.632 31.3779 160.814 30.8443 160.748L30.4583 160.703L30.3737 161.603C30.3342 162.026 30.1483 162.422 29.848 162.722C29.5477 163.022 29.152 163.207 28.7291 163.246L27.8284 163.332L27.8738 163.718C27.9053 163.991 27.8757 164.268 27.7855 164.527C27.6952 164.786 27.5471 165.023 27.3529 165.217L26.1041 166.466C25.7625 166.807 25.2992 167 24.8149 167H19.8235C18.816 167 18 166.184 18 165.176V160.185C18 159.945 18.0468 159.708 18.1385 159.487L18.2157 159.325C18.3001 159.167 18.4072 159.022 18.5343 158.895L29.0711 148.357C28.1106 144.721 29.1314 140.811 31.8284 138.114ZM45.5551 139.445C42.1382 136.028 36.5762 136.028 33.1593 139.445C30.8261 141.778 30.0146 145.219 31.0257 148.341L31.2034 148.889L30.7953 149.295L19.8823 160.208V165.118H24.7904L26 163.906L25.739 161.638L28.5037 161.377L28.6752 159.569L28.7647 158.612L29.7206 158.723L30.9963 158.87V156.353H33.5245L36.1826 153.732L36.7267 153.907C39.858 154.922 43.2294 154.168 45.5551 151.841C48.972 148.424 48.972 142.862 45.5551 139.445ZM39.3161 140.61C40.716 139.211 42.9899 139.211 44.3896 140.61C45.7894 142.01 45.7892 144.284 44.3896 145.684C42.9898 147.084 40.716 147.084 39.3161 145.684C37.9163 144.284 37.9163 142.01 39.3161 140.61ZM43.0588 141.941C42.3941 141.277 41.3118 141.277 40.647 141.941C39.9823 142.606 39.9823 143.688 40.647 144.353C41.3117 145.018 42.394 145.018 43.0588 144.353C43.7232 143.688 43.7234 142.606 43.0588 141.941Z" fill="#3FA1E3"/>
<path d="M180.828 138.114C184.98 133.962 191.734 133.962 195.886 138.114C199.908 142.136 200.034 148.6 196.263 152.775L195.886 153.172C193.181 155.879 189.325 156.828 185.703 155.86L183.835 157.706C183.493 158.045 183.032 158.235 182.55 158.235H181.879V158.938L181.868 159.13C181.847 159.32 181.797 159.507 181.718 159.683C181.613 159.917 181.46 160.127 181.268 160.298L181.266 160.3C180.892 160.632 180.378 160.814 179.844 160.748L179.458 160.703L179.374 161.603C179.334 162.026 179.148 162.422 178.848 162.722C178.548 163.022 178.152 163.207 177.729 163.246L176.828 163.332L176.874 163.718C176.905 163.991 176.876 164.268 176.786 164.527C176.695 164.786 176.547 165.023 176.353 165.217L175.104 166.466C174.763 166.807 174.299 167 173.815 167H168.824C167.816 167 167 166.184 167 165.176V160.185C167 159.945 167.047 159.708 167.138 159.487L167.216 159.325C167.3 159.167 167.407 159.022 167.534 158.895L178.071 148.357C177.111 144.721 178.131 140.811 180.828 138.114ZM194.555 139.445C191.138 136.028 185.576 136.028 182.159 139.445C179.826 141.778 179.015 145.219 180.026 148.341L180.203 148.889L179.795 149.295L168.882 160.208V165.118H173.79L175 163.906L174.739 161.638L177.504 161.377L177.675 159.569L177.765 158.612L178.721 158.723L179.996 158.87V156.353H182.524L185.183 153.732L185.727 153.907C188.858 154.922 192.229 154.168 194.555 151.841C197.972 148.424 197.972 142.862 194.555 139.445ZM188.316 140.61C189.716 139.211 191.99 139.211 193.39 140.61C194.789 142.01 194.789 144.284 193.39 145.684C191.99 147.084 189.716 147.084 188.316 145.684C186.916 144.284 186.916 142.01 188.316 140.61ZM192.059 141.941C191.394 141.277 190.312 141.277 189.647 141.941C188.982 142.606 188.982 143.688 189.647 144.353C190.312 145.018 191.394 145.018 192.059 144.353C192.723 143.688 192.723 142.606 192.059 141.941Z" fill="#3FA1E3"/>
<path d="M217.828 138.114C221.98 133.962 228.734 133.962 232.886 138.114C236.908 142.136 237.034 148.6 233.263 152.775L232.886 153.172C230.181 155.879 226.325 156.828 222.703 155.86L220.835 157.706C220.493 158.045 220.032 158.235 219.55 158.235H218.879V158.938L218.868 159.13C218.847 159.32 218.797 159.507 218.718 159.683C218.613 159.917 218.46 160.127 218.268 160.298L218.266 160.3C217.892 160.632 217.378 160.814 216.844 160.748L216.458 160.703L216.374 161.603C216.334 162.026 216.148 162.422 215.848 162.722C215.548 163.022 215.152 163.207 214.729 163.246L213.828 163.332L213.874 163.718C213.905 163.991 213.876 164.268 213.786 164.527C213.695 164.786 213.547 165.023 213.353 165.217L212.104 166.466C211.763 166.807 211.299 167 210.815 167H205.824C204.816 167 204 166.184 204 165.176V160.185C204 159.945 204.047 159.708 204.138 159.487L204.216 159.325C204.3 159.167 204.407 159.022 204.534 158.895L215.071 148.357C214.111 144.721 215.131 140.811 217.828 138.114ZM231.555 139.445C228.138 136.028 222.576 136.028 219.159 139.445C216.826 141.778 216.015 145.219 217.026 148.341L217.203 148.889L216.795 149.295L205.882 160.208V165.118H210.79L212 163.906L211.739 161.638L214.504 161.377L214.675 159.569L214.765 158.612L215.721 158.723L216.996 158.87V156.353H219.524L222.183 153.732L222.727 153.907C225.858 154.922 229.229 154.168 231.555 151.841C234.972 148.424 234.972 142.862 231.555 139.445ZM225.316 140.61C226.716 139.211 228.99 139.211 230.39 140.61C231.789 142.01 231.789 144.284 230.39 145.684C228.99 147.084 226.716 147.084 225.316 145.684C223.916 144.284 223.916 142.01 225.316 140.61ZM229.059 141.941C228.394 141.277 227.312 141.277 226.647 141.941C225.982 142.606 225.982 143.688 226.647 144.353C227.312 145.018 228.394 145.018 229.059 144.353C229.723 143.688 229.723 142.606 229.059 141.941Z" fill="#3FA1E3"/>
<path d="M180.828 138.114C184.98 133.962 191.734 133.962 195.886 138.114C199.908 142.136 200.034 148.6 196.263 152.775L195.886 153.172C193.181 155.879 189.325 156.828 185.703 155.86L183.835 157.706C183.493 158.045 183.032 158.235 182.55 158.235H181.879V158.938L181.868 159.13C181.847 159.32 181.797 159.507 181.718 159.683C181.613 159.917 181.46 160.127 181.268 160.298L181.266 160.3C180.892 160.632 180.378 160.814 179.844 160.748L179.458 160.703L179.374 161.603C179.334 162.026 179.148 162.422 178.848 162.722C178.548 163.022 178.152 163.207 177.729 163.246L176.828 163.332L176.874 163.718C176.905 163.991 176.876 164.268 176.786 164.527C176.695 164.786 176.547 165.023 176.353 165.217L175.104 166.466C174.763 166.807 174.299 167 173.815 167H168.824C167.816 167 167 166.184 167 165.176V160.185C167 159.945 167.047 159.708 167.138 159.487L167.216 159.325C167.3 159.167 167.407 159.022 167.534 158.895L178.071 148.357C177.111 144.721 178.131 140.811 180.828 138.114ZM194.555 139.445C191.138 136.028 185.576 136.028 182.159 139.445C179.826 141.778 179.015 145.219 180.026 148.341L180.203 148.889L179.795 149.295L168.882 160.208V165.118H173.79L175 163.906L174.739 161.638L177.504 161.377L177.675 159.569L177.765 158.612L178.721 158.723L179.996 158.87V156.353H182.524L185.183 153.732L185.727 153.907C188.858 154.922 192.229 154.168 194.555 151.841C197.972 148.424 197.972 142.862 194.555 139.445ZM188.316 140.61C189.716 139.211 191.99 139.211 193.39 140.61C194.789 142.01 194.789 144.284 193.39 145.684C191.99 147.084 189.716 147.084 188.316 145.684C186.916 144.284 186.916 142.01 188.316 140.61ZM192.059 141.941C191.394 141.277 190.312 141.277 189.647 141.941C188.982 142.606 188.982 143.688 189.647 144.353C190.312 145.018 191.394 145.018 192.059 144.353C192.723 143.688 192.723 142.606 192.059 141.941Z" fill="#3FA1E3"/>
<path d="M217.828 138.114C221.98 133.962 228.734 133.962 232.886 138.114C236.908 142.136 237.034 148.6 233.263 152.775L232.886 153.172C230.181 155.879 226.325 156.828 222.703 155.86L220.835 157.706C220.493 158.045 220.032 158.235 219.55 158.235H218.879V158.938L218.868 159.13C218.847 159.32 218.797 159.507 218.718 159.683C218.613 159.917 218.46 160.127 218.268 160.298L218.266 160.3C217.892 160.632 217.378 160.814 216.844 160.748L216.458 160.703L216.374 161.603C216.334 162.026 216.148 162.422 215.848 162.722C215.548 163.022 215.152 163.207 214.729 163.246L213.828 163.332L213.874 163.718C213.905 163.991 213.876 164.268 213.786 164.527C213.695 164.786 213.547 165.023 213.353 165.217L212.104 166.466C211.763 166.807 211.299 167 210.815 167H205.824C204.816 167 204 166.184 204 165.176V160.185C204 159.945 204.047 159.708 204.138 159.487L204.216 159.325C204.3 159.167 204.407 159.022 204.534 158.895L215.071 148.357C214.111 144.721 215.131 140.811 217.828 138.114ZM231.555 139.445C228.138 136.028 222.576 136.028 219.159 139.445C216.826 141.778 216.015 145.219 217.026 148.341L217.203 148.889L216.795 149.295L205.882 160.208V165.118H210.79L212 163.906L211.739 161.638L214.504 161.377L214.675 159.569L214.765 158.612L215.721 158.723L216.996 158.87V156.353H219.524L222.183 153.732L222.727 153.907C225.858 154.922 229.229 154.168 231.555 151.841C234.972 148.424 234.972 142.862 231.555 139.445ZM225.316 140.61C226.716 139.211 228.99 139.211 230.39 140.61C231.789 142.01 231.789 144.284 230.39 145.684C228.99 147.084 226.716 147.084 225.316 145.684C223.916 144.284 223.916 142.01 225.316 140.61ZM229.059 141.941C228.394 141.277 227.312 141.277 226.647 141.941C225.982 142.606 225.982 143.688 226.647 144.353C227.312 145.018 228.394 145.018 229.059 144.353C229.723 143.688 229.723 142.606 229.059 141.941Z" fill="#3FA1E3"/>
<path d="M300.828 138.114C304.98 133.962 311.734 133.962 315.886 138.114C319.908 142.136 320.034 148.6 316.263 152.775L315.886 153.172C313.181 155.879 309.325 156.828 305.703 155.86L303.835 157.706C303.493 158.045 303.032 158.235 302.55 158.235H301.879V158.938L301.868 159.13C301.847 159.32 301.797 159.507 301.718 159.683C301.613 159.917 301.46 160.127 301.268 160.298L301.266 160.3C300.892 160.632 300.378 160.814 299.844 160.748L299.458 160.703L299.374 161.603C299.334 162.026 299.148 162.422 298.848 162.722C298.548 163.022 298.152 163.207 297.729 163.246L296.828 163.332L296.874 163.718C296.905 163.991 296.876 164.268 296.786 164.527C296.695 164.786 296.547 165.023 296.353 165.217L295.104 166.466C294.763 166.807 294.299 167 293.815 167H288.824C287.816 167 287 166.184 287 165.176V160.185C287 159.945 287.047 159.708 287.138 159.487L287.216 159.325C287.3 159.167 287.407 159.022 287.534 158.895L298.071 148.357C297.111 144.721 298.131 140.811 300.828 138.114ZM314.555 139.445C311.138 136.028 305.576 136.028 302.159 139.445C299.826 141.778 299.015 145.219 300.026 148.341L300.203 148.889L299.795 149.295L288.882 160.208V165.118H293.79L295 163.906L294.739 161.638L297.504 161.377L297.675 159.569L297.765 158.612L298.721 158.723L299.996 158.87V156.353H302.524L305.183 153.732L305.727 153.907C308.858 154.922 312.229 154.168 314.555 151.841C317.972 148.424 317.972 142.862 314.555 139.445ZM308.316 140.61C309.716 139.211 311.99 139.211 313.39 140.61C314.789 142.01 314.789 144.284 313.39 145.684C311.99 147.084 309.716 147.084 308.316 145.684C306.916 144.284 306.916 142.01 308.316 140.61ZM312.059 141.941C311.394 141.277 310.312 141.277 309.647 141.941C308.982 142.606 308.982 143.688 309.647 144.353C310.312 145.018 311.394 145.018 312.059 144.353C312.723 143.688 312.723 142.606 312.059 141.941Z" fill="#3FA1E3"/>
<path d="M337.828 138.114C341.98 133.962 348.734 133.962 352.886 138.114C356.908 142.136 357.034 148.6 353.263 152.775L352.886 153.172C350.181 155.879 346.325 156.828 342.703 155.86L340.835 157.706C340.493 158.045 340.032 158.235 339.55 158.235H338.879V158.938L338.868 159.13C338.847 159.32 338.797 159.507 338.718 159.683C338.613 159.917 338.46 160.127 338.268 160.298L338.266 160.3C337.892 160.632 337.378 160.814 336.844 160.748L336.458 160.703L336.374 161.603C336.334 162.026 336.148 162.422 335.848 162.722C335.548 163.022 335.152 163.207 334.729 163.246L333.828 163.332L333.874 163.718C333.905 163.991 333.876 164.268 333.786 164.527C333.695 164.786 333.547 165.023 333.353 165.217L332.104 166.466C331.763 166.807 331.299 167 330.815 167H325.824C324.816 167 324 166.184 324 165.176V160.185C324 159.945 324.047 159.708 324.138 159.487L324.216 159.325C324.3 159.167 324.407 159.022 324.534 158.895L335.071 148.357C334.111 144.721 335.131 140.811 337.828 138.114ZM351.555 139.445C348.138 136.028 342.576 136.028 339.159 139.445C336.826 141.778 336.015 145.219 337.026 148.341L337.203 148.889L336.795 149.295L325.882 160.208V165.118H330.79L332 163.906L331.739 161.638L334.504 161.377L334.675 159.569L334.765 158.612L335.721 158.723L336.996 158.87V156.353H339.524L342.183 153.732L342.727 153.907C345.858 154.922 349.229 154.168 351.555 151.841C354.972 148.424 354.972 142.862 351.555 139.445ZM345.316 140.61C346.716 139.211 348.99 139.211 350.39 140.61C351.789 142.01 351.789 144.284 350.39 145.684C348.99 147.084 346.716 147.084 345.316 145.684C343.916 144.284 343.916 142.01 345.316 140.61ZM349.059 141.941C348.394 141.277 347.312 141.277 346.647 141.941C345.982 142.606 345.982 143.688 346.647 144.353C347.312 145.018 348.394 145.018 349.059 144.353C349.723 143.688 349.723 142.606 349.059 141.941Z" fill="#3FA1E3"/>
<path d="M374.828 138.114C378.98 133.962 385.734 133.962 389.886 138.114C393.908 142.136 394.034 148.6 390.263 152.775L389.886 153.172C387.181 155.879 383.325 156.828 379.703 155.86L377.835 157.706C377.493 158.045 377.032 158.235 376.55 158.235H375.879V158.938L375.868 159.13C375.847 159.32 375.797 159.507 375.718 159.683C375.613 159.917 375.46 160.127 375.268 160.298L375.266 160.3C374.892 160.632 374.378 160.814 373.844 160.748L373.458 160.703L373.374 161.603C373.334 162.026 373.148 162.422 372.848 162.722C372.548 163.022 372.152 163.207 371.729 163.246L370.828 163.332L370.874 163.718C370.905 163.991 370.876 164.268 370.786 164.527C370.695 164.786 370.547 165.023 370.353 165.217L369.104 166.466C368.763 166.807 368.299 167 367.815 167H362.824C361.816 167 361 166.184 361 165.176V160.185C361 159.945 361.047 159.708 361.138 159.487L361.216 159.325C361.3 159.167 361.407 159.022 361.534 158.895L372.071 148.357C371.111 144.721 372.131 140.811 374.828 138.114ZM388.555 139.445C385.138 136.028 379.576 136.028 376.159 139.445C373.826 141.778 373.015 145.219 374.026 148.341L374.203 148.889L373.795 149.295L362.882 160.208V165.118H367.79L369 163.906L368.739 161.638L371.504 161.377L371.675 159.569L371.765 158.612L372.721 158.723L373.996 158.87V156.353H376.524L379.183 153.732L379.727 153.907C382.858 154.922 386.229 154.168 388.555 151.841C391.972 148.424 391.972 142.862 388.555 139.445ZM382.316 140.61C383.716 139.211 385.99 139.211 387.39 140.61C388.789 142.01 388.789 144.284 387.39 145.684C385.99 147.084 383.716 147.084 382.316 145.684C380.916 144.284 380.916 142.01 382.316 140.61ZM386.059 141.941C385.394 141.277 384.312 141.277 383.647 141.941C382.982 142.606 382.982 143.688 383.647 144.353C384.312 145.018 385.394 145.018 386.059 144.353C386.723 143.688 386.723 142.606 386.059 141.941Z" fill="#3FA1E3"/>
</g>
<defs>
<linearGradient id="paint0_linear_4950_2417" x1="202" y1="48" x2="202" y2="180" gradientUnits="userSpaceOnUse">
<stop stop-color="#3FA1E3"/>
<stop offset="1" stop-color="#3FA1E3" stop-opacity="0.12"/>
</linearGradient>
<clipPath id="clip0_4950_2417">
<rect width="404" height="180" fill="white"/>
</clipPath>
</defs>
</svg>
