<svg width="404" height="180" viewBox="0 0 404 180" fill="none" xmlns="http://www.w3.org/2000/svg">
<path opacity="0.3" d="M398 32L6 120V164H398V32Z" fill="url(#paint0_linear_4837_1807)"/>
<path d="M6 120L398 32" stroke="#3FA1E3" stroke-width="1.5"/>
<path d="M46.5989 152.853L50.6732 145.98C51.0334 145.373 51.6873 145 52.3937 145H59.6063C60.3127 145 60.9666 145.373 61.3268 145.98L65.4011 152.853C65.7708 153.477 65.774 154.252 65.4093 154.879L61.3242 161.9C60.9661 162.516 60.3077 162.895 59.5955 162.895H52.4045C51.6923 162.895 51.0339 162.516 50.6758 161.9L46.5907 154.879C46.226 154.252 46.2292 153.477 46.5989 152.853Z" fill="url(#paint1_linear_4837_1807)"/>
<path d="M54.9472 148.158H52.6314L49.1577 153.696L52.6314 159.737H54.9472L51.4735 153.696L54.9472 148.158Z" fill="#131313"/>
<path d="M57.0528 148.158H59.3686L62.8423 153.696L59.3686 159.737H57.0528L60.5265 153.696L57.0528 148.158Z" fill="#131313"/>
<path d="M133.599 152.853L137.673 145.98C138.033 145.373 138.687 145 139.394 145H146.606C147.313 145 147.967 145.373 148.327 145.98L152.401 152.853C152.771 153.477 152.774 154.252 152.409 154.879L148.324 161.9C147.966 162.516 147.308 162.895 146.595 162.895H139.405C138.692 162.895 138.034 162.516 137.676 161.9L133.591 154.879C133.226 154.252 133.229 153.477 133.599 152.853Z" fill="url(#paint2_linear_4837_1807)"/>
<path d="M141.947 148.158H139.631L136.158 153.696L139.631 159.737H141.947L138.474 153.696L141.947 148.158Z" fill="#131313"/>
<path d="M144.053 148.158H146.369L149.842 153.696L146.369 159.737H144.053L147.526 153.696L144.053 148.158Z" fill="#131313"/>
<path d="M223.599 152.853L227.673 145.98C228.033 145.373 228.687 145 229.394 145H236.606C237.313 145 237.967 145.373 238.327 145.98L242.401 152.853C242.771 153.477 242.774 154.252 242.409 154.879L238.324 161.9C237.966 162.516 237.308 162.895 236.595 162.895H229.405C228.692 162.895 228.034 162.516 227.676 161.9L223.591 154.879C223.226 154.252 223.229 153.477 223.599 152.853Z" fill="url(#paint3_linear_4837_1807)"/>
<path d="M231.947 148.158H229.631L226.158 153.696L229.631 159.737H231.947L228.474 153.696L231.947 148.158Z" fill="#131313"/>
<path d="M234.053 148.158H236.369L239.842 153.696L236.369 159.737H234.053L237.526 153.696L234.053 148.158Z" fill="#131313"/>
<path d="M324.599 152.853L328.673 145.98C329.033 145.373 329.687 145 330.394 145H337.606C338.313 145 338.967 145.373 339.327 145.98L343.401 152.853C343.771 153.477 343.774 154.252 343.409 154.879L339.324 161.9C338.966 162.516 338.308 162.895 337.595 162.895H330.405C329.692 162.895 329.034 162.516 328.676 161.9L324.591 154.879C324.226 154.252 324.229 153.477 324.599 152.853Z" fill="url(#paint4_linear_4837_1807)"/>
<path d="M332.947 148.158H330.631L327.158 153.696L330.631 159.737H332.947L329.474 153.696L332.947 148.158Z" fill="#131313"/>
<path d="M335.053 148.158H337.369L340.842 153.696L337.369 159.737H335.053L338.526 153.696L335.053 148.158Z" fill="#131313"/>
<g opacity="0.8">
<path d="M149.599 152.853L153.673 145.98C154.033 145.373 154.687 145 155.394 145H162.606C163.313 145 163.967 145.373 164.327 145.98L168.401 152.853C168.771 153.477 168.774 154.252 168.409 154.879L164.324 161.9C163.966 162.516 163.308 162.895 162.595 162.895H155.405C154.692 162.895 154.034 162.516 153.676 161.9L149.591 154.879C149.226 154.252 149.229 153.477 149.599 152.853Z" fill="url(#paint5_linear_4837_1807)"/>
<path d="M157.947 148.158H155.631L152.158 153.696L155.631 159.737H157.947L154.474 153.696L157.947 148.158Z" fill="#131313"/>
<path d="M160.053 148.158H162.369L165.842 153.696L162.369 159.737H160.053L163.526 153.696L160.053 148.158Z" fill="#131313"/>
</g>
<g opacity="0.8">
<path d="M239.599 152.853L243.673 145.98C244.033 145.373 244.687 145 245.394 145H252.606C253.313 145 253.967 145.373 254.327 145.98L258.401 152.853C258.771 153.477 258.774 154.252 258.409 154.879L254.324 161.9C253.966 162.516 253.308 162.895 252.595 162.895H245.405C244.692 162.895 244.034 162.516 243.676 161.9L239.591 154.879C239.226 154.252 239.229 153.477 239.599 152.853Z" fill="url(#paint6_linear_4837_1807)"/>
<path d="M247.947 148.158H245.631L242.158 153.696L245.631 159.737H247.947L244.474 153.696L247.947 148.158Z" fill="#131313"/>
<path d="M250.053 148.158H252.369L255.842 153.696L252.369 159.737H250.053L253.526 153.696L250.053 148.158Z" fill="#131313"/>
</g>
<g opacity="0.8">
<path d="M340.599 152.853L344.673 145.98C345.033 145.373 345.687 145 346.394 145H353.606C354.313 145 354.967 145.373 355.327 145.98L359.401 152.853C359.771 153.477 359.774 154.252 359.409 154.879L355.324 161.9C354.966 162.516 354.308 162.895 353.595 162.895H346.405C345.692 162.895 345.034 162.516 344.676 161.9L340.591 154.879C340.226 154.252 340.229 153.477 340.599 152.853Z" fill="url(#paint7_linear_4837_1807)"/>
<path d="M348.947 148.158H346.631L343.158 153.696L346.631 159.737H348.947L345.474 153.696L348.947 148.158Z" fill="#131313"/>
<path d="M351.053 148.158H353.369L356.842 153.696L353.369 159.737H351.053L354.526 153.696L351.053 148.158Z" fill="#131313"/>
</g>
<path d="M255.599 152.853L259.673 145.98C260.033 145.373 260.687 145 261.394 145H268.606C269.313 145 269.967 145.373 270.327 145.98L274.401 152.853C274.771 153.477 274.774 154.252 274.409 154.879L270.324 161.9C269.966 162.516 269.308 162.895 268.595 162.895H261.405C260.692 162.895 260.034 162.516 259.676 161.9L255.591 154.879C255.226 154.252 255.229 153.477 255.599 152.853Z" fill="url(#paint8_linear_4837_1807)"/>
<path d="M263.947 148.158H261.631L258.158 153.696L261.631 159.737H263.947L260.474 153.696L263.947 148.158Z" fill="#131313"/>
<path d="M266.053 148.158H268.369L271.842 153.696L268.369 159.737H266.053L269.526 153.696L266.053 148.158Z" fill="#131313"/>
<path d="M356.599 152.853L360.673 145.98C361.033 145.373 361.687 145 362.394 145H369.606C370.313 145 370.967 145.373 371.327 145.98L375.401 152.853C375.771 153.477 375.774 154.252 375.409 154.879L371.324 161.9C370.966 162.516 370.308 162.895 369.595 162.895H362.405C361.692 162.895 361.034 162.516 360.676 161.9L356.591 154.879C356.226 154.252 356.229 153.477 356.599 152.853Z" fill="url(#paint9_linear_4837_1807)"/>
<path d="M364.947 148.158H362.631L359.158 153.696L362.631 159.737H364.947L361.474 153.696L364.947 148.158Z" fill="#131313"/>
<path d="M367.053 148.158H369.369L372.842 153.696L369.369 159.737H367.053L370.526 153.696L367.053 148.158Z" fill="#131313"/>
<g opacity="0.8">
<path d="M372.599 152.853L376.673 145.98C377.033 145.373 377.687 145 378.394 145H385.606C386.313 145 386.967 145.373 387.327 145.98L391.401 152.853C391.771 153.477 391.774 154.252 391.409 154.879L387.324 161.9C386.966 162.516 386.308 162.895 385.595 162.895H378.405C377.692 162.895 377.034 162.516 376.676 161.9L372.591 154.879C372.226 154.252 372.229 153.477 372.599 152.853Z" fill="url(#paint10_linear_4837_1807)"/>
<path d="M380.947 148.158H378.631L375.158 153.696L378.631 159.737H380.947L377.474 153.696L380.947 148.158Z" fill="#131313"/>
<path d="M383.053 148.158H385.369L388.842 153.696L385.369 159.737H383.053L386.526 153.696L383.053 148.158Z" fill="#131313"/>
</g>
<path d="M372 21.1111H372.778C373.296 21.1111 374.333 20.8 374.333 19.5556C374.333 18.3111 373.296 18 372.778 18H371.222C370.704 18 369.667 17.6889 369.667 16.4444C369.667 15.2 370.704 14.8889 371.222 14.8889H372M372 21.1111H369.667M372 21.1111V22.6667M374.333 14.8889H372M372 14.8889V13.3333M379 18C379 21.866 375.866 25 372 25C368.134 25 365 21.866 365 18C365 14.134 368.134 11 372 11C375.866 11 379 14.134 379 18Z" stroke="#3FA1E3" stroke-width="1.5" stroke-linecap="round" stroke-linejoin="round"/>
<defs>
<linearGradient id="paint0_linear_4837_1807" x1="202" y1="32" x2="202" y2="164" gradientUnits="userSpaceOnUse">
<stop stop-color="#3FA1E3"/>
<stop offset="1" stop-color="#3FA1E3" stop-opacity="0.12"/>
</linearGradient>
<linearGradient id="paint1_linear_4837_1807" x1="56" y1="145" x2="56" y2="162.895" gradientUnits="userSpaceOnUse">
<stop stop-color="#3FA1E3" stop-opacity="0.35"/>
<stop offset="0.605793" stop-color="#3FA1E3"/>
</linearGradient>
<linearGradient id="paint2_linear_4837_1807" x1="143" y1="145" x2="143" y2="162.895" gradientUnits="userSpaceOnUse">
<stop stop-color="#3FA1E3" stop-opacity="0.35"/>
<stop offset="0.605793" stop-color="#3FA1E3"/>
</linearGradient>
<linearGradient id="paint3_linear_4837_1807" x1="233" y1="145" x2="233" y2="162.895" gradientUnits="userSpaceOnUse">
<stop stop-color="#3FA1E3" stop-opacity="0.35"/>
<stop offset="0.605793" stop-color="#3FA1E3"/>
</linearGradient>
<linearGradient id="paint4_linear_4837_1807" x1="334" y1="145" x2="334" y2="162.895" gradientUnits="userSpaceOnUse">
<stop stop-color="#3FA1E3" stop-opacity="0.35"/>
<stop offset="0.605793" stop-color="#3FA1E3"/>
</linearGradient>
<linearGradient id="paint5_linear_4837_1807" x1="159" y1="145" x2="159" y2="162.895" gradientUnits="userSpaceOnUse">
<stop stop-color="#3FA1E3" stop-opacity="0.35"/>
<stop offset="0.605793" stop-color="#3FA1E3"/>
</linearGradient>
<linearGradient id="paint6_linear_4837_1807" x1="249" y1="145" x2="249" y2="162.895" gradientUnits="userSpaceOnUse">
<stop stop-color="#3FA1E3" stop-opacity="0.35"/>
<stop offset="0.605793" stop-color="#3FA1E3"/>
</linearGradient>
<linearGradient id="paint7_linear_4837_1807" x1="350" y1="145" x2="350" y2="162.895" gradientUnits="userSpaceOnUse">
<stop stop-color="#3FA1E3" stop-opacity="0.35"/>
<stop offset="0.605793" stop-color="#3FA1E3"/>
</linearGradient>
<linearGradient id="paint8_linear_4837_1807" x1="265" y1="145" x2="265" y2="162.895" gradientUnits="userSpaceOnUse">
<stop stop-color="#3FA1E3" stop-opacity="0.35"/>
<stop offset="0.605793" stop-color="#3FA1E3"/>
</linearGradient>
<linearGradient id="paint9_linear_4837_1807" x1="366" y1="145" x2="366" y2="162.895" gradientUnits="userSpaceOnUse">
<stop stop-color="#3FA1E3" stop-opacity="0.35"/>
<stop offset="0.605793" stop-color="#3FA1E3"/>
</linearGradient>
<linearGradient id="paint10_linear_4837_1807" x1="382" y1="145" x2="382" y2="162.895" gradientUnits="userSpaceOnUse">
<stop stop-color="#3FA1E3" stop-opacity="0.35"/>
<stop offset="0.605793" stop-color="#3FA1E3"/>
</linearGradient>
</defs>
</svg>
