<svg width="404" height="180" viewBox="0 0 404 180" fill="none" xmlns="http://www.w3.org/2000/svg">
<g clip-path="url(#clip0_4945_3570)">
<path d="M178.151 37.6783L187.654 21.6474C188.914 19.5208 191.203 18.2168 193.675 18.2168H210.326C212.798 18.2168 215.087 19.5208 216.347 21.6474L225.85 37.6783C227.144 39.8615 227.155 42.5742 225.879 44.7679L216.338 61.1666C215.085 63.321 212.78 64.6464 210.288 64.6464H193.713C191.22 64.6464 188.916 63.321 187.662 61.1666L178.122 44.7679C176.845 42.5742 176.857 39.8615 178.151 37.6783Z" fill="url(#paint0_linear_4945_3570)"/>
<path d="M199.269 26.4102H193.261L184.248 40.7784L193.261 56.4528H199.269L190.256 40.7784L199.269 26.4102Z" fill="#131313"/>
<path d="M204.732 26.4102H210.74L219.753 40.7784L210.74 56.4528H204.732L213.744 40.7784L204.732 26.4102Z" fill="#131313"/>
<g opacity="0.2" filter="url(#filter0_f_4945_3570)">
<circle cx="202" cy="42" r="39.5" stroke="#3FA1E3"/>
</g>
<g opacity="0.5" filter="url(#filter1_f_4945_3570)">
<path d="M170.923 38.1643L184.203 15.9721C185.467 13.8596 187.748 12.5664 190.209 12.5664H213.791C216.253 12.5664 218.533 13.8596 219.797 15.9721L233.077 38.1643C234.391 40.3599 234.402 43.0973 233.106 45.3036L219.789 67.9793C218.532 70.1197 216.235 71.4343 213.753 71.4343H190.247C187.765 71.4343 185.468 70.1197 184.211 67.9793L170.894 45.3036C169.598 43.0973 169.609 40.3599 170.923 38.1643Z" stroke="#3FA1E3"/>
</g>
<path opacity="0.6" d="M202 69.5V90.5" stroke="#3FA1E3" stroke-linecap="round" stroke-linejoin="round" stroke-dasharray="1 3"/>
<rect x="-15" y="96" width="140" height="93" rx="20" stroke="#232F6F"/>
<rect opacity="0.4" x="-11" y="99" width="133" height="93" rx="16" fill="url(#paint1_linear_4945_3570)"/>
<rect x="132" y="92" width="140" height="93" rx="20" stroke="url(#paint2_linear_4945_3570)"/>
<rect opacity="0.4" x="136" y="95" width="133" height="93" rx="16" fill="url(#paint3_linear_4945_3570)"/>
<rect x="279" y="96" width="140" height="93" rx="20" stroke="#232F6F"/>
<rect opacity="0.4" x="282" y="99" width="133" height="93" rx="16" fill="url(#paint4_linear_4945_3570)"/>
<path opacity="0.45" d="M75.4764 142.222C76.1745 141.524 76.1745 140.389 75.4764 139.778L72.5964 136.898C73.12 135.589 73.7309 134.28 74.2545 132.971C74.4291 132.622 74.2545 131.924 74.08 131.662C73.8182 131.225 73.4691 131.051 73.0327 130.876C71.8109 130.353 70.6764 129.916 69.4545 129.393V125.291C69.4545 124.331 68.6691 123.545 67.7091 123.545H63.6073C63.0836 122.324 62.6473 121.189 62.1236 119.967C61.9491 119.531 61.7745 119.182 61.3382 118.92C60.9891 118.745 60.3782 118.571 60.0291 118.745C58.72 119.269 57.4109 119.88 56.1018 120.404L56.0145 120.316L53.2218 117.524C52.5236 116.825 51.3891 116.825 50.7782 117.524L47.8982 120.404C46.5891 119.88 45.28 119.269 43.9709 118.745C43.6218 118.571 42.9236 118.745 42.6618 118.92C42.2255 119.182 42.0509 119.531 41.8764 119.967C41.3527 121.189 40.9164 122.324 40.3927 123.545H36.2909C35.3309 123.545 34.5455 124.331 34.5455 125.291V129.393C33.3236 129.916 32.1891 130.353 30.9673 130.876C30.5309 131.051 30.1818 131.225 29.92 131.662C29.4836 132.447 29.8327 133.233 30.1818 134.018C30.6182 134.978 30.9673 135.938 31.4036 136.898L31.3164 136.985L28.5236 139.778C27.8255 140.476 27.8255 141.611 28.5236 142.222L31.4036 145.102C30.88 146.411 30.2691 147.72 29.7455 149.029C29.5709 149.378 29.7455 150.076 29.92 150.338C30.1818 150.775 30.5309 150.949 30.9673 151.124C32.1891 151.647 33.3236 152.084 34.5455 152.607V156.709C34.5455 157.669 35.3309 158.455 36.2909 158.455H40.3927C40.9164 159.676 41.3527 160.811 41.8764 162.033C42.2255 162.905 43.0982 163.604 44.0582 163.255C45.3673 162.731 46.6764 162.207 47.9855 161.596L48.0727 161.684L50.8655 164.476C51.5636 165.175 52.6982 165.175 53.3091 164.476L56.1891 161.596C57.4982 162.12 58.8073 162.731 60.1164 163.255C60.4655 163.429 61.1636 163.255 61.4255 163.08C61.8618 162.818 62.0364 162.469 62.2109 162.033C62.7345 160.811 63.1709 159.676 63.6945 158.455H67.7964C68.7564 158.455 69.5418 157.669 69.5418 156.709V152.607C70.7636 152.084 71.8982 151.647 73.12 151.124C73.5564 150.949 73.9055 150.775 74.1673 150.338C74.6036 149.465 74.2545 148.767 73.9055 147.895C73.5564 146.935 73.12 145.975 72.7709 145.015L72.8582 144.927C73.6436 144.055 74.5164 143.182 75.4764 142.222Z" stroke="#3FA1E3" stroke-width="2"/>
<path d="M189.142 121.104C192.72 117.815 197.597 122.691 194.294 126.273C189.236 131.357 186.328 138.367 186.298 145.539V145.549L186.299 145.558C186.32 147.09 186.464 148.367 186.788 149.383C187.117 150.413 187.656 151.245 188.504 151.758C189.339 152.263 190.323 152.366 191.358 152.261C192.392 152.155 193.574 151.831 194.893 151.368L195.834 151.038L195.507 150.096C194.189 146.31 194.341 141.519 196.142 135.9C197.099 132.918 198.409 129.739 201.092 127.41L201.355 127.188C204.687 124.457 210.192 123.78 213.665 127.033L213.67 127.038L213.676 127.043C216.518 129.628 216.929 133.668 215.851 138.024C214.778 142.358 212.285 146.716 209.782 149.541L207.279 152.365L210.853 151.15C213.812 150.144 216.279 147.716 218.16 144.378L218.162 144.374C219.143 142.613 221.364 141.98 223.124 142.96C224.83 143.91 225.478 146.025 224.626 147.756L224.538 147.922C222.676 151.267 219.402 155.553 214.21 157.68L213.702 157.879C209.418 159.476 204.773 159.078 201.189 157.024L200.725 156.758L200.244 156.998C197.309 158.468 193.638 159.607 190.636 159.575C186.808 159.534 183.927 158.094 181.991 155.696C180.035 153.274 178.967 149.776 179.001 145.517V145.513C179.035 136.437 182.732 127.535 189.142 121.104ZM207.885 132.132C206.634 132.148 205.678 132.988 205 133.912C204.303 134.863 203.74 136.113 203.299 137.401C202.418 139.973 201.934 142.971 201.953 144.718L201.98 147.252L203.69 145.382C206.025 142.829 207.804 139.747 208.744 136.426V136.424C208.993 135.538 209.1 134.787 209.12 134.191C209.139 133.63 209.085 133.119 208.941 132.763L208.898 132.655V132.118L207.885 132.132Z" stroke="#3FA1E3" stroke-width="2"/>
<path opacity="0.45" d="M348 118C348.055 118 348.109 118.016 348.155 118.046C348.201 118.076 348.238 118.119 348.261 118.169L352.205 126.996C352.428 127.497 352.835 127.893 353.342 128.103C353.848 128.312 354.416 128.32 354.928 128.124L354.927 128.123L363.959 124.672L363.958 124.671C364.065 124.63 364.185 124.658 364.262 124.735L364.264 124.738C364.342 124.816 364.369 124.936 364.328 125.043L360.876 134.072C360.68 134.584 360.688 135.152 360.897 135.658C361.107 136.164 361.503 136.571 362.003 136.794V136.795L370.83 140.739C370.88 140.762 370.923 140.799 370.953 140.845C370.983 140.891 370.999 140.945 370.999 141C370.999 141.055 370.983 141.109 370.953 141.155C370.923 141.202 370.88 141.238 370.83 141.261L362.003 145.206C361.503 145.429 361.107 145.837 360.897 146.343C360.714 146.786 360.685 147.276 360.812 147.734L360.876 147.929L364.328 156.96C364.368 157.067 364.341 157.185 364.265 157.262L364.262 157.264C364.223 157.303 364.174 157.33 364.12 157.342C364.066 157.353 364.009 157.349 363.958 157.329H363.959L354.927 153.876H354.926C354.414 153.681 353.848 153.688 353.342 153.897C352.898 154.081 352.531 154.408 352.297 154.822L352.205 155.004L348.261 163.831C348.238 163.881 348.201 163.924 348.155 163.954C348.109 163.984 348.055 164 348 164C347.945 164 347.891 163.984 347.845 163.954C347.799 163.924 347.762 163.881 347.739 163.831L343.794 155.004H343.793C343.57 154.504 343.163 154.107 342.657 153.897C342.151 153.688 341.584 153.68 341.072 153.876L332.042 157.328C331.935 157.369 331.815 157.343 331.737 157.265L331.736 157.263L331.687 157.197C331.673 157.173 331.664 157.147 331.658 157.12C331.647 157.067 331.652 157.011 331.671 156.96L335.124 147.928L335.123 147.927C335.319 147.415 335.312 146.849 335.103 146.343C334.893 145.836 334.496 145.429 333.995 145.206H333.996L325.169 141.261C325.119 141.238 325.076 141.201 325.046 141.155C325.016 141.109 325 141.055 325 141C325 140.945 325.016 140.891 325.046 140.845C325.076 140.799 325.119 140.762 325.169 140.739L333.996 136.795L333.995 136.794C334.496 136.571 334.893 136.165 335.103 135.658C335.312 135.152 335.319 134.585 335.123 134.073H335.124L331.671 125.042H331.672C331.631 124.935 331.657 124.816 331.735 124.738L331.737 124.736C331.776 124.697 331.826 124.671 331.88 124.659C331.934 124.648 331.99 124.651 332.041 124.671L341.071 128.123V128.124C341.583 128.32 342.151 128.312 342.657 128.103C343.164 127.893 343.57 127.497 343.793 126.996L343.794 126.997L347.739 118.169C347.762 118.119 347.799 118.076 347.845 118.046C347.891 118.016 347.945 118 348 118Z" stroke="#3FA1E3" stroke-width="2"/>
</g>
<defs>
<filter id="filter0_f_4945_3570" x="158" y="-2" width="88" height="88" filterUnits="userSpaceOnUse" color-interpolation-filters="sRGB">
<feFlood flood-opacity="0" result="BackgroundImageFix"/>
<feBlend mode="normal" in="SourceGraphic" in2="BackgroundImageFix" result="shape"/>
<feGaussianBlur stdDeviation="2" result="effect1_foregroundBlur_4945_3570"/>
</filter>
<filter id="filter1_f_4945_3570" x="165.43" y="8.06641" width="73.14" height="67.8672" filterUnits="userSpaceOnUse" color-interpolation-filters="sRGB">
<feFlood flood-opacity="0" result="BackgroundImageFix"/>
<feBlend mode="normal" in="SourceGraphic" in2="BackgroundImageFix" result="shape"/>
<feGaussianBlur stdDeviation="2" result="effect1_foregroundBlur_4945_3570"/>
</filter>
<linearGradient id="paint0_linear_4945_3570" x1="202" y1="18.2168" x2="202" y2="64.6464" gradientUnits="userSpaceOnUse">
<stop stop-color="#232F6F" stop-opacity="0.35"/>
<stop offset="0.605793" stop-color="#232F6F"/>
</linearGradient>
<linearGradient id="paint1_linear_4945_3570" x1="55.5" y1="99" x2="55.5" y2="192" gradientUnits="userSpaceOnUse">
<stop stop-color="#232F6F"/>
<stop offset="0.519208" stop-color="#232F6F" stop-opacity="0"/>
</linearGradient>
<linearGradient id="paint2_linear_4945_3570" x1="202" y1="92" x2="202" y2="185" gradientUnits="userSpaceOnUse">
<stop stop-color="#3FA1E3"/>
<stop offset="1" stop-color="#3FA1E3" stop-opacity="0.35"/>
</linearGradient>
<linearGradient id="paint3_linear_4945_3570" x1="202.5" y1="95" x2="202.5" y2="188" gradientUnits="userSpaceOnUse">
<stop stop-color="#232F6F"/>
<stop offset="0.519208" stop-color="#232F6F" stop-opacity="0"/>
</linearGradient>
<linearGradient id="paint4_linear_4945_3570" x1="348.5" y1="99" x2="348.5" y2="192" gradientUnits="userSpaceOnUse">
<stop stop-color="#232F6F"/>
<stop offset="0.519208" stop-color="#232F6F" stop-opacity="0"/>
</linearGradient>
<clipPath id="clip0_4945_3570">
<rect width="404" height="180" fill="white"/>
</clipPath>
</defs>
</svg>
