<?xml version="1.0" encoding="utf-8"?>
<!-- Generator: Adobe Illustrator 23.1.0, SVG Export Plug-In . SVG Version: 6.00 Build 0)  -->
<svg version="1.1" id="Layer_1" xmlns="http://www.w3.org/2000/svg" xmlns:xlink="http://www.w3.org/1999/xlink" x="0px" y="0px"
	 viewBox="0 0 40 37" style="enable-background:new 0 0 40 37;" xml:space="preserve">
<style type="text/css">
	.st0{fill:#3C484F;}
</style>
<title>sprout</title>
<desc>Created with Sketch.</desc>
<g>
	<path class="st0" d="M38.2,20.2l-9.3,0v-1.7c0-0.1,0-0.1,0-0.1l-0.6-1.2l0.6-1.5l1.3-2.1l1.9-0.3l0.9,1.2l0,0
		c0.1,0.1,0.2,0.1,0.3,0.1h0.7c0.9,0,1.6-0.7,1.6-1.6c0-0.1,0-0.2-0.1-0.2c-0.1-0.1-0.1-0.1-0.2-0.1h-0.7c-0.6,0-1.2,0.4-1.5,0.9
		l-0.4-0.6l0.4-0.6h0.5c0.9,0,1.6-0.7,1.6-1.6c0-0.2-0.1-0.3-0.3-0.3h-0.7c-0.9,0-1.6,0.7-1.6,1.5L32,12.5l-1.5,0.2l0.6-1.1
		c0,0,0,0,0,0l1.2-3.1h0.4c0.9,0,1.6-0.7,1.6-1.6c0-0.2-0.1-0.3-0.3-0.3h-0.7c-0.8,0-1.5,0.5-1.6,1.3h0V6.4l1.1-0.8h0.5
		c0.9,0,1.6-0.7,1.6-1.6c0-0.2-0.1-0.3-0.3-0.3h-0.7c-0.5,0-1,0.2-1.3,0.7c-0.3-0.4-0.8-0.7-1.3-0.7h-0.7c-0.2,0-0.3,0.1-0.3,0.3
		c0,0.8,0.6,1.5,1.4,1.6L31.3,6c-0.1,0.1-0.1,0.2-0.1,0.3v1.6h-0.3c-0.1,0-0.2,0.1-0.3,0.2l-1,1.9l-0.4-1.1l0.6-2.2h0
		c0,0,0-0.1,0-0.1c0-0.9-0.7-1.6-1.6-1.6h-0.7c-0.2,0-0.3,0.1-0.3,0.3c0,0.9,0.7,1.6,1.6,1.6h0.2l-0.3,0.9c-0.3-0.4-0.8-0.6-1.3-0.6
		h-0.7c-0.2,0-0.3,0.1-0.3,0.3c0,0.9,0.7,1.6,1.6,1.6h0.4l0.5,1.6L28,12.4l-1.4-4V7.5V6l0.6-1.6c0,0,0-0.1,0-0.1v-1h0.3
		c0.9,0,1.6-0.7,1.6-1.6c0-0.2-0.1-0.3-0.3-0.3h-0.7c-0.5,0-1,0.2-1.3,0.7c-0.3-0.4-0.8-0.7-1.3-0.7h-0.7c-0.2,0-0.3,0.1-0.3,0.3
		c0,0.9,0.7,1.6,1.6,1.6h0.3v0.9l-0.4,1.1l-1-1c-0.1-0.1-0.2-0.1-0.4-0.1c-0.1,0.1-0.2,0.2-0.2,0.3v2.5l-1-1V4.6
		c0-0.9-0.7-1.6-1.6-1.6h-0.7c-0.2,0-0.3,0.1-0.3,0.3c0,0.9,0.7,1.6,1.6,1.6H23v1.3c0,0.1,0,0.2,0.1,0.2L24.6,8v0.5c0,0,0,0,0,0.1
		l1,4.6v1.1l-1.3-1.5h0v-1.5c0.5-0.6,0.5-1.6-0.1-2.2l-0.3-0.4c-0.1-0.1-0.1-0.1-0.2-0.1c-0.1,0-0.2,0-0.3,0.1
		c-0.7,0.7-0.7,1.7-0.1,2.3l0.4,0.4v0.8l-1-1.1V7.9c0-0.1-0.1-0.3-0.2-0.3c-0.1,0-0.3,0-0.4,0.1l-0.4,0.7L21,7.1V5.9
		c0-0.9-0.7-1.6-1.6-1.6h-0.7c-0.2,0-0.3,0.1-0.3,0.3c0,0.9,0.7,1.6,1.6,1.6h0.3v1c0,0.1,0,0.1,0,0.1L21.2,9l-0.5,0.7
		c0,0.1-0.1,0.1-0.1,0.2v1.6c0,0.1,0,0.1,0.1,0.2l1.2,1.7L21,13.7l-0.7-0.5c-0.1-0.8-0.8-1.5-1.6-1.5H18c-0.2,0-0.3,0.1-0.3,0.3
		c0,0.9,0.7,1.6,1.6,1.6h0.6l0.9,0.6c0.1,0.1,0.2,0.1,0.3,0l1.2-0.5l2.6,3.6l0.6,1.2l-0.5,1.4l-8.8,0v-6.9c0-1.3-1.1-2.4-2.4-2.4h-7
		c-0.7,0-1.3,0.4-1.7,1L0.1,21.9C0,21.9,0,22,0,22.1v7.3c0,1.1,0.9,2.1,2.1,2.1h1.5c0.4,0,0.6-0.3,0.6-0.6s-0.3-0.6-0.6-0.6H2.1
		c-0.4,0-0.8-0.4-0.8-0.8v-7.1l5-10C6.4,12.1,6.6,12,6.9,12h7c0.7,0,1.2,0.5,1.2,1.2V27c0,0.4,0.3,0.6,0.6,0.6
		c0.4,0,0.6-0.3,0.6-0.6v-5.7l21.9,0.1c0.3,0,0.6,0.3,0.6,0.6v7.7c0,0.3-0.2,0.5-0.5,0.5h-1.9c0,0-0.1,0-0.1,0
		c-0.5-2-2.2-3.4-4.3-3.4c-2.5,0-4.5,2-4.5,4.5s2,4.5,4.5,4.5c2.4,0,4.3-1.9,4.4-4.2h1.9c1,0,1.8-0.8,1.8-1.8V22
		C40,21,39.2,20.2,38.2,20.2z M34.5,13.1h0.3c-0.1,0.4-0.5,0.7-0.9,0.7h-0.3C33.7,13.4,34,13.1,34.5,13.1z M34.1,10.8h0.3
		c-0.1,0.4-0.5,0.7-0.9,0.7h-0.3C33.3,11.1,33.7,10.8,34.1,10.8z M33.5,7.2h0.3c-0.1,0.4-0.5,0.7-0.9,0.7h-0.3
		C32.7,7.5,33.1,7.2,33.5,7.2z M34.1,4.3h0.3c-0.1,0.4-0.5,0.7-0.9,0.7h-0.3C33.3,4.5,33.7,4.3,34.1,4.3z M31.2,4.3h0.3
		c0.4,0,0.8,0.3,0.9,0.7h-0.3C31.7,4.9,31.4,4.6,31.2,4.3z M28.2,8.5c-0.4,0-0.8-0.3-0.9-0.7h0.3c0.4,0,0.8,0.3,0.9,0.7H28.2z
		 M28.9,6.2c-0.4,0-0.8-0.3-0.9-0.7h0.3c0.4,0,0.8,0.3,0.9,0.7H28.9z M28.2,2h0.3c-0.1,0.4-0.5,0.7-0.9,0.7h-0.3
		C27.4,2.2,27.8,2,28.2,2z M26.2,2.6c-0.4,0-0.8-0.3-0.9-0.7h0.3c0.4,0,0.8,0.3,0.9,0.7H26.2z M22.6,4.3c-0.4,0-0.8-0.3-0.9-0.7H22
		c0.4,0,0.8,0.3,0.9,0.7H22.6z M20,5.6c-0.4,0-0.8-0.3-0.9-0.7h0.3c0.4,0,0.8,0.3,0.9,0.7H20z M19.3,13.1c-0.4,0-0.8-0.3-0.9-0.7
		h0.3c0.4,0,0.8,0.3,0.9,0.7H19.3z M23.6,9.4L23.6,9.4c0.1,0.1,0.1,0.1,0.1,0.1c0.3,0.3,0.4,0.7,0.2,1.1l-0.2-0.2
		C23.4,10.2,23.4,9.8,23.6,9.4z M26.2,18.5l-0.6-1.3c0,0,0,0,0,0l-4.2-5.8V9.9l0.6-0.9l0,0l0,0L22,9v2.2c0,0.1,0,0.2,0.1,0.2
		l3.6,3.9c0.1,0.1,0.2,0.1,0.4,0.1c0.1,0,0.2-0.2,0.2-0.3v-2c0,0,0,0,0-0.1l-1-4.6V5.4L25.9,6v2.5c0,0,0,0.1,0,0.1l1.6,4.4l-0.8,0.8
		l0.5,0.5l1-1l0,0c0,0,0,0,0,0l1.6-2.3c0,0,0,0,0,0L31,8.5h0.6l-1.1,2.8l-2.3,3.9c0,0,0,0,0,0l-0.6,1.6l-0.9,0.9l0.5,0.5l0.7-0.7
		l0.4,0.8v1.6l-2.4,0l0.3-0.8l0.6,0.6l0.5-0.5L26.2,18.5z M31.9,34.4c-1.8,0-3.2-1.4-3.2-3.2s1.4-3.2,3.2-3.2c1.8,0,3.2,1.4,3.2,3.2
		S33.7,34.4,31.9,34.4z"/>
	<path class="st0" d="M26.5,30.2h-12c-0.4,0-0.6,0.3-0.6,0.6s0.3,0.6,0.6,0.6h12c0.4,0,0.6-0.3,0.6-0.6S26.8,30.2,26.5,30.2z"/>
	<path class="st0" d="M13,13.2c-0.4,0-0.6,0.3-0.6,0.6v3.7c0,1.1-0.9,2-2,2H4.2c-0.4,0-0.6,0.3-0.6,0.6s0.3,0.6,0.6,0.6h6.1
		c1.8,0,3.3-1.5,3.3-3.3v-3.7C13.6,13.5,13.3,13.2,13,13.2z"/>
	<path class="st0" d="M36.3,23.7c0.4,0,0.6-0.3,0.6-0.6s-0.3-0.6-0.6-0.6h-6.7c-0.4,0-0.6,0.3-0.6,0.6s0.3,0.6,0.6,0.6H36.3z"/>
	<path class="st0" d="M9,26.8c-2.5,0-4.5,2-4.5,4.5s2,4.5,4.5,4.5s4.5-2,4.5-4.5S11.5,26.8,9,26.8z M9,34.4c-1.8,0-3.2-1.4-3.2-3.2
		s1.4-3.2,3.2-3.2s3.2,1.4,3.2,3.2S10.8,34.4,9,34.4z"/>
	<rect x="19" y="8.5" class="st0" width="0.7" height="0.7"/>
	<rect x="30.8" y="14.1" class="st0" width="0.7" height="0.7"/>
	<rect x="21.6" y="15.1" class="st0" width="0.7" height="0.7"/>
</g>
</svg>
