<svg width="392" height="146" viewBox="0 0 392 146" fill="none" xmlns="http://www.w3.org/2000/svg">
<g clip-path="url(#clip0_5475_5187)">
<circle opacity="0.2" cx="195.5" cy="72.5" r="104.5" fill="url(#paint0_radial_5475_5187)"/>
<circle opacity="0.2" cx="195.5" cy="72.5" r="176.5" fill="url(#paint1_radial_5475_5187)"/>
<path d="M219.608 54.7224L206.278 41.3923C206.154 41.2678 206.007 41.169 205.845 41.1017C205.683 41.0343 205.509 40.9998 205.333 41H177.333C174.393 41 172 43.3919 172 46.3334V99.6668C172 102.608 174.393 105 177.333 105H214.667C217.607 105 220 102.608 220 99.6666V55.6666C220 55.4911 219.966 55.3173 219.898 55.1553C219.831 54.9932 219.732 54.8461 219.608 54.7224ZM181.333 54.3334H197.333C197.509 54.3333 197.682 54.3677 197.844 54.4346C198.006 54.5016 198.153 54.5998 198.276 54.7237C198.4 54.8475 198.499 54.9945 198.565 55.1564C198.632 55.3182 198.667 55.4916 198.667 55.6668C198.667 55.8419 198.632 56.0153 198.565 56.1771C198.499 56.339 198.4 56.486 198.276 56.6098C198.153 56.7337 198.006 56.8319 197.844 56.8989C197.682 56.9658 197.509 57.0002 197.333 57.0001H181.333C181.158 57.0002 180.985 56.9658 180.823 56.8989C180.661 56.8319 180.514 56.7337 180.39 56.6098C180.266 56.486 180.168 56.339 180.101 56.1771C180.034 56.0153 180 55.8419 180 55.6668C180 55.4916 180.034 55.3182 180.101 55.1564C180.168 54.9945 180.266 54.8475 180.39 54.7237C180.514 54.5998 180.661 54.5016 180.823 54.4346C180.985 54.3677 181.158 54.3333 181.333 54.3334ZM200.935 91.2839C195.13 97 193.779 97 193.333 97C191.677 97 191.083 95.099 190.469 93.0625C189.539 94.9492 188.469 97 186.667 97C185.739 97 184.63 96.3894 183.586 95.4596C183.088 95.9544 182.594 96.388 182.133 96.7331C181.993 96.8383 181.833 96.9148 181.664 96.9583C181.494 97.0018 181.317 97.0115 181.144 96.9867C180.97 96.9619 180.804 96.9031 180.653 96.8138C180.502 96.7245 180.371 96.6063 180.265 96.4661C179.825 95.8776 179.945 95.0416 180.534 94.6003C180.956 94.2825 181.385 93.8997 181.807 93.4779C180.747 92.0156 180 90.349 180 89C180 85.957 182.427 83.6666 184 83.6666C185.547 83.6666 188 84.7526 188 87.6666C188 89.3645 186.82 91.5611 185.351 93.4582C185.896 93.9661 186.391 94.3032 186.68 94.3332C186.974 94.1262 187.784 92.4778 188.174 91.6861C188.971 90.0689 189.497 88.9999 190.667 88.9999C192.034 88.9999 192.458 90.4179 193 92.2134C193.159 92.7459 193.422 93.6235 193.654 94.1483C194.633 93.4868 197.104 91.3123 199.065 89.3826C199.591 88.8683 200.435 88.8709 200.951 89.3983C201.466 89.9231 201.461 90.7669 200.935 91.2839ZM210.667 81H192C191.825 81.0001 191.651 80.9657 191.49 80.8987C191.328 80.8318 191.181 80.7336 191.057 80.6097C190.933 80.4859 190.835 80.3388 190.768 80.177C190.701 80.0152 190.667 79.8418 190.667 79.6666C190.667 79.4915 190.701 79.3181 190.768 79.1562C190.835 78.9944 190.933 78.8474 191.057 78.7235C191.181 78.5997 191.328 78.5015 191.49 78.4345C191.651 78.3675 191.825 78.3331 192 78.3332H210.667C210.842 78.3331 211.015 78.3675 211.177 78.4345C211.339 78.5015 211.486 78.5997 211.61 78.7235C211.734 78.8474 211.832 78.9944 211.899 79.1562C211.966 79.3181 212 79.4915 212 79.6666C212 79.8418 211.966 80.0152 211.899 80.177C211.832 80.3388 211.734 80.4859 211.61 80.6097C211.486 80.7336 211.339 80.8318 211.177 80.8987C211.015 80.9657 210.842 81.0001 210.667 81ZM210.667 73H181.333C181.158 73.0001 180.985 72.9657 180.823 72.8987C180.661 72.8318 180.514 72.7336 180.39 72.6097C180.266 72.4859 180.168 72.3388 180.101 72.177C180.034 72.0152 180 71.8418 180 71.6666C180 71.4915 180.034 71.3181 180.101 71.1562C180.168 70.9944 180.266 70.8474 180.39 70.7235C180.514 70.5997 180.661 70.5015 180.823 70.4345C180.985 70.3675 181.158 70.3331 181.333 70.3333H210.667C210.842 70.3331 211.015 70.3675 211.177 70.4345C211.339 70.5015 211.486 70.5997 211.61 70.7235C211.734 70.8474 211.832 70.9944 211.899 71.1562C211.966 71.3181 212 71.4915 212 71.6666C212 71.8418 211.966 72.0152 211.899 72.177C211.832 72.3388 211.734 72.4859 211.61 72.6097C211.486 72.7335 211.339 72.8317 211.177 72.8987C211.015 72.9657 210.842 73.0001 210.667 73ZM210.667 65H181.333C181.158 65.0001 180.985 64.9657 180.823 64.8987C180.661 64.8318 180.514 64.7336 180.39 64.6097C180.266 64.4859 180.168 64.3388 180.101 64.177C180.034 64.0152 180 63.8418 180 63.6666C180 63.4915 180.034 63.3181 180.101 63.1562C180.168 62.9944 180.266 62.8474 180.39 62.7235C180.514 62.5997 180.661 62.5015 180.823 62.4345C180.985 62.3675 181.158 62.3331 181.333 62.3333H210.667C210.842 62.3331 211.015 62.3675 211.177 62.4345C211.339 62.5015 211.486 62.5997 211.61 62.7235C211.734 62.8474 211.832 62.9944 211.899 63.1562C211.966 63.3181 212 63.4915 212 63.6666C212 63.8418 211.966 64.0152 211.899 64.177C211.832 64.3388 211.734 64.4859 211.61 64.6097C211.486 64.7335 211.339 64.8317 211.177 64.8987C211.015 64.9657 210.842 65.0001 210.667 65ZM209.333 54.3334C207.862 54.3334 206.667 53.1368 206.667 51.6668V45.5521L215.448 54.3334H209.333Z" fill="url(#paint2_linear_5475_5187)"/>
<path d="M184 86.332C183.859 86.4205 182.667 87.3724 182.667 88.9987C182.667 89.6809 183.052 90.5378 183.594 91.3633C184.615 89.9505 185.333 88.5157 185.333 87.6654C185.333 86.3958 184.221 86.332 184 86.332Z" fill="url(#paint3_linear_5475_5187)"/>
</g>
<defs>
<radialGradient id="paint0_radial_5475_5187" cx="0" cy="0" r="1" gradientUnits="userSpaceOnUse" gradientTransform="translate(195.5 72.5) rotate(90) scale(104.5 92.7254)">
<stop offset="0.524044" stop-color="#D252B5" stop-opacity="0"/>
<stop offset="1" stop-color="#D252B5"/>
</radialGradient>
<radialGradient id="paint1_radial_5475_5187" cx="0" cy="0" r="1" gradientUnits="userSpaceOnUse" gradientTransform="translate(195.5 72.5) rotate(90) scale(176.5 156.613)">
<stop offset="0.524044" stop-color="#D252B5" stop-opacity="0"/>
<stop offset="1" stop-color="#D252B5"/>
</radialGradient>
<linearGradient id="paint2_linear_5475_5187" x1="196" y1="41" x2="196" y2="105" gradientUnits="userSpaceOnUse">
<stop stop-color="#D252B5" stop-opacity="0.35"/>
<stop offset="0.605793" stop-color="#D252B5"/>
</linearGradient>
<linearGradient id="paint3_linear_5475_5187" x1="184" y1="86.332" x2="184" y2="91.3633" gradientUnits="userSpaceOnUse">
<stop stop-color="#D252B5" stop-opacity="0.35"/>
<stop offset="0.605793" stop-color="#D252B5"/>
</linearGradient>
<clipPath id="clip0_5475_5187">
<rect width="392" height="146" fill="white"/>
</clipPath>
</defs>
</svg>
