<svg width="404" height="180" viewBox="0 0 404 180" fill="none" xmlns="http://www.w3.org/2000/svg">
<g clip-path="url(#clip0_4896_3136)">
<rect opacity="0.4" x="22" y="41" width="358" height="359" rx="179" fill="url(#paint0_radial_4896_3136)"/>
<mask id="path-2-inside-1_4896_3136" fill="white">
<path d="M369.806 293.412C362.824 309.97 353.44 325.404 341.957 339.217C341.147 334.376 343.383 328.768 340.051 324.25C336.435 317.189 333.086 309.985 329.318 303.008C327.917 300.413 328.303 298.922 330.368 297.054C352.481 277.62 332.768 287.953 334.94 260.176C335.018 259.425 334.87 258.668 334.513 258.003C334.157 257.338 333.61 256.795 332.943 256.445C322.461 249.741 308.777 247.439 297.945 254.889C284.444 261.28 265.188 256.391 260.821 240.87C256.958 230.553 257.432 220.134 257.331 209.598C257.954 203.916 265.735 202.962 264.473 196.395C264.773 188.056 262.06 179.253 269.933 173.81C270.536 173.276 271.255 172.891 272.032 172.685C272.81 172.479 273.625 172.457 274.412 172.621C281.606 173.493 288.876 171.794 294.943 167.825C301.377 163.74 309.321 166.385 316.448 165.454C319.845 165.212 322.362 166.211 324.453 168.86C328.565 174.061 334.997 175.588 340.401 178.746C342.219 179.809 343.195 178.469 344.048 177.368C348.587 171.501 355.545 169.53 361.645 166.157C364.968 164.25 371.63 171.53 377.301 171.789C388.602 211.412 385.979 255.521 369.806 293.412ZM367.15 144.493C360.377 145.385 364.932 138.941 361.436 135.569C357.927 132.432 354.588 129.107 351.435 125.61C349.803 123.863 348.747 123.583 346.86 125.448C341.791 130.472 342.076 129.939 347.987 135.941C354.888 143.54 360.09 143.413 347.603 148.694C344.761 149.976 342.078 152.896 338.976 148.676C337.099 146.123 334.544 144.407 334.847 140.474C335.314 134.409 330.694 130.012 328.557 124.775C327.918 123.213 326.79 124.314 326.189 125.083C321.692 130.874 314.899 133.113 308.745 136.33C298.117 145.638 300.543 144.624 286.439 144.22C285.133 144.276 284.749 142.699 284.182 141.777C277.081 130.132 278.458 127.293 285.815 116.299C288.522 114.673 300.48 116.55 302.74 118.915C303.756 119.976 304.59 121.213 306.057 123.064C307.183 118.556 306.613 115.102 306.729 111.699C308.636 97.7375 320.348 104.03 328.663 100.997C332.593 97.9883 334.205 96.4905 333.372 95.0142C347.272 109.534 358.684 126.251 367.15 144.493ZM332.235 93.8457C326.56 90.1446 313.952 86.2427 313.616 77.0974C320.199 82.2452 326.42 87.8412 332.235 93.8457ZM71.2247 92.0763C81.8039 81.4642 93.6405 72.1893 106.47 64.4587C110.833 66.6896 113.946 74.8972 119.419 71.9808C125.256 68.9129 131.477 66.4796 135.667 60.9938C138.041 58.1051 142.196 60.316 145.296 59.4398C157.486 57.7866 160.782 71.6893 165.341 79.9599C164.939 80.2992 164.727 80.6246 164.552 80.6046C153.975 79.4091 144.276 82.8109 134.69 86.5082C131.541 87.7229 129.115 87.826 127.145 84.7888C124.71 81.0331 121.582 80.9246 117.698 82.5448C114.1 85.0919 101.175 85.5319 102.069 90.6439C102.946 95.4466 99.1601 103.633 107.767 101.996C111.799 100.591 115.266 112.528 117.731 105.665C123.02 84.2018 145.315 102.932 162.507 89.2176C168.831 85.4588 174.033 97.8398 176.491 102.201C178.359 106.293 179.71 111.11 186.277 109.683C182.159 113.81 178.012 117.908 173.94 122.079C172.759 123.29 171.685 122.902 170.359 122.44C165.239 120.66 160.05 119.078 154.948 117.248C152.514 116.374 151.347 116.289 151.402 119.555C155.568 142.019 136.463 120.354 123.195 137.2C106.64 153.866 119.452 167.852 96.6985 185.372C95.3384 186.623 94.2086 186.774 92.8638 185.785C82.9793 178.756 60.7711 174.938 53.3874 186.426C53.2814 186.772 53.2556 187.138 53.3117 187.496C53.3679 187.853 53.5046 188.193 53.7115 188.49C57.666 194.839 57.9763 205.521 65.4845 194.871C67.7195 192.963 70.3446 193.605 72.6333 193.986C75.041 194.387 73.8452 196.941 73.7853 198.426C74.1255 204.35 82.6322 205.405 80.9587 212.074C80.004 216.898 86.0706 214.231 88.7364 215.041C93.0458 215.663 96.3153 214.219 99.0779 210.848C101.173 208.292 113.2 206.555 115.969 208.199C118.165 210.416 119.087 213.878 120.662 216.585C123.281 221.847 123.394 221.953 127.247 217.794C136.103 210.831 148.55 216.34 156.976 221.175C163.596 224.889 161.409 238.149 171.27 236.243C173.164 235.796 174.188 237.412 175.227 238.583C182.389 247.36 193.954 246.31 198.191 258.346C200.92 263.365 200.628 267.765 198.309 272.732C196.661 282.06 192.081 288.934 182.411 291.546C174.743 294.305 187.679 306.837 170.128 311.834C165.626 312.816 165.043 316.269 165.626 320.318C167.488 330.749 164.96 338.62 153.507 341.368C150.12 342.489 150.724 347 149.116 349.571C141.215 363.995 148.397 374.518 158.46 384.62C149.628 385.142 140.056 386.042 137.003 376.518C133.189 365.422 129.737 354.23 124.082 343.857C122.182 340.374 123.405 336.327 123.356 332.549C121.977 317.091 106.219 305.522 109.179 289.052C110.326 280.803 98.5802 292.583 86.4185 277.57C82.3649 272.754 72.9328 261.113 74.5618 255.079C77.8912 246.766 78.2421 236.739 85.9285 230.969C89.2026 228.42 89.5006 220.47 83.3941 222.011C67.7079 224.64 71.0596 212.834 61.8725 215.075C55.6515 215.739 51.1609 213.696 46.3261 209.336C31.8212 195.974 27.6631 205.875 19.3524 195.968C24.9296 156.616 43.1367 120.151 71.2247 92.0763Z"/>
</mask>
<path d="M369.806 293.412C362.824 309.97 353.44 325.404 341.957 339.217C341.147 334.376 343.383 328.768 340.051 324.25C336.435 317.189 333.086 309.985 329.318 303.008C327.917 300.413 328.303 298.922 330.368 297.054C352.481 277.62 332.768 287.953 334.94 260.176C335.018 259.425 334.87 258.668 334.513 258.003C334.157 257.338 333.61 256.795 332.943 256.445C322.461 249.741 308.777 247.439 297.945 254.889C284.444 261.28 265.188 256.391 260.821 240.87C256.958 230.553 257.432 220.134 257.331 209.598C257.954 203.916 265.735 202.962 264.473 196.395C264.773 188.056 262.06 179.253 269.933 173.81C270.536 173.276 271.255 172.891 272.032 172.685C272.81 172.479 273.625 172.457 274.412 172.621C281.606 173.493 288.876 171.794 294.943 167.825C301.377 163.74 309.321 166.385 316.448 165.454C319.845 165.212 322.362 166.211 324.453 168.86C328.565 174.061 334.997 175.588 340.401 178.746C342.219 179.809 343.195 178.469 344.048 177.368C348.587 171.501 355.545 169.53 361.645 166.157C364.968 164.25 371.63 171.53 377.301 171.789C388.602 211.412 385.979 255.521 369.806 293.412ZM367.15 144.493C360.377 145.385 364.932 138.941 361.436 135.569C357.927 132.432 354.588 129.107 351.435 125.61C349.803 123.863 348.747 123.583 346.86 125.448C341.791 130.472 342.076 129.939 347.987 135.941C354.888 143.54 360.09 143.413 347.603 148.694C344.761 149.976 342.078 152.896 338.976 148.676C337.099 146.123 334.544 144.407 334.847 140.474C335.314 134.409 330.694 130.012 328.557 124.775C327.918 123.213 326.79 124.314 326.189 125.083C321.692 130.874 314.899 133.113 308.745 136.33C298.117 145.638 300.543 144.624 286.439 144.22C285.133 144.276 284.749 142.699 284.182 141.777C277.081 130.132 278.458 127.293 285.815 116.299C288.522 114.673 300.48 116.55 302.74 118.915C303.756 119.976 304.59 121.213 306.057 123.064C307.183 118.556 306.613 115.102 306.729 111.699C308.636 97.7375 320.348 104.03 328.663 100.997C332.593 97.9883 334.205 96.4905 333.372 95.0142C347.272 109.534 358.684 126.251 367.15 144.493ZM332.235 93.8457C326.56 90.1446 313.952 86.2427 313.616 77.0974C320.199 82.2452 326.42 87.8412 332.235 93.8457ZM71.2247 92.0763C81.8039 81.4642 93.6405 72.1893 106.47 64.4587C110.833 66.6896 113.946 74.8972 119.419 71.9808C125.256 68.9129 131.477 66.4796 135.667 60.9938C138.041 58.1051 142.196 60.316 145.296 59.4398C157.486 57.7866 160.782 71.6893 165.341 79.9599C164.939 80.2992 164.727 80.6246 164.552 80.6046C153.975 79.4091 144.276 82.8109 134.69 86.5082C131.541 87.7229 129.115 87.826 127.145 84.7888C124.71 81.0331 121.582 80.9246 117.698 82.5448C114.1 85.0919 101.175 85.5319 102.069 90.6439C102.946 95.4466 99.1601 103.633 107.767 101.996C111.799 100.591 115.266 112.528 117.731 105.665C123.02 84.2018 145.315 102.932 162.507 89.2176C168.831 85.4588 174.033 97.8398 176.491 102.201C178.359 106.293 179.71 111.11 186.277 109.683C182.159 113.81 178.012 117.908 173.94 122.079C172.759 123.29 171.685 122.902 170.359 122.44C165.239 120.66 160.05 119.078 154.948 117.248C152.514 116.374 151.347 116.289 151.402 119.555C155.568 142.019 136.463 120.354 123.195 137.2C106.64 153.866 119.452 167.852 96.6985 185.372C95.3384 186.623 94.2086 186.774 92.8638 185.785C82.9793 178.756 60.7711 174.938 53.3874 186.426C53.2814 186.772 53.2556 187.138 53.3117 187.496C53.3679 187.853 53.5046 188.193 53.7115 188.49C57.666 194.839 57.9763 205.521 65.4845 194.871C67.7195 192.963 70.3446 193.605 72.6333 193.986C75.041 194.387 73.8452 196.941 73.7853 198.426C74.1255 204.35 82.6322 205.405 80.9587 212.074C80.004 216.898 86.0706 214.231 88.7364 215.041C93.0458 215.663 96.3153 214.219 99.0779 210.848C101.173 208.292 113.2 206.555 115.969 208.199C118.165 210.416 119.087 213.878 120.662 216.585C123.281 221.847 123.394 221.953 127.247 217.794C136.103 210.831 148.55 216.34 156.976 221.175C163.596 224.889 161.409 238.149 171.27 236.243C173.164 235.796 174.188 237.412 175.227 238.583C182.389 247.36 193.954 246.31 198.191 258.346C200.92 263.365 200.628 267.765 198.309 272.732C196.661 282.06 192.081 288.934 182.411 291.546C174.743 294.305 187.679 306.837 170.128 311.834C165.626 312.816 165.043 316.269 165.626 320.318C167.488 330.749 164.96 338.62 153.507 341.368C150.12 342.489 150.724 347 149.116 349.571C141.215 363.995 148.397 374.518 158.46 384.62C149.628 385.142 140.056 386.042 137.003 376.518C133.189 365.422 129.737 354.23 124.082 343.857C122.182 340.374 123.405 336.327 123.356 332.549C121.977 317.091 106.219 305.522 109.179 289.052C110.326 280.803 98.5802 292.583 86.4185 277.57C82.3649 272.754 72.9328 261.113 74.5618 255.079C77.8912 246.766 78.2421 236.739 85.9285 230.969C89.2026 228.42 89.5006 220.47 83.3941 222.011C67.7079 224.64 71.0596 212.834 61.8725 215.075C55.6515 215.739 51.1609 213.696 46.3261 209.336C31.8212 195.974 27.6631 205.875 19.3524 195.968C24.9296 156.616 43.1367 120.151 71.2247 92.0763Z" stroke="#232F6F" stroke-width="2" mask="url(#path-2-inside-1_4896_3136)"/>
<circle cx="201" cy="220" r="181.5" stroke="#232F6F"/>
<g opacity="0.3" filter="url(#filter0_f_4896_3136)" style="mix-blend-mode:screen">
<path d="M79.2117 130.442C86.0753 123.741 95.241 121.85 99.7346 126.17C104.218 130.532 102.298 139.466 95.4755 146.159C88.6119 152.86 79.4465 154.751 74.9529 150.43C70.4692 146.069 72.3895 137.135 79.2117 130.442Z" fill="url(#paint1_radial_4896_3136)"/>
</g>
<g opacity="0.5" filter="url(#filter1_f_4896_3136)" style="mix-blend-mode:screen">
<path d="M83.5493 134.633C86.7523 131.506 91.0296 130.624 93.1267 132.64C95.2191 134.676 94.3228 138.845 91.1391 141.968C87.9361 145.095 83.6589 145.978 81.5619 143.961C79.4695 141.926 80.3656 137.757 83.5493 134.633Z" fill="url(#paint2_radial_4896_3136)"/>
</g>
<path d="M86.2143 137.516C87.0618 136.688 88.1936 136.455 88.7485 136.989C89.3023 137.527 89.0652 138.63 88.2229 139.457C87.3754 140.284 86.2437 140.518 85.6887 139.984C85.135 139.445 85.372 138.342 86.2143 137.516Z" fill="#3FA1E3"/>
<g opacity="0.3" filter="url(#filter2_f_4896_3136)" style="mix-blend-mode:screen">
<path d="M341.249 108.415C346.891 114.213 348.473 121.946 344.823 125.729C341.139 129.505 333.607 127.873 327.971 122.11C322.33 116.313 320.747 108.58 324.397 104.797C328.082 101.021 335.614 102.653 341.249 108.415Z" fill="url(#paint3_radial_4896_3136)"/>
</g>
<g opacity="0.5" filter="url(#filter3_f_4896_3136)" style="mix-blend-mode:screen">
<path d="M337.708 112.067C340.341 114.773 341.079 118.381 339.376 120.147C337.657 121.909 334.141 121.147 331.512 118.458C328.879 115.752 328.14 112.144 329.844 110.378C331.563 108.616 335.078 109.378 337.708 112.067Z" fill="url(#paint4_radial_4896_3136)"/>
</g>
<path d="M335.273 114.312C335.97 115.028 336.165 115.983 335.715 116.45C335.26 116.916 334.329 116.715 333.634 116.004C332.937 115.288 332.742 114.333 333.193 113.866C333.648 113.399 334.578 113.601 335.273 114.312Z" fill="#3FA1E3"/>
<g opacity="0.3" filter="url(#filter4_f_4896_3136)" style="mix-blend-mode:screen">
<path d="M157.515 97.7201C163.782 96.0165 170.012 98.7344 171.476 103.78C172.921 108.85 169.028 114.321 162.789 116.038C156.523 117.741 150.293 115.023 148.829 109.978C147.383 104.908 151.276 99.4367 157.515 97.7201Z" fill="url(#paint5_radial_4896_3136)"/>
</g>
<g opacity="0.5" filter="url(#filter5_f_4896_3136)" style="mix-blend-mode:screen">
<path d="M158.922 102.605C161.846 101.81 164.754 103.078 165.437 105.433C166.111 107.799 164.295 110.352 161.383 111.153C158.459 111.948 155.551 110.68 154.868 108.325C154.194 105.959 156.01 103.406 158.922 102.605Z" fill="url(#paint6_radial_4896_3136)"/>
</g>
<path d="M159.693 105.823C160.467 105.612 161.236 105.948 161.417 106.571C161.595 107.197 161.115 107.873 160.344 108.085C159.571 108.295 158.801 107.96 158.621 107.336C158.442 106.71 158.923 106.035 159.693 105.823Z" fill="#3FA1E3"/>
</g>
<defs>
<filter id="filter0_f_4896_3136" x="68.5297" y="119.854" width="37.6281" height="36.8926" filterUnits="userSpaceOnUse" color-interpolation-filters="sRGB">
<feFlood flood-opacity="0" result="BackgroundImageFix"/>
<feBlend mode="normal" in="SourceGraphic" in2="BackgroundImageFix" result="shape"/>
<feGaussianBlur stdDeviation="2" result="effect1_foregroundBlur_4896_3136"/>
</filter>
<filter id="filter1_f_4896_3136" x="79.431" y="130.559" width="15.8264" height="15.4844" filterUnits="userSpaceOnUse" color-interpolation-filters="sRGB">
<feFlood flood-opacity="0" result="BackgroundImageFix"/>
<feBlend mode="normal" in="SourceGraphic" in2="BackgroundImageFix" result="shape"/>
<feGaussianBlur stdDeviation="0.5" result="effect1_foregroundBlur_4896_3136"/>
</filter>
<filter id="filter2_f_4896_3136" x="318.435" y="98.7617" width="32.351" height="33.002" filterUnits="userSpaceOnUse" color-interpolation-filters="sRGB">
<feFlood flood-opacity="0" result="BackgroundImageFix"/>
<feBlend mode="normal" in="SourceGraphic" in2="BackgroundImageFix" result="shape"/>
<feGaussianBlur stdDeviation="2" result="effect1_foregroundBlur_4896_3136"/>
</filter>
<filter id="filter3_f_4896_3136" x="327.928" y="108.428" width="13.3638" height="13.668" filterUnits="userSpaceOnUse" color-interpolation-filters="sRGB">
<feFlood flood-opacity="0" result="BackgroundImageFix"/>
<feBlend mode="normal" in="SourceGraphic" in2="BackgroundImageFix" result="shape"/>
<feGaussianBlur stdDeviation="0.5" result="effect1_foregroundBlur_4896_3136"/>
</filter>
<filter id="filter4_f_4896_3136" x="144.527" y="93.2109" width="31.2496" height="27.3359" filterUnits="userSpaceOnUse" color-interpolation-filters="sRGB">
<feFlood flood-opacity="0" result="BackgroundImageFix"/>
<feBlend mode="normal" in="SourceGraphic" in2="BackgroundImageFix" result="shape"/>
<feGaussianBlur stdDeviation="2" result="effect1_foregroundBlur_4896_3136"/>
</filter>
<filter id="filter5_f_4896_3136" x="153.728" y="101.367" width="12.8499" height="11.0234" filterUnits="userSpaceOnUse" color-interpolation-filters="sRGB">
<feFlood flood-opacity="0" result="BackgroundImageFix"/>
<feBlend mode="normal" in="SourceGraphic" in2="BackgroundImageFix" result="shape"/>
<feGaussianBlur stdDeviation="0.5" result="effect1_foregroundBlur_4896_3136"/>
</filter>
<radialGradient id="paint0_radial_4896_3136" cx="0" cy="0" r="1" gradientUnits="userSpaceOnUse" gradientTransform="translate(201 220.5) rotate(90) scale(179.5 179)">
<stop offset="0.480792" stop-color="#232F6F" stop-opacity="0"/>
<stop offset="1" stop-color="#232F6F"/>
</radialGradient>
<radialGradient id="paint1_radial_4896_3136" cx="0" cy="0" r="1" gradientUnits="userSpaceOnUse" gradientTransform="translate(87.3438 138.3) rotate(46.7823) scale(11.3007 17.3437)">
<stop stop-color="#3FA1E3" stop-opacity="0"/>
<stop offset="1" stop-color="#3FA1E3"/>
</radialGradient>
<radialGradient id="paint2_radial_4896_3136" cx="0" cy="0" r="1" gradientUnits="userSpaceOnUse" gradientTransform="translate(87.3443 138.301) rotate(46.7823) scale(5.27364 8.09375)">
<stop stop-color="#3FA1E3" stop-opacity="0"/>
<stop offset="1" stop-color="#3FA1E3"/>
</radialGradient>
<radialGradient id="paint3_radial_4896_3136" cx="0" cy="0" r="1" gradientUnits="userSpaceOnUse" gradientTransform="translate(334.61 115.263) rotate(136.875) scale(9.53053 14.627)">
<stop stop-color="#3FA1E3" stop-opacity="0"/>
<stop offset="1" stop-color="#3FA1E3"/>
</radialGradient>
<radialGradient id="paint4_radial_4896_3136" cx="0" cy="0" r="1" gradientUnits="userSpaceOnUse" gradientTransform="translate(334.61 115.263) rotate(136.875) scale(4.44758 6.82595)">
<stop stop-color="#3FA1E3" stop-opacity="0"/>
<stop offset="1" stop-color="#3FA1E3"/>
</radialGradient>
<radialGradient id="paint5_radial_4896_3136" cx="0" cy="0" r="1" gradientUnits="userSpaceOnUse" gradientTransform="translate(160.152 106.879) rotate(76.1542) scale(9.52791 11.7412)">
<stop stop-color="#3FA1E3" stop-opacity="0"/>
<stop offset="1" stop-color="#3FA1E3"/>
</radialGradient>
<radialGradient id="paint6_radial_4896_3136" cx="0" cy="0" r="1" gradientUnits="userSpaceOnUse" gradientTransform="translate(160.152 106.879) rotate(76.1542) scale(4.44636 5.47921)">
<stop stop-color="#3FA1E3" stop-opacity="0"/>
<stop offset="1" stop-color="#3FA1E3"/>
</radialGradient>
<clipPath id="clip0_4896_3136">
<rect width="404" height="180" fill="white"/>
</clipPath>
</defs>
</svg>
