<svg width="404" height="180" viewBox="0 0 404 180" fill="none" xmlns="http://www.w3.org/2000/svg">
<g clip-path="url(#clip0_4896_3195)">
<g opacity="0.2" filter="url(#filter0_f_4896_3195)">
<circle cx="76" cy="106" r="52" fill="#3FA1E3"/>
</g>
<g opacity="0.2" filter="url(#filter1_f_4896_3195)">
<circle cx="203" cy="75" r="52" fill="#3FA1E3"/>
</g>
<g opacity="0.2" filter="url(#filter2_f_4896_3195)">
<circle cx="328" cy="106" r="52" fill="#3FA1E3"/>
</g>
<path d="M202.5 0.5C243.372 0.5 276.5 33.4102 276.5 74C276.5 114.59 243.372 147.5 202.5 147.5C161.628 147.5 128.5 114.59 128.5 74C128.5 33.4102 161.628 0.5 202.5 0.5Z" stroke="#232F6F"/>
<path d="M77.5 31.5C118.372 31.5 151.5 64.4102 151.5 105C151.5 145.59 118.372 178.5 77.5 178.5C36.6277 178.5 3.5 145.59 3.5 105C3.5 64.4102 36.6277 31.5 77.5 31.5Z" stroke="#232F6F"/>
<path d="M327.5 32.5C368.372 32.5 401.5 65.4102 401.5 106C401.5 146.59 368.372 179.5 327.5 179.5C286.628 179.5 253.5 146.59 253.5 106C253.5 65.4102 286.628 32.5 327.5 32.5Z" stroke="#232F6F"/>
<path d="M226 97C225.84 97.0002 225.683 96.9622 225.541 96.8891C225.399 96.8161 225.277 96.7101 225.184 96.58C224.286 95.5406 223.24 94.6383 222.08 93.902C220 92.402 217.644 90.702 217.03 88.242C216.997 88.1081 216.991 87.9688 217.015 87.8328C217.038 87.6968 217.089 87.567 217.164 87.4517C217.24 87.3363 217.339 87.2379 217.454 87.1626C217.57 87.0873 217.7 87.0367 217.836 87.014C219.712 86.702 222.432 85.974 224.136 85.496C221.162 82.5855 217.595 80.3519 213.678 78.948C213.438 78.8663 213.238 78.697 213.118 78.474C212.72 77.734 212.278 76.72 211.768 75.548C208.736 68.592 203.09 55.642 187.892 53.994C187.728 53.9767 187.57 53.919 187.434 53.826C185.796 52.5828 183.958 51.6272 182 51C181 51 181 51 181 52C181.468 53.0479 182.076 54.0275 182.808 54.912C184.168 56.78 185 57.976 185 59C185.555 61.9957 186.807 64.819 188.654 67.242C188.817 67.3824 188.93 67.5714 188.977 67.781C189.023 67.9906 189.001 68.2098 188.914 68.406C188.758 68.756 188.602 69.084 188.452 69.404C187.38 71.4307 186.878 73.7104 187 76C187 79.706 188.558 82 190 82C190.794 80.1045 191.136 78.0505 191 76C191 75.7621 191.085 75.5319 191.239 75.3508C191.393 75.1697 191.607 75.0496 191.842 75.012C192.077 74.9771 192.317 75.0258 192.519 75.1498C192.722 75.2737 192.874 75.465 192.95 75.69C192.976 75.77 195.604 83.674 200.578 87.184C200.686 87.2594 200.779 87.3556 200.85 87.4669C200.92 87.5781 200.969 87.7024 200.991 87.8324C201.014 87.9624 201.011 88.0956 200.982 88.2243C200.953 88.3531 200.899 88.4748 200.822 88.5825C200.746 88.6902 200.649 88.7817 200.537 88.8518C200.426 88.9219 200.301 88.9692 200.171 88.9909C200.041 89.0126 199.907 89.0083 199.779 88.9783C199.65 88.9483 199.529 88.8931 199.422 88.816C196.52 86.5227 194.208 83.5694 192.678 80.202C192.31 82.25 191.542 84 190 84C187.516 84 185 81.252 185 76C184.879 73.4136 185.446 70.8414 186.644 68.546L186.808 68.202C184.845 65.4699 183.542 62.3203 183 59C182.532 57.9521 181.924 56.9725 181.192 56.088C179.832 54.22 179 53.024 179 52C179 49.898 179.898 49 182 49C183.694 49 187.07 51.164 188.36 52.034C204.524 53.924 210.65 67.978 213.6 74.75C214.02 75.71 214.38 76.54 214.704 77.186C219.324 78.8971 223.462 81.7001 226.764 85.356C226.87 85.4827 226.944 85.6338 226.977 85.7958C227.011 85.9578 227.004 86.1255 226.957 86.2841C226.909 86.4427 226.824 86.587 226.707 86.7043C226.59 86.8216 226.446 86.908 226.288 86.956C226.108 87.012 222.356 88.132 219.392 88.754C220.446 90.1613 221.754 91.3581 223.25 92.282C224.596 93.1355 225.799 94.1951 226.816 95.422C226.922 95.5717 226.985 95.7476 226.998 95.9305C227.01 96.1135 226.973 96.2964 226.888 96.4593C226.804 96.6222 226.677 96.7588 226.52 96.8542C226.363 96.9496 226.183 97 226 97Z" fill="url(#paint0_linear_4896_3195)"/>
<path d="M191 59.9999C190.735 59.9999 190.48 59.8946 190.293 59.707C190.105 59.5195 190 59.2652 190 58.9999C190 58.7347 189.895 58.4804 189.707 58.2928C189.52 58.1053 189.265 57.9999 189 57.9999C188.735 57.9999 188.48 57.8946 188.293 57.707C188.105 57.5195 188 57.2652 188 56.9999C188 56.7347 188.105 56.4804 188.293 56.2928C188.48 56.1053 188.735 55.9999 189 55.9999C189.795 56.001 190.558 56.3174 191.12 56.8798C191.683 57.4422 191.999 58.2046 192 58.9999C192 59.2652 191.895 59.5195 191.707 59.707C191.52 59.8946 191.265 59.9999 191 59.9999Z" fill="url(#paint1_linear_4896_3195)"/>
<path d="M90.4062 85C92.6387 84.9979 94.862 85.2859 97.0205 85.8555C97.9415 86.104 98.8482 86.4041 99.7354 86.7549C99.7512 86.7737 99.7607 86.7977 99.7607 86.8223C99.7607 86.8469 99.7512 86.8707 99.7354 86.8896C99.3554 87.6895 98.9458 88.4696 98.5059 89.2295C98.4884 89.2417 98.4676 89.2489 98.4463 89.249C98.4248 89.249 98.4033 89.2418 98.3857 89.2295C97.4975 88.9067 96.5908 88.6366 95.6709 88.4199C89.7331 87.0463 83.4937 88.0359 78.2725 91.1797C80.5244 93.087 82.4412 95.3586 83.9424 97.8994C84.2423 98.4093 84.6017 99.0695 84.7666 99.3994C84.9315 99.7292 85.0219 99.894 85.2617 100.434C85.5016 100.973 85.7266 101.514 85.9365 102.068C87.0231 104.991 87.5767 108.085 87.5713 111.203C87.5728 114.737 86.8594 118.235 85.4727 121.485C84.0858 124.736 82.0542 127.672 79.502 130.116C79.112 130.491 78.6171 130.926 78.2871 131.211C77.9571 131.496 77.7172 131.692 77.2822 132.021C76.8473 132.351 76.3971 132.667 75.9473 132.981C75.9297 132.994 75.909 133 75.8877 133C75.8664 133 75.8456 132.994 75.8281 132.981C75.3783 132.682 74.8382 132.276 74.4932 132.021C74.1482 131.767 73.9082 131.571 73.4883 131.211C73.0683 130.851 72.6624 130.491 72.2725 130.116C68.5789 126.58 66.0018 122.04 64.8584 117.056C63.715 112.071 64.0558 106.861 65.8389 102.068C66.0338 101.529 66.3331 100.809 66.498 100.449C66.663 100.089 66.7232 99.9389 66.9932 99.4141C67.2631 98.8891 67.5184 98.394 67.8184 97.9141C69.3174 95.3718 71.2345 93.0999 73.4883 91.1943C68.2794 88.034 62.0453 87.0233 56.1045 88.375C55.1848 88.5925 54.2782 88.8627 53.3896 89.1846C53.372 89.1968 53.3506 89.2041 53.3291 89.2041C53.3078 89.204 53.287 89.1968 53.2695 89.1846C52.8146 88.4215 52.3988 87.6357 52.0244 86.8301C52.0086 86.8112 52 86.7873 52 86.7627C52 86.7381 52.0087 86.7142 52.0244 86.6953C52.9023 86.3638 53.7988 86.0834 54.709 85.8555C56.8821 85.2819 59.1216 84.994 61.3691 85C66.5372 84.9933 71.5908 86.5229 75.8877 89.3945C80.1853 86.5245 85.2384 84.9951 90.4062 85ZM68.1484 104.184C66.8938 108.149 66.7233 112.378 67.6543 116.432C68.5853 120.485 70.5835 124.216 73.4424 127.236C74.1585 124.966 74.5229 122.599 74.5225 120.218C74.5331 114.253 72.2513 108.513 68.1484 104.184ZM83.6719 104.184C79.569 108.513 77.2873 114.253 77.2979 120.218C77.3 122.598 77.6634 124.965 78.377 127.236C82.4785 122.907 84.761 117.167 84.752 111.203C84.7508 108.822 84.3865 106.455 83.6719 104.184ZM75.8877 92.8896C73.8145 94.5334 72.0344 96.516 70.623 98.7539C72.3492 99.1544 74.1157 99.3563 75.8877 99.3545C77.6597 99.3572 79.4264 99.1553 81.1523 98.7539C79.7392 96.5174 77.9593 94.5351 75.8877 92.8896Z" fill="url(#paint2_linear_4896_3195)"/>
<path d="M329.379 88.5075C335.284 88.5896 339.146 91.1454 341.483 93.6775C342.657 94.9487 343.445 96.214 343.906 97.154C344.002 97.3484 344.081 97.5279 344.147 97.6872C341.418 97.4438 339.577 97.8431 338.519 98.8698C337.285 100.067 337.388 101.818 337.842 103.36C338.307 104.941 339.221 106.599 340.036 107.926C340.447 108.594 340.842 109.192 341.152 109.665C341.48 110.163 341.678 110.469 341.747 110.611V110.612C342.231 111.605 342.838 112.295 343.316 112.807C343.51 113.014 343.661 113.174 343.787 113.316C343.632 113.355 343.451 113.405 343.265 113.476C342.834 113.641 342.341 113.926 341.987 114.475C341.646 115.005 341.492 115.696 341.54 116.574C341.423 117.839 340.586 123.673 340.169 125.78C339.89 127.152 339.451 128.041 338.73 128.676C337.991 129.327 336.864 129.796 335.037 130.129C332.943 130.509 331.701 130.099 330.927 129.547C330.126 128.975 329.712 128.174 329.412 127.539C329.312 127.327 329.193 126.851 329.09 126.088C328.99 125.351 328.912 124.421 328.858 123.355C328.751 121.225 328.741 118.592 328.827 115.965C328.83 115.875 328.814 115.789 328.787 115.709C328.751 115.49 328.688 115.279 328.604 115.085C328.304 114.4 327.706 113.788 326.968 113.529L326.969 113.528C326.718 113.44 326.29 113.286 325.779 113.324C325.655 113.333 325.529 113.354 325.404 113.385C325.415 113.35 325.425 113.313 325.437 113.276C325.609 112.751 325.871 112.178 326.17 111.494C326.379 111.018 326.633 110.591 326.946 109.971C327.244 109.383 327.55 108.7 327.773 107.867C328.223 106.186 328.312 103.981 327.484 100.733C327.119 99.2998 326.197 98.4687 325.054 98.0944C323.961 97.737 322.7 97.802 321.564 98.0241C320.416 98.2489 319.315 98.6497 318.495 99.0368C318.435 99.0654 318.375 99.0951 318.317 99.1237C318.332 98.9722 318.35 98.8107 318.371 98.6413C318.519 97.4744 318.838 95.9326 319.517 94.4079C320.194 92.8856 321.221 91.3986 322.775 90.3015C324.323 89.209 326.446 88.4669 329.379 88.5075ZM325.887 114.776C326.062 114.763 326.228 114.812 326.485 114.902H326.486C326.799 115.011 327.112 115.307 327.27 115.667C327.422 116.017 327.38 116.292 327.227 116.474C324.999 119.118 321.672 118.727 320.088 118.392H320.089C319.805 118.332 319.482 118.228 319.213 118.103C319.203 118.099 319.194 118.093 319.185 118.089C319.192 118.086 319.201 118.084 319.209 118.082C319.441 118.007 319.753 117.931 320.163 117.859L320.761 117.75C322.074 117.5 322.82 117.268 323.398 116.878C323.729 116.654 323.983 116.395 324.232 116.129C324.487 115.857 324.758 115.555 325.165 115.17C325.167 115.167 325.169 115.162 325.171 115.16C325.504 114.847 325.74 114.787 325.887 114.776ZM312.685 88.6335C315.081 88.5165 317.529 88.8835 319.391 89.2868C320.074 89.4349 320.675 89.5876 321.16 89.7204C319.774 90.9153 318.829 92.3754 318.188 93.8171C317.434 95.5108 317.087 97.2 316.928 98.4577C316.848 99.0883 316.813 99.6166 316.8 99.989C316.793 100.175 316.792 100.323 316.792 100.426C316.792 100.478 316.793 100.518 316.793 100.547C316.793 100.56 316.794 100.572 316.794 100.58V100.594L316.804 100.672C316.827 101.546 317.142 103.876 316.675 106.706C316.251 109.272 317.404 111.558 319.311 112.982C319.08 113.192 318.782 113.464 318.437 113.786C317.794 114.385 316.979 115.16 316.097 116.036L315.194 116.943C314.451 117.702 313.802 117.972 313.255 117.993C312.703 118.013 312.108 117.785 311.465 117.256C310.15 116.173 308.883 114.042 307.767 111.467C306.663 108.922 305.751 106.05 305.103 103.599C304.531 101.44 304.177 99.6531 304.064 98.7204L304.031 98.3747C303.802 94.5234 304.852 92.1966 306.419 90.7878C308.016 89.3527 310.277 88.7512 312.685 88.6335ZM344.731 114.573C344.94 114.726 345.21 114.87 345.551 114.99C346.615 115.364 348.435 115.519 351.612 114.971C351.519 115.037 351.417 115.109 351.305 115.179C350.837 115.475 350.245 115.777 349.58 116.039C348.535 116.45 346.757 116.729 345.216 116.744C344.447 116.751 343.792 116.692 343.349 116.575C343.166 116.527 343.053 116.473 342.989 116.436C342.963 115.805 343.086 115.459 343.212 115.263C343.343 115.06 343.533 114.933 343.784 114.837C343.913 114.788 344.05 114.749 344.198 114.713C344.327 114.681 344.515 114.639 344.658 114.596C344.679 114.59 344.704 114.582 344.731 114.573ZM321.844 99.4538C322.87 99.2531 323.847 99.2309 324.601 99.4773C325.304 99.7074 325.839 100.175 326.073 101.092C326.853 104.155 326.739 106.101 326.367 107.49C326.18 108.19 325.92 108.774 325.647 109.314C325.388 109.824 325.064 110.392 324.837 110.91H324.836C324.555 111.553 324.254 112.211 324.054 112.821C324.029 112.898 324.004 112.976 323.981 113.054C320.412 113.091 317.577 110.183 318.111 106.943C318.564 104.2 318.325 101.699 318.268 100.826C318.275 100.821 318.283 100.815 318.291 100.809C318.471 100.685 318.753 100.524 319.117 100.352C319.844 100.009 320.831 99.6521 321.844 99.4538ZM339.973 88.0007C343.65 87.9719 348.119 88.8256 351.337 92.3103V92.3093C351.743 92.7495 352.024 93.6645 351.998 95.1159C351.972 96.5291 351.657 98.3037 351.053 100.287C349.92 104.003 347.801 108.361 344.831 112.3C344.735 112.194 344.633 112.085 344.532 111.977C345.619 110.406 345.801 108.835 345.716 107.377C345.671 106.607 345.551 105.845 345.456 105.163C345.359 104.462 345.288 103.833 345.311 103.243V103.242C345.343 102.394 345.484 101.706 345.618 100.956C345.742 100.261 345.854 99.5262 345.819 98.6618C345.853 98.5311 345.852 98.413 345.848 98.3454C345.838 98.1874 345.799 98.0115 345.751 97.8444C345.651 97.4969 345.472 97.0379 345.214 96.5124C344.696 95.4567 343.831 94.0726 342.555 92.6902C341.043 91.0525 338.952 89.4158 336.184 88.3308C337.213 88.161 338.522 88.0121 339.973 88.0007ZM339.532 99.9138C340.153 99.3125 341.538 98.8666 344.368 99.1706C344.353 99.6903 344.279 100.176 344.186 100.699C344.058 101.412 343.893 102.215 343.856 103.187C343.829 103.918 343.917 104.659 344.015 105.363C344.115 106.085 344.222 106.766 344.263 107.462C344.329 108.594 344.208 109.7 343.551 110.812C343.432 110.643 343.316 110.461 343.206 110.263L343.056 109.974C342.934 109.725 342.664 109.315 342.369 108.866C342.057 108.391 341.674 107.81 341.276 107.164C340.475 105.86 339.647 104.338 339.238 102.95C338.819 101.523 338.916 100.512 339.532 99.9138ZM323.898 100.222C323.237 100.144 322.674 100.259 322.639 100.476C322.603 100.694 323.11 101.274 323.77 101.352C324.43 101.431 324.993 100.975 325.03 100.759C325.067 100.542 324.56 100.301 323.898 100.222ZM342.725 100.03C342.687 99.812 342.125 99.6974 341.465 99.7761C340.805 99.8548 340.297 100.093 340.333 100.312C340.369 100.531 340.933 100.987 341.595 100.908C342.256 100.829 342.761 100.25 342.726 100.032L342.725 100.03Z" fill="url(#paint3_linear_4896_3195)"/>
<g opacity="0.4">
<path d="M153 151.87V174.028C160.576 181.525 177.862 185.68 203 185.68C228.138 185.68 245.424 181.525 253 174.028V151.87C244.767 157.473 229.819 161.88 203 161.88C176.181 161.88 161.233 157.473 153 151.87Z" fill="url(#paint4_radial_4896_3195)"/>
<path d="M153 180.43V202.34C153 213.278 178.152 219 203 219C227.848 219 253 213.278 253 202.34V180.43C244.767 186.032 229.819 190.44 203 190.44C176.181 190.44 161.233 186.032 153 180.43ZM203 100C178.152 100 153 105.722 153 116.66V116.908C160.576 124.405 177.862 128.56 203 128.56C228.138 128.56 245.424 124.405 253 116.908V116.66C253 105.722 227.848 100 203 100Z" fill="url(#paint5_radial_4896_3195)"/>
<path d="M153 123.31V145.468C160.576 152.965 177.862 157.12 203 157.12C228.138 157.12 245.424 152.965 253 145.468V123.31C244.767 128.912 229.819 133.32 203 133.32C176.181 133.32 161.233 128.912 153 123.31Z" fill="url(#paint6_radial_4896_3195)"/>
</g>
<path d="M252.5 202.34C252.5 204.859 251.057 207.137 248.38 209.159C245.701 211.183 241.844 212.902 237.175 214.293C227.842 217.072 215.393 218.5 203 218.5C190.607 218.5 178.158 217.072 168.825 214.293C164.156 212.902 160.299 211.183 157.62 209.159C154.943 207.137 153.5 204.859 153.5 202.34V181.357C162.003 186.793 176.96 190.94 203 190.94C229.04 190.94 243.997 186.793 252.5 181.357V202.34ZM252.5 173.814C248.792 177.401 242.733 180.238 234.472 182.179C226.11 184.143 215.545 185.181 203 185.181C190.455 185.181 179.89 184.143 171.528 182.179C163.267 180.238 157.208 177.401 153.5 173.814V152.798C162.003 158.233 176.96 162.38 203 162.38C229.04 162.38 243.997 158.233 252.5 152.798V173.814ZM252.5 145.255C248.792 148.842 242.733 151.677 234.472 153.618C226.11 155.583 215.545 156.62 203 156.62C190.455 156.62 179.89 155.583 171.528 153.618C163.267 151.677 157.208 148.842 153.5 145.255V124.238C162.003 129.674 176.961 133.82 203 133.82C229.039 133.82 243.997 129.674 252.5 124.238V145.255ZM203 100.5C215.393 100.5 227.842 101.928 237.175 104.707C241.844 106.098 245.701 107.817 248.38 109.841C251.057 111.863 252.5 114.141 252.5 116.66V116.694C248.792 120.281 242.733 123.118 234.472 125.059C226.11 127.023 215.545 128.06 203 128.06C190.455 128.06 179.89 127.023 171.528 125.059C163.267 123.118 157.208 120.281 153.5 116.694V116.66C153.5 114.141 154.943 111.863 157.62 109.841C160.299 107.817 164.156 106.098 168.825 104.707C178.158 101.928 190.607 100.5 203 100.5Z" stroke="#3FA1E3"/>
</g>
<defs>
<filter id="filter0_f_4896_3195" x="-8" y="22" width="168" height="168" filterUnits="userSpaceOnUse" color-interpolation-filters="sRGB">
<feFlood flood-opacity="0" result="BackgroundImageFix"/>
<feBlend mode="normal" in="SourceGraphic" in2="BackgroundImageFix" result="shape"/>
<feGaussianBlur stdDeviation="16" result="effect1_foregroundBlur_4896_3195"/>
</filter>
<filter id="filter1_f_4896_3195" x="119" y="-9" width="168" height="168" filterUnits="userSpaceOnUse" color-interpolation-filters="sRGB">
<feFlood flood-opacity="0" result="BackgroundImageFix"/>
<feBlend mode="normal" in="SourceGraphic" in2="BackgroundImageFix" result="shape"/>
<feGaussianBlur stdDeviation="16" result="effect1_foregroundBlur_4896_3195"/>
</filter>
<filter id="filter2_f_4896_3195" x="244" y="22" width="168" height="168" filterUnits="userSpaceOnUse" color-interpolation-filters="sRGB">
<feFlood flood-opacity="0" result="BackgroundImageFix"/>
<feBlend mode="normal" in="SourceGraphic" in2="BackgroundImageFix" result="shape"/>
<feGaussianBlur stdDeviation="16" result="effect1_foregroundBlur_4896_3195"/>
</filter>
<linearGradient id="paint0_linear_4896_3195" x1="203" y1="49" x2="203" y2="97" gradientUnits="userSpaceOnUse">
<stop stop-color="#3FA1E3" stop-opacity="0.35"/>
<stop offset="0.605793" stop-color="#3FA1E3"/>
</linearGradient>
<linearGradient id="paint1_linear_4896_3195" x1="203" y1="49" x2="203" y2="97" gradientUnits="userSpaceOnUse">
<stop stop-color="#3FA1E3" stop-opacity="0.35"/>
<stop offset="0.605793" stop-color="#3FA1E3"/>
</linearGradient>
<linearGradient id="paint2_linear_4896_3195" x1="75.8804" y1="85" x2="75.8804" y2="133" gradientUnits="userSpaceOnUse">
<stop stop-color="#3FA1E3" stop-opacity="0.35"/>
<stop offset="0.605793" stop-color="#3FA1E3"/>
</linearGradient>
<linearGradient id="paint3_linear_4896_3195" x1="328" y1="88" x2="328" y2="130.277" gradientUnits="userSpaceOnUse">
<stop stop-color="#3FA1E3" stop-opacity="0.35"/>
<stop offset="0.605793" stop-color="#3FA1E3"/>
</linearGradient>
<radialGradient id="paint4_radial_4896_3195" cx="0" cy="0" r="1" gradientUnits="userSpaceOnUse" gradientTransform="translate(203 159.5) rotate(90) scale(59.5 50)">
<stop offset="0.480792" stop-color="#232F6F" stop-opacity="0"/>
<stop offset="1" stop-color="#232F6F"/>
</radialGradient>
<radialGradient id="paint5_radial_4896_3195" cx="0" cy="0" r="1" gradientUnits="userSpaceOnUse" gradientTransform="translate(203 159.5) rotate(90) scale(59.5 50)">
<stop offset="0.480792" stop-color="#232F6F" stop-opacity="0"/>
<stop offset="1" stop-color="#232F6F"/>
</radialGradient>
<radialGradient id="paint6_radial_4896_3195" cx="0" cy="0" r="1" gradientUnits="userSpaceOnUse" gradientTransform="translate(203 159.5) rotate(90) scale(59.5 50)">
<stop offset="0.480792" stop-color="#232F6F" stop-opacity="0"/>
<stop offset="1" stop-color="#232F6F"/>
</radialGradient>
<clipPath id="clip0_4896_3195">
<rect width="404" height="180" fill="white"/>
</clipPath>
</defs>
</svg>
