<svg width="404" height="180" viewBox="0 0 404 180" fill="none" xmlns="http://www.w3.org/2000/svg">
<g clip-path="url(#clip0_4834_1595)">
<g opacity="0.2" filter="url(#filter0_f_4834_1595)">
<circle cx="75" cy="90" r="52" fill="#3FA1E3"/>
</g>
<g opacity="0.2" filter="url(#filter1_f_4834_1595)">
<circle cx="202" cy="90" r="52" fill="#3FA1E3"/>
</g>
<g opacity="0.2" filter="url(#filter2_f_4834_1595)">
<circle cx="327" cy="90" r="52" fill="#3FA1E3"/>
</g>
<path d="M230.162 79.236C229.211 75.4299 227.086 71.9782 224.076 69.3928C220.626 66.4308 216.226 64.7997 211.685 64.7997C208.277 64.7997 205.014 65.6783 202.133 67.3568C199.083 64.5672 195.083 63 190.88 63C181.866 63 174.498 70.186 174.204 79.13C171.088 80.0011 168.266 81.7742 166.109 84.2475C163.46 87.283 162.001 91.175 162 95.2035C162 104.404 169.485 111.889 178.685 111.889H225.315C234.515 111.889 242 104.404 242 95.2035C242 87.8269 237.107 81.3466 230.162 79.236Z" fill="#0A0F2B" fill-opacity="0.8" stroke="url(#paint0_linear_4834_1595)"/>
<mask id="mask0_4834_1595" style="mask-type:alpha" maskUnits="userSpaceOnUse" x="185" y="77" width="21" height="25">
<path d="M185.111 77.9258H205.639V101.996H185.111V77.9258Z" fill="#3FA1E3"/>
</mask>
<g mask="url(#mask0_4834_1595)">
<path fill-rule="evenodd" clip-rule="evenodd" d="M199.991 77.9258H205.639L192.486 100.887C192.138 101.497 191.361 101.996 190.761 101.996H185.111L198.264 79.034C198.614 78.4243 199.39 77.9258 199.991 77.9258Z" fill="#3FA1E3"/>
</g>
<mask id="mask1_4834_1595" style="mask-type:alpha" maskUnits="userSpaceOnUse" x="194" y="77" width="22" height="25">
<path d="M194.805 77.9258H215.333V101.996H194.805V77.9258Z" fill="#3FA1E3"/>
</mask>
<g mask="url(#mask1_4834_1595)">
<path fill-rule="evenodd" clip-rule="evenodd" d="M209.684 77.9258H215.334L202.181 100.887C201.831 101.497 201.055 101.996 200.454 101.996H194.805L207.958 79.034C208.307 78.4243 209.084 77.9258 209.684 77.9258Z" fill="#3FA1E3"/>
</g>
<path d="M201.5 15.5C242.372 15.5 275.5 48.4102 275.5 89C275.5 129.59 242.372 162.5 201.5 162.5C160.628 162.5 127.5 129.59 127.5 89C127.5 48.4102 160.628 15.5 201.5 15.5Z" stroke="#232F6F"/>
<path d="M76.5 15.5C117.372 15.5 150.5 48.4102 150.5 89C150.5 129.59 117.372 162.5 76.5 162.5C35.6277 162.5 2.5 129.59 2.5 89C2.5 48.4102 35.6277 15.5 76.5 15.5Z" stroke="#232F6F"/>
<path d="M326.5 16.5C367.372 16.5 400.5 49.4102 400.5 90C400.5 130.59 367.372 163.5 326.5 163.5C285.628 163.5 252.5 130.59 252.5 90C252.5 49.4102 285.628 16.5 326.5 16.5Z" stroke="#232F6F"/>
<path d="M103.162 76.2729C102.211 72.4582 100.086 68.9986 97.0758 66.4073C93.6264 63.4386 89.2259 61.8038 84.6845 61.8038C81.2775 61.8038 78.0139 62.6844 75.1334 64.3667C72.083 61.5707 68.0833 60 63.8805 60C54.8659 60 47.4981 67.2024 47.2041 76.1667C44.0877 77.0398 41.2659 78.8169 39.1089 81.2958C36.4604 84.3382 35.0008 88.239 35 92.2767C35 101.498 42.485 109 51.6855 109H98.3145C107.515 109 115 101.498 115 92.2767C115 84.8833 110.107 78.3883 103.162 76.2729Z" fill="#0A0F2B" fill-opacity="0.8" stroke="url(#paint1_linear_4834_1595)"/>
<path d="M56.9881 99.6029L63.2542 89.0321C64.5148 86.9055 66.8037 85.6016 69.2758 85.6016H80.0796C82.5517 85.6016 84.8406 86.9055 86.1012 89.0321L92.3673 99.6029C93.6615 101.786 93.6725 104.499 92.3962 106.693L86.0922 117.528C84.8387 119.682 82.5342 121.008 80.0417 121.008H69.3137C66.8212 121.008 64.5167 119.682 63.2632 117.528L56.9592 106.693C55.6829 104.499 55.6939 101.786 56.9881 99.6029Z" fill="url(#paint2_linear_4834_1595)"/>
<path d="M72.5947 91.8516H68.0127L61.1397 102.808L68.0127 114.761H72.5947L65.7217 102.808L72.5947 91.8516Z" fill="#131313"/>
<path d="M76.7607 91.8516H81.3427L88.2157 102.808L81.3427 114.761H76.7607L83.6337 102.808L76.7607 91.8516Z" fill="#131313"/>
<path d="M349.625 77.25H334.625C333.589 77.25 332.75 76.4114 332.75 75.375C332.75 74.3386 333.589 73.5 334.625 73.5H349.625C350.661 73.5 351.5 74.3386 351.5 75.375C351.5 76.4114 350.661 77.25 349.625 77.25ZM319.375 77.25C318.34 77.25 317.5 76.4105 317.5 75.375C317.5 74.3392 318.34 73.5 319.375 73.5C320.41 73.5 321.25 74.3392 321.25 75.375C321.25 76.4105 320.41 77.25 319.375 77.25ZM311.875 77.25C310.84 77.25 310 76.4105 310 75.375C310 74.3392 310.84 73.5 311.875 73.5C312.91 73.5 313.75 74.3392 313.75 75.375C313.75 76.4105 312.91 77.25 311.875 77.25ZM304.375 77.25C303.34 77.25 302.5 76.4105 302.5 75.375C302.5 74.3392 303.34 73.5 304.375 73.5C305.41 73.5 306.25 74.3392 306.25 75.375C306.25 76.4105 305.41 77.25 304.375 77.25ZM353.375 66H300.625C297.523 66 295 68.5233 295 71.625V79.125C295 82.2267 297.523 84.75 300.625 84.75H353.375C356.477 84.75 359 82.2267 359 79.125V71.625C359 68.5233 356.477 66 353.375 66Z" fill="#0A0F2B" fill-opacity="0.8" stroke="url(#paint3_linear_4834_1595)"/>
<path d="M349.625 99.875H334.625C333.589 99.875 332.75 99.0364 332.75 98C332.75 96.9636 333.589 96.125 334.625 96.125H349.625C350.661 96.125 351.5 96.9636 351.5 98C351.5 99.0364 350.661 99.875 349.625 99.875ZM319.375 99.875C318.34 99.875 317.5 99.0355 317.5 98C317.5 96.9642 318.34 96.125 319.375 96.125C320.41 96.125 321.25 96.9642 321.25 98C321.25 99.0355 320.41 99.875 319.375 99.875ZM311.875 99.875C310.84 99.875 310 99.0355 310 98C310 96.9642 310.84 96.125 311.875 96.125C312.91 96.125 313.75 96.9642 313.75 98C313.75 99.0355 312.91 99.875 311.875 99.875ZM304.375 99.875C303.34 99.875 302.5 99.0355 302.5 98C302.5 96.9642 303.34 96.125 304.375 96.125C305.41 96.125 306.25 96.9642 306.25 98C306.25 99.0355 305.41 99.875 304.375 99.875ZM353.375 88.625H300.625C297.523 88.625 295 91.1483 295 94.25V101.75C295 104.852 297.523 107.375 300.625 107.375H353.375C356.477 107.375 359 104.852 359 101.75V94.25C359 91.1483 356.477 88.625 353.375 88.625Z" fill="#0A0F2B" fill-opacity="0.8" stroke="url(#paint4_linear_4834_1595)"/>
<path d="M309.096 100.001L315.362 89.4306C316.623 87.304 318.912 86 321.384 86H332.188C334.66 86 336.949 87.304 338.209 89.4306L344.475 100.001C345.77 102.185 345.781 104.897 344.504 107.091L338.2 117.926C336.947 120.081 334.642 121.406 332.15 121.406H321.422C318.929 121.406 316.625 120.081 315.371 117.926L309.067 107.091C307.791 104.897 307.802 102.185 309.096 100.001Z" fill="url(#paint5_linear_4834_1595)"/>
<path d="M324.703 92.25H320.121L313.248 103.207L320.121 115.16H324.703L317.83 103.207L324.703 92.25Z" fill="#131313"/>
<path d="M328.869 92.25H333.451L340.324 103.207L333.451 115.16H328.869L335.742 103.207L328.869 92.25Z" fill="#131313"/>
</g>
<defs>
<filter id="filter0_f_4834_1595" x="-9" y="6" width="168" height="168" filterUnits="userSpaceOnUse" color-interpolation-filters="sRGB">
<feFlood flood-opacity="0" result="BackgroundImageFix"/>
<feBlend mode="normal" in="SourceGraphic" in2="BackgroundImageFix" result="shape"/>
<feGaussianBlur stdDeviation="16" result="effect1_foregroundBlur_4834_1595"/>
</filter>
<filter id="filter1_f_4834_1595" x="118" y="6" width="168" height="168" filterUnits="userSpaceOnUse" color-interpolation-filters="sRGB">
<feFlood flood-opacity="0" result="BackgroundImageFix"/>
<feBlend mode="normal" in="SourceGraphic" in2="BackgroundImageFix" result="shape"/>
<feGaussianBlur stdDeviation="16" result="effect1_foregroundBlur_4834_1595"/>
</filter>
<filter id="filter2_f_4834_1595" x="243" y="6" width="168" height="168" filterUnits="userSpaceOnUse" color-interpolation-filters="sRGB">
<feFlood flood-opacity="0" result="BackgroundImageFix"/>
<feBlend mode="normal" in="SourceGraphic" in2="BackgroundImageFix" result="shape"/>
<feGaussianBlur stdDeviation="16" result="effect1_foregroundBlur_4834_1595"/>
</filter>
<linearGradient id="paint0_linear_4834_1595" x1="202" y1="63" x2="202" y2="111.889" gradientUnits="userSpaceOnUse">
<stop stop-color="#3FA1E3"/>
<stop offset="1" stop-color="#3FA1E3" stop-opacity="0.35"/>
</linearGradient>
<linearGradient id="paint1_linear_4834_1595" x1="75" y1="60" x2="75" y2="109" gradientUnits="userSpaceOnUse">
<stop stop-color="#3FA1E3"/>
<stop offset="1" stop-color="#3FA1E3" stop-opacity="0.35"/>
</linearGradient>
<linearGradient id="paint2_linear_4834_1595" x1="74.6777" y1="85.6016" x2="74.6777" y2="121.008" gradientUnits="userSpaceOnUse">
<stop stop-color="#3FA1E3" stop-opacity="0.35"/>
<stop offset="0.605793" stop-color="#3FA1E3"/>
</linearGradient>
<linearGradient id="paint3_linear_4834_1595" x1="327" y1="84.75" x2="327" y2="66" gradientUnits="userSpaceOnUse">
<stop stop-color="#3FA1E3"/>
<stop offset="1" stop-color="#3FA1E3" stop-opacity="0.35"/>
</linearGradient>
<linearGradient id="paint4_linear_4834_1595" x1="327" y1="107.375" x2="327" y2="88.625" gradientUnits="userSpaceOnUse">
<stop stop-color="#3FA1E3"/>
<stop offset="1" stop-color="#3FA1E3" stop-opacity="0.35"/>
</linearGradient>
<linearGradient id="paint5_linear_4834_1595" x1="326.786" y1="86" x2="326.786" y2="121.406" gradientUnits="userSpaceOnUse">
<stop stop-color="#3FA1E3" stop-opacity="0.35"/>
<stop offset="0.605793" stop-color="#3FA1E3"/>
</linearGradient>
<clipPath id="clip0_4834_1595">
<rect width="404" height="180" fill="white"/>
</clipPath>
</defs>
</svg>
