<svg width="507" height="242" viewBox="0 0 507 242" fill="none" xmlns="http://www.w3.org/2000/svg">
<g opacity="0.3" filter="url(#filter0_f_508_1678)">
<circle cx="253" cy="121" r="38" fill="#3EBBDF"/>
</g>
<circle cx="59" cy="80" r="28" fill="#A6E8C2"/>
<circle cx="59" cy="164" r="28" fill="#A6E8C2"/>
<circle cx="253" cy="39" r="20" fill="#F5EDA7"/>
<circle cx="253" cy="203" r="20" fill="#F5D1A7"/>
<circle cx="253" cy="121" r="30" fill="#3EBBDF"/>
<rect x="394" y="81" width="113" height="25" rx="4" fill="#05A6F0"/>
<rect x="394" y="110" width="113" height="26" rx="4" fill="#444444"/>
<rect x="394" y="163" width="113" height="26" rx="4" fill="#475392"/>
<rect x="394" y="52" width="113" height="25" rx="4" fill="#05A6F0"/>
<rect x="398" y="56" width="17" height="17" rx="2" fill="white"/>
<rect x="398" y="85" width="17" height="17" rx="2" fill="white"/>
<rect x="398" y="114" width="17" height="17" rx="2" fill="white"/>
<rect x="398" y="167" width="17" height="18" rx="2" fill="white"/>
<g clip-path="url(#clip0_508_1678)">
<path d="M412.372 64.9117C412.372 64.5016 412.337 64.1123 412.277 63.7334H406.627V66.0745H409.862C409.717 66.8427 409.292 67.4916 408.662 67.9328V69.49H410.592C411.722 68.4052 412.372 66.8064 412.372 64.9117Z" fill="#4285F4"/>
<path d="M406.626 71.0003C408.246 71.0003 409.601 70.4397 410.591 69.4897L408.661 67.9325C408.121 68.3062 407.436 68.5346 406.626 68.5346C405.061 68.5346 403.736 67.4393 403.261 65.96H401.271V67.5639C402.256 69.5987 404.281 71.0003 406.626 71.0003Z" fill="#34A853"/>
<path d="M403.262 65.9599C403.137 65.5861 403.072 65.1865 403.072 64.7712C403.072 64.3559 403.142 63.9562 403.262 63.5825V61.9785H401.272C400.862 62.8194 400.627 63.7642 400.627 64.7712C400.627 65.7782 400.862 66.7229 401.272 67.5639L403.262 65.9599Z" fill="#FBBC05"/>
<path d="M406.626 61.0076C407.511 61.0076 408.301 61.3243 408.926 61.942L410.636 60.1667C409.601 59.1597 408.246 58.542 406.626 58.542C404.281 58.542 402.256 59.9435 401.271 61.9783L403.261 63.5823C403.736 62.1029 405.061 61.0076 406.626 61.0076Z" fill="#EA4335"/>
</g>
<g clip-path="url(#clip1_508_1678)">
<path d="M401 88H406.238V93.2381H401V88Z" fill="#F35325"/>
<path d="M406.762 88H412V93.2381H406.762V88Z" fill="#81BC06"/>
<path d="M401 93.7617H406.238V98.9998H401V93.7617Z" fill="#05A6F0"/>
<path d="M406.762 93.7617H412V98.9998H406.762V93.7617Z" fill="#FFBA08"/>
</g>
<path d="M236.096 117.305L241.949 107.431C243.21 105.304 245.499 104 247.971 104H258.029C260.501 104 262.79 105.304 264.051 107.431L269.904 117.305C271.198 119.488 271.209 122.201 269.933 124.394L264.042 134.52C262.788 136.675 260.484 138 257.991 138H248.009C245.516 138 243.212 136.675 241.958 134.52L236.067 124.394C234.791 122.201 234.802 119.488 236.096 117.305Z" fill="white"/>
<path d="M251 110H246.6L240 120.522L246.6 132H251L244.4 120.522L251 110Z" fill="#3EBBDF"/>
<path d="M255 110H259.4L266 120.522L259.4 132H255L261.6 120.522L255 110Z" fill="#3EBBDF"/>
<path d="M69.2234 67.7412H43.5699C42.7042 67.7412 42 68.4455 42 69.3111V86.4135C42 87.2791 42.7042 87.9834 43.5699 87.9834H52.6224L52.2132 91.2569H51.5866C51.3099 91.2569 51.0856 91.4812 51.0856 91.758C51.0856 92.0346 51.3099 92.259 51.5866 92.259H54.2589C54.5356 92.259 54.7599 92.0347 54.7599 91.758C54.7599 91.4813 54.5356 91.2569 54.2589 91.2569H53.2231L53.6323 87.9834H54.2589C54.5356 87.9834 54.7599 87.7591 54.7599 87.4823C54.7599 87.2056 54.5356 86.9813 54.2589 86.9813H43.5699C43.2568 86.9813 43.0021 86.7265 43.0021 86.4134V84.7766H54.2589C54.5356 84.7766 54.7599 84.5523 54.7599 84.2756C54.7599 83.9988 54.5356 83.7745 54.2589 83.7745H43.0021V69.3111C43.0021 68.998 43.2568 68.7433 43.5699 68.7433H69.2234C69.5365 68.7433 69.7913 68.998 69.7913 69.3111V80.0001C69.7913 80.2768 70.0156 80.5011 70.2923 80.5011C70.569 80.5011 70.7934 80.2768 70.7934 80.0001V69.3111C70.7933 68.4455 70.0891 67.7412 69.2234 67.7412Z" fill="#0D1541"/>
<path d="M64.9477 77.3613H57.4654C56.5998 77.3613 55.8955 78.0656 55.8955 78.9313V90.6891C55.8955 91.5548 56.5998 92.259 57.4654 92.259H64.9477C65.8134 92.259 66.5176 91.5548 66.5176 90.6891V78.9313C66.5176 78.0656 65.8134 77.3613 64.9477 77.3613ZM65.5156 90.6891C65.5156 91.0022 65.2608 91.257 64.9477 91.257H57.4654C57.1523 91.257 56.8976 91.0022 56.8976 90.6891V90.1212H65.5155V90.6891H65.5156ZM65.5156 89.1191H56.8976V80.5012H65.5155V89.1191H65.5156ZM65.5156 79.4991H56.8976V78.9312C56.8976 78.6181 57.1523 78.3633 57.4654 78.3633H64.9477C65.2608 78.3633 65.5156 78.6181 65.5156 78.9312V79.4991V79.4991Z" fill="#0D1541"/>
<path d="M72.4299 81.6367H69.2233C68.3576 81.6367 67.6533 82.341 67.6533 83.2067V90.6889C67.6533 91.5546 68.3576 92.2588 69.2233 92.2588H72.4299C73.2956 92.2588 73.9999 91.5546 73.9999 90.6889V83.2067C73.9999 82.341 73.2956 81.6367 72.4299 81.6367ZM72.9978 90.6889C72.9978 91.002 72.7431 91.2568 72.4299 91.2568H69.2233C68.9101 91.2568 68.6554 91.002 68.6554 90.6889V90.121H72.9978V90.6889H72.9978ZM72.9978 89.119H68.6554V84.7766H72.9978V89.119ZM72.9978 83.7745H68.6554V83.2067C68.6554 82.8935 68.9102 82.6388 69.2233 82.6388H72.43C72.7431 82.6388 72.9979 82.8935 72.9979 83.2067V83.7745H72.9978Z" fill="#0D1541"/>
<g clip-path="url(#clip2_508_1678)">
<path d="M58.9996 155.476C57.3137 155.475 55.6656 155.975 54.2637 156.912C52.8618 157.848 51.7691 159.179 51.1238 160.737C50.4784 162.294 50.3095 164.008 50.6383 165.662C50.9671 167.315 51.7788 168.834 52.9709 170.027C54.1629 171.219 55.6818 172.031 57.3353 172.36C58.9888 172.689 60.7028 172.52 62.2604 171.875C63.818 171.23 65.1493 170.137 66.086 168.735C67.0227 167.334 67.5226 165.686 67.5226 164C67.52 161.74 66.6212 159.573 65.0234 157.975C63.4257 156.378 61.2593 155.478 58.9996 155.476V155.476ZM58.9996 171.523C57.5114 171.523 56.0566 171.082 54.8191 170.255C53.5817 169.428 52.6171 168.253 52.0475 166.878C51.4779 165.503 51.3289 163.991 51.6191 162.531C51.9094 161.071 52.626 159.731 53.6783 158.678C54.7307 157.626 56.0714 156.909 57.531 156.619C58.9906 156.329 60.5035 156.478 61.8784 157.048C63.2533 157.617 64.4283 158.582 65.255 159.819C66.0817 161.057 66.5228 162.511 66.5226 164C66.5202 165.994 65.7269 167.906 64.3165 169.317C62.9062 170.727 60.9941 171.52 58.9996 171.523Z" fill="#0D1541"/>
<path d="M74.0069 160.962L71.8409 160.546C71.5418 159.432 71.098 158.362 70.5209 157.363L71.7599 155.536C71.8257 155.44 71.8557 155.323 71.8447 155.207C71.8338 155.091 71.7825 154.982 71.6999 154.9L68.0999 151.3C68.0177 151.218 67.9094 151.167 67.7937 151.156C67.678 151.145 67.5621 151.175 67.4659 151.24L65.6379 152.479C64.6388 151.902 63.5683 151.458 62.4539 151.159L62.0379 148.993C62.0161 148.879 61.9551 148.776 61.8655 148.702C61.7758 148.627 61.6632 148.587 61.5469 148.587H56.4529C56.3366 148.587 56.224 148.627 56.1344 148.702C56.0448 148.776 55.9838 148.879 55.9619 148.993L55.5459 151.159C54.4319 151.458 53.3619 151.902 52.3629 152.479L50.5359 151.24C50.4396 151.174 50.3232 151.144 50.2071 151.155C50.0909 151.166 49.9823 151.217 49.8999 151.3L46.2999 154.9C46.2178 154.982 46.1669 155.09 46.1559 155.206C46.145 155.322 46.1747 155.438 46.2399 155.534L47.4789 157.363C46.9021 158.362 46.4584 159.432 46.1589 160.546L43.9929 160.962C43.8787 160.984 43.7757 161.045 43.7016 161.134C43.6275 161.224 43.5869 161.337 43.5869 161.453V166.546C43.5867 166.662 43.6271 166.775 43.7013 166.865C43.7754 166.955 43.8785 167.016 43.9929 167.038L46.1589 167.454C46.4578 168.568 46.9015 169.638 47.4789 170.636L46.2399 172.464C46.1747 172.56 46.145 172.676 46.1559 172.792C46.1669 172.907 46.2178 173.016 46.2999 173.098L49.8999 176.698C49.982 176.78 50.0902 176.831 50.2059 176.842C50.3217 176.854 50.4376 176.824 50.5339 176.759L52.3609 175.52C53.3597 176.097 54.4298 176.541 55.5439 176.84L55.9599 179.006C55.9818 179.12 56.0428 179.223 56.1324 179.297C56.222 179.371 56.3346 179.412 56.4509 179.412H61.5449C61.6612 179.412 61.7738 179.371 61.8635 179.297C61.9531 179.223 62.0141 179.12 62.0359 179.006L62.4519 176.84C63.5663 176.541 64.6368 176.097 65.6359 175.52L67.4629 176.759C67.5592 176.825 67.6757 176.855 67.7921 176.845C67.9085 176.834 68.0174 176.783 68.0999 176.7L71.6999 173.1C71.7824 173.018 71.8337 172.909 71.8448 172.793C71.856 172.677 71.8263 172.561 71.7609 172.465L70.5219 170.638C71.0988 169.639 71.5426 168.57 71.8419 167.456L74.0089 167.04C74.1231 167.018 74.226 166.957 74.2999 166.867C74.3739 166.777 74.4142 166.664 74.4139 166.548V161.453C74.4138 161.336 74.3732 161.224 74.2989 161.134C74.2246 161.044 74.1213 160.984 74.0069 160.962ZM73.4129 166.133L71.3399 166.533C71.2455 166.551 71.1584 166.596 71.0889 166.662C71.0193 166.729 70.9704 166.813 70.9479 166.907C70.6488 168.137 70.1603 169.313 69.4999 170.393C69.4497 170.475 69.4243 170.57 69.4266 170.666C69.4289 170.762 69.4589 170.855 69.5129 170.935L70.6999 172.683L67.6839 175.7L65.9359 174.515C65.8572 174.462 65.765 174.432 65.6701 174.429C65.5752 174.427 65.4815 174.451 65.3999 174.5C64.3157 175.162 63.1348 175.651 61.8999 175.95C61.8068 175.973 61.7222 176.021 61.656 176.091C61.5899 176.16 61.5451 176.247 61.5269 176.341L61.1269 178.413H56.8659L56.4659 176.341C56.4477 176.247 56.4027 176.16 56.3364 176.09C56.2701 176.021 56.1852 175.972 56.0919 175.95C54.8618 175.65 53.6858 175.161 52.6059 174.5C52.524 174.45 52.4294 174.425 52.3335 174.427C52.2376 174.429 52.1443 174.459 52.0649 174.513L50.3169 175.7L47.2999 172.683L48.4849 170.934C48.5386 170.855 48.5683 170.762 48.5706 170.666C48.5729 170.57 48.5477 170.476 48.4979 170.394C47.838 169.313 47.3496 168.136 47.0499 166.905C47.0275 166.812 46.9787 166.727 46.9094 166.66C46.84 166.594 46.7531 166.549 46.6589 166.531L44.5869 166.131V161.866L46.6589 161.466C46.7521 161.448 46.8383 161.404 46.9076 161.34C46.9768 161.275 47.0262 161.192 47.0499 161.1C47.3493 159.867 47.8385 158.688 48.4999 157.606C48.5499 157.524 48.5752 157.429 48.5729 157.334C48.5706 157.238 48.5408 157.144 48.4869 157.065L47.2999 155.317L50.3169 152.3L52.0649 153.484C52.1443 153.538 52.2376 153.568 52.3335 153.57C52.4294 153.572 52.524 153.547 52.6059 153.497C53.6886 152.837 54.8673 152.348 56.0999 152.05C56.1932 152.027 56.2781 151.979 56.3444 151.909C56.4107 151.84 56.4557 151.753 56.4739 151.659L56.8739 149.587H61.1419L61.5419 151.659C61.5601 151.753 61.6049 151.84 61.671 151.909C61.7372 151.978 61.8218 152.027 61.9149 152.05C63.1446 152.35 64.3203 152.839 65.3999 153.5C65.4818 153.55 65.5764 153.575 65.6723 153.573C65.7683 153.571 65.8615 153.541 65.9409 153.487L67.6839 152.3L70.6999 155.317L69.5149 157.065C69.4611 157.144 69.4312 157.238 69.4289 157.334C69.4266 157.429 69.4519 157.524 69.5019 157.606C70.1625 158.688 70.6503 159.867 70.9479 161.1C70.9705 161.193 71.0196 161.279 71.0893 161.345C71.159 161.411 71.2464 161.456 71.3409 161.474L73.4129 161.874V166.133Z" fill="#0D1541"/>
<path d="M56.8778 164.405L55.8928 161.957C55.8556 161.864 55.7918 161.785 55.7095 161.73C55.6272 161.674 55.5302 161.644 55.4308 161.644V161.644C55.3317 161.643 55.2348 161.673 55.1523 161.728C55.0699 161.783 55.0057 161.861 54.9678 161.953L53.9528 164.4L53.2918 166C53.2667 166.06 53.2538 166.125 53.2539 166.191C53.254 166.257 53.267 166.322 53.2922 166.383C53.3174 166.443 53.3543 166.498 53.4008 166.545C53.4474 166.591 53.5026 166.628 53.5633 166.653C53.624 166.678 53.6891 166.691 53.7548 166.691C53.8205 166.691 53.8856 166.678 53.9463 166.653C54.007 166.627 54.0621 166.591 54.1085 166.544C54.1549 166.497 54.1917 166.442 54.2168 166.382L54.7488 165.094H56.0798L56.5978 166.378C56.621 166.44 56.6566 166.498 56.7024 166.546C56.7483 166.595 56.8034 166.634 56.8645 166.661C56.9257 166.688 56.9916 166.702 57.0584 166.704C57.1253 166.705 57.1917 166.692 57.2536 166.667C57.3156 166.642 57.372 166.605 57.4194 166.558C57.4667 166.511 57.5042 166.455 57.5294 166.393C57.5547 166.331 57.5673 166.265 57.5665 166.198C57.5657 166.131 57.5515 166.065 57.5248 166.004L56.8778 164.405ZM55.1608 164.1L55.4218 163.467L55.6768 164.1H55.1608Z" fill="#0D1541"/>
<path d="M63.3057 161.3C63.1731 161.3 63.0459 161.352 62.9521 161.446C62.8583 161.54 62.8057 161.667 62.8057 161.8V166.2C62.8057 166.332 62.8583 166.46 62.9521 166.553C63.0459 166.647 63.1731 166.7 63.3057 166.7C63.4383 166.7 63.5654 166.647 63.6592 166.553C63.753 166.46 63.8057 166.332 63.8057 166.2V161.8C63.8057 161.667 63.753 161.54 63.6592 161.446C63.5654 161.352 63.4383 161.3 63.3057 161.3Z" fill="#0D1541"/>
<path d="M60.1548 161.3H58.8818C58.7492 161.3 58.6221 161.352 58.5283 161.446C58.4345 161.54 58.3818 161.667 58.3818 161.8V166.2C58.3818 166.332 58.4345 166.46 58.5283 166.553C58.6221 166.647 58.7492 166.7 58.8818 166.7C59.0144 166.7 59.1416 166.647 59.2354 166.553C59.3292 166.46 59.3818 166.332 59.3818 166.2V164.5H60.1548C60.5792 164.5 60.9861 164.331 61.2862 164.031C61.5863 163.731 61.7548 163.324 61.7548 162.9C61.7548 162.475 61.5863 162.068 61.2862 161.768C60.9861 161.468 60.5792 161.3 60.1548 161.3V161.3ZM60.1548 163.5H59.3818V162.3H60.1548C60.314 162.3 60.4666 162.363 60.5791 162.476C60.6916 162.588 60.7548 162.741 60.7548 162.9C60.7548 163.059 60.6916 163.212 60.5791 163.324C60.4666 163.437 60.314 163.5 60.1548 163.5V163.5Z" fill="#0D1541"/>
</g>
<path d="M253.018 192.502C250.484 192.502 248.19 192.84 246.486 193.408C245.634 193.692 244.929 194.03 244.403 194.444C243.877 194.859 243.505 195.39 243.504 196.007L243.504 210.03C243.504 210.647 243.877 211.178 244.403 211.593C244.929 212.007 245.635 212.345 246.487 212.629C248.19 213.197 250.485 213.535 253.019 213.535C255.553 213.535 257.847 213.197 259.551 212.629C260.403 212.345 261.109 212.007 261.634 211.593C262.16 211.178 262.534 210.647 262.534 210.03V196.007H262.533C262.533 195.39 262.161 194.859 261.635 194.444C261.11 194.03 260.402 193.692 259.55 193.408C257.846 192.84 255.552 192.502 253.018 192.502ZM253.018 193.504C255.462 193.504 257.675 193.838 259.234 194.358C260.014 194.618 260.628 194.927 261.014 195.232C261.401 195.536 261.532 195.797 261.532 196.008C261.532 196.22 261.401 196.478 261.014 196.783C260.628 197.087 260.014 197.397 259.234 197.657C257.675 198.177 255.462 198.511 253.018 198.511C250.574 198.511 248.363 198.177 246.804 197.657C246.025 197.397 245.41 197.087 245.024 196.783C244.637 196.478 244.506 196.22 244.506 196.008C244.506 195.797 244.637 195.536 245.024 195.232C245.41 194.927 246.025 194.618 246.804 194.358C248.363 193.838 250.574 193.504 253.018 193.504V193.504ZM244.505 197.646C245.019 198.026 245.688 198.341 246.486 198.607C248.19 199.175 250.484 199.513 253.018 199.513C255.552 199.513 257.846 199.175 259.55 198.607C260.349 198.341 261.018 198.026 261.532 197.646L261.532 200.515C261.532 200.726 261.401 200.987 261.014 201.291C260.628 201.596 260.014 201.904 259.234 202.164C257.675 202.683 255.462 203.019 253.018 203.019C250.574 203.019 248.363 202.683 246.804 202.164C246.025 201.904 245.41 201.596 245.024 201.291C244.637 200.987 244.506 200.726 244.506 200.515L244.505 197.646ZM244.505 202.153C245.019 202.533 245.688 202.847 246.486 203.113C248.19 203.681 250.484 204.019 253.018 204.019C255.552 204.019 257.846 203.681 259.55 203.113C260.349 202.847 261.018 202.532 261.532 202.153L261.532 205.522C261.532 205.734 261.401 205.993 261.014 206.298C260.628 206.603 260.014 206.913 259.234 207.172C257.675 207.692 255.462 208.026 253.018 208.026C250.574 208.026 248.363 207.692 246.804 207.172C246.025 206.913 245.41 206.603 245.024 206.298C244.637 205.993 244.506 205.734 244.506 205.522L244.505 202.153ZM244.505 207.162C245.019 207.541 245.688 207.856 246.486 208.123C248.19 208.691 250.484 209.028 253.018 209.028C255.552 209.028 257.846 208.691 259.55 208.123C260.349 207.857 261.018 207.541 261.532 207.162V210.03C261.532 210.241 261.401 210.501 261.015 210.806C260.628 211.11 260.014 211.419 259.235 211.679C257.676 212.199 255.463 212.533 253.019 212.533C250.575 212.533 248.362 212.199 246.803 211.679C246.024 211.419 245.409 211.11 245.023 210.806C244.636 210.501 244.505 210.241 244.505 210.03V207.162Z" fill="#0D1541"/>
<path d="M259.492 208.741C259.359 208.744 259.233 208.798 259.141 208.894C259.049 208.989 258.999 209.116 259.001 209.249V210.249C258.997 210.317 259.007 210.385 259.03 210.449C259.053 210.513 259.09 210.572 259.136 210.621C259.183 210.671 259.239 210.71 259.302 210.737C259.365 210.764 259.432 210.778 259.5 210.778C259.568 210.778 259.636 210.764 259.698 210.737C259.761 210.71 259.817 210.671 259.864 210.621C259.911 210.572 259.947 210.513 259.97 210.449C259.993 210.385 260.003 210.317 259.999 210.249V209.249C260 209.182 259.988 209.115 259.963 209.053C259.938 208.991 259.9 208.935 259.853 208.888C259.806 208.84 259.749 208.803 259.687 208.778C259.625 208.753 259.559 208.74 259.492 208.741Z" fill="#0D1541"/>
<path d="M257.742 209.241C257.676 209.242 257.611 209.256 257.551 209.282C257.491 209.308 257.436 209.346 257.39 209.393C257.345 209.44 257.309 209.496 257.284 209.557C257.26 209.618 257.248 209.683 257.249 209.749V210.749C257.249 210.882 257.302 211.009 257.396 211.103C257.489 211.196 257.617 211.249 257.749 211.249C257.882 211.249 258.009 211.196 258.103 211.103C258.197 211.009 258.249 210.882 258.249 210.749V209.749C258.25 209.682 258.238 209.615 258.213 209.553C258.188 209.491 258.15 209.435 258.103 209.388C258.056 209.34 257.999 209.303 257.937 209.278C257.875 209.253 257.809 209.24 257.742 209.241V209.241Z" fill="#0D1541"/>
<path d="M259.492 203.993C259.36 203.996 259.234 204.05 259.142 204.145C259.05 204.24 258.999 204.367 259.001 204.499V205.499C258.997 205.567 259.007 205.635 259.03 205.699C259.053 205.763 259.09 205.822 259.136 205.871C259.183 205.921 259.239 205.96 259.302 205.987C259.365 206.014 259.432 206.028 259.5 206.028C259.568 206.028 259.636 206.014 259.698 205.987C259.761 205.96 259.817 205.921 259.864 205.871C259.911 205.822 259.947 205.763 259.97 205.699C259.993 205.635 260.003 205.567 259.999 205.499V204.499C260 204.432 259.987 204.366 259.962 204.304C259.937 204.242 259.899 204.186 259.852 204.139C259.805 204.092 259.749 204.055 259.687 204.03C259.625 204.005 259.559 203.992 259.492 203.993V203.993Z" fill="#0D1541"/>
<path d="M257.742 204.493C257.609 204.495 257.483 204.549 257.391 204.644C257.299 204.739 257.248 204.867 257.249 204.999V205.999C257.249 206.132 257.302 206.259 257.396 206.353C257.489 206.447 257.617 206.499 257.749 206.499C257.882 206.499 258.009 206.447 258.103 206.353C258.197 206.259 258.249 206.132 258.249 205.999V204.999C258.25 204.932 258.237 204.866 258.212 204.804C258.187 204.742 258.15 204.686 258.102 204.639C258.055 204.592 257.999 204.555 257.937 204.53C257.875 204.505 257.809 204.492 257.742 204.493V204.493Z" fill="#0D1541"/>
<path d="M259.492 199.243C259.359 199.246 259.233 199.3 259.141 199.396C259.049 199.491 258.999 199.618 259.001 199.751V200.749C258.997 200.817 259.007 200.885 259.03 200.949C259.053 201.013 259.09 201.072 259.136 201.121C259.183 201.171 259.239 201.21 259.302 201.237C259.365 201.264 259.432 201.278 259.5 201.278C259.568 201.278 259.636 201.264 259.698 201.237C259.761 201.21 259.817 201.171 259.864 201.121C259.911 201.072 259.947 201.013 259.97 200.949C259.993 200.885 260.003 200.817 259.999 200.749V199.751C260 199.684 259.988 199.617 259.963 199.555C259.938 199.493 259.9 199.437 259.853 199.39C259.806 199.342 259.749 199.305 259.687 199.28C259.625 199.255 259.559 199.242 259.492 199.243V199.243Z" fill="#0D1541"/>
<path d="M257.742 199.743C257.609 199.745 257.483 199.799 257.391 199.894C257.299 199.989 257.248 200.117 257.249 200.249V201.249C257.249 201.382 257.302 201.509 257.396 201.603C257.489 201.697 257.617 201.749 257.749 201.749C257.882 201.749 258.009 201.697 258.103 201.603C258.197 201.509 258.249 201.382 258.249 201.249V200.249C258.25 200.182 258.237 200.116 258.212 200.054C258.187 199.992 258.15 199.936 258.102 199.889C258.055 199.842 257.999 199.805 257.937 199.78C257.875 199.755 257.809 199.742 257.742 199.743V199.743Z" fill="#0D1541"/>
<path d="M260.646 40.624H252.979C252.715 40.624 252.5 40.8387 252.5 41.1032C252.5 41.3677 252.715 41.5824 252.979 41.5824H260.646C260.91 41.5824 261.125 41.3677 261.125 41.1032C261.125 40.8387 260.91 40.624 260.646 40.624Z" fill="#0D1541"/>
<path fill-rule="evenodd" clip-rule="evenodd" d="M264 39.1865V41.1032C264 41.5062 263.899 41.8846 263.721 42.2166C263.646 42.264 263.572 42.3555 263.5 42.4988C263.461 42.5775 263.415 42.6504 263.363 42.7178C263.26 42.8285 263.148 42.9296 263.026 43.0198C263.031 43.0232 263.035 43.0265 263.04 43.0299C262.542 43.3934 261.863 43.4988 261.5 43.4988H243.5C242.807 43.4988 242.303 43.2762 241.968 43.0239C241.97 43.0226 241.972 43.0212 241.974 43.0199C241.889 42.9569 241.808 42.8885 241.733 42.8153C241.621 42.6988 241.544 42.5871 241.5 42.4988L241.485 42.5365C241.181 42.1374 241 41.6419 241 41.1032V39.1865C241 38.7198 241.14 38.2866 241.372 37.9177C241.374 37.9135 241.375 37.9093 241.377 37.9053C241.378 37.9009 241.379 37.8967 241.381 37.8928L244.345 33.1299C244.784 32.4226 245.544 32 246.379 32H258.624C259.458 32 260.218 32.4226 260.658 33.1299L263.621 37.8928C263.626 37.8995 263.628 37.9072 263.63 37.9149C263.632 37.9213 263.634 37.9278 263.637 37.934C263.863 38.3001 264 38.7265 264 39.1865ZM246.378 32.9574C245.878 32.9574 245.422 33.2113 245.158 33.6359L243.181 36.8127C243.207 36.8103 243.232 36.8068 243.258 36.8033C243.303 36.797 243.349 36.7907 243.396 36.7907H261.604C261.651 36.7907 261.697 36.797 261.743 36.8033C261.768 36.8068 261.794 36.8103 261.82 36.8127L259.843 33.6359C259.579 33.2113 259.123 32.9574 258.623 32.9574H246.378ZM261.604 42.5407C262.397 42.5407 263.042 41.8957 263.042 41.1032L263.042 39.1865C263.042 38.394 262.397 37.749 261.604 37.749H243.396C242.603 37.749 241.958 38.394 241.958 39.1865V41.1032C241.958 41.8957 242.603 42.5407 243.396 42.5407H261.604Z" fill="#0D1541"/>
<path d="M260.646 38.7074H252.979C252.715 38.7074 252.5 38.9221 252.5 39.1866C252.5 39.4511 252.715 39.6657 252.979 39.6657H260.646C260.91 39.6657 261.125 39.4511 261.125 39.1866C261.125 38.9221 260.91 38.7074 260.646 38.7074Z" fill="#0D1541"/>
<path d="M244.354 38.7074C243.562 38.7074 242.917 39.3523 242.917 40.1449C242.917 40.9374 243.562 41.5824 244.354 41.5824C245.147 41.5824 245.792 40.9374 245.792 40.1449C245.792 39.3523 245.147 38.7074 244.354 38.7074ZM244.354 40.624C244.09 40.624 243.875 40.4093 243.875 40.1448C243.875 39.8803 244.09 39.6656 244.354 39.6656C244.619 39.6656 244.834 39.8803 244.834 40.1448C244.834 40.4093 244.619 40.624 244.354 40.624Z" fill="#0D1541"/>
<rect opacity="0.4" x="425" y="61" width="67" height="6" rx="3" fill="white"/>
<rect opacity="0.4" x="425" y="90" width="67" height="6" rx="3" fill="white"/>
<rect opacity="0.4" x="425" y="120" width="67" height="6" rx="3" fill="white"/>
<rect opacity="0.4" x="425" y="173" width="67" height="6" rx="3" fill="white"/>
<g clip-path="url(#clip3_508_1678)">
<path fill-rule="evenodd" clip-rule="evenodd" d="M406.5 117C403.461 117 401 119.461 401 122.5C401 124.934 402.574 126.989 404.761 127.718C405.036 127.766 405.139 127.601 405.139 127.457C405.139 127.326 405.132 126.893 405.132 126.433C403.75 126.687 403.392 126.096 403.282 125.786C403.221 125.628 402.953 125.14 402.719 125.009C402.526 124.906 402.251 124.652 402.712 124.645C403.145 124.638 403.454 125.044 403.558 125.209C404.053 126.041 404.843 125.807 405.159 125.663C405.208 125.305 405.352 125.064 405.51 124.927C404.286 124.789 403.008 124.315 403.008 122.211C403.008 121.613 403.221 121.118 403.571 120.733C403.516 120.596 403.324 120.032 403.626 119.276C403.626 119.276 404.087 119.131 405.139 119.839C405.579 119.716 406.046 119.654 406.514 119.654C406.981 119.654 407.449 119.716 407.889 119.839C408.941 119.124 409.401 119.276 409.401 119.276C409.704 120.032 409.511 120.596 409.456 120.733C409.807 121.118 410.02 121.606 410.02 122.211C410.02 124.322 408.734 124.789 407.511 124.927C407.71 125.099 407.882 125.429 407.882 125.944C407.882 126.68 407.875 127.271 407.875 127.457C407.875 127.601 407.978 127.773 408.253 127.718C410.426 126.989 412 124.927 412 122.5C412 119.461 409.539 117 406.5 117Z" fill="black"/>
</g>
<g clip-path="url(#clip4_508_1678)">
<path d="M406.5 171.022C403.462 171.022 401 173.485 401 176.522C401 179.247 402.983 181.503 405.583 181.94V177.67H404.256V176.133H405.583V175C405.583 173.686 406.386 172.969 407.559 172.969C408.12 172.969 408.603 173.011 408.743 173.03V174.404L407.93 174.404C407.292 174.404 407.169 174.707 407.169 175.152V176.133H408.691L408.492 177.669H407.169V181.977C409.89 181.645 412 179.332 412 176.521C412 173.485 409.538 171.022 406.5 171.022Z" fill="#475392"/>
</g>
<circle cx="450.5" cy="143.5" r="1.5" fill="#C2CAD0"/>
<circle cx="450.5" cy="149.5" r="1.5" fill="#C2CAD0"/>
<circle cx="450.5" cy="155.5" r="1.5" fill="#C2CAD0"/>
<g opacity="0.6">
<path d="M215 117H170.605C159.559 117 150.605 108.046 150.605 97V97C150.605 85.9543 141.651 77 130.605 77H94" stroke="#3C474E" stroke-linejoin="round" stroke-dasharray="1 3"/>
<path d="M215 126H169.105C158.888 126 150.605 134.283 150.605 144.5V144.5C150.605 154.717 142.322 163 132.105 163H94" stroke="#3C474E" stroke-linejoin="round" stroke-dasharray="1 3"/>
<path d="M291 121.5H370.5" stroke="#3C474E" stroke-linejoin="round" stroke-dasharray="1 3"/>
<path d="M253.5 156V175" stroke="#3C474E" stroke-linecap="round" stroke-linejoin="round" stroke-dasharray="1 3"/>
<path d="M253.5 62.5V85" stroke="#3C474E" stroke-linecap="round" stroke-linejoin="round" stroke-dasharray="1 3"/>
<path d="M213.5 118.234V115.766C213.5 114.989 214.348 114.509 215.014 114.909L217.071 116.143C217.718 116.531 217.718 117.469 217.071 117.857L215.014 119.091C214.348 119.491 213.5 119.011 213.5 118.234Z" fill="#3C474E"/>
<path d="M213.5 127.234V124.766C213.5 123.989 214.348 123.509 215.014 123.909L217.071 125.143C217.718 125.531 217.718 126.469 217.071 126.857L215.014 128.091C214.348 128.491 213.5 128.011 213.5 127.234Z" fill="#3C474E"/>
<path d="M369 122.734V120.266C369 119.489 369.848 119.009 370.514 119.409L372.571 120.643C373.218 121.031 373.218 121.969 372.571 122.357L370.514 123.591C369.848 123.991 369 123.511 369 122.734Z" fill="#3C474E"/>
<path d="M254.734 84L252.266 84C251.489 84 251.009 84.848 251.409 85.5145L252.643 87.5708C253.031 88.2182 253.969 88.2182 254.357 87.5708L255.591 85.5145C255.991 84.848 255.511 84 254.734 84Z" fill="#3C474E"/>
<path d="M254.734 157L252.266 157C251.489 157 251.009 156.152 251.409 155.486L252.643 153.429C253.031 152.782 253.969 152.782 254.357 153.429L255.591 155.486C255.991 156.152 255.511 157 254.734 157Z" fill="#3C474E"/>
</g>
<path d="M205.428 3.27273V12H204.371V3.27273H205.428ZM209.882 12.1364C209.337 12.1364 208.855 11.9986 208.438 11.723C208.02 11.4446 207.693 11.0526 207.458 10.5469C207.222 10.0384 207.104 9.4375 207.104 8.74432C207.104 8.05682 207.222 7.46023 207.458 6.95455C207.693 6.44886 208.021 6.05824 208.442 5.78267C208.862 5.5071 209.348 5.36932 209.899 5.36932C210.325 5.36932 210.662 5.44034 210.909 5.58239C211.159 5.72159 211.35 5.88068 211.48 6.05966C211.614 6.2358 211.718 6.38068 211.791 6.49432H211.877V3.27273H212.882V12H211.911V10.9943H211.791C211.718 11.1136 211.612 11.2642 211.476 11.446C211.34 11.625 211.145 11.7855 210.892 11.9276C210.639 12.0668 210.303 12.1364 209.882 12.1364ZM210.019 11.233C210.422 11.233 210.763 11.1278 211.041 10.9176C211.32 10.7045 211.531 10.4105 211.676 10.0355C211.821 9.65767 211.894 9.22159 211.894 8.72727C211.894 8.23864 211.823 7.81108 211.681 7.4446C211.539 7.07528 211.328 6.78835 211.05 6.58381C210.771 6.37642 210.428 6.27273 210.019 6.27273C209.593 6.27273 209.237 6.3821 208.953 6.60085C208.672 6.81676 208.46 7.1108 208.318 7.48295C208.179 7.85227 208.11 8.26705 208.11 8.72727C208.11 9.19318 208.181 9.61648 208.323 9.99716C208.468 10.375 208.681 10.6761 208.962 10.9006C209.246 11.1222 209.598 11.233 210.019 11.233ZM217.608 12.1364C216.977 12.1364 216.433 11.9972 215.976 11.7188C215.521 11.4375 215.171 11.0455 214.923 10.5426C214.679 10.0369 214.557 9.44886 214.557 8.77841C214.557 8.10795 214.679 7.51705 214.923 7.00568C215.171 6.49148 215.514 6.09091 215.955 5.80398C216.398 5.5142 216.915 5.36932 217.506 5.36932C217.847 5.36932 218.183 5.42614 218.516 5.53977C218.848 5.65341 219.151 5.83807 219.423 6.09375C219.696 6.34659 219.914 6.68182 220.075 7.09943C220.237 7.51705 220.318 8.03125 220.318 8.64205V9.06818H215.273V8.19886H219.296C219.296 7.82955 219.222 7.5 219.074 7.21023C218.929 6.92045 218.722 6.69176 218.452 6.52415C218.185 6.35653 217.869 6.27273 217.506 6.27273C217.105 6.27273 216.759 6.37216 216.466 6.57102C216.176 6.76705 215.953 7.02273 215.797 7.33807C215.641 7.65341 215.563 7.99148 215.563 8.35227V8.93182C215.563 9.42614 215.648 9.84517 215.818 10.1889C215.992 10.5298 216.232 10.7898 216.539 10.9688C216.845 11.1449 217.202 11.233 217.608 11.233C217.872 11.233 218.111 11.196 218.324 11.1222C218.54 11.0455 218.726 10.9318 218.882 10.7812C219.039 10.6278 219.159 10.4375 219.244 10.2102L220.216 10.483C220.114 10.8125 219.942 11.1023 219.7 11.3523C219.459 11.5994 219.161 11.7926 218.806 11.9318C218.45 12.0682 218.051 12.1364 217.608 12.1364ZM222.854 8.0625V12H221.848V5.45455H222.82V6.47727H222.905C223.058 6.14489 223.291 5.87784 223.604 5.67614C223.916 5.47159 224.32 5.36932 224.814 5.36932C225.257 5.36932 225.645 5.46023 225.977 5.64205C226.31 5.82102 226.568 6.09375 226.753 6.46023C226.938 6.82386 227.03 7.28409 227.03 7.84091V12H226.024V7.90909C226.024 7.39489 225.891 6.99432 225.624 6.70739C225.357 6.41761 224.99 6.27273 224.524 6.27273C224.203 6.27273 223.916 6.34233 223.664 6.48153C223.414 6.62074 223.216 6.82386 223.071 7.09091C222.926 7.35795 222.854 7.68182 222.854 8.0625ZM231.714 5.45455V6.30682H228.322V5.45455H231.714ZM229.311 3.88636H230.317V10.125C230.317 10.4091 230.358 10.6222 230.44 10.7642C230.525 10.9034 230.633 10.9972 230.764 11.0455C230.898 11.0909 231.038 11.1136 231.186 11.1136C231.297 11.1136 231.388 11.108 231.459 11.0966C231.53 11.0824 231.586 11.071 231.629 11.0625L231.834 11.9659C231.765 11.9915 231.67 12.017 231.548 12.0426C231.426 12.071 231.271 12.0852 231.084 12.0852C230.8 12.0852 230.521 12.0241 230.248 11.902C229.979 11.7798 229.754 11.5938 229.575 11.3438C229.399 11.0938 229.311 10.7784 229.311 10.3977V3.88636ZM233.227 12V5.45455H234.233V12H233.227ZM233.738 4.36364C233.542 4.36364 233.373 4.29688 233.231 4.16335C233.092 4.02983 233.023 3.86932 233.023 3.68182C233.023 3.49432 233.092 3.33381 233.231 3.20028C233.373 3.06676 233.542 3 233.738 3C233.934 3 234.102 3.06676 234.241 3.20028C234.383 3.33381 234.454 3.49432 234.454 3.68182C234.454 3.86932 234.383 4.02983 234.241 4.16335C234.102 4.29688 233.934 4.36364 233.738 4.36364ZM238.921 5.45455V6.30682H235.529V5.45455H238.921ZM236.518 3.88636H237.524V10.125C237.524 10.4091 237.565 10.6222 237.647 10.7642C237.732 10.9034 237.84 10.9972 237.971 11.0455C238.105 11.0909 238.245 11.1136 238.393 11.1136C238.504 11.1136 238.595 11.108 238.666 11.0966C238.737 11.0824 238.794 11.071 238.836 11.0625L239.041 11.9659C238.972 11.9915 238.877 12.017 238.755 12.0426C238.633 12.071 238.478 12.0852 238.291 12.0852C238.007 12.0852 237.728 12.0241 237.455 11.902C237.186 11.7798 236.961 11.5938 236.782 11.3438C236.606 11.0938 236.518 10.7784 236.518 10.3977V3.88636ZM241.082 14.4545C240.911 14.4545 240.759 14.4403 240.626 14.4119C240.492 14.3864 240.4 14.3608 240.349 14.3352L240.605 13.4489C240.849 13.5114 241.065 13.5341 241.252 13.517C241.44 13.5 241.606 13.4162 241.751 13.2656C241.899 13.1179 242.034 12.8778 242.156 12.5455L242.343 12.0341L239.923 5.45455H241.014L242.82 10.6705H242.889L244.695 5.45455H245.786L243.008 12.9545C242.883 13.2926 242.728 13.5724 242.544 13.794C242.359 14.0185 242.144 14.1847 241.9 14.2926C241.659 14.4006 241.386 14.4545 241.082 14.4545ZM250.625 12V3.27273H253.676C254.284 3.27273 254.786 3.37784 255.181 3.58807C255.575 3.79545 255.869 4.07528 256.063 4.42756C256.256 4.77699 256.352 5.16477 256.352 5.59091C256.352 5.96591 256.286 6.27557 256.152 6.51989C256.021 6.7642 255.848 6.95739 255.632 7.09943C255.419 7.24148 255.188 7.34659 254.938 7.41477V7.5C255.205 7.51705 255.473 7.6108 255.743 7.78125C256.013 7.9517 256.239 8.19602 256.421 8.5142C256.602 8.83239 256.693 9.22159 256.693 9.68182C256.693 10.1193 256.594 10.5128 256.395 10.8622C256.196 11.2116 255.882 11.4886 255.453 11.6932C255.024 11.8977 254.466 12 253.779 12H250.625ZM251.682 11.0625H253.779C254.469 11.0625 254.959 10.929 255.249 10.6619C255.541 10.392 255.688 10.0653 255.688 9.68182C255.688 9.38636 255.612 9.11364 255.462 8.86364C255.311 8.6108 255.097 8.40909 254.818 8.25852C254.54 8.10511 254.21 8.02841 253.83 8.02841H251.682V11.0625ZM251.682 7.10795H253.642C253.96 7.10795 254.247 7.04545 254.503 6.92045C254.762 6.79545 254.966 6.61932 255.117 6.39205C255.27 6.16477 255.347 5.89773 255.347 5.59091C255.347 5.20739 255.213 4.8821 254.946 4.61506C254.679 4.34517 254.256 4.21023 253.676 4.21023H251.682V7.10795ZM258.294 12V5.45455H259.265V6.44318H259.333C259.453 6.11932 259.669 5.85653 259.981 5.65483C260.294 5.45312 260.646 5.35227 261.038 5.35227C261.112 5.35227 261.204 5.35369 261.315 5.35653C261.426 5.35937 261.509 5.36364 261.566 5.36932V6.39205C261.532 6.38352 261.454 6.37074 261.332 6.35369C261.213 6.33381 261.086 6.32386 260.953 6.32386C260.634 6.32386 260.35 6.39062 260.1 6.52415C259.853 6.65483 259.657 6.83665 259.512 7.0696C259.37 7.29972 259.299 7.5625 259.299 7.85795V12H258.294ZM265.218 12.1364C264.627 12.1364 264.109 11.9957 263.663 11.7145C263.22 11.4332 262.873 11.0398 262.623 10.5341C262.376 10.0284 262.252 9.4375 262.252 8.76136C262.252 8.07955 262.376 7.48437 262.623 6.97585C262.873 6.46733 263.22 6.07244 263.663 5.79119C264.109 5.50994 264.627 5.36932 265.218 5.36932C265.809 5.36932 266.326 5.50994 266.769 5.79119C267.215 6.07244 267.562 6.46733 267.809 6.97585C268.059 7.48437 268.184 8.07955 268.184 8.76136C268.184 9.4375 268.059 10.0284 267.809 10.5341C267.562 11.0398 267.215 11.4332 266.769 11.7145C266.326 11.9957 265.809 12.1364 265.218 12.1364ZM265.218 11.233C265.667 11.233 266.036 11.1179 266.326 10.8878C266.616 10.6577 266.83 10.3551 266.97 9.98011C267.109 9.60511 267.178 9.19886 267.178 8.76136C267.178 8.32386 267.109 7.91619 266.97 7.53835C266.83 7.16051 266.616 6.85511 266.326 6.62216C266.036 6.3892 265.667 6.27273 265.218 6.27273C264.769 6.27273 264.4 6.3892 264.11 6.62216C263.82 6.85511 263.606 7.16051 263.467 7.53835C263.328 7.91619 263.258 8.32386 263.258 8.76136C263.258 9.19886 263.328 9.60511 263.467 9.98011C263.606 10.3551 263.82 10.6577 264.11 10.8878C264.4 11.1179 264.769 11.233 265.218 11.233ZM270.657 9.61364L270.64 8.36932H270.844L273.708 5.45455H274.952L271.901 8.53977H271.816L270.657 9.61364ZM269.719 12V3.27273H270.725V12H269.719ZM273.878 12L271.322 8.76136L272.037 8.0625L275.157 12H273.878ZM278.721 12.1364C278.091 12.1364 277.547 11.9972 277.089 11.7188C276.635 11.4375 276.284 11.0455 276.037 10.5426C275.792 10.0369 275.67 9.44886 275.67 8.77841C275.67 8.10795 275.792 7.51705 276.037 7.00568C276.284 6.49148 276.628 6.09091 277.068 5.80398C277.511 5.5142 278.028 5.36932 278.619 5.36932C278.96 5.36932 279.297 5.42614 279.629 5.53977C279.961 5.65341 280.264 5.83807 280.537 6.09375C280.809 6.34659 281.027 6.68182 281.189 7.09943C281.351 7.51705 281.432 8.03125 281.432 8.64205V9.06818H276.386V8.19886H280.409C280.409 7.82955 280.335 7.5 280.187 7.21023C280.042 6.92045 279.835 6.69176 279.565 6.52415C279.298 6.35653 278.983 6.27273 278.619 6.27273C278.219 6.27273 277.872 6.37216 277.579 6.57102C277.29 6.76705 277.067 7.02273 276.91 7.33807C276.754 7.65341 276.676 7.99148 276.676 8.35227V8.93182C276.676 9.42614 276.761 9.84517 276.932 10.1889C277.105 10.5298 277.345 10.7898 277.652 10.9688C277.959 11.1449 278.315 11.233 278.721 11.233C278.986 11.233 279.224 11.196 279.437 11.1222C279.653 11.0455 279.839 10.9318 279.996 10.7812C280.152 10.6278 280.273 10.4375 280.358 10.2102L281.329 10.483C281.227 10.8125 281.055 11.1023 280.814 11.3523C280.572 11.5994 280.274 11.7926 279.919 11.9318C279.564 12.0682 279.165 12.1364 278.721 12.1364ZM282.961 12V5.45455H283.933V6.44318H284.001C284.121 6.11932 284.336 5.85653 284.649 5.65483C284.961 5.45312 285.314 5.35227 285.706 5.35227C285.78 5.35227 285.872 5.35369 285.983 5.35653C286.094 5.35937 286.177 5.36364 286.234 5.36932V6.39205C286.2 6.38352 286.122 6.37074 286 6.35369C285.881 6.33381 285.754 6.32386 285.621 6.32386C285.302 6.32386 285.018 6.39062 284.768 6.52415C284.521 6.65483 284.325 6.83665 284.18 7.0696C284.038 7.29972 283.967 7.5625 283.967 7.85795V12H282.961ZM287.426 12V5.45455H288.432V12H287.426ZM287.938 4.36364C287.742 4.36364 287.573 4.29688 287.431 4.16335C287.291 4.02983 287.222 3.86932 287.222 3.68182C287.222 3.49432 287.291 3.33381 287.431 3.20028C287.573 3.06676 287.742 3 287.938 3C288.134 3 288.301 3.06676 288.441 3.20028C288.583 3.33381 288.654 3.49432 288.654 3.68182C288.654 3.86932 288.583 4.02983 288.441 4.16335C288.301 4.29688 288.134 4.36364 287.938 4.36364ZM291.28 8.0625V12H290.274V5.45455H291.246V6.47727H291.331C291.484 6.14489 291.717 5.87784 292.03 5.67614C292.342 5.47159 292.746 5.36932 293.24 5.36932C293.683 5.36932 294.071 5.46023 294.403 5.64205C294.736 5.82102 294.994 6.09375 295.179 6.46023C295.363 6.82386 295.456 7.28409 295.456 7.84091V12H294.45V7.90909C294.45 7.39489 294.317 6.99432 294.05 6.70739C293.782 6.41761 293.416 6.27273 292.95 6.27273C292.629 6.27273 292.342 6.34233 292.089 6.48153C291.839 6.62074 291.642 6.82386 291.497 7.09091C291.352 7.35795 291.28 7.68182 291.28 8.0625ZM299.936 14.5909C299.45 14.5909 299.032 14.5284 298.683 14.4034C298.333 14.2812 298.042 14.1193 297.809 13.9176C297.579 13.7188 297.396 13.5057 297.259 13.2784L298.061 12.7159C298.151 12.8352 298.267 12.9716 298.406 13.125C298.545 13.2812 298.735 13.4162 298.977 13.5298C299.221 13.6463 299.541 13.7045 299.936 13.7045C300.464 13.7045 300.9 13.5767 301.244 13.321C301.588 13.0653 301.759 12.6648 301.759 12.1193V10.7898H301.674C301.6 10.9091 301.495 11.0568 301.359 11.233C301.225 11.4062 301.032 11.5611 300.779 11.6974C300.529 11.831 300.191 11.8977 299.765 11.8977C299.237 11.8977 298.762 11.7727 298.342 11.5227C297.924 11.2727 297.593 10.9091 297.349 10.4318C297.107 9.95455 296.987 9.375 296.987 8.69318C296.987 8.02273 297.105 7.43892 297.34 6.94176C297.576 6.44176 297.904 6.0554 298.325 5.78267C298.745 5.5071 299.231 5.36932 299.782 5.36932C300.208 5.36932 300.546 5.44034 300.796 5.58239C301.049 5.72159 301.242 5.88068 301.376 6.05966C301.512 6.2358 301.617 6.38068 301.691 6.49432H301.794V5.45455H302.765V12.1875C302.765 12.75 302.637 13.2074 302.382 13.5597C302.129 13.9148 301.788 14.1747 301.359 14.3395C300.933 14.5071 300.458 14.5909 299.936 14.5909ZM299.901 10.9943C300.305 10.9943 300.646 10.902 300.924 10.7173C301.203 10.5327 301.414 10.267 301.559 9.92045C301.704 9.57386 301.776 9.15909 301.776 8.67614C301.776 8.20455 301.705 7.78835 301.563 7.42756C301.421 7.06676 301.211 6.78409 300.933 6.57955C300.654 6.375 300.311 6.27273 299.901 6.27273C299.475 6.27273 299.12 6.38068 298.836 6.59659C298.555 6.8125 298.343 7.10227 298.201 7.46591C298.062 7.82955 297.992 8.23295 297.992 8.67614C297.992 9.13068 298.063 9.53267 298.205 9.8821C298.35 10.2287 298.563 10.5014 298.845 10.7003C299.129 10.8963 299.481 10.9943 299.901 10.9943Z" fill="#3C474E"/>
<defs>
<filter id="filter0_f_508_1678" x="192" y="60" width="122" height="122" filterUnits="userSpaceOnUse" color-interpolation-filters="sRGB">
<feFlood flood-opacity="0" result="BackgroundImageFix"/>
<feBlend mode="normal" in="SourceGraphic" in2="BackgroundImageFix" result="shape"/>
<feGaussianBlur stdDeviation="11.5" result="effect1_foregroundBlur_508_1678"/>
</filter>
<clipPath id="clip0_508_1678">
<rect width="12" height="13" fill="white" transform="translate(400.5 58)"/>
</clipPath>
<clipPath id="clip1_508_1678">
<rect width="11" height="11" fill="white" transform="translate(401 88)"/>
</clipPath>
<clipPath id="clip2_508_1678">
<rect width="32" height="32" fill="white" transform="translate(43 148)"/>
</clipPath>
<clipPath id="clip3_508_1678">
<rect width="11" height="11" fill="white" transform="translate(401 117)"/>
</clipPath>
<clipPath id="clip4_508_1678">
<rect width="11" height="11" fill="white" transform="translate(401 171)"/>
</clipPath>
</defs>
</svg>
