<svg width="480" height="400" viewBox="0 0 480 400" fill="none" xmlns="http://www.w3.org/2000/svg">
<g opacity="0.2" filter="url(#filter0_f_4951_2551)">
<circle cx="239.5" cy="199.5" r="72.5" fill="#3FA1E3"/>
</g>
<path d="M206.718 196.422L220.652 172.917C221.912 170.79 224.201 169.486 226.673 169.486H251.328C253.8 169.486 256.089 170.79 257.349 172.917L271.283 196.422C272.577 198.605 272.588 201.318 271.312 203.512L257.34 227.526C256.087 229.68 253.782 231.006 251.29 231.006H226.711C224.219 231.006 221.914 229.68 220.661 227.526L206.689 203.512C205.413 201.318 205.424 198.605 206.718 196.422Z" fill="url(#paint0_linear_4951_2551)"/>
<path d="M235.382 180.344H227.42L215.478 199.382L227.42 220.15H235.382L223.44 199.382L235.382 180.344Z" fill="#131313"/>
<path d="M242.619 180.344H250.581L262.523 199.382L250.581 220.15H242.619L254.561 199.382L242.619 180.344Z" fill="#131313"/>
<g opacity="0.2" filter="url(#filter1_f_4951_2551)">
<circle cx="239" cy="201" r="52.5" stroke="#3FA1E3"/>
</g>
<circle opacity="0.2" cx="239" cy="201" r="116.5" stroke="#3FA1E3"/>
<circle opacity="0.2" cx="239" cy="201" r="149.5" stroke="#3FA1E3"/>
<circle opacity="0.2" cx="239" cy="201" r="187.5" stroke="#3FA1E3"/>
<g opacity="0.5" filter="url(#filter2_f_4951_2551)">
<path d="M197.131 197.075L216.081 165.406C217.345 163.293 219.626 162 222.087 162H255.913C258.374 162 260.655 163.293 261.919 165.406L280.869 197.075C282.183 199.27 282.194 202.008 280.898 204.214L261.911 236.545C260.653 238.685 258.357 240 255.874 240H222.126C219.643 240 217.347 238.685 216.089 236.545L197.102 204.214C195.806 202.008 195.817 199.27 197.131 197.075Z" stroke="#3FA1E3"/>
</g>
<path d="M143 32C143 23.1776 150.178 16 159 16C162.563 16 165.936 17.1464 168.753 19.3152L165.035 24.1451C163.293 22.8041 161.206 22.0952 159 22.0952C153.539 22.0952 149.095 26.5385 149.095 32C149.095 37.4615 153.539 41.9048 159 41.9048C163.399 41.9048 167.137 39.0228 168.425 35.0476H159V28.9524H175V32C175 40.8224 167.822 48 159 48C150.178 48 143 40.8224 143 32Z" stroke="#3FA1E3" stroke-width="1.5"/>
<path d="M365 331C365 324.383 370.383 319 377 319C379.672 319 382.202 319.86 384.315 321.486L381.526 325.109C380.22 324.103 378.655 323.571 377 323.571C372.904 323.571 369.571 326.904 369.571 331C369.571 335.096 372.904 338.429 377 338.429C380.299 338.429 383.103 336.267 384.069 333.286H377V328.714H389V331C389 337.617 383.617 343 377 343C370.383 343 365 337.617 365 331Z" stroke="#3FA1E3" stroke-width="1.5"/>
<path d="M122 344V332.28C122 326.52 120.76 322.12 114.04 322.12C110.8 322.12 108.64 323.88 107.76 325.56H107.68V322.64H101.32V344H107.96V333.4C107.96 330.6 108.48 327.92 111.92 327.92C115.32 327.92 115.36 331.08 115.36 333.56V343.96H122V344ZM90.52 322.64H97.16V344H90.52V322.64ZM93.84 312C91.72 312 90 313.72 90 315.84C90 317.96 91.72 319.72 93.84 319.72C95.96 319.72 97.68 317.96 97.68 315.84C97.68 313.72 95.96 312 93.84 312Z" stroke="#3FA1E3" stroke-width="1.5"/>
<path d="M227 96V87.21C227 82.89 226.07 79.59 221.03 79.59C218.6 79.59 216.98 80.91 216.32 82.17H216.26V79.98H211.49V96H216.47V88.05C216.47 85.95 216.86 83.94 219.44 83.94C221.99 83.94 222.02 86.31 222.02 88.17V95.97H227V96ZM203.39 79.98H208.37V96H203.39V79.98ZM205.88 72C204.29 72 203 73.29 203 74.88C203 76.47 204.29 77.79 205.88 77.79C207.47 77.79 208.76 76.47 208.76 74.88C208.76 73.29 207.47 72 205.88 72Z" stroke="#3FA1E3" stroke-width="1.5"/>
<path fill-rule="evenodd" clip-rule="evenodd" d="M351.606 220.222L350.947 228.329C350.636 228.293 350.325 228.276 350.004 228.276C349.604 228.276 349.213 228.302 348.83 228.364L348.457 224.436C348.448 224.311 348.546 224.204 348.67 224.204H349.337L349.017 220.231C349.008 220.107 349.106 220 349.222 220H351.401C351.525 220 351.623 220.107 351.606 220.231V220.222ZM346.108 220.622C346.073 220.507 345.948 220.436 345.833 220.48L343.787 221.227C343.671 221.271 343.618 221.404 343.671 221.511L345.335 225.138L344.703 225.369C344.587 225.413 344.534 225.547 344.587 225.653L346.286 229.218C346.9 228.88 347.567 228.622 348.27 228.462L346.117 220.622H346.108ZM341.092 222.88L345.797 229.511C345.201 229.902 344.659 230.364 344.196 230.898L341.376 228.124C341.287 228.036 341.296 227.893 341.385 227.813L341.901 227.387L339.099 224.551C339.01 224.462 339.019 224.32 339.117 224.24L340.78 222.844C340.878 222.764 341.012 222.782 341.083 222.88H341.092ZM337.142 226.72C337.045 226.649 336.902 226.684 336.84 226.791L335.755 228.676C335.693 228.782 335.737 228.916 335.844 228.969L339.455 230.676L339.117 231.253C339.055 231.36 339.099 231.502 339.215 231.547L342.808 233.191C343.066 232.524 343.413 231.902 343.84 231.342L337.142 226.72ZM334.483 231.84C334.501 231.716 334.625 231.644 334.741 231.671L342.613 233.724C342.408 234.391 342.293 235.093 342.275 235.822L338.334 235.502C338.21 235.493 338.121 235.378 338.148 235.253L338.263 234.596L334.287 234.222C334.163 234.213 334.083 234.098 334.1 233.973L334.474 231.831L334.483 231.84ZM334.189 237.156C334.065 237.164 333.985 237.28 334.002 237.404L334.385 239.547C334.403 239.671 334.527 239.742 334.643 239.716L338.503 238.711L338.619 239.369C338.637 239.493 338.761 239.564 338.877 239.538L342.684 238.489C342.462 237.831 342.319 237.129 342.284 236.409L334.18 237.156H334.189ZM335.452 242.791C335.39 242.684 335.435 242.551 335.541 242.498L342.889 239.013C343.164 239.671 343.538 240.284 343.983 240.836L340.763 243.129C340.665 243.2 340.522 243.173 340.46 243.067L340.122 242.48L336.84 244.747C336.742 244.818 336.6 244.782 336.538 244.676L335.443 242.791H335.452ZM344.356 241.262L338.637 247.049C338.548 247.138 338.557 247.28 338.655 247.36L340.327 248.756C340.425 248.836 340.558 248.818 340.629 248.72L342.942 245.467L343.458 245.902C343.556 245.982 343.698 245.964 343.769 245.858L346.011 242.604C345.406 242.231 344.845 241.778 344.365 241.262H344.356ZM343.227 250.551C343.111 250.507 343.058 250.373 343.111 250.267L346.5 242.871C347.122 243.191 347.799 243.431 348.501 243.564L347.505 247.387C347.478 247.502 347.345 247.573 347.229 247.529L346.598 247.298L345.539 251.147C345.504 251.262 345.379 251.333 345.263 251.289L343.218 250.542L343.227 250.551ZM349.062 243.662L348.403 251.769C348.394 251.893 348.492 252 348.608 252H350.787C350.912 252 351.01 251.893 350.992 251.769L350.672 247.796H351.339C351.463 247.796 351.561 247.689 351.552 247.564L351.179 243.636C350.796 243.698 350.405 243.724 350.004 243.724C349.684 243.724 349.373 243.707 349.062 243.662ZM356.907 221.716C356.96 221.6 356.907 221.476 356.791 221.431L354.745 220.684C354.63 220.64 354.505 220.711 354.47 220.827L353.411 224.676L352.78 224.444C352.664 224.4 352.54 224.471 352.504 224.587L351.508 228.409C352.219 228.551 352.886 228.791 353.509 229.102L356.907 221.716ZM361.372 224.942L355.653 230.729C355.172 230.213 354.621 229.76 354.007 229.387L356.249 226.133C356.32 226.036 356.462 226.009 356.56 226.089L357.076 226.524L359.389 223.271C359.46 223.173 359.602 223.156 359.691 223.236L361.363 224.631C361.461 224.711 361.461 224.853 361.381 224.942H361.372ZM364.468 229.493C364.583 229.44 364.619 229.307 364.557 229.2L363.462 227.316C363.4 227.209 363.258 227.182 363.16 227.244L359.878 229.511L359.54 228.933C359.478 228.827 359.335 228.791 359.237 228.871L356.017 231.164C356.462 231.716 356.827 232.329 357.111 232.987L364.459 229.502L364.468 229.493ZM365.624 232.444L365.998 234.587C366.015 234.711 365.935 234.818 365.811 234.836L357.707 235.591C357.672 234.862 357.53 234.169 357.307 233.511L361.114 232.462C361.23 232.427 361.354 232.507 361.372 232.631L361.488 233.289L365.348 232.284C365.464 232.258 365.588 232.329 365.606 232.453L365.624 232.444ZM365.259 240.311C365.375 240.338 365.499 240.267 365.517 240.142L365.891 238C365.909 237.876 365.829 237.769 365.704 237.751L361.728 237.378L361.844 236.72C361.861 236.596 361.781 236.489 361.657 236.471L357.716 236.151C357.699 236.88 357.583 237.582 357.378 238.249L365.25 240.302L365.259 240.311ZM363.16 245.2C363.098 245.307 362.955 245.333 362.858 245.271L356.16 240.649C356.587 240.089 356.934 239.467 357.192 238.8L360.785 240.444C360.901 240.498 360.945 240.631 360.883 240.738L360.545 241.316L364.156 243.022C364.263 243.076 364.307 243.209 364.245 243.316L363.16 245.2ZM354.203 242.471L358.908 249.102C358.979 249.2 359.122 249.218 359.211 249.138L360.874 247.742C360.972 247.662 360.972 247.52 360.892 247.431L358.09 244.596L358.606 244.169C358.704 244.089 358.704 243.947 358.615 243.858L355.795 241.084C355.324 241.618 354.79 242.089 354.194 242.471H354.203ZM354.158 251.502C354.043 251.547 353.918 251.476 353.883 251.36L351.73 243.52C352.433 243.36 353.1 243.102 353.714 242.764L355.413 246.329C355.466 246.444 355.413 246.578 355.297 246.613L354.665 246.844L356.329 250.471C356.382 250.587 356.329 250.711 356.213 250.756L354.167 251.502H354.158Z" stroke="#3FA1E3" stroke-width="1.5"/>
<path fill-rule="evenodd" clip-rule="evenodd" d="M52.2042 188.167L51.7105 194.247C51.477 194.22 51.2435 194.207 51.0033 194.207C50.7031 194.207 50.4096 194.227 50.1227 194.273L49.8425 191.327C49.8359 191.233 49.9093 191.153 50.0027 191.153H50.503L50.2628 188.173C50.2562 188.08 50.3295 188 50.4163 188H52.0507C52.1441 188 52.2175 188.08 52.2042 188.173V188.167ZM48.0814 188.467C48.0547 188.38 47.9613 188.327 47.8745 188.36L46.3402 188.92C46.2534 188.953 46.2134 189.053 46.2534 189.133L47.501 191.853L47.0273 192.027C46.9406 192.06 46.9005 192.16 46.9406 192.24L48.2148 194.913C48.6751 194.66 49.1754 194.467 49.7025 194.347L48.088 188.467H48.0814ZM44.3188 190.16L47.8479 195.133C47.4009 195.427 46.9939 195.773 46.647 196.173L44.5323 194.093C44.4656 194.027 44.4722 193.92 44.5389 193.86L44.9259 193.54L42.8244 191.413C42.7577 191.347 42.7644 191.24 42.8378 191.18L44.0853 190.133C44.1587 190.073 44.2588 190.087 44.3121 190.16H44.3188ZM41.3568 193.04C41.2834 192.987 41.1767 193.013 41.13 193.093L40.3161 194.507C40.2694 194.587 40.3027 194.687 40.3828 194.727L43.0913 196.007L42.8378 196.44C42.7911 196.52 42.8244 196.627 42.9112 196.66L45.6063 197.893C45.7998 197.393 46.06 196.927 46.3802 196.507L41.3568 193.04ZM39.3621 196.88C39.3754 196.787 39.4688 196.733 39.5556 196.753L45.4596 198.293C45.3061 198.793 45.2194 199.32 45.2061 199.867L42.2507 199.627C42.1573 199.62 42.0906 199.533 42.1106 199.44L42.1974 198.947L39.2153 198.667C39.1219 198.66 39.0619 198.573 39.0752 198.48L39.3554 196.873L39.3621 196.88ZM39.1419 200.867C39.0485 200.873 38.9885 200.96 39.0019 201.053L39.2887 202.66C39.3021 202.753 39.3955 202.807 39.4822 202.787L42.3775 202.033L42.4642 202.527C42.4775 202.62 42.5709 202.673 42.6577 202.653L45.5129 201.867C45.3462 201.373 45.2394 200.847 45.2127 200.307L39.1353 200.867H39.1419ZM40.0893 205.093C40.0426 205.013 40.0759 204.913 40.156 204.873L45.6664 202.26C45.8732 202.753 46.1534 203.213 46.4869 203.627L44.072 205.347C43.9986 205.4 43.8918 205.38 43.8451 205.3L43.5916 204.86L41.13 206.56C41.0566 206.613 40.9498 206.587 40.9031 206.507L40.0826 205.093H40.0893ZM46.7671 203.947L42.4775 208.287C42.4108 208.353 42.4175 208.46 42.4909 208.52L43.7451 209.567C43.8185 209.627 43.9185 209.613 43.9719 209.54L45.7064 207.1L46.0933 207.427C46.1667 207.487 46.2735 207.473 46.3268 207.393L48.008 204.953C47.5543 204.673 47.134 204.333 46.7738 203.947H46.7671ZM45.9199 210.913C45.8332 210.88 45.7931 210.78 45.8332 210.7L48.3749 205.153C48.8419 205.393 49.3489 205.573 49.8759 205.673L49.1287 208.54C49.1087 208.627 49.0086 208.68 48.9219 208.647L48.4483 208.473L47.6544 211.36C47.6277 211.447 47.5343 211.5 47.4476 211.467L45.9132 210.907L45.9199 210.913ZM50.2962 205.747L49.8025 211.827C49.7959 211.92 49.8692 212 49.956 212H51.5904C51.6838 212 51.7572 211.92 51.7438 211.827L51.5037 208.847H52.004C52.0974 208.847 52.1708 208.767 52.1641 208.673L51.8839 205.727C51.5971 205.773 51.3035 205.793 51.0033 205.793C50.7632 205.793 50.5297 205.78 50.2962 205.747ZM56.1802 189.287C56.2202 189.2 56.1802 189.107 56.0935 189.073L54.5591 188.513C54.4724 188.48 54.379 188.533 54.3523 188.62L53.5584 191.507L53.0848 191.333C52.998 191.3 52.9046 191.353 52.8779 191.44L52.1308 194.307C52.6645 194.413 53.1648 194.593 53.6318 194.827L56.1802 189.287ZM59.5291 191.707L55.2395 196.047C54.8793 195.66 54.4657 195.32 54.0054 195.04L55.6865 192.6C55.7399 192.527 55.8466 192.507 55.92 192.567L56.3069 192.893L58.0414 190.453C58.0948 190.38 58.2016 190.367 58.2683 190.427L59.5225 191.473C59.5958 191.533 59.5958 191.64 59.5358 191.707H59.5291ZM61.8507 195.12C61.9374 195.08 61.9641 194.98 61.9174 194.9L61.0969 193.487C61.0502 193.407 60.9434 193.387 60.87 193.433L58.4084 195.133L58.1549 194.7C58.1082 194.62 58.0014 194.593 57.928 194.653L55.5131 196.373C55.8466 196.787 56.1201 197.247 56.3336 197.74L61.844 195.127L61.8507 195.12ZM62.718 197.333L62.9982 198.94C63.0115 199.033 62.9515 199.113 62.8581 199.127L56.7806 199.693C56.7539 199.147 56.6472 198.627 56.4804 198.133L59.3357 197.347C59.4224 197.32 59.5158 197.38 59.5291 197.473L59.6159 197.967L62.5112 197.213C62.5979 197.193 62.6913 197.247 62.7046 197.34L62.718 197.333ZM62.4444 203.233C62.5312 203.253 62.6246 203.2 62.6379 203.107L62.9181 201.5C62.9314 201.407 62.8714 201.327 62.778 201.313L59.796 201.033L59.8827 200.54C59.896 200.447 59.836 200.367 59.7426 200.353L56.7873 200.113C56.7739 200.66 56.6872 201.187 56.5338 201.687L62.4378 203.227L62.4444 203.233ZM60.87 206.9C60.8233 206.98 60.7166 207 60.6432 206.953L55.6198 203.487C55.94 203.067 56.2002 202.6 56.3937 202.1L59.0888 203.333C59.1756 203.373 59.2089 203.473 59.1622 203.553L58.9087 203.987L61.6172 205.267C61.6973 205.307 61.7306 205.407 61.6839 205.487L60.87 206.9ZM54.1521 204.853L57.6812 209.827C57.7346 209.9 57.8413 209.913 57.908 209.853L59.1555 208.807C59.2289 208.747 59.2289 208.64 59.1689 208.573L57.0675 206.447L57.4544 206.127C57.5278 206.067 57.5278 205.96 57.4611 205.893L55.3463 203.813C54.9927 204.213 54.5924 204.567 54.1455 204.853H54.1521ZM54.1188 211.627C54.0321 211.66 53.9387 211.607 53.912 211.52L52.2975 205.64C52.8246 205.52 53.3249 205.327 53.7852 205.073L55.0594 207.747C55.0995 207.833 55.0594 207.933 54.9727 207.96L54.499 208.133L55.7466 210.853C55.7866 210.94 55.7466 211.033 55.6598 211.067L54.1255 211.627H54.1188Z" stroke="#3FA1E3" stroke-width="1.5"/>
<path d="M130.804 166.665C134.915 165.932 138.311 165.326 138.35 165.318L138.421 165.303L134.539 160.646C132.405 158.085 130.658 155.979 130.658 155.967C130.658 155.944 134.666 144.812 134.688 144.772C134.696 144.759 137.423 149.509 141.3 156.286C144.929 162.631 147.922 167.862 147.949 167.911L148 168L135.664 167.998L123.329 167.997L130.804 166.665ZM116 165.245C116 165.238 117.829 162.036 120.064 158.129L124.128 151.024L128.865 147.015C131.47 144.81 133.608 143.003 133.617 143C133.625 142.997 133.591 143.084 133.541 143.193C133.49 143.303 131.176 148.31 128.398 154.32L123.346 165.247L119.673 165.252C117.653 165.255 116 165.251 116 165.245Z" stroke="#3FA1E3" stroke-width="1.5"/>
<path d="M397.103 107.985C400.186 107.429 402.733 106.968 402.762 106.962L402.816 106.95L399.905 103.411C398.303 101.464 396.993 99.8643 396.993 99.855C396.993 99.8376 399.999 91.377 400.016 91.3469C400.022 91.3369 402.068 94.9466 404.975 100.097C407.697 104.919 409.941 108.895 409.962 108.932L410 109L400.748 108.999L391.497 108.998L397.103 107.985ZM386 106.906C386 106.901 387.372 104.467 389.048 101.498L392.096 96.0985L395.649 93.0516C397.602 91.3758 399.206 90.0026 399.213 90.0001C399.219 89.9976 399.193 90.0637 399.156 90.147C399.118 90.2303 397.382 94.0356 395.298 98.6033L391.51 106.908L388.755 106.912C387.24 106.914 386 106.911 386 106.906Z" stroke="#3FA1E3" stroke-width="1.5"/>
<path d="M192.103 311.985C195.186 311.429 197.733 310.968 197.762 310.962L197.816 310.95L194.905 307.411C193.303 305.464 191.993 303.864 191.993 303.855C191.993 303.838 194.999 295.377 195.016 295.347C195.022 295.337 197.068 298.947 199.975 304.097C202.697 308.919 204.941 312.895 204.962 312.932L205 313L195.748 312.999L186.497 312.998L192.103 311.985ZM181 310.906C181 310.901 182.372 308.467 184.048 305.498L187.096 300.099L190.649 297.052C192.602 295.376 194.206 294.003 194.213 294C194.219 293.998 194.193 294.064 194.156 294.147C194.118 294.23 192.382 298.036 190.298 302.603L186.51 310.908L183.755 310.912C182.24 310.914 181 310.911 181 310.906Z" stroke="#3FA1E3" stroke-width="1.5"/>
<path d="M346.787 76.1685C345.311 73.6556 343.31 71.6662 340.782 70.1997C338.254 68.7331 335.494 68 332.5 68C329.506 68 326.745 68.7333 324.218 70.1997C321.69 71.6661 319.688 73.6556 318.213 76.1685C316.738 78.6814 316 81.4254 316 84.4006C316 87.9745 317.049 91.1882 319.147 94.0425C321.246 96.8971 323.956 98.8724 327.279 99.9685C327.666 100.04 327.952 99.9897 328.138 99.8193C328.325 99.6486 328.418 99.4348 328.418 99.1788C328.418 99.1361 328.414 98.7519 328.407 98.0257C328.4 97.3923 328.396 96.7588 328.396 96.1253L327.902 96.2103C327.587 96.2677 327.189 96.292 326.709 96.2851C326.23 96.2785 325.732 96.2285 325.216 96.1356C324.7 96.0435 324.221 95.83 323.777 95.4954C323.333 95.1608 323.018 94.7229 322.832 94.1822L322.617 93.6908C322.474 93.3637 322.248 93.0002 321.94 92.6018C321.632 92.2031 321.321 91.9328 321.006 91.7904L320.855 91.6834C320.755 91.6123 320.662 91.5265 320.576 91.4269C320.49 91.3274 320.426 91.2277 320.383 91.1279C320.34 91.0281 320.375 90.9462 320.49 90.8819C320.605 90.8177 320.812 90.7865 321.113 90.7865L321.543 90.8503C321.829 90.9074 322.183 91.0778 322.606 91.3627C323.029 91.6474 323.376 92.0175 323.648 92.4729C323.978 93.0568 324.375 93.5017 324.84 93.8078C325.306 94.114 325.775 94.2668 326.248 94.2668C326.72 94.2668 327.128 94.2312 327.472 94.1603C327.816 94.0891 328.138 93.9821 328.439 93.8398C328.568 92.8855 328.919 92.1524 329.491 91.64C328.675 91.5547 327.941 91.4263 327.289 91.2555C326.638 91.0846 325.965 90.8071 325.27 90.4223C324.575 90.0381 323.999 89.5609 323.54 88.9917C323.082 88.4222 322.706 87.6745 322.413 86.7493C322.119 85.8238 321.972 84.7561 321.972 83.546C321.972 81.8231 322.538 80.3569 323.67 79.1466C323.14 77.8513 323.19 76.3992 323.82 74.7904C324.235 74.6621 324.851 74.7584 325.668 75.0786C326.484 75.399 327.082 75.6734 327.462 75.9009C327.841 76.1284 328.146 76.3211 328.375 76.4775C329.707 76.1074 331.082 75.9224 332.5 75.9224C333.918 75.9224 335.293 76.1074 336.625 76.4775L337.441 75.9652C338 75.6233 338.659 75.3101 339.418 75.0253C340.177 74.7407 340.757 74.6623 341.158 74.7906C341.803 76.3995 341.86 77.8515 341.33 79.1469C342.461 80.3571 343.027 81.8237 343.027 83.5463C343.027 84.7563 342.88 85.8274 342.587 86.76C342.294 87.6928 341.914 88.4398 341.449 89.0024C340.983 89.565 340.403 90.0384 339.708 90.4225C339.014 90.807 338.34 91.0845 337.689 91.2555C337.037 91.4265 336.303 91.555 335.487 91.6404C336.231 92.2808 336.603 93.2917 336.603 94.6726V99.1782C336.603 99.4342 336.693 99.6479 336.872 99.8187C337.051 99.9891 337.334 100.039 337.721 99.9679C341.044 98.8719 343.755 96.8965 345.853 94.0419C347.951 91.1876 349 87.9739 349 84.4C348.999 81.4252 348.261 78.6814 346.787 76.1685Z" stroke="#3FA1E3" stroke-width="1.5"/>
<path d="M275.39 337.871C274.317 336.065 272.862 334.635 271.023 333.581C269.185 332.527 267.177 332 265 332C262.823 332 260.815 332.527 258.977 333.581C257.138 334.635 255.682 336.065 254.609 337.871C253.536 339.677 253 341.65 253 343.788C253 346.357 253.763 348.666 255.289 350.718C256.815 352.77 258.786 354.19 261.203 354.977C261.484 355.029 261.692 354.993 261.828 354.87C261.963 354.747 262.031 354.594 262.031 354.41C262.031 354.379 262.028 354.103 262.023 353.581C262.018 353.126 262.015 352.67 262.015 352.215L261.656 352.276C261.427 352.317 261.138 352.335 260.789 352.33C260.44 352.325 260.078 352.289 259.703 352.222C259.328 352.156 258.979 352.003 258.656 351.762C258.333 351.522 258.104 351.207 257.968 350.818L257.812 350.465C257.708 350.23 257.544 349.969 257.32 349.683C257.096 349.396 256.87 349.202 256.64 349.099L256.531 349.022C256.458 348.971 256.391 348.91 256.328 348.838C256.265 348.767 256.219 348.695 256.187 348.623C256.156 348.551 256.182 348.493 256.266 348.446C256.349 348.4 256.5 348.378 256.719 348.378L257.031 348.424C257.239 348.465 257.497 348.587 257.804 348.792C258.112 348.997 258.364 349.263 258.562 349.59C258.802 350.01 259.091 350.329 259.429 350.549C259.768 350.769 260.109 350.879 260.453 350.879C260.796 350.879 261.093 350.854 261.343 350.803C261.593 350.752 261.828 350.675 262.046 350.572C262.14 349.886 262.395 349.36 262.812 348.991C262.218 348.93 261.685 348.838 261.21 348.715C260.737 348.592 260.247 348.393 259.742 348.116C259.236 347.84 258.817 347.497 258.484 347.088C258.151 346.678 257.877 346.141 257.664 345.476C257.45 344.811 257.344 344.043 257.344 343.174C257.344 341.935 257.755 340.881 258.578 340.012C258.192 339.081 258.229 338.037 258.687 336.881C258.989 336.788 259.437 336.858 260.031 337.088C260.625 337.318 261.06 337.515 261.336 337.679C261.612 337.842 261.833 337.981 262 338.093C262.969 337.827 263.969 337.694 265 337.694C266.031 337.694 267.031 337.827 268 338.093L268.594 337.725C269 337.479 269.479 337.254 270.031 337.049C270.583 336.845 271.005 336.789 271.297 336.881C271.766 338.037 271.807 339.081 271.422 340.012C272.245 340.882 272.656 341.936 272.656 343.174C272.656 344.044 272.549 344.813 272.336 345.484C272.123 346.154 271.847 346.691 271.508 347.095C271.169 347.5 270.748 347.84 270.242 348.116C269.737 348.393 269.247 348.592 268.774 348.715C268.3 348.838 267.766 348.93 267.172 348.992C267.714 349.452 267.984 350.178 267.984 351.171V354.409C267.984 354.593 268.049 354.747 268.18 354.87C268.31 354.992 268.516 355.028 268.797 354.977C271.214 354.189 273.185 352.769 274.711 350.718C276.237 348.666 277 346.356 277 343.788C276.999 341.649 276.463 339.677 275.39 337.871Z" stroke="#3FA1E3" stroke-width="1.5"/>
<defs>
<filter id="filter0_f_4951_2551" x="135" y="95" width="209" height="209" filterUnits="userSpaceOnUse" color-interpolation-filters="sRGB">
<feFlood flood-opacity="0" result="BackgroundImageFix"/>
<feBlend mode="normal" in="SourceGraphic" in2="BackgroundImageFix" result="shape"/>
<feGaussianBlur stdDeviation="16" result="effect1_foregroundBlur_4951_2551"/>
</filter>
<filter id="filter1_f_4951_2551" x="182" y="144" width="114" height="114" filterUnits="userSpaceOnUse" color-interpolation-filters="sRGB">
<feFlood flood-opacity="0" result="BackgroundImageFix"/>
<feBlend mode="normal" in="SourceGraphic" in2="BackgroundImageFix" result="shape"/>
<feGaussianBlur stdDeviation="2" result="effect1_foregroundBlur_4951_2551"/>
</filter>
<filter id="filter2_f_4951_2551" x="191.637" y="157.5" width="94.725" height="87" filterUnits="userSpaceOnUse" color-interpolation-filters="sRGB">
<feFlood flood-opacity="0" result="BackgroundImageFix"/>
<feBlend mode="normal" in="SourceGraphic" in2="BackgroundImageFix" result="shape"/>
<feGaussianBlur stdDeviation="2" result="effect1_foregroundBlur_4951_2551"/>
</filter>
<linearGradient id="paint0_linear_4951_2551" x1="239" y1="169.486" x2="239" y2="231.006" gradientUnits="userSpaceOnUse">
<stop stop-color="#3FA1E3" stop-opacity="0.35"/>
<stop offset="0.605793" stop-color="#3FA1E3"/>
</linearGradient>
</defs>
</svg>
