<svg width="405" height="181" viewBox="0 0 405 181" fill="none" xmlns="http://www.w3.org/2000/svg">
<g clip-path="url(#clip0_3937_1147)">
<path d="M284.024 120.32L292.061 106.484C293.314 104.327 295.62 103 298.114 103H311.886C314.38 103 316.686 104.327 317.939 106.484L325.976 120.32C327.229 122.477 327.24 125.137 326.005 127.303L317.93 141.467C316.684 143.651 314.363 145 311.848 145H298.152C295.637 145 293.316 143.651 292.07 141.467L283.995 127.303C282.76 125.137 282.771 122.477 284.024 120.32Z" fill="url(#paint0_linear_3937_1147)"/>
<path d="M303 111H297.4L289 123.435L297.4 137H303L294.6 123.435L303 111Z" fill="#131313"/>
<path d="M307 111H312.6L321 123.435L312.6 137H307L315.4 123.435L307 111Z" fill="#131313"/>
<g filter="url(#filter0_f_3937_1147)">
<path d="M276.196 120.141L288.243 100.359C289.513 98.2731 291.779 97 294.221 97H315.779C318.221 97 320.487 98.2731 321.757 100.359L333.804 120.141C335.154 122.359 335.166 125.143 333.833 127.373L321.749 147.591C320.486 149.705 318.204 151 315.741 151H294.259C291.796 151 289.514 149.705 288.251 147.591L276.167 127.373C274.834 125.143 274.846 122.359 276.196 120.141Z" stroke="#D252B5"/>
</g>
<g opacity="0.3" filter="url(#filter1_f_3937_1147)">
<path d="M267.179 120.078L283.973 92.3715C285.242 90.2784 287.512 89 289.959 89H320.041C322.488 89 324.758 90.2784 326.027 92.3715L342.821 120.078C344.162 122.29 344.173 125.062 342.851 127.286L326.018 155.579C324.756 157.7 322.471 159 320.002 159H289.998C287.529 159 285.244 157.7 283.982 155.579L267.149 127.286C265.827 125.062 265.838 122.29 267.179 120.078Z" stroke="#D252B5"/>
</g>
<g opacity="0.1" clip-path="url(#clip1_3937_1147)">
<path d="M70 48C74.2745 48 78.2915 49.6635 81.3141 52.6859C84.3366 55.7084 86 59.7255 86 64C86 68.2745 84.3365 72.2915 81.3141 75.3141C78.2916 78.3366 74.2745 80 70 80C65.7255 80 61.7085 78.3365 58.6859 75.3141C55.6634 72.2916 54 68.2745 54 64C54 59.7255 55.6635 55.7085 58.6859 52.6859C61.7084 49.6634 65.7255 48 70 48ZM70 66.4367C65.0535 66.4367 60.8704 70.193 60.3045 75.0617L60.2788 75.2813L60.4487 75.4231C63.0361 77.59 66.3681 78.8974 70 78.8974C73.6319 78.8974 76.9648 77.59 79.5521 75.4231L79.7212 75.2813L79.6955 75.0609C79.4427 72.888 78.4605 70.8535 76.903 69.2957C75.0596 67.4526 72.6061 66.4367 70 66.4367ZM70 49.1026C61.7852 49.1026 55.1026 55.7852 55.1026 64C55.1026 67.7253 56.4775 71.1357 58.7452 73.75L59.2636 74.3478L59.4535 73.5801C59.9552 71.5496 61.0376 69.6989 62.597 68.2468C63.6736 67.2438 64.9242 66.4821 66.2756 65.9896L67.0296 65.7147L66.3654 65.2644C64.6382 64.0942 63.5032 62.1172 63.5032 59.8814C63.5033 56.2995 66.4181 53.3846 70 53.3846C73.5819 53.3846 76.4967 56.2995 76.4968 59.8814C76.4968 62.116 75.3628 64.0924 73.637 65.2628L72.9728 65.7131L73.7268 65.9872C75.1951 66.5222 76.5422 67.3764 77.6819 68.516C79.079 69.9128 80.0695 71.6644 80.5457 73.5817L80.7356 74.3486L81.2532 73.7516C83.5217 71.1373 84.8974 67.7261 84.8974 64C84.8974 55.7852 78.2148 49.1026 70 49.1026ZM70 54.4872C67.0254 54.4872 64.6059 56.9065 64.6058 59.8814C64.6058 62.7181 66.806 65.0485 69.5897 65.2588V65.2764H70C72.9747 65.2764 75.3942 62.8561 75.3942 59.8814C75.3941 56.9065 72.9746 54.4872 70 54.4872Z" fill="#D252B5"/>
</g>
<g opacity="0.3" clip-path="url(#clip2_3937_1147)">
<path d="M126 48C130.274 48 134.292 49.6635 137.314 52.6859C140.337 55.7084 142 59.7255 142 64C142 68.2745 140.337 72.2915 137.314 75.3141C134.292 78.3366 130.274 80 126 80C121.726 80 117.708 78.3365 114.686 75.3141C111.663 72.2916 110 68.2745 110 64C110 59.7255 111.663 55.7085 114.686 52.6859C117.708 49.6634 121.726 48 126 48ZM126 66.4367C121.054 66.4367 116.87 70.193 116.304 75.0617L116.279 75.2813L116.449 75.4231C119.036 77.59 122.368 78.8974 126 78.8974C129.632 78.8974 132.965 77.59 135.552 75.4231L135.721 75.2813L135.696 75.0609C135.443 72.888 134.461 70.8535 132.903 69.2957C131.06 67.4526 128.606 66.4367 126 66.4367ZM126 49.1026C117.785 49.1026 111.103 55.7852 111.103 64C111.103 67.7253 112.478 71.1357 114.745 73.75L115.264 74.3478L115.454 73.5801C115.955 71.5496 117.038 69.6989 118.597 68.2468C119.674 67.2438 120.924 66.4821 122.276 65.9896L123.03 65.7147L122.365 65.2644C120.638 64.0942 119.503 62.1172 119.503 59.8814C119.503 56.2995 122.418 53.3846 126 53.3846C129.582 53.3846 132.497 56.2995 132.497 59.8814C132.497 62.116 131.363 64.0924 129.637 65.2628L128.973 65.7131L129.727 65.9872C131.195 66.5222 132.542 67.3764 133.682 68.516C135.079 69.9128 136.07 71.6644 136.546 73.5817L136.736 74.3486L137.253 73.7516C139.522 71.1373 140.897 67.7261 140.897 64C140.897 55.7852 134.215 49.1026 126 49.1026ZM126 54.4872C123.025 54.4872 120.606 56.9065 120.606 59.8814C120.606 62.7181 122.806 65.0485 125.59 65.2588V65.2764H126C128.975 65.2764 131.394 62.8561 131.394 59.8814C131.394 56.9065 128.975 54.4872 126 54.4872Z" fill="#D252B5"/>
</g>
<g opacity="0.1" clip-path="url(#clip3_3937_1147)">
<path d="M70 108C74.2745 108 78.2915 109.663 81.3141 112.686C84.3366 115.708 86 119.726 86 124C86 128.274 84.3365 132.292 81.3141 135.314C78.2916 138.337 74.2745 140 70 140C65.7255 140 61.7085 138.337 58.6859 135.314C55.6634 132.292 54 128.274 54 124C54 119.726 55.6635 115.708 58.6859 112.686C61.7084 109.663 65.7255 108 70 108ZM70 126.437C65.0535 126.437 60.8704 130.193 60.3045 135.062L60.2788 135.281L60.4487 135.423C63.0361 137.59 66.3681 138.897 70 138.897C73.6319 138.897 76.9648 137.59 79.5521 135.423L79.7212 135.281L79.6955 135.061C79.4427 132.888 78.4605 130.853 76.903 129.296C75.0596 127.453 72.6061 126.437 70 126.437ZM70 109.103C61.7852 109.103 55.1026 115.785 55.1026 124C55.1026 127.725 56.4775 131.136 58.7452 133.75L59.2636 134.348L59.4535 133.58C59.9552 131.55 61.0376 129.699 62.597 128.247C63.6736 127.244 64.9242 126.482 66.2756 125.99L67.0296 125.715L66.3654 125.264C64.6382 124.094 63.5032 122.117 63.5032 119.881C63.5033 116.3 66.4181 113.385 70 113.385C73.5819 113.385 76.4967 116.3 76.4968 119.881C76.4968 122.116 75.3628 124.092 73.637 125.263L72.9728 125.713L73.7268 125.987C75.1951 126.522 76.5422 127.376 77.6819 128.516C79.079 129.913 80.0695 131.664 80.5457 133.582L80.7356 134.349L81.2532 133.752C83.5217 131.137 84.8974 127.726 84.8974 124C84.8974 115.785 78.2148 109.103 70 109.103ZM70 114.487C67.0254 114.487 64.6059 116.907 64.6058 119.881C64.6058 122.718 66.806 125.048 69.5897 125.259V125.276H70C72.9747 125.276 75.3942 122.856 75.3942 119.881C75.3941 116.907 72.9746 114.487 70 114.487Z" fill="#D252B5"/>
</g>
<g opacity="0.2" clip-path="url(#clip4_3937_1147)">
<path d="M97 78C101.274 78 105.292 79.6635 108.314 82.6859C111.337 85.7084 113 89.7255 113 94C113 98.2745 111.337 102.292 108.314 105.314C105.292 108.337 101.274 110 97 110C92.7255 110 88.7085 108.337 85.6859 105.314C82.6634 102.292 81 98.2745 81 94C81 89.7255 82.6635 85.7085 85.6859 82.6859C88.7084 79.6634 92.7255 78 97 78ZM97 96.4367C92.0535 96.4367 87.8704 100.193 87.3045 105.062L87.2788 105.281L87.4487 105.423C90.0361 107.59 93.3681 108.897 97 108.897C100.632 108.897 103.965 107.59 106.552 105.423L106.721 105.281L106.696 105.061C106.443 102.888 105.461 100.853 103.903 99.2957C102.06 97.4526 99.6061 96.4367 97 96.4367ZM97 79.1026C88.7852 79.1026 82.1026 85.7852 82.1026 94C82.1026 97.7253 83.4775 101.136 85.7452 103.75L86.2636 104.348L86.4535 103.58C86.9552 101.55 88.0376 99.6989 89.597 98.2468C90.6736 97.2438 91.9242 96.4821 93.2756 95.9896L94.0296 95.7147L93.3654 95.2644C91.6382 94.0942 90.5032 92.1172 90.5032 89.8814C90.5033 86.2995 93.4181 83.3846 97 83.3846C100.582 83.3846 103.497 86.2995 103.497 89.8814C103.497 92.116 102.363 94.0924 100.637 95.2628L99.9728 95.7131L100.727 95.9872C102.195 96.5222 103.542 97.3764 104.682 98.516C106.079 99.9128 107.07 101.664 107.546 103.582L107.736 104.349L108.253 103.752C110.522 101.137 111.897 97.7261 111.897 94C111.897 85.7852 105.215 79.1026 97 79.1026ZM97 84.4872C94.0254 84.4872 91.6059 86.9065 91.6058 89.8814C91.6058 92.7181 93.806 95.0485 96.5897 95.2588V95.2764H97C99.9747 95.2764 102.394 92.8561 102.394 89.8814C102.394 86.9065 99.9746 84.4872 97 84.4872Z" fill="#D252B5"/>
</g>
<g opacity="0.3" clip-path="url(#clip5_3937_1147)">
<path d="M153 78C157.274 78 161.292 79.6635 164.314 82.6859C167.337 85.7084 169 89.7255 169 94C169 98.2745 167.337 102.292 164.314 105.314C161.292 108.337 157.274 110 153 110C148.726 110 144.708 108.337 141.686 105.314C138.663 102.292 137 98.2745 137 94C137 89.7255 138.663 85.7085 141.686 82.6859C144.708 79.6634 148.726 78 153 78ZM153 96.4367C148.054 96.4367 143.87 100.193 143.304 105.062L143.279 105.281L143.449 105.423C146.036 107.59 149.368 108.897 153 108.897C156.632 108.897 159.965 107.59 162.552 105.423L162.721 105.281L162.696 105.061C162.443 102.888 161.461 100.853 159.903 99.2957C158.06 97.4526 155.606 96.4367 153 96.4367ZM153 79.1026C144.785 79.1026 138.103 85.7852 138.103 94C138.103 97.7253 139.478 101.136 141.745 103.75L142.264 104.348L142.454 103.58C142.955 101.55 144.038 99.6989 145.597 98.2468C146.674 97.2438 147.924 96.4821 149.276 95.9896L150.03 95.7147L149.365 95.2644C147.638 94.0942 146.503 92.1172 146.503 89.8814C146.503 86.2995 149.418 83.3846 153 83.3846C156.582 83.3846 159.497 86.2995 159.497 89.8814C159.497 92.116 158.363 94.0924 156.637 95.2628L155.973 95.7131L156.727 95.9872C158.195 96.5222 159.542 97.3764 160.682 98.516C162.079 99.9128 163.07 101.664 163.546 103.582L163.736 104.349L164.253 103.752C166.522 101.137 167.897 97.7261 167.897 94C167.897 85.7852 161.215 79.1026 153 79.1026ZM153 84.4872C150.025 84.4872 147.606 86.9065 147.606 89.8814C147.606 92.7181 149.806 95.0485 152.59 95.2588V95.2764H153C155.975 95.2764 158.394 92.8561 158.394 89.8814C158.394 86.9065 155.975 84.4872 153 84.4872Z" fill="#D252B5"/>
</g>
<g opacity="0.2" clip-path="url(#clip6_3937_1147)">
<path d="M97 134C101.274 134 105.292 135.663 108.314 138.686C111.337 141.708 113 145.726 113 150C113 154.274 111.337 158.292 108.314 161.314C105.292 164.337 101.274 166 97 166C92.7255 166 88.7085 164.337 85.6859 161.314C82.6634 158.292 81 154.274 81 150C81 145.726 82.6635 141.708 85.6859 138.686C88.7084 135.663 92.7255 134 97 134ZM97 152.437C92.0535 152.437 87.8704 156.193 87.3045 161.062L87.2788 161.281L87.4487 161.423C90.0361 163.59 93.3681 164.897 97 164.897C100.632 164.897 103.965 163.59 106.552 161.423L106.721 161.281L106.696 161.061C106.443 158.888 105.461 156.853 103.903 155.296C102.06 153.453 99.6061 152.437 97 152.437ZM97 135.103C88.7852 135.103 82.1026 141.785 82.1026 150C82.1026 153.725 83.4775 157.136 85.7452 159.75L86.2636 160.348L86.4535 159.58C86.9552 157.55 88.0376 155.699 89.597 154.247C90.6736 153.244 91.9242 152.482 93.2756 151.99L94.0296 151.715L93.3654 151.264C91.6382 150.094 90.5032 148.117 90.5032 145.881C90.5033 142.3 93.4181 139.385 97 139.385C100.582 139.385 103.497 142.3 103.497 145.881C103.497 148.116 102.363 150.092 100.637 151.263L99.9728 151.713L100.727 151.987C102.195 152.522 103.542 153.376 104.682 154.516C106.079 155.913 107.07 157.664 107.546 159.582L107.736 160.349L108.253 159.752C110.522 157.137 111.897 153.726 111.897 150C111.897 141.785 105.215 135.103 97 135.103ZM97 140.487C94.0254 140.487 91.6059 142.907 91.6058 145.881C91.6058 148.718 93.806 151.048 96.5897 151.259V151.276H97C99.9747 151.276 102.394 148.856 102.394 145.881C102.394 142.907 99.9746 140.487 97 140.487Z" fill="#D252B5"/>
</g>
<g opacity="0.3" clip-path="url(#clip7_3937_1147)">
<path d="M153 134C157.274 134 161.292 135.663 164.314 138.686C167.337 141.708 169 145.726 169 150C169 154.274 167.337 158.292 164.314 161.314C161.292 164.337 157.274 166 153 166C148.726 166 144.708 164.337 141.686 161.314C138.663 158.292 137 154.274 137 150C137 145.726 138.663 141.708 141.686 138.686C144.708 135.663 148.726 134 153 134ZM153 152.437C148.054 152.437 143.87 156.193 143.304 161.062L143.279 161.281L143.449 161.423C146.036 163.59 149.368 164.897 153 164.897C156.632 164.897 159.965 163.59 162.552 161.423L162.721 161.281L162.696 161.061C162.443 158.888 161.461 156.853 159.903 155.296C158.06 153.453 155.606 152.437 153 152.437ZM153 135.103C144.785 135.103 138.103 141.785 138.103 150C138.103 153.725 139.478 157.136 141.745 159.75L142.264 160.348L142.454 159.58C142.955 157.55 144.038 155.699 145.597 154.247C146.674 153.244 147.924 152.482 149.276 151.99L150.03 151.715L149.365 151.264C147.638 150.094 146.503 148.117 146.503 145.881C146.503 142.3 149.418 139.385 153 139.385C156.582 139.385 159.497 142.3 159.497 145.881C159.497 148.116 158.363 150.092 156.637 151.263L155.973 151.713L156.727 151.987C158.195 152.522 159.542 153.376 160.682 154.516C162.079 155.913 163.07 157.664 163.546 159.582L163.736 160.349L164.253 159.752C166.522 157.137 167.897 153.726 167.897 150C167.897 141.785 161.215 135.103 153 135.103ZM153 140.487C150.025 140.487 147.606 142.907 147.606 145.881C147.606 148.718 149.806 151.048 152.59 151.259V151.276H153C155.975 151.276 158.394 148.856 158.394 145.881C158.394 142.907 155.975 140.487 153 140.487Z" fill="#D252B5"/>
</g>
<g opacity="0.2" clip-path="url(#clip8_3937_1147)">
<path d="M124 108C128.274 108 132.292 109.663 135.314 112.686C138.337 115.708 140 119.726 140 124C140 128.274 138.337 132.292 135.314 135.314C132.292 138.337 128.274 140 124 140C119.726 140 115.708 138.337 112.686 135.314C109.663 132.292 108 128.274 108 124C108 119.726 109.663 115.708 112.686 112.686C115.708 109.663 119.726 108 124 108ZM124 126.437C119.054 126.437 114.87 130.193 114.304 135.062L114.279 135.281L114.449 135.423C117.036 137.59 120.368 138.897 124 138.897C127.632 138.897 130.965 137.59 133.552 135.423L133.721 135.281L133.696 135.061C133.443 132.888 132.461 130.853 130.903 129.296C129.06 127.453 126.606 126.437 124 126.437ZM124 109.103C115.785 109.103 109.103 115.785 109.103 124C109.103 127.725 110.478 131.136 112.745 133.75L113.264 134.348L113.454 133.58C113.955 131.55 115.038 129.699 116.597 128.247C117.674 127.244 118.924 126.482 120.276 125.99L121.03 125.715L120.365 125.264C118.638 124.094 117.503 122.117 117.503 119.881C117.503 116.3 120.418 113.385 124 113.385C127.582 113.385 130.497 116.3 130.497 119.881C130.497 122.116 129.363 124.092 127.637 125.263L126.973 125.713L127.727 125.987C129.195 126.522 130.542 127.376 131.682 128.516C133.079 129.913 134.07 131.664 134.546 133.582L134.736 134.349L135.253 133.752C137.522 131.137 138.897 127.726 138.897 124C138.897 115.785 132.215 109.103 124 109.103ZM124 114.487C121.025 114.487 118.606 116.907 118.606 119.881C118.606 122.718 120.806 125.048 123.59 125.259V125.276H124C126.975 125.276 129.394 122.856 129.394 119.881C129.394 116.907 126.975 114.487 124 114.487Z" fill="#D252B5"/>
</g>
<g opacity="0.3" clip-path="url(#clip9_3937_1147)">
<path d="M180 108C184.274 108 188.292 109.663 191.314 112.686C194.337 115.708 196 119.726 196 124C196 128.274 194.337 132.292 191.314 135.314C188.292 138.337 184.274 140 180 140C175.726 140 171.708 138.337 168.686 135.314C165.663 132.292 164 128.274 164 124C164 119.726 165.663 115.708 168.686 112.686C171.708 109.663 175.726 108 180 108ZM180 126.437C175.054 126.437 170.87 130.193 170.304 135.062L170.279 135.281L170.449 135.423C173.036 137.59 176.368 138.897 180 138.897C183.632 138.897 186.965 137.59 189.552 135.423L189.721 135.281L189.696 135.061C189.443 132.888 188.461 130.853 186.903 129.296C185.06 127.453 182.606 126.437 180 126.437ZM180 109.103C171.785 109.103 165.103 115.785 165.103 124C165.103 127.725 166.478 131.136 168.745 133.75L169.264 134.348L169.454 133.58C169.955 131.55 171.038 129.699 172.597 128.247C173.674 127.244 174.924 126.482 176.276 125.99L177.03 125.715L176.365 125.264C174.638 124.094 173.503 122.117 173.503 119.881C173.503 116.3 176.418 113.385 180 113.385C183.582 113.385 186.497 116.3 186.497 119.881C186.497 122.116 185.363 124.092 183.637 125.263L182.973 125.713L183.727 125.987C185.195 126.522 186.542 127.376 187.682 128.516C189.079 129.913 190.07 131.664 190.546 133.582L190.736 134.349L191.253 133.752C193.522 131.137 194.897 127.726 194.897 124C194.897 115.785 188.215 109.103 180 109.103ZM180 114.487C177.025 114.487 174.606 116.907 174.606 119.881C174.606 122.718 176.806 125.048 179.59 125.259V125.276H180C182.975 125.276 185.394 122.856 185.394 119.881C185.394 116.907 182.975 114.487 180 114.487Z" fill="#D252B5"/>
</g>
<g opacity="0.1" clip-path="url(#clip10_3937_1147)">
<path d="M70 164C74.2745 164 78.2915 165.663 81.3141 168.686C84.3366 171.708 86 175.726 86 180C86 184.274 84.3365 188.292 81.3141 191.314C78.2916 194.337 74.2745 196 70 196C65.7255 196 61.7085 194.337 58.6859 191.314C55.6634 188.292 54 184.274 54 180C54 175.726 55.6635 171.708 58.6859 168.686C61.7084 165.663 65.7255 164 70 164ZM70 182.437C65.0535 182.437 60.8704 186.193 60.3045 191.062L60.2788 191.281L60.4487 191.423C63.0361 193.59 66.3681 194.897 70 194.897C73.6319 194.897 76.9648 193.59 79.5521 191.423L79.7212 191.281L79.6955 191.061C79.4427 188.888 78.4605 186.853 76.903 185.296C75.0596 183.453 72.6061 182.437 70 182.437ZM70 165.103C61.7852 165.103 55.1026 171.785 55.1026 180C55.1026 183.725 56.4775 187.136 58.7452 189.75L59.2636 190.348L59.4535 189.58C59.9552 187.55 61.0376 185.699 62.597 184.247C63.6736 183.244 64.9242 182.482 66.2756 181.99L67.0296 181.715L66.3654 181.264C64.6382 180.094 63.5032 178.117 63.5032 175.881C63.5033 172.3 66.4181 169.385 70 169.385C73.5819 169.385 76.4967 172.3 76.4968 175.881C76.4968 178.116 75.3628 180.092 73.637 181.263L72.9728 181.713L73.7268 181.987C75.1951 182.522 76.5422 183.376 77.6819 184.516C79.079 185.913 80.0695 187.664 80.5457 189.582L80.7356 190.349L81.2532 189.752C83.5217 187.137 84.8974 183.726 84.8974 180C84.8974 171.785 78.2148 165.103 70 165.103ZM70 170.487C67.0254 170.487 64.6059 172.907 64.6058 175.881C64.6058 178.718 66.806 181.048 69.5897 181.259V181.276H70C72.9747 181.276 75.3942 178.856 75.3942 175.881C75.3941 172.907 72.9746 170.487 70 170.487Z" fill="#D252B5"/>
</g>
<g opacity="0.3" clip-path="url(#clip11_3937_1147)">
<path d="M126 164C130.274 164 134.292 165.663 137.314 168.686C140.337 171.708 142 175.726 142 180C142 184.274 140.337 188.292 137.314 191.314C134.292 194.337 130.274 196 126 196C121.726 196 117.708 194.337 114.686 191.314C111.663 188.292 110 184.274 110 180C110 175.726 111.663 171.708 114.686 168.686C117.708 165.663 121.726 164 126 164ZM126 182.437C121.054 182.437 116.87 186.193 116.304 191.062L116.279 191.281L116.449 191.423C119.036 193.59 122.368 194.897 126 194.897C129.632 194.897 132.965 193.59 135.552 191.423L135.721 191.281L135.696 191.061C135.443 188.888 134.461 186.853 132.903 185.296C131.06 183.453 128.606 182.437 126 182.437ZM126 165.103C117.785 165.103 111.103 171.785 111.103 180C111.103 183.725 112.478 187.136 114.745 189.75L115.264 190.348L115.454 189.58C115.955 187.55 117.038 185.699 118.597 184.247C119.674 183.244 120.924 182.482 122.276 181.99L123.03 181.715L122.365 181.264C120.638 180.094 119.503 178.117 119.503 175.881C119.503 172.3 122.418 169.385 126 169.385C129.582 169.385 132.497 172.3 132.497 175.881C132.497 178.116 131.363 180.092 129.637 181.263L128.973 181.713L129.727 181.987C131.195 182.522 132.542 183.376 133.682 184.516C135.079 185.913 136.07 187.664 136.546 189.582L136.736 190.349L137.253 189.752C139.522 187.137 140.897 183.726 140.897 180C140.897 171.785 134.215 165.103 126 165.103ZM126 170.487C123.025 170.487 120.606 172.907 120.606 175.881C120.606 178.718 122.806 181.048 125.59 181.259V181.276H126C128.975 181.276 131.394 178.856 131.394 175.881C131.394 172.907 128.975 170.487 126 170.487Z" fill="#D252B5"/>
</g>
<path opacity="0.3" d="M276.5 134H253.026C239.017 134 226.915 143.797 224 157.5C221.085 171.203 208.983 181 194.974 181H146" stroke="url(#paint1_linear_3937_1147)"/>
<path opacity="0.3" d="M276.5 112H253.026C239.017 112 226.915 102.203 224 88.5C221.085 74.7973 208.983 65 194.974 65H146" stroke="url(#paint2_linear_3937_1147)"/>
<path opacity="0.3" d="M276 128H248.113C238.432 128 229.226 132.195 222.874 139.5C216.521 146.805 207.315 151 197.634 151H174" stroke="url(#paint3_linear_3937_1147)"/>
<path opacity="0.3" d="M276 118H248.113C238.432 118 229.226 113.805 222.874 106.5C216.521 99.1946 207.315 95 197.634 95H174" stroke="url(#paint4_linear_3937_1147)"/>
<path opacity="0.3" d="M276.5 123H199.5" stroke="url(#paint5_linear_3937_1147)"/>
</g>
<defs>
<filter id="filter0_f_3937_1147" x="271.675" y="93.5" width="66.6497" height="61" filterUnits="userSpaceOnUse" color-interpolation-filters="sRGB">
<feFlood flood-opacity="0" result="BackgroundImageFix"/>
<feBlend mode="normal" in="SourceGraphic" in2="BackgroundImageFix" result="shape"/>
<feGaussianBlur stdDeviation="1.5" result="effect1_foregroundBlur_3937_1147"/>
</filter>
<filter id="filter1_f_3937_1147" x="262.665" y="85.5" width="84.6697" height="77" filterUnits="userSpaceOnUse" color-interpolation-filters="sRGB">
<feFlood flood-opacity="0" result="BackgroundImageFix"/>
<feBlend mode="normal" in="SourceGraphic" in2="BackgroundImageFix" result="shape"/>
<feGaussianBlur stdDeviation="1.5" result="effect1_foregroundBlur_3937_1147"/>
</filter>
<linearGradient id="paint0_linear_3937_1147" x1="305" y1="103" x2="305" y2="145" gradientUnits="userSpaceOnUse">
<stop stop-color="#D252B5" stop-opacity="0.35"/>
<stop offset="0.605793" stop-color="#D252B5"/>
</linearGradient>
<linearGradient id="paint1_linear_3937_1147" x1="276.5" y1="144.534" x2="146" y2="144.534" gradientUnits="userSpaceOnUse">
<stop offset="0.822123" stop-color="#D252B5"/>
<stop offset="1" stop-color="#D252B5" stop-opacity="0"/>
</linearGradient>
<linearGradient id="paint2_linear_3937_1147" x1="276.5" y1="101.466" x2="146" y2="101.466" gradientUnits="userSpaceOnUse">
<stop offset="0.822123" stop-color="#D252B5"/>
<stop offset="1" stop-color="#D252B5" stop-opacity="0"/>
</linearGradient>
<linearGradient id="paint3_linear_3937_1147" x1="276" y1="133.155" x2="174" y2="133.155" gradientUnits="userSpaceOnUse">
<stop offset="0.822123" stop-color="#D252B5"/>
<stop offset="1" stop-color="#D252B5" stop-opacity="0"/>
</linearGradient>
<linearGradient id="paint4_linear_3937_1147" x1="276" y1="112.845" x2="174" y2="112.845" gradientUnits="userSpaceOnUse">
<stop offset="0.822123" stop-color="#D252B5"/>
<stop offset="1" stop-color="#D252B5" stop-opacity="0"/>
</linearGradient>
<linearGradient id="paint5_linear_3937_1147" x1="276.5" y1="123.224" x2="199.5" y2="123.224" gradientUnits="userSpaceOnUse">
<stop offset="0.822123" stop-color="#D252B5"/>
<stop offset="1" stop-color="#D252B5" stop-opacity="0"/>
</linearGradient>
<clipPath id="clip0_3937_1147">
<rect width="405" height="181" fill="white"/>
</clipPath>
<clipPath id="clip1_3937_1147">
<rect width="32" height="32" fill="white" transform="translate(54 48)"/>
</clipPath>
<clipPath id="clip2_3937_1147">
<rect width="32" height="32" fill="white" transform="translate(110 48)"/>
</clipPath>
<clipPath id="clip3_3937_1147">
<rect width="32" height="32" fill="white" transform="translate(54 108)"/>
</clipPath>
<clipPath id="clip4_3937_1147">
<rect width="32" height="32" fill="white" transform="translate(81 78)"/>
</clipPath>
<clipPath id="clip5_3937_1147">
<rect width="32" height="32" fill="white" transform="translate(137 78)"/>
</clipPath>
<clipPath id="clip6_3937_1147">
<rect width="32" height="32" fill="white" transform="translate(81 134)"/>
</clipPath>
<clipPath id="clip7_3937_1147">
<rect width="32" height="32" fill="white" transform="translate(137 134)"/>
</clipPath>
<clipPath id="clip8_3937_1147">
<rect width="32" height="32" fill="white" transform="translate(108 108)"/>
</clipPath>
<clipPath id="clip9_3937_1147">
<rect width="32" height="32" fill="white" transform="translate(164 108)"/>
</clipPath>
<clipPath id="clip10_3937_1147">
<rect width="32" height="32" fill="white" transform="translate(54 164)"/>
</clipPath>
<clipPath id="clip11_3937_1147">
<rect width="32" height="32" fill="white" transform="translate(110 164)"/>
</clipPath>
</defs>
</svg>
