<svg width="480" height="400" viewBox="0 0 480 400" fill="none" xmlns="http://www.w3.org/2000/svg">
<g clip-path="url(#clip0_3937_1099)">
<circle opacity="0.2" cx="112.5" cy="96.5" r="104.5" fill="url(#paint0_radial_3937_1099)"/>
<circle opacity="0.2" cx="368.5" cy="96.5" r="104.5" fill="url(#paint1_radial_3937_1099)"/>
<path d="M207.899 363.23L222.835 337.494C224.087 335.336 226.394 334.008 228.889 334.008H255.111C257.606 334.008 259.913 335.336 261.165 337.494L276.101 363.23C277.351 365.385 277.362 368.043 276.129 370.208L261.156 396.495C259.911 398.681 257.589 400.031 255.073 400.031H228.927C226.411 400.031 224.089 398.681 222.844 396.495L207.871 370.208C206.638 368.043 206.649 365.385 207.899 363.23Z" fill="url(#paint2_linear_3937_1099)"/>
<path d="M238.859 346.583H230.065L216.873 366.131L230.065 387.455H238.859L225.667 366.131L238.859 346.583Z" fill="#131313"/>
<path d="M245.141 346.583H253.935L267.127 366.131L253.935 387.455H245.141L258.333 366.131L245.141 346.583Z" fill="#131313"/>
<g filter="url(#filter0_f_3937_1099)">
<path d="M195.508 363.018L216.85 327.937C218.12 325.85 220.387 324.576 222.83 324.576H261.17C263.613 324.576 265.88 325.85 267.15 327.937L288.492 363.018C289.841 365.235 289.852 368.016 288.522 370.245L267.141 406.051C265.878 408.166 263.596 409.462 261.131 409.462H222.869C220.404 409.462 218.122 408.166 216.859 406.051L195.478 370.245C194.148 368.016 194.159 365.235 195.508 363.018Z" stroke="#D252B5"/>
</g>
<g opacity="0.3" filter="url(#filter1_f_3937_1099)">
<path d="M181.357 362.912L210.144 315.374C211.413 313.28 213.683 312 216.132 312H267.868C270.316 312 272.587 313.28 273.855 315.374L302.643 362.912C303.982 365.124 303.994 367.893 302.673 370.115L273.847 418.614C272.585 420.737 270.299 422.038 267.83 422.038H216.17C213.701 422.038 211.414 420.737 210.153 418.614L181.327 370.115C180.006 367.893 180.018 365.124 181.357 362.912Z" stroke="#D252B5"/>
</g>
<path d="M154.651 79.2396C153.177 73.3229 149.884 67.9571 145.217 63.9379C139.871 59.3333 133.05 56.7977 126.011 56.7977C120.73 56.7977 115.672 58.1635 111.207 60.7729C106.479 56.4362 100.279 54 93.7647 54C79.7922 54 68.3721 65.171 67.9163 79.0749C63.0859 80.429 58.7122 83.1854 55.3688 87.0302C51.2636 91.7491 49.0012 97.7993 49 104.062C49 118.364 60.6018 130 74.8625 130H147.138C161.398 130 173 118.364 173 104.062C173 92.5945 165.417 82.5206 154.651 79.2396Z" stroke="url(#paint3_linear_3937_1099)"/>
<path d="M114 166.5V196C114 223.614 136.386 246 164 246H189C216.614 246 239 268.386 239 296V307.5" stroke="url(#paint4_linear_3937_1099)"/>
<path d="M369 166.5V196C369 223.614 346.614 246 319 246H294C266.386 246 244 268.386 244 296V307.5" stroke="url(#paint5_linear_3937_1099)"/>
<path d="M400.109 68.4687H379.484C378.059 68.4687 376.906 67.3156 376.906 65.8906C376.906 64.4656 378.059 63.3125 379.484 63.3125H400.109C401.534 63.3125 402.687 64.4656 402.687 65.8906C402.687 67.3156 401.534 68.4687 400.109 68.4687ZM358.516 68.4687C357.092 68.4687 355.937 67.3144 355.937 65.8906C355.937 64.4665 357.092 63.3125 358.516 63.3125C359.939 63.3125 361.094 64.4665 361.094 65.8906C361.094 67.3144 359.939 68.4687 358.516 68.4687ZM348.203 68.4687C346.779 68.4687 345.625 67.3144 345.625 65.8906C345.625 64.4665 346.779 63.3125 348.203 63.3125C349.627 63.3125 350.781 64.4665 350.781 65.8906C350.781 67.3144 349.627 68.4687 348.203 68.4687ZM337.891 68.4687C336.467 68.4687 335.312 67.3144 335.312 65.8906C335.312 64.4665 336.467 63.3125 337.891 63.3125C339.314 63.3125 340.469 64.4665 340.469 65.8906C340.469 67.3144 339.314 68.4687 337.891 68.4687ZM405.266 53H332.734C328.469 53 325 56.4695 325 60.7344V71.0469C325 75.3118 328.469 78.7812 332.734 78.7812H405.266C409.531 78.7812 413 75.3118 413 71.0469V60.7344C413 56.4695 409.531 53 405.266 53Z" stroke="url(#paint6_linear_3937_1099)"/>
<path d="M400.109 99.5781H379.484C378.059 99.5781 376.906 98.425 376.906 97C376.906 95.575 378.059 94.4219 379.484 94.4219H400.109C401.534 94.4219 402.687 95.575 402.687 97C402.687 98.425 401.534 99.5781 400.109 99.5781ZM358.516 99.5781C357.092 99.5781 355.937 98.4238 355.937 97C355.937 95.5758 357.092 94.4219 358.516 94.4219C359.939 94.4219 361.094 95.5758 361.094 97C361.094 98.4238 359.939 99.5781 358.516 99.5781ZM348.203 99.5781C346.779 99.5781 345.625 98.4238 345.625 97C345.625 95.5758 346.779 94.4219 348.203 94.4219C349.627 94.4219 350.781 95.5758 350.781 97C350.781 98.4238 349.627 99.5781 348.203 99.5781ZM337.891 99.5781C336.467 99.5781 335.312 98.4238 335.312 97C335.312 95.5758 336.467 94.4219 337.891 94.4219C339.314 94.4219 340.469 95.5758 340.469 97C340.469 98.4238 339.314 99.5781 337.891 99.5781ZM405.266 84.1094H332.734C328.469 84.1094 325 87.5788 325 91.8437V102.156C325 106.421 328.469 109.891 332.734 109.891H405.266C409.531 109.891 413 106.421 413 102.156V91.8437C413 87.5788 409.531 84.1094 405.266 84.1094Z" stroke="url(#paint7_linear_3937_1099)"/>
<path d="M400.109 130.687H379.484C378.059 130.687 376.906 129.534 376.906 128.109C376.906 126.684 378.059 125.531 379.484 125.531H400.109C401.534 125.531 402.687 126.684 402.687 128.109C402.687 129.534 401.534 130.687 400.109 130.687ZM358.516 130.687C357.092 130.687 355.937 129.533 355.937 128.109C355.937 126.685 357.092 125.531 358.516 125.531C359.939 125.531 361.094 126.685 361.094 128.109C361.094 129.533 359.939 130.687 358.516 130.687ZM348.203 130.687C346.779 130.687 345.625 129.533 345.625 128.109C345.625 126.685 346.779 125.531 348.203 125.531C349.627 125.531 350.781 126.685 350.781 128.109C350.781 129.533 349.627 130.687 348.203 130.687ZM337.891 130.687C336.467 130.687 335.312 129.533 335.312 128.109C335.312 126.685 336.467 125.531 337.891 125.531C339.314 125.531 340.469 126.685 340.469 128.109C340.469 129.533 339.314 130.687 337.891 130.687ZM405.266 115.219H332.734C328.469 115.219 325 118.688 325 122.953V133.266C325 137.531 328.469 141 332.734 141H405.266C409.531 141 413 137.531 413 133.266V122.953C413 118.688 409.531 115.219 405.266 115.219Z" stroke="url(#paint8_linear_3937_1099)"/>
</g>
<defs>
<filter id="filter0_f_3937_1099" x="190.989" y="321.076" width="102.023" height="91.8862" filterUnits="userSpaceOnUse" color-interpolation-filters="sRGB">
<feFlood flood-opacity="0" result="BackgroundImageFix"/>
<feBlend mode="normal" in="SourceGraphic" in2="BackgroundImageFix" result="shape"/>
<feGaussianBlur stdDeviation="1.5" result="effect1_foregroundBlur_3937_1099"/>
</filter>
<filter id="filter1_f_3937_1099" x="176.844" y="308.5" width="130.311" height="117.038" filterUnits="userSpaceOnUse" color-interpolation-filters="sRGB">
<feFlood flood-opacity="0" result="BackgroundImageFix"/>
<feBlend mode="normal" in="SourceGraphic" in2="BackgroundImageFix" result="shape"/>
<feGaussianBlur stdDeviation="1.5" result="effect1_foregroundBlur_3937_1099"/>
</filter>
<radialGradient id="paint0_radial_3937_1099" cx="0" cy="0" r="1" gradientUnits="userSpaceOnUse" gradientTransform="translate(112.5 96.5) rotate(90) scale(104.5 92.7254)">
<stop offset="0.524044" stop-color="#D252B5" stop-opacity="0"/>
<stop offset="1" stop-color="#D252B5"/>
</radialGradient>
<radialGradient id="paint1_radial_3937_1099" cx="0" cy="0" r="1" gradientUnits="userSpaceOnUse" gradientTransform="translate(368.5 96.5) rotate(90) scale(104.5 92.7254)">
<stop offset="0.524044" stop-color="#D252B5" stop-opacity="0"/>
<stop offset="1" stop-color="#D252B5"/>
</radialGradient>
<linearGradient id="paint2_linear_3937_1099" x1="242" y1="334.008" x2="242" y2="400.031" gradientUnits="userSpaceOnUse">
<stop stop-color="#D252B5" stop-opacity="0.35"/>
<stop offset="0.605793" stop-color="#D252B5"/>
</linearGradient>
<linearGradient id="paint3_linear_3937_1099" x1="111" y1="54" x2="111" y2="130" gradientUnits="userSpaceOnUse">
<stop stop-color="#D252B5"/>
<stop offset="1" stop-color="#D252B5" stop-opacity="0.35"/>
</linearGradient>
<linearGradient id="paint4_linear_3937_1099" x1="115.276" y1="237.695" x2="239" y2="237.695" gradientUnits="userSpaceOnUse">
<stop offset="0.822123" stop-color="#D252B5"/>
<stop offset="1" stop-color="#D252B5" stop-opacity="0"/>
</linearGradient>
<linearGradient id="paint5_linear_3937_1099" x1="367.724" y1="237.695" x2="244" y2="237.695" gradientUnits="userSpaceOnUse">
<stop offset="0.822123" stop-color="#D252B5"/>
<stop offset="1" stop-color="#D252B5" stop-opacity="0"/>
</linearGradient>
<linearGradient id="paint6_linear_3937_1099" x1="369" y1="53" x2="369" y2="141" gradientUnits="userSpaceOnUse">
<stop stop-color="#D252B5"/>
<stop offset="1" stop-color="#D252B5" stop-opacity="0.35"/>
</linearGradient>
<linearGradient id="paint7_linear_3937_1099" x1="369" y1="53" x2="369" y2="141" gradientUnits="userSpaceOnUse">
<stop stop-color="#D252B5"/>
<stop offset="1" stop-color="#D252B5" stop-opacity="0.35"/>
</linearGradient>
<linearGradient id="paint8_linear_3937_1099" x1="369" y1="53" x2="369" y2="141" gradientUnits="userSpaceOnUse">
<stop stop-color="#D252B5"/>
<stop offset="1" stop-color="#D252B5" stop-opacity="0.35"/>
</linearGradient>
<clipPath id="clip0_3937_1099">
<rect width="480" height="400" fill="white"/>
</clipPath>
</defs>
</svg>
