<svg width="480" height="400" viewBox="0 0 480 400" fill="none" xmlns="http://www.w3.org/2000/svg">
<g opacity="0.2" filter="url(#filter0_f_5473_4863)">
<circle cx="240" cy="200" r="122" fill="#D252B5"/>
</g>
<g opacity="0.2" filter="url(#filter1_f_5473_4863)">
<circle cx="240" cy="200" r="65" fill="#D252B5"/>
</g>
<path d="M193.988 197.096L214.773 162.032C216.034 159.906 218.323 158.602 220.795 158.602H257.826C260.298 158.602 262.587 159.906 263.848 162.032L284.633 197.096C285.927 199.279 285.938 201.992 284.662 204.185L263.839 239.976C262.585 242.13 260.281 243.456 257.788 243.456H220.833C218.34 243.456 216.036 242.13 214.782 239.976L193.959 204.185C192.683 201.992 192.694 199.279 193.988 197.096Z" fill="url(#paint0_linear_5473_4863)"/>
<path d="M234.318 173.578H223.337L206.865 199.837L223.337 228.484H234.318L217.846 199.837L234.318 173.578Z" fill="#131313"/>
<path d="M244.302 173.578H255.284L271.755 199.837L255.284 228.484H244.302L260.774 199.837L244.302 173.578Z" fill="#131313"/>
<circle opacity="0.2" cx="240" cy="200" r="106.5" stroke="#3FA1E3"/>
<circle opacity="0.1" cx="240" cy="200" r="147.5" stroke="#3FA1E3"/>
<circle opacity="0.1" cx="240" cy="200" r="193.5" stroke="#3FA1E3"/>
<circle cx="95" cy="174" r="38" fill="url(#paint1_linear_5473_4863)"/>
<circle cx="316" cy="108" r="38" fill="url(#paint2_linear_5473_4863)"/>
<circle cx="363" cy="345" r="38" fill="url(#paint3_linear_5473_4863)"/>
<path fill-rule="evenodd" clip-rule="evenodd" d="M107.005 156C108.865 155.998 110.719 156.238 112.518 156.713C113.285 156.92 114.04 157.171 114.779 157.463C114.792 157.479 114.8 157.498 114.8 157.519C114.8 157.539 114.793 157.56 114.779 157.575C114.463 158.242 114.121 158.891 113.755 159.524C113.74 159.535 113.722 159.541 113.704 159.541C113.686 159.541 113.669 159.535 113.654 159.524C112.914 159.256 112.159 159.03 111.393 158.85C106.444 157.705 101.245 158.53 96.8936 161.149C98.7701 162.739 100.367 164.632 101.618 166.749C101.868 167.174 102.168 167.724 102.306 167.999C102.443 168.274 102.518 168.412 102.718 168.861C102.918 169.311 103.105 169.761 103.28 170.224C104.186 172.659 104.647 175.238 104.643 177.836C104.644 180.781 104.049 183.696 102.894 186.404C101.738 189.113 100.045 191.56 97.918 193.597C97.593 193.909 97.1812 194.272 96.9062 194.51C96.6313 194.747 96.4308 194.91 96.0684 195.185C95.706 195.46 95.3309 195.722 94.9561 195.984C94.9414 195.995 94.9241 196 94.9062 196C94.8885 196 94.8711 195.995 94.8564 195.984C94.4816 195.735 94.0316 195.397 93.7441 195.185C93.4567 194.972 93.2561 194.81 92.9062 194.51C92.5563 194.21 92.2185 193.909 91.8936 193.597C88.8156 190.65 86.6677 186.866 85.7148 182.713C84.762 178.56 85.0464 174.218 86.5322 170.224C86.6947 169.774 86.9446 169.174 87.082 168.874C87.2195 168.574 87.2692 168.449 87.4941 168.012C87.7191 167.574 87.9317 167.162 88.1816 166.762C89.4309 164.643 91.0281 162.75 92.9062 161.162C88.5655 158.529 83.3706 157.686 78.4199 158.813C77.6537 158.994 76.8985 159.219 76.1582 159.487C76.1435 159.498 76.1253 159.503 76.1074 159.503C76.0897 159.503 76.0722 159.498 76.0576 159.487C75.6786 158.852 75.3325 158.197 75.0205 157.525C75.0073 157.51 75 157.489 75 157.469C75 157.448 75.0073 157.428 75.0205 157.412C75.7521 157.136 76.4993 156.903 77.2578 156.713C79.0688 156.235 80.9347 155.995 82.8076 156C87.1143 155.995 91.3256 157.269 94.9062 159.662C98.4876 157.271 102.698 155.996 107.005 156ZM88.457 171.986C87.4115 175.291 87.2691 178.815 88.0449 182.193C88.8208 185.571 90.4866 188.68 92.8691 191.197C93.466 189.305 93.7689 187.332 93.7686 185.348C93.7774 180.377 91.8761 175.594 88.457 171.986ZM101.394 171.986C97.9745 175.594 96.0722 180.377 96.0811 185.348C96.0828 187.332 96.3867 189.304 96.9814 191.197C100.399 187.589 102.3 182.806 102.293 177.836C102.292 175.852 101.989 173.879 101.394 171.986ZM94.9062 162.574C93.1786 163.944 91.6947 165.597 90.5186 167.462C91.957 167.796 93.4296 167.964 94.9062 167.962C96.3828 167.964 97.8548 167.796 99.293 167.462C98.1153 165.598 96.6326 163.945 94.9062 162.574Z" fill="#131313"/>
<path d="M337 111.817L336.999 115.803C336.999 116.202 336.519 116.641 335.433 117.207C333.298 118.32 322.24 122.866 319.886 124.094C317.532 125.321 316.224 125.31 314.364 124.421C312.505 123.532 300.736 118.778 298.616 117.765C297.557 117.259 297 116.831 297 116.428V112.385L297.001 112.384C296.993 112.794 297.534 113.23 298.617 113.748C300.738 114.761 312.505 119.515 314.364 120.403C316.224 121.292 317.532 121.304 319.886 120.076C322.24 118.849 333.296 114.303 335.432 113.19C336.491 112.638 337.004 112.205 336.999 111.816L337 111.817Z" fill="#131313"/>
<path d="M337 105.278L336.999 109.265C336.999 109.664 336.519 110.103 335.433 110.669C333.298 111.782 322.24 116.329 319.886 117.557C317.532 118.784 316.224 118.772 314.364 117.883C312.504 116.994 300.736 112.24 298.616 111.227C297.557 110.72 297 110.294 297 109.89V105.846L297.001 105.845C296.996 106.255 297.537 106.689 298.617 107.205C300.737 108.218 312.504 112.972 314.364 113.86C316.224 114.749 317.532 114.762 319.886 113.535C322.24 112.308 333.296 107.761 335.432 106.648C336.488 106.098 337.001 105.666 336.999 105.277L337 105.278Z" fill="#131313"/>
<path d="M337 98.4932L336.999 102.479C336.999 102.879 336.519 103.317 335.433 103.884C333.298 104.996 322.24 109.543 319.886 110.771C317.532 111.998 316.224 111.986 314.364 111.097C312.504 110.208 300.736 105.454 298.616 104.441C297.557 103.935 297 103.508 297 103.104V99.0605L297.001 99.0596C296.996 99.4694 297.537 99.9037 298.617 100.42C300.737 101.433 312.505 106.187 314.364 107.076C316.224 107.965 317.532 107.976 319.886 106.749C322.241 105.522 333.297 100.975 335.432 99.8623C336.488 99.3119 337.001 98.8804 336.999 98.4922L337 98.4932Z" fill="#131313"/>
<path d="M325.952 95.4377L331.395 97.5886L325.957 99.7375L325.952 95.4377Z" fill="#131313"/>
<path d="M314.794 90.6973C317.267 89.8101 318.125 89.7788 320.23 90.5498C322.335 91.3212 333.327 95.695 335.406 96.457C337.487 97.2188 337.566 97.8476 335.432 98.96C333.297 100.072 322.241 104.619 319.886 105.847C317.532 107.074 316.223 107.061 314.363 106.173C312.502 105.283 300.737 100.531 298.617 99.5176C296.498 98.5048 296.453 97.8067 298.535 96.9912C300.619 96.1755 312.321 91.5847 314.794 90.6973ZM311.056 101.256L317.474 103.918L320.252 99.8447L311.056 101.256ZM319.931 97.8193L325.366 99.9688L325.957 99.7373L325.952 95.4375L319.931 97.8193ZM308.575 95.9609C305.861 95.9609 303.66 96.8141 303.659 97.8662C303.66 98.9184 305.861 99.7715 308.575 99.7715C311.29 99.7714 313.491 98.9186 313.491 97.8662C313.491 96.8141 311.29 95.961 308.575 95.9609ZM315.428 93.6475L312.464 94.7168L316.436 95.0732L317.679 97.1406L318.448 95.2881L321.888 94.9307L319.221 93.9326L319.928 92.2363L317.313 93.0928L314.538 92.0078L315.428 93.6475Z" fill="#131313"/>
<path d="M341.002 345.457L351.645 334.814L362.419 345.588L351.776 356.231L341.002 345.457Z" fill="#131313"/>
<path d="M352.709 333.75L363.351 323.107L374.126 333.881L363.483 344.524L352.709 333.75Z" fill="#131313"/>
<path d="M352.853 357.309L363.496 346.666L374.27 357.44L363.627 368.083L352.853 357.309Z" fill="#131313"/>
<path d="M364.56 345.602L375.203 334.959L385.977 345.733L375.334 356.376L364.56 345.602Z" fill="#131313"/>
<defs>
<filter id="filter0_f_5473_4863" x="54" y="14" width="372" height="372" filterUnits="userSpaceOnUse" color-interpolation-filters="sRGB">
<feFlood flood-opacity="0" result="BackgroundImageFix"/>
<feBlend mode="normal" in="SourceGraphic" in2="BackgroundImageFix" result="shape"/>
<feGaussianBlur stdDeviation="32" result="effect1_foregroundBlur_5473_4863"/>
</filter>
<filter id="filter1_f_5473_4863" x="111" y="71" width="258" height="258" filterUnits="userSpaceOnUse" color-interpolation-filters="sRGB">
<feFlood flood-opacity="0" result="BackgroundImageFix"/>
<feBlend mode="normal" in="SourceGraphic" in2="BackgroundImageFix" result="shape"/>
<feGaussianBlur stdDeviation="32" result="effect1_foregroundBlur_5473_4863"/>
</filter>
<linearGradient id="paint0_linear_5473_4863" x1="239.31" y1="158.602" x2="239.31" y2="243.456" gradientUnits="userSpaceOnUse">
<stop stop-color="#D252B5" stop-opacity="0.35"/>
<stop offset="0.605793" stop-color="#D252B5"/>
</linearGradient>
<linearGradient id="paint1_linear_5473_4863" x1="95" y1="136" x2="95" y2="212" gradientUnits="userSpaceOnUse">
<stop stop-color="#D252B5" stop-opacity="0.35"/>
<stop offset="0.605793" stop-color="#D252B5"/>
</linearGradient>
<linearGradient id="paint2_linear_5473_4863" x1="316" y1="70" x2="316" y2="146" gradientUnits="userSpaceOnUse">
<stop stop-color="#D252B5" stop-opacity="0.35"/>
<stop offset="0.605793" stop-color="#D252B5"/>
</linearGradient>
<linearGradient id="paint3_linear_5473_4863" x1="363" y1="307" x2="363" y2="383" gradientUnits="userSpaceOnUse">
<stop stop-color="#D252B5" stop-opacity="0.35"/>
<stop offset="0.605793" stop-color="#D252B5"/>
</linearGradient>
</defs>
</svg>
