<?xml version="1.0" encoding="UTF-8"?>
<svg width="200px" height="160px" viewBox="0 0 200 160" version="1.1" xmlns="http://www.w3.org/2000/svg" xmlns:xlink="http://www.w3.org/1999/xlink">
    <title>feat-extensions</title>
    <g id="feat-extensions" stroke="none" stroke-width="1" fill="none" fill-rule="evenodd">
        <g id="Group-21" transform="translate(7.000000, 8.000000)">
            <g id="Group-7-Copy" transform="translate(46.467988, 39.824645)" fill="#C7C7C7">
                <path d="M55.7457875,2.84217094e-14 L74.5191642,32.4441008 L55.7457875,64.8882015 L18.8937265,64.8882015 L-3.41060513e-13,32.4193466 L18.8937265,2.84217094e-14 L55.7457875,2.84217094e-14 Z M31.2350372,11.0154952 L25.0513458,11.0154952 L12.6051604,32.4441008 L15.7343524,38.0297344 L15.7491604,38.0034952 L24.8974959,53.8916281 L31.2350372,53.8916281 L34.2500931,48.5150078 L24.9164354,32.4193466 L34.2500931,16.3420559 L31.2350372,11.0154952 Z M49.7913279,11.0154952 L43.6076366,11.0154952 L40.5925806,16.3420559 L49.9262383,32.4193466 L40.5925806,48.5150078 L43.6076366,53.8916281 L49.9451778,53.8916281 L62.2375133,32.4665455 L59.1436532,27.287415 L49.7913279,11.0154952 Z" id="Combined-Shape"></path>
            </g>
            <polygon id="Path-52" fill="#FDDD81" points="127.474658 75.6492891 107.59595 109.758744 127.474658 143.920288 166.247916 143.920288 186 109.784788 166.247916 75.6492891"></polygon>
            <g id="brisi-copy" transform="translate(132.171262, 99.787082)" fill="#3C474E" fill-rule="nonzero">
                <circle id="Oval" cx="4.66666667" cy="6.43489583" r="2.33333333"></circle>
                <path d="M7.78166667,10.4015625 C6.60333333,11.2882292 5.83333333,12.7115625 5.83333333,14.3098958 L5.83333333,14.6015625 L0.875,14.6015625 C0.396666667,14.6015625 0,14.2048958 0,13.7265625 L0,13.1432292 C0,11.3698958 1.435,9.93489583 3.20833333,9.93489583 L6.125,9.93489583 C6.73166667,9.93489583 7.30333333,10.1098958 7.78166667,10.4015625 Z" id="Path"></path>
                <circle id="Oval" cx="23.3333333" cy="6.43489583" r="2.33333333"></circle>
                <path d="M28,13.1432292 L28,13.7265625 C28,14.2048958 27.6033333,14.6015625 27.125,14.6015625 L22.1666667,14.6015625 L22.1666667,14.3098958 C22.1666667,12.7115625 21.3966667,11.2882292 20.2183333,10.4015625 C20.6966667,10.1098958 21.2683333,9.93489583 21.875,9.93489583 L24.7916667,9.93489583 C26.565,9.93489583 28,11.3698958 28,13.1432292 Z" id="Path"></path>
                <circle id="Oval-Copy" cx="19.5594203" cy="1.82608696" r="1.82608696"></circle>
                <circle id="Oval-Copy-2" cx="8.35942029" cy="1.82608696" r="1.82608696"></circle>
                <circle id="Oval" cx="14" cy="5.8515625" r="3.5"></circle>
                <path d="M17.2083333,11.1015625 L10.7916667,11.1015625 C9.02183333,11.1015625 7.58333333,12.5400625 7.58333333,14.3098958 L7.58333333,16.0598958 C7.58333333,16.5428958 7.97533333,16.9348958 8.45833333,16.9348958 L19.5416667,16.9348958 C20.0246667,16.9348958 20.4166667,16.5428958 20.4166667,16.0598958 L20.4166667,14.3098958 C20.4166667,12.5400625 18.9781667,11.1015625 17.2083333,11.1015625 Z" id="Path"></path>
            </g>
            <polygon id="Path-52-Copy-2" fill="#7FC4EA" points="127.474658 4.8316906e-13 107.59595 34.1094547 127.474658 68.2709988 166.247916 68.2709988 186 34.1354994 166.247916 4.8316906e-13"></polygon>
            <polygon id="Path-52-Copy" fill="#99D3A9" points="15.1163812 83.4226575 -8.45545856e-13 109.267852 15.1163812 135.152515 44.6007607 135.152515 59.6208531 109.287586 44.6007607 83.4226575"></polygon>
            <g id="brisi" transform="translate(134.171262, 19.787082)" fill="#3C474E" fill-rule="nonzero">
                <path d="M11.4757462,0 L0.0211926241,5.09089282 L0.0211926241,12.7272619 C0.0211926241,19.7972868 4.9020853,26.389979 11.4757462,28 C18.0494071,26.389979 22.9302998,19.7972868 22.9302998,12.7272619 L22.9302998,5.09089282 L11.4757462,0 Z M11.4757462,25.3591288 L11.4757462,14.0000298 L2.5666092,14.0000298 L2.5666092,6.74547922 L11.4757462,2.78727471 L11.4757462,13.9872628 L20.3848236,13.9872628 C19.7102577,19.2309426 16.2166189,23.9018352 11.4757462,25.3591288 Z" id="Shape"></path>
            </g>
            <g id="brisi" transform="translate(23.171262, 99.787082)" fill="#3C474E" fill-rule="nonzero">
                <path d="M9.41561424,6.63375431 C10.0562113,6.90470723 10.6486567,7.26061998 11.1859931,7.6946039 L11.1859931,4.62686567 C11.1859931,2.07577497 9.11021814,0 6.55912744,0 L6.48794489,0 C3.9391504,0 1.86337543,2.07577497 1.86337543,4.62686567 L1.86337543,7.6946039 C2.40068886,7.26064294 2.99311137,6.9047302 3.63375431,6.63375431 C3.80597015,6.56027555 3.98277842,6.49368542 4.15958668,6.43398393 L4.15958668,4.62686567 C4.15958668,3.34098737 5.2043628,2.29621125 6.4902411,2.29621125 L6.56142365,2.29621125 C7.84730195,2.29621125 8.89207807,3.34098737 8.89207807,4.62686567 L8.89207807,6.43628014 C9.06656716,6.49368542 9.24339839,6.56027555 9.41561424,6.63375431 Z" id="Path"></path>
                <path d="M0.0172215844,13.4764638 C0.0172215844,17.0700344 2.93111366,19.9839036 6.52468427,19.9839036 C10.1182549,19.9839036 13.0321699,17.0723077 13.0321699,13.4764638 C13.0321699,11.7106774 12.3272101,10.1079219 11.1860161,8.93453502 C10.5430769,8.27554535 9.7623651,7.75198622 8.88980482,7.40987371 C8.15731343,7.1228473 7.35820896,6.96670494 6.52470723,6.96670494 C5.69118255,6.96670494 4.89210103,7.1228473 4.15960964,7.40987371 C3.28704937,7.74971297 2.50633754,8.27324914 1.86339839,8.93453502 C0.719862227,10.1079219 0.0172215844,11.7106774 0.0172215844,13.4764638 Z M4.8484271,12.163031 C4.87138921,11.2743972 5.59469575,10.5510907 6.48332951,10.5304018 C7.42704937,10.5074397 8.20089552,11.2675086 8.20089552,12.2066361 C8.20089552,12.3053961 8.19171068,12.401814 8.1756372,12.4936625 C8.09292767,12.9689782 7.81053961,13.3777038 7.41554535,13.6257176 C7.25251435,13.7290471 7.16987371,13.9219059 7.21122847,14.1079219 L7.70952928,16.4707233 C7.73940299,16.6130884 7.63145809,16.7485878 7.48447761,16.7485878 L5.56486797,16.7485878 C5.41791045,16.7485878 5.30996556,16.6153846 5.33983927,16.4707233 L5.83809414,14.1079219 C5.87712974,13.9196326 5.79676234,13.7267279 5.63375431,13.6233984 C5.23880597,13.3754076 4.95637199,12.9689782 4.87368542,12.4913662 C4.85531573,12.3857635 4.84615385,12.2755454 4.8484271,12.163031 Z" id="Shape"></path>
            </g>
        </g>
    </g>
</svg>