<?xml version="1.0" encoding="UTF-8"?>
<svg width="200px" height="160px" viewBox="0 0 200 160" version="1.1" xmlns="http://www.w3.org/2000/svg" xmlns:xlink="http://www.w3.org/1999/xlink">
    <title>feat-keycloak</title>
    <g id="feat-keycloak" stroke="none" stroke-width="1" fill="none" fill-rule="evenodd">
        <g id="Group-22" transform="translate(8.000000, 0.000000)">
            <g id="Group-20" transform="translate(40.000000, 69.787082)" fill-rule="nonzero">
                <g id="brisi" fill="#99D3A9">
                    <path d="M64.5967742,13.0645161 C64.5967742,11.4610282 63.2970363,10.1612903 61.6935484,10.1612903 L39.9193548,10.1612903 L39.9193548,2.90322581 C39.9193548,1.2997379 38.6196169,0 37.016129,0 L16.875,0 C15.2715121,0 13.9717742,1.2997379 13.9717742,2.90322581 L13.9717742,10.1612903 L11.6129032,10.1612903 C10.0094153,10.1612903 8.70967742,11.4610282 8.70967742,13.0645161 L8.70967742,84.1935484 L2.98469758,84.1935484 C1.42094758,84.1935484 0.0760282258,85.3958468 0.00326612903,86.9577823 C-0.0743951613,88.6251411 1.25310484,90 2.90322581,90 L23.5887097,90 C24.3903629,90 25.0403226,89.3500403 25.0403226,88.5483871 L25.0403226,71.8548387 L23.8521774,71.8548387 C22.2889718,71.8548387 20.943871,70.6534476 20.8702016,69.0920565 C20.7916331,67.424879 22.1202218,66.0483871 23.7701613,66.0483871 C24.646754,66.0483871 50.1795363,66.0483871 49.4542742,66.0483871 C51.0174798,66.0483871 52.3625806,67.2497782 52.43625,68.8111694 C52.5148185,70.4783468 51.1864113,71.8548387 49.5362903,71.8548387 L48.266129,71.8548387 L48.266129,88.5483871 C48.266129,89.3500403 48.9160887,90 49.7177419,90 L64.5967742,90 C64.5967742,90 64.5967742,64.3548387 64.5967742,13.0645161 Z M29.5766129,60.0604839 L26.3104839,60.0604839 C24.7071774,60.0604839 23.4072581,58.7605645 23.4072581,57.1572581 C23.4072581,55.5539516 24.7071774,54.2540323 26.3104839,54.2540323 L29.5766129,54.2540323 C31.1799194,54.2540323 32.4798387,55.5539516 32.4798387,57.1572581 C32.4798387,58.7605645 31.1799194,60.0604839 29.5766129,60.0604839 Z M29.5766129,49.1733871 L26.3104839,49.1733871 C24.7071774,49.1733871 23.4072581,47.8734677 23.4072581,46.2701613 C23.4072581,44.6668548 24.7071774,43.3669355 26.3104839,43.3669355 L29.5766129,43.3669355 C31.1799194,43.3669355 32.4798387,44.6668548 32.4798387,46.2701613 C32.4798387,47.8734677 31.1799194,49.1733871 29.5766129,49.1733871 Z M29.5766129,38.2862903 L26.3104839,38.2862903 C24.7071774,38.2862903 23.4072581,36.986371 23.4072581,35.3830645 C23.4072581,33.7797581 24.7071774,32.4798387 26.3104839,32.4798387 L29.5766129,32.4798387 C31.1799194,32.4798387 32.4798387,33.7797581 32.4798387,35.3830645 C32.4798387,36.986371 31.1799194,38.2862903 29.5766129,38.2862903 Z M29.5766129,27.3991935 L26.3104839,27.3991935 C24.7071774,27.3991935 23.4072581,26.0992742 23.4072581,24.4959677 C23.4072581,22.8926613 24.7071774,21.5927419 26.3104839,21.5927419 L29.5766129,21.5927419 C31.1799194,21.5927419 32.4798387,22.8926613 32.4798387,24.4959677 C32.4798387,26.0992742 31.1799194,27.3991935 29.5766129,27.3991935 Z M46.8145161,60.0604839 L43.5483871,60.0604839 C41.9448992,60.0604839 40.6451613,58.7605645 40.6451613,57.1572581 C40.6451613,55.5539516 41.9448992,54.2540323 43.5483871,54.2540323 L46.8145161,54.2540323 C48.418004,54.2540323 49.7177419,55.5539516 49.7177419,57.1572581 C49.7177419,58.7605645 48.418004,60.0604839 46.8145161,60.0604839 Z M46.8145161,49.1733871 L43.5483871,49.1733871 C41.9448992,49.1733871 40.6451613,47.8734677 40.6451613,46.2701613 C40.6451613,44.6668548 41.9448992,43.3669355 43.5483871,43.3669355 L46.8145161,43.3669355 C48.418004,43.3669355 49.7177419,44.6668548 49.7177419,46.2701613 C49.7177419,47.8734677 48.418004,49.1733871 46.8145161,49.1733871 Z M46.8145161,38.2862903 L43.5483871,38.2862903 C41.9448992,38.2862903 40.6451613,36.986371 40.6451613,35.3830645 C40.6451613,33.7797581 41.9448992,32.4798387 43.5483871,32.4798387 L46.8145161,32.4798387 C48.418004,32.4798387 49.7177419,33.7797581 49.7177419,35.3830645 C49.7177419,36.986371 48.418004,38.2862903 46.8145161,38.2862903 Z M46.8145161,27.3991935 L43.5483871,27.3991935 C41.9448992,27.3991935 40.6451613,26.0992742 40.6451613,24.4959677 C40.6451613,22.8926613 41.9448992,21.5927419 43.5483871,21.5927419 L46.8145161,21.5927419 C48.418004,21.5927419 49.7177419,22.8926613 49.7177419,24.4959677 C49.7177419,26.0992742 48.418004,27.3991935 46.8145161,27.3991935 Z M30.8467742,88.5483871 L30.8467742,73.3064516 C30.8467742,72.5047984 31.4967339,71.8548387 32.2983871,71.8548387 L41.0080645,71.8548387 C41.8097177,71.8548387 42.4596774,72.5047984 42.4596774,73.3064516 L42.4596774,88.5483871 C42.4596774,89.3500403 41.8097177,90 41.0080645,90 L32.2983871,90 C31.4967339,90 30.8467742,89.3500403 30.8467742,88.5483871 Z" id="Shape"></path>
                </g>
                <path d="M95.6215956,18.2612609 C97.0127199,18.2612609 98.1494094,19.3499806 98.2261477,20.7219036 L98.230277,20.8699423 L98.230277,84.7826372 L103.374434,84.7826372 C104.779535,84.7826372 105.988006,85.8629573 106.053386,87.266428 C106.120843,88.7146864 105.008468,89.9173497 103.594908,89.9959181 L103.44764,90 L69.3,90 L69.3001116,61.0989069 C69.3469397,60.9033363 69.3717387,60.6992078 69.3717387,60.4892914 C69.3717387,60.279933 69.3470713,60.0763318 69.3004846,59.8812358 L69.3001116,51.3163515 C69.3469397,51.120781 69.3717387,50.9166524 69.3717387,50.7067361 C69.3717387,50.4972937 69.3470515,50.293613 69.3004285,50.0984454 L69.3001116,41.5337962 C69.3469397,41.3382256 69.3717387,41.1340971 69.3717387,40.9241807 C69.3717387,40.7148224 69.3470713,40.5112211 69.3004846,40.3161251 L69.3001622,31.7510295 C69.3469575,31.5555232 69.3717387,31.3514661 69.3717387,31.1416254 C69.3717387,30.932183 69.3470515,30.7285023 69.3004285,30.5333348 L69.3,18.261 L95.6215956,18.2612609 Z M82.2521033,57.88061 L79.3173367,57.88061 C77.8765293,57.88061 76.7086552,59.0486471 76.7086552,60.4892914 C76.7086552,61.8802583 77.7973749,63.0170944 79.1692979,63.0938429 L79.3173367,63.0979728 L82.2521033,63.0979728 C83.6929106,63.0979728 84.8607847,61.9299357 84.8607847,60.4892914 C84.8607847,59.0983245 83.772065,57.9614884 82.400142,57.8847399 L82.2521033,57.88061 Z M82.2521033,48.0980546 L79.3173367,48.0980546 C77.8765293,48.0980546 76.7086552,49.2660918 76.7086552,50.7067361 C76.7086552,52.097703 77.7973749,53.2345391 79.1692979,53.3112876 L79.3173367,53.3154175 L82.2521033,53.3154175 C83.6929106,53.3154175 84.8607847,52.1473804 84.8607847,50.7067361 C84.8607847,49.3157691 83.772065,48.1789331 82.400142,48.1021845 L82.2521033,48.0980546 Z M82.2521033,38.3154993 L79.3173367,38.3154993 C77.8765293,38.3154993 76.7086552,39.4835364 76.7086552,40.9241807 C76.7086552,42.3151477 77.7973749,43.4519837 79.1692979,43.5287323 L79.3173367,43.5328622 L82.2521033,43.5328622 C83.6929106,43.5328622 84.8607847,42.364825 84.8607847,40.9241807 C84.8607847,39.5332138 83.772065,38.3963777 82.400142,38.3196292 L82.2521033,38.3154993 Z M82.2521033,28.532944 L79.3173367,28.532944 C77.8765293,28.532944 76.7086552,29.7009811 76.7086552,31.1416254 C76.7086552,32.5325923 77.7973749,33.6694284 79.1692979,33.7461769 L79.3173367,33.7503068 L82.2521033,33.7503068 C83.6929106,33.7503068 84.8607847,32.5822697 84.8607847,31.1416254 C84.8607847,29.7506585 83.772065,28.6138224 82.400142,28.5370739 L82.2521033,28.532944 Z" id="Combined-Shape" fill="#FDDD81"></path>
            </g>
            <path d="M176.393679,157.302369 C181.916244,145.447489 185,132.22741 185,118.287082 C185,82.378848 164.539222,51.249485 134.64037,35.9216965 M49.4755641,36.3809648 C20.05818,51.8655141 0,82.7338785 0,118.287082 C0,132.257813 3.09722189,145.505149 8.64248825,157.379913" id="Shape" stroke="#7FC4EA" stroke-width="5" stroke-linecap="round" stroke-linejoin="round"></path>
            <g id="Group-7" transform="translate(61.405741, 0.000000)">
                <polygon id="Path-52" fill="#4D4D4D" points="15.1149812 0 0 25.9354772 15.1149812 51.9105612 44.59663 51.9105612 59.6153314 25.9552806 44.59663 0"></polygon>
                <polygon id="Path-57" fill="#C7C7C7" points="7.40301569 12.9786861 52.0794799 12.9786861 59.6153314 25.9552806 52.0794799 38.9677867 7.40301569 38.9677867 2.13162821e-13 25.9732364"></polygon>
                <polygon id="Path-53" fill="#008AAA" points="20.0410766 8.81239614 24.9880297 8.81239614 12.4266997 30.1035779 10.0841283 25.9552806"></polygon>
                <polygon id="Path-54" fill="#00B8E3" points="24.9880297 8.81239614 27.4000745 13.0736447 19.9331483 25.9354772 14.9380493 25.9552806"></polygon>
                <polygon id="Path-55" fill="#2DC6E9" points="27.4000745 38.8120063 19.9331483 25.9354772 14.9380493 25.9552806 24.9880297 43.1133024"></polygon>
                <polygon id="Path-56" fill="#00B8E3" points="24.9880297 43.1133024 19.9179967 43.1133024 12.4266997 30.1035779 14.9380493 25.9552806"></polygon>
                <polygon id="Path-53-Copy" fill="#2DC6E9" transform="translate(41.100516, 17.404603) scale(-1, 1) translate(-41.100516, -17.404603) " points="42.3679694 8.81239614 47.3149225 8.81239614 37.2649421 25.9968104 34.8861093 21.829932"></polygon>
                <polygon id="Path-54-Copy" fill="#00B8E3" transform="translate(38.705077, 17.383838) scale(-1, 1) translate(-38.705077, -17.383838) " points="42.524045 8.81239614 44.9360897 13.0736447 37.4691636 25.9354772 32.4740645 25.9552806"></polygon>
                <polygon id="Path-55-Copy" fill="#008AAA" transform="translate(38.705077, 34.524390) scale(-1, 1) translate(-38.705077, -34.524390) " points="44.9360897 38.8120063 37.4691636 25.9354772 32.4740645 25.9552806 42.524045 43.1133024"></polygon>
                <polygon id="Path-56-Copy" fill="#00B8E3" transform="translate(42.338060, 32.471617) scale(-1, 1) translate(-42.338060, -32.471617) " points="49.7900107 43.1133024 44.7199777 43.1133024 34.8861093 25.9732364 37.3611974 21.829932"></polygon>
            </g>
        </g>
    </g>
</svg>