<svg width="480" height="400" viewBox="0 0 480 400" fill="none" xmlns="http://www.w3.org/2000/svg">
<rect opacity="0.3" x="43" y="12" width="88" height="88" rx="28" stroke="url(#paint0_linear_5497_5384)"/>
<rect x="139" y="12" width="88" height="88" rx="28" stroke="url(#paint1_linear_5497_5384)"/>
<rect opacity="0.3" x="235" y="12" width="88" height="88" rx="28" stroke="url(#paint2_linear_5497_5384)"/>
<rect opacity="0.2" x="48" y="17" width="78" height="78" rx="25" fill="url(#paint3_radial_5497_5384)"/>
<rect opacity="0.5" x="144" y="17" width="78" height="78" rx="25" fill="url(#paint4_radial_5497_5384)"/>
<rect opacity="0.2" x="240" y="17" width="78" height="78" rx="25" fill="url(#paint5_radial_5497_5384)"/>
<rect opacity="0.3" x="43" y="108" width="88" height="88" rx="28" stroke="url(#paint6_linear_5497_5384)"/>
<rect opacity="0.3" x="141" y="204" width="88" height="88" rx="28" stroke="url(#paint7_linear_5497_5384)"/>
<rect opacity="0.3" x="43" y="300" width="88" height="88" rx="28" stroke="url(#paint8_linear_5497_5384)"/>
<rect opacity="0.3" x="141" y="300" width="88" height="88" rx="28" stroke="url(#paint9_linear_5497_5384)"/>
<g opacity="0.5">
<path d="M71.0963 52.3142L76.3623 43.4306C77.6228 41.304 79.9117 40 82.3838 40H91.3809C93.853 40 96.1419 41.304 97.4025 43.4306L102.668 52.3142C103.963 54.4974 103.974 57.2101 102.697 59.4038L97.3935 68.5202C96.14 70.6746 93.8355 72 91.343 72H82.4217C79.9292 72 77.6247 70.6746 76.3712 68.5202L71.0673 59.4038C69.791 57.2101 69.8021 54.4974 71.0963 52.3142Z" fill="url(#paint10_linear_5497_5384)"/>
<path d="M84.9999 45.6484H80.8587L74.647 55.5513L80.8587 66.3543H84.9999L78.7881 55.5513L84.9999 45.6484Z" fill="#131313"/>
<path d="M88.7647 45.6484H92.9059L99.1177 55.5513L92.9059 66.3543H88.7647L94.9765 55.5513L88.7647 45.6484Z" fill="#131313"/>
</g>
<g opacity="0.5">
<path d="M263.096 52.3142L268.362 43.4306C269.623 41.304 271.912 40 274.384 40H283.381C285.853 40 288.142 41.304 289.402 43.4306L294.668 52.3142C295.963 54.4974 295.974 57.2101 294.697 59.4038L289.393 68.5202C288.14 70.6746 285.836 72 283.343 72H274.422C271.929 72 269.625 70.6746 268.371 68.5202L263.067 59.4038C261.791 57.2101 261.802 54.4974 263.096 52.3142Z" fill="url(#paint11_linear_5497_5384)"/>
<path d="M277 45.6484H272.859L266.647 55.5513L272.859 66.3543H277L270.788 55.5513L277 45.6484Z" fill="#131313"/>
<path d="M280.765 45.6484H284.906L291.118 55.5513L284.906 66.3543H280.765L286.976 55.5513L280.765 45.6484Z" fill="#131313"/>
</g>
<path d="M167.096 52.3142L172.362 43.4306C173.623 41.304 175.912 40 178.384 40H187.381C189.853 40 192.142 41.304 193.402 43.4306L198.668 52.3142C199.963 54.4974 199.974 57.2101 198.697 59.4038L193.393 68.5202C192.14 70.6746 189.836 72 187.343 72H178.422C175.929 72 173.625 70.6746 172.371 68.5202L167.067 59.4038C165.791 57.2101 165.802 54.4974 167.096 52.3142Z" fill="url(#paint12_linear_5497_5384)"/>
<path d="M181 45.6484H176.859L170.647 55.5513L176.859 66.3543H181L174.788 55.5513L181 45.6484Z" fill="#131313"/>
<path d="M184.765 45.6484H188.906L195.118 55.5513L188.906 66.3543H184.765L190.976 55.5513L184.765 45.6484Z" fill="#131313"/>
<rect x="139" y="108" width="88" height="88" rx="28" stroke="url(#paint13_linear_5497_5384)"/>
<rect opacity="0.3" x="235" y="108" width="88" height="88" rx="28" stroke="url(#paint14_linear_5497_5384)"/>
<rect x="235" y="204" width="88" height="88" rx="28" stroke="url(#paint15_linear_5497_5384)"/>
<rect opacity="0.3" x="235" y="300" width="88" height="88" rx="28" stroke="url(#paint16_linear_5497_5384)"/>
<rect opacity="0.3" x="331" y="108" width="88" height="88" rx="28" stroke="url(#paint17_linear_5497_5384)"/>
<rect opacity="0.3" x="331" y="204" width="88" height="88" rx="28" stroke="url(#paint18_linear_5497_5384)"/>
<rect opacity="0.3" x="331" y="300" width="88" height="88" rx="28" stroke="url(#paint19_linear_5497_5384)"/>
<rect opacity="0.2" x="48" y="113" width="78" height="78" rx="25" fill="url(#paint20_radial_5497_5384)"/>
<rect opacity="0.2" x="146" y="209" width="78" height="78" rx="25" fill="url(#paint21_radial_5497_5384)"/>
<rect opacity="0.2" x="48" y="305" width="78" height="78" rx="25" fill="url(#paint22_radial_5497_5384)"/>
<rect opacity="0.2" x="146" y="305" width="78" height="78" rx="25" fill="url(#paint23_radial_5497_5384)"/>
<rect opacity="0.5" x="144" y="113" width="78" height="78" rx="25" fill="url(#paint24_radial_5497_5384)"/>
<rect opacity="0.2" x="240" y="113" width="78" height="78" rx="25" fill="url(#paint25_radial_5497_5384)"/>
<rect opacity="0.5" x="240" y="209" width="78" height="78" rx="25" fill="url(#paint26_radial_5497_5384)"/>
<rect opacity="0.2" x="240" y="305" width="78" height="78" rx="25" fill="url(#paint27_radial_5497_5384)"/>
<rect opacity="0.2" x="336" y="113" width="78" height="78" rx="25" fill="url(#paint28_radial_5497_5384)"/>
<rect opacity="0.2" x="336" y="209" width="78" height="78" rx="25" fill="url(#paint29_radial_5497_5384)"/>
<rect opacity="0.2" x="336" y="305" width="78" height="78" rx="25" fill="url(#paint30_radial_5497_5384)"/>
<path d="M224.014 284.275C224.089 285.033 224.616 285.678 225.369 285.887C227.877 286.611 235.149 288.708 237.532 289.393C238.208 291.787 240.304 299.146 241.013 301.643C241.452 303.376 244.048 303.486 244.59 301.757C248.084 291.736 252.395 279.468 255.885 269.523C256.343 268.342 255.364 266.958 254.116 267.001C253.542 266.84 229.279 280.107 224.993 282.398C224.315 282.758 223.92 283.498 224.014 284.275Z" fill="#D252B5"/>
<g opacity="0.5">
<path d="M71.0963 148.314L76.3623 139.431C77.6228 137.304 79.9117 136 82.3838 136H91.3809C93.853 136 96.1419 137.304 97.4025 139.431L102.668 148.314C103.963 150.497 103.974 153.21 102.697 155.404L97.3935 164.52C96.14 166.675 93.8355 168 91.343 168H82.4217C79.9292 168 77.6247 166.675 76.3712 164.52L71.0673 155.404C69.791 153.21 69.8021 150.497 71.0963 148.314Z" fill="url(#paint31_linear_5497_5384)"/>
<path d="M84.9999 141.648H80.8587L74.647 151.551L80.8587 162.354H84.9999L78.7881 151.551L84.9999 141.648Z" fill="#131313"/>
<path d="M88.7647 141.648H92.9059L99.1177 151.551L92.9059 162.354H88.7647L94.9765 151.551L88.7647 141.648Z" fill="#131313"/>
</g>
<g opacity="0.5">
<path d="M169.096 244.314L174.362 235.431C175.623 233.304 177.912 232 180.384 232H189.381C191.853 232 194.142 233.304 195.402 235.431L200.668 244.314C201.963 246.497 201.974 249.21 200.697 251.404L195.393 260.52C194.14 262.675 191.836 264 189.343 264H180.422C177.929 264 175.625 262.675 174.371 260.52L169.067 251.404C167.791 249.21 167.802 246.497 169.096 244.314Z" fill="url(#paint32_linear_5497_5384)"/>
<path d="M183 237.648H178.859L172.647 247.551L178.859 258.354H183L176.788 247.551L183 237.648Z" fill="#131313"/>
<path d="M186.765 237.648H190.906L197.118 247.551L190.906 258.354H186.765L192.976 247.551L186.765 237.648Z" fill="#131313"/>
</g>
<g opacity="0.5">
<path d="M71.0963 340.314L76.3623 331.431C77.6228 329.304 79.9117 328 82.3838 328H91.3809C93.853 328 96.1419 329.304 97.4025 331.431L102.668 340.314C103.963 342.497 103.974 345.21 102.697 347.404L97.3935 356.52C96.14 358.675 93.8355 360 91.343 360H82.4217C79.9292 360 77.6247 358.675 76.3712 356.52L71.0673 347.404C69.791 345.21 69.8021 342.497 71.0963 340.314Z" fill="url(#paint33_linear_5497_5384)"/>
<path d="M84.9999 333.648H80.8587L74.647 343.551L80.8587 354.354H84.9999L78.7881 343.551L84.9999 333.648Z" fill="#131313"/>
<path d="M88.7647 333.648H92.9059L99.1177 343.551L92.9059 354.354H88.7647L94.9765 343.551L88.7647 333.648Z" fill="#131313"/>
</g>
<g opacity="0.5">
<path d="M169.096 340.314L174.362 331.431C175.623 329.304 177.912 328 180.384 328H189.381C191.853 328 194.142 329.304 195.402 331.431L200.668 340.314C201.963 342.497 201.974 345.21 200.697 347.404L195.393 356.52C194.14 358.675 191.836 360 189.343 360H180.422C177.929 360 175.625 358.675 174.371 356.52L169.067 347.404C167.791 345.21 167.802 342.497 169.096 340.314Z" fill="url(#paint34_linear_5497_5384)"/>
<path d="M183 333.648H178.859L172.647 343.551L178.859 354.354H183L176.788 343.551L183 333.648Z" fill="#131313"/>
<path d="M186.765 333.648H190.906L197.118 343.551L190.906 354.354H186.765L192.976 343.551L186.765 333.648Z" fill="#131313"/>
</g>
<g opacity="0.5">
<path d="M263.096 148.314L268.362 139.431C269.623 137.304 271.912 136 274.384 136H283.381C285.853 136 288.142 137.304 289.402 139.431L294.668 148.314C295.963 150.497 295.974 153.21 294.697 155.404L289.393 164.52C288.14 166.675 285.836 168 283.343 168H274.422C271.929 168 269.625 166.675 268.371 164.52L263.067 155.404C261.791 153.21 261.802 150.497 263.096 148.314Z" fill="url(#paint35_linear_5497_5384)"/>
<path d="M277 141.648H272.859L266.647 151.551L272.859 162.354H277L270.788 151.551L277 141.648Z" fill="#131313"/>
<path d="M280.765 141.648H284.906L291.118 151.551L284.906 162.354H280.765L286.976 151.551L280.765 141.648Z" fill="#131313"/>
</g>
<path d="M263.096 244.314L268.362 235.431C269.623 233.304 271.912 232 274.384 232H283.381C285.853 232 288.142 233.304 289.402 235.431L294.668 244.314C295.963 246.497 295.974 249.21 294.697 251.404L289.393 260.52C288.14 262.675 285.836 264 283.343 264H274.422C271.929 264 269.625 262.675 268.371 260.52L263.067 251.404C261.791 249.21 261.802 246.497 263.096 244.314Z" fill="url(#paint36_linear_5497_5384)"/>
<path d="M277 237.648H272.859L266.647 247.551L272.859 258.354H277L270.788 247.551L277 237.648Z" fill="#131313"/>
<path d="M280.765 237.648H284.906L291.118 247.551L284.906 258.354H280.765L286.976 247.551L280.765 237.648Z" fill="#131313"/>
<g opacity="0.5">
<path d="M263.096 340.314L268.362 331.431C269.623 329.304 271.912 328 274.384 328H283.381C285.853 328 288.142 329.304 289.402 331.431L294.668 340.314C295.963 342.497 295.974 345.21 294.697 347.404L289.393 356.52C288.14 358.675 285.836 360 283.343 360H274.422C271.929 360 269.625 358.675 268.371 356.52L263.067 347.404C261.791 345.21 261.802 342.497 263.096 340.314Z" fill="url(#paint37_linear_5497_5384)"/>
<path d="M277 333.648H272.859L266.647 343.551L272.859 354.354H277L270.788 343.551L277 333.648Z" fill="#131313"/>
<path d="M280.765 333.648H284.906L291.118 343.551L284.906 354.354H280.765L286.976 343.551L280.765 333.648Z" fill="#131313"/>
</g>
<g opacity="0.5">
<path d="M359.096 148.314L364.362 139.431C365.623 137.304 367.912 136 370.384 136H379.381C381.853 136 384.142 137.304 385.402 139.431L390.668 148.314C391.963 150.497 391.974 153.21 390.697 155.404L385.393 164.52C384.14 166.675 381.836 168 379.343 168H370.422C367.929 168 365.625 166.675 364.371 164.52L359.067 155.404C357.791 153.21 357.802 150.497 359.096 148.314Z" fill="url(#paint38_linear_5497_5384)"/>
<path d="M373 141.648H368.859L362.647 151.551L368.859 162.354H373L366.788 151.551L373 141.648Z" fill="#131313"/>
<path d="M376.765 141.648H380.906L387.118 151.551L380.906 162.354H376.765L382.976 151.551L376.765 141.648Z" fill="#131313"/>
</g>
<g opacity="0.5">
<path d="M359.096 244.314L364.362 235.431C365.623 233.304 367.912 232 370.384 232H379.381C381.853 232 384.142 233.304 385.402 235.431L390.668 244.314C391.963 246.497 391.974 249.21 390.697 251.404L385.393 260.52C384.14 262.675 381.836 264 379.343 264H370.422C367.929 264 365.625 262.675 364.371 260.52L359.067 251.404C357.791 249.21 357.802 246.497 359.096 244.314Z" fill="url(#paint39_linear_5497_5384)"/>
<path d="M373 237.648H368.859L362.647 247.551L368.859 258.354H373L366.788 247.551L373 237.648Z" fill="#131313"/>
<path d="M376.765 237.648H380.906L387.118 247.551L380.906 258.354H376.765L382.976 247.551L376.765 237.648Z" fill="#131313"/>
</g>
<g opacity="0.5">
<path d="M359.096 340.314L364.362 331.431C365.623 329.304 367.912 328 370.384 328H379.381C381.853 328 384.142 329.304 385.402 331.431L390.668 340.314C391.963 342.497 391.974 345.21 390.697 347.404L385.393 356.52C384.14 358.675 381.836 360 379.343 360H370.422C367.929 360 365.625 358.675 364.371 356.52L359.067 347.404C357.791 345.21 357.802 342.497 359.096 340.314Z" fill="url(#paint40_linear_5497_5384)"/>
<path d="M373 333.648H368.859L362.647 343.551L368.859 354.354H373L366.788 343.551L373 333.648Z" fill="#131313"/>
<path d="M376.765 333.648H380.906L387.118 343.551L380.906 354.354H376.765L382.976 343.551L376.765 333.648Z" fill="#131313"/>
</g>
<path d="M167.096 148.314L172.362 139.431C173.623 137.304 175.912 136 178.384 136H187.381C189.853 136 192.142 137.304 193.402 139.431L198.668 148.314C199.963 150.497 199.974 153.21 198.697 155.404L193.393 164.52C192.14 166.675 189.836 168 187.343 168H178.422C175.929 168 173.625 166.675 172.371 164.52L167.067 155.404C165.791 153.21 165.802 150.497 167.096 148.314Z" fill="url(#paint41_linear_5497_5384)"/>
<path d="M181 141.648H176.859L170.647 151.551L176.859 162.354H181L174.788 151.551L181 141.648Z" fill="#131313"/>
<path d="M184.765 141.648H188.906L195.118 151.551L188.906 162.354H184.765L190.976 151.551L184.765 141.648Z" fill="#131313"/>
<defs>
<linearGradient id="paint0_linear_5497_5384" x1="87.449" y1="12.8825" x2="87.449" y2="99.9845" gradientUnits="userSpaceOnUse">
<stop offset="0.15" stop-color="#D252B5"/>
<stop offset="1" stop-color="#D252B5" stop-opacity="0"/>
</linearGradient>
<linearGradient id="paint1_linear_5497_5384" x1="183.449" y1="12.8825" x2="183.449" y2="99.9845" gradientUnits="userSpaceOnUse">
<stop offset="0.15" stop-color="#D252B5"/>
<stop offset="1" stop-color="#D252B5" stop-opacity="0"/>
</linearGradient>
<linearGradient id="paint2_linear_5497_5384" x1="279.449" y1="12.8825" x2="279.449" y2="99.9845" gradientUnits="userSpaceOnUse">
<stop offset="0.15" stop-color="#D252B5"/>
<stop offset="1" stop-color="#D252B5" stop-opacity="0"/>
</linearGradient>
<radialGradient id="paint3_radial_5497_5384" cx="0" cy="0" r="1" gradientUnits="userSpaceOnUse" gradientTransform="translate(87 56) rotate(90) scale(39)">
<stop offset="0.480792" stop-color="#D252B5" stop-opacity="0"/>
<stop offset="1" stop-color="#D252B5"/>
</radialGradient>
<radialGradient id="paint4_radial_5497_5384" cx="0" cy="0" r="1" gradientUnits="userSpaceOnUse" gradientTransform="translate(183 56) rotate(90) scale(39)">
<stop offset="0.480792" stop-color="#D252B5" stop-opacity="0.4"/>
<stop offset="1" stop-color="#D252B5"/>
</radialGradient>
<radialGradient id="paint5_radial_5497_5384" cx="0" cy="0" r="1" gradientUnits="userSpaceOnUse" gradientTransform="translate(279 56) rotate(90) scale(39)">
<stop offset="0.480792" stop-color="#D252B5" stop-opacity="0"/>
<stop offset="1" stop-color="#D252B5"/>
</radialGradient>
<linearGradient id="paint6_linear_5497_5384" x1="87.449" y1="108.882" x2="87.449" y2="195.985" gradientUnits="userSpaceOnUse">
<stop offset="0.15" stop-color="#D252B5"/>
<stop offset="1" stop-color="#D252B5" stop-opacity="0"/>
</linearGradient>
<linearGradient id="paint7_linear_5497_5384" x1="185.449" y1="204.882" x2="185.449" y2="291.985" gradientUnits="userSpaceOnUse">
<stop offset="0.15" stop-color="#D252B5"/>
<stop offset="1" stop-color="#D252B5" stop-opacity="0"/>
</linearGradient>
<linearGradient id="paint8_linear_5497_5384" x1="87.449" y1="300.882" x2="87.449" y2="387.985" gradientUnits="userSpaceOnUse">
<stop offset="0.15" stop-color="#D252B5"/>
<stop offset="1" stop-color="#D252B5" stop-opacity="0"/>
</linearGradient>
<linearGradient id="paint9_linear_5497_5384" x1="185.449" y1="300.882" x2="185.449" y2="387.985" gradientUnits="userSpaceOnUse">
<stop offset="0.15" stop-color="#D252B5"/>
<stop offset="1" stop-color="#D252B5" stop-opacity="0"/>
</linearGradient>
<linearGradient id="paint10_linear_5497_5384" x1="86.8824" y1="40" x2="86.8824" y2="72" gradientUnits="userSpaceOnUse">
<stop stop-color="#D252B5" stop-opacity="0.35"/>
<stop offset="0.605793" stop-color="#D252B5"/>
</linearGradient>
<linearGradient id="paint11_linear_5497_5384" x1="278.882" y1="40" x2="278.882" y2="72" gradientUnits="userSpaceOnUse">
<stop stop-color="#D252B5" stop-opacity="0.35"/>
<stop offset="0.605793" stop-color="#D252B5"/>
</linearGradient>
<linearGradient id="paint12_linear_5497_5384" x1="182.882" y1="40" x2="182.882" y2="72" gradientUnits="userSpaceOnUse">
<stop stop-color="#D252B5" stop-opacity="0.35"/>
<stop offset="0.605793" stop-color="#D252B5"/>
</linearGradient>
<linearGradient id="paint13_linear_5497_5384" x1="183.449" y1="108.882" x2="183.449" y2="195.985" gradientUnits="userSpaceOnUse">
<stop offset="0.15" stop-color="#D252B5"/>
<stop offset="1" stop-color="#D252B5" stop-opacity="0"/>
</linearGradient>
<linearGradient id="paint14_linear_5497_5384" x1="279.449" y1="108.882" x2="279.449" y2="195.985" gradientUnits="userSpaceOnUse">
<stop offset="0.15" stop-color="#D252B5"/>
<stop offset="1" stop-color="#D252B5" stop-opacity="0"/>
</linearGradient>
<linearGradient id="paint15_linear_5497_5384" x1="279.449" y1="204.882" x2="279.449" y2="291.985" gradientUnits="userSpaceOnUse">
<stop offset="0.15" stop-color="#D252B5"/>
<stop offset="1" stop-color="#D252B5" stop-opacity="0"/>
</linearGradient>
<linearGradient id="paint16_linear_5497_5384" x1="279.449" y1="300.882" x2="279.449" y2="387.985" gradientUnits="userSpaceOnUse">
<stop offset="0.15" stop-color="#D252B5"/>
<stop offset="1" stop-color="#D252B5" stop-opacity="0"/>
</linearGradient>
<linearGradient id="paint17_linear_5497_5384" x1="375.449" y1="108.882" x2="375.449" y2="195.985" gradientUnits="userSpaceOnUse">
<stop offset="0.15" stop-color="#D252B5"/>
<stop offset="1" stop-color="#D252B5" stop-opacity="0"/>
</linearGradient>
<linearGradient id="paint18_linear_5497_5384" x1="375.449" y1="204.882" x2="375.449" y2="291.985" gradientUnits="userSpaceOnUse">
<stop offset="0.15" stop-color="#D252B5"/>
<stop offset="1" stop-color="#D252B5" stop-opacity="0"/>
</linearGradient>
<linearGradient id="paint19_linear_5497_5384" x1="375.449" y1="300.882" x2="375.449" y2="387.985" gradientUnits="userSpaceOnUse">
<stop offset="0.15" stop-color="#D252B5"/>
<stop offset="1" stop-color="#D252B5" stop-opacity="0"/>
</linearGradient>
<radialGradient id="paint20_radial_5497_5384" cx="0" cy="0" r="1" gradientUnits="userSpaceOnUse" gradientTransform="translate(87 152) rotate(90) scale(39)">
<stop offset="0.480792" stop-color="#D252B5" stop-opacity="0"/>
<stop offset="1" stop-color="#D252B5"/>
</radialGradient>
<radialGradient id="paint21_radial_5497_5384" cx="0" cy="0" r="1" gradientUnits="userSpaceOnUse" gradientTransform="translate(185 248) rotate(90) scale(39)">
<stop offset="0.480792" stop-color="#D252B5" stop-opacity="0"/>
<stop offset="1" stop-color="#D252B5"/>
</radialGradient>
<radialGradient id="paint22_radial_5497_5384" cx="0" cy="0" r="1" gradientUnits="userSpaceOnUse" gradientTransform="translate(87 344) rotate(90) scale(39)">
<stop offset="0.480792" stop-color="#D252B5" stop-opacity="0"/>
<stop offset="1" stop-color="#D252B5"/>
</radialGradient>
<radialGradient id="paint23_radial_5497_5384" cx="0" cy="0" r="1" gradientUnits="userSpaceOnUse" gradientTransform="translate(185 344) rotate(90) scale(39)">
<stop offset="0.480792" stop-color="#D252B5" stop-opacity="0"/>
<stop offset="1" stop-color="#D252B5"/>
</radialGradient>
<radialGradient id="paint24_radial_5497_5384" cx="0" cy="0" r="1" gradientUnits="userSpaceOnUse" gradientTransform="translate(183 152) rotate(90) scale(39)">
<stop offset="0.480792" stop-color="#D252B5" stop-opacity="0.4"/>
<stop offset="1" stop-color="#D252B5"/>
</radialGradient>
<radialGradient id="paint25_radial_5497_5384" cx="0" cy="0" r="1" gradientUnits="userSpaceOnUse" gradientTransform="translate(279 152) rotate(90) scale(39)">
<stop offset="0.480792" stop-color="#D252B5" stop-opacity="0"/>
<stop offset="1" stop-color="#D252B5"/>
</radialGradient>
<radialGradient id="paint26_radial_5497_5384" cx="0" cy="0" r="1" gradientUnits="userSpaceOnUse" gradientTransform="translate(279 248) rotate(90) scale(39)">
<stop offset="0.480792" stop-color="#D252B5" stop-opacity="0.4"/>
<stop offset="1" stop-color="#D252B5"/>
</radialGradient>
<radialGradient id="paint27_radial_5497_5384" cx="0" cy="0" r="1" gradientUnits="userSpaceOnUse" gradientTransform="translate(279 344) rotate(90) scale(39)">
<stop offset="0.480792" stop-color="#D252B5" stop-opacity="0"/>
<stop offset="1" stop-color="#D252B5"/>
</radialGradient>
<radialGradient id="paint28_radial_5497_5384" cx="0" cy="0" r="1" gradientUnits="userSpaceOnUse" gradientTransform="translate(375 152) rotate(90) scale(39)">
<stop offset="0.480792" stop-color="#D252B5" stop-opacity="0"/>
<stop offset="1" stop-color="#D252B5"/>
</radialGradient>
<radialGradient id="paint29_radial_5497_5384" cx="0" cy="0" r="1" gradientUnits="userSpaceOnUse" gradientTransform="translate(375 248) rotate(90) scale(39)">
<stop offset="0.480792" stop-color="#D252B5" stop-opacity="0"/>
<stop offset="1" stop-color="#D252B5"/>
</radialGradient>
<radialGradient id="paint30_radial_5497_5384" cx="0" cy="0" r="1" gradientUnits="userSpaceOnUse" gradientTransform="translate(375 344) rotate(90) scale(39)">
<stop offset="0.480792" stop-color="#D252B5" stop-opacity="0"/>
<stop offset="1" stop-color="#D252B5"/>
</radialGradient>
<linearGradient id="paint31_linear_5497_5384" x1="86.8824" y1="136" x2="86.8824" y2="168" gradientUnits="userSpaceOnUse">
<stop stop-color="#D252B5" stop-opacity="0.35"/>
<stop offset="0.605793" stop-color="#D252B5"/>
</linearGradient>
<linearGradient id="paint32_linear_5497_5384" x1="184.882" y1="232" x2="184.882" y2="264" gradientUnits="userSpaceOnUse">
<stop stop-color="#D252B5" stop-opacity="0.35"/>
<stop offset="0.605793" stop-color="#D252B5"/>
</linearGradient>
<linearGradient id="paint33_linear_5497_5384" x1="86.8824" y1="328" x2="86.8824" y2="360" gradientUnits="userSpaceOnUse">
<stop stop-color="#D252B5" stop-opacity="0.35"/>
<stop offset="0.605793" stop-color="#D252B5"/>
</linearGradient>
<linearGradient id="paint34_linear_5497_5384" x1="184.882" y1="328" x2="184.882" y2="360" gradientUnits="userSpaceOnUse">
<stop stop-color="#D252B5" stop-opacity="0.35"/>
<stop offset="0.605793" stop-color="#D252B5"/>
</linearGradient>
<linearGradient id="paint35_linear_5497_5384" x1="278.882" y1="136" x2="278.882" y2="168" gradientUnits="userSpaceOnUse">
<stop stop-color="#D252B5" stop-opacity="0.35"/>
<stop offset="0.605793" stop-color="#D252B5"/>
</linearGradient>
<linearGradient id="paint36_linear_5497_5384" x1="278.882" y1="232" x2="278.882" y2="264" gradientUnits="userSpaceOnUse">
<stop stop-color="#D252B5" stop-opacity="0.35"/>
<stop offset="0.605793" stop-color="#D252B5"/>
</linearGradient>
<linearGradient id="paint37_linear_5497_5384" x1="278.882" y1="328" x2="278.882" y2="360" gradientUnits="userSpaceOnUse">
<stop stop-color="#D252B5" stop-opacity="0.35"/>
<stop offset="0.605793" stop-color="#D252B5"/>
</linearGradient>
<linearGradient id="paint38_linear_5497_5384" x1="374.882" y1="136" x2="374.882" y2="168" gradientUnits="userSpaceOnUse">
<stop stop-color="#D252B5" stop-opacity="0.35"/>
<stop offset="0.605793" stop-color="#D252B5"/>
</linearGradient>
<linearGradient id="paint39_linear_5497_5384" x1="374.882" y1="232" x2="374.882" y2="264" gradientUnits="userSpaceOnUse">
<stop stop-color="#D252B5" stop-opacity="0.35"/>
<stop offset="0.605793" stop-color="#D252B5"/>
</linearGradient>
<linearGradient id="paint40_linear_5497_5384" x1="374.882" y1="328" x2="374.882" y2="360" gradientUnits="userSpaceOnUse">
<stop stop-color="#D252B5" stop-opacity="0.35"/>
<stop offset="0.605793" stop-color="#D252B5"/>
</linearGradient>
<linearGradient id="paint41_linear_5497_5384" x1="182.882" y1="136" x2="182.882" y2="168" gradientUnits="userSpaceOnUse">
<stop stop-color="#D252B5" stop-opacity="0.35"/>
<stop offset="0.605793" stop-color="#D252B5"/>
</linearGradient>
</defs>
</svg>
