<svg width="495" height="489" viewBox="0 0 495 489" fill="none" xmlns="http://www.w3.org/2000/svg">
<g clip-path="url(#clip0_362_2658)">
<path d="M252.933 7.74677C377.013 7.74677 477.6 108.333 477.6 232.413C477.6 356.494 377.013 457.08 252.933 457.08C128.854 457.08 28.2672 356.494 28.2672 232.413C28.2672 108.333 128.854 7.74677 252.933 7.74677Z" fill="#EEF2FA"/>
<path d="M247.467 478.414C384.139 478.414 494.933 480.563 494.933 483.214C494.933 485.864 384.139 488.014 247.467 488.014C110.795 488.014 0 485.864 0 483.214C0 480.563 110.795 478.414 247.467 478.414Z" fill="#F0D0EA"/>
<path d="M378 375.88H234.4C219.313 375.859 207.088 363.633 207.067 348.547V142.813C207.088 127.727 219.313 115.501 234.4 115.48H378C393.087 115.501 405.311 127.727 405.333 142.813V348.547C405.311 363.633 393.087 375.859 378 375.88Z" fill="#58C7C3"/>
<path d="M224.933 119.88L400.133 128.667L393.867 364.413L217.733 366.813L224.933 119.88Z" fill="#DAD9D8"/>
<path d="M217.733 125.48L393.867 134.147L384.267 366.813L213.067 358L217.733 125.48Z" fill="white"/>
<path d="M305.467 100.414C301.711 100.414 298.667 97.37 298.667 93.614C298.667 89.8593 301.711 86.814 305.467 86.814C309.223 86.814 312.267 89.8593 312.267 93.614C312.203 97.342 309.195 100.35 305.467 100.414ZM319.867 96.814C319.751 96.2446 319.705 95.662 319.733 95.0806C319.733 87.1273 313.287 80.6806 305.333 80.6806C297.38 80.6806 290.933 87.1273 290.933 95.0806V95.7473C291.091 96.8566 291.047 97.9873 290.8 99.0806C289.467 108.814 284 126.947 262.533 130.414H345.333C345.6 130.547 324.933 129.081 319.867 96.814Z" fill="#1F3864"/>
<path d="M234.267 193.347L253.467 194.414L254.4 176.947L235.2 175.881L234.267 193.347ZM255.6 196.681L231.867 195.347L233.067 173.347L256.8 174.681L255.6 196.681Z" fill="#58C7C3"/>
<path d="M263.519 179.745L263.589 178.413L379.292 184.598L379.22 185.929L263.519 179.745Z" fill="#100F0D"/>
<path d="M263.1 186.631L263.171 185.299L378.872 191.485L378.801 192.815L263.1 186.631Z" fill="#100F0D"/>
<path d="M262.821 193.391L262.893 192.059L378.593 198.244L378.524 199.576L262.821 193.391Z" fill="#100F0D"/>
<path d="M231.6 242.947L250.8 244.014L251.733 226.547L232.533 225.481L231.6 242.947ZM252.933 246.414L229.2 245.081L230.4 223.081L254.133 224.414L252.933 246.414Z" fill="#58C7C3"/>
<path d="M260.908 229.46L260.979 228.128L376.681 234.314L376.609 235.646L260.908 229.46Z" fill="#100F0D"/>
<path d="M260.489 236.333L260.56 235.001L376.261 241.187L376.191 242.519L260.489 236.333Z" fill="#100F0D"/>
<path d="M260.071 243.081L260.141 241.749L375.844 247.934L375.772 249.265L260.071 243.081Z" fill="#100F0D"/>
<path d="M228.933 292.681L248.133 293.747L249.067 276.281L229.867 275.214L228.933 292.681ZM250.267 296.147L226.533 294.814L227.733 272.814L251.467 274.147L250.267 296.147Z" fill="#58C7C3"/>
<path d="M258.157 279.149L258.228 277.818L373.929 284.003L373.859 285.334L258.157 279.149Z" fill="#100F0D"/>
<path d="M257.879 286.036L257.951 284.704L373.651 290.89L373.581 292.222L257.879 286.036Z" fill="#100F0D"/>
<path d="M257.46 292.796L257.531 291.466L373.233 297.65L373.161 298.98L257.46 292.796Z" fill="#100F0D"/>
<path d="M226.667 335.481L245.867 336.547L246.8 319.081L227.6 318.014L226.667 335.481ZM248 338.947L224.267 337.614L225.467 315.614L249.2 316.947L248 338.947Z" fill="#58C7C3"/>
<path d="M255.967 321.965L256.036 320.633L371.739 326.817L371.668 328.149L255.967 321.965Z" fill="#100F0D"/>
<path d="M255.533 328.852L255.604 327.52L371.305 333.704L371.235 335.036L255.533 328.852Z" fill="#100F0D"/>
<path d="M255.683 335.62L255.752 334.288L327.784 338.139L327.712 339.471L255.683 335.62Z" fill="#100F0D"/>
<path d="M258.8 172.413C257.493 171.233 255.479 171.337 254.3 172.643C254.288 172.656 254.277 172.668 254.267 172.68L242.533 185.613L235.467 180.547C233.995 179.516 231.964 179.873 230.933 181.347C229.903 182.82 230.26 184.849 231.733 185.88L240 191.747C240.176 192.088 240.401 192.403 240.667 192.68C241.973 193.859 243.988 193.756 245.167 192.449C245.179 192.437 245.189 192.425 245.2 192.413L259.067 177.08C260.265 175.712 260.147 173.636 258.8 172.413Z" fill="#1F3864"/>
<path d="M256.133 222.281C254.827 221.102 252.812 221.205 251.633 222.51C251.621 222.523 251.611 222.535 251.6 222.547L239.867 235.481L232.8 230.414C231.328 229.383 229.297 229.742 228.267 231.214C227.236 232.687 227.593 234.717 229.067 235.747L237.333 241.614C237.509 241.955 237.735 242.27 238 242.547C239.307 243.726 241.321 243.623 242.5 242.317C242.512 242.305 242.523 242.293 242.533 242.281L256.4 226.947C257.599 225.579 257.48 223.502 256.133 222.281Z" fill="#1F3864"/>
<path d="M256.133 271.614C254.827 270.434 252.812 270.537 251.633 271.845C251.621 271.857 251.611 271.867 251.6 271.881L239.867 284.814L232.8 279.747C231.328 278.717 229.297 279.075 228.267 280.547C227.236 282.021 227.593 284.05 229.067 285.081L237.333 290.947C237.509 291.289 237.735 291.603 238 291.881C239.307 293.061 241.321 292.957 242.5 291.65C242.512 291.638 242.523 291.626 242.533 291.614L256.4 276.281C257.592 274.911 257.473 272.839 256.133 271.614Z" fill="#1F3864"/>
<path d="M251.2 315.347C249.893 314.168 247.879 314.271 246.699 315.578C246.688 315.588 246.677 315.602 246.667 315.614L234.933 328.547L227.867 323.48C226.393 322.45 224.364 322.807 223.333 324.28C222.303 325.752 222.661 327.783 224.133 328.814L232.4 334.68C232.576 335.022 232.801 335.336 233.067 335.614C234.373 336.794 236.388 336.691 237.568 335.383C237.579 335.371 237.589 335.359 237.6 335.347L251.467 320C252.657 318.635 252.539 316.568 251.2 315.347Z" fill="#1F3864"/>
<path d="M426.133 204.547C396.667 186.547 381.333 217.213 378.4 224.013C375.467 217.347 360.133 186.547 330.667 204.547C305.733 219.88 306.533 274.947 378.4 311.347C450.267 274.947 451.067 219.88 426.133 204.547Z" fill="#ED1D24"/>
<path d="M410.267 292.947L400.4 235.334L392.4 267.081H379.6L375.733 278.547L371.067 258.801L364 292.801L353.2 235.214L345.2 268.001H326.667V266.134H343.6L353.333 226.134L364.133 282.801L370.933 249.881L376.133 271.467L378.133 265.081H390.933L400.667 226.001L410.533 282.667L417.467 249.881L420.533 270.801L422.533 265.081H431.067V267.081H423.867L419.867 279.081L417.067 260.667L410.267 292.947Z" fill="white"/>
<path d="M159.867 448.414H174.667V461.214H159.867V448.414Z" fill="#F2566D"/>
<path d="M104.8 448.414H119.601V461.214H104.8V448.414Z" fill="#F2566D"/>
<path d="M153.333 251.747L141.44 337.467L122.907 453.867H102.667L107.333 352.267L109.173 251.747H153.333Z" fill="#151413"/>
<path d="M156.667 453.867H176.96L184.667 335.614L182.747 246.281L138 251.747L147.04 344.414L156.667 453.867Z" fill="#444256"/>
<path d="M104.8 461.333H119.601C119.601 461.333 127.467 469.2 135.2 471.2C142.933 473.2 143.867 479.066 143.867 479.066H100.399C100.533 479.08 101.333 469.213 104.8 461.333Z" fill="#151413"/>
<path d="M159.867 461.333H174.667C174.667 461.333 182.533 469.2 190.267 471.2C198 473.2 198.933 479.066 198.933 479.066H155.467C155.6 479.08 156.4 469.213 159.867 461.333Z" fill="#444256"/>
<path d="M313.6 1.61362L302.667 13.8803C300.913 15.8736 301.091 18.907 303.067 20.6803C305.06 22.435 308.093 22.2563 309.867 20.2803L320.8 8.00028C322.555 6.00694 322.376 2.97361 320.4 1.20028C318.404 -0.550391 315.369 -0.366378 313.6 1.61362Z" fill="#58C7C3"/>
<path d="M312.933 38.8132C313 59.4985 296.285 76.3199 275.6 76.3865C254.916 76.4519 238.093 59.7372 238.028 39.0532C237.961 18.3679 254.676 1.54653 275.361 1.47986C284.715 1.4492 293.743 4.92253 300.667 11.2132C305.041 15.1425 308.385 20.0879 310.4 25.6132C312.132 29.7959 312.993 34.2865 312.933 38.8132Z" fill="#2E4082"/>
<path d="M307.067 39.0801C307.067 56.6068 292.86 70.8135 275.333 70.8135C257.807 70.8135 243.6 56.6068 243.6 39.0801C243.6 21.5535 257.807 7.34681 275.333 7.34681C283.36 7.32415 291.089 10.3775 296.933 15.8801C301.384 19.9455 304.537 25.2321 306 31.0801C306.773 33.6748 307.133 36.3735 307.067 39.0801Z" fill="#F5F6F5"/>
<path d="M306.133 30.9469L283.867 58.2802C281.355 61.5682 276.651 62.1962 273.363 59.6842C273.069 59.4589 272.792 59.2135 272.533 58.9469C271.867 58.2802 250.667 40.5469 250.667 40.5469C247.041 37.4562 246.247 32.1682 248.8 28.1469C250.849 24.5522 255.425 23.2989 259.021 25.3482C259.364 25.5429 259.692 25.7655 260 26.0135L277.467 39.7469L297.067 15.7469C301.425 19.8869 304.563 25.1442 306.133 30.9469Z" fill="#58C7C3"/>
<path d="M228.635 113.543L251.367 74.1666L257.14 77.5L234.408 116.876L228.635 113.543Z" fill="#2E4082"/>
<path d="M247.395 84.051L256.928 67.539L260.277 69.4724L250.744 85.9844L247.395 84.051Z" fill="#2E4082"/>
<path d="M153.6 69.2139C153.295 69.2925 152.981 69.3379 152.667 69.3472V86.6672L131.867 87.8672V61.2005L128.399 39.2005L165.467 40.4005C167.333 63.8805 156.933 68.4139 153.6 69.2139Z" fill="#F2566D"/>
<path d="M254.933 92.28C254.615 94.712 254.437 97.1613 254.4 99.6133C254.113 101.123 253.191 102.435 251.867 103.213L250.133 104.813L248.533 117.333L247.467 126.267L247.2 128L236.133 119.733L237.467 116L237.6 115.733L242 103.333L240.133 94.6667L243.333 87.3333C243.551 86.9067 244.072 86.736 244.499 86.952C244.707 87.0587 244.863 87.244 244.933 87.4667C245.359 89.2187 245.359 91.048 244.933 92.8L245.467 98.1333L253.2 83.6C253.385 83.216 253.848 83.0533 254.233 83.24C254.477 83.3587 254.641 83.596 254.667 83.8667C255.084 86.6507 255.173 89.4747 254.933 92.28Z" fill="#F2566D"/>
<path d="M248.533 117.333L247.333 126.267L237.333 116L237.067 115.747H237.467L248.533 117.333Z" fill="#ED4D61"/>
<path d="M156.8 86.9336L153.867 79.2136H128.8L127.333 86.9336H156.8Z" fill="#E6EBF8"/>
<path d="M101.467 205.614C95.3333 194.547 98.9339 181.747 101.733 173.881C102.267 172.281 103.066 170.014 104 167.614C102.934 180.001 102.133 192.814 101.467 205.614ZM236 114.947L223.867 141.481C217.6 142.681 193.467 86.9473 160.533 84.9473C136 83.4807 126.267 84.5473 126.267 84.5473C125.236 85.278 124.297 86.1287 123.467 87.0807C77.8667 98.014 75.2 182.147 75.4667 201.347C75.4636 204.181 76.1505 206.971 77.4667 209.481C82.5803 218.982 90.6891 226.529 100.533 230.947C99.0661 284.147 100.667 291.347 100.667 291.347C127.733 300.947 187.6 293.214 187.6 293.214C188.133 283.214 188.533 298.147 188.8 285.614C189.067 270.681 189.2 267.881 189.333 251.614C189.467 187.347 189.6 142.014 189.6 142.014C189.6 142.014 213.733 170.947 222.4 173.881C222.533 173.881 222.8 174.014 222.933 174.014C229.467 175.347 236.533 162.147 240.8 151.614L253.333 127.481L236 114.947Z" fill="#BAC3E8"/>
<path d="M160.133 42.1475C160.133 42.1475 148.533 43.3475 157.867 54.9475C157.867 54.9475 153.2 73.4808 131.733 64.8141C131.733 64.8141 127.733 60.8141 126.533 50.2808C126.533 50.2808 111.467 22.4141 138.133 12.0141C138.133 12.0141 166 3.8808 174 20.1475C182 36.4141 163.6 40.9475 160.133 42.1475Z" fill="#181D3C"/>
<path d="M103.867 174.947C104.533 168.814 103.601 168.547 105.467 162.68C107.333 156.814 110.267 149.08 113.333 144.947L100.267 284.28V246.28C100.267 246.28 100.8 202.947 103.867 174.947Z" fill="#9CA6DB"/>
<path d="M223.067 174.013C222.933 174.013 222.667 173.88 222.533 173.88C213.867 170.947 189.733 142.013 189.733 142.013C189.733 142.013 189.6 187.48 189.467 251.613C189.467 267.88 189.333 270.813 188.933 285.613L181.867 127.48C188.4 137.213 215.733 169.08 223.067 174.013Z" fill="#9CA6DB"/>
<path d="M152.667 69.6141V78.4141C147.232 76.6927 142.323 73.6181 138.4 69.4807C142.992 71.2007 148.044 71.2474 152.667 69.6141Z" fill="#ED4D61"/>
</g>
<defs>
<clipPath id="clip0_362_2658">
<rect width="494.933" height="488.013" fill="white"/>
</clipPath>
</defs>
</svg>
