<svg width="21" height="21" viewBox="0 0 21 21" fill="none" xmlns="http://www.w3.org/2000/svg">
<g clip-path="url(#clip0_611_2321)">
<path d="M10.5 19.5812C10.3938 19.5812 10.2876 19.5537 10.1924 19.4988C10.0891 19.4391 7.63343 18.0133 5.14255 15.865C3.66624 14.5918 2.48778 13.3289 1.63999 12.1116C0.542906 10.5363 -0.00879439 9.02113 0.000105988 7.60803C0.0105239 5.96371 0.599466 4.41735 1.65857 3.25373C2.73556 2.07052 4.17282 1.41895 5.7057 1.41895C7.67022 1.41895 9.46633 2.51939 10.5 4.26263C11.5338 2.51943 13.3299 1.41895 15.2944 1.41895C16.7426 1.41895 18.1243 2.00686 19.1851 3.07441C20.3493 4.24594 21.0107 5.90125 20.9999 7.61582C20.991 9.02647 20.4289 10.5394 19.3294 12.1124C18.479 13.3292 17.3022 14.5915 15.8317 15.8643C13.3499 18.0124 10.9119 19.4382 10.8093 19.4978C10.7137 19.5534 10.6068 19.5812 10.5 19.5812Z" fill="#F36529"/>
</g>
<defs>
<clipPath id="clip0_611_2321">
<rect width="21" height="21" fill="white"/>
</clipPath>
</defs>
</svg>
