<svg width="56" height="56" viewBox="0 0 56 56" fill="none" xmlns="http://www.w3.org/2000/svg">
<path d="M0 9.32604H3.73333V13.0594H0V9.32604ZM52.2667 9.32604H56V13.0594H52.2667V9.32604ZM0 13.0594H3.73333V16.7927H0V13.0594ZM52.2667 13.0594H56V16.7927H52.2667V13.0594ZM0 16.7927H3.73333V20.526H0V16.7927ZM52.2667 16.7927H56V20.526H52.2667V16.7927ZM3.73333 24.2594H7.46667V27.9927H3.73333V24.2594ZM48.5333 24.2594H52.2667V27.9927H48.5333V24.2594ZM0 20.526H3.73333V24.2594H0V20.526ZM52.2667 20.526H56V24.2594H52.2667V20.526ZM3.73333 27.9927H7.46667V31.726H3.73333V27.9927ZM48.5333 27.9927H52.2667V31.726H48.5333V27.9927ZM7.46667 31.726H11.2V35.4594H7.46667V31.726ZM44.8 31.726H48.5333V35.4594H44.8V31.726ZM11.2 35.4594H14.9333V39.1927H11.2V35.4594ZM41.0667 35.4594H44.8V39.1927H41.0667V35.4594ZM14.9333 39.1927H18.6667V42.926H14.9333V39.1927ZM37.3333 39.1927H41.0667V42.926H37.3333V39.1927ZM18.6667 42.926H22.4V46.6594H18.6667V42.926ZM33.6 42.926H37.3333V46.6594H33.6V42.926ZM3.73333 5.59271H7.46667V9.32604H3.73333V5.59271ZM48.5333 5.59271H52.2667V9.32604H48.5333V5.59271ZM11.2 1.85938H14.9333V5.59271H11.2V1.85938ZM7.46667 1.85938H11.2V5.59271H7.46667V1.85938ZM14.9333 1.85938H18.6667V5.59271H14.9333V1.85938Z" fill="#232F6F"/>
<path d="M11.2001 5.59277H14.9335V9.32611H11.2001V5.59277ZM7.4668 5.59277H11.2001V9.32611H7.4668V5.59277ZM14.9335 5.59277H18.6668V9.32611H14.9335V5.59277ZM41.0668 5.59277H44.8001V9.32611H41.0668V5.59277ZM37.3335 5.59277H41.0668V9.32611H37.3335V5.59277ZM44.8001 5.59277H48.5335V9.32611H44.8001V5.59277Z" fill="#FF3646"/>
<path d="M18.6667 5.59277H22.4001V9.32611H18.6667V5.59277Z" fill="#232F6F"/>
<path d="M3.7334 9.32617H7.46673V13.0595H3.7334V9.32617Z" fill="#FF3646"/>
<path d="M11.2001 9.32617H14.9335V13.0595H11.2001V9.32617ZM7.4668 9.32617H11.2001V13.0595H7.4668V9.32617Z" fill="#0D1541"/>
<path d="M14.9334 9.32617H18.6667V13.0595H14.9334V9.32617ZM18.6667 9.32617H22.4001V13.0595H18.6667V9.32617ZM3.7334 13.0595H7.46673V16.7928H3.7334V13.0595ZM11.2001 13.0595H14.9334V16.7928H11.2001V13.0595Z" fill="#FF3646"/>
<path d="M7.4668 13.0596H11.2001V16.7929H7.4668V13.0596Z" fill="#0D1541"/>
<path d="M14.9334 13.0596H18.6667V16.7929H14.9334V13.0596ZM18.6667 13.0596H22.4001V16.7929H18.6667V13.0596ZM3.7334 16.7929H7.46673V20.5262H3.7334V16.7929ZM11.2001 16.7929H14.9334V20.5262H11.2001V16.7929Z" fill="#FF3646"/>
<path d="M7.46673 16.793H11.2001V20.5263H7.46673V16.793ZM14.9334 16.793H18.6667V20.5263H14.9334V16.793ZM18.6667 16.793H22.4001V20.5263H18.6667V16.793ZM3.7334 20.5263H7.46673V24.2596H3.7334V20.5263ZM11.2001 20.5263H14.9334V24.2596H11.2001V20.5263Z" fill="#FF3646"/>
<path d="M7.4668 20.5264H11.2001V24.2597H7.4668V20.5264ZM14.9335 20.5264H18.6668V24.2597H14.9335V20.5264ZM18.6668 20.5264H22.4001V24.2597H18.6668V20.5264ZM11.2001 24.2597H14.9335V27.993H11.2001V24.2597ZM7.4668 24.2597H11.2001V27.993H7.4668V24.2597ZM14.9335 24.2597H18.6668V27.993H14.9335V24.2597ZM18.6668 24.2597H22.4001V27.993H18.6668V24.2597ZM11.2001 27.993H14.9335V31.7264H11.2001V27.993ZM7.4668 27.993H11.2001V31.7264H7.4668V27.993ZM14.9335 27.993H18.6668V31.7264H14.9335V27.993ZM18.6668 27.993H22.4001V31.7264H18.6668V27.993ZM11.2001 31.7264H14.9335V35.4597H11.2001V31.7264ZM14.9335 31.7264H18.6668V35.4597H14.9335V31.7264ZM18.6668 31.7264H22.4001V35.4597H18.6668V31.7264ZM14.9335 35.4597H18.6668V39.193H14.9335V35.4597ZM18.6668 35.4597H22.4001V39.193H18.6668V35.4597Z" fill="#FF3646"/>
<path d="M18.6667 39.1928H22.4001V42.9262H18.6667V39.1928ZM33.6001 9.32617H37.3334V13.0595H33.6001V9.32617ZM41.0667 9.32617H44.8001V13.0595H41.0667V9.32617Z" fill="#FF3646"/>
<path d="M37.3334 9.32617H41.0668V13.0595H37.3334V9.32617ZM44.8001 9.32617H48.5334V13.0595H44.8001V9.32617ZM48.5334 9.32617H52.2668V13.0595H48.5334V9.32617ZM33.6001 13.0595H37.3334V16.7928H33.6001V13.0595ZM41.0668 13.0595H44.8001V16.7928H41.0668V13.0595Z" fill="#FF3646"/>
<path d="M37.3334 13.0596H41.0668V16.7929H37.3334V13.0596ZM44.8001 13.0596H48.5334V16.7929H44.8001V13.0596ZM48.5334 13.0596H52.2668V16.7929H48.5334V13.0596ZM33.6001 16.7929H37.3334V20.5262H33.6001V16.7929ZM41.0668 16.7929H44.8001V20.5262H41.0668V16.7929Z" fill="#FF3646"/>
<path d="M37.3334 16.793H41.0668V20.5263H37.3334V16.793ZM44.8001 16.793H48.5334V20.5263H44.8001V16.793ZM48.5334 16.793H52.2668V20.5263H48.5334V16.793ZM33.6001 20.5263H37.3334V24.2596H33.6001V20.5263ZM41.0668 20.5263H44.8001V24.2596H41.0668V20.5263Z" fill="#FF3646"/>
<path d="M37.3334 20.5264H41.0668V24.2597H37.3334V20.5264ZM44.8001 20.5264H48.5334V24.2597H44.8001V20.5264ZM33.6001 24.2597H37.3334V27.993H33.6001V24.2597ZM41.0668 24.2597H44.8001V27.993H41.0668V24.2597Z" fill="#FF3646"/>
<path d="M37.3334 24.2598H41.0668V27.9931H37.3334V24.2598ZM44.8001 24.2598H48.5334V27.9931H44.8001V24.2598ZM33.6001 27.9931H37.3334V31.7264H33.6001V27.9931ZM41.0668 27.9931H44.8001V31.7264H41.0668V27.9931Z" fill="#FF3646"/>
<path d="M37.3334 27.9932H41.0668V31.7265H37.3334V27.9932ZM33.6001 31.7265H37.3334V35.4598H33.6001V31.7265ZM41.0668 31.7265H44.8001V35.4598H41.0668V31.7265Z" fill="#FF3646"/>
<path d="M37.3334 31.7266H41.0668V35.4599H37.3334V31.7266ZM33.6001 35.4599H37.3334V39.1932H33.6001V35.4599Z" fill="#FF3646"/>
<path d="M33.6001 39.1924H37.3334V42.9257H33.6001V39.1924Z" fill="#FF3646"/>
<path d="M37.3335 35.4597H41.0668V39.193H37.3335V35.4597ZM44.8002 27.993H48.5335V31.7264H44.8002V27.993ZM48.5335 20.5264H52.2668V24.2597H48.5335V20.5264Z" fill="#FF3646"/>
<path d="M22.3999 9.32611H26.1332V13.0594H22.3999V9.32611ZM26.1332 13.0594H29.8666V16.7928H26.1332V13.0594ZM33.5999 5.59277H37.3332V9.32611H33.5999V5.59277ZM29.8666 9.32611H33.5999V13.0594H29.8666V9.32611Z" fill="#232F6F"/>
<path d="M22.3999 13.0596H26.1332V16.7929H22.3999V13.0596ZM26.1332 16.7929H29.8666V20.5262H26.1332V16.7929ZM29.8666 13.0596H33.5999V16.7929H29.8666V13.0596Z" fill="#FF3646"/>
<path d="M22.3999 16.793H26.1332V20.5263H22.3999V16.793ZM26.1332 20.5263H29.8666V24.2596H26.1332V20.5263ZM29.8666 16.793H33.5999V20.5263H29.8666V16.793Z" fill="#FF3646"/>
<path d="M22.3999 20.5264H26.1332V24.2597H22.3999V20.5264ZM26.1332 24.2597H29.8666V27.993H26.1332V24.2597ZM29.8666 20.5264H33.5999V24.2597H29.8666V20.5264Z" fill="#FF3646"/>
<path d="M22.3999 24.2598H26.1332V27.9931H22.3999V24.2598ZM26.1332 27.9931H29.8666V31.7264H26.1332V27.9931ZM29.8666 24.2598H33.5999V27.9931H29.8666V24.2598Z" fill="#FF3646"/>
<path d="M22.3999 27.9932H26.1332V31.7265H22.3999V27.9932ZM26.1332 31.7265H29.8666V35.4598H26.1332V31.7265ZM29.8666 27.9932H33.5999V31.7265H29.8666V27.9932Z" fill="#FF3646"/>
<path d="M22.3999 31.7256H26.1332V35.4589H22.3999V31.7256ZM26.1332 35.4589H29.8666V39.1923H26.1332V35.4589ZM29.8666 31.7256H33.5999V35.4589H29.8666V31.7256Z" fill="#FF3646"/>
<path d="M22.3999 35.459H26.1332V39.1923H22.3999V35.459Z" fill="#FF3646"/>
<path d="M26.1333 39.1923H29.8666V42.9257H26.1333V39.1923ZM29.8666 35.459H33.6V39.1923H29.8666V35.459Z" fill="#FF3646"/>
<path d="M22.3999 39.1924H26.1332V42.9257H22.3999V39.1924ZM26.1332 42.9257H29.8666V46.659H26.1332V42.9257ZM29.8666 39.1924H33.5999V42.9257H29.8666V39.1924Z" fill="#FF3646"/>
<path d="M22.3999 42.9258H26.1332V46.6591H22.3999V42.9258ZM26.1332 46.6591H29.8666V50.3924H26.1332V46.6591ZM29.8666 42.9258H33.5999V46.6591H29.8666V42.9258Z" fill="#FF3646"/>
<path d="M22.3999 46.6594H26.1332V50.3927H22.3999V46.6594ZM26.1332 50.3927H29.8666V54.126H26.1332V50.3927ZM29.8666 46.6594H33.5999V50.3927H29.8666V46.6594ZM37.3332 1.85938H41.0666V5.59271H37.3332V1.85938ZM41.0666 1.85938H44.7999V5.59271H41.0666V1.85938ZM44.7999 1.85938H48.5332V5.59271H44.7999V1.85938Z" fill="#232F6F"/>
</svg>
