<?xml version="1.0" encoding="UTF-8"?>
<svg width="64px" height="60px" viewBox="0 0 64 60" version="1.1" xmlns="http://www.w3.org/2000/svg" xmlns:xlink="http://www.w3.org/1999/xlink">
    <title>heart</title>
    <g id="heart" stroke="none" stroke-width="1" fill="none" fill-rule="evenodd" stroke-linecap="round">
        <g id="Group-4" transform="translate(1.000000, 1.000000)" stroke="#3C474E" stroke-width="1.5">
            <path d="M36.7191304,6.71519632 C39.5863688,6.93200592 41.5863688,7.18200592 42.7191304,7.46519632 C46.571394,8.42826223 48.7191304,9.71519632 48.7191304,9.71519632" id="Path-15" transform="translate(42.719130, 8.215196) rotate(-65.000000) translate(-42.719130, -8.215196) "></path>
            <line x1="30.0710127" y1="12.2741347" x2="30.0852188" y2="0" id="Path-16"></line>
            <path d="M49,18.262677 C50.9757029,15.843952 52.7225731,14.0135741 54.2406108,12.7715433 C55.7586484,11.5295125 57.6784448,10.3598904 60,9.26267697" id="Path-17" transform="translate(54.500000, 13.762677) rotate(11.000000) translate(-54.500000, -13.762677) "></path>
            <path d="M13.6470248,2.42966784 C14.9052973,5.46275789 15.7035187,7.65564352 16.041689,9.0083247 C16.3798593,10.3610059 16.5816379,12.1681203 16.6470248,14.4296678" id="Path-18" transform="translate(15.147025, 8.429668) rotate(-29.000000) translate(-15.147025, -8.429668) "></path>
            <path d="M2,18.262677 C3.29522054,16.1836338 4.35091528,14.6194322 5.16708422,13.5700721 C5.98325315,12.5207121 7.26089175,11.0849137 9,9.26267697" id="Path-19" transform="translate(5.500000, 13.762677) rotate(83.000000) translate(-5.500000, -13.762677) "></path>
            <path d="M31.5609108,53.2556517 C32.4631393,53.2556517 46.0382472,40.0864833 48.0379835,35.6460333 C50.0377198,31.2055832 49.0452191,22.2870583 40.9113081,20.8998072 C35.4887008,19.9749732 31.3468574,21.7397754 28.4857778,26.1942139 C25.1212347,21.4173966 20.4033802,19.8746577 14.3322141,21.5659973 C8.59137425,23.1653128 7.90745727,28.9142277 9.00737304,33.5622234 C10.092107,38.1460643 15.4726795,42.358987 17.1788847,43.8299813 C22.6614588,48.5567486 28.9615693,54.9480313 30.0244564,56.8370051" id="Path-50"></path>
        </g>
    </g>
</svg>