<svg width="392" height="146" viewBox="0 0 392 146" fill="none" xmlns="http://www.w3.org/2000/svg">
<rect x="8" y="29" width="88" height="88" rx="29" fill="#0A0F2B" fill-opacity="0.8" stroke="url(#paint0_linear_4945_3454)"/>
<rect x="104" y="29" width="88" height="88" rx="29" fill="#0A0F2B" fill-opacity="0.8" stroke="url(#paint1_linear_4945_3454)"/>
<rect x="200" y="29" width="88" height="88" rx="29" fill="#0A0F2B" fill-opacity="0.8" stroke="url(#paint2_linear_4945_3454)"/>
<rect x="296" y="29" width="88" height="88" rx="29" fill="#0A0F2B" fill-opacity="0.8" stroke="url(#paint3_linear_4945_3454)"/>
<rect opacity="0.2" x="13" y="34" width="78" height="78" rx="25" fill="url(#paint4_radial_4945_3454)"/>
<rect opacity="0.2" x="109" y="34" width="78" height="78" rx="25" fill="url(#paint5_radial_4945_3454)"/>
<rect opacity="0.2" x="205" y="34" width="78" height="78" rx="25" fill="url(#paint6_radial_4945_3454)"/>
<rect opacity="0.2" x="301" y="34" width="78" height="78" rx="25" fill="url(#paint7_radial_4945_3454)"/>
<path d="M50.7382 90C50.2883 89.9995 49.846 89.884 49.4533 89.6644L44.3592 86.8347C41.8266 85.4266 39.7162 83.3674 38.2465 80.87C36.7769 78.3726 36.0013 75.5278 36 72.6301V64.7758C35.9999 64.1222 36.2422 63.4918 36.68 63.0065C37.1178 62.5212 37.7201 62.2155 38.3702 62.1486C40.397 61.9338 42.3918 61.4828 44.3139 60.8048C46.0761 60.1818 47.7667 59.372 49.3566 58.3892C49.7725 58.1347 50.2506 58 50.7382 58C51.2258 58 51.7039 58.1347 52.1198 58.3892C53.7099 59.3717 55.4004 60.1815 57.1625 60.8048C59.0846 61.4828 61.0794 61.9338 63.1062 62.1486C63.7563 62.2155 64.3585 62.5212 64.7964 63.0065C65.2342 63.4918 65.4765 64.1222 65.4764 64.7758V72.6301C65.4751 75.5278 64.6995 78.3726 63.2299 80.87C61.7602 83.3674 59.6498 85.4266 57.1172 86.8347L52.0231 89.6659C51.6303 89.8851 51.188 90.0001 50.7382 90ZM50.7382 60.2666C50.6717 60.266 50.6063 60.2838 50.5492 60.318C48.8215 61.3859 46.9845 62.2661 45.0697 62.9437C42.981 63.6809 40.8132 64.1709 38.6106 64.4039C38.517 64.4119 38.4298 64.4546 38.3663 64.5238C38.3027 64.5929 38.2675 64.6834 38.2674 64.7773V72.6316C38.2682 75.125 38.9354 77.5729 40.1999 79.7219C41.4645 81.8709 43.2804 83.6429 45.4597 84.8545L50.5538 87.6842C50.6096 87.7156 50.6726 87.7321 50.7367 87.7321C50.8008 87.7321 50.8637 87.7156 50.9196 87.6842L56.0167 84.8545C58.196 83.6429 60.0119 81.8709 61.2765 79.7219C62.541 77.5729 63.2082 75.125 63.209 72.6316V64.7758C63.2089 64.6819 63.1737 64.5914 63.1101 64.5223C63.0466 64.4531 62.9594 64.4103 62.8658 64.4024C60.6632 64.1694 58.4954 63.6794 56.4067 62.9422C54.492 62.2656 52.6551 61.3864 50.9271 60.3195C50.8704 60.2845 50.8049 60.2662 50.7382 60.2666Z" fill="#3FA1E3"/>
<path d="M49.9822 77.3671C49.7045 77.3673 49.4364 77.265 49.2294 77.0798L45.8283 74.0566C45.6174 73.8534 45.4933 73.5765 45.482 73.2839C45.4708 72.9913 45.5731 72.7056 45.7677 72.4868C45.9623 72.268 46.2341 72.1329 46.526 72.11C46.818 72.087 47.1075 72.1779 47.3339 72.3636L49.9097 74.6522L54.8239 69.4114C54.9251 69.3003 55.0474 69.2104 55.1836 69.147C55.3198 69.0835 55.4673 69.0478 55.6175 69.0419C55.7677 69.036 55.9175 69.06 56.0583 69.1125C56.1991 69.165 56.3281 69.245 56.4377 69.3478C56.5473 69.4506 56.6354 69.5742 56.6969 69.7113C56.7583 69.8485 56.7918 69.9965 56.7955 70.1467C56.7993 70.297 56.7731 70.4464 56.7185 70.5865C56.6639 70.7265 56.582 70.8543 56.4776 70.9624L50.8091 77.0088C50.7032 77.1221 50.5752 77.2123 50.4329 77.274C50.2907 77.3356 50.1373 77.3673 49.9822 77.3671Z" fill="#3FA1E3"/>
<path d="M145.828 61.114C149.98 56.962 156.734 56.962 160.886 61.114C164.908 65.1362 165.034 71.5997 161.263 75.7745L160.886 76.1716C158.181 78.8785 154.325 79.8278 150.703 78.8603L148.835 80.7059C148.493 81.0445 148.032 81.2352 147.55 81.2353H146.879V81.9375L146.868 82.1299C146.847 82.3205 146.797 82.507 146.718 82.6826C146.613 82.9169 146.46 83.1268 146.268 83.2978L146.266 83.3003C145.892 83.6318 145.378 83.8142 144.844 83.7476L144.458 83.7034L144.374 84.6029C144.334 85.0257 144.148 85.4215 143.848 85.7218C143.548 86.022 143.152 86.2069 142.729 86.2463L141.828 86.3321L141.874 86.7181C141.905 86.991 141.876 87.2675 141.786 87.527C141.695 87.7864 141.547 88.0226 141.353 88.2169L140.104 89.4657C139.763 89.8073 139.299 90 138.815 90H133.824C132.816 90 132 89.184 132 88.1765V83.1851C132 82.9455 132.047 82.7079 132.138 82.4865L132.216 82.3248C132.3 82.1669 132.407 82.0216 132.534 81.8946L143.071 71.3566C142.111 67.7209 143.131 63.811 145.828 61.114ZM159.555 62.4449C156.138 59.028 150.576 59.028 147.159 62.4449C144.826 64.7781 144.015 68.2185 145.026 71.3407L145.203 71.8885L144.795 72.2954L133.882 83.2083V88.1176H138.79L140 86.9056L139.739 84.6385L142.504 84.3775L142.675 82.5686L142.765 81.6115L143.721 81.723L144.996 81.8701V79.353H147.524L150.183 76.7316L150.727 76.9069C153.858 77.922 157.229 77.168 159.555 74.8407C162.972 71.4239 162.972 65.8618 159.555 62.4449ZM153.316 63.6103C154.716 62.2108 156.99 62.2106 158.39 63.6103C159.789 65.0101 159.789 67.284 158.39 68.6839C156.99 70.0837 154.716 70.0837 153.316 68.6839C151.916 67.284 151.916 65.0102 153.316 63.6103ZM157.059 64.9412C156.394 64.2766 155.312 64.2767 154.647 64.9412C153.982 65.6059 153.982 66.6882 154.647 67.353C155.312 68.0177 156.394 68.0177 157.059 67.353C157.723 66.6882 157.723 65.6058 157.059 64.9412Z" fill="#3FA1E3"/>
<path d="M243.738 58C234.89 58 227.7 65.1899 227.7 74.0381C227.7 82.3169 233.989 89.1459 242.054 89.9879C243.413 90.1306 244.54 88.9903 244.54 87.6704V81.2552C244.54 80.8029 244.89 80.4533 245.342 80.4533H255.767C257.326 80.4533 258.89 79.4509 259.291 77.8551C259.605 76.6095 259.768 75.3306 259.777 74.0461C259.777 74.045 259.777 74.0439 259.777 74.0429C259.777 74.0418 259.777 74.0407 259.777 74.0397C259.777 65.1915 252.587 58 243.738 58ZM238.927 64.4152C240.247 64.4152 241.333 65.501 241.333 66.8209C241.333 68.1409 240.247 69.2266 238.927 69.2266C237.607 69.2266 236.521 68.1409 236.521 66.8209C236.521 65.501 237.607 64.4152 238.927 64.4152ZM248.55 64.4152C249.87 64.4152 250.956 65.501 250.956 66.8209C250.956 68.1409 249.87 69.2266 248.55 69.2266C247.23 69.2266 246.144 68.1409 246.144 66.8209C246.144 65.501 247.23 64.4152 248.55 64.4152ZM234.918 70.8304C236.237 70.8304 237.323 71.9162 237.323 73.2361C237.323 74.5561 236.237 75.6419 234.918 75.6419C233.598 75.6419 232.512 74.5561 232.512 73.2361C232.512 71.9162 233.598 70.8304 234.918 70.8304ZM252.559 70.8304C253.879 70.8304 254.965 71.9162 254.965 73.2361C254.965 74.5561 253.879 75.6419 252.559 75.6419C251.239 75.6419 250.154 74.5561 250.154 73.2361C250.154 71.9162 251.239 70.8304 252.559 70.8304Z" stroke="#3FA1E3" stroke-width="1.8"/>
<path fill-rule="evenodd" clip-rule="evenodd" d="M338.994 86.2985H326.269C326.19 86.2985 326.114 86.2671 326.058 86.2113C326.002 86.1554 325.971 86.0797 325.971 86.0008V83.8412C325.971 82.6058 326.854 81.5163 328.214 80.5905C330.643 78.9325 334.574 77.8877 338.994 77.8877C339.29 77.8877 339.574 77.77 339.784 77.5607C339.993 77.3514 340.111 77.0674 340.111 76.7714C340.111 76.4753 339.993 76.1914 339.784 75.982C339.574 75.7727 339.29 75.6551 338.994 75.6551C334.05 75.6551 329.673 76.8919 326.955 78.745C324.882 80.1589 323.739 81.9554 323.739 83.8412V86.0008C323.739 86.6718 324.005 87.3154 324.48 87.7899C324.954 88.2644 325.598 88.531 326.269 88.531H338.994C339.29 88.531 339.574 88.4134 339.784 88.2041C339.993 87.9947 340.111 87.7108 340.111 87.4147C340.111 87.1187 339.993 86.8348 339.784 86.6254C339.574 86.4161 339.29 86.2985 338.994 86.2985ZM338.994 58C334.476 58 330.808 61.6674 330.808 66.1861C330.808 70.7048 334.476 74.3721 338.994 74.3721C343.513 74.3721 347.18 70.7048 347.18 66.1861C347.18 61.6674 343.513 58 338.994 58ZM338.994 60.2326C342.281 60.2326 344.948 62.8997 344.948 66.1861C344.948 69.4724 342.281 72.1396 338.994 72.1396C335.708 72.1396 333.041 69.4724 333.041 66.1861C333.041 62.8997 335.708 60.2326 338.994 60.2326ZM347.925 76.8845C346.545 76.9245 345.235 77.5007 344.274 78.4907C343.312 79.4807 342.774 80.8066 342.774 82.1868C342.774 83.567 343.312 84.8929 344.274 85.8829C345.235 86.8729 346.545 87.4491 347.925 87.4892C350.851 87.4892 353.228 85.1122 353.228 82.1861C353.228 79.2599 350.851 76.8845 347.925 76.8845ZM347.925 79.1171C349.618 79.1171 350.995 80.4923 350.995 82.1861C350.995 83.8799 349.618 85.2566 347.925 85.2566C346.231 85.2566 344.854 83.8799 344.854 82.1861C344.854 80.4923 346.231 79.1171 347.925 79.1171Z" fill="#3FA1E3"/>
<path fill-rule="evenodd" clip-rule="evenodd" d="M349.041 77.9983V75.4874C349.041 75.1913 348.923 74.9074 348.714 74.698C348.505 74.4887 348.221 74.3711 347.925 74.3711C347.629 74.3711 347.345 74.4887 347.135 74.698C346.926 74.9074 346.808 75.1913 346.808 75.4874V77.9997C346.808 78.2958 346.926 78.5797 347.136 78.7889C347.345 78.9981 347.629 79.1155 347.925 79.1153C348.221 79.1151 348.505 78.9973 348.714 78.7878C348.924 78.5783 349.041 78.2943 349.041 77.9983ZM351.674 80.015L353.449 78.2379C353.659 78.0287 353.776 77.7449 353.776 77.4491C353.776 77.1532 353.659 76.8694 353.449 76.6602C353.24 76.451 352.956 76.3335 352.661 76.3335C352.365 76.3335 352.081 76.451 351.872 76.6602L350.095 78.4358C349.886 78.6456 349.769 78.9295 349.769 79.2254C349.769 79.5214 349.886 79.8053 350.095 80.015C350.304 80.2238 350.588 80.341 350.884 80.341C351.18 80.341 351.464 80.2238 351.674 80.015ZM352.11 83.3013H354.622C354.918 83.3013 355.202 83.1837 355.412 82.9744C355.621 82.765 355.739 82.4811 355.739 82.1851C355.739 81.889 355.621 81.6051 355.412 81.3957C355.202 81.1864 354.918 81.0688 354.622 81.0688H352.11C351.814 81.0688 351.53 81.1864 351.321 81.3957C351.111 81.6051 350.994 81.889 350.994 82.1851C350.994 82.4811 351.111 82.765 351.321 82.9744C351.53 83.1837 351.814 83.3013 352.11 83.3013ZM350.095 85.9343L351.872 87.7099C351.975 87.8135 352.098 87.8957 352.234 87.9517C352.369 88.0078 352.514 88.0367 352.661 88.0367C352.807 88.0367 352.952 88.0078 353.087 87.9517C353.223 87.8957 353.346 87.8135 353.449 87.7099C353.553 87.6063 353.635 87.4833 353.691 87.348C353.747 87.2126 353.776 87.0676 353.776 86.9211C353.776 86.7746 353.747 86.6295 353.691 86.4941C353.635 86.3588 353.553 86.2358 353.449 86.1322L351.674 84.3551C351.464 84.1463 351.18 84.0291 350.884 84.0291C350.588 84.0291 350.304 84.1463 350.095 84.3551C349.886 84.5649 349.769 84.8488 349.769 85.1447C349.769 85.4406 349.886 85.7245 350.095 85.9343ZM346.808 86.3704V88.8827C346.808 89.1788 346.926 89.4627 347.135 89.6721C347.345 89.8814 347.629 89.999 347.925 89.999C348.221 89.999 348.505 89.8814 348.714 89.6721C348.923 89.4627 349.041 89.1788 349.041 88.8827V86.3704C349.041 86.0743 348.923 85.7904 348.714 85.581C348.505 85.3717 348.221 85.2541 347.925 85.2541C347.629 85.2541 347.345 85.3717 347.135 85.581C346.926 85.7904 346.808 86.0743 346.808 86.3704ZM344.175 84.3551L342.4 86.1322C342.296 86.2358 342.214 86.3588 342.158 86.4941C342.102 86.6295 342.073 86.7746 342.073 86.9211C342.073 87.0676 342.102 87.2126 342.158 87.348C342.214 87.4833 342.296 87.6063 342.4 87.7099C342.503 87.8135 342.626 87.8957 342.762 87.9517C342.897 88.0078 343.042 88.0367 343.189 88.0367C343.335 88.0367 343.48 88.0078 343.615 87.9517C343.751 87.8957 343.874 87.8135 343.977 87.7099L345.755 85.9343C345.963 85.7245 346.08 85.4406 346.08 85.1447C346.08 84.8488 345.963 84.5649 345.755 84.3551C345.545 84.1463 345.261 84.0291 344.965 84.0291C344.669 84.0291 344.385 84.1463 344.175 84.3551ZM343.738 81.0688H341.227C340.931 81.0688 340.647 81.1864 340.438 81.3957C340.228 81.6051 340.111 81.889 340.111 82.1851C340.111 82.4811 340.228 82.765 340.438 82.9744C340.647 83.1837 340.931 83.3013 341.227 83.3013H343.738C344.034 83.3013 344.318 83.1837 344.527 82.9744C344.736 82.765 344.854 82.4811 344.854 82.1851C344.854 81.889 344.736 81.6051 344.527 81.3957C344.318 81.1864 344.034 81.0688 343.738 81.0688ZM345.755 78.4358L343.977 76.6602C343.874 76.5566 343.751 76.4744 343.615 76.4184C343.48 76.3623 343.335 76.3335 343.189 76.3335C343.042 76.3335 342.897 76.3623 342.762 76.4184C342.626 76.4744 342.503 76.5566 342.4 76.6602C342.296 76.7638 342.214 76.8868 342.158 77.0221C342.102 77.1575 342.073 77.3026 342.073 77.4491C342.073 77.5956 342.102 77.7406 342.158 77.876C342.214 78.0113 342.296 78.1343 342.4 78.2379L344.175 80.015C344.385 80.2238 344.669 80.341 344.965 80.341C345.261 80.341 345.545 80.2238 345.755 80.015C345.963 79.8053 346.08 79.5214 346.08 79.2254C346.08 78.9295 345.963 78.6456 345.755 78.4358Z" fill="#3FA1E3"/>
<path d="M98.0138 115.275C98.0891 116.033 98.6162 116.678 99.3692 116.887C101.877 117.611 109.149 119.708 111.532 120.393C112.208 122.787 114.304 130.146 115.013 132.643C115.452 134.376 118.048 134.486 118.59 132.757C122.084 122.736 126.395 110.468 129.885 100.523C130.343 99.342 129.364 97.9578 128.116 98.0015C127.542 97.8403 103.279 111.107 98.9927 113.398C98.315 113.758 97.9196 114.498 98.0138 115.275Z" fill="#3FA1E3"/>
<defs>
<linearGradient id="paint0_linear_4945_3454" x1="52" y1="29" x2="52" y2="117" gradientUnits="userSpaceOnUse">
<stop stop-color="#3FA1E3"/>
<stop offset="1" stop-color="#3FA1E3" stop-opacity="0.35"/>
</linearGradient>
<linearGradient id="paint1_linear_4945_3454" x1="148" y1="29" x2="148" y2="117" gradientUnits="userSpaceOnUse">
<stop stop-color="#3FA1E3"/>
<stop offset="1" stop-color="#3FA1E3" stop-opacity="0.35"/>
</linearGradient>
<linearGradient id="paint2_linear_4945_3454" x1="244" y1="29" x2="244" y2="117" gradientUnits="userSpaceOnUse">
<stop stop-color="#3FA1E3"/>
<stop offset="1" stop-color="#3FA1E3" stop-opacity="0.35"/>
</linearGradient>
<linearGradient id="paint3_linear_4945_3454" x1="340" y1="29" x2="340" y2="117" gradientUnits="userSpaceOnUse">
<stop stop-color="#3FA1E3"/>
<stop offset="1" stop-color="#3FA1E3" stop-opacity="0.35"/>
</linearGradient>
<radialGradient id="paint4_radial_4945_3454" cx="0" cy="0" r="1" gradientUnits="userSpaceOnUse" gradientTransform="translate(52 73) rotate(90) scale(39)">
<stop offset="0.480792" stop-color="#232F6F" stop-opacity="0"/>
<stop offset="1" stop-color="#232F6F"/>
</radialGradient>
<radialGradient id="paint5_radial_4945_3454" cx="0" cy="0" r="1" gradientUnits="userSpaceOnUse" gradientTransform="translate(148 73) rotate(90) scale(39)">
<stop offset="0.480792" stop-color="#3FA1E3" stop-opacity="0.24"/>
<stop offset="1" stop-color="#3FA1E3"/>
</radialGradient>
<radialGradient id="paint6_radial_4945_3454" cx="0" cy="0" r="1" gradientUnits="userSpaceOnUse" gradientTransform="translate(244 73) rotate(90) scale(39)">
<stop offset="0.480792" stop-color="#232F6F" stop-opacity="0"/>
<stop offset="1" stop-color="#232F6F"/>
</radialGradient>
<radialGradient id="paint7_radial_4945_3454" cx="0" cy="0" r="1" gradientUnits="userSpaceOnUse" gradientTransform="translate(340 73) rotate(90) scale(39)">
<stop offset="0.480792" stop-color="#232F6F" stop-opacity="0"/>
<stop offset="1" stop-color="#232F6F"/>
</radialGradient>
</defs>
</svg>
