<?xml version="1.0" encoding="UTF-8"?>
<svg width="555px" height="497px" viewBox="0 0 555 497" version="1.1" xmlns="http://www.w3.org/2000/svg" xmlns:xlink="http://www.w3.org/1999/xlink">
    <title>hero-compact 2</title>
    <defs>
        <rect id="path-1" x="146" y="40" width="273.925501" height="396.561605" rx="6"></rect>
        <filter x="-17.2%" y="-9.3%" width="134.3%" height="123.7%" filterUnits="objectBoundingBox" id="filter-2">
            <feOffset dx="0" dy="10" in="SourceAlpha" result="shadowOffsetOuter1"></feOffset>
            <feGaussianBlur stdDeviation="14" in="shadowOffsetOuter1" result="shadowBlurOuter1"></feGaussianBlur>
            <feColorMatrix values="0 0 0 0 0.454901961   0 0 0 0 0.505882353   0 0 0 0 0.541176471  0 0 0 0.210527753 0" type="matrix" in="shadowBlurOuter1"></feColorMatrix>
        </filter>
        <rect id="path-3" x="178.848138" y="215.472779" width="212.034384" height="34.3839542" rx="3"></rect>
        <filter x="-4.2%" y="-17.4%" width="108.5%" height="152.3%" filterUnits="objectBoundingBox" id="filter-4">
            <feOffset dx="0" dy="3" in="SourceAlpha" result="shadowOffsetOuter1"></feOffset>
            <feGaussianBlur stdDeviation="2.5" in="shadowOffsetOuter1" result="shadowBlurOuter1"></feGaussianBlur>
            <feComposite in="shadowBlurOuter1" in2="SourceAlpha" operator="out" result="shadowBlurOuter1"></feComposite>
            <feColorMatrix values="0 0 0 0 0.474509804   0 0 0 0 0.517647059   0 0 0 0 0.545098039  0 0 0 0.114647072 0" type="matrix" in="shadowBlurOuter1"></feColorMatrix>
        </filter>
        <rect id="path-5" x="178.848138" y="176.504298" width="212.034384" height="34.3839542" rx="3"></rect>
        <filter x="-4.2%" y="-17.4%" width="108.5%" height="152.3%" filterUnits="objectBoundingBox" id="filter-6">
            <feOffset dx="0" dy="3" in="SourceAlpha" result="shadowOffsetOuter1"></feOffset>
            <feGaussianBlur stdDeviation="2.5" in="shadowOffsetOuter1" result="shadowBlurOuter1"></feGaussianBlur>
            <feComposite in="shadowBlurOuter1" in2="SourceAlpha" operator="out" result="shadowBlurOuter1"></feComposite>
            <feColorMatrix values="0 0 0 0 0.474509804   0 0 0 0 0.517647059   0 0 0 0 0.545098039  0 0 0 0.114647072 0" type="matrix" in="shadowBlurOuter1"></feColorMatrix>
        </filter>
        <rect id="path-7" x="178.848138" y="137.535817" width="212.034384" height="34.3839542" rx="3"></rect>
        <filter x="-4.2%" y="-17.5%" width="108.5%" height="152.4%" filterUnits="objectBoundingBox" id="filter-8">
            <feOffset dx="0" dy="3" in="SourceAlpha" result="shadowOffsetOuter1"></feOffset>
            <feGaussianBlur stdDeviation="2.5" in="shadowOffsetOuter1" result="shadowBlurOuter1"></feGaussianBlur>
            <feComposite in="shadowBlurOuter1" in2="SourceAlpha" operator="out" result="shadowBlurOuter1"></feComposite>
            <feColorMatrix values="0 0 0 0 0.474509804   0 0 0 0 0.517647059   0 0 0 0 0.545098039  0 0 0 0.114647072 0" type="matrix" in="shadowBlurOuter1"></feColorMatrix>
        </filter>
    </defs>
    <g id="Page-1" stroke="none" stroke-width="1" fill="none" fill-rule="evenodd">
        <g id="Artboard" transform="translate(-411.000000, -1302.000000)">
            <g id="hero-compact" transform="translate(411.000000, 1303.000000)">
                <g id="Rectangle">
                    <use fill="black" fill-opacity="1" filter="url(#filter-2)" xlink:href="#path-1"></use>
                    <use fill="#FFFFFF" fill-rule="evenodd" xlink:href="#path-1"></use>
                </g>
                <rect id="Rectangle" stroke="#DDE2E7" fill="#FFFFFF" x="179.348138" y="295.055874" width="211.034384" height="33.3839542" rx="3"></rect>
                <g id="Rectangle-Copy-10">
                    <use fill="black" fill-opacity="1" filter="url(#filter-4)" xlink:href="#path-3"></use>
                    <rect stroke="#DDE2E7" stroke-width="0.6" stroke-linejoin="square" fill="#FFFFFF" fill-rule="evenodd" x="179.148138" y="215.772779" width="211.434384" height="33.7839542" rx="3"></rect>
                </g>
                <text id="Enter-your-email" opacity="0.300000012" font-family="Inter, Inter UI, Helvetica, Arial, sans-serif" font-size="10" font-weight="normal" line-spacing="16" fill="#66737B">
                    <tspan x="188.017192" y="313.747851">Enter your email</tspan>
                </text>
                <rect id="Rectangle-Copy-5" stroke="#DDE2E7" fill="#FFFFFF" x="179.348138" y="334.024355" width="211.034384" height="33.3839542" rx="3"></rect>
                <rect id="Rectangle-Copy-9" fill="#3EA1E5" x="179.994269" y="374.7851" width="209.74212" height="33.2378223" rx="3"></rect>
                <text id="Enter-your-password" opacity="0.300000012" font-family="Inter, Inter UI, Helvetica, Arial, sans-serif" font-size="10" font-weight="normal" line-spacing="16" fill="#66737B">
                    <tspan x="188.017192" y="352.716332">Enter your password</tspan>
                </text>
                <text id="OR" opacity="0.300000012" font-family="Inter, Inter UI, Helvetica, Arial, sans-serif" font-size="7" font-weight="normal" line-spacing="16" fill="#66737B">
                    <tspan x="282.275491" y="272.925501">OR</tspan>
                </text>
                <text id="Sign-in-with-LinkedI" font-family="Inter, Inter UI, Helvetica, Arial, sans-serif" font-size="10" font-weight="normal" line-spacing="16" fill="#66737B">
                    <tspan x="188.017192" y="233.518625">Sign in with LinkedIn</tspan>
                </text>
                <g id="Rectangle-Copy-11">
                    <use fill="black" fill-opacity="1" filter="url(#filter-6)" xlink:href="#path-5"></use>
                    <rect stroke="#DDE2E7" stroke-width="0.6" stroke-linejoin="square" fill="#FFFFFF" fill-rule="evenodd" x="179.148138" y="176.804298" width="211.434384" height="33.7839542" rx="3"></rect>
                </g>
                <text id="Sign-in-with-Microso" font-family="Inter, Inter UI, Helvetica, Arial, sans-serif" font-size="10" font-weight="normal" line-spacing="16" fill="#66737B">
                    <tspan x="188.017192" y="194.550143">Sign in with Microsoft</tspan>
                </text>
                <g id="Rectangle-Copy-31">
                    <use fill="black" fill-opacity="1" filter="url(#filter-8)" xlink:href="#path-7"></use>
                    <rect stroke="#DDE2E7" stroke-width="0.6" stroke-linejoin="square" fill="#FFFFFF" fill-rule="evenodd" x="179.148138" y="137.835817" width="211.434384" height="33.7839542" rx="3"></rect>
                </g>
                <text id="Sign-in-with-Google" font-family="Inter, Inter UI, Helvetica, Arial, sans-serif" font-size="10" font-weight="normal" line-spacing="16" fill="#66737B">
                    <tspan x="188.017192" y="155.581662">Sign in with Google</tspan>
                </text>
                <text id="Forgot?" font-family="Inter, Inter UI, Helvetica, Arial, sans-serif" font-size="7" font-weight="normal" line-spacing="16" fill="#66737B" text-decoration="underline">
                    <tspan x="327.845272" y="349.716332">Forgot?</tspan>
                </text>
                <g id="Group-10" opacity="0.300000012" transform="translate(369.106017, 308.309456)" stroke="#66737B" stroke-width="1.3">
                    <rect id="Rectangle" x="0.65" y="0.65" width="10.1613181" height="8.25109838" rx="2"></rect>
                    <polyline id="Path-24" stroke-linecap="round" stroke-linejoin="round" points="2.55303652 2.86532951 5.73065903 5.33887927 8.66316624 2.86532951"></polyline>
                </g>
                <g id="Group-2" opacity="0.300000012" transform="translate(369.106017, 344.985673)" stroke="#66737B" stroke-width="1.3">
                    <rect id="Rectangle-Copy-6" x="0.65" y="6.38065903" width="10.1613181" height="6.3408787" rx="2"></rect>
                    <line x1="4.69689864" y1="9.55109838" x2="7.0432048" y2="9.55109838" id="Path-25" stroke-linecap="round" stroke-linejoin="round"></line>
                    <path d="M2.86532951,4.77554919 L2.86532951,6.26555894 L2.86532951,2.86532951 C2.86532951,1.28285172 4.14818123,-4.07187814e-14 5.73065903,-4.07187814e-14 C7.31313682,-4.07187814e-14 8.59598854,1.28285172 8.59598854,2.86532951 L8.59598854,4.77554919 L8.59598854,6.26555894" id="Path"></path>
                </g>
                <text id="Sign-In" font-family="InterUI-Bold, Inter UI" font-size="10" font-weight="bold" line-spacing="16" fill="#FFFFFF">
                    <tspan x="268.847929" y="392.830946">Sign In</tspan>
                </text>
                <path d="M95.8717601,144.412607 C107.974594,161.604585 129.190215,170.773639 159.518625,171.919771" id="Path-11" stroke="#3C474E" stroke-width="1.5" stroke-linecap="round"></path>
                <path d="M152.705545,162.750716 C161.832125,167.116571 166.395415,170.140353 166.395415,171.822064 C166.395415,174.34463 154.222659,177.65043 150.34957,177.65043" id="Path-12" stroke="#3C474E" stroke-width="1.5" stroke-linecap="round"></path>
                <path d="M125.059002,406.75081 C134.313565,407.225429 143.665775,408.126783 153.115633,409.454874" id="Path-11-Copy-2" stroke="#3C474E" stroke-width="1.5" stroke-linecap="round" transform="translate(139.087318, 408.102842) rotate(-8.000000) translate(-139.087318, -408.102842) "></path>
                <path d="M412.065903,159.312321 C419.48343,169.627507 434.150097,175.358166 456.065903,176.504298" id="Path-11-Copy-5" stroke="#3C474E" stroke-width="1.5" stroke-linecap="round" transform="translate(434.065903, 167.908309) scale(-1, 1) translate(-434.065903, -167.908309) "></path>
                <path d="M407.545086,167.335244 C416.671667,171.701098 421.234957,174.72488 421.234957,176.406591 C421.234957,178.929157 409.062201,182.234957 405.189112,182.234957" id="Path-12-Copy-5" stroke="#3C474E" stroke-width="1.5" stroke-linecap="round" transform="translate(413.212034, 174.785100) scale(-1, 1) translate(-413.212034, -174.785100) "></path>
                <path d="M405.388145,292.296008 C413.508597,291.381648 426.48692,293.023177 444.323112,297.220594" id="Path-11-Copy-4" stroke="#3C474E" stroke-width="1.5" stroke-linecap="round" transform="translate(424.855629, 294.635635) scale(-1, -1) rotate(-11.000000) translate(-424.855629, -294.635635) "></path>
                <path d="M492.959435,72.5846497 C496.111144,69.5746605 499.317906,68.0696659 502.579721,68.0696659 C505.746485,68.0318458 508.809221,69.1899241 511.165272,71.3059173 L511.414975,71.5362855 L507.645072,75.3407537 L507.447244,75.1573727 C506.108273,73.9621354 504.372602,73.3150615 502.579721,73.3430407 C499.134893,73.3430407 496.209216,75.6883949 495.166064,78.8465442 C494.645487,80.4041613 494.614865,82.0832215 495.074198,83.655126 L495.166064,83.9485465 C496.21892,87.1017994 498.874105,89.3920056 502.318933,89.3920056 C504.099569,89.3920056 505.893547,88.9868963 507.077403,88.1741013 L507.072317,88.1762611 C508.395414,87.2903091 509.319804,85.9248502 509.662688,84.3715855 L509.711968,84.1248153 L502.579721,84.1248153 L502.579721,78.9934349 L515.794885,78.6848656 C515.950145,79.5760023 516.022923,77.4612219 516.022923,81.3925501 C516.022923,85.3238784 513.912074,88.9744508 511.551859,91.2895995 L511.329347,91.5016383 C509.219755,93.4702694 506.347148,94.6381288 502.946127,94.7163324 L500.41197,94.7163324 C495.519248,94.7163324 493.204333,91.9931018 490.917242,87.6488755 L490.779974,87.3808917 L490.628241,87.0655929 C488.959176,83.4783659 488.957732,79.3270195 490.62391,75.7388166" id="Path" stroke="#3C474E" stroke-width="1.5" stroke-linecap="round" stroke-linejoin="round"></path>
                <path d="M461.748164,111.157431 C458.685071,108.830352 456.710602,105.168728 456.710602,101.04968 C456.710602,94.0172376 463.374988,88.6991404 470.477395,88.6991404 C477.579803,88.6991404 481.638968,94.0172376 481.638968,101.04968 C481.638968,107.309431 477.867883,112.512755 471.856891,113.581144 L471.578442,113.627507 L471.856891,104.730025 L474.574613,104.730025 L475.144714,101.04968 L471.578442,101.04968 L471.578442,98.6624295 C471.578442,97.6553081 472.07571,96.6730539 473.672999,96.6730539 L475.295401,96.6730539 L475.295401,93.5397874 L474.755575,93.4611061 C474.200798,93.388253 473.29628,93.2911155 472.417269,93.2911155 C469.547196,93.2911155 467.649902,94.9731492 467.563208,98.0243905 L467.560106,98.2446606 L467.560106,101.04968 L464.295209,101.04968 L464.295209,104.730025 L467.560106,104.730025 L467.560106,113.627507" id="Path" stroke="#3C474E" stroke-width="1.5" stroke-linecap="round" stroke-linejoin="round"></path>
                <path d="M512.747424,111.252347 C510.482033,108.954783 507.209767,107.610315 503.471718,107.610315 L501.806093,107.610315 C494.682168,107.610315 490.234957,112.48904 490.234957,119.541135 C490.234957,125.184328 493.929083,129.969834 499.051218,131.657052 C499.695917,131.777258 499.932307,131.381986 499.932307,131.043026 C499.932307,130.739803 499.921562,129.936263 499.916189,128.871734 C496.329513,129.641703 495.573066,127.158525 495.573066,127.158525 C494.98639,125.684646 494.13861,125.290456 494.13861,125.290456 C492.97063,124.498828 494.228868,124.515072 494.228868,124.515072 C495.523639,124.603873 496.203797,125.830843 496.203797,125.830843 C497.35351,127.783381 499.222063,127.21917 499.959169,126.893205 C500.075215,126.066923 500.407235,125.504878 500.775788,125.185411 C497.912249,124.865944 494.902579,123.767845 494.902579,118.875128 C494.902579,117.481386 495.402221,116.342135 496.229585,115.448711 C496.084527,115.125995 495.649355,113.827552 496.342407,112.068859 C496.342407,112.068859 497.422278,111.726651 499.888252,113.378132 C500.919771,113.094402 502.015759,112.95362 503.111748,112.947123 C504.207736,112.95362 505.303725,113.094402 506.335244,113.378132 C508.7851,111.726651 509.864971,112.068859 509.864971,112.068859 C510.558023,113.827552 510.122851,115.125995 509.993911,115.448711 C510.815903,116.342135 510.935787,117.481386 510.935787,118.875128 C510.935787,123.78084 508.301576,124.86053 505.432665,125.174582 C505.883954,125.557942 506.303009,126.340907 506.303009,127.537554 C506.303009,129.246431 506.286891,130.619597 506.286891,131.034362 C506.286891,131.36899 507.95359,131.170813 508.614407,131.043026 C513.773074,129.366637 516.022923,125.175665 516.022923,119.541135" id="Path" stroke="#3C474E" stroke-width="1.5" stroke-linecap="round" stroke-linejoin="round"></path>
                <text id="Social-login" font-family="BradleyHandITCTT-Bold, Bradley Hand" font-size="17" font-style="expanded" font-weight="bold" fill="#3C474E">
                    <tspan x="443.573533" y="152.755014">Social login</tspan>
                </text>
                <text id="Email-+-Password-Aut" font-family="BradleyHandITCTT-Bold, Bradley Hand" font-size="17" font-style="expanded" font-weight="bold" fill="#3C474E">
                    <tspan x="53.5361891" y="266.464183">Email + </tspan>
                    <tspan x="51.1901891" y="287.464183">Password</tspan>
                    <tspan x="28.8861891" y="308.464183">Authentication</tspan>
                </text>
                <text id="SSO-integration" font-family="BradleyHandITCTT-Bold, Bradley Hand" font-size="17" font-style="expanded" font-weight="bold" fill="#3C474E">
                    <tspan x="74.2217794" y="112.563037">SSO </tspan>
                    <tspan x="50.3877794" y="133.563037">integration</tspan>
                </text>
                <text id="User-Federation-(SQL" font-family="BradleyHandITCTT-Bold, Bradley Hand" font-size="17" font-style="expanded" font-weight="bold" fill="#3C474E">
                    <tspan x="65.8169814" y="433.169054">User </tspan>
                    <tspan x="43.6319814" y="454.169054">Federation</tspan>
                    <tspan x="27.4309814" y="475.169054">(SQL / LDAP)</tspan>
                </text>
                <text id="Access-audit-trail-f" font-family="BradleyHandITCTT-Bold, Bradley Hand" font-size="17" font-style="expanded" font-weight="bold" fill="#3C474E">
                    <tspan x="451.530234" y="281.217765">Access audit </tspan>
                    <tspan x="469.473734" y="302.217765">trail for </tspan>
                    <tspan x="456.919234" y="323.217765">compliance</tspan>
                </text>
                <text id="Everything-in" font-family="BradleyHandITCTT-Bold, Bradley Hand" font-size="17" font-style="expanded" font-weight="bold" fill="#3C474E">
                    <tspan x="413.995358" y="432.050143">Everything in</tspan>
                </text>
                <text id="10-minutes" font-family="BradleyHandITCTT-Bold, Bradley Hand" font-size="26" font-style="expanded" font-weight="bold" fill="#3C474E">
                    <tspan x="403.477292" y="456.84957">10 minutes</tspan>
                </text>
                <path d="M480.19801,382.835938 C440.539446,380.261974 413.504241,389.752444 399.092392,411.307349 C377.47462,443.639707 387.595755,467.740889 404.559124,480.008409 C415.243433,487.735057 439.798139,494.424069 466.681737,494.424069 C498.100377,494.424069 527.699965,488.048038 538.858451,469.320311 C560.104491,433.662246 540.284091,396.506161 512.53873,391.36613 C484.793369,386.2261 448.439151,388.557044 428.764367,401.367274" id="Path-13" stroke="#3C474E" stroke-width="1.5" stroke-linecap="round"></path>
                <g id="Group-8" transform="translate(369.106017, 0.000000)" stroke="#3C474E" stroke-linecap="round" stroke-width="1.5">
                    <path d="M24.2123452,28.2321173 L40.1949572,28.2321173 L32.2036512,48.4725389 C40.4733253,48.4725389 44.6081623,48.4725389 44.6081623,48.4725389 C44.6081623,48.4725389 38.4874901,59.2997527 26.2461455,80.9541803 L29.1214739,56.7017338 L18.2471308,56.7017338 L24.2123452,28.2321173 Z" id="Path-14" stroke-linejoin="round"></path>
                    <path d="M59.5078758,69.4928623 C63.88952,69.8241855 66.9458714,70.2062294 68.6769303,70.6389941 C74.5638661,72.1107281 77.8459847,74.0773895 77.8459847,74.0773895" id="Path-15" transform="translate(68.676930, 71.785126) rotate(15.000000) translate(-68.676930, -71.785126) "></path>
                    <line x1="61.8001394" y1="50.0086216" x2="80.1382483" y2="51.1547534" id="Path-16"></line>
                    <path d="M56.0694804,27.0859855 C59.6514616,24.5690981 62.7078131,22.757059 65.2385348,21.6498682 C67.7692566,20.5426774 70.8256081,19.680409 74.4075893,19.0630629" id="Path-17"></path>
                    <path d="M4.49354917,9.89400842 C6.4164107,13.9497162 7.63623328,16.8819415 8.15301693,18.6906843 C8.66980057,20.499427 8.97815372,22.9158168 9.07807639,25.9398537" id="Path-18" transform="translate(6.785813, 17.916931) rotate(-30.000000) translate(-6.785813, -17.916931) "></path>
                    <path d="M35.5312737,16.7707993 C35.408386,13.2930585 35.408386,10.618751 35.5312737,8.74787662 C35.6541615,6.87700227 36.0054835,4.20269472 36.5852397,0.724953982" id="Path-19"></path>
                </g>
                <path d="M370.252149,33.2378223 L157.866199,33.2378223 C150.459698,35.2697078 146.756447,39.472191 146.756447,45.8452722" id="Path-20" stroke="#3C474E" stroke-width="1.5" stroke-linecap="round"></path>
                <line x1="168.532951" y1="448.137536" x2="367" y2="448.137536" id="Path-21" stroke="#3C474E" stroke-width="1.5" stroke-linecap="round"></line>
                <g id="Group-6" transform="translate(60.813754, 26.899713)" stroke="#3C474E" stroke-linecap="round" stroke-linejoin="round" stroke-width="1.5">
                    <path d="M9.921296,23.30468 C3.71975608,23.30468 -5.0165633e-13,28.6067374 -5.0165633e-13,34.9266517 C-5.0165633e-13,41.2465661 5.01923195,46.6093601 11.2207719,46.6093601 C17.4223118,46.6093601 22.4415437,41.2465661 22.4415437,34.9266517 C22.4415437,28.6067374 16.1228359,23.30468 9.921296,23.30468 Z M12.1669523,40.3707972 C9.06618237,40.3707972 5.59923209,38.0866089 5.59923209,34.9266517 C5.59923209,31.7666945 8.12000191,29.1978085 11.2207719,29.1978085 C14.3215418,29.1978085 16.8423117,31.7666945 16.8423117,34.9266517 C16.8423117,38.0866089 15.2677223,40.3707972 12.1669523,40.3707972 Z" id="Shape"></path>
                    <path d="M51.8299096,19.9755909 L51.8930268,19.9620149 L48.4381281,15.7940366 C46.5379353,13.5016481 44.9832312,11.6171694 44.9832312,11.6063063 C44.9832312,11.5857391 48.5507058,1.62187245 48.570761,1.5863276 C48.5774664,1.57457266 50.9803627,6.97479312 54.430968,13.0405469 C57.6614878,18.7194142 60.3497733,22.2525787 60.3745289,22.296455 L60.4195408,22.3762314 L49.4473167,23.3608246 L37.7693929,24.1678163 L45.1132158,21.1812674 C48.7726839,20.5256102 51.7951955,19.9830574 51.8299096,19.9755909 Z M35.5536685,13.5409407 L39.1712934,7.18231893 L43.387217,3.59395548 C45.7059749,1.62035603 47.6093848,0.00317989605 47.617016,7.27483208e-05 C47.6246471,-0.00271819808 47.5941444,0.0751458702 47.549232,0.173262923 C47.5043197,0.271379976 45.4442648,4.7528647 42.9713323,10.1321175 L38.4750926,19.9125769 L35.2055678,19.9167343 C33.4073296,19.9190233 31.936043,19.916092 31.936043,19.9102284 C31.936043,19.9043624 33.5639745,17.0381829 35.5536685,13.5409407 Z" id="path21"></path>
                    <path d="M47.289412,50.398605 C47.289412,51.9038877 47.2893519,53.4092308 47.2895923,54.9145136 C47.2895923,55.0048341 47.2910951,55.0951547 47.2928382,55.185415 C47.298248,55.4736324 47.449482,55.5933961 47.7311524,55.5910771 C48.4108037,55.585251 49.0905753,55.5888711 49.7702267,55.5890521 C50.0377714,55.5891727 50.1685083,55.4729687 50.1680274,55.1871043 C50.1630985,52.6180659 50.8331195,50.1103876 50.8381703,47.5413492 C50.8386495,47.284747 50.4235504,47.1191807 50.1680274,47.1199738 C48.7986865,47.1243179 47.077468,47.1168364 45.7080069,47.1199738 C45.4010908,47.1207582 45.2980641,47.2282741 45.2962008,47.5413492 C45.2922937,48.2137157 45.2928948,48.8860821 45.2958401,49.5584486 C45.2974631,49.9095344 45.392375,50.0059488 45.7393236,50.0086638 C46.2381073,50.0125252 46.7369511,50.0096292 47.289412,50.0096292 L47.289412,50.398605 Z M49.4294676,63.8719185 C42.8332968,63.8354765 36.1771595,58.1328252 36.2523557,51.3538339 C36.3272514,44.5973474 41.9407414,38.7803732 48.5314423,38.8416126 C55.0650397,38.902309 60.4195408,44.31539 60.4195408,50.9708164 C60.4195408,57.6984631 56.2060252,63.9092654 49.4294676,63.8719185 Z" id="Fill-1"></path>
                </g>
                <g id="Group-15" transform="translate(59.060172, 386.232092)" stroke="#3C474E" stroke-linecap="round" stroke-linejoin="round" stroke-width="1.5">
                    <path d="M8.94078313,15.2717212 C11.1852641,15.2717212 12.7616961,13.4522098 12.7616961,11.2077289 C12.7616961,8.96324787 11.1852641,7.14373652 8.94078313,7.14373652 C6.69630214,7.14373652 4.8767908,8.96324787 4.8767908,11.2077289 C4.8767908,13.4522098 6.69630214,15.2717212 8.94078313,15.2717212 Z" id="Oval"></path>
                    <path d="M10.1599808,25.431702 L1.52399712,25.431702 C0.690878697,25.431702 -3.00314584e-13,24.7408233 -3.00314584e-13,23.9077049 L-3.00314584e-13,22.8917068 C-3.00314584e-13,19.8030726 2.49935528,17.3037174 5.58798946,17.3037174 L10.6679799,17.3037174 C11.7246179,17.3037174 12.720296,17.6085168 13.5534144,18.1165158" id="Path"></path>
                    <path d="M40.6399233,15.2717212 C42.8844043,15.2717212 44.7039157,13.4522098 44.7039157,11.2077289 C44.7039157,8.96324787 42.8844043,7.14373652 40.6399233,7.14373652 C38.3954423,7.14373652 36.5593143,9.58189054 36.5593143,11.8263715 C36.5593143,14.0708525 38.3954423,15.2717212 40.6399233,15.2717212 Z" id="Oval"></path>
                    <path d="M35.2144936,18.1165158 C36.047612,17.6085168 37.0432901,17.3037174 38.0999281,17.3037174 L43.1799185,17.3037174 C46.2685527,17.3037174 48.767908,19.8030726 48.767908,22.8917068 L48.767908,23.9077049 C48.767908,24.7408233 48.0770293,25.431702 47.2439109,25.431702 L38.6079272,25.431702" id="Path"></path>
                    <path d="M34.0668575,7.3151862 C35.8234078,7.3151862 37.4314203,5.67762599 37.4314203,3.6575931 C37.4314203,1.63756021 35.8234078,0 34.0668575,0 C32.3103071,0 30.8863417,1.63756021 30.8863417,3.6575931 C30.8863417,5.67762599 32.3103071,7.3151862 34.0668575,7.3151862 Z" id="Oval-Copy"></path>
                    <circle id="Oval-Copy-2" cx="14.5596943" cy="3.18051574" r="3.18051574"></circle>
                    <path d="M24.383954,16.2877193 C27.7506755,16.2877193 30.8863417,14.5744503 30.8863417,11.2077289 C30.8863417,7.84100737 27.7506755,4.09574227 24.383954,4.09574227 C21.0172325,4.09574227 18.2879655,6.82500929 18.2879655,10.1917308 C18.2879655,13.5584523 21.0172325,16.2877193 24.383954,16.2877193 Z" id="Oval"></path>
                    <path d="M36.0781198,27.9716972 L35.5599329,24.923703 C35.5599329,21.8411648 33.0544816,19.3357135 29.9719435,19.3357135 L20.1591362,19.3357135 C17.076598,19.3357135 13.5534144,21.8411648 13.5534144,24.923703 L13.2079751,27.9716972" id="Path"></path>
                </g>
                <g id="Group-5" transform="translate(452.048711, 231.157593)" stroke="#3C474E" stroke-linecap="round" stroke-linejoin="round" stroke-width="1.5">
                    <path d="M55.6533205,21.2237239 C60.5064954,22.7958516 66.1661552,22.4876555 72.6322996,20.2991357" id="Path-33"></path>
                    <polyline id="Path-34" points="68.8591931 17.9222557 75.4621295 19.4935499 72.1606613 24.5251921"></polyline>
                    <g id="Group-16" transform="translate(25.082024, 14.284180) rotate(28.000000) translate(-25.082024, -14.284180) translate(18.479088, 10.982712)">
                        <path d="M0.920150325,3.84593712 C3.84599085,4.40173458 6.997955,3.91204885 10.3760428,2.37687992" id="Path-33-Copy"></path>
                        <polyline id="Path-34-Copy" points="6.60293633 -1.71581017e-12 13.2058727 1.57129419 9.90440449 6.60293633"></polyline>
                    </g>
                    <path d="M6.60293633,12.8226526 C10.2496374,12.8226526 13.2058727,10.2496374 13.2058727,6.60293633 C13.2058727,2.95623529 10.2496374,7.09049338e-14 6.60293633,7.09049338e-14 C2.95623529,7.09049338e-14 2.35375141e-13,2.95623529 2.35375141e-13,6.60293633 C2.35375141e-13,10.2496374 2.95623529,12.8226526 6.60293633,12.8226526 Z" id="Oval" stroke-dasharray="2,4"></path>
                    <path d="M44.3340011,24.5251921 C47.9807021,24.5251921 50.7369772,20.4241028 50.7369772,16.7774018 C50.7369772,13.1307008 47.9807021,11.3193194 44.3340011,11.3193194 C40.6873,11.3193194 37.7310647,14.2755547 37.7310647,17.9222557 C37.7310647,21.5689568 40.6873,24.5251921 44.3340011,24.5251921 Z" id="Oval-Copy-44" stroke-dasharray="2,4"></path>
                    <path d="M85.8381723,23.5819155 C89.4848733,23.5819155 92.4411086,20.6256802 92.4411086,16.9789791 C92.4411086,13.3322781 89.4848733,10.3760428 85.8381723,10.3760428 C82.1914712,10.3760428 78.8133614,11.5807553 78.8133614,15.2274564 C78.8133614,18.8741574 82.1914712,23.5819155 85.8381723,23.5819155 Z" id="Oval-Copy-45"></path>
                </g>
                <g id="Group-7" transform="translate(54.091691, 218.404011)" stroke="#3C474E" stroke-linecap="round" stroke-linejoin="round" stroke-width="1.5">
                    <path d="M0.759036145,3.09280175 C1.72728505,13.330237 2.21140951,18.4489546 2.21140951,18.4489546 C7.28104228,18.6088291 10.7541112,18.6088291 12.6306164,18.4489546 C19.6132591,17.8540474 22.831623,16.6921536 22.831623,16.6921536 C22.675181,6.48642961 22.59696,1.3835676 22.59696,1.3835676 L4.42326632,2.55688233" id="Path-35" transform="translate(11.795330, 9.976214) rotate(3.000000) translate(-11.795330, -9.976214) "></path>
                    <polyline id="Path-36" transform="translate(11.151190, 8.059436) rotate(3.000000) translate(-11.151190, -8.059436) " points="2.73632294 4.83054007 12.7300501 12.1620904 19.566057 3.95678086"></polyline>
                    <line x1="32.9473884" y1="10.2219767" x2="42.5168985" y2="9.786999" id="Path-38"></line>
                    <line x1="37.6400263" y1="5.2197328" x2="37.8242607" y2="14.7892429" id="Path-38-Copy"></line>
                    <circle id="Oval" cx="57.3061415" cy="5.2197328" r="5.2197328"></circle>
                    <line x1="56.6625675" y1="10.4394656" x2="57.07976" y2="19.1390203" id="Path-39"></line>
                    <line x1="57.3061415" y1="16.4495984" x2="60.7859633" y2="15.7387538" id="Path-40"></line>
                </g>
                <rect id="Rectangle" x="0" y="233" width="10" height="10"></rect>
                <line x1="303.776504" y1="275.071633" x2="389.73639" y2="275.071633" id="Path-41" stroke="#F1F1F1"></line>
                <line x1="179.994269" y1="275.071633" x2="265.954155" y2="275.071633" id="Path-41-Copy" stroke="#F1F1F1"></line>
                <g id="linkedin" transform="translate(359.936963, 224.641834)" fill="#006699">
                    <g id="g3019" transform="translate(8.061216, 7.906207) scale(-1, 1) rotate(-180.000000) translate(-8.061216, -7.906207) translate(0.184165, 0.175027)">
                        <path d="M3.56493234,0.288540889 L3.56493234,10.3333099 L0.226237062,10.3333099 L0.226237062,0.288540889 L3.56493234,0.288540889 Z M1.89556984,11.7047535 C3.05984043,11.7047535 3.78450005,12.4760791 3.78450005,13.4400131 C3.76280187,14.4256453 3.05984043,15.1755699 1.91765442,15.1755699 C0.775587306,15.1755699 0.0288728357,14.4256453 0.0288728357,13.4400131 C0.0288728357,12.4760791 0.753383831,11.7047535 1.87381222,11.7047535 L1.89551039,11.7047535 L1.89556984,11.7047535 Z" id="path28"></path>
                        <path d="M8.75100434,0.288540889 L8.75100434,5.89796509 C8.75100434,6.19817273 8.77270252,6.49808312 8.8608625,6.712687 C9.10221755,7.31250779 9.65156779,7.93372953 10.5738889,7.93372953 C11.7820017,7.93372953 12.2652765,7.01259739 12.2652765,5.66225752 L12.2652765,0.288540889 L15.6036745,0.288540889 L15.6036745,6.04806891 C15.6036745,9.13337112 13.9565452,10.5690175 11.7599468,10.5690175 C9.9588199,10.5690175 9.16811461,9.56228163 8.72880086,8.87655983 L8.75109351,8.87655983 L8.75109351,10.3333099 L5.41233878,10.3333099 C5.45624043,9.39077687 5.41233878,0.288540889 5.41233878,0.288540889 L8.75100434,0.288540889 Z" id="path30"></path>
                    </g>
                </g>
                <g id="azure" transform="translate(359.936963, 145.558739)" fill-rule="nonzero">
                    <path d="M8.44535508,53.415666 C10.7907374,53.0039386 12.7278892,52.6632343 12.7501377,52.6585456 L12.79059,52.6500204 L10.5763179,50.0326745 C9.35846921,48.5931341 8.36204694,47.4097468 8.36204694,47.4029252 C8.36204694,47.3900097 10.6484699,41.1330471 10.6613234,41.1107714 C10.6656209,41.1033445 12.2216012,43.772912 14.4331216,47.5819949 C16.5035875,51.1481266 18.2105863,54.0884149 18.2264523,54.1159677 L18.2553009,54.1660645 L11.2181616,54.1651625 L4.18102365,54.1642642 L8.44535508,53.4156686 L8.44535508,53.415666 Z M0,52.6175017 C0,52.6138166 1.04335427,50.8139553 2.318565,48.6178085 L4.63712964,44.6248146 L7.33914869,42.3714469 C8.82525916,41.1320949 10.0451697,40.1165644 10.0500606,40.1146614 C10.0549515,40.1128606 10.035402,40.1617565 10.0066173,40.2233706 C9.97783263,40.2849847 8.65752707,43.0992016 7.07260492,46.4771858 L4.19092899,52.618975 L2.0954645,52.6215857 C0.942959281,52.6230231 0,52.6211823 0,52.6175002 L0,52.6175017 Z" id="path21" fill="#0089D6"></path>
                    <g id="google-g-copy-2" transform="translate(1.146132, 0.000000)">
                        <path d="M16.0308492,8.62155609 C16.0308492,8.05069429 15.9858608,7.47674675 15.8898857,6.91514216 L8.19087915,6.91514216 L8.19087915,10.1489971 L12.5997376,10.1489971 C12.4167849,11.1919771 11.8289372,12.1146132 10.96816,12.7009037 L10.96816,14.7992065 L13.598479,14.7992065 C15.143079,13.336566 16.0308492,11.1765484 16.0308492,8.62155609 Z" id="Path" fill="#4285F4"></path>
                        <path d="M8.19087915,16.8265374 C10.3923091,16.8265374 12.2488284,16.0828741 13.6014782,14.7992065 L10.9711593,12.7009037 C10.2393487,13.2131364 9.29459336,13.5031959 8.19387837,13.5031959 C6.06442975,13.5031959 4.25889725,12.0251267 3.61106499,10.0379105 L0.896767801,10.0379105 L0.896767801,12.2010139 C2.28240902,15.0368085 5.10467825,16.8265374 8.19087915,16.8265374 Z" id="Path" fill="#34A853"></path>
                        <path d="M3.60806577,10.0379105 C3.2661543,8.99493057 3.2661543,7.86554992 3.60806577,6.82256998 L3.60806577,4.65946661 L0.896767801,4.65946661 C-0.260932437,7.03240026 -0.260932437,9.82808023 0.896767801,12.2010139 L3.60806577,10.0379105 Z" id="Path" fill="#FBBC04"></path>
                        <path d="M8.19087915,3.35419881 C9.35457783,3.33568437 10.4792866,3.78620234 11.3220684,4.61318052 L11.3220684,4.61318052 L13.652465,2.21556094 C12.1768471,0.789949306 10.2183542,0.00617147895 8.19087915,0.0308573948 C5.10467825,0.0308573948 2.28240902,1.82058629 0.896767801,4.65946661 L3.60806577,6.82256998 C4.2528988,4.83226802 6.06143052,3.35419881 8.19087915,3.35419881 Z" id="Path" fill="#EA4335"></path>
                    </g>
                </g>
                <g id="Group-19" transform="translate(233.862464, 58.452722)">
                    <g id="Group-18" transform="translate(27.507163, 0.000000)">
                        <circle id="Oval" fill="#9ABF6A" cx="22.1619292" cy="20.6202297" r="15.9951315"></circle>
                        <path d="M22.1619292,4.62509826 C28.0837545,4.62509826 33.253953,7.84319548 36.0191143,12.6259797 C35.026546,12.4344095 34.0019587,12.3335954 32.9538251,12.3335954 C24.1199579,12.3335954 16.9586936,19.4948596 16.9586936,28.3287268 C16.9586936,31.2407687 17.7368792,33.9710555 19.0966399,36.3229769 C11.7294989,34.8924349 6.16679768,28.4059516 6.16679768,20.6202297 C6.16679768,11.7863625 13.328062,4.62509826 22.1619292,4.62509826 Z" id="Combined-Shape" fill="#FDA76E"></path>
                        <path d="M24.4745981,4.62509826 C30.3964235,4.62509826 35.5666219,7.84319548 38.3317833,12.6259797 C37.3392149,12.4344095 36.3146277,12.3335954 35.2664941,12.3335954 C26.4326269,12.3335954 19.2713626,19.4948596 19.2713626,28.3287268 C19.2713626,31.2407687 20.0495482,33.9710555 21.4093089,36.3229769 C14.0421679,34.8924349 8.47946666,28.4059516 8.47946666,20.6202297 C8.47946666,11.7863625 15.640731,4.62509826 24.4745981,4.62509826 Z" id="Combined-Shape-Copy" fill="#A7DE5F" opacity="0.800000012" transform="translate(23.406031, 20.473335) scale(-1, 1) translate(-23.406031, -20.473335) "></path>
                        <path d="M22.9327199,5.78125461 C28.8545453,5.78125461 34.0247437,8.99935183 36.7899051,13.782136 C35.7973367,13.5905658 34.7727495,13.4897517 33.7246159,13.4897517 C24.8907487,13.4897517 17.7294844,20.651016 17.7294844,29.4848832 C17.7294844,32.396925 18.50767,35.1272119 19.8674307,37.4791333 C12.5002897,36.0485913 6.93758845,29.5621079 6.93758845,21.7763861 C6.93758845,12.9425189 14.0988527,5.78125461 22.9327199,5.78125461 Z" id="Combined-Shape-Copy-2" fill="#003165" opacity="0.300000012" transform="translate(21.864153, 21.629492) scale(-1, 1) rotate(-127.000000) translate(-21.864153, -21.629492) "></path>
                        <path d="M22.3374637,16.409488 C20.382024,18.2407625 18.9224842,20.3442347 17.9588444,22.7199047 C20.6688047,23.7283006 23.5364477,23.8240982 26.5617733,23.0072976 C26.1416787,21.7973197 25.5783584,20.6405654 24.8718124,19.5370346 C24.1652665,18.4335038 23.3204835,17.3909883 22.3374637,16.409488 Z" id="Path-42" fill="#FFFFFF"></path>
                    </g>
                    <text id="Your-Company" font-family="InterUI-Bold, Inter UI" font-size="12" font-weight="bold" fill="#3C474E">
                        <tspan x="6.28446536" y="52.0644699">Your Company</tspan>
                    </text>
                </g>
                <path d="M140.224782,268.123424 C151.208539,265.421858 163.541873,266.620727 177.224782,271.720031" id="Path-11-Copy" stroke="#3C474E" stroke-width="1.5" stroke-linecap="round" transform="translate(158.724782, 269.220031) rotate(17.000000) translate(-158.724782, -269.220031) "></path>
                <path d="M168.941144,268.37315 C178.067724,272.739005 182.631015,275.762787 182.631015,277.444498 C182.631015,279.967064 170.458259,283.272864 166.585169,283.272864" id="Path-12-Copy" stroke="#3C474E" stroke-width="1.5" stroke-linecap="round" transform="translate(174.608092, 275.823007) rotate(29.000000) translate(-174.608092, -275.823007) "></path>
            </g>
        </g>
    </g>
</svg>