<svg width="421" height="160" viewBox="0 0 421 160" fill="none" xmlns="http://www.w3.org/2000/svg">
<rect x="8" y="8" width="103" height="109" rx="12" fill="url(#paint0_linear_4605_4002)" fill-opacity="0.8" stroke="url(#paint1_linear_4605_4002)" stroke-opacity="0.3"/>
<path d="M249 45C249 38.3726 254.373 33 261 33H340C346.627 33 352 38.3726 352 45V130C352 136.627 346.627 142 340 142H261C254.373 142 249 136.627 249 130V45Z" fill="url(#paint2_linear_4605_4002)" fill-opacity="0.8" stroke="url(#paint3_linear_4605_4002)" stroke-opacity="0.3"/>
<path d="M301.048 68C289.987 68 281 76.9873 281 88.0476C281 98.3961 288.861 106.932 298.943 107.985C300.641 108.163 302.05 106.738 302.05 105.088V97.069C302.05 96.5036 302.487 96.0666 303.052 96.0666H316.083C318.032 96.0666 319.986 94.8136 320.488 92.8189C320.88 91.2619 321.084 89.6633 321.095 88.0576C321.095 88.0563 321.095 88.0549 321.095 88.0536C321.095 88.0522 321.095 88.0509 321.095 88.0496C321.095 76.9893 312.108 68 301.048 68ZM295.033 76.019C296.683 76.019 298.04 77.3762 298.04 79.0262C298.04 80.6761 296.683 82.0333 295.033 82.0333C293.383 82.0333 292.026 80.6761 292.026 79.0262C292.026 77.3762 293.383 76.019 295.033 76.019ZM307.062 76.019C308.712 76.019 310.069 77.3762 310.069 79.0262C310.069 80.6761 308.712 82.0333 307.062 82.0333C305.412 82.0333 304.055 80.6761 304.055 79.0262C304.055 77.3762 305.412 76.019 307.062 76.019ZM290.021 84.0381C291.671 84.0381 293.029 85.3953 293.029 87.0452C293.029 88.6951 291.671 90.0523 290.021 90.0523C288.371 90.0523 287.014 88.6951 287.014 87.0452C287.014 85.3953 288.371 84.0381 290.021 84.0381ZM312.074 84.0381C313.724 84.0381 315.081 85.3953 315.081 87.0452C315.081 88.6951 313.724 90.0523 312.074 90.0523C310.424 90.0523 309.067 88.6951 309.067 87.0452C309.067 85.3953 310.424 84.0381 312.074 84.0381Z" stroke="url(#paint4_linear_4605_4002)"/>
<path d="M169 25C169 18.3726 174.373 13 181 13H255C261.627 13 267 18.3726 267 25V105C267 111.627 261.627 117 255 117H181C174.373 117 169 111.627 169 105V25Z" fill="url(#paint5_linear_4605_4002)" fill-opacity="0.8" stroke="url(#paint6_linear_4605_4002)" stroke-opacity="0.3"/>
<path d="M92 65C92 58.3726 97.3726 53 104 53H173C179.627 53 185 58.3726 185 65V139C185 145.627 179.627 151 173 151H104C97.3726 151 92 145.627 92 139V65Z" fill="url(#paint7_linear_4605_4002)" fill-opacity="0.8" stroke="url(#paint8_linear_4605_4002)" stroke-opacity="0.3"/>
<path d="M326 55C326 48.3726 331.373 43 338 43H388C394.627 43 400 48.3726 400 55V109C400 115.627 394.627 121 388 121H338C331.373 121 326 115.627 326 109V55Z" fill="url(#paint9_linear_4605_4002)" fill-opacity="0.8" stroke="url(#paint10_linear_4605_4002)" stroke-opacity="0.3"/>
<path d="M75.2284 46.5982C75.1933 46.3458 75.0851 46.1092 74.9173 45.9174C74.7495 45.7257 74.5294 45.5871 74.2839 45.5188L58.2072 41.0478C57.978 40.9841 57.7357 40.9841 57.5065 41.0478L41.4298 45.5188C41.1843 45.5871 40.9641 45.7256 40.7963 45.9174C40.6285 46.1092 40.5204 46.3458 40.4853 46.5982C40.3921 47.2687 38.2648 63.1111 43.7211 70.9923C49.1708 78.864 57.2104 80.8813 57.5499 80.9634C57.7516 81.0122 57.9621 81.0122 58.1638 80.9634C58.5035 80.8813 66.5431 78.864 71.9927 70.9923C77.4489 63.1113 75.3216 47.2689 75.2284 46.5982ZM68.2243 55.8472L57.2583 66.8131C57.0032 67.0683 56.6685 67.196 56.3341 67.196C55.9996 67.196 55.665 67.0685 55.4098 66.8131L48.6297 60.033C48.5082 59.9116 48.4119 59.7675 48.3462 59.6089C48.2804 59.4504 48.2466 59.2804 48.2466 59.1087C48.2466 58.937 48.2804 58.767 48.3462 58.6085C48.4119 58.4499 48.5082 58.3058 48.6297 58.1844L49.9759 56.8382C50.221 56.5931 50.5535 56.4554 50.9002 56.4554C51.2468 56.4554 51.5793 56.5931 51.8244 56.8382L56.3341 61.3478L65.0295 52.6522C65.1508 52.5308 65.2949 52.4345 65.4535 52.3687C65.6121 52.303 65.7821 52.2692 65.9538 52.2692C66.1254 52.2692 66.2954 52.303 66.454 52.3687C66.6126 52.4345 66.7567 52.5308 66.878 52.6522L68.2243 53.9985C68.3457 54.1198 68.442 54.2639 68.5077 54.4226C68.5734 54.5812 68.6072 54.7511 68.6072 54.9228C68.6072 55.0945 68.5734 55.2645 68.5077 55.4231C68.442 55.5817 68.3457 55.7258 68.2243 55.8472Z" stroke="url(#paint11_linear_4605_4002)"/>
<path d="M218.346 61.8749C218.343 61.8551 218.335 61.8367 218.322 61.8217C218.309 61.8067 218.291 61.7959 218.272 61.7905L217.016 61.4412C216.998 61.4363 216.979 61.4363 216.961 61.4412L215.705 61.7905C215.686 61.7959 215.669 61.8067 215.656 61.8217C215.643 61.8367 215.634 61.8551 215.632 61.8749C215.624 61.9272 215.458 63.1649 215.884 63.7806C216.31 64.3956 216.938 64.5532 216.965 64.5596C216.981 64.5635 216.997 64.5635 217.013 64.5596C217.039 64.5532 217.667 64.3956 218.093 63.7806C218.519 63.1649 218.353 61.9273 218.346 61.8749ZM217.799 62.5974L216.942 63.4541C216.922 63.4741 216.896 63.4841 216.87 63.4841C216.844 63.4841 216.818 63.4741 216.798 63.4541L216.268 62.9245C216.258 62.915 216.251 62.9037 216.246 62.8913C216.241 62.8789 216.238 62.8657 216.238 62.8522C216.238 62.8388 216.241 62.8255 216.246 62.8132C216.251 62.8008 216.258 62.7895 216.268 62.78L216.373 62.6749C216.392 62.6557 216.418 62.645 216.445 62.645C216.472 62.645 216.498 62.6557 216.518 62.6749L216.87 63.0272L217.549 62.3478C217.559 62.3383 217.57 62.3308 217.582 62.3257C217.595 62.3205 217.608 62.3179 217.621 62.3179C217.635 62.3179 217.648 62.3205 217.66 62.3257C217.673 62.3308 217.684 62.3383 217.694 62.3478L217.799 62.453C217.808 62.4625 217.816 62.4737 217.821 62.4861C217.826 62.4985 217.829 62.5118 217.829 62.5252C217.829 62.5386 217.826 62.5519 217.821 62.5643C217.816 62.5767 217.808 62.588 217.799 62.5974Z" fill="black"/>
<path d="M226.453 54.0156H230.655L229.531 55.1401C229.073 55.5978 229.073 56.3397 229.531 56.7974C229.988 57.255 230.73 57.255 231.188 56.7974L234.313 53.6724C234.771 53.2148 234.771 52.4728 234.313 52.0151L231.188 48.8901C230.73 48.4325 229.988 48.4325 229.531 48.8901C229.073 49.3478 229.073 50.0897 229.531 50.5474L230.655 51.6718H226.453C225.806 51.6718 225.281 52.1965 225.281 52.8437C225.281 53.4909 225.806 54.0156 226.453 54.0156ZM236.657 62.1714L233.532 59.0464C233.074 58.5887 232.332 58.5887 231.875 59.0464C231.417 59.504 231.417 60.246 231.875 60.7036L232.999 61.8281H228.797C228.15 61.8281 227.625 62.3528 227.625 62.9999C227.625 63.6471 228.15 64.1718 228.797 64.1718H232.999L231.874 65.2964C231.417 65.754 231.417 66.496 231.874 66.9536C232.332 67.4113 233.074 67.4113 233.532 66.9536L236.657 63.8286C237.114 63.371 237.114 62.6289 236.657 62.1714ZM231.188 69.2026C230.73 68.7449 229.988 68.7449 229.531 69.2026C229.073 69.6603 229.073 70.4022 229.531 70.8599L230.655 71.9843H226.453C225.806 71.9843 225.281 72.509 225.281 73.1562C225.281 73.8034 225.806 74.3281 226.453 74.3281H230.655L229.531 75.4526C229.073 75.9103 229.073 76.6522 229.531 77.1099C229.988 77.5675 230.73 77.5675 231.188 77.1099L234.313 73.9849C234.771 73.5273 234.771 72.7853 234.313 72.3276L231.188 69.2026Z" stroke="url(#paint12_linear_4605_4002)"/>
<path d="M198.172 57.9219C198.819 57.9219 199.344 57.3972 199.344 56.75C199.344 56.1028 198.819 55.5781 198.172 55.5781C197.525 55.5781 197 56.1028 197 56.75C197 57.3972 197.525 57.9219 198.172 57.9219Z" stroke="url(#paint13_linear_4605_4002)"/>
<path d="M204.031 53.625C204.678 53.625 205.203 53.1003 205.203 52.4531C205.203 51.8059 204.678 51.2812 204.031 51.2812C203.384 51.2812 202.859 51.8059 202.859 52.4531C202.859 53.1003 203.384 53.625 204.031 53.625Z" stroke="url(#paint14_linear_4605_4002)"/>
<path d="M207.156 60.6562C207.803 60.6562 208.328 60.1316 208.328 59.4844C208.328 58.8372 207.803 58.3125 207.156 58.3125C206.509 58.3125 205.984 58.8372 205.984 59.4844C205.984 60.1316 206.509 60.6562 207.156 60.6562Z" stroke="url(#paint15_linear_4605_4002)"/>
<path d="M198.172 70.4219C198.819 70.4219 199.344 69.8972 199.344 69.25C199.344 68.6028 198.819 68.0781 198.172 68.0781C197.525 68.0781 197 68.6028 197 69.25C197 69.8972 197.525 70.4219 198.172 70.4219Z" stroke="url(#paint16_linear_4605_4002)"/>
<path d="M204.031 74.7187C204.678 74.7187 205.203 74.1941 205.203 73.5469C205.203 72.8997 204.678 72.375 204.031 72.375C203.384 72.375 202.859 72.8997 202.859 73.5469C202.859 74.1941 203.384 74.7187 204.031 74.7187Z" stroke="url(#paint17_linear_4605_4002)"/>
<path d="M207.156 67.6875C207.803 67.6875 208.328 67.1628 208.328 66.5156C208.328 65.8684 207.803 65.3438 207.156 65.3438C206.509 65.3438 205.984 65.8684 205.984 66.5156C205.984 67.1628 206.509 67.6875 207.156 67.6875Z" stroke="url(#paint18_linear_4605_4002)"/>
<path d="M200.906 64.1719C201.553 64.1719 202.078 63.6472 202.078 63C202.078 62.3528 201.553 61.8281 200.906 61.8281C200.259 61.8281 199.734 62.3528 199.734 63C199.734 63.6472 200.259 64.1719 200.906 64.1719Z" stroke="url(#paint19_linear_4605_4002)"/>
<path d="M221.239 43.061L211.864 46.186C211.63 46.2638 211.427 46.413 211.284 46.6126C211.14 46.8121 211.062 47.0519 211.063 47.2978V78.7022C211.062 78.9482 211.14 79.1879 211.284 79.3875C211.428 79.587 211.63 79.7362 211.864 79.814L221.239 82.939C221.998 83.1919 222.781 82.6271 222.781 81.8272V44.1728C222.781 43.3729 221.998 42.8081 221.239 43.061ZM216.922 74.7187C216.275 74.7187 215.75 74.194 215.75 73.5469C215.75 72.8997 216.275 72.375 216.922 72.375C217.569 72.375 218.094 72.8997 218.094 73.5469C218.094 74.194 217.569 74.7187 216.922 74.7187ZM216.922 64.1719C216.275 64.1719 215.75 63.6472 215.75 63C215.75 62.3528 216.275 61.8281 216.922 61.8281C217.569 61.8281 218.094 62.3528 218.094 63C218.094 63.6472 217.569 64.1719 216.922 64.1719ZM216.922 53.625C216.275 53.625 215.75 53.1003 215.75 52.4531C215.75 51.8059 216.275 51.2812 216.922 51.2812C217.569 51.2812 218.094 51.8059 218.094 52.4531C218.094 53.1003 217.569 53.625 216.922 53.625Z" stroke="url(#paint20_linear_4605_4002)"/>
<g opacity="0.7" filter="url(#filter0_f_4605_4002)">
<circle cx="58" cy="58" r="18" fill="#3FA1E3"/>
</g>
<g opacity="0.7" filter="url(#filter1_f_4605_4002)">
<circle cx="217" cy="63" r="18" fill="#3FA1E3"/>
</g>
<g opacity="0.7" filter="url(#filter2_f_4605_4002)">
<circle cx="363" cy="82" r="18" fill="#3FA1E3"/>
</g>
<g opacity="0.7" filter="url(#filter3_f_4605_4002)">
<circle cx="301" cy="88" r="18" fill="#3FA1E3"/>
</g>
<g opacity="0.7" filter="url(#filter4_f_4605_4002)">
<circle cx="139" cy="102" r="18" fill="#3FA1E3"/>
</g>
<path d="M139 82C127.955 82 119 90.9547 119 102C119 113.045 127.955 122 139 122C150.045 122 159 113.045 159 102C159 90.9547 150.045 82 139 82ZM127.607 101.285C127.716 100.251 127.819 99.1875 128.141 98.1781C130.254 91.0562 139.459 88.2227 145.238 92.8594C145.629 90.7891 148.609 91.0109 148.676 93.15C148.7 93.875 148.676 94.5805 148.682 95.3008C148.706 96.9016 148.862 98.5469 146.773 98.6031C145.653 98.6078 144.609 98.6078 143.4 98.6031C141.344 98.6945 140.75 96 142.559 95.2906C140.315 93.8656 137.963 93.6852 135.57 94.7141C132.992 95.818 131.483 97.8438 131.074 100.736C131.041 100.97 131.032 101.225 131.016 101.471C130.952 102.462 130.25 103.154 129.309 103.154C128.316 103.172 127.477 102.281 127.607 101.285ZM139.418 113.406C137.02 113.413 134.688 112.615 132.797 111.141C132.474 113.151 129.43 112.998 129.377 110.943C129.355 109.713 129.354 108.449 129.377 107.08C129.39 106.117 130.116 105.408 131.102 105.395C131.691 105.387 132.312 105.383 132.95 105.383C133.545 105.383 134.156 105.383 134.818 105.393C136.754 105.357 137.266 108.041 135.513 108.716C140.258 111.836 146.877 108.299 146.958 102.591C146.912 101.539 147.63 100.621 148.691 100.637C148.924 100.636 149.156 100.681 149.372 100.77C149.589 100.859 149.785 100.99 149.95 101.155C150.101 101.312 150.22 101.497 150.298 101.7C150.376 101.903 150.412 102.12 150.405 102.338C150.583 108.352 145.421 113.491 139.418 113.406Z" stroke="url(#paint21_linear_4605_4002)"/>
<path fill-rule="evenodd" clip-rule="evenodd" d="M368.891 77.8343H356.946V73.9319C356.946 72.2895 357.616 70.7952 358.7 69.7147C359.783 68.631 361.275 67.958 362.917 67.958C364.56 67.958 366.054 68.6311 367.134 69.7147C368.218 70.7952 368.891 72.2895 368.891 73.9319V77.8343ZM373.982 78.6555C373.667 78.3437 373.281 78.1029 372.849 77.9671V73.9319C372.849 71.1996 371.731 68.7143 369.931 66.9144C368.131 65.1146 365.649 64 362.917 64C360.185 64 357.703 65.1146 355.903 66.9144C354.103 68.7143 352.985 71.1996 352.985 73.9319V77.9547C352.546 78.0895 352.146 78.3302 351.821 78.6555C351.315 79.165 351 79.8627 351 80.6345V93.1998C351 93.9717 351.315 94.6694 351.821 95.1788C352.331 95.6851 353.028 96 353.8 96H372.003C372.775 96 373.473 95.6851 373.982 95.1788C374.488 94.6694 374.803 93.9717 374.803 93.1998V80.6345C374.803 79.8626 374.488 79.165 373.982 78.6555ZM360.963 83.8762C361.46 83.3822 362.145 83.0735 362.902 83.0735C363.658 83.0735 364.343 83.3822 364.84 83.8762C365.338 84.3733 365.643 85.0587 365.643 85.815C365.644 86.381 365.469 86.9333 365.143 87.3957C364.879 87.7683 364.527 88.0695 364.118 88.2726V89.5446C364.118 89.7042 364.087 89.8623 364.025 90.0097C363.964 90.157 363.873 90.2907 363.76 90.4028C363.541 90.622 363.238 90.7609 362.902 90.7609C362.568 90.7609 362.262 90.622 362.043 90.4028C361.824 90.1836 361.685 89.878 361.685 89.5446V88.2726C361.278 88.0686 360.927 87.7675 360.663 87.3957C360.345 86.9481 360.16 86.4047 360.16 85.815C360.16 85.0586 360.469 84.3732 360.963 83.8762Z" stroke="url(#paint22_linear_4605_4002)"/>
<defs>
<filter id="filter0_f_4605_4002" x="0" y="0" width="116" height="116" filterUnits="userSpaceOnUse" color-interpolation-filters="sRGB">
<feFlood flood-opacity="0" result="BackgroundImageFix"/>
<feBlend mode="normal" in="SourceGraphic" in2="BackgroundImageFix" result="shape"/>
<feGaussianBlur stdDeviation="20" result="effect1_foregroundBlur_4605_4002"/>
</filter>
<filter id="filter1_f_4605_4002" x="159" y="5" width="116" height="116" filterUnits="userSpaceOnUse" color-interpolation-filters="sRGB">
<feFlood flood-opacity="0" result="BackgroundImageFix"/>
<feBlend mode="normal" in="SourceGraphic" in2="BackgroundImageFix" result="shape"/>
<feGaussianBlur stdDeviation="20" result="effect1_foregroundBlur_4605_4002"/>
</filter>
<filter id="filter2_f_4605_4002" x="305" y="24" width="116" height="116" filterUnits="userSpaceOnUse" color-interpolation-filters="sRGB">
<feFlood flood-opacity="0" result="BackgroundImageFix"/>
<feBlend mode="normal" in="SourceGraphic" in2="BackgroundImageFix" result="shape"/>
<feGaussianBlur stdDeviation="20" result="effect1_foregroundBlur_4605_4002"/>
</filter>
<filter id="filter3_f_4605_4002" x="243" y="30" width="116" height="116" filterUnits="userSpaceOnUse" color-interpolation-filters="sRGB">
<feFlood flood-opacity="0" result="BackgroundImageFix"/>
<feBlend mode="normal" in="SourceGraphic" in2="BackgroundImageFix" result="shape"/>
<feGaussianBlur stdDeviation="20" result="effect1_foregroundBlur_4605_4002"/>
</filter>
<filter id="filter4_f_4605_4002" x="81" y="44" width="116" height="116" filterUnits="userSpaceOnUse" color-interpolation-filters="sRGB">
<feFlood flood-opacity="0" result="BackgroundImageFix"/>
<feBlend mode="normal" in="SourceGraphic" in2="BackgroundImageFix" result="shape"/>
<feGaussianBlur stdDeviation="20" result="effect1_foregroundBlur_4605_4002"/>
</filter>
<linearGradient id="paint0_linear_4605_4002" x1="59.5" y1="8" x2="59.5" y2="117" gradientUnits="userSpaceOnUse">
<stop stop-color="#0A0F2B" stop-opacity="0.64"/>
<stop offset="1" stop-color="#0A0F2B"/>
</linearGradient>
<linearGradient id="paint1_linear_4605_4002" x1="59.5" y1="8" x2="59.5" y2="117" gradientUnits="userSpaceOnUse">
<stop stop-color="#3FA1E3"/>
<stop offset="1" stop-color="#3FA1E3" stop-opacity="0.35"/>
</linearGradient>
<linearGradient id="paint2_linear_4605_4002" x1="300.5" y1="33" x2="300.5" y2="142" gradientUnits="userSpaceOnUse">
<stop stop-color="#0A0F2B" stop-opacity="0.64"/>
<stop offset="1" stop-color="#0A0F2B"/>
</linearGradient>
<linearGradient id="paint3_linear_4605_4002" x1="300.5" y1="33" x2="300.5" y2="142" gradientUnits="userSpaceOnUse">
<stop stop-color="#3FA1E3"/>
<stop offset="1" stop-color="#3FA1E3" stop-opacity="0.35"/>
</linearGradient>
<linearGradient id="paint4_linear_4605_4002" x1="301.048" y1="68" x2="301.048" y2="108" gradientUnits="userSpaceOnUse">
<stop stop-color="#3FA1E3"/>
<stop offset="1" stop-color="#3FA1E3" stop-opacity="0.35"/>
</linearGradient>
<linearGradient id="paint5_linear_4605_4002" x1="218" y1="13" x2="218" y2="117" gradientUnits="userSpaceOnUse">
<stop stop-color="#0A0F2B" stop-opacity="0.64"/>
<stop offset="1" stop-color="#0A0F2B"/>
</linearGradient>
<linearGradient id="paint6_linear_4605_4002" x1="218" y1="13" x2="218" y2="117" gradientUnits="userSpaceOnUse">
<stop stop-color="#3FA1E3"/>
<stop offset="1" stop-color="#3FA1E3" stop-opacity="0.35"/>
</linearGradient>
<linearGradient id="paint7_linear_4605_4002" x1="138.5" y1="53" x2="138.5" y2="151" gradientUnits="userSpaceOnUse">
<stop stop-color="#0A0F2B" stop-opacity="0.64"/>
<stop offset="1" stop-color="#0A0F2B"/>
</linearGradient>
<linearGradient id="paint8_linear_4605_4002" x1="138.5" y1="53" x2="138.5" y2="151" gradientUnits="userSpaceOnUse">
<stop stop-color="#3FA1E3"/>
<stop offset="1" stop-color="#3FA1E3" stop-opacity="0.35"/>
</linearGradient>
<linearGradient id="paint9_linear_4605_4002" x1="363" y1="43" x2="363" y2="121" gradientUnits="userSpaceOnUse">
<stop stop-color="#0A0F2B" stop-opacity="0.64"/>
<stop offset="1" stop-color="#0A0F2B"/>
</linearGradient>
<linearGradient id="paint10_linear_4605_4002" x1="363" y1="43" x2="363" y2="121" gradientUnits="userSpaceOnUse">
<stop stop-color="#3FA1E3"/>
<stop offset="1" stop-color="#3FA1E3" stop-opacity="0.35"/>
</linearGradient>
<linearGradient id="paint11_linear_4605_4002" x1="57.8569" y1="41" x2="57.8569" y2="81" gradientUnits="userSpaceOnUse">
<stop stop-color="#3FA1E3"/>
<stop offset="1" stop-color="#3FA1E3" stop-opacity="0.35"/>
</linearGradient>
<linearGradient id="paint12_linear_4605_4002" x1="231.141" y1="48.5469" x2="231.141" y2="77.4531" gradientUnits="userSpaceOnUse">
<stop stop-color="#3FA1E3"/>
<stop offset="1" stop-color="#3FA1E3" stop-opacity="0.35"/>
</linearGradient>
<linearGradient id="paint13_linear_4605_4002" x1="198.172" y1="55.5781" x2="198.172" y2="57.9219" gradientUnits="userSpaceOnUse">
<stop stop-color="#3FA1E3"/>
<stop offset="1" stop-color="#3FA1E3" stop-opacity="0.35"/>
</linearGradient>
<linearGradient id="paint14_linear_4605_4002" x1="204.031" y1="51.2812" x2="204.031" y2="53.625" gradientUnits="userSpaceOnUse">
<stop stop-color="#3FA1E3"/>
<stop offset="1" stop-color="#3FA1E3" stop-opacity="0.35"/>
</linearGradient>
<linearGradient id="paint15_linear_4605_4002" x1="207.156" y1="58.3125" x2="207.156" y2="60.6562" gradientUnits="userSpaceOnUse">
<stop stop-color="#3FA1E3"/>
<stop offset="1" stop-color="#3FA1E3" stop-opacity="0.35"/>
</linearGradient>
<linearGradient id="paint16_linear_4605_4002" x1="198.172" y1="68.0781" x2="198.172" y2="70.4219" gradientUnits="userSpaceOnUse">
<stop stop-color="#3FA1E3"/>
<stop offset="1" stop-color="#3FA1E3" stop-opacity="0.35"/>
</linearGradient>
<linearGradient id="paint17_linear_4605_4002" x1="204.031" y1="72.375" x2="204.031" y2="74.7187" gradientUnits="userSpaceOnUse">
<stop stop-color="#3FA1E3"/>
<stop offset="1" stop-color="#3FA1E3" stop-opacity="0.35"/>
</linearGradient>
<linearGradient id="paint18_linear_4605_4002" x1="207.156" y1="65.3438" x2="207.156" y2="67.6875" gradientUnits="userSpaceOnUse">
<stop stop-color="#3FA1E3"/>
<stop offset="1" stop-color="#3FA1E3" stop-opacity="0.35"/>
</linearGradient>
<linearGradient id="paint19_linear_4605_4002" x1="200.906" y1="61.8281" x2="200.906" y2="64.1719" gradientUnits="userSpaceOnUse">
<stop stop-color="#3FA1E3"/>
<stop offset="1" stop-color="#3FA1E3" stop-opacity="0.35"/>
</linearGradient>
<linearGradient id="paint20_linear_4605_4002" x1="216.922" y1="43" x2="216.922" y2="83" gradientUnits="userSpaceOnUse">
<stop stop-color="#3FA1E3"/>
<stop offset="1" stop-color="#3FA1E3" stop-opacity="0.35"/>
</linearGradient>
<linearGradient id="paint21_linear_4605_4002" x1="139" y1="82" x2="139" y2="122" gradientUnits="userSpaceOnUse">
<stop stop-color="#3FA1E3"/>
<stop offset="1" stop-color="#3FA1E3" stop-opacity="0.35"/>
</linearGradient>
<linearGradient id="paint22_linear_4605_4002" x1="362.902" y1="64" x2="362.902" y2="96" gradientUnits="userSpaceOnUse">
<stop stop-color="#3FA1E3"/>
<stop offset="1" stop-color="#3FA1E3" stop-opacity="0.35"/>
</linearGradient>
</defs>
</svg>
