<svg width="560" height="148" viewBox="0 0 560 148" fill="none" xmlns="http://www.w3.org/2000/svg">
<rect opacity="0.8" x="112" y="4.13184" width="140" height="140" rx="26" transform="rotate(-0.107889 112 4.13184)" fill="url(#paint0_linear_4616_15415)"/>
<rect opacity="0.8" x="308.868" y="4.13184" width="140" height="140" rx="26" transform="rotate(-0.107889 308.868 4.13184)" fill="url(#paint1_linear_4616_15415)"/>
<rect opacity="0.5" x="124.5" y="16.5" width="55" height="55" rx="19.5" stroke="#3FA1E3"/>
<g filter="url(#filter0_f_4616_15415)">
<circle cx="150.5" cy="45" r="11.5" fill="#3FA1E3"/>
</g>
<path d="M138.096 39.6457L142.373 32.4306C143.634 30.304 145.923 29 148.395 29H155.605C158.077 29 160.366 30.304 161.627 32.4306L165.904 39.6457C167.198 41.8289 167.209 44.5416 165.933 46.7353L161.618 54.1518C160.364 56.3062 158.06 57.6316 155.567 57.6316H148.433C145.94 57.6316 143.636 56.3062 142.382 54.1518L138.067 46.7353C136.791 44.5416 136.802 41.8289 138.096 39.6457Z" fill="url(#paint2_linear_4616_15415)"/>
<path d="M150.316 34.0527H146.611L141.053 42.9131L146.611 52.5791H150.316L144.758 42.9131L150.316 34.0527Z" fill="#131313"/>
<path d="M153.684 34.0527H157.389L162.947 42.9131L157.389 52.5791H153.684L159.242 42.9131L153.684 34.0527Z" fill="#131313"/>
<g filter="url(#filter1_f_4616_15415)">
<circle cx="212.5" cy="44.5" r="11.5" fill="#3FA1E3"/>
</g>
<rect opacity="0.5" x="184.5" y="16.5" width="55" height="55" rx="19.5" stroke="#3FA1E3"/>
<path d="M198.096 39.6457L202.373 32.4306C203.634 30.304 205.923 29 208.395 29H215.605C218.077 29 220.366 30.304 221.627 32.4306L225.904 39.6457C227.198 41.8289 227.209 44.5416 225.933 46.7353L221.618 54.1518C220.364 56.3062 218.06 57.6316 215.567 57.6316H208.433C205.94 57.6316 203.636 56.3062 202.382 54.1518L198.067 46.7353C196.791 44.5416 196.802 41.8289 198.096 39.6457Z" fill="url(#paint3_linear_4616_15415)"/>
<path d="M210.316 34.0527H206.611L201.053 42.9131L206.611 52.5791H210.316L204.758 42.9131L210.316 34.0527Z" fill="#131313"/>
<path d="M213.684 34.0527H217.389L222.947 42.9131L217.389 52.5791H213.684L219.242 42.9131L213.684 34.0527Z" fill="#131313"/>
<g filter="url(#filter2_f_4616_15415)">
<circle cx="152.5" cy="104.5" r="11.5" fill="#3FA1E3"/>
</g>
<rect opacity="0.5" x="124.5" y="76.5" width="55" height="55" rx="19.5" stroke="#3FA1E3"/>
<path d="M138.096 99.6457L142.373 92.4306C143.634 90.304 145.922 89 148.395 89H155.605C158.077 89 160.366 90.304 161.627 92.4306L165.904 99.6457C167.198 101.829 167.209 104.542 165.932 106.735L161.618 114.152C160.364 116.306 158.06 117.632 155.567 117.632H148.432C145.94 117.632 143.635 116.306 142.382 114.152L138.067 106.735C136.791 104.542 136.802 101.829 138.096 99.6457Z" fill="url(#paint4_linear_4616_15415)"/>
<path d="M150.316 94.0527H146.61L141.052 102.913L146.61 112.579H150.316L144.758 102.913L150.316 94.0527Z" fill="#131313"/>
<path d="M153.684 94.0527H157.389L162.947 102.913L157.389 112.579H153.684L159.242 102.913L153.684 94.0527Z" fill="#131313"/>
<path d="M239.577 11.4888C239.656 12.4347 239.838 13.7302 240.249 15.0906C241.121 17.9795 242.663 20.0337 244.832 21.201C247.002 20.0337 248.543 17.9795 249.416 15.0906C249.827 13.7304 250.008 12.4347 250.087 11.4888L244.832 8.86133L239.577 11.4888Z" fill="#3FA1E3"/>
<path d="M253.655 9.67412C253.649 9.57062 253.617 9.4704 253.56 9.38369C253.503 9.29697 253.424 9.22687 253.332 9.18053L245.094 5.06185C245.013 5.02117 244.923 5 244.832 5C244.741 5 244.652 5.02117 244.57 5.06185L236.333 9.18053C236.24 9.22687 236.161 9.29697 236.105 9.38369C236.048 9.4704 236.015 9.57062 236.01 9.67412C236.004 9.79404 235.868 12.6494 236.841 15.9646C237.416 17.9261 238.263 19.6392 239.357 21.0565C240.736 22.8425 242.508 24.1564 244.624 24.9617C244.758 25.0128 244.906 25.0128 245.041 24.9617C247.157 24.1565 248.929 22.8425 250.307 21.0565C251.402 19.6392 252.248 17.926 252.824 15.9646C253.796 12.6494 253.661 9.79404 253.655 9.67412ZM245.092 22.3856C245.011 22.4256 244.922 22.4464 244.832 22.4464C244.742 22.4464 244.653 22.4256 244.573 22.3856C241.963 21.0956 240.131 18.7552 239.127 15.4295C238.625 13.7661 238.443 12.1987 238.379 11.1767C238.372 11.0619 238.399 10.9476 238.457 10.8479C238.514 10.7482 238.599 10.6677 238.702 10.6162L244.57 7.68228C244.652 7.64162 244.741 7.62045 244.832 7.62045C244.923 7.62045 245.013 7.64162 245.094 7.68228L250.962 10.6162C251.065 10.6677 251.151 10.7482 251.208 10.8479C251.265 10.9476 251.292 11.062 251.285 11.1768C251.221 12.1988 251.04 13.7663 250.538 15.4295C249.533 18.7552 247.701 21.0956 245.092 22.3856Z" fill="#3FA1E3"/>
<g filter="url(#filter3_f_4616_15415)">
<circle cx="349.5" cy="44.5" r="11.5" fill="#3FA1E3"/>
</g>
<rect opacity="0.5" x="321.5" y="16.5" width="55" height="55" rx="19.5" stroke="#3FA1E3"/>
<path d="M335.096 39.6457L339.373 32.4306C340.634 30.304 342.923 29 345.395 29H352.605C355.077 29 357.366 30.304 358.627 32.4306L362.904 39.6457C364.198 41.8289 364.209 44.5416 362.933 46.7353L358.618 54.1518C357.364 56.3062 355.06 57.6316 352.567 57.6316H345.433C342.94 57.6316 340.636 56.3062 339.382 54.1518L335.067 46.7353C333.791 44.5416 333.802 41.8289 335.096 39.6457Z" fill="url(#paint5_linear_4616_15415)"/>
<path d="M347.316 34.0527H343.611L338.053 42.9131L343.611 52.5791H347.316L341.758 42.9131L347.316 34.0527Z" fill="#131313"/>
<path d="M350.684 34.0527H354.389L359.947 42.9131L354.389 52.5791H350.684L356.242 42.9131L350.684 34.0527Z" fill="#131313"/>
<rect opacity="0.5" x="381.5" y="16.5" width="55" height="55" rx="19.5" stroke="#3FA1E3"/>
<path d="M395.096 39.6457L399.373 32.4306C400.634 30.304 402.923 29 405.395 29H412.605C415.077 29 417.366 30.304 418.627 32.4306L422.904 39.6457C424.198 41.8289 424.209 44.5416 422.933 46.7353L418.618 54.1518C417.364 56.3062 415.06 57.6316 412.567 57.6316H405.433C402.94 57.6316 400.636 56.3062 399.382 54.1518L395.067 46.7353C393.791 44.5416 393.802 41.8289 395.096 39.6457Z" fill="url(#paint6_linear_4616_15415)"/>
<path d="M407.316 34.0527H403.611L398.053 42.9131L403.611 52.5791H407.316L401.758 42.9131L407.316 34.0527Z" fill="#131313"/>
<path d="M410.684 34.0527H414.389L419.947 42.9131L414.389 52.5791H410.684L416.242 42.9131L410.684 34.0527Z" fill="#131313"/>
<rect x="321.5" y="76.5" width="55" height="55" rx="19.5" stroke="#3FA1E3"/>
<path d="M335.096 99.6457L339.373 92.4306C340.634 90.304 342.922 89 345.395 89H352.605C355.077 89 357.366 90.304 358.627 92.4306L362.904 99.6457C364.198 101.829 364.209 104.542 362.932 106.735L358.618 114.152C357.364 116.306 355.06 117.632 352.567 117.632H345.432C342.94 117.632 340.635 116.306 339.382 114.152L335.067 106.735C333.791 104.542 333.802 101.829 335.096 99.6457Z" fill="url(#paint7_linear_4616_15415)"/>
<path d="M347.316 94.0527H343.61L338.052 102.913L343.61 112.579H347.316L341.758 102.913L347.316 94.0527Z" fill="#131313"/>
<path d="M350.684 94.0527H354.389L359.947 102.913L354.389 112.579H350.684L356.242 102.913L350.684 94.0527Z" fill="#131313"/>
<rect x="381.5" y="76.5" width="55" height="55" rx="19.5" stroke="#3FA1E3"/>
<g filter="url(#filter4_f_4616_15415)">
<circle cx="409.5" cy="104.5" r="11.5" fill="#3FA1E3"/>
</g>
<path d="M395.096 99.6457L399.373 92.4306C400.634 90.304 402.923 89 405.395 89H412.605C415.077 89 417.366 90.304 418.627 92.4306L422.904 99.6457C424.198 101.829 424.209 104.542 422.933 106.735L418.618 114.152C417.364 116.306 415.06 117.632 412.567 117.632H405.433C402.94 117.632 400.636 116.306 399.382 114.152L395.067 106.735C393.791 104.542 393.802 101.829 395.096 99.6457Z" fill="url(#paint8_linear_4616_15415)"/>
<path d="M407.316 94.0527H403.611L398.053 102.913L403.611 112.579H407.316L401.758 102.913L407.316 94.0527Z" fill="#131313"/>
<path d="M410.684 94.0527H414.389L419.947 102.913L414.389 112.579H410.684L416.242 102.913L410.684 94.0527Z" fill="#131313"/>
<path d="M436.577 11.4888C436.656 12.4347 436.838 13.7302 437.249 15.0906C438.121 17.9795 439.663 20.0337 441.832 21.201C444.002 20.0337 445.543 17.9795 446.416 15.0906C446.827 13.7304 447.008 12.4347 447.087 11.4888L441.832 8.86133L436.577 11.4888Z" fill="#3FA1E3"/>
<path d="M450.655 9.67412C450.649 9.57062 450.617 9.4704 450.56 9.38369C450.503 9.29697 450.424 9.22687 450.332 9.18053L442.094 5.06185C442.013 5.02117 441.923 5 441.832 5C441.741 5 441.652 5.02117 441.57 5.06185L433.333 9.18053C433.24 9.22687 433.161 9.29697 433.105 9.38369C433.048 9.4704 433.015 9.57062 433.01 9.67412C433.004 9.79404 432.868 12.6494 433.841 15.9646C434.416 17.9261 435.263 19.6392 436.357 21.0565C437.736 22.8425 439.508 24.1564 441.624 24.9617C441.758 25.0128 441.906 25.0128 442.041 24.9617C444.157 24.1565 445.929 22.8425 447.307 21.0565C448.402 19.6392 449.248 17.926 449.824 15.9646C450.796 12.6494 450.661 9.79404 450.655 9.67412ZM442.092 22.3856C442.011 22.4256 441.922 22.4464 441.832 22.4464C441.742 22.4464 441.653 22.4256 441.573 22.3856C438.963 21.0956 437.131 18.7552 436.127 15.4295C435.625 13.7661 435.443 12.1987 435.379 11.1767C435.372 11.0619 435.399 10.9476 435.457 10.8479C435.514 10.7482 435.599 10.6677 435.702 10.6162L441.57 7.68228C441.652 7.64162 441.741 7.62045 441.832 7.62045C441.923 7.62045 442.013 7.64162 442.094 7.68228L447.962 10.6162C448.065 10.6677 448.151 10.7482 448.208 10.8479C448.265 10.9476 448.292 11.062 448.285 11.1768C448.221 12.1988 448.04 13.7663 447.538 15.4295C446.533 18.7552 444.701 21.0956 442.092 22.3856Z" fill="#3FA1E3"/>
<path d="M235 5.59985C232.196 4.56509 229.164 4 226 4H138C123.641 4 112 15.6406 112 30V118C112 132.359 123.641 144 138 144H226C240.359 144 252 132.359 252 118V30C252 28.6397 251.896 27.3039 251.694 26" stroke="#3FA1E3" stroke-width="2" stroke-linecap="round"/>
<path d="M432 5.59985C429.196 4.56509 426.164 4 423 4H335C320.641 4 309 15.6406 309 30V118C309 132.359 320.641 144 335 144H423C437.359 144 449 132.359 449 118V30C449 28.6397 448.896 27.3039 448.694 26" stroke="#3FA1E3" stroke-width="2" stroke-linecap="round"/>
<g opacity="0.4" clip-path="url(#clip0_4616_15415)">
<path d="M71 12C75.2745 12 79.2915 13.6635 82.3141 16.6859C85.3366 19.7084 87 23.7255 87 28C87 32.2745 85.3365 36.2915 82.3141 39.3141C79.2916 42.3366 75.2745 44 71 44C66.7255 44 62.7085 42.3365 59.6859 39.3141C56.6634 36.2916 55 32.2745 55 28C55 23.7255 56.6635 19.7085 59.6859 16.6859C62.7084 13.6634 66.7255 12 71 12ZM71 30.4367C66.0535 30.4367 61.8704 34.193 61.3045 39.0617L61.2788 39.2813L61.4487 39.4231C64.0361 41.59 67.3681 42.8974 71 42.8974C74.6319 42.8974 77.9648 41.59 80.5521 39.4231L80.7212 39.2813L80.6955 39.0609C80.4427 36.888 79.4605 34.8535 77.903 33.2957C76.0596 31.4526 73.6061 30.4367 71 30.4367ZM71 13.1026C62.7852 13.1026 56.1026 19.7852 56.1026 28C56.1026 31.7253 57.4775 35.1357 59.7452 37.75L60.2636 38.3478L60.4535 37.5801C60.9552 35.5496 62.0376 33.6989 63.597 32.2468C64.6736 31.2438 65.9242 30.4821 67.2756 29.9896L68.0296 29.7147L67.3654 29.2644C65.6382 28.0942 64.5032 26.1172 64.5032 23.8814C64.5033 20.2995 67.4181 17.3846 71 17.3846C74.5819 17.3846 77.4967 20.2995 77.4968 23.8814C77.4968 26.116 76.3628 28.0924 74.637 29.2628L73.9728 29.7131L74.7268 29.9872C76.1951 30.5222 77.5422 31.3764 78.6819 32.516C80.079 33.9128 81.0695 35.6644 81.5457 37.5817L81.7356 38.3486L82.2532 37.7516C84.5217 35.1373 85.8974 31.7261 85.8974 28C85.8974 19.7852 79.2148 13.1026 71 13.1026ZM71 18.4872C68.0254 18.4872 65.6059 20.9065 65.6058 23.8814C65.6058 26.7181 67.806 29.0485 70.5897 29.2588V29.2764H71C73.9747 29.2764 76.3942 26.8561 76.3942 23.8814C76.3941 20.9065 73.9746 18.4872 71 18.4872Z" fill="url(#paint9_linear_4616_15415)"/>
</g>
<g opacity="0.4" clip-path="url(#clip1_4616_15415)">
<path d="M528 26C532.274 26 536.292 27.6635 539.314 30.6859C542.337 33.7084 544 37.7255 544 42C544 46.2745 542.337 50.2915 539.314 53.3141C536.292 56.3366 532.274 58 528 58C523.726 58 519.708 56.3365 516.686 53.3141C513.663 50.2916 512 46.2745 512 42C512 37.7255 513.663 33.7085 516.686 30.6859C519.708 27.6634 523.726 26 528 26ZM528 44.4367C523.054 44.4367 518.87 48.193 518.304 53.0617L518.279 53.2813L518.449 53.4231C521.036 55.59 524.368 56.8974 528 56.8974C531.632 56.8974 534.965 55.59 537.552 53.4231L537.721 53.2813L537.696 53.0609C537.443 50.888 536.461 48.8535 534.903 47.2957C533.06 45.4526 530.606 44.4367 528 44.4367ZM528 27.1026C519.785 27.1026 513.103 33.7852 513.103 42C513.103 45.7253 514.478 49.1357 516.745 51.75L517.264 52.3478L517.454 51.5801C517.955 49.5496 519.038 47.6989 520.597 46.2468C521.674 45.2438 522.924 44.4821 524.276 43.9896L525.03 43.7147L524.365 43.2644C522.638 42.0942 521.503 40.1172 521.503 37.8814C521.503 34.2995 524.418 31.3846 528 31.3846C531.582 31.3846 534.497 34.2995 534.497 37.8814C534.497 40.116 533.363 42.0924 531.637 43.2628L530.973 43.7131L531.727 43.9872C533.195 44.5222 534.542 45.3764 535.682 46.516C537.079 47.9128 538.07 49.6644 538.546 51.5817L538.736 52.3486L539.253 51.7516C541.522 49.1373 542.897 45.7261 542.897 42C542.897 33.7852 536.215 27.1026 528 27.1026ZM528 32.4872C525.025 32.4872 522.606 34.9065 522.606 37.8814C522.606 40.7181 524.806 43.0485 527.59 43.2588V43.2764H528C530.975 43.2764 533.394 40.8561 533.394 37.8814C533.394 34.9065 530.975 32.4872 528 32.4872Z" fill="url(#paint10_linear_4616_15415)"/>
</g>
<g opacity="0.4" clip-path="url(#clip2_4616_15415)">
<path d="M55 55C59.2745 55 63.2915 56.6635 66.3141 59.6859C69.3366 62.7084 71 66.7255 71 71C71 75.2745 69.3365 79.2915 66.3141 82.3141C63.2916 85.3366 59.2745 87 55 87C50.7255 87 46.7085 85.3365 43.6859 82.3141C40.6634 79.2916 39 75.2745 39 71C39 66.7255 40.6635 62.7085 43.6859 59.6859C46.7084 56.6634 50.7255 55 55 55ZM55 73.4367C50.0535 73.4367 45.8704 77.193 45.3045 82.0617L45.2788 82.2813L45.4487 82.4231C48.0361 84.59 51.3681 85.8974 55 85.8974C58.6319 85.8974 61.9648 84.59 64.5521 82.4231L64.7212 82.2813L64.6955 82.0609C64.4427 79.888 63.4605 77.8535 61.903 76.2957C60.0596 74.4526 57.6061 73.4367 55 73.4367ZM55 56.1026C46.7852 56.1026 40.1026 62.7852 40.1026 71C40.1026 74.7253 41.4775 78.1357 43.7452 80.75L44.2636 81.3478L44.4535 80.5801C44.9552 78.5496 46.0376 76.6989 47.597 75.2468C48.6736 74.2438 49.9242 73.4821 51.2756 72.9896L52.0296 72.7147L51.3654 72.2644C49.6382 71.0942 48.5032 69.1172 48.5032 66.8814C48.5033 63.2995 51.4181 60.3846 55 60.3846C58.5819 60.3846 61.4967 63.2995 61.4968 66.8814C61.4968 69.116 60.3628 71.0924 58.637 72.2628L57.9728 72.7131L58.7268 72.9872C60.1951 73.5222 61.5422 74.3764 62.6819 75.516C64.079 76.9128 65.0695 78.6644 65.5457 80.5817L65.7356 81.3486L66.2532 80.7516C68.5217 78.1373 69.8974 74.7261 69.8974 71C69.8974 62.7852 63.2148 56.1026 55 56.1026ZM55 61.4872C52.0254 61.4872 49.6059 63.9065 49.6058 66.8814C49.6058 69.7181 51.806 72.0485 54.5897 72.2588V72.2764H55C57.9747 72.2764 60.3942 69.8561 60.3942 66.8814C60.3941 63.9065 57.9746 61.4872 55 61.4872Z" fill="url(#paint11_linear_4616_15415)"/>
</g>
<g opacity="0.2" clip-path="url(#clip3_4616_15415)">
<path d="M27 37C30.2058 37 33.2187 38.2476 35.4856 40.5144C37.7524 42.7813 39 45.7942 39 49C39 52.2058 37.7524 55.2187 35.4856 57.4856C33.2187 59.7524 30.2058 61 27 61C23.7942 61 20.7813 59.7524 18.5144 57.4856C16.2476 55.2187 15 52.2058 15 49C15 45.7942 16.2476 42.7813 18.5144 40.5144C20.7813 38.2476 23.7942 37 27 37ZM27 50.8275C23.2902 50.8275 20.1528 53.6447 19.7284 57.2963L19.7091 57.4609L19.8365 57.5673C21.777 59.1925 24.2761 60.1731 27 60.1731C29.7239 60.1731 32.2236 59.1925 34.1641 57.5673L34.2909 57.4609L34.2716 57.2957C34.082 55.666 33.3454 54.1401 32.1773 52.9718C30.7947 51.5895 28.9546 50.8275 27 50.8275ZM27 37.8269C20.8389 37.8269 15.8269 42.8389 15.8269 49C15.8269 51.7939 16.8581 54.3518 18.5589 56.3125L18.9477 56.7608L19.0901 56.1851C19.4664 54.6622 20.2782 53.2742 21.4477 52.1851C22.2552 51.4328 23.1931 50.8616 24.2067 50.4922L24.7722 50.2861L24.274 49.9483C22.9786 49.0707 22.1274 47.5879 22.1274 45.9111C22.1275 43.2246 24.3136 41.0385 27 41.0385C29.6864 41.0385 31.8725 43.2246 31.8726 45.9111C31.8726 47.587 31.0221 49.0693 29.7278 49.9471L29.2296 50.2849L29.7951 50.4904C30.8963 50.8916 31.9067 51.5323 32.7614 52.387C33.8093 53.4346 34.5522 54.7483 34.9093 56.1863L35.0517 56.7614L35.4399 56.3137C37.1413 54.353 38.1731 51.7945 38.1731 49C38.1731 42.8389 33.1611 37.8269 27 37.8269ZM27 41.8654C24.7691 41.8654 22.9544 43.6799 22.9543 45.9111C22.9543 48.0386 24.6045 49.7864 26.6923 49.9441V49.9573H27C29.231 49.9573 31.0457 48.1421 31.0457 45.9111C31.0456 43.6799 29.2309 41.8654 27 41.8654Z" fill="url(#paint12_linear_4616_15415)"/>
</g>
<g opacity="0.4" clip-path="url(#clip4_4616_15415)">
<path d="M488 55C492.274 55 496.292 56.6635 499.314 59.6859C502.337 62.7084 504 66.7255 504 71C504 75.2745 502.337 79.2915 499.314 82.3141C496.292 85.3366 492.274 87 488 87C483.726 87 479.708 85.3365 476.686 82.3141C473.663 79.2916 472 75.2745 472 71C472 66.7255 473.663 62.7085 476.686 59.6859C479.708 56.6634 483.726 55 488 55ZM488 73.4367C483.054 73.4367 478.87 77.193 478.304 82.0617L478.279 82.2813L478.449 82.4231C481.036 84.59 484.368 85.8974 488 85.8974C491.632 85.8974 494.965 84.59 497.552 82.4231L497.721 82.2813L497.696 82.0609C497.443 79.888 496.461 77.8535 494.903 76.2957C493.06 74.4526 490.606 73.4367 488 73.4367ZM488 56.1026C479.785 56.1026 473.103 62.7852 473.103 71C473.103 74.7253 474.478 78.1357 476.745 80.75L477.264 81.3478L477.454 80.5801C477.955 78.5496 479.038 76.6989 480.597 75.2468C481.674 74.2438 482.924 73.4821 484.276 72.9896L485.03 72.7147L484.365 72.2644C482.638 71.0942 481.503 69.1172 481.503 66.8814C481.503 63.2995 484.418 60.3846 488 60.3846C491.582 60.3846 494.497 63.2995 494.497 66.8814C494.497 69.116 493.363 71.0924 491.637 72.2628L490.973 72.7131L491.727 72.9872C493.195 73.5222 494.542 74.3764 495.682 75.516C497.079 76.9128 498.07 78.6644 498.546 80.5817L498.736 81.3486L499.253 80.7516C501.522 78.1373 502.897 74.7261 502.897 71C502.897 62.7852 496.215 56.1026 488 56.1026ZM488 61.4872C485.025 61.4872 482.606 63.9065 482.606 66.8814C482.606 69.7181 484.806 72.0485 487.59 72.2588V72.2764H488C490.975 72.2764 493.394 69.8561 493.394 66.8814C493.394 63.9065 490.975 61.4872 488 61.4872Z" fill="url(#paint13_linear_4616_15415)"/>
</g>
<g opacity="0.4" clip-path="url(#clip5_4616_15415)">
<path d="M541 76C544.206 76 547.219 77.2476 549.486 79.5144C551.752 81.7813 553 84.7942 553 88C553 91.2058 551.752 94.2187 549.486 96.4856C547.219 98.7524 544.206 100 541 100C537.794 100 534.781 98.7524 532.514 96.4856C530.248 94.2187 529 91.2058 529 88C529 84.7942 530.248 81.7813 532.514 79.5144C534.781 77.2476 537.794 76 541 76ZM541 89.8275C537.29 89.8275 534.153 92.6447 533.728 96.2963L533.709 96.4609L533.837 96.5673C535.777 98.1925 538.276 99.1731 541 99.1731C543.724 99.1731 546.224 98.1925 548.164 96.5673L548.291 96.4609L548.272 96.2957C548.082 94.666 547.345 93.1401 546.177 91.9718C544.795 90.5895 542.955 89.8275 541 89.8275ZM541 76.8269C534.839 76.8269 529.827 81.8389 529.827 88C529.827 90.7939 530.858 93.3518 532.559 95.3125L532.948 95.7608L533.09 95.1851C533.466 93.6622 534.278 92.2742 535.448 91.1851C536.255 90.4328 537.193 89.8616 538.207 89.4922L538.772 89.2861L538.274 88.9483C536.979 88.0707 536.127 86.5879 536.127 84.9111C536.128 82.2246 538.314 80.0385 541 80.0385C543.686 80.0385 545.872 82.2246 545.873 84.9111C545.873 86.587 545.022 88.0693 543.728 88.9471L543.23 89.2849L543.795 89.4904C544.896 89.8916 545.907 90.5323 546.761 91.387C547.809 92.4346 548.552 93.7483 548.909 95.1863L549.052 95.7614L549.44 95.3137C551.141 93.353 552.173 90.7945 552.173 88C552.173 81.8389 547.161 76.8269 541 76.8269ZM541 80.8654C538.769 80.8654 536.954 82.6799 536.954 84.9111C536.954 87.0386 538.605 88.7864 540.692 88.9441V88.9573H541C543.231 88.9573 545.046 87.1421 545.046 84.9111C545.046 82.6799 543.231 80.8654 541 80.8654Z" fill="url(#paint14_linear_4616_15415)"/>
</g>
<g opacity="0.3" clip-path="url(#clip6_4616_15415)">
<path d="M33 89C37.2745 89 41.2915 90.6635 44.3141 93.6859C47.3366 96.7084 49 100.726 49 105C49 109.274 47.3365 113.292 44.3141 116.314C41.2916 119.337 37.2745 121 33 121C28.7255 121 24.7085 119.337 21.6859 116.314C18.6634 113.292 17 109.274 17 105C17 100.726 18.6635 96.7085 21.6859 93.6859C24.7084 90.6634 28.7255 89 33 89ZM33 107.437C28.0535 107.437 23.8704 111.193 23.3045 116.062L23.2788 116.281L23.4487 116.423C26.0361 118.59 29.3681 119.897 33 119.897C36.6319 119.897 39.9648 118.59 42.5521 116.423L42.7212 116.281L42.6955 116.061C42.4427 113.888 41.4605 111.853 39.903 110.296C38.0596 108.453 35.6061 107.437 33 107.437ZM33 90.1026C24.7852 90.1026 18.1026 96.7852 18.1026 105C18.1026 108.725 19.4775 112.136 21.7452 114.75L22.2636 115.348L22.4535 114.58C22.9552 112.55 24.0376 110.699 25.597 109.247C26.6736 108.244 27.9242 107.482 29.2756 106.99L30.0296 106.715L29.3654 106.264C27.6382 105.094 26.5032 103.117 26.5032 100.881C26.5033 97.2995 29.4181 94.3846 33 94.3846C36.5819 94.3846 39.4967 97.2995 39.4968 100.881C39.4968 103.116 38.3628 105.092 36.637 106.263L35.9728 106.713L36.7268 106.987C38.1951 107.522 39.5422 108.376 40.6819 109.516C42.079 110.913 43.0695 112.664 43.5457 114.582L43.7356 115.349L44.2532 114.752C46.5217 112.137 47.8974 108.726 47.8974 105C47.8974 96.7852 41.2148 90.1026 33 90.1026ZM33 95.4872C30.0254 95.4872 27.6059 97.9065 27.6058 100.881C27.6058 103.718 29.806 106.048 32.5897 106.259V106.276H33C35.9747 106.276 38.3942 103.856 38.3942 100.881C38.3941 97.9065 35.9746 95.4872 33 95.4872Z" fill="url(#paint15_linear_4616_15415)"/>
</g>
<g opacity="0.8" clip-path="url(#clip7_4616_15415)">
<path d="M521 101C525.274 101 529.292 102.663 532.314 105.686C535.337 108.708 537 112.726 537 117C537 121.274 535.337 125.292 532.314 128.314C529.292 131.337 525.274 133 521 133C516.726 133 512.708 131.337 509.686 128.314C506.663 125.292 505 121.274 505 117C505 112.726 506.663 108.708 509.686 105.686C512.708 102.663 516.726 101 521 101ZM521 119.437C516.054 119.437 511.87 123.193 511.304 128.062L511.279 128.281L511.449 128.423C514.036 130.59 517.368 131.897 521 131.897C524.632 131.897 527.965 130.59 530.552 128.423L530.721 128.281L530.696 128.061C530.443 125.888 529.461 123.853 527.903 122.296C526.06 120.453 523.606 119.437 521 119.437ZM521 102.103C512.785 102.103 506.103 108.785 506.103 117C506.103 120.725 507.478 124.136 509.745 126.75L510.264 127.348L510.454 126.58C510.955 124.55 512.038 122.699 513.597 121.247C514.674 120.244 515.924 119.482 517.276 118.99L518.03 118.715L517.365 118.264C515.638 117.094 514.503 115.117 514.503 112.881C514.503 109.3 517.418 106.385 521 106.385C524.582 106.385 527.497 109.3 527.497 112.881C527.497 115.116 526.363 117.092 524.637 118.263L523.973 118.713L524.727 118.987C526.195 119.522 527.542 120.376 528.682 121.516C530.079 122.913 531.07 124.664 531.546 126.582L531.736 127.349L532.253 126.752C534.522 124.137 535.897 120.726 535.897 117C535.897 108.785 529.215 102.103 521 102.103ZM521 107.487C518.025 107.487 515.606 109.907 515.606 112.881C515.606 115.718 517.806 118.048 520.59 118.259V118.276H521C523.975 118.276 526.394 115.856 526.394 112.881C526.394 109.907 523.975 107.487 521 107.487Z" fill="url(#paint16_linear_4616_15415)"/>
</g>
<path opacity="0.4" d="M89.5 28.5H108" stroke="#A0A9DB" stroke-linecap="round" stroke-linejoin="round" stroke-dasharray="1 3"/>
<path opacity="0.4" d="M508 42.5H453" stroke="#A0A9DB" stroke-linecap="round" stroke-linejoin="round" stroke-dasharray="1 3"/>
<path opacity="0.4" d="M51 106H108" stroke="#A0A9DB" stroke-linecap="round" stroke-linejoin="round" stroke-dasharray="1 3"/>
<path opacity="0.4" d="M503.5 118H453" stroke="#A0A9DB" stroke-linecap="round" stroke-linejoin="round" stroke-dasharray="1 3"/>
<path opacity="0.4" d="M525.5 89H453" stroke="#A0A9DB" stroke-linecap="round" stroke-linejoin="round" stroke-dasharray="1 3"/>
<path opacity="0.4" d="M74 71H108" stroke="#A0A9DB" stroke-linecap="round" stroke-linejoin="round" stroke-dasharray="1 3"/>
<path opacity="0.4" d="M41.5 49H108" stroke="#A0A9DB" stroke-linecap="round" stroke-linejoin="round" stroke-dasharray="1 3"/>
<path opacity="0.4" d="M469.5 71H453" stroke="#A0A9DB" stroke-linecap="round" stroke-linejoin="round" stroke-dasharray="1 3"/>
<defs>
<filter id="filter0_f_4616_15415" x="119" y="13.5" width="63" height="63" filterUnits="userSpaceOnUse" color-interpolation-filters="sRGB">
<feFlood flood-opacity="0" result="BackgroundImageFix"/>
<feBlend mode="normal" in="SourceGraphic" in2="BackgroundImageFix" result="shape"/>
<feGaussianBlur stdDeviation="10" result="effect1_foregroundBlur_4616_15415"/>
</filter>
<filter id="filter1_f_4616_15415" x="181" y="13" width="63" height="63" filterUnits="userSpaceOnUse" color-interpolation-filters="sRGB">
<feFlood flood-opacity="0" result="BackgroundImageFix"/>
<feBlend mode="normal" in="SourceGraphic" in2="BackgroundImageFix" result="shape"/>
<feGaussianBlur stdDeviation="10" result="effect1_foregroundBlur_4616_15415"/>
</filter>
<filter id="filter2_f_4616_15415" x="121" y="73" width="63" height="63" filterUnits="userSpaceOnUse" color-interpolation-filters="sRGB">
<feFlood flood-opacity="0" result="BackgroundImageFix"/>
<feBlend mode="normal" in="SourceGraphic" in2="BackgroundImageFix" result="shape"/>
<feGaussianBlur stdDeviation="10" result="effect1_foregroundBlur_4616_15415"/>
</filter>
<filter id="filter3_f_4616_15415" x="318" y="13" width="63" height="63" filterUnits="userSpaceOnUse" color-interpolation-filters="sRGB">
<feFlood flood-opacity="0" result="BackgroundImageFix"/>
<feBlend mode="normal" in="SourceGraphic" in2="BackgroundImageFix" result="shape"/>
<feGaussianBlur stdDeviation="10" result="effect1_foregroundBlur_4616_15415"/>
</filter>
<filter id="filter4_f_4616_15415" x="378" y="73" width="63" height="63" filterUnits="userSpaceOnUse" color-interpolation-filters="sRGB">
<feFlood flood-opacity="0" result="BackgroundImageFix"/>
<feBlend mode="normal" in="SourceGraphic" in2="BackgroundImageFix" result="shape"/>
<feGaussianBlur stdDeviation="10" result="effect1_foregroundBlur_4616_15415"/>
</filter>
<linearGradient id="paint0_linear_4616_15415" x1="182" y1="4.13184" x2="182" y2="144.132" gradientUnits="userSpaceOnUse">
<stop stop-color="#0A0F2B" stop-opacity="0.6"/>
<stop offset="1" stop-color="#0A0F2B"/>
</linearGradient>
<linearGradient id="paint1_linear_4616_15415" x1="378.868" y1="4.13184" x2="378.868" y2="144.132" gradientUnits="userSpaceOnUse">
<stop stop-color="#0A0F2B" stop-opacity="0.6"/>
<stop offset="1" stop-color="#0A0F2B"/>
</linearGradient>
<linearGradient id="paint2_linear_4616_15415" x1="152" y1="29" x2="152" y2="57.6316" gradientUnits="userSpaceOnUse">
<stop stop-color="#3FA1E3" stop-opacity="0.35"/>
<stop offset="0.605793" stop-color="#3FA1E3"/>
</linearGradient>
<linearGradient id="paint3_linear_4616_15415" x1="212" y1="29" x2="212" y2="57.6316" gradientUnits="userSpaceOnUse">
<stop stop-color="#3FA1E3" stop-opacity="0.35"/>
<stop offset="0.605793" stop-color="#3FA1E3"/>
</linearGradient>
<linearGradient id="paint4_linear_4616_15415" x1="152" y1="89" x2="152" y2="117.632" gradientUnits="userSpaceOnUse">
<stop stop-color="#3FA1E3" stop-opacity="0.35"/>
<stop offset="0.605793" stop-color="#3FA1E3"/>
</linearGradient>
<linearGradient id="paint5_linear_4616_15415" x1="349" y1="29" x2="349" y2="57.6316" gradientUnits="userSpaceOnUse">
<stop stop-color="#3FA1E3" stop-opacity="0.35"/>
<stop offset="0.605793" stop-color="#3FA1E3"/>
</linearGradient>
<linearGradient id="paint6_linear_4616_15415" x1="409" y1="29" x2="409" y2="57.6316" gradientUnits="userSpaceOnUse">
<stop stop-color="#3FA1E3" stop-opacity="0.35"/>
<stop offset="0.605793" stop-color="#3FA1E3"/>
</linearGradient>
<linearGradient id="paint7_linear_4616_15415" x1="349" y1="89" x2="349" y2="117.632" gradientUnits="userSpaceOnUse">
<stop stop-color="#3FA1E3" stop-opacity="0.35"/>
<stop offset="0.605793" stop-color="#3FA1E3"/>
</linearGradient>
<linearGradient id="paint8_linear_4616_15415" x1="409" y1="89" x2="409" y2="117.632" gradientUnits="userSpaceOnUse">
<stop stop-color="#3FA1E3" stop-opacity="0.35"/>
<stop offset="0.605793" stop-color="#3FA1E3"/>
</linearGradient>
<linearGradient id="paint9_linear_4616_15415" x1="71" y1="12" x2="71" y2="44" gradientUnits="userSpaceOnUse">
<stop stop-color="#A0A9DB" stop-opacity="0.25"/>
<stop offset="1" stop-color="#A0A9DB"/>
</linearGradient>
<linearGradient id="paint10_linear_4616_15415" x1="528" y1="26" x2="528" y2="58" gradientUnits="userSpaceOnUse">
<stop stop-color="#A0A9DB" stop-opacity="0.25"/>
<stop offset="1" stop-color="#A0A9DB"/>
</linearGradient>
<linearGradient id="paint11_linear_4616_15415" x1="55" y1="55" x2="55" y2="87" gradientUnits="userSpaceOnUse">
<stop stop-color="#A0A9DB" stop-opacity="0.25"/>
<stop offset="1" stop-color="#A0A9DB"/>
</linearGradient>
<linearGradient id="paint12_linear_4616_15415" x1="27" y1="37" x2="27" y2="61" gradientUnits="userSpaceOnUse">
<stop stop-color="#A0A9DB" stop-opacity="0.25"/>
<stop offset="1" stop-color="#A0A9DB"/>
</linearGradient>
<linearGradient id="paint13_linear_4616_15415" x1="488" y1="55" x2="488" y2="87" gradientUnits="userSpaceOnUse">
<stop stop-color="#A0A9DB" stop-opacity="0.25"/>
<stop offset="1" stop-color="#A0A9DB"/>
</linearGradient>
<linearGradient id="paint14_linear_4616_15415" x1="541" y1="76" x2="541" y2="100" gradientUnits="userSpaceOnUse">
<stop stop-color="#A0A9DB" stop-opacity="0.25"/>
<stop offset="1" stop-color="#A0A9DB"/>
</linearGradient>
<linearGradient id="paint15_linear_4616_15415" x1="33" y1="89" x2="33" y2="121" gradientUnits="userSpaceOnUse">
<stop stop-color="#A0A9DB" stop-opacity="0.25"/>
<stop offset="1" stop-color="#A0A9DB"/>
</linearGradient>
<linearGradient id="paint16_linear_4616_15415" x1="521" y1="101" x2="521" y2="133" gradientUnits="userSpaceOnUse">
<stop stop-color="#A0A9DB" stop-opacity="0.25"/>
<stop offset="1" stop-color="#A0A9DB"/>
</linearGradient>
<clipPath id="clip0_4616_15415">
<rect width="32" height="32" fill="white" transform="translate(55 12)"/>
</clipPath>
<clipPath id="clip1_4616_15415">
<rect width="32" height="32" fill="white" transform="translate(512 26)"/>
</clipPath>
<clipPath id="clip2_4616_15415">
<rect width="32" height="32" fill="white" transform="translate(39 55)"/>
</clipPath>
<clipPath id="clip3_4616_15415">
<rect width="24" height="24" fill="white" transform="translate(15 37)"/>
</clipPath>
<clipPath id="clip4_4616_15415">
<rect width="32" height="32" fill="white" transform="translate(472 55)"/>
</clipPath>
<clipPath id="clip5_4616_15415">
<rect width="24" height="24" fill="white" transform="translate(529 76)"/>
</clipPath>
<clipPath id="clip6_4616_15415">
<rect width="32" height="32" fill="white" transform="translate(17 89)"/>
</clipPath>
<clipPath id="clip7_4616_15415">
<rect width="32" height="32" fill="white" transform="translate(505 101)"/>
</clipPath>
</defs>
</svg>
