<svg width="392" height="175" viewBox="0 0 392 175" fill="none" xmlns="http://www.w3.org/2000/svg">
<g opacity="0.2">
<path d="M16 34.4353V41.8833C18.5759 44.4033 24.453 45.8001 33 45.8001C41.547 45.8001 47.4241 44.4033 50 41.8833V34.4353C47.2007 36.3185 42.1184 37.8001 33 37.8001C23.8816 37.8001 18.7993 36.3185 16 34.4353Z" fill="#0A0F2B" fill-opacity="0.8"/>
<path d="M16 44.0352V51.4C16 55.0768 24.5518 57 33 57C41.4482 57 50 55.0768 50 51.4V44.0352C47.2007 45.9184 42.1184 47.4 33 47.4C23.8816 47.4 18.7993 45.9184 16 44.0352ZM33 17C24.5518 17 16 18.9232 16 22.6V22.6832C18.5759 25.2032 24.453 26.6 33 26.6C41.547 26.6 47.4241 25.2032 50 22.6832V22.6C50 18.9232 41.4482 17 33 17Z" fill="#0A0F2B" fill-opacity="0.8"/>
<path d="M16 24.8352V32.2832C18.5759 34.8032 24.453 36.2 33 36.2C41.547 36.2 47.4241 34.8032 50 32.2832V24.8352C47.2007 26.7184 42.1184 28.2 33 28.2C23.8816 28.2 18.7993 26.7184 16 24.8352Z" fill="#0A0F2B" fill-opacity="0.8"/>
<path d="M16 34.4353V41.8833C18.5759 44.4033 24.453 45.8001 33 45.8001C41.547 45.8001 47.4241 44.4033 50 41.8833V34.4353C47.2007 36.3185 42.1184 37.8001 33 37.8001C23.8816 37.8001 18.7993 36.3185 16 34.4353Z" stroke="url(#paint0_linear_4953_3129)"/>
<path d="M16 44.0352V51.4C16 55.0768 24.5518 57 33 57C41.4482 57 50 55.0768 50 51.4V44.0352C47.2007 45.9184 42.1184 47.4 33 47.4C23.8816 47.4 18.7993 45.9184 16 44.0352ZM33 17C24.5518 17 16 18.9232 16 22.6V22.6832C18.5759 25.2032 24.453 26.6 33 26.6C41.547 26.6 47.4241 25.2032 50 22.6832V22.6C50 18.9232 41.4482 17 33 17Z" stroke="url(#paint1_linear_4953_3129)"/>
<path d="M16 24.8352V32.2832C18.5759 34.8032 24.453 36.2 33 36.2C41.547 36.2 47.4241 34.8032 50 32.2832V24.8352C47.2007 26.7184 42.1184 28.2 33 28.2C23.8816 28.2 18.7993 26.7184 16 24.8352Z" stroke="url(#paint2_linear_4953_3129)"/>
</g>
<g opacity="0.5">
<path d="M81 34.4353V41.8833C83.5759 44.4033 89.453 45.8001 98 45.8001C106.547 45.8001 112.424 44.4033 115 41.8833V34.4353C112.201 36.3185 107.118 37.8001 98 37.8001C88.8816 37.8001 83.7993 36.3185 81 34.4353Z" fill="#0A0F2B" fill-opacity="0.8"/>
<path d="M81 44.0352V51.4C81 55.0768 89.5518 57 98 57C106.448 57 115 55.0768 115 51.4V44.0352C112.201 45.9184 107.118 47.4 98 47.4C88.8816 47.4 83.7993 45.9184 81 44.0352ZM98 17C89.5518 17 81 18.9232 81 22.6V22.6832C83.5759 25.2032 89.453 26.6 98 26.6C106.547 26.6 112.424 25.2032 115 22.6832V22.6C115 18.9232 106.448 17 98 17Z" fill="#0A0F2B" fill-opacity="0.8"/>
<path d="M81 24.8352V32.2832C83.5759 34.8032 89.453 36.2 98 36.2C106.547 36.2 112.424 34.8032 115 32.2832V24.8352C112.201 26.7184 107.118 28.2 98 28.2C88.8816 28.2 83.7993 26.7184 81 24.8352Z" fill="#0A0F2B" fill-opacity="0.8"/>
<path d="M81 34.4353V41.8833C83.5759 44.4033 89.453 45.8001 98 45.8001C106.547 45.8001 112.424 44.4033 115 41.8833V34.4353C112.201 36.3185 107.118 37.8001 98 37.8001C88.8816 37.8001 83.7993 36.3185 81 34.4353Z" stroke="url(#paint3_linear_4953_3129)"/>
<path d="M81 44.0352V51.4C81 55.0768 89.5518 57 98 57C106.448 57 115 55.0768 115 51.4V44.0352C112.201 45.9184 107.118 47.4 98 47.4C88.8816 47.4 83.7993 45.9184 81 44.0352ZM98 17C89.5518 17 81 18.9232 81 22.6V22.6832C83.5759 25.2032 89.453 26.6 98 26.6C106.547 26.6 112.424 25.2032 115 22.6832V22.6C115 18.9232 106.448 17 98 17Z" stroke="url(#paint4_linear_4953_3129)"/>
<path d="M81 24.8352V32.2832C83.5759 34.8032 89.453 36.2 98 36.2C106.547 36.2 112.424 34.8032 115 32.2832V24.8352C112.201 26.7184 107.118 28.2 98 28.2C88.8816 28.2 83.7993 26.7184 81 24.8352Z" stroke="url(#paint5_linear_4953_3129)"/>
</g>
<path d="M146 34.4353V41.8833C148.576 44.4033 154.453 45.8001 163 45.8001C171.547 45.8001 177.424 44.4033 180 41.8833V34.4353C177.201 36.3185 172.118 37.8001 163 37.8001C153.882 37.8001 148.799 36.3185 146 34.4353Z" fill="#0A0F2B" fill-opacity="0.8"/>
<path d="M146 44.0352V51.4C146 55.0768 154.552 57 163 57C171.448 57 180 55.0768 180 51.4V44.0352C177.201 45.9184 172.118 47.4 163 47.4C153.882 47.4 148.799 45.9184 146 44.0352ZM163 17C154.552 17 146 18.9232 146 22.6V22.6832C148.576 25.2032 154.453 26.6 163 26.6C171.547 26.6 177.424 25.2032 180 22.6832V22.6C180 18.9232 171.448 17 163 17Z" fill="#0A0F2B" fill-opacity="0.8"/>
<path d="M146 24.8352V32.2832C148.576 34.8032 154.453 36.2 163 36.2C171.547 36.2 177.424 34.8032 180 32.2832V24.8352C177.201 26.7184 172.118 28.2 163 28.2C153.882 28.2 148.799 26.7184 146 24.8352Z" fill="#0A0F2B" fill-opacity="0.8"/>
<path d="M146 34.4353V41.8833C148.576 44.4033 154.453 45.8001 163 45.8001C171.547 45.8001 177.424 44.4033 180 41.8833V34.4353C177.201 36.3185 172.118 37.8001 163 37.8001C153.882 37.8001 148.799 36.3185 146 34.4353Z" stroke="url(#paint6_linear_4953_3129)"/>
<path d="M146 44.0352V51.4C146 55.0768 154.552 57 163 57C171.448 57 180 55.0768 180 51.4V44.0352C177.201 45.9184 172.118 47.4 163 47.4C153.882 47.4 148.799 45.9184 146 44.0352ZM163 17C154.552 17 146 18.9232 146 22.6V22.6832C148.576 25.2032 154.453 26.6 163 26.6C171.547 26.6 177.424 25.2032 180 22.6832V22.6C180 18.9232 171.448 17 163 17Z" stroke="url(#paint7_linear_4953_3129)"/>
<path d="M146 24.8352V32.2832C148.576 34.8032 154.453 36.2 163 36.2C171.547 36.2 177.424 34.8032 180 32.2832V24.8352C177.201 26.7184 172.118 28.2 163 28.2C153.882 28.2 148.799 26.7184 146 24.8352Z" stroke="url(#paint8_linear_4953_3129)"/>
<path d="M211 34.4353V41.8833C213.576 44.4033 219.453 45.8001 228 45.8001C236.547 45.8001 242.424 44.4033 245 41.8833V34.4353C242.201 36.3185 237.118 37.8001 228 37.8001C218.882 37.8001 213.799 36.3185 211 34.4353Z" fill="#0A0F2B" fill-opacity="0.8"/>
<path d="M211 44.0352V51.4C211 55.0768 219.552 57 228 57C236.448 57 245 55.0768 245 51.4V44.0352C242.201 45.9184 237.118 47.4 228 47.4C218.882 47.4 213.799 45.9184 211 44.0352ZM228 17C219.552 17 211 18.9232 211 22.6V22.6832C213.576 25.2032 219.453 26.6 228 26.6C236.547 26.6 242.424 25.2032 245 22.6832V22.6C245 18.9232 236.448 17 228 17Z" fill="#0A0F2B" fill-opacity="0.8"/>
<path d="M211 24.8352V32.2832C213.576 34.8032 219.453 36.2 228 36.2C236.547 36.2 242.424 34.8032 245 32.2832V24.8352C242.201 26.7184 237.118 28.2 228 28.2C218.882 28.2 213.799 26.7184 211 24.8352Z" fill="#0A0F2B" fill-opacity="0.8"/>
<path d="M211 34.4353V41.8833C213.576 44.4033 219.453 45.8001 228 45.8001C236.547 45.8001 242.424 44.4033 245 41.8833V34.4353C242.201 36.3185 237.118 37.8001 228 37.8001C218.882 37.8001 213.799 36.3185 211 34.4353Z" stroke="url(#paint9_linear_4953_3129)"/>
<path d="M211 44.0352V51.4C211 55.0768 219.552 57 228 57C236.448 57 245 55.0768 245 51.4V44.0352C242.201 45.9184 237.118 47.4 228 47.4C218.882 47.4 213.799 45.9184 211 44.0352ZM228 17C219.552 17 211 18.9232 211 22.6V22.6832C213.576 25.2032 219.453 26.6 228 26.6C236.547 26.6 242.424 25.2032 245 22.6832V22.6C245 18.9232 236.448 17 228 17Z" stroke="url(#paint10_linear_4953_3129)"/>
<path d="M211 24.8352V32.2832C213.576 34.8032 219.453 36.2 228 36.2C236.547 36.2 242.424 34.8032 245 32.2832V24.8352C242.201 26.7184 237.118 28.2 228 28.2C218.882 28.2 213.799 26.7184 211 24.8352Z" stroke="url(#paint11_linear_4953_3129)"/>
<g opacity="0.5">
<path d="M276 34.4353V41.8833C278.576 44.4033 284.453 45.8001 293 45.8001C301.547 45.8001 307.424 44.4033 310 41.8833V34.4353C307.201 36.3185 302.118 37.8001 293 37.8001C283.882 37.8001 278.799 36.3185 276 34.4353Z" fill="#0A0F2B" fill-opacity="0.8"/>
<path d="M276 44.0352V51.4C276 55.0768 284.552 57 293 57C301.448 57 310 55.0768 310 51.4V44.0352C307.201 45.9184 302.118 47.4 293 47.4C283.882 47.4 278.799 45.9184 276 44.0352ZM293 17C284.552 17 276 18.9232 276 22.6V22.6832C278.576 25.2032 284.453 26.6 293 26.6C301.547 26.6 307.424 25.2032 310 22.6832V22.6C310 18.9232 301.448 17 293 17Z" fill="#0A0F2B" fill-opacity="0.8"/>
<path d="M276 24.8352V32.2832C278.576 34.8032 284.453 36.2 293 36.2C301.547 36.2 307.424 34.8032 310 32.2832V24.8352C307.201 26.7184 302.118 28.2 293 28.2C283.882 28.2 278.799 26.7184 276 24.8352Z" fill="#0A0F2B" fill-opacity="0.8"/>
<path d="M276 34.4353V41.8833C278.576 44.4033 284.453 45.8001 293 45.8001C301.547 45.8001 307.424 44.4033 310 41.8833V34.4353C307.201 36.3185 302.118 37.8001 293 37.8001C283.882 37.8001 278.799 36.3185 276 34.4353Z" stroke="url(#paint12_linear_4953_3129)"/>
<path d="M276 44.0352V51.4C276 55.0768 284.552 57 293 57C301.448 57 310 55.0768 310 51.4V44.0352C307.201 45.9184 302.118 47.4 293 47.4C283.882 47.4 278.799 45.9184 276 44.0352ZM293 17C284.552 17 276 18.9232 276 22.6V22.6832C278.576 25.2032 284.453 26.6 293 26.6C301.547 26.6 307.424 25.2032 310 22.6832V22.6C310 18.9232 301.448 17 293 17Z" stroke="url(#paint13_linear_4953_3129)"/>
<path d="M276 24.8352V32.2832C278.576 34.8032 284.453 36.2 293 36.2C301.547 36.2 307.424 34.8032 310 32.2832V24.8352C307.201 26.7184 302.118 28.2 293 28.2C283.882 28.2 278.799 26.7184 276 24.8352Z" stroke="url(#paint14_linear_4953_3129)"/>
</g>
<g opacity="0.2">
<path d="M341 34.4353V41.8833C343.576 44.4033 349.453 45.8001 358 45.8001C366.547 45.8001 372.424 44.4033 375 41.8833V34.4353C372.201 36.3185 367.118 37.8001 358 37.8001C348.882 37.8001 343.799 36.3185 341 34.4353Z" fill="#0A0F2B" fill-opacity="0.8"/>
<path d="M341 44.0352V51.4C341 55.0768 349.552 57 358 57C366.448 57 375 55.0768 375 51.4V44.0352C372.201 45.9184 367.118 47.4 358 47.4C348.882 47.4 343.799 45.9184 341 44.0352ZM358 17C349.552 17 341 18.9232 341 22.6V22.6832C343.576 25.2032 349.453 26.6 358 26.6C366.547 26.6 372.424 25.2032 375 22.6832V22.6C375 18.9232 366.448 17 358 17Z" fill="#0A0F2B" fill-opacity="0.8"/>
<path d="M341 24.8352V32.2832C343.576 34.8032 349.453 36.2 358 36.2C366.547 36.2 372.424 34.8032 375 32.2832V24.8352C372.201 26.7184 367.118 28.2 358 28.2C348.882 28.2 343.799 26.7184 341 24.8352Z" fill="#0A0F2B" fill-opacity="0.8"/>
<path d="M341 34.4353V41.8833C343.576 44.4033 349.453 45.8001 358 45.8001C366.547 45.8001 372.424 44.4033 375 41.8833V34.4353C372.201 36.3185 367.118 37.8001 358 37.8001C348.882 37.8001 343.799 36.3185 341 34.4353Z" stroke="url(#paint15_linear_4953_3129)"/>
<path d="M341 44.0352V51.4C341 55.0768 349.552 57 358 57C366.448 57 375 55.0768 375 51.4V44.0352C372.201 45.9184 367.118 47.4 358 47.4C348.882 47.4 343.799 45.9184 341 44.0352ZM358 17C349.552 17 341 18.9232 341 22.6V22.6832C343.576 25.2032 349.453 26.6 358 26.6C366.547 26.6 372.424 25.2032 375 22.6832V22.6C375 18.9232 366.448 17 358 17Z" stroke="url(#paint16_linear_4953_3129)"/>
<path d="M341 24.8352V32.2832C343.576 34.8032 349.453 36.2 358 36.2C366.547 36.2 372.424 34.8032 375 32.2832V24.8352C372.201 26.7184 367.118 28.2 358 28.2C348.882 28.2 343.799 26.7184 341 24.8352Z" stroke="url(#paint17_linear_4953_3129)"/>
</g>
<g opacity="0.2">
<path d="M48.5 86.4353V93.8833C51.0759 96.4033 56.953 97.8001 65.5 97.8001C74.047 97.8001 79.9241 96.4033 82.5 93.8833V86.4353C79.7007 88.3185 74.6184 89.8001 65.5 89.8001C56.3816 89.8001 51.2993 88.3185 48.5 86.4353Z" fill="#0A0F2B" fill-opacity="0.8"/>
<path d="M48.5 96.0352V103.4C48.5 107.077 57.0518 109 65.5 109C73.9482 109 82.5 107.077 82.5 103.4V96.0352C79.7007 97.9184 74.6184 99.4 65.5 99.4C56.3816 99.4 51.2993 97.9184 48.5 96.0352ZM65.5 69C57.0518 69 48.5 70.9232 48.5 74.6V74.6832C51.0759 77.2032 56.953 78.6 65.5 78.6C74.047 78.6 79.9241 77.2032 82.5 74.6832V74.6C82.5 70.9232 73.9482 69 65.5 69Z" fill="#0A0F2B" fill-opacity="0.8"/>
<path d="M48.5 76.8352V84.2832C51.0759 86.8032 56.953 88.2 65.5 88.2C74.047 88.2 79.9241 86.8032 82.5 84.2832V76.8352C79.7007 78.7184 74.6184 80.2 65.5 80.2C56.3816 80.2 51.2993 78.7184 48.5 76.8352Z" fill="#0A0F2B" fill-opacity="0.8"/>
<path d="M48.5 86.4353V93.8833C51.0759 96.4033 56.953 97.8001 65.5 97.8001C74.047 97.8001 79.9241 96.4033 82.5 93.8833V86.4353C79.7007 88.3185 74.6184 89.8001 65.5 89.8001C56.3816 89.8001 51.2993 88.3185 48.5 86.4353Z" stroke="url(#paint18_linear_4953_3129)"/>
<path d="M48.5 96.0352V103.4C48.5 107.077 57.0518 109 65.5 109C73.9482 109 82.5 107.077 82.5 103.4V96.0352C79.7007 97.9184 74.6184 99.4 65.5 99.4C56.3816 99.4 51.2993 97.9184 48.5 96.0352ZM65.5 69C57.0518 69 48.5 70.9232 48.5 74.6V74.6832C51.0759 77.2032 56.953 78.6 65.5 78.6C74.047 78.6 79.9241 77.2032 82.5 74.6832V74.6C82.5 70.9232 73.9482 69 65.5 69Z" stroke="url(#paint19_linear_4953_3129)"/>
<path d="M48.5 76.8352V84.2832C51.0759 86.8032 56.953 88.2 65.5 88.2C74.047 88.2 79.9241 86.8032 82.5 84.2832V76.8352C79.7007 78.7184 74.6184 80.2 65.5 80.2C56.3816 80.2 51.2993 78.7184 48.5 76.8352Z" stroke="url(#paint20_linear_4953_3129)"/>
</g>
<g opacity="0.2">
<path d="M113.5 86.4353V93.8833C116.076 96.4033 121.953 97.8001 130.5 97.8001C139.047 97.8001 144.924 96.4033 147.5 93.8833V86.4353C144.701 88.3185 139.618 89.8001 130.5 89.8001C121.382 89.8001 116.299 88.3185 113.5 86.4353Z" fill="#0A0F2B" fill-opacity="0.8"/>
<path d="M113.5 96.0352V103.4C113.5 107.077 122.052 109 130.5 109C138.948 109 147.5 107.077 147.5 103.4V96.0352C144.701 97.9184 139.618 99.4 130.5 99.4C121.382 99.4 116.299 97.9184 113.5 96.0352ZM130.5 69C122.052 69 113.5 70.9232 113.5 74.6V74.6832C116.076 77.2032 121.953 78.6 130.5 78.6C139.047 78.6 144.924 77.2032 147.5 74.6832V74.6C147.5 70.9232 138.948 69 130.5 69Z" fill="#0A0F2B" fill-opacity="0.8"/>
<path d="M113.5 76.8352V84.2832C116.076 86.8032 121.953 88.2 130.5 88.2C139.047 88.2 144.924 86.8032 147.5 84.2832V76.8352C144.701 78.7184 139.618 80.2 130.5 80.2C121.382 80.2 116.299 78.7184 113.5 76.8352Z" fill="#0A0F2B" fill-opacity="0.8"/>
<path d="M113.5 86.4353V93.8833C116.076 96.4033 121.953 97.8001 130.5 97.8001C139.047 97.8001 144.924 96.4033 147.5 93.8833V86.4353C144.701 88.3185 139.618 89.8001 130.5 89.8001C121.382 89.8001 116.299 88.3185 113.5 86.4353Z" stroke="url(#paint21_linear_4953_3129)"/>
<path d="M113.5 96.0352V103.4C113.5 107.077 122.052 109 130.5 109C138.948 109 147.5 107.077 147.5 103.4V96.0352C144.701 97.9184 139.618 99.4 130.5 99.4C121.382 99.4 116.299 97.9184 113.5 96.0352ZM130.5 69C122.052 69 113.5 70.9232 113.5 74.6V74.6832C116.076 77.2032 121.953 78.6 130.5 78.6C139.047 78.6 144.924 77.2032 147.5 74.6832V74.6C147.5 70.9232 138.948 69 130.5 69Z" stroke="url(#paint22_linear_4953_3129)"/>
<path d="M113.5 76.8352V84.2832C116.076 86.8032 121.953 88.2 130.5 88.2C139.047 88.2 144.924 86.8032 147.5 84.2832V76.8352C144.701 78.7184 139.618 80.2 130.5 80.2C121.382 80.2 116.299 78.7184 113.5 76.8352Z" stroke="url(#paint23_linear_4953_3129)"/>
</g>
<path d="M178.5 86.4353V93.8833C181.076 96.4033 186.953 97.8001 195.5 97.8001C204.047 97.8001 209.924 96.4033 212.5 93.8833V86.4353C209.701 88.3185 204.618 89.8001 195.5 89.8001C186.382 89.8001 181.299 88.3185 178.5 86.4353Z" fill="#0A0F2B" fill-opacity="0.8"/>
<path d="M178.5 96.0352V103.4C178.5 107.077 187.052 109 195.5 109C203.948 109 212.5 107.077 212.5 103.4V96.0352C209.701 97.9184 204.618 99.4 195.5 99.4C186.382 99.4 181.299 97.9184 178.5 96.0352ZM195.5 69C187.052 69 178.5 70.9232 178.5 74.6V74.6832C181.076 77.2032 186.953 78.6 195.5 78.6C204.047 78.6 209.924 77.2032 212.5 74.6832V74.6C212.5 70.9232 203.948 69 195.5 69Z" fill="#0A0F2B" fill-opacity="0.8"/>
<path d="M178.5 76.8352V84.2832C181.076 86.8032 186.953 88.2 195.5 88.2C204.047 88.2 209.924 86.8032 212.5 84.2832V76.8352C209.701 78.7184 204.618 80.2 195.5 80.2C186.382 80.2 181.299 78.7184 178.5 76.8352Z" fill="#0A0F2B" fill-opacity="0.8"/>
<path d="M178.5 86.4353V93.8833C181.076 96.4033 186.953 97.8001 195.5 97.8001C204.047 97.8001 209.924 96.4033 212.5 93.8833V86.4353C209.701 88.3185 204.618 89.8001 195.5 89.8001C186.382 89.8001 181.299 88.3185 178.5 86.4353Z" stroke="url(#paint24_linear_4953_3129)"/>
<path d="M178.5 96.0352V103.4C178.5 107.077 187.052 109 195.5 109C203.948 109 212.5 107.077 212.5 103.4V96.0352C209.701 97.9184 204.618 99.4 195.5 99.4C186.382 99.4 181.299 97.9184 178.5 96.0352ZM195.5 69C187.052 69 178.5 70.9232 178.5 74.6V74.6832C181.076 77.2032 186.953 78.6 195.5 78.6C204.047 78.6 209.924 77.2032 212.5 74.6832V74.6C212.5 70.9232 203.948 69 195.5 69Z" stroke="url(#paint25_linear_4953_3129)"/>
<path d="M178.5 76.8352V84.2832C181.076 86.8032 186.953 88.2 195.5 88.2C204.047 88.2 209.924 86.8032 212.5 84.2832V76.8352C209.701 78.7184 204.618 80.2 195.5 80.2C186.382 80.2 181.299 78.7184 178.5 76.8352Z" stroke="url(#paint26_linear_4953_3129)"/>
<g opacity="0.2">
<path d="M243.5 86.4353V93.8833C246.076 96.4033 251.953 97.8001 260.5 97.8001C269.047 97.8001 274.924 96.4033 277.5 93.8833V86.4353C274.701 88.3185 269.618 89.8001 260.5 89.8001C251.382 89.8001 246.299 88.3185 243.5 86.4353Z" fill="#0A0F2B" fill-opacity="0.8"/>
<path d="M243.5 96.0352V103.4C243.5 107.077 252.052 109 260.5 109C268.948 109 277.5 107.077 277.5 103.4V96.0352C274.701 97.9184 269.618 99.4 260.5 99.4C251.382 99.4 246.299 97.9184 243.5 96.0352ZM260.5 69C252.052 69 243.5 70.9232 243.5 74.6V74.6832C246.076 77.2032 251.953 78.6 260.5 78.6C269.047 78.6 274.924 77.2032 277.5 74.6832V74.6C277.5 70.9232 268.948 69 260.5 69Z" fill="#0A0F2B" fill-opacity="0.8"/>
<path d="M243.5 76.8352V84.2832C246.076 86.8032 251.953 88.2 260.5 88.2C269.047 88.2 274.924 86.8032 277.5 84.2832V76.8352C274.701 78.7184 269.618 80.2 260.5 80.2C251.382 80.2 246.299 78.7184 243.5 76.8352Z" fill="#0A0F2B" fill-opacity="0.8"/>
<path d="M243.5 86.4353V93.8833C246.076 96.4033 251.953 97.8001 260.5 97.8001C269.047 97.8001 274.924 96.4033 277.5 93.8833V86.4353C274.701 88.3185 269.618 89.8001 260.5 89.8001C251.382 89.8001 246.299 88.3185 243.5 86.4353Z" stroke="url(#paint27_linear_4953_3129)"/>
<path d="M243.5 96.0352V103.4C243.5 107.077 252.052 109 260.5 109C268.948 109 277.5 107.077 277.5 103.4V96.0352C274.701 97.9184 269.618 99.4 260.5 99.4C251.382 99.4 246.299 97.9184 243.5 96.0352ZM260.5 69C252.052 69 243.5 70.9232 243.5 74.6V74.6832C246.076 77.2032 251.953 78.6 260.5 78.6C269.047 78.6 274.924 77.2032 277.5 74.6832V74.6C277.5 70.9232 268.948 69 260.5 69Z" stroke="url(#paint28_linear_4953_3129)"/>
<path d="M243.5 76.8352V84.2832C246.076 86.8032 251.953 88.2 260.5 88.2C269.047 88.2 274.924 86.8032 277.5 84.2832V76.8352C274.701 78.7184 269.618 80.2 260.5 80.2C251.382 80.2 246.299 78.7184 243.5 76.8352Z" stroke="url(#paint29_linear_4953_3129)"/>
</g>
<g opacity="0.2">
<path d="M308.5 86.4353V93.8833C311.076 96.4033 316.953 97.8001 325.5 97.8001C334.047 97.8001 339.924 96.4033 342.5 93.8833V86.4353C339.701 88.3185 334.618 89.8001 325.5 89.8001C316.382 89.8001 311.299 88.3185 308.5 86.4353Z" fill="#0A0F2B" fill-opacity="0.8"/>
<path d="M308.5 96.0352V103.4C308.5 107.077 317.052 109 325.5 109C333.948 109 342.5 107.077 342.5 103.4V96.0352C339.701 97.9184 334.618 99.4 325.5 99.4C316.382 99.4 311.299 97.9184 308.5 96.0352ZM325.5 69C317.052 69 308.5 70.9232 308.5 74.6V74.6832C311.076 77.2032 316.953 78.6 325.5 78.6C334.047 78.6 339.924 77.2032 342.5 74.6832V74.6C342.5 70.9232 333.948 69 325.5 69Z" fill="#0A0F2B" fill-opacity="0.8"/>
<path d="M308.5 76.8352V84.2832C311.076 86.8032 316.953 88.2 325.5 88.2C334.047 88.2 339.924 86.8032 342.5 84.2832V76.8352C339.701 78.7184 334.618 80.2 325.5 80.2C316.382 80.2 311.299 78.7184 308.5 76.8352Z" fill="#0A0F2B" fill-opacity="0.8"/>
<path d="M308.5 86.4353V93.8833C311.076 96.4033 316.953 97.8001 325.5 97.8001C334.047 97.8001 339.924 96.4033 342.5 93.8833V86.4353C339.701 88.3185 334.618 89.8001 325.5 89.8001C316.382 89.8001 311.299 88.3185 308.5 86.4353Z" stroke="url(#paint30_linear_4953_3129)"/>
<path d="M308.5 96.0352V103.4C308.5 107.077 317.052 109 325.5 109C333.948 109 342.5 107.077 342.5 103.4V96.0352C339.701 97.9184 334.618 99.4 325.5 99.4C316.382 99.4 311.299 97.9184 308.5 96.0352ZM325.5 69C317.052 69 308.5 70.9232 308.5 74.6V74.6832C311.076 77.2032 316.953 78.6 325.5 78.6C334.047 78.6 339.924 77.2032 342.5 74.6832V74.6C342.5 70.9232 333.948 69 325.5 69Z" stroke="url(#paint31_linear_4953_3129)"/>
<path d="M308.5 76.8352V84.2832C311.076 86.8032 316.953 88.2 325.5 88.2C334.047 88.2 339.924 86.8032 342.5 84.2832V76.8352C339.701 78.7184 334.618 80.2 325.5 80.2C316.382 80.2 311.299 78.7184 308.5 76.8352Z" stroke="url(#paint32_linear_4953_3129)"/>
</g>
<g opacity="0.2">
<path d="M16 138.435V145.883C18.5759 148.403 24.453 149.8 33 149.8C41.547 149.8 47.4241 148.403 50 145.883V138.435C47.2007 140.319 42.1184 141.8 33 141.8C23.8816 141.8 18.7993 140.319 16 138.435Z" fill="#0A0F2B" fill-opacity="0.8"/>
<path d="M16 148.035V155.4C16 159.077 24.5518 161 33 161C41.4482 161 50 159.077 50 155.4V148.035C47.2007 149.918 42.1184 151.4 33 151.4C23.8816 151.4 18.7993 149.918 16 148.035ZM33 121C24.5518 121 16 122.923 16 126.6V126.683C18.5759 129.203 24.453 130.6 33 130.6C41.547 130.6 47.4241 129.203 50 126.683V126.6C50 122.923 41.4482 121 33 121Z" fill="#0A0F2B" fill-opacity="0.8"/>
<path d="M16 128.835V136.283C18.5759 138.803 24.453 140.2 33 140.2C41.547 140.2 47.4241 138.803 50 136.283V128.835C47.2007 130.718 42.1184 132.2 33 132.2C23.8816 132.2 18.7993 130.718 16 128.835Z" fill="#0A0F2B" fill-opacity="0.8"/>
<path d="M16 138.435V145.883C18.5759 148.403 24.453 149.8 33 149.8C41.547 149.8 47.4241 148.403 50 145.883V138.435C47.2007 140.319 42.1184 141.8 33 141.8C23.8816 141.8 18.7993 140.319 16 138.435Z" stroke="url(#paint33_linear_4953_3129)"/>
<path d="M16 148.035V155.4C16 159.077 24.5518 161 33 161C41.4482 161 50 159.077 50 155.4V148.035C47.2007 149.918 42.1184 151.4 33 151.4C23.8816 151.4 18.7993 149.918 16 148.035ZM33 121C24.5518 121 16 122.923 16 126.6V126.683C18.5759 129.203 24.453 130.6 33 130.6C41.547 130.6 47.4241 129.203 50 126.683V126.6C50 122.923 41.4482 121 33 121Z" stroke="url(#paint34_linear_4953_3129)"/>
<path d="M16 128.835V136.283C18.5759 138.803 24.453 140.2 33 140.2C41.547 140.2 47.4241 138.803 50 136.283V128.835C47.2007 130.718 42.1184 132.2 33 132.2C23.8816 132.2 18.7993 130.718 16 128.835Z" stroke="url(#paint35_linear_4953_3129)"/>
</g>
<g opacity="0.5">
<path d="M81 138.435V145.883C83.5759 148.403 89.453 149.8 98 149.8C106.547 149.8 112.424 148.403 115 145.883V138.435C112.201 140.319 107.118 141.8 98 141.8C88.8816 141.8 83.7993 140.319 81 138.435Z" fill="#0A0F2B" fill-opacity="0.8"/>
<path d="M81 148.035V155.4C81 159.077 89.5518 161 98 161C106.448 161 115 159.077 115 155.4V148.035C112.201 149.918 107.118 151.4 98 151.4C88.8816 151.4 83.7993 149.918 81 148.035ZM98 121C89.5518 121 81 122.923 81 126.6V126.683C83.5759 129.203 89.453 130.6 98 130.6C106.547 130.6 112.424 129.203 115 126.683V126.6C115 122.923 106.448 121 98 121Z" fill="#0A0F2B" fill-opacity="0.8"/>
<path d="M81 128.835V136.283C83.5759 138.803 89.453 140.2 98 140.2C106.547 140.2 112.424 138.803 115 136.283V128.835C112.201 130.718 107.118 132.2 98 132.2C88.8816 132.2 83.7993 130.718 81 128.835Z" fill="#0A0F2B" fill-opacity="0.8"/>
<path d="M81 138.435V145.883C83.5759 148.403 89.453 149.8 98 149.8C106.547 149.8 112.424 148.403 115 145.883V138.435C112.201 140.319 107.118 141.8 98 141.8C88.8816 141.8 83.7993 140.319 81 138.435Z" stroke="url(#paint36_linear_4953_3129)"/>
<path d="M81 148.035V155.4C81 159.077 89.5518 161 98 161C106.448 161 115 159.077 115 155.4V148.035C112.201 149.918 107.118 151.4 98 151.4C88.8816 151.4 83.7993 149.918 81 148.035ZM98 121C89.5518 121 81 122.923 81 126.6V126.683C83.5759 129.203 89.453 130.6 98 130.6C106.547 130.6 112.424 129.203 115 126.683V126.6C115 122.923 106.448 121 98 121Z" stroke="url(#paint37_linear_4953_3129)"/>
<path d="M81 128.835V136.283C83.5759 138.803 89.453 140.2 98 140.2C106.547 140.2 112.424 138.803 115 136.283V128.835C112.201 130.718 107.118 132.2 98 132.2C88.8816 132.2 83.7993 130.718 81 128.835Z" stroke="url(#paint38_linear_4953_3129)"/>
</g>
<path d="M146 138.435V145.883C148.576 148.403 154.453 149.8 163 149.8C171.547 149.8 177.424 148.403 180 145.883V138.435C177.201 140.319 172.118 141.8 163 141.8C153.882 141.8 148.799 140.319 146 138.435Z" fill="#0A0F2B" fill-opacity="0.8"/>
<path d="M146 148.035V155.4C146 159.077 154.552 161 163 161C171.448 161 180 159.077 180 155.4V148.035C177.201 149.918 172.118 151.4 163 151.4C153.882 151.4 148.799 149.918 146 148.035ZM163 121C154.552 121 146 122.923 146 126.6V126.683C148.576 129.203 154.453 130.6 163 130.6C171.547 130.6 177.424 129.203 180 126.683V126.6C180 122.923 171.448 121 163 121Z" fill="#0A0F2B" fill-opacity="0.8"/>
<path d="M146 128.835V136.283C148.576 138.803 154.453 140.2 163 140.2C171.547 140.2 177.424 138.803 180 136.283V128.835C177.201 130.718 172.118 132.2 163 132.2C153.882 132.2 148.799 130.718 146 128.835Z" fill="#0A0F2B" fill-opacity="0.8"/>
<path d="M146 138.435V145.883C148.576 148.403 154.453 149.8 163 149.8C171.547 149.8 177.424 148.403 180 145.883V138.435C177.201 140.319 172.118 141.8 163 141.8C153.882 141.8 148.799 140.319 146 138.435Z" stroke="url(#paint39_linear_4953_3129)"/>
<path d="M146 148.035V155.4C146 159.077 154.552 161 163 161C171.448 161 180 159.077 180 155.4V148.035C177.201 149.918 172.118 151.4 163 151.4C153.882 151.4 148.799 149.918 146 148.035ZM163 121C154.552 121 146 122.923 146 126.6V126.683C148.576 129.203 154.453 130.6 163 130.6C171.547 130.6 177.424 129.203 180 126.683V126.6C180 122.923 171.448 121 163 121Z" stroke="url(#paint40_linear_4953_3129)"/>
<path d="M146 128.835V136.283C148.576 138.803 154.453 140.2 163 140.2C171.547 140.2 177.424 138.803 180 136.283V128.835C177.201 130.718 172.118 132.2 163 132.2C153.882 132.2 148.799 130.718 146 128.835Z" stroke="url(#paint41_linear_4953_3129)"/>
<path d="M211 138.435V145.883C213.576 148.403 219.453 149.8 228 149.8C236.547 149.8 242.424 148.403 245 145.883V138.435C242.201 140.319 237.118 141.8 228 141.8C218.882 141.8 213.799 140.319 211 138.435Z" fill="#0A0F2B" fill-opacity="0.8"/>
<path d="M211 148.035V155.4C211 159.077 219.552 161 228 161C236.448 161 245 159.077 245 155.4V148.035C242.201 149.918 237.118 151.4 228 151.4C218.882 151.4 213.799 149.918 211 148.035ZM228 121C219.552 121 211 122.923 211 126.6V126.683C213.576 129.203 219.453 130.6 228 130.6C236.547 130.6 242.424 129.203 245 126.683V126.6C245 122.923 236.448 121 228 121Z" fill="#0A0F2B" fill-opacity="0.8"/>
<path d="M211 128.835V136.283C213.576 138.803 219.453 140.2 228 140.2C236.547 140.2 242.424 138.803 245 136.283V128.835C242.201 130.718 237.118 132.2 228 132.2C218.882 132.2 213.799 130.718 211 128.835Z" fill="#0A0F2B" fill-opacity="0.8"/>
<path d="M211 138.435V145.883C213.576 148.403 219.453 149.8 228 149.8C236.547 149.8 242.424 148.403 245 145.883V138.435C242.201 140.319 237.118 141.8 228 141.8C218.882 141.8 213.799 140.319 211 138.435Z" stroke="url(#paint42_linear_4953_3129)"/>
<path d="M211 148.035V155.4C211 159.077 219.552 161 228 161C236.448 161 245 159.077 245 155.4V148.035C242.201 149.918 237.118 151.4 228 151.4C218.882 151.4 213.799 149.918 211 148.035ZM228 121C219.552 121 211 122.923 211 126.6V126.683C213.576 129.203 219.453 130.6 228 130.6C236.547 130.6 242.424 129.203 245 126.683V126.6C245 122.923 236.448 121 228 121Z" stroke="url(#paint43_linear_4953_3129)"/>
<path d="M211 128.835V136.283C213.576 138.803 219.453 140.2 228 140.2C236.547 140.2 242.424 138.803 245 136.283V128.835C242.201 130.718 237.118 132.2 228 132.2C218.882 132.2 213.799 130.718 211 128.835Z" stroke="url(#paint44_linear_4953_3129)"/>
<g opacity="0.5">
<path d="M276 138.435V145.883C278.576 148.403 284.453 149.8 293 149.8C301.547 149.8 307.424 148.403 310 145.883V138.435C307.201 140.319 302.118 141.8 293 141.8C283.882 141.8 278.799 140.319 276 138.435Z" fill="#0A0F2B" fill-opacity="0.8"/>
<path d="M276 148.035V155.4C276 159.077 284.552 161 293 161C301.448 161 310 159.077 310 155.4V148.035C307.201 149.918 302.118 151.4 293 151.4C283.882 151.4 278.799 149.918 276 148.035ZM293 121C284.552 121 276 122.923 276 126.6V126.683C278.576 129.203 284.453 130.6 293 130.6C301.547 130.6 307.424 129.203 310 126.683V126.6C310 122.923 301.448 121 293 121Z" fill="#0A0F2B" fill-opacity="0.8"/>
<path d="M276 128.835V136.283C278.576 138.803 284.453 140.2 293 140.2C301.547 140.2 307.424 138.803 310 136.283V128.835C307.201 130.718 302.118 132.2 293 132.2C283.882 132.2 278.799 130.718 276 128.835Z" fill="#0A0F2B" fill-opacity="0.8"/>
<path d="M276 138.435V145.883C278.576 148.403 284.453 149.8 293 149.8C301.547 149.8 307.424 148.403 310 145.883V138.435C307.201 140.319 302.118 141.8 293 141.8C283.882 141.8 278.799 140.319 276 138.435Z" stroke="url(#paint45_linear_4953_3129)"/>
<path d="M276 148.035V155.4C276 159.077 284.552 161 293 161C301.448 161 310 159.077 310 155.4V148.035C307.201 149.918 302.118 151.4 293 151.4C283.882 151.4 278.799 149.918 276 148.035ZM293 121C284.552 121 276 122.923 276 126.6V126.683C278.576 129.203 284.453 130.6 293 130.6C301.547 130.6 307.424 129.203 310 126.683V126.6C310 122.923 301.448 121 293 121Z" stroke="url(#paint46_linear_4953_3129)"/>
<path d="M276 128.835V136.283C278.576 138.803 284.453 140.2 293 140.2C301.547 140.2 307.424 138.803 310 136.283V128.835C307.201 130.718 302.118 132.2 293 132.2C283.882 132.2 278.799 130.718 276 128.835Z" stroke="url(#paint47_linear_4953_3129)"/>
</g>
<g opacity="0.2">
<path d="M341 138.435V145.883C343.576 148.403 349.453 149.8 358 149.8C366.547 149.8 372.424 148.403 375 145.883V138.435C372.201 140.319 367.118 141.8 358 141.8C348.882 141.8 343.799 140.319 341 138.435Z" fill="#0A0F2B" fill-opacity="0.8"/>
<path d="M341 148.035V155.4C341 159.077 349.552 161 358 161C366.448 161 375 159.077 375 155.4V148.035C372.201 149.918 367.118 151.4 358 151.4C348.882 151.4 343.799 149.918 341 148.035ZM358 121C349.552 121 341 122.923 341 126.6V126.683C343.576 129.203 349.453 130.6 358 130.6C366.547 130.6 372.424 129.203 375 126.683V126.6C375 122.923 366.448 121 358 121Z" fill="#0A0F2B" fill-opacity="0.8"/>
<path d="M341 128.835V136.283C343.576 138.803 349.453 140.2 358 140.2C366.547 140.2 372.424 138.803 375 136.283V128.835C372.201 130.718 367.118 132.2 358 132.2C348.882 132.2 343.799 130.718 341 128.835Z" fill="#0A0F2B" fill-opacity="0.8"/>
<path d="M341 138.435V145.883C343.576 148.403 349.453 149.8 358 149.8C366.547 149.8 372.424 148.403 375 145.883V138.435C372.201 140.319 367.118 141.8 358 141.8C348.882 141.8 343.799 140.319 341 138.435Z" stroke="url(#paint48_linear_4953_3129)"/>
<path d="M341 148.035V155.4C341 159.077 349.552 161 358 161C366.448 161 375 159.077 375 155.4V148.035C372.201 149.918 367.118 151.4 358 151.4C348.882 151.4 343.799 149.918 341 148.035ZM358 121C349.552 121 341 122.923 341 126.6V126.683C343.576 129.203 349.453 130.6 358 130.6C366.547 130.6 372.424 129.203 375 126.683V126.6C375 122.923 366.448 121 358 121Z" stroke="url(#paint49_linear_4953_3129)"/>
<path d="M341 128.835V136.283C343.576 138.803 349.453 140.2 358 140.2C366.547 140.2 372.424 138.803 375 136.283V128.835C372.201 130.718 367.118 132.2 358 132.2C348.882 132.2 343.799 130.718 341 128.835Z" stroke="url(#paint50_linear_4953_3129)"/>
</g>
<ellipse cx="135" cy="87.5" rx="65" ry="65.5" fill="#0A0F2B" fill-opacity="0.8" stroke="url(#paint51_linear_4953_3129)"/>
<ellipse cx="257" cy="87.5" rx="65" ry="65.5" fill="#0A0F2B" fill-opacity="0.8" stroke="url(#paint52_linear_4953_3129)"/>
<g opacity="0.2" filter="url(#filter0_f_4953_3129)">
<ellipse cx="135" cy="87.5" rx="55" ry="55.5" fill="#3FA1E3"/>
</g>
<circle opacity="0.1" cx="135" cy="88" r="73.5" stroke="#3FA1E3"/>
<circle opacity="0.1" cx="258" cy="88" r="73.5" stroke="#3FA1E3"/>
<g opacity="0.2" filter="url(#filter1_f_4953_3129)">
<circle cx="256.5" cy="87.5" r="55.5" fill="#3FA1E3"/>
</g>
<circle opacity="0.2" cx="135.5" cy="87.5" r="48" stroke="#3FA1E3"/>
<circle opacity="0.2" cx="257.5" cy="87.5" r="48" stroke="#3FA1E3"/>
<path d="M110.896 84.9049L120.357 68.9442C121.618 66.8176 123.907 65.5137 126.379 65.5137H142.954C145.427 65.5137 147.715 66.8176 148.976 68.9442L158.437 84.9049C159.731 87.0881 159.742 89.8008 158.466 91.9945L148.967 108.322C147.714 110.476 145.409 111.801 142.916 111.801H126.417C123.924 111.801 121.62 110.476 120.366 108.322L110.867 91.9945C109.591 89.8008 109.602 87.0881 110.896 84.9049Z" fill="url(#paint53_linear_4953_3129)"/>
<path d="M131.943 73.6855H125.953L116.968 88.0099L125.953 103.636H131.943L122.958 88.0099L131.943 73.6855Z" fill="#131313"/>
<path d="M137.39 73.6855H143.38L152.365 88.0099L143.38 103.636H137.39L146.375 88.0099L137.39 73.6855Z" fill="#131313"/>
<path d="M271.927 65.881C274.239 65.8788 276.541 66.1768 278.776 66.7667C279.73 67.0241 280.669 67.335 281.588 67.6983C281.604 67.7179 281.613 67.7431 281.613 67.7686C281.613 67.794 281.604 67.8185 281.588 67.838C281.194 68.6663 280.769 69.4739 280.313 70.2608C280.295 70.2734 280.274 70.2803 280.252 70.2804C280.23 70.2804 280.208 70.2735 280.189 70.2608C279.27 69.9267 278.331 69.6463 277.379 69.422C271.23 67.9995 264.769 69.025 259.362 72.2804C261.694 74.2554 263.679 76.6074 265.233 79.2384C265.544 79.7663 265.916 80.4495 266.087 80.7911C266.258 81.1327 266.351 81.3036 266.6 81.8624C266.848 82.4215 267.081 82.9811 267.299 83.5558C268.424 86.5819 268.997 89.7853 268.991 93.0138C268.993 96.6732 268.253 100.295 266.817 103.661C265.381 107.027 263.279 110.068 260.636 112.599C260.232 112.987 259.72 113.437 259.378 113.733C259.036 114.028 258.787 114.23 258.337 114.571C257.887 114.913 257.421 115.239 256.955 115.565C256.937 115.577 256.915 115.584 256.893 115.584C256.87 115.584 256.849 115.577 256.831 115.565C256.365 115.254 255.805 114.835 255.448 114.571C255.091 114.307 254.843 114.105 254.408 113.733C253.973 113.36 253.553 112.987 253.149 112.599C249.325 108.937 246.656 104.235 245.472 99.0743C244.288 93.9133 244.641 88.5186 246.487 83.5558C246.689 82.9966 246.999 82.2508 247.17 81.878C247.341 81.5054 247.403 81.3502 247.683 80.8067C247.962 80.2633 248.227 79.7509 248.537 79.254C250.089 76.6215 252.074 74.2691 254.408 72.296C249.014 69.0235 242.559 67.9763 236.407 69.3761C235.455 69.6014 234.516 69.8816 233.596 70.2149C233.578 70.2274 233.556 70.2344 233.534 70.2345C233.512 70.2345 233.49 70.2276 233.472 70.2149C233.001 69.4248 232.57 68.6107 232.183 67.7765C232.166 67.7569 232.157 67.7317 232.157 67.7061C232.157 67.6807 232.166 67.6563 232.183 67.6368C233.092 67.2935 234.02 67.0027 234.963 66.7667C237.213 66.1729 239.531 65.8748 241.858 65.881C247.21 65.8739 252.443 67.4582 256.893 70.4317C261.343 67.4599 266.575 65.8759 271.927 65.881ZM248.879 85.7481C247.58 89.8542 247.403 94.2334 248.367 98.4308C249.331 102.628 251.401 106.491 254.361 109.619C255.103 107.268 255.48 104.816 255.479 102.351C255.49 96.1748 253.127 90.2306 248.879 85.7481ZM264.953 85.7481C260.705 90.2306 258.342 96.1748 258.353 102.351C258.355 104.816 258.732 107.267 259.471 109.619C263.718 105.136 266.082 99.1924 266.072 93.0167C266.071 90.5512 265.693 88.1 264.953 85.7481ZM256.893 74.0509C254.746 75.7529 252.903 77.806 251.441 80.1231C253.229 80.5378 255.058 80.7461 256.893 80.7442C258.728 80.7471 260.557 80.5388 262.345 80.1231C260.881 77.8073 259.038 75.7547 256.893 74.0509Z" fill="url(#paint54_linear_4953_3129)"/>
<defs>
<filter id="filter0_f_4953_3129" x="48" y="0" width="174" height="175" filterUnits="userSpaceOnUse" color-interpolation-filters="sRGB">
<feFlood flood-opacity="0" result="BackgroundImageFix"/>
<feBlend mode="normal" in="SourceGraphic" in2="BackgroundImageFix" result="shape"/>
<feGaussianBlur stdDeviation="16" result="effect1_foregroundBlur_4953_3129"/>
</filter>
<filter id="filter1_f_4953_3129" x="169" y="0" width="175" height="175" filterUnits="userSpaceOnUse" color-interpolation-filters="sRGB">
<feFlood flood-opacity="0" result="BackgroundImageFix"/>
<feBlend mode="normal" in="SourceGraphic" in2="BackgroundImageFix" result="shape"/>
<feGaussianBlur stdDeviation="16" result="effect1_foregroundBlur_4953_3129"/>
</filter>
<linearGradient id="paint0_linear_4953_3129" x1="33" y1="17" x2="33" y2="57" gradientUnits="userSpaceOnUse">
<stop stop-color="#3FA1E3"/>
<stop offset="1" stop-color="#3FA1E3" stop-opacity="0.35"/>
</linearGradient>
<linearGradient id="paint1_linear_4953_3129" x1="33" y1="17" x2="33" y2="57" gradientUnits="userSpaceOnUse">
<stop stop-color="#3FA1E3"/>
<stop offset="1" stop-color="#3FA1E3" stop-opacity="0.35"/>
</linearGradient>
<linearGradient id="paint2_linear_4953_3129" x1="33" y1="17" x2="33" y2="57" gradientUnits="userSpaceOnUse">
<stop stop-color="#3FA1E3"/>
<stop offset="1" stop-color="#3FA1E3" stop-opacity="0.35"/>
</linearGradient>
<linearGradient id="paint3_linear_4953_3129" x1="98" y1="17" x2="98" y2="57" gradientUnits="userSpaceOnUse">
<stop stop-color="#3FA1E3"/>
<stop offset="1" stop-color="#3FA1E3" stop-opacity="0.35"/>
</linearGradient>
<linearGradient id="paint4_linear_4953_3129" x1="98" y1="17" x2="98" y2="57" gradientUnits="userSpaceOnUse">
<stop stop-color="#3FA1E3"/>
<stop offset="1" stop-color="#3FA1E3" stop-opacity="0.35"/>
</linearGradient>
<linearGradient id="paint5_linear_4953_3129" x1="98" y1="17" x2="98" y2="57" gradientUnits="userSpaceOnUse">
<stop stop-color="#3FA1E3"/>
<stop offset="1" stop-color="#3FA1E3" stop-opacity="0.35"/>
</linearGradient>
<linearGradient id="paint6_linear_4953_3129" x1="163" y1="17" x2="163" y2="57" gradientUnits="userSpaceOnUse">
<stop stop-color="#3FA1E3"/>
<stop offset="1" stop-color="#3FA1E3" stop-opacity="0.35"/>
</linearGradient>
<linearGradient id="paint7_linear_4953_3129" x1="163" y1="17" x2="163" y2="57" gradientUnits="userSpaceOnUse">
<stop stop-color="#3FA1E3"/>
<stop offset="1" stop-color="#3FA1E3" stop-opacity="0.35"/>
</linearGradient>
<linearGradient id="paint8_linear_4953_3129" x1="163" y1="17" x2="163" y2="57" gradientUnits="userSpaceOnUse">
<stop stop-color="#3FA1E3"/>
<stop offset="1" stop-color="#3FA1E3" stop-opacity="0.35"/>
</linearGradient>
<linearGradient id="paint9_linear_4953_3129" x1="228" y1="17" x2="228" y2="57" gradientUnits="userSpaceOnUse">
<stop stop-color="#3FA1E3"/>
<stop offset="1" stop-color="#3FA1E3" stop-opacity="0.35"/>
</linearGradient>
<linearGradient id="paint10_linear_4953_3129" x1="228" y1="17" x2="228" y2="57" gradientUnits="userSpaceOnUse">
<stop stop-color="#3FA1E3"/>
<stop offset="1" stop-color="#3FA1E3" stop-opacity="0.35"/>
</linearGradient>
<linearGradient id="paint11_linear_4953_3129" x1="228" y1="17" x2="228" y2="57" gradientUnits="userSpaceOnUse">
<stop stop-color="#3FA1E3"/>
<stop offset="1" stop-color="#3FA1E3" stop-opacity="0.35"/>
</linearGradient>
<linearGradient id="paint12_linear_4953_3129" x1="293" y1="17" x2="293" y2="57" gradientUnits="userSpaceOnUse">
<stop stop-color="#3FA1E3"/>
<stop offset="1" stop-color="#3FA1E3" stop-opacity="0.35"/>
</linearGradient>
<linearGradient id="paint13_linear_4953_3129" x1="293" y1="17" x2="293" y2="57" gradientUnits="userSpaceOnUse">
<stop stop-color="#3FA1E3"/>
<stop offset="1" stop-color="#3FA1E3" stop-opacity="0.35"/>
</linearGradient>
<linearGradient id="paint14_linear_4953_3129" x1="293" y1="17" x2="293" y2="57" gradientUnits="userSpaceOnUse">
<stop stop-color="#3FA1E3"/>
<stop offset="1" stop-color="#3FA1E3" stop-opacity="0.35"/>
</linearGradient>
<linearGradient id="paint15_linear_4953_3129" x1="358" y1="17" x2="358" y2="57" gradientUnits="userSpaceOnUse">
<stop stop-color="#3FA1E3"/>
<stop offset="1" stop-color="#3FA1E3" stop-opacity="0.35"/>
</linearGradient>
<linearGradient id="paint16_linear_4953_3129" x1="358" y1="17" x2="358" y2="57" gradientUnits="userSpaceOnUse">
<stop stop-color="#3FA1E3"/>
<stop offset="1" stop-color="#3FA1E3" stop-opacity="0.35"/>
</linearGradient>
<linearGradient id="paint17_linear_4953_3129" x1="358" y1="17" x2="358" y2="57" gradientUnits="userSpaceOnUse">
<stop stop-color="#3FA1E3"/>
<stop offset="1" stop-color="#3FA1E3" stop-opacity="0.35"/>
</linearGradient>
<linearGradient id="paint18_linear_4953_3129" x1="65.5" y1="69" x2="65.5" y2="109" gradientUnits="userSpaceOnUse">
<stop stop-color="#3FA1E3"/>
<stop offset="1" stop-color="#3FA1E3" stop-opacity="0.35"/>
</linearGradient>
<linearGradient id="paint19_linear_4953_3129" x1="65.5" y1="69" x2="65.5" y2="109" gradientUnits="userSpaceOnUse">
<stop stop-color="#3FA1E3"/>
<stop offset="1" stop-color="#3FA1E3" stop-opacity="0.35"/>
</linearGradient>
<linearGradient id="paint20_linear_4953_3129" x1="65.5" y1="69" x2="65.5" y2="109" gradientUnits="userSpaceOnUse">
<stop stop-color="#3FA1E3"/>
<stop offset="1" stop-color="#3FA1E3" stop-opacity="0.35"/>
</linearGradient>
<linearGradient id="paint21_linear_4953_3129" x1="130.5" y1="69" x2="130.5" y2="109" gradientUnits="userSpaceOnUse">
<stop stop-color="#3FA1E3"/>
<stop offset="1" stop-color="#3FA1E3" stop-opacity="0.35"/>
</linearGradient>
<linearGradient id="paint22_linear_4953_3129" x1="130.5" y1="69" x2="130.5" y2="109" gradientUnits="userSpaceOnUse">
<stop stop-color="#3FA1E3"/>
<stop offset="1" stop-color="#3FA1E3" stop-opacity="0.35"/>
</linearGradient>
<linearGradient id="paint23_linear_4953_3129" x1="130.5" y1="69" x2="130.5" y2="109" gradientUnits="userSpaceOnUse">
<stop stop-color="#3FA1E3"/>
<stop offset="1" stop-color="#3FA1E3" stop-opacity="0.35"/>
</linearGradient>
<linearGradient id="paint24_linear_4953_3129" x1="195.5" y1="69" x2="195.5" y2="109" gradientUnits="userSpaceOnUse">
<stop stop-color="#3FA1E3"/>
<stop offset="1" stop-color="#3FA1E3" stop-opacity="0.35"/>
</linearGradient>
<linearGradient id="paint25_linear_4953_3129" x1="195.5" y1="69" x2="195.5" y2="109" gradientUnits="userSpaceOnUse">
<stop stop-color="#3FA1E3"/>
<stop offset="1" stop-color="#3FA1E3" stop-opacity="0.35"/>
</linearGradient>
<linearGradient id="paint26_linear_4953_3129" x1="195.5" y1="69" x2="195.5" y2="109" gradientUnits="userSpaceOnUse">
<stop stop-color="#3FA1E3"/>
<stop offset="1" stop-color="#3FA1E3" stop-opacity="0.35"/>
</linearGradient>
<linearGradient id="paint27_linear_4953_3129" x1="260.5" y1="69" x2="260.5" y2="109" gradientUnits="userSpaceOnUse">
<stop stop-color="#3FA1E3"/>
<stop offset="1" stop-color="#3FA1E3" stop-opacity="0.35"/>
</linearGradient>
<linearGradient id="paint28_linear_4953_3129" x1="260.5" y1="69" x2="260.5" y2="109" gradientUnits="userSpaceOnUse">
<stop stop-color="#3FA1E3"/>
<stop offset="1" stop-color="#3FA1E3" stop-opacity="0.35"/>
</linearGradient>
<linearGradient id="paint29_linear_4953_3129" x1="260.5" y1="69" x2="260.5" y2="109" gradientUnits="userSpaceOnUse">
<stop stop-color="#3FA1E3"/>
<stop offset="1" stop-color="#3FA1E3" stop-opacity="0.35"/>
</linearGradient>
<linearGradient id="paint30_linear_4953_3129" x1="325.5" y1="69" x2="325.5" y2="109" gradientUnits="userSpaceOnUse">
<stop stop-color="#3FA1E3"/>
<stop offset="1" stop-color="#3FA1E3" stop-opacity="0.35"/>
</linearGradient>
<linearGradient id="paint31_linear_4953_3129" x1="325.5" y1="69" x2="325.5" y2="109" gradientUnits="userSpaceOnUse">
<stop stop-color="#3FA1E3"/>
<stop offset="1" stop-color="#3FA1E3" stop-opacity="0.35"/>
</linearGradient>
<linearGradient id="paint32_linear_4953_3129" x1="325.5" y1="69" x2="325.5" y2="109" gradientUnits="userSpaceOnUse">
<stop stop-color="#3FA1E3"/>
<stop offset="1" stop-color="#3FA1E3" stop-opacity="0.35"/>
</linearGradient>
<linearGradient id="paint33_linear_4953_3129" x1="33" y1="121" x2="33" y2="161" gradientUnits="userSpaceOnUse">
<stop stop-color="#3FA1E3"/>
<stop offset="1" stop-color="#3FA1E3" stop-opacity="0.35"/>
</linearGradient>
<linearGradient id="paint34_linear_4953_3129" x1="33" y1="121" x2="33" y2="161" gradientUnits="userSpaceOnUse">
<stop stop-color="#3FA1E3"/>
<stop offset="1" stop-color="#3FA1E3" stop-opacity="0.35"/>
</linearGradient>
<linearGradient id="paint35_linear_4953_3129" x1="33" y1="121" x2="33" y2="161" gradientUnits="userSpaceOnUse">
<stop stop-color="#3FA1E3"/>
<stop offset="1" stop-color="#3FA1E3" stop-opacity="0.35"/>
</linearGradient>
<linearGradient id="paint36_linear_4953_3129" x1="98" y1="121" x2="98" y2="161" gradientUnits="userSpaceOnUse">
<stop stop-color="#3FA1E3"/>
<stop offset="1" stop-color="#3FA1E3" stop-opacity="0.35"/>
</linearGradient>
<linearGradient id="paint37_linear_4953_3129" x1="98" y1="121" x2="98" y2="161" gradientUnits="userSpaceOnUse">
<stop stop-color="#3FA1E3"/>
<stop offset="1" stop-color="#3FA1E3" stop-opacity="0.35"/>
</linearGradient>
<linearGradient id="paint38_linear_4953_3129" x1="98" y1="121" x2="98" y2="161" gradientUnits="userSpaceOnUse">
<stop stop-color="#3FA1E3"/>
<stop offset="1" stop-color="#3FA1E3" stop-opacity="0.35"/>
</linearGradient>
<linearGradient id="paint39_linear_4953_3129" x1="163" y1="121" x2="163" y2="161" gradientUnits="userSpaceOnUse">
<stop stop-color="#3FA1E3"/>
<stop offset="1" stop-color="#3FA1E3" stop-opacity="0.35"/>
</linearGradient>
<linearGradient id="paint40_linear_4953_3129" x1="163" y1="121" x2="163" y2="161" gradientUnits="userSpaceOnUse">
<stop stop-color="#3FA1E3"/>
<stop offset="1" stop-color="#3FA1E3" stop-opacity="0.35"/>
</linearGradient>
<linearGradient id="paint41_linear_4953_3129" x1="163" y1="121" x2="163" y2="161" gradientUnits="userSpaceOnUse">
<stop stop-color="#3FA1E3"/>
<stop offset="1" stop-color="#3FA1E3" stop-opacity="0.35"/>
</linearGradient>
<linearGradient id="paint42_linear_4953_3129" x1="228" y1="121" x2="228" y2="161" gradientUnits="userSpaceOnUse">
<stop stop-color="#3FA1E3"/>
<stop offset="1" stop-color="#3FA1E3" stop-opacity="0.35"/>
</linearGradient>
<linearGradient id="paint43_linear_4953_3129" x1="228" y1="121" x2="228" y2="161" gradientUnits="userSpaceOnUse">
<stop stop-color="#3FA1E3"/>
<stop offset="1" stop-color="#3FA1E3" stop-opacity="0.35"/>
</linearGradient>
<linearGradient id="paint44_linear_4953_3129" x1="228" y1="121" x2="228" y2="161" gradientUnits="userSpaceOnUse">
<stop stop-color="#3FA1E3"/>
<stop offset="1" stop-color="#3FA1E3" stop-opacity="0.35"/>
</linearGradient>
<linearGradient id="paint45_linear_4953_3129" x1="293" y1="121" x2="293" y2="161" gradientUnits="userSpaceOnUse">
<stop stop-color="#3FA1E3"/>
<stop offset="1" stop-color="#3FA1E3" stop-opacity="0.35"/>
</linearGradient>
<linearGradient id="paint46_linear_4953_3129" x1="293" y1="121" x2="293" y2="161" gradientUnits="userSpaceOnUse">
<stop stop-color="#3FA1E3"/>
<stop offset="1" stop-color="#3FA1E3" stop-opacity="0.35"/>
</linearGradient>
<linearGradient id="paint47_linear_4953_3129" x1="293" y1="121" x2="293" y2="161" gradientUnits="userSpaceOnUse">
<stop stop-color="#3FA1E3"/>
<stop offset="1" stop-color="#3FA1E3" stop-opacity="0.35"/>
</linearGradient>
<linearGradient id="paint48_linear_4953_3129" x1="358" y1="121" x2="358" y2="161" gradientUnits="userSpaceOnUse">
<stop stop-color="#3FA1E3"/>
<stop offset="1" stop-color="#3FA1E3" stop-opacity="0.35"/>
</linearGradient>
<linearGradient id="paint49_linear_4953_3129" x1="358" y1="121" x2="358" y2="161" gradientUnits="userSpaceOnUse">
<stop stop-color="#3FA1E3"/>
<stop offset="1" stop-color="#3FA1E3" stop-opacity="0.35"/>
</linearGradient>
<linearGradient id="paint50_linear_4953_3129" x1="358" y1="121" x2="358" y2="161" gradientUnits="userSpaceOnUse">
<stop stop-color="#3FA1E3"/>
<stop offset="1" stop-color="#3FA1E3" stop-opacity="0.35"/>
</linearGradient>
<linearGradient id="paint51_linear_4953_3129" x1="135" y1="22" x2="135" y2="153" gradientUnits="userSpaceOnUse">
<stop stop-color="#3FA1E3"/>
<stop offset="1" stop-color="#3FA1E3" stop-opacity="0.35"/>
</linearGradient>
<linearGradient id="paint52_linear_4953_3129" x1="257" y1="22" x2="257" y2="153" gradientUnits="userSpaceOnUse">
<stop stop-color="#3FA1E3"/>
<stop offset="1" stop-color="#3FA1E3" stop-opacity="0.35"/>
</linearGradient>
<linearGradient id="paint53_linear_4953_3129" x1="134.667" y1="65.5137" x2="134.667" y2="111.801" gradientUnits="userSpaceOnUse">
<stop stop-color="#3FA1E3" stop-opacity="0.35"/>
<stop offset="0.605793" stop-color="#3FA1E3"/>
</linearGradient>
<linearGradient id="paint54_linear_4953_3129" x1="256.885" y1="65.8809" x2="256.885" y2="115.584" gradientUnits="userSpaceOnUse">
<stop stop-color="#3FA1E3" stop-opacity="0.35"/>
<stop offset="0.605793" stop-color="#3FA1E3"/>
</linearGradient>
</defs>
</svg>
