<svg width="392" height="147" viewBox="0 0 392 147" fill="none" xmlns="http://www.w3.org/2000/svg">
<rect x="6" y="10" width="94" height="94" rx="29" fill="#0A0F2B" fill-opacity="0.8" stroke="url(#paint0_linear_4951_2533)"/>
<rect x="108" y="58" width="88" height="88" rx="29" fill="#0A0F2B" fill-opacity="0.8" stroke="url(#paint1_linear_4951_2533)"/>
<rect x="204" y="7" width="99" height="99" rx="29" fill="#0A0F2B" fill-opacity="0.8" stroke="url(#paint2_linear_4951_2533)"/>
<rect x="312" y="52" width="76" height="76" rx="29" fill="#0A0F2B" fill-opacity="0.8" stroke="url(#paint3_linear_4951_2533)"/>
<rect opacity="0.2" x="11" y="15" width="84" height="84" rx="25" fill="url(#paint4_radial_4951_2533)"/>
<rect opacity="0.2" x="113" y="63" width="78" height="78" rx="25" fill="url(#paint5_radial_4951_2533)"/>
<rect opacity="0.2" x="210" y="13" width="87" height="87" rx="25" fill="url(#paint6_radial_4951_2533)"/>
<rect opacity="0.2" x="316" y="56" width="68" height="68" rx="25" fill="url(#paint7_radial_4951_2533)"/>
<path d="M75.4764 58.2218C76.1745 57.5236 76.1745 56.3891 75.4764 55.7782L72.5964 52.8982C73.12 51.5891 73.7309 50.28 74.2545 48.9709C74.4291 48.6218 74.2545 47.9236 74.08 47.6618C73.8182 47.2255 73.4691 47.0509 73.0327 46.8764C71.8109 46.3527 70.6764 45.9164 69.4545 45.3927V41.2909C69.4545 40.3309 68.6691 39.5455 67.7091 39.5455H63.6073C63.0836 38.3236 62.6473 37.1891 62.1236 35.9673C61.9491 35.5309 61.7745 35.1818 61.3382 34.92C60.9891 34.7455 60.3782 34.5709 60.0291 34.7455C58.72 35.2691 57.4109 35.88 56.1018 36.4036L56.0145 36.3164L53.2218 33.5236C52.5236 32.8255 51.3891 32.8255 50.7782 33.5236L47.8982 36.4036C46.5891 35.88 45.28 35.2691 43.9709 34.7455C43.6218 34.5709 42.9236 34.7455 42.6618 34.92C42.2255 35.1818 42.0509 35.5309 41.8764 35.9673C41.3527 37.1891 40.9164 38.3236 40.3927 39.5455H36.2909C35.3309 39.5455 34.5455 40.3309 34.5455 41.2909V45.3927C33.3236 45.9164 32.1891 46.3527 30.9673 46.8764C30.5309 47.0509 30.1818 47.2255 29.92 47.6618C29.4836 48.4473 29.8327 49.2327 30.1818 50.0182C30.6182 50.9782 30.9673 51.9382 31.4036 52.8982L31.3164 52.9855L28.5236 55.7782C27.8255 56.4764 27.8255 57.6109 28.5236 58.2218L31.4036 61.1018C30.88 62.4109 30.2691 63.72 29.7455 65.0291C29.5709 65.3782 29.7455 66.0764 29.92 66.3382C30.1818 66.7745 30.5309 66.9491 30.9673 67.1236C32.1891 67.6473 33.3236 68.0836 34.5455 68.6073V72.7091C34.5455 73.6691 35.3309 74.4545 36.2909 74.4545H40.3927C40.9164 75.6764 41.3527 76.8109 41.8764 78.0327C42.2255 78.9055 43.0982 79.6036 44.0582 79.2545C45.3673 78.7309 46.6764 78.2073 47.9855 77.5964L48.0727 77.6836L50.8655 80.4764C51.5636 81.1745 52.6982 81.1745 53.3091 80.4764L56.1891 77.5964C57.4982 78.12 58.8073 78.7309 60.1164 79.2545C60.4655 79.4291 61.1636 79.2545 61.4255 79.08C61.8618 78.8182 62.0364 78.4691 62.2109 78.0327C62.7345 76.8109 63.1709 75.6764 63.6945 74.4545H67.7964C68.7564 74.4545 69.5418 73.6691 69.5418 72.7091V68.6073C70.7636 68.0836 71.8982 67.6473 73.12 67.1236C73.5564 66.9491 73.9055 66.7745 74.1673 66.3382C74.6036 65.4655 74.2545 64.7673 73.9055 63.8945C73.5564 62.9345 73.12 61.9745 72.7709 61.0145L72.8582 60.9273C73.6436 60.0545 74.5164 59.1818 75.4764 58.2218Z" stroke="#3FA1E3" stroke-width="2"/>
<path d="M241.142 36.1035C244.72 32.8149 249.597 37.6907 246.294 41.2734C241.236 46.3567 238.328 53.3672 238.298 60.5391V60.5488L238.299 60.5576C238.32 62.0902 238.464 63.3674 238.788 64.3828C239.117 65.4128 239.656 66.2449 240.504 66.7578C241.339 67.2625 242.323 67.3664 243.358 67.2607C244.392 67.1552 245.574 66.8306 246.893 66.3682L247.834 66.0381L247.507 65.0957C246.189 61.3104 246.341 56.5187 248.142 50.9004C249.099 47.9181 250.409 44.7394 253.092 42.4102L253.355 42.1875C256.687 39.4575 262.192 38.7804 265.665 42.0332L265.67 42.0381L265.676 42.043C268.518 44.6279 268.929 48.6683 267.851 53.0244C266.778 57.3577 264.285 61.7162 261.782 64.541L259.279 67.3652L262.853 66.1504C265.812 65.1441 268.279 62.7161 270.16 59.3779L270.162 59.374C271.143 57.6127 273.364 56.9799 275.124 57.96C276.83 58.9104 277.478 61.0248 276.626 62.7559L276.538 62.9219C274.676 66.2675 271.402 70.5526 266.21 72.6797L265.702 72.8789C261.418 74.4764 256.773 74.0783 253.189 72.0244L252.725 71.7578L252.244 71.998C249.309 73.4681 245.638 74.607 242.636 74.5752C238.808 74.5338 235.927 73.0936 233.991 70.6963C232.035 68.2737 230.967 64.7758 231.001 60.5166V60.5127C231.035 51.4366 234.732 42.5349 241.142 36.1035ZM259.885 47.1318C258.634 47.1483 257.678 47.9876 257 48.9121C256.303 49.8628 255.74 51.1134 255.299 52.4014C254.418 54.9734 253.934 57.9709 253.953 59.7178L253.98 62.252L255.69 60.3818C258.025 57.8287 259.804 54.7468 260.744 51.4258V51.4238C260.993 50.5379 261.1 49.7873 261.12 49.1914C261.139 48.6296 261.085 48.1194 260.941 47.7627L260.898 47.6553V47.1182L259.885 47.1318Z" stroke="#3FA1E3" stroke-width="2"/>
<path d="M352.499 80.7988V80.7998C352.683 81.2115 353.017 81.5374 353.434 81.71C353.85 81.8824 354.316 81.8877 354.737 81.7266L360.461 79.5391L358.272 85.2627C358.111 85.6835 358.119 86.1501 358.291 86.5664C358.442 86.9308 358.71 87.2321 359.051 87.4248L359.2 87.501L364.792 90L359.2 92.499C358.84 92.6597 358.546 92.9365 358.362 93.2822L358.291 93.4336C358.119 93.8495 358.112 94.3159 358.272 94.7363V94.7373L360.46 100.461L354.737 98.2725H354.736C354.368 98.1319 353.965 98.1189 353.592 98.2334L353.434 98.291C353.017 98.4635 352.683 98.7887 352.499 99.2002L350 104.791L347.5 99.2002H347.501C347.34 98.8401 347.064 98.5458 346.719 98.3623L346.566 98.291L346.408 98.2334C346.034 98.1188 345.631 98.1316 345.263 98.2725L339.538 100.46L341.728 94.7373L341.727 94.7363C341.887 94.3158 341.881 93.8496 341.709 93.4336C341.536 93.0173 341.21 92.6825 340.799 92.499L335.207 90L340.8 87.501C341.211 87.3174 341.536 86.9827 341.709 86.5664C341.881 86.15 341.888 85.6835 341.727 85.2627H341.728L339.539 79.5391L345.262 81.7275C345.683 81.8889 346.15 81.8825 346.566 81.71C346.983 81.5374 347.316 81.2106 347.5 80.7988L350 75.208L352.499 80.7988Z" stroke="#3FA1E3" stroke-width="2"/>
<path d="M166.915 88.0933C167.011 87.8134 167.026 87.5122 166.959 87.224C166.893 86.9358 166.746 86.6721 166.537 86.4629C166.328 86.2537 166.064 86.1075 165.776 86.0407C165.488 85.974 165.186 85.9896 164.907 86.0855C159.329 87.9998 155.17 88.8166 151 88.8166C146.83 88.8166 142.671 87.9998 137.093 86.0855C136.814 85.9895 136.512 85.974 136.224 86.0407C135.936 86.1074 135.672 86.2536 135.463 86.4627C135.254 86.672 135.107 86.9357 135.041 87.2239C134.974 87.5122 134.99 87.8134 135.086 88.0933C138.742 98.7507 138.742 105.249 135.086 115.907C134.99 116.187 134.974 116.488 135.041 116.776C135.108 117.064 135.254 117.328 135.463 117.537C135.672 117.746 135.936 117.892 136.224 117.959C136.512 118.026 136.814 118.01 137.093 117.914C142.671 116 146.83 115.183 151 115.183C155.17 115.183 159.329 116 164.907 117.914C165.187 118.01 165.488 118.026 165.776 117.959C166.064 117.893 166.328 117.746 166.537 117.537C166.746 117.328 166.893 117.064 166.959 116.776C167.026 116.488 167.01 116.186 166.914 115.907C163.258 105.249 163.258 98.7507 166.915 88.0933Z" stroke="#3FA1E3" stroke-width="2"/>
<defs>
<linearGradient id="paint0_linear_4951_2533" x1="53" y1="10" x2="53" y2="104" gradientUnits="userSpaceOnUse">
<stop stop-color="#3FA1E3"/>
<stop offset="1" stop-color="#3FA1E3" stop-opacity="0.35"/>
</linearGradient>
<linearGradient id="paint1_linear_4951_2533" x1="152" y1="58" x2="152" y2="146" gradientUnits="userSpaceOnUse">
<stop stop-color="#3FA1E3"/>
<stop offset="1" stop-color="#3FA1E3" stop-opacity="0.35"/>
</linearGradient>
<linearGradient id="paint2_linear_4951_2533" x1="253.5" y1="7" x2="253.5" y2="106" gradientUnits="userSpaceOnUse">
<stop stop-color="#3FA1E3"/>
<stop offset="1" stop-color="#3FA1E3" stop-opacity="0.35"/>
</linearGradient>
<linearGradient id="paint3_linear_4951_2533" x1="350" y1="52" x2="350" y2="128" gradientUnits="userSpaceOnUse">
<stop stop-color="#3FA1E3"/>
<stop offset="1" stop-color="#3FA1E3" stop-opacity="0.35"/>
</linearGradient>
<radialGradient id="paint4_radial_4951_2533" cx="0" cy="0" r="1" gradientUnits="userSpaceOnUse" gradientTransform="translate(53 57) rotate(90) scale(42)">
<stop offset="0.480792" stop-color="#232F6F" stop-opacity="0"/>
<stop offset="1" stop-color="#232F6F"/>
</radialGradient>
<radialGradient id="paint5_radial_4951_2533" cx="0" cy="0" r="1" gradientUnits="userSpaceOnUse" gradientTransform="translate(152 102) rotate(90) scale(39)">
<stop offset="0.480792" stop-color="#232F6F" stop-opacity="0"/>
<stop offset="1" stop-color="#232F6F"/>
</radialGradient>
<radialGradient id="paint6_radial_4951_2533" cx="0" cy="0" r="1" gradientUnits="userSpaceOnUse" gradientTransform="translate(253.5 56.5) rotate(90) scale(43.5)">
<stop offset="0.480792" stop-color="#232F6F" stop-opacity="0"/>
<stop offset="1" stop-color="#232F6F"/>
</radialGradient>
<radialGradient id="paint7_radial_4951_2533" cx="0" cy="0" r="1" gradientUnits="userSpaceOnUse" gradientTransform="translate(350 90) rotate(90) scale(34)">
<stop offset="0.480792" stop-color="#232F6F" stop-opacity="0"/>
<stop offset="1" stop-color="#232F6F"/>
</radialGradient>
</defs>
</svg>
