<svg width="392" height="164" viewBox="0 0 392 164" fill="none" xmlns="http://www.w3.org/2000/svg">
<circle cx="141" cy="82" r="59" fill="#0A0F2B" fill-opacity="0.8" stroke="url(#paint0_linear_4839_2043)"/>
<circle cx="251" cy="82" r="59" fill="#0A0F2B" fill-opacity="0.8" stroke="url(#paint1_linear_4839_2043)"/>
<g opacity="0.2" filter="url(#filter0_f_4839_2043)">
<circle cx="141" cy="82" r="50" fill="#3FA1E3"/>
</g>
<circle opacity="0.1" cx="141" cy="82.5" r="66.5" stroke="#3FA1E3"/>
<circle opacity="0.1" cx="252" cy="82.5" r="66.5" stroke="#3FA1E3"/>
<circle opacity="0.2" cx="141.5" cy="82" r="32" stroke="#3FA1E3"/>
<circle opacity="0.2" cx="250.5" cy="82" r="32" stroke="#3FA1E3"/>
<g opacity="0.2" filter="url(#filter1_f_4839_2043)">
<circle cx="251" cy="82" r="50" fill="#3FA1E3"/>
</g>
<mask id="mask0_4839_2043" style="mask-type:alpha" maskUnits="userSpaceOnUse" x="231" y="66" width="28" height="32">
<path d="M231 66H258.292V98H231V66Z" fill="#3FA1E3"/>
</mask>
<g mask="url(#mask0_4839_2043)">
<path fill-rule="evenodd" clip-rule="evenodd" d="M250.782 66H258.292L240.805 96.5268C240.342 97.3375 239.308 98.0002 238.511 98.0002H231L248.487 67.4734C248.951 66.6627 249.983 66 250.782 66Z" fill="#3FA1E3"/>
</g>
<mask id="mask1_4839_2043" style="mask-type:alpha" maskUnits="userSpaceOnUse" x="243" y="66" width="29" height="32">
<path d="M243.887 66H271.18V98H243.887V66Z" fill="#3FA1E3"/>
</mask>
<g mask="url(#mask1_4839_2043)">
<path fill-rule="evenodd" clip-rule="evenodd" d="M263.669 66H271.18L253.693 96.5268C253.229 97.3375 252.197 98.0002 251.398 98.0002H243.887L261.374 67.4734C261.839 66.6627 262.871 66 263.669 66Z" fill="#3FA1E3"/>
</g>
<path d="M122.096 79.1912L128.475 68.4306C129.736 66.304 132.024 65 134.496 65H145.504C147.976 65 150.264 66.304 151.525 68.4306L157.904 79.1912C159.198 81.3744 159.209 84.0871 157.933 86.2808L151.516 97.3096C150.263 99.4641 147.958 100.789 145.466 100.789H134.534C132.042 100.789 129.737 99.4641 128.484 97.3096L122.067 86.2808C120.791 84.0871 120.802 81.3744 122.096 79.1912Z" fill="url(#paint2_linear_4839_2043)"/>
<path d="M137.894 71.3184H133.263L126.315 82.3939L133.263 94.4763H137.894L130.947 82.3939L137.894 71.3184Z" fill="#131313"/>
<path d="M142.105 71.3184H146.737L153.684 82.3939L146.737 94.4763H142.105L149.053 82.3939L142.105 71.3184Z" fill="#131313"/>
<defs>
<filter id="filter0_f_4839_2043" x="59" y="0" width="164" height="164" filterUnits="userSpaceOnUse" color-interpolation-filters="sRGB">
<feFlood flood-opacity="0" result="BackgroundImageFix"/>
<feBlend mode="normal" in="SourceGraphic" in2="BackgroundImageFix" result="shape"/>
<feGaussianBlur stdDeviation="16" result="effect1_foregroundBlur_4839_2043"/>
</filter>
<filter id="filter1_f_4839_2043" x="169" y="0" width="164" height="164" filterUnits="userSpaceOnUse" color-interpolation-filters="sRGB">
<feFlood flood-opacity="0" result="BackgroundImageFix"/>
<feBlend mode="normal" in="SourceGraphic" in2="BackgroundImageFix" result="shape"/>
<feGaussianBlur stdDeviation="16" result="effect1_foregroundBlur_4839_2043"/>
</filter>
<linearGradient id="paint0_linear_4839_2043" x1="141" y1="23" x2="141" y2="141" gradientUnits="userSpaceOnUse">
<stop stop-color="#3FA1E3"/>
<stop offset="1" stop-color="#3FA1E3" stop-opacity="0.35"/>
</linearGradient>
<linearGradient id="paint1_linear_4839_2043" x1="251" y1="23" x2="251" y2="141" gradientUnits="userSpaceOnUse">
<stop stop-color="#3FA1E3"/>
<stop offset="1" stop-color="#3FA1E3" stop-opacity="0.35"/>
</linearGradient>
<linearGradient id="paint2_linear_4839_2043" x1="140" y1="65" x2="140" y2="100.789" gradientUnits="userSpaceOnUse">
<stop stop-color="#3FA1E3" stop-opacity="0.35"/>
<stop offset="0.605793" stop-color="#3FA1E3"/>
</linearGradient>
</defs>
</svg>
