<svg width="560" height="148" viewBox="0 0 560 148" fill="none" xmlns="http://www.w3.org/2000/svg">
<path d="M337.154 56.3978C335.09 48.1327 330.476 40.6372 323.938 35.0227C316.448 28.5906 306.892 25.0486 297.03 25.0486C289.632 25.0486 282.545 26.9565 276.29 30.6016C269.666 24.5437 260.98 21.1405 251.854 21.1405C232.278 21.1405 216.279 36.7454 215.64 56.1677C208.873 58.0593 202.745 61.9097 198.061 67.2805C192.31 73.8723 189.14 82.3239 189.139 91.0721C189.139 111.051 205.393 127.305 225.372 127.305H326.628C346.607 127.305 362.861 111.051 362.861 91.0721C362.861 75.0533 352.237 60.9811 337.154 56.3978Z" fill="#0A0F2B" fill-opacity="0.8" stroke="url(#paint0_linear_4159_1486)"/>
<path d="M253.65 8.14453C255.484 8.21159 257.303 8.38091 259.1 8.64648L259.027 9.13965C260.222 9.31618 261.406 9.53613 262.578 9.79883L262.687 9.3125C264.472 9.71256 266.229 10.2095 267.951 10.8018L267.789 11.2744C268.929 11.6664 270.052 12.1007 271.158 12.5752L271.354 12.1162C273.031 12.8357 274.667 13.648 276.255 14.5498L276.009 14.9834C276.532 15.2806 277.05 15.5885 277.562 15.9053L277.771 16.0342L278.002 15.9473C278.609 15.719 279.22 15.5017 279.835 15.2959L279.678 14.8252C281.539 14.2021 283.434 13.6811 285.355 13.2637L285.462 13.749C286.727 13.4742 288.005 13.2442 289.292 13.0605L289.222 12.5684C291.158 12.2921 293.115 12.119 295.089 12.0498L295.106 12.5469C295.754 12.5242 296.402 12.5127 297.053 12.5127C297.681 12.5127 298.308 12.5241 298.934 12.5459L298.95 12.0488C300.854 12.1152 302.747 12.2809 304.621 12.5439L304.553 13.0371C305.797 13.2117 307.033 13.4294 308.258 13.6895L308.36 13.2031C310.22 13.5978 312.055 14.0878 313.859 14.6729L313.706 15.1465C314.899 15.5334 316.079 15.9618 317.242 16.4307L317.427 15.9688C319.187 16.6782 320.909 17.4804 322.589 18.3711L322.356 18.8105C323.463 19.3973 324.55 20.0234 325.615 20.6875L325.878 20.2646C327.484 21.2659 329.042 22.3536 330.544 23.5244L330.24 23.917C330.734 24.3019 331.222 24.6966 331.703 25.0996L331.794 25.1758L332.117 24.7949V24.7939L332.396 25.0293V25.0303L332.073 25.4121L332.163 25.4873V25.4883C332.607 25.8681 333.044 26.2546 333.474 26.6475L333.81 26.2783C335.117 27.4736 336.36 28.7291 337.538 30.0371L337.169 30.3701C337.951 31.238 338.702 32.1301 339.424 33.0439L339.815 32.7344C340.911 34.1219 341.937 35.5599 342.891 37.043L342.471 37.3135C343.101 38.2949 343.7 39.296 344.266 40.3154L344.701 40.0732C345.557 41.617 346.339 43.2016 347.041 44.8223L346.583 45.0205C346.815 45.5553 347.038 46.0944 347.252 46.6367L347.325 46.8213L347.504 46.9053C348.058 47.1667 348.606 47.4386 349.148 47.7197L349.378 47.2754C351.031 48.133 352.626 49.0815 354.159 50.1113L353.881 50.5254C354.898 51.209 355.888 51.9295 356.848 52.6846L357.155 52.292C358.615 53.4407 360.007 54.6685 361.324 55.9688L360.975 56.3242C361.846 57.1841 362.684 58.0765 363.487 58.998L363.862 58.6699C365.081 60.0672 366.222 61.5305 367.277 63.0557V63.0566L366.866 63.3408C367.562 64.3463 368.22 65.3784 368.839 66.4346L369.269 66.1826C370.204 67.7786 371.052 69.4292 371.805 71.1279L371.349 71.3301C371.843 72.4459 372.297 73.583 372.708 74.7383L373.178 74.5703C373.796 76.309 374.317 78.0897 374.738 79.9053L374.254 80.0176C374.529 81.2042 374.76 82.4063 374.945 83.6211L375.438 83.5449C375.715 85.3629 375.893 87.2096 375.964 89.0791H375.965L375.466 89.0977C375.489 89.7068 375.5 90.3188 375.5 90.9326C375.5 91.5744 375.488 92.2138 375.463 92.8496L375.962 92.8682C375.886 94.8223 375.694 96.7471 375.395 98.6367L374.902 98.5596C374.702 99.8277 374.451 101.08 374.154 102.313L374.639 102.43C374.183 104.323 373.617 106.173 372.948 107.975L372.481 107.802C372.036 109.002 371.544 110.18 371.008 111.334L371.457 111.543C370.64 113.303 369.722 115.007 368.709 116.647L368.286 116.387C367.615 117.474 366.902 118.533 366.149 119.562L366.55 119.854C365.407 121.417 364.175 122.91 362.859 124.326L362.496 123.988C361.628 124.923 360.723 125.825 359.784 126.689L360.12 127.054C358.699 128.363 357.202 129.59 355.634 130.727L355.343 130.325C354.311 131.073 353.248 131.782 352.158 132.449L352.418 132.873C350.774 133.879 349.067 134.791 347.304 135.604L347.097 135.152C345.941 135.685 344.761 136.174 343.56 136.616L343.73 137.084C341.928 137.748 340.077 138.309 338.183 138.762L338.067 138.276C336.833 138.571 335.58 138.819 334.312 139.019L334.388 139.512C332.498 139.808 330.572 139.998 328.618 140.073L328.601 139.574C327.965 139.599 327.325 139.611 326.684 139.611H324.656V140.111H318.574V139.611H314.52V140.111H308.438V139.611H304.383V140.111H298.301V139.611H294.246V140.111H288.164V139.611H284.109V140.111H278.027V139.611H273.973V140.111H267.891V139.611H263.836V140.111H257.754V139.611H253.699V140.111H247.617V139.611H243.562V140.111H237.48V139.611H233.426V140.111H227.344V139.611H225.316C224.675 139.611 224.035 139.599 223.399 139.574L223.381 140.073C221.427 139.998 219.501 139.808 217.611 139.512L217.688 139.019C216.42 138.819 215.167 138.571 213.933 138.276L213.816 138.762C211.922 138.309 210.071 137.748 208.269 137.084L208.44 136.616C207.239 136.174 206.059 135.685 204.903 135.152L204.695 135.604C202.932 134.791 201.225 133.879 199.581 132.873L199.842 132.449C198.752 131.782 197.689 131.073 196.657 130.325L196.365 130.727C194.798 129.59 193.3 128.363 191.879 127.054L192.216 126.689C191.277 125.825 190.372 124.923 189.504 123.988L189.14 124.326C187.824 122.91 186.592 121.417 185.449 119.854L185.851 119.562C185.098 118.533 184.385 117.474 183.714 116.387L183.29 116.647C182.277 115.007 181.359 113.303 180.542 111.543L180.992 111.334C180.456 110.18 179.964 109.002 179.519 107.802L179.051 107.975C178.382 106.173 177.816 104.323 177.36 102.43L177.846 102.313C177.549 101.08 177.298 99.8277 177.098 98.5596L176.604 98.6367C176.305 96.7472 176.113 94.8222 176.037 92.8682L176.537 92.8496C176.525 92.5319 176.516 92.2128 176.51 91.8936L176.5 90.9326H176V90.9307H176.5C176.5 90.348 176.51 89.766 176.531 89.1855L176.034 89.167C176.098 87.398 176.258 85.6406 176.511 83.9014L177.003 83.9736C177.17 82.8204 177.379 81.6748 177.628 80.54L177.142 80.4336C177.52 78.7093 177.991 77.0088 178.552 75.3389L179.023 75.4971C179.394 74.3941 179.803 73.3042 180.252 72.2305L179.793 72.0391C180.472 70.4137 181.239 68.8242 182.091 67.2773L182.526 67.5176C183.087 66.5002 183.685 65.5012 184.319 64.5234L183.901 64.2529C184.857 62.7787 185.895 61.3518 187.013 59.9785L187.398 60.293C187.765 59.8425 188.14 59.3975 188.523 58.959H188.524C188.952 58.4701 189.389 57.9905 189.834 57.5205L189.471 57.1768C190.828 55.7444 192.264 54.3993 193.771 53.1475L194.09 53.5322C195.089 52.7021 196.12 51.9131 197.179 51.167L196.891 50.7578C198.499 49.6246 200.172 48.5895 201.901 47.6572L202.139 48.0967C202.424 47.9428 202.711 47.7917 202.999 47.6436L203.869 47.208L204.086 47.1016L204.138 46.8662C204.273 46.2499 204.42 45.6376 204.578 45.0303L204.097 44.9043C204.581 43.0467 205.172 41.2316 205.862 39.4658L206.326 39.6484C206.786 38.4731 207.29 37.3196 207.837 36.1904L207.387 35.9717C208.22 34.25 209.152 32.5848 210.174 30.9814L210.595 31.249C211.272 30.1864 211.989 29.1513 212.744 28.1465L212.345 27.8467C213.491 26.3209 214.725 24.864 216.038 23.4824L216.399 23.8262C217.266 22.914 218.168 22.0347 219.103 21.1914L218.769 20.8213C220.183 19.5453 221.67 18.3489 223.226 17.2412L223.516 17.6484C224.539 16.9196 225.592 16.229 226.672 15.5791L226.414 15.1523C228.042 14.1724 229.732 13.2836 231.476 12.4932L231.682 12.9473C232.824 12.4294 233.99 11.9539 235.178 11.5234L235.007 11.0537C236.787 10.408 238.616 9.86372 240.485 9.42383L240.6 9.90918C241.817 9.62263 243.053 9.38102 244.304 9.1875L244.228 8.69336C246.093 8.40481 247.992 8.22276 249.92 8.14941L249.938 8.64746C250.252 8.63553 250.566 8.62611 250.881 8.62012L251.827 8.61133C252.43 8.61133 253.032 8.62257 253.633 8.64453L253.65 8.14453Z" stroke="#232F6F" stroke-dasharray="4 6"/>
<path d="M252.096 74.7367L260.577 60.4306C261.837 58.304 264.126 57 266.598 57H281.402C283.874 57 286.163 58.304 287.423 60.4306L295.904 74.7367C297.198 76.9199 297.209 79.6326 295.933 81.8263L287.414 96.4675C286.161 98.622 283.856 99.9474 281.364 99.9474H266.636C264.144 99.9474 261.839 98.622 260.586 96.4676L252.067 81.8263C250.791 79.6326 250.802 76.9199 252.096 74.7367Z" fill="url(#paint1_linear_4159_1486)"/>
<path d="M271.474 64.5789H265.916L257.579 77.8696L265.916 92.3684H271.474L263.137 77.8696L271.474 64.5789Z" fill="#131313"/>
<path d="M276.526 64.5789H282.084L290.421 77.8696L282.084 92.3684H276.526L284.863 77.8696L276.526 64.5789Z" fill="#131313"/>
<path d="M330 34H514.5" stroke="url(#paint2_linear_4159_1486)"/>
<path d="M34 34H218.5" stroke="url(#paint3_linear_4159_1486)"/>
<path d="M17 56H201.5" stroke="url(#paint4_linear_4159_1486)"/>
<path d="M0 78H184.5" stroke="url(#paint5_linear_4159_1486)"/>
<path d="M0 100H184.5" stroke="url(#paint6_linear_4159_1486)"/>
<path d="M10 122H194.5" stroke="url(#paint7_linear_4159_1486)"/>
<path d="M350 56H534.5" stroke="url(#paint8_linear_4159_1486)"/>
<path d="M366 78H550.5" stroke="url(#paint9_linear_4159_1486)"/>
<path d="M367 100H551.5" stroke="url(#paint10_linear_4159_1486)"/>
<path d="M356 122H540.5" stroke="url(#paint11_linear_4159_1486)"/>
<g opacity="0.6" filter="url(#filter0_f_4159_1486)">
<circle cx="415" cy="34" r="6" fill="#3FA1E3"/>
</g>
<g filter="url(#filter1_f_4159_1486)">
<circle cx="415" cy="34" r="2" fill="white"/>
</g>
<g opacity="0.6" filter="url(#filter2_f_4159_1486)">
<circle cx="181" cy="34" r="6" fill="#3FA1E3"/>
</g>
<g filter="url(#filter3_f_4159_1486)">
<circle cx="181" cy="34" r="2" fill="white"/>
</g>
<g opacity="0.6" filter="url(#filter4_f_4159_1486)">
<circle cx="165" cy="122" r="6" fill="#3FA1E3"/>
</g>
<g filter="url(#filter5_f_4159_1486)">
<circle cx="165" cy="122" r="2" fill="white"/>
</g>
<g opacity="0.6" filter="url(#filter6_f_4159_1486)">
<circle cx="88" cy="100" r="6" fill="#3FA1E3"/>
</g>
<g filter="url(#filter7_f_4159_1486)">
<circle cx="88" cy="100" r="2" fill="white"/>
</g>
<g opacity="0.6" filter="url(#filter8_f_4159_1486)">
<circle cx="464" cy="56" r="6" fill="#3FA1E3"/>
</g>
<g filter="url(#filter9_f_4159_1486)">
<circle cx="464" cy="56" r="2" fill="white"/>
</g>
<g opacity="0.6" filter="url(#filter10_f_4159_1486)">
<circle cx="385" cy="78" r="6" fill="#3FA1E3"/>
</g>
<g filter="url(#filter11_f_4159_1486)">
<circle cx="385" cy="78" r="2" fill="white"/>
</g>
<g opacity="0.6" filter="url(#filter12_f_4159_1486)">
<circle cx="141" cy="78" r="6" fill="#3FA1E3"/>
</g>
<g filter="url(#filter13_f_4159_1486)">
<circle cx="141" cy="78" r="2" fill="white"/>
</g>
<g opacity="0.6" filter="url(#filter14_f_4159_1486)">
<circle cx="419" cy="100" r="6" fill="#3FA1E3"/>
</g>
<g filter="url(#filter15_f_4159_1486)">
<circle cx="419" cy="100" r="2" fill="white"/>
</g>
<g opacity="0.2" filter="url(#filter16_f_4159_1486)">
<circle cx="274" cy="79" r="36.5" stroke="#3FA1E3"/>
</g>
<g opacity="0.5" filter="url(#filter17_f_4159_1486)">
<path d="M245.196 75.1407L257.243 55.3592C258.513 53.2731 260.779 52 263.221 52H284.779C287.221 52 289.487 53.2731 290.757 55.3592L302.804 75.1407C304.154 77.3591 304.166 80.1432 302.833 82.3727L290.749 102.591C289.486 104.705 287.204 106 284.741 106H263.259C260.796 106 258.514 104.705 257.251 102.591L245.167 82.3727C243.834 80.1432 243.846 77.3591 245.196 75.1407Z" stroke="#3FA1E3"/>
</g>
<defs>
<filter id="filter0_f_4159_1486" x="404" y="23" width="22" height="22" filterUnits="userSpaceOnUse" color-interpolation-filters="sRGB">
<feFlood flood-opacity="0" result="BackgroundImageFix"/>
<feBlend mode="normal" in="SourceGraphic" in2="BackgroundImageFix" result="shape"/>
<feGaussianBlur stdDeviation="2.5" result="effect1_foregroundBlur_4159_1486"/>
</filter>
<filter id="filter1_f_4159_1486" x="411" y="30" width="8" height="8" filterUnits="userSpaceOnUse" color-interpolation-filters="sRGB">
<feFlood flood-opacity="0" result="BackgroundImageFix"/>
<feBlend mode="normal" in="SourceGraphic" in2="BackgroundImageFix" result="shape"/>
<feGaussianBlur stdDeviation="1" result="effect1_foregroundBlur_4159_1486"/>
</filter>
<filter id="filter2_f_4159_1486" x="170" y="23" width="22" height="22" filterUnits="userSpaceOnUse" color-interpolation-filters="sRGB">
<feFlood flood-opacity="0" result="BackgroundImageFix"/>
<feBlend mode="normal" in="SourceGraphic" in2="BackgroundImageFix" result="shape"/>
<feGaussianBlur stdDeviation="2.5" result="effect1_foregroundBlur_4159_1486"/>
</filter>
<filter id="filter3_f_4159_1486" x="177" y="30" width="8" height="8" filterUnits="userSpaceOnUse" color-interpolation-filters="sRGB">
<feFlood flood-opacity="0" result="BackgroundImageFix"/>
<feBlend mode="normal" in="SourceGraphic" in2="BackgroundImageFix" result="shape"/>
<feGaussianBlur stdDeviation="1" result="effect1_foregroundBlur_4159_1486"/>
</filter>
<filter id="filter4_f_4159_1486" x="154" y="111" width="22" height="22" filterUnits="userSpaceOnUse" color-interpolation-filters="sRGB">
<feFlood flood-opacity="0" result="BackgroundImageFix"/>
<feBlend mode="normal" in="SourceGraphic" in2="BackgroundImageFix" result="shape"/>
<feGaussianBlur stdDeviation="2.5" result="effect1_foregroundBlur_4159_1486"/>
</filter>
<filter id="filter5_f_4159_1486" x="161" y="118" width="8" height="8" filterUnits="userSpaceOnUse" color-interpolation-filters="sRGB">
<feFlood flood-opacity="0" result="BackgroundImageFix"/>
<feBlend mode="normal" in="SourceGraphic" in2="BackgroundImageFix" result="shape"/>
<feGaussianBlur stdDeviation="1" result="effect1_foregroundBlur_4159_1486"/>
</filter>
<filter id="filter6_f_4159_1486" x="77" y="89" width="22" height="22" filterUnits="userSpaceOnUse" color-interpolation-filters="sRGB">
<feFlood flood-opacity="0" result="BackgroundImageFix"/>
<feBlend mode="normal" in="SourceGraphic" in2="BackgroundImageFix" result="shape"/>
<feGaussianBlur stdDeviation="2.5" result="effect1_foregroundBlur_4159_1486"/>
</filter>
<filter id="filter7_f_4159_1486" x="84" y="96" width="8" height="8" filterUnits="userSpaceOnUse" color-interpolation-filters="sRGB">
<feFlood flood-opacity="0" result="BackgroundImageFix"/>
<feBlend mode="normal" in="SourceGraphic" in2="BackgroundImageFix" result="shape"/>
<feGaussianBlur stdDeviation="1" result="effect1_foregroundBlur_4159_1486"/>
</filter>
<filter id="filter8_f_4159_1486" x="453" y="45" width="22" height="22" filterUnits="userSpaceOnUse" color-interpolation-filters="sRGB">
<feFlood flood-opacity="0" result="BackgroundImageFix"/>
<feBlend mode="normal" in="SourceGraphic" in2="BackgroundImageFix" result="shape"/>
<feGaussianBlur stdDeviation="2.5" result="effect1_foregroundBlur_4159_1486"/>
</filter>
<filter id="filter9_f_4159_1486" x="460" y="52" width="8" height="8" filterUnits="userSpaceOnUse" color-interpolation-filters="sRGB">
<feFlood flood-opacity="0" result="BackgroundImageFix"/>
<feBlend mode="normal" in="SourceGraphic" in2="BackgroundImageFix" result="shape"/>
<feGaussianBlur stdDeviation="1" result="effect1_foregroundBlur_4159_1486"/>
</filter>
<filter id="filter10_f_4159_1486" x="374" y="67" width="22" height="22" filterUnits="userSpaceOnUse" color-interpolation-filters="sRGB">
<feFlood flood-opacity="0" result="BackgroundImageFix"/>
<feBlend mode="normal" in="SourceGraphic" in2="BackgroundImageFix" result="shape"/>
<feGaussianBlur stdDeviation="2.5" result="effect1_foregroundBlur_4159_1486"/>
</filter>
<filter id="filter11_f_4159_1486" x="381" y="74" width="8" height="8" filterUnits="userSpaceOnUse" color-interpolation-filters="sRGB">
<feFlood flood-opacity="0" result="BackgroundImageFix"/>
<feBlend mode="normal" in="SourceGraphic" in2="BackgroundImageFix" result="shape"/>
<feGaussianBlur stdDeviation="1" result="effect1_foregroundBlur_4159_1486"/>
</filter>
<filter id="filter12_f_4159_1486" x="130" y="67" width="22" height="22" filterUnits="userSpaceOnUse" color-interpolation-filters="sRGB">
<feFlood flood-opacity="0" result="BackgroundImageFix"/>
<feBlend mode="normal" in="SourceGraphic" in2="BackgroundImageFix" result="shape"/>
<feGaussianBlur stdDeviation="2.5" result="effect1_foregroundBlur_4159_1486"/>
</filter>
<filter id="filter13_f_4159_1486" x="137" y="74" width="8" height="8" filterUnits="userSpaceOnUse" color-interpolation-filters="sRGB">
<feFlood flood-opacity="0" result="BackgroundImageFix"/>
<feBlend mode="normal" in="SourceGraphic" in2="BackgroundImageFix" result="shape"/>
<feGaussianBlur stdDeviation="1" result="effect1_foregroundBlur_4159_1486"/>
</filter>
<filter id="filter14_f_4159_1486" x="408" y="89" width="22" height="22" filterUnits="userSpaceOnUse" color-interpolation-filters="sRGB">
<feFlood flood-opacity="0" result="BackgroundImageFix"/>
<feBlend mode="normal" in="SourceGraphic" in2="BackgroundImageFix" result="shape"/>
<feGaussianBlur stdDeviation="2.5" result="effect1_foregroundBlur_4159_1486"/>
</filter>
<filter id="filter15_f_4159_1486" x="415" y="96" width="8" height="8" filterUnits="userSpaceOnUse" color-interpolation-filters="sRGB">
<feFlood flood-opacity="0" result="BackgroundImageFix"/>
<feBlend mode="normal" in="SourceGraphic" in2="BackgroundImageFix" result="shape"/>
<feGaussianBlur stdDeviation="1" result="effect1_foregroundBlur_4159_1486"/>
</filter>
<filter id="filter16_f_4159_1486" x="233" y="38" width="82" height="82" filterUnits="userSpaceOnUse" color-interpolation-filters="sRGB">
<feFlood flood-opacity="0" result="BackgroundImageFix"/>
<feBlend mode="normal" in="SourceGraphic" in2="BackgroundImageFix" result="shape"/>
<feGaussianBlur stdDeviation="2" result="effect1_foregroundBlur_4159_1486"/>
</filter>
<filter id="filter17_f_4159_1486" x="239.675" y="47.5" width="68.6497" height="63" filterUnits="userSpaceOnUse" color-interpolation-filters="sRGB">
<feFlood flood-opacity="0" result="BackgroundImageFix"/>
<feBlend mode="normal" in="SourceGraphic" in2="BackgroundImageFix" result="shape"/>
<feGaussianBlur stdDeviation="2" result="effect1_foregroundBlur_4159_1486"/>
</filter>
<linearGradient id="paint0_linear_4159_1486" x1="276" y1="21.1405" x2="276" y2="127.305" gradientUnits="userSpaceOnUse">
<stop stop-color="#3FA1E3"/>
<stop offset="1" stop-color="#3FA1E3" stop-opacity="0.35"/>
</linearGradient>
<linearGradient id="paint1_linear_4159_1486" x1="274" y1="57" x2="274" y2="99.9474" gradientUnits="userSpaceOnUse">
<stop stop-color="#3FA1E3" stop-opacity="0.35"/>
<stop offset="0.605793" stop-color="#3FA1E3"/>
</linearGradient>
<linearGradient id="paint2_linear_4159_1486" x1="330" y1="34.5" x2="514.5" y2="34.5" gradientUnits="userSpaceOnUse">
<stop offset="0.5481" stop-color="#232F6F"/>
<stop offset="1" stop-color="#232F6F" stop-opacity="0"/>
</linearGradient>
<linearGradient id="paint3_linear_4159_1486" x1="34" y1="34.5" x2="218.5" y2="34.5" gradientUnits="userSpaceOnUse">
<stop stop-color="#232F6F" stop-opacity="0"/>
<stop offset="0.4519" stop-color="#232F6F"/>
</linearGradient>
<linearGradient id="paint4_linear_4159_1486" x1="17" y1="56.5" x2="201.5" y2="56.5" gradientUnits="userSpaceOnUse">
<stop stop-color="#232F6F" stop-opacity="0"/>
<stop offset="0.4519" stop-color="#232F6F"/>
</linearGradient>
<linearGradient id="paint5_linear_4159_1486" x1="0" y1="78.5" x2="184.5" y2="78.5" gradientUnits="userSpaceOnUse">
<stop stop-color="#232F6F" stop-opacity="0"/>
<stop offset="0.4519" stop-color="#232F6F"/>
</linearGradient>
<linearGradient id="paint6_linear_4159_1486" x1="0" y1="100.5" x2="184.5" y2="100.5" gradientUnits="userSpaceOnUse">
<stop stop-color="#232F6F" stop-opacity="0"/>
<stop offset="0.4519" stop-color="#232F6F"/>
</linearGradient>
<linearGradient id="paint7_linear_4159_1486" x1="10" y1="122.5" x2="194.5" y2="122.5" gradientUnits="userSpaceOnUse">
<stop stop-color="#232F6F" stop-opacity="0"/>
<stop offset="0.4519" stop-color="#232F6F"/>
</linearGradient>
<linearGradient id="paint8_linear_4159_1486" x1="350" y1="56.5" x2="534.5" y2="56.5" gradientUnits="userSpaceOnUse">
<stop offset="0.5481" stop-color="#232F6F"/>
<stop offset="1" stop-color="#232F6F" stop-opacity="0"/>
</linearGradient>
<linearGradient id="paint9_linear_4159_1486" x1="366" y1="78.5" x2="550.5" y2="78.5" gradientUnits="userSpaceOnUse">
<stop offset="0.5481" stop-color="#232F6F"/>
<stop offset="1" stop-color="#232F6F" stop-opacity="0"/>
</linearGradient>
<linearGradient id="paint10_linear_4159_1486" x1="367" y1="100.5" x2="551.5" y2="100.5" gradientUnits="userSpaceOnUse">
<stop offset="0.5481" stop-color="#232F6F"/>
<stop offset="1" stop-color="#232F6F" stop-opacity="0"/>
</linearGradient>
<linearGradient id="paint11_linear_4159_1486" x1="356" y1="122.5" x2="540.5" y2="122.5" gradientUnits="userSpaceOnUse">
<stop offset="0.5481" stop-color="#232F6F"/>
<stop offset="1" stop-color="#232F6F" stop-opacity="0"/>
</linearGradient>
</defs>
</svg>
