<svg width="392" height="146" viewBox="0 0 392 146" fill="none" xmlns="http://www.w3.org/2000/svg">
<ellipse cx="54" cy="73.5" rx="49" ry="49.5" fill="#0A0F2B" fill-opacity="0.8" stroke="url(#paint0_linear_4899_3641)"/>
<path opacity="0.1" d="M55 18.5C85.0953 18.5 109.5 43.1201 109.5 73.5C109.5 103.88 85.0953 128.5 55 128.5C24.9047 128.5 0.5 103.88 0.5 73.5C0.5 43.1201 24.9047 18.5 55 18.5Z" stroke="#3FA1E3"/>
<g clip-path="url(#clip0_4899_3641)">
<path d="M320 82C325.343 82 330.364 84.0793 334.143 87.8574C337.921 91.6356 340 96.6569 340 102C340 107.343 337.921 112.364 334.143 116.143C330.364 119.921 325.343 122 320 122C314.657 122 309.636 119.921 305.857 116.143C302.079 112.364 300 107.343 300 102C300 96.6569 302.079 91.6356 305.857 87.8574C309.636 84.0793 314.657 82 320 82ZM320 105.046C313.817 105.046 308.588 109.741 307.881 115.827C307.861 115.998 307.929 116.168 308.061 116.279C311.295 118.987 315.46 120.622 320 120.622C324.54 120.622 328.706 118.988 331.94 116.279C332.072 116.168 332.139 115.997 332.119 115.826C331.803 113.11 330.576 110.567 328.629 108.62C326.325 106.316 323.258 105.046 320 105.046ZM320 83.3782C309.731 83.3782 301.378 91.7314 301.378 102C301.378 106.657 303.097 110.92 305.931 114.188C306.204 114.501 306.717 114.379 306.817 113.975C307.444 111.437 308.797 109.124 310.746 107.308C312.092 106.055 313.655 105.103 315.345 104.487C315.738 104.344 315.803 103.815 315.457 103.581C313.298 102.118 311.879 99.6466 311.879 96.8518C311.879 92.3744 315.523 88.7308 320 88.7308C324.477 88.7308 328.121 92.3744 328.121 96.8518C328.121 99.645 326.704 102.116 324.546 103.579C324.2 103.813 324.266 104.341 324.658 104.484C326.494 105.153 328.178 106.221 329.602 107.645C331.349 109.391 332.587 111.58 333.182 113.977C333.282 114.38 333.795 114.503 334.067 114.19C336.902 110.922 338.622 106.658 338.622 102C338.622 91.7314 330.269 83.3782 320 83.3782ZM320 90.109C316.282 90.109 313.257 93.1332 313.257 96.8518C313.257 100.394 316.002 103.305 319.477 103.573C319.483 103.573 319.487 103.578 319.487 103.584C319.487 103.59 319.492 103.596 319.499 103.596H320C323.718 103.596 326.743 100.57 326.743 96.8518C326.743 93.1332 323.718 90.109 320 90.109Z" fill="url(#paint1_linear_4899_3641)"/>
</g>
<g clip-path="url(#clip1_4899_3641)">
<path d="M320 24C325.343 24 330.364 26.0793 334.143 29.8574C337.921 33.6356 340 38.6569 340 44C340 49.3431 337.921 54.3644 334.143 58.1426C330.364 61.9207 325.343 64 320 64C314.657 64 309.636 61.9207 305.857 58.1426C302.079 54.3644 300 49.3431 300 44C300 38.6569 302.079 33.6356 305.857 29.8574C309.636 26.0793 314.657 24 320 24ZM320 47.0459C313.817 47.0459 308.588 51.7412 307.881 57.8271C307.861 57.9984 307.929 58.1684 308.061 58.2788C311.295 60.9875 315.46 62.6218 320 62.6218C324.54 62.6218 328.706 60.9875 331.94 58.2788C332.072 58.1682 332.139 57.9972 332.119 57.8261C331.803 55.11 330.576 52.5668 328.629 50.6196C326.325 48.3158 323.258 47.0459 320 47.0459ZM320 25.3782C309.731 25.3782 301.378 33.7314 301.378 44C301.378 48.6566 303.097 52.9196 305.931 56.1875C306.204 56.5014 306.717 56.3785 306.817 55.9752C307.444 53.437 308.797 51.1236 310.746 49.3085C312.092 48.0547 313.655 47.1026 315.345 46.487C315.738 46.3437 315.803 45.8153 315.457 45.5805C313.298 44.1178 311.879 41.6466 311.879 38.8518C311.879 34.3744 315.523 30.7308 320 30.7308C324.477 30.7308 328.121 34.3744 328.121 38.8518C328.121 41.645 326.704 44.1155 324.546 45.5785C324.2 45.8131 324.266 46.3412 324.658 46.484C326.494 47.1527 328.178 48.2205 329.602 49.645C331.349 51.391 332.587 53.5805 333.182 55.9772C333.282 56.3801 333.795 56.5032 334.067 56.1895C336.902 52.9216 338.622 48.6576 338.622 44C338.622 33.7314 330.269 25.3782 320 25.3782ZM320 32.109C316.282 32.109 313.257 35.1332 313.257 38.8518C313.257 42.394 316.002 45.3047 319.477 45.5727C319.483 45.5732 319.487 45.5781 319.487 45.5841C319.487 45.5904 319.492 45.5956 319.499 45.5956H320C323.718 45.5956 326.743 42.5702 326.743 38.8518C326.743 35.1332 323.718 32.109 320 32.109Z" fill="url(#paint2_linear_4899_3641)"/>
</g>
<g clip-path="url(#clip2_4899_3641)">
<path d="M368 57C372.274 57 376.292 58.6635 379.314 61.6859C382.337 64.7084 384 68.7255 384 73C384 77.2745 382.337 81.2915 379.314 84.3141C376.292 87.3366 372.274 89 368 89C363.726 89 359.708 87.3365 356.686 84.3141C353.663 81.2916 352 77.2745 352 73C352 68.7255 353.663 64.7085 356.686 61.6859C359.708 58.6634 363.726 57 368 57ZM368 75.4367C363.054 75.4367 358.87 79.193 358.304 84.0617C358.288 84.1987 358.343 84.3347 358.449 84.4231C361.036 86.59 364.368 87.8974 368 87.8974C371.632 87.8974 374.965 86.59 377.552 84.4231C377.658 84.3345 377.711 84.1977 377.696 84.0609C377.443 81.888 376.461 79.8535 374.903 78.2957C373.06 76.4526 370.606 75.4367 368 75.4367ZM368 58.1026C359.785 58.1026 353.103 64.7852 353.103 73C353.103 76.7253 354.478 80.1357 356.745 82.75C356.963 83.0011 357.374 82.9028 357.454 82.5801C357.955 80.5496 359.038 78.6989 360.597 77.2468C361.674 76.2438 362.924 75.4821 364.276 74.9896C364.59 74.8749 364.642 74.4523 364.365 74.2644C362.638 73.0942 361.503 71.1172 361.503 68.8814C361.503 65.2995 364.418 62.3846 368 62.3846C371.582 62.3846 374.497 65.2995 374.497 68.8814C374.497 71.116 373.363 73.0924 371.637 74.2628C371.36 74.4505 371.412 74.8729 371.727 74.9872C373.195 75.5222 374.542 76.3764 375.682 77.516C377.079 78.9128 378.07 80.6644 378.546 82.5817C378.626 82.9041 379.036 83.0025 379.253 82.7516C381.522 80.1373 382.897 76.7261 382.897 73C382.897 64.7852 376.215 58.1026 368 58.1026ZM368 63.4872C365.025 63.4872 362.606 65.9065 362.606 68.8814C362.606 71.7152 364.802 74.0437 367.581 74.2582C367.586 74.2585 367.59 74.2625 367.59 74.2673C367.59 74.2723 367.594 74.2764 367.599 74.2764H368C370.975 74.2764 373.394 71.8561 373.394 68.8814C373.394 65.9065 370.975 63.4872 368 63.4872Z" fill="url(#paint3_linear_4899_3641)"/>
</g>
<g clip-path="url(#clip3_4899_3641)">
<path d="M368 0C372.274 0 376.292 1.66347 379.314 4.6859C382.337 7.70845 384 11.7255 384 16C384 20.2745 382.337 24.2915 379.314 27.3141C376.292 30.3366 372.274 32 368 32C363.726 32 359.708 30.3365 356.686 27.3141C353.663 24.2916 352 20.2745 352 16C352 11.7255 353.663 7.70845 356.686 4.6859C359.708 1.66341 363.726 0 368 0ZM368 18.4367C363.054 18.4367 358.87 22.193 358.304 27.0617C358.288 27.1987 358.343 27.3347 358.449 27.4231C361.036 29.59 364.368 30.8974 368 30.8974C371.632 30.8974 374.965 29.59 377.552 27.4231C377.658 27.3345 377.711 27.1977 377.696 27.0609C377.443 24.888 376.461 22.8535 374.903 21.2957C373.06 19.4526 370.606 18.4367 368 18.4367ZM368 1.10256C359.785 1.10256 353.103 7.78515 353.103 16C353.103 19.7253 354.478 23.1357 356.745 25.75C356.963 26.0011 357.374 25.9028 357.454 25.5801C357.955 23.5496 359.038 21.6989 360.597 20.2468C361.674 19.2438 362.924 18.4821 364.276 17.9896C364.59 17.8749 364.642 17.4523 364.365 17.2644C362.638 16.0942 361.503 14.1172 361.503 11.8814C361.503 8.29952 364.418 5.38462 368 5.38462C371.582 5.38462 374.497 8.29952 374.497 11.8814C374.497 14.116 373.363 16.0924 371.637 17.2628C371.36 17.4505 371.412 17.8729 371.727 17.9872C373.195 18.5222 374.542 19.3764 375.682 20.516C377.079 21.9128 378.07 23.6644 378.546 25.5817C378.626 25.9041 379.036 26.0025 379.253 25.7516C381.522 23.1373 382.897 19.7261 382.897 16C382.897 7.78515 376.215 1.10256 368 1.10256ZM368 6.48718C365.025 6.48718 362.606 8.90653 362.606 11.8814C362.606 14.7152 364.802 17.0437 367.581 17.2582C367.586 17.2585 367.59 17.2625 367.59 17.2673C367.59 17.2723 367.594 17.2764 367.599 17.2764H368C370.975 17.2764 373.394 14.8561 373.394 11.8814C373.394 8.90653 370.975 6.48718 368 6.48718Z" fill="url(#paint4_linear_4899_3641)"/>
</g>
<g clip-path="url(#clip4_4899_3641)">
<path d="M368 114C372.274 114 376.292 115.663 379.314 118.686C382.337 121.708 384 125.726 384 130C384 134.274 382.337 138.292 379.314 141.314C376.292 144.337 372.274 146 368 146C363.726 146 359.708 144.337 356.686 141.314C353.663 138.292 352 134.274 352 130C352 125.726 353.663 121.708 356.686 118.686C359.708 115.663 363.726 114 368 114ZM368 132.437C363.054 132.437 358.87 136.193 358.304 141.062C358.288 141.199 358.343 141.335 358.449 141.423C361.036 143.59 364.368 144.897 368 144.897C371.632 144.897 374.965 143.59 377.552 141.423C377.658 141.335 377.711 141.198 377.696 141.061C377.443 138.888 376.461 136.853 374.903 135.296C373.06 133.453 370.606 132.437 368 132.437ZM368 115.103C359.785 115.103 353.103 121.785 353.103 130C353.103 133.725 354.478 137.136 356.745 139.75C356.963 140.001 357.374 139.903 357.454 139.58C357.955 137.55 359.038 135.699 360.597 134.247C361.674 133.244 362.924 132.482 364.276 131.99C364.59 131.875 364.642 131.452 364.365 131.264C362.638 130.094 361.503 128.117 361.503 125.881C361.503 122.3 364.418 119.385 368 119.385C371.582 119.385 374.497 122.3 374.497 125.881C374.497 128.116 373.363 130.092 371.637 131.263C371.36 131.45 371.412 131.873 371.727 131.987C373.195 132.522 374.542 133.376 375.682 134.516C377.079 135.913 378.07 137.664 378.546 139.582C378.626 139.904 379.036 140.003 379.253 139.752C381.522 137.137 382.897 133.726 382.897 130C382.897 121.785 376.215 115.103 368 115.103ZM368 120.487C365.025 120.487 362.606 122.907 362.606 125.881C362.606 128.715 364.802 131.044 367.581 131.258C367.586 131.259 367.59 131.263 367.59 131.267C367.59 131.272 367.594 131.276 367.599 131.276H368C370.975 131.276 373.394 128.856 373.394 125.881C373.394 122.907 370.975 120.487 368 120.487Z" fill="url(#paint5_linear_4899_3641)"/>
</g>
<circle cx="197" cy="40" r="29" fill="#0A0F2B" fill-opacity="0.8" stroke="url(#paint6_linear_4899_3641)"/>
<circle cx="197" cy="108" r="29" fill="#0A0F2B" fill-opacity="0.8" stroke="url(#paint7_linear_4899_3641)"/>
<circle opacity="0.1" cx="197" cy="40" r="32.5" stroke="#3FA1E3"/>
<circle opacity="0.1" cx="197.5" cy="108.5" r="33" stroke="#3FA1E3"/>
<path opacity="0.6" d="M234 113L349 128.5" stroke="#A0A9DB" stroke-linecap="round" stroke-linejoin="round" stroke-dasharray="1 3"/>
<path opacity="0.6" d="M234 57L349 72.5" stroke="#A0A9DB" stroke-linecap="round" stroke-linejoin="round" stroke-dasharray="1 3"/>
<path opacity="0.6" d="M234 32.5L349 17" stroke="#A0A9DB" stroke-linecap="round" stroke-linejoin="round" stroke-dasharray="1 3"/>
<path opacity="0.6" d="M111 55.5L161 47" stroke="#A0A9DB" stroke-linecap="round" stroke-linejoin="round" stroke-dasharray="1 3"/>
<path opacity="0.6" d="M111 95L161 103.5" stroke="#A0A9DB" stroke-linecap="round" stroke-linejoin="round" stroke-dasharray="1 3"/>
<path opacity="0.6" d="M235 102.5H296" stroke="#A0A9DB" stroke-linecap="round" stroke-linejoin="round" stroke-dasharray="1 3"/>
<path opacity="0.6" d="M235 44H296" stroke="#A0A9DB" stroke-linecap="round" stroke-linejoin="round" stroke-dasharray="1 3"/>
<path fill-rule="evenodd" clip-rule="evenodd" d="M196.068 43.0244C196.068 42.4691 195.848 41.9369 195.455 41.5449C195.261 41.3504 195.03 41.1962 194.776 41.0909C194.523 40.9857 194.25 40.9316 193.976 40.9317H189.093C188.537 40.9317 188.005 41.1521 187.613 41.5449C187.419 41.7391 187.264 41.9697 187.159 42.2236C187.054 42.4774 187 42.7496 187 43.0244V47.9073C187 48.4626 187.22 48.9948 187.613 49.3868C187.807 49.5813 188.038 49.7356 188.292 49.8408C188.546 49.946 188.818 50.0001 189.093 50H193.976C194.531 50 195.063 49.7796 195.455 49.3868C195.65 49.1927 195.804 48.962 195.909 48.7081C196.014 48.4543 196.068 48.1821 196.068 47.9073V43.0244ZM206.532 43.0244C206.532 42.4691 206.311 41.9369 205.919 41.5449C205.724 41.3504 205.494 41.1962 205.24 41.0909C204.986 40.9857 204.714 40.9316 204.439 40.9317H199.556C199.001 40.9317 198.469 41.1521 198.077 41.5449C197.882 41.7391 197.728 41.9697 197.623 42.2236C197.517 42.4774 197.463 42.7496 197.463 43.0244V47.9073C197.463 48.4626 197.684 48.9948 198.077 49.3868C198.271 49.5813 198.501 49.7356 198.755 49.8408C199.009 49.946 199.281 50.0001 199.556 50H204.439C204.994 50 205.527 49.7796 205.919 49.3868C206.113 49.1927 206.267 48.962 206.372 48.7081C206.478 48.4543 206.532 48.1821 206.532 47.9073V43.0244ZM203.477 39.3922L206.387 36.482C206.78 36.0895 207 35.5574 207 35.0025C207 34.4476 206.78 33.9154 206.387 33.5229L203.477 30.6127C203.085 30.2204 202.552 30 201.998 30C201.443 30 200.91 30.2204 200.518 30.6127L197.608 33.5229C197.215 33.9154 196.995 34.4476 196.995 35.0025C196.995 35.5574 197.215 36.0895 197.608 36.482L200.518 39.3922C200.91 39.7845 201.443 40.0049 201.998 40.0049C202.552 40.0049 203.085 39.7845 203.477 39.3922ZM196.068 32.561C196.068 32.0057 195.848 31.4735 195.455 31.0815C195.261 30.887 195.03 30.7328 194.776 30.6275C194.523 30.5223 194.25 30.4682 193.976 30.4683H189.093C188.537 30.4683 188.005 30.6887 187.613 31.0815C187.419 31.2757 187.264 31.5063 187.159 31.7602C187.054 32.014 187 32.2862 187 32.561V37.4439C187 37.9992 187.22 38.5314 187.613 38.9234C187.807 39.1179 188.038 39.2722 188.292 39.3774C188.546 39.4826 188.818 39.5367 189.093 39.5366H193.976C194.531 39.5366 195.063 39.3162 195.455 38.9234C195.65 38.7293 195.804 38.4986 195.909 38.2447C196.014 37.9909 196.068 37.7187 196.068 37.4439V32.561Z" fill="url(#paint8_linear_4899_3641)"/>
<path d="M193.46 98H189.207C187.988 98 187 98.988 187 100.207V104.46C187 105.679 187.988 106.667 189.207 106.667H193.46C194.679 106.667 195.667 105.679 195.667 104.46V100.207C195.667 98.988 194.679 98 193.46 98Z" fill="url(#paint9_linear_4899_3641)"/>
<path d="M204.793 98H200.54C199.321 98 198.333 98.988 198.333 100.207V104.46C198.333 105.679 199.321 106.667 200.54 106.667H204.793C206.012 106.667 207 105.679 207 104.46V100.207C207 98.988 206.012 98 204.793 98Z" fill="url(#paint10_linear_4899_3641)"/>
<path d="M193.46 109.333H189.207C187.988 109.333 187 110.321 187 111.54V115.793C187 117.012 187.988 118 189.207 118H193.46C194.679 118 195.667 117.012 195.667 115.793V111.54C195.667 110.321 194.679 109.333 193.46 109.333Z" fill="url(#paint11_linear_4899_3641)"/>
<path d="M202.667 118C205.06 118 207 116.06 207 113.667C207 111.273 205.06 109.333 202.667 109.333C200.273 109.333 198.333 111.273 198.333 113.667C198.333 116.06 200.273 118 202.667 118Z" fill="url(#paint12_linear_4899_3641)"/>
<path d="M37.5938 69.2142L43.3053 59.579C44.5659 57.4524 46.8548 56.1484 49.3269 56.1484H59.1288C61.6009 56.1484 63.8898 57.4524 65.1504 59.579L70.8619 69.2142C72.156 71.3974 72.1671 74.1101 70.8908 76.3038L65.1414 86.186C63.8879 88.3404 61.5834 89.6658 59.0909 89.6658H49.3648C46.8723 89.6658 44.5678 88.3404 43.3143 86.186L37.5649 76.3038C36.2886 74.1101 36.2996 71.3974 37.5938 69.2142Z" fill="url(#paint13_linear_4899_3641)"/>
<path d="M52.2562 62.0625H47.9187L41.4124 72.4349L47.9187 83.7502H52.2562L45.7499 72.4349L52.2562 62.0625Z" fill="#131313"/>
<path d="M56.1996 62.0625H60.5371L67.0435 72.4349L60.5371 83.7502H56.1996L62.7059 72.4349L56.1996 62.0625Z" fill="#131313"/>
<g opacity="0.2" filter="url(#filter0_f_4899_3641)">
<circle cx="54" cy="73" r="28.5" stroke="#3FA1E3"/>
</g>
<g opacity="0.5" filter="url(#filter1_f_4899_3641)">
<path d="M32.0918 69.766L40.5772 55.4338C41.8373 53.3054 44.1272 52 46.6006 52H61.3993C63.8728 52 66.1627 53.3054 67.4228 55.4338L75.9082 69.766C77.1998 71.9476 77.2109 74.657 75.9371 76.8491L67.4138 91.517C66.1608 93.6732 63.8553 95 61.3614 95H46.6386C44.1447 95 41.8392 93.6732 40.5862 91.517L32.0629 76.8491C30.7891 74.6571 30.8002 71.9476 32.0918 69.766Z" stroke="#3FA1E3"/>
</g>
<defs>
<filter id="filter0_f_4899_3641" x="21" y="40" width="66" height="66" filterUnits="userSpaceOnUse" color-interpolation-filters="sRGB">
<feFlood flood-opacity="0" result="BackgroundImageFix"/>
<feBlend mode="normal" in="SourceGraphic" in2="BackgroundImageFix" result="shape"/>
<feGaussianBlur stdDeviation="2" result="effect1_foregroundBlur_4899_3641"/>
</filter>
<filter id="filter1_f_4899_3641" x="26.6152" y="47.5" width="54.7695" height="52" filterUnits="userSpaceOnUse" color-interpolation-filters="sRGB">
<feFlood flood-opacity="0" result="BackgroundImageFix"/>
<feBlend mode="normal" in="SourceGraphic" in2="BackgroundImageFix" result="shape"/>
<feGaussianBlur stdDeviation="2" result="effect1_foregroundBlur_4899_3641"/>
</filter>
<linearGradient id="paint0_linear_4899_3641" x1="54" y1="24" x2="54" y2="123" gradientUnits="userSpaceOnUse">
<stop stop-color="#3FA1E3"/>
<stop offset="1" stop-color="#3FA1E3" stop-opacity="0.35"/>
</linearGradient>
<linearGradient id="paint1_linear_4899_3641" x1="320" y1="82" x2="320" y2="122" gradientUnits="userSpaceOnUse">
<stop stop-color="#3FA1E3" stop-opacity="0.35"/>
<stop offset="0.605793" stop-color="#3FA1E3"/>
</linearGradient>
<linearGradient id="paint2_linear_4899_3641" x1="320" y1="24" x2="320" y2="64" gradientUnits="userSpaceOnUse">
<stop stop-color="#3FA1E3" stop-opacity="0.35"/>
<stop offset="0.605793" stop-color="#3FA1E3"/>
</linearGradient>
<linearGradient id="paint3_linear_4899_3641" x1="368" y1="57" x2="368" y2="89" gradientUnits="userSpaceOnUse">
<stop stop-color="#3FA1E3" stop-opacity="0.35"/>
<stop offset="0.605793" stop-color="#3FA1E3"/>
</linearGradient>
<linearGradient id="paint4_linear_4899_3641" x1="368" y1="0" x2="368" y2="32" gradientUnits="userSpaceOnUse">
<stop stop-color="#3FA1E3" stop-opacity="0.35"/>
<stop offset="0.605793" stop-color="#3FA1E3"/>
</linearGradient>
<linearGradient id="paint5_linear_4899_3641" x1="368" y1="114" x2="368" y2="146" gradientUnits="userSpaceOnUse">
<stop stop-color="#3FA1E3" stop-opacity="0.35"/>
<stop offset="0.605793" stop-color="#3FA1E3"/>
</linearGradient>
<linearGradient id="paint6_linear_4899_3641" x1="197" y1="11" x2="197" y2="69" gradientUnits="userSpaceOnUse">
<stop stop-color="#3FA1E3"/>
<stop offset="1" stop-color="#3FA1E3" stop-opacity="0.35"/>
</linearGradient>
<linearGradient id="paint7_linear_4899_3641" x1="197" y1="79" x2="197" y2="137" gradientUnits="userSpaceOnUse">
<stop stop-color="#3FA1E3"/>
<stop offset="1" stop-color="#3FA1E3" stop-opacity="0.35"/>
</linearGradient>
<linearGradient id="paint8_linear_4899_3641" x1="197" y1="30" x2="197" y2="50" gradientUnits="userSpaceOnUse">
<stop stop-color="#3FA1E3" stop-opacity="0.35"/>
<stop offset="0.605793" stop-color="#3FA1E3"/>
</linearGradient>
<linearGradient id="paint9_linear_4899_3641" x1="197" y1="98" x2="197" y2="118" gradientUnits="userSpaceOnUse">
<stop stop-color="#3FA1E3" stop-opacity="0.35"/>
<stop offset="0.605793" stop-color="#3FA1E3"/>
</linearGradient>
<linearGradient id="paint10_linear_4899_3641" x1="197" y1="98" x2="197" y2="118" gradientUnits="userSpaceOnUse">
<stop stop-color="#3FA1E3" stop-opacity="0.35"/>
<stop offset="0.605793" stop-color="#3FA1E3"/>
</linearGradient>
<linearGradient id="paint11_linear_4899_3641" x1="197" y1="98" x2="197" y2="118" gradientUnits="userSpaceOnUse">
<stop stop-color="#3FA1E3" stop-opacity="0.35"/>
<stop offset="0.605793" stop-color="#3FA1E3"/>
</linearGradient>
<linearGradient id="paint12_linear_4899_3641" x1="197" y1="98" x2="197" y2="118" gradientUnits="userSpaceOnUse">
<stop stop-color="#3FA1E3" stop-opacity="0.35"/>
<stop offset="0.605793" stop-color="#3FA1E3"/>
</linearGradient>
<linearGradient id="paint13_linear_4899_3641" x1="54.2278" y1="56.1484" x2="54.2278" y2="89.6658" gradientUnits="userSpaceOnUse">
<stop stop-color="#3FA1E3" stop-opacity="0.35"/>
<stop offset="0.605793" stop-color="#3FA1E3"/>
</linearGradient>
<clipPath id="clip0_4899_3641">
<rect width="40" height="40" fill="white" transform="translate(300 82)"/>
</clipPath>
<clipPath id="clip1_4899_3641">
<rect width="40" height="40" fill="white" transform="translate(300 24)"/>
</clipPath>
<clipPath id="clip2_4899_3641">
<rect width="32" height="32" fill="white" transform="translate(352 57)"/>
</clipPath>
<clipPath id="clip3_4899_3641">
<rect width="32" height="32" fill="white" transform="translate(352)"/>
</clipPath>
<clipPath id="clip4_4899_3641">
<rect width="32" height="32" fill="white" transform="translate(352 114)"/>
</clipPath>
</defs>
</svg>
