<svg width="560" height="148" viewBox="0 0 560 148" fill="none" xmlns="http://www.w3.org/2000/svg">
<path opacity="0.3" d="M181.5 34C208.838 34 231 56.1619 231 83.5C231 110.838 208.838 133 181.5 133C159.391 133 140.667 118.505 134.313 98.5" stroke="#3FA1E3" stroke-dasharray="4 6"/>
<mask id="path-2-inside-1_4315_2230" fill="white">
<path d="M170.727 11H105.273C101.262 11 98 14.2616 98 18.2728V29.1819C98 33.1929 101.262 36.4547 105.273 36.4547H170.727C174.738 36.4547 178 33.193 178 29.1819V18.2728C178 14.2616 174.738 11 170.727 11ZM112.545 27.3636C112.545 28.3686 111.732 29.1819 110.727 29.1819C109.722 29.1819 108.909 28.3686 108.909 27.3636V20.0909C108.909 19.0859 109.722 18.2726 110.727 18.2726C111.732 18.2726 112.546 19.0859 112.546 20.0909L112.545 27.3636ZM119.818 27.3636C119.818 27.6025 119.771 27.839 119.68 28.0596C119.589 28.2803 119.455 28.4808 119.286 28.6497C119.117 28.8186 118.917 28.9525 118.696 29.0438C118.475 29.1351 118.239 29.182 118 29.1819C117.761 29.182 117.525 29.1351 117.304 29.0438C117.083 28.9525 116.883 28.8186 116.714 28.6497C116.545 28.4808 116.411 28.2803 116.32 28.0596C116.228 27.839 116.182 27.6025 116.182 27.3636V20.0909C116.182 19.852 116.228 19.6155 116.32 19.3949C116.411 19.1742 116.545 18.9737 116.714 18.8048C116.883 18.6359 117.083 18.502 117.304 18.4107C117.525 18.3194 117.761 18.2725 118 18.2726C118.239 18.2725 118.475 18.3194 118.696 18.4107C118.917 18.502 119.117 18.6359 119.286 18.8048C119.455 18.9737 119.589 19.1742 119.68 19.3949C119.771 19.6155 119.818 19.852 119.818 20.0909V27.3636ZM127.091 27.3636C127.091 27.6025 127.044 27.839 126.953 28.0596C126.862 28.2803 126.728 28.4808 126.559 28.6497C126.39 28.8186 126.189 28.9525 125.969 29.0438C125.748 29.1351 125.512 29.182 125.273 29.1819C125.034 29.182 124.797 29.1351 124.577 29.0438C124.356 28.9525 124.156 28.8186 123.987 28.6497C123.818 28.4808 123.684 28.2803 123.593 28.0596C123.501 27.839 123.454 27.6025 123.455 27.3636V20.0909C123.454 19.852 123.501 19.6155 123.593 19.3949C123.684 19.1742 123.818 18.9737 123.987 18.8048C124.156 18.6359 124.356 18.502 124.577 18.4107C124.797 18.3194 125.034 18.2725 125.273 18.2726C125.512 18.2725 125.748 18.3194 125.969 18.4107C126.189 18.502 126.39 18.6359 126.559 18.8048C126.728 18.9737 126.862 19.1742 126.953 19.3949C127.044 19.6155 127.091 19.852 127.091 20.0909V27.3636ZM152.545 27.3636C150.541 27.3636 148.909 25.7319 148.909 23.7273C148.909 21.7228 150.541 20.0909 152.545 20.0909C154.55 20.0909 156.182 21.7226 156.182 23.7272C156.182 25.7317 154.55 27.3636 152.545 27.3636ZM163.455 27.3636C161.45 27.3636 159.818 25.7319 159.818 23.7273C159.818 21.7228 161.45 20.0909 163.455 20.0909C165.459 20.0909 167.091 21.7226 167.091 23.7272C167.091 25.7317 165.459 27.3636 163.455 27.3636ZM170.727 38.2727H105.273C101.262 38.2727 98 41.5344 98 45.5455V56.4546C98 60.4656 101.262 63.7274 105.273 63.7274H170.727C174.738 63.7274 178 60.4658 178 56.4546V45.5455C178 41.5344 174.738 38.2727 170.727 38.2727ZM112.545 54.6364C112.545 55.6414 111.732 56.4546 110.727 56.4546C109.722 56.4546 108.909 55.6414 108.909 54.6364V47.3636C108.909 46.3586 109.722 45.5454 110.727 45.5454C111.732 45.5454 112.546 46.3586 112.546 47.3636L112.545 54.6364ZM119.818 54.6364C119.818 54.8752 119.771 55.1117 119.68 55.3324C119.589 55.5531 119.455 55.7536 119.286 55.9224C119.117 56.0913 118.917 56.2252 118.696 56.3165C118.475 56.4079 118.239 56.4548 118 56.4546C117.761 56.4548 117.525 56.4079 117.304 56.3165C117.083 56.2252 116.883 56.0913 116.714 55.9224C116.545 55.7536 116.411 55.5531 116.32 55.3324C116.228 55.1117 116.182 54.8752 116.182 54.6364V47.3636C116.182 47.1248 116.228 46.8883 116.32 46.6676C116.411 46.4469 116.545 46.2464 116.714 46.0776C116.883 45.9087 117.083 45.7748 117.304 45.6834C117.525 45.5921 117.761 45.5452 118 45.5454C118.239 45.5452 118.475 45.5921 118.696 45.6834C118.917 45.7748 119.117 45.9087 119.286 46.0776C119.455 46.2464 119.589 46.4469 119.68 46.6676C119.771 46.8883 119.818 47.1248 119.818 47.3636V54.6364ZM127.091 54.6364C127.091 54.8752 127.044 55.1117 126.953 55.3324C126.862 55.5531 126.728 55.7536 126.559 55.9224C126.39 56.0913 126.189 56.2252 125.969 56.3165C125.748 56.4079 125.512 56.4548 125.273 56.4546C125.034 56.4548 124.797 56.4079 124.577 56.3165C124.356 56.2252 124.156 56.0913 123.987 55.9224C123.818 55.7536 123.684 55.5531 123.593 55.3324C123.501 55.1117 123.454 54.8752 123.455 54.6364V47.3636C123.454 47.1248 123.501 46.8883 123.593 46.6676C123.684 46.4469 123.818 46.2464 123.987 46.0776C124.156 45.9087 124.356 45.7748 124.577 45.6834C124.797 45.5921 125.034 45.5452 125.273 45.5454C125.512 45.5452 125.748 45.5921 125.969 45.6834C126.189 45.7748 126.39 45.9087 126.559 46.0776C126.728 46.2464 126.862 46.4469 126.953 46.6676C127.044 46.8883 127.091 47.1248 127.091 47.3636V54.6364ZM152.545 54.6364C150.541 54.6364 148.909 53.0046 148.909 51.0001C148.909 48.9955 150.541 47.3638 152.545 47.3638C154.55 47.3638 156.182 48.9955 156.182 51.0001C156.182 53.0046 154.55 54.6364 152.545 54.6364ZM163.455 54.6364C161.45 54.6364 159.818 53.0046 159.818 51.0001C159.818 48.9955 161.45 47.3638 163.455 47.3638C165.459 47.3638 167.091 48.9955 167.091 51.0001C167.091 53.0046 165.459 54.6364 163.455 54.6364ZM170.727 65.5455H105.273C101.262 65.5455 98 68.8071 98 72.8183V83.7274C98 87.7383 101.262 91.0002 105.273 91.0002H170.727C174.738 91.0002 178 87.7385 178 83.7274V72.8183C178 68.8071 174.738 65.5455 170.727 65.5455ZM112.545 81.9091C112.545 82.9141 111.732 83.7274 110.727 83.7274C109.722 83.7274 108.909 82.9141 108.909 81.9091V74.6363C108.909 73.6313 109.722 72.8181 110.727 72.8181C111.732 72.8181 112.546 73.6313 112.546 74.6363L112.545 81.9091ZM119.818 81.9091C119.818 82.148 119.771 82.3845 119.68 82.6051C119.589 82.8258 119.455 83.0263 119.286 83.1952C119.117 83.364 118.917 83.498 118.696 83.5893C118.475 83.6806 118.239 83.7275 118 83.7274C117.761 83.7275 117.525 83.6806 117.304 83.5893C117.083 83.498 116.883 83.364 116.714 83.1952C116.545 83.0263 116.411 82.8258 116.32 82.6051C116.228 82.3845 116.182 82.148 116.182 81.9091V74.6363C116.182 74.3975 116.228 74.161 116.32 73.9403C116.411 73.7197 116.545 73.5192 116.714 73.3503C116.883 73.1814 117.083 73.0475 117.304 72.9562C117.525 72.8649 117.761 72.8179 118 72.8181C118.239 72.8179 118.475 72.8649 118.696 72.9562C118.917 73.0475 119.117 73.1814 119.286 73.3503C119.455 73.5192 119.589 73.7197 119.68 73.9403C119.771 74.161 119.818 74.3975 119.818 74.6363V81.9091ZM127.091 81.9091C127.091 82.148 127.044 82.3845 126.953 82.6051C126.862 82.8258 126.728 83.0263 126.559 83.1952C126.39 83.364 126.189 83.498 125.969 83.5893C125.748 83.6806 125.512 83.7275 125.273 83.7274C125.034 83.7275 124.797 83.6806 124.577 83.5893C124.356 83.498 124.156 83.364 123.987 83.1952C123.818 83.0263 123.684 82.8258 123.593 82.6051C123.501 82.3845 123.454 82.148 123.455 81.9091V74.6363C123.454 74.3975 123.501 74.161 123.593 73.9403C123.684 73.7197 123.818 73.5192 123.987 73.3503C124.156 73.1814 124.356 73.0475 124.577 72.9562C124.797 72.8649 125.034 72.8179 125.273 72.8181C125.512 72.8179 125.748 72.8649 125.969 72.9562C126.189 73.0475 126.39 73.1814 126.559 73.3503C126.728 73.5192 126.862 73.7197 126.953 73.9403C127.044 74.161 127.091 74.3975 127.091 74.6363V81.9091ZM152.545 81.9091C150.541 81.9091 148.909 80.2774 148.909 78.2728C148.909 76.2683 150.541 74.6365 152.545 74.6365C154.55 74.6365 156.182 76.2683 156.182 78.2728C156.182 80.2774 154.55 81.9091 152.545 81.9091ZM163.455 81.9091C161.45 81.9091 159.818 80.2774 159.818 78.2728C159.818 76.2683 161.45 74.6365 163.455 74.6365C165.459 74.6365 167.091 76.2683 167.091 78.2728C167.091 80.2774 165.459 81.9091 163.455 81.9091Z"/>
</mask>
<path d="M170.727 11H105.273C101.262 11 98 14.2616 98 18.2728V29.1819C98 33.1929 101.262 36.4547 105.273 36.4547H170.727C174.738 36.4547 178 33.193 178 29.1819V18.2728C178 14.2616 174.738 11 170.727 11ZM112.545 27.3636C112.545 28.3686 111.732 29.1819 110.727 29.1819C109.722 29.1819 108.909 28.3686 108.909 27.3636V20.0909C108.909 19.0859 109.722 18.2726 110.727 18.2726C111.732 18.2726 112.546 19.0859 112.546 20.0909L112.545 27.3636ZM119.818 27.3636C119.818 27.6025 119.771 27.839 119.68 28.0596C119.589 28.2803 119.455 28.4808 119.286 28.6497C119.117 28.8186 118.917 28.9525 118.696 29.0438C118.475 29.1351 118.239 29.182 118 29.1819C117.761 29.182 117.525 29.1351 117.304 29.0438C117.083 28.9525 116.883 28.8186 116.714 28.6497C116.545 28.4808 116.411 28.2803 116.32 28.0596C116.228 27.839 116.182 27.6025 116.182 27.3636V20.0909C116.182 19.852 116.228 19.6155 116.32 19.3949C116.411 19.1742 116.545 18.9737 116.714 18.8048C116.883 18.6359 117.083 18.502 117.304 18.4107C117.525 18.3194 117.761 18.2725 118 18.2726C118.239 18.2725 118.475 18.3194 118.696 18.4107C118.917 18.502 119.117 18.6359 119.286 18.8048C119.455 18.9737 119.589 19.1742 119.68 19.3949C119.771 19.6155 119.818 19.852 119.818 20.0909V27.3636ZM127.091 27.3636C127.091 27.6025 127.044 27.839 126.953 28.0596C126.862 28.2803 126.728 28.4808 126.559 28.6497C126.39 28.8186 126.189 28.9525 125.969 29.0438C125.748 29.1351 125.512 29.182 125.273 29.1819C125.034 29.182 124.797 29.1351 124.577 29.0438C124.356 28.9525 124.156 28.8186 123.987 28.6497C123.818 28.4808 123.684 28.2803 123.593 28.0596C123.501 27.839 123.454 27.6025 123.455 27.3636V20.0909C123.454 19.852 123.501 19.6155 123.593 19.3949C123.684 19.1742 123.818 18.9737 123.987 18.8048C124.156 18.6359 124.356 18.502 124.577 18.4107C124.797 18.3194 125.034 18.2725 125.273 18.2726C125.512 18.2725 125.748 18.3194 125.969 18.4107C126.189 18.502 126.39 18.6359 126.559 18.8048C126.728 18.9737 126.862 19.1742 126.953 19.3949C127.044 19.6155 127.091 19.852 127.091 20.0909V27.3636ZM152.545 27.3636C150.541 27.3636 148.909 25.7319 148.909 23.7273C148.909 21.7228 150.541 20.0909 152.545 20.0909C154.55 20.0909 156.182 21.7226 156.182 23.7272C156.182 25.7317 154.55 27.3636 152.545 27.3636ZM163.455 27.3636C161.45 27.3636 159.818 25.7319 159.818 23.7273C159.818 21.7228 161.45 20.0909 163.455 20.0909C165.459 20.0909 167.091 21.7226 167.091 23.7272C167.091 25.7317 165.459 27.3636 163.455 27.3636ZM170.727 38.2727H105.273C101.262 38.2727 98 41.5344 98 45.5455V56.4546C98 60.4656 101.262 63.7274 105.273 63.7274H170.727C174.738 63.7274 178 60.4658 178 56.4546V45.5455C178 41.5344 174.738 38.2727 170.727 38.2727ZM112.545 54.6364C112.545 55.6414 111.732 56.4546 110.727 56.4546C109.722 56.4546 108.909 55.6414 108.909 54.6364V47.3636C108.909 46.3586 109.722 45.5454 110.727 45.5454C111.732 45.5454 112.546 46.3586 112.546 47.3636L112.545 54.6364ZM119.818 54.6364C119.818 54.8752 119.771 55.1117 119.68 55.3324C119.589 55.5531 119.455 55.7536 119.286 55.9224C119.117 56.0913 118.917 56.2252 118.696 56.3165C118.475 56.4079 118.239 56.4548 118 56.4546C117.761 56.4548 117.525 56.4079 117.304 56.3165C117.083 56.2252 116.883 56.0913 116.714 55.9224C116.545 55.7536 116.411 55.5531 116.32 55.3324C116.228 55.1117 116.182 54.8752 116.182 54.6364V47.3636C116.182 47.1248 116.228 46.8883 116.32 46.6676C116.411 46.4469 116.545 46.2464 116.714 46.0776C116.883 45.9087 117.083 45.7748 117.304 45.6834C117.525 45.5921 117.761 45.5452 118 45.5454C118.239 45.5452 118.475 45.5921 118.696 45.6834C118.917 45.7748 119.117 45.9087 119.286 46.0776C119.455 46.2464 119.589 46.4469 119.68 46.6676C119.771 46.8883 119.818 47.1248 119.818 47.3636V54.6364ZM127.091 54.6364C127.091 54.8752 127.044 55.1117 126.953 55.3324C126.862 55.5531 126.728 55.7536 126.559 55.9224C126.39 56.0913 126.189 56.2252 125.969 56.3165C125.748 56.4079 125.512 56.4548 125.273 56.4546C125.034 56.4548 124.797 56.4079 124.577 56.3165C124.356 56.2252 124.156 56.0913 123.987 55.9224C123.818 55.7536 123.684 55.5531 123.593 55.3324C123.501 55.1117 123.454 54.8752 123.455 54.6364V47.3636C123.454 47.1248 123.501 46.8883 123.593 46.6676C123.684 46.4469 123.818 46.2464 123.987 46.0776C124.156 45.9087 124.356 45.7748 124.577 45.6834C124.797 45.5921 125.034 45.5452 125.273 45.5454C125.512 45.5452 125.748 45.5921 125.969 45.6834C126.189 45.7748 126.39 45.9087 126.559 46.0776C126.728 46.2464 126.862 46.4469 126.953 46.6676C127.044 46.8883 127.091 47.1248 127.091 47.3636V54.6364ZM152.545 54.6364C150.541 54.6364 148.909 53.0046 148.909 51.0001C148.909 48.9955 150.541 47.3638 152.545 47.3638C154.55 47.3638 156.182 48.9955 156.182 51.0001C156.182 53.0046 154.55 54.6364 152.545 54.6364ZM163.455 54.6364C161.45 54.6364 159.818 53.0046 159.818 51.0001C159.818 48.9955 161.45 47.3638 163.455 47.3638C165.459 47.3638 167.091 48.9955 167.091 51.0001C167.091 53.0046 165.459 54.6364 163.455 54.6364ZM170.727 65.5455H105.273C101.262 65.5455 98 68.8071 98 72.8183V83.7274C98 87.7383 101.262 91.0002 105.273 91.0002H170.727C174.738 91.0002 178 87.7385 178 83.7274V72.8183C178 68.8071 174.738 65.5455 170.727 65.5455ZM112.545 81.9091C112.545 82.9141 111.732 83.7274 110.727 83.7274C109.722 83.7274 108.909 82.9141 108.909 81.9091V74.6363C108.909 73.6313 109.722 72.8181 110.727 72.8181C111.732 72.8181 112.546 73.6313 112.546 74.6363L112.545 81.9091ZM119.818 81.9091C119.818 82.148 119.771 82.3845 119.68 82.6051C119.589 82.8258 119.455 83.0263 119.286 83.1952C119.117 83.364 118.917 83.498 118.696 83.5893C118.475 83.6806 118.239 83.7275 118 83.7274C117.761 83.7275 117.525 83.6806 117.304 83.5893C117.083 83.498 116.883 83.364 116.714 83.1952C116.545 83.0263 116.411 82.8258 116.32 82.6051C116.228 82.3845 116.182 82.148 116.182 81.9091V74.6363C116.182 74.3975 116.228 74.161 116.32 73.9403C116.411 73.7197 116.545 73.5192 116.714 73.3503C116.883 73.1814 117.083 73.0475 117.304 72.9562C117.525 72.8649 117.761 72.8179 118 72.8181C118.239 72.8179 118.475 72.8649 118.696 72.9562C118.917 73.0475 119.117 73.1814 119.286 73.3503C119.455 73.5192 119.589 73.7197 119.68 73.9403C119.771 74.161 119.818 74.3975 119.818 74.6363V81.9091ZM127.091 81.9091C127.091 82.148 127.044 82.3845 126.953 82.6051C126.862 82.8258 126.728 83.0263 126.559 83.1952C126.39 83.364 126.189 83.498 125.969 83.5893C125.748 83.6806 125.512 83.7275 125.273 83.7274C125.034 83.7275 124.797 83.6806 124.577 83.5893C124.356 83.498 124.156 83.364 123.987 83.1952C123.818 83.0263 123.684 82.8258 123.593 82.6051C123.501 82.3845 123.454 82.148 123.455 81.9091V74.6363C123.454 74.3975 123.501 74.161 123.593 73.9403C123.684 73.7197 123.818 73.5192 123.987 73.3503C124.156 73.1814 124.356 73.0475 124.577 72.9562C124.797 72.8649 125.034 72.8179 125.273 72.8181C125.512 72.8179 125.748 72.8649 125.969 72.9562C126.189 73.0475 126.39 73.1814 126.559 73.3503C126.728 73.5192 126.862 73.7197 126.953 73.9403C127.044 74.161 127.091 74.3975 127.091 74.6363V81.9091ZM152.545 81.9091C150.541 81.9091 148.909 80.2774 148.909 78.2728C148.909 76.2683 150.541 74.6365 152.545 74.6365C154.55 74.6365 156.182 76.2683 156.182 78.2728C156.182 80.2774 154.55 81.9091 152.545 81.9091ZM163.455 81.9091C161.45 81.9091 159.818 80.2774 159.818 78.2728C159.818 76.2683 161.45 74.6365 163.455 74.6365C165.459 74.6365 167.091 76.2683 167.091 78.2728C167.091 80.2774 165.459 81.9091 163.455 81.9091Z" fill="#0A0F2B" fill-opacity="0.8" stroke="#3FA1E3" stroke-opacity="0.4" stroke-width="2" mask="url(#path-2-inside-1_4315_2230)"/>
<circle cx="181.5" cy="83.5" r="38.5" fill="#0A0F2B" fill-opacity="0.8" stroke="url(#paint0_linear_4315_2230)"/>
<path d="M164.497 79.4821L170.455 69.4306C171.716 67.304 174.004 66 176.477 66H186.724C189.196 66 191.485 67.304 192.746 69.4306L198.704 79.4821C199.998 81.6653 200.009 84.378 198.733 86.5717L192.737 96.8781C191.483 99.0325 189.179 100.358 186.686 100.358H176.514C174.022 100.358 171.717 99.0325 170.464 96.8781L164.468 86.5717C163.191 84.378 163.202 81.6653 164.497 79.4821Z" fill="url(#paint1_linear_4315_2230)"/>
<path d="M179.579 72.0635H175.133L168.464 82.696L175.133 94.2951H179.579L172.91 82.696L179.579 72.0635Z" fill="#131313"/>
<path d="M183.621 72.0635H188.067L194.737 82.696L188.067 94.2951H183.621L190.291 82.696L183.621 72.0635Z" fill="#131313"/>
<g opacity="0.2" filter="url(#filter0_f_4315_2230)">
<circle cx="181.6" cy="83.6" r="29.1" stroke="#3FA1E3"/>
</g>
<g opacity="0.5" filter="url(#filter1_f_4315_2230)">
<path d="M158.997 79.7912L167.785 65.3592C169.056 63.2731 171.321 62 173.764 62H189.437C191.879 62 194.145 63.2731 195.415 65.3592L204.204 79.7912C205.555 82.0096 205.566 84.7936 204.234 87.0231L195.407 101.791C194.143 103.905 191.862 105.2 189.399 105.2H173.802C171.339 105.2 169.057 103.905 167.793 101.791L158.967 87.0231C157.634 84.7936 157.646 82.0096 158.997 79.7912Z" stroke="#3FA1E3"/>
</g>
<path opacity="0.3" d="M280 1V147" stroke="#3FA1E3"/>
<path d="M444.924 59.8298C443.272 53.2178 439.581 47.2213 434.351 42.7298C428.358 37.5841 420.714 34.7505 412.824 34.7505C406.906 34.7505 401.236 36.2768 396.232 39.1929C390.933 34.3466 383.984 31.624 376.683 31.624C361.023 31.624 348.223 44.1079 347.712 59.6458C342.298 61.1591 337.396 64.2394 333.649 68.536C329.048 73.8095 326.512 80.5707 326.511 87.5693C326.511 103.553 339.514 116.556 355.497 116.556H436.503C452.486 116.556 465.489 103.553 465.489 87.5693C465.489 74.7542 456.99 63.4964 444.924 59.8298Z" fill="#0A0F2B" fill-opacity="0.8" stroke="url(#paint2_linear_4315_2230)"/>
<path opacity="0.3" d="M470.801 67.9775C471.415 69.0478 471.98 70.148 472.492 71.2754L472.038 71.4824C472.542 72.59 472.994 73.7241 473.394 74.8809L473.864 74.7178C474.266 75.8815 474.614 77.0679 474.906 78.2744H474.907L474.421 78.3916C474.706 79.5713 474.938 80.7705 475.111 81.9854L475.604 81.9141C475.778 83.1291 475.895 84.3599 475.954 85.6035L475.457 85.627C475.486 86.234 475.5 86.8441 475.5 87.457C475.5 88.0971 475.484 88.7337 475.453 89.3662L475.951 89.3896C475.888 90.69 475.761 91.9738 475.573 93.2383L475.081 93.166C474.893 94.4344 474.643 95.6827 474.335 96.9082L474.817 97.0293C474.501 98.287 474.125 99.5208 473.69 100.728L473.223 100.559C472.79 101.761 472.298 102.937 471.753 104.081L472.202 104.296C471.646 105.463 471.034 106.599 470.369 107.699L469.943 107.441C469.284 108.533 468.573 109.59 467.812 110.608L468.212 110.907C467.44 111.941 466.619 112.936 465.751 113.889L465.382 113.553C464.525 114.494 463.622 115.393 462.678 116.246L463.012 116.616C462.056 117.48 461.057 118.296 460.02 119.064L459.724 118.664C458.702 119.42 457.642 120.128 456.548 120.783L456.804 121.21C455.701 121.87 454.563 122.479 453.394 123.031L453.181 122.581C452.035 123.123 450.858 123.61 449.654 124.04L449.821 124.508C448.614 124.939 447.38 125.313 446.121 125.627L446.001 125.145C444.775 125.45 443.525 125.698 442.256 125.885L442.328 126.377C441.064 126.563 439.78 126.689 438.479 126.752L438.456 126.254C437.824 126.284 437.187 126.3 436.547 126.3H434.52V126.8H430.465V126.3H426.41V126.8H422.355V126.3H418.301V126.8H414.246V126.3H410.191V126.8H406.137V126.3H402.082V126.8H398.027V126.3H393.973V126.8H389.918V126.3H385.863V126.8H381.809V126.3H377.754V126.8H373.699V126.3H369.645V126.8H365.59V126.3H361.535V126.8H357.48V126.3H355.453C354.813 126.3 354.177 126.284 353.544 126.254L353.52 126.752C352.219 126.689 350.935 126.563 349.671 126.377L349.744 125.885C348.475 125.698 347.225 125.45 345.999 125.145L345.878 125.627C344.62 125.313 343.385 124.939 342.178 124.508L342.346 124.04C341.142 123.61 339.965 123.123 338.819 122.581L338.605 123.031C337.436 122.479 336.298 121.87 335.195 121.21L335.452 120.783C334.358 120.128 333.298 119.42 332.276 118.664L331.979 119.064C330.942 118.296 329.943 117.48 328.987 116.616L329.322 116.246C328.378 115.393 327.475 114.494 326.618 113.553L326.248 113.889C325.38 112.936 324.559 111.941 323.787 110.907L324.188 110.608C323.427 109.59 322.716 108.533 322.057 107.441L321.63 107.699C320.965 106.599 320.353 105.463 319.797 104.296L320.247 104.081C319.702 102.937 319.21 101.761 318.777 100.559L318.309 100.728C317.874 99.5209 317.498 98.287 317.182 97.0293L317.665 96.9082C317.357 95.6827 317.107 94.4344 316.919 93.166L316.426 93.2383C316.238 91.9738 316.111 90.69 316.048 89.3896L316.547 89.3662C316.531 89.0501 316.519 88.7331 316.512 88.415L316.5 87.457H316V87.4561H316.5V87.4551C316.5 86.8738 316.513 86.2933 316.539 85.7148L316.04 85.6924C316.093 84.5141 316.199 83.3424 316.356 82.1807L316.357 82.1816L316.853 82.249C317.009 81.0968 317.217 79.9544 317.476 78.8252L316.988 78.7139C317.186 77.8506 317.413 76.9951 317.668 76.1484L317.929 75.3164L318.404 75.4707C318.764 74.3674 319.173 73.2807 319.63 72.2139L319.17 72.0166C319.629 70.9459 320.135 69.895 320.688 68.8672L320.702 68.8418L321.143 69.0791C321.692 68.0599 322.288 67.0636 322.93 66.0938L322.513 65.8174C323.159 64.84 323.851 63.8891 324.587 62.9678L324.978 63.2793C325.158 63.0531 325.342 62.829 325.528 62.6064L326.095 61.9443C326.521 61.4564 326.96 60.9799 327.408 60.5156L327.048 60.168C327.961 59.2229 328.919 58.3272 329.915 57.4824L330.239 57.8633C331.228 57.0251 332.256 56.2373 333.319 55.5039L333.035 55.0928C334.114 54.3483 335.229 53.6573 336.375 53.0244L336.376 53.0254L336.618 53.4629C336.901 53.3066 337.186 53.1531 337.473 53.0039L338.339 52.5674L338.557 52.4609L338.608 52.2256C338.743 51.6105 338.893 51.0003 339.057 50.3965L338.575 50.2656C338.91 49.0321 339.303 47.8222 339.752 46.6396L340.219 46.8174C340.666 45.6398 341.169 44.4892 341.725 43.3691L341.278 43.1465C341.845 42.0048 342.463 40.8933 343.134 39.8174L343.135 39.8184L343.56 40.083C344.225 39.0162 344.94 37.9831 345.703 36.9883L345.307 36.6855C346.081 35.6758 346.903 34.705 347.77 33.7754L348.134 34.1152C348.99 33.1971 349.89 32.3195 350.83 31.4873L350.498 31.1133C351.449 30.2715 352.442 29.4758 353.472 28.7275L353.765 29.1309C354.778 28.3943 355.829 27.7055 356.913 27.0674L356.66 26.6377C357.752 25.9947 358.878 25.402 360.034 24.8643L360.245 25.3174C361.378 24.7904 362.541 24.3156 363.73 23.8975L363.564 23.4277C364.757 23.0083 365.976 22.6429 367.218 22.3379L367.337 22.8232C368.547 22.526 369.78 22.2857 371.031 22.1045L370.959 21.6113C372.207 21.4307 373.473 21.3071 374.755 21.2461L374.778 21.7451C375.09 21.7303 375.404 21.7184 375.718 21.7109L376.662 21.7002C377.264 21.7002 377.865 21.7138 378.463 21.7412L378.485 21.2432C379.706 21.299 380.918 21.4091 382.118 21.5752L382.05 22.0713C383.244 22.2365 384.426 22.4558 385.592 22.7285L385.705 22.2422C386.892 22.5197 388.063 22.852 389.215 23.2363L389.058 23.71C390.198 24.0905 391.319 24.5233 392.418 25.0068L392.618 24.5488C393.732 25.0389 394.822 25.5815 395.886 26.1729L395.644 26.6084C396.168 26.9 396.686 27.2046 397.197 27.5205L397.406 27.6494L397.637 27.5625C398.243 27.3347 398.853 27.1207 399.469 26.9209L399.314 26.4453C400.549 26.0444 401.802 25.6995 403.07 25.4111L403.102 25.4043L403.212 25.8926C404.472 25.6071 405.747 25.3779 407.033 25.2061L406.967 24.71C408.26 24.5373 409.565 24.4219 410.879 24.3643L410.9 24.8643C411.546 24.8359 412.194 24.8213 412.843 24.8213C413.469 24.8213 414.095 24.8351 414.719 24.8623L414.739 24.3623C416.007 24.4176 417.269 24.5288 418.521 24.6934L418.456 25.1885C419.699 25.352 420.933 25.5699 422.152 25.8398L422.26 25.3516V25.3506C423.497 25.6244 424.72 25.9525 425.926 26.332L425.776 26.8096C426.97 27.1853 428.147 27.6129 429.304 28.0908L429.493 27.6279C430.662 28.1111 431.811 28.6456 432.936 29.2295L432.706 29.6729C433.815 30.2486 434.899 30.8737 435.957 31.5459L436.225 31.124C437.29 31.8012 438.329 32.5255 439.337 33.2969L439.033 33.6943C439.529 34.0739 440.018 34.465 440.498 34.8672L440.589 34.9443L440.912 34.5625V34.5615L441.098 34.7188V34.7197L440.775 35.1016L440.865 35.1768V35.1777C441.308 35.5568 441.742 35.9445 442.168 36.3398L442.507 35.9736C443.372 36.777 444.201 37.6125 444.994 38.4785L444.626 38.8164C445.413 39.6762 446.164 40.5662 446.876 41.4834L447.27 41.1768C447.992 42.1074 448.676 43.0661 449.319 44.0498L448.902 44.3232C449.54 45.2974 450.138 46.2968 450.693 47.3184L451.132 47.0791V47.0781C451.694 48.1118 452.214 49.1687 452.69 50.2451L452.234 50.4482C452.47 50.9798 452.694 51.5165 452.908 52.0576L452.981 52.2412L453.16 52.3262C453.713 52.5871 454.259 52.86 454.797 53.1455L455.03 52.7051C456.126 53.2865 457.19 53.9157 458.219 54.5928V54.5938L457.944 55.0117C458.966 55.6844 459.954 56.4033 460.903 57.165L461.214 56.7754C462.18 57.55 463.108 58.3677 463.994 59.2266L463.647 59.5859C464.524 60.4357 465.361 61.3254 466.154 62.252L466.533 61.9268C467.337 62.8658 468.096 63.8424 468.809 64.8525L468.401 65.1406C469.104 66.1367 469.76 67.1662 470.368 68.2256L470.801 67.9775Z" stroke="#3FA1E3" stroke-dasharray="4 4"/>
<path d="M377.296 73.7936L383.255 63.7421C384.515 61.6155 386.804 60.3115 389.276 60.3115H399.524C401.996 60.3115 404.285 61.6155 405.545 63.7421L411.504 73.7936C412.798 75.9768 412.809 78.6895 411.533 80.8832L405.536 91.1896C404.283 93.344 401.978 94.6694 399.486 94.6694H389.314C386.821 94.6694 384.517 93.344 383.264 91.1896L377.267 80.8832C375.991 78.6895 376.002 75.9768 377.296 73.7936Z" fill="url(#paint3_linear_4315_2230)"/>
<path d="M392.379 66.375H387.933L381.263 77.0075L387.933 88.6066H392.379L385.709 77.0075L392.379 66.375Z" fill="#131313"/>
<path d="M396.421 66.375H400.867L407.536 77.0075L400.867 88.6066H396.421L403.09 77.0075L396.421 66.375Z" fill="#131313"/>
<g opacity="0.2" filter="url(#filter2_f_4315_2230)">
<circle cx="394.4" cy="77.9115" r="29.1" stroke="#3FA1E3"/>
</g>
<g opacity="0.5" filter="url(#filter3_f_4315_2230)">
<path d="M371.796 74.1027L380.585 59.6708C381.855 57.5846 384.121 56.3115 386.564 56.3115H402.236C404.679 56.3115 406.945 57.5846 408.215 59.6708L417.003 74.1027C418.354 76.3211 418.366 79.1052 417.033 81.3347L408.207 96.1027C406.943 98.217 404.661 99.5115 402.198 99.5115H386.602C384.139 99.5115 381.857 98.217 380.593 96.1027L371.767 81.3347C370.434 79.1051 370.446 76.3211 371.796 74.1027Z" stroke="#3FA1E3"/>
</g>
<defs>
<filter id="filter0_f_4315_2230" x="148" y="50" width="67.2" height="67.2002" filterUnits="userSpaceOnUse" color-interpolation-filters="sRGB">
<feFlood flood-opacity="0" result="BackgroundImageFix"/>
<feBlend mode="normal" in="SourceGraphic" in2="BackgroundImageFix" result="shape"/>
<feGaussianBlur stdDeviation="2" result="effect1_foregroundBlur_4315_2230"/>
</filter>
<filter id="filter1_f_4315_2230" x="153.475" y="57.5" width="56.2496" height="52.2002" filterUnits="userSpaceOnUse" color-interpolation-filters="sRGB">
<feFlood flood-opacity="0" result="BackgroundImageFix"/>
<feBlend mode="normal" in="SourceGraphic" in2="BackgroundImageFix" result="shape"/>
<feGaussianBlur stdDeviation="2" result="effect1_foregroundBlur_4315_2230"/>
</filter>
<filter id="filter2_f_4315_2230" x="360.8" y="44.3115" width="67.2" height="67.2002" filterUnits="userSpaceOnUse" color-interpolation-filters="sRGB">
<feFlood flood-opacity="0" result="BackgroundImageFix"/>
<feBlend mode="normal" in="SourceGraphic" in2="BackgroundImageFix" result="shape"/>
<feGaussianBlur stdDeviation="2" result="effect1_foregroundBlur_4315_2230"/>
</filter>
<filter id="filter3_f_4315_2230" x="366.275" y="51.8115" width="56.2496" height="52.2002" filterUnits="userSpaceOnUse" color-interpolation-filters="sRGB">
<feFlood flood-opacity="0" result="BackgroundImageFix"/>
<feBlend mode="normal" in="SourceGraphic" in2="BackgroundImageFix" result="shape"/>
<feGaussianBlur stdDeviation="2" result="effect1_foregroundBlur_4315_2230"/>
</filter>
<linearGradient id="paint0_linear_4315_2230" x1="181.5" y1="45" x2="181.5" y2="122" gradientUnits="userSpaceOnUse">
<stop stop-color="#3FA1E3"/>
<stop offset="1" stop-color="#3FA1E3" stop-opacity="0.35"/>
</linearGradient>
<linearGradient id="paint1_linear_4315_2230" x1="181.6" y1="66" x2="181.6" y2="100.358" gradientUnits="userSpaceOnUse">
<stop stop-color="#3FA1E3" stop-opacity="0.35"/>
<stop offset="0.605793" stop-color="#3FA1E3"/>
</linearGradient>
<linearGradient id="paint2_linear_4315_2230" x1="396" y1="31.624" x2="396" y2="116.556" gradientUnits="userSpaceOnUse">
<stop stop-color="#3FA1E3"/>
<stop offset="1" stop-color="#3FA1E3" stop-opacity="0.35"/>
</linearGradient>
<linearGradient id="paint3_linear_4315_2230" x1="394.4" y1="60.3115" x2="394.4" y2="94.6694" gradientUnits="userSpaceOnUse">
<stop stop-color="#3FA1E3" stop-opacity="0.35"/>
<stop offset="0.605793" stop-color="#3FA1E3"/>
</linearGradient>
</defs>
</svg>
