<svg width="392" height="146" viewBox="0 0 392 146" fill="none" xmlns="http://www.w3.org/2000/svg">
<path d="M181.271 145C180.715 145 180.151 144.889 179.613 144.657C178.701 144.264 177.959 143.559 177.518 142.67C177.077 141.78 176.966 140.763 177.206 139.8L191.378 82.7737H153.191C152.51 82.7737 151.84 82.6079 151.237 82.2907C150.635 81.9734 150.119 81.5142 149.734 80.9528C149.349 80.3914 149.107 79.7447 149.028 79.0686C148.949 78.3926 149.037 77.7075 149.282 77.0728L177.297 4.67817C177.602 3.88962 178.138 3.21181 178.836 2.73381C179.534 2.25581 180.36 2 181.206 2L219.754 2C221.17 2 222.491 2.715 223.265 3.90089C223.645 4.48463 223.874 5.15408 223.931 5.84863C223.988 6.54318 223.87 7.2409 223.589 7.87862L207.001 45.5165H239.809C240.562 45.5166 241.3 45.7191 241.947 46.1029C242.594 46.4866 243.126 47.0375 243.487 47.6976C243.848 48.3577 244.024 49.1027 243.997 49.8544C243.971 50.6061 243.742 51.3367 243.335 51.9696L184.8 143.074C184.42 143.665 183.898 144.151 183.282 144.487C182.665 144.824 181.974 145 181.271 145Z" fill="#0A0F2B" fill-opacity="0.8" stroke="url(#paint0_linear_4839_2240)"/>
<g opacity="0.2" filter="url(#filter0_f_4839_2240)" style="mix-blend-mode:screen">
<path d="M83.0187 21.0056C89.854 20.8013 95.5767 26.1832 95.8037 33.0186C96.0081 39.854 90.626 45.5767 83.7907 45.8037C76.9553 46.0081 71.2327 40.6262 71.0056 33.7908C70.8013 26.9554 76.1833 21.2327 83.0187 21.0056Z" fill="url(#paint1_radial_4839_2240)"/>
</g>
<g opacity="0.5" filter="url(#filter1_f_4839_2240)" style="mix-blend-mode:screen">
<path d="M83.3628 27.003C86.9815 26.8948 90.0112 29.7441 90.1314 33.3628C90.2396 36.9815 87.3903 40.0112 83.7715 40.1314C80.1528 40.2396 77.1232 37.3903 77.003 33.7716C76.8948 30.1529 79.7441 27.1232 83.3628 27.003Z" fill="url(#paint2_radial_4839_2240)"/>
</g>
<path d="M83.4487 32.0007C84.2726 31.976 84.9624 32.6249 84.9898 33.449C85.0144 34.2732 84.3657 34.9631 83.5418 34.9905C82.7178 35.0151 82.0281 34.3662 82.0007 33.5421C81.976 32.718 82.6248 32.0281 83.4487 32.0007Z" fill="#3FA1E3"/>
<g opacity="0.2" filter="url(#filter2_f_4839_2240)" style="mix-blend-mode:screen">
<path d="M347.019 54.0056C353.854 53.8013 359.577 59.1832 359.804 66.0186C360.008 72.854 354.626 78.5767 347.791 78.8037C340.955 79.0081 335.233 73.6262 335.006 66.7908C334.801 59.9554 340.183 54.2327 347.019 54.0056Z" fill="url(#paint3_radial_4839_2240)"/>
</g>
<g opacity="0.5" filter="url(#filter3_f_4839_2240)" style="mix-blend-mode:screen">
<path d="M347.363 60.003C350.982 59.8948 354.011 62.7441 354.131 66.3628C354.24 69.9815 351.39 73.0112 347.772 73.1314C344.153 73.2396 341.123 70.3903 341.003 66.7716C340.895 63.1529 343.744 60.1232 347.363 60.003Z" fill="url(#paint4_radial_4839_2240)"/>
</g>
<path d="M347.449 65.0007C348.273 64.976 348.962 65.6249 348.99 66.449C349.014 67.2732 348.366 67.9631 347.542 67.9905C346.718 68.0151 346.028 67.3662 346.001 66.5421C345.976 65.718 346.625 65.0281 347.449 65.0007Z" fill="#3FA1E3"/>
<g opacity="0.2" filter="url(#filter4_f_4839_2240)" style="mix-blend-mode:screen">
<path d="M114.019 111.006C120.854 110.801 126.577 116.183 126.804 123.019C127.008 129.854 121.626 135.577 114.791 135.804C107.955 136.008 102.233 130.626 102.006 123.791C101.801 116.955 107.183 111.233 114.019 111.006Z" fill="url(#paint5_radial_4839_2240)"/>
</g>
<g opacity="0.5" filter="url(#filter5_f_4839_2240)" style="mix-blend-mode:screen">
<path d="M114.363 117.003C117.982 116.895 121.011 119.744 121.131 123.363C121.24 126.982 118.39 130.011 114.772 130.131C111.153 130.24 108.123 127.39 108.003 123.772C107.895 120.153 110.744 117.123 114.363 117.003Z" fill="url(#paint6_radial_4839_2240)"/>
</g>
<path d="M114.449 122.001C115.273 121.976 115.962 122.625 115.99 123.449C116.014 124.273 115.366 124.963 114.542 124.99C113.718 125.015 113.028 124.366 113.001 123.542C112.976 122.718 113.625 122.028 114.449 122.001Z" fill="#3FA1E3"/>
<g opacity="0.2" filter="url(#filter6_f_4839_2240)" style="mix-blend-mode:screen">
<path d="M286.019 94.0056C292.854 93.8013 298.577 99.1832 298.804 106.019C299.008 112.854 293.626 118.577 286.791 118.804C279.955 119.008 274.233 113.626 274.006 106.791C273.801 99.9554 279.183 94.2327 286.019 94.0056Z" fill="url(#paint7_radial_4839_2240)"/>
</g>
<g opacity="0.5" filter="url(#filter7_f_4839_2240)" style="mix-blend-mode:screen">
<path d="M286.363 100.003C289.982 99.8948 293.011 102.744 293.131 106.363C293.24 109.982 290.39 113.011 286.772 113.131C283.153 113.24 280.123 110.39 280.003 106.772C279.895 103.153 282.744 100.123 286.363 100.003Z" fill="url(#paint8_radial_4839_2240)"/>
</g>
<path d="M286.449 105.001C287.273 104.976 287.962 105.625 287.99 106.449C288.014 107.273 287.366 107.963 286.542 107.99C285.718 108.015 285.028 107.366 285.001 106.542C284.976 105.718 285.625 105.028 286.449 105.001Z" fill="#3FA1E3"/>
<g opacity="0.2" filter="url(#filter8_f_4839_2240)" style="mix-blend-mode:screen">
<path d="M42.6888 74.0045C48.1991 73.8398 52.8124 78.1784 52.9955 83.6888C53.1602 89.1991 48.8215 93.8124 43.3112 93.9955C37.8009 94.1602 33.1876 89.8216 33.0045 84.3112C32.8398 78.8009 37.1785 74.1876 42.6888 74.0045Z" fill="url(#paint9_radial_4839_2240)"/>
</g>
<g opacity="0.5" filter="url(#filter9_f_4839_2240)" style="mix-blend-mode:screen">
<path d="M42.9663 78.8403C45.8835 78.7531 48.3258 81.05 48.4227 83.9672C48.51 86.8845 46.213 89.3268 43.2958 89.4237C40.3786 89.5109 37.9362 87.214 37.8393 84.2968C37.7521 81.3796 40.0491 78.9372 42.9663 78.8403Z" fill="url(#paint10_radial_4839_2240)"/>
</g>
<path d="M43.0355 82.8677C43.6997 82.8479 44.2558 83.371 44.2779 84.0353C44.2977 84.6997 43.7748 85.2559 43.1106 85.278C42.4464 85.2978 41.8903 84.7747 41.8682 84.1104C41.8484 83.446 42.3713 82.8898 43.0355 82.8677Z" fill="#3FA1E3"/>
<g opacity="0.2" filter="url(#filter10_f_4839_2240)" style="mix-blend-mode:screen">
<path d="M296.689 13.0045C302.199 12.8398 306.812 17.1784 306.995 22.6888C307.16 28.1991 302.821 32.8124 297.311 32.9955C291.801 33.1602 287.188 28.8216 287.005 23.3112C286.84 17.8009 291.179 13.1876 296.689 13.0045Z" fill="url(#paint11_radial_4839_2240)"/>
</g>
<g opacity="0.5" filter="url(#filter11_f_4839_2240)" style="mix-blend-mode:screen">
<path d="M296.966 17.8403C299.884 17.7531 302.326 20.05 302.423 22.9672C302.51 25.8845 300.213 28.3268 297.296 28.4237C294.379 28.5109 291.936 26.214 291.839 23.2968C291.752 20.3796 294.049 17.9372 296.966 17.8403Z" fill="url(#paint12_radial_4839_2240)"/>
</g>
<path d="M297.036 21.8677C297.7 21.8479 298.256 22.371 298.278 23.0353C298.298 23.6997 297.775 24.2559 297.111 24.278C296.446 24.2978 295.89 23.7747 295.868 23.1104C295.848 22.446 296.371 21.8898 297.036 21.8677Z" fill="#3FA1E3"/>
<g opacity="0.5">
<g opacity="0.2" filter="url(#filter12_f_4839_2240)" style="mix-blend-mode:screen">
<path d="M236.782 111.003C240.639 110.888 243.869 113.925 243.997 117.782C244.112 121.639 241.075 124.869 237.218 124.997C233.361 125.112 230.131 122.075 230.003 118.218C229.888 114.361 232.925 111.131 236.782 111.003Z" fill="url(#paint13_radial_4839_2240)"/>
</g>
<g opacity="0.5" filter="url(#filter13_f_4839_2240)" style="mix-blend-mode:screen">
<path d="M236.976 114.388C239.018 114.327 240.728 115.935 240.796 117.977C240.857 120.019 239.249 121.729 237.207 121.797C235.165 121.858 233.455 120.25 233.388 118.208C233.326 116.166 234.934 114.456 236.976 114.388Z" fill="url(#paint14_radial_4839_2240)"/>
</g>
<path d="M237.025 117.207C237.49 117.194 237.879 117.56 237.895 118.025C237.908 118.49 237.542 118.879 237.077 118.895C236.612 118.908 236.223 118.542 236.208 118.077C236.194 117.612 236.56 117.223 237.025 117.207Z" fill="#3FA1E3"/>
</g>
<g opacity="0.5">
<g opacity="0.2" filter="url(#filter14_f_4839_2240)" style="mix-blend-mode:screen">
<path d="M97.2355 68.0039C101.919 67.8638 105.841 71.5517 105.996 76.2354C106.136 80.9192 102.448 84.8405 97.7645 84.9961C93.0808 85.1362 89.1595 81.4483 89.0039 76.7646C88.8638 72.0808 92.5517 68.1595 97.2355 68.0039Z" fill="url(#paint15_radial_4839_2240)"/>
</g>
<g opacity="0.5" filter="url(#filter15_f_4839_2240)" style="mix-blend-mode:screen">
<path d="M97.4714 72.1153C99.9511 72.0412 102.027 73.9936 102.109 76.4732C102.184 78.9529 100.231 81.0289 97.7515 81.1112C95.2718 81.1854 93.1959 79.233 93.1135 76.7533C93.0394 74.2737 94.9918 72.1977 97.4714 72.1153Z" fill="url(#paint16_radial_4839_2240)"/>
</g>
<path d="M97.5303 75.5376C98.0948 75.5207 98.5675 75.9653 98.5863 76.53C98.6031 77.0947 98.1586 77.5675 97.594 77.5863C97.0295 77.6032 96.5568 77.1585 96.5381 76.5938C96.5212 76.0291 96.9657 75.5563 97.5303 75.5376Z" fill="#3FA1E3"/>
</g>
<g opacity="0.2" filter="url(#filter16_f_4839_2240)">
<circle cx="196" cy="66" r="36.5" stroke="#3FA1E3"/>
</g>
<g opacity="0.5" filter="url(#filter17_f_4839_2240)">
<circle cx="196" cy="66" r="30.5" stroke="#3FA1E3"/>
</g>
<path d="M179.096 62.3048L184.949 52.4306C186.21 50.304 188.499 49 190.971 49H201.029C203.501 49 205.79 50.304 207.051 52.4306L212.904 62.3048C214.198 64.488 214.209 67.2007 212.933 69.3944L207.042 79.5202C205.788 81.6746 203.484 83 200.991 83H191.009C188.516 83 186.212 81.6746 184.958 79.5202L179.067 69.3944C177.791 67.2007 177.802 64.488 179.096 62.3048Z" fill="url(#paint17_linear_4839_2240)"/>
<path d="M194 55H189.6L183 65.5217L189.6 77H194L187.4 65.5217L194 55Z" fill="#131313"/>
<g filter="url(#filter18_f_4839_2240)">
<path d="M172.138 62.2189L181.622 46.4005C182.887 44.2909 185.166 43 187.626 43H204.374C206.834 43 209.113 44.2909 210.378 46.4005L219.862 62.2189C221.18 64.4171 221.191 67.1597 219.891 69.3686L210.369 85.5501C209.111 87.6876 206.816 89 204.336 89H187.664C185.184 89 182.889 87.6876 181.631 85.5501L172.109 69.3686C170.809 67.1597 170.82 64.4171 172.138 62.2189Z" stroke="#3FA1E3"/>
</g>
<path d="M198 55H202.4L209 65.5217L202.4 77H198L204.6 65.5217L198 55Z" fill="#131313"/>
<defs>
<filter id="filter0_f_4839_2240" x="67" y="17" width="32.8093" height="32.8086" filterUnits="userSpaceOnUse" color-interpolation-filters="sRGB">
<feFlood flood-opacity="0" result="BackgroundImageFix"/>
<feBlend mode="normal" in="SourceGraphic" in2="BackgroundImageFix" result="shape"/>
<feGaussianBlur stdDeviation="2" result="effect1_foregroundBlur_4839_2240"/>
</filter>
<filter id="filter1_f_4839_2240" x="76" y="26" width="15.1344" height="15.1348" filterUnits="userSpaceOnUse" color-interpolation-filters="sRGB">
<feFlood flood-opacity="0" result="BackgroundImageFix"/>
<feBlend mode="normal" in="SourceGraphic" in2="BackgroundImageFix" result="shape"/>
<feGaussianBlur stdDeviation="0.5" result="effect1_foregroundBlur_4839_2240"/>
</filter>
<filter id="filter2_f_4839_2240" x="331" y="50" width="32.8093" height="32.8086" filterUnits="userSpaceOnUse" color-interpolation-filters="sRGB">
<feFlood flood-opacity="0" result="BackgroundImageFix"/>
<feBlend mode="normal" in="SourceGraphic" in2="BackgroundImageFix" result="shape"/>
<feGaussianBlur stdDeviation="2" result="effect1_foregroundBlur_4839_2240"/>
</filter>
<filter id="filter3_f_4839_2240" x="340" y="59" width="15.1344" height="15.1348" filterUnits="userSpaceOnUse" color-interpolation-filters="sRGB">
<feFlood flood-opacity="0" result="BackgroundImageFix"/>
<feBlend mode="normal" in="SourceGraphic" in2="BackgroundImageFix" result="shape"/>
<feGaussianBlur stdDeviation="0.5" result="effect1_foregroundBlur_4839_2240"/>
</filter>
<filter id="filter4_f_4839_2240" x="98" y="107" width="32.8093" height="32.8086" filterUnits="userSpaceOnUse" color-interpolation-filters="sRGB">
<feFlood flood-opacity="0" result="BackgroundImageFix"/>
<feBlend mode="normal" in="SourceGraphic" in2="BackgroundImageFix" result="shape"/>
<feGaussianBlur stdDeviation="2" result="effect1_foregroundBlur_4839_2240"/>
</filter>
<filter id="filter5_f_4839_2240" x="107" y="116" width="15.1344" height="15.1348" filterUnits="userSpaceOnUse" color-interpolation-filters="sRGB">
<feFlood flood-opacity="0" result="BackgroundImageFix"/>
<feBlend mode="normal" in="SourceGraphic" in2="BackgroundImageFix" result="shape"/>
<feGaussianBlur stdDeviation="0.5" result="effect1_foregroundBlur_4839_2240"/>
</filter>
<filter id="filter6_f_4839_2240" x="270" y="90" width="32.8093" height="32.8086" filterUnits="userSpaceOnUse" color-interpolation-filters="sRGB">
<feFlood flood-opacity="0" result="BackgroundImageFix"/>
<feBlend mode="normal" in="SourceGraphic" in2="BackgroundImageFix" result="shape"/>
<feGaussianBlur stdDeviation="2" result="effect1_foregroundBlur_4839_2240"/>
</filter>
<filter id="filter7_f_4839_2240" x="279" y="99" width="15.1344" height="15.1348" filterUnits="userSpaceOnUse" color-interpolation-filters="sRGB">
<feFlood flood-opacity="0" result="BackgroundImageFix"/>
<feBlend mode="normal" in="SourceGraphic" in2="BackgroundImageFix" result="shape"/>
<feGaussianBlur stdDeviation="0.5" result="effect1_foregroundBlur_4839_2240"/>
</filter>
<filter id="filter8_f_4839_2240" x="29" y="70" width="28" height="28" filterUnits="userSpaceOnUse" color-interpolation-filters="sRGB">
<feFlood flood-opacity="0" result="BackgroundImageFix"/>
<feBlend mode="normal" in="SourceGraphic" in2="BackgroundImageFix" result="shape"/>
<feGaussianBlur stdDeviation="2" result="effect1_foregroundBlur_4839_2240"/>
</filter>
<filter id="filter9_f_4839_2240" x="36.8369" y="77.8379" width="12.5883" height="12.5879" filterUnits="userSpaceOnUse" color-interpolation-filters="sRGB">
<feFlood flood-opacity="0" result="BackgroundImageFix"/>
<feBlend mode="normal" in="SourceGraphic" in2="BackgroundImageFix" result="shape"/>
<feGaussianBlur stdDeviation="0.5" result="effect1_foregroundBlur_4839_2240"/>
</filter>
<filter id="filter10_f_4839_2240" x="283" y="9" width="28" height="28" filterUnits="userSpaceOnUse" color-interpolation-filters="sRGB">
<feFlood flood-opacity="0" result="BackgroundImageFix"/>
<feBlend mode="normal" in="SourceGraphic" in2="BackgroundImageFix" result="shape"/>
<feGaussianBlur stdDeviation="2" result="effect1_foregroundBlur_4839_2240"/>
</filter>
<filter id="filter11_f_4839_2240" x="290.837" y="16.8379" width="12.5883" height="12.5879" filterUnits="userSpaceOnUse" color-interpolation-filters="sRGB">
<feFlood flood-opacity="0" result="BackgroundImageFix"/>
<feBlend mode="normal" in="SourceGraphic" in2="BackgroundImageFix" result="shape"/>
<feGaussianBlur stdDeviation="0.5" result="effect1_foregroundBlur_4839_2240"/>
</filter>
<filter id="filter12_f_4839_2240" x="226" y="107" width="22" height="22" filterUnits="userSpaceOnUse" color-interpolation-filters="sRGB">
<feFlood flood-opacity="0" result="BackgroundImageFix"/>
<feBlend mode="normal" in="SourceGraphic" in2="BackgroundImageFix" result="shape"/>
<feGaussianBlur stdDeviation="2" result="effect1_foregroundBlur_4839_2240"/>
</filter>
<filter id="filter13_f_4839_2240" x="232.386" y="113.387" width="9.41174" height="9.41211" filterUnits="userSpaceOnUse" color-interpolation-filters="sRGB">
<feFlood flood-opacity="0" result="BackgroundImageFix"/>
<feBlend mode="normal" in="SourceGraphic" in2="BackgroundImageFix" result="shape"/>
<feGaussianBlur stdDeviation="0.5" result="effect1_foregroundBlur_4839_2240"/>
</filter>
<filter id="filter14_f_4839_2240" x="85" y="64" width="25" height="25" filterUnits="userSpaceOnUse" color-interpolation-filters="sRGB">
<feFlood flood-opacity="0" result="BackgroundImageFix"/>
<feBlend mode="normal" in="SourceGraphic" in2="BackgroundImageFix" result="shape"/>
<feGaussianBlur stdDeviation="2" result="effect1_foregroundBlur_4839_2240"/>
</filter>
<filter id="filter15_f_4839_2240" x="92.1115" y="71.1133" width="11" height="11" filterUnits="userSpaceOnUse" color-interpolation-filters="sRGB">
<feFlood flood-opacity="0" result="BackgroundImageFix"/>
<feBlend mode="normal" in="SourceGraphic" in2="BackgroundImageFix" result="shape"/>
<feGaussianBlur stdDeviation="0.5" result="effect1_foregroundBlur_4839_2240"/>
</filter>
<filter id="filter16_f_4839_2240" x="156" y="26" width="80" height="80" filterUnits="userSpaceOnUse" color-interpolation-filters="sRGB">
<feFlood flood-opacity="0" result="BackgroundImageFix"/>
<feBlend mode="normal" in="SourceGraphic" in2="BackgroundImageFix" result="shape"/>
<feGaussianBlur stdDeviation="1.5" result="effect1_foregroundBlur_4839_2240"/>
</filter>
<filter id="filter17_f_4839_2240" x="162" y="32" width="68" height="68" filterUnits="userSpaceOnUse" color-interpolation-filters="sRGB">
<feFlood flood-opacity="0" result="BackgroundImageFix"/>
<feBlend mode="normal" in="SourceGraphic" in2="BackgroundImageFix" result="shape"/>
<feGaussianBlur stdDeviation="1.5" result="effect1_foregroundBlur_4839_2240"/>
</filter>
<filter id="filter18_f_4839_2240" x="167.642" y="39.5" width="56.7166" height="53" filterUnits="userSpaceOnUse" color-interpolation-filters="sRGB">
<feFlood flood-opacity="0" result="BackgroundImageFix"/>
<feBlend mode="normal" in="SourceGraphic" in2="BackgroundImageFix" result="shape"/>
<feGaussianBlur stdDeviation="1.5" result="effect1_foregroundBlur_4839_2240"/>
</filter>
<linearGradient id="paint0_linear_4839_2240" x1="196.5" y1="2" x2="196.5" y2="145" gradientUnits="userSpaceOnUse">
<stop stop-color="#3FA1E3"/>
<stop offset="1" stop-color="#3FA1E3" stop-opacity="0.35"/>
</linearGradient>
<radialGradient id="paint1_radial_4839_2240" cx="0" cy="0" r="1" gradientUnits="userSpaceOnUse" gradientTransform="translate(83.4047 33.4047) rotate(90) scale(12.4047)">
<stop stop-color="#3FA1E3" stop-opacity="0"/>
<stop offset="1" stop-color="#3FA1E3"/>
</radialGradient>
<radialGradient id="paint2_radial_4839_2240" cx="0" cy="0" r="1" gradientUnits="userSpaceOnUse" gradientTransform="translate(83.5672 33.5672) rotate(90) scale(6.56719)">
<stop stop-color="#3FA1E3" stop-opacity="0"/>
<stop offset="1" stop-color="#3FA1E3"/>
</radialGradient>
<radialGradient id="paint3_radial_4839_2240" cx="0" cy="0" r="1" gradientUnits="userSpaceOnUse" gradientTransform="translate(347.405 66.4047) rotate(90) scale(12.4047)">
<stop stop-color="#3FA1E3" stop-opacity="0"/>
<stop offset="1" stop-color="#3FA1E3"/>
</radialGradient>
<radialGradient id="paint4_radial_4839_2240" cx="0" cy="0" r="1" gradientUnits="userSpaceOnUse" gradientTransform="translate(347.567 66.5672) rotate(90) scale(6.56719)">
<stop stop-color="#3FA1E3" stop-opacity="0"/>
<stop offset="1" stop-color="#3FA1E3"/>
</radialGradient>
<radialGradient id="paint5_radial_4839_2240" cx="0" cy="0" r="1" gradientUnits="userSpaceOnUse" gradientTransform="translate(114.405 123.405) rotate(90) scale(12.4047)">
<stop stop-color="#3FA1E3" stop-opacity="0"/>
<stop offset="1" stop-color="#3FA1E3"/>
</radialGradient>
<radialGradient id="paint6_radial_4839_2240" cx="0" cy="0" r="1" gradientUnits="userSpaceOnUse" gradientTransform="translate(114.567 123.567) rotate(90) scale(6.56719)">
<stop stop-color="#3FA1E3" stop-opacity="0"/>
<stop offset="1" stop-color="#3FA1E3"/>
</radialGradient>
<radialGradient id="paint7_radial_4839_2240" cx="0" cy="0" r="1" gradientUnits="userSpaceOnUse" gradientTransform="translate(286.405 106.405) rotate(90) scale(12.4047)">
<stop stop-color="#3FA1E3" stop-opacity="0"/>
<stop offset="1" stop-color="#3FA1E3"/>
</radialGradient>
<radialGradient id="paint8_radial_4839_2240" cx="0" cy="0" r="1" gradientUnits="userSpaceOnUse" gradientTransform="translate(286.567 106.567) rotate(90) scale(6.56719)">
<stop stop-color="#3FA1E3" stop-opacity="0"/>
<stop offset="1" stop-color="#3FA1E3"/>
</radialGradient>
<radialGradient id="paint9_radial_4839_2240" cx="0" cy="0" r="1" gradientUnits="userSpaceOnUse" gradientTransform="translate(43 84) rotate(90) scale(10)">
<stop stop-color="#3FA1E3" stop-opacity="0"/>
<stop offset="1" stop-color="#3FA1E3"/>
</radialGradient>
<radialGradient id="paint10_radial_4839_2240" cx="0" cy="0" r="1" gradientUnits="userSpaceOnUse" gradientTransform="translate(43.131 84.132) rotate(90) scale(5.29412)">
<stop stop-color="#3FA1E3" stop-opacity="0"/>
<stop offset="1" stop-color="#3FA1E3"/>
</radialGradient>
<radialGradient id="paint11_radial_4839_2240" cx="0" cy="0" r="1" gradientUnits="userSpaceOnUse" gradientTransform="translate(297 23) rotate(90) scale(10)">
<stop stop-color="#3FA1E3" stop-opacity="0"/>
<stop offset="1" stop-color="#3FA1E3"/>
</radialGradient>
<radialGradient id="paint12_radial_4839_2240" cx="0" cy="0" r="1" gradientUnits="userSpaceOnUse" gradientTransform="translate(297.131 23.132) rotate(90) scale(5.29412)">
<stop stop-color="#3FA1E3" stop-opacity="0"/>
<stop offset="1" stop-color="#3FA1E3"/>
</radialGradient>
<radialGradient id="paint13_radial_4839_2240" cx="0" cy="0" r="1" gradientUnits="userSpaceOnUse" gradientTransform="translate(237 118) rotate(90) scale(7)">
<stop stop-color="#3FA1E3" stop-opacity="0"/>
<stop offset="1" stop-color="#3FA1E3"/>
</radialGradient>
<radialGradient id="paint14_radial_4839_2240" cx="0" cy="0" r="1" gradientUnits="userSpaceOnUse" gradientTransform="translate(237.092 118.093) rotate(90) scale(3.70588)">
<stop stop-color="#3FA1E3" stop-opacity="0"/>
<stop offset="1" stop-color="#3FA1E3"/>
</radialGradient>
<radialGradient id="paint15_radial_4839_2240" cx="0" cy="0" r="1" gradientUnits="userSpaceOnUse" gradientTransform="translate(97.5 76.5) rotate(90) scale(8.5)">
<stop stop-color="#3FA1E3" stop-opacity="0"/>
<stop offset="1" stop-color="#3FA1E3"/>
</radialGradient>
<radialGradient id="paint16_radial_4839_2240" cx="0" cy="0" r="1" gradientUnits="userSpaceOnUse" gradientTransform="translate(97.6115 76.6133) rotate(90) scale(4.5)">
<stop stop-color="#3FA1E3" stop-opacity="0"/>
<stop offset="1" stop-color="#3FA1E3"/>
</radialGradient>
<linearGradient id="paint17_linear_4839_2240" x1="196" y1="49" x2="196" y2="83" gradientUnits="userSpaceOnUse">
<stop stop-color="#3FA1E3" stop-opacity="0.35"/>
<stop offset="0.605793" stop-color="#3FA1E3"/>
</linearGradient>
</defs>
</svg>
