<?xml version="1.0" encoding="UTF-8"?>
<svg width="698px" height="420px" viewBox="0 0 698 420" version="1.1" xmlns="http://www.w3.org/2000/svg" xmlns:xlink="http://www.w3.org/1999/xlink">
    <title>hero-compact</title>
    <defs>
        <rect id="path-1" x="230" y="35" width="239" height="346" rx="6"></rect>
        <filter x="-19.7%" y="-10.7%" width="139.3%" height="127.2%" filterUnits="objectBoundingBox" id="filter-2">
            <feOffset dx="0" dy="10" in="SourceAlpha" result="shadowOffsetOuter1"></feOffset>
            <feGaussianBlur stdDeviation="14" in="shadowOffsetOuter1" result="shadowBlurOuter1"></feGaussianBlur>
            <feColorMatrix values="0 0 0 0 0.454901961   0 0 0 0 0.505882353   0 0 0 0 0.541176471  0 0 0 0.210527753 0" type="matrix" in="shadowBlurOuter1"></feColorMatrix>
        </filter>
        <rect id="path-3" x="259" y="188" width="185" height="30" rx="3"></rect>
        <filter x="-4.9%" y="-20.0%" width="109.7%" height="160.0%" filterUnits="objectBoundingBox" id="filter-4">
            <feOffset dx="0" dy="3" in="SourceAlpha" result="shadowOffsetOuter1"></feOffset>
            <feGaussianBlur stdDeviation="2.5" in="shadowOffsetOuter1" result="shadowBlurOuter1"></feGaussianBlur>
            <feComposite in="shadowBlurOuter1" in2="SourceAlpha" operator="out" result="shadowBlurOuter1"></feComposite>
            <feColorMatrix values="0 0 0 0 0.474509804   0 0 0 0 0.517647059   0 0 0 0 0.545098039  0 0 0 0.114647072 0" type="matrix" in="shadowBlurOuter1"></feColorMatrix>
        </filter>
        <rect id="path-5" x="259" y="154" width="185" height="30" rx="3"></rect>
        <filter x="-4.9%" y="-20.0%" width="109.7%" height="160.0%" filterUnits="objectBoundingBox" id="filter-6">
            <feOffset dx="0" dy="3" in="SourceAlpha" result="shadowOffsetOuter1"></feOffset>
            <feGaussianBlur stdDeviation="2.5" in="shadowOffsetOuter1" result="shadowBlurOuter1"></feGaussianBlur>
            <feComposite in="shadowBlurOuter1" in2="SourceAlpha" operator="out" result="shadowBlurOuter1"></feComposite>
            <feColorMatrix values="0 0 0 0 0.474509804   0 0 0 0 0.517647059   0 0 0 0 0.545098039  0 0 0 0.114647072 0" type="matrix" in="shadowBlurOuter1"></feColorMatrix>
        </filter>
        <rect id="path-7" x="259" y="120" width="185" height="30" rx="3"></rect>
        <filter x="-4.9%" y="-20.0%" width="109.7%" height="160.0%" filterUnits="objectBoundingBox" id="filter-8">
            <feOffset dx="0" dy="3" in="SourceAlpha" result="shadowOffsetOuter1"></feOffset>
            <feGaussianBlur stdDeviation="2.5" in="shadowOffsetOuter1" result="shadowBlurOuter1"></feGaussianBlur>
            <feComposite in="shadowBlurOuter1" in2="SourceAlpha" operator="out" result="shadowBlurOuter1"></feComposite>
            <feColorMatrix values="0 0 0 0 0.474509804   0 0 0 0 0.517647059   0 0 0 0 0.545098039  0 0 0 0.114647072 0" type="matrix" in="shadowBlurOuter1"></feColorMatrix>
        </filter>
    </defs>
    <g id="Page-1" stroke="none" stroke-width="1" fill="none" fill-rule="evenodd">
        <g id="home4-copy" transform="translate(-694.000000, -142.000000)">
            <g id="hero-compact" transform="translate(694.000000, 143.000000)">
                <g id="Rectangle">
                    <use fill="black" fill-opacity="1" filter="url(#filter-2)" xlink:href="#path-1"></use>
                    <use fill="#FFFFFF" fill-rule="evenodd" xlink:href="#path-1"></use>
                </g>
                <rect id="Rectangle" stroke="#DDE2E7" fill="#FFFFFF" x="259.5" y="257.5" width="184" height="29" rx="3"></rect>
                <g id="Rectangle-Copy-10">
                    <use fill="black" fill-opacity="1" filter="url(#filter-4)" xlink:href="#path-3"></use>
                    <rect stroke="#DDE2E7" stroke-width="0.6" stroke-linejoin="square" fill="#FFFFFF" fill-rule="evenodd" x="259.3" y="188.3" width="184.4" height="29.4" rx="3"></rect>
                </g>
                <text id="Enter-your-email" opacity="0.300000012" font-family="Inter, Inter UI, Helvetica, Arial, sans-serif" font-size="10" font-weight="normal" line-spacing="16" fill="#66737B">
                    <tspan x="267" y="276">Enter your email</tspan>
                </text>
                <rect id="Rectangle-Copy-5" stroke="#DDE2E7" fill="#FFFFFF" x="259.5" y="291.5" width="184" height="29" rx="3"></rect>
                <rect id="Rectangle-Copy-9" fill="#3EA1E5" x="260" y="327" width="183" height="29" rx="3"></rect>
                <text id="Enter-your-password" opacity="0.300000012" font-family="Inter, Inter UI, Helvetica, Arial, sans-serif" font-size="10" font-weight="normal" line-spacing="16" fill="#66737B">
                    <tspan x="267" y="310">Enter your password</tspan>
                </text>
                <text id="OR" opacity="0.300000012" font-family="Inter, Inter UI, Helvetica, Arial, sans-serif" font-size="7" font-weight="normal" line-spacing="16" fill="#66737B">
                    <tspan x="348.617898" y="238">OR</tspan>
                </text>
                <text id="Sign-in-with-LinkedI" font-family="Inter, Inter UI, Helvetica, Arial, sans-serif" font-size="10" font-weight="normal" line-spacing="16" fill="#66737B">
                    <tspan x="267" y="207">Sign in with LinkedIn</tspan>
                </text>
                <g id="Rectangle-Copy-11">
                    <use fill="black" fill-opacity="1" filter="url(#filter-6)" xlink:href="#path-5"></use>
                    <rect stroke="#DDE2E7" stroke-width="0.6" stroke-linejoin="square" fill="#FFFFFF" fill-rule="evenodd" x="259.3" y="154.3" width="184.4" height="29.4" rx="3"></rect>
                </g>
                <text id="Sign-in-with-Microso" font-family="Inter, Inter UI, Helvetica, Arial, sans-serif" font-size="10" font-weight="normal" line-spacing="16" fill="#66737B">
                    <tspan x="267" y="173">Sign in with Microsoft</tspan>
                </text>
                <g id="Rectangle-Copy-31">
                    <use fill="black" fill-opacity="1" filter="url(#filter-8)" xlink:href="#path-7"></use>
                    <rect stroke="#DDE2E7" stroke-width="0.6" stroke-linejoin="square" fill="#FFFFFF" fill-rule="evenodd" x="259.3" y="120.3" width="184.4" height="29.4" rx="3"></rect>
                </g>
                <text id="Sign-in-with-Google" font-family="Inter, Inter UI, Helvetica, Arial, sans-serif" font-size="10" font-weight="normal" line-spacing="16" fill="#66737B">
                    <tspan x="267" y="139">Sign in with Google</tspan>
                </text>
                <text id="Forgot?" font-family="Inter, Inter UI, Helvetica, Arial, sans-serif" font-size="7" font-weight="normal" line-spacing="16" fill="#66737B" text-decoration="underline">
                    <tspan x="389" y="308">Forgot?</tspan>
                </text>
                <g id="Group-10" opacity="0.300000012" transform="translate(425.000000, 269.000000)" stroke="#66737B" stroke-width="1.3">
                    <rect id="Rectangle" x="0.65" y="0.65" width="8.7" height="7.03333333" rx="2"></rect>
                    <polyline id="Path-24" stroke-linecap="round" stroke-linejoin="round" points="2.22752437 2.5 5 4.65817216 7.55861254 2.5"></polyline>
                </g>
                <g id="Group-2" opacity="0.300000012" transform="translate(425.000000, 301.000000)" stroke="#66737B" stroke-width="1.3">
                    <rect id="Rectangle-Copy-6" x="0.65" y="5.65" width="8.7" height="5.36666667" rx="2"></rect>
                    <line x1="4.09804406" y1="8.33333333" x2="6.14519619" y2="8.33333333" id="Path-25" stroke-linecap="round" stroke-linejoin="round"></line>
                    <path d="M2.5,4.16666667 L2.5,5.46670017 L2.5,2.5 C2.5,1.11928813 3.61928813,-3.55271368e-14 5,-3.55271368e-14 C6.38071187,-3.55271368e-14 7.5,1.11928813 7.5,2.5 L7.5,4.16666667 L7.5,5.46670017" id="Path"></path>
                </g>
                <text id="Sign-In" font-family="Inter, Inter UI, Helvetica, Arial, sans-serif" font-size="10" font-weight="bold" line-spacing="16" fill="#FFFFFF">
                    <tspan x="335.482599" y="345">Sign In</tspan>
                </text>
                <path d="M146.468111,126 C157.027833,141 175.538463,149 202,150" id="Path-11" stroke="#3C474E" stroke-width="1.5" stroke-linecap="round"></path>
                <path d="M196.055588,142 C204.018529,145.809208 208,148.447458 208,149.914751 C208,152.115689 197.37927,155 194,155" id="Path-12" stroke="#3C474E" stroke-width="1.5" stroke-linecap="round"></path>
                <path d="M146.468111,226.32102 C160.551633,227.352134 174.728929,228.911794 189,231" id="Path-11-Copy" stroke="#3C474E" stroke-width="1.5" stroke-linecap="round"></path>
                <path d="M183.055588,223 C191.018529,226.809208 195,229.447458 195,230.914751 C195,233.115689 184.37927,236 181,236" id="Path-12-Copy" stroke="#3C474E" stroke-width="1.5" stroke-linecap="round"></path>
                <path d="M152.96873,310.83688 C164.598173,310.912512 179.651412,312.324411 198.128447,315.072579" id="Path-11-Copy-2" stroke="#3C474E" stroke-width="1.5" stroke-linecap="round" transform="translate(175.548589, 312.954730) rotate(-8.000000) translate(-175.548589, -312.954730) "></path>
                <path d="M193.196613,305.300249 C200.926616,309.041674 204.791618,311.632977 204.791618,313.07416 C204.791618,315.235934 194.481574,318.068919 191.201157,318.068919" id="Path-12-Copy-2" stroke="#3C474E" stroke-width="1.5" stroke-linecap="round" transform="translate(197.996387, 311.684584) rotate(-8.000000) translate(-197.996387, -311.684584) "></path>
                <path d="M500,139 C510.114811,148 530.114811,153 560,154" id="Path-11-Copy-5" stroke="#3C474E" stroke-width="1.5" stroke-linecap="round" transform="translate(530.000000, 146.500000) scale(-1, 1) translate(-530.000000, -146.500000) "></path>
                <path d="M496.055588,146 C504.018529,149.809208 508,152.447458 508,153.914751 C508,156.115689 497.37927,159 494,159" id="Path-12-Copy-5" stroke="#3C474E" stroke-width="1.5" stroke-linecap="round" transform="translate(501.000000, 152.500000) scale(-1, 1) translate(-501.000000, -152.500000) "></path>
                <path d="M501,226 C516.545953,223.671086 534.590756,224.337753 555.134411,228" id="Path-11-Copy-4" stroke="#3C474E" stroke-width="1.5" stroke-linecap="round" transform="translate(528.067206, 226.321020) scale(-1, 1) translate(-528.067206, -226.321020) "></path>
                <path d="M497.055588,220 C505.018529,223.809208 509,226.447458 509,227.914751 C509,230.115689 498.37927,233 495,233" id="Path-12-Copy-4" stroke="#3C474E" stroke-width="1.5" stroke-linecap="round" transform="translate(502.000000, 226.500000) scale(-1, 1) translate(-502.000000, -226.500000) "></path>
                <path d="M608.169476,26.2534758 C611.835964,22.751855 615.566497,21.0010447 619.361075,21.0010447 C623.045078,20.9570472 626.60806,22.3042783 629.348933,24.7658838 L629.63942,25.0338788 L625.253767,29.4597435 L625.023627,29.2464103 C623.465957,27.8559509 621.446793,27.1031882 619.361075,27.1357373 C615.353593,27.1357373 611.950055,29.8641661 610.736521,33.5381464 C610.130917,35.3501743 610.095293,37.303481 610.62965,39.1321299 L610.736521,39.4734758 C611.961343,43.14176 615.050209,45.8060332 619.057692,45.8060332 C621.129165,45.8060332 623.21616,45.334756 624.593379,44.3892045 L624.587462,44.3917171 C626.126665,43.3610596 627.202039,41.7725758 627.600927,39.9656112 L627.658257,39.6785352 L619.361075,39.6785352 L619.361075,33.7090292 L634.734716,33.3500603 C634.915335,34.3867493 635,31.9265548 635,36.5 C635,41.0734452 632.54438,45.3202778 629.798663,48.0135674 L629.539807,48.2602392 C627.085648,50.5504135 623.743849,51.9090232 619.787328,52 L616.839258,52 C611.147391,52 608.454374,48.8319751 605.793725,43.7781918 L605.634037,43.4664373 L605.45752,43.0996397 C603.515841,38.926499 603.514161,34.0970994 605.452482,29.9228233" id="Path" stroke="#3C474E" stroke-width="1.5" stroke-linecap="round" stroke-linejoin="round"></path>
                <path d="M571.860364,71.1264775 C568.296966,68.4193097 566,64.1596207 566,59.3677946 C566,51.1867197 573.752903,45 582.01537,45 C590.277837,45 595,51.1867197 595,59.3677946 C595,66.6499717 590.612971,72.7031713 583.620183,73.9460643 L583.296254,74 L583.620183,63.6492624 L586.781799,63.6492624 L587.445017,59.3677946 L583.296254,59.3677946 L583.296254,56.5906263 C583.296254,55.4190084 583.874743,54.2763194 585.732922,54.2763194 L587.620317,54.2763194 L587.620317,50.631286 L586.992319,50.5397534 C586.346928,50.4550009 585.294672,50.3419977 584.27209,50.3419977 C580.933239,50.3419977 578.726053,52.2987636 578.625199,55.8483742 L578.62159,56.1046219 L578.62159,59.3677946 L574.823427,59.3677946 L574.823427,63.6492624 L578.62159,63.6492624 L578.62159,74" id="Path" stroke="#3C474E" stroke-width="1.5" stroke-linecap="round" stroke-linejoin="round"></path>
                <path d="M631.189504,71.236897 C628.554099,68.5640645 624.747362,67 620.398765,67 L618.461088,67 C610.173588,67 605,72.6755826 605,80.8795208 C605,87.4444351 609.2975,93.0115732 615.25625,94.9743704 C616.00625,95.1142103 616.28125,94.6543765 616.28125,94.2600533 C616.28125,93.9073041 616.26875,92.9725188 616.2625,91.7341172 C612.09,92.6298482 611.21,89.7410843 611.21,89.7410843 C610.5275,88.0264713 609.54125,87.5678974 609.54125,87.5678974 C608.1825,86.64697 609.64625,86.6658673 609.64625,86.6658673 C611.1525,86.7691724 611.94375,88.1965468 611.94375,88.1965468 C613.28125,90.4679996 615.455,89.8116341 616.3125,89.4324288 C616.4475,88.4711872 616.83375,87.8173414 617.2625,87.445695 C613.93125,87.0740485 610.43,85.7965925 610.43,80.1047324 C610.43,78.483346 611.01125,77.1580169 611.97375,76.1186666 C611.805,75.7432407 611.29875,74.2327183 612.105,72.1867731 C612.105,72.1867731 613.36125,71.7886704 616.23,73.7098936 C617.43,73.3798212 618.705,73.2160448 619.98,73.2084859 C621.255,73.2160448 622.53,73.3798212 623.73,73.7098936 C626.58,71.7886704 627.83625,72.1867731 627.83625,72.1867731 C628.6425,74.2327183 628.13625,75.7432407 627.98625,76.1186666 C628.9425,77.1580169 629.081966,78.483346 629.081966,80.1047324 C629.081966,85.8117103 626.0175,87.0677494 622.68,87.4330968 C623.205,87.8790725 623.6925,88.7899213 623.6925,90.1820208 C623.6925,92.1700144 623.67375,93.7674643 623.67375,94.2499748 C623.67375,94.6392587 625.612676,94.4087119 626.381426,94.2600533 C632.382676,92.3098543 635,87.4343566 635,80.8795208" id="Path" stroke="#3C474E" stroke-width="1.5" stroke-linecap="round" stroke-linejoin="round"></path>
                <text id="Social-login" font-family="BradleyHandITCTT-Bold, Bradley Hand" font-size="17" font-style="expanded" font-weight="bold" fill="#3C474E">
                    <tspan x="565.287" y="125">Social login</tspan>
                </text>
                <text id="Email-+-Password-Aut" font-family="BradleyHandITCTT-Bold, Bradley Hand" font-size="17" font-style="expanded" font-weight="bold" fill="#3C474E">
                    <tspan x="0.2265" y="222">Email + Password</tspan>
                    <tspan x="12.22" y="243">Authentication</tspan>
                </text>
                <text id="SSO-integration" font-family="BradleyHandITCTT-Bold, Bradley Hand" font-size="17" font-style="expanded" font-weight="bold" fill="#3C474E">
                    <tspan x="60.4965" y="110">SSO integration</tspan>
                </text>
                <text id="User-Federation-(SQL" font-family="BradleyHandITCTT-Bold, Bradley Hand" font-size="17" font-style="expanded" font-weight="bold" fill="#3C474E">
                    <tspan x="34.3445" y="350">User Federation</tspan>
                    <tspan x="36.9625" y="371">(SQL / LDAP)</tspan>
                </text>
                <text id="Access-audit-trail-f" font-family="BradleyHandITCTT-Bold, Bradley Hand" font-size="17" font-style="expanded" font-weight="bold" fill="#3C474E">
                    <tspan x="567.2455" y="234">Access audit trail</tspan>
                    <tspan x="578.44" y="255">for compliance</tspan>
                </text>
                <text id="Everything-in" font-family="BradleyHandITCTT-Bold, Bradley Hand" font-size="17" font-style="expanded" font-weight="bold" fill="#3C474E">
                    <tspan x="541.12" y="346">Everything in</tspan>
                </text>
                <text id="10-minutes" font-family="BradleyHandITCTT-Bold, Bradley Hand" font-size="29" font-style="expanded" font-weight="bold" fill="#3C474E">
                    <tspan x="521.1375" y="375">10 minutes</tspan>
                </text>
                <path d="M605.812243,304.393482 C558.763885,301.934427 526.691064,311.001216 509.593778,331.593848 C483.947849,362.482797 495.954909,385.508034 516.079155,397.227896 C528.754329,404.609604 557.884446,411 589.77741,411 C627.050455,411 662.165494,404.908613 675.403201,387.016945 C700.608131,352.950758 677.094489,317.453427 644.179185,312.542862 C611.26388,307.632298 568.135584,309.859182 544.794692,322.097527" id="Path-13" stroke="#3C474E" stroke-width="1.5" stroke-linecap="round"></path>
                <g id="Group-8" transform="translate(425.000000, 0.000000)" stroke="#3C474E" stroke-linecap="round" stroke-width="1.5">
                    <path d="M21.1252712,24.6325223 L35.0701002,24.6325223 L28.0976857,42.2922902 C35.3129763,42.2922902 38.9206216,42.2922902 38.9206216,42.2922902 C38.9206216,42.2922902 33.5803351,51.7390342 22.8997619,70.6325223 L25.408486,49.4722627 L15.9206216,49.4722627 L21.1252712,24.6325223 Z" id="Path-14" stroke-linejoin="round"></path>
                    <path d="M51.9206216,60.6325223 C55.7436062,60.9216018 58.4102728,61.2549351 59.9206216,61.6325223 C65.0569732,62.9166102 67.9206216,64.6325223 67.9206216,64.6325223" id="Path-15" transform="translate(59.920622, 62.632522) rotate(15.000000) translate(-59.920622, -62.632522) "></path>
                    <line x1="53.9206216" y1="43.6325223" x2="69.9206216" y2="44.6325223" id="Path-16"></line>
                    <path d="M48.9206216,23.6325223 C52.0459002,21.4365381 54.7125669,19.855534 56.9206216,18.88951 C59.1286764,17.9234861 61.7953431,17.1711568 64.9206216,16.6325223" id="Path-17"></path>
                    <path d="M3.92062165,8.63252235 C5.59831833,12.1711274 6.66261354,14.729494 7.11350727,16.307622 C7.564401,17.8857501 7.83343912,19.9940502 7.92062165,22.6325223" id="Path-18" transform="translate(5.920622, 15.632522) rotate(-30.000000) translate(-5.920622, -15.632522) "></path>
                    <path d="M31.0010363,14.6325223 C30.8938168,11.5981936 30.8938168,9.26486022 31.0010363,7.63252235 C31.1082559,6.00018448 31.4147843,3.66685115 31.9206216,0.632522349" id="Path-19"></path>
                </g>
                <path d="M426,29 L240.693258,29 C234.231086,30.77282 231,34.4394867 231,40" id="Path-20" stroke="#3C474E" stroke-width="1.5" stroke-linecap="round"></path>
                <path d="M250,391 L469.998313,391 C475.999438,389.702687 479,385.369354 479,378" id="Path-21" stroke="#3C474E" stroke-width="1.5" stroke-linecap="round"></path>
                <path d="M85.494472,40 C78.3095813,40 74,46.1427811 74,53.4648163 C74,60.7868515 79.8151093,67 87,67 C94.1848907,67 100,60.7868515 100,53.4648163 C100,46.1427811 92.6793626,40 85.494472,40 Z M88.0962121,59.7722158 C84.5037668,59.7722158 80.4870775,57.1258339 80.4870775,53.4648163 C80.4870775,49.8037987 83.4075547,46.8275757 87,46.8275757 C90.5924453,46.8275757 93.5129225,49.8037987 93.5129225,53.4648163 C93.5129225,57.1258339 91.6886574,59.7722158 88.0962121,59.7722158 Z" id="Shape" stroke="#3C474E" stroke-width="1.5" stroke-linecap="round" stroke-linejoin="round"></path>
                <path d="M134.048349,36.1430319 L134.121474,36.1273033 L130.118748,31.2984271 C127.91725,28.6425447 126.116023,26.4592525 126.116023,26.4466669 C126.116023,26.4228385 130.249176,14.8790456 130.272412,14.8378645 C130.28018,14.8242457 133.064093,21.0807552 137.061846,28.1083287 C140.804615,34.6876688 143.91917,38.7810716 143.947851,38.8319052 L144,38.9243314 L131.287959,40.0650472 L117.758318,41 L126.266619,37.5398872 C130.506352,36.7802654 134.00813,36.1516823 134.048349,36.1430319 Z M115.191256,28.6880677 L119.382512,21.3211875 L124.266936,17.1638331 C126.953369,14.8772887 129.158594,13.0036841 129.167435,13.0000843 C129.176277,12.9968508 129.140937,13.0870614 129.088903,13.2007365 C129.036869,13.3144115 126.650161,18.5065054 123.785106,24.7387225 L118.575918,36.0700261 L114.787959,36.0748427 C112.704582,36.0774946 111,36.0740986 111,36.0673052 C111,36.060509 112.886065,32.7398522 115.191256,28.6880677 Z" id="path21" stroke="#3C474E" stroke-width="1.5" stroke-linecap="round" stroke-linejoin="round"></path>
                <path d="M128.787885,71.3900887 C128.787885,73.1340575 128.787815,74.8780961 128.788094,76.6220649 C128.788094,76.7267072 128.789835,76.8313496 128.791854,76.935922 C128.798122,77.2698407 128.973336,77.4085949 129.29967,77.4059081 C130.087091,77.3991582 130.874651,77.4033523 131.662071,77.403562 C131.972039,77.4037018 132.123507,77.2690718 132.122949,76.9378792 C132.117239,73.9614798 132.893502,71.05617 132.899354,68.0797705 C132.899909,67.7824801 132.41899,67.5906606 132.122949,67.5915795 C130.536478,67.5966124 128.542334,67.5879446 126.955723,67.5915795 C126.600141,67.5924882 126.480778,67.7170524 126.478619,68.0797705 C126.474092,68.8587512 126.474789,69.6377318 126.478201,70.4167124 C126.480081,70.8234684 126.590043,70.9351707 126.992006,70.9383163 C127.569879,70.94279 128.147823,70.9394347 128.787885,70.9394347 L128.787885,71.3900887 Z M131.267279,86.9998058 C123.625183,86.9575854 115.913612,80.35069 116.000731,72.4967841 C116.087503,64.6689514 122.591099,57.9296053 130.226858,58.0005552 C137.796459,58.0708759 144,64.3422852 144,72.0530331 C144,79.847453 139.118366,87.0430748 131.267279,86.9998058 Z" id="Fill-1" stroke="#3C474E" stroke-width="1.5" stroke-linecap="round" stroke-linejoin="round"></path>
                <g id="Group-15" transform="translate(62.000000, 289.000000)" stroke="#3C474E" stroke-linecap="round" stroke-linejoin="round" stroke-width="1.5">
                    <path d="M11,18.7890625 C13.7614237,18.7890625 15.7009352,16.5504862 15.7009352,13.7890625 C15.7009352,11.0276388 13.7614237,8.7890625 11,8.7890625 C8.23857625,8.7890625 6,11.0276388 6,13.7890625 C6,16.5504862 8.23857625,18.7890625 11,18.7890625 Z" id="Oval"></path>
                    <path d="M12.5,31.2890625 L1.875,31.2890625 C0.85,31.2890625 -3.69482223e-13,30.4390625 -3.69482223e-13,29.4140625 L-3.69482223e-13,28.1640625 C-3.69482223e-13,24.3640625 3.075,21.2890625 6.875,21.2890625 L13.125,21.2890625 C14.425,21.2890625 15.65,21.6640625 16.675,22.2890625" id="Path"></path>
                    <path d="M50,18.7890625 C52.7614237,18.7890625 55,16.5504862 55,13.7890625 C55,11.0276388 52.7614237,8.7890625 50,8.7890625 C47.2385763,8.7890625 44.9795562,11.7887655 44.9795562,14.5501893 C44.9795562,17.311613 47.2385763,18.7890625 50,18.7890625 Z" id="Oval"></path>
                    <path d="M43.325,22.2890625 C44.35,21.6640625 45.575,21.2890625 46.875,21.2890625 L53.125,21.2890625 C56.925,21.2890625 60,24.3640625 60,28.1640625 L60,29.4140625 C60,30.4390625 59.15,31.2890625 58.125,31.2890625 L47.5,31.2890625" id="Path"></path>
                    <path d="M41.9130435,9 C44.0741577,9 46.0525233,6.98528137 46.0525233,4.5 C46.0525233,2.01471863 44.0741577,0 41.9130435,0 C39.7519292,0 38,2.01471863 38,4.5 C38,6.98528137 39.7519292,9 41.9130435,9 Z" id="Oval-Copy"></path>
                    <circle id="Oval-Copy-2" cx="17.9130435" cy="3.91304348" r="3.91304348"></circle>
                    <path d="M30,20.0390625 C34.1421356,20.0390625 38,17.9311981 38,13.7890625 C38,9.64692688 34.1421356,5.0390625 30,5.0390625 C25.8578644,5.0390625 22.5,8.39692688 22.5,12.5390625 C22.5,16.6811981 25.8578644,20.0390625 30,20.0390625 Z" id="Oval"></path>
                    <path d="M44.3875343,34.4140625 L43.75,30.6640625 C43.75,26.8715625 40.6675,23.7890625 36.875,23.7890625 L24.8021336,23.7890625 C21.0096336,23.7890625 16.675,26.8715625 16.675,30.6640625 L16.25,34.4140625" id="Path"></path>
                </g>
                <path d="M641,201.5 C646.145018,203.166667 652.145018,202.839937 659,200.519812" id="Path-33" stroke="#3C474E" stroke-width="1.5" stroke-linecap="round" stroke-linejoin="round"></path>
                <polyline id="Path-34" stroke="#3C474E" stroke-width="1.5" stroke-linecap="round" stroke-linejoin="round" points="655 198 662 199.665783 658.5 205"></polyline>
                <g id="Group-16" transform="translate(608.590317, 194.143150) rotate(28.000000) translate(-608.590317, -194.143150) translate(601.590317, 190.643150)" stroke="#3C474E" stroke-linecap="round" stroke-linejoin="round" stroke-width="1.5">
                    <path d="M0.97548302,4.07721027 C4.07726723,4.66643029 7.41877289,4.14729759 11,2.51981219" id="Path-33-Copy"></path>
                    <polyline id="Path-34-Copy" points="7 -1.8189894e-12 14 1.66578304 10.5 7"></polyline>
                </g>
                <path d="M589,192.593735 C592.865993,192.593735 596,189.865993 596,186 C596,182.134007 592.865993,179 589,179 C585.134007,179 582,182.134007 582,186 C582,189.865993 585.134007,192.593735 589,192.593735 Z" id="Oval" stroke="#3C474E" stroke-width="1.5" stroke-linecap="round" stroke-linejoin="round" stroke-dasharray="2,4"></path>
                <path d="M629,205 C632.865993,205 635.788015,200.652294 635.788015,196.786301 C635.788015,192.920308 632.865993,191 629,191 C625.134007,191 622,194.134007 622,198 C622,201.865993 625.134007,205 629,205 Z" id="Oval-Copy-44" stroke="#3C474E" stroke-width="1.5" stroke-linecap="round" stroke-linejoin="round" stroke-dasharray="2,4"></path>
                <path d="M673,204 C676.865993,204 680,200.865993 680,197 C680,193.134007 676.865993,190 673,190 C669.134007,190 665.552756,191.277157 665.552756,195.14315 C665.552756,199.009144 669.134007,204 673,204 Z" id="Oval-Copy-45" stroke="#3C474E" stroke-width="1.5" stroke-linecap="round" stroke-linejoin="round"></path>
                <path d="M28,170.555127 C29.1129867,182.322896 29.6694801,188.20678 29.6694801,188.20678 C35.4969425,188.390554 39.4891802,188.390554 41.6461931,188.20678 C49.67263,187.522944 53.3720882,186.187366 53.3720882,186.187366 C53.1922607,174.456048 53.1023469,168.590389 53.1023469,168.590389 L32.2119744,169.939096" id="Path-35" stroke="#3C474E" stroke-width="1.5" stroke-linecap="round" stroke-linejoin="round" transform="translate(40.686044, 178.467500) rotate(3.000000) translate(-40.686044, -178.467500) "></path>
                <polyline id="Path-36" stroke="#3C474E" stroke-width="1.5" stroke-linecap="round" stroke-linejoin="round" transform="translate(39.945616, 176.264193) rotate(3.000000) translate(-39.945616, -176.264193) " points="30.2728598 172.552629 41.7604905 180.98013 49.6183719 171.548257"></polyline>
                <line x1="65" y1="178.75" x2="76" y2="178.25" id="Path-38" stroke="#3C474E" stroke-width="1.5" stroke-linecap="round" stroke-linejoin="round"></line>
                <line x1="70.3941127" y1="173" x2="70.6058873" y2="184" id="Path-38-Copy" stroke="#3C474E" stroke-width="1.5" stroke-linecap="round" stroke-linejoin="round"></line>
                <circle id="Oval" stroke="#3C474E" stroke-width="1.5" stroke-linecap="round" stroke-linejoin="round" cx="93" cy="173" r="6"></circle>
                <line x1="92.2602219" y1="179" x2="92.7397781" y2="189" id="Path-39" stroke="#3C474E" stroke-width="1.5" stroke-linecap="round" stroke-linejoin="round"></line>
                <line x1="93" y1="185.908552" x2="97" y2="185.091448" id="Path-40" stroke="#3C474E" stroke-width="1.5" stroke-linecap="round" stroke-linejoin="round"></line>
                <line x1="368" y1="240" x2="443" y2="240" id="Path-41" stroke="#F1F1F1"></line>
                <line x1="260" y1="240" x2="335" y2="240" id="Path-41-Copy" stroke="#F1F1F1"></line>
                <g id="linkedin" transform="translate(417.000000, 196.000000)" fill="#006699">
                    <g id="g3019" transform="translate(7.033411, 6.898165) scale(-1, 1) rotate(-180.000000) translate(-7.033411, -6.898165) translate(0.160684, 0.152711)">
                        <path d="M3.11040347,0.251751926 L3.11040347,9.01581292 L0.197391836,9.01581292 L0.197391836,0.251751926 L3.11040347,0.251751926 Z M1.65388469,10.2123974 C2.66971078,10.2123974 3.30197629,10.885379 3.30197629,11.7264114 C3.28304463,12.5863755 2.66971078,13.2406847 1.67315348,13.2406847 C0.676699925,13.2406847 0.0251915491,12.5863755 0.0251915491,11.7264114 C0.0251915491,10.885379 0.657327392,10.2123974 1.63490116,10.2123974 L1.65383282,10.2123974 L1.65388469,10.2123974 Z" id="path28"></path>
                        <path d="M7.63525129,0.251751926 L7.63525129,5.14597454 C7.63525129,5.4079057 7.65418294,5.66957753 7.73110253,5.8568194 C7.94168481,6.38016305 8.4209929,6.92217901 9.22571803,6.92217901 C10.2797964,6.92217901 10.7014537,6.11849123 10.7014537,4.94031968 L10.7014537,0.251751926 L13.614206,0.251751926 L13.614206,5.27694012 C13.614206,7.9688663 12.1770857,9.22146779 10.2605536,9.22146779 C8.68907036,9.22146779 7.99918,8.34309072 7.61587875,7.74479846 L7.63532909,7.74479846 L7.63532909,9.01581292 L4.72226559,9.01581292 C4.76056978,8.19345282 4.72226559,0.251751926 4.72226559,0.251751926 L7.63525129,0.251751926 Z" id="path30"></path>
                    </g>
                </g>
                <g id="azure" transform="translate(417.000000, 127.000000)" fill-rule="nonzero">
                    <path d="M7.36857231,46.6051686 C9.41491836,46.2459365 11.1050833,45.9486719 11.1244951,45.944581 L11.1597898,45.9371428 L9.22783738,43.6535085 C8.16526439,42.3975095 7.29588595,41.3650041 7.29588595,41.3590522 C7.29588595,41.3477835 9.29078996,35.8885836 9.30200465,35.8691481 C9.30575425,35.8626681 10.663347,38.1918657 12.5928986,41.5152906 C14.3993801,44.6267404 15.8887365,47.192142 15.9025797,47.2161818 L15.92775,47.2598913 L9.787846,47.2591043 L3.64794314,47.2583205 L7.36857231,46.6051708 L7.36857231,46.6051686 Z M0,45.9087702 C0,45.9055549 0.9103266,44.335176 2.02294796,42.4190379 L4.04589561,38.9351508 L6.40340724,36.9690874 C7.70003861,35.8877528 8.76441059,35.0017024 8.76867787,35.000042 C8.77294515,34.9984708 8.75588827,35.0411325 8.73077362,35.0948909 C8.70565897,35.1486492 7.55369236,37.6040534 6.17084779,40.5513446 L3.65658554,45.9100557 L1.82829277,45.9123335 C0.822731973,45.9135876 0,45.9119816 0,45.9087689 L0,45.9087702 Z" id="path21" fill="#0089D6"></path>
                    <g id="google-g-copy-2" transform="translate(1.000000, 0.000000)">
                        <path d="M13.9869159,7.52230769 C13.9869159,7.02423077 13.9476636,6.52346154 13.8639252,6.03346154 L7.14654206,6.03346154 L7.14654206,8.855 L10.993271,8.855 C10.8336449,9.765 10.3207477,10.57 9.56971963,11.0815385 L9.56971963,12.9123077 L11.8646729,12.9123077 C13.2123364,11.6361538 13.9869159,9.75153846 13.9869159,7.52230769 Z" id="Path" fill="#4285F4"></path>
                        <path d="M7.14654206,14.6811538 C9.06728972,14.6811538 10.6871028,14.0323077 11.8672897,12.9123077 L9.57233645,11.0815385 C8.93383178,11.5284615 8.10953271,11.7815385 7.14915888,11.7815385 C5.29121495,11.7815385 3.71588785,10.4919231 3.15065421,8.75807692 L0.782429907,8.75807692 L0.782429907,10.6453846 C1.99140187,13.1196154 4.45383178,14.6811538 7.14654206,14.6811538 Z" id="Path" fill="#34A853"></path>
                        <path d="M3.14803738,8.75807692 C2.84971963,7.84807692 2.84971963,6.86269231 3.14803738,5.95269231 L3.14803738,4.06538462 L0.782429907,4.06538462 C-0.227663551,6.13576923 -0.227663551,8.575 0.782429907,10.6453846 L3.14803738,8.75807692 Z" id="Path" fill="#FBBC04"></path>
                        <path d="M7.14654206,2.92653846 C8.16186916,2.91038462 9.14317757,3.30346154 9.87850467,4.025 L9.87850467,4.025 L11.9117757,1.93307692 C10.6242991,0.689230769 8.91551402,0.00538461538 7.14654206,0.0269230769 C4.45383178,0.0269230769 1.99140187,1.58846154 0.782429907,4.06538462 L3.14803738,5.95269231 C3.71065421,4.21615385 5.28859813,2.92653846 7.14654206,2.92653846 Z" id="Path" fill="#EA4335"></path>
                    </g>
                </g>
                <g id="Group-19" transform="translate(307.000000, 51.000000)">
                    <g id="Group-18" transform="translate(24.000000, 0.000000)">
                        <circle id="Oval" fill="#9ABF6A" cx="19.3362832" cy="17.9911504" r="13.9557522"></circle>
                        <path d="M19.3362832,4.03539823 C24.5035815,4.03539823 29.014957,6.84373771 31.4273856,11.0173926 C30.5614195,10.8490969 29.6670968,10.7610619 28.7522124,10.7610619 C21.0446633,10.7610619 14.7964602,17.009265 14.7964602,24.7168142 C14.7964602,27.257065 15.4751569,29.6387977 16.66111,31.690572 C10.2338411,30.4434783 5.38053097,24.78409 5.38053097,17.9911504 C5.38053097,10.2836013 11.6287341,4.03539823 19.3362832,4.03539823 Z" id="Combined-Shape" fill="#FDA76E"></path>
                        <path d="M21.3540869,4.03539823 C26.5213852,4.03539823 31.0327607,6.84373771 33.4451893,11.0173926 C32.5792232,10.8490969 31.6849005,10.7610619 30.7700161,10.7610619 C23.062467,10.7610619 16.8142639,17.009265 16.8142639,24.7168142 C16.8142639,27.257065 17.4929606,29.6387977 18.6789137,31.690572 C12.2516448,30.4434783 7.39833466,24.78409 7.39833466,17.9911504 C7.39833466,10.2836013 13.6465378,4.03539823 21.3540869,4.03539823 Z" id="Combined-Shape-Copy" fill="#A7DE5F" opacity="0.800000012" transform="translate(20.421762, 17.862985) scale(-1, 1) translate(-20.421762, -17.862985) "></path>
                        <path d="M20.0087981,5.04414465 C25.1760965,5.04414465 29.6874719,7.85248413 32.0999005,12.026139 C31.2339345,11.8578433 30.3396117,11.7698084 29.4247273,11.7698084 C21.7171782,11.7698084 15.4689751,18.0180115 15.4689751,25.7255606 C15.4689751,28.2658114 16.1476718,30.6475441 17.3336249,32.6993184 C10.906356,31.4522247 6.05304592,25.7928365 6.05304592,18.9998969 C6.05304592,11.2923477 12.301249,5.04414465 20.0087981,5.04414465 Z" id="Combined-Shape-Copy-2" fill="#003165" opacity="0.300000012" transform="translate(19.076473, 18.871732) scale(-1, 1) rotate(-127.000000) translate(-19.076473, -18.871732) "></path>
                        <path d="M19.4894371,14.3172783 C17.7833159,15.9150653 16.5098675,17.7503448 15.6690917,19.8231169 C18.0335321,20.7029422 20.5355506,20.7865256 23.1751472,20.0738671 C22.8086147,19.0181614 22.3171177,18.0088933 21.7006564,17.0460627 C21.084195,16.0832321 20.3471219,15.1736373 19.4894371,14.3172783 Z" id="Path-42" fill="#FFFFFF"></path>
                    </g>
                    <text id="Your-Company" font-family="Inter, Inter UI, Helvetica, Arial, sans-serif" font-size="12" font-weight="bold" fill="#3C474E">
                        <tspan x="0.0738636364" y="46">Your Company</tspan>
                    </text>
                </g>
            </g>
        </g>
    </g>
</svg>