<svg width="32" height="32" viewBox="0 0 32 32" fill="none" xmlns="http://www.w3.org/2000/svg">
<path d="M30 16C30 8.26801 23.732 2 16 2C8.26801 2 2 8.26801 2 16C2 23.732 8.26801 30 16 30C23.732 30 30 23.732 30 16ZM32 16C32 24.8366 24.8366 32 16 32C7.16344 32 0 24.8366 0 16C0 7.16344 7.16344 0 16 0C24.8366 0 32 7.16344 32 16Z" fill="#3FA1E3"/>
<path d="M22.2929 11.2929C22.6834 10.9024 23.3164 10.9024 23.707 11.2929C24.0975 11.6834 24.0975 12.3164 23.707 12.707L14.707 21.707C14.3164 22.0975 13.6834 22.0975 13.2929 21.707L8.29289 16.707C7.90237 16.3164 7.90237 15.6834 8.29289 15.2929C8.68342 14.9024 9.31643 14.9024 9.70696 15.2929L13.9999 19.5859L22.2929 11.2929Z" fill="#3FA1E3"/>
</svg>
