<svg width="32" height="32" viewBox="0 0 32 32" fill="none" xmlns="http://www.w3.org/2000/svg">
<path d="M15.5355 19.8841C16.5616 19.8843 17.413 20.7357 17.4132 21.7619C17.4132 22.7628 16.5873 23.6408 15.5355 23.641C14.4786 23.641 13.6772 22.758 13.6772 21.7619C13.6774 20.7404 14.5042 19.8841 15.5355 19.8841ZM15.8033 7.8252C18.5429 7.8252 20.4949 9.3629 20.4949 11.5235C20.4949 12.5836 20.0158 13.4824 19.4849 14.1588C19.0858 14.6672 18.6477 15.0633 18.334 15.3223L18.0689 15.5343C17.525 15.9596 17.2778 16.2972 17.1551 16.6308C17.0284 16.9758 17.0198 17.3484 17.0198 17.8948C17.0197 18.14 16.9549 18.4424 16.6975 18.6774C16.4456 18.9074 16.0577 19.0275 15.5145 19.0276C15.0693 19.0276 14.6714 18.9498 14.4082 18.6369C14.159 18.3405 14.0916 17.8996 14.0916 17.3563C14.0916 16.4225 14.2981 15.718 14.5938 15.1744C14.8885 14.6327 15.2635 14.2648 15.5759 13.9956L15.5773 13.9942C15.7541 13.8441 15.9661 13.6884 16.1632 13.5352C16.3657 13.3778 16.5632 13.2163 16.738 13.0427C17.0882 12.6949 17.3183 12.324 17.3183 11.8751C17.3183 11.4959 17.1591 11.2313 16.8984 11.0506C16.6253 10.8615 16.2226 10.7548 15.7419 10.7548C15.251 10.7548 14.9339 10.8472 14.7138 10.9683C14.494 11.0892 14.3469 11.2506 14.2143 11.4328C14.1431 11.5308 14.0892 11.6154 14.0162 11.7202C13.9488 11.8171 13.8717 11.9208 13.7805 12.0132C13.5854 12.2107 13.3335 12.3466 12.9699 12.3466C12.6328 12.3466 12.2579 12.2356 11.9613 11.9964C11.6568 11.7509 11.4437 11.3756 11.4437 10.8818C11.4442 9.55865 12.9074 7.82545 15.8033 7.8252Z" fill="#F36529"/>
<path d="M30 16C30 8.26801 23.732 2 16 2C8.26801 2 2 8.26801 2 16C2 23.732 8.26801 30 16 30C23.732 30 30 23.732 30 16ZM32 16C32 24.8366 24.8366 32 16 32C7.16344 32 0 24.8366 0 16C0 7.16344 7.16344 0 16 0C24.8366 0 32 7.16344 32 16Z" fill="#F36529"/>
</svg>
