<svg width="25" height="24" viewBox="0 0 25 24" fill="none" xmlns="http://www.w3.org/2000/svg">
<path d="M13.0003 7.09522C15.3403 7.46445 16.0003 9.09106 16.0003 9.97921C16.0003 10.2439 15.895 10.4977 15.7074 10.6848C15.5199 10.872 15.2655 10.9771 15.0003 10.9771C14.7351 10.9771 14.4807 10.872 14.2932 10.6848C14.1057 10.4977 14.0003 10.2439 14.0003 9.97921C14.0003 9.79958 13.8203 8.98129 12.0003 8.98129C10.1803 8.98129 10.0003 9.79958 10.0003 9.97921C10.0003 10.1588 10.1603 10.9771 12.0003 10.9771C15.1603 10.9771 16.0003 12.973 16.0003 13.9709C16.0003 14.9688 15.3403 16.5156 13.0003 16.8848V17.9626C13.0003 18.2272 12.895 18.4811 12.7074 18.6682C12.5199 18.8554 12.2655 18.9605 12.0003 18.9605C11.7351 18.9605 11.4807 18.8554 11.2932 18.6682C11.1057 18.4811 11.0003 18.2272 11.0003 17.9626V16.8848C10.5294 16.8368 10.0729 16.6956 9.65737 16.4694C9.24185 16.2432 8.87569 15.9366 8.58032 15.5676C8.22566 15.1083 8.02296 14.5503 8.00032 13.9709C8.00032 13.7062 8.10568 13.4524 8.29321 13.2653C8.48075 13.0781 8.7351 12.973 9.00032 12.973C9.26554 12.973 9.51989 13.0781 9.70743 13.2653C9.89496 13.4524 10.0003 13.7062 10.0003 13.9709C10.0003 14.1106 10.1603 14.9688 12.0003 14.9688C14.0003 14.9688 14.0003 13.9709 14.0003 13.9709C14.0003 13.9709 13.8403 12.973 12.0003 12.973C8.84032 12.973 8.00032 10.9771 8.00032 9.97921C8.00032 8.98129 8.66032 7.46445 11.0003 7.09522V5.98752C11.0003 5.72286 11.1057 5.46903 11.2932 5.28189C11.4807 5.09474 11.7351 4.9896 12.0003 4.9896C12.2655 4.9896 12.5199 5.09474 12.7074 5.28189C12.895 5.46903 13.0003 5.72286 13.0003 5.98752V7.09522ZM17.0003 6.98544C17.1319 6.9862 17.2624 6.96103 17.3842 6.91137C17.5061 6.86171 17.6169 6.78854 17.7103 6.69605L21.0003 3.40291V4.9896C21.0003 5.25427 21.1057 5.50809 21.2932 5.69524C21.4807 5.88239 21.7351 5.98752 22.0003 5.98752C22.2655 5.98752 22.5199 5.88239 22.7074 5.69524C22.895 5.50809 23.0003 5.25427 23.0003 4.9896V0.997921C22.9987 0.867515 22.9716 0.738683 22.9203 0.618711C22.8188 0.374869 22.6247 0.181097 22.3803 0.0798336C22.2601 0.0286992 22.131 0.0015767 22.0003 0H18.0003C17.7351 0 17.4807 0.105138 17.2932 0.292284C17.1057 0.479431 17.0003 0.733256 17.0003 0.997921C17.0003 1.26259 17.1057 1.51641 17.2932 1.70356C17.4807 1.8907 17.7351 1.99584 18.0003 1.99584H19.5903L16.2903 5.279C16.1966 5.37177 16.1222 5.48214 16.0714 5.60375C16.0207 5.72535 15.9945 5.85579 15.9945 5.98752C15.9945 6.11926 16.0207 6.2497 16.0714 6.3713C16.1222 6.49291 16.1966 6.60328 16.2903 6.69605C16.3838 6.78854 16.4946 6.86171 16.6164 6.91137C16.7382 6.96103 16.8687 6.9862 17.0003 6.98544ZM23.8003 9.79958C23.7526 9.53492 23.6014 9.30002 23.3801 9.14656C23.1588 8.9931 22.8855 8.93365 22.6203 8.98129C22.3551 9.02893 22.1197 9.17975 21.9659 9.40058C21.8121 9.62142 21.7526 9.89417 21.8003 10.1588C22.1747 12.1775 21.9161 14.2623 21.0598 16.1289C20.2035 17.9955 18.7911 19.5532 17.0152 20.5895C15.2393 21.6258 13.1864 22.0903 11.1363 21.9197C9.08615 21.7491 7.13866 20.9516 5.55932 19.6361C3.97998 18.3206 2.84564 16.551 2.31097 14.5686C1.7763 12.5862 1.86732 10.4875 2.57161 8.55858C3.27591 6.62969 4.55921 4.96451 6.24654 3.79006C7.93387 2.61562 9.94311 1.98907 12.0003 1.99584C12.3035 1.98066 12.6072 1.98066 12.9103 1.99584C13.168 2.02147 13.4256 1.94634 13.6289 1.78627C13.8322 1.62621 13.9653 1.39368 14.0003 1.13763C14.0127 1.00648 13.9989 0.874185 13.9598 0.748375C13.9207 0.622565 13.857 0.50573 13.7724 0.404609C13.6878 0.303488 13.5839 0.220082 13.4669 0.159202C13.3498 0.0983221 13.2218 0.0611726 13.0903 0.0498962H12.0003C9.5335 0.0498302 7.1266 0.808425 5.1073 2.2224C3.08801 3.63637 1.55446 5.63701 0.715435 7.95194C-0.12359 10.2669 -0.227315 12.7836 0.418383 15.1594C1.06408 17.5353 2.42782 19.6549 4.32394 21.2295C6.22006 22.8042 8.55641 23.7575 11.0149 23.9596C13.4734 24.1617 15.9346 23.6027 18.0633 22.3589C20.1921 21.1151 21.885 19.2468 22.9116 17.0083C23.9381 14.7699 24.2485 12.2702 23.8003 9.84948V9.79958Z" fill="#F36529"/>
</svg>
