<svg width="32" height="32" viewBox="0 0 32 32" fill="none" xmlns="http://www.w3.org/2000/svg">
<path d="M16.7905 9.46029C19.9105 9.9526 20.7905 12.1214 20.7905 13.3056C20.7905 13.6585 20.65 13.9969 20.3999 14.2465C20.1499 14.496 19.8108 14.6362 19.4571 14.6362C19.1035 14.6362 18.7644 14.496 18.5143 14.2465C18.2643 13.9969 18.1238 13.6585 18.1238 13.3056C18.1238 13.0661 17.8838 11.975 15.4571 11.975C13.0305 11.975 12.7905 13.0661 12.7905 13.3056C12.7905 13.5451 13.0038 14.6362 15.4571 14.6362C19.6705 14.6362 20.7905 17.2973 20.7905 18.6279C20.7905 19.9584 19.9105 22.0208 16.7905 22.5131V23.9501C16.7905 24.303 16.65 24.6414 16.3999 24.8909C16.1499 25.1405 15.8108 25.2807 15.4571 25.2807C15.1035 25.2807 14.7644 25.1405 14.5143 24.8909C14.2643 24.6414 14.1238 24.303 14.1238 23.9501V22.5131C13.496 22.4491 12.8872 22.2608 12.3332 21.9592C11.7792 21.6577 11.291 21.2489 10.8971 20.7568C10.4243 20.1444 10.154 19.4004 10.1238 18.6279C10.1238 18.275 10.2643 17.9365 10.5143 17.687C10.7644 17.4375 11.1035 17.2973 11.4571 17.2973C11.8108 17.2973 12.1499 17.4375 12.3999 17.687C12.65 17.9365 12.7905 18.275 12.7905 18.6279C12.7905 18.8141 13.0038 19.9584 15.4571 19.9584C18.1238 19.9584 18.1238 18.6279 18.1238 18.6279C18.1238 18.6279 17.9105 17.2973 15.4571 17.2973C11.2438 17.2973 10.1238 14.6362 10.1238 13.3056C10.1238 11.975 11.0038 9.9526 14.1238 9.46029V7.98337C14.1238 7.63048 14.2643 7.29205 14.5143 7.04252C14.7644 6.79299 15.1035 6.6528 15.4571 6.6528C15.8108 6.6528 16.1499 6.79299 16.3999 7.04252C16.65 7.29205 16.7905 7.63048 16.7905 7.98337V9.46029Z" fill="#3FA1E3"/>
<path d="M16 0C17.0946 0 18.1648 0.110333 19.1992 0.320312C19.7403 0.430323 20.0903 0.957905 19.9805 1.49902C19.8706 2.04027 19.342 2.39014 18.8008 2.28027C17.8966 2.09676 16.9601 2 16 2C8.26801 2 2 8.26801 2 16C2 23.732 8.26801 30 16 30C23.732 30 30 23.732 30 16C30 14.3619 29.7196 12.7914 29.2041 11.333C29.0201 10.8123 29.2928 10.2417 29.8135 10.0576C30.3342 9.87363 30.9048 10.1463 31.0889 10.667C31.6789 12.3364 32 14.1318 32 16C32 24.8366 24.8366 32 16 32C7.16344 32 0 24.8366 0 16C0 7.16344 7.16344 0 16 0Z" fill="#3FA1E3"/>
<path d="M29.5 0.5C29.5587 0.5 29.616 0.505935 29.6719 0.515625C29.679 0.516861 29.6863 0.517164 29.6934 0.518555C29.7122 0.522244 29.7306 0.527496 29.749 0.532227C29.762 0.535557 29.7752 0.538132 29.7881 0.541992C29.8375 0.556838 29.8848 0.576666 29.9307 0.598633C29.9453 0.605651 29.9602 0.612341 29.9746 0.620117C30.1203 0.698874 30.2441 0.812548 30.335 0.950195C30.3597 0.98768 30.3812 1.02662 30.4004 1.06641C30.4222 1.11159 30.4412 1.15838 30.4561 1.20703C30.4623 1.22732 30.4668 1.24799 30.4717 1.26855C30.4893 1.34294 30.5 1.42022 30.5 1.5V7C30.5 7.55228 30.0523 8 29.5 8C28.9477 8 28.5 7.55228 28.5 7V3.91406L23.707 8.70703C23.3165 9.09754 22.6835 9.09751 22.293 8.70703C21.9024 8.31651 21.9024 7.68349 22.293 7.29297L27.0859 2.5H24C23.4477 2.5 23 2.05228 23 1.5C23 0.947715 23.4477 0.5 24 0.5H29.5Z" fill="#3FA1E3"/>
</svg>
