<svg width="16" height="16" viewBox="0 0 16 16" fill="none" xmlns="http://www.w3.org/2000/svg">
<g clip-path="url(#clip0_5173_11041)">
<path d="M8 0.333334C3.58 0.333334 0 3.85333 0 8.19467C0 11.6687 2.292 14.6147 5.47 15.6533C5.87 15.7273 6.01667 15.484 6.01667 15.2753C6.01667 15.0887 6.01 14.594 6.00667 13.9387C3.78133 14.4127 3.312 12.884 3.312 12.884C2.948 11.9767 2.422 11.734 2.422 11.734C1.69733 11.2467 2.478 11.2567 2.478 11.2567C3.28133 11.3113 3.70333 12.0667 3.70333 12.0667C4.41667 13.2687 5.576 12.9213 6.03333 12.7207C6.10533 12.212 6.31133 11.866 6.54 11.6693C4.76333 11.4727 2.896 10.7967 2.896 7.78467C2.896 6.92667 3.206 6.22533 3.71933 5.67533C3.62933 5.47667 3.35933 4.67733 3.78933 3.59467C3.78933 3.59467 4.45933 3.384 5.98933 4.40067C6.62933 4.226 7.30933 4.13933 7.98933 4.13533C8.66933 4.13933 9.34933 4.226 9.98933 4.40067C11.5093 3.384 12.1793 3.59467 12.1793 3.59467C12.6093 4.67733 12.3393 5.47667 12.2593 5.67533C12.7693 6.22533 13.0793 6.92667 13.0793 7.78467C13.0793 10.8047 11.2093 11.4693 9.42933 11.6627C9.70933 11.8987 9.96933 12.3807 9.96933 13.1173C9.96933 14.1693 9.95933 15.0147 9.95933 15.27C9.95933 15.476 10.0993 15.722 10.5093 15.6433C13.71 14.6113 16 11.6633 16 8.19467C16 3.85333 12.418 0.333334 8 0.333334Z" fill="#C2CAD0"/>
</g>
<defs>
<clipPath id="clip0_5173_11041">
<rect width="16" height="16" fill="white"/>
</clipPath>
</defs>
</svg>
