<svg xmlns="http://www.w3.org/2000/svg" viewBox="0 0 48 48"><defs><style>.cls-1{fill:#424242;}.cls-2{fill:#42a5f5;}</style></defs><title>Lock access</title><g id="Lock_access" data-name="Lock access"><path class="cls-1" d="M44,20H22a4,4,0,0,0-4,4v2H16.41c-4-4-3.85-4-4.41-4H9.82a3,3,0,1,0,0,2h1.77c4,4,3.85,4,4.41,4h2v3H10.41C8,28.58,8.94,29,5.82,29a3,3,0,1,0,0,2H7.59l1.7,1.71c.42.41.16.29,8.71.29v3H9.82a3,3,0,1,0,0,2H18v3c-5.49,0-5.32-.1-5.71.29L9.59,44H7.82a3,3,0,1,0,0,2c2.3,0,2.51.09,2.89-.29L13.41,43H18v1a4,4,0,0,0,4,4H44a4,4,0,0,0,4-4V24A4,4,0,0,0,44,20ZM7,24a1,1,0,0,1,0-2A1,1,0,0,1,7,24ZM3,31a1,1,0,0,1,0-2A1,1,0,0,1,3,31Zm4,7a1,1,0,0,1,0-2A1,1,0,0,1,7,38ZM5,46a1,1,0,0,1,0-2A1,1,0,0,1,5,46Zm41-2a2,2,0,0,1-2,2H22a2,2,0,0,1-2-2V24a2,2,0,0,1,2-2H44a2,2,0,0,1,2,2Z"/><path class="cls-2" d="M40,20V11a7,7,0,0,0-14,0v5H22V11a11,11,0,0,1,22,0v9"/><path class="cls-2" d="M41.59,38,35.35,26.41a2.67,2.67,0,0,0-4.71,0L24.41,38a3.39,3.39,0,0,0,3,5H38.6A3.4,3.4,0,0,0,41.59,38ZM33,40a1,1,0,0,1,0-2A1,1,0,0,1,33,40Zm1-4H32l-1-6h4Z"/></g></svg>