<svg width="24" height="24" viewBox="0 0 24 24" fill="none" xmlns="http://www.w3.org/2000/svg">
<path d="M12 0C18.6328 0 24 5.36782 24 12C24 18.6328 18.6322 24 12 24C5.36721 24 0 18.6321 0 12C0 5.36721 5.36782 0 12 0ZM12 2.07376C6.52658 2.07376 2.07376 6.52654 2.07376 12C2.07376 17.4735 6.52658 21.9262 12 21.9262C17.4735 21.9262 21.9262 17.4735 21.9262 12C21.9262 6.52654 17.4735 2.07376 12 2.07376ZM11.6516 14.9129C12.4212 14.913 13.0597 15.5516 13.0599 16.3212C13.0599 17.0719 12.4405 17.7304 11.6516 17.7306C10.8589 17.7306 10.2579 17.0683 10.2579 16.3212C10.2581 15.5551 10.8782 14.9129 11.6516 14.9129ZM11.8525 5.86869C13.9072 5.86869 15.3712 7.02197 15.3712 8.64243C15.3712 9.43752 15.0118 10.1116 14.6137 10.6189C14.3144 11.0002 13.9858 11.2973 13.7505 11.4915L13.5517 11.6505C13.1437 11.9695 12.9584 12.2227 12.8663 12.4729C12.7713 12.7317 12.7648 13.0111 12.7648 13.4209C12.7648 13.6048 12.7162 13.8316 12.5231 14.0078C12.3342 14.1803 12.0433 14.2704 11.6359 14.2705C11.302 14.2705 11.0036 14.2121 10.8062 13.9775C10.6192 13.7552 10.5687 13.4245 10.5687 13.017C10.5687 12.3167 10.7235 11.7883 10.9453 11.3806C11.1664 10.9743 11.4476 10.6984 11.6819 10.4965L11.683 10.4954C11.8156 10.3829 11.9746 10.2661 12.1224 10.1512C12.2743 10.0332 12.4224 9.912 12.5535 9.78185C12.8161 9.52098 12.9888 9.24281 12.9888 8.9061C12.9887 8.62171 12.8693 8.42325 12.6738 8.28773C12.4689 8.14589 12.1669 8.06592 11.8064 8.06592C11.4383 8.06592 11.2004 8.13518 11.0353 8.226C10.8705 8.31667 10.7601 8.43773 10.6607 8.57442C10.6073 8.64789 10.5669 8.71132 10.5122 8.78996C10.4616 8.86265 10.4037 8.94038 10.3353 9.00968C10.189 9.15783 10.0001 9.25974 9.72744 9.25974C9.47459 9.25971 9.19339 9.17648 8.97097 8.99712C8.7426 8.81295 8.58279 8.53148 8.58279 8.16113C8.58313 7.16878 9.68054 5.86888 11.8525 5.86869Z" fill="#F36529"/>
</svg>
