<svg width="405" height="181" viewBox="0 0 405 181" fill="none" xmlns="http://www.w3.org/2000/svg">
<g clip-path="url(#clip0_5026_4314)">
<rect opacity="0.15" x="17" y="13" width="203" height="204" rx="101.5" fill="url(#paint0_radial_5026_4314)"/>
<rect opacity="0.15" x="188" y="13" width="203" height="204" rx="101.5" fill="url(#paint1_radial_5026_4314)"/>
<rect opacity="0.2" x="3.5" y="0.5" width="229" height="229" rx="114.5" stroke="#D252B5"/>
<rect opacity="0.2" x="175.5" y="0.5" width="229" height="229" rx="114.5" stroke="#D252B5"/>
<path d="M116.382 67L119.425 69.744C121.679 71.7786 123.94 73.8065 126.167 75.8678C140.605 89.2198 152.828 104.245 162.029 121.539C162.502 122.422 162.929 123.332 163.356 124.236L164 125.595L163.29 125.976L162.758 125.206L161.378 123.205L160.412 121.773C153.715 111.875 147.006 101.963 137.793 94.0318C135.005 91.6285 131.929 89.5955 128.638 87.9816C121.975 84.7356 116.047 86.034 110.961 91.3614C106.124 96.4278 103.614 102.719 101.346 109.117C101.051 109.94 100.742 110.757 100.433 111.573L99.8941 113.012L98.7638 112.644C99.421 110.315 100.026 107.973 100.63 105.624C102.01 100.303 103.39 94.9822 105.309 89.8556C107.346 84.3943 109.922 79.1272 112.492 73.86C113.602 71.5778 114.713 69.2956 115.778 67H116.382Z" fill="url(#paint2_linear_5026_4314)"/>
<path d="M120.943 132.736C110.258 137.889 84.4049 143.203 72.1423 141.838C70.138 131.089 89.8068 80.72 99.467 73.0904L98.8427 74.5494C98.5643 75.2362 98.2618 75.9126 97.9358 76.5772L97.5021 77.4406C92.5077 87.2253 87.5198 97.0234 84.9635 107.759C84.0429 111.456 83.5402 115.249 83.4652 119.062C83.3995 128.031 88.8802 134.134 98.0344 134.516C102.437 134.697 106.886 134.228 111.329 133.753C113.261 133.552 115.186 133.345 117.112 133.191C117.821 133.137 118.518 133.05 119.425 132.93L120.943 132.742V132.736Z" fill="url(#paint3_linear_5026_4314)"/>
<path d="M90.5625 152.539C87.6382 152.767 84.7138 152.994 81.8026 153.262C108.726 155.872 134.572 151.408 160.07 142.259C151.757 127.334 140.553 115.549 127.528 105.302C127.699 105.958 128.08 106.433 128.454 106.902L128.77 107.303C129.887 108.816 131.057 110.302 132.233 111.787C134.921 115.194 137.609 118.6 139.633 122.348C144.745 131.852 141.972 140.071 131.957 144.408C125.372 147.265 118.176 149.213 111.059 150.377C104.291 151.475 97.4232 152.004 90.5625 152.539Z" fill="url(#paint4_linear_5026_4314)"/>
<path d="M298.956 69L285.495 75.8016V144.498C280.377 143.818 275.761 142.476 271.644 140.474C267.528 138.471 264.302 136.015 261.966 133.105C259.629 130.196 258.461 127.04 258.461 123.64C258.461 120.466 259.518 117.462 261.632 114.628C263.746 111.794 266.675 109.394 270.421 107.429C274.166 105.464 278.375 104.066 283.047 103.235V94.5061C275.853 95.3374 269.364 97.1511 263.579 99.9474C257.794 102.744 253.27 106.182 250.006 110.263C246.669 114.42 245 118.879 245 123.64C245 128.552 246.817 133.162 250.451 137.47C253.937 141.626 258.758 145.084 264.914 147.842C271.07 150.601 277.93 152.32 285.495 153L298.956 146.538V69ZM301.292 94.5061V103.235C306.558 104.142 311.194 105.767 315.199 108.109L307.967 112.304L334 118.085L332.109 98.4737L325.211 102.441C318.462 98.2847 310.489 95.6397 301.292 94.5061Z" fill="url(#paint5_linear_5026_4314)"/>
<path d="M61 81.5L-10 81.5" stroke="url(#paint6_linear_5026_4314)"/>
<path d="M61 94.5L-10 94.5" stroke="url(#paint7_linear_5026_4314)"/>
<path d="M61 107.5L-10 107.5" stroke="url(#paint8_linear_5026_4314)"/>
<path d="M61 120.5L-10 120.5" stroke="url(#paint9_linear_5026_4314)"/>
<path d="M61 133.5L-10 133.5" stroke="url(#paint10_linear_5026_4314)"/>
<path d="M61 146.5L-10 146.5" stroke="url(#paint11_linear_5026_4314)"/>
<path d="M346 81.5L417 81.5" stroke="url(#paint12_linear_5026_4314)"/>
<path d="M346 94.5L417 94.5" stroke="url(#paint13_linear_5026_4314)"/>
<path d="M346 107.5L417 107.5" stroke="url(#paint14_linear_5026_4314)"/>
<path d="M346 120.5L417 120.5" stroke="url(#paint15_linear_5026_4314)"/>
<path d="M346 133.5L417 133.5" stroke="url(#paint16_linear_5026_4314)"/>
<path d="M346 146.5L417 146.5" stroke="url(#paint17_linear_5026_4314)"/>
</g>
<defs>
<radialGradient id="paint0_radial_5026_4314" cx="0" cy="0" r="1" gradientUnits="userSpaceOnUse" gradientTransform="translate(118.5 115) rotate(90) scale(102 101.5)">
<stop offset="0.480792" stop-color="#D252B5" stop-opacity="0"/>
<stop offset="1" stop-color="#D252B5"/>
</radialGradient>
<radialGradient id="paint1_radial_5026_4314" cx="0" cy="0" r="1" gradientUnits="userSpaceOnUse" gradientTransform="translate(289.5 115) rotate(90) scale(102 101.5)">
<stop offset="0.480792" stop-color="#D252B5" stop-opacity="0"/>
<stop offset="1" stop-color="#D252B5"/>
</radialGradient>
<linearGradient id="paint2_linear_5026_4314" x1="118" y1="67" x2="118" y2="154" gradientUnits="userSpaceOnUse">
<stop stop-color="#D252B5" stop-opacity="0.35"/>
<stop offset="0.605793" stop-color="#D252B5"/>
</linearGradient>
<linearGradient id="paint3_linear_5026_4314" x1="118" y1="67" x2="118" y2="154" gradientUnits="userSpaceOnUse">
<stop stop-color="#D252B5" stop-opacity="0.35"/>
<stop offset="0.605793" stop-color="#D252B5"/>
</linearGradient>
<linearGradient id="paint4_linear_5026_4314" x1="118" y1="67" x2="118" y2="154" gradientUnits="userSpaceOnUse">
<stop stop-color="#D252B5" stop-opacity="0.35"/>
<stop offset="0.605793" stop-color="#D252B5"/>
</linearGradient>
<linearGradient id="paint5_linear_5026_4314" x1="289.5" y1="69" x2="289.5" y2="153" gradientUnits="userSpaceOnUse">
<stop stop-color="#D252B5" stop-opacity="0.35"/>
<stop offset="0.605793" stop-color="#D252B5"/>
</linearGradient>
<linearGradient id="paint6_linear_5026_4314" x1="61" y1="82" x2="-10" y2="82" gradientUnits="userSpaceOnUse">
<stop stop-color="#D252B5"/>
<stop offset="1" stop-color="#D252B5" stop-opacity="0"/>
</linearGradient>
<linearGradient id="paint7_linear_5026_4314" x1="61" y1="95" x2="-10" y2="95" gradientUnits="userSpaceOnUse">
<stop stop-color="#D252B5"/>
<stop offset="1" stop-color="#D252B5" stop-opacity="0"/>
</linearGradient>
<linearGradient id="paint8_linear_5026_4314" x1="61" y1="108" x2="-10" y2="108" gradientUnits="userSpaceOnUse">
<stop stop-color="#D252B5"/>
<stop offset="1" stop-color="#D252B5" stop-opacity="0"/>
</linearGradient>
<linearGradient id="paint9_linear_5026_4314" x1="61" y1="121" x2="-10" y2="121" gradientUnits="userSpaceOnUse">
<stop stop-color="#D252B5"/>
<stop offset="1" stop-color="#D252B5" stop-opacity="0"/>
</linearGradient>
<linearGradient id="paint10_linear_5026_4314" x1="61" y1="134" x2="-10" y2="134" gradientUnits="userSpaceOnUse">
<stop stop-color="#D252B5"/>
<stop offset="1" stop-color="#D252B5" stop-opacity="0"/>
</linearGradient>
<linearGradient id="paint11_linear_5026_4314" x1="61" y1="147" x2="-10" y2="147" gradientUnits="userSpaceOnUse">
<stop stop-color="#D252B5"/>
<stop offset="1" stop-color="#D252B5" stop-opacity="0"/>
</linearGradient>
<linearGradient id="paint12_linear_5026_4314" x1="346" y1="82" x2="417" y2="82" gradientUnits="userSpaceOnUse">
<stop stop-color="#D252B5"/>
<stop offset="1" stop-color="#D252B5" stop-opacity="0"/>
</linearGradient>
<linearGradient id="paint13_linear_5026_4314" x1="346" y1="95" x2="417" y2="95" gradientUnits="userSpaceOnUse">
<stop stop-color="#D252B5"/>
<stop offset="1" stop-color="#D252B5" stop-opacity="0"/>
</linearGradient>
<linearGradient id="paint14_linear_5026_4314" x1="346" y1="108" x2="417" y2="108" gradientUnits="userSpaceOnUse">
<stop stop-color="#D252B5"/>
<stop offset="1" stop-color="#D252B5" stop-opacity="0"/>
</linearGradient>
<linearGradient id="paint15_linear_5026_4314" x1="346" y1="121" x2="417" y2="121" gradientUnits="userSpaceOnUse">
<stop stop-color="#D252B5"/>
<stop offset="1" stop-color="#D252B5" stop-opacity="0"/>
</linearGradient>
<linearGradient id="paint16_linear_5026_4314" x1="346" y1="134" x2="417" y2="134" gradientUnits="userSpaceOnUse">
<stop stop-color="#D252B5"/>
<stop offset="1" stop-color="#D252B5" stop-opacity="0"/>
</linearGradient>
<linearGradient id="paint17_linear_5026_4314" x1="346" y1="147" x2="417" y2="147" gradientUnits="userSpaceOnUse">
<stop stop-color="#D252B5"/>
<stop offset="1" stop-color="#D252B5" stop-opacity="0"/>
</linearGradient>
<clipPath id="clip0_5026_4314">
<rect width="405" height="181" fill="white"/>
</clipPath>
</defs>
</svg>
