<svg width="404" height="180" viewBox="0 0 404 180" fill="none" xmlns="http://www.w3.org/2000/svg">
<g clip-path="url(#clip0_4899_3898)">
<rect x="2" y="8" width="400" height="215" rx="32" stroke="url(#paint0_linear_4899_3898)"/>
<circle cx="146" cy="41" r="6" stroke="url(#paint1_linear_4899_3898)"/>
<circle cx="202" cy="41" r="6" stroke="#232F6F"/>
<circle cx="257" cy="41" r="6" stroke="#232F6F"/>
<path d="M157 41.5H191.5" stroke="#232F6F" stroke-linecap="round" stroke-linejoin="round" stroke-dasharray="1 3"/>
<path d="M212 41.5H246.5" stroke="#232F6F" stroke-linecap="round" stroke-linejoin="round" stroke-dasharray="1 3"/>
<rect x="62.5" y="74.5" width="87" height="87" rx="29.5" stroke="#232F6F"/>
<rect x="158.5" y="74.5" width="87" height="87" rx="29.5" stroke="#232F6F"/>
<rect x="254.5" y="74.5" width="87" height="87" rx="29.5" stroke="#232F6F"/>
<rect opacity="0.2" x="67" y="79" width="78" height="78" rx="25" fill="url(#paint2_radial_4899_3898)"/>
<rect opacity="0.2" x="163" y="79" width="78" height="78" rx="25" fill="url(#paint3_radial_4899_3898)"/>
<rect opacity="0.2" x="259" y="79" width="78" height="78" rx="25" fill="url(#paint4_radial_4899_3898)"/>
<path d="M104.738 135C104.288 135 103.846 134.884 103.453 134.664L98.3592 131.835C95.8266 130.427 93.7162 128.367 92.2465 125.87C90.7769 123.373 90.0013 120.528 90 117.63V109.776C89.9999 109.122 90.2422 108.492 90.68 108.007C91.1178 107.521 91.7201 107.216 92.3702 107.149C94.397 106.934 96.3918 106.483 98.3139 105.805C100.076 105.182 101.767 104.372 103.357 103.389C103.772 103.135 104.251 103 104.738 103C105.226 103 105.704 103.135 106.12 103.389C107.71 104.372 109.4 105.182 111.163 105.805C113.085 106.483 115.079 106.934 117.106 107.149C117.756 107.216 118.359 107.521 118.796 108.007C119.234 108.492 119.476 109.122 119.476 109.776V117.63C119.475 120.528 118.7 123.373 117.23 125.87C115.76 128.367 113.65 130.427 111.117 131.835L106.023 134.666C105.63 134.885 105.188 135 104.738 135ZM104.738 105.267C104.672 105.266 104.606 105.284 104.549 105.318C102.821 106.386 100.984 107.266 99.0697 107.944C96.981 108.681 94.8132 109.171 92.6106 109.404C92.517 109.412 92.4298 109.455 92.3663 109.524C92.3027 109.593 92.2675 109.683 92.2674 109.777V117.632C92.2682 120.125 92.9354 122.573 94.1999 124.722C95.4645 126.871 97.2804 128.643 99.4597 129.854L104.554 132.684C104.61 132.716 104.673 132.732 104.737 132.732C104.801 132.732 104.864 132.716 104.92 132.684L110.017 129.854C112.196 128.643 114.012 126.871 115.276 124.722C116.541 122.573 117.208 120.125 117.209 117.632V109.776C117.209 109.682 117.174 109.591 117.11 109.522C117.047 109.453 116.959 109.41 116.866 109.402C114.663 109.169 112.495 108.679 110.407 107.942C108.492 107.266 106.655 106.386 104.927 105.32C104.87 105.285 104.805 105.266 104.738 105.267Z" fill="#3FA1E3"/>
<path d="M103.982 122.367C103.704 122.367 103.436 122.265 103.229 122.08L99.8283 119.057C99.6174 118.853 99.4933 118.577 99.482 118.284C99.4708 117.991 99.5731 117.706 99.7677 117.487C99.9623 117.268 100.234 117.133 100.526 117.11C100.818 117.087 101.107 117.178 101.334 117.364L103.91 119.652L108.824 114.411C108.925 114.3 109.047 114.21 109.184 114.147C109.32 114.084 109.467 114.048 109.617 114.042C109.768 114.036 109.918 114.06 110.058 114.112C110.199 114.165 110.328 114.245 110.438 114.348C110.547 114.451 110.635 114.574 110.697 114.711C110.758 114.848 110.792 114.996 110.796 115.147C110.799 115.297 110.773 115.446 110.718 115.586C110.664 115.726 110.582 115.854 110.478 115.962L104.809 122.009C104.703 122.122 104.575 122.212 104.433 122.274C104.291 122.336 104.137 122.367 103.982 122.367Z" fill="#3FA1E3"/>
<path d="M199.828 106.114C203.98 101.962 210.734 101.962 214.886 106.114C218.908 110.136 219.034 116.6 215.263 120.775L214.886 121.172C212.181 123.879 208.325 124.828 204.703 123.86L202.835 125.706C202.493 126.045 202.032 126.235 201.55 126.235H200.879V126.938L200.868 127.13C200.847 127.32 200.797 127.507 200.718 127.683C200.613 127.917 200.46 128.127 200.268 128.298L200.266 128.3C199.892 128.632 199.378 128.814 198.844 128.748L198.458 128.703L198.374 129.603C198.334 130.026 198.148 130.422 197.848 130.722C197.548 131.022 197.152 131.207 196.729 131.246L195.828 131.332L195.874 131.718C195.905 131.991 195.876 132.268 195.786 132.527C195.695 132.786 195.547 133.023 195.353 133.217L194.104 134.466C193.763 134.807 193.299 135 192.815 135H187.824C186.816 135 186 134.184 186 133.176V128.185C186 127.945 186.047 127.708 186.138 127.487L186.216 127.325C186.3 127.167 186.407 127.022 186.534 126.895L197.071 116.357C196.111 112.721 197.131 108.811 199.828 106.114ZM213.555 107.445C210.138 104.028 204.576 104.028 201.159 107.445C198.826 109.778 198.015 113.219 199.026 116.341L199.203 116.889L198.795 117.295L187.882 128.208V133.118H192.79L194 131.906L193.739 129.638L196.504 129.377L196.675 127.569L196.765 126.612L197.721 126.723L198.996 126.87V124.353H201.524L204.183 121.732L204.727 121.907C207.858 122.922 211.229 122.168 213.555 119.841C216.972 116.424 216.972 110.862 213.555 107.445ZM207.316 108.61C208.716 107.211 210.99 107.211 212.39 108.61C213.789 110.01 213.789 112.284 212.39 113.684C210.99 115.084 208.716 115.084 207.316 113.684C205.916 112.284 205.916 110.01 207.316 108.61ZM211.059 109.941C210.394 109.277 209.312 109.277 208.647 109.941C207.982 110.606 207.982 111.688 208.647 112.353C209.312 113.018 210.394 113.018 211.059 112.353C211.723 111.688 211.723 110.606 211.059 109.941Z" fill="#3FA1E3"/>
<path fill-rule="evenodd" clip-rule="evenodd" d="M296.994 131.298H284.269C284.19 131.298 284.114 131.267 284.058 131.211C284.002 131.155 283.971 131.08 283.971 131.001V128.841C283.971 127.606 284.854 126.516 286.214 125.591C288.643 123.932 292.574 122.888 296.994 122.888C297.29 122.888 297.574 122.77 297.784 122.561C297.993 122.351 298.111 122.067 298.111 121.771C298.111 121.475 297.993 121.191 297.784 120.982C297.574 120.773 297.29 120.655 296.994 120.655C292.05 120.655 287.673 121.892 284.955 123.745C282.882 125.159 281.739 126.955 281.739 128.841V131.001C281.739 131.672 282.005 132.315 282.48 132.79C282.954 133.264 283.598 133.531 284.269 133.531H296.994C297.29 133.531 297.574 133.413 297.784 133.204C297.993 132.995 298.111 132.711 298.111 132.415C298.111 132.119 297.993 131.835 297.784 131.625C297.574 131.416 297.29 131.298 296.994 131.298ZM296.994 103C292.476 103 288.808 106.667 288.808 111.186C288.808 115.705 292.476 119.372 296.994 119.372C301.513 119.372 305.18 115.705 305.18 111.186C305.18 106.667 301.513 103 296.994 103ZM296.994 105.233C300.281 105.233 302.948 107.9 302.948 111.186C302.948 114.472 300.281 117.14 296.994 117.14C293.708 117.14 291.041 114.472 291.041 111.186C291.041 107.9 293.708 105.233 296.994 105.233ZM305.925 121.884C304.545 121.925 303.235 122.501 302.274 123.491C301.312 124.481 300.774 125.807 300.774 127.187C300.774 128.567 301.312 129.893 302.274 130.883C303.235 131.873 304.545 132.449 305.925 132.489C308.851 132.489 311.228 130.112 311.228 127.186C311.228 124.26 308.851 121.884 305.925 121.884ZM305.925 124.117C307.618 124.117 308.995 125.492 308.995 127.186C308.995 128.88 307.618 130.257 305.925 130.257C304.231 130.257 302.854 128.88 302.854 127.186C302.854 125.492 304.231 124.117 305.925 124.117Z" fill="#3FA1E3"/>
<path fill-rule="evenodd" clip-rule="evenodd" d="M307.041 122.998V120.487C307.041 120.191 306.923 119.907 306.714 119.698C306.505 119.489 306.221 119.371 305.925 119.371C305.629 119.371 305.345 119.489 305.135 119.698C304.926 119.907 304.808 120.191 304.808 120.487V123C304.808 123.296 304.926 123.58 305.136 123.789C305.345 123.998 305.629 124.115 305.925 124.115C306.221 124.115 306.505 123.997 306.714 123.788C306.924 123.578 307.041 123.294 307.041 122.998ZM309.674 125.015L311.449 123.238C311.659 123.029 311.776 122.745 311.776 122.449C311.776 122.153 311.659 121.869 311.449 121.66C311.24 121.451 310.956 121.333 310.661 121.333C310.365 121.333 310.081 121.451 309.872 121.66L308.095 123.436C307.886 123.646 307.769 123.929 307.769 124.225C307.769 124.521 307.886 124.805 308.095 125.015C308.304 125.224 308.588 125.341 308.884 125.341C309.18 125.341 309.464 125.224 309.674 125.015ZM310.11 128.301H312.622C312.918 128.301 313.202 128.184 313.412 127.974C313.621 127.765 313.739 127.481 313.739 127.185C313.739 126.889 313.621 126.605 313.412 126.396C313.202 126.186 312.918 126.069 312.622 126.069H310.11C309.814 126.069 309.53 126.186 309.321 126.396C309.111 126.605 308.994 126.889 308.994 127.185C308.994 127.481 309.111 127.765 309.321 127.974C309.53 128.184 309.814 128.301 310.11 128.301ZM308.095 130.934L309.872 132.71C309.975 132.813 310.098 132.896 310.234 132.952C310.369 133.008 310.514 133.037 310.661 133.037C310.807 133.037 310.952 133.008 311.087 132.952C311.223 132.896 311.346 132.813 311.449 132.71C311.553 132.606 311.635 132.483 311.691 132.348C311.747 132.213 311.776 132.068 311.776 131.921C311.776 131.775 311.747 131.629 311.691 131.494C311.635 131.359 311.553 131.236 311.449 131.132L309.674 129.355C309.464 129.146 309.18 129.029 308.884 129.029C308.588 129.029 308.304 129.146 308.095 129.355C307.886 129.565 307.769 129.849 307.769 130.145C307.769 130.441 307.886 130.725 308.095 130.934ZM304.808 131.37V133.883C304.808 134.179 304.926 134.463 305.135 134.672C305.345 134.881 305.629 134.999 305.925 134.999C306.221 134.999 306.505 134.881 306.714 134.672C306.923 134.463 307.041 134.179 307.041 133.883V131.37C307.041 131.074 306.923 130.79 306.714 130.581C306.505 130.372 306.221 130.254 305.925 130.254C305.629 130.254 305.345 130.372 305.135 130.581C304.926 130.79 304.808 131.074 304.808 131.37ZM302.175 129.355L300.4 131.132C300.296 131.236 300.214 131.359 300.158 131.494C300.102 131.629 300.073 131.775 300.073 131.921C300.073 132.068 300.102 132.213 300.158 132.348C300.214 132.483 300.296 132.606 300.4 132.71C300.503 132.813 300.626 132.896 300.762 132.952C300.897 133.008 301.042 133.037 301.189 133.037C301.335 133.037 301.48 133.008 301.615 132.952C301.751 132.896 301.874 132.813 301.977 132.71L303.755 130.934C303.963 130.725 304.08 130.441 304.08 130.145C304.08 129.849 303.963 129.565 303.755 129.355C303.545 129.146 303.261 129.029 302.965 129.029C302.669 129.029 302.385 129.146 302.175 129.355ZM301.738 126.069H299.227C298.931 126.069 298.647 126.186 298.438 126.396C298.228 126.605 298.111 126.889 298.111 127.185C298.111 127.481 298.228 127.765 298.438 127.974C298.647 128.184 298.931 128.301 299.227 128.301H301.738C302.034 128.301 302.318 128.184 302.527 127.974C302.736 127.765 302.854 127.481 302.854 127.185C302.854 126.889 302.736 126.605 302.527 126.396C302.318 126.186 302.034 126.069 301.738 126.069ZM303.755 123.436L301.977 121.66C301.874 121.557 301.751 121.474 301.615 121.418C301.48 121.362 301.335 121.333 301.189 121.333C301.042 121.333 300.897 121.362 300.762 121.418C300.626 121.474 300.503 121.557 300.4 121.66C300.296 121.764 300.214 121.887 300.158 122.022C300.102 122.157 300.073 122.303 300.073 122.449C300.073 122.596 300.102 122.741 300.158 122.876C300.214 123.011 300.296 123.134 300.4 123.238L302.175 125.015C302.385 125.224 302.669 125.341 302.965 125.341C303.261 125.341 303.545 125.224 303.755 125.015C303.963 124.805 304.08 124.521 304.08 124.225C304.08 123.929 303.963 123.646 303.755 123.436Z" fill="#3FA1E3"/>
</g>
<defs>
<linearGradient id="paint0_linear_4899_3898" x1="202" y1="8" x2="202" y2="223" gradientUnits="userSpaceOnUse">
<stop stop-color="#3FA1E3"/>
<stop offset="1" stop-color="#3FA1E3" stop-opacity="0.35"/>
</linearGradient>
<linearGradient id="paint1_linear_4899_3898" x1="146" y1="35" x2="146" y2="47" gradientUnits="userSpaceOnUse">
<stop stop-color="#3FA1E3"/>
<stop offset="1" stop-color="#3FA1E3" stop-opacity="0.35"/>
</linearGradient>
<radialGradient id="paint2_radial_4899_3898" cx="0" cy="0" r="1" gradientUnits="userSpaceOnUse" gradientTransform="translate(106 118) rotate(90) scale(39)">
<stop offset="0.480792" stop-color="#232F6F" stop-opacity="0"/>
<stop offset="1" stop-color="#232F6F"/>
</radialGradient>
<radialGradient id="paint3_radial_4899_3898" cx="0" cy="0" r="1" gradientUnits="userSpaceOnUse" gradientTransform="translate(202 118) rotate(90) scale(39)">
<stop offset="0.480792" stop-color="#232F6F" stop-opacity="0"/>
<stop offset="1" stop-color="#232F6F"/>
</radialGradient>
<radialGradient id="paint4_radial_4899_3898" cx="0" cy="0" r="1" gradientUnits="userSpaceOnUse" gradientTransform="translate(298 118) rotate(90) scale(39)">
<stop offset="0.480792" stop-color="#232F6F" stop-opacity="0"/>
<stop offset="1" stop-color="#232F6F"/>
</radialGradient>
<clipPath id="clip0_4899_3898">
<rect width="404" height="180" fill="white"/>
</clipPath>
</defs>
</svg>
