<svg width="453" height="245" viewBox="0 0 453 245" fill="none" xmlns="http://www.w3.org/2000/svg">
<path opacity="0.5" d="M230.867 54.4893C229.421 49.8519 225.949 46.0841 221.609 43.7654L133.368 1.44918C131.053 0.289837 128.449 0 126.135 0C123.82 0 121.216 0 118.902 0.579674L30.6601 43.1857C26.3204 45.2146 23.1379 48.9824 21.9806 53.9097L0.281898 149.266C-0.586052 154.193 0.571215 159.12 3.46438 163.178L64.5102 238.826C67.982 242.304 72.9004 244.622 77.8188 244.912H175.029C180.237 245.492 185.155 243.173 188.338 238.826L249.384 163.178C252.277 159.12 253.434 154.193 252.855 149.266L230.867 54.4893Z" fill="#3C474E"/>
<path opacity="0.5" d="M430.867 54.4893C429.421 49.8519 425.949 46.0841 421.609 43.7654L333.368 1.44918C331.053 0.289837 328.449 0 326.135 0C323.82 0 321.216 0 318.902 0.579674L230.66 43.1857C226.32 45.2146 223.138 48.9824 221.981 53.9097L200.282 149.266C199.414 154.193 200.571 159.12 203.464 163.178L264.51 238.826C267.982 242.304 272.9 244.622 277.819 244.912H375.029C380.237 245.492 385.155 243.173 388.338 238.826L449.384 163.178C452.277 159.12 453.434 154.193 452.855 149.266L430.867 54.4893Z" fill="#326DE6"/>
<g clip-path="url(#clip0_609_1691)">
<path fill-rule="evenodd" clip-rule="evenodd" d="M179.886 118.462C179.101 118.462 178.465 119.098 178.465 119.883V135.659C178.465 136.444 179.101 137.08 179.886 137.08H189.563C190.348 137.08 190.984 136.444 190.984 135.659V119.883C190.984 119.098 190.348 118.462 189.563 118.462H179.886ZM182.828 131.212H184.724C187.195 131.212 187.245 124.274 184.471 124.274H182.828V131.212ZM180.747 122.348H184.41C190.013 122.348 190.249 133.193 184.41 133.193H180.747V122.348Z" fill="#FFFDF6"/>
<path fill-rule="evenodd" clip-rule="evenodd" d="M166.835 117.819C166.05 117.819 165.414 118.455 165.414 119.24V136.3C165.414 137.085 166.05 137.721 166.835 137.721H176.512C177.297 137.721 177.933 137.085 177.933 136.3V119.24C177.933 118.455 177.297 117.819 176.512 117.819H166.835ZM168.737 133.193V122.348H174.61V124.205H170.56L170.593 126.833H174.61V128.602H170.627V131.353H174.61V133.193H168.737Z" fill="#FFFDF6"/>
<path fill-rule="evenodd" clip-rule="evenodd" d="M153.784 116.535C152.999 116.535 152.363 117.171 152.363 117.956V137.584C152.363 138.369 152.999 139.005 153.784 139.005H163.461C164.246 139.005 164.882 138.369 164.882 137.584V117.956C164.882 117.171 164.246 116.535 163.461 116.535H153.784ZM159.702 133.297H157.652L157.664 124.313L155.278 124.303V122.244H161.968V124.313H159.71L159.702 133.297Z" fill="#FFFDF6"/>
<path fill-rule="evenodd" clip-rule="evenodd" d="M140.733 114.609C139.949 114.609 139.312 115.245 139.312 116.03V139.511C139.312 140.295 139.949 140.931 140.733 140.931H150.411C151.195 140.931 151.831 140.295 151.831 139.511V116.03C151.831 115.245 151.195 114.609 150.411 114.609H140.733ZM145.617 124.99L144.449 129.423H146.786L145.617 124.99ZM144.357 122.244H146.804L149.96 133.297H147.783L147.31 131.457H143.935L143.344 133.297H141.184L144.357 122.244Z" fill="#FFFDF6"/>
<path fill-rule="evenodd" clip-rule="evenodd" d="M127.682 112.042C126.898 112.042 126.262 112.678 126.262 113.463V142.079C126.262 142.864 126.898 143.5 127.682 143.5H137.36C138.145 143.5 138.781 142.864 138.781 142.079V113.463C138.781 112.678 138.145 112.042 137.36 112.042H127.682ZM136.658 130.665C136.119 131.974 135.121 133.413 132.995 133.413C130.166 133.413 128.384 131.074 128.384 127.771C128.384 124.468 130.166 122.129 132.995 122.129C135.089 122.129 136.086 123.486 136.642 124.746L134.827 125.547C134.5 124.68 133.862 124.075 132.995 124.075C131.524 124.075 130.641 125.629 130.641 127.771C130.641 129.913 131.524 131.467 132.995 131.467C133.895 131.467 134.533 130.78 134.843 129.88L136.658 130.665Z" fill="#FFFDF6"/>
<path fill-rule="evenodd" clip-rule="evenodd" d="M114.632 112.042C113.847 112.042 113.211 112.678 113.211 113.463V142.079C113.211 142.864 113.847 143.5 114.632 143.5H124.309C125.094 143.5 125.73 142.864 125.73 142.079V113.463C125.73 112.678 125.094 112.042 124.309 112.042H114.632ZM120.424 133.297H118.517V122.435H120.424V133.297Z" fill="#FFFDF6"/>
<path fill-rule="evenodd" clip-rule="evenodd" d="M101.581 114.609C100.796 114.609 100.16 115.245 100.16 116.03V139.511C100.16 140.295 100.796 140.931 101.581 140.931H111.258C112.043 140.931 112.679 140.295 112.679 139.511V116.03C112.679 115.245 112.043 114.609 111.258 114.609H101.581ZM103.694 133.22V122.358H105.595V131.503H109.145V133.22H103.694Z" fill="#FFFDF6"/>
<path fill-rule="evenodd" clip-rule="evenodd" d="M75.4813 117.819C74.6967 117.819 74.0605 118.455 74.0605 119.24V136.3C74.0605 137.085 74.6967 137.721 75.4813 137.721H85.1587C85.9434 137.721 86.5795 137.085 86.5795 136.3V119.24C86.5795 118.455 85.9434 117.819 85.1587 117.819H75.4813ZM77.3834 133.193V122.348H83.2566V124.205H79.2061L79.2398 126.833H83.2566V128.602H79.2738V131.353H83.2566V133.193H77.3834Z" fill="#FFFDF6"/>
<path fill-rule="evenodd" clip-rule="evenodd" d="M62.4305 118.462C61.6459 118.462 61.0098 119.098 61.0098 119.883V135.659C61.0098 136.444 61.6459 137.08 62.4305 137.08H72.1079C72.8926 137.08 73.5287 136.444 73.5287 135.659V119.883C73.5287 119.098 72.8926 118.462 72.1079 118.462H62.4305ZM65.7285 127.364H67.4588C69.1892 127.364 69.0972 124.273 67.4588 124.273H65.7285V127.364ZM67.8699 122.321C71.5785 122.321 71.5206 128.231 68.9445 128.969L70.9519 133.221H68.4706L66.8772 129.289H65.7438V133.221H63.5866V122.321H67.8699Z" fill="#FFFDF6"/>
<path fill-rule="evenodd" clip-rule="evenodd" d="M88.5301 116.535C87.7456 116.535 87.1094 117.171 87.1094 117.956V137.584C87.1094 138.369 87.7456 139.005 88.5301 139.005H98.2075C98.9922 139.005 99.6283 138.369 99.6283 137.584V117.956C99.6283 117.171 98.9922 116.535 98.2075 116.535H88.5301ZM91.8706 129.295V133.22H89.6883V122.357H93.6946C95.9258 122.357 97.0495 123.97 97.0495 125.826C97.0495 127.683 95.9258 129.295 93.6946 129.295H91.8706ZM91.8706 127.373H93.4341C94.2646 127.373 94.8183 126.771 94.8183 125.826C94.8183 124.882 94.2646 124.279 93.4341 124.279H91.8706V127.373Z" fill="#FFFDF6"/>
</g>
<path d="M372.29 96.7974C371.655 94.7721 370.132 93.1265 368.228 92.1139L329.513 73.6329C328.498 73.1266 327.355 73 326.34 73C325.324 73 324.182 73 323.166 73.2532L284.452 91.8607C282.548 92.7468 281.151 94.3923 280.644 96.5442L271.124 138.19C270.743 140.342 271.251 142.493 272.52 144.266L299.303 177.303C300.826 178.822 302.984 179.835 305.142 179.962H347.791C350.076 180.215 352.234 179.202 353.63 177.303L380.413 144.266C381.683 142.493 382.19 140.342 381.937 138.19L372.29 96.7974Z" fill="#326DE6"/>
<path d="M366.697 136.682C366.569 136.682 366.441 136.682 366.441 136.554C366.441 136.425 366.185 136.425 365.929 136.425C365.418 136.297 364.906 136.297 364.394 136.297C364.138 136.297 363.882 136.297 363.626 136.169H363.498C362.091 136.041 360.556 135.784 359.148 135.399C358.764 135.271 358.38 134.886 358.252 134.502C358.38 134.502 358.252 134.502 358.252 134.502L357.229 134.245C357.741 130.526 357.485 126.679 356.717 122.96C355.822 119.24 354.286 115.649 352.239 112.443L353.007 111.674V111.546C353.007 111.161 353.135 110.648 353.391 110.391C354.542 109.365 355.694 108.596 356.973 107.826C357.229 107.698 357.485 107.57 357.741 107.442C358.252 107.185 358.636 106.929 359.148 106.672C359.276 106.544 359.404 106.544 359.532 106.416C359.66 106.288 359.532 106.288 359.532 106.159C360.683 105.262 360.939 103.723 360.044 102.568C359.66 102.055 358.892 101.671 358.252 101.671C357.613 101.671 356.973 101.927 356.461 102.312L356.333 102.44C356.205 102.568 356.077 102.697 355.949 102.697C355.566 103.081 355.182 103.466 354.926 103.851C354.798 104.107 354.542 104.236 354.414 104.364C353.518 105.39 352.367 106.416 351.215 107.185C350.96 107.313 350.704 107.442 350.448 107.442C350.32 107.442 350.064 107.442 349.936 107.313H349.808L348.784 107.955C347.761 106.929 346.609 105.903 345.586 104.877C340.852 101.158 334.966 98.8492 328.953 98.208L328.825 97.182V97.3103C328.441 97.0538 328.313 96.669 328.185 96.2843C328.185 94.8736 328.185 93.4629 328.441 91.9239V91.7957C328.441 91.5392 328.569 91.2827 328.569 91.0262C328.697 90.5132 328.697 90.0002 328.825 89.4872V88.7177C328.953 87.4353 327.929 86.1528 326.65 86.0246C325.882 85.8963 325.114 86.2811 324.475 86.9223C323.963 87.4353 323.707 88.0765 323.707 88.7177V89.359C323.707 89.872 323.835 90.385 323.963 90.8979C324.091 91.1544 324.091 91.4109 324.091 91.6674V91.7957C324.347 93.2064 324.347 94.6171 324.347 96.156C324.219 96.5408 324.091 96.9255 323.707 97.182V97.4385L323.579 98.4645C322.172 98.5927 320.764 98.8492 319.229 99.1057C313.215 100.388 307.714 103.594 303.491 108.083L302.724 107.57H302.596C302.468 107.57 302.34 107.698 302.084 107.698C301.828 107.698 301.572 107.57 301.316 107.442C300.165 106.544 299.013 105.518 298.118 104.492C297.99 104.236 297.734 104.107 297.606 103.979C297.222 103.594 296.966 103.21 296.582 102.825C296.454 102.697 296.326 102.697 296.198 102.568C296.071 102.44 296.071 102.44 296.071 102.44C295.559 102.055 294.919 101.799 294.279 101.799C293.512 101.799 292.872 102.055 292.488 102.697C291.72 103.851 291.976 105.39 293 106.288C293.128 106.288 293.128 106.416 293.128 106.416C293.128 106.416 293.384 106.672 293.512 106.672C293.895 106.929 294.407 107.185 294.919 107.442C295.175 107.57 295.431 107.698 295.687 107.826C296.966 108.596 298.246 109.365 299.269 110.391C299.525 110.648 299.781 111.161 299.653 111.546V111.417L300.421 112.187C300.293 112.443 300.165 112.572 300.037 112.828C296.071 119.112 294.407 126.55 295.559 133.86L294.535 134.117C294.535 134.245 294.407 134.245 294.407 134.245C294.279 134.63 293.895 134.886 293.512 135.143C292.104 135.528 290.697 135.784 289.161 135.912C288.906 135.912 288.65 135.912 288.394 136.041C287.882 136.041 287.37 136.169 286.858 136.169C286.73 136.169 286.602 136.297 286.347 136.297C286.219 136.297 286.219 136.297 286.091 136.425C284.683 136.682 283.788 137.964 284.044 139.375C284.299 140.529 285.451 141.299 286.602 141.171C286.858 141.171 286.986 141.171 287.242 141.042C287.37 141.042 287.37 141.042 287.37 140.914C287.37 140.786 287.754 140.914 287.882 140.914C288.394 140.786 288.906 140.529 289.289 140.401C289.545 140.273 289.801 140.145 290.057 140.145H290.185C291.592 139.632 292.872 139.247 294.407 138.99H294.535C294.919 138.99 295.303 139.119 295.559 139.375C295.687 139.375 295.687 139.503 295.687 139.503L296.838 139.375C298.757 145.274 302.34 150.533 307.33 154.38C308.481 155.278 309.505 156.047 310.784 156.688L310.145 157.586C310.145 157.714 310.273 157.714 310.273 157.714C310.528 158.099 310.528 158.612 310.401 158.997C309.889 160.279 309.121 161.562 308.353 162.716V162.844C308.225 163.101 308.097 163.229 307.842 163.485C307.586 163.742 307.33 164.255 306.946 164.768C306.818 164.896 306.818 165.024 306.69 165.153C306.69 165.153 306.69 165.281 306.562 165.281C305.922 166.563 306.434 168.102 307.586 168.743C307.842 168.872 308.225 169 308.481 169C309.505 169 310.401 168.359 310.912 167.461C310.912 167.461 310.912 167.333 311.04 167.333C311.04 167.205 311.168 167.076 311.296 166.948C311.424 166.435 311.68 166.05 311.808 165.537L312.064 164.768C312.448 163.357 313.087 162.075 313.727 160.792C313.983 160.407 314.367 160.151 314.751 160.023C314.879 160.023 314.879 160.023 314.879 159.895L315.39 158.869C318.973 160.279 322.683 160.92 326.522 160.92C328.825 160.92 331.128 160.664 333.431 160.023C334.838 159.766 336.246 159.253 337.525 158.869L338.037 159.766C338.165 159.766 338.165 159.766 338.165 159.895C338.549 160.023 338.933 160.279 339.188 160.664C339.828 161.946 340.468 163.229 340.852 164.64V164.768L341.108 165.537C341.236 166.05 341.364 166.563 341.619 166.948C341.747 167.076 341.747 167.205 341.875 167.333C341.875 167.333 341.875 167.461 342.003 167.461C342.515 168.359 343.411 169 344.434 169C344.818 169 345.074 168.872 345.458 168.743C345.97 168.487 346.481 167.974 346.609 167.333C346.737 166.692 346.737 166.05 346.481 165.409C346.481 165.281 346.353 165.281 346.353 165.281C346.353 165.153 346.226 165.024 346.098 164.896C345.842 164.383 345.586 163.998 345.202 163.614C345.074 163.357 344.946 163.229 344.69 162.972V162.716C343.795 161.562 343.155 160.279 342.643 158.997C342.515 158.612 342.515 158.099 342.771 157.714C342.771 157.586 342.899 157.586 342.899 157.586L342.515 156.56C349.04 152.584 354.03 146.429 356.333 139.119L357.357 139.247C357.485 139.247 357.485 139.119 357.485 139.119C357.741 138.862 358.125 138.734 358.508 138.734H358.636C360.044 138.99 361.451 139.375 362.731 139.888H362.859C363.114 140.016 363.37 140.145 363.626 140.145C364.138 140.401 364.522 140.658 365.034 140.786C365.162 140.786 365.29 140.914 365.545 140.914C365.673 140.914 365.673 140.914 365.801 141.042C366.057 141.171 366.185 141.171 366.441 141.171C367.593 141.171 368.616 140.401 369 139.375C368.872 137.964 367.848 136.938 366.697 136.682ZM329.72 132.706L326.266 134.373L322.811 132.706L321.916 128.987L324.347 125.909H328.185L330.616 128.987L329.72 132.706ZM350.576 124.37C351.215 127.063 351.343 129.757 351.087 132.45L338.933 128.987C337.781 128.731 337.141 127.576 337.397 126.422C337.525 126.037 337.653 125.781 337.909 125.524L347.505 116.804C348.912 119.112 349.936 121.677 350.576 124.37ZM343.667 112.059L333.175 119.497C332.279 120.01 331 119.882 330.36 118.984C330.104 118.727 329.976 118.471 329.976 118.086L329.209 105.133C334.838 105.775 339.828 108.211 343.667 112.059ZM320.508 105.518L323.067 105.005L322.427 117.83C322.427 118.984 321.404 119.882 320.252 119.882C319.869 119.882 319.613 119.753 319.229 119.625L308.609 112.059C311.936 108.852 316.03 106.544 320.508 105.518ZM304.899 116.804L314.367 125.268C315.262 126.037 315.39 127.32 314.623 128.218C314.367 128.602 314.111 128.731 313.599 128.859L301.188 132.45C300.805 127.063 302.084 121.549 304.899 116.804ZM302.724 138.477L315.39 136.297C316.414 136.297 317.438 136.938 317.566 137.964C317.693 138.349 317.693 138.862 317.438 139.247L312.576 151.046C308.097 148.096 304.515 143.607 302.724 138.477ZM331.768 154.38C329.976 154.765 328.185 155.021 326.266 155.021C323.579 155.021 320.764 154.508 318.205 153.739L324.475 142.325C325.114 141.555 326.138 141.299 327.034 141.812C327.417 142.068 327.673 142.325 328.057 142.709L334.199 153.867C333.431 153.995 332.663 154.123 331.768 154.38ZM347.377 143.222C345.458 146.3 342.771 148.994 339.7 150.917L334.71 138.862C334.454 137.836 334.966 136.81 335.862 136.425C336.246 136.297 336.63 136.169 337.013 136.169L349.808 138.349C349.168 140.145 348.401 141.812 347.377 143.222Z" fill="white"/>
<defs>
<clipPath id="clip0_609_1691">
<rect width="130" height="31.541" fill="white" transform="translate(61 112)"/>
</clipPath>
</defs>
</svg>
