<svg width="300" height="254" viewBox="0 0 300 254" fill="none" xmlns="http://www.w3.org/2000/svg">
<path d="M165.475 32.3621C165.289 32.1724 165.068 32.0215 164.823 31.9183C164.579 31.815 164.316 31.7615 164.051 31.7607C163.785 31.76 163.522 31.8121 163.277 31.9141C163.032 32.016 162.81 32.1656 162.623 32.3544C162.436 32.5431 162.289 32.767 162.19 33.0132C162.091 33.2594 162.042 33.5229 162.045 33.7883C162.049 34.0536 162.105 34.3157 162.211 34.559C162.317 34.8024 162.471 35.0222 162.662 35.2057C164.359 36.8754 165.705 38.8672 166.622 41.0642C167.539 43.2612 168.007 45.6192 168 47.9997C168 50.4459 160.988 53.9997 150 53.9997C139.012 53.9997 132 50.4441 132 47.9957C131.993 45.6315 132.456 43.2895 133.36 41.1052C134.265 38.9208 135.594 36.9376 137.27 35.2703C137.459 35.0855 137.61 34.8648 137.714 34.6212C137.818 34.3775 137.872 34.1157 137.873 33.851C137.875 33.5862 137.824 33.3237 137.724 33.0788C137.623 32.8338 137.475 32.6113 137.288 32.4241C137.101 32.2369 136.878 32.0887 136.633 31.9881C136.388 31.8876 136.126 31.8367 135.861 31.8383C135.596 31.84 135.334 31.8942 135.091 31.9979C134.847 32.1015 134.626 32.2525 134.441 32.4421C132.392 34.4805 130.768 36.9051 129.662 39.5756C128.557 42.2461 127.992 45.1094 128 47.9997C128 54.4949 139.334 57.9997 150 57.9997C160.666 57.9997 172 54.4949 172 47.9997C172.009 45.0899 171.436 42.2077 170.316 39.5223C169.195 36.8369 167.549 34.4025 165.475 32.3621Z" fill="#3C474E"/>
<path d="M150 34C152.769 34 155.476 33.1789 157.778 31.6406C160.08 30.1022 161.875 27.9157 162.934 25.3576C163.994 22.7994 164.271 19.9845 163.731 17.2687C163.191 14.553 161.857 12.0584 159.899 10.1005C157.942 8.14258 155.447 6.80921 152.731 6.26901C150.016 5.72882 147.201 6.00607 144.642 7.06569C142.084 8.12532 139.898 9.91973 138.359 12.222C136.821 14.5243 136 17.2311 136 20C136.004 23.7117 137.481 27.2702 140.105 29.8948C142.73 32.5193 146.288 33.9957 150 34ZM150 10C151.978 10 153.911 10.5865 155.556 11.6853C157.2 12.7841 158.482 14.3459 159.239 16.1732C159.996 18.0004 160.194 20.0111 159.808 21.9509C159.422 23.8907 158.47 25.6725 157.071 27.0711C155.673 28.4696 153.891 29.422 151.951 29.8079C150.011 30.1937 148 29.9957 146.173 29.2388C144.346 28.4819 142.784 27.2002 141.685 25.5557C140.586 23.9112 140 21.9778 140 20C140.003 17.3488 141.058 14.8071 142.932 12.9324C144.807 11.0577 147.349 10.0031 150 10Z" fill="#3C474E"/>
<path d="M99.3763 240.818C99.3124 240.278 99.0531 239.859 98.5986 239.561C98.144 239.263 97.5865 239.114 96.926 239.114C96.443 239.114 96.0205 239.192 95.6582 239.348C95.2996 239.504 95.019 239.719 94.8166 239.993C94.6178 240.266 94.5183 240.577 94.5183 240.925C94.5183 241.216 94.5876 241.466 94.7261 241.676C94.8681 241.882 95.0492 242.054 95.2694 242.192C95.4896 242.327 95.7204 242.439 95.9619 242.528C96.2033 242.613 96.4253 242.683 96.6277 242.736L97.7357 243.034C98.0198 243.109 98.3358 243.212 98.6838 243.343C99.0354 243.474 99.371 243.654 99.6906 243.881C100.014 244.105 100.28 244.392 100.49 244.744C100.699 245.096 100.804 245.527 100.804 246.038C100.804 246.628 100.649 247.161 100.34 247.636C100.035 248.112 99.5876 248.49 98.9981 248.771C98.4122 249.051 97.7002 249.192 96.8621 249.192C96.0808 249.192 95.4043 249.066 94.8326 248.814C94.2644 248.561 93.817 248.21 93.4903 247.759C93.1671 247.308 92.9842 246.784 92.9416 246.188H94.3053C94.3408 246.599 94.4793 246.94 94.7207 247.21C94.9658 247.477 95.2747 247.675 95.6476 247.807C96.024 247.935 96.4288 247.999 96.8621 247.999C97.3663 247.999 97.8191 247.917 98.2204 247.754C98.6217 247.587 98.9395 247.356 99.1739 247.061C99.4082 246.763 99.5254 246.415 99.5254 246.017C99.5254 245.655 99.4242 245.36 99.2218 245.133C99.0194 244.906 98.7531 244.721 98.4228 244.579C98.0926 244.437 97.7357 244.312 97.3521 244.206L96.0098 243.822C95.1575 243.577 94.4828 243.228 93.9857 242.773C93.4885 242.319 93.2399 241.724 93.2399 240.989C93.2399 240.378 93.4051 239.845 93.7353 239.391C94.0691 238.933 94.5166 238.577 95.0776 238.325C95.6423 238.07 96.2726 237.942 96.9686 237.942C97.6717 237.942 98.2967 238.068 98.8436 238.32C99.3905 238.569 99.8237 238.909 100.143 239.343C100.466 239.776 100.637 240.268 100.655 240.818H99.3763ZM102.805 249V240.818H104.062V249H102.805ZM103.445 239.455C103.2 239.455 102.988 239.371 102.811 239.204C102.637 239.037 102.55 238.837 102.55 238.602C102.55 238.368 102.637 238.167 102.811 238C102.988 237.833 103.2 237.75 103.445 237.75C103.69 237.75 103.899 237.833 104.073 238C104.251 238.167 104.339 238.368 104.339 238.602C104.339 238.837 104.251 239.037 104.073 239.204C103.899 239.371 103.69 239.455 103.445 239.455ZM109.667 252.239C109.06 252.239 108.538 252.161 108.101 252.004C107.665 251.852 107.301 251.649 107.009 251.397C106.722 251.148 106.493 250.882 106.322 250.598L107.324 249.895C107.437 250.044 107.581 250.214 107.755 250.406C107.929 250.602 108.167 250.77 108.469 250.912C108.774 251.058 109.174 251.131 109.667 251.131C110.328 251.131 110.873 250.971 111.303 250.651C111.732 250.332 111.947 249.831 111.947 249.149V247.487H111.841C111.748 247.636 111.617 247.821 111.447 248.041C111.28 248.258 111.038 248.451 110.722 248.622C110.41 248.789 109.987 248.872 109.454 248.872C108.794 248.872 108.201 248.716 107.675 248.403C107.153 248.091 106.74 247.636 106.434 247.04C106.132 246.443 105.981 245.719 105.981 244.866C105.981 244.028 106.129 243.299 106.424 242.677C106.718 242.052 107.128 241.569 107.654 241.228C108.18 240.884 108.787 240.712 109.476 240.712C110.008 240.712 110.431 240.8 110.743 240.978C111.06 241.152 111.301 241.351 111.468 241.575C111.638 241.795 111.77 241.976 111.862 242.118H111.99V240.818H113.204V249.234C113.204 249.938 113.045 250.509 112.725 250.95C112.409 251.393 111.983 251.718 111.447 251.924C110.914 252.134 110.321 252.239 109.667 252.239ZM109.625 247.743C110.129 247.743 110.555 247.627 110.903 247.397C111.251 247.166 111.516 246.834 111.697 246.401C111.878 245.967 111.969 245.449 111.969 244.845C111.969 244.256 111.88 243.735 111.702 243.284C111.525 242.833 111.262 242.48 110.914 242.224C110.566 241.969 110.136 241.841 109.625 241.841C109.092 241.841 108.648 241.976 108.293 242.246C107.942 242.516 107.677 242.878 107.5 243.332C107.326 243.787 107.239 244.291 107.239 244.845C107.239 245.413 107.327 245.916 107.505 246.353C107.686 246.786 107.952 247.127 108.304 247.375C108.659 247.62 109.099 247.743 109.625 247.743ZM116.763 244.078V249H115.506V240.818H116.72V242.097H116.827C117.018 241.681 117.31 241.347 117.7 241.095C118.091 240.839 118.595 240.712 119.213 240.712C119.767 240.712 120.252 240.825 120.667 241.053C121.083 241.276 121.406 241.617 121.637 242.075C121.867 242.53 121.983 243.105 121.983 243.801V249H120.726V243.886C120.726 243.244 120.559 242.743 120.225 242.384C119.891 242.022 119.433 241.841 118.851 241.841C118.449 241.841 118.091 241.928 117.775 242.102C117.462 242.276 117.215 242.53 117.034 242.864C116.853 243.197 116.763 243.602 116.763 244.078ZM128.499 249V240.818H129.756V249H128.499ZM129.138 239.455C128.893 239.455 128.682 239.371 128.504 239.204C128.33 239.037 128.243 238.837 128.243 238.602C128.243 238.368 128.33 238.167 128.504 238C128.682 237.833 128.893 237.75 129.138 237.75C129.383 237.75 129.592 237.833 129.766 238C129.944 238.167 130.033 238.368 130.033 238.602C130.033 238.837 129.944 239.037 129.766 239.204C129.592 239.371 129.383 239.455 129.138 239.455ZM133.315 244.078V249H132.058V240.818H133.273V242.097H133.379C133.571 241.681 133.862 241.347 134.253 241.095C134.644 240.839 135.148 240.712 135.766 240.712C136.32 240.712 136.804 240.825 137.22 241.053C137.635 241.276 137.958 241.617 138.189 242.075C138.42 242.53 138.536 243.105 138.536 243.801V249H137.278V243.886C137.278 243.244 137.112 242.743 136.778 242.384C136.444 242.022 135.986 241.841 135.403 241.841C135.002 241.841 134.644 241.928 134.327 242.102C134.015 242.276 133.768 242.53 133.587 242.864C133.406 243.197 133.315 243.602 133.315 244.078ZM146.905 249L144.412 240.818H145.733L147.502 247.082H147.587L149.334 240.818H150.676L152.402 247.061H152.488L154.256 240.818H155.577L153.084 249H151.848L150.059 242.714H149.931L148.141 249H146.905ZM157.239 249V240.818H158.496V249H157.239ZM157.878 239.455C157.633 239.455 157.422 239.371 157.244 239.204C157.07 239.037 156.983 238.837 156.983 238.602C156.983 238.368 157.07 238.167 157.244 238C157.422 237.833 157.633 237.75 157.878 237.75C158.123 237.75 158.333 237.833 158.507 238C158.684 238.167 158.773 238.368 158.773 238.602C158.773 238.837 158.684 239.037 158.507 239.204C158.333 239.371 158.123 239.455 157.878 239.455ZM164.357 240.818V241.884H160.117V240.818H164.357ZM161.352 238.858H162.61V246.656C162.61 247.011 162.661 247.278 162.764 247.455C162.871 247.629 163.006 247.746 163.169 247.807C163.336 247.864 163.512 247.892 163.696 247.892C163.835 247.892 163.948 247.885 164.037 247.871C164.126 247.853 164.197 247.839 164.25 247.828L164.506 248.957C164.421 248.989 164.302 249.021 164.149 249.053C163.996 249.089 163.803 249.107 163.568 249.107C163.213 249.107 162.865 249.03 162.524 248.877C162.187 248.725 161.906 248.492 161.683 248.18C161.463 247.867 161.352 247.473 161.352 246.997V238.858ZM167.681 244.078V249H166.424V238.091H167.681V242.097H167.787C167.979 241.674 168.267 241.338 168.65 241.09C169.037 240.838 169.552 240.712 170.195 240.712C170.752 240.712 171.241 240.824 171.66 241.047C172.079 241.267 172.404 241.607 172.634 242.065C172.869 242.519 172.986 243.098 172.986 243.801V249H171.729V243.886C171.729 243.237 171.56 242.734 171.223 242.379C170.889 242.02 170.426 241.841 169.833 241.841C169.421 241.841 169.051 241.928 168.725 242.102C168.402 242.276 168.146 242.53 167.958 242.864C167.773 243.197 167.681 243.602 167.681 244.078ZM185.641 240.818C185.577 240.278 185.318 239.859 184.863 239.561C184.409 239.263 183.851 239.114 183.191 239.114C182.708 239.114 182.285 239.192 181.923 239.348C181.564 239.504 181.284 239.719 181.081 239.993C180.882 240.266 180.783 240.577 180.783 240.925C180.783 241.216 180.852 241.466 180.991 241.676C181.133 241.882 181.314 242.054 181.534 242.192C181.754 242.327 181.985 242.439 182.227 242.528C182.468 242.613 182.69 242.683 182.892 242.736L184 243.034C184.284 243.109 184.6 243.212 184.948 243.343C185.3 243.474 185.636 243.654 185.955 243.881C186.278 244.105 186.545 244.392 186.754 244.744C186.964 245.096 187.068 245.527 187.068 246.038C187.068 246.628 186.914 247.161 186.605 247.636C186.3 248.112 185.852 248.49 185.263 248.771C184.677 249.051 183.965 249.192 183.127 249.192C182.345 249.192 181.669 249.066 181.097 248.814C180.529 248.561 180.082 248.21 179.755 247.759C179.432 247.308 179.249 246.784 179.206 246.188H180.57C180.605 246.599 180.744 246.94 180.985 247.21C181.23 247.477 181.539 247.675 181.912 247.807C182.289 247.935 182.693 247.999 183.127 247.999C183.631 247.999 184.084 247.917 184.485 247.754C184.886 247.587 185.204 247.356 185.439 247.061C185.673 246.763 185.79 246.415 185.79 246.017C185.79 245.655 185.689 245.36 185.486 245.133C185.284 244.906 185.018 244.721 184.687 244.579C184.357 244.437 184 244.312 183.617 244.206L182.274 243.822C181.422 243.577 180.747 243.228 180.25 242.773C179.753 242.319 179.505 241.724 179.505 240.989C179.505 240.378 179.67 239.845 180 239.391C180.334 238.933 180.781 238.577 181.342 238.325C181.907 238.07 182.537 237.942 183.233 237.942C183.936 237.942 184.561 238.068 185.108 238.32C185.655 238.569 186.088 238.909 186.408 239.343C186.731 239.776 186.902 240.268 186.919 240.818H185.641ZM195.206 240.818C195.142 240.278 194.883 239.859 194.429 239.561C193.974 239.263 193.417 239.114 192.756 239.114C192.273 239.114 191.851 239.192 191.488 239.348C191.13 239.504 190.849 239.719 190.647 239.993C190.448 240.266 190.348 240.577 190.348 240.925C190.348 241.216 190.418 241.466 190.556 241.676C190.698 241.882 190.879 242.054 191.099 242.192C191.32 242.327 191.55 242.439 191.792 242.528C192.033 242.613 192.255 242.683 192.458 242.736L193.566 243.034C193.85 243.109 194.166 243.212 194.514 243.343C194.865 243.474 195.201 243.654 195.521 243.881C195.844 244.105 196.11 244.392 196.32 244.744C196.529 245.096 196.634 245.527 196.634 246.038C196.634 246.628 196.479 247.161 196.17 247.636C195.865 248.112 195.418 248.49 194.828 248.771C194.242 249.051 193.53 249.192 192.692 249.192C191.911 249.192 191.234 249.066 190.663 248.814C190.095 248.561 189.647 248.21 189.32 247.759C188.997 247.308 188.814 246.784 188.772 246.188H190.135C190.171 246.599 190.309 246.94 190.551 247.21C190.796 247.477 191.105 247.675 191.478 247.807C191.854 247.935 192.259 247.999 192.692 247.999C193.196 247.999 193.649 247.917 194.05 247.754C194.452 247.587 194.77 247.356 195.004 247.061C195.238 246.763 195.356 246.415 195.356 246.017C195.356 245.655 195.254 245.36 195.052 245.133C194.849 244.906 194.583 244.721 194.253 244.579C193.923 244.437 193.566 244.312 193.182 244.206L191.84 243.822C190.988 243.577 190.313 243.228 189.816 242.773C189.319 242.319 189.07 241.724 189.07 240.989C189.07 240.378 189.235 239.845 189.565 239.391C189.899 238.933 190.347 238.577 190.908 238.325C191.472 238.07 192.103 237.942 192.799 237.942C193.502 237.942 194.127 238.068 194.674 238.32C195.221 238.569 195.654 238.909 195.973 239.343C196.297 239.776 196.467 240.268 196.485 240.818H195.206ZM208.01 243.545C208.01 244.696 207.803 245.69 207.387 246.528C206.972 247.366 206.402 248.013 205.677 248.467C204.953 248.922 204.125 249.149 203.195 249.149C202.265 249.149 201.437 248.922 200.713 248.467C199.988 248.013 199.418 247.366 199.003 246.528C198.587 245.69 198.38 244.696 198.38 243.545C198.38 242.395 198.587 241.401 199.003 240.562C199.418 239.724 199.988 239.078 200.713 238.624C201.437 238.169 202.265 237.942 203.195 237.942C204.125 237.942 204.953 238.169 205.677 238.624C206.402 239.078 206.972 239.724 207.387 240.562C207.803 241.401 208.01 242.395 208.01 243.545ZM206.732 243.545C206.732 242.601 206.574 241.804 206.258 241.154C205.945 240.504 205.521 240.012 204.985 239.678C204.452 239.344 203.856 239.178 203.195 239.178C202.535 239.178 201.936 239.344 201.4 239.678C200.867 240.012 200.443 240.504 200.127 241.154C199.814 241.804 199.658 242.601 199.658 243.545C199.658 244.49 199.814 245.287 200.127 245.937C200.443 246.587 200.867 247.079 201.4 247.413C201.936 247.746 202.535 247.913 203.195 247.913C203.856 247.913 204.452 247.746 204.985 247.413C205.521 247.079 205.945 246.587 206.258 245.937C206.574 245.287 206.732 244.49 206.732 243.545Z" fill="#3C474E"/>
<rect y="102" width="300" height="49" rx="6" fill="#4285F4"/>
<path d="M87.1682 124.09C87.1185 123.625 86.909 123.262 86.5396 123.003C86.1739 122.744 85.698 122.614 85.1121 122.614C84.7002 122.614 84.3468 122.676 84.0521 122.801C83.7573 122.925 83.5318 123.094 83.3756 123.307C83.2193 123.52 83.1394 123.763 83.1359 124.037C83.1359 124.264 83.1874 124.461 83.2903 124.628C83.3969 124.795 83.5407 124.937 83.7218 125.054C83.9029 125.168 84.1036 125.263 84.3237 125.342C84.5439 125.42 84.7658 125.485 84.9896 125.539L86.0123 125.794C86.4242 125.89 86.8202 126.02 87.2002 126.183C87.5837 126.347 87.9264 126.553 88.2282 126.801C88.5336 127.05 88.7751 127.35 88.9526 127.701C89.1302 128.053 89.219 128.465 89.219 128.937C89.219 129.576 89.0556 130.139 88.7289 130.626C88.4022 131.109 87.9299 131.487 87.312 131.76C86.6977 132.03 85.9537 132.165 85.0801 132.165C84.2314 132.165 83.4945 132.034 82.8695 131.771C82.2481 131.508 81.7616 131.125 81.41 130.62C81.062 130.116 80.8738 129.502 80.8454 128.777H82.7896C82.818 129.157 82.9352 129.473 83.1412 129.725C83.3472 129.978 83.6153 130.166 83.9455 130.29C84.2793 130.414 84.6522 130.477 85.0641 130.477C85.4938 130.477 85.8703 130.413 86.1934 130.285C86.5201 130.153 86.7758 129.972 86.9604 129.741C87.1451 129.507 87.2392 129.234 87.2428 128.921C87.2392 128.637 87.1558 128.403 86.9924 128.218C86.8291 128.03 86.6 127.874 86.3053 127.749C86.0141 127.621 85.6732 127.508 85.2825 127.408L84.0414 127.089C83.143 126.858 82.4328 126.508 81.9107 126.039C81.3923 125.567 81.133 124.94 81.133 124.159C81.133 123.516 81.307 122.953 81.6551 122.471C82.0066 121.988 82.4842 121.613 83.0879 121.347C83.6916 121.077 84.3752 120.942 85.1387 120.942C85.9129 120.942 86.5911 121.077 87.1735 121.347C87.7595 121.613 88.2193 121.984 88.5531 122.46C88.8869 122.932 89.0592 123.475 89.0698 124.09H87.1682ZM90.8956 132V123.818H92.8238V132H90.8956ZM91.865 122.657C91.5596 122.657 91.2968 122.556 91.0767 122.353C90.8565 122.147 90.7464 121.901 90.7464 121.613C90.7464 121.322 90.8565 121.075 91.0767 120.873C91.2968 120.667 91.5596 120.564 91.865 120.564C92.174 120.564 92.4367 120.667 92.6534 120.873C92.8735 121.075 92.9836 121.322 92.9836 121.613C92.9836 121.901 92.8735 122.147 92.6534 122.353C92.4367 122.556 92.174 122.657 91.865 122.657ZM98.3649 135.239C97.6725 135.239 97.0776 135.145 96.5805 134.956C96.0833 134.772 95.6838 134.523 95.382 134.211C95.0801 133.898 94.8706 133.552 94.7534 133.172L96.4899 132.751C96.568 132.911 96.6817 133.069 96.8308 133.225C96.98 133.385 97.1806 133.516 97.4328 133.619C97.6884 133.726 98.0098 133.779 98.3969 133.779C98.9438 133.779 99.3965 133.646 99.7552 133.38C100.114 133.117 100.293 132.684 100.293 132.08V130.53H100.197C100.098 130.729 99.9523 130.933 99.7605 131.142C99.5723 131.352 99.322 131.528 99.0095 131.67C98.7005 131.812 98.3117 131.883 97.8429 131.883C97.2144 131.883 96.6444 131.735 96.133 131.441C95.6252 131.142 95.2204 130.699 94.9185 130.109C94.6203 129.516 94.4711 128.774 94.4711 127.882C94.4711 126.984 94.6203 126.226 94.9185 125.608C95.2204 124.987 95.627 124.516 96.1384 124.196C96.6497 123.873 97.2197 123.712 97.8482 123.712C98.3276 123.712 98.7218 123.793 99.0308 123.957C99.3433 124.116 99.5918 124.31 99.7765 124.537C99.9612 124.761 100.101 124.972 100.197 125.171H100.304V123.818H102.205V132.133C102.205 132.833 102.039 133.412 101.705 133.87C101.371 134.328 100.915 134.67 100.336 134.898C99.757 135.125 99.1 135.239 98.3649 135.239ZM98.3809 130.37C98.7893 130.37 99.1373 130.271 99.4249 130.072C99.7126 129.873 99.931 129.587 100.08 129.214C100.229 128.841 100.304 128.394 100.304 127.872C100.304 127.357 100.229 126.906 100.08 126.519C99.9345 126.132 99.7179 125.832 99.4303 125.619C99.1462 125.402 98.7964 125.294 98.3809 125.294C97.9512 125.294 97.5926 125.406 97.3049 125.629C97.0173 125.853 96.8006 126.16 96.6551 126.551C96.5095 126.938 96.4367 127.378 96.4367 127.872C96.4367 128.373 96.5095 128.811 96.6551 129.188C96.8042 129.56 97.0226 129.852 97.3102 130.061C97.6014 130.267 97.9583 130.37 98.3809 130.37ZM106.11 127.206V132H104.182V123.818H106.025V125.208H106.121C106.309 124.75 106.609 124.386 107.021 124.116C107.436 123.847 107.949 123.712 108.56 123.712C109.125 123.712 109.617 123.832 110.036 124.074C110.458 124.315 110.785 124.665 111.016 125.123C111.25 125.581 111.366 126.137 111.362 126.79V132H109.434V127.089C109.434 126.542 109.292 126.114 109.008 125.805C108.727 125.496 108.338 125.342 107.841 125.342C107.504 125.342 107.204 125.416 106.941 125.565C106.682 125.711 106.477 125.922 106.328 126.199C106.183 126.476 106.11 126.812 106.11 127.206ZM117.043 132V123.818H118.971V132H117.043ZM118.012 122.657C117.707 122.657 117.444 122.556 117.224 122.353C117.004 122.147 116.894 121.901 116.894 121.613C116.894 121.322 117.004 121.075 117.224 120.873C117.444 120.667 117.707 120.564 118.012 120.564C118.321 120.564 118.584 120.667 118.801 120.873C119.021 121.075 119.131 121.322 119.131 121.613C119.131 121.901 119.021 122.147 118.801 122.353C118.584 122.556 118.321 122.657 118.012 122.657ZM122.882 127.206V132H120.954V123.818H122.797V125.208H122.893C123.081 124.75 123.381 124.386 123.793 124.116C124.209 123.847 124.722 123.712 125.333 123.712C125.897 123.712 126.389 123.832 126.808 124.074C127.231 124.315 127.557 124.665 127.788 125.123C128.023 125.581 128.138 126.137 128.135 126.79V132H126.206V127.089C126.206 126.542 126.064 126.114 125.78 125.805C125.5 125.496 125.111 125.342 124.614 125.342C124.276 125.342 123.976 125.416 123.713 125.565C123.454 125.711 123.25 125.922 123.101 126.199C122.955 126.476 122.882 126.812 122.882 127.206ZM135.504 132L133.192 123.818H135.158L136.596 129.571H136.671L138.141 123.818H140.085L141.555 129.539H141.635L143.052 123.818H145.023L142.706 132H140.698L139.163 126.471H139.052L137.518 132H135.504ZM146.369 132V123.818H148.297V132H146.369ZM147.339 122.657C147.033 122.657 146.77 122.556 146.55 122.353C146.33 122.147 146.22 121.901 146.22 121.613C146.22 121.322 146.33 121.075 146.55 120.873C146.77 120.667 147.033 120.564 147.339 120.564C147.648 120.564 147.91 120.667 148.127 120.873C148.347 121.075 148.457 121.322 148.457 121.613C148.457 121.901 148.347 122.147 148.127 122.353C147.91 122.556 147.648 122.657 147.339 122.657ZM154.366 123.818V125.31H149.662V123.818H154.366ZM150.824 121.858H152.752V129.539C152.752 129.798 152.791 129.997 152.869 130.136C152.951 130.271 153.057 130.363 153.189 130.413C153.32 130.462 153.466 130.487 153.625 130.487C153.746 130.487 153.856 130.478 153.956 130.461C154.059 130.443 154.137 130.427 154.19 130.413L154.515 131.92C154.412 131.956 154.265 131.995 154.073 132.037C153.885 132.08 153.654 132.105 153.38 132.112C152.898 132.126 152.462 132.053 152.075 131.893C151.688 131.73 151.381 131.478 151.154 131.137C150.93 130.796 150.82 130.37 150.824 129.859V121.858ZM158.083 127.206V132H156.154V121.091H158.04V125.208H158.136C158.328 124.747 158.624 124.383 159.025 124.116C159.43 123.847 159.945 123.712 160.57 123.712C161.138 123.712 161.634 123.831 162.056 124.069C162.479 124.306 162.806 124.654 163.036 125.113C163.271 125.571 163.388 126.13 163.388 126.79V132H161.46V127.089C161.46 126.538 161.318 126.11 161.034 125.805C160.753 125.496 160.359 125.342 159.851 125.342C159.51 125.342 159.205 125.416 158.935 125.565C158.669 125.711 158.459 125.922 158.306 126.199C158.157 126.476 158.083 126.812 158.083 127.206ZM176.468 124.575C176.379 124.287 176.256 124.029 176.1 123.802C175.947 123.571 175.763 123.374 175.546 123.211C175.333 123.048 175.088 122.925 174.811 122.843C174.534 122.758 174.232 122.716 173.906 122.716C173.32 122.716 172.798 122.863 172.34 123.158C171.881 123.452 171.521 123.886 171.258 124.457C170.999 125.026 170.869 125.718 170.869 126.535C170.869 127.359 170.999 128.056 171.258 128.628C171.517 129.2 171.878 129.635 172.34 129.933C172.801 130.228 173.337 130.375 173.948 130.375C174.502 130.375 174.982 130.269 175.386 130.056C175.795 129.843 176.109 129.541 176.329 129.15C176.549 128.756 176.659 128.294 176.659 127.765L177.107 127.835H174.145V126.29H178.572V127.6C178.572 128.534 178.373 129.342 177.975 130.024C177.577 130.706 177.031 131.231 176.335 131.6C175.639 131.966 174.84 132.149 173.938 132.149C172.933 132.149 172.05 131.924 171.29 131.473C170.534 131.018 169.943 130.374 169.516 129.539C169.094 128.701 168.883 127.707 168.883 126.556C168.883 125.675 169.007 124.889 169.255 124.196C169.508 123.504 169.859 122.916 170.31 122.433C170.761 121.947 171.29 121.577 171.897 121.325C172.505 121.07 173.165 120.942 173.879 120.942C174.483 120.942 175.045 121.031 175.568 121.208C176.09 121.382 176.553 121.631 176.958 121.954C177.366 122.277 177.702 122.661 177.965 123.104C178.227 123.548 178.4 124.038 178.481 124.575H176.468ZM183.966 132.16C183.167 132.16 182.475 131.984 181.889 131.632C181.303 131.281 180.848 130.789 180.525 130.157C180.206 129.525 180.046 128.786 180.046 127.941C180.046 127.096 180.206 126.355 180.525 125.72C180.848 125.084 181.303 124.591 181.889 124.239C182.475 123.887 183.167 123.712 183.966 123.712C184.765 123.712 185.458 123.887 186.044 124.239C186.63 124.591 187.083 125.084 187.402 125.72C187.725 126.355 187.887 127.096 187.887 127.941C187.887 128.786 187.725 129.525 187.402 130.157C187.083 130.789 186.63 131.281 186.044 131.632C185.458 131.984 184.765 132.16 183.966 132.16ZM183.977 130.615C184.41 130.615 184.773 130.496 185.064 130.258C185.355 130.017 185.572 129.694 185.714 129.289C185.859 128.884 185.932 128.433 185.932 127.936C185.932 127.435 185.859 126.982 185.714 126.577C185.572 126.169 185.355 125.844 185.064 125.603C184.773 125.361 184.41 125.24 183.977 125.24C183.533 125.24 183.164 125.361 182.869 125.603C182.578 125.844 182.36 126.169 182.214 126.577C182.072 126.982 182.001 127.435 182.001 127.936C182.001 128.433 182.072 128.884 182.214 129.289C182.36 129.694 182.578 130.017 182.869 130.258C183.164 130.496 183.533 130.615 183.977 130.615ZM193.092 132.16C192.293 132.16 191.601 131.984 191.015 131.632C190.429 131.281 189.974 130.789 189.651 130.157C189.332 129.525 189.172 128.786 189.172 127.941C189.172 127.096 189.332 126.355 189.651 125.72C189.974 125.084 190.429 124.591 191.015 124.239C191.601 123.887 192.293 123.712 193.092 123.712C193.891 123.712 194.584 123.887 195.17 124.239C195.756 124.591 196.208 125.084 196.528 125.72C196.851 126.355 197.013 127.096 197.013 127.941C197.013 128.786 196.851 129.525 196.528 130.157C196.208 130.789 195.756 131.281 195.17 131.632C194.584 131.984 193.891 132.16 193.092 132.16ZM193.103 130.615C193.536 130.615 193.898 130.496 194.19 130.258C194.481 130.017 194.697 129.694 194.84 129.289C194.985 128.884 195.058 128.433 195.058 127.936C195.058 127.435 194.985 126.982 194.84 126.577C194.697 126.169 194.481 125.844 194.19 125.603C193.898 125.361 193.536 125.24 193.103 125.24C192.659 125.24 192.29 125.361 191.995 125.603C191.704 125.844 191.485 126.169 191.34 126.577C191.198 126.982 191.127 127.435 191.127 127.936C191.127 128.433 191.198 128.884 191.34 129.289C191.485 129.694 191.704 130.017 191.995 130.258C192.29 130.496 192.659 130.615 193.103 130.615ZM202.208 135.239C201.515 135.239 200.92 135.145 200.423 134.956C199.926 134.772 199.527 134.523 199.225 134.211C198.923 133.898 198.713 133.552 198.596 133.172L200.333 132.751C200.411 132.911 200.524 133.069 200.674 133.225C200.823 133.385 201.023 133.516 201.276 133.619C201.531 133.726 201.853 133.779 202.24 133.779C202.787 133.779 203.239 133.646 203.598 133.38C203.957 133.117 204.136 132.684 204.136 132.08V130.53H204.04C203.941 130.729 203.795 130.933 203.603 131.142C203.415 131.352 203.165 131.528 202.852 131.67C202.543 131.812 202.154 131.883 201.686 131.883C201.057 131.883 200.487 131.735 199.976 131.441C199.468 131.142 199.063 130.699 198.761 130.109C198.463 129.516 198.314 128.774 198.314 127.882C198.314 126.984 198.463 126.226 198.761 125.608C199.063 124.987 199.47 124.516 199.981 124.196C200.492 123.873 201.062 123.712 201.691 123.712C202.17 123.712 202.565 123.793 202.874 123.957C203.186 124.116 203.435 124.31 203.619 124.537C203.804 124.761 203.944 124.972 204.04 125.171H204.147V123.818H206.048V132.133C206.048 132.833 205.881 133.412 205.548 133.87C205.214 134.328 204.757 134.67 204.179 134.898C203.6 135.125 202.943 135.239 202.208 135.239ZM202.224 130.37C202.632 130.37 202.98 130.271 203.268 130.072C203.555 129.873 203.774 129.587 203.923 129.214C204.072 128.841 204.147 128.394 204.147 127.872C204.147 127.357 204.072 126.906 203.923 126.519C203.777 126.132 203.561 125.832 203.273 125.619C202.989 125.402 202.639 125.294 202.224 125.294C201.794 125.294 201.435 125.406 201.148 125.629C200.86 125.853 200.643 126.16 200.498 126.551C200.352 126.938 200.279 127.378 200.279 127.872C200.279 128.373 200.352 128.811 200.498 129.188C200.647 129.56 200.865 129.852 201.153 130.061C201.444 130.267 201.801 130.37 202.224 130.37ZM209.953 121.091V132H208.024V121.091H209.953ZM215.558 132.16C214.737 132.16 214.029 131.989 213.432 131.648C212.839 131.304 212.383 130.817 212.063 130.189C211.744 129.557 211.584 128.813 211.584 127.957C211.584 127.115 211.744 126.377 212.063 125.741C212.387 125.102 212.838 124.605 213.416 124.25C213.995 123.891 214.675 123.712 215.457 123.712C215.961 123.712 216.437 123.793 216.884 123.957C217.335 124.116 217.733 124.365 218.077 124.702C218.425 125.04 218.699 125.469 218.898 125.991C219.096 126.51 219.196 127.128 219.196 127.845V128.436H212.49V127.137H217.348C217.344 126.767 217.264 126.439 217.108 126.151C216.952 125.86 216.733 125.631 216.453 125.464C216.176 125.297 215.852 125.214 215.483 125.214C215.089 125.214 214.743 125.31 214.444 125.501C214.146 125.69 213.914 125.938 213.747 126.247C213.583 126.553 213.5 126.888 213.496 127.254V128.388C213.496 128.864 213.583 129.273 213.757 129.614C213.931 129.951 214.175 130.21 214.487 130.391C214.8 130.569 215.165 130.658 215.584 130.658C215.865 130.658 216.119 130.619 216.346 130.54C216.573 130.459 216.77 130.34 216.937 130.184C217.104 130.027 217.23 129.834 217.316 129.603L219.116 129.805C219.002 130.281 218.786 130.697 218.466 131.052C218.15 131.403 217.745 131.677 217.252 131.872C216.758 132.064 216.193 132.16 215.558 132.16Z" fill="white"/>
<rect x="8" y="109" width="35" height="35" rx="4" fill="white"/>
<g clip-path="url(#clip0_603_1007)">
<path d="M36.7449 127.27C36.7449 126.48 36.6749 125.73 36.5549 125H25.2549V129.51H31.7249C31.4349 130.99 30.5849 132.24 29.3249 133.09V136.09H33.1849C35.4449 134 36.7449 130.92 36.7449 127.27Z" fill="#4285F4"/>
<path d="M25.2549 139C28.4949 139 31.2049 137.92 33.1849 136.09L29.3249 133.09C28.2449 133.81 26.8749 134.25 25.2549 134.25C22.1249 134.25 19.4749 132.14 18.5249 129.29H14.5449V132.38C16.5149 136.3 20.5649 139 25.2549 139Z" fill="#34A853"/>
<path d="M18.5249 129.29C18.2749 128.57 18.1449 127.8 18.1449 127C18.1449 126.2 18.2849 125.43 18.5249 124.71V121.62H14.5449C13.7249 123.24 13.2549 125.06 13.2549 127C13.2549 128.94 13.7249 130.76 14.5449 132.38L18.5249 129.29Z" fill="#FBBC05"/>
<path d="M25.2549 119.75C27.0249 119.75 28.6049 120.36 29.8549 121.55L33.2749 118.13C31.2049 116.19 28.4949 115 25.2549 115C20.5649 115 16.5149 117.7 14.5449 121.62L18.5249 124.71C19.4749 121.86 22.1249 119.75 25.2549 119.75Z" fill="#EA4335"/>
</g>
<rect y="159" width="300" height="49" rx="6" fill="#05A6F0"/>
<path d="M78.24 181.09C78.1903 180.625 77.9807 180.262 77.6114 180.003C77.2457 179.744 76.7698 179.614 76.1839 179.614C75.7719 179.614 75.4186 179.676 75.1238 179.801C74.8291 179.925 74.6036 180.094 74.4474 180.307C74.2911 180.52 74.2112 180.763 74.2077 181.037C74.2077 181.264 74.2591 181.461 74.3621 181.628C74.4687 181.795 74.6125 181.937 74.7936 182.054C74.9747 182.168 75.1753 182.263 75.3955 182.342C75.6157 182.42 75.8376 182.485 76.0613 182.539L77.0841 182.794C77.496 182.89 77.892 183.02 78.2719 183.183C78.6555 183.347 78.9981 183.553 79.3 183.801C79.6054 184.05 79.8469 184.35 80.0244 184.701C80.202 185.053 80.2907 185.465 80.2907 185.937C80.2907 186.576 80.1274 187.139 79.8007 187.626C79.474 188.109 79.0017 188.487 78.3838 188.76C77.7694 189.03 77.0255 189.165 76.1519 189.165C75.3032 189.165 74.5663 189.034 73.9413 188.771C73.3199 188.508 72.8334 188.125 72.4818 187.62C72.1338 187.116 71.9456 186.502 71.9172 185.777H73.8614C73.8898 186.157 74.007 186.473 74.213 186.725C74.4189 186.978 74.6871 187.166 75.0173 187.29C75.3511 187.414 75.724 187.477 76.1359 187.477C76.5656 187.477 76.942 187.413 77.2652 187.285C77.5919 187.153 77.8476 186.972 78.0322 186.741C78.2169 186.507 78.311 186.234 78.3145 185.921C78.311 185.637 78.2275 185.403 78.0642 185.218C77.9008 185.03 77.6718 184.874 77.377 184.749C77.0858 184.621 76.7449 184.508 76.3543 184.408L75.1132 184.089C74.2148 183.858 73.5045 183.508 72.9825 183.039C72.464 182.567 72.2048 181.94 72.2048 181.159C72.2048 180.516 72.3788 179.953 72.7268 179.471C73.0784 178.988 73.556 178.613 74.1597 178.347C74.7634 178.077 75.447 177.942 76.2105 177.942C76.9846 177.942 77.6629 178.077 78.2453 178.347C78.8312 178.613 79.2911 178.984 79.6249 179.46C79.9587 179.932 80.1309 180.475 80.1416 181.09H78.24ZM81.9673 189V180.818H83.8956V189H81.9673ZM82.9368 179.657C82.6314 179.657 82.3686 179.556 82.1484 179.353C81.9283 179.147 81.8182 178.901 81.8182 178.613C81.8182 178.322 81.9283 178.075 82.1484 177.873C82.3686 177.667 82.6314 177.564 82.9368 177.564C83.2457 177.564 83.5085 177.667 83.7251 177.873C83.9453 178.075 84.0554 178.322 84.0554 178.613C84.0554 178.901 83.9453 179.147 83.7251 179.353C83.5085 179.556 83.2457 179.657 82.9368 179.657ZM89.4367 192.239C88.7442 192.239 88.1494 192.145 87.6523 191.956C87.1551 191.772 86.7556 191.523 86.4537 191.211C86.1519 190.898 85.9424 190.552 85.8252 190.172L87.5617 189.751C87.6398 189.911 87.7535 190.069 87.9026 190.225C88.0518 190.385 88.2524 190.516 88.5045 190.619C88.7602 190.726 89.0816 190.779 89.4687 190.779C90.0155 190.779 90.4683 190.646 90.827 190.38C91.1856 190.117 91.365 189.684 91.365 189.08V187.53H91.2691C91.1697 187.729 91.0241 187.933 90.8323 188.142C90.6441 188.352 90.3937 188.528 90.0812 188.67C89.7723 188.812 89.3834 188.883 88.9147 188.883C88.2861 188.883 87.7162 188.735 87.2048 188.441C86.697 188.142 86.2922 187.699 85.9903 187.109C85.692 186.516 85.5429 185.774 85.5429 184.882C85.5429 183.984 85.692 183.226 85.9903 182.608C86.2922 181.987 86.6988 181.516 87.2101 181.196C87.7215 180.873 88.2915 180.712 88.92 180.712C89.3994 180.712 89.7936 180.793 90.1025 180.957C90.415 181.116 90.6636 181.31 90.8483 181.537C91.0329 181.761 91.1732 181.972 91.2691 182.171H91.3756V180.818H93.2773V189.133C93.2773 189.833 93.1104 190.412 92.7765 190.87C92.4427 191.328 91.9864 191.67 91.4076 191.898C90.8287 192.125 90.1718 192.239 89.4367 192.239ZM89.4527 187.37C89.8611 187.37 90.2091 187.271 90.4967 187.072C90.7844 186.873 91.0028 186.587 91.1519 186.214C91.301 185.841 91.3756 185.394 91.3756 184.872C91.3756 184.357 91.301 183.906 91.1519 183.519C91.0063 183.132 90.7897 182.832 90.502 182.619C90.218 182.402 89.8682 182.294 89.4527 182.294C89.023 182.294 88.6643 182.406 88.3767 182.629C88.089 182.853 87.8724 183.16 87.7268 183.551C87.5812 183.938 87.5084 184.378 87.5084 184.872C87.5084 185.373 87.5812 185.811 87.7268 186.188C87.876 186.56 88.0944 186.852 88.382 187.061C88.6732 187.267 89.0301 187.37 89.4527 187.37ZM97.1817 184.206V189H95.2535V180.818H97.0965V182.208H97.1924C97.3806 181.75 97.6807 181.386 98.0926 181.116C98.5081 180.847 99.0212 180.712 99.632 180.712C100.197 180.712 100.688 180.832 101.108 181.074C101.53 181.315 101.857 181.665 102.088 182.123C102.322 182.581 102.437 183.137 102.434 183.79V189H100.506V184.089C100.506 183.542 100.364 183.114 100.079 182.805C99.7989 182.496 99.4101 182.342 98.9129 182.342C98.5756 182.342 98.2755 182.416 98.0127 182.565C97.7535 182.711 97.5493 182.922 97.4001 183.199C97.2545 183.476 97.1817 183.812 97.1817 184.206ZM108.115 189V180.818H110.043V189H108.115ZM109.084 179.657C108.779 179.657 108.516 179.556 108.296 179.353C108.076 179.147 107.966 178.901 107.966 178.613C107.966 178.322 108.076 178.075 108.296 177.873C108.516 177.667 108.779 177.564 109.084 177.564C109.393 177.564 109.656 177.667 109.873 177.873C110.093 178.075 110.203 178.322 110.203 178.613C110.203 178.901 110.093 179.147 109.873 179.353C109.656 179.556 109.393 179.657 109.084 179.657ZM113.954 184.206V189H112.026V180.818H113.869V182.208H113.965C114.153 181.75 114.453 181.386 114.865 181.116C115.281 180.847 115.794 180.712 116.404 180.712C116.969 180.712 117.461 180.832 117.88 181.074C118.303 181.315 118.629 181.665 118.86 182.123C119.094 182.581 119.21 183.137 119.206 183.79V189H117.278V184.089C117.278 183.542 117.136 183.114 116.852 182.805C116.571 182.496 116.183 182.342 115.685 182.342C115.348 182.342 115.048 182.416 114.785 182.565C114.526 182.711 114.322 182.922 114.173 183.199C114.027 183.476 113.954 183.812 113.954 184.206ZM126.576 189L124.264 180.818H126.23L127.668 186.571H127.742L129.213 180.818H131.157L132.627 186.539H132.707L134.124 180.818H136.095L133.778 189H131.769L130.235 183.471H130.123L128.589 189H126.576ZM137.441 189V180.818H139.369V189H137.441ZM138.41 179.657C138.105 179.657 137.842 179.556 137.622 179.353C137.402 179.147 137.292 178.901 137.292 178.613C137.292 178.322 137.402 178.075 137.622 177.873C137.842 177.667 138.105 177.564 138.41 177.564C138.719 177.564 138.982 177.667 139.199 177.873C139.419 178.075 139.529 178.322 139.529 178.613C139.529 178.901 139.419 179.147 139.199 179.353C138.982 179.556 138.719 179.657 138.41 179.657ZM145.438 180.818V182.31H140.734V180.818H145.438ZM141.895 178.858H143.824V186.539C143.824 186.798 143.863 186.997 143.941 187.136C144.023 187.271 144.129 187.363 144.26 187.413C144.392 187.462 144.537 187.487 144.697 187.487C144.818 187.487 144.928 187.478 145.028 187.461C145.131 187.443 145.209 187.427 145.262 187.413L145.587 188.92C145.484 188.956 145.336 188.995 145.145 189.037C144.956 189.08 144.726 189.105 144.452 189.112C143.969 189.126 143.534 189.053 143.147 188.893C142.76 188.73 142.453 188.478 142.226 188.137C142.002 187.796 141.892 187.37 141.895 186.859V178.858ZM149.154 184.206V189H147.226V178.091H149.112V182.208H149.208C149.399 181.747 149.696 181.383 150.097 181.116C150.502 180.847 151.017 180.712 151.642 180.712C152.21 180.712 152.706 180.831 153.128 181.069C153.551 181.306 153.877 181.654 154.108 182.113C154.343 182.571 154.46 183.13 154.46 183.79V189H152.532V184.089C152.532 183.538 152.389 183.11 152.105 182.805C151.825 182.496 151.431 182.342 150.923 182.342C150.582 182.342 150.277 182.416 150.007 182.565C149.74 182.711 149.531 182.922 149.378 183.199C149.229 183.476 149.154 183.812 149.154 184.206ZM160.231 178.091H162.65L165.888 185.996H166.016L169.255 178.091H171.673V189H169.777V181.505H169.676L166.661 188.968H165.244L162.229 181.489H162.128V189H160.231V178.091ZM173.74 189V180.818H175.668V189H173.74ZM174.709 179.657C174.404 179.657 174.141 179.556 173.921 179.353C173.701 179.147 173.591 178.901 173.591 178.613C173.591 178.322 173.701 178.075 173.921 177.873C174.141 177.667 174.404 177.564 174.709 177.564C175.018 177.564 175.281 177.667 175.498 177.873C175.718 178.075 175.828 178.322 175.828 178.613C175.828 178.901 175.718 179.147 175.498 179.353C175.281 179.556 175.018 179.657 174.709 179.657ZM181.22 189.16C180.403 189.16 179.702 188.98 179.116 188.622C178.533 188.263 178.084 187.768 177.768 187.136C177.456 186.5 177.299 185.768 177.299 184.941C177.299 184.11 177.459 183.377 177.779 182.741C178.098 182.102 178.549 181.605 179.132 181.25C179.718 180.891 180.41 180.712 181.209 180.712C181.873 180.712 182.461 180.834 182.972 181.079C183.487 181.321 183.897 181.663 184.203 182.107C184.508 182.548 184.682 183.062 184.725 183.652H182.882C182.807 183.258 182.63 182.929 182.349 182.667C182.072 182.4 181.701 182.267 181.236 182.267C180.842 182.267 180.495 182.374 180.197 182.587C179.899 182.796 179.666 183.098 179.499 183.492C179.336 183.886 179.254 184.359 179.254 184.909C179.254 185.467 179.336 185.946 179.499 186.347C179.663 186.745 179.892 187.052 180.186 187.269C180.485 187.482 180.835 187.588 181.236 187.588C181.52 187.588 181.774 187.535 181.998 187.429C182.225 187.319 182.415 187.161 182.567 186.955C182.72 186.749 182.825 186.498 182.882 186.203H184.725C184.679 186.782 184.508 187.295 184.213 187.743C183.919 188.187 183.517 188.535 183.01 188.787C182.502 189.036 181.905 189.16 181.22 189.16ZM186.308 189V180.818H188.178V182.182H188.263C188.412 181.71 188.668 181.346 189.03 181.09C189.396 180.831 189.813 180.701 190.282 180.701C190.388 180.701 190.507 180.706 190.639 180.717C190.774 180.724 190.886 180.737 190.974 180.754V182.528C190.893 182.5 190.763 182.475 190.585 182.453C190.411 182.429 190.243 182.416 190.079 182.416C189.728 182.416 189.412 182.493 189.131 182.645C188.854 182.794 188.636 183.002 188.476 183.268C188.316 183.535 188.236 183.842 188.236 184.19V189H186.308ZM195.487 189.16C194.688 189.16 193.996 188.984 193.41 188.632C192.824 188.281 192.369 187.789 192.046 187.157C191.727 186.525 191.567 185.786 191.567 184.941C191.567 184.096 191.727 183.355 192.046 182.72C192.369 182.084 192.824 181.591 193.41 181.239C193.996 180.887 194.688 180.712 195.487 180.712C196.286 180.712 196.979 180.887 197.565 181.239C198.151 181.591 198.604 182.084 198.923 182.72C199.246 183.355 199.408 184.096 199.408 184.941C199.408 185.786 199.246 186.525 198.923 187.157C198.604 187.789 198.151 188.281 197.565 188.632C196.979 188.984 196.286 189.16 195.487 189.16ZM195.498 187.615C195.931 187.615 196.294 187.496 196.585 187.258C196.876 187.017 197.093 186.694 197.235 186.289C197.38 185.884 197.453 185.433 197.453 184.936C197.453 184.435 197.38 183.982 197.235 183.577C197.093 183.169 196.876 182.844 196.585 182.603C196.294 182.361 195.931 182.24 195.498 182.24C195.054 182.24 194.685 182.361 194.39 182.603C194.099 182.844 193.881 183.169 193.735 183.577C193.593 183.982 193.522 184.435 193.522 184.936C193.522 185.433 193.593 185.884 193.735 186.289C193.881 186.694 194.099 187.017 194.39 187.258C194.685 187.496 195.054 187.615 195.498 187.615ZM207.511 182.981L205.753 183.173C205.704 182.995 205.617 182.828 205.492 182.672C205.372 182.516 205.208 182.39 205.002 182.294C204.796 182.198 204.544 182.15 204.246 182.15C203.845 182.15 203.507 182.237 203.234 182.411C202.964 182.585 202.831 182.81 202.834 183.087C202.831 183.325 202.918 183.519 203.095 183.668C203.276 183.817 203.575 183.94 203.99 184.036L205.386 184.334C206.16 184.501 206.735 184.765 207.112 185.127C207.492 185.49 207.683 185.964 207.687 186.55C207.683 187.065 207.532 187.519 207.234 187.913C206.939 188.304 206.529 188.609 206.004 188.83C205.478 189.05 204.874 189.16 204.193 189.16C203.191 189.16 202.385 188.95 201.774 188.531C201.163 188.109 200.799 187.521 200.682 186.768L202.563 186.587C202.648 186.956 202.829 187.235 203.106 187.423C203.383 187.612 203.743 187.706 204.187 187.706C204.645 187.706 205.013 187.612 205.29 187.423C205.57 187.235 205.711 187.002 205.711 186.725C205.711 186.491 205.62 186.298 205.439 186.145C205.261 185.992 204.984 185.875 204.608 185.793L203.212 185.5C202.428 185.337 201.847 185.062 201.471 184.675C201.094 184.284 200.908 183.79 200.911 183.194C200.908 182.69 201.044 182.253 201.321 181.884C201.602 181.511 201.991 181.223 202.488 181.021C202.989 180.815 203.566 180.712 204.219 180.712C205.178 180.712 205.933 180.916 206.483 181.324C207.037 181.733 207.38 182.285 207.511 182.981ZM212.846 189.16C212.047 189.16 211.354 188.984 210.768 188.632C210.182 188.281 209.728 187.789 209.405 187.157C209.085 186.525 208.925 185.786 208.925 184.941C208.925 184.096 209.085 183.355 209.405 182.72C209.728 182.084 210.182 181.591 210.768 181.239C211.354 180.887 212.047 180.712 212.846 180.712C213.645 180.712 214.337 180.887 214.923 181.239C215.509 181.591 215.962 182.084 216.282 182.72C216.605 183.355 216.766 184.096 216.766 184.941C216.766 185.786 216.605 186.525 216.282 187.157C215.962 187.789 215.509 188.281 214.923 188.632C214.337 188.984 213.645 189.16 212.846 189.16ZM212.856 187.615C213.29 187.615 213.652 187.496 213.943 187.258C214.234 187.017 214.451 186.694 214.593 186.289C214.739 185.884 214.811 185.433 214.811 184.936C214.811 184.435 214.739 183.982 214.593 183.577C214.451 183.169 214.234 182.844 213.943 182.603C213.652 182.361 213.29 182.24 212.856 182.24C212.413 182.24 212.043 182.361 211.748 182.603C211.457 182.844 211.239 183.169 211.093 183.577C210.951 183.982 210.88 184.435 210.88 184.936C210.88 185.433 210.951 185.884 211.093 186.289C211.239 186.694 211.457 187.017 211.748 187.258C212.043 187.496 212.413 187.615 212.856 187.615ZM222.547 180.818V182.31H217.71V180.818H222.547ZM218.92 189V180.046C218.92 179.495 219.033 179.037 219.26 178.672C219.491 178.306 219.8 178.032 220.187 177.851C220.574 177.67 221.004 177.58 221.476 177.58C221.81 177.58 222.107 177.606 222.366 177.659C222.625 177.713 222.817 177.761 222.941 177.803L222.558 179.295C222.476 179.27 222.373 179.245 222.249 179.22C222.124 179.192 221.986 179.178 221.833 179.178C221.475 179.178 221.221 179.265 221.072 179.439C220.926 179.609 220.853 179.854 220.853 180.174V189H218.92ZM228.143 180.818V182.31H223.439V180.818H228.143ZM224.6 178.858H226.529V186.539C226.529 186.798 226.568 186.997 226.646 187.136C226.728 187.271 226.834 187.363 226.966 187.413C227.097 187.462 227.243 187.487 227.402 187.487C227.523 187.487 227.633 187.478 227.733 187.461C227.836 187.443 227.914 187.427 227.967 187.413L228.292 188.92C228.189 188.956 228.042 188.995 227.85 189.037C227.662 189.08 227.431 189.105 227.157 189.112C226.674 189.126 226.239 189.053 225.852 188.893C225.465 188.73 225.158 188.478 224.931 188.137C224.707 187.796 224.597 187.37 224.6 186.859V178.858Z" fill="white"/>
<rect x="8" y="166" width="35" height="35" rx="4" fill="white"/>
<g clip-path="url(#clip1_603_1007)">
<path d="M15 173H25V183H15V173Z" fill="#F35325"/>
<path d="M26 173H36V183H26V173Z" fill="#81BC06"/>
<path d="M15 184H25V194H15V184Z" fill="#05A6F0"/>
<path d="M26 184H36V194H26V184Z" fill="#FFBA08"/>
</g>
<defs>
<clipPath id="clip0_603_1007">
<rect width="24" height="24" fill="white" transform="translate(13 115)"/>
</clipPath>
<clipPath id="clip1_603_1007">
<rect width="21" height="21" fill="white" transform="translate(15 173)"/>
</clipPath>
</defs>
</svg>
