<svg width="404" height="180" viewBox="0 0 404 180" fill="none" xmlns="http://www.w3.org/2000/svg">
<g clip-path="url(#clip0_5025_3758)">
<path d="M104 163V193L57.9111 163L11 193V163L57.9111 133L104 163Z" fill="url(#paint0_linear_5025_3758)"/>
<path d="M151 103H151.5V102.729L151.273 102.581L151 103ZM151 133L150.727 133.419L151.5 133.922V133H151ZM104.911 103L105.184 102.581L104.914 102.405L104.642 102.579L104.911 103ZM58 133H57.5V133.913L58.2694 133.421L58 133ZM58 103L57.7306 102.579L57.5 102.726V103H58ZM104.911 73L105.184 72.581L104.914 72.405L104.642 72.5788L104.911 73ZM151 103H150.5V133H151H151.5V103H151ZM151 133L151.273 132.581L105.184 102.581L104.911 103L104.638 103.419L150.727 133.419L151 133ZM104.911 103L104.642 102.579L57.7306 132.579L58 133L58.2694 133.421L105.181 103.421L104.911 103ZM58 133H58.5V103H58H57.5V133H58ZM58 103L58.2694 103.421L105.181 73.4212L104.911 73L104.642 72.5788L57.7306 102.579L58 103ZM104.911 73L104.638 73.419L150.727 103.419L151 103L151.273 102.581L105.184 72.581L104.911 73Z" fill="url(#paint1_linear_5025_3758)"/>
<path d="M105 42H105.5V41.7289L105.273 41.581L105 42ZM105 72L104.727 72.419L105.5 72.9221V72H105ZM58.9111 42L59.1839 41.581L58.9135 41.405L58.6418 41.5788L58.9111 42ZM12 72H11.5V72.9133L12.2694 72.4212L12 72ZM12 42L11.7306 41.5788L11.5 41.7263V42H12ZM58.9111 12L59.1839 11.581L58.9135 11.405L58.6418 11.5788L58.9111 12ZM105 42H104.5V72H105H105.5V42H105ZM105 72L105.273 71.581L59.1839 41.581L58.9111 42L58.6384 42.419L104.727 72.419L105 72ZM58.9111 42L58.6418 41.5788L11.7306 71.5788L12 72L12.2694 72.4212L59.1805 42.4212L58.9111 42ZM12 72H12.5V42H12H11.5V72H12ZM12 42L12.2694 42.4212L59.1805 12.4212L58.9111 12L58.6418 11.5788L11.7306 41.5788L12 42ZM58.9111 12L58.6384 12.419L104.727 42.419L105 42L105.273 41.581L59.1839 11.581L58.9111 12Z" fill="url(#paint2_linear_5025_3758)"/>
<path d="M290 163H290.5V162.729L290.273 162.581L290 163ZM290 193L289.727 193.419L290.5 193.922V193H290ZM243.911 163L244.184 162.581L243.914 162.405L243.642 162.579L243.911 163ZM197 193H196.5V193.913L197.269 193.421L197 193ZM197 163L196.731 162.579L196.5 162.726V163H197ZM243.911 133L244.184 132.581L243.914 132.405L243.642 132.579L243.911 133ZM290 163H289.5V193H290H290.5V163H290ZM290 193L290.273 192.581L244.184 162.581L243.911 163L243.638 163.419L289.727 193.419L290 193ZM243.911 163L243.642 162.579L196.731 192.579L197 193L197.269 193.421L244.181 163.421L243.911 163ZM197 193H197.5V163H197H196.5V193H197ZM197 163L197.269 163.421L244.181 133.421L243.911 133L243.642 132.579L196.731 162.579L197 163ZM243.911 133L243.638 133.419L289.727 163.419L290 163L290.273 162.581L244.184 132.581L243.911 133Z" fill="url(#paint3_linear_5025_3758)"/>
<path d="M337 103H337.5V102.729L337.273 102.581L337 103ZM337 133L336.727 133.419L337.5 133.922V133H337ZM290.911 103L291.184 102.581L290.914 102.405L290.642 102.579L290.911 103ZM244 133H243.5V133.913L244.269 133.421L244 133ZM244 103L243.731 102.579L243.5 102.726V103H244ZM290.911 73L291.184 72.581L290.914 72.405L290.642 72.5788L290.911 73ZM337 103H336.5V133H337H337.5V103H337ZM337 133L337.273 132.581L291.184 102.581L290.911 103L290.638 103.419L336.727 133.419L337 133ZM290.911 103L290.642 102.579L243.731 132.579L244 133L244.269 133.421L291.181 103.421L290.911 103ZM244 133H244.5V103H244H243.5V133H244ZM244 103L244.269 103.421L291.181 73.4212L290.911 73L290.642 72.5788L243.731 102.579L244 103ZM290.911 73L290.638 73.419L336.727 103.419L337 103L337.273 102.581L291.184 72.581L290.911 73Z" fill="url(#paint4_linear_5025_3758)"/>
<path d="M291 42H291.5V41.7289L291.273 41.581L291 42ZM291 72L290.727 72.419L291.5 72.9221V72H291ZM244.911 42L245.184 41.581L244.914 41.405L244.642 41.5788L244.911 42ZM198 72H197.5V72.9133L198.269 72.4212L198 72ZM198 42L197.731 41.5788L197.5 41.7263V42H198ZM244.911 12L245.184 11.581L244.914 11.405L244.642 11.5788L244.911 12ZM291 42H290.5V72H291H291.5V42H291ZM291 72L291.273 71.581L245.184 41.581L244.911 42L244.638 42.419L290.727 72.419L291 72ZM244.911 42L244.642 41.5788L197.731 71.5788L198 72L198.269 72.4212L245.181 42.4212L244.911 42ZM198 72H198.5V42H198H197.5V72H198ZM198 42L198.269 42.4212L245.181 12.4212L244.911 12L244.642 11.5788L197.731 41.5788L198 42ZM244.911 12L244.638 12.419L290.727 42.419L291 42L291.273 41.581L245.184 11.581L244.911 12Z" fill="url(#paint5_linear_5025_3758)"/>
<path d="M197 163H197.5V162.729L197.273 162.581L197 163ZM197 193L196.727 193.419L197.5 193.922V193H197ZM150.911 163L151.184 162.581L150.914 162.405L150.642 162.579L150.911 163ZM104 193H103.5V193.913L104.269 193.421L104 193ZM104 163L103.731 162.579L103.5 162.726V163H104ZM150.911 133L151.184 132.581L150.914 132.405L150.642 132.579L150.911 133ZM197 163H196.5V193H197H197.5V163H197ZM197 193L197.273 192.581L151.184 162.581L150.911 163L150.638 163.419L196.727 193.419L197 193ZM150.911 163L150.642 162.579L103.731 192.579L104 193L104.269 193.421L151.181 163.421L150.911 163ZM104 193H104.5V163H104H103.5V193H104ZM104 163L104.269 163.421L151.181 133.421L150.911 133L150.642 132.579L103.731 162.579L104 163ZM150.911 133L150.638 133.419L196.727 163.419L197 163L197.273 162.581L151.184 132.581L150.911 133Z" fill="url(#paint6_linear_5025_3758)"/>
<path d="M244 103V133L197.911 103L151 133V103L197.911 73L244 103Z" fill="url(#paint7_linear_5025_3758)"/>
<path d="M198 42H198.5V41.7289L198.273 41.581L198 42ZM198 72L197.727 72.419L198.5 72.9221V72H198ZM151.911 42L152.184 41.581L151.914 41.405L151.642 41.5788L151.911 42ZM105 72H104.5V72.9133L105.269 72.4212L105 72ZM105 42L104.731 41.5788L104.5 41.7263V42H105ZM151.911 12L152.184 11.581L151.914 11.405L151.642 11.5788L151.911 12ZM198 42H197.5V72H198H198.5V42H198ZM198 72L198.273 71.581L152.184 41.581L151.911 42L151.638 42.419L197.727 72.419L198 72ZM151.911 42L151.642 41.5788L104.731 71.5788L105 72L105.269 72.4212L152.181 42.4212L151.911 42ZM105 72H105.5V42H105H104.5V72H105ZM105 42L105.269 42.4212L152.181 12.4212L151.911 12L151.642 11.5788L104.731 41.5788L105 42ZM151.911 12L151.638 12.419L197.727 42.419L198 42L198.273 41.581L152.184 11.581L151.911 12Z" fill="url(#paint8_linear_5025_3758)"/>
<path d="M383 163H383.5V162.729L383.273 162.581L383 163ZM383 193L382.727 193.419L383.5 193.922V193H383ZM336.911 163L337.184 162.581L336.914 162.405L336.642 162.579L336.911 163ZM290 193H289.5V193.913L290.269 193.421L290 193ZM290 163L289.731 162.579L289.5 162.726V163H290ZM336.911 133L337.184 132.581L336.914 132.405L336.642 132.579L336.911 133ZM383 163H382.5V193H383H383.5V163H383ZM383 193L383.273 192.581L337.184 162.581L336.911 163L336.638 163.419L382.727 193.419L383 193ZM336.911 163L336.642 162.579L289.731 192.579L290 193L290.269 193.421L337.181 163.421L336.911 163ZM290 193H290.5V163H290H289.5V193H290ZM290 163L290.269 163.421L337.181 133.421L336.911 133L336.642 132.579L289.731 162.579L290 163ZM336.911 133L336.638 133.419L382.727 163.419L383 163L383.273 162.581L337.184 132.581L336.911 133Z" fill="url(#paint9_linear_5025_3758)"/>
<path d="M430 103H430.5V102.729L430.273 102.581L430 103ZM430 133L429.727 133.419L430.5 133.922V133H430ZM383.911 103L384.184 102.581L383.914 102.405L383.642 102.579L383.911 103ZM337 133H336.5V133.913L337.269 133.421L337 133ZM337 103L336.731 102.579L336.5 102.726V103H337ZM383.911 73L384.184 72.581L383.914 72.405L383.642 72.5788L383.911 73ZM430 103H429.5V133H430H430.5V103H430ZM430 133L430.273 132.581L384.184 102.581L383.911 103L383.638 103.419L429.727 133.419L430 133ZM383.911 103L383.642 102.579L336.731 132.579L337 133L337.269 133.421L384.181 103.421L383.911 103ZM337 133H337.5V103H337H336.5V133H337ZM337 103L337.269 103.421L384.181 73.4212L383.911 73L383.642 72.5788L336.731 102.579L337 103ZM383.911 73L383.638 73.419L429.727 103.419L430 103L430.273 102.581L384.184 72.581L383.911 73Z" fill="url(#paint10_linear_5025_3758)"/>
<path d="M384 42V72L337.911 42L291 72V42L337.911 12L384 42Z" fill="url(#paint11_linear_5025_3758)"/>
</g>
<defs>
<linearGradient id="paint0_linear_5025_3758" x1="57.5" y1="133" x2="57.5" y2="193" gradientUnits="userSpaceOnUse">
<stop stop-color="#D252B5"/>
<stop offset="1" stop-color="#D252B5" stop-opacity="0.35"/>
</linearGradient>
<linearGradient id="paint1_linear_5025_3758" x1="104.5" y1="73" x2="104.5" y2="133" gradientUnits="userSpaceOnUse">
<stop stop-color="#D252B5"/>
<stop offset="1" stop-color="#D252B5" stop-opacity="0.35"/>
</linearGradient>
<linearGradient id="paint2_linear_5025_3758" x1="58.5" y1="12" x2="58.5" y2="72" gradientUnits="userSpaceOnUse">
<stop stop-color="#D252B5"/>
<stop offset="1" stop-color="#D252B5" stop-opacity="0.35"/>
</linearGradient>
<linearGradient id="paint3_linear_5025_3758" x1="243.5" y1="133" x2="243.5" y2="193" gradientUnits="userSpaceOnUse">
<stop stop-color="#D252B5"/>
<stop offset="1" stop-color="#D252B5" stop-opacity="0.35"/>
</linearGradient>
<linearGradient id="paint4_linear_5025_3758" x1="290.5" y1="73" x2="290.5" y2="133" gradientUnits="userSpaceOnUse">
<stop stop-color="#D252B5"/>
<stop offset="1" stop-color="#D252B5" stop-opacity="0.35"/>
</linearGradient>
<linearGradient id="paint5_linear_5025_3758" x1="244.5" y1="12" x2="244.5" y2="72" gradientUnits="userSpaceOnUse">
<stop stop-color="#D252B5"/>
<stop offset="1" stop-color="#D252B5" stop-opacity="0.35"/>
</linearGradient>
<linearGradient id="paint6_linear_5025_3758" x1="150.5" y1="133" x2="150.5" y2="193" gradientUnits="userSpaceOnUse">
<stop stop-color="#D252B5"/>
<stop offset="1" stop-color="#D252B5" stop-opacity="0.35"/>
</linearGradient>
<linearGradient id="paint7_linear_5025_3758" x1="197.5" y1="73" x2="197.5" y2="133" gradientUnits="userSpaceOnUse">
<stop stop-color="#D252B5"/>
<stop offset="1" stop-color="#D252B5" stop-opacity="0.35"/>
</linearGradient>
<linearGradient id="paint8_linear_5025_3758" x1="151.5" y1="12" x2="151.5" y2="72" gradientUnits="userSpaceOnUse">
<stop stop-color="#D252B5"/>
<stop offset="1" stop-color="#D252B5" stop-opacity="0.35"/>
</linearGradient>
<linearGradient id="paint9_linear_5025_3758" x1="336.5" y1="133" x2="336.5" y2="193" gradientUnits="userSpaceOnUse">
<stop stop-color="#D252B5"/>
<stop offset="1" stop-color="#D252B5" stop-opacity="0.35"/>
</linearGradient>
<linearGradient id="paint10_linear_5025_3758" x1="383.5" y1="73" x2="383.5" y2="133" gradientUnits="userSpaceOnUse">
<stop stop-color="#D252B5"/>
<stop offset="1" stop-color="#D252B5" stop-opacity="0.35"/>
</linearGradient>
<linearGradient id="paint11_linear_5025_3758" x1="337.5" y1="12" x2="337.5" y2="72" gradientUnits="userSpaceOnUse">
<stop stop-color="#D252B5"/>
<stop offset="1" stop-color="#D252B5" stop-opacity="0.35"/>
</linearGradient>
<clipPath id="clip0_5025_3758">
<rect width="404" height="180" fill="white"/>
</clipPath>
</defs>
</svg>
