<svg width="392" height="146" viewBox="0 0 392 146" fill="none" xmlns="http://www.w3.org/2000/svg">
<g clip-path="url(#clip0_5458_4289)">
<path d="M181.271 145C180.715 145 180.151 144.889 179.613 144.657C178.701 144.264 177.959 143.559 177.518 142.67C177.077 141.78 176.966 140.763 177.206 139.8L191.378 82.7737H153.191C152.51 82.7737 151.84 82.6079 151.237 82.2907C150.635 81.9734 150.119 81.5142 149.734 80.9528C149.349 80.3914 149.107 79.7447 149.028 79.0686C148.949 78.3926 149.037 77.7075 149.282 77.0728L177.297 4.67817C177.602 3.88962 178.138 3.21181 178.836 2.73381C179.534 2.25581 180.36 2 181.206 2L219.754 2C221.17 2 222.491 2.715 223.265 3.90089C223.645 4.48463 223.874 5.15408 223.931 5.84863C223.988 6.54318 223.87 7.2409 223.589 7.87862L207.001 45.5165H239.809C240.562 45.5166 241.3 45.7191 241.947 46.1029C242.594 46.4866 243.126 47.0375 243.487 47.6976C243.848 48.3577 244.024 49.1027 243.997 49.8544C243.971 50.6061 243.742 51.3367 243.335 51.9696L184.8 143.074C184.42 143.665 183.898 144.151 183.282 144.487C182.665 144.824 181.974 145 181.271 145Z" stroke="url(#paint0_linear_5458_4289)"/>
<path d="M216.979 8L197.8 51.5166H236.494L185.669 130.621L199.052 76.7734H155.832L182.446 8H216.979Z" fill="url(#paint1_linear_5458_4289)"/>
<g filter="url(#filter0_f_5458_4289)">
<circle cx="196" cy="62" r="110" stroke="#D252B5" stroke-width="4"/>
</g>
<circle cx="196" cy="62" r="112" stroke="url(#paint2_linear_5458_4289)"/>
<circle cx="196" cy="62" r="138" stroke="url(#paint3_linear_5458_4289)"/>
<circle cx="196" cy="62" r="161" stroke="url(#paint4_linear_5458_4289)"/>
</g>
<defs>
<filter id="filter0_f_5458_4289" x="68" y="-66" width="256" height="256" filterUnits="userSpaceOnUse" color-interpolation-filters="sRGB">
<feFlood flood-opacity="0" result="BackgroundImageFix"/>
<feBlend mode="normal" in="SourceGraphic" in2="BackgroundImageFix" result="shape"/>
<feGaussianBlur stdDeviation="8" result="effect1_foregroundBlur_5458_4289"/>
</filter>
<linearGradient id="paint0_linear_5458_4289" x1="196.985" y1="3.43403" x2="196.985" y2="144.975" gradientUnits="userSpaceOnUse">
<stop offset="0.15" stop-color="#D252B5"/>
<stop offset="1" stop-color="#D252B5" stop-opacity="0"/>
</linearGradient>
<linearGradient id="paint1_linear_5458_4289" x1="196.163" y1="8" x2="196.163" y2="130.621" gradientUnits="userSpaceOnUse">
<stop stop-color="#D252B5" stop-opacity="0.35"/>
<stop offset="0.605793" stop-color="#D252B5"/>
</linearGradient>
<linearGradient id="paint2_linear_5458_4289" x1="197.143" y1="-47.7537" x2="197.143" y2="173.961" gradientUnits="userSpaceOnUse">
<stop offset="0.15" stop-color="#D252B5"/>
<stop offset="1" stop-color="#D252B5" stop-opacity="0"/>
</linearGradient>
<linearGradient id="paint3_linear_5458_4289" x1="197.408" y1="-73.2322" x2="197.408" y2="199.951" gradientUnits="userSpaceOnUse">
<stop offset="0.15" stop-color="#D252B5"/>
<stop offset="1" stop-color="#D252B5" stop-opacity="0"/>
</linearGradient>
<linearGradient id="paint4_linear_5458_4289" x1="197.643" y1="-95.7709" x2="197.643" y2="222.943" gradientUnits="userSpaceOnUse">
<stop offset="0.15" stop-color="#D252B5"/>
<stop offset="1" stop-color="#D252B5" stop-opacity="0"/>
</linearGradient>
<clipPath id="clip0_5458_4289">
<rect width="392" height="146" fill="white"/>
</clipPath>
</defs>
</svg>
