<svg width="632" height="34" viewBox="0 0 632 34" fill="none" xmlns="http://www.w3.org/2000/svg">
<path d="M316 34V-6.55651e-07" stroke="#3FA1E3" stroke-dasharray="2 2"/>
<path d="M307 1V1.69231C307 10.5289 299.837 17.6923 291 17.6923H168.308C160.406 17.6923 154 24.0981 154 32V32" stroke="#3FA1E3" stroke-dasharray="2 2"/>
<path d="M325 1V1.69231C325 10.5289 332.163 17.6923 341 17.6923H463.692C471.594 17.6923 478 24.0981 478 32V32" stroke="#3FA1E3" stroke-dasharray="2 2"/>
<path d="M295 1V1C295 5.32724 291.492 8.83516 287.165 8.83516H17C8.16345 8.83516 1 15.9986 1 24.8352V32" stroke="#3FA1E3" stroke-dasharray="2 2"/>
<path d="M337 1V1C337 5.32724 340.508 8.83516 344.835 8.83516H615C623.837 8.83516 631 15.9986 631 24.8352V32" stroke="#3FA1E3" stroke-dasharray="2 2"/>
</svg>
