<svg width="1830" height="867" viewBox="0 0 1830 867" fill="none" xmlns="http://www.w3.org/2000/svg">
<g clip-path="url(#clip0_367_3010)">
<path d="M1556.28 844.193C1607.17 771.191 1724.52 586.715 1702.24 466.678C1673.95 314.243 1507.15 253.487 1255.22 236.415C1003.29 219.343 1076.17 4.47483 863.49 0.11216C643.766 -4.39451 602.383 127.236 514.447 279.608C426.511 431.98 277.026 339.728 165.086 495.68C78.6065 616.16 175.551 777.179 224.124 844.193H1556.28Z" fill="#ECF3FE"/>
<path d="M1829.56 843.554C1829.56 856.319 1420 866.666 914.776 866.666C409.56 866.666 0 856.319 0 843.554C0 830.79 409.56 820.442 914.776 820.442C1420 820.442 1829.56 830.79 1829.56 843.554Z" fill="#B7CAE5"/>
<path d="M726.176 223.326C726.176 216.098 720.316 210.238 713.089 210.238C705.86 210.238 700 216.098 700 223.326C700 230.554 705.86 236.414 713.089 236.414C720.316 236.414 726.176 230.554 726.176 223.326Z" fill="#F4B545"/>
<path d="M705.733 209.904C701.533 212.996 695.62 212.112 692.529 207.911L683.088 195.119C651.165 151.879 592.112 139.723 545.709 166.842C513.646 185.583 493.726 220.301 493.726 257.44V844.193H474.844V257.44C474.844 213.623 498.34 172.66 536.174 150.545C590.932 118.54 660.617 132.891 698.274 183.907L707.716 196.7C710.82 200.888 709.922 206.801 705.733 209.904Z" fill="#B7CAE5"/>
<path d="M692.528 207.912C692.528 207.912 674.795 229.693 684.656 252.479L752.935 202.305C752.935 202.305 733.056 188.687 707.719 196.699L692.528 207.912Z" fill="#B7CAE5"/>
<path d="M1550.24 223.326C1550.24 216.098 1544.39 210.238 1537.16 210.238C1529.93 210.238 1524.07 216.098 1524.07 223.326C1524.07 230.554 1529.93 236.414 1537.16 236.414C1544.39 236.414 1550.24 230.554 1550.24 223.326Z" fill="#F4B545"/>
<path d="M1529.8 209.904C1525.6 212.996 1519.69 212.112 1516.6 207.911L1507.16 195.119C1475.24 151.879 1416.19 139.723 1369.77 166.843C1337.72 185.583 1317.79 220.301 1317.79 257.44V844.193H1298.91V257.44C1298.91 213.623 1322.41 172.66 1360.24 150.545C1415 118.54 1484.68 132.891 1522.35 183.907L1531.79 196.7C1534.89 200.888 1533.99 206.801 1529.8 209.904Z" fill="#B7CAE5"/>
<path d="M1516.6 207.912C1516.6 207.912 1498.87 229.693 1508.72 252.479L1577 202.305C1577 202.305 1557.12 188.687 1531.79 196.699L1516.6 207.912Z" fill="#B7CAE5"/>
<path d="M1015.67 657.006H963.624C911.976 657.006 870.105 698.875 870.105 750.524C870.105 802.174 911.976 844.043 963.624 844.043H1015.67C1067.32 844.043 1109.19 802.174 1109.19 750.524C1109.19 698.875 1067.32 657.006 1015.67 657.006Z" fill="#1F3A6F"/>
<path d="M1447.16 657.006H1395.12C1343.47 657.006 1301.6 698.875 1301.6 750.524C1301.6 802.174 1343.47 844.043 1395.12 844.043H1447.16C1498.81 844.043 1540.68 802.174 1540.68 750.524C1540.68 698.875 1498.81 657.006 1447.16 657.006Z" fill="#1F3A6F"/>
<path d="M1678.36 750.524C1678.36 718.14 1661.91 689.606 1636.89 672.822V657.006H1584.84C1533.2 657.006 1491.33 698.875 1491.33 750.524C1491.33 802.174 1533.2 844.043 1584.84 844.043H1636.89V828.227C1661.91 811.442 1678.36 782.908 1678.36 750.524Z" fill="#1F3A6F"/>
<path d="M1787.07 706.324H1470.96V356.038H1599.83C1617.6 356.038 1633.71 366.451 1641.01 382.648L1704.35 523.231C1704.35 523.231 1787.07 589.863 1787.07 613.531V706.324Z" fill="#B7CAE5"/>
<path d="M1489.31 374.368H1596.13V523.23H1489.31V374.368Z" fill="#92AFCC"/>
<path d="M1684.23 523.23H1607.93V375.633C1615.08 377.906 1621.12 383.133 1624.28 390.174L1684.23 523.23Z" fill="#92AFCC"/>
<path d="M1246.87 750.524C1246.87 718.14 1230.41 689.606 1205.39 672.822V657.006H1153.35C1101.7 657.006 1059.83 698.875 1059.83 750.524C1059.83 802.174 1101.7 844.043 1153.35 844.043H1205.39V828.227C1230.41 811.442 1246.87 782.908 1246.87 750.524Z" fill="#1F3A6F"/>
<path d="M731.938 706.324H964.752V289.56H731.938V706.324Z" fill="#D85D5D"/>
<path d="M964.752 706.324H1470.96V289.56H964.752V706.324Z" fill="#EA6C6C"/>
<path d="M1819.81 706.329V742.637H781.94C765.327 742.637 751.868 729.177 751.868 712.582V706.329H1819.81Z" fill="#92AFCC"/>
<path d="M983.871 706.329C983.871 716.359 979.819 725.418 973.236 732.001C966.671 738.566 957.594 742.637 947.564 742.637H781.94C765.327 742.637 751.868 729.177 751.868 712.582V706.329H983.871Z" fill="#326497"/>
<path d="M1318.9 497.942C1318.9 553.744 1273.66 598.982 1217.86 598.982C1215.13 598.982 1212.41 598.873 1209.73 598.653C1169.39 595.442 1135.74 568.56 1122.67 531.885C1118.87 521.286 1116.82 509.862 1116.82 497.942C1116.82 444.342 1158.53 400.517 1211.29 397.124H1211.31C1213.47 396.978 1215.66 396.904 1217.86 396.904C1244.17 396.904 1268.14 406.972 1286.13 423.457C1306.26 441.922 1318.9 468.457 1318.9 497.942Z" fill="#5693DB"/>
<path d="M751.171 679.006H945.53V316.879H751.171V679.006Z" fill="#326497"/>
<path d="M1298.91 750.524C1298.91 698.875 1257.04 657.006 1205.39 657.006C1153.75 657.006 1111.87 698.875 1111.87 750.524C1111.87 802.174 1153.75 844.043 1205.39 844.043C1257.04 844.043 1298.91 802.174 1298.91 750.524Z" fill="#3177BC"/>
<path d="M1255.22 750.523C1255.22 723.005 1232.91 700.697 1205.39 700.697C1177.87 700.697 1155.57 723.005 1155.57 750.523C1155.57 778.042 1177.87 800.352 1205.39 800.352C1232.91 800.352 1255.22 778.042 1255.22 750.523Z" fill="#B7CAE5"/>
<path d="M1220.68 750.523C1220.68 742.081 1213.84 735.236 1205.39 735.236C1196.95 735.236 1190.11 742.081 1190.11 750.523C1190.11 758.965 1196.95 765.811 1205.39 765.811C1213.84 765.811 1220.68 758.965 1220.68 750.523Z" fill="#1F3A6F"/>
<path d="M945.529 371.988H751.161V316.878H945.529V371.988Z" fill="#B7CAE5"/>
<path d="M862.896 364.854H833.794C832.378 364.854 831.23 363.706 831.23 362.29V360.367C831.23 358.95 832.378 357.803 833.794 357.803H862.896C864.312 357.803 865.46 358.95 865.46 360.367V362.29C865.46 363.706 864.312 364.854 862.896 364.854Z" fill="#92AFCC"/>
<path d="M939.301 350.973H757.389C756.985 350.973 756.657 350.646 756.657 350.242V349.694C756.657 349.289 756.985 348.962 757.389 348.962H939.301C939.704 348.962 940.033 349.289 940.033 349.694V350.242C940.033 350.646 939.704 350.973 939.301 350.973Z" fill="#92AFCC"/>
<path d="M939.301 338.988H757.389C756.985 338.988 756.657 338.662 756.657 338.259V337.71C756.657 337.306 756.985 336.979 757.389 336.979H939.301C939.704 336.979 940.033 337.306 940.033 337.71V338.259C940.033 338.662 939.704 338.988 939.301 338.988Z" fill="#92AFCC"/>
<path d="M939.301 327.004H757.389C756.985 327.004 756.657 326.676 756.657 326.272V325.724C756.657 325.32 756.985 324.993 757.389 324.993H939.301C939.704 324.993 940.033 325.32 940.033 325.724V326.272C940.033 326.676 939.704 327.004 939.301 327.004Z" fill="#92AFCC"/>
<path d="M1747.03 706.328H1787.07V666.284H1776.15C1760.07 666.284 1747.03 679.32 1747.03 695.4V706.328Z" fill="#E59D29"/>
<path d="M1284.93 428.133C1280.2 442.289 1272.36 447.386 1274.32 454.081C1276.28 460.756 1284.15 480.798 1264.49 497.942C1244.85 515.089 1237.77 498.878 1242.48 497.942C1247.2 497.008 1249.18 478.046 1244.06 464.68C1238.95 451.329 1225.98 455.64 1221.67 445.425C1217.34 435.21 1224.42 424.612 1213.81 413.609C1208.93 408.566 1209.39 402.369 1211.29 397.124H1211.31C1213.47 396.978 1215.66 396.904 1217.86 396.904C1244.17 396.904 1268.14 406.972 1286.13 423.457C1285.85 424.997 1285.47 426.556 1284.93 428.133Z" fill="#B7CAE5"/>
<path d="M1243.07 576.079C1237.02 590.564 1218.41 593.206 1209.73 598.652C1169.39 595.442 1135.74 568.559 1122.67 531.884C1125.97 528.438 1128.98 523.78 1129.91 517.728C1132.28 502.399 1135.8 490.535 1147 497.942C1158.2 505.351 1158.2 517.49 1183.55 517.6C1208.89 517.728 1225.39 523.634 1224.81 539.532C1224.22 555.448 1250.74 557.815 1243.07 576.079Z" fill="#B7CAE5"/>
<path d="M1229.15 443.867C1228.44 444.38 1227.7 444.912 1226.99 445.443C1216.21 453.347 1205.44 462.057 1194.93 471.409C1166.81 496.44 1143.46 523.377 1129.2 547.271C1115.85 569.661 1112.03 586.843 1118.76 594.379C1125.89 602.393 1145.33 599.789 1171.06 587.467L1178.54 591.005C1178.21 591.776 1177.61 592.436 1176.8 592.839C1158.77 601.769 1143.59 606.281 1132.07 606.281C1123.8 606.281 1117.44 603.952 1113.28 599.259C1104.15 589.007 1107.58 569.22 1122.91 543.512C1137.54 518.995 1161.4 491.433 1190.06 465.927C1200.75 456.409 1211.71 447.535 1222.7 439.501C1223.41 438.971 1224.15 438.439 1224.86 437.925C1226.51 436.733 1228.8 437.119 1230 438.751C1231.17 440.401 1230.8 442.693 1229.15 443.867Z" fill="white"/>
<path d="M1230.19 449.879L1237.69 433.204L1219.5 435.046L1230.19 449.879Z" fill="white"/>
<path d="M945.529 576.593V679.006H808.052V576.593H945.529Z" fill="#F4B545"/>
<path d="M945.529 576.593V679.006H873.737V576.593H945.529Z" fill="#E59D29"/>
<path d="M918.635 576.593H936.949V605.406H918.635V576.593Z" fill="#F4B545"/>
<path d="M828.733 576.593H847.048V605.406H828.733V576.593Z" fill="#FFC76C"/>
<path d="M945.529 473.811V576.225H855.804V473.811H945.529Z" fill="#F4B545"/>
<path d="M921.471 473.811H945.529V576.225H921.471V473.811Z" fill="#E59D29"/>
<path d="M876.476 473.809H894.791V502.621H876.476V473.809Z" fill="#FFC76C"/>
<path d="M1682.4 675.957H1491.13C1490.12 675.957 1489.31 675.137 1489.31 674.122V512.229C1489.31 511.216 1490.12 510.396 1491.13 510.396C1492.15 510.396 1492.97 511.216 1492.97 512.229V672.289H1680.56V523.229C1680.56 522.216 1681.39 521.394 1682.4 521.394C1683.41 521.394 1684.23 522.216 1684.23 523.229V674.122C1684.23 675.137 1683.41 675.957 1682.4 675.957Z" fill="#92AFCC"/>
<path d="M1730.41 750.524C1730.41 698.875 1688.53 657.006 1636.89 657.006C1585.24 657.006 1543.37 698.875 1543.37 750.524C1543.37 802.174 1585.24 844.043 1636.89 844.043C1688.53 844.043 1730.41 802.174 1730.41 750.524Z" fill="#3177BC"/>
<path d="M1686.72 750.523C1686.72 723.005 1664.41 700.697 1636.89 700.697C1609.37 700.697 1587.07 723.005 1587.07 750.523C1587.07 778.042 1609.37 800.352 1636.89 800.352C1664.41 800.352 1686.72 778.042 1686.72 750.523Z" fill="#B7CAE5"/>
<path d="M1652.17 750.523C1652.17 742.081 1645.33 735.236 1636.89 735.236C1628.45 735.236 1621.6 742.081 1621.6 750.523C1621.6 758.965 1628.45 765.811 1636.89 765.811C1645.33 765.811 1652.17 758.965 1652.17 750.523Z" fill="#1F3A6F"/>
<path d="M396.528 829.399C396.528 821.228 389.904 814.604 381.733 814.604C373.563 814.604 366.94 821.228 366.94 829.399C366.94 837.569 373.563 844.193 381.733 844.193C389.904 844.193 396.528 837.569 396.528 829.399Z" fill="#1F3A6F"/>
<path d="M406.364 811.266H94.4526V826.467H406.364V811.266Z" fill="#5693DB"/>
<path d="M224.355 816.793C221.304 816.793 218.829 814.32 218.829 811.268V597.733C218.829 583.152 206.968 571.292 192.388 571.292H131.944C117.364 571.292 105.503 583.152 105.503 597.733V811.268C105.503 814.32 103.029 816.793 99.9781 816.793C96.9265 816.793 94.4526 814.32 94.4526 811.268V597.733C94.4526 577.06 111.271 560.241 131.944 560.241H192.388C213.061 560.241 229.88 577.06 229.88 597.733V811.268C229.88 814.32 227.405 816.793 224.355 816.793Z" fill="#5693DB"/>
<path d="M271.752 811.266H94.4526V826.467H271.752V811.266Z" fill="#3177BC"/>
<path d="M136.278 829.399C136.278 821.228 129.656 814.604 121.484 814.604C113.314 814.604 106.69 821.228 106.69 829.399C106.69 837.569 113.314 844.193 121.484 844.193C129.656 844.193 136.278 837.569 136.278 829.399Z" fill="#1F3A6F"/>
<path d="M130.694 829.398C130.694 824.313 126.571 820.189 121.484 820.189C116.398 820.189 112.275 824.313 112.275 829.398C112.275 834.485 116.398 838.607 121.484 838.607C126.571 838.607 130.694 834.485 130.694 829.398Z" fill="#5693DB"/>
<path d="M125.515 829.397C125.515 827.172 123.71 825.368 121.484 825.368C119.259 825.368 117.455 827.172 117.455 829.397C117.455 831.623 119.259 833.428 121.484 833.428C123.71 833.428 125.515 831.623 125.515 829.397Z" fill="#B7CAE5"/>
<path d="M259.201 829.399C259.201 821.228 252.577 814.604 244.406 814.604C236.236 814.604 229.612 821.228 229.612 829.399C229.612 837.569 236.236 844.193 244.406 844.193C252.577 844.193 259.201 837.569 259.201 829.399Z" fill="#1F3A6F"/>
<path d="M253.616 829.398C253.616 824.313 249.493 820.189 244.407 820.189C239.32 820.189 235.197 824.313 235.197 829.398C235.197 834.485 239.32 838.607 244.407 838.607C249.493 838.607 253.616 834.485 253.616 829.398Z" fill="#5693DB"/>
<path d="M248.437 829.397C248.437 827.172 246.632 825.368 244.407 825.368C242.181 825.368 240.376 827.172 240.376 829.397C240.376 831.623 242.181 833.428 244.407 833.428C246.632 833.428 248.437 831.623 248.437 829.397Z" fill="#B7CAE5"/>
<path d="M100.056 811.268H309.212V708.856H100.056V811.268Z" fill="#F4B545"/>
<path d="M99.9097 811.268H230.116V708.856H99.9097V811.268Z" fill="#E59D29"/>
<path d="M100.056 745.35H309.26V708.856H100.056V745.35Z" fill="#F4B545"/>
<path d="M309.212 751.166H309.26V745.349H309.212V751.166Z" fill="#ECB95F"/>
<path d="M230.116 751.166H309.212V745.349H230.116V751.166Z" fill="#F48A1A"/>
<path d="M100.056 751.166H230.116V745.349H100.056V751.166Z" fill="#E5770F"/>
<path d="M230.116 745.35H100.056V708.856H230.116V745.35Z" fill="#E59D29"/>
<path d="M148.029 709.291H321.704V606.877H148.029V709.291Z" fill="#F4B545"/>
<path d="M147.908 709.291H256.027V606.878H147.908V709.291Z" fill="#E59D29"/>
<path d="M211.124 606.879H192.81V635.693H211.124V606.879Z" fill="#F4B545"/>
<path d="M301.027 606.879H282.712V635.693H301.027V606.879Z" fill="#FFC76C"/>
<path d="M387.803 811.268H248.533V726.437H387.803V811.268Z" fill="#F4B545"/>
<path d="M248.438 811.268H335.135V726.437H248.438V811.268Z" fill="#E59D29"/>
<path d="M299.13 726.436H284.443V750.303H299.13V726.436Z" fill="#F4B545"/>
<path d="M371.22 726.436H356.533V750.303H371.22V726.436Z" fill="#FFC76C"/>
<path d="M271.836 726.438H393.952V646.092H271.836V726.438Z" fill="#F4B545"/>
<path d="M271.75 726.438H347.772V646.092H271.75V726.438Z" fill="#E59D29"/>
<path d="M271.836 674.721H393.98V646.092H271.836V674.721Z" fill="#F4B545"/>
<path d="M393.952 679.285H393.98V674.72H393.952V679.285Z" fill="#ECB95F"/>
<path d="M347.772 679.285H393.952V674.72H347.772V679.285Z" fill="#F48A1A"/>
<path d="M271.836 679.285H347.772V674.72H271.836V679.285Z" fill="#E5770F"/>
<path d="M347.772 674.721H271.837V646.093H347.772V674.721Z" fill="#E59D29"/>
<path d="M368.156 809.765L367.455 818.815L366.579 830.021L345.481 829.484V825.397L346.445 814.991L346.72 812.067L368.156 809.765Z" fill="#FFD6BB"/>
<path d="M345.477 825.402L341.488 835.38C339.801 839.601 342.911 844.193 347.456 844.193H391.369C392.88 844.193 394.191 843.153 394.533 841.681C394.877 840.2 394.147 838.677 392.777 838.019L366.544 825.402C366.544 825.402 348.411 833.719 345.477 825.402Z" fill="#1F3A6F"/>
<path d="M407.294 829.48V825.393L405.837 816.334L405.728 815.654L405.201 812.14L427.657 809.992L427.997 817.397L428.369 825.404L428.392 830.016L407.294 829.48Z" fill="#FFD6BB"/>
<path d="M407.3 825.402L403.311 835.38C401.624 839.601 404.733 844.193 409.28 844.193H453.192C454.703 844.193 456.013 843.153 456.356 841.681C456.7 840.2 455.971 838.677 454.6 838.019L428.367 825.402C428.367 825.402 410.233 833.719 407.3 825.402Z" fill="#1F3A6F"/>
<path d="M346.72 812.068L368.156 809.766L367.455 818.816C358.539 819.045 350.421 816.504 346.445 814.992L346.72 812.068Z" fill="#FBB188"/>
<path d="M427.997 817.397C419.191 818.537 410.888 817.385 405.837 816.335L405.728 815.654L405.201 812.14L427.657 809.992L427.997 817.397Z" fill="#FBB188"/>
<path d="M352.585 616.144L345.673 812.064C345.673 812.064 359.515 816.669 368.875 812.064L384.317 661.014L404.636 813.597C404.636 813.597 416.633 818.235 429.644 813.597L419.095 620.854C419.095 620.854 382.532 607.918 352.585 616.144Z" fill="#1F3A6F"/>
<path d="M384.317 661.014L387.659 649.25L389.805 702.221L384.317 661.014Z" fill="#072542"/>
<path d="M425.305 429.47C425.305 429.47 434.623 430.598 437.079 419.214L432.576 418.72C432.576 418.72 437.98 416.956 439.461 411.074C439.461 411.074 427.883 412.883 421.74 408.764C415.597 404.646 394.539 399.704 387.109 411.074C387.109 411.074 376.471 417.23 378.039 431.598C379.605 445.966 388.469 452.038 389.883 459.687C391.297 467.335 425.305 429.47 425.305 429.47Z" fill="#1F3A6F"/>
<path d="M425.205 581.07C424.908 597.533 425.422 610.306 425.422 610.306L419.092 620.854C396.898 624.382 352.59 616.145 352.59 616.145L349.008 604.654C349.008 604.654 351.648 601.466 353.454 583.555C353.521 582.766 353.597 581.957 353.674 581.113C354.628 570.411 356.894 541.153 358.801 516.166C360.476 494.291 361.868 475.693 361.868 475.693L379.997 469.197L387.029 466.677L406.78 467.377L410.733 469.317L437.889 482.626C441.634 484.455 444.45 487.762 445.666 491.75L458.197 532.783L426.748 551.133C426.036 558.778 425.62 566.687 425.38 574.147C425.302 576.513 425.248 578.825 425.205 581.07Z" fill="#5693DB"/>
<path d="M410.733 469.317L405.257 482.691L397.392 472.043L388.333 482.351L379.997 469.197L387.029 466.677L406.78 467.377L410.733 469.317Z" fill="#ECF3FE"/>
<path d="M425.303 429.466C425.259 430.638 425.215 431.766 425.139 432.862C424.744 439.214 423.879 444.244 422.827 448.164C421.82 451.954 419.596 455.164 416.65 457.421C413.703 459.689 410.023 461.002 406.1 461.002L406.78 467.377C407.262 471.89 403.712 475.822 399.178 475.822H394.523C389.702 475.822 386.076 471.409 387.03 466.677L388.827 457.716L390.787 447.934C390.787 447.934 384.872 445.502 386.767 438.504C388.651 431.492 394.204 434.505 394.204 434.505L394.326 438.088C394.358 438.92 394.972 439.609 395.792 439.73C396.548 439.85 397.283 439.456 397.611 438.777L400.448 432.917L401.62 425.445L401.895 423.672C409.463 429.456 425.183 429.466 425.303 429.466Z" fill="#FFD6BB"/>
<path d="M384.511 573.961H511.305V511.875H384.511V573.961Z" fill="#F4B545"/>
<path d="M384.421 573.961H463.356V511.875H384.421V573.961Z" fill="#E59D29"/>
<path d="M384.511 533.998H511.335V511.876H384.511V533.998Z" fill="#F4B545"/>
<path d="M511.305 537.525H511.335V533.997H511.305V537.525Z" fill="#ECB95F"/>
<path d="M463.356 537.525H511.305V533.997H463.356V537.525Z" fill="#F48A1A"/>
<path d="M384.511 537.525H463.356V533.997H384.511V537.525Z" fill="#E5770F"/>
<path d="M463.356 533.998H384.509V511.877H463.356V533.998Z" fill="#E59D29"/>
<path d="M429.444 576.073L428.501 581.112C428.501 581.112 427.209 581.112 425.204 581.069C419.585 580.959 408.391 580.532 404.863 578.932C404.863 578.932 374.301 582.636 361.605 579.655C361.605 579.655 357.212 579.141 353.455 583.555C353.521 582.765 353.597 581.956 353.675 581.112C354.628 570.411 356.895 541.153 358.801 516.165L363.775 520.855L360.843 542.367C360.463 545.161 362.065 547.849 364.705 548.843L400.251 562.216L425.38 574.147L429.444 576.073Z" fill="#3177BC"/>
<path d="M439.467 574.279C434.811 578.068 425.237 579.656 425.237 579.656L403.899 576.7L402.649 563.37L404.863 563.588L409.781 564.07L418.851 562.404C420.439 562.327 424.076 561.079 425.653 560.443C426.649 560.039 427.724 560.936 427.449 561.978C426.989 563.698 425.96 565.34 424.811 566.162C423.123 567.367 419.464 570.412 419.464 570.412C422.707 572.778 430.309 573.699 435.151 574.059H435.161C437.692 574.246 439.467 574.279 439.467 574.279Z" fill="#FFD6BB"/>
<path d="M406.103 460.998C406.103 460.998 400.245 460.381 396.783 455.099C396.783 455.099 398.424 462.994 406.568 465.385L406.103 460.998Z" fill="#FBB188"/>
<path d="M419.464 570.412C418.363 569.527 418.449 567.823 419.635 567.053L427.449 561.977C426.989 563.697 425.96 565.34 424.811 566.161C423.123 567.367 419.464 570.412 419.464 570.412Z" fill="#FBB188"/>
<path d="M439.467 574.279C434.811 578.068 425.237 579.656 425.237 579.656L403.899 576.7L402.649 563.37L404.863 563.588C403.472 570.062 404.863 574.662 404.863 574.662C404.863 574.662 408.729 576.13 416.54 576.776C424.252 577.4 434.855 574.158 435.151 574.059H435.161C437.692 574.246 439.467 574.279 439.467 574.279Z" fill="#FBB188"/>
<path d="M361.867 475.693L357.473 476.892C352.877 478.148 349.231 481.648 347.789 486.188L328.493 546.948C325.019 557.889 331.909 569.426 343.2 571.497C358.556 574.314 380.672 577.268 403.899 576.701C403.899 576.701 402.519 570.748 404.867 563.589L352.449 548.044L363.775 520.854C363.775 520.854 371.941 481.256 361.867 475.693Z" fill="#5693DB"/>
<path d="M390.787 447.933L392.507 447.659L388.827 457.715L390.787 447.933Z" fill="#FBB188"/>
<path d="M425.303 429.465C425.259 430.637 425.215 431.765 425.139 432.861C419.409 432.127 406.593 430.024 401.62 425.444L401.895 423.671C409.463 429.455 425.183 429.465 425.303 429.465Z" fill="#FBB188"/>
<path d="M511.336 545.774L497.68 544.37C496.589 544.258 495.661 545.155 495.737 546.248L496.519 557.536C496.589 558.554 497.291 559.419 498.272 559.698L511.336 563.408L513.272 562.038L514.447 547.946L511.336 545.774Z" fill="#FFD6BB"/>
<path d="M627.066 805.13L624.791 812.136L622.316 819.746L616.246 829.537L600.715 822.458V816.609L604.346 803.663L605.519 799.5L627.066 805.13Z" fill="#FFD6BB"/>
<path d="M600.716 816.607L596.535 827.065C594.767 831.489 597.804 834.093 602.791 836.303L620.167 844.193H643.348C644.929 844.193 646.305 843.101 646.663 841.56C647.024 840.008 646.259 838.414 644.823 837.721L633.36 832.208L622.323 819.745C622.323 819.745 603.791 825.324 600.716 816.607Z" fill="#1F3A6F"/>
<path d="M627.065 805.131L624.791 812.137C616.411 812.301 607.976 806.507 604.345 803.664L605.519 799.501L627.065 805.131Z" fill="#FBB188"/>
<path d="M679.391 828.773V824.491L677.864 814.996L677.749 814.285L677.199 810.598L700.733 808.349L701.089 816.11L701.479 824.503L701.501 829.336L679.391 828.773Z" fill="#FFD6BB"/>
<path d="M679.396 824.497L675.216 834.956C673.447 839.381 676.706 844.193 681.472 844.193H727.495C729.078 844.193 730.452 843.101 730.811 841.56C731.171 840.008 730.407 838.414 728.971 837.721L701.476 824.497C701.476 824.497 682.472 833.216 679.396 824.497Z" fill="#1F3A6F"/>
<path d="M701.089 816.109C691.859 817.304 683.156 816.097 677.864 814.994L677.749 814.284L677.199 810.597L700.733 808.348L701.089 816.109Z" fill="#FBB188"/>
<path d="M622.052 605.181L617.844 724.465L603.368 799.865C603.368 799.865 619.494 812.939 629.303 808.112L650.915 722.848L655.31 652.209L676.604 812.125C676.604 812.125 689.179 816.985 702.814 812.125L691.758 610.117C691.758 610.117 653.436 596.56 622.052 605.181Z" fill="#1F3A6F"/>
<path d="M655.31 652.21L658.811 639.881L661.06 695.398L655.31 652.21Z" fill="#072542"/>
<path d="M698.161 568.422C697.852 585.677 698.391 599.062 698.391 599.062L691.755 610.118C668.496 613.816 622.057 605.182 622.057 605.182L618.303 593.14C618.303 593.14 621.069 589.798 622.964 571.028C623.033 570.201 623.113 569.352 623.193 568.468C624.193 557.252 626.569 526.586 628.567 500.4C630.323 477.473 631.781 457.98 631.781 457.98L650.781 451.17L658.151 448.532L678.851 449.265L682.995 451.297L711.456 465.246C715.381 467.164 718.332 470.63 719.607 474.81L732.741 517.816L699.78 537.046C699.033 545.058 698.597 553.348 698.345 561.165C698.264 563.646 698.207 566.068 698.161 568.422Z" fill="#5693DB"/>
<path d="M738.763 558.711L741.7 563.992C741.7 563.992 747.144 567.956 759.945 565.221L765.393 557.907L738.763 558.711Z" fill="#FBB188"/>
<path d="M682.995 451.298L677.255 465.316L669.012 454.156L659.519 464.96L650.781 451.171L658.151 448.532L678.851 449.266L682.995 451.298Z" fill="#ECF3FE"/>
<path d="M655.511 560.973H788.401V495.903H655.511V560.973Z" fill="#F4B545"/>
<path d="M655.419 560.973H738.147V495.903H655.419V560.973Z" fill="#E59D29"/>
<path d="M788.432 519.09H655.511V495.903H788.432V519.09Z" fill="#F4B545"/>
<path d="M788.401 522.785H788.432V519.089H788.401V522.785Z" fill="#324C38"/>
<path d="M738.146 522.785H788.401V519.089H738.146V522.785Z" fill="#F48A1A"/>
<path d="M655.511 522.785H738.147V519.089H655.511V522.785Z" fill="#E5770F"/>
<path d="M738.145 519.09H655.511V495.903H738.145V519.09Z" fill="#E59D29"/>
<path d="M702.604 563.188L701.617 568.469C701.617 568.469 700.261 568.469 698.161 568.424C692.271 568.309 680.539 567.861 676.841 566.184C676.841 566.184 644.811 570.065 631.505 566.941C631.505 566.941 626.901 566.403 622.964 571.029C623.033 570.203 623.113 569.353 623.193 568.469C624.193 557.253 626.569 526.588 628.567 500.401L633.779 505.316L630.707 527.86C630.308 530.791 631.987 533.607 634.755 534.648L672.009 548.665L698.345 561.167L702.604 563.188Z" fill="#3177BC"/>
<path d="M713.108 561.305C708.229 565.277 698.196 566.941 698.196 566.941L675.832 563.843L674.522 549.871L676.841 550.1L681.996 550.605L691.502 548.861C693.166 548.78 696.979 547.472 698.632 546.805C699.676 546.38 700.802 547.321 700.514 548.413C700.033 550.215 698.953 551.937 697.748 552.799C695.978 554.061 692.145 557.253 692.145 557.253C695.542 559.732 703.51 560.697 708.586 561.076H708.596C711.249 561.271 713.108 561.305 713.108 561.305Z" fill="#FFD6BB"/>
<path d="M692.145 557.252C690.99 556.323 691.081 554.539 692.323 553.732L700.514 548.412C700.033 550.213 698.953 551.936 697.748 552.797C695.978 554.06 692.145 557.252 692.145 557.252Z" fill="#FBB188"/>
<path d="M713.108 561.305C708.229 565.277 698.196 566.941 698.196 566.941L675.832 563.843L674.522 549.871L676.841 550.1C675.384 556.885 676.841 561.708 676.841 561.708C676.841 561.708 680.894 563.245 689.08 563.923C697.162 564.577 708.274 561.179 708.586 561.076H708.596C711.249 561.271 713.108 561.305 713.108 561.305Z" fill="#FBB188"/>
<path d="M631.778 457.981L627.175 459.237C622.359 460.553 618.536 464.221 617.025 468.981L596.801 532.661C593.16 544.129 600.383 556.219 612.216 558.389C628.311 561.343 651.489 564.439 675.832 563.844C675.832 563.844 674.385 557.604 676.847 550.1L621.909 533.809L633.778 505.313C633.778 505.313 642.338 463.812 631.778 457.981Z" fill="#5693DB"/>
<path d="M645.961 405.651C645.961 405.651 644.611 426.451 660.548 439.024C676.485 451.597 671.739 401.336 671.739 401.336L645.961 405.651Z" fill="#1F3A6F"/>
<path d="M691.74 431.156C690.8 433.964 689.004 436.306 686.703 437.948C684.416 439.59 681.609 440.53 678.648 440.53L678.873 450.296L678.901 449.302V449.554C678.901 455.56 674.033 460.457 667.984 460.457C661.559 460.457 656.637 454.929 657.225 448.532L657.489 446.9L659.229 428.14C655.777 429.376 651.133 419.005 653.715 414.137C656.297 409.254 660.956 412.074 660.956 412.074C661.279 413.49 662.288 414.978 663.172 416.058C663.748 416.761 664.884 416.493 665.081 415.609L666.385 410.04L667.129 406.826H694.265C694.308 407.934 694.336 409.001 694.349 410.04C694.489 419.384 693.535 425.824 691.74 431.156Z" fill="#FFD6BB"/>
<path d="M694.26 406.828C694.26 406.828 692.251 385.353 670.369 385.353C648.489 385.353 645.961 405.649 645.961 405.649L667.124 406.828H694.26Z" fill="#EA6C6C"/>
<path d="M709.161 404.069H668.127C667.573 404.069 667.124 404.519 667.124 405.072V405.825C667.124 406.379 667.573 406.828 668.127 406.828H709.161C709.715 406.828 710.164 406.379 710.164 405.825V405.072C710.164 404.519 709.715 404.069 709.161 404.069Z" fill="#D85D5D"/>
<path d="M659.229 428.14L661.685 426.512L657.504 446.9H657.489L659.229 428.14Z" fill="#FBB188"/>
<path d="M678.648 440.532L678.873 450.297L678.648 450.254C678.648 450.254 670.244 445.456 667.549 434.918C667.549 434.918 672.068 440.558 678.648 440.532Z" fill="#FBB188"/>
<path d="M694.349 410.041H666.385L667.129 406.828H694.265C694.308 407.936 694.336 409.002 694.349 410.041Z" fill="#FBB188"/>
<path d="M902.72 179.641C881.048 179.641 863.49 162.082 863.49 140.411C863.49 118.739 881.048 101.181 902.72 101.181C924.383 101.181 941.95 118.739 941.95 140.411C941.95 162.082 924.383 179.641 902.72 179.641ZM900.571 68.9539C863.951 70.0272 833.619 99.3232 831.37 135.89C830.043 157.475 838.296 177.143 852.279 191.069L893.696 247.889C898.155 254.009 907.284 254.009 911.744 247.889L953.16 191.069C966.162 178.122 974.208 160.211 974.208 140.411C974.208 100.214 941.035 67.7686 900.571 68.9539Z" fill="#F4B545"/>
<path d="M1035.38 214.05L1039.24 227.82C1039.5 228.72 1040.2 229.424 1041.1 229.678L1054.87 233.538C1057.48 234.268 1057.48 237.967 1054.87 238.699L1041.1 242.559C1040.2 242.811 1039.5 243.515 1039.24 244.415L1035.38 258.186C1034.65 260.795 1030.95 260.795 1030.22 258.186L1026.36 244.415C1026.11 243.515 1025.41 242.811 1024.51 242.559L1010.73 238.699C1008.13 237.967 1008.13 234.268 1010.73 233.538L1024.51 229.678C1025.41 229.424 1026.11 228.72 1026.36 227.82L1030.22 214.05C1030.95 211.442 1034.65 211.442 1035.38 214.05Z" fill="#F4B545"/>
<path d="M557.266 214.05L561.127 227.82C561.379 228.72 562.082 229.424 562.982 229.678L576.755 233.538C579.363 234.268 579.363 237.967 576.755 238.699L562.982 242.559C562.082 242.811 561.379 243.515 561.127 244.415L557.266 258.186C556.534 260.795 552.837 260.795 552.105 258.186L548.245 244.415C547.992 243.515 547.288 242.811 546.388 242.559L532.617 238.699C530.009 237.967 530.009 234.268 532.617 233.538L546.388 229.678C547.288 229.424 547.992 228.72 548.245 227.82L552.105 214.05C552.837 211.442 556.534 211.442 557.266 214.05Z" fill="#F4B545"/>
<path d="M294.367 525.097L298.227 538.868C298.479 539.767 299.183 540.472 300.084 540.724L313.855 544.585C316.463 545.316 316.463 549.013 313.855 549.745L300.084 553.605C299.183 553.859 298.479 554.561 298.227 555.463L294.367 569.233C293.635 571.841 289.937 571.841 289.205 569.233L285.345 555.463C285.092 554.561 284.389 553.859 283.488 553.605L269.719 549.745C267.109 549.013 267.109 545.316 269.719 544.585L283.488 540.724C284.389 540.472 285.092 539.767 285.345 538.868L289.205 525.097C289.937 522.488 293.635 522.488 294.367 525.097Z" fill="#F4B545"/>
<path d="M1536.13 319.744C1536.13 326.407 1530.73 331.807 1524.07 331.807C1517.41 331.807 1512.01 326.407 1512.01 319.744C1512.01 313.083 1517.41 307.681 1524.07 307.681C1530.73 307.681 1536.13 313.083 1536.13 319.744Z" fill="#B7CAE5"/>
<path d="M604.268 371.987C604.268 378.649 598.867 384.049 592.205 384.049C585.543 384.049 580.143 378.649 580.143 371.987C580.143 365.323 585.543 359.923 592.205 359.923C598.867 359.923 604.268 365.323 604.268 371.987Z" fill="#B7CAE5"/>
<path d="M265.679 475.693C265.679 482.355 260.279 487.756 253.616 487.756C246.953 487.756 241.553 482.355 241.553 475.693C241.553 469.031 246.953 463.629 253.616 463.629C260.279 463.629 265.679 469.031 265.679 475.693Z" fill="#B7CAE5"/>
<path d="M777.456 101.18C777.456 107.843 772.056 113.244 765.393 113.244C758.732 113.244 753.331 107.843 753.331 101.18C753.331 94.5188 758.732 89.1175 765.393 89.1175C772.056 89.1175 777.456 94.5188 777.456 101.18Z" fill="#B7CAE5"/>
</g>
<defs>
<clipPath id="clip0_367_3010">
<rect width="1829.56" height="866.667" fill="white"/>
</clipPath>
</defs>
</svg>
