<svg width="1370" height="1212" viewBox="0 0 1370 1212" fill="none" xmlns="http://www.w3.org/2000/svg">
<g clip-path="url(#clip0_369_3560)">
<path d="M46.9094 639.311C46.9094 639.311 83.9313 624.312 130.918 669.804C101.151 684.749 69.161 687.545 46.9094 639.311Z" fill="#9595CE"/>
<path d="M147.264 596.252C147.264 596.252 118.125 614.31 125.856 669.902C151.284 656.844 169.42 636.093 147.264 596.252Z" fill="#9595CE"/>
<path d="M22.7473 568.851C22.7473 568.851 55.3473 562.574 86.3453 607.223C59.6708 614.623 33.1364 611.761 22.7473 568.851Z" fill="#9595CE"/>
<path d="M100.906 534.872C100.906 534.872 73.3426 553.377 82.7854 606.906C106.933 593.37 123.753 572.649 100.906 534.872Z" fill="#9595CE"/>
<path d="M0 523.581C0 523.581 21.2145 515.302 47.6688 541.579C30.5907 549.882 12.3333 551.241 0 523.581Z" fill="#9595CE"/>
<path d="M53.635 500.416C53.635 500.416 39.8563 510.363 47.1865 541.82C61.0782 533.01 68.4115 522.095 53.635 500.416Z" fill="#9595CE"/>
<path d="M90.9885 705.859C90.9885 705.859 134.24 680.577 181.227 726.069C161.659 745.998 130.708 757.088 90.9885 705.859Z" fill="#9595CE"/>
<path d="M187.845 647.865C187.845 647.865 154.503 675.412 177.417 727.012C199.385 717.073 217.568 695.278 187.845 647.865Z" fill="#9595CE"/>
<path d="M137.301 767.74C137.301 767.74 174.113 733.756 229.775 768.095C214.945 791.763 187.097 809.241 137.301 767.74Z" fill="#9595CE"/>
<path d="M247.976 677.985C247.976 677.985 205.728 704.914 224.736 767.49C251.404 759.188 275.405 736.718 247.976 677.985Z" fill="#9595CE"/>
<path d="M28.7334 500.317C29.099 506.374 31.4495 512.309 33.7006 517.87C37.2459 526.628 41.3751 535.142 45.6787 543.549C56.4688 564.624 68.3979 585.125 80.7017 605.346C91.6861 623.401 102.971 641.322 115.099 658.637C120.969 667.017 127.309 675.017 133.732 682.978C144.896 696.812 156.46 710.345 168.873 723.078C181.164 735.684 194.304 747.465 208.505 757.886C223.7 769.037 240.16 778.266 256.809 787.037C260.869 789.178 264.944 791.293 269.017 793.408C272.896 795.421 276.34 789.554 272.451 787.536C255.799 778.892 239.109 770.228 223.391 759.948C208.66 750.313 195.064 739.112 182.384 726.92C169.719 714.74 157.967 701.642 146.721 688.149C141.153 681.47 135.708 674.69 130.327 667.86C129.747 667.122 129.166 666.385 128.589 665.646C128.434 665.448 127.766 664.574 128.437 665.454C127.953 664.818 127.468 664.185 126.989 663.545C126 662.228 125.026 660.897 124.063 659.56C112.375 643.345 101.655 626.402 91.1604 609.4C78.7282 589.258 66.7068 568.832 55.6172 547.917C50.9751 539.161 46.4771 530.312 42.4636 521.248C42.0484 520.31 41.6418 519.37 41.2375 518.429C41.1844 518.305 40.8276 517.457 41.1584 518.245C41.0902 518.081 41.0203 517.917 40.9527 517.753C40.7198 517.19 40.4864 516.628 40.2579 516.062C39.5912 514.416 38.95 512.758 38.3495 511.086C37.3636 508.34 36.4527 505.544 35.8683 502.68C35.7574 502.14 35.724 501.554 35.5776 501.025C35.936 502.32 35.5615 500.784 35.5334 500.317C35.2703 495.969 28.4683 495.94 28.7334 500.317Z" fill="#B4BDED"/>
<path d="M223.329 762.877C220.845 764.708 217.875 765.849 214.984 766.86C211.136 768.204 207.185 769.267 203.205 770.144C194.681 772.02 186.405 772.54 177.716 771.476C171.452 770.707 165.288 769.128 159.456 766.713C157.081 765.731 156.044 769.599 158.393 770.571C168.305 774.673 179.703 776.66 190.432 776.064C198.672 775.605 207.023 773.72 214.839 771.128C218.432 769.936 222.271 768.6 225.348 766.332C227.399 764.82 225.405 761.348 223.329 762.877Z" fill="#B4BDED"/>
<path d="M241.96 697.191C241.38 709.432 240.337 721.856 237.699 733.848C235.423 744.184 231.552 754.401 223.897 761.976C222.065 763.788 224.893 766.616 226.727 764.804C234.725 756.888 239.004 746.243 241.44 735.428C244.255 722.94 245.356 709.953 245.96 697.191C246.081 694.616 242.081 694.623 241.96 697.191Z" fill="#B4BDED"/>
<path d="M173.648 722.899C164.456 724.876 154.513 723.055 145.529 720.856C136.153 718.561 126.936 715.373 118.15 711.371C115.825 710.312 113.79 713.757 116.132 714.825C125.391 719.044 135.076 722.455 144.969 724.835C154.539 727.139 164.949 728.856 174.712 726.756C177.228 726.215 176.163 722.359 173.648 722.899Z" fill="#B4BDED"/>
<path d="M186.243 659.267C187.287 667.525 187.203 675.983 186.601 684.269C185.911 693.774 184.493 703.678 180.684 712.487C178.98 716.427 176.665 720.477 173.172 723.099C171.137 724.627 173.129 728.101 175.191 726.553C182.448 721.102 185.78 711.845 187.811 703.321C190.196 693.314 191.039 682.889 191 672.619C190.983 668.163 190.801 663.691 190.243 659.267C189.923 656.749 185.92 656.715 186.243 659.267Z" fill="#B4BDED"/>
<path d="M144.381 602.46C144.033 611.652 143.067 620.591 140.728 629.496C138.473 638.08 135.511 646.539 131.738 654.576C129.861 658.576 127.773 662.495 125.27 666.141C123.809 668.268 127.273 670.271 128.723 668.16C133.503 661.201 136.928 653.296 139.865 645.415C142.94 637.159 145.487 628.597 146.885 619.887C147.809 614.135 148.161 608.277 148.381 602.46C148.479 599.887 144.479 599.891 144.381 602.46Z" fill="#B4BDED"/>
<path d="M58.0886 647.128C60.5668 650.496 64.1485 652.88 67.7704 654.876C72.5558 657.513 77.672 659.569 82.8178 661.383C93.2037 665.047 104.033 667.845 114.932 669.465C118.818 670.043 122.903 670.692 126.828 670.12C129.365 669.751 128.286 665.896 125.764 666.263C126.379 666.173 125.591 666.276 125.429 666.285C125.117 666.304 124.806 666.319 124.494 666.325C123.75 666.341 123.003 666.316 122.26 666.276C120.515 666.183 118.775 665.995 117.044 665.759C112.174 665.093 107.341 664.1 102.56 662.967C92.1449 660.496 81.6028 657.403 72.0064 652.588C68.3146 650.735 63.896 648.309 61.5422 645.108C60.0334 643.056 56.5605 645.049 58.0886 647.128Z" fill="#B4BDED"/>
<path d="M97.497 546.724C97.5864 547.103 97.6542 547.486 97.7104 547.871C97.65 547.452 97.7235 548.002 97.7375 548.14C97.7678 548.44 97.7959 548.74 97.8194 549.042C97.9208 550.36 97.9531 551.684 97.9558 553.007C97.962 556.548 97.7364 560.091 97.362 563.611C96.4855 571.854 94.8084 580.346 91.3896 587.94C89.6511 591.802 87.4422 595.484 84.2812 598.347C82.3694 600.08 85.2052 602.902 87.1099 601.176C93.3751 595.502 96.5922 586.938 98.6594 578.948C100.743 570.896 101.84 562.476 101.948 554.162C101.986 551.36 102.005 548.404 101.354 545.66C100.76 543.156 96.9027 544.216 97.497 546.724Z" fill="#B4BDED"/>
<path d="M31.812 578.083C35.6708 581.782 40.1838 584.961 44.5421 588.025C51.9234 593.212 59.8035 598.004 68.3327 601.051C72.5989 602.575 77.2125 603.662 81.7697 603.311C84.3197 603.114 84.3411 599.112 81.7697 599.311C73.7084 599.932 65.6344 596.056 58.765 592.264C51.9218 588.487 45.4281 584.019 39.3062 579.163C37.7234 577.908 36.101 576.654 34.6401 575.255C32.7812 573.474 29.9484 576.298 31.812 578.083Z" fill="#B4BDED"/>
<path d="M51.0636 511.194C52.7177 516.566 51.8874 522.179 50.6806 527.555C49.7817 531.558 48.564 536.191 44.8245 538.462C42.627 539.797 44.6349 543.257 46.8432 541.915C51.4088 539.143 53.3016 533.997 54.4448 529.03C55.8672 522.85 56.8245 516.315 54.9208 510.13C54.1656 507.677 50.303 508.723 51.0636 511.194Z" fill="#B4BDED"/>
<path d="M6.69993 529.605C8.59577 531.003 10.7968 532.007 12.9364 532.969C16.0327 534.361 19.1978 535.603 22.3917 536.755C28.9254 539.113 35.6661 541.283 42.5259 542.459C44.9021 542.867 47.6535 543.393 50.0327 542.701C52.4994 541.983 51.4499 538.122 48.9687 538.843C48.8333 538.883 48.6963 538.925 48.5567 538.947C48.2395 538.998 48.8421 538.938 48.353 538.971C47.8874 539.003 47.4218 539.006 46.9551 538.987C45.9239 538.949 44.8999 538.821 43.8827 538.651C40.8139 538.145 37.7863 537.381 34.7937 536.542C28.3145 534.726 21.8718 532.55 15.7057 529.847C13.314 528.799 10.8317 527.709 8.71868 526.15C6.64577 524.621 4.64837 528.09 6.69993 529.605Z" fill="#B4BDED"/>
<path d="M308.34 467.82C308.34 467.82 312.812 478.163 288.547 481.54C264.283 484.917 276.451 476.959 276.451 476.959L281.637 475.64C281.637 475.64 279.696 471.924 286.827 463.429C293.956 454.936 308.34 467.82 308.34 467.82Z" fill="#F8A17A"/>
<path d="M291.032 274.336C300.639 277.425 460.247 327.943 501.884 341.12C508.103 343.088 513.001 347.883 515.117 354.053L530.471 398.812C532.215 403.897 531.899 409.464 529.591 414.319L491.761 493.911C487.643 502.577 478.08 507.245 468.713 505.161L246.709 455.777C235.497 453.284 228.5 442.091 231.167 430.919L265.089 288.857C266.925 281.161 272.955 274.909 280.745 273.528C283.755 272.995 287.197 273.101 291.032 274.336Z" fill="#7A79CC"/>
<path d="M432.636 401.172C430.663 408.513 427.295 415.101 422.896 420.734L325.111 394.446C324.129 387.366 324.519 379.978 326.492 372.637C334.373 343.321 364.521 325.949 393.828 333.828C423.144 341.709 440.516 371.856 432.636 401.172Z" fill="#2A2A7C"/>
<path d="M423.077 398.604C421.065 406.089 417.283 412.625 412.297 417.887L335.709 397.297C334.033 390.247 334.039 382.693 336.051 375.208C342.511 351.176 367.227 336.927 391.259 343.388C415.291 349.848 429.537 374.572 423.077 398.604Z" fill="#C4C3FC"/>
<path d="M374.788 409.656C369.851 408.329 366.924 403.251 368.252 398.313C369.579 393.377 374.657 390.451 379.593 391.779C384.531 393.105 387.456 398.183 386.129 403.12C384.803 408.057 379.725 410.983 374.788 409.656ZM382.043 382.668C372.075 379.988 361.821 385.896 359.141 395.865C356.461 405.833 362.369 416.087 372.339 418.767C382.307 421.447 392.561 415.537 395.24 405.569C397.92 395.601 392.011 385.347 382.043 382.668Z" fill="#5851BC"/>
<path d="M398.104 409.658L392.26 408.088L393.924 401.898L399.768 403.47L398.104 409.658Z" fill="#5851BC"/>
<path d="M399.772 398.003L393.925 399.564L392.272 393.374L398.119 391.811L399.772 398.003Z" fill="#5851BC"/>
<path d="M395.391 387.077L391.107 391.352L386.58 386.817L390.863 382.541L395.391 387.077Z" fill="#5851BC"/>
<path d="M386.131 379.804L384.56 385.648L378.371 383.984L379.943 378.14L386.131 379.804Z" fill="#5851BC"/>
<path d="M374.476 378.137L376.037 383.983L369.847 385.637L368.285 379.789L374.476 378.137Z" fill="#5851BC"/>
<path d="M363.549 382.517L367.825 386.801L363.289 391.328L359.013 387.046L363.549 382.517Z" fill="#5851BC"/>
<path d="M356.277 391.778L362.121 393.349L360.457 399.537L354.613 397.966L356.277 391.778Z" fill="#5851BC"/>
<path d="M354.609 403.432L360.456 401.87L362.109 408.062L356.263 409.623L354.609 403.432Z" fill="#5851BC"/>
<path d="M358.992 414.359L363.275 410.083L367.803 414.617L363.519 418.895L358.992 414.359Z" fill="#5851BC"/>
<path d="M368.251 421.631L369.821 415.786L376.011 417.45L374.439 423.295L368.251 421.631Z" fill="#5851BC"/>
<path d="M379.905 423.299L378.343 417.452L384.535 415.799L386.096 421.646L379.905 423.299Z" fill="#5851BC"/>
<path d="M390.832 418.916L386.556 414.633L391.091 410.105L395.368 414.389L390.832 418.916Z" fill="#5851BC"/>
<path d="M367.26 401.913L371.112 408.886C372.537 411.467 375.885 412.246 378.303 410.558L432.469 372.734L369.953 394.83C367.061 395.853 365.777 399.228 367.26 401.913Z" fill="#F80303"/>
<path d="M379.803 401.916C379.141 403.357 377.436 403.99 375.993 403.33C374.552 402.669 373.919 400.964 374.579 399.521C375.24 398.078 376.945 397.445 378.388 398.106C379.831 398.768 380.464 400.473 379.803 401.916Z" fill="white"/>
<path d="M252.807 420.153C252.807 420.153 448.897 475.737 457.985 454.936C462.18 435.185 463.229 430.99 463.229 430.99C463.229 430.99 465.327 431.184 464.627 435.63C463.928 440.078 453.092 481.324 474.064 492.16C495.037 502.996 475.812 498.801 475.812 498.801C475.812 498.801 257.7 451.613 252.807 446.72C247.912 441.826 250.311 419.452 252.807 420.153Z" fill="white"/>
<path d="M254.429 313.353C254.429 313.353 263.193 351.326 245.667 354.247C228.14 357.169 233.981 374.694 233.981 374.694L196.008 377.615C196.008 377.615 204.772 365.931 204.772 360.09C204.772 354.247 196.008 342.805 196.008 325.037C196.008 298.747 204.772 292.905 213.535 289.983C222.297 287.062 248.588 284.142 254.429 313.353Z" fill="#F8A17A"/>
<path d="M289.18 482.65C289.18 482.65 212.52 507.478 203.425 505.86C187.804 504.018 173.075 476.066 166.993 462.788C160.912 449.508 146.68 413.169 154.215 399.982C161.749 386.797 181.332 387.466 191.152 406.101C200.972 424.736 209.675 476.01 214.808 478.801C219.941 481.59 276.348 475.676 280.309 474.505C284.271 473.333 289.18 482.65 289.18 482.65Z" fill="#6691DD"/>
<path d="M364.639 932.613C364.639 942.088 302.683 949.768 226.256 949.768C149.829 949.768 87.874 942.088 87.874 932.613C87.874 923.14 149.829 915.458 226.256 915.458C302.683 915.458 364.639 923.14 364.639 932.613Z" fill="#B4BDED"/>
<path d="M333.297 920.929C333.297 920.929 333.733 921.178 334.415 921.613C338.396 924.153 350.76 933.04 333.297 935.533C312.851 938.456 295.324 935.533 280.719 935.533C266.113 935.533 266.113 935.533 269.035 923.85C271.956 912.166 274.876 897.561 274.876 891.718C274.876 885.876 289.481 885.876 289.481 885.876C289.481 885.876 289.481 906.324 295.324 909.245C301.167 912.166 324.535 915.088 333.297 920.929Z" fill="#2A2A7C"/>
<path d="M172.64 932.613C172.64 932.613 190.167 932.613 184.324 923.851C178.481 915.088 166.799 915.088 158.035 912.167C149.272 909.245 140.508 900.481 140.508 891.719C140.508 882.956 131.746 885.876 131.746 885.876C131.746 885.876 131.746 903.403 125.903 912.167C120.061 920.929 117.14 932.613 122.982 932.613C128.825 932.613 172.64 932.613 172.64 932.613Z" fill="#2A2A7C"/>
<path d="M295.324 894.641L271.956 900.482C271.956 900.482 245.667 818.694 242.745 742.746C239.824 704.773 210.613 640.51 210.613 640.51C210.613 640.51 181.403 728.142 178.481 745.668C175.561 763.194 149.272 885.877 149.272 891.72C149.272 897.562 131.746 900.482 125.903 891.72C120.062 839.141 128.825 792.405 134.667 766.114C140.508 739.825 152.193 681.405 149.272 652.194C146.351 622.984 146.351 587.93 158.035 573.326C181.403 582.089 266.113 573.326 266.113 573.326C266.113 573.326 280.719 611.3 283.64 649.273C286.561 687.248 295.324 894.641 295.324 894.641Z" fill="#0B2D4E"/>
<path d="M274.876 576.246C274.876 576.246 213.535 608.378 149.272 576.246C158.035 526.589 158.035 462.326 155.115 453.562C155.115 453.562 140.508 406.826 149.272 398.062C158.035 389.3 193.088 371.773 196.008 371.773C198.929 371.773 225.219 377.616 239.824 371.773C260.272 386.378 274.876 403.905 271.956 430.194C269.035 456.484 266.113 514.905 269.035 532.43C271.956 549.957 274.876 576.246 274.876 576.246Z" fill="#6691DD"/>
<path d="M261.732 300.207C263.193 313.352 251.508 319.194 251.508 330.878C251.508 342.562 239.824 336.72 242.745 325.036C245.667 313.352 235.443 314.812 232.521 323.575C227.812 337.706 231.061 360.09 200.391 346.944C178.251 337.455 188.705 311.892 191.627 303.128C194.548 294.366 194.548 285.602 214.996 279.76C244.319 271.382 260.272 287.062 261.732 300.207Z" fill="#0B2D4E"/>
<path d="M162.903 467.398C162.133 465.678 159.427 462.033 157.557 462.273C157.103 462.33 156.699 462.396 156.315 462.465C157.781 483.68 156.553 534.989 149.272 576.248C158.479 580.85 167.619 584.098 176.533 586.348C174.42 506.312 173.996 492.213 162.903 467.398Z" fill="#B4BDED"/>
<path d="M269.435 421.718C258.273 422.094 260.055 427.464 260.516 429.049C262.996 437.549 260.196 458.95 262.145 467.586C263.725 474.58 265.025 481.776 268.183 488.176C268.861 467.068 270.408 444.121 271.956 430.193C272.283 427.256 272.357 424.445 272.263 421.718C271.315 421.686 270.367 421.686 269.435 421.718Z" fill="#8896D8"/>
<path d="M461.944 421.179C461.944 421.179 477.956 432.472 448.521 445.684C416.511 460.053 425.521 440.621 425.521 440.621L433.773 440.212C433.773 440.212 433.115 436.28 443.804 426.329C451.773 418.912 461.944 421.179 461.944 421.179Z" fill="#F8A17A"/>
<path d="M429.545 438.355L428.2 452.897C428.2 452.897 357.048 472.171 343.22 466.636C318.812 456.868 313.491 457.455 298.743 451.984C283.995 446.512 218.739 432.401 218.124 420.024C217.509 407.645 212.975 399.599 229.272 394.653C245.571 389.708 261.563 378.575 289.508 399.935C317.452 421.296 348.648 437.347 372.113 439.263C398.955 441.455 429.545 438.355 429.545 438.355Z" fill="#6691DD"/>
<path d="M563.045 436.334C553.925 432.45 539.843 445.042 531.605 464.439C523.897 482.601 524.035 500.311 531.587 505.666L488.221 487.485C479.101 483.601 478.376 464.733 486.613 445.335C494.851 425.939 508.933 413.346 518.053 417.211C518.191 417.269 518.328 417.329 518.465 417.407L563.045 436.334Z" fill="#C4C3FC"/>
<path d="M564.633 478.461C556.396 497.86 542.335 510.45 533.213 506.586C532.625 506.332 532.096 506.037 531.587 505.665C524.035 500.31 523.897 482.6 531.605 464.438C539.843 445.041 553.925 432.449 563.045 436.333C572.165 440.196 572.871 459.064 564.633 478.461Z" fill="white"/>
<path d="M560.381 476.705C566.511 459.775 566.036 444.08 559.32 441.648C552.604 439.218 542.191 450.97 536.061 467.898C529.931 484.827 530.407 500.522 537.121 502.953C543.839 505.386 554.252 493.633 560.381 476.705Z" fill="#5851BC"/>
<path d="M964.554 667.182C1014.38 620.374 1077.14 663.213 1098.6 633.616C1116.51 607.476 1098.02 563.978 1111.53 551.677C1123.75 537.754 1163.43 545.82 1179.65 519.149C1194.02 495.521 1150.17 464.165 1164.81 445.786C1180.33 426.314 1200.77 387.65 1186.71 374.761C1171.07 360.433 1129.66 390.196 1116.61 395.708C1093.26 405.566 1058.59 379.589 1027.58 400.598C1008.56 413.48 1033.38 442.244 1017.21 464.282C998.992 489.114 965.533 453.066 928.712 494.422C873.721 556.186 957.58 599.437 947.85 656.048C944.725 674.238 961.144 669.47 964.554 667.182Z" fill="#7A79CC"/>
<path d="M1162.66 398.416C1139.91 421.454 1117.17 444.493 1094.42 467.532C1076.83 485.348 1058.56 502.886 1043.61 523.058C1032.81 537.63 1022.91 552.874 1013.11 568.124C1001.72 585.836 990.613 603.724 979.62 621.681C970.896 635.937 962.253 650.245 953.664 664.582C952.948 665.777 952.232 666.972 951.516 668.166C950.191 670.381 953.648 672.394 954.971 670.186C962.979 656.809 971.023 643.452 979.14 630.141C990.023 612.293 1001.02 594.512 1012.25 576.882C1022.38 560.982 1032.63 545.121 1043.62 529.798C1057.05 511.093 1073.21 494.706 1089.35 478.356C1111.93 455.489 1134.5 432.629 1157.08 409.765C1159.88 406.925 1162.69 404.085 1165.49 401.244C1167.3 399.41 1164.47 396.58 1162.66 398.416Z" fill="white"/>
<path d="M1142.41 424.319C1146.27 423.47 1150.18 422.967 1154.13 422.848C1157.63 422.743 1161.54 422.608 1164.75 424.224C1167.04 425.378 1169.07 421.928 1166.77 420.77C1163 418.872 1158.73 418.739 1154.59 418.836C1150.14 418.94 1145.7 419.506 1141.35 420.462C1138.84 421.015 1139.9 424.872 1142.41 424.319Z" fill="white"/>
<path d="M1068.29 499.403C1089.3 495.226 1111.74 498.647 1130.62 508.753C1135.91 511.587 1140.92 514.937 1145.53 518.794C1147.49 520.437 1150.34 517.621 1148.36 515.966C1131.14 501.55 1108.85 493.741 1086.43 493.665C1079.98 493.642 1073.55 494.29 1067.23 495.546C1064.71 496.049 1065.77 499.905 1068.29 499.403Z" fill="white"/>
<path d="M1111.17 455.92C1112.49 454.331 1113.01 452.314 1113.31 450.307C1113.75 447.463 1113.87 444.583 1113.9 441.708C1113.96 435.399 1113.54 429.102 1113.39 422.798C1113.36 421.482 1113.34 420.164 1113.37 418.848C1113.38 418.299 1113.41 417.751 1113.45 417.203C1113.49 416.603 1113.42 417.038 1113.57 416.354C1114.12 413.844 1110.27 412.772 1109.72 415.29C1109.16 417.823 1109.33 420.546 1109.4 423.116C1109.5 426.954 1109.69 430.788 1109.81 434.626C1109.92 438.506 1110 442.4 1109.75 446.276C1109.65 447.754 1109.51 449.231 1109.19 450.679C1109.06 451.268 1108.91 451.87 1108.69 452.431C1108.78 452.196 1108.02 453.475 1108.34 453.091C1106.7 455.056 1109.52 457.902 1111.17 455.92Z" fill="white"/>
<path d="M996.011 601.997C996.149 601.916 996.292 601.853 996.433 601.78C996.107 601.949 996.332 601.814 996.748 601.671C997.38 601.456 998.014 601.263 998.658 601.088C1000.53 600.58 1002.43 600.18 1004.33 599.823C1009.93 598.767 1015.6 598.112 1021.28 597.735C1035.69 596.779 1050.78 597.387 1064.49 602.293C1071.8 604.912 1078.59 609.021 1083.52 615.105C1085.15 617.105 1087.96 614.26 1086.35 612.277C1076.78 600.472 1061.09 595.948 1046.58 594.229C1032.83 592.601 1018.69 593.291 1005.06 595.641C1002.71 596.045 1000.37 596.505 998.061 597.108C996.705 597.461 995.209 597.822 993.993 598.543C991.781 599.855 993.789 603.313 996.011 601.997Z" fill="white"/>
<path d="M949.997 505.463C952.285 507.235 954.876 508.631 957.325 510.16C961.773 512.937 966.143 515.837 970.372 518.937C981.648 527.201 992.192 536.984 999.853 548.76C1004.62 556.091 1008.13 564.133 1009.8 572.736C1010.29 575.26 1014.15 574.192 1013.66 571.672C1010.67 556.276 1001.9 542.744 991.127 531.604C982.303 522.481 972.076 514.795 961.391 507.995C959.519 506.804 957.628 505.643 955.74 504.477C955.084 504.072 954.427 503.669 953.779 503.252C953.528 503.089 953.28 502.924 953.029 502.76C952.849 502.641 952.185 502.14 952.825 502.635C951.965 501.968 950.839 501.812 949.997 502.635C949.3 503.316 949.144 504.803 949.997 505.463Z" fill="white"/>
<path d="M1017.26 488.207C1027.15 500.417 1036.03 514.719 1037.04 530.795C1037.2 533.351 1041.2 533.369 1041.04 530.795C1039.95 513.563 1030.7 498.476 1020.09 485.379C1018.47 483.377 1015.66 486.223 1017.26 488.207Z" fill="white"/>
<path d="M937.857 563.653C946.379 568.225 953.285 575.757 959.112 583.339C965.341 591.445 970.868 600.427 974.643 609.953C976.211 613.908 977.639 618.119 977.911 622.393C978.073 624.951 982.075 624.969 981.911 622.393C981.339 613.415 977.073 604.629 972.78 596.892C967.417 587.231 960.799 578.029 952.932 570.247C949.033 566.389 944.725 562.801 939.876 560.2C937.608 558.984 935.585 562.436 937.857 563.653Z" fill="white"/>
<path d="M1046.67 409.705C1056.22 434.788 1069.73 458.092 1082.71 481.498C1083.96 483.75 1087.42 481.734 1086.17 479.48C1073.36 456.385 1059.95 433.39 1050.53 408.642C1049.62 406.26 1045.75 407.293 1046.67 409.705Z" fill="white"/>
<path d="M1030.45 548.588C1038.19 546.416 1046.4 545.732 1054.4 545.505C1064.2 545.228 1074.19 545.789 1083.73 548.224C1088.41 549.421 1092.98 551.094 1097.05 553.744C1099.21 555.152 1101.22 551.69 1099.07 550.289C1091.12 545.116 1081.34 543.161 1072.06 542.153C1062.13 541.076 1052.01 541.213 1042.1 542.394C1037.83 542.904 1033.54 543.565 1029.39 544.729C1026.91 545.424 1027.96 549.284 1030.45 548.588Z" fill="white"/>
<path d="M1122.19 503.323C1123.82 501.664 1126.96 501.529 1129.11 501.049C1131.81 500.445 1134.5 499.821 1137.19 499.176C1142.77 497.837 1148.33 496.404 1153.86 494.889C1156.34 494.209 1155.29 490.349 1152.79 491.032C1146.85 492.66 1140.88 494.192 1134.89 495.616C1131.99 496.304 1129.09 496.967 1126.18 497.605C1123.71 498.149 1121.21 498.615 1119.37 500.495C1117.56 502.332 1120.39 505.163 1122.19 503.323Z" fill="white"/>
<path d="M1133.75 890.83H285.663C266.453 890.83 250.881 875.258 250.881 856.049V653.923C250.881 634.714 266.453 619.142 285.663 619.142H1133.75C1152.96 619.142 1168.53 634.714 1168.53 653.923V856.049C1168.53 875.258 1152.96 890.83 1133.75 890.83Z" fill="#5751BB"/>
<path d="M1109.35 884.646H261.261C242.052 884.646 226.479 869.076 226.479 849.866V647.741C226.479 628.532 242.052 612.958 261.261 612.958H1109.35C1128.56 612.958 1144.13 628.532 1144.13 647.741V849.866C1144.13 869.076 1128.56 884.646 1109.35 884.646Z" fill="white"/>
<path d="M1024.04 219.037L1021.12 202.655L985.648 199.465C983.471 192.557 980.777 185.923 977.603 179.605L1000.82 152.607L991.489 138.833L957.791 150.351C953.028 144.987 947.861 140.017 942.344 135.492L952.58 101.365L938.457 92.5747L912.345 116.813C905.868 113.851 899.129 111.395 892.199 109.491L887.676 74.1813L871.191 71.8841L857.208 104.627C850.148 104.583 843.017 105.085 835.84 106.179L817.329 75.7294L801.34 80.3467L801.875 115.939C795.245 118.831 788.932 122.203 782.959 126.033L753.688 105.772L740.955 116.481L755.931 148.815C751.12 154.107 746.711 159.755 742.785 165.715L707.772 159.095L700.492 174.064L727.312 197.484C725.056 204.233 723.327 211.195 722.159 218.301L687.501 226.485L686.956 243.117L720.992 253.613C721.344 257.145 721.821 260.687 722.452 264.229C723.084 267.788 723.857 271.276 724.744 274.712L696.417 296.303L702.661 311.711L738.019 307.456C741.565 313.723 745.589 319.661 750.035 325.219L732.937 356.451L744.933 367.991L775.513 349.703C781.255 353.943 787.343 357.724 793.683 361.032L790.777 396.547L806.423 402.207L826.909 373.095C833.837 374.631 840.927 375.617 848.147 376.047L859.919 409.639L876.52 408.459L883.393 373.493C890.508 372.044 897.375 370.059 903.985 367.581L928.403 393.493L943.084 385.651L935.152 350.948C941.003 346.772 946.48 342.141 951.539 337.127L984.407 350.873L994.631 337.751L973.252 309.233C976.869 303.084 980.008 296.651 982.629 289.975L1018.23 289.163L1022.24 273.016L991.136 255.681C991.937 248.656 992.177 241.501 991.84 234.264L1024.04 219.037Z" fill="#5751BB"/>
<path d="M871.167 319.202C827.587 326.95 785.967 297.904 778.221 254.304C770.473 210.724 799.52 169.124 843.08 161.357C886.68 153.61 928.299 182.657 936.047 226.237C943.793 269.817 914.747 311.436 871.167 319.202Z" fill="white"/>
<path d="M769.395 687.518C723.872 687.518 686.96 650.606 686.96 605.065C686.96 559.542 723.872 522.631 769.395 522.631C814.936 522.631 851.848 559.542 851.848 605.065C851.848 650.606 814.936 687.518 769.395 687.518ZM987.688 620.402V589.727L956.092 584.001C955.464 578.391 954.601 572.841 953.503 567.407L981.745 552.187L972.252 523.023L940.479 527.319C938.145 522.219 935.596 517.218 932.831 512.374L955.012 489.171L936.988 464.361L908.04 478.286C904.273 474.167 900.312 470.205 896.173 466.421L910.119 437.471L885.308 419.447L862.105 441.63C857.241 438.865 852.26 436.313 847.14 433.979L851.436 402.187L822.272 392.714L807.052 420.977C801.619 419.859 796.088 418.997 790.479 418.389L784.732 386.771H754.057L748.331 418.389C742.721 418.997 737.189 419.859 731.737 420.977L716.517 392.714L687.373 402.187L691.648 433.979C686.549 436.313 681.548 438.865 676.703 441.63L653.501 419.447L628.691 437.471L642.616 466.421C638.497 470.205 634.535 474.167 630.749 478.286L601.801 464.361L583.776 489.171L605.959 512.374C603.193 517.218 600.644 522.219 598.309 527.319L566.517 523.023L557.044 552.187L585.307 567.407C584.188 572.841 583.325 578.391 582.717 584.001L551.101 589.727V620.402L582.717 626.147C583.325 631.738 584.188 637.289 585.307 642.722L557.044 657.941L566.517 687.106L598.309 682.811C600.644 687.929 603.193 692.911 605.959 697.775L583.776 720.978L601.801 745.789L630.749 731.843C634.535 735.981 638.497 739.943 642.616 743.709L628.691 772.658L653.501 790.663L676.703 768.501C681.548 771.266 686.549 773.815 691.648 776.149L687.373 807.923L716.517 817.415L731.737 789.173C737.189 790.271 742.721 791.134 748.331 791.761L754.057 823.359H784.732L790.479 791.761C796.088 791.134 801.619 790.271 807.052 789.173L822.272 817.415L851.436 807.923L847.14 776.149C852.26 773.815 857.241 771.266 862.105 768.501L885.308 790.663L910.119 772.658L896.173 743.709C900.312 739.943 904.273 735.981 908.04 731.843L936.988 745.789L955.012 720.978L932.831 697.775C935.596 692.911 938.145 687.929 940.479 682.811L972.252 687.106L981.745 657.941L953.503 642.722C954.601 637.289 955.464 631.738 956.092 626.147L987.688 620.402Z" fill="#5751BB"/>
<path d="M851.848 605.064C851.848 650.606 814.936 687.518 769.395 687.518C723.872 687.518 686.96 650.606 686.96 605.064C686.96 559.542 723.872 522.631 769.395 522.631C814.936 522.631 851.848 559.542 851.848 605.064Z" fill="white"/>
<path d="M826.038 272.439H805.676V241.895H826.038V272.439Z" fill="#5851BC"/>
<path d="M851.491 272.439H831.128V207.534H851.491V272.439Z" fill="#5851BC"/>
<path d="M876.944 272.439H856.581V227.049H876.944V272.439Z" fill="#5851BC"/>
<path d="M902.396 272.439H882.033V194.863H902.396V272.439Z" fill="#5851BC"/>
<path d="M795.327 605.265C795.327 590.947 783.719 579.339 769.4 579.339C755.083 579.339 743.475 590.947 743.475 605.265C743.475 619.583 755.083 631.191 769.4 631.191C783.719 631.191 795.327 619.583 795.327 605.265Z" fill="#F76D1A"/>
<path d="M782.851 641.527H755.951C754.884 641.527 754.017 640.662 754.017 639.594V636.835C754.017 635.767 754.884 634.903 755.951 634.903H782.851C783.919 634.903 784.784 635.767 784.784 636.835V639.594C784.784 640.662 783.919 641.527 782.851 641.527Z" fill="#F76D1A"/>
<path d="M782.851 649.852H755.951C754.884 649.852 754.017 648.986 754.017 647.92V645.16C754.017 644.093 754.884 643.228 755.951 643.228H782.851C783.919 643.228 784.784 644.093 784.784 645.16V647.92C784.784 648.986 783.919 649.852 782.851 649.852Z" fill="#F76D1A"/>
<path d="M782.851 658.916H755.951C754.884 658.916 754.017 658.049 754.017 656.983V654.223C754.017 653.156 754.884 652.292 755.951 652.292H782.851C783.919 652.292 784.784 653.156 784.784 654.223V656.983C784.784 658.049 783.919 658.916 782.851 658.916Z" fill="#F76D1A"/>
<path d="M778.119 661.286C778.119 663.091 774.215 664.553 769.4 664.553C764.587 664.553 760.683 663.091 760.683 661.286C760.683 661.014 760.772 660.75 760.941 660.497H777.86C778.029 660.75 778.119 661.014 778.119 661.286Z" fill="#F76D1A"/>
<path d="M769.954 573.395H768.506C767.946 573.395 767.493 572.94 767.493 572.38V546.585C767.493 546.025 767.946 545.572 768.506 545.572H769.954C770.514 545.572 770.968 546.025 770.968 546.585V572.38C770.968 572.94 770.514 573.395 769.954 573.395Z" fill="#F76D1A"/>
<path d="M747.256 582.337L746.231 583.361C745.836 583.757 745.193 583.757 744.797 583.361L726.559 565.121C726.163 564.725 726.163 564.084 726.559 563.688L727.583 562.664C727.979 562.268 728.62 562.268 729.016 562.664L747.256 580.903C747.652 581.299 747.652 581.941 747.256 582.337Z" fill="#F76D1A"/>
<path d="M737.529 604.709V606.159C737.529 606.719 737.075 607.172 736.515 607.172H710.721C710.161 607.172 709.707 606.719 709.707 606.159V604.709C709.707 604.149 710.161 603.696 710.721 603.696H736.515C737.075 603.696 737.529 604.149 737.529 604.709Z" fill="#F76D1A"/>
<path d="M746.472 627.41L747.496 628.434C747.892 628.83 747.892 629.473 747.496 629.867L729.256 648.107C728.86 648.503 728.219 648.503 727.823 648.107L726.799 647.083C726.403 646.687 726.403 646.045 726.799 645.649L745.039 627.41C745.435 627.014 746.076 627.014 746.472 627.41Z" fill="#F76D1A"/>
<path d="M791.545 628.195L792.569 627.171C792.965 626.775 793.608 626.775 794.004 627.171L812.243 645.411C812.639 645.807 812.639 646.448 812.243 646.844L811.219 647.868C810.823 648.263 810.18 648.263 809.785 647.868L791.545 629.628C791.149 629.232 791.149 628.591 791.545 628.195Z" fill="#F76D1A"/>
<path d="M801.272 605.819V604.371C801.272 603.811 801.727 603.357 802.285 603.357H828.08C828.64 603.357 829.095 603.811 829.095 604.371V605.819C829.095 606.379 828.64 606.832 828.08 606.832H802.285C801.727 606.832 801.272 606.379 801.272 605.819Z" fill="#F76D1A"/>
<path d="M792.329 583.121L791.305 582.097C790.909 581.701 790.909 581.06 791.305 580.664L809.545 562.424C809.941 562.028 810.583 562.028 810.979 562.424L812.003 563.448C812.397 563.844 812.397 564.485 812.003 564.881L793.763 583.121C793.367 583.517 792.725 583.517 792.329 583.121Z" fill="#F76D1A"/>
<path d="M411.549 747.553C367.981 755.294 326.357 726.244 318.601 682.661C310.861 639.078 339.895 597.469 383.479 589.713C427.076 581.957 468.685 611.008 476.441 654.576C484.197 698.172 455.147 739.798 411.549 747.553ZM532.223 662.617L564.42 647.392L561.513 631.006L526.033 627.813C523.865 620.902 521.169 614.274 517.992 607.95L541.213 580.964L531.876 567.184L498.188 578.704C493.415 573.342 488.248 568.373 482.736 563.84L492.977 529.714L478.851 520.921L452.737 545.166C446.261 542.2 439.515 539.745 432.588 537.846L428.069 502.533L411.58 500.228L397.604 532.982C390.541 532.938 383.403 533.434 376.235 534.534L357.727 504.084L341.732 508.692L342.26 544.293C335.633 547.184 329.324 550.558 323.345 554.382L294.084 534.128L281.344 544.836L296.328 577.169C291.508 582.454 287.096 588.101 283.18 594.065L248.167 587.438L240.879 602.408L267.7 625.841C265.44 632.588 263.724 639.545 262.549 646.653L227.896 654.83L227.355 671.472L261.389 681.969C261.736 685.492 262.217 689.032 262.836 692.586C263.483 696.141 264.251 699.618 265.14 703.066L236.812 724.646L243.047 740.069L278.407 735.808C281.961 742.072 285.981 748.005 290.424 753.562L273.332 784.796L285.319 796.348L315.905 778.049C321.644 782.297 327.728 786.076 334.067 789.389L331.161 824.9L346.808 830.562L367.304 801.452C374.231 802.988 381.325 803.966 388.539 804.404L400.315 837.986L416.911 836.812L423.779 801.844C430.901 800.398 437.768 798.41 444.38 795.924L468.791 821.842L483.475 813.996L475.537 779.3C481.396 775.128 486.877 770.489 491.924 765.476L524.799 779.224L535.024 766.106L513.639 737.585C517.253 731.44 520.401 725.009 523.021 718.322L558.623 717.509L562.628 701.366L531.531 684.033C532.328 677.014 532.569 669.846 532.223 662.617Z" fill="#5751BB"/>
<path d="M411.549 747.554C367.981 755.295 326.357 726.245 318.601 682.662C310.861 639.079 339.895 597.47 383.479 589.714C427.076 581.958 468.685 611.009 476.441 654.577C484.197 698.173 455.147 739.799 411.549 747.554Z" fill="white"/>
<path d="M405.203 667.812L402.039 663.493L393.161 669.996L396.324 674.314L405.203 667.812Z" fill="#5751BB"/>
<path d="M405.611 626.59C392.225 636.394 389.323 655.192 399.127 668.578C408.929 681.962 427.728 684.866 441.113 675.062C454.499 665.256 457.401 646.459 447.597 633.074C437.795 619.69 418.996 616.786 405.611 626.59Z" fill="#5751BB"/>
<path d="M408.423 630.428C397.159 638.678 394.715 654.5 402.965 665.764C411.216 677.029 427.036 679.473 438.301 671.221C449.565 662.97 452.009 647.149 443.759 635.885C435.508 624.621 419.688 622.177 408.423 630.428Z" fill="#DEE9FC"/>
<path d="M397.555 675.996C397.916 673.57 393.485 668.121 391.931 668.317L335.3 709.796C333.725 712.592 336.191 717.744 340.924 717.474L397.555 675.996Z" fill="#5751BB"/>
<path d="M1192.81 1182.96H1148.74L1143.72 1173.24H1189.24L1192.81 1182.96Z" fill="#7A79CC"/>
<path d="M1311.17 1205.59C1305.6 1205.59 1301.09 1201.08 1301.09 1195.52C1301.09 1189.96 1305.6 1185.45 1311.17 1185.45C1316.73 1185.45 1321.23 1189.96 1321.23 1195.52C1321.23 1201.08 1316.73 1205.59 1311.17 1205.59ZM1311.17 1179.56C1302.35 1179.56 1295.21 1186.71 1295.21 1195.52C1295.21 1204.34 1302.35 1211.48 1311.17 1211.48C1319.98 1211.48 1327.12 1204.34 1327.12 1195.52C1327.12 1186.71 1319.98 1179.56 1311.17 1179.56Z" fill="#7A79CC"/>
<path d="M1369.49 961.256L1228.68 802.01L1219.95 809.738L1360.76 968.982L1369.49 961.256Z" fill="#7A79CC"/>
<path d="M1248.02 993.375C1246.35 992.496 1222.69 977.306 1222.69 977.306L1236.22 954.658L1263.37 950.655C1263.37 950.655 1267.81 958.576 1269.27 960.344C1270.72 962.114 1279.54 977.231 1279.54 977.231L1248.02 993.375Z" fill="white"/>
<path d="M1235.75 958.154L1248.02 972.938L1233.75 986.641L1237.78 992.318L1250.37 990.541L1274.85 973.182L1263.5 964.101L1235.75 958.154Z" fill="#B3B3B3"/>
<path d="M1191.03 990.323C1190.06 988.703 1177.75 963.428 1177.75 963.428L1201.08 951.115L1226.35 961.809C1226.35 961.809 1226.03 970.881 1226.35 973.149C1226.68 975.419 1226.35 992.916 1226.35 992.916L1191.03 990.323Z" fill="white"/>
<path d="M1202.12 958.892L1203.67 977.038L1213.71 991.988L1219.23 977.038L1207.23 956.3L1199.46 954.356L1202.12 958.892Z" fill="#CCCCCC"/>
<path d="M1298.4 989.605C1296.73 988.727 1273.07 973.535 1273.07 973.535L1286.6 950.888L1313.75 946.885C1313.75 946.885 1318.19 954.805 1319.65 956.575C1321.1 958.344 1329.92 973.461 1329.92 973.461L1298.4 989.605Z" fill="white"/>
<path d="M1286.13 954.383L1298.4 969.166L1284.13 982.867L1288.16 988.547L1300.75 986.768L1325.23 969.41L1313.88 960.328L1286.13 954.383Z" fill="#B3B3B3"/>
<path d="M1275.93 1204.92C1275.93 1185.46 1291.7 1169.68 1311.17 1169.68C1313.37 1169.68 1315.51 1169.91 1317.6 1170.29L1363.91 972.016H1148.74L1203.83 1207.92H1276.08C1275.99 1206.93 1275.93 1205.93 1275.93 1204.92Z" fill="#7A79CC"/>
<path d="M838.548 1194.89C838.548 1204.03 892.931 1211.45 960.017 1211.45C1027.1 1211.45 1081.49 1204.03 1081.49 1194.89C1081.49 1185.74 1027.1 1178.33 960.017 1178.33C892.931 1178.33 838.548 1185.74 838.548 1194.89Z" fill="#B4BDED"/>
<path d="M1021.73 1179.08L984.443 1182.99C984.443 1182.99 983.732 1185.47 974.501 1142.87C965.269 1100.26 919.229 896.803 919.229 896.803H911.653L914.848 1119.08C914.848 1119.08 925.147 1133.99 916.269 1142.87C923.727 1155.65 922.661 1170.21 919.111 1171.98C915.56 1173.76 886.088 1171.98 878.987 1184.76C874.727 1149.61 847.031 882.6 854.132 858.455L973.791 847.804C973.791 847.804 993.673 1085.7 1001.49 1099.55C1009.3 1113.4 1015.69 1135.41 1014.62 1147.48C1013.56 1159.55 1021.73 1179.08 1021.73 1179.08Z" fill="#3644AC"/>
<path d="M1057.23 1199.32H987.165C987.165 1199.32 983.851 1196.48 987.165 1183.7C990.479 1170.92 1021.46 1175.18 1021.46 1175.18C1021.46 1175.18 1034.98 1181.57 1037.94 1181.57C1040.9 1181.57 1059.84 1176.6 1057.23 1199.32Z" fill="#0F3B47"/>
<path d="M929.584 1201.1C929.584 1201.1 886.976 1201.54 885.733 1201.1C884.491 1200.65 878.009 1194.17 881.828 1188.94C885.644 1183.7 888.219 1180.06 888.219 1180.06C888.219 1180.06 894.664 1172.87 905.112 1173.67C915.56 1174.47 920.264 1179.79 918.843 1183.26C918.843 1183.26 933.756 1187.61 931.093 1196.66C928.431 1205.71 929.584 1201.1 929.584 1201.1Z" fill="#0F3B47"/>
<path d="M967.044 854.667C967.044 854.667 922.068 875.024 885.616 867.45C855.788 859.874 855.788 859.874 855.788 859.874L861.944 662.928C861.944 662.928 897.451 634.05 936.745 646.832C966.097 659.142 967.044 657.722 967.044 657.722V854.667Z" fill="#D0DADB"/>
<path d="M903.132 881.18C903.132 881.18 910.232 699.857 908.34 687.548C906.446 675.238 892.717 661.509 892.717 661.509L882.774 647.78C882.774 647.78 842.533 649.201 843.48 674.765C844.426 700.33 848.688 861.769 848.688 861.769C848.688 861.769 849.161 874.966 867.802 877.629C886.444 880.292 903.132 881.18 903.132 881.18Z" fill="#6691DD"/>
<path d="M1067 722.605C1067 722.605 1071.72 713.476 1069.65 706.625C1067.59 699.773 1069.46 688.677 1072.58 688.654C1075.7 688.632 1075.71 689.701 1075.58 696.933C1075.45 704.168 1081.67 704.073 1085.99 695.502C1087.85 691.784 1115.31 685.901 1113.35 707.476C1110.85 734.942 1075.35 728.961 1075.35 728.961C1075.35 728.961 1068.34 732.198 1067 722.605Z" fill="#FF8968"/>
<path d="M1067.24 714.917C1067.24 714.917 1079.15 735.68 1087.34 734.204C1062 763.425 1037.37 800.19 1021.06 788.394C1004.75 776.598 975.404 744.857 975.404 744.857C975.404 744.857 947.129 640.269 961.887 655.774C976.641 671.281 1022.23 744.78 1025.58 747.558C1028.93 750.337 1066.95 719.461 1067.24 714.917Z" fill="#3B57B5"/>
<path d="M957.812 871.709L940.06 693.228C940.06 693.228 938.816 645.057 922.661 641.684C944.674 646.654 965.446 651.804 970.95 667.958C976.453 684.114 979.826 814.898 978.406 866.029C964.204 871.709 957.812 871.709 957.812 871.709Z" fill="#6691DD"/>
<path d="M937.751 669.025C937.751 669.025 941.301 658.55 948.403 658.373C941.479 646.833 929.052 625.174 894.611 633.873C879.697 638.843 873.128 661.569 886.799 676.305C894.965 671.333 903.132 673.286 903.132 673.286C903.132 673.286 885.733 659.438 887.508 652.869C889.285 646.301 902.421 636.535 926.744 643.638C934.2 647.01 938.816 670.445 937.751 669.025Z" fill="#2A2A7C"/>
<path d="M1085.99 695.502C1089.31 692.993 1116.04 685.978 1113.35 707.476C1111.39 723.165 1062.36 713.36 1085.99 695.502Z" fill="#FF8968"/>
<path d="M1000.18 788.536C1000.18 815.875 1022.35 838.039 1049.69 838.039C1077.03 838.039 1099.19 815.875 1099.19 788.536C1099.19 761.198 1077.03 739.034 1049.69 739.034C1022.35 739.034 1000.18 761.198 1000.18 788.536Z" fill="white"/>
<path d="M1003.53 788.76C1003.53 763.424 1024.07 742.884 1049.41 742.884C1074.75 742.884 1095.29 763.424 1095.29 788.76C1095.29 814.097 1074.75 834.637 1049.41 834.637C1024.07 834.637 1003.53 814.097 1003.53 788.76ZM978.403 801.119C979.145 805.412 980.247 809.581 981.712 813.577L968.021 821.481L980.38 842.884L994.093 834.968C996.853 838.268 999.903 841.317 1003.2 844.079L995.285 857.792L1016.69 870.148L1024.59 856.46C1028.59 857.924 1032.76 859.027 1037.05 859.768V875.605H1061.77V859.768C1066.06 859.027 1070.23 857.924 1074.23 856.46L1082.13 870.148L1103.53 857.792L1095.62 844.079C1098.92 841.317 1101.97 838.268 1104.73 834.968L1118.44 842.884L1130.8 821.481L1117.11 813.577C1118.57 809.581 1119.67 805.412 1120.42 801.119H1136.25V776.404H1120.42C1119.67 772.111 1118.57 767.941 1117.11 763.944L1130.8 756.04L1118.44 734.637L1104.73 742.555C1101.97 739.255 1098.92 736.204 1095.62 733.444L1103.53 719.731L1082.13 707.372L1074.23 721.063C1070.23 719.597 1066.06 718.495 1061.77 717.755V701.917H1037.05V717.755C1032.76 718.495 1028.59 719.597 1024.59 721.063L1016.69 707.372L995.285 719.731L1003.2 733.444C999.903 736.204 996.853 739.255 994.093 742.555L980.38 734.637L968.021 756.04L981.712 763.944C980.247 767.941 979.145 772.111 978.403 776.404H962.565V801.119H978.403Z" fill="#5751BB"/>
<path d="M1038.02 755.029H1072.91V824.004H1025.91V767.141H1038.02V755.029Z" fill="#5751BB"/>
<path d="M1038.02 767.141H1025.91L1038.02 755.029V767.141Z" fill="#939598"/>
<path d="M1034.75 772.289H1064.63V771.854H1034.75V772.289Z" fill="#D8D5F7"/>
<path d="M1034.75 775.627H1064.63V775.191H1034.75V775.627Z" fill="#D8D5F7"/>
<path d="M1034.75 778.963H1064.63V778.528H1034.75V778.963Z" fill="#D8D5F7"/>
<path d="M1034.75 782.299H1064.63V781.864H1034.75V782.299Z" fill="#D8D5F7"/>
<path d="M1034.75 785.637H1064.63V785.201H1034.75V785.637Z" fill="#D8D5F7"/>
<path d="M1034.75 788.973H1064.63V788.537H1034.75V788.973Z" fill="#D8D5F7"/>
<path d="M1034.75 792.309H1064.63V791.873H1034.75V792.309Z" fill="#D8D5F7"/>
<path d="M1034.75 795.645H1064.63V795.209H1034.75V795.645Z" fill="#D8D5F7"/>
<path d="M1034.75 798.98H1064.63V798.546H1034.75V798.98Z" fill="#D8D5F7"/>
<path d="M1034.75 802.316H1064.63V801.882H1034.75V802.316Z" fill="#D8D5F7"/>
<path d="M1034.75 805.652H1064.63V805.218H1034.75V805.652Z" fill="#D8D5F7"/>
<path d="M1034.75 808.99H1064.63V808.554H1034.75V808.99Z" fill="#D8D5F7"/>
<path d="M1034.75 812.326H1064.63V811.892H1034.75V812.326Z" fill="#D8D5F7"/>
<path d="M1034.75 815.662H1064.63V815.227H1034.75V815.662Z" fill="#D8D5F7"/>
<path d="M977.62 807.041C977.62 807.041 982.443 812.394 984.807 810.983C987.172 809.574 994.823 803.867 1008.11 815.298C1009.85 818.875 1003.12 820.645 998.165 815.915C999.115 818.969 997.933 830.753 1008.68 831.19L1021.84 832.322C1022.51 833.101 1016.44 835.227 1016.44 835.227C1016.44 835.227 1017.95 836.805 1013.38 839.165C1008.82 841.526 995.456 845.555 990.372 839.315C985.287 833.077 980.596 826.673 978.727 825.423C976.855 824.175 973.148 821.843 973.148 821.843C973.148 821.843 971.972 810.813 977.62 807.041Z" fill="#FB8F69"/>
<path d="M920.885 652.336C920.885 652.336 915.736 659.614 905.795 654.821C895.852 650.028 894.255 647.541 894.255 647.541C894.255 647.541 898.339 620.557 899.049 610.26C899.759 599.962 921.951 608.129 921.951 608.129C921.951 608.129 919.999 647.541 920.885 652.336Z" fill="#ED724F"/>
<path d="M938.461 574.044C938.461 574.044 940.413 580.613 940.06 604.048C939.704 627.481 933.313 631.743 909.7 627.837C886.088 623.931 889.639 602.451 892.301 585.052C894.965 567.653 923.015 552.207 938.461 574.044Z" fill="#ED724F"/>
<path d="M948.885 596.206C948.885 596.206 946.966 603.808 940.102 596.824C933.237 589.841 933.144 580.433 935.393 578.422C935.393 578.422 911.366 602.985 888.405 596.206C865.444 589.429 895.693 564.368 903.556 560.432C911.416 556.494 957.525 550.672 948.885 596.206Z" fill="black"/>
<path d="M518.465 417.408C518.328 417.329 518.191 417.269 518.053 417.212C508.933 413.346 494.851 425.94 486.613 445.336C478.376 464.733 479.101 483.601 488.221 487.485L489.697 488.104C489.404 486.972 489.073 485.901 488.98 485.102C488.443 480.426 489.684 475.692 491.095 471.274C493.127 464.909 495.54 458.673 497.96 452.445C500.573 445.716 503.277 438.857 507.932 433.34C511.6 428.99 516.967 425.466 522.624 426.08C524.832 426.317 526.92 427.168 528.988 427.972C535.969 430.685 543.111 432.984 550.364 434.853C552.543 435.414 554.919 435.866 557.201 435.893C558.145 435.698 559.061 435.637 559.953 435.678C560.285 435.617 560.605 435.526 560.925 435.434L518.465 417.408Z" fill="#D8D5F7"/>
<path d="M537.156 496.878C537.156 496.878 535.409 533.056 518.107 540.921C500.804 548.785 507.896 575.098 531.876 567.185C555.857 559.272 543.173 578.688 541.213 580.965C539.255 583.242 526.756 627.906 544.801 629.504C562.848 631.101 561.005 628.138 562.101 634.317C563.197 640.498 567.916 644.285 564.42 647.393C560.925 650.501 532.437 651.11 544.323 668.633C556.207 686.153 563.092 676.561 560.516 668.633C557.941 660.702 556.801 658.073 561.116 655.749C565.431 653.425 594.831 648.12 578.053 625.541C556.711 621.424 551.937 613.45 551.101 606.809C550.264 600.168 552.207 589.528 554.76 589.065C557.312 588.602 579.625 576.12 564.42 556.161C549.216 536.201 559.529 532.357 560.925 532.006C562.324 531.657 573.38 520.997 563.045 515.229C552.711 509.461 544.323 488.84 543.448 479.401C542.575 469.964 534.608 472.302 534.608 472.302C534.608 472.302 527.716 494.253 537.156 496.878Z" fill="white"/>
<path d="M959.695 417.204C960.063 417.102 967.621 415.006 978.835 409.588C995.636 401.46 1020.74 385.828 1041.75 358.086C1052.24 344.224 1061.68 327.342 1068.46 307.005C1075.25 286.669 1079.38 262.893 1079.38 235.274C1079.38 221.717 1078.39 207.234 1076.23 191.77C1072.49 164.9 1070.92 141.885 1070.92 122.213C1070.92 81.3944 1077.69 55.0171 1085.76 38.1691L1071.61 31.3984C1062.27 50.9304 1055.23 79.6864 1055.23 122.213C1055.23 142.721 1056.87 166.446 1060.69 193.934C1062.75 208.726 1063.69 222.484 1063.69 235.274C1063.68 270.024 1056.8 297.61 1046.62 319.613C1038.97 336.113 1029.45 349.486 1019.44 360.317C1004.43 376.558 988.299 387.064 975.965 393.474C969.801 396.68 964.595 398.858 960.979 400.221C959.172 400.901 957.761 401.378 956.831 401.678C956.364 401.828 956.017 401.933 955.8 401.998L955.573 402.064L955.535 402.074L956.913 407.054L955.548 402.072L955.535 402.074L956.913 407.054L955.548 402.072L959.695 417.205V417.204Z" fill="#3B57B5"/>
<path d="M1113.54 0.00690565C1103.92 22.7722 1094.9 53.7588 1094 77.3828L1075.36 40.5655L1037.49 24.1962C1061.02 21.8682 1091.41 10.9909 1113.54 0.00690565Z" fill="#3B57B5"/>
<path d="M545.859 503.228C545.859 503.228 555.275 514.762 560.983 517.559C566.693 520.355 562.964 527.462 559.935 528.744C556.905 530.026 552.913 537.016 554.909 541.211C551.429 536.2 554.692 528.511 558.187 525.948C561.683 523.384 560.751 520.588 559.469 519.539C558.187 518.491 546.579 506.607 545.859 503.228Z" fill="#C4C3FC"/>
<path d="M544.801 629.504C549.571 629.925 552.941 630.03 555.355 630.066C555.237 629.746 555.129 629.424 554.975 629.113C552.724 624.578 547.208 622.641 544.203 618.568C540.792 613.941 541.263 607.618 541.887 601.905C542.52 596.092 543.209 590.102 546.055 584.994C547.789 581.878 550.269 579.208 551.819 575.997C553.368 572.785 553.788 568.618 551.489 565.894C549.34 563.348 545.661 562.912 542.357 562.481C537.343 561.828 532.38 560.778 527.531 559.345C526.677 559.093 525.803 558.816 525.119 558.248C524.08 557.384 523.651 555.993 523.429 554.66C522.528 549.213 524.271 543.662 526.62 538.666C528.971 533.67 531.953 528.954 533.785 523.746C535.023 520.226 535.7 516.512 535.816 512.782C535.851 511.66 535.984 509.624 535.876 507.665C533.955 518.99 529.272 535.845 518.107 540.921C500.804 548.784 507.896 575.098 531.876 567.184C555.857 559.27 543.173 578.688 541.213 580.965C539.253 583.242 526.756 627.906 544.801 629.504Z" fill="#9595CE"/>
<path d="M521.091 543.283C520.753 543.649 520.423 544.073 520.101 544.38C519.403 545.051 518.701 545.717 518.031 546.497C516.785 547.947 515.509 549.901 515.121 552.819C514.369 558.453 516.672 563.979 519.38 564.836C522.092 565.693 525.12 564.269 527.783 563.287C528.061 563.184 528.348 563.075 528.584 562.759C529.412 561.649 528.649 560.552 528.032 560.368C527.279 560.141 526.492 560.073 525.745 559.756C523.847 558.948 520.583 558.528 520.205 553.765C520.08 552.179 520.399 550.444 520.787 549.073C521.2 547.617 522.069 547.307 522.704 546.365C523.141 545.72 523.471 544.543 523.241 543.56C523.048 542.733 522.525 542.389 522.075 542.531C521.74 542.635 521.412 542.933 521.091 543.283Z" fill="#C4C3FC"/>
</g>
<defs>
<clipPath id="clip0_369_3560">
<rect width="1369.49" height="1211.48" fill="white"/>
</clipPath>
</defs>
</svg>
