<svg width="400" height="460" viewBox="0 0 400 460" fill="none" xmlns="http://www.w3.org/2000/svg">
<path d="M147.24 62.5347H216.105V427H147.24V62.5347Z" fill="url(#paint0_linear_4235_5561)" stroke="#232F6F"/>
<path d="M147.24 88.3589H200.513" stroke="#232F6F"/>
<path d="M147.24 103.951H200.513" stroke="#232F6F"/>
<path d="M147.24 118.894H200.513" stroke="#232F6F"/>
<path d="M147.24 134.486H200.513" stroke="#232F6F"/>
<path d="M147.24 149.428H200.513" stroke="#232F6F"/>
<path d="M147.24 165.02H200.513" stroke="#232F6F"/>
<path d="M147.24 179.962H200.513" stroke="#232F6F"/>
<path d="M147.24 195.555H200.513" stroke="#232F6F"/>
<path d="M147.24 210.497H200.513" stroke="#232F6F"/>
<path d="M147.24 226.089H200.513" stroke="#232F6F"/>
<path d="M147.24 241.032H200.513" stroke="#232F6F"/>
<path d="M147.24 256.624H200.513" stroke="#232F6F"/>
<path d="M147.24 271.566H200.513" stroke="#232F6F"/>
<path d="M147.24 287.158H200.513" stroke="#232F6F"/>
<path d="M147.24 302.101H200.513" stroke="#232F6F"/>
<path d="M147.24 317.693H200.513" stroke="#232F6F"/>
<path d="M147.24 332.635H200.513" stroke="#232F6F"/>
<path d="M147.24 348.228H200.513" stroke="#232F6F"/>
<path d="M147.24 363.17H200.513" stroke="#232F6F"/>
<path d="M147.24 378.762H200.513" stroke="#232F6F"/>
<path d="M223.901 172.979H370.727V427H223.901V172.979Z" fill="url(#paint1_linear_4235_5561)" stroke="#232F6F"/>
<path d="M249.239 158.036H345.39V172.979H249.239V158.036Z" fill="url(#paint2_linear_4235_5561)" stroke="#232F6F"/>
<path d="M244.041 204.163H272.627" stroke="#232F6F"/>
<path d="M258.334 189.87L258.334 218.456" stroke="#232F6F"/>
<path d="M244.041 189.87H272.627V218.456H244.041V189.87Z" stroke="#232F6F"/>
<path d="M244.041 246.392H272.627" stroke="#232F6F"/>
<path d="M258.334 232.099L258.334 260.684" stroke="#232F6F"/>
<path d="M244.041 232.099H272.627V260.684H244.041V232.099Z" stroke="#232F6F"/>
<path d="M244.041 288.62H272.627" stroke="#232F6F"/>
<path d="M258.334 274.327L258.334 302.913" stroke="#232F6F"/>
<path d="M244.041 274.327H272.627V302.913H244.041V274.327Z" stroke="#232F6F"/>
<path d="M244.041 330.849H272.627" stroke="#232F6F"/>
<path d="M258.334 316.556L258.334 345.142" stroke="#232F6F"/>
<path d="M244.041 316.556H272.627V345.142H244.041V316.556Z" stroke="#232F6F"/>
<path d="M244.041 373.077H272.627" stroke="#232F6F"/>
<path d="M258.334 358.785L258.334 387.37" stroke="#232F6F"/>
<path d="M244.041 358.785H272.627V387.37H244.041V358.785Z" stroke="#232F6F"/>
<path d="M283.021 204.163H311.607" stroke="#232F6F"/>
<path d="M297.314 189.87L297.314 218.456" stroke="#232F6F"/>
<path d="M283.021 189.87H311.607V218.456H283.021V189.87Z" stroke="#232F6F"/>
<path d="M283.021 246.392H311.607" stroke="#232F6F"/>
<path d="M297.314 232.099L297.314 260.684" stroke="#232F6F"/>
<path d="M283.021 232.099H311.607V260.684H283.021V232.099Z" stroke="#232F6F"/>
<path d="M283.021 288.62H311.607" stroke="#232F6F"/>
<path d="M297.314 274.327L297.314 302.913" stroke="#232F6F"/>
<path d="M283.021 274.327H311.607V302.913H283.021V274.327Z" stroke="#232F6F"/>
<path d="M283.021 330.849H311.607" stroke="#232F6F"/>
<path d="M297.314 316.556L297.314 345.142" stroke="#232F6F"/>
<path d="M283.021 316.556H311.607V345.142H283.021V316.556Z" stroke="#232F6F"/>
<path d="M283.021 373.077H311.607" stroke="#232F6F"/>
<path d="M297.314 358.785L297.314 387.37" stroke="#232F6F"/>
<path d="M283.021 358.785H311.607V387.37H283.021V358.785Z" stroke="#232F6F"/>
<path d="M322.002 204.163H350.587" stroke="#232F6F"/>
<path d="M336.294 189.87L336.294 218.456" stroke="#232F6F"/>
<path d="M322.002 189.87H350.587V218.456H322.002V189.87Z" stroke="#232F6F"/>
<path d="M322.002 246.392H350.587" stroke="#232F6F"/>
<path d="M336.294 232.099L336.294 260.684" stroke="#232F6F"/>
<path d="M322.002 232.099H350.587V260.684H322.002V232.099Z" stroke="#232F6F"/>
<path d="M322.002 288.62H350.587" stroke="#232F6F"/>
<path d="M336.294 274.327L336.294 302.913" stroke="#232F6F"/>
<path d="M322.002 274.327H350.587V302.913H322.002V274.327Z" stroke="#232F6F"/>
<path d="M322.002 330.849H350.587" stroke="#232F6F"/>
<path d="M336.294 316.556L336.294 345.142" stroke="#232F6F"/>
<path d="M322.002 316.556H350.587V345.142H322.002V316.556Z" stroke="#232F6F"/>
<path d="M322.002 373.077H350.587" stroke="#232F6F"/>
<path d="M336.294 358.785L336.294 387.37" stroke="#232F6F"/>
<path d="M322.002 358.785H350.587V387.37H322.002V358.785Z" stroke="#232F6F"/>
<path d="M31.5986 41.0952H135.546V427H31.5986V41.0952Z" fill="url(#paint3_linear_4235_5561)" stroke="#232F6F"/>
<path d="M29 32H138.145V41.0954H29V32Z" fill="url(#paint4_linear_4235_5561)" stroke="#232F6F"/>
<path d="M44.5922 52.4648V61.2354" stroke="#232F6F"/>
<path d="M54.3372 52.4648V61.2354" stroke="#232F6F"/>
<path d="M64.0823 52.4648V61.2354" stroke="#232F6F"/>
<path d="M73.8273 52.4648V61.2354" stroke="#232F6F"/>
<path d="M83.5724 52.4648V61.2354" stroke="#232F6F"/>
<path d="M93.3174 52.4648V61.2354" stroke="#232F6F"/>
<path d="M103.062 52.4648V61.2354" stroke="#232F6F"/>
<path d="M112.808 52.4648V61.2354" stroke="#232F6F"/>
<path d="M122.553 52.4648V61.2354" stroke="#232F6F"/>
<path d="M44.5922 69.6812V78.4517" stroke="#232F6F"/>
<path d="M54.3372 69.6812V78.4517" stroke="#232F6F"/>
<path d="M64.0823 69.6812V78.4517" stroke="#232F6F"/>
<path d="M73.8273 69.6812V78.4517" stroke="#232F6F"/>
<path d="M83.5724 69.6812V78.4517" stroke="#232F6F"/>
<path d="M93.3174 69.6812V78.4517" stroke="#232F6F"/>
<path d="M103.062 69.6812V78.4517" stroke="#232F6F"/>
<path d="M112.808 69.6812V78.4517" stroke="#232F6F"/>
<path d="M122.553 69.6812V78.4517" stroke="#232F6F"/>
<path d="M44.5922 86.897V95.6675" stroke="#232F6F"/>
<path d="M54.3372 86.897V95.6675" stroke="#232F6F"/>
<path d="M64.0823 86.897V95.6675" stroke="#232F6F"/>
<path d="M73.8273 86.897V95.6675" stroke="#232F6F"/>
<path d="M83.5724 86.897V95.6675" stroke="#232F6F"/>
<path d="M93.3174 86.897V95.6675" stroke="#232F6F"/>
<path d="M103.062 86.897V95.6675" stroke="#232F6F"/>
<path d="M112.808 86.897V95.6675" stroke="#232F6F"/>
<path d="M122.553 86.897V95.6675" stroke="#232F6F"/>
<path d="M44.5922 104.113V112.884" stroke="#232F6F"/>
<path d="M54.3372 104.113V112.884" stroke="#232F6F"/>
<path d="M64.0823 104.113V112.884" stroke="#232F6F"/>
<path d="M73.8273 104.113V112.884" stroke="#232F6F"/>
<path d="M83.5724 104.113V112.884" stroke="#232F6F"/>
<path d="M93.3174 104.113V112.884" stroke="#232F6F"/>
<path d="M103.062 104.113V112.884" stroke="#232F6F"/>
<path d="M112.808 104.113V112.884" stroke="#232F6F"/>
<path d="M122.553 104.113V112.884" stroke="#232F6F"/>
<path d="M44.5922 121.33V130.1" stroke="#232F6F"/>
<path d="M54.3372 121.33V130.1" stroke="#232F6F"/>
<path d="M64.0823 121.33V130.1" stroke="#232F6F"/>
<path d="M73.8273 121.33V130.1" stroke="#232F6F"/>
<path d="M83.5724 121.33V130.1" stroke="#232F6F"/>
<path d="M93.3174 121.33V130.1" stroke="#232F6F"/>
<path d="M103.062 121.33V130.1" stroke="#232F6F"/>
<path d="M112.808 121.33V130.1" stroke="#232F6F"/>
<path d="M122.553 121.33V130.1" stroke="#232F6F"/>
<path d="M44.5922 138.546V147.316" stroke="#232F6F"/>
<path d="M54.3372 138.546V147.316" stroke="#232F6F"/>
<path d="M64.0823 138.546V147.316" stroke="#232F6F"/>
<path d="M73.8273 138.546V147.316" stroke="#232F6F"/>
<path d="M83.5724 138.546V147.316" stroke="#232F6F"/>
<path d="M93.3174 138.546V147.316" stroke="#232F6F"/>
<path d="M103.062 138.546V147.316" stroke="#232F6F"/>
<path d="M112.808 138.546V147.316" stroke="#232F6F"/>
<path d="M122.553 138.546V147.316" stroke="#232F6F"/>
<path d="M44.5922 155.762V164.533" stroke="#232F6F"/>
<path d="M54.3372 155.762V164.533" stroke="#232F6F"/>
<path d="M64.0823 155.762V164.533" stroke="#232F6F"/>
<path d="M73.8273 155.762V164.533" stroke="#232F6F"/>
<path d="M83.5724 155.762V164.533" stroke="#232F6F"/>
<path d="M93.3174 155.762V164.533" stroke="#232F6F"/>
<path d="M103.062 155.762V164.533" stroke="#232F6F"/>
<path d="M112.808 155.762V164.533" stroke="#232F6F"/>
<path d="M122.553 155.762V164.533" stroke="#232F6F"/>
<path d="M44.5922 172.979V181.749" stroke="#232F6F"/>
<path d="M54.3372 172.979V181.749" stroke="#232F6F"/>
<path d="M64.0823 172.979V181.749" stroke="#232F6F"/>
<path d="M73.8273 172.979V181.749" stroke="#232F6F"/>
<path d="M83.5724 172.979V181.749" stroke="#232F6F"/>
<path d="M93.3174 172.979V181.749" stroke="#232F6F"/>
<path d="M103.062 172.979V181.749" stroke="#232F6F"/>
<path d="M112.808 172.979V181.749" stroke="#232F6F"/>
<path d="M122.553 172.979V181.749" stroke="#232F6F"/>
<path d="M44.5922 190.195V198.965" stroke="#232F6F"/>
<path d="M54.3372 190.195V198.965" stroke="#232F6F"/>
<path d="M64.0823 190.195V198.965" stroke="#232F6F"/>
<path d="M73.8273 190.195V198.965" stroke="#232F6F"/>
<path d="M83.5724 190.195V198.965" stroke="#232F6F"/>
<path d="M93.3174 190.195V198.965" stroke="#232F6F"/>
<path d="M103.062 190.195V198.965" stroke="#232F6F"/>
<path d="M112.808 190.195V198.965" stroke="#232F6F"/>
<path d="M122.553 190.195V198.965" stroke="#232F6F"/>
<path d="M44.5922 207.411V216.182" stroke="#232F6F"/>
<path d="M54.3372 207.411V216.182" stroke="#232F6F"/>
<path d="M64.0823 207.411V216.182" stroke="#232F6F"/>
<path d="M73.8273 207.411V216.182" stroke="#232F6F"/>
<path d="M83.5724 207.411V216.182" stroke="#232F6F"/>
<path d="M93.3174 207.411V216.182" stroke="#232F6F"/>
<path d="M103.062 207.411V216.182" stroke="#232F6F"/>
<path d="M112.808 207.411V216.182" stroke="#232F6F"/>
<path d="M122.553 207.411V216.182" stroke="#232F6F"/>
<path d="M44.5922 224.627V233.398" stroke="#232F6F"/>
<path d="M54.3372 224.627V233.398" stroke="#232F6F"/>
<path d="M64.0823 224.627V233.398" stroke="#232F6F"/>
<path d="M73.8273 224.627V233.398" stroke="#232F6F"/>
<path d="M83.5724 224.627V233.398" stroke="#232F6F"/>
<path d="M93.3174 224.627V233.398" stroke="#232F6F"/>
<path d="M103.062 224.627V233.398" stroke="#232F6F"/>
<path d="M112.808 224.627V233.398" stroke="#232F6F"/>
<path d="M122.553 224.627V233.398" stroke="#232F6F"/>
<path d="M44.5922 241.844V250.614" stroke="#232F6F"/>
<path d="M54.3372 241.844V250.614" stroke="#232F6F"/>
<path d="M64.0823 241.844V250.614" stroke="#232F6F"/>
<path d="M73.8273 241.844V250.614" stroke="#232F6F"/>
<path d="M83.5724 241.844V250.614" stroke="#232F6F"/>
<path d="M93.3174 241.844V250.614" stroke="#232F6F"/>
<path d="M103.062 241.844V250.614" stroke="#232F6F"/>
<path d="M112.808 241.844V250.614" stroke="#232F6F"/>
<path d="M122.553 241.844V250.614" stroke="#232F6F"/>
<path d="M44.5922 259.06V267.831" stroke="#232F6F"/>
<path d="M54.3372 259.06V267.831" stroke="#232F6F"/>
<path d="M64.0823 259.06V267.831" stroke="#232F6F"/>
<path d="M73.8273 259.06V267.831" stroke="#232F6F"/>
<path d="M83.5724 259.06V267.831" stroke="#232F6F"/>
<path d="M93.3174 259.06V267.831" stroke="#232F6F"/>
<path d="M103.062 259.06V267.831" stroke="#232F6F"/>
<path d="M112.808 259.06V267.831" stroke="#232F6F"/>
<path d="M122.553 259.06V267.831" stroke="#232F6F"/>
<path d="M44.5922 276.276V285.047" stroke="#232F6F"/>
<path d="M54.3372 276.276V285.047" stroke="#232F6F"/>
<path d="M64.0823 276.276V285.047" stroke="#232F6F"/>
<path d="M73.8273 276.276V285.047" stroke="#232F6F"/>
<path d="M83.5724 276.276V285.047" stroke="#232F6F"/>
<path d="M93.3174 276.276V285.047" stroke="#232F6F"/>
<path d="M103.062 276.276V285.047" stroke="#232F6F"/>
<path d="M112.808 276.276V285.047" stroke="#232F6F"/>
<path d="M122.553 276.276V285.047" stroke="#232F6F"/>
<path d="M44.5922 293.493V302.263" stroke="#232F6F"/>
<path d="M54.3372 293.493V302.263" stroke="#232F6F"/>
<path d="M64.0823 293.493V302.263" stroke="#232F6F"/>
<path d="M73.8273 293.493V302.263" stroke="#232F6F"/>
<path d="M83.5724 293.493V302.263" stroke="#232F6F"/>
<path d="M93.3174 293.493V302.263" stroke="#232F6F"/>
<path d="M103.062 293.493V302.263" stroke="#232F6F"/>
<path d="M112.808 293.493V302.263" stroke="#232F6F"/>
<path d="M122.553 293.493V302.263" stroke="#232F6F"/>
<path d="M44.5922 310.709V319.48" stroke="#232F6F"/>
<path d="M54.3372 310.709V319.48" stroke="#232F6F"/>
<path d="M64.0823 310.709V319.48" stroke="#232F6F"/>
<path d="M73.8273 310.709V319.48" stroke="#232F6F"/>
<path d="M83.5724 310.709V319.48" stroke="#232F6F"/>
<path d="M93.3174 310.709V319.48" stroke="#232F6F"/>
<path d="M103.062 310.709V319.48" stroke="#232F6F"/>
<path d="M112.808 310.709V319.48" stroke="#232F6F"/>
<path d="M122.553 310.709V319.48" stroke="#232F6F"/>
<path d="M44.5922 327.925V336.696" stroke="#232F6F"/>
<path d="M54.3372 327.925V336.696" stroke="#232F6F"/>
<path d="M64.0823 327.925V336.696" stroke="#232F6F"/>
<path d="M73.8273 327.925V336.696" stroke="#232F6F"/>
<path d="M83.5724 327.925V336.696" stroke="#232F6F"/>
<path d="M93.3174 327.925V336.696" stroke="#232F6F"/>
<path d="M103.062 327.925V336.696" stroke="#232F6F"/>
<path d="M112.808 327.925V336.696" stroke="#232F6F"/>
<path d="M122.553 327.925V336.696" stroke="#232F6F"/>
<path d="M44.5922 345.142V353.912" stroke="#232F6F"/>
<path d="M54.3372 345.142V353.912" stroke="#232F6F"/>
<path d="M64.0823 345.142V353.912" stroke="#232F6F"/>
<path d="M73.8273 345.142V353.912" stroke="#232F6F"/>
<path d="M83.5724 345.142V353.912" stroke="#232F6F"/>
<path d="M93.3174 345.142V353.912" stroke="#232F6F"/>
<path d="M103.062 345.142V353.912" stroke="#232F6F"/>
<path d="M112.808 345.142V353.912" stroke="#232F6F"/>
<path d="M122.553 345.142V353.912" stroke="#232F6F"/>
<path d="M44.5922 362.358V371.128" stroke="#232F6F"/>
<path d="M54.3372 362.358V371.128" stroke="#232F6F"/>
<path d="M64.0823 362.358V371.128" stroke="#232F6F"/>
<path d="M73.8273 362.358V371.128" stroke="#232F6F"/>
<path d="M83.5724 362.358V371.128" stroke="#232F6F"/>
<path d="M93.3174 362.358V371.128" stroke="#232F6F"/>
<path d="M103.062 362.358V371.128" stroke="#232F6F"/>
<path d="M112.808 362.358V371.128" stroke="#232F6F"/>
<path d="M122.553 362.358V371.128" stroke="#232F6F"/>
<path d="M44.5922 379.574V388.345" stroke="#232F6F"/>
<path d="M54.3372 379.574V388.345" stroke="#232F6F"/>
<path d="M64.0823 379.574V388.345" stroke="#232F6F"/>
<path d="M73.8273 379.574V388.345" stroke="#232F6F"/>
<path d="M83.5724 379.574V388.345" stroke="#232F6F"/>
<path d="M93.3174 379.574V388.345" stroke="#232F6F"/>
<path d="M103.062 379.574V388.345" stroke="#232F6F"/>
<path d="M112.808 379.574V388.345" stroke="#232F6F"/>
<path d="M122.553 379.574V388.345" stroke="#232F6F"/>
<g opacity="0.2" filter="url(#filter0_f_4235_5561)">
<circle cx="193.5" cy="302.5" r="72.5" fill="#3FA1E3"/>
</g>
<path d="M160.718 299.422L174.651 275.917C175.912 273.79 178.201 272.486 180.673 272.486H205.327C207.799 272.486 210.088 273.79 211.349 275.917L225.282 299.422C226.576 301.605 226.587 304.318 225.311 306.512L211.34 330.526C210.086 332.68 207.782 334.006 205.289 334.006H180.711C178.218 334.006 175.914 332.68 174.66 330.526L160.689 306.512C159.413 304.318 159.424 301.605 160.718 299.422Z" fill="url(#paint5_linear_4235_5561)"/>
<path d="M189.381 283.343H181.42L169.478 302.381L181.42 323.15H189.381L177.439 302.381L189.381 283.343Z" fill="#131313"/>
<path d="M196.619 283.343H204.58L216.522 302.381L204.58 323.15H196.619L208.561 302.381L196.619 283.343Z" fill="#131313"/>
<g opacity="0.2" filter="url(#filter1_f_4235_5561)">
<circle cx="193" cy="304" r="52.5" stroke="#3FA1E3"/>
</g>
<g opacity="0.5" filter="url(#filter2_f_4235_5561)">
<path d="M151.131 300.075L170.081 268.406C171.345 266.293 173.626 265 176.087 265H209.913C212.374 265 214.655 266.293 215.919 268.406L234.869 300.075C236.183 302.27 236.194 305.008 234.898 307.214L215.911 339.545C214.653 341.685 212.357 343 209.874 343H176.126C173.643 343 171.347 341.685 170.089 339.545L151.102 307.214C149.806 305.008 149.817 302.27 151.131 300.075Z" stroke="#3FA1E3"/>
</g>
<path d="M83.5 279V319.5" stroke="url(#paint6_linear_4235_5561)" stroke-width="2"/>
<path d="M88.5 290.5V319.5" stroke="url(#paint7_linear_4235_5561)" stroke-width="2"/>
<path d="M93.5 266V319.5" stroke="url(#paint8_linear_4235_5561)" stroke-width="2"/>
<path d="M98.5 272V319.5" stroke="url(#paint9_linear_4235_5561)" stroke-width="2"/>
<path d="M103.5 287V319.5" stroke="url(#paint10_linear_4235_5561)" stroke-width="2"/>
<path d="M108.5 270.5V319.5" stroke="url(#paint11_linear_4235_5561)" stroke-width="2"/>
<path d="M113.5 279V319.5" stroke="url(#paint12_linear_4235_5561)" stroke-width="2"/>
<path d="M118.5 292.5V319.5" stroke="url(#paint13_linear_4235_5561)" stroke-width="2"/>
<path d="M123.5 300.5V319.5" stroke="url(#paint14_linear_4235_5561)" stroke-width="2"/>
<path d="M128.5 283.5V319.5" stroke="url(#paint15_linear_4235_5561)" stroke-width="2"/>
<path d="M133.5 287.5V319.5" stroke="url(#paint16_linear_4235_5561)" stroke-width="2"/>
<path d="M138.5 298.5V319.5" stroke="url(#paint17_linear_4235_5561)" stroke-width="2"/>
<path d="M143.5 286.5V319.5" stroke="url(#paint18_linear_4235_5561)" stroke-width="2"/>
<path d="M148.5 292.5V319.5" stroke="url(#paint19_linear_4235_5561)" stroke-width="2"/>
<path d="M235 289.098V319" stroke="url(#paint20_linear_4235_5561)" stroke-width="2"/>
<path d="M240 297.589V319" stroke="url(#paint21_linear_4235_5561)" stroke-width="2"/>
<path d="M245 279.5V319" stroke="url(#paint22_linear_4235_5561)" stroke-width="2"/>
<path d="M250 283.93V319" stroke="url(#paint23_linear_4235_5561)" stroke-width="2"/>
<path d="M255 295.005V319" stroke="url(#paint24_linear_4235_5561)" stroke-width="2"/>
<path d="M260 282.822V319" stroke="url(#paint25_linear_4235_5561)" stroke-width="2"/>
<path d="M265 289.098V319" stroke="url(#paint26_linear_4235_5561)" stroke-width="2"/>
<path d="M270 299.065V319" stroke="url(#paint27_linear_4235_5561)" stroke-width="2"/>
<path d="M275 304.972V319" stroke="url(#paint28_linear_4235_5561)" stroke-width="2"/>
<path d="M280 270L280 319" stroke="url(#paint29_linear_4235_5561)" stroke-width="2"/>
<path d="M285 273V319" stroke="url(#paint30_linear_4235_5561)" stroke-width="2"/>
<path d="M290 303.495V319" stroke="url(#paint31_linear_4235_5561)" stroke-width="2"/>
<path d="M295 294.636V319" stroke="url(#paint32_linear_4235_5561)" stroke-width="2"/>
<path d="M300 299.065V319" stroke="url(#paint33_linear_4235_5561)" stroke-width="2"/>
<path d="M112.629 265.5C126.421 234.564 157.442 213 193.5 213C229.558 213 260.579 234.564 274.371 265.5M109.356 329C120.922 364.414 154.223 390 193.5 390C232.777 390 266.078 364.414 277.644 329" stroke="url(#paint34_linear_4235_5561)"/>
<path opacity="0.3" d="M99.7924 259.805C115.773 223.976 151.719 199 193.5 199C235.281 199 271.227 223.976 287.208 259.805M96 333.35C109.402 374.366 147.989 404 193.5 404C239.011 404 277.598 374.366 291 333.35" stroke="url(#paint35_linear_4235_5561)"/>
<path opacity="0.1" d="M87.2981 254.11C105.41 213.387 146.148 185 193.5 185C240.852 185 281.59 213.387 299.702 254.11M83 337.701C98.1894 384.319 141.921 418 193.5 418C245.079 418 288.811 384.319 304 337.701" stroke="url(#paint36_linear_4235_5561)"/>
<path d="M110 260.5L112 266L117.5 264" stroke="url(#paint37_linear_4235_5561)"/>
<path d="M279.5 334L277.5 328.5L272 330.5" stroke="url(#paint38_linear_4235_5561)"/>
<defs>
<filter id="filter0_f_4235_5561" x="89" y="198" width="209" height="209" filterUnits="userSpaceOnUse" color-interpolation-filters="sRGB">
<feFlood flood-opacity="0" result="BackgroundImageFix"/>
<feBlend mode="normal" in="SourceGraphic" in2="BackgroundImageFix" result="shape"/>
<feGaussianBlur stdDeviation="16" result="effect1_foregroundBlur_4235_5561"/>
</filter>
<filter id="filter1_f_4235_5561" x="136" y="247" width="114" height="114" filterUnits="userSpaceOnUse" color-interpolation-filters="sRGB">
<feFlood flood-opacity="0" result="BackgroundImageFix"/>
<feBlend mode="normal" in="SourceGraphic" in2="BackgroundImageFix" result="shape"/>
<feGaussianBlur stdDeviation="2" result="effect1_foregroundBlur_4235_5561"/>
</filter>
<filter id="filter2_f_4235_5561" x="145.638" y="260.5" width="94.7249" height="87" filterUnits="userSpaceOnUse" color-interpolation-filters="sRGB">
<feFlood flood-opacity="0" result="BackgroundImageFix"/>
<feBlend mode="normal" in="SourceGraphic" in2="BackgroundImageFix" result="shape"/>
<feGaussianBlur stdDeviation="2" result="effect1_foregroundBlur_4235_5561"/>
</filter>
<linearGradient id="paint0_linear_4235_5561" x1="181.673" y1="62.5347" x2="181.673" y2="427" gradientUnits="userSpaceOnUse">
<stop stop-color="#0D0F19" stop-opacity="0.8"/>
<stop offset="1" stop-color="#0D0F19" stop-opacity="0.54"/>
</linearGradient>
<linearGradient id="paint1_linear_4235_5561" x1="297.314" y1="172.979" x2="297.314" y2="427" gradientUnits="userSpaceOnUse">
<stop stop-color="#0D0F19" stop-opacity="0.8"/>
<stop offset="1" stop-color="#0D0F19" stop-opacity="0.54"/>
</linearGradient>
<linearGradient id="paint2_linear_4235_5561" x1="297.314" y1="158.036" x2="297.314" y2="172.979" gradientUnits="userSpaceOnUse">
<stop stop-color="#0D0F19" stop-opacity="0.8"/>
<stop offset="1" stop-color="#0D0F19" stop-opacity="0.54"/>
</linearGradient>
<linearGradient id="paint3_linear_4235_5561" x1="83.5723" y1="41.0952" x2="83.5723" y2="427" gradientUnits="userSpaceOnUse">
<stop stop-color="#0D0F19" stop-opacity="0.8"/>
<stop offset="1" stop-color="#0D0F19" stop-opacity="0.54"/>
</linearGradient>
<linearGradient id="paint4_linear_4235_5561" x1="83.5724" y1="32" x2="83.5724" y2="41.0954" gradientUnits="userSpaceOnUse">
<stop stop-color="#0D0F19" stop-opacity="0.8"/>
<stop offset="1" stop-color="#0D0F19" stop-opacity="0.54"/>
</linearGradient>
<linearGradient id="paint5_linear_4235_5561" x1="193" y1="272.486" x2="193" y2="334.006" gradientUnits="userSpaceOnUse">
<stop stop-color="#3FA1E3" stop-opacity="0.35"/>
<stop offset="0.605793" stop-color="#3FA1E3"/>
</linearGradient>
<linearGradient id="paint6_linear_4235_5561" x1="84" y1="279" x2="84" y2="319.5" gradientUnits="userSpaceOnUse">
<stop stop-color="#3FA1E3" stop-opacity="0.35"/>
<stop offset="0.605793" stop-color="#3FA1E3"/>
</linearGradient>
<linearGradient id="paint7_linear_4235_5561" x1="89" y1="279" x2="89" y2="319.5" gradientUnits="userSpaceOnUse">
<stop stop-color="#3FA1E3" stop-opacity="0.35"/>
<stop offset="0.605793" stop-color="#3FA1E3"/>
</linearGradient>
<linearGradient id="paint8_linear_4235_5561" x1="94" y1="279" x2="94" y2="319.5" gradientUnits="userSpaceOnUse">
<stop stop-color="#3FA1E3" stop-opacity="0.35"/>
<stop offset="0.605793" stop-color="#3FA1E3"/>
</linearGradient>
<linearGradient id="paint9_linear_4235_5561" x1="99" y1="279" x2="99" y2="319.5" gradientUnits="userSpaceOnUse">
<stop stop-color="#3FA1E3" stop-opacity="0.35"/>
<stop offset="0.605793" stop-color="#3FA1E3"/>
</linearGradient>
<linearGradient id="paint10_linear_4235_5561" x1="104" y1="279" x2="104" y2="319.5" gradientUnits="userSpaceOnUse">
<stop stop-color="#3FA1E3" stop-opacity="0.35"/>
<stop offset="0.605793" stop-color="#3FA1E3"/>
</linearGradient>
<linearGradient id="paint11_linear_4235_5561" x1="109" y1="279" x2="109" y2="319.5" gradientUnits="userSpaceOnUse">
<stop stop-color="#3FA1E3" stop-opacity="0.35"/>
<stop offset="0.605793" stop-color="#3FA1E3"/>
</linearGradient>
<linearGradient id="paint12_linear_4235_5561" x1="114" y1="279" x2="114" y2="319.5" gradientUnits="userSpaceOnUse">
<stop stop-color="#3FA1E3" stop-opacity="0.35"/>
<stop offset="0.605793" stop-color="#3FA1E3"/>
</linearGradient>
<linearGradient id="paint13_linear_4235_5561" x1="119" y1="292.5" x2="119" y2="319.5" gradientUnits="userSpaceOnUse">
<stop stop-color="#3FA1E3" stop-opacity="0.35"/>
<stop offset="0.605793" stop-color="#3FA1E3"/>
</linearGradient>
<linearGradient id="paint14_linear_4235_5561" x1="124" y1="292.966" x2="124" y2="319.5" gradientUnits="userSpaceOnUse">
<stop stop-color="#3FA1E3" stop-opacity="0.35"/>
<stop offset="0.605793" stop-color="#3FA1E3"/>
</linearGradient>
<linearGradient id="paint15_linear_4235_5561" x1="129" y1="292.248" x2="129" y2="319.5" gradientUnits="userSpaceOnUse">
<stop stop-color="#3FA1E3" stop-opacity="0.35"/>
<stop offset="0.605793" stop-color="#3FA1E3"/>
</linearGradient>
<linearGradient id="paint16_linear_4235_5561" x1="134" y1="292.216" x2="134" y2="319.5" gradientUnits="userSpaceOnUse">
<stop stop-color="#3FA1E3" stop-opacity="0.35"/>
<stop offset="0.605793" stop-color="#3FA1E3"/>
</linearGradient>
<linearGradient id="paint17_linear_4235_5561" x1="139" y1="293.331" x2="139" y2="319.5" gradientUnits="userSpaceOnUse">
<stop stop-color="#3FA1E3" stop-opacity="0.35"/>
<stop offset="0.605793" stop-color="#3FA1E3"/>
</linearGradient>
<linearGradient id="paint18_linear_4235_5561" x1="144" y1="292.224" x2="144" y2="319.5" gradientUnits="userSpaceOnUse">
<stop stop-color="#3FA1E3" stop-opacity="0.35"/>
<stop offset="0.605793" stop-color="#3FA1E3"/>
</linearGradient>
<linearGradient id="paint19_linear_4235_5561" x1="149" y1="292.5" x2="149" y2="319.5" gradientUnits="userSpaceOnUse">
<stop stop-color="#3FA1E3" stop-opacity="0.35"/>
<stop offset="0.605793" stop-color="#3FA1E3"/>
</linearGradient>
<linearGradient id="paint20_linear_4235_5561" x1="235.5" y1="289.098" x2="235.5" y2="319" gradientUnits="userSpaceOnUse">
<stop stop-color="#3FA1E3" stop-opacity="0.35"/>
<stop offset="0.605793" stop-color="#3FA1E3"/>
</linearGradient>
<linearGradient id="paint21_linear_4235_5561" x1="240.5" y1="289.098" x2="240.5" y2="319" gradientUnits="userSpaceOnUse">
<stop stop-color="#3FA1E3" stop-opacity="0.35"/>
<stop offset="0.605793" stop-color="#3FA1E3"/>
</linearGradient>
<linearGradient id="paint22_linear_4235_5561" x1="245.5" y1="289.098" x2="245.5" y2="319" gradientUnits="userSpaceOnUse">
<stop stop-color="#3FA1E3" stop-opacity="0.35"/>
<stop offset="0.605793" stop-color="#3FA1E3"/>
</linearGradient>
<linearGradient id="paint23_linear_4235_5561" x1="250.5" y1="289.098" x2="250.5" y2="319" gradientUnits="userSpaceOnUse">
<stop stop-color="#3FA1E3" stop-opacity="0.35"/>
<stop offset="0.605793" stop-color="#3FA1E3"/>
</linearGradient>
<linearGradient id="paint24_linear_4235_5561" x1="255.5" y1="289.098" x2="255.5" y2="319" gradientUnits="userSpaceOnUse">
<stop stop-color="#3FA1E3" stop-opacity="0.35"/>
<stop offset="0.605793" stop-color="#3FA1E3"/>
</linearGradient>
<linearGradient id="paint25_linear_4235_5561" x1="260.5" y1="289.098" x2="260.5" y2="319" gradientUnits="userSpaceOnUse">
<stop stop-color="#3FA1E3" stop-opacity="0.35"/>
<stop offset="0.605793" stop-color="#3FA1E3"/>
</linearGradient>
<linearGradient id="paint26_linear_4235_5561" x1="265.5" y1="289.098" x2="265.5" y2="319" gradientUnits="userSpaceOnUse">
<stop stop-color="#3FA1E3" stop-opacity="0.35"/>
<stop offset="0.605793" stop-color="#3FA1E3"/>
</linearGradient>
<linearGradient id="paint27_linear_4235_5561" x1="270.5" y1="299.065" x2="270.5" y2="319" gradientUnits="userSpaceOnUse">
<stop stop-color="#3FA1E3" stop-opacity="0.35"/>
<stop offset="0.605793" stop-color="#3FA1E3"/>
</linearGradient>
<linearGradient id="paint28_linear_4235_5561" x1="275.5" y1="299.409" x2="275.5" y2="319" gradientUnits="userSpaceOnUse">
<stop stop-color="#3FA1E3" stop-opacity="0.35"/>
<stop offset="0.605793" stop-color="#3FA1E3"/>
</linearGradient>
<linearGradient id="paint29_linear_4235_5561" x1="280.5" y1="281.907" x2="280.5" y2="319" gradientUnits="userSpaceOnUse">
<stop stop-color="#3FA1E3" stop-opacity="0.35"/>
<stop offset="0.605793" stop-color="#3FA1E3"/>
</linearGradient>
<linearGradient id="paint30_linear_4235_5561" x1="285.5" y1="298.856" x2="285.5" y2="319" gradientUnits="userSpaceOnUse">
<stop stop-color="#3FA1E3" stop-opacity="0.35"/>
<stop offset="0.605793" stop-color="#3FA1E3"/>
</linearGradient>
<linearGradient id="paint31_linear_4235_5561" x1="290.5" y1="299.679" x2="290.5" y2="319" gradientUnits="userSpaceOnUse">
<stop stop-color="#3FA1E3" stop-opacity="0.35"/>
<stop offset="0.605793" stop-color="#3FA1E3"/>
</linearGradient>
<linearGradient id="paint32_linear_4235_5561" x1="295.5" y1="298.862" x2="295.5" y2="319" gradientUnits="userSpaceOnUse">
<stop stop-color="#3FA1E3" stop-opacity="0.35"/>
<stop offset="0.605793" stop-color="#3FA1E3"/>
</linearGradient>
<linearGradient id="paint33_linear_4235_5561" x1="300.5" y1="299.065" x2="300.5" y2="319" gradientUnits="userSpaceOnUse">
<stop stop-color="#3FA1E3" stop-opacity="0.35"/>
<stop offset="0.605793" stop-color="#3FA1E3"/>
</linearGradient>
<linearGradient id="paint34_linear_4235_5561" x1="193.5" y1="220.5" x2="193.5" y2="390" gradientUnits="userSpaceOnUse">
<stop stop-color="#3FA1E3" stop-opacity="0.35"/>
<stop offset="1" stop-color="#3FA1E3"/>
</linearGradient>
<linearGradient id="paint35_linear_4235_5561" x1="193.5" y1="207.686" x2="193.5" y2="404" gradientUnits="userSpaceOnUse">
<stop stop-color="#3FA1E3" stop-opacity="0.35"/>
<stop offset="1" stop-color="#3FA1E3"/>
</linearGradient>
<linearGradient id="paint36_linear_4235_5561" x1="193.5" y1="194.873" x2="193.5" y2="418" gradientUnits="userSpaceOnUse">
<stop stop-color="#3FA1E3" stop-opacity="0.35"/>
<stop offset="1" stop-color="#3FA1E3"/>
</linearGradient>
<linearGradient id="paint37_linear_4235_5561" x1="113.75" y1="260.5" x2="113.75" y2="266" gradientUnits="userSpaceOnUse">
<stop stop-color="#3FA1E3" stop-opacity="0.35"/>
<stop offset="0.605793" stop-color="#3FA1E3"/>
</linearGradient>
<linearGradient id="paint38_linear_4235_5561" x1="275.75" y1="334" x2="275.75" y2="328.5" gradientUnits="userSpaceOnUse">
<stop stop-color="#3FA1E3" stop-opacity="0.35"/>
<stop offset="0.605793" stop-color="#3FA1E3"/>
</linearGradient>
</defs>
</svg>
