<svg width="400" height="460" viewBox="0 0 400 460" fill="none" xmlns="http://www.w3.org/2000/svg">
<path d="M136.732 171.024H261.352V442H136.732V171.024Z" fill="url(#paint0_linear_4235_5560)" stroke="#232F6F"/>
<path d="M159.434 155.084H184.551V171.024H159.434V155.084Z" fill="url(#paint1_linear_4235_5560)" stroke="#232F6F"/>
<path d="M190.348 155.084H238.65V171.024H190.348V155.084Z" fill="url(#paint2_linear_4235_5560)" stroke="#232F6F"/>
<path d="M151.223 191.07H246.378" stroke="#232F6F"/>
<path d="M151.223 202.421H246.378" stroke="#232F6F"/>
<path d="M151.223 213.771H246.378" stroke="#232F6F"/>
<path d="M151.223 225.123H246.378" stroke="#232F6F"/>
<path d="M151.223 236.474H246.378" stroke="#232F6F"/>
<path d="M151.223 247.825H246.378" stroke="#232F6F"/>
<path d="M151.223 259.176H246.378" stroke="#232F6F"/>
<path d="M151.223 270.527H246.378" stroke="#232F6F"/>
<path d="M151.223 281.878H246.378" stroke="#232F6F"/>
<path d="M151.223 293.229H246.378" stroke="#232F6F"/>
<path d="M151.223 304.58H246.378" stroke="#232F6F"/>
<path d="M151.223 315.931H246.378" stroke="#232F6F"/>
<path d="M151.223 327.282H246.378" stroke="#232F6F"/>
<path d="M151.223 338.633H246.378" stroke="#232F6F"/>
<path d="M151.223 349.984H246.378" stroke="#232F6F"/>
<path d="M151.223 361.335H246.378" stroke="#232F6F"/>
<path d="M151.223 372.686H246.378" stroke="#232F6F"/>
<path d="M151.223 384.037H246.378" stroke="#232F6F"/>
<path d="M151.223 395.388H246.378" stroke="#232F6F"/>
<path d="M151.223 406.739H246.378" stroke="#232F6F"/>
<rect x="272.844" y="353.607" width="124.62" height="88.3932" fill="url(#paint3_linear_4235_5560)" stroke="#232F6F"/>
<rect x="279.606" y="247.825" width="111.095" height="105.782" fill="url(#paint4_linear_4235_5560)" stroke="#232F6F"/>
<rect x="287.818" y="142.043" width="94.6725" height="105.782" fill="url(#paint5_linear_4235_5560)" stroke="#232F6F"/>
<rect x="298.444" y="71.5215" width="73.4195" height="70.5214" fill="url(#paint6_linear_4235_5560)" stroke="#232F6F"/>
<rect x="333.705" y="1" width="2.89814" height="70.5214" stroke="#232F6F"/>
<path d="M287.334 372.204H382.49" stroke="#232F6F"/>
<path d="M306.655 90.2388H363.169" stroke="#232F6F"/>
<path d="M323.803 247.583L323.803 343.705" stroke="#232F6F"/>
<path d="M380.075 247.583L380.075 343.705" stroke="#232F6F"/>
<path d="M287.334 360.852H382.49" stroke="#232F6F"/>
<path d="M334.912 247.583L334.912 343.705" stroke="#232F6F"/>
<path d="M287.334 383.554H382.49" stroke="#232F6F"/>
<path d="M306.655 101.831H363.169" stroke="#232F6F"/>
<path d="M312.21 247.583L312.21 343.705" stroke="#232F6F"/>
<path d="M368.482 247.583L368.482 343.705" stroke="#232F6F"/>
<path d="M287.334 394.905H382.49" stroke="#232F6F"/>
<path d="M306.655 112.94H363.169" stroke="#232F6F"/>
<path d="M301.101 247.583L301.101 343.705" stroke="#232F6F"/>
<path d="M357.373 247.583L357.373 343.705" stroke="#232F6F"/>
<path d="M287.334 406.256H382.49" stroke="#232F6F"/>
<path d="M306.655 124.533H363.169" stroke="#232F6F"/>
<path d="M289.508 247.583L289.508 343.705" stroke="#232F6F"/>
<path d="M345.78 247.583L345.78 343.705" stroke="#232F6F"/>
<rect x="295.063" y="152.186" width="7.72837" height="11.1095" stroke="#232F6F"/>
<rect x="295.063" y="170.058" width="7.72837" height="11.1095" fill="url(#paint7_linear_4235_5560)" stroke="#232F6F"/>
<rect x="295.063" y="170.058" width="7.72837" height="11.1095" fill="url(#paint8_linear_4235_5560)" stroke="#232F6F"/>
<rect x="295.063" y="187.93" width="7.72837" height="11.1095" fill="url(#paint9_linear_4235_5560)" stroke="#232F6F"/>
<rect x="295.063" y="205.802" width="7.72837" height="11.1095" fill="url(#paint10_linear_4235_5560)" stroke="#232F6F"/>
<rect x="309.554" y="152.186" width="7.72837" height="11.1095" stroke="#232F6F"/>
<rect x="309.553" y="170.058" width="7.72837" height="11.1095" fill="url(#paint11_linear_4235_5560)" stroke="#232F6F"/>
<rect x="309.553" y="170.058" width="7.72837" height="11.1095" fill="url(#paint12_linear_4235_5560)" stroke="#232F6F"/>
<rect x="309.554" y="187.93" width="7.72837" height="11.1095" fill="url(#paint13_linear_4235_5560)" stroke="#232F6F"/>
<rect x="309.554" y="205.802" width="7.72837" height="11.1095" fill="url(#paint14_linear_4235_5560)" stroke="#232F6F"/>
<rect x="324.044" y="152.186" width="7.72837" height="11.1095" stroke="#232F6F"/>
<rect x="324.044" y="170.058" width="7.72837" height="11.1095" fill="url(#paint15_linear_4235_5560)" stroke="#232F6F"/>
<rect x="324.044" y="170.058" width="7.72837" height="11.1095" fill="url(#paint16_linear_4235_5560)" stroke="#232F6F"/>
<rect x="324.044" y="187.93" width="7.72837" height="11.1095" fill="url(#paint17_linear_4235_5560)" stroke="#232F6F"/>
<rect x="324.044" y="205.802" width="7.72837" height="11.1095" fill="url(#paint18_linear_4235_5560)" stroke="#232F6F"/>
<rect x="338.535" y="152.186" width="7.72837" height="11.1095" stroke="#232F6F"/>
<rect x="338.535" y="170.058" width="7.72837" height="11.1095" fill="url(#paint19_linear_4235_5560)" stroke="#232F6F"/>
<rect x="338.535" y="170.058" width="7.72837" height="11.1095" fill="url(#paint20_linear_4235_5560)" stroke="#232F6F"/>
<rect x="338.535" y="187.93" width="7.72837" height="11.1095" fill="url(#paint21_linear_4235_5560)" stroke="#232F6F"/>
<rect x="338.535" y="205.802" width="7.72837" height="11.1095" fill="url(#paint22_linear_4235_5560)" stroke="#232F6F"/>
<rect x="353.026" y="152.186" width="7.72837" height="11.1095" stroke="#232F6F"/>
<rect x="353.025" y="170.058" width="7.72837" height="11.1095" fill="url(#paint23_linear_4235_5560)" stroke="#232F6F"/>
<rect x="353.025" y="170.058" width="7.72837" height="11.1095" fill="url(#paint24_linear_4235_5560)" stroke="#232F6F"/>
<rect x="353.026" y="187.93" width="7.72837" height="11.1095" fill="url(#paint25_linear_4235_5560)" stroke="#232F6F"/>
<rect x="353.026" y="205.802" width="7.72837" height="11.1095" fill="url(#paint26_linear_4235_5560)" stroke="#232F6F"/>
<rect x="367.516" y="152.186" width="7.72837" height="11.1095" stroke="#232F6F"/>
<rect x="367.516" y="170.058" width="7.72837" height="11.1095" fill="url(#paint27_linear_4235_5560)" stroke="#232F6F"/>
<rect x="367.516" y="170.058" width="7.72837" height="11.1095" fill="url(#paint28_linear_4235_5560)" stroke="#232F6F"/>
<rect x="367.516" y="187.93" width="7.72837" height="11.1095" fill="url(#paint29_linear_4235_5560)" stroke="#232F6F"/>
<rect x="367.516" y="205.802" width="7.72837" height="11.1095" fill="url(#paint30_linear_4235_5560)" stroke="#232F6F"/>
<g opacity="0.2" filter="url(#filter0_f_4235_5560)">
<circle cx="119.232" cy="349.5" r="72.5" fill="#3FA1E3"/>
</g>
<path d="M86.4498 346.422L100.383 322.917C101.644 320.79 103.933 319.486 106.405 319.486H131.059C133.531 319.486 135.82 320.79 137.081 322.917L151.014 346.422C152.308 348.605 152.319 351.318 151.043 353.512L137.072 377.526C135.818 379.68 133.514 381.006 131.021 381.006H106.443C103.95 381.006 101.646 379.68 100.392 377.526L86.4208 353.512C85.1445 351.318 85.1556 348.605 86.4498 346.422Z" fill="url(#paint31_linear_4235_5560)"/>
<path d="M115.113 330.343H107.152L95.2097 349.381L107.152 370.15H115.113L103.171 349.381L115.113 330.343Z" fill="#131313"/>
<path d="M122.351 330.343H130.312L142.254 349.381L130.312 370.15H122.351L134.293 349.381L122.351 330.343Z" fill="#131313"/>
<g opacity="0.2" filter="url(#filter1_f_4235_5560)">
<circle cx="118.732" cy="351" r="52.5" stroke="#3FA1E3"/>
</g>
<g opacity="0.5" filter="url(#filter2_f_4235_5560)">
<path d="M76.8627 347.075L95.8127 315.406C97.0768 313.293 99.3576 312 101.819 312H135.644C138.106 312 140.387 313.293 141.651 315.406L160.601 347.075C161.915 349.27 161.926 352.008 160.63 354.214L141.642 386.545C140.385 388.685 138.089 390 135.606 390H101.857C99.3751 390 97.0785 388.685 95.8214 386.545L76.8335 354.214C75.5377 352.008 75.5489 349.27 76.8627 347.075Z" stroke="#3FA1E3"/>
</g>
<circle opacity="0.6" cx="179.732" cy="247" r="23" fill="url(#paint32_linear_4235_5560)"/>
<circle opacity="0.6" cx="254.732" cy="334" r="17" fill="url(#paint33_linear_4235_5560)"/>
<circle opacity="0.6" cx="23.7319" cy="275" r="23" fill="url(#paint34_linear_4235_5560)"/>
<circle opacity="0.6" cx="178.732" cy="437" r="18" fill="url(#paint35_linear_4235_5560)"/>
<path d="M179.732 231C184.006 231 188.023 232.663 191.046 235.686C194.069 238.708 195.732 242.726 195.732 247C195.732 251.274 194.068 255.292 191.046 258.314C188.023 261.337 184.006 263 179.732 263C175.457 263 171.44 261.337 168.418 258.314C165.395 255.292 163.732 251.274 163.732 247C163.732 242.726 165.395 238.708 168.418 235.686C171.44 232.663 175.457 231 179.732 231ZM179.732 249.437C174.785 249.437 170.602 253.193 170.036 258.062L170.011 258.281L170.181 258.423C172.768 260.59 176.1 261.897 179.732 261.897C183.364 261.897 186.697 260.59 189.284 258.423L189.453 258.281L189.427 258.061C189.175 255.888 188.192 253.853 186.635 252.296C184.792 250.453 182.338 249.437 179.732 249.437ZM179.732 232.103C171.517 232.103 164.834 238.785 164.834 247C164.834 250.725 166.209 254.136 168.477 256.75L168.996 257.348L169.185 256.58C169.687 254.55 170.77 252.699 172.329 251.247C173.406 250.244 174.656 249.482 176.008 248.99L176.762 248.715L176.097 248.264C174.37 247.094 173.235 245.117 173.235 242.881C173.235 239.3 176.15 236.385 179.732 236.385C183.314 236.385 186.229 239.3 186.229 242.881C186.229 245.116 185.095 247.092 183.369 248.263L182.705 248.713L183.459 248.987C184.927 249.522 186.274 250.376 187.414 251.516C188.811 252.913 189.801 254.664 190.278 256.582L190.468 257.349L190.985 256.752C193.254 254.137 194.629 250.726 194.629 247C194.629 238.785 187.947 232.103 179.732 232.103ZM179.732 237.487C176.757 237.487 174.338 239.907 174.338 242.881C174.338 245.718 176.538 248.048 179.322 248.259V248.276H179.732C182.707 248.276 185.126 245.856 185.126 242.881C185.126 239.907 182.706 237.487 179.732 237.487Z" fill="#131313"/>
<path d="M254.732 322.174C257.891 322.174 260.861 323.403 263.095 325.637C265.329 327.871 266.558 330.841 266.558 334C266.558 337.159 265.329 340.128 263.095 342.363C260.861 344.597 257.891 345.826 254.732 345.826C251.573 345.826 248.603 344.596 246.369 342.363C244.135 340.128 242.906 337.159 242.906 334C242.906 330.841 244.135 327.871 246.369 325.637C248.603 323.403 251.573 322.174 254.732 322.174ZM254.732 335.801C251.076 335.801 247.984 338.577 247.566 342.176L247.547 342.338L247.672 342.443C249.585 344.045 252.048 345.011 254.732 345.011C257.416 345.011 259.88 344.045 261.792 342.443L261.917 342.338L261.898 342.175C261.711 340.569 260.985 339.066 259.834 337.914C258.472 336.552 256.658 335.801 254.732 335.801ZM254.732 322.989C248.66 322.989 243.721 327.928 243.721 334C243.721 336.753 244.737 339.274 246.413 341.206L246.796 341.648L246.937 341.081C247.308 339.58 248.108 338.212 249.26 337.139C250.056 336.397 250.98 335.835 251.979 335.47L252.536 335.267L252.046 334.934C250.769 334.07 249.93 332.608 249.93 330.956C249.93 328.308 252.084 326.154 254.732 326.154C257.379 326.154 259.534 328.308 259.534 330.956C259.534 332.607 258.696 334.068 257.42 334.933L256.929 335.266L257.487 335.469C258.572 335.864 259.568 336.496 260.41 337.338C261.443 338.37 262.175 339.665 262.527 341.082L262.667 341.649L263.05 341.208C264.726 339.275 265.743 336.754 265.743 334C265.743 327.928 260.804 322.989 254.732 322.989ZM254.732 326.969C252.533 326.969 250.745 328.757 250.745 330.956C250.745 333.052 252.371 334.775 254.429 334.93V334.943H254.732C256.931 334.943 258.719 333.154 258.719 330.956C258.719 328.757 256.931 326.969 254.732 326.969Z" fill="#131313"/>
<path d="M22.8853 264.615C25.7058 261.795 30.2962 261.795 33.1167 264.615C35.9372 267.436 35.9372 272.026 33.1167 274.847C31.1945 276.77 28.409 277.392 25.8276 276.555L25.5386 276.461L25.3228 276.675L23.519 278.454L23.5171 278.456C23.479 278.494 23.4274 278.516 23.3735 278.516H21.5884V280.325C21.5882 280.354 21.5815 280.382 21.5698 280.408C21.5583 280.434 21.5417 280.457 21.521 280.476C21.4714 280.52 21.4146 280.533 21.3706 280.527L21.3618 280.526L20.2935 280.402L19.7856 280.343L19.7378 280.852L19.5981 282.332V282.333C19.5937 282.38 19.5728 282.424 19.5396 282.457C19.5229 282.474 19.5038 282.487 19.4829 282.497L19.4155 282.516L17.9351 282.654L17.4263 282.702L17.4849 283.21L17.6089 284.278C17.6124 284.309 17.6092 284.34 17.5991 284.369C17.589 284.398 17.5719 284.424 17.5503 284.445L16.5562 285.44C16.518 285.479 16.4665 285.5 16.4126 285.5H12.4351C12.3226 285.5 12.2319 285.409 12.2319 285.297V281.319C12.2319 281.293 12.2374 281.266 12.2476 281.241C12.2577 281.217 12.2727 281.195 12.2915 281.176L21.0015 272.465L21.2183 272.249L21.1245 271.957C20.2902 269.38 20.9592 266.541 22.8853 264.615ZM31.8345 265.897C30.8167 264.88 29.1629 264.88 28.145 265.897C27.1272 266.915 27.1272 268.569 28.145 269.587C29.1629 270.605 30.8166 270.605 31.8345 269.587C32.8521 268.569 32.8523 266.915 31.8345 265.897Z" stroke="#131313"/>
<mask id="path-90-inside-1_4235_5560" fill="white">
<path d="M177.923 434.938L180.794 437.809L170.909 447.695C170.813 447.791 170.699 447.868 170.573 447.921C170.447 447.973 170.312 448 170.175 448C170.039 448 169.904 447.973 169.778 447.921C169.652 447.868 169.538 447.791 169.441 447.695L168.037 446.29C167.94 446.194 167.864 446.08 167.811 445.954C167.759 445.828 167.732 445.693 167.732 445.557C167.732 445.42 167.759 445.285 167.811 445.159C167.864 445.034 167.94 444.919 168.037 444.823L177.923 434.938ZM184.564 432.578L183.153 431.167C182.959 430.975 182.697 430.867 182.423 430.867C182.15 430.867 181.887 430.975 181.693 431.167L178.414 434.447L181.292 437.311L184.564 434.039C184.757 433.845 184.865 433.582 184.865 433.309C184.865 433.035 184.757 432.773 184.564 432.578ZM178.001 424.124L177.682 425.159C177.552 425.58 177.321 425.963 177.009 426.275C176.697 426.587 176.314 426.818 175.893 426.947L174.858 427.267C174.822 427.278 174.791 427.3 174.768 427.33C174.746 427.36 174.734 427.397 174.734 427.435C174.734 427.472 174.746 427.509 174.768 427.539C174.791 427.57 174.822 427.592 174.858 427.603L175.893 427.922C176.314 428.052 176.697 428.283 177.009 428.594C177.321 428.906 177.552 429.289 177.682 429.711L178 430.745C178.011 430.782 178.033 430.813 178.064 430.836C178.094 430.858 178.131 430.87 178.169 430.87C178.206 430.87 178.243 430.858 178.274 430.836C178.304 430.813 178.326 430.782 178.337 430.745L178.656 429.711C178.786 429.289 179.017 428.906 179.328 428.594C179.64 428.283 180.023 428.052 180.445 427.922L181.479 427.603C181.515 427.592 181.547 427.57 181.57 427.54C181.592 427.509 181.604 427.473 181.604 427.435C181.604 427.397 181.592 427.36 181.57 427.33C181.547 427.3 181.515 427.277 181.479 427.267L180.445 426.948C180.023 426.818 179.64 426.587 179.328 426.275C179.017 425.963 178.786 425.58 178.656 425.159L178.337 424.124C178.326 424.088 178.304 424.057 178.273 424.034C178.243 424.012 178.207 424 178.169 424C178.131 424 178.095 424.012 178.064 424.034C178.034 424.057 178.012 424.088 178.001 424.124ZM185.711 437.175L185.515 437.807C185.436 438.064 185.295 438.298 185.105 438.488C184.914 438.679 184.68 438.819 184.423 438.899L183.791 439.094C183.769 439.101 183.75 439.114 183.737 439.133C183.723 439.151 183.716 439.174 183.716 439.197C183.716 439.219 183.723 439.242 183.737 439.26C183.75 439.279 183.769 439.292 183.791 439.299L184.423 439.494C184.68 439.573 184.914 439.714 185.105 439.905C185.295 440.095 185.436 440.329 185.515 440.586L185.711 441.218C185.717 441.24 185.731 441.259 185.749 441.273C185.768 441.287 185.79 441.294 185.813 441.294C185.836 441.294 185.859 441.287 185.877 441.273C185.896 441.259 185.909 441.24 185.916 441.218L186.111 440.586C186.19 440.329 186.331 440.095 186.522 439.905C186.712 439.714 186.946 439.574 187.203 439.494L187.835 439.3C187.857 439.293 187.876 439.279 187.89 439.261C187.903 439.242 187.911 439.22 187.911 439.197C187.911 439.174 187.903 439.152 187.89 439.133C187.876 439.115 187.857 439.101 187.835 439.094L187.203 438.899C186.946 438.82 186.712 438.679 186.522 438.489C186.331 438.298 186.19 438.064 186.111 437.807L185.916 437.175C185.91 437.153 185.896 437.134 185.877 437.12C185.859 437.107 185.837 437.099 185.814 437.099C185.791 437.099 185.768 437.107 185.75 437.12C185.731 437.134 185.718 437.153 185.711 437.175L185.711 437.175ZM189.573 430.963L189.331 431.748C189.233 432.068 189.058 432.358 188.821 432.595C188.585 432.831 188.294 433.006 187.975 433.105L187.19 433.347C187.163 433.355 187.139 433.372 187.122 433.395C187.105 433.418 187.096 433.446 187.096 433.475C187.096 433.503 187.105 433.531 187.122 433.554C187.139 433.577 187.163 433.594 187.19 433.602L187.975 433.844C188.294 433.943 188.585 434.118 188.822 434.354C189.058 434.591 189.233 434.881 189.332 435.201L189.574 435.986C189.612 436.111 189.79 436.111 189.829 435.986L190.071 435.201C190.169 434.881 190.344 434.591 190.581 434.354C190.817 434.118 191.108 433.943 191.428 433.844L192.212 433.602C192.24 433.594 192.264 433.577 192.281 433.554C192.297 433.531 192.307 433.503 192.307 433.475C192.307 433.446 192.297 433.418 192.281 433.395C192.264 433.372 192.24 433.355 192.212 433.347L191.428 433.105C191.108 433.006 190.817 432.831 190.581 432.595C190.345 432.358 190.17 432.068 190.071 431.748L189.829 430.963C189.821 430.936 189.804 430.912 189.781 430.895C189.758 430.878 189.73 430.869 189.701 430.869C189.673 430.869 189.645 430.878 189.622 430.895C189.599 430.912 189.582 430.936 189.573 430.963Z"/>
</mask>
<path d="M177.923 434.938L180.794 437.809L170.909 447.695C170.813 447.791 170.699 447.868 170.573 447.921C170.447 447.973 170.312 448 170.175 448C170.039 448 169.904 447.973 169.778 447.921C169.652 447.868 169.538 447.791 169.441 447.695L168.037 446.29C167.94 446.194 167.864 446.08 167.811 445.954C167.759 445.828 167.732 445.693 167.732 445.557C167.732 445.42 167.759 445.285 167.811 445.159C167.864 445.034 167.94 444.919 168.037 444.823L177.923 434.938ZM184.564 432.578L183.153 431.167C182.959 430.975 182.697 430.867 182.423 430.867C182.15 430.867 181.887 430.975 181.693 431.167L178.414 434.447L181.292 437.311L184.564 434.039C184.757 433.845 184.865 433.582 184.865 433.309C184.865 433.035 184.757 432.773 184.564 432.578ZM178.001 424.124L177.682 425.159C177.552 425.58 177.321 425.963 177.009 426.275C176.697 426.587 176.314 426.818 175.893 426.947L174.858 427.267C174.822 427.278 174.791 427.3 174.768 427.33C174.746 427.36 174.734 427.397 174.734 427.435C174.734 427.472 174.746 427.509 174.768 427.539C174.791 427.57 174.822 427.592 174.858 427.603L175.893 427.922C176.314 428.052 176.697 428.283 177.009 428.594C177.321 428.906 177.552 429.289 177.682 429.711L178 430.745C178.011 430.782 178.033 430.813 178.064 430.836C178.094 430.858 178.131 430.87 178.169 430.87C178.206 430.87 178.243 430.858 178.274 430.836C178.304 430.813 178.326 430.782 178.337 430.745L178.656 429.711C178.786 429.289 179.017 428.906 179.328 428.594C179.64 428.283 180.023 428.052 180.445 427.922L181.479 427.603C181.515 427.592 181.547 427.57 181.57 427.54C181.592 427.509 181.604 427.473 181.604 427.435C181.604 427.397 181.592 427.36 181.57 427.33C181.547 427.3 181.515 427.277 181.479 427.267L180.445 426.948C180.023 426.818 179.64 426.587 179.328 426.275C179.017 425.963 178.786 425.58 178.656 425.159L178.337 424.124C178.326 424.088 178.304 424.057 178.273 424.034C178.243 424.012 178.207 424 178.169 424C178.131 424 178.095 424.012 178.064 424.034C178.034 424.057 178.012 424.088 178.001 424.124ZM185.711 437.175L185.515 437.807C185.436 438.064 185.295 438.298 185.105 438.488C184.914 438.679 184.68 438.819 184.423 438.899L183.791 439.094C183.769 439.101 183.75 439.114 183.737 439.133C183.723 439.151 183.716 439.174 183.716 439.197C183.716 439.219 183.723 439.242 183.737 439.26C183.75 439.279 183.769 439.292 183.791 439.299L184.423 439.494C184.68 439.573 184.914 439.714 185.105 439.905C185.295 440.095 185.436 440.329 185.515 440.586L185.711 441.218C185.717 441.24 185.731 441.259 185.749 441.273C185.768 441.287 185.79 441.294 185.813 441.294C185.836 441.294 185.859 441.287 185.877 441.273C185.896 441.259 185.909 441.24 185.916 441.218L186.111 440.586C186.19 440.329 186.331 440.095 186.522 439.905C186.712 439.714 186.946 439.574 187.203 439.494L187.835 439.3C187.857 439.293 187.876 439.279 187.89 439.261C187.903 439.242 187.911 439.22 187.911 439.197C187.911 439.174 187.903 439.152 187.89 439.133C187.876 439.115 187.857 439.101 187.835 439.094L187.203 438.899C186.946 438.82 186.712 438.679 186.522 438.489C186.331 438.298 186.19 438.064 186.111 437.807L185.916 437.175C185.91 437.153 185.896 437.134 185.877 437.12C185.859 437.107 185.837 437.099 185.814 437.099C185.791 437.099 185.768 437.107 185.75 437.12C185.731 437.134 185.718 437.153 185.711 437.175L185.711 437.175ZM189.573 430.963L189.331 431.748C189.233 432.068 189.058 432.358 188.821 432.595C188.585 432.831 188.294 433.006 187.975 433.105L187.19 433.347C187.163 433.355 187.139 433.372 187.122 433.395C187.105 433.418 187.096 433.446 187.096 433.475C187.096 433.503 187.105 433.531 187.122 433.554C187.139 433.577 187.163 433.594 187.19 433.602L187.975 433.844C188.294 433.943 188.585 434.118 188.822 434.354C189.058 434.591 189.233 434.881 189.332 435.201L189.574 435.986C189.612 436.111 189.79 436.111 189.829 435.986L190.071 435.201C190.169 434.881 190.344 434.591 190.581 434.354C190.817 434.118 191.108 433.943 191.428 433.844L192.212 433.602C192.24 433.594 192.264 433.577 192.281 433.554C192.297 433.531 192.307 433.503 192.307 433.475C192.307 433.446 192.297 433.418 192.281 433.395C192.264 433.372 192.24 433.355 192.212 433.347L191.428 433.105C191.108 433.006 190.817 432.831 190.581 432.595C190.345 432.358 190.17 432.068 190.071 431.748L189.829 430.963C189.821 430.936 189.804 430.912 189.781 430.895C189.758 430.878 189.73 430.869 189.701 430.869C189.673 430.869 189.645 430.878 189.622 430.895C189.599 430.912 189.582 430.936 189.573 430.963Z" stroke="#131313" stroke-width="2" mask="url(#path-90-inside-1_4235_5560)"/>
<defs>
<filter id="filter0_f_4235_5560" x="14.7319" y="245" width="209" height="209" filterUnits="userSpaceOnUse" color-interpolation-filters="sRGB">
<feFlood flood-opacity="0" result="BackgroundImageFix"/>
<feBlend mode="normal" in="SourceGraphic" in2="BackgroundImageFix" result="shape"/>
<feGaussianBlur stdDeviation="16" result="effect1_foregroundBlur_4235_5560"/>
</filter>
<filter id="filter1_f_4235_5560" x="61.7319" y="294" width="114" height="114" filterUnits="userSpaceOnUse" color-interpolation-filters="sRGB">
<feFlood flood-opacity="0" result="BackgroundImageFix"/>
<feBlend mode="normal" in="SourceGraphic" in2="BackgroundImageFix" result="shape"/>
<feGaussianBlur stdDeviation="2" result="effect1_foregroundBlur_4235_5560"/>
</filter>
<filter id="filter2_f_4235_5560" x="71.3695" y="307.5" width="94.7249" height="87" filterUnits="userSpaceOnUse" color-interpolation-filters="sRGB">
<feFlood flood-opacity="0" result="BackgroundImageFix"/>
<feBlend mode="normal" in="SourceGraphic" in2="BackgroundImageFix" result="shape"/>
<feGaussianBlur stdDeviation="2" result="effect1_foregroundBlur_4235_5560"/>
</filter>
<linearGradient id="paint0_linear_4235_5560" x1="199.042" y1="171.024" x2="199.042" y2="442" gradientUnits="userSpaceOnUse">
<stop stop-color="#0D0F19" stop-opacity="0.8"/>
<stop offset="1" stop-color="#0D0F19" stop-opacity="0.54"/>
</linearGradient>
<linearGradient id="paint1_linear_4235_5560" x1="171.993" y1="155.084" x2="171.993" y2="171.024" gradientUnits="userSpaceOnUse">
<stop stop-color="#0D0F19" stop-opacity="0.8"/>
<stop offset="1" stop-color="#0D0F19" stop-opacity="0.54"/>
</linearGradient>
<linearGradient id="paint2_linear_4235_5560" x1="214.499" y1="155.084" x2="214.499" y2="171.024" gradientUnits="userSpaceOnUse">
<stop stop-color="#0D0F19" stop-opacity="0.8"/>
<stop offset="1" stop-color="#0D0F19" stop-opacity="0.54"/>
</linearGradient>
<linearGradient id="paint3_linear_4235_5560" x1="335.154" y1="353.607" x2="335.154" y2="442" gradientUnits="userSpaceOnUse">
<stop stop-color="#0D0F19" stop-opacity="0.8"/>
<stop offset="1" stop-color="#0D0F19" stop-opacity="0.54"/>
</linearGradient>
<linearGradient id="paint4_linear_4235_5560" x1="335.154" y1="247.825" x2="335.154" y2="353.607" gradientUnits="userSpaceOnUse">
<stop stop-color="#0D0F19" stop-opacity="0.8"/>
<stop offset="1" stop-color="#0D0F19" stop-opacity="0.54"/>
</linearGradient>
<linearGradient id="paint5_linear_4235_5560" x1="335.154" y1="142.043" x2="335.154" y2="247.825" gradientUnits="userSpaceOnUse">
<stop stop-color="#0D0F19" stop-opacity="0.8"/>
<stop offset="1" stop-color="#0D0F19" stop-opacity="0.54"/>
</linearGradient>
<linearGradient id="paint6_linear_4235_5560" x1="335.154" y1="71.5215" x2="335.154" y2="142.043" gradientUnits="userSpaceOnUse">
<stop stop-color="#0D0F19" stop-opacity="0.8"/>
<stop offset="1" stop-color="#0D0F19" stop-opacity="0.54"/>
</linearGradient>
<linearGradient id="paint7_linear_4235_5560" x1="298.927" y1="170.058" x2="298.927" y2="181.167" gradientUnits="userSpaceOnUse">
<stop stop-color="#0D0F19" stop-opacity="0.8"/>
<stop offset="1" stop-color="#0D0F19" stop-opacity="0.54"/>
</linearGradient>
<linearGradient id="paint8_linear_4235_5560" x1="298.927" y1="170.058" x2="298.927" y2="181.167" gradientUnits="userSpaceOnUse">
<stop stop-color="#0D0F19" stop-opacity="0.8"/>
<stop offset="1" stop-color="#0D0F19" stop-opacity="0.54"/>
</linearGradient>
<linearGradient id="paint9_linear_4235_5560" x1="298.927" y1="187.93" x2="298.927" y2="199.04" gradientUnits="userSpaceOnUse">
<stop stop-color="#0D0F19" stop-opacity="0.8"/>
<stop offset="1" stop-color="#0D0F19" stop-opacity="0.54"/>
</linearGradient>
<linearGradient id="paint10_linear_4235_5560" x1="298.927" y1="205.802" x2="298.927" y2="216.911" gradientUnits="userSpaceOnUse">
<stop stop-color="#0D0F19" stop-opacity="0.8"/>
<stop offset="1" stop-color="#0D0F19" stop-opacity="0.54"/>
</linearGradient>
<linearGradient id="paint11_linear_4235_5560" x1="313.418" y1="170.058" x2="313.418" y2="181.167" gradientUnits="userSpaceOnUse">
<stop stop-color="#0D0F19" stop-opacity="0.8"/>
<stop offset="1" stop-color="#0D0F19" stop-opacity="0.54"/>
</linearGradient>
<linearGradient id="paint12_linear_4235_5560" x1="313.418" y1="170.058" x2="313.418" y2="181.167" gradientUnits="userSpaceOnUse">
<stop stop-color="#0D0F19" stop-opacity="0.8"/>
<stop offset="1" stop-color="#0D0F19" stop-opacity="0.54"/>
</linearGradient>
<linearGradient id="paint13_linear_4235_5560" x1="313.418" y1="187.93" x2="313.418" y2="199.04" gradientUnits="userSpaceOnUse">
<stop stop-color="#0D0F19" stop-opacity="0.8"/>
<stop offset="1" stop-color="#0D0F19" stop-opacity="0.54"/>
</linearGradient>
<linearGradient id="paint14_linear_4235_5560" x1="313.418" y1="205.802" x2="313.418" y2="216.911" gradientUnits="userSpaceOnUse">
<stop stop-color="#0D0F19" stop-opacity="0.8"/>
<stop offset="1" stop-color="#0D0F19" stop-opacity="0.54"/>
</linearGradient>
<linearGradient id="paint15_linear_4235_5560" x1="327.908" y1="170.058" x2="327.908" y2="181.167" gradientUnits="userSpaceOnUse">
<stop stop-color="#0D0F19" stop-opacity="0.8"/>
<stop offset="1" stop-color="#0D0F19" stop-opacity="0.54"/>
</linearGradient>
<linearGradient id="paint16_linear_4235_5560" x1="327.908" y1="170.058" x2="327.908" y2="181.167" gradientUnits="userSpaceOnUse">
<stop stop-color="#0D0F19" stop-opacity="0.8"/>
<stop offset="1" stop-color="#0D0F19" stop-opacity="0.54"/>
</linearGradient>
<linearGradient id="paint17_linear_4235_5560" x1="327.908" y1="187.93" x2="327.908" y2="199.04" gradientUnits="userSpaceOnUse">
<stop stop-color="#0D0F19" stop-opacity="0.8"/>
<stop offset="1" stop-color="#0D0F19" stop-opacity="0.54"/>
</linearGradient>
<linearGradient id="paint18_linear_4235_5560" x1="327.908" y1="205.802" x2="327.908" y2="216.911" gradientUnits="userSpaceOnUse">
<stop stop-color="#0D0F19" stop-opacity="0.8"/>
<stop offset="1" stop-color="#0D0F19" stop-opacity="0.54"/>
</linearGradient>
<linearGradient id="paint19_linear_4235_5560" x1="342.399" y1="170.058" x2="342.399" y2="181.167" gradientUnits="userSpaceOnUse">
<stop stop-color="#0D0F19" stop-opacity="0.8"/>
<stop offset="1" stop-color="#0D0F19" stop-opacity="0.54"/>
</linearGradient>
<linearGradient id="paint20_linear_4235_5560" x1="342.399" y1="170.058" x2="342.399" y2="181.167" gradientUnits="userSpaceOnUse">
<stop stop-color="#0D0F19" stop-opacity="0.8"/>
<stop offset="1" stop-color="#0D0F19" stop-opacity="0.54"/>
</linearGradient>
<linearGradient id="paint21_linear_4235_5560" x1="342.399" y1="187.93" x2="342.399" y2="199.04" gradientUnits="userSpaceOnUse">
<stop stop-color="#0D0F19" stop-opacity="0.8"/>
<stop offset="1" stop-color="#0D0F19" stop-opacity="0.54"/>
</linearGradient>
<linearGradient id="paint22_linear_4235_5560" x1="342.399" y1="205.802" x2="342.399" y2="216.911" gradientUnits="userSpaceOnUse">
<stop stop-color="#0D0F19" stop-opacity="0.8"/>
<stop offset="1" stop-color="#0D0F19" stop-opacity="0.54"/>
</linearGradient>
<linearGradient id="paint23_linear_4235_5560" x1="356.89" y1="170.058" x2="356.89" y2="181.167" gradientUnits="userSpaceOnUse">
<stop stop-color="#0D0F19" stop-opacity="0.8"/>
<stop offset="1" stop-color="#0D0F19" stop-opacity="0.54"/>
</linearGradient>
<linearGradient id="paint24_linear_4235_5560" x1="356.89" y1="170.058" x2="356.89" y2="181.167" gradientUnits="userSpaceOnUse">
<stop stop-color="#0D0F19" stop-opacity="0.8"/>
<stop offset="1" stop-color="#0D0F19" stop-opacity="0.54"/>
</linearGradient>
<linearGradient id="paint25_linear_4235_5560" x1="356.89" y1="187.93" x2="356.89" y2="199.04" gradientUnits="userSpaceOnUse">
<stop stop-color="#0D0F19" stop-opacity="0.8"/>
<stop offset="1" stop-color="#0D0F19" stop-opacity="0.54"/>
</linearGradient>
<linearGradient id="paint26_linear_4235_5560" x1="356.89" y1="205.802" x2="356.89" y2="216.911" gradientUnits="userSpaceOnUse">
<stop stop-color="#0D0F19" stop-opacity="0.8"/>
<stop offset="1" stop-color="#0D0F19" stop-opacity="0.54"/>
</linearGradient>
<linearGradient id="paint27_linear_4235_5560" x1="371.38" y1="170.058" x2="371.38" y2="181.167" gradientUnits="userSpaceOnUse">
<stop stop-color="#0D0F19" stop-opacity="0.8"/>
<stop offset="1" stop-color="#0D0F19" stop-opacity="0.54"/>
</linearGradient>
<linearGradient id="paint28_linear_4235_5560" x1="371.38" y1="170.058" x2="371.38" y2="181.167" gradientUnits="userSpaceOnUse">
<stop stop-color="#0D0F19" stop-opacity="0.8"/>
<stop offset="1" stop-color="#0D0F19" stop-opacity="0.54"/>
</linearGradient>
<linearGradient id="paint29_linear_4235_5560" x1="371.38" y1="187.93" x2="371.38" y2="199.04" gradientUnits="userSpaceOnUse">
<stop stop-color="#0D0F19" stop-opacity="0.8"/>
<stop offset="1" stop-color="#0D0F19" stop-opacity="0.54"/>
</linearGradient>
<linearGradient id="paint30_linear_4235_5560" x1="371.38" y1="205.802" x2="371.38" y2="216.911" gradientUnits="userSpaceOnUse">
<stop stop-color="#0D0F19" stop-opacity="0.8"/>
<stop offset="1" stop-color="#0D0F19" stop-opacity="0.54"/>
</linearGradient>
<linearGradient id="paint31_linear_4235_5560" x1="118.732" y1="319.486" x2="118.732" y2="381.006" gradientUnits="userSpaceOnUse">
<stop stop-color="#3FA1E3" stop-opacity="0.35"/>
<stop offset="0.605793" stop-color="#3FA1E3"/>
</linearGradient>
<linearGradient id="paint32_linear_4235_5560" x1="179.732" y1="224" x2="179.732" y2="270" gradientUnits="userSpaceOnUse">
<stop stop-color="#3FA1E3" stop-opacity="0.35"/>
<stop offset="0.605793" stop-color="#3FA1E3"/>
</linearGradient>
<linearGradient id="paint33_linear_4235_5560" x1="254.732" y1="317" x2="254.732" y2="351" gradientUnits="userSpaceOnUse">
<stop stop-color="#3FA1E3" stop-opacity="0.35"/>
<stop offset="0.605793" stop-color="#3FA1E3"/>
</linearGradient>
<linearGradient id="paint34_linear_4235_5560" x1="23.7319" y1="252" x2="23.7319" y2="298" gradientUnits="userSpaceOnUse">
<stop stop-color="#3FA1E3" stop-opacity="0.35"/>
<stop offset="0.605793" stop-color="#3FA1E3"/>
</linearGradient>
<linearGradient id="paint35_linear_4235_5560" x1="178.732" y1="419" x2="178.732" y2="455" gradientUnits="userSpaceOnUse">
<stop stop-color="#3FA1E3" stop-opacity="0.35"/>
<stop offset="0.605793" stop-color="#3FA1E3"/>
</linearGradient>
</defs>
</svg>
