<svg width="480" height="400" viewBox="0 0 480 400" fill="none" xmlns="http://www.w3.org/2000/svg">
<g opacity="0.2" filter="url(#filter0_f_4316_2370)">
<circle cx="240" cy="200" r="100" fill="#3FA1E3"/>
</g>
<path d="M193.988 197.096L214.773 162.032C216.034 159.906 218.323 158.602 220.795 158.602H257.826C260.298 158.602 262.587 159.906 263.848 162.032L284.633 197.096C285.927 199.279 285.938 201.992 284.662 204.185L263.839 239.976C262.585 242.13 260.281 243.456 257.788 243.456H220.833C218.34 243.456 216.036 242.13 214.782 239.976L193.959 204.185C192.683 201.992 192.694 199.279 193.988 197.096Z" fill="url(#paint0_linear_4316_2370)"/>
<path d="M234.318 173.577H223.337L206.865 199.836L223.337 228.483H234.318L217.846 199.836L234.318 173.577Z" fill="#131313"/>
<path d="M244.303 173.577H255.284L271.755 199.836L255.284 228.483H244.303L260.774 199.836L244.303 173.577Z" fill="#131313"/>
<g opacity="0.2" filter="url(#filter1_f_4316_2370)">
<circle cx="239.31" cy="202.069" r="72.6034" stroke="#3FA1E3"/>
</g>
<g opacity="0.5" filter="url(#filter2_f_4316_2370)">
<path d="M180.752 198.006L208.471 151.682C209.735 149.57 212.016 148.276 214.478 148.276H264.144C266.606 148.276 268.886 149.57 270.151 151.682L297.87 198.006C299.183 200.201 299.195 202.939 297.899 205.145L270.142 252.408C268.885 254.548 266.588 255.863 264.106 255.863H214.516C212.033 255.863 209.737 254.548 208.48 252.407L180.723 205.145C179.427 202.939 179.438 200.201 180.752 198.006Z" stroke="#3FA1E3"/>
</g>
<circle opacity="0.2" cx="240" cy="200" r="106.5" stroke="#3FA1E3"/>
<circle opacity="0.1" cx="240" cy="200" r="147.5" stroke="#3FA1E3"/>
<circle opacity="0.1" cx="240" cy="200" r="193.5" stroke="#3FA1E3"/>
<circle opacity="0.6" cx="95" cy="174" r="23" fill="url(#paint1_linear_4316_2370)"/>
<circle opacity="0.6" cx="287" cy="106" r="23" fill="url(#paint2_linear_4316_2370)"/>
<circle opacity="0.6" cx="185" cy="290" r="23" fill="url(#paint3_linear_4316_2370)"/>
<circle opacity="0.6" cx="405" cy="97" r="23" fill="url(#paint4_linear_4316_2370)"/>
<circle opacity="0.6" cx="363" cy="348" r="23" fill="url(#paint5_linear_4316_2370)"/>
<path d="M94.9999 186C94.6625 186 94.3308 185.913 94.0363 185.748L90.2157 183.626C88.3162 182.57 86.7334 181.026 85.6312 179.152C84.5289 177.279 83.9472 175.146 83.9463 172.973V167.082C83.9462 166.592 84.128 166.119 84.4563 165.755C84.7847 165.391 85.2363 165.162 85.7239 165.111C87.244 164.95 88.7401 164.612 90.1817 164.104C91.5034 163.636 92.7713 163.029 93.9637 162.292C94.2757 162.101 94.6342 162 94.9999 162C95.3656 162 95.7242 162.101 96.0361 162.292C97.2287 163.029 98.4966 163.636 99.8182 164.104C101.26 164.612 102.756 164.95 104.276 165.111C104.764 165.162 105.215 165.391 105.544 165.755C105.872 166.119 106.054 166.592 106.054 167.082V172.973C106.053 175.146 105.471 177.279 104.369 179.152C103.266 181.026 101.684 182.57 99.7842 183.626L95.9636 185.749C95.669 185.914 95.3373 186 94.9999 186ZM94.9999 163.7C94.9501 163.7 94.901 163.713 94.8582 163.739C93.5624 164.539 92.1847 165.2 90.7485 165.708C89.182 166.261 87.5562 166.628 85.9042 166.803C85.834 166.809 85.7687 166.841 85.721 166.893C85.6733 166.945 85.6469 167.013 85.6469 167.083V172.974C85.6475 174.844 86.1479 176.68 87.0962 178.291C88.0446 179.903 89.4066 181.232 91.041 182.141L94.8616 184.263C94.9035 184.287 94.9508 184.299 94.9988 184.299C95.0469 184.299 95.0941 184.287 95.136 184.263L98.9588 182.141C100.593 181.232 101.955 179.903 102.904 178.291C103.852 176.68 104.352 174.844 104.353 172.974V167.082C104.353 167.011 104.327 166.944 104.279 166.892C104.231 166.84 104.166 166.808 104.096 166.802C102.444 166.627 100.818 166.26 99.2513 165.707C97.8153 165.199 96.4376 164.54 95.1417 163.74C95.0991 163.713 95.05 163.7 94.9999 163.7Z" fill="#131313"/>
<path d="M94.4329 176.526C94.2246 176.526 94.0236 176.449 93.8683 176.31L91.3175 174.043C91.1593 173.891 91.0662 173.683 91.0578 173.463C91.0493 173.244 91.1261 173.03 91.272 172.866C91.418 172.701 91.6218 172.6 91.8407 172.583C92.0597 172.566 92.2768 172.634 92.4466 172.773L94.3785 174.49L98.0642 170.559C98.14 170.476 98.2317 170.408 98.3339 170.361C98.4361 170.313 98.5467 170.286 98.6593 170.282C98.772 170.277 98.8844 170.295 98.99 170.335C99.0956 170.374 99.1923 170.434 99.2745 170.511C99.3567 170.588 99.4228 170.681 99.4689 170.784C99.5149 170.887 99.5401 170.998 99.5429 171.111C99.5457 171.223 99.526 171.335 99.4851 171.44C99.4441 171.545 99.3827 171.641 99.3044 171.722L95.053 176.257C94.9736 176.342 94.8776 176.41 94.7709 176.456C94.6642 176.502 94.5492 176.526 94.4329 176.526Z" fill="#131313"/>
<path d="M287 92.7002C290.553 92.7002 293.893 94.0827 296.405 96.5947C298.917 99.1068 300.3 102.447 300.3 106C300.3 109.553 298.917 112.893 296.405 115.405C293.893 117.917 290.553 119.3 287 119.3C283.447 119.3 280.107 117.917 277.595 115.405C275.083 112.893 273.7 109.553 273.7 106C273.7 102.447 275.083 99.1068 277.595 96.5947C280.107 94.0827 283.447 92.7002 287 92.7002ZM287 108.28C283.134 108.28 279.862 111.217 279.42 115.022L279.418 115.039L279.432 115.051C281.482 116.768 284.122 117.804 287 117.804C289.878 117.804 292.518 116.768 294.568 115.051L294.582 115.04L294.58 115.021C294.382 113.323 293.614 111.733 292.396 110.515C290.955 109.074 289.038 108.28 287 108.28ZM287 94.1963C280.491 94.1963 275.196 99.4911 275.196 106C275.196 108.952 276.285 111.654 278.082 113.726L278.124 113.773L278.14 113.712C278.561 112.006 279.471 110.451 280.78 109.231C281.684 108.389 282.735 107.749 283.871 107.335L283.933 107.312L283.879 107.275C282.397 106.271 281.421 104.574 281.421 102.653C281.421 99.5775 283.924 97.0752 287 97.0752C290.076 97.0752 292.579 99.5775 292.579 102.653C292.579 104.573 291.604 106.27 290.123 107.274L290.069 107.311L290.131 107.333L290.589 107.514C291.645 107.965 292.617 108.62 293.454 109.457C294.628 110.63 295.459 112.102 295.859 113.713L295.874 113.774L295.917 113.727L296.245 113.331C297.846 111.316 298.804 108.768 298.804 106C298.804 99.4911 293.509 94.1963 287 94.1963ZM287 98.5713C284.749 98.5713 282.917 100.402 282.917 102.653C282.917 104.8 284.583 106.564 286.689 106.724L286.874 106.737H287C289.251 106.737 291.083 104.905 291.083 102.653C291.083 100.402 289.251 98.5713 287 98.5713Z" fill="#131313"/>
<path d="M193.485 281.515C192.371 280.4 191.048 279.517 189.592 278.913C188.136 278.31 186.576 278 185 278C181.817 278 178.765 279.264 176.515 281.515C174.264 283.765 173 286.817 173 290C173 293.183 174.264 296.235 176.515 298.485C178.765 300.736 181.817 302 185 302C188.183 302 191.235 300.736 193.485 298.485C195.736 296.235 197 293.183 197 290C197 286.817 195.736 283.765 193.485 281.515ZM192.292 297.292C190.605 298.979 188.385 300.029 186.011 300.263C183.636 300.497 181.254 299.9 179.271 298.575C177.287 297.249 175.824 295.277 175.132 292.994C174.439 290.71 174.56 288.258 175.473 286.054C176.386 283.849 178.035 282.03 180.139 280.905C182.243 279.78 184.672 279.42 187.012 279.886C189.352 280.351 191.458 281.614 192.972 283.458C194.485 285.302 195.313 287.614 195.313 290C195.316 291.355 195.051 292.697 194.533 293.949C194.014 295.2 193.253 296.337 192.292 297.292ZM183.559 285.184V294.816C183.559 295.04 183.47 295.255 183.311 295.413C183.153 295.571 182.939 295.66 182.715 295.66C182.491 295.66 182.276 295.571 182.118 295.413C181.96 295.255 181.871 295.04 181.871 294.816V287.824L180.625 289.575C180.494 289.756 180.298 289.878 180.078 289.914C179.858 289.951 179.633 289.899 179.451 289.769C179.269 289.64 179.146 289.444 179.109 289.225C179.071 289.005 179.122 288.779 179.25 288.597L182.027 284.694C182.131 284.549 182.279 284.44 182.448 284.383C182.618 284.327 182.801 284.325 182.972 284.38C183.142 284.434 183.291 284.542 183.396 284.686C183.502 284.831 183.559 285.005 183.559 285.184ZM190.75 291.403L187.973 295.306C187.869 295.451 187.722 295.56 187.552 295.617C187.382 295.674 187.199 295.675 187.028 295.62C186.858 295.566 186.709 295.459 186.604 295.314C186.498 295.17 186.441 294.995 186.441 294.816V285.184C186.441 284.96 186.53 284.745 186.689 284.587C186.847 284.429 187.061 284.34 187.285 284.34C187.509 284.34 187.724 284.429 187.882 284.587C188.04 284.745 188.129 284.96 188.129 285.184V292.176L189.375 290.425C189.439 290.334 189.521 290.256 189.615 290.197C189.709 290.138 189.813 290.097 189.923 290.079C190.033 290.06 190.145 290.063 190.253 290.088C190.362 290.112 190.464 290.158 190.555 290.223C190.645 290.287 190.722 290.369 190.781 290.463C190.84 290.558 190.88 290.663 190.898 290.772C190.916 290.882 190.912 290.994 190.887 291.103C190.862 291.211 190.815 291.313 190.75 291.403Z" fill="#131313"/>
<path d="M403.27 85.7315C406.578 82.4228 411.96 82.4228 415.269 85.7315C418.474 88.9366 418.574 94.0873 415.569 97.4141L415.269 97.7305C413.113 99.8876 410.041 100.644 407.154 99.8731L405.665 101.344C405.393 101.614 405.026 101.766 404.642 101.766H404.106V102.325L404.098 102.479C404.081 102.63 404.041 102.779 403.979 102.919C403.895 103.106 403.773 103.273 403.62 103.409L403.618 103.411C403.32 103.675 402.911 103.821 402.485 103.768L402.178 103.732L402.11 104.449C402.079 104.786 401.931 105.102 401.691 105.341C401.452 105.58 401.137 105.727 400.8 105.759L400.082 105.827L400.118 106.135C400.143 106.352 400.12 106.573 400.048 106.779C399.976 106.986 399.858 107.174 399.703 107.329L398.708 108.324C398.436 108.596 398.067 108.75 397.681 108.75H393.703C392.9 108.75 392.25 108.1 392.25 107.297V103.319C392.25 103.128 392.287 102.939 392.36 102.763L392.422 102.634C392.489 102.508 392.575 102.392 392.676 102.291L401.072 93.8936C400.307 90.9963 401.12 87.8806 403.27 85.7315ZM414.208 86.792C411.485 84.0692 407.053 84.0692 404.33 86.792C402.471 88.6513 401.824 91.3929 402.63 93.8809L402.771 94.3174L402.446 94.6416L393.75 103.338V107.25H397.661L398.625 106.284L398.417 104.478L400.62 104.27L400.757 102.828L400.828 102.065L401.59 102.154L402.606 102.272V100.266H404.621L406.739 98.1768L407.173 98.3164C409.668 99.1254 412.355 98.5245 414.208 96.67C416.931 93.9472 416.931 89.5149 414.208 86.792ZM409.236 87.7207C410.352 86.6054 412.164 86.6053 413.279 87.7207C414.395 88.8362 414.395 90.6482 413.279 91.7637C412.164 92.8792 410.352 92.8792 409.236 91.7637C408.121 90.6482 408.121 88.8362 409.236 87.7207ZM412.219 88.7813C411.689 88.2517 410.827 88.2518 410.297 88.7813C409.767 89.311 409.767 90.1734 410.297 90.7032C410.827 91.2329 411.689 91.2329 412.219 90.7032C412.748 90.1734 412.748 89.3109 412.219 88.7813Z" fill="#131313"/>
<path d="M363 361C362.663 361 362.331 360.914 362.037 360.749L358.216 358.626C356.316 357.57 354.733 356.026 353.631 354.152C352.529 352.279 351.947 350.146 351.946 347.972V342.081C351.946 341.591 352.128 341.118 352.456 340.754C352.785 340.39 353.236 340.161 353.724 340.111C355.244 339.95 356.74 339.611 358.182 339.103C359.503 338.636 360.771 338.029 361.963 337.291H361.964C362.276 337.101 362.635 337 363 337C363.366 337 363.724 337.101 364.036 337.291C365.229 338.029 366.497 338.636 367.819 339.103C369.26 339.611 370.756 339.95 372.276 340.111C372.764 340.161 373.216 340.39 373.544 340.754C373.872 341.118 374.054 341.591 374.054 342.081V347.972C374.053 350.146 373.472 352.279 372.369 354.152C371.267 356.026 369.684 357.57 367.785 358.626L363.964 360.749C363.669 360.914 363.338 361 363 361ZM362.858 338.739C361.563 339.539 360.185 340.199 358.749 340.706C357.182 341.259 355.556 341.627 353.904 341.801C353.834 341.807 353.769 341.839 353.721 341.891C353.673 341.943 353.647 342.011 353.647 342.081V347.972C353.647 349.842 354.148 351.678 355.096 353.29C356.045 354.902 357.407 356.231 359.041 357.14L362.862 359.262C362.904 359.286 362.952 359.299 363 359.299C363.049 359.299 363.096 359.286 363.139 359.262L366.959 357.14C368.594 356.231 369.956 354.902 370.904 353.29C371.853 351.678 372.353 349.842 372.354 347.972V342.081C372.353 342.011 372.327 341.943 372.279 341.891C372.232 341.839 372.166 341.807 372.096 341.801C370.444 341.627 368.818 341.259 367.252 340.706C365.816 340.199 364.438 339.539 363.142 338.739C363.099 338.713 363.05 338.7 363 338.7C362.95 338.7 362.901 338.713 362.858 338.739Z" fill="#131313"/>
<path d="M365.834 354.927H360.166C359.489 354.926 358.841 354.657 358.363 354.179C357.884 353.701 357.615 353.052 357.615 352.376V348.975C357.615 348.298 357.884 347.65 358.363 347.172C358.841 346.693 359.489 346.424 360.166 346.424H365.834C366.511 346.424 367.159 346.693 367.637 347.172C368.116 347.65 368.385 348.298 368.385 348.975V352.376C368.385 353.052 368.116 353.701 367.637 354.179C367.159 354.657 366.511 354.926 365.834 354.927ZM360.166 348.124C359.94 348.124 359.724 348.214 359.564 348.373C359.405 348.533 359.315 348.749 359.315 348.975V352.376C359.315 352.601 359.405 352.818 359.564 352.977C359.724 353.137 359.94 353.226 360.166 353.226H365.834C366.06 353.226 366.276 353.137 366.436 352.977C366.595 352.818 366.685 352.601 366.685 352.376V348.975C366.685 348.749 366.595 348.533 366.436 348.373C366.276 348.214 366.06 348.124 365.834 348.124H360.166Z" fill="#131313"/>
<path d="M365.268 348.124H360.733C360.507 348.124 360.291 348.035 360.131 347.875C359.972 347.716 359.882 347.499 359.882 347.274V345.006C359.882 344.18 360.211 343.387 360.795 342.802C361.38 342.217 362.173 341.889 363 341.889C363.827 341.889 364.62 342.217 365.205 342.802C365.789 343.387 366.118 344.18 366.118 345.006V347.274C366.118 347.499 366.028 347.716 365.869 347.875C365.709 348.035 365.493 348.124 365.268 348.124ZM361.583 346.424H364.417V345.006C364.417 344.631 364.268 344.27 364.002 344.004C363.736 343.739 363.376 343.589 363 343.589C362.624 343.589 362.264 343.739 361.998 344.004C361.732 344.27 361.583 344.631 361.583 345.006V346.424Z" fill="#131313"/>
<defs>
<filter id="filter0_f_4316_2370" x="108" y="68" width="264" height="264" filterUnits="userSpaceOnUse" color-interpolation-filters="sRGB">
<feFlood flood-opacity="0" result="BackgroundImageFix"/>
<feBlend mode="normal" in="SourceGraphic" in2="BackgroundImageFix" result="shape"/>
<feGaussianBlur stdDeviation="16" result="effect1_foregroundBlur_4316_2370"/>
</filter>
<filter id="filter1_f_4316_2370" x="162.207" y="124.966" width="154.207" height="154.207" filterUnits="userSpaceOnUse" color-interpolation-filters="sRGB">
<feFlood flood-opacity="0" result="BackgroundImageFix"/>
<feBlend mode="normal" in="SourceGraphic" in2="BackgroundImageFix" result="shape"/>
<feGaussianBlur stdDeviation="2" result="effect1_foregroundBlur_4316_2370"/>
</filter>
<filter id="filter2_f_4316_2370" x="175.259" y="143.776" width="128.104" height="116.586" filterUnits="userSpaceOnUse" color-interpolation-filters="sRGB">
<feFlood flood-opacity="0" result="BackgroundImageFix"/>
<feBlend mode="normal" in="SourceGraphic" in2="BackgroundImageFix" result="shape"/>
<feGaussianBlur stdDeviation="2" result="effect1_foregroundBlur_4316_2370"/>
</filter>
<linearGradient id="paint0_linear_4316_2370" x1="239.311" y1="158.602" x2="239.311" y2="243.456" gradientUnits="userSpaceOnUse">
<stop stop-color="#3FA1E3" stop-opacity="0.35"/>
<stop offset="0.605793" stop-color="#3FA1E3"/>
</linearGradient>
<linearGradient id="paint1_linear_4316_2370" x1="95" y1="151" x2="95" y2="197" gradientUnits="userSpaceOnUse">
<stop stop-color="#3FA1E3" stop-opacity="0.35"/>
<stop offset="0.605793" stop-color="#3FA1E3"/>
</linearGradient>
<linearGradient id="paint2_linear_4316_2370" x1="287" y1="83" x2="287" y2="129" gradientUnits="userSpaceOnUse">
<stop stop-color="#3FA1E3" stop-opacity="0.35"/>
<stop offset="0.605793" stop-color="#3FA1E3"/>
</linearGradient>
<linearGradient id="paint3_linear_4316_2370" x1="185" y1="267" x2="185" y2="313" gradientUnits="userSpaceOnUse">
<stop stop-color="#3FA1E3" stop-opacity="0.35"/>
<stop offset="0.605793" stop-color="#3FA1E3"/>
</linearGradient>
<linearGradient id="paint4_linear_4316_2370" x1="405" y1="74" x2="405" y2="120" gradientUnits="userSpaceOnUse">
<stop stop-color="#3FA1E3" stop-opacity="0.35"/>
<stop offset="0.605793" stop-color="#3FA1E3"/>
</linearGradient>
<linearGradient id="paint5_linear_4316_2370" x1="363" y1="325" x2="363" y2="371" gradientUnits="userSpaceOnUse">
<stop stop-color="#3FA1E3" stop-opacity="0.35"/>
<stop offset="0.605793" stop-color="#3FA1E3"/>
</linearGradient>
</defs>
</svg>
