<svg width="867" height="149" viewBox="0 0 867 149" fill="none" xmlns="http://www.w3.org/2000/svg">
<path d="M390.096 69.7367L398.577 55.4306C399.837 53.304 402.126 52 404.598 52H419.402C421.874 52 424.163 53.304 425.423 55.4306L433.904 69.7367C435.198 71.9199 435.209 74.6326 433.933 76.8263L425.414 91.4675C424.161 93.622 421.856 94.9474 419.364 94.9474H404.636C402.144 94.9474 399.839 93.622 398.586 91.4676L390.067 76.8263C388.791 74.6326 388.802 71.9199 390.096 69.7367Z" fill="url(#paint0_linear_3573_23407)"/>
<path d="M409.474 59.5789H403.916L395.579 72.8695L403.916 87.3684H409.474L401.137 72.8695L409.474 59.5789Z" fill="#131313"/>
<path d="M414.526 59.5789H420.084L428.421 72.8695L420.084 87.3684H414.526L422.863 72.8695L414.526 59.5789Z" fill="#131313"/>
<g opacity="0.2" filter="url(#filter0_f_3573_23407)">
<circle cx="412" cy="74" r="36.5" stroke="#3FA1E3"/>
</g>
<g opacity="0.5" filter="url(#filter1_f_3573_23407)">
<path d="M383.196 70.1407L395.243 50.3592C396.513 48.2731 398.779 47 401.221 47H422.779C425.221 47 427.487 48.2731 428.757 50.3592L440.804 70.1407C442.154 72.3591 442.166 75.1432 440.833 77.3727L428.749 97.5912C427.486 99.7055 425.204 101 422.741 101H401.259C398.796 101 396.514 99.7055 395.251 97.5912L383.167 77.3727C381.834 75.1432 381.846 72.3591 383.196 70.1407Z" stroke="#3FA1E3"/>
</g>
<g opacity="0.2" clip-path="url(#clip0_3573_23407)">
<path d="M16 0C20.2745 0 24.2915 1.66347 27.3141 4.6859C30.3366 7.70845 32 11.7255 32 16C32 20.2745 30.3365 24.2915 27.3141 27.3141C24.2916 30.3366 20.2745 32 16 32C11.7255 32 7.70845 30.3365 4.6859 27.3141C1.66341 24.2916 0 20.2745 0 16C0 11.7255 1.66347 7.70845 4.6859 4.6859C7.70845 1.66341 11.7255 0 16 0ZM16 18.4367C11.0535 18.4367 6.87038 22.193 6.30449 27.0617L6.27885 27.2812L6.44872 27.4231C9.03605 29.59 12.3681 30.8974 16 30.8974C19.6319 30.8974 22.9648 29.59 25.5521 27.4231L25.7212 27.2812L25.6955 27.0609C25.4427 24.888 24.4605 22.8535 22.903 21.2957C21.0596 19.4526 18.6061 18.4367 16 18.4367ZM16 1.10256C7.78515 1.10256 1.10256 7.78515 1.10256 16C1.10256 19.7253 2.47751 23.1357 4.74519 25.75L5.26362 26.3478L5.45353 25.5801C5.95524 23.5496 7.03764 21.6989 8.59696 20.2468C9.67361 19.2438 10.9242 18.4821 12.2756 17.9896L13.0296 17.7147L12.3654 17.2644C10.6382 16.0942 9.50321 14.1172 9.50321 11.8814C9.50334 8.29952 12.4181 5.38462 16 5.38462C19.5819 5.38462 22.4967 8.29952 22.4968 11.8814C22.4968 14.116 21.3628 16.0924 19.637 17.2628L18.9728 17.7131L19.7268 17.9872C21.1951 18.5222 22.5422 19.3764 23.6819 20.516C25.079 21.9128 26.0695 23.6644 26.5457 25.5817L26.7356 26.3486L27.2532 25.7516C29.5217 23.1373 30.8974 19.7261 30.8974 16C30.8974 7.78515 24.2148 1.10256 16 1.10256ZM16 6.48718C13.0254 6.48718 10.6059 8.90654 10.6058 11.8814C10.6058 14.7181 12.806 17.0485 15.5897 17.2588V17.2764H16C18.9747 17.2764 21.3942 14.8561 21.3942 11.8814C21.3941 8.90654 18.9746 6.48718 16 6.48718Z" fill="#232F6F"/>
</g>
<g clip-path="url(#clip1_3573_23407)">
<path d="M72 0C76.2745 0 80.2915 1.66347 83.3141 4.6859C86.3366 7.70845 88 11.7255 88 16C88 20.2745 86.3365 24.2915 83.3141 27.3141C80.2916 30.3366 76.2745 32 72 32C67.7255 32 63.7085 30.3365 60.6859 27.3141C57.6634 24.2916 56 20.2745 56 16C56 11.7255 57.6635 7.70845 60.6859 4.6859C63.7084 1.66341 67.7255 0 72 0ZM72 18.4367C67.0535 18.4367 62.8704 22.193 62.3045 27.0617L62.2788 27.2812L62.4487 27.4231C65.0361 29.59 68.3681 30.8974 72 30.8974C75.6319 30.8974 78.9648 29.59 81.5521 27.4231L81.7212 27.2812L81.6955 27.0609C81.4427 24.888 80.4605 22.8535 78.903 21.2957C77.0596 19.4526 74.6061 18.4367 72 18.4367ZM72 1.10256C63.7852 1.10256 57.1026 7.78515 57.1026 16C57.1026 19.7253 58.4775 23.1357 60.7452 25.75L61.2636 26.3478L61.4535 25.5801C61.9552 23.5496 63.0376 21.6989 64.597 20.2468C65.6736 19.2438 66.9242 18.4821 68.2756 17.9896L69.0296 17.7147L68.3654 17.2644C66.6382 16.0942 65.5032 14.1172 65.5032 11.8814C65.5033 8.29952 68.4181 5.38462 72 5.38462C75.5819 5.38462 78.4967 8.29952 78.4968 11.8814C78.4968 14.116 77.3628 16.0924 75.637 17.2628L74.9728 17.7131L75.7268 17.9872C77.1951 18.5222 78.5422 19.3764 79.6819 20.516C81.079 21.9128 82.0695 23.6644 82.5457 25.5817L82.7356 26.3486L83.2532 25.7516C85.5217 23.1373 86.8974 19.7261 86.8974 16C86.8974 7.78515 80.2148 1.10256 72 1.10256ZM72 6.48718C69.0254 6.48718 66.6059 8.90654 66.6058 11.8814C66.6058 14.7181 68.806 17.0485 71.5897 17.2588V17.2764H72C74.9747 17.2764 77.3942 14.8561 77.3942 11.8814C77.3941 8.90654 74.9746 6.48718 72 6.48718Z" fill="#232F6F"/>
</g>
<g opacity="0.2" clip-path="url(#clip2_3573_23407)">
<path d="M16 60C20.2745 60 24.2915 61.6635 27.3141 64.6859C30.3366 67.7084 32 71.7255 32 76C32 80.2745 30.3365 84.2915 27.3141 87.3141C24.2916 90.3366 20.2745 92 16 92C11.7255 92 7.70845 90.3365 4.6859 87.3141C1.66341 84.2916 0 80.2745 0 76C0 71.7255 1.66347 67.7085 4.6859 64.6859C7.70845 61.6634 11.7255 60 16 60ZM16 78.4367C11.0535 78.4367 6.87038 82.193 6.30449 87.0617L6.27885 87.2812L6.44872 87.4231C9.03605 89.59 12.3681 90.8974 16 90.8974C19.6319 90.8974 22.9648 89.59 25.5521 87.4231L25.7212 87.2812L25.6955 87.0609C25.4427 84.888 24.4605 82.8535 22.903 81.2957C21.0596 79.4526 18.6061 78.4367 16 78.4367ZM16 61.1026C7.78515 61.1026 1.10256 67.7852 1.10256 76C1.10256 79.7253 2.47751 83.1357 4.74519 85.75L5.26362 86.3478L5.45353 85.5801C5.95524 83.5496 7.03764 81.6989 8.59696 80.2468C9.67361 79.2438 10.9242 78.4821 12.2756 77.9896L13.0296 77.7147L12.3654 77.2644C10.6382 76.0942 9.50321 74.1172 9.50321 71.8814C9.50334 68.2995 12.4181 65.3846 16 65.3846C19.5819 65.3846 22.4967 68.2995 22.4968 71.8814C22.4968 74.116 21.3628 76.0924 19.637 77.2628L18.9728 77.7131L19.7268 77.9872C21.1951 78.5222 22.5422 79.3764 23.6819 80.516C25.079 81.9128 26.0695 83.6644 26.5457 85.5817L26.7356 86.3486L27.2532 85.7516C29.5217 83.1373 30.8974 79.7261 30.8974 76C30.8974 67.7852 24.2148 61.1026 16 61.1026ZM16 66.4872C13.0254 66.4872 10.6059 68.9065 10.6058 71.8814C10.6058 74.7181 12.806 77.0485 15.5897 77.2588V77.2764H16C18.9747 77.2764 21.3942 74.8561 21.3942 71.8814C21.3941 68.9065 18.9746 66.4872 16 66.4872Z" fill="#232F6F"/>
</g>
<g opacity="0.4" clip-path="url(#clip3_3573_23407)">
<path d="M43 30C47.2745 30 51.2915 31.6635 54.3141 34.6859C57.3366 37.7084 59 41.7255 59 46C59 50.2745 57.3365 54.2915 54.3141 57.3141C51.2916 60.3366 47.2745 62 43 62C38.7255 62 34.7085 60.3365 31.6859 57.3141C28.6634 54.2916 27 50.2745 27 46C27 41.7255 28.6635 37.7085 31.6859 34.6859C34.7084 31.6634 38.7255 30 43 30ZM43 48.4367C38.0535 48.4367 33.8704 52.193 33.3045 57.0617L33.2788 57.2812L33.4487 57.4231C36.0361 59.59 39.3681 60.8974 43 60.8974C46.6319 60.8974 49.9648 59.59 52.5521 57.4231L52.7212 57.2812L52.6955 57.0609C52.4427 54.888 51.4605 52.8535 49.903 51.2957C48.0596 49.4526 45.6061 48.4367 43 48.4367ZM43 31.1026C34.7852 31.1026 28.1026 37.7852 28.1026 46C28.1026 49.7253 29.4775 53.1357 31.7452 55.75L32.2636 56.3478L32.4535 55.5801C32.9552 53.5496 34.0376 51.6989 35.597 50.2468C36.6736 49.2438 37.9242 48.4821 39.2756 47.9896L40.0296 47.7147L39.3654 47.2644C37.6382 46.0942 36.5032 44.1172 36.5032 41.8814C36.5033 38.2995 39.4181 35.3846 43 35.3846C46.5819 35.3846 49.4967 38.2995 49.4968 41.8814C49.4968 44.116 48.3628 46.0924 46.637 47.2628L45.9728 47.7131L46.7268 47.9872C48.1951 48.5222 49.5422 49.3764 50.6819 50.516C52.079 51.9128 53.0695 53.6644 53.5457 55.5817L53.7356 56.3486L54.2532 55.7516C56.5217 53.1373 57.8974 49.7261 57.8974 46C57.8974 37.7852 51.2148 31.1026 43 31.1026ZM43 36.4872C40.0254 36.4872 37.6059 38.9065 37.6058 41.8814C37.6058 44.7181 39.806 47.0485 42.5897 47.2588V47.2764H43C45.9747 47.2764 48.3942 44.8561 48.3942 41.8814C48.3941 38.9065 45.9746 36.4872 43 36.4872Z" fill="#232F6F"/>
</g>
<g clip-path="url(#clip4_3573_23407)">
<path d="M99 30C103.274 30 107.292 31.6635 110.314 34.6859C113.337 37.7084 115 41.7255 115 46C115 50.2745 113.337 54.2915 110.314 57.3141C107.292 60.3366 103.274 62 99 62C94.7255 62 90.7085 60.3365 87.6859 57.3141C84.6634 54.2916 83 50.2745 83 46C83 41.7255 84.6635 37.7085 87.6859 34.6859C90.7084 31.6634 94.7255 30 99 30ZM99 48.4367C94.0535 48.4367 89.8704 52.193 89.3045 57.0617L89.2788 57.2812L89.4487 57.4231C92.0361 59.59 95.3681 60.8974 99 60.8974C102.632 60.8974 105.965 59.59 108.552 57.4231L108.721 57.2812L108.696 57.0609C108.443 54.888 107.461 52.8535 105.903 51.2957C104.06 49.4526 101.606 48.4367 99 48.4367ZM99 31.1026C90.7852 31.1026 84.1026 37.7852 84.1026 46C84.1026 49.7253 85.4775 53.1357 87.7452 55.75L88.2636 56.3478L88.4535 55.5801C88.9552 53.5496 90.0376 51.6989 91.597 50.2468C92.6736 49.2438 93.9242 48.4821 95.2756 47.9896L96.0296 47.7147L95.3654 47.2644C93.6382 46.0942 92.5032 44.1172 92.5032 41.8814C92.5033 38.2995 95.4181 35.3846 99 35.3846C102.582 35.3846 105.497 38.2995 105.497 41.8814C105.497 44.116 104.363 46.0924 102.637 47.2628L101.973 47.7131L102.727 47.9872C104.195 48.5222 105.542 49.3764 106.682 50.516C108.079 51.9128 109.07 53.6644 109.546 55.5817L109.736 56.3486L110.253 55.7516C112.522 53.1373 113.897 49.7261 113.897 46C113.897 37.7852 107.215 31.1026 99 31.1026ZM99 36.4872C96.0254 36.4872 93.6059 38.9065 93.6058 41.8814C93.6058 44.7181 95.806 47.0485 98.5897 47.2588V47.2764H99C101.975 47.2764 104.394 44.8561 104.394 41.8814C104.394 38.9065 101.975 36.4872 99 36.4872Z" fill="#232F6F"/>
</g>
<g opacity="0.4" clip-path="url(#clip5_3573_23407)">
<path d="M43 86C47.2745 86 51.2915 87.6635 54.3141 90.6859C57.3366 93.7084 59 97.7255 59 102C59 106.274 57.3365 110.292 54.3141 113.314C51.2916 116.337 47.2745 118 43 118C38.7255 118 34.7085 116.337 31.6859 113.314C28.6634 110.292 27 106.274 27 102C27 97.7255 28.6635 93.7085 31.6859 90.6859C34.7084 87.6634 38.7255 86 43 86ZM43 104.437C38.0535 104.437 33.8704 108.193 33.3045 113.062L33.2788 113.281L33.4487 113.423C36.0361 115.59 39.3681 116.897 43 116.897C46.6319 116.897 49.9648 115.59 52.5521 113.423L52.7212 113.281L52.6955 113.061C52.4427 110.888 51.4605 108.853 49.903 107.296C48.0596 105.453 45.6061 104.437 43 104.437ZM43 87.1026C34.7852 87.1026 28.1026 93.7852 28.1026 102C28.1026 105.725 29.4775 109.136 31.7452 111.75L32.2636 112.348L32.4535 111.58C32.9552 109.55 34.0376 107.699 35.597 106.247C36.6736 105.244 37.9242 104.482 39.2756 103.99L40.0296 103.715L39.3654 103.264C37.6382 102.094 36.5032 100.117 36.5032 97.8814C36.5033 94.2995 39.4181 91.3846 43 91.3846C46.5819 91.3846 49.4967 94.2995 49.4968 97.8814C49.4968 100.116 48.3628 102.092 46.637 103.263L45.9728 103.713L46.7268 103.987C48.1951 104.522 49.5422 105.376 50.6819 106.516C52.079 107.913 53.0695 109.664 53.5457 111.582L53.7356 112.349L54.2532 111.752C56.5217 109.137 57.8974 105.726 57.8974 102C57.8974 93.7852 51.2148 87.1026 43 87.1026ZM43 92.4872C40.0254 92.4872 37.6059 94.9065 37.6058 97.8814C37.6058 100.718 39.806 103.048 42.5897 103.259V103.276H43C45.9747 103.276 48.3942 100.856 48.3942 97.8814C48.3941 94.9065 45.9746 92.4872 43 92.4872Z" fill="#232F6F"/>
</g>
<g clip-path="url(#clip6_3573_23407)">
<path d="M99 86C103.274 86 107.292 87.6635 110.314 90.6859C113.337 93.7084 115 97.7255 115 102C115 106.274 113.337 110.292 110.314 113.314C107.292 116.337 103.274 118 99 118C94.7255 118 90.7085 116.337 87.6859 113.314C84.6634 110.292 83 106.274 83 102C83 97.7255 84.6635 93.7085 87.6859 90.6859C90.7084 87.6634 94.7255 86 99 86ZM99 104.437C94.0535 104.437 89.8704 108.193 89.3045 113.062L89.2788 113.281L89.4487 113.423C92.0361 115.59 95.3681 116.897 99 116.897C102.632 116.897 105.965 115.59 108.552 113.423L108.721 113.281L108.696 113.061C108.443 110.888 107.461 108.853 105.903 107.296C104.06 105.453 101.606 104.437 99 104.437ZM99 87.1026C90.7852 87.1026 84.1026 93.7852 84.1026 102C84.1026 105.725 85.4775 109.136 87.7452 111.75L88.2636 112.348L88.4535 111.58C88.9552 109.55 90.0376 107.699 91.597 106.247C92.6736 105.244 93.9242 104.482 95.2756 103.99L96.0296 103.715L95.3654 103.264C93.6382 102.094 92.5032 100.117 92.5032 97.8814C92.5033 94.2995 95.4181 91.3846 99 91.3846C102.582 91.3846 105.497 94.2995 105.497 97.8814C105.497 100.116 104.363 102.092 102.637 103.263L101.973 103.713L102.727 103.987C104.195 104.522 105.542 105.376 106.682 106.516C108.079 107.913 109.07 109.664 109.546 111.582L109.736 112.349L110.253 111.752C112.522 109.137 113.897 105.726 113.897 102C113.897 93.7852 107.215 87.1026 99 87.1026ZM99 92.4872C96.0254 92.4872 93.6059 94.9065 93.6058 97.8814C93.6058 100.718 95.806 103.048 98.5897 103.259V103.276H99C101.975 103.276 104.394 100.856 104.394 97.8814C104.394 94.9065 101.975 92.4872 99 92.4872Z" fill="#232F6F"/>
</g>
<g opacity="0.6" clip-path="url(#clip7_3573_23407)">
<path d="M70 60C74.2745 60 78.2915 61.6635 81.3141 64.6859C84.3366 67.7084 86 71.7255 86 76C86 80.2745 84.3365 84.2915 81.3141 87.3141C78.2916 90.3366 74.2745 92 70 92C65.7255 92 61.7085 90.3365 58.6859 87.3141C55.6634 84.2916 54 80.2745 54 76C54 71.7255 55.6635 67.7085 58.6859 64.6859C61.7084 61.6634 65.7255 60 70 60ZM70 78.4367C65.0535 78.4367 60.8704 82.193 60.3045 87.0617L60.2788 87.2812L60.4487 87.4231C63.0361 89.59 66.3681 90.8974 70 90.8974C73.6319 90.8974 76.9648 89.59 79.5521 87.4231L79.7212 87.2812L79.6955 87.0609C79.4427 84.888 78.4605 82.8535 76.903 81.2957C75.0596 79.4526 72.6061 78.4367 70 78.4367ZM70 61.1026C61.7852 61.1026 55.1026 67.7852 55.1026 76C55.1026 79.7253 56.4775 83.1357 58.7452 85.75L59.2636 86.3478L59.4535 85.5801C59.9552 83.5496 61.0376 81.6989 62.597 80.2468C63.6736 79.2438 64.9242 78.4821 66.2756 77.9896L67.0296 77.7147L66.3654 77.2644C64.6382 76.0942 63.5032 74.1172 63.5032 71.8814C63.5033 68.2995 66.4181 65.3846 70 65.3846C73.5819 65.3846 76.4967 68.2995 76.4968 71.8814C76.4968 74.116 75.3628 76.0924 73.637 77.2628L72.9728 77.7131L73.7268 77.9872C75.1951 78.5222 76.5422 79.3764 77.6819 80.516C79.079 81.9128 80.0695 83.6644 80.5457 85.5817L80.7356 86.3486L81.2532 85.7516C83.5217 83.1373 84.8974 79.7261 84.8974 76C84.8974 67.7852 78.2148 61.1026 70 61.1026ZM70 66.4872C67.0254 66.4872 64.6059 68.9065 64.6058 71.8814C64.6058 74.7181 66.806 77.0485 69.5897 77.2588V77.2764H70C72.9747 77.2764 75.3942 74.8561 75.3942 71.8814C75.3941 68.9065 72.9746 66.4872 70 66.4872Z" fill="#232F6F"/>
</g>
<g clip-path="url(#clip8_3573_23407)">
<path d="M126 60C130.274 60 134.292 61.6635 137.314 64.6859C140.337 67.7084 142 71.7255 142 76C142 80.2745 140.337 84.2915 137.314 87.3141C134.292 90.3366 130.274 92 126 92C121.726 92 117.708 90.3365 114.686 87.3141C111.663 84.2916 110 80.2745 110 76C110 71.7255 111.663 67.7085 114.686 64.6859C117.708 61.6634 121.726 60 126 60ZM126 78.4367C121.054 78.4367 116.87 82.193 116.304 87.0617L116.279 87.2812L116.449 87.4231C119.036 89.59 122.368 90.8974 126 90.8974C129.632 90.8974 132.965 89.59 135.552 87.4231L135.721 87.2812L135.696 87.0609C135.443 84.888 134.461 82.8535 132.903 81.2957C131.06 79.4526 128.606 78.4367 126 78.4367ZM126 61.1026C117.785 61.1026 111.103 67.7852 111.103 76C111.103 79.7253 112.478 83.1357 114.745 85.75L115.264 86.3478L115.454 85.5801C115.955 83.5496 117.038 81.6989 118.597 80.2468C119.674 79.2438 120.924 78.4821 122.276 77.9896L123.03 77.7147L122.365 77.2644C120.638 76.0942 119.503 74.1172 119.503 71.8814C119.503 68.2995 122.418 65.3846 126 65.3846C129.582 65.3846 132.497 68.2995 132.497 71.8814C132.497 74.116 131.363 76.0924 129.637 77.2628L128.973 77.7131L129.727 77.9872C131.195 78.5222 132.542 79.3764 133.682 80.516C135.079 81.9128 136.07 83.6644 136.546 85.5817L136.736 86.3486L137.253 85.7516C139.522 83.1373 140.897 79.7261 140.897 76C140.897 67.7852 134.215 61.1026 126 61.1026ZM126 66.4872C123.025 66.4872 120.606 68.9065 120.606 71.8814C120.606 74.7181 122.806 77.0485 125.59 77.2588V77.2764H126C128.975 77.2764 131.394 74.8561 131.394 71.8814C131.394 68.9065 128.975 66.4872 126 66.4872Z" fill="#232F6F"/>
</g>
<g opacity="0.2" clip-path="url(#clip9_3573_23407)">
<path d="M16 116C20.2745 116 24.2915 117.663 27.3141 120.686C30.3366 123.708 32 127.726 32 132C32 136.274 30.3365 140.292 27.3141 143.314C24.2916 146.337 20.2745 148 16 148C11.7255 148 7.70845 146.337 4.6859 143.314C1.66341 140.292 0 136.274 0 132C0 127.726 1.66347 123.708 4.6859 120.686C7.70845 117.663 11.7255 116 16 116ZM16 134.437C11.0535 134.437 6.87038 138.193 6.30449 143.062L6.27885 143.281L6.44872 143.423C9.03605 145.59 12.3681 146.897 16 146.897C19.6319 146.897 22.9648 145.59 25.5521 143.423L25.7212 143.281L25.6955 143.061C25.4427 140.888 24.4605 138.853 22.903 137.296C21.0596 135.453 18.6061 134.437 16 134.437ZM16 117.103C7.78515 117.103 1.10256 123.785 1.10256 132C1.10256 135.725 2.47751 139.136 4.74519 141.75L5.26362 142.348L5.45353 141.58C5.95524 139.55 7.03764 137.699 8.59696 136.247C9.67361 135.244 10.9242 134.482 12.2756 133.99L13.0296 133.715L12.3654 133.264C10.6382 132.094 9.50321 130.117 9.50321 127.881C9.50334 124.3 12.4181 121.385 16 121.385C19.5819 121.385 22.4967 124.3 22.4968 127.881C22.4968 130.116 21.3628 132.092 19.637 133.263L18.9728 133.713L19.7268 133.987C21.1951 134.522 22.5422 135.376 23.6819 136.516C25.079 137.913 26.0695 139.664 26.5457 141.582L26.7356 142.349L27.2532 141.752C29.5217 139.137 30.8974 135.726 30.8974 132C30.8974 123.785 24.2148 117.103 16 117.103ZM16 122.487C13.0254 122.487 10.6059 124.907 10.6058 127.881C10.6058 130.718 12.806 133.048 15.5897 133.259V133.276H16C18.9747 133.276 21.3942 130.856 21.3942 127.881C21.3941 124.907 18.9746 122.487 16 122.487Z" fill="#232F6F"/>
</g>
<g clip-path="url(#clip10_3573_23407)">
<path d="M72 116C76.2745 116 80.2915 117.663 83.3141 120.686C86.3366 123.708 88 127.726 88 132C88 136.274 86.3365 140.292 83.3141 143.314C80.2916 146.337 76.2745 148 72 148C67.7255 148 63.7085 146.337 60.6859 143.314C57.6634 140.292 56 136.274 56 132C56 127.726 57.6635 123.708 60.6859 120.686C63.7084 117.663 67.7255 116 72 116ZM72 134.437C67.0535 134.437 62.8704 138.193 62.3045 143.062L62.2788 143.281L62.4487 143.423C65.0361 145.59 68.3681 146.897 72 146.897C75.6319 146.897 78.9648 145.59 81.5521 143.423L81.7212 143.281L81.6955 143.061C81.4427 140.888 80.4605 138.853 78.903 137.296C77.0596 135.453 74.6061 134.437 72 134.437ZM72 117.103C63.7852 117.103 57.1026 123.785 57.1026 132C57.1026 135.725 58.4775 139.136 60.7452 141.75L61.2636 142.348L61.4535 141.58C61.9552 139.55 63.0376 137.699 64.597 136.247C65.6736 135.244 66.9242 134.482 68.2756 133.99L69.0296 133.715L68.3654 133.264C66.6382 132.094 65.5032 130.117 65.5032 127.881C65.5033 124.3 68.4181 121.385 72 121.385C75.5819 121.385 78.4967 124.3 78.4968 127.881C78.4968 130.116 77.3628 132.092 75.637 133.263L74.9728 133.713L75.7268 133.987C77.1951 134.522 78.5422 135.376 79.6819 136.516C81.079 137.913 82.0695 139.664 82.5457 141.582L82.7356 142.349L83.2532 141.752C85.5217 139.137 86.8974 135.726 86.8974 132C86.8974 123.785 80.2148 117.103 72 117.103ZM72 122.487C69.0254 122.487 66.6059 124.907 66.6058 127.881C66.6058 130.718 68.806 133.048 71.5897 133.259V133.276H72C74.9747 133.276 77.3942 130.856 77.3942 127.881C77.3941 124.907 74.9746 122.487 72 122.487Z" fill="#232F6F"/>
</g>
<path opacity="0.5" d="M380.5 85H210.026C196.017 85 183.915 94.7973 181 108.5C178.085 122.203 165.983 132 151.974 132H103" stroke="url(#paint1_linear_3573_23407)"/>
<path opacity="0.5" d="M380.5 63H210.026C196.017 63 183.915 53.2027 181 39.5C178.085 25.7973 165.983 16 151.974 16H103" stroke="url(#paint2_linear_3573_23407)"/>
<path opacity="0.5" d="M378 79H205.113C195.432 79 186.226 83.1946 179.874 90.5C173.521 97.8054 164.315 102 154.634 102H131" stroke="url(#paint3_linear_3573_23407)"/>
<path opacity="0.5" d="M378 69H205.113C195.432 69 186.226 64.8054 179.874 57.5C173.521 50.1946 164.315 46 154.634 46H131" stroke="url(#paint4_linear_3573_23407)"/>
<path opacity="0.5" d="M375.5 74H156.5" stroke="url(#paint5_linear_3573_23407)"/>
<path opacity="0.3" d="M663 74H444" stroke="url(#paint6_linear_3573_23407)"/>
<circle cx="519" cy="74" r="12" fill="#131313"/>
<path d="M519 64C521.672 64 524.182 65.0397 526.071 66.9287C527.96 68.8178 529 71.3285 529 74C529 76.6715 527.96 79.1822 526.071 81.0713C524.182 82.9604 521.672 84 519 84C516.328 84 513.818 82.9603 511.929 81.0713C510.04 79.1822 509 76.6715 509 74C509 71.3285 510.04 68.8178 511.929 66.9287C513.818 65.0396 516.328 64 519 64ZM519 75.5229C515.908 75.5229 513.294 77.8706 512.94 80.9136L512.924 81.0508L513.03 81.1394C514.648 82.4937 516.73 83.3109 519 83.3109C521.27 83.3109 523.353 82.4938 524.97 81.1394L525.076 81.0508L525.06 80.9131C524.902 79.555 524.288 78.2834 523.314 77.3098C522.162 76.1579 520.629 75.5229 519 75.5229ZM519 64.6891C513.866 64.6891 509.689 68.8657 509.689 74C509.689 76.3283 510.548 78.4598 511.966 80.0938L512.29 80.4673L512.408 79.9876C512.722 78.7185 513.399 77.5618 514.373 76.6542C515.046 76.0274 515.828 75.5513 516.672 75.2435L517.144 75.0717L516.728 74.7903C515.649 74.0589 514.94 72.8233 514.94 71.4259C514.94 69.1872 516.761 67.3654 519 67.3654C521.239 67.3654 523.06 69.1872 523.06 71.4259C523.06 72.8225 522.352 74.0578 521.273 74.7893L520.858 75.0707L521.329 75.242C522.247 75.5764 523.089 76.1103 523.801 76.8225C524.674 77.6955 525.293 78.7902 525.591 79.9886L525.71 80.4678L526.033 80.0948C527.451 78.4608 528.311 76.3288 528.311 74C528.311 68.8657 524.134 64.6891 519 64.6891ZM519 68.0545C517.141 68.0545 515.629 69.5666 515.629 71.4259C515.629 73.1988 517.004 74.6553 518.744 74.7868V74.7978H519C520.859 74.7978 522.371 73.2851 522.371 71.4259C522.371 69.5666 520.859 68.0545 519 68.0545Z" fill="#3FA1E3"/>
<rect x="512" y="79" width="14" height="14" rx="7" fill="#131313"/>
<rect x="512" y="79" width="14" height="14" rx="7" stroke="#131313" stroke-width="2"/>
<path d="M519 80C515.7 80 513 82.7 513 86C513 89.3 515.7 92 519 92C522.3 92 525 89.3 525 86C525 82.7 522.3 80 519 80ZM521.52 84.98L518.64 87.86C518.4 88.1 518.04 88.1 517.8 87.86L516.48 86.54C516.24 86.3 516.24 85.94 516.48 85.7C516.72 85.46 517.08 85.46 517.32 85.7L518.22 86.6L520.68 84.14C520.92 83.9 521.28 83.9 521.52 84.14C521.76 84.38 521.76 84.74 521.52 84.98Z" fill="#3FA1E3"/>
<circle cx="536" cy="74" r="12" fill="#131313"/>
<path d="M536 64C538.672 64 541.182 65.0397 543.071 66.9287C544.96 68.8178 546 71.3285 546 74C546 76.6715 544.96 79.1822 543.071 81.0713C541.182 82.9604 538.672 84 536 84C533.328 84 530.818 82.9603 528.929 81.0713C527.04 79.1822 526 76.6715 526 74C526 71.3285 527.04 68.8178 528.929 66.9287C530.818 65.0396 533.328 64 536 64ZM536 75.5229C532.908 75.5229 530.294 77.8706 529.94 80.9136L529.924 81.0508L530.03 81.1394C531.648 82.4937 533.73 83.3109 536 83.3109C538.27 83.3109 540.353 82.4938 541.97 81.1394L542.076 81.0508L542.06 80.9131C541.902 79.555 541.288 78.2834 540.314 77.3098C539.162 76.1579 537.629 75.5229 536 75.5229ZM536 64.6891C530.866 64.6891 526.689 68.8657 526.689 74C526.689 76.3283 527.548 78.4598 528.966 80.0938L529.29 80.4673L529.408 79.9876C529.722 78.7185 530.399 77.5618 531.373 76.6542C532.046 76.0274 532.828 75.5513 533.672 75.2435L534.144 75.0717L533.728 74.7903C532.649 74.0589 531.94 72.8233 531.94 71.4259C531.94 69.1872 533.761 67.3654 536 67.3654C538.239 67.3654 540.06 69.1872 540.06 71.4259C540.06 72.8225 539.352 74.0578 538.273 74.7893L537.858 75.0707L538.329 75.242C539.247 75.5764 540.089 76.1103 540.801 76.8225C541.674 77.6955 542.293 78.7902 542.591 79.9886L542.71 80.4678L543.033 80.0948C544.451 78.4608 545.311 76.3288 545.311 74C545.311 68.8657 541.134 64.6891 536 64.6891ZM536 68.0545C534.141 68.0545 532.629 69.5666 532.629 71.4259C532.629 73.1988 534.004 74.6553 535.744 74.7868V74.7978H536C537.859 74.7978 539.371 73.2851 539.371 71.4259C539.371 69.5666 537.859 68.0545 536 68.0545Z" fill="#3FA1E3"/>
<rect x="529" y="79" width="14" height="14" rx="7" fill="#131313"/>
<rect x="529" y="79" width="14" height="14" rx="7" stroke="#131313" stroke-width="2"/>
<path d="M536 80C532.7 80 530 82.7 530 86C530 89.3 532.7 92 536 92C539.3 92 542 89.3 542 86C542 82.7 539.3 80 536 80ZM538.52 84.98L535.64 87.86C535.4 88.1 535.04 88.1 534.8 87.86L533.48 86.54C533.24 86.3 533.24 85.94 533.48 85.7C533.72 85.46 534.08 85.46 534.32 85.7L535.22 86.6L537.68 84.14C537.92 83.9 538.28 83.9 538.52 84.14C538.76 84.38 538.76 84.74 538.52 84.98Z" fill="#3FA1E3"/>
<circle cx="595" cy="74" r="12" fill="#131313"/>
<path d="M595 64C597.672 64 600.182 65.0397 602.071 66.9287C603.96 68.8178 605 71.3285 605 74C605 76.6715 603.96 79.1822 602.071 81.0713C600.182 82.9604 597.672 84 595 84C592.328 84 589.818 82.9603 587.929 81.0713C586.04 79.1822 585 76.6715 585 74C585 71.3285 586.04 68.8178 587.929 66.9287C589.818 65.0396 592.328 64 595 64ZM595 75.5229C591.908 75.5229 589.294 77.8706 588.94 80.9136L588.924 81.0508L589.03 81.1394C590.648 82.4937 592.73 83.3109 595 83.3109C597.27 83.3109 599.353 82.4938 600.97 81.1394L601.076 81.0508L601.06 80.9131C600.902 79.555 600.288 78.2834 599.314 77.3098C598.162 76.1579 596.629 75.5229 595 75.5229ZM595 64.6891C589.866 64.6891 585.689 68.8657 585.689 74C585.689 76.3283 586.548 78.4598 587.966 80.0938L588.29 80.4673L588.408 79.9876C588.722 78.7185 589.399 77.5618 590.373 76.6542C591.046 76.0274 591.828 75.5513 592.672 75.2435L593.144 75.0717L592.728 74.7903C591.649 74.0589 590.94 72.8233 590.94 71.4259C590.94 69.1872 592.761 67.3654 595 67.3654C597.239 67.3654 599.06 69.1872 599.06 71.4259C599.06 72.8225 598.352 74.0578 597.273 74.7893L596.858 75.0707L597.329 75.242C598.247 75.5764 599.089 76.1103 599.801 76.8225C600.674 77.6955 601.293 78.7902 601.591 79.9886L601.71 80.4678L602.033 80.0948C603.451 78.4608 604.311 76.3288 604.311 74C604.311 68.8657 600.134 64.6891 595 64.6891ZM595 68.0545C593.141 68.0545 591.629 69.5666 591.629 71.4259C591.629 73.1988 593.004 74.6553 594.744 74.7868V74.7978H595C596.859 74.7978 598.371 73.2851 598.371 71.4259C598.371 69.5666 596.859 68.0545 595 68.0545Z" fill="#3FA1E3"/>
<rect x="588" y="79" width="14" height="14" rx="7" fill="#131313"/>
<rect x="588" y="79" width="14" height="14" rx="7" stroke="#131313" stroke-width="2"/>
<path d="M595 80C591.7 80 589 82.7 589 86C589 89.3 591.7 92 595 92C598.3 92 601 89.3 601 86C601 82.7 598.3 80 595 80ZM597.52 84.98L594.64 87.86C594.4 88.1 594.04 88.1 593.8 87.86L592.48 86.54C592.24 86.3 592.24 85.94 592.48 85.7C592.72 85.46 593.08 85.46 593.32 85.7L594.22 86.6L596.68 84.14C596.92 83.9 597.28 83.9 597.52 84.14C597.76 84.38 597.76 84.74 597.52 84.98Z" fill="#3FA1E3"/>
<rect x="668.5" y="0.5" width="198" height="148" rx="29.5" stroke="#232F6F"/>
<rect x="780.5" y="15.5" width="86" height="133" rx="29.5" stroke="#232F6F"/>
<circle cx="689" cy="18" r="2.5" stroke="#232F6F"/>
<circle cx="702" cy="18" r="2.5" stroke="#232F6F"/>
<circle cx="715" cy="18" r="2.5" stroke="#232F6F"/>
<path d="M813.5 27.5H833.5C834.605 27.5 835.5 28.3954 835.5 29.5C835.5 30.6046 834.605 31.5 833.5 31.5H813.5C812.395 31.5 811.5 30.6046 811.5 29.5C811.5 28.3954 812.395 27.5 813.5 27.5Z" stroke="#232F6F"/>
<defs>
<filter id="filter0_f_3573_23407" x="371" y="33" width="82" height="82" filterUnits="userSpaceOnUse" color-interpolation-filters="sRGB">
<feFlood flood-opacity="0" result="BackgroundImageFix"/>
<feBlend mode="normal" in="SourceGraphic" in2="BackgroundImageFix" result="shape"/>
<feGaussianBlur stdDeviation="2" result="effect1_foregroundBlur_3573_23407"/>
</filter>
<filter id="filter1_f_3573_23407" x="377.675" y="42.5" width="68.6494" height="63" filterUnits="userSpaceOnUse" color-interpolation-filters="sRGB">
<feFlood flood-opacity="0" result="BackgroundImageFix"/>
<feBlend mode="normal" in="SourceGraphic" in2="BackgroundImageFix" result="shape"/>
<feGaussianBlur stdDeviation="2" result="effect1_foregroundBlur_3573_23407"/>
</filter>
<linearGradient id="paint0_linear_3573_23407" x1="412" y1="52" x2="412" y2="94.9474" gradientUnits="userSpaceOnUse">
<stop stop-color="#3FA1E3" stop-opacity="0.35"/>
<stop offset="0.605793" stop-color="#3FA1E3"/>
</linearGradient>
<linearGradient id="paint1_linear_3573_23407" x1="234.557" y1="95.5345" x2="103" y2="95.5345" gradientUnits="userSpaceOnUse">
<stop offset="0.822123" stop-color="#232F6F"/>
<stop offset="1" stop-color="#232F6F" stop-opacity="0"/>
</linearGradient>
<linearGradient id="paint2_linear_3573_23407" x1="234.557" y1="52.4655" x2="103" y2="52.4655" gradientUnits="userSpaceOnUse">
<stop offset="0.822123" stop-color="#232F6F"/>
<stop offset="1" stop-color="#232F6F" stop-opacity="0"/>
</linearGradient>
<linearGradient id="paint3_linear_3573_23407" x1="248.097" y1="84.1552" x2="131" y2="84.1552" gradientUnits="userSpaceOnUse">
<stop offset="0.822123" stop-color="#232F6F"/>
<stop offset="1" stop-color="#232F6F" stop-opacity="0"/>
</linearGradient>
<linearGradient id="paint4_linear_3573_23407" x1="248.097" y1="63.8448" x2="131" y2="63.8448" gradientUnits="userSpaceOnUse">
<stop offset="0.822123" stop-color="#232F6F"/>
<stop offset="1" stop-color="#232F6F" stop-opacity="0"/>
</linearGradient>
<linearGradient id="paint5_linear_3573_23407" x1="260.323" y1="74.2241" x2="156.5" y2="74.224" gradientUnits="userSpaceOnUse">
<stop offset="0.822123" stop-color="#232F6F"/>
<stop offset="1" stop-color="#232F6F" stop-opacity="0"/>
</linearGradient>
<linearGradient id="paint6_linear_3573_23407" x1="549.341" y1="74.2241" x2="444" y2="74.224" gradientUnits="userSpaceOnUse">
<stop offset="0.822123" stop-color="#3FA1E3"/>
<stop offset="1" stop-color="#3FA1E3" stop-opacity="0"/>
</linearGradient>
<clipPath id="clip0_3573_23407">
<rect width="32" height="32" fill="white"/>
</clipPath>
<clipPath id="clip1_3573_23407">
<rect width="32" height="32" fill="white" transform="translate(56)"/>
</clipPath>
<clipPath id="clip2_3573_23407">
<rect width="32" height="32" fill="white" transform="translate(0 60)"/>
</clipPath>
<clipPath id="clip3_3573_23407">
<rect width="32" height="32" fill="white" transform="translate(27 30)"/>
</clipPath>
<clipPath id="clip4_3573_23407">
<rect width="32" height="32" fill="white" transform="translate(83 30)"/>
</clipPath>
<clipPath id="clip5_3573_23407">
<rect width="32" height="32" fill="white" transform="translate(27 86)"/>
</clipPath>
<clipPath id="clip6_3573_23407">
<rect width="32" height="32" fill="white" transform="translate(83 86)"/>
</clipPath>
<clipPath id="clip7_3573_23407">
<rect width="32" height="32" fill="white" transform="translate(54 60)"/>
</clipPath>
<clipPath id="clip8_3573_23407">
<rect width="32" height="32" fill="white" transform="translate(110 60)"/>
</clipPath>
<clipPath id="clip9_3573_23407">
<rect width="32" height="32" fill="white" transform="translate(0 116)"/>
</clipPath>
<clipPath id="clip10_3573_23407">
<rect width="32" height="32" fill="white" transform="translate(56 116)"/>
</clipPath>
</defs>
</svg>
