<svg width="80" height="14" viewBox="0 0 80 14" fill="none" xmlns="http://www.w3.org/2000/svg">
<g clip-path="url(#clip0_546_1284)">
<path fill-rule="evenodd" clip-rule="evenodd" d="M0 12.8655H12.8655V0H0V12.8655Z" fill="#B8232F"/>
<path fill-rule="evenodd" clip-rule="evenodd" d="M65.646 3.84669L66.7235 3.66644V11.0105H65.646V3.84669ZM69.8726 4.67621V9.30734C69.8726 10.1011 70.0726 10.3755 70.7245 10.3755C71.0177 10.3755 70.9404 10.3789 71.1272 10.2775L71.2741 10.9993C70.9404 11.186 70.8176 11.2401 70.3515 11.2401C70.0055 11.2401 69.7396 11.1688 69.4861 11.0389C69.0208 10.7937 68.8477 10.3321 68.8477 9.61015V4.67621H67.9823V3.82523H68.8477V1.10254H69.9131V3.82523H71.5773L71.2579 4.67621H69.8726ZM78.4084 10.7952C77.9945 10.7952 77.6601 10.4401 77.6601 9.94921C77.6601 9.45779 77.9945 9.10324 78.4084 9.10324C78.8225 9.10324 79.1572 9.45779 79.1572 9.94921C79.1572 10.4401 78.8225 10.7952 78.4084 10.7952ZM78.4084 8.89914C77.8633 8.89914 77.4185 9.37053 77.4185 9.94921C77.4185 10.5274 77.8633 10.9983 78.4084 10.9983C78.9544 10.9983 79.3983 10.5274 79.3983 9.94921C79.3983 9.37053 78.9544 8.89914 78.4084 8.89914ZM78.2361 9.85908V9.51859H78.4219C78.5293 9.51859 78.65 9.54148 78.65 9.68121C78.65 9.8412 78.5431 9.85908 78.4196 9.85908H78.2361ZM78.8585 9.69933C78.8585 9.44897 78.7128 9.35002 78.4438 9.35002H78.0275V10.5401H78.2361V10.0277H78.3617L78.6523 10.5401H78.8663L78.5652 10.0193C78.7487 10.0009 78.8585 9.90247 78.8585 9.69933ZM77.9619 3.82523L75.6855 11.2692C75.2328 12.7129 74.6998 13.6647 73.5421 13.968L73.2358 13.2034C73.8839 12.9833 74.2238 12.6633 74.5068 11.8815C74.4004 11.3145 74.3402 11.0679 74.3402 11.0679C74.2609 10.6063 73.9011 9.206 73.6749 8.48521L72.2495 3.98403L73.2758 3.60802L74.6339 8.26824C74.8331 8.9473 75.0326 10.0575 75.0326 10.0575H75.0597C75.0597 10.0575 75.312 9.13447 75.4724 8.54315L76.7765 3.82523H77.9619ZM45.9001 9.17763C45.9001 9.17763 45.7799 9.48068 45.5005 9.69742C45.074 10.0286 44.7677 10.1588 44.2231 10.1588C43.6104 10.1588 43.1972 9.91368 42.8914 9.32188C42.6779 8.90391 42.625 8.28302 42.625 7.44611C42.625 6.43634 42.7309 5.91727 43.0508 5.36886C43.3305 4.8784 43.7696 4.61875 44.2897 4.61875C45.074 4.61875 45.5676 4.86457 45.9001 5.36886V9.17763ZM46.9519 1.10254H45.9132V3.49405C45.9132 4.01264 45.9263 4.60444 45.9263 4.60444C45.5276 4.02743 44.8743 3.69576 44.1298 3.69576C43.6499 3.69576 43.2774 3.82523 42.8511 4.14283C41.9457 4.82022 41.4804 5.94588 41.4804 7.47496C41.4804 9.76847 42.4656 11.1104 44.1819 11.1104C44.9545 11.1104 45.461 10.866 45.9396 10.2747C45.9527 10.6485 46.0863 11.0105 46.0863 11.0105H47.1516C47.0043 10.5913 46.9519 9.92775 46.9519 8.68812V1.10254ZM62.8026 3.83978H64.5151L64.1962 4.69075H62.7626V9.32188C62.7626 10.1159 62.9621 10.3906 63.6145 10.3906C63.9077 10.3906 63.8304 10.3939 64.0172 10.2921L64.1641 11.0141C63.8304 11.201 63.7075 11.2551 63.2413 11.2551C62.8954 11.2551 62.6296 11.1836 62.3761 11.0539C61.9108 10.8085 61.7373 10.3467 61.7373 9.62494V4.69075H60.8723V3.83978H61.7373V1.11756H62.8026V3.83978ZM59.7803 4.7196C59.8867 4.9795 59.9402 5.26753 59.9402 5.55675V11.011H58.888V6.14807C58.888 5.38293 58.8346 5.19624 58.6483 4.95041C58.5024 4.76324 58.222 4.64736 57.9161 4.64736C57.3827 4.64736 56.5585 5.11016 56.0791 5.65761V11.011H55.0673V5.47044C55.0673 4.44564 54.815 3.95518 54.815 3.95518L55.8259 3.65189C55.8259 3.65189 56.0665 4.18479 56.0665 4.77754C56.7575 4.02743 57.4494 3.66644 58.1558 3.66644C58.8749 3.66644 59.5142 4.08537 59.7803 4.7196ZM49.4992 6.75346C49.5515 5.26705 50.0845 4.51741 51.0294 4.51741C51.5359 4.51741 52.0012 4.76324 52.2273 5.15213C52.4273 5.49833 52.5206 5.97473 52.5336 6.75346H49.4992ZM51.0827 3.63711C50.2834 3.63711 49.6315 3.95518 49.0991 4.63281C48.5402 5.35551 48.301 6.13353 48.301 7.34573C48.301 9.72675 49.4049 11.1688 51.2426 11.1688C52.095 11.1688 52.894 10.8517 53.4788 10.2747L53.0792 9.55221C52.6139 10.0145 52.095 10.2303 51.4552 10.2303C50.7892 10.2303 50.177 9.97114 49.8046 9.35073C49.578 8.97663 49.4992 8.45636 49.4992 7.77873V7.60491H53.6383V7.44611C53.6126 5.73009 53.4517 5.05174 52.8807 4.41608C52.4272 3.91202 51.8015 3.63711 51.0827 3.63711ZM38.9639 11.0105H40.0292V1.11279H38.9639V11.0105Z" fill="#263746"/>
<path fill-rule="evenodd" clip-rule="evenodd" d="M37.8456 3.50373L38.5962 4.71079C38.2069 5.09408 37.8322 5.25049 37.3363 5.25049C37.1619 5.25049 36.9735 5.22272 36.8662 5.20854C37.1344 5.54815 37.2696 5.91766 37.2696 6.40046C37.2696 7.64956 36.1962 8.55914 34.7349 8.55914C34.6541 8.55914 34.6004 8.55914 34.4668 8.54458C34.0113 8.77234 33.7566 8.94253 33.7566 9.14088C33.7566 9.24029 33.8633 9.31165 34.0513 9.31165L35.0171 9.32582C36.0622 9.33981 36.6117 9.51 37.0948 9.9792C37.4965 10.3765 37.6849 10.8735 37.6849 11.527C37.6849 12.1375 37.5103 12.6057 37.1344 13.0314C36.5317 13.7135 35.4985 13.9684 34.4262 13.9684C33.4484 13.9684 32.4424 13.7984 31.826 13.1876C31.4505 12.8188 31.263 12.392 31.263 11.8961C31.263 11.4985 31.3563 11.299 31.4237 11.1575H33.0863C33.0188 11.3281 33.0051 11.4267 33.0051 11.6253C33.0051 12.208 33.4619 12.5196 34.2931 12.5196C34.7486 12.5196 35.1378 12.4639 35.4189 12.2787C35.6869 12.1085 35.8609 11.8391 35.8609 11.5406C35.8609 10.888 35.3118 10.6887 34.6004 10.6745L33.8365 10.6602C33.0324 10.6454 32.5099 10.5754 32.1877 10.4328C31.8654 10.3054 31.665 9.9792 31.665 9.48203C31.665 9.01379 31.7985 8.57274 32.9251 8.26109C31.9328 7.99091 31.4505 7.32354 31.4505 6.24483C31.4505 4.75389 32.5903 3.78858 34.346 3.78858C34.7349 3.78858 35.0833 3.84527 35.5798 3.97256C35.9544 4.07159 36.1962 4.12915 36.4243 4.12915C36.9202 4.12915 37.4297 3.90197 37.8456 3.50373ZM26.4482 3.73159C26.6097 4.03003 26.7034 4.34187 26.7034 4.63992C26.9713 4.4407 27.1994 4.27032 27.4946 4.10032C27.8564 3.90197 28.3261 3.78858 28.7277 3.78858C29.4921 3.78858 30.1624 4.21381 30.3768 4.83923C30.4705 5.10874 30.511 5.42087 30.511 5.87533V11.1859H28.7407V6.45745C28.7407 5.63426 28.6072 5.3931 28.1377 5.3931C27.7765 5.3931 27.3074 5.64882 26.8918 6.04552V11.1859H25.0945V5.91766C25.0945 5.29291 25.0139 4.69662 24.8535 4.21381L26.4482 3.73159ZM23.6326 3.7448V11.1859H21.8366V4.04304L23.6326 3.7448ZM17.1561 1.31767C18.7379 1.31767 19.2208 1.48767 19.7444 1.80028C20.6148 2.31162 21.0835 3.22005 21.0835 4.35662C21.0835 5.66242 20.4943 6.71326 19.4757 7.22422C19.0466 7.43723 18.644 7.55101 17.6121 7.55101H16.5802V11.1859H14.7031V1.31767H17.1561ZM34.3324 5.17942C33.649 5.17942 33.26 5.57766 33.26 6.25881C33.26 6.99733 33.6891 7.295 34.3192 7.295C35.0301 7.295 35.4189 6.92617 35.4189 6.25881C35.4189 5.57766 35.0171 5.17942 34.3324 5.17942ZM17.7723 2.92161H16.5802V5.93212H17.5587C18.3227 5.93212 18.5509 5.83261 18.8048 5.42087C18.9666 5.15184 19.0328 4.86739 19.0328 4.39837C19.0328 3.47558 18.5639 2.92161 17.7723 2.92161ZM22.7611 0.735352C23.3645 0.735352 23.8476 1.26087 23.8476 1.91367C23.8476 2.56667 23.3509 3.09258 22.7342 3.09258C22.1314 3.09258 21.6351 2.56667 21.6351 1.91367C21.6351 1.26087 22.1447 0.735352 22.7611 0.735352Z" fill="#263746"/>
</g>
<defs>
<clipPath id="clip0_546_1284">
<rect width="80" height="13.9683" fill="white"/>
</clipPath>
</defs>
</svg>
