<?xml version="1.0"?>
<svg width="218.00000000000003" height="54" xmlns="http://www.w3.org/2000/svg" xmlns:svg="http://www.w3.org/2000/svg">
 <metadata id="metadata8">image/svg+xml</metadata>

 <g class="layer">
  <title>Layer 1</title>
  <g id="g10" transform="matrix(1.33333 0 0 -1.33333 0 725.347)">
   <g id="g12" transform="translate(-435.75 147) scale(0.1 0.1)">
    <path d="m4415.291439,3881.113344l0,-24.78c10.19,10.06 21.23,17.7 33.13,22.73c11.89,5.02 24.63,7.57 38.14,7.57c29.38,0 54.37,-11.11 74.96,-33.26c20.6,-22.23 30.86,-50.69 30.86,-85.44c0,-33.48 -10.61,-61.51 -31.92,-84.01c-21.23,-22.58 -46.43,-33.84 -75.6,-33.84c-12.95,0 -25.05,2.34 -36.23,6.94c-11.19,4.6 -22.3,12.17 -33.34,22.72l0,-106.53l-56.48,0l0,307.9l56.48,0zm59.32,-46.29c-17.77,0 -32.57,-6.09 -44.25,-18.19c-11.75,-12.18 -17.62,-28.03 -17.62,-47.63c0,-20.04 5.87,-36.25 17.62,-48.56c11.68,-12.39 26.48,-18.55 44.25,-18.55c17.26,0 31.78,6.3 43.59,18.83c11.83,12.6 17.7,28.6 17.7,48.06c0,19.33 -5.8,35.18 -17.41,47.5c-11.54,12.38 -26.2,18.54 -43.88,18.54" fill="#ffffff" fill-rule="nonzero" id="path34"/>
    <path d="m4624.391439,3968.173344l56.49,0l0,-110.14c11.03,9.56 22.08,16.71 33.26,21.45c11.11,4.74 22.44,7.15 33.83,7.15c22.3,0 41.12,-7.71 56.41,-23.22c13.1,-13.37 19.61,-33.05 19.61,-58.96l0,-148.85l-55.63,0l0,98.74c0,26.05 -1.2,43.74 -3.68,52.94c-2.48,9.27 -6.72,16.14 -12.75,20.74c-5.93,4.53 -13.37,6.8 -22.15,6.8c-11.39,0 -21.24,-3.82 -29.44,-11.4c-8.14,-7.57 -13.81,-17.91 -16.99,-31c-1.63,-6.79 -2.47,-22.22 -2.47,-46.36l0,-90.46l-56.49,0l0,312.57" fill="#ffffff" fill-rule="nonzero" id="path36"/>
    <path d="m5030.551439,3881.113344l56.48,0l0,-225.51l-56.48,0l0,24c-11.05,-10.48 -22.16,-17.98 -33.28,-22.58c-11.11,-4.6 -23.21,-6.94 -36.17,-6.94c-29.23,0 -54.42,11.26 -75.73,33.84c-21.3,22.5 -31.92,50.53 -31.92,84.01c0,34.75 10.34,63.21 30.93,85.44c20.6,22.15 45.59,33.26 75.03,33.26c13.59,0 26.26,-2.55 38.15,-7.57c11.89,-5.03 22.86,-12.67 32.99,-22.73l0,24.78zm-59.53,-46.29c-17.55,0 -32.13,-6.16 -43.68,-18.54c-11.6,-12.32 -17.41,-28.17 -17.41,-47.5c0,-19.46 5.88,-35.46 17.7,-48.06c11.82,-12.53 26.32,-18.83 43.6,-18.83c17.76,0 32.56,6.16 44.24,18.55c11.75,12.31 17.63,28.52 17.63,48.56c0,19.6 -5.88,35.45 -17.63,47.63c-11.68,12.1 -26.54,18.19 -44.45,18.19" fill="#ffffff" fill-rule="nonzero" id="path38"/>
    <path d="m5266.831439,3849.193344l-34.98,-35.18c-14.15,14.16 -27.04,21.23 -38.64,21.23c-6.3,0 -11.26,-1.34 -14.86,-4.03c-3.61,-2.69 -5.38,-6.02 -5.38,-9.98c0,-3.05 1.13,-5.8 3.4,-8.35c2.26,-2.55 7.93,-6.02 16.91,-10.48l20.67,-10.33c21.8,-10.69 36.81,-21.66 44.95,-32.77c8.14,-11.19 12.17,-24.21 12.17,-39.22c0,-19.96 -7.36,-36.66 -22.09,-49.97c-14.71,-13.38 -34.46,-20.03 -59.23,-20.03c-32.85,0 -59.17,12.81 -78.78,38.5l34.89,37.94c6.65,-7.71 14.44,-14.01 23.43,-18.75c8.91,-4.75 16.84,-7.15 23.78,-7.15c7.43,0 13.52,1.77 18.05,5.38c4.6,3.61 6.87,7.71 6.87,12.38c0,8.71 -8.22,17.2 -24.71,25.41l-19.03,9.56c-36.53,18.34 -54.79,41.27 -54.79,68.8c0,17.76 6.87,32.98 20.6,45.58c13.73,12.6 31.28,18.9 52.65,18.9c14.65,0 28.39,-3.25 41.34,-9.7c12.88,-6.44 23.78,-15.71 32.78,-27.74" fill="#ffffff" fill-rule="nonzero" id="path40"/>
    <path d="m5526.181439,3752.433344l-181.56,0c2.63,-16.07 9.63,-28.88 20.96,-38.43c11.32,-9.49 25.83,-14.23 43.38,-14.23c21.1,0 39.14,7.43 54.29,22.3l47.42,-22.44c-11.81,-16.85 -26.04,-29.31 -42.54,-37.45c-16.56,-8.06 -36.17,-12.1 -58.88,-12.1c-35.25,0 -63.99,11.12 -86.15,33.41c-22.14,22.22 -33.27,50.11 -33.27,83.59c0,34.33 11.13,62.86 33.27,85.5c22.16,22.72 49.91,34.05 83.38,34.05c35.46,0 64.35,-11.33 86.58,-33.9c22.21,-22.66 33.33,-52.45 33.33,-89.61l-0.21,-10.69zm-56.28,44.17c-3.75,12.31 -11.11,22.36 -22.08,30.08c-11.04,7.72 -23.78,11.53 -38.37,11.53c-15.78,0 -29.58,-4.31 -41.54,-13.02c-7.43,-5.38 -14.37,-14.93 -20.74,-28.59l122.73,0" fill="#ffffff" fill-rule="nonzero" id="path42"/>
    <path d="m5731.421439,3969.523344c49.73,0 44.05,0 93.78,0l-218.36,-375.42c-5.8,-9.96 -18.7,-18.12 -28.66,-18.12c-49.73,0 -44.05,0 -93.79,0l218.36,375.43c5.8,9.96 18.7,18.11 28.67,18.11" fill="#5aa0dd" fill-rule="evenodd" id="path44"/>
    <path d="m5892.341439,3969.523344c49.74,0 44.06,0 93.79,0l-218.36,-375.42c-5.79,-9.96 -18.69,-18.12 -28.66,-18.12c-49.74,0 -44.05,0 -93.79,0l218.37,375.43c5.79,9.96 18.69,18.11 28.65,18.11" fill="#5aa0dd" fill-rule="evenodd" id="path46"/>
   </g>
  </g>
 </g>
</svg>