<svg width="80" height="26" viewBox="0 0 80 26" fill="none" xmlns="http://www.w3.org/2000/svg">
<g clip-path="url(#clip0_508_1540)">
<path d="M18.3707 20.8454L15.7834 12.8833L22.5585 7.96206C24.2256 13.07 22.5585 17.8046 18.3707 20.8454ZM22.5585 7.96206L19.9711 0H11.5956L14.1696 7.96206H22.5585ZM11.5956 0H3.22015L0.646147 7.96206H9.02165L11.5956 0ZM0.63281 7.96206C-1.02095 13.07 0.63281 17.8046 4.82056 20.8454L7.39456 12.8833L0.63281 7.96206ZM4.82056 20.8454L11.5956 25.7667L18.3707 20.8454L11.5956 15.9241L4.82056 20.8454Z" fill="#EB5424"/>
<path d="M34.9888 4.82812C33.9085 4.82812 32.9616 5.53497 32.6549 6.57524L28.9473 19.3252H31.3879L32.4815 15.6309C32.4948 15.5909 32.5215 15.5642 32.5615 15.5642H37.4561C37.4961 15.5642 37.5228 15.5909 37.5362 15.6309L38.6031 19.3252H41.0304L37.3094 6.57524C37.016 5.53497 36.0691 4.82812 34.9888 4.82812ZM36.936 13.7238C36.9227 13.7504 36.896 13.7504 36.8693 13.7504H33.135C33.1083 13.7504 33.0817 13.7371 33.0683 13.7238C33.055 13.6971 33.055 13.6704 33.0683 13.6437L34.9221 7.21541C34.9355 7.1754 34.9622 7.14873 35.0022 7.14873C35.0422 7.16206 35.0555 7.18874 35.0688 7.21541L36.936 13.6437C36.936 13.6704 36.936 13.6971 36.936 13.7238ZM48.2723 10.1895H50.6195V19.3385H48.7791L48.5257 18.565C48.5123 18.5383 48.499 18.5117 48.4723 18.4983C48.4456 18.485 48.419 18.485 48.3923 18.4983C47.5254 19.1518 46.4851 19.5119 45.4049 19.5253C44.1779 19.5253 43.0576 18.7917 42.5775 17.6581C42.4174 17.2847 42.3374 16.8979 42.3374 16.4978V10.1895H44.6847V16.3644C44.6847 17.098 45.2982 17.6981 46.0317 17.6981C46.7919 17.6581 47.5387 17.4581 48.2056 17.098C48.2323 17.0846 48.2589 17.058 48.2456 17.0313L48.2723 10.1895ZM68.1441 13.0169V19.3385H65.8101V13.1503C65.8101 12.8035 65.6634 12.4568 65.41 12.2167C65.1566 11.9633 64.8232 11.8299 64.4631 11.8299C63.7029 11.8699 62.9561 12.07 62.2759 12.4301C62.2492 12.4434 62.2359 12.4701 62.2359 12.5101V19.3385H59.8886V5.02818H62.2359V10.763C62.2359 10.7897 62.2492 10.8297 62.2759 10.843C62.3026 10.8564 62.3426 10.8564 62.3692 10.843C63.1828 10.3095 64.1297 10.0161 65.0899 10.0028C66.757 10.0161 68.1041 11.3498 68.1174 13.0169H68.1441ZM56.1943 10.1895H57.6213V12.0033H56.1943C56.1676 12.0033 56.1543 12.0167 56.1276 12.03C56.1143 12.0433 56.101 12.07 56.101 12.0967V17.0046C56.101 17.3914 56.421 17.7115 56.8211 17.7115C57.0345 17.7115 57.3413 17.7115 57.6213 17.6714V19.3252C57.1546 19.4586 56.6744 19.5386 56.1943 19.5253C54.8606 19.5253 53.7804 18.4583 53.767 17.1246V12.0833C53.767 12.03 53.727 12.0033 53.6737 11.99H52.2733V10.1762H53.7003C53.7537 10.1762 53.7804 10.1362 53.7937 10.0828V7.0687H56.141V10.0828C56.1276 10.1362 56.1543 10.1762 56.1943 10.1895ZM78.6134 6.86865C77.8132 5.60166 76.4262 4.84146 74.9325 4.84146C73.4388 4.84146 72.0517 5.60166 71.2515 6.86865C70.358 8.17566 69.8778 10.0161 69.8778 12.19C69.7978 14.0705 70.2913 15.9243 71.2649 17.5247C72.0651 18.7917 73.4521 19.5519 74.9458 19.5519C76.4395 19.5519 77.8266 18.7917 78.6268 17.5247C79.5337 16.2044 80.0005 14.3639 80.0005 12.2034C80.0005 10.0428 79.5203 8.17566 78.6268 6.86865H78.6134ZM76.6929 16.4845C76.2395 17.3114 75.666 17.7115 74.9458 17.7115C74.239 17.7115 73.6655 17.2847 73.1987 16.4845C72.5852 15.1375 72.2918 13.6704 72.3585 12.19C72.2918 10.7096 72.5852 9.22926 73.1987 7.86891C73.6522 7.04203 74.2256 6.64193 74.9325 6.64193C75.6393 6.64193 76.2262 7.04203 76.6796 7.86891C77.2931 9.21593 77.5865 10.683 77.5198 12.1634C77.5998 13.6571 77.3198 15.1375 76.6929 16.4845Z" fill="black"/>
</g>
<defs>
<clipPath id="clip0_508_1540">
<rect width="80" height="25.7667" fill="white"/>
</clipPath>
</defs>
</svg>
