<svg width="80" height="30" viewBox="0 0 80 30" fill="none" xmlns="http://www.w3.org/2000/svg">
<g opacity="0.85">
<path d="M26.4049 15.1387H1.53027V27.8975H13.9804C20.6428 27.8975 26.0833 22.2512 26.4049 15.1387Z" fill="#6DBE50"/>
</g>
<path d="M13.9804 1.04199H1.53027V13.8008H26.4177C26.0833 6.68829 20.6428 1.04199 13.9804 1.04199Z" fill="#6DBE50"/>
<path d="M66.2635 1.04199C59.6011 1.04199 54.1477 6.70115 53.8262 13.8008H78.6879C78.3792 6.68829 72.9259 1.04199 66.2635 1.04199Z" fill="#6DBE50"/>
<g opacity="0.85">
<path d="M78.7008 15.1387H53.8262C54.1477 22.2512 59.5882 27.8975 66.2635 27.8975C72.9259 27.8975 78.3792 22.2512 78.7008 15.1387Z" fill="#6DBE50"/>
</g>
<path d="M27.665 1.04199V14.4696C27.665 21.6594 32.8998 27.5372 39.4978 27.8844V1.04199H27.665Z" fill="#6DBE50"/>
<g opacity="0.85">
<path d="M52.566 1.04199H40.7461V27.8973H52.566V14.4696V1.04199Z" fill="#6DBE50"/>
</g>
</svg>
