<svg width="80" height="20" viewBox="0 0 80 20" fill="none" xmlns="http://www.w3.org/2000/svg">
<g clip-path="url(#clip0_508_1572)">
<path d="M26.4986 8.90756C26.6667 7.78711 27.6751 6.38655 29.5798 6.38655C31.3725 6.38655 32.381 7.67507 32.549 8.90756H26.4986ZM24.0336 9.80392C24.0336 12.9412 26.3305 15.07 29.6359 15.07C31.8207 15.07 33.2773 14.0056 34.1176 13.0532C34.2297 12.9412 34.2297 12.8291 34.1176 12.7171L32.9412 11.6527C32.8291 11.5406 32.6611 11.5406 32.605 11.6527C31.9888 12.1569 31.0924 12.9972 29.6919 12.9972C28.0672 12.9972 26.8908 11.9888 26.6106 10.7003H34.7339C34.958 10.7003 35.07 10.5882 35.07 10.3641V9.85994C35.07 6.83473 33.1092 4.36975 29.8039 4.36975C26.1625 4.36975 24.0336 6.77871 24.0336 9.80392ZM36.4706 14.6779C36.4706 14.8459 36.5826 14.958 36.7507 14.958H38.4874C38.6555 14.958 38.7675 14.8459 38.7675 14.6779V0.22409C38.7115 0.112045 38.6555 0 38.4874 0H36.6947C36.5266 0 36.4706 0.112045 36.4706 0.22409V14.6779ZM20.4482 14.6779C20.4482 14.8459 20.5602 14.958 20.7283 14.958H22.409C22.577 14.958 22.6891 14.8459 22.6891 14.6779V8.85154C22.6891 6.38655 21.2325 4.36975 18.1513 4.36975H18.0952C16.5826 4.36975 15.4622 4.87395 14.7899 5.43417V4.87395C14.7899 4.70588 14.6779 4.59384 14.5098 4.59384H12.7731C12.605 4.59384 12.493 4.70588 12.493 4.87395V14.6218C12.493 14.7899 12.605 14.902 12.7731 14.902H14.5098C14.6779 14.902 14.7899 14.7899 14.7899 14.6218V9.2437C14.7899 7.56302 15.6303 6.33053 17.6471 6.33053C19.6639 6.33053 20.4482 7.56302 20.4482 9.2437V14.6779ZM53.2213 17.7031C54.0056 18.6555 55.6863 19.7759 58.0392 19.7759C61.3445 19.7759 63.3053 17.7591 63.3053 14.5658V4.92997C63.3053 4.7619 63.1933 4.64986 63.0252 4.64986H61.4006C61.2325 4.64986 61.1204 4.7619 61.1204 4.92997V5.4902C60.3922 4.87395 59.4398 4.42577 57.8711 4.42577C54.902 4.42577 52.3249 6.61064 52.3249 9.80392C52.3249 13.0532 54.8459 15.1821 57.8711 15.1821C59.3277 15.1821 60.2801 14.6779 61.0084 14.1176V14.7899C61.0084 16.5826 59.944 17.8151 57.9832 17.8151C56.3585 17.8151 55.2941 16.9188 54.5658 16.2465C54.4538 16.1345 54.2297 16.1345 54.1176 16.2465L53.2213 17.2549C53.0532 17.3669 53.0532 17.535 53.2213 17.7031ZM8.7395 9.7479C8.7395 11.5406 7.39496 12.9972 5.54622 12.9972C3.69748 12.9972 2.46499 11.4286 2.46499 9.7479V9.63585C2.46499 7.89916 3.7535 6.44258 5.54622 6.44258C7.33893 6.44258 8.7395 7.89916 8.7395 9.7479ZM0 9.7479C0 12.6611 2.35294 15.126 5.54622 15.126C8.7395 15.126 11.0924 12.6611 11.0924 9.7479V9.63585C11.0924 6.72269 8.7395 4.36975 5.54622 4.36975C2.35294 4.36975 0 6.72269 0 9.7479ZM48.7955 9.7479C48.7955 11.5406 47.451 12.9972 45.6022 12.9972C43.8095 12.9972 42.521 11.4286 42.521 9.7479V9.63585C42.521 7.89916 43.8095 6.44258 45.6022 6.44258C47.451 6.44258 48.7955 7.89916 48.7955 9.7479ZM40.056 9.7479C40.056 12.6611 42.409 15.126 45.6022 15.126C48.7955 15.126 51.1485 12.6611 51.1485 9.7479V9.63585C51.1485 6.72269 48.7955 4.36975 45.6022 4.36975C42.409 4.36975 40.056 6.72269 40.056 9.7479ZM65.4342 14.6779C65.4342 14.8459 65.5462 14.958 65.7143 14.958H67.451C67.619 14.958 67.7311 14.8459 67.7311 14.6779V4.87395C67.7311 4.7619 67.6751 4.64986 67.507 4.64986H65.7143C65.5462 4.64986 65.4902 4.7619 65.4902 4.87395V14.6779H65.4342ZM65.4342 2.07283C65.4342 2.2409 65.5462 2.35294 65.7143 2.35294H67.451C67.619 2.35294 67.7311 2.2409 67.7311 2.07283V0.22409C67.7311 0.112045 67.6751 0 67.507 0H65.7143C65.5462 0 65.4902 0.112045 65.4902 0.22409V2.07283H65.4342ZM77.7031 14.6779C77.7031 14.8459 77.8151 14.958 77.9832 14.958H79.7199C79.888 14.958 80 14.8459 80 14.6779V8.85154C80 6.38655 78.5434 4.36975 75.4622 4.36975H75.4062C73.8936 4.36975 72.7731 4.87395 72.1008 5.43417V4.87395C72.1008 4.70588 71.9888 4.59384 71.8207 4.59384H70.084C69.916 4.59384 69.8039 4.70588 69.8039 4.87395V14.6218C69.8039 14.7899 69.916 14.902 70.084 14.902H71.8207C71.9888 14.902 72.1008 14.7899 72.1008 14.6218V9.2437C72.1008 7.56302 72.9412 6.33053 74.958 6.33053C76.9748 6.33053 77.7591 7.56302 77.7591 9.2437V14.6779H77.7031ZM61.0644 9.7479C61.0644 11.5406 59.7199 12.9972 57.8711 12.9972C56.0224 12.9972 54.7899 11.4286 54.7899 9.7479V9.63585C54.7899 7.89916 56.0784 6.44258 57.8711 6.44258C59.6639 6.44258 61.0644 7.89916 61.0644 9.7479Z" fill="#1C1F2A"/>
</g>
<defs>
<clipPath id="clip0_508_1572">
<rect width="80" height="19.7199" fill="white"/>
</clipPath>
</defs>
</svg>
