<svg width="169" height="32" viewBox="0 0 169 32" fill="none" xmlns="http://www.w3.org/2000/svg">
<path d="M37.7508 25.2482V15.3922H35.8828V12.5725H37.7508V10.7928C37.666 9.26857 38.1287 7.76409 39.0558 6.5491C39.9149 5.51321 41.2099 4.93649 42.5572 4.98971C43.7868 5.00356 44.9975 5.2934 46.0993 5.83771L45.3585 8.60325C45.0484 8.444 44.7212 8.32014 44.3832 8.23402C44.0479 8.13982 43.7018 8.08935 43.3535 8.08387C42.072 8.08387 41.4312 8.94171 41.4312 10.6574V12.5737H44.94V15.3934H41.4312V25.2494L37.7508 25.2482Z" fill="#2A2C3A"/>
<path d="M58.5956 14.0781C57.563 14.0778 56.5423 14.2973 55.6016 14.7217C54.7672 15.0885 54.0943 15.7444 53.7077 16.5679V25.2473H50.0273V10.9027H53.4053V13.9685C53.8562 13.0355 54.519 12.2201 55.3411 11.587C56.0537 11.0142 56.9383 10.6961 57.8536 10.6836C58.0561 10.6836 58.2067 10.6836 58.3067 10.6971C58.4036 10.7058 58.5 10.7194 58.5956 10.7377V14.0781Z" fill="#2A2C3A"/>
<path fill-rule="evenodd" clip-rule="evenodd" d="M69.6881 25.5211C68.6063 25.5375 67.5326 25.3322 66.5337 24.918C65.6377 24.5437 64.8287 23.9894 64.157 23.2897C63.5079 22.6063 62.9995 21.8026 62.6607 20.9242C61.9673 19.1003 61.9673 17.0865 62.6607 15.2626C62.9992 14.3829 63.5076 13.578 64.157 12.8934C64.8294 12.1945 65.6382 11.6403 66.5337 11.2651C67.5335 10.851 68.608 10.6461 69.6906 10.6632C70.7696 10.645 71.8408 10.8499 72.8364 11.2651C74.6152 12.0178 76.0087 13.4617 76.6946 15.2626C77.3897 17.0862 77.3897 19.1006 76.6946 20.9242C76.358 21.8011 75.855 22.6051 75.213 23.2922C74.5462 23.9935 73.7391 24.5475 72.8438 24.918C71.8444 25.3324 70.7703 25.5377 69.6881 25.5211ZM66.2201 19.84C66.0212 19.2824 65.9234 18.694 65.9312 18.1022V18.101C65.9258 17.5142 66.0236 16.931 66.2201 16.3779C66.3963 15.8752 66.6665 15.4103 67.0165 15.008C67.3492 14.6296 67.7553 14.3223 68.2104 14.1047C68.6728 13.8846 69.1794 13.7723 69.6919 13.776C70.2028 13.7725 70.7084 13.8801 71.1734 14.0911C71.6296 14.3009 72.0364 14.6041 72.3673 14.981C72.7176 15.3825 72.9879 15.847 73.1636 16.3496C73.36 16.9028 73.4578 17.4859 73.4525 18.0727C73.4597 18.6688 73.3619 19.2616 73.1636 19.824C72.9877 20.3268 72.7175 20.7917 72.3673 21.1939C72.0361 21.5701 71.6294 21.8728 71.1734 22.0825C70.2304 22.5014 69.1533 22.5014 68.2104 22.0825C67.7544 21.8728 67.3477 21.5701 67.0165 21.1939C66.669 20.7958 66.3989 20.3367 66.2201 19.84Z" fill="#2A2C3A"/>
<path d="M95.7574 25.248H92.077V17.1988C92.1469 16.3168 91.9352 15.4354 91.4721 14.6807C91.0801 14.1562 90.4534 13.859 89.7979 13.8868C89.4123 13.8902 89.0306 13.9645 88.672 14.1059C88.2809 14.2547 87.9149 14.4622 87.5867 14.7213C87.2397 14.9941 86.9304 15.3115 86.6669 15.6653C86.3936 16.027 86.1886 16.4353 86.062 16.8702V25.248H82.3828V10.9022H85.7064V13.5582C86.2469 12.6351 87.0494 11.8921 88.0127 11.4228C89.0701 10.9001 90.2376 10.6372 91.4178 10.656C92.181 10.6246 92.939 10.7944 93.6154 11.1483C94.1593 11.4544 94.6134 11.8969 94.9327 12.432C95.255 12.9908 95.4737 13.6028 95.5784 14.2388C95.6976 14.9167 95.7575 15.6035 95.7574 16.2917V25.248Z" fill="#2A2C3A"/>
<path d="M110.254 24.507C109.659 24.762 109.049 24.9811 108.428 25.163C107.694 25.3847 106.93 25.4959 106.163 25.4929C105.675 25.4957 105.19 25.4311 104.72 25.3009C104.288 25.1815 103.885 24.9717 103.54 24.6855C103.189 24.3877 102.911 24.0128 102.729 23.5901C102.514 23.0744 102.411 22.519 102.427 21.9606V13.7144H100.559V10.9009H102.427V6.24609H106.107V10.9009H109.155V13.7206H106.107V20.7286C106.064 21.1341 106.217 21.536 106.519 21.8104C106.804 22.0229 107.152 22.1335 107.507 22.1242C107.891 22.1249 108.272 22.0603 108.634 21.9335C108.998 21.8104 109.294 21.6959 109.512 21.6049L110.254 24.507Z" fill="#2A2C3A"/>
<path fill-rule="evenodd" clip-rule="evenodd" d="M118.409 24.9318C119.403 25.3352 120.469 25.5353 121.542 25.5201V25.5214C122.999 25.5604 124.439 25.1957 125.701 24.4678C126.796 23.8379 127.68 22.8992 128.241 21.77L125.084 20.8949C124.82 21.5061 124.348 22.0051 123.752 22.3041C123.117 22.6559 122.403 22.8398 121.677 22.8383C121.209 22.84 120.743 22.7566 120.305 22.5921C119.417 22.2624 118.69 21.6061 118.272 20.7583C118.043 20.2861 117.903 19.7758 117.86 19.253H128.981C129.023 19.0732 129.046 18.8897 129.051 18.7054C129.064 18.4863 129.064 18.2586 129.064 18.021C129.067 17.0674 128.895 16.1214 128.556 15.2297C128.228 14.352 127.724 13.5503 127.074 12.874C126.403 12.1841 125.6 11.6351 124.712 11.2592C123.717 10.8441 122.646 10.6392 121.568 10.6574C120.48 10.641 119.401 10.8458 118.396 11.2592C117.492 11.6344 116.675 12.1883 115.992 12.8875C115.333 13.5725 114.82 14.3829 114.483 15.2703C114.132 16.1923 113.955 17.1713 113.961 18.1577C113.957 19.1231 114.139 20.0804 114.497 20.9774C114.843 21.8554 115.361 22.6559 116.02 23.3318C116.701 24.02 117.513 24.5642 118.409 24.9318ZM124.079 14.2857C124.798 14.9608 125.226 15.8872 125.274 16.8704L117.805 16.8728C117.834 16.3699 117.959 15.8773 118.175 15.4217C118.374 15.0012 118.648 14.6207 118.985 14.2993C119.316 13.988 119.702 13.7416 120.125 13.5731C120.566 13.3984 121.037 13.3102 121.512 13.3134C122.462 13.292 123.383 13.6408 124.079 14.2857Z" fill="#2A2C3A"/>
<path fill-rule="evenodd" clip-rule="evenodd" d="M137.071 24.7543C137.889 25.1432 138.786 25.3398 139.693 25.3291C140.659 25.3341 141.612 25.1038 142.469 24.6583C143.307 24.2305 144.004 23.5696 144.474 22.7556V24.5562C144.488 25.1764 144.37 25.7926 144.128 26.3642C143.918 26.8499 143.598 27.2804 143.193 27.622C142.791 27.9564 142.324 28.2037 141.82 28.3482C141.291 28.5047 140.741 28.583 140.188 28.5808C139.264 28.5869 138.349 28.3906 137.509 28.006C136.705 27.6436 135.996 27.1002 135.437 26.4183L133.432 28.3617C134.177 29.2917 135.12 30.0447 136.193 30.566C137.449 31.1234 138.815 31.3898 140.188 31.3451C141.267 31.3558 142.341 31.1993 143.372 30.8811C144.293 30.5973 145.151 30.1421 145.901 29.5396C146.609 28.9633 147.178 28.2356 147.566 27.4103C147.971 26.5163 148.172 25.5442 148.155 24.5636V10.902H144.945V13.4165C144.426 12.5923 143.716 11.9037 142.876 11.4079C141.976 10.8915 140.951 10.6314 139.913 10.6559C138.068 10.6276 136.306 11.4203 135.107 12.8183C134.51 13.5136 134.044 14.3109 133.732 15.1716C133.397 16.1023 133.23 17.0849 133.239 18.0737C133.233 19.0245 133.392 19.9692 133.708 20.8663C134 21.7121 134.446 22.4967 135.025 23.1802C135.587 23.8437 136.285 24.3803 137.071 24.7543ZM142.112 22.2076C141.741 22.3363 141.351 22.4012 140.959 22.3996V22.3984C140.415 22.4035 139.875 22.2914 139.379 22.0698C138.901 21.8562 138.472 21.5489 138.116 21.1664C137.754 20.7759 137.47 20.3207 137.278 19.8249C137.073 19.3015 136.97 18.7438 136.975 18.1818C136.974 17.624 137.062 17.0696 137.238 16.5399C137.402 16.0281 137.658 15.5502 137.993 15.1295C138.319 14.7231 138.725 14.3879 139.186 14.1449C139.665 13.8958 140.199 13.769 140.739 13.7756C141.536 13.7854 142.307 14.0547 142.936 14.5424C143.633 15.0567 144.167 15.7599 144.475 16.5683V19.9898C144.34 20.3269 144.154 20.6412 143.923 20.9215C143.688 21.211 143.416 21.4688 143.113 21.6883C142.807 21.9092 142.469 22.0841 142.112 22.2076Z" fill="#2A2C3A"/>
<path fill-rule="evenodd" clip-rule="evenodd" d="M157.2 24.7544C158.018 25.143 158.915 25.3396 159.821 25.3291C160.786 25.3338 161.737 25.1035 162.593 24.6584C163.431 24.2305 164.128 23.5696 164.598 22.7556V24.5624C164.612 25.1825 164.495 25.7986 164.253 26.3704C164.043 26.856 163.723 27.2866 163.319 27.6282C162.916 27.9626 162.449 28.2099 161.946 28.3544C161.415 28.5107 160.865 28.5891 160.312 28.587C159.388 28.5929 158.474 28.3967 157.634 28.0122C156.83 27.6498 156.12 27.1063 155.561 26.4245L153.56 28.3617C154.305 29.2914 155.248 30.0444 156.321 30.566C157.576 31.1233 158.942 31.3896 160.316 31.3451C161.395 31.3559 162.47 31.1994 163.501 30.8811C164.421 30.5976 165.279 30.1424 166.029 29.5396C166.735 28.963 167.302 28.2353 167.688 27.4104C168.093 26.5164 168.294 25.5443 168.278 24.5636V10.902H165.068V13.4165C164.55 12.5929 163.842 11.9044 163.004 11.4079C162.104 10.8914 161.079 10.6313 160.041 10.6559C158.196 10.6278 156.434 11.4205 155.235 12.8184C154.638 13.5133 154.173 14.3107 153.861 15.1716C153.526 16.1024 153.359 17.0849 153.367 18.0737C153.361 19.0245 153.52 19.9692 153.835 20.8664C154.128 21.7117 154.575 22.4961 155.153 23.1802C155.715 23.8437 156.413 24.3803 157.2 24.7544ZM162.237 22.2081C161.866 22.3368 161.476 22.4018 161.083 22.4001V22.3989C160.539 22.404 160 22.2919 159.504 22.0703C159.026 21.8567 158.596 21.5495 158.239 21.1669C157.878 20.7763 157.595 20.3211 157.403 19.8254C157.198 19.302 157.095 18.7443 157.1 18.1823C157.099 17.6246 157.187 17.0703 157.362 16.5404C157.526 16.0288 157.782 15.551 158.117 15.13C158.443 14.7236 158.849 14.3884 159.311 14.1454C159.79 13.8963 160.323 13.7694 160.863 13.7761C161.66 13.7858 162.432 14.0551 163.061 14.5429C163.758 15.0569 164.292 15.7602 164.599 16.5687V19.9903C164.465 20.3275 164.279 20.6419 164.048 20.922C163.812 21.2112 163.54 21.469 163.238 21.6887C162.932 21.9094 162.594 22.0844 162.237 22.2081Z" fill="#2A2C3A"/>
<path fill-rule="evenodd" clip-rule="evenodd" d="M7.77139 1.80658C10.932 -0.443261 14.0926 0.2472 17.0162 3.4152V3.42012C19.9398 6.59182 23.1794 12.7814 22.0683 19.3438C21.8418 20.7608 21.3609 22.1254 20.6485 23.3721C19.2509 25.7244 16.9516 27.4067 14.2815 28.0306C11.3202 28.7876 8.17837 28.3405 5.54784 26.7875C5.21428 26.5763 4.8943 26.3444 4.58977 26.0934C2.26062 24.0377 0.856822 21.136 0.693314 18.0392C0.564274 16.3164 0.691583 14.584 1.07111 12.8983C1.41581 11.3496 1.93475 9.84472 2.61809 8.41212C3.75026 5.81269 5.52287 3.54053 7.77139 1.80658ZM5.29584 10.721C5.65759 9.43482 6.93418 5.68836 9.94789 3.80405C10.0983 3.71171 10.1879 3.54639 10.1829 3.37037C10.1778 3.19434 10.079 3.03436 9.92358 2.95068C9.76816 2.86699 9.57976 2.87232 9.42935 2.96466C7.65563 4.14975 6.25059 5.80666 5.37362 7.74743C4.95017 8.6179 4.60478 9.52399 4.34148 10.4551C4.30442 10.5868 4.32393 10.7278 4.39535 10.8446C4.46677 10.9613 4.58367 11.0431 4.71804 11.0705C4.97298 11.1242 5.2259 10.9712 5.29584 10.721Z" fill="#2A2C3A"/>
<path d="M13.8555 30.3773C17.5948 32.0857 21.9839 31.5201 25.1646 28.9201C30.5179 24.4623 32.0007 15.3558 32.0007 15.3558C32.0007 15.3558 32.9464 10.6383 31.2056 7.91579C29.4648 5.19333 25.1646 5.21672 21.2298 6.56195C22.9882 10.1379 23.9565 14.0482 24.0695 18.029C24.0196 24.0325 19.7604 29.1814 13.8579 30.3736" fill="#2A2C3A"/>
</svg>
