<svg width="77" height="23" viewBox="0 0 77 23" fill="none" xmlns="http://www.w3.org/2000/svg">
<path d="M31.5362 17.3004H33.2851L34.2907 14.4218H39.7122L40.7178 17.3004H42.5323L37.9415 4.94434H36.127L31.5362 17.3004ZM34.7716 13.0489L37.0014 6.69368L39.2313 13.0489H34.7716Z" fill="#535B64"/>
<path d="M45.1661 17.3004H48.9918C53.0142 17.3004 54.8505 14.8204 54.8505 11.1224C54.8505 7.42442 53.0142 4.94434 48.9918 4.94434H45.1661V17.3004ZM46.8712 15.839V6.40581H49.0355C52.2928 6.40581 53.1016 8.79732 53.1016 11.1224C53.1016 13.4475 52.2928 15.839 49.0355 15.839H46.8712Z" fill="#535B64"/>
<path d="M59.8299 17.3004V11.7203H64.9673V10.2366H59.8299V6.40581H65.798V4.94434H58.1248V17.3004H59.8299Z" fill="#535B64"/>
<path d="M67.5221 13.6689C67.697 16.2597 69.6427 17.5219 72.3097 17.5219C74.6051 17.5219 76.7694 16.5697 76.7694 14.0011C76.7694 12.141 75.6107 11.211 73.9274 10.7238L71.2604 9.94878C70.1017 9.61663 69.5115 8.97447 69.5115 8.00015C69.5115 6.87083 70.3204 6.16223 71.8944 6.16223C73.1404 6.16223 74.5614 6.6051 74.7144 8.50945H76.3977C76.2447 6.05151 74.5614 4.7229 72.0255 4.7229C69.7738 4.7229 67.8063 5.7415 67.8063 8.11087C67.8063 9.79378 68.8119 10.8567 70.6483 11.3881L73.3153 12.1631C74.4521 12.4953 75.0642 13.1596 75.0642 14.1118C75.0642 15.2632 74.1898 16.0826 72.3972 16.0826C70.9325 16.0826 69.3803 15.5511 69.2492 13.6689H67.5221Z" fill="#535B64"/>
<rect x="0.138245" y="0.000427246" width="10.5207" height="10.6566" fill="#535B64"/>
<rect x="12.1616" width="10.5207" height="10.6566" fill="#535B64"/>
<rect x="12.1616" y="12.1788" width="10.5207" height="10.6566" fill="#535B64"/>
<rect x="0.138245" y="12.1788" width="10.5207" height="10.6566" fill="#535B64"/>
</svg>
