<svg width="80" height="29" viewBox="0 0 80 29" fill="none" xmlns="http://www.w3.org/2000/svg">
<g clip-path="url(#clip0_508_1508)">
<path d="M33.0819 3.72258C33.0587 3.36499 33.0356 2.90012 33.0356 2.56637H33.0125C32.9431 2.87628 32.8043 3.24579 32.6886 3.60338L32.2376 4.89071H31.9832L31.5784 3.62722C31.4627 3.29347 31.3702 2.92396 31.2777 2.59021C31.2545 2.90012 31.2545 3.36499 31.2314 3.77026L31.162 4.90263H30.8613L31.0464 2.2207H31.4743L31.9253 3.53187C32.041 3.84178 32.1104 4.16361 32.1798 4.44968H32.2029C32.2723 4.18745 32.3648 3.86562 32.4805 3.53187L32.9547 2.2207H33.3826L33.5445 4.90263H33.1744L33.0819 3.72258Z" fill="#00AAF2"/>
<path d="M34.4239 2.43526C34.4239 2.55445 34.3313 2.64981 34.2157 2.64981H34.1925C34.0769 2.64981 33.9844 2.55445 33.9844 2.43526C33.9844 2.31606 34.0769 2.2207 34.1925 2.2207C34.3313 2.2207 34.4239 2.31606 34.4239 2.43526ZM34.0538 4.91455V3.0074H34.4007V4.91455H34.0538Z" fill="#00AAF2"/>
<path d="M36.2743 4.83C36.1124 4.90152 35.9273 4.94919 35.7307 4.94919C35.164 4.94919 34.7939 4.56776 34.7939 3.95986C34.7708 3.39964 35.164 2.94669 35.7076 2.92285H35.8001C35.962 2.92285 36.124 2.94669 36.2743 3.01821L36.2049 3.28044C36.0893 3.23276 35.9505 3.18508 35.8001 3.20892C35.3722 3.20892 35.1409 3.51883 35.1409 3.93602C35.1409 4.40089 35.4185 4.66312 35.8001 4.66312C35.9389 4.66312 36.0777 4.63928 36.2049 4.56777L36.2743 4.83Z" fill="#00AAF2"/>
<path d="M36.6559 3.57881C36.6559 3.36425 36.6328 3.16162 36.6328 2.99474H36.9335L36.9566 3.37617H36.9798C37.0492 3.13778 37.2573 2.95898 37.5002 2.95898C37.5233 2.95898 37.5696 2.95898 37.5927 2.98282V3.29273C37.5696 3.2689 37.5233 3.2689 37.4771 3.2689C37.2458 3.2689 37.0723 3.45961 37.026 3.73376C37.026 3.78144 37.0029 3.82912 37.0029 3.8768V4.91381H36.6791L36.6559 3.57881Z" fill="#00AAF2"/>
<path d="M39.5933 3.937C39.6164 4.44954 39.2463 4.90249 38.749 4.92633H38.6796C38.1823 4.92633 37.7891 4.5449 37.7891 3.937C37.7891 3.28142 38.217 2.92383 38.7259 2.92383C39.1885 2.92383 39.5933 3.34102 39.5933 3.937ZM38.1129 3.937C38.1129 4.31843 38.2979 4.6641 38.6796 4.6641C39.0497 4.6641 39.2463 4.30651 39.2463 3.937C39.2463 3.60325 39.1075 3.18606 38.6796 3.18606C38.2285 3.2099 38.1129 3.60325 38.1129 3.937Z" fill="#00AAF2"/>
<path d="M39.9631 4.5449C40.1019 4.64026 40.2407 4.68794 40.4142 4.68794C40.6455 4.68794 40.7611 4.56874 40.7611 4.40187C40.7611 4.25883 40.6686 4.16347 40.4142 4.04428C40.0903 3.92508 39.9168 3.73437 39.9168 3.48405C39.9168 3.17414 40.1481 2.92383 40.5529 2.92383C40.7148 2.92383 40.8768 2.97151 41.0271 3.04302L40.9577 3.28142C40.8421 3.2099 40.7033 3.16222 40.5876 3.16222C40.4257 3.13838 40.2869 3.25758 40.2869 3.42445C40.2869 3.56749 40.4026 3.63901 40.6339 3.73437C40.9346 3.85356 41.1312 4.02044 41.1312 4.31843C41.1312 4.65218 40.8768 4.90249 40.4257 4.90249C40.2407 4.90249 40.0788 4.85481 39.9053 4.75946L39.9631 4.5449Z" fill="#00AAF2"/>
<path d="M43.2251 3.937C43.2482 4.44954 42.8781 4.90249 42.3808 4.92633H42.3114C41.8141 4.92633 41.4209 4.5449 41.4209 3.937C41.4209 3.28142 41.8488 2.92383 42.3577 2.92383C42.8319 2.92383 43.2251 3.34102 43.2251 3.937ZM41.7563 3.937C41.7563 4.31843 41.9413 4.6641 42.323 4.6641C42.7047 4.6641 42.8897 4.30651 42.8897 3.937C42.8897 3.60325 42.7509 3.18606 42.323 3.18606C41.8951 3.18606 41.7563 3.60325 41.7563 3.937Z" fill="#00AAF2"/>
<path d="M43.6753 4.91406V3.2453H43.4209V2.98307H43.6753V2.88771C43.6522 2.64932 43.7216 2.39901 43.8835 2.20829C43.9992 2.0891 44.1611 2.01758 44.3346 2.01758C44.4271 2.01758 44.5196 2.04142 44.6121 2.06526L44.5659 2.32749C44.4965 2.30365 44.4271 2.27981 44.3577 2.27981C44.0801 2.27981 44.0107 2.54204 44.0107 2.84003V2.95923H44.4618V3.22146H44.0107V4.86638L43.6753 4.91406Z" fill="#00AAF2"/>
<path d="M45.2254 2.41113V2.97136H45.7227V3.23359H45.2254V4.2706C45.2254 4.50899 45.2948 4.62819 45.4799 4.62819C45.5492 4.62819 45.6186 4.62819 45.6649 4.60435L45.688 4.86658C45.5955 4.91426 45.503 4.91426 45.3873 4.91426C45.2486 4.91426 45.1329 4.86658 45.0172 4.77123C44.9247 4.62819 44.8785 4.43747 44.9016 4.25868V3.19783H44.624V2.9356H44.9016V2.47073L45.2254 2.41113Z" fill="#00AAF2"/>
<path d="M32.8739 12.1968L31.9834 15.0337H30.8037L33.7876 6.02246H35.1291L38.113 15.0218H36.9102L35.9734 12.1849H32.8739V12.1968ZM35.7421 11.3029L34.8978 8.7163C34.7128 8.13224 34.574 7.58394 34.4468 7.07139H34.4005C34.2849 7.60778 34.1461 8.15608 33.9726 8.69247L33.1283 11.3029H35.7421Z" fill="#00AAF2"/>
<path d="M43.6534 14.8071C43.0867 15.0693 42.4737 15.1885 41.8492 15.1885C39.9756 15.1885 38.7266 13.8535 38.7266 11.8987C38.7266 9.94386 40.0681 8.46582 42.0805 8.46582C42.6241 8.46582 43.1561 8.56118 43.6534 8.79957L43.399 9.69355C42.9942 9.47899 42.5316 9.38363 42.0574 9.38363C40.6233 9.38363 39.8484 10.4922 39.8484 11.8272C39.8484 13.329 40.7852 14.2469 42.0342 14.2469C42.5084 14.2469 42.9942 14.1515 43.4221 13.9369L43.6534 14.8071Z" fill="#00AAF2"/>
<path d="M46.5442 6.72559V8.58505H48.1633V9.45519H46.5442V12.9357C46.5442 13.7343 46.7524 14.1992 47.3885 14.1992C47.5966 14.1992 47.8395 14.1754 48.0477 14.1277L48.0939 14.9978C47.8858 15.117 47.5272 15.1647 47.0646 15.1647C46.5905 15.1885 46.151 14.9978 45.8387 14.676C45.538 14.2946 45.4108 13.7582 45.4108 12.9834V9.45519H44.4277V8.58505H45.3877V7.01166L46.5442 6.72559Z" fill="#00AAF2"/>
<path d="M50.7192 6.77324C50.7192 7.15466 50.4416 7.4765 50.0599 7.50033H50.0137C49.6436 7.50033 49.3313 7.21426 49.3313 6.84475V6.79707C49.3082 6.41565 49.6089 6.06998 49.9906 6.06998H50.0368C50.4185 6.0223 50.7192 6.35605 50.7192 6.77324C50.7192 6.7494 50.7192 6.7494 50.7192 6.77324ZM49.4585 15.0455V8.58502H50.5804V15.0216H49.4585V15.0455Z" fill="#00AAF2"/>
<path d="M52.9285 8.58496L54.1545 12.2205C54.3626 12.8045 54.5245 13.3528 54.6749 13.8892H54.7212C54.8599 13.3528 55.045 12.8045 55.2416 12.2205L56.4675 8.58496H57.6703L55.2069 15.0216H54.1082L51.7373 8.58496H52.9285Z" fill="#00AAF2"/>
<path d="M59.2196 12.0181C59.2428 13.6153 60.2258 14.2709 61.3592 14.2709C62.1804 14.2709 62.7008 14.1279 63.094 13.9371L63.2791 14.7834C62.6199 15.0695 61.9144 15.2245 61.1858 15.2006C59.2659 15.2006 58.1094 13.8656 58.1094 11.9346C58.1094 9.97982 59.2081 8.4541 61.0701 8.4541C63.1172 8.4541 63.6492 10.2897 63.6492 11.4817C63.6492 11.6724 63.626 11.8393 63.6029 12.0419H59.2196V12.0181ZM62.5505 11.1718C62.5736 10.4447 62.2498 9.28848 60.9776 9.28848C59.8326 9.28848 59.3122 10.3732 59.2196 11.1718H62.5505Z" fill="#00AAF2"/>
<path d="M30.9196 17.2493C31.7176 17.1301 32.5156 17.0586 33.3368 17.0586C34.9559 17.0586 36.1125 17.44 36.8642 18.191C37.6391 18.9181 38.0901 19.9789 38.0901 21.4093C38.0901 22.8873 37.6391 24.0674 36.8179 24.9137C35.9968 25.7599 34.6552 26.2248 32.9667 26.2248C32.2843 26.2248 31.5788 26.201 30.8965 26.1056L30.9196 17.2493ZM32.0761 25.2116C32.4462 25.2593 32.8279 25.2832 33.198 25.2832C35.6151 25.2832 36.9336 23.9005 36.9336 21.4569C36.9567 19.3233 35.7886 18.0002 33.4062 18.0002C32.9551 18.0002 32.5156 18.0479 32.0646 18.1194L32.0761 25.2116Z" fill="#00AAF2"/>
<path d="M40.8305 17.8572C40.8305 18.2386 40.5529 18.5605 40.1713 18.5843H40.125C39.7549 18.5843 39.4427 18.2982 39.4427 17.9287V17.8811C39.4195 17.4996 39.7202 17.154 40.1019 17.154H40.1481C40.5067 17.1063 40.8305 17.44 40.8305 17.8572C40.8305 17.8334 40.8305 17.8334 40.8305 17.8572ZM39.5467 26.1295V19.669H40.6686V26.1056H39.5467V26.1295Z" fill="#00AAF2"/>
<path d="M42.5658 21.6838C42.5658 20.9329 42.5427 20.2773 42.5195 19.6694H43.5257L43.572 20.9329H43.6182C43.9189 20.0628 44.6244 19.5264 45.3762 19.5264C45.4918 19.5264 45.5843 19.5264 45.6769 19.5502V20.6587C45.5612 20.6349 45.4456 20.6111 45.3068 20.6111C44.4856 20.6111 43.9421 21.2428 43.7802 22.1129C43.7339 22.2798 43.7339 22.4705 43.7339 22.6493V26.106H42.6121L42.5658 21.6838Z" fill="#00AAF2"/>
<path d="M47.3193 23.1021C47.3424 24.6993 48.3254 25.3549 49.4588 25.3549C50.28 25.3549 50.8004 25.2118 51.1936 25.0211L51.3787 25.8674C50.7195 26.1535 50.014 26.3085 49.2854 26.2846C47.3655 26.2846 46.209 24.9496 46.209 23.0186C46.209 21.0638 47.3077 19.5381 49.1697 19.5381C51.2168 19.5381 51.7488 21.3737 51.7488 22.5657C51.7488 22.7564 51.7256 22.9233 51.7025 23.1259H47.3193V23.1021ZM50.6501 22.2558C50.6732 21.5287 50.3494 20.3725 49.0772 20.3725C47.9322 20.3725 47.4118 21.4572 47.3193 22.2558H50.6501Z" fill="#00AAF2"/>
<path d="M57.6241 25.8911C57.0574 26.1533 56.4444 26.2725 55.8199 26.2725C53.9463 26.2725 52.6973 24.9375 52.6973 22.9827C52.6973 21.0278 54.0388 19.5498 56.0512 19.5498C56.5948 19.5498 57.1268 19.6452 57.6241 19.8836L57.3697 20.7775C56.9649 20.563 56.5023 20.4676 56.0281 20.4676C54.594 20.4676 53.8191 21.5761 53.8191 22.9111C53.8191 24.413 54.7559 25.3308 56.005 25.3308C56.4791 25.3308 56.9649 25.2355 57.3928 25.0209L57.6241 25.8911Z" fill="#00AAF2"/>
<path d="M60.5152 17.8096V19.669H62.1344V20.5392H60.5152V24.0197C60.5152 24.8183 60.7234 25.2832 61.3595 25.2832C61.5676 25.2832 61.8105 25.2594 62.0187 25.2117L62.065 26.0818C61.8568 26.201 61.4983 26.2487 61.0356 26.2487C60.5615 26.2725 60.122 26.0818 59.8097 25.76C59.509 25.3786 59.3818 24.8422 59.3818 24.0674V20.5392H58.4219V19.669H59.3818V18.0956L60.5152 17.8096Z" fill="#00AAF2"/>
<path d="M69.0163 22.8877C69.0163 25.2597 67.3278 26.2729 65.8706 26.2729C64.2283 26.2729 62.8867 25.0094 62.8867 22.9116C62.8867 20.7541 64.3208 19.5264 66.0094 19.5264C67.7673 19.5264 69.0163 20.8137 69.0163 22.8877ZM64.0548 22.9116C64.0548 24.2227 64.6909 25.3789 65.9515 25.3789C67.2006 25.3789 67.8714 24.2227 67.8714 22.8877C67.8714 21.7553 67.3509 20.3727 65.9515 20.3727C64.5521 20.3727 64.0548 21.7553 64.0548 22.9116Z" fill="#00AAF2"/>
<path d="M70.4496 21.6838C70.4496 20.9329 70.4265 20.2773 70.4033 19.6694H71.4095L71.4558 20.9329H71.502C71.8027 20.0628 72.5082 19.5264 73.26 19.5264C73.3756 19.5264 73.4681 19.5264 73.5607 19.5502V20.6587C73.445 20.6349 73.3293 20.6111 73.1906 20.6111C72.3694 20.6111 71.8259 21.2428 71.6639 22.1129C71.6177 22.2798 71.6177 22.4705 71.6177 22.6493V26.106H70.4958L70.4496 21.6838Z" fill="#00AAF2"/>
<path d="M75.4232 19.6689L76.7879 23.4713C76.9267 23.8885 77.0886 24.3891 77.1927 24.8063H77.2158C77.3315 24.4249 77.4471 23.9362 77.6206 23.4713L78.8697 19.6689H80.0725L78.3608 24.2699C77.5396 26.4751 76.9961 27.6313 76.2212 28.3345C75.8164 28.6921 75.3538 28.9424 74.8334 29.0855L74.5558 28.0961C74.9259 27.9769 75.2613 27.7862 75.562 27.5121C75.9668 27.1545 76.2906 26.7135 76.4988 26.2009C76.545 26.1056 76.5913 26.0102 76.5913 25.9148C76.5913 25.7957 76.545 25.7003 76.4988 25.6049L74.1973 19.6809H75.4232V19.6689Z" fill="#00AAF2"/>
<path d="M22.738 21.3995V26.2063C22.738 26.7693 22.5699 26.8848 22.0517 26.7982C18.5783 26.2641 15.0628 25.7733 11.5614 25.2681C10.9311 25.1815 10.707 24.9505 10.707 24.2432C10.7631 21.6882 10.735 19.1188 10.707 16.535C10.707 15.972 10.8751 15.7988 11.4213 15.7988C15.0068 15.8277 18.5362 15.8277 22.0517 15.8277C22.6259 15.8277 22.766 16.0587 22.766 16.5927C22.7099 18.2094 22.738 19.7973 22.738 21.3995Z" fill="#00AAF2"/>
<path d="M16.7862 14.9044C15.0214 14.9044 13.2567 14.8755 11.492 14.9044C10.9458 14.9044 10.7217 14.7889 10.7217 14.1394C10.7497 11.5266 10.7497 8.95725 10.7217 6.37341C10.7217 5.86819 10.8897 5.69497 11.3519 5.60837C14.9654 5.07428 18.5789 4.55462 22.1924 3.99166C22.8226 3.90506 22.7106 4.3381 22.7106 4.69897C22.7106 7.00854 22.7386 9.36142 22.7106 11.671C22.7106 12.5227 22.6826 13.3743 22.7106 14.226C22.7386 14.7601 22.5425 14.9044 22.0523 14.9044C20.3156 14.8755 18.5509 14.9044 16.7862 14.9044Z" fill="#00AAF2"/>
<path d="M5.10527 15.8714H9.05488C9.47506 15.8714 9.65713 16.0158 9.65713 16.4633V24.489C9.65713 24.9509 9.46105 24.9942 9.05488 24.9509C6.43581 24.5468 3.81674 24.157 1.21167 23.7817C0.693459 23.6951 0.525391 23.5219 0.525391 22.9589C0.553402 20.8226 0.553402 18.6862 0.525391 16.5066C0.525391 15.9725 0.665448 15.8281 1.18366 15.8281C2.51421 15.8714 3.78873 15.8714 5.10527 15.8714Z" fill="#00AAF2"/>
<path d="M5.10558 14.9051H1.21198C0.72178 14.9051 0.553711 14.7319 0.553711 14.1978C0.581722 12.0903 0.581722 9.98285 0.553711 7.86093C0.553711 7.35571 0.693768 7.1825 1.21198 7.09589C3.83105 6.74945 6.45013 6.35971 9.05519 5.92667C9.65744 5.84006 9.71346 6.04214 9.71346 6.54736V14.2267C9.71346 14.7897 9.48937 14.8763 8.99917 14.8763C7.69664 14.8763 6.3801 14.9051 5.10558 14.9051Z" fill="#00AAF2"/>
</g>
<defs>
<clipPath id="clip0_508_1508">
<rect width="80" height="29" fill="white"/>
</clipPath>
</defs>
</svg>
