<svg width="80" height="27" viewBox="0 0 80 27" fill="none" xmlns="http://www.w3.org/2000/svg">
<path d="M1.14258 1.14258H12.5711V12.5711H1.14258V1.14258Z" fill="#F35325"/>
<path d="M13.7139 1.14258H25.1424V12.5711H13.7139V1.14258Z" fill="#81BC06"/>
<path d="M1.14258 13.7139H12.5711V25.1424H1.14258V13.7139Z" fill="#05A6F0"/>
<path d="M13.7139 13.7139H25.1424V25.1424H13.7139V13.7139Z" fill="#FFBA08"/>
<path d="M35.8689 19.325H34.2861L38.8641 6.85742H40.4225L45.0004 19.325H43.4176L39.692 8.82982H39.5946L35.8689 19.325ZM36.4533 14.4548H42.8332V15.7941H36.4533V14.4548Z" fill="black"/>
<path d="M46.4797 19.325V18.2292L51.7882 11.411V11.3136H46.6502V9.9743H53.6388V11.1188L48.4765 17.8883V17.9857H53.8093V19.325H46.4797Z" fill="black"/>
<path d="M61.915 15.5019V9.9743H63.3517V19.325H61.915V17.7422H61.8176C61.5984 18.217 61.2575 18.6208 60.7949 18.9536C60.3322 19.2823 59.7478 19.4467 59.0416 19.4467C58.4572 19.4467 57.9377 19.3189 57.4832 19.0632C57.0286 18.8034 56.6715 18.4138 56.4117 17.8944C56.152 17.3708 56.0221 16.7113 56.0221 15.9159V9.9743H57.4588V15.8185C57.4588 16.5003 57.6496 17.0441 58.0311 17.45C58.4166 17.8558 58.9077 18.0587 59.5043 18.0587C59.8614 18.0587 60.2246 17.9674 60.594 17.7848C60.9673 17.6021 61.2798 17.3221 61.5315 16.9447C61.7871 16.5672 61.915 16.0863 61.915 15.5019Z" fill="black"/>
<path d="M65.9831 19.325V9.9743H67.3711V11.3866H67.4685C67.6389 10.924 67.9474 10.5486 68.3938 10.2604C68.8402 9.97228 69.3435 9.8282 69.9035 9.8282C70.009 9.8282 70.1409 9.83023 70.2992 9.83429C70.4575 9.83835 70.5772 9.84444 70.6584 9.85255V11.3136C70.6097 11.3014 70.4981 11.2832 70.3236 11.2588C70.1531 11.2304 69.9725 11.2162 69.7818 11.2162C69.3272 11.2162 68.9214 11.3116 68.5642 11.5023C68.2112 11.689 67.9311 11.9487 67.7241 12.2815C67.5212 12.6103 67.4198 12.9857 67.4198 13.4077V19.325H65.9831Z" fill="black"/>
<path d="M75.9973 19.5198C75.0963 19.5198 74.3191 19.3209 73.6657 18.9232C73.0163 18.5214 72.5151 17.9613 72.162 17.243C71.813 16.5206 71.6385 15.6805 71.6385 14.7227C71.6385 13.7649 71.813 12.9207 72.162 12.1902C72.5151 11.4556 73.0062 10.8834 73.6353 10.4735C74.2684 10.0595 75.007 9.85255 75.8512 9.85255C76.3382 9.85255 76.8191 9.93372 77.2939 10.0961C77.7688 10.2584 78.201 10.5222 78.5906 10.8875C78.9802 11.2487 79.2907 11.7276 79.522 12.3241C79.7534 12.9207 79.869 13.6553 79.869 14.5279V15.1366H72.6612V13.8948H78.408C78.408 13.3672 78.3025 12.8964 78.0914 12.4824C77.8844 12.0685 77.5882 11.7418 77.2026 11.5023C76.8211 11.2629 76.3706 11.1431 75.8512 11.1431C75.2789 11.1431 74.7838 11.2852 74.3658 11.5693C73.9518 11.8493 73.6332 12.2146 73.41 12.6651C73.1868 13.1155 73.0752 13.5985 73.0752 14.1139V14.9418C73.0752 15.648 73.1969 16.2466 73.4405 16.7377C73.688 17.2247 74.031 17.5961 74.4693 17.8517C74.9076 18.1034 75.4169 18.2292 75.9973 18.2292C76.3747 18.2292 76.7156 18.1764 77.02 18.0709C77.3284 17.9613 77.5943 17.799 77.8175 17.5839C78.0407 17.3647 78.2132 17.0928 78.3349 16.7681L79.7229 17.1577C79.5768 17.6285 79.3313 18.0425 78.9863 18.3996C78.6413 18.7527 78.2152 19.0287 77.7079 19.2276C77.2006 19.4224 76.6304 19.5198 75.9973 19.5198Z" fill="black"/>
</svg>
