<svg width="71" height="48" viewBox="0 0 71 48" fill="none" xmlns="http://www.w3.org/2000/svg">
<path d="M4.00077 33.4449H5.86908V41.0299C5.86908 41.3695 5.86908 41.6529 5.8137 41.8791C5.75831 42.1052 5.70016 42.3314 5.58754 42.5022C5.474 42.7283 5.30416 42.9545 5.078 43.1252C4.90816 43.2951 4.68108 43.4649 4.39862 43.5222C4.17246 43.6357 3.88908 43.692 3.60477 43.7483C3.32047 43.8046 3.03893 43.8037 2.75554 43.8037C2.41585 43.8037 2.13246 43.8037 1.85093 43.7483C1.56939 43.6929 1.28508 43.6348 1.11523 43.5222V41.9354C1.34139 42.0489 1.56754 42.1052 1.85093 42.1615C2.13431 42.2179 2.36046 42.2169 2.58662 42.2169C3.09616 42.2169 3.43585 42.1034 3.662 41.8772C3.88816 41.6511 4.00169 41.3114 4.00169 40.8582L4.00077 33.4449ZM11.5386 43.8037C11.8783 43.7483 12.1617 43.6339 12.3878 43.464C12.614 43.3505 12.8402 43.1806 13.0672 42.9545C13.2371 42.7846 13.4069 42.5575 13.5195 42.3314C13.7457 41.9345 13.8592 41.4268 13.8592 40.8028V36.2742H12.0482V40.6892C12.0482 41.1416 11.9928 41.4831 11.8783 41.7083C11.7638 41.9335 11.5949 42.1606 11.3688 42.2742C11.1426 42.3877 10.8592 42.444 10.5195 42.444C10.2452 42.4545 9.97258 42.3961 9.72662 42.2742C9.50046 42.1606 9.3297 41.9908 9.21708 41.7646C9.1617 41.6511 9.10354 41.4812 9.04723 41.3123C8.99093 41.1434 8.99185 40.9154 8.99185 40.6892V36.3323H7.18077V40.8609C7.18077 41.2006 7.23616 41.484 7.29431 41.7655C7.35246 42.0471 7.46416 42.2751 7.57769 42.5012C7.80385 42.9535 8.20077 43.2951 8.70939 43.5203C9.218 43.7455 9.84108 43.9172 10.5777 43.9172C10.8611 43.9172 11.2571 43.9172 11.5395 43.8037H11.5386ZM24.6712 43.7483H26.4823V38.4831C26.4823 38.3132 26.4823 38.1434 26.4269 38.0308C26.4269 37.8609 26.3715 37.7474 26.3134 37.6339C26.2552 37.5203 26.258 37.4077 26.1998 37.2942C26.03 36.8972 25.7475 36.6148 25.3506 36.3895C25.0109 36.1634 24.5568 36.0499 23.9918 36.0499C23.7239 36.0558 23.4577 36.0939 23.1989 36.1634C22.9728 36.2188 22.7466 36.3332 22.5195 36.4468C22.2925 36.5603 22.1226 36.7302 21.9537 36.8437C21.7838 37.0136 21.614 37.1834 21.5014 37.4095H21.446C21.2198 36.9572 20.9365 36.6157 20.5414 36.3905C20.1443 36.1664 19.6958 36.0493 19.2398 36.0508C18.9719 36.0567 18.7057 36.0948 18.4469 36.1643C18.2208 36.2197 17.9946 36.3342 17.7675 36.4477C17.5405 36.5612 17.3706 36.6739 17.2017 36.8446C17.0328 37.0154 16.9183 37.128 16.8048 37.2969H16.7494L16.5795 36.2779H15.0509V43.7502H16.862V38.5994C16.9755 38.4296 17.1454 38.316 17.2589 38.2025C17.4288 38.0889 17.5423 37.9763 17.7112 37.9191C17.8802 37.8619 18.0509 37.7492 18.2208 37.7492C18.3906 37.7492 18.5605 37.6939 18.7303 37.6939C19.0137 37.6939 19.2398 37.7492 19.4097 37.92C19.5795 38.0336 19.6931 38.2597 19.7494 38.4859C19.7494 38.5994 19.8048 38.712 19.8048 38.8255V43.8065H21.6158V38.6557C21.7294 38.4859 21.8992 38.3723 22.0128 38.2588C22.1826 38.1452 22.2962 38.0326 22.4651 37.9754C22.634 37.9182 22.8048 37.8056 22.9746 37.8056C23.1445 37.8056 23.3143 37.7502 23.4842 37.7502C23.7675 37.7502 23.9937 37.8055 24.1635 37.9763C24.3334 38.0899 24.4469 38.316 24.5032 38.5422C24.5032 38.6557 24.5586 38.7683 24.5586 38.8819V43.7502L24.6712 43.7483ZM34.8038 39.8991C34.8038 40.5785 34.6903 41.1914 34.5205 41.7102C34.3506 42.2289 34.0682 42.6148 33.7266 42.9563C33.3851 43.2979 33.0472 43.5222 32.6512 43.692C32.2552 43.8619 31.8574 43.9182 31.4623 43.9182C31.0672 43.9182 30.7266 43.8628 30.3869 43.692C30.0472 43.5212 29.7638 43.3523 29.5931 43.1262H29.5386V47.3151H27.7275V36.2751H29.3125L29.426 37.1243C29.6522 36.8409 29.9355 36.5585 30.2752 36.3886C30.6149 36.2188 31.0109 36.1052 31.5214 36.1052C31.9183 36.1052 32.3152 36.1606 32.7103 36.3314C33.0904 36.4904 33.4364 36.7211 33.7294 37.0108C34.0128 37.3505 34.2952 37.6902 34.4651 38.1997C34.6969 38.7355 34.8127 39.3144 34.8048 39.8982L34.8038 39.8991ZM32.8792 39.9545C32.8792 39.5575 32.8238 39.2188 32.7657 38.8791C32.7103 38.5957 32.5958 38.3132 32.426 38.1434C32.2562 37.9172 32.0863 37.8037 31.9165 37.6911C31.6903 37.5775 31.4642 37.5212 31.2371 37.5212C30.8974 37.5212 30.614 37.5766 30.3325 37.7474C30.0509 37.9182 29.7666 38.0871 29.5968 38.3705V41.7102C29.6522 41.8237 29.7666 41.88 29.8802 41.9935C29.9937 42.1071 30.1063 42.1634 30.2198 42.2197C30.3334 42.276 30.5032 42.3332 30.6722 42.3895C30.8411 42.4459 31.0118 42.4449 31.1817 42.4449C31.4651 42.4449 31.6912 42.3895 31.9174 42.2751C32.1435 42.1606 32.3143 41.9917 32.4832 41.7655C32.6532 41.5293 32.7692 41.2586 32.8229 40.9726C32.8783 40.6892 32.8783 40.3495 32.8783 39.9535L32.8792 39.9545ZM42.3315 34.464C42.7285 34.5194 43.0672 34.6339 43.3506 34.7474V33.6157C43.2371 33.5603 43.0672 33.5022 42.9537 33.4459C42.7838 33.3905 42.614 33.3323 42.4442 33.3323C42.2743 33.2769 42.0472 33.2769 41.8211 33.2769H41.198C40.4041 33.2769 39.6694 33.3905 38.99 33.6739C38.3106 33.9572 37.8011 34.2969 37.3488 34.8056C36.8965 35.3142 36.5549 35.8809 36.2734 36.5594C36.0472 37.2388 35.9337 37.9745 35.9337 38.7674C35.9337 39.5603 36.0472 40.296 36.2734 40.9754C36.4995 41.5985 36.8392 42.1643 37.2925 42.6166C37.7457 43.0689 38.3115 43.4105 38.9337 43.6357C39.6131 43.8619 40.3488 43.9754 41.198 43.9754C41.5949 43.9754 42.0472 43.92 42.4442 43.8619C42.8411 43.8037 43.1798 43.692 43.5195 43.5785V42.4468C43.3497 42.5022 43.2362 42.5603 43.01 42.6166C42.8402 42.672 42.6131 42.672 42.4442 42.7302C42.2752 42.7883 42.0472 42.7856 41.8783 42.7856H41.3125C40.6894 42.7856 40.1235 42.7302 39.614 42.5594C39.1045 42.3886 38.6522 42.1625 38.3217 41.8237C37.9912 41.4849 37.6986 41.0299 37.4725 40.5314C37.3026 40.0219 37.1891 39.3997 37.1891 38.6631C37.1891 37.9265 37.3026 37.3043 37.5288 36.7948C37.7441 36.3029 38.0302 35.8451 38.378 35.436C38.7749 35.0963 39.1718 34.8129 39.6703 34.6422C40.1976 34.4563 40.7524 34.3605 41.3115 34.3588C41.5949 34.3588 41.9346 34.4142 42.3306 34.4723L42.3315 34.464ZM46.1254 43.7474V32.5966H44.9263V43.7474H46.1254ZM54.2762 40.068C54.2762 40.6339 54.2208 41.1434 54.05 41.6529C53.8923 42.0848 53.6626 42.4868 53.3706 42.8419C53.0872 43.1815 52.6912 43.4649 52.2952 43.6357C51.8429 43.8055 51.3906 43.9191 50.8802 43.9191C50.3143 43.9191 49.8611 43.8055 49.4088 43.6357C48.9565 43.4659 48.6149 43.1834 48.3334 42.8419C48.0414 42.4868 47.8117 42.0848 47.654 41.6529C47.4841 41.2006 47.4278 40.6339 47.4278 40.068C47.4278 39.5022 47.4832 38.9363 47.654 38.4831C47.8117 38.0513 48.0414 37.6493 48.3334 37.2942C48.6168 36.9545 49.0128 36.6711 49.4088 36.5003C49.8611 36.3305 50.3134 36.2169 50.8238 36.2169C51.3897 36.2169 51.8429 36.3305 52.2952 36.5003C52.7475 36.6702 53.0891 36.9526 53.3706 37.2942C53.6626 37.6493 53.8923 38.0513 54.05 38.4831C54.1635 38.9926 54.2762 39.5022 54.2762 40.068ZM53.03 40.068C53.03 39.6157 52.9746 39.2188 52.8601 38.8791C52.7457 38.5394 52.5768 38.256 52.4078 37.9745C52.238 37.7483 51.9555 37.5222 51.7285 37.4086C51.4408 37.2927 51.133 37.2349 50.8229 37.2388C50.5128 37.2349 50.205 37.2927 49.9174 37.4086C49.6326 37.5135 49.3927 37.7134 49.238 37.9745C49.0682 38.2006 48.8983 38.5403 48.7857 38.8791C48.6731 39.2179 48.6158 39.6148 48.6158 40.068C48.6158 40.5212 48.6712 40.9172 48.7857 41.2569C48.9002 41.5966 49.0691 41.88 49.238 42.1615C49.4642 42.3877 49.6903 42.5585 49.9174 42.7274C50.205 42.8433 50.5128 42.9011 50.8229 42.8972C51.133 42.9011 51.4408 42.8433 51.7285 42.7274C52.0132 42.6225 52.2532 42.4227 52.4078 42.1615C52.5777 41.9354 52.7475 41.652 52.8601 41.2569C52.9737 40.9172 53.03 40.5212 53.03 40.068ZM59.4269 43.8037C59.7103 43.7483 59.9928 43.5775 60.2208 43.464C60.4469 43.2942 60.6731 43.1243 60.8438 42.8982C61.0146 42.672 61.1272 42.4459 61.2408 42.2188C61.3056 42.0366 61.3438 41.846 61.3543 41.6529C61.3543 41.4268 61.4097 41.2006 61.4097 40.9735V36.5012H60.2208V40.9735C60.2221 41.279 60.1839 41.5834 60.1072 41.8791C59.9937 42.2188 59.7675 42.4449 59.5414 42.6729C59.2167 42.8665 58.844 42.9647 58.466 42.9563C58.088 42.9647 57.7153 42.8665 57.3906 42.6729C57.1072 42.5031 56.9383 42.276 56.7675 41.9372C56.654 41.6539 56.5977 41.3142 56.5977 40.9182V36.4459H55.4088V40.9182C55.4088 41.2015 55.4088 41.4277 55.4641 41.6539C55.5195 41.88 55.5195 42.0508 55.634 42.2769C55.7485 42.5031 55.8601 42.7292 56.0309 42.9563C56.2017 43.1834 56.3706 43.3532 56.5968 43.4659C56.833 43.6359 57.1037 43.7518 57.3897 43.8055C57.7247 43.8777 58.0661 43.9157 58.4088 43.9191C58.8057 43.9191 59.1445 43.9191 59.4278 43.8055L59.4269 43.8037ZM69.05 32.5957V43.7465H68.1454L67.9192 42.9526H67.8638L67.5241 43.2923C67.4106 43.4059 67.2408 43.5185 67.0718 43.632C66.9029 43.7456 66.7321 43.8019 66.506 43.8582C66.2798 43.9145 66.0537 43.9717 65.7703 43.9717C65.3734 43.9717 64.9765 43.9163 64.5814 43.7455C64.1845 43.632 63.8457 43.4059 63.5623 43.0662C63.2789 42.7828 62.9965 42.3868 62.8266 41.8772C62.6568 41.4249 62.5432 40.8019 62.5432 40.1234C62.5432 39.6139 62.5986 39.1615 62.7131 38.7646C62.8275 38.3677 62.9392 38.0289 63.11 37.7455C63.2808 37.4622 63.4497 37.236 63.6758 37.0099C63.902 36.84 64.1282 36.6702 64.3552 36.5575C64.5823 36.4449 64.8075 36.3314 65.0909 36.2742C65.3171 36.2188 65.5432 36.2188 65.7703 36.2188C66.2226 36.2188 66.6195 36.2742 66.9592 36.4449C67.2989 36.6157 67.5823 36.7846 67.8638 37.1243V32.5957H69.05ZM67.8611 38.0862C67.6349 37.86 67.3515 37.6339 67.0118 37.4631C66.6721 37.2923 66.3325 37.2369 65.9928 37.2369C65.7666 37.2369 65.5405 37.2923 65.2571 37.3505C64.9737 37.4086 64.8048 37.5766 64.5777 37.8028C64.3506 38.0289 64.1808 38.3123 64.0681 38.7074C63.9555 39.1025 63.842 39.5566 63.842 40.1225C63.842 40.5194 63.8974 40.9163 64.0118 41.2542C64.1263 41.592 64.238 41.8772 64.4088 42.1034C64.5795 42.3295 64.8057 42.5003 65.0882 42.6692C65.3758 42.7852 65.6836 42.8429 65.9937 42.8391C66.2198 42.8391 66.446 42.7837 66.6731 42.7255C66.9001 42.6674 67.07 42.5557 67.2389 42.4994C67.4088 42.3859 67.5223 42.2732 67.6358 42.1597C67.7494 42.0462 67.862 41.9335 67.9192 41.82V38.0862H67.8611Z" fill="#003B49"/>
<path d="M55.1903 26.0274C55.0029 26.0274 54.8617 26.0736 54.6734 26.0736H33.0365C34.4912 23.2582 37.1192 21.052 40.1229 20.0182C37.9629 18.5163 36.8848 15.8883 37.3075 13.3074C37.7303 10.8197 39.5598 8.70772 41.9534 7.91018C45.1915 6.92433 48.7103 8.23879 50.3072 11.2333C51.8562 14.2369 50.9165 18.0382 48.1472 20.0089C51.1509 20.9948 53.7319 23.2 55.1866 26.0163C54.9992 26.0163 53.9192 23.6228 55.1866 26.0163L55.1903 26.0274ZM31.3962 26.0274C31.3962 25.1357 32.1466 24.244 32.6165 23.5868C31.4591 22.4402 30.0659 21.5594 28.5337 21.0059C32.1946 18.4249 31.4432 12.652 27.2663 11.0569C24.6854 10.1182 21.774 11.0569 20.3202 13.3554C18.7232 15.8893 19.4285 19.2686 21.8691 21.0049C19.3461 21.8717 17.2484 23.6674 16.0029 26.0265H21.822L31.3962 26.0274Z" fill="#003E52"/>
<path d="M58.3816 17.1577C60.9625 19.7386 60.0708 24.197 56.7385 25.6057C56.3628 24.2912 55.1896 22.9777 54.2508 22.0389C53.265 21.005 52.1388 20.1614 50.9277 19.505C51.6782 18.5192 52.1951 17.345 52.4767 16.182C54.4474 15.1961 56.841 15.6281 58.3899 17.1678C58.6244 17.4023 57.7807 16.5586 58.3899 17.1678L58.3816 17.1577ZM12.1077 24.5257C12.765 25.1349 13.5625 25.5595 14.4542 25.8401C14.5954 24.7601 15.6265 23.5878 16.3788 22.8364C17.1764 21.9447 18.1622 21.1472 19.1942 20.538C18.0681 18.8949 17.6453 16.83 18.0681 14.9072C15.5342 13.9684 12.6237 14.9534 11.169 17.2057C9.62005 19.5041 10.0428 22.65 12.1077 24.5257C12.0616 24.4795 12.4834 24.9014 12.1077 24.5257ZM32.5696 16.3601C32.5696 17.862 32.1007 19.2697 31.2551 20.49C32.1468 21.0069 32.8982 21.6161 33.6487 22.3204C34.6825 21.1943 35.901 20.2084 37.2625 19.4589C33.8841 15.0004 35.8077 8.47705 41.0167 6.4592C40.0637 5.26823 38.7813 4.38401 37.3293 3.91671C35.8773 3.4494 34.3199 3.41966 32.8511 3.8312C30.2231 4.58166 28.1111 6.74074 27.501 9.41582C30.4105 10.4017 32.5687 13.1238 32.5687 16.362L32.5696 16.3601Z" fill="#F38B00"/>
<path d="M62.7928 20.1237C62.4171 15.9939 58.8513 12.7557 54.6734 12.7557C54.3919 12.7557 54.0642 12.7557 53.7817 12.8019C52.9371 7.82648 48.2894 4.26064 43.2679 4.68248C40.7802 1.58464 36.6494 0.0827902 32.754 0.928329C30.9703 1.30769 29.3151 2.14254 27.9498 3.35157C26.5845 4.5606 25.5556 6.10261 24.9633 7.82741C22.0067 7.92156 19.4248 9.51664 17.9239 11.8631C12.8562 10.7369 7.78666 14.444 7.36389 19.6077C6.89497 24.5351 10.9777 28.9474 15.9993 28.9474H55.1396C55.4211 28.9474 55.6934 28.9013 55.9371 28.8062C60.1611 28.1019 63.1648 24.2536 62.7891 20.1237H62.7928ZM55.7063 27.5859C58.9925 27.0689 55.519 27.632 55.7063 27.5859C55.5651 27.632 55.3777 27.68 55.2374 27.68H16.003C11.5907 27.68 8.11989 23.7385 8.63497 19.4203C9.18881 14.7745 14.1273 11.7708 18.5377 13.3649C19.8522 10.5957 22.8088 8.86033 25.9057 9.14094C26.312 7.4687 27.1706 5.94048 28.3875 4.72362C29.6043 3.50676 31.1326 2.64817 32.8048 2.24187C36.559 1.35017 40.5494 2.8991 42.7076 6.0431C47.8233 5.19848 52.6103 9.1871 52.6565 14.3508C56.4577 13.1785 60.5876 15.5711 61.4322 19.4665C62.1827 23.2206 59.5547 26.9757 55.7063 27.5859Z" fill="#003E52"/>
</svg>
