<svg width="80" height="27" viewBox="0 0 80 27" fill="none" xmlns="http://www.w3.org/2000/svg">
<g clip-path="url(#clip0_508_1499)">
<path d="M10.06 6.75977C4.5 6.75977 0 11.2598 0 16.8198C0 22.3798 4.5 26.8798 10.06 26.8798C15.62 26.8798 20.12 22.3798 20.12 16.8198C20.12 11.2598 15.62 6.75977 10.06 6.75977ZM10.06 21.8598C7.28 21.8598 5.02 19.5998 5.02 16.8198C5.02 14.0398 7.28 11.7798 10.06 11.7798C12.84 11.7798 15.1 14.0398 15.1 16.8198C15.1 19.5998 12.84 21.8598 10.06 21.8598Z" fill="#007DC1"/>
<path d="M27.7401 20.2C27.7401 19.4 28.7001 19.02 29.2601 19.58C31.7801 22.14 35.9401 26.54 35.9601 26.56C36.0201 26.62 36.0801 26.72 36.3201 26.8C36.4201 26.84 36.5801 26.84 36.7601 26.84H41.3001C42.1201 26.84 42.3601 25.9 41.9801 25.42L34.4601 17.72L34.0601 17.32C33.2001 16.3 33.3001 15.9 34.2801 14.86L40.2401 8.2C40.6201 7.72 40.3801 6.8 39.5401 6.8H35.4201C35.2601 6.8 35.1401 6.8 35.0201 6.84C34.7801 6.92 34.6801 7 34.6201 7.08C34.6001 7.1 31.3001 10.66 29.2601 12.84C28.7001 13.44 27.7001 13.04 27.7001 12.22V0.8C27.7001 0.22 27.2201 0 26.8401 0H23.4801C22.9001 0 22.6201 0.38 22.6201 0.72V26.04C22.6201 26.62 23.1001 26.78 23.5001 26.78H26.8601C27.3801 26.78 27.7201 26.4 27.7201 26.02V25.76V20.2H27.7401Z" fill="#007DC1"/>
<path d="M55.18 25.92L54.82 22.56C54.78 22.1 54.34 21.78 53.88 21.86C53.62 21.9 53.36 21.92 53.1 21.92C50.42 21.92 48.24 19.82 48.08 17.16C48.08 17.08 48.08 16.98 48.08 16.88V12.76C48.08 12.22 48.48 11.78 49.02 11.78H53.52C53.84 11.78 54.32 11.5 54.32 10.92V7.74C54.32 7.12 53.92 6.8 53.56 6.8H49.02C48.5 6.8 48.08 6.42 48.06 5.9V0.8C48.06 0.48 47.82 0 47.2 0H43.86C43.44 0 43.04 0.26 43.04 0.78C43.04 0.78 43.04 17.08 43.04 17.16C43.18 22.6 47.64 26.94 53.1 26.94C53.56 26.94 54 26.9 54.44 26.84C54.92 26.78 55.24 26.38 55.18 25.92Z" fill="#007DC1"/>
<path d="M79.42 21.7002C76.58 21.7002 76.14 20.6802 76.14 16.8602C76.14 16.8402 76.14 16.8402 76.14 16.8202V7.64023C76.14 7.32023 75.9 6.78023 75.26 6.78023H71.9C71.48 6.78023 71.02 7.12023 71.02 7.64023V8.06023C69.56 7.22023 67.86 6.74023 66.06 6.74023C60.5 6.74023 56 11.2402 56 16.8002C56 22.3602 60.5 26.8602 66.06 26.8602C68.56 26.8602 70.84 25.9402 72.6 24.4402C73.54 25.8802 75.06 26.8402 77.44 26.8602C77.84 26.8602 80 26.9402 80 25.9202V22.3402C80 22.0402 79.76 21.7002 79.42 21.7002ZM66.08 21.8602C63.3 21.8602 61.04 19.6002 61.04 16.8202C61.04 14.0402 63.3 11.7802 66.08 11.7802C68.86 11.7802 71.12 14.0402 71.12 16.8202C71.1 19.6002 68.84 21.8602 66.08 21.8602Z" fill="#007DC1"/>
</g>
<defs>
<clipPath id="clip0_508_1499">
<rect width="80" height="26.94" fill="white"/>
</clipPath>
</defs>
</svg>
