<svg width="123" height="23" viewBox="0 0 123 23" fill="none" xmlns="http://www.w3.org/2000/svg">
<path d="M3.26933 0.131379C4.32506 -0.26026 5.49997 0.250572 5.89161 1.30629C5.90864 1.34035 5.92567 1.3744 5.92567 1.42549C6.33434 2.56635 5.43186 3.9456 4.20586 4.01371C3.32042 4.11588 2.46903 3.62207 2.12847 2.78771C1.70278 1.78307 2.23064 0.488962 3.26933 0.131379ZM74.6157 1.13602L74.7349 1.03385C75.9269 0.999793 77.1188 1.03385 78.3278 1.01682C78.3789 4.11588 78.3278 7.1979 78.3448 10.297C78.3278 13.0555 78.3619 15.831 78.3278 18.6065C77.0848 18.5895 75.8417 18.6065 74.5987 18.5895C74.6157 12.766 74.5987 6.95952 74.6157 1.13602ZM118.513 1.03385C119.739 1.01682 120.948 1.03385 122.174 1.01682C122.225 1.23818 122.259 1.45954 122.259 1.6809C122.242 6.26137 122.242 10.8418 122.259 15.4053C122.225 16.461 122.328 17.5338 122.191 18.5895C120.965 18.5554 119.722 18.5895 118.496 18.5725C118.496 17.6019 118.496 16.6143 118.496 15.6437C118.496 15.4564 118.445 15.252 118.36 15.0818C117.968 16.1545 117.509 17.2783 116.606 18.0276C115.499 18.9982 113.831 19.2195 112.468 18.6406C111.532 18.266 110.834 17.4657 110.408 16.5632C109.761 15.201 109.591 13.6514 109.625 12.136C109.591 10.5694 109.795 8.95177 110.476 7.52143C110.919 6.60193 111.668 5.81865 112.639 5.46107C113.865 5.03538 115.329 5.15457 116.402 5.95487C117.338 6.63599 117.883 7.69171 118.224 8.76446C118.224 8.96879 118.564 8.8496 118.479 8.67932C118.513 6.14218 118.496 3.58802 118.513 1.03385ZM115.738 8.64527C114.989 8.66229 114.205 8.98582 113.814 9.66693C113.218 10.6886 113.235 11.9146 113.303 13.0555C113.405 13.9068 113.677 14.8604 114.461 15.3202C115.057 15.7118 115.806 15.6777 116.487 15.6096C117.628 15.3883 118.394 14.2985 118.462 13.1917C118.53 12.0168 118.616 10.7397 117.951 9.71801C117.492 8.96879 116.589 8.61121 115.738 8.64527ZM28.4705 6.46571C29.441 5.40999 30.9906 5.0524 32.3528 5.3589C33.2212 5.52918 33.9534 6.0911 34.3791 6.85735C34.7878 7.55549 34.8729 8.37282 34.9921 9.1561L35.2305 9.12204C35.6051 7.9301 36.167 6.68707 37.2227 5.95487C38.1082 5.32485 39.249 5.13754 40.3048 5.30782C41.2753 5.42702 42.1438 5.95487 42.6716 6.78924C43.1995 7.64062 43.4038 8.66229 43.3868 9.66693C43.3868 12.6468 43.3868 15.6096 43.3868 18.5895C42.1267 18.5895 40.8837 18.5895 39.6236 18.5895C39.6236 15.9502 39.6236 13.3109 39.6236 10.6716C39.6236 9.97343 39.3342 9.22421 38.6871 8.86663C37.6144 8.33877 36.15 8.71337 35.537 9.7691C35.2475 10.314 35.0943 10.927 35.1113 11.54C35.1113 13.8898 35.1113 16.2397 35.1113 18.5895C33.8683 18.5895 32.6252 18.5895 31.3822 18.5895C31.3822 15.9502 31.3822 13.3109 31.3822 10.6716C31.3822 9.9564 31.0587 9.17312 30.3776 8.83257C29.3218 8.37282 28.0958 8.69635 27.3807 9.59882C27.0401 10.0926 26.8528 10.6716 26.8528 11.2675C26.8528 13.7025 26.8528 16.1375 26.8528 18.5725C25.6098 18.5725 24.3668 18.5725 23.1237 18.5725C23.1237 14.2474 23.1237 9.92235 23.1237 5.59729C24.3327 5.59729 25.5417 5.59729 26.7677 5.59729C26.8017 6.7041 26.7506 7.8109 26.7847 8.91771L26.938 9.1561C27.3466 8.21957 27.7212 7.1979 28.4705 6.46571ZM51.9688 5.85271C53.7227 4.7459 56.362 5.22268 57.4177 7.06168C58.2691 8.44093 58.5075 10.0926 58.5245 11.6762C58.5585 13.3109 58.4734 15.0137 57.7582 16.5121C57.3496 17.4316 56.6344 18.266 55.6808 18.6576C54.4378 19.1855 53.0245 19.0492 51.9007 18.317C50.9982 17.687 50.4022 16.7164 50.0447 15.6948C49.9765 15.4904 49.8744 15.2861 49.7552 15.1158C49.7041 15.3372 49.67 15.5585 49.67 15.7799C49.67 18.0957 49.67 20.4115 49.67 22.7272H45.958C45.958 17.0229 45.941 11.3186 45.958 5.61432C47.184 5.61432 48.41 5.61432 49.636 5.61432C49.653 6.72113 49.6019 7.84496 49.67 8.95177C49.8403 8.88365 49.9595 8.74743 49.9765 8.57715C50.3171 7.48737 50.9812 6.48274 51.9347 5.85271H51.9688ZM52.1561 8.64527C50.9641 8.67932 49.9595 9.56476 49.7722 10.7397C49.5849 11.7443 49.6019 12.766 49.8233 13.7706C50.0617 14.6561 50.7598 15.4223 51.6623 15.6096C52.3434 15.6777 53.0926 15.7288 53.6886 15.3202C54.4889 14.8263 54.7443 13.8047 54.8465 12.9363C54.8976 11.8124 54.9316 10.5694 54.3016 9.58179C53.8248 8.88366 52.9564 8.62824 52.1561 8.64527ZM61.9982 6.78924C63.4966 5.46107 65.591 5.12052 67.5152 5.32485C68.9114 5.42702 70.3588 5.95488 71.2442 7.07871C71.9764 7.98118 72.3 9.12204 72.4873 10.2459C71.3294 10.5013 70.1715 10.7567 68.9966 10.8929C68.8093 10.0586 68.4176 9.13907 67.5833 8.76446C66.6808 8.4239 65.557 8.47499 64.7737 9.07096C64.0585 9.63288 63.7861 10.5694 63.718 11.4549C63.6669 12.4595 63.6839 13.5152 64.1777 14.4177C64.8758 15.848 67.0384 16.1715 68.1963 15.1158C68.7241 14.622 68.9114 13.9068 69.1158 13.2428C70.2396 13.5493 71.3805 13.7877 72.5043 14.0601C72.351 15.4393 71.7891 16.8356 70.6994 17.7381C69.4393 18.7768 67.7365 19.0492 66.17 18.9982C64.4502 18.93 62.6282 18.3852 61.4362 17.074C60.1421 15.6267 59.7845 13.5833 59.8867 11.7103C59.9889 9.8883 60.5849 7.99821 61.9982 6.78924ZM85.4454 5.40999C87.063 5.15457 88.7829 5.22268 90.2813 5.92082C91.7116 6.58491 92.8014 7.8109 93.2952 9.30935C93.755 10.5524 93.755 11.8976 93.6698 13.1917C93.5166 14.7923 92.8695 16.3929 91.6435 17.4486C90.1281 18.7938 87.9655 19.1514 86.0244 18.93C84.3727 18.7427 82.7039 18.0105 81.7163 16.6313C80.7117 15.3372 80.4052 13.6685 80.3711 12.0678C80.4222 10.8248 80.5925 9.56477 81.1885 8.45796C81.9888 6.80627 83.6745 5.73352 85.4454 5.40999ZM86.5352 8.44093C85.6668 8.52607 84.9175 9.05393 84.5429 9.83721C84.0151 11.0292 84.0321 12.3914 84.2875 13.6344C84.4919 14.605 85.207 15.4904 86.2117 15.6777C87.063 15.7969 88.0336 15.831 88.7658 15.3031C89.5321 14.7753 89.8386 13.8217 89.9578 12.9192C90.0429 11.7613 90.0429 10.5183 89.4129 9.51368C88.7999 8.59418 87.5739 8.28768 86.5352 8.44093ZM8.53092 5.61432C9.77395 5.61432 11.017 5.61432 12.277 5.61432C12.277 8.21957 12.277 10.8078 12.277 13.413C12.277 14.0601 12.4473 14.7582 12.9581 15.1669C13.6222 15.7118 14.6098 15.6777 15.3591 15.3372C16.2445 14.9455 16.7553 13.975 16.7553 13.0384C16.7724 10.5694 16.7553 8.08335 16.7553 5.61432C18.0154 5.61432 19.2754 5.61432 20.5185 5.61432C20.5185 9.93937 20.5355 14.2815 20.5185 18.6065C19.3095 18.5895 18.0835 18.5895 16.8745 18.6065C16.8405 17.4486 16.8916 16.2907 16.8405 15.1328C16.6532 15.1839 16.534 15.3372 16.4999 15.5245C16.1423 16.6653 15.4612 17.7381 14.4225 18.3852C13.1454 19.1684 11.3916 19.2195 10.1315 18.3852C8.97364 17.6019 8.582 16.1205 8.53092 14.8093C8.54795 11.7273 8.54795 8.67932 8.53092 5.61432ZM103.921 5.61432C105.164 5.61432 106.424 5.59729 107.667 5.61432V18.5725C106.441 18.5725 105.198 18.5895 103.972 18.5725C103.972 17.4146 103.989 16.2737 103.955 15.1158C103.682 15.1839 103.631 15.4734 103.546 15.7118C103.171 16.7675 102.507 17.7551 101.554 18.3681C100.362 19.1003 98.8803 19.1684 97.6032 18.5725C96.7519 18.1468 96.1729 17.2954 95.9005 16.3929C95.628 15.5585 95.6621 14.6561 95.6451 13.7877C95.6621 11.0632 95.628 8.32174 95.6621 5.59729C96.9051 5.61432 98.1481 5.58026 99.4082 5.61432C99.4082 8.25362 99.4082 10.8929 99.4082 13.5322C99.3741 14.2644 99.7147 15.0477 100.396 15.3712C101.503 15.8991 103.001 15.4223 103.546 14.3155C103.801 13.8047 103.921 13.2257 103.904 12.6468C103.904 10.314 103.904 7.96415 103.921 5.61432ZM2.1455 17.67C2.16253 13.6514 2.12847 9.6499 2.16253 5.63135C3.40556 5.64838 4.64858 5.63135 5.90864 5.64838C5.90864 9.78613 5.90864 13.9068 5.90864 18.0446C5.84053 19.4068 5.61917 20.9053 4.56345 21.8758C4.01856 22.4378 3.25231 22.7443 2.48606 22.8805C1.66872 23.0508 0.817334 23.0337 0 22.8635C0.0170278 21.8077 0.0681114 20.735 0.15325 19.6793C0.698139 19.6963 1.34519 19.8836 1.78792 19.4749C2.23064 18.9811 2.12847 18.266 2.1455 17.67Z" fill="#535B64"/>
</svg>
