<svg width="130" height="33" viewBox="0 0 130 33" fill="none" xmlns="http://www.w3.org/2000/svg">
<g clip-path="url(#clip0_4164_1491)">
<path fill-rule="evenodd" clip-rule="evenodd" d="M4.50503 7.53V9.53672C5.31773 8.72204 6.19822 8.10335 7.1473 7.69601C8.09478 7.28948 9.11086 7.08298 10.1891 7.08298C12.5323 7.08298 14.5246 7.98268 16.1675 9.77642C17.8105 11.5766 18.6288 13.8806 18.6288 16.6955C18.6288 19.4068 17.7818 21.6767 16.083 23.4988C14.3898 25.3273 12.38 26.2392 10.0544 26.2392C9.02073 26.2392 8.0557 26.0497 7.16325 25.6772C6.27159 25.3046 5.38552 24.6916 4.50503 23.8373V32.4642H0.000488281V7.53H4.50503ZM9.23527 11.2786C7.81803 11.2786 6.63846 11.7718 5.70693 12.7517C4.77061 13.738 4.30165 15.0216 4.30165 16.6088C4.30165 18.2317 4.77061 19.5436 5.70693 20.5413C6.63846 21.5447 7.81803 22.0427 9.23527 22.0427C10.6126 22.0427 11.7699 21.5333 12.7134 20.5186C13.6553 19.4983 14.1242 18.2026 14.1242 16.6267C14.1242 15.0613 13.6609 13.7777 12.7357 12.78C11.8153 11.7775 10.6469 11.2786 9.23527 11.2786Z" fill="white"/>
<path fill-rule="evenodd" clip-rule="evenodd" d="M21.1814 0.479736H25.6859V9.39824C26.5664 8.62487 27.4477 8.04585 28.3394 7.66199C29.2254 7.27814 30.1291 7.08298 31.0375 7.08298C32.816 7.08298 34.3178 7.70734 35.5372 8.96337C36.5812 10.0461 37.1004 11.6398 37.1004 13.738V25.7922H32.6637V17.796C32.6637 15.6865 32.568 14.2531 32.3702 13.5081C32.1724 12.7574 31.8334 12.2018 31.3541 11.8285C30.8796 11.4625 30.287 11.2786 29.5875 11.2786C28.6783 11.2786 27.8935 11.588 27.2388 12.2018C26.5896 12.8149 26.1381 13.6514 25.8837 14.7123C25.7537 15.2621 25.6859 16.5117 25.6859 18.4666V25.7922H21.1814V0.479736Z" fill="white"/>
<path fill-rule="evenodd" clip-rule="evenodd" d="M53.5744 7.53H58.079V25.7922H53.5744V23.8486C52.6939 24.6973 51.8071 25.3046 50.921 25.6772C50.0349 26.0497 49.0699 26.2392 48.0363 26.2392C45.705 26.2392 43.6952 25.3273 41.9964 23.4988C40.2969 21.6767 39.4507 19.4068 39.4507 16.6955C39.4507 13.8806 40.2745 11.5766 41.9167 9.77642C43.5596 7.98268 45.5527 7.08298 47.9007 7.08298C48.9845 7.08298 49.995 7.28948 50.9433 7.69601C51.8924 8.10335 52.7673 8.72204 53.5744 9.53672V7.53ZM48.8266 11.2786C47.4269 11.2786 46.2633 11.7775 45.3438 12.78C44.4178 13.7777 43.9544 15.0613 43.9544 16.6267C43.9544 18.2026 44.4234 19.4983 45.3661 20.5186C46.3096 21.5333 47.466 22.0427 48.8434 22.0427C50.2606 22.0427 51.4402 21.5447 52.3717 20.5413C53.3088 19.5436 53.7778 18.2317 53.7778 16.6088C53.7778 15.0216 53.3088 13.738 52.3717 12.7517C51.4402 11.7718 50.255 11.2786 48.8266 11.2786Z" fill="white"/>
<path fill-rule="evenodd" clip-rule="evenodd" d="M72.4186 10.1152L69.6296 12.9642C68.501 11.8175 67.473 11.2441 66.5479 11.2441C66.0454 11.2441 65.6498 11.3526 65.3619 11.5713C65.074 11.7883 64.9328 12.058 64.9328 12.3787C64.9328 12.6257 65.0237 12.8492 65.204 13.0557C65.385 13.2622 65.8364 13.5424 66.5534 13.9036L68.202 14.7401C69.9406 15.6066 71.1369 16.4942 71.7861 17.3947C72.4353 18.3001 72.7568 19.3553 72.7568 20.57C72.7568 22.1864 72.1698 23.5396 70.9958 24.6166C69.8218 25.7002 68.2466 26.2395 66.2711 26.2395C63.652 26.2395 61.552 25.2013 59.988 23.1209L62.7707 20.0485C63.3018 20.6736 63.9223 21.183 64.6401 21.5677C65.3507 21.9515 65.9832 22.1459 66.5367 22.1459C67.1293 22.1459 67.615 22.0033 67.9763 21.7102C68.3431 21.4187 68.5234 21.0858 68.5234 20.7076C68.5234 20.0023 67.8686 19.3148 66.5534 18.6499L65.0349 17.8757C62.1215 16.3913 60.6652 14.5344 60.6652 12.305C60.6652 10.8659 61.2131 9.63341 62.3081 8.61304C63.4031 7.59267 64.8036 7.08249 66.508 7.08249C67.6764 7.08249 68.7714 7.34649 69.805 7.86801C70.8323 8.38953 71.7016 9.14023 72.4186 10.1152Z" fill="white"/>
<path fill-rule="evenodd" clip-rule="evenodd" d="M93.1031 17.9505H78.6237C78.8318 19.2518 79.3909 20.2892 80.2945 21.0634C81.1973 21.8311 82.3546 22.215 83.7551 22.215C85.4371 22.215 86.8767 21.6133 88.085 20.4099L91.8669 22.2263C90.9242 23.5908 89.7893 24.5991 88.4742 25.2591C87.1534 25.9126 85.5894 26.2389 83.7774 26.2389C80.9661 26.2389 78.6747 25.3392 76.9073 23.5333C75.1408 21.7331 74.2539 19.4753 74.2539 16.7641C74.2539 13.984 75.1408 11.6744 76.9073 9.84016C78.6747 8.00026 80.8871 7.08273 83.5573 7.08273C86.3854 7.08273 88.6887 8.00025 90.4608 9.82882C92.2338 11.6622 93.1199 14.0755 93.1199 17.0856L93.1031 17.9505ZM88.6153 14.3735C88.3162 13.3766 87.7292 12.5628 86.8543 11.9376C85.9738 11.3132 84.957 11.0031 83.7942 11.0031C82.5356 11.0031 81.435 11.3529 80.4803 12.0582C79.8878 12.4939 79.3343 13.2673 78.827 14.3735H88.6153Z" fill="white"/>
<mask id="mask0_4164_1491" style="mask-type:luminance" maskUnits="userSpaceOnUse" x="89" y="0" width="28" height="33">
<path d="M89.771 0.369995H116.951V32.2392H89.771V0.369995Z" fill="white"/>
</mask>
<g mask="url(#mask0_4164_1491)">
<path fill-rule="evenodd" clip-rule="evenodd" d="M109.472 0.369751H116.951L99.5361 30.7719C99.0744 31.5792 98.0455 32.2392 97.2512 32.2392H89.771L107.186 1.83714C107.649 1.02975 108.677 0.369751 109.472 0.369751Z" fill="#3FA1E3"/>
</g>
<mask id="mask1_4164_1491" style="mask-type:luminance" maskUnits="userSpaceOnUse" x="102" y="0" width="28" height="33">
<path d="M102.606 0.369995H129.786V32.2392H102.606V0.369995Z" fill="white"/>
</mask>
<g mask="url(#mask1_4164_1491)">
<path fill-rule="evenodd" clip-rule="evenodd" d="M122.307 0.369751H129.787L112.372 30.7719C111.909 31.5792 110.881 32.2392 110.086 32.2392H102.606L120.021 1.83714C120.484 1.02975 121.512 0.369751 122.307 0.369751Z" fill="#3FA1E3"/>
</g>
</g>
<defs>
<clipPath id="clip0_4164_1491">
<rect width="130" height="33" fill="white"/>
</clipPath>
</defs>
</svg>
