<svg width="80" height="35" viewBox="0 0 80 35" fill="none" xmlns="http://www.w3.org/2000/svg">
<g clip-path="url(#clip0_508_1549)">
<path d="M19.5702 8.20426V6.31461H25.8946C25.9648 6.69678 25.999 7.0847 25.9966 7.47327C25.9966 8.88998 25.609 10.6445 24.3598 11.8927C23.1454 13.1579 21.594 13.8328 19.5364 13.8328C15.7255 13.8328 12.5215 10.7288 12.5215 6.9164C12.5215 3.10402 15.7255 0 19.5371 0C21.6458 0 23.1461 0.826764 24.2762 1.90636L22.9438 3.2388C22.1334 2.47994 21.0381 1.8893 19.5371 1.8893C16.7546 1.8893 14.579 4.13278 14.579 6.9164C14.579 9.70003 16.7546 11.9452 19.5371 11.9452C21.3418 11.9452 22.3706 11.2198 23.0281 10.562C23.564 10.026 23.9172 9.25704 24.054 8.206L19.5702 8.20426Z" fill="#4285F4"/>
<path d="M35.633 9.3793C35.633 11.9453 33.6256 13.8328 31.1642 13.8328C28.7027 13.8328 26.6953 11.9453 26.6953 9.3793C26.6953 6.79836 28.7023 4.92578 31.1649 4.92578C33.6274 4.92578 35.6337 6.79836 35.6337 9.3793M33.6775 9.3793C33.6775 7.77732 32.514 6.6803 31.1649 6.6803C29.8157 6.6803 28.6518 7.77662 28.6518 9.3793C28.6518 10.9649 29.8154 12.0783 31.1649 12.0783C32.5144 12.0783 33.6775 10.9639 33.6775 9.3793Z" fill="#EA4335"/>
<path d="M45.3824 9.3793C45.3824 11.9453 43.3768 13.8328 40.9135 13.8328C38.4503 13.8328 36.4443 11.9453 36.4443 9.3793C36.4443 6.79836 38.451 4.92578 40.9135 4.92578C43.3761 4.92578 45.3824 6.79836 45.3824 9.3793ZM43.4262 9.3793C43.4262 7.77732 42.2627 6.6803 40.9135 6.6803C39.5644 6.6803 38.4005 7.77662 38.4005 9.3793C38.4005 10.9649 39.564 12.0783 40.9135 12.0783C42.263 12.0783 43.4262 10.9639 43.4262 9.3793Z" fill="#FBBC04"/>
<path d="M54.728 5.19568V13.1917C54.728 16.4813 52.7885 17.8308 50.4949 17.8308C48.3357 17.8308 47.0374 16.38 46.5484 15.1994L48.2528 14.4907C48.5562 15.2161 49.2976 16.0763 50.496 16.0763C51.9632 16.0763 52.8739 15.1653 52.8739 13.4616V12.8208H52.8063C52.3678 13.3606 51.5247 13.8328 50.4622 13.8328C48.2358 13.8328 46.1953 11.8927 46.1953 9.39637C46.1953 6.88264 48.2358 4.92578 50.4622 4.92578C51.5247 4.92578 52.3678 5.39802 52.8063 5.9211H52.8739V5.19568H54.728ZM53.0076 9.39637C53.0076 7.82747 51.9628 6.67996 50.6297 6.67996C49.2805 6.67996 48.1504 7.82712 48.1504 9.39637C48.1504 10.9482 49.2805 12.078 50.6297 12.078C51.9621 12.078 53.0076 10.9479 53.0076 9.39637Z" fill="#4285F4"/>
<path d="M58.0411 0.516602H56.085V13.5634H58.0411V0.516602Z" fill="#34A853"/>
<path d="M65.5957 10.8469L67.1134 11.8589C66.6258 12.5843 65.4439 13.8328 63.4031 13.8328C60.8733 13.8328 58.9844 11.876 58.9844 9.3793C58.9844 6.73254 60.8904 4.92578 63.1837 4.92578C65.4944 4.92578 66.6241 6.76458 66.9953 7.7599L67.1977 8.26592L61.2425 10.7288C61.698 11.6228 62.4064 12.0783 63.4017 12.0783C64.397 12.0783 65.0883 11.5907 65.5957 10.8469ZM60.9238 9.24488L64.9041 7.59204C64.6847 7.03483 64.0272 6.64757 63.2512 6.64757C62.2563 6.64757 60.8733 7.52483 60.9238 9.24557" fill="#EA4335"/>
<path d="M13.5493 18.0869H15.1875L11.9282 30.3052H10.3241L7.69615 22.2507H7.62789L4.99994 30.3052H3.39586L0 18.0869H1.6382L4.21496 27.6943H4.28322L6.92824 19.7251H8.3958L11.0408 27.6943H11.1091L13.5493 18.0869Z" fill="#5F6368"/>
<path d="M15.0391 26.1248C15.0391 24.8395 15.4429 23.7758 16.2507 22.9337C17.0698 22.0918 18.0993 21.6709 19.3394 21.6709C20.5794 21.6709 21.6033 22.0918 22.411 22.9337C23.2301 23.7758 23.6396 24.8395 23.6396 26.1248C23.6396 27.4217 23.2301 28.4854 22.411 29.3159C21.603 30.1579 20.5791 30.5789 19.3394 30.5786C18.0996 30.5784 17.07 30.1571 16.2507 29.3148C15.4427 28.4732 15.0388 27.4095 15.0391 26.1237M16.609 26.1237C16.609 27.0227 16.8707 27.7508 17.394 28.308C17.9173 28.8652 18.5658 29.1438 19.3394 29.1438C20.1129 29.1438 20.7614 28.8652 21.2847 28.308C21.808 27.7508 22.0697 27.0227 22.0697 26.1237C22.0697 25.2364 21.808 24.514 21.2847 23.9565C20.7507 23.3879 20.1023 23.1035 19.3394 23.1033C18.5764 23.1031 17.9277 23.3878 17.3933 23.9576C16.8697 24.5148 16.6081 25.2372 16.6083 26.1248" fill="#5F6368"/>
<path d="M26.3238 30.3057H24.7539V21.944H26.2556V23.3092H26.3252C26.4845 22.8655 26.8116 22.4871 27.3066 22.1742C27.8016 21.8612 28.2879 21.7048 28.7655 21.7051C29.2203 21.7051 29.6071 21.7733 29.9259 21.9099L29.4467 23.4293C29.2531 23.3499 28.9459 23.3101 28.5252 23.3099C27.9336 23.3099 27.4189 23.5488 26.981 24.0266C26.5431 24.5044 26.3241 25.0616 26.3238 25.6982V30.3057Z" fill="#5F6368"/>
<path d="M38.0062 30.3052H36.1121L33.5012 26.3633L32.2213 27.626V30.3052H30.6514V18.0869H32.2213V25.6124L35.839 21.9435H37.8526V22.0118L34.5933 25.2541L38.0062 30.2369V30.3052Z" fill="#5F6368"/>
<path d="M44.7988 27.9849C44.7988 28.7132 44.4803 29.3275 43.8432 29.8279C43.2061 30.3282 42.4041 30.5785 41.4371 30.5787C40.5952 30.5787 39.8558 30.3597 39.2187 29.9215C38.5947 29.5002 38.1175 28.8948 37.8535 28.1897L39.2528 27.5924C39.4576 28.0932 39.7563 28.4828 40.1489 28.7612C40.523 29.034 40.9744 29.1804 41.4374 29.1791C41.9382 29.1791 42.3561 29.071 42.6912 28.8548C43.0262 28.6387 43.1939 28.3827 43.1944 28.0869C43.1944 27.5529 42.7849 27.1604 41.9657 26.9095L40.5323 26.5511C38.9059 26.1416 38.0927 25.3563 38.0924 24.1955C38.0924 23.4335 38.4025 22.822 39.0226 22.3609C39.6428 21.8998 40.4362 21.6695 41.403 21.6699C42.1427 21.6699 42.8111 21.8463 43.4082 22.1989C44.0054 22.5516 44.4233 23.0237 44.662 23.6153L43.263 24.1955C43.1026 23.8415 42.8297 23.5505 42.4867 23.3677C42.1181 23.1662 41.7036 23.0634 41.2835 23.0692C40.8947 23.0634 40.5126 23.1701 40.183 23.3764C39.858 23.5812 39.6954 23.8314 39.6954 24.1272C39.6954 24.605 40.1448 24.9463 41.0436 25.1511L42.3063 25.4753C43.9673 25.8849 44.7978 26.7207 44.7978 27.9828" fill="#5F6368"/>
<path d="M50.2508 30.5786C49.6365 30.5786 49.0762 30.4478 48.5701 30.1862C48.064 29.9245 47.6743 29.5775 47.401 29.1452H47.3313L47.401 30.3056V33.9916H45.8311V21.9439H47.3327V23.1043H47.4024C47.6754 22.6723 48.0651 22.3253 48.5715 22.0634C49.0779 21.8015 49.6381 21.6707 50.2522 21.6709C51.3555 21.6709 52.2883 22.1032 53.0508 22.9678C53.8358 23.844 54.2282 24.8963 54.2282 26.1248C54.2282 27.365 53.8358 28.4174 53.0508 29.2817C52.2886 30.1463 51.3557 30.5786 50.2522 30.5786M49.9962 29.1452C50.7471 29.1452 51.3785 28.8608 51.8904 28.292C52.4012 27.7348 52.6566 27.0124 52.6566 26.1248C52.6566 25.249 52.4012 24.5266 51.8904 23.9576C51.3796 23.3885 50.7482 23.1041 49.9962 23.1043C49.234 23.1043 48.5969 23.3887 48.085 23.9576C47.5842 24.5266 47.3339 25.249 47.3341 26.1248C47.3341 27.0121 47.5844 27.7402 48.085 28.309C48.5958 28.8663 49.2328 29.1449 49.9962 29.1449" fill="#5F6368"/>
<path d="M58.5272 21.6712C59.6881 21.6712 60.6039 21.9812 61.2747 22.6011C61.9454 23.221 62.281 24.0714 62.2815 25.1524V30.3067H60.7798V29.1456H60.7101C60.0617 30.1012 59.1971 30.579 58.1163 30.579C57.1948 30.579 56.424 30.306 55.8039 29.7599C55.1837 29.2138 54.8738 28.5312 54.874 27.7121C54.874 26.8478 55.201 26.1595 55.8551 25.6473C56.5091 25.1351 57.3823 24.8792 58.4747 24.8794C59.4073 24.8794 60.1752 25.05 60.7784 25.3913V25.0316C60.7784 24.4855 60.5622 24.0219 60.1299 23.6406C59.7137 23.2657 59.1713 23.0616 58.6112 23.0692C57.735 23.0692 57.041 23.4389 56.5293 24.1784L55.1471 23.3077C55.909 22.2165 57.0351 21.6709 58.5252 21.6709M56.4966 27.748C56.4966 28.1576 56.67 28.4988 57.0169 28.7719C57.3637 29.0449 57.77 29.1814 58.2358 29.1814C58.8954 29.1814 59.484 28.9368 60.0018 28.4476C60.5195 27.9585 60.7784 27.384 60.7784 26.7241C60.289 26.3376 59.6064 26.1442 58.7306 26.1439C58.0933 26.1439 57.5614 26.2975 57.1349 26.6047C56.7084 26.9118 56.4956 27.2929 56.4966 27.748Z" fill="#5F6368"/>
<path d="M67.604 30.5786C66.3637 30.5786 65.3342 30.1577 64.5153 29.3159C63.7073 28.4515 63.3035 27.3878 63.3037 26.1248C63.3037 24.8395 63.7076 23.7758 64.5153 22.9337C65.3344 22.0918 66.364 21.6709 67.604 21.6709C68.4572 21.6709 69.2024 21.8841 69.8395 22.3106C70.4765 22.7371 70.9544 23.3259 71.2729 24.077L69.8409 24.6743C69.3972 23.6276 68.6179 23.1043 67.503 23.1043C66.7863 23.1043 66.1663 23.3945 65.643 23.975C65.131 24.5554 64.875 25.2721 64.875 26.1251C64.875 26.9781 65.131 27.6948 65.643 28.2753C66.166 28.8557 66.7861 29.1459 67.503 29.1459C68.652 29.1459 69.4597 28.6226 69.9262 27.576L71.3255 28.1732C71.0183 28.9241 70.5376 29.5127 69.8833 29.9392C69.2291 30.3657 68.4698 30.5791 67.6054 30.5793" fill="#5F6368"/>
<path d="M76.0523 30.5786C74.8237 30.5786 73.8112 30.1577 73.0148 29.3159C72.2185 28.474 71.8203 27.4103 71.8203 26.1248C71.8203 24.8508 72.2071 23.7899 72.9807 22.942C73.7543 22.0941 74.744 21.6704 75.9499 21.6709C77.1897 21.6709 78.1765 22.0719 78.9101 22.8738C79.6438 23.6757 80.0104 24.7992 80.0099 26.2442L79.9929 26.4149H73.4244C73.4476 27.234 73.7206 27.8938 74.2435 28.3944C74.7663 28.8949 75.392 29.1452 76.1206 29.1452C77.1215 29.1452 77.9065 28.6446 78.4755 27.6435L79.8748 28.3261C79.5179 29.012 78.9772 29.5851 78.3132 29.9814C77.6476 30.3793 76.894 30.5784 76.0523 30.5786ZM73.5449 25.118H78.3383C78.2919 24.5375 78.0557 24.0568 77.6299 23.6758C77.2041 23.2948 76.6325 23.1043 75.9151 23.1043C75.3233 23.1043 74.8142 23.2864 74.3877 23.6504C73.9612 24.0144 73.6797 24.5036 73.5431 25.118" fill="#5F6368"/>
</g>
<defs>
<clipPath id="clip0_508_1549">
<rect width="80" height="34.087" fill="white"/>
</clipPath>
</defs>
</svg>
