<svg width="404" height="180" viewBox="0 0 404 180" fill="none" xmlns="http://www.w3.org/2000/svg">
<g clip-path="url(#clip0_4950_2438)">
<mask id="path-1-inside-1_4950_2438" fill="white">
<path d="M369.806 331.412C362.824 347.97 353.44 363.404 341.957 377.217C341.147 372.376 343.383 366.768 340.051 362.25C336.435 355.189 333.086 347.985 329.318 341.008C327.917 338.413 328.303 336.922 330.368 335.054C352.48 315.62 332.768 325.953 334.94 298.176C335.018 297.425 334.869 296.668 334.513 296.003C334.157 295.338 333.61 294.795 332.943 294.445C322.461 287.741 308.777 285.439 297.945 292.889C284.444 299.28 265.188 294.391 260.821 278.87C256.958 268.553 257.432 258.134 257.331 247.598C257.954 241.916 265.735 240.962 264.473 234.395C264.773 226.056 262.059 217.253 269.932 211.81C270.536 211.276 271.254 210.891 272.032 210.685C272.81 210.479 273.625 210.457 274.412 210.621C281.606 211.493 288.876 209.794 294.943 205.825C301.377 201.74 309.321 204.385 316.448 203.454C319.845 203.212 322.362 204.211 324.453 206.86C328.565 212.061 334.997 213.588 340.401 216.746C342.219 217.809 343.195 216.469 344.048 215.368C348.587 209.501 355.545 207.53 361.645 204.157C364.968 202.25 371.63 209.53 377.301 209.789C388.602 249.412 385.979 293.521 369.806 331.412ZM367.15 182.493C360.377 183.385 364.932 176.941 361.436 173.569C357.926 170.432 354.588 167.107 351.435 163.61C349.803 161.863 348.747 161.583 346.86 163.448C341.791 168.472 342.076 167.939 347.987 173.941C354.888 181.54 360.09 181.413 347.603 186.694C344.761 187.976 342.078 190.896 338.976 186.676C337.099 184.123 334.544 182.407 334.847 178.474C335.314 172.409 330.694 168.012 328.557 162.775C327.918 161.213 326.79 162.314 326.189 163.083C321.692 168.874 314.899 171.113 308.745 174.33C298.117 183.638 300.543 182.624 286.439 182.22C285.133 182.276 284.749 180.699 284.182 179.777C277.08 168.132 278.458 165.293 285.815 154.299C288.522 152.673 300.48 154.55 302.74 156.915C303.756 157.976 304.59 159.213 306.056 161.064C307.183 156.556 306.613 153.102 306.729 149.699C308.636 135.738 320.348 142.03 328.663 138.997C332.592 135.988 334.205 134.49 333.372 133.014C347.272 147.534 358.684 164.251 367.15 182.493ZM332.235 131.846C326.56 128.145 313.952 124.243 313.616 115.097C320.199 120.245 326.42 125.841 332.235 131.846ZM71.2247 130.076C81.8039 119.464 93.6404 110.189 106.47 102.459C110.833 104.69 113.946 112.897 119.419 109.981C125.256 106.913 131.477 104.48 135.667 98.9938C138.041 96.1051 142.195 98.316 145.296 97.4398C157.486 95.7866 160.782 109.689 165.341 117.96C164.939 118.299 164.727 118.625 164.552 118.605C153.975 117.409 144.276 120.811 134.69 124.508C131.541 125.723 129.114 125.826 127.145 122.789C124.71 119.033 121.582 118.925 117.698 120.545C114.1 123.092 101.175 123.532 102.069 128.644C102.946 133.447 99.16 141.633 107.766 139.996C111.799 138.591 115.266 150.528 117.731 143.665C123.019 122.202 145.315 140.932 162.507 127.218C168.831 123.459 174.033 135.84 176.491 140.201C178.359 144.293 179.71 149.11 186.277 147.683C182.159 151.81 178.012 155.908 173.94 160.079C172.759 161.29 171.685 160.902 170.359 160.44C165.239 158.66 160.05 157.078 154.948 155.248C152.514 154.374 151.346 154.289 151.402 157.555C155.568 180.019 136.463 158.354 123.195 175.2C106.64 191.866 119.452 205.852 96.6985 223.372C95.3383 224.623 94.2085 224.774 92.8637 223.785C82.9793 216.756 60.7711 212.938 53.3873 224.426C53.2814 224.772 53.2555 225.138 53.3117 225.496C53.3678 225.853 53.5045 226.193 53.7114 226.49C57.666 232.839 57.9762 243.521 65.4844 232.871C67.7194 230.963 70.3445 231.605 72.6332 231.986C75.041 232.387 73.8452 234.941 73.7852 236.426C74.1255 242.35 82.6321 243.405 80.9586 250.074C80.0039 254.898 86.0706 252.231 88.7364 253.041C93.0458 253.663 96.3152 252.219 99.0778 248.848C101.173 246.292 113.199 244.555 115.969 246.199C118.165 248.416 119.087 251.878 120.662 254.585C123.281 259.847 123.393 259.953 127.247 255.794C136.103 248.831 148.55 254.34 156.976 259.175C163.596 262.889 161.409 276.149 171.27 274.243C173.164 273.796 174.188 275.412 175.227 276.583C182.389 285.36 193.954 284.31 198.191 296.346C200.92 301.365 200.628 305.765 198.309 310.732C196.661 320.06 192.081 326.934 182.411 329.546C174.743 332.305 187.679 344.837 170.128 349.834C165.626 350.816 165.043 354.269 165.626 358.318C167.488 368.749 164.96 376.62 153.507 379.368C150.12 380.489 150.724 385 149.116 387.571C141.215 401.995 148.397 412.518 158.46 422.62C149.628 423.142 140.056 424.042 137.003 414.518C133.189 403.422 129.737 392.23 124.082 381.857C122.182 378.374 123.405 374.327 123.356 370.549C121.977 355.091 106.219 343.522 109.179 327.052C110.326 318.803 98.5801 330.583 86.4185 315.57C82.3648 310.754 72.9327 299.113 74.5617 293.079C77.8911 284.766 78.2421 274.739 85.9285 268.969C89.2026 266.42 89.5006 258.47 83.394 260.011C67.7079 262.64 71.0595 250.834 61.8724 253.075C55.6514 253.739 51.1608 251.696 46.3261 247.336C31.8212 233.974 27.6631 243.875 19.3523 233.968C24.9295 194.616 43.1366 158.151 71.2247 130.076Z"/>
</mask>
<path d="M369.806 331.412C362.824 347.97 353.44 363.404 341.957 377.217C341.147 372.376 343.383 366.768 340.051 362.25C336.435 355.189 333.086 347.985 329.318 341.008C327.917 338.413 328.303 336.922 330.368 335.054C352.48 315.62 332.768 325.953 334.94 298.176C335.018 297.425 334.869 296.668 334.513 296.003C334.157 295.338 333.61 294.795 332.943 294.445C322.461 287.741 308.777 285.439 297.945 292.889C284.444 299.28 265.188 294.391 260.821 278.87C256.958 268.553 257.432 258.134 257.331 247.598C257.954 241.916 265.735 240.962 264.473 234.395C264.773 226.056 262.059 217.253 269.932 211.81C270.536 211.276 271.254 210.891 272.032 210.685C272.81 210.479 273.625 210.457 274.412 210.621C281.606 211.493 288.876 209.794 294.943 205.825C301.377 201.74 309.321 204.385 316.448 203.454C319.845 203.212 322.362 204.211 324.453 206.86C328.565 212.061 334.997 213.588 340.401 216.746C342.219 217.809 343.195 216.469 344.048 215.368C348.587 209.501 355.545 207.53 361.645 204.157C364.968 202.25 371.63 209.53 377.301 209.789C388.602 249.412 385.979 293.521 369.806 331.412ZM367.15 182.493C360.377 183.385 364.932 176.941 361.436 173.569C357.926 170.432 354.588 167.107 351.435 163.61C349.803 161.863 348.747 161.583 346.86 163.448C341.791 168.472 342.076 167.939 347.987 173.941C354.888 181.54 360.09 181.413 347.603 186.694C344.761 187.976 342.078 190.896 338.976 186.676C337.099 184.123 334.544 182.407 334.847 178.474C335.314 172.409 330.694 168.012 328.557 162.775C327.918 161.213 326.79 162.314 326.189 163.083C321.692 168.874 314.899 171.113 308.745 174.33C298.117 183.638 300.543 182.624 286.439 182.22C285.133 182.276 284.749 180.699 284.182 179.777C277.08 168.132 278.458 165.293 285.815 154.299C288.522 152.673 300.48 154.55 302.74 156.915C303.756 157.976 304.59 159.213 306.056 161.064C307.183 156.556 306.613 153.102 306.729 149.699C308.636 135.738 320.348 142.03 328.663 138.997C332.592 135.988 334.205 134.49 333.372 133.014C347.272 147.534 358.684 164.251 367.15 182.493ZM332.235 131.846C326.56 128.145 313.952 124.243 313.616 115.097C320.199 120.245 326.42 125.841 332.235 131.846ZM71.2247 130.076C81.8039 119.464 93.6404 110.189 106.47 102.459C110.833 104.69 113.946 112.897 119.419 109.981C125.256 106.913 131.477 104.48 135.667 98.9938C138.041 96.1051 142.195 98.316 145.296 97.4398C157.486 95.7866 160.782 109.689 165.341 117.96C164.939 118.299 164.727 118.625 164.552 118.605C153.975 117.409 144.276 120.811 134.69 124.508C131.541 125.723 129.114 125.826 127.145 122.789C124.71 119.033 121.582 118.925 117.698 120.545C114.1 123.092 101.175 123.532 102.069 128.644C102.946 133.447 99.16 141.633 107.766 139.996C111.799 138.591 115.266 150.528 117.731 143.665C123.019 122.202 145.315 140.932 162.507 127.218C168.831 123.459 174.033 135.84 176.491 140.201C178.359 144.293 179.71 149.11 186.277 147.683C182.159 151.81 178.012 155.908 173.94 160.079C172.759 161.29 171.685 160.902 170.359 160.44C165.239 158.66 160.05 157.078 154.948 155.248C152.514 154.374 151.346 154.289 151.402 157.555C155.568 180.019 136.463 158.354 123.195 175.2C106.64 191.866 119.452 205.852 96.6985 223.372C95.3383 224.623 94.2085 224.774 92.8637 223.785C82.9793 216.756 60.7711 212.938 53.3873 224.426C53.2814 224.772 53.2555 225.138 53.3117 225.496C53.3678 225.853 53.5045 226.193 53.7114 226.49C57.666 232.839 57.9762 243.521 65.4844 232.871C67.7194 230.963 70.3445 231.605 72.6332 231.986C75.041 232.387 73.8452 234.941 73.7852 236.426C74.1255 242.35 82.6321 243.405 80.9586 250.074C80.0039 254.898 86.0706 252.231 88.7364 253.041C93.0458 253.663 96.3152 252.219 99.0778 248.848C101.173 246.292 113.199 244.555 115.969 246.199C118.165 248.416 119.087 251.878 120.662 254.585C123.281 259.847 123.393 259.953 127.247 255.794C136.103 248.831 148.55 254.34 156.976 259.175C163.596 262.889 161.409 276.149 171.27 274.243C173.164 273.796 174.188 275.412 175.227 276.583C182.389 285.36 193.954 284.31 198.191 296.346C200.92 301.365 200.628 305.765 198.309 310.732C196.661 320.06 192.081 326.934 182.411 329.546C174.743 332.305 187.679 344.837 170.128 349.834C165.626 350.816 165.043 354.269 165.626 358.318C167.488 368.749 164.96 376.62 153.507 379.368C150.12 380.489 150.724 385 149.116 387.571C141.215 401.995 148.397 412.518 158.46 422.62C149.628 423.142 140.056 424.042 137.003 414.518C133.189 403.422 129.737 392.23 124.082 381.857C122.182 378.374 123.405 374.327 123.356 370.549C121.977 355.091 106.219 343.522 109.179 327.052C110.326 318.803 98.5801 330.583 86.4185 315.57C82.3648 310.754 72.9327 299.113 74.5617 293.079C77.8911 284.766 78.2421 274.739 85.9285 268.969C89.2026 266.42 89.5006 258.47 83.394 260.011C67.7079 262.64 71.0595 250.834 61.8724 253.075C55.6514 253.739 51.1608 251.696 46.3261 247.336C31.8212 233.974 27.6631 243.875 19.3523 233.968C24.9295 194.616 43.1366 158.151 71.2247 130.076Z" stroke="#232F6F" stroke-width="2" mask="url(#path-1-inside-1_4950_2438)"/>
<circle cx="201" cy="258" r="181.5" stroke="#232F6F"/>
<rect x="316" y="47" width="88" height="88" rx="29" fill="#0A0F2B" fill-opacity="0.8" stroke="url(#paint0_linear_4950_2438)"/>
<rect x="308" y="108" width="36" height="36" rx="18" fill="#131313"/>
<rect x="308" y="108" width="36" height="36" rx="18" stroke="#131313" stroke-width="4"/>
<path d="M326 110C317.2 110 310 117.2 310 126C310 134.8 317.2 142 326 142C334.8 142 342 134.8 342 126C342 117.2 334.8 110 326 110ZM332.72 123.28L325.04 130.96C324.4 131.6 323.44 131.6 322.8 130.96L319.28 127.44C318.64 126.8 318.64 125.84 319.28 125.2C319.92 124.56 320.88 124.56 321.52 125.2L323.92 127.6L330.48 121.04C331.12 120.4 332.08 120.4 332.72 121.04C333.36 121.68 333.36 122.64 332.72 123.28Z" fill="#3FA1E3"/>
<path fill-rule="evenodd" clip-rule="evenodd" d="M344.43 99.1627C343.347 97.008 342.738 94.5739 342.738 92C342.738 89.4261 343.347 86.992 344.43 84.8373C347.059 79.5979 352.482 76 358.738 76C364.994 76 370.417 79.5979 373.047 84.8373C374.129 86.992 374.738 89.4261 374.738 92C374.738 94.5739 374.129 97.008 373.047 99.1627C370.417 104.402 364.994 108 358.738 108C352.482 108 347.059 104.402 344.43 99.1627ZM345.923 86.6955C345.246 88.3296 344.872 90.1216 344.872 92C344.872 93.8784 345.246 95.6704 345.923 97.3045C347.665 96.6293 349.719 96.0875 351.985 95.7227C351.868 94.5301 351.805 93.2832 351.805 92C351.805 90.7168 351.868 89.4699 351.985 88.2773C349.719 87.9125 347.665 87.3707 345.923 86.6955ZM370.579 84.7851C368.794 81.8611 365.992 79.6988 362.712 78.7125C362.86 78.9429 363.004 79.1872 363.143 79.4453C364.052 81.1445 364.78 83.4656 365.217 86.1632C367.21 85.84 369.024 85.3696 370.579 84.7851ZM354.765 78.7125C351.484 79.6988 348.683 81.8611 346.897 84.7851C348.452 85.3707 350.267 85.84 352.259 86.1632C352.697 83.4656 353.424 81.1445 354.334 79.4453C354.473 79.1872 354.617 78.9429 354.765 78.7125ZM371.553 97.3045C372.231 95.6704 372.605 93.8784 372.605 92C372.605 90.1216 372.231 88.3296 371.553 86.6955C369.811 87.3707 367.758 87.9125 365.491 88.2773C365.609 89.4699 365.672 90.7168 365.672 92C365.672 93.2832 365.609 94.5301 365.491 95.7227C367.758 96.0875 369.811 96.6293 371.553 97.3045ZM346.897 99.2149C348.683 102.139 351.484 104.301 354.765 105.287C354.612 105.049 354.468 104.805 354.334 104.555C353.424 102.855 352.697 100.534 352.259 97.8368C350.267 98.16 348.452 98.6304 346.897 99.2149ZM362.712 105.287C365.992 104.301 368.794 102.139 370.579 99.2149C369.024 98.6304 367.21 98.16 365.217 97.8368C364.78 100.534 364.052 102.855 363.143 104.555C363.004 104.813 362.86 105.057 362.712 105.287ZM358.738 78.1333C358.328 78.1333 357.944 78.3285 357.575 78.6421C357.08 79.0624 356.627 79.6821 356.215 80.4533C355.4 81.9744 354.76 84.0427 354.369 86.4437C355.767 86.5899 357.23 86.6667 358.738 86.6667C360.247 86.6667 361.71 86.5888 363.107 86.4437C362.717 84.0427 362.077 81.9744 361.262 80.4533C360.849 79.6821 360.397 79.0624 359.902 78.6421C359.533 78.3285 359.149 78.1333 358.738 78.1333ZM358.738 105.867C359.149 105.867 359.533 105.671 359.902 105.358C360.397 104.938 360.849 104.318 361.262 103.547C362.077 102.026 362.717 99.9573 363.107 97.5563C361.71 97.4112 360.247 97.3333 358.738 97.3333C357.23 97.3333 355.767 97.4112 354.369 97.5563C354.76 99.9573 355.4 102.026 356.215 103.547C356.627 104.318 357.08 104.938 357.575 105.358C357.944 105.671 358.328 105.867 358.738 105.867ZM363.378 95.4421C363.483 94.3392 363.538 93.1861 363.538 92C363.538 90.8139 363.483 89.6608 363.378 88.5579C361.895 88.7157 360.339 88.8 358.738 88.8C357.137 88.8 355.582 88.7157 354.098 88.5579C353.994 89.6608 353.938 90.8139 353.938 92C353.938 93.1861 353.994 94.3392 354.098 95.4421C355.582 95.2843 357.137 95.2 358.738 95.2C360.339 95.2 361.895 95.2843 363.378 95.4421Z" fill="#3FA1E3"/>
<rect x="1" y="47" width="88" height="88" rx="29" fill="#0A0F2B" fill-opacity="0.8" stroke="url(#paint1_linear_4950_2438)"/>
<rect opacity="0.2" x="6" y="52" width="78" height="78" rx="25" fill="url(#paint2_radial_4950_2438)"/>
<g clip-path="url(#clip1_4950_2438)">
<path d="M43.7383 76C48.0127 76 52.0298 77.6635 55.0524 80.6859C58.0749 83.7084 59.7383 87.7255 59.7383 92C59.7383 96.2745 58.0748 100.292 55.0524 103.314C52.0298 106.337 48.0127 108 43.7383 108C39.4638 108 35.4467 106.337 32.4242 103.314C29.4017 100.292 27.7383 96.2745 27.7383 92C27.7383 87.7255 29.4018 83.7085 32.4242 80.6859C35.4467 77.6634 39.4638 76 43.7383 76ZM43.7383 94.4367C38.7918 94.4367 34.6087 98.193 34.0428 103.062L34.0171 103.281L34.187 103.423C36.7743 105.59 40.1064 106.897 43.7383 106.897C47.3702 106.897 50.7031 105.59 53.2904 103.423L53.4594 103.281L53.4338 103.061C53.1809 100.888 52.1988 98.8535 50.6413 97.2957C48.7979 95.4526 46.3444 94.4367 43.7383 94.4367ZM43.7383 77.1026C35.5234 77.1026 28.8408 83.7852 28.8408 92C28.8408 95.7253 30.2158 99.1357 32.4835 101.75L33.0019 102.348L33.1918 101.58C33.6935 99.5496 34.7759 97.6989 36.3352 96.2468C37.4119 95.2438 38.6625 94.4821 40.0139 93.9896L40.7679 93.7147L40.1037 93.2644C38.3765 92.0942 37.2415 90.1172 37.2415 87.8814C37.2416 84.2995 40.1564 81.3846 43.7383 81.3846C47.3202 81.3846 50.2349 84.2995 50.2351 87.8814C50.2351 90.116 49.1011 92.0924 47.3753 93.2628L46.711 93.7131L47.465 93.9872C48.9334 94.5222 50.2805 95.3764 51.4202 96.516C52.8173 97.9128 53.8078 99.6644 54.284 101.582L54.4739 102.349L54.9915 101.752C57.26 99.1373 58.6357 95.7261 58.6357 92C58.6357 83.7852 51.9531 77.1026 43.7383 77.1026ZM43.7383 82.4872C40.7637 82.4872 38.3442 84.9065 38.3441 87.8814C38.3441 90.7181 40.5443 93.0485 43.328 93.2588V93.2764H43.7383C46.713 93.2764 49.1325 90.8561 49.1325 87.8814C49.1324 84.9065 46.7128 82.4872 43.7383 82.4872Z" fill="#3FA1E3"/>
<circle opacity="0.1" cx="96.6499" cy="140.912" r="42" fill="white"/>
</g>
<rect x="156" y="12" width="88" height="88" rx="29" fill="#0A0F2B" fill-opacity="0.8" stroke="url(#paint3_linear_4950_2438)"/>
<rect opacity="0.34" x="161" y="17" width="78" height="78" rx="25" fill="url(#paint4_radial_4950_2438)"/>
<path d="M213.188 44H186.812C185.265 44 184 45.2873 184 46.875V64.125C184 65.7133 185.266 67 186.812 67H213.188C214.735 67 216 65.7127 216 64.125V46.875C216 45.2869 214.735 44 213.188 44ZM212.756 45.9167L200.726 58.2532C200.36 58.629 199.64 58.6293 199.274 58.2532L187.244 45.9167H212.756ZM185.875 63.7727V47.2273L193.942 55.5L185.875 63.7727ZM187.244 65.0833L195.265 56.8575L197.946 59.6063C199.044 60.7328 200.957 60.7323 202.055 59.6063L204.735 56.8576L212.756 65.0833H187.244ZM214.125 63.7727L206.058 55.5L214.125 47.2273V63.7727Z" fill="#3FA1E3"/>
<path d="M235.361 18.3803C235.361 18.3389 235.35 18.2983 235.329 18.2627C235.308 18.2271 235.278 18.1979 235.241 18.178L228.869 14.6927L225.383 8.3195C225.302 8.17158 225.059 8.17158 224.978 8.3195L221.493 14.6924L215.12 18.1776C215.084 18.1976 215.053 18.227 215.032 18.2627C215.011 18.2984 215 18.3392 215 18.3807C215 18.4222 215.011 18.4629 215.032 18.4986C215.053 18.5344 215.084 18.5637 215.12 18.5837L221.493 22.07L224.978 28.4429C225.019 28.5169 225.097 28.5633 225.181 28.5633C225.264 28.5633 225.342 28.5172 225.383 28.4429L228.868 22.07L235.241 18.5837C235.278 18.5638 235.308 18.5343 235.329 18.4985C235.351 18.4627 235.362 18.4219 235.361 18.3803ZM232.104 7.47976L235.416 9.29042L237.225 12.6019C237.239 12.6273 237.26 12.6484 237.285 12.6631C237.309 12.6778 237.338 12.6856 237.367 12.6856C237.395 12.6856 237.424 12.6778 237.449 12.6631C237.473 12.6484 237.494 12.6273 237.508 12.6019L239.32 9.29077L242.63 7.47976C242.655 7.46589 242.676 7.44554 242.691 7.42085C242.705 7.39615 242.713 7.36801 242.713 7.33934C242.713 7.31067 242.705 7.28253 242.691 7.25784C242.676 7.23314 242.655 7.2128 242.63 7.19892L239.319 5.38826L237.508 2.07745C237.451 1.97349 237.282 1.97488 237.226 2.07745L235.417 5.38826L232.105 7.19892C232.08 7.21274 232.059 7.23303 232.044 7.25769C232.029 7.28234 232.022 7.31047 232.022 7.33914C232.022 7.3678 232.029 7.39597 232.044 7.4207C232.058 7.44543 232.079 7.46582 232.104 7.47976ZM248.043 26.5182L243.49 24.0283L241.001 19.474C240.984 19.4438 240.96 19.4185 240.93 19.4009C240.9 19.3834 240.866 19.3741 240.832 19.3741C240.797 19.3741 240.763 19.3834 240.734 19.4009C240.704 19.4185 240.68 19.4438 240.663 19.474L238.172 24.0286L233.618 26.5185C233.588 26.5351 233.562 26.5595 233.545 26.5892C233.527 26.619 233.518 26.6528 233.518 26.6874C233.518 26.7219 233.527 26.7558 233.545 26.7855C233.562 26.8152 233.588 26.8396 233.618 26.8562L238.172 29.3475L240.663 33.9003C240.68 33.9305 240.704 33.9557 240.734 33.9732C240.764 33.9908 240.798 34 240.832 34C240.866 34 240.9 33.9908 240.93 33.9732C240.96 33.9557 240.984 33.9305 241.001 33.9003L243.49 29.3475L248.043 26.8562C248.073 26.8396 248.098 26.8152 248.116 26.7855C248.133 26.7558 248.143 26.7219 248.143 26.6874C248.143 26.6528 248.133 26.619 248.116 26.5892C248.098 26.5595 248.073 26.5351 248.043 26.5185L248.043 26.5182Z" fill="#3FA1E3"/>
<path opacity="0.6" d="M93 84.5C93 84.5 101.5 78 116.5 72C131.5 66 150.5 62 150.5 62" stroke="#3FA1E3" stroke-linecap="round" stroke-linejoin="round" stroke-dasharray="1 3"/>
<path opacity="0.6" d="M309.5 84.5C309.5 84.5 301 78 286 72C271 66 252 62 252 62" stroke="#3FA1E3" stroke-linecap="round" stroke-linejoin="round" stroke-dasharray="1 3"/>
</g>
<defs>
<linearGradient id="paint0_linear_4950_2438" x1="360" y1="47" x2="360" y2="135" gradientUnits="userSpaceOnUse">
<stop stop-color="#3FA1E3"/>
<stop offset="1" stop-color="#3FA1E3" stop-opacity="0.35"/>
</linearGradient>
<linearGradient id="paint1_linear_4950_2438" x1="45" y1="47" x2="45" y2="135" gradientUnits="userSpaceOnUse">
<stop stop-color="#3FA1E3"/>
<stop offset="1" stop-color="#3FA1E3" stop-opacity="0.35"/>
</linearGradient>
<radialGradient id="paint2_radial_4950_2438" cx="0" cy="0" r="1" gradientUnits="userSpaceOnUse" gradientTransform="translate(45 91) rotate(90) scale(39)">
<stop offset="0.480792" stop-color="#232F6F" stop-opacity="0"/>
<stop offset="1" stop-color="#232F6F"/>
</radialGradient>
<linearGradient id="paint3_linear_4950_2438" x1="200" y1="12" x2="200" y2="100" gradientUnits="userSpaceOnUse">
<stop stop-color="#3FA1E3"/>
<stop offset="1" stop-color="#3FA1E3" stop-opacity="0.35"/>
</linearGradient>
<radialGradient id="paint4_radial_4950_2438" cx="0" cy="0" r="1" gradientUnits="userSpaceOnUse" gradientTransform="translate(200 56) rotate(90) scale(39)">
<stop offset="0.480792" stop-color="#3FA1E3" stop-opacity="0"/>
<stop offset="1" stop-color="#3FA1E3"/>
</radialGradient>
<clipPath id="clip0_4950_2438">
<rect width="404" height="180" fill="white"/>
</clipPath>
<clipPath id="clip1_4950_2438">
<rect width="32" height="32" fill="white" transform="translate(27.7383 76)"/>
</clipPath>
</defs>
</svg>
