<svg width="392" height="146" viewBox="0 0 392 146" fill="none" xmlns="http://www.w3.org/2000/svg">
<g clip-path="url(#clip0_5497_5859)">
<circle opacity="0.2" cx="195.5" cy="72.5" r="78.5" fill="url(#paint0_radial_5497_5859)"/>
<circle opacity="0.2" cx="78.5" cy="72.5" r="78.5" fill="url(#paint1_radial_5497_5859)"/>
<circle opacity="0.2" cx="313.5" cy="72.5" r="78.5" fill="url(#paint2_radial_5497_5859)"/>
<path d="M213.706 59.2918L203.708 49.2942C203.615 49.2008 203.505 49.1267 203.384 49.0762C203.262 49.0258 203.132 48.9998 203 49H182C179.795 49 178 50.7939 178 53V93.0001C178 95.2061 179.795 97 182 97H210C212.205 97 214 95.2061 214 93V60C214 59.8683 213.974 59.738 213.924 59.6164C213.873 59.4949 213.799 59.3845 213.706 59.2918ZM185 59H197C197.131 58.9999 197.261 59.0258 197.383 59.076C197.504 59.1262 197.614 59.1999 197.707 59.2927C197.8 59.3856 197.874 59.4959 197.924 59.6173C197.974 59.7386 198 59.8687 198 60.0001C198 60.1314 197.974 60.2615 197.924 60.3829C197.874 60.5042 197.8 60.6145 197.707 60.7074C197.614 60.8003 197.504 60.8739 197.383 60.9241C197.261 60.9744 197.131 61.0002 197 61.0001H185C184.869 61.0002 184.739 60.9744 184.617 60.9241C184.496 60.8739 184.386 60.8003 184.293 60.7074C184.2 60.6145 184.126 60.5042 184.076 60.3829C184.026 60.2615 184 60.1314 184 60.0001C184 59.8687 184.026 59.7386 184.076 59.6173C184.126 59.4959 184.2 59.3856 184.293 59.2927C184.386 59.1999 184.496 59.1262 184.617 59.076C184.739 59.0258 184.869 58.9999 185 59ZM199.701 86.7129C195.348 91 194.334 91 194 91C192.758 91 192.313 89.5742 191.852 88.0469C191.154 89.4619 190.352 91 189 91C188.305 91 187.473 90.542 186.689 89.8447C186.316 90.2158 185.945 90.541 185.6 90.7998C185.494 90.8787 185.375 90.9361 185.248 90.9687C185.12 91.0014 184.988 91.0086 184.858 90.99C184.728 90.9714 184.603 90.9273 184.49 90.8604C184.377 90.7934 184.278 90.7048 184.199 90.5996C183.869 90.1582 183.959 89.5312 184.4 89.2002C184.717 88.9619 185.039 88.6748 185.355 88.3584C184.561 87.2617 184 86.0117 184 85C184 82.7178 185.82 81 187 81C188.16 81 190 81.8145 190 84C190 85.2734 189.115 86.9208 188.014 88.3437C188.422 88.7246 188.793 88.9774 189.01 88.9999C189.23 88.8447 189.838 87.6083 190.131 87.0146C190.728 85.8017 191.123 84.9999 192 84.9999C193.025 84.9999 193.344 86.0634 193.75 87.41C193.869 87.8094 194.066 88.4676 194.24 88.8612C194.975 88.3651 196.828 86.7342 198.299 85.287C198.693 84.9012 199.326 84.9032 199.713 85.2987C200.1 85.6923 200.096 86.3252 199.701 86.7129ZM207 79H193C192.869 79.0001 192.739 78.9743 192.617 78.9241C192.496 78.8738 192.386 78.8002 192.293 78.7073C192.2 78.6144 192.126 78.5041 192.076 78.3828C192.026 78.2614 192 78.1313 192 78C192 77.8686 192.026 77.7385 192.076 77.6172C192.126 77.4958 192.2 77.3855 192.293 77.2926C192.386 77.1998 192.496 77.1261 192.617 77.0759C192.739 77.0257 192.869 76.9998 193 76.9999H207C207.131 76.9998 207.261 77.0257 207.383 77.0759C207.504 77.1261 207.614 77.1998 207.707 77.2926C207.8 77.3855 207.874 77.4958 207.924 77.6172C207.974 77.7385 208 77.8686 208 78C208 78.1313 207.974 78.2614 207.924 78.3828C207.874 78.5041 207.8 78.6144 207.707 78.7073C207.614 78.8002 207.504 78.8738 207.383 78.9241C207.261 78.9743 207.131 79.0001 207 79ZM207 73H185C184.869 73.0001 184.739 72.9743 184.617 72.9241C184.496 72.8738 184.386 72.8002 184.293 72.7073C184.2 72.6144 184.126 72.5041 184.076 72.3828C184.026 72.2614 184 72.1313 184 72C184 71.8686 184.026 71.7385 184.076 71.6172C184.126 71.4958 184.2 71.3855 184.293 71.2926C184.386 71.1998 184.496 71.1261 184.617 71.0759C184.739 71.0257 184.869 70.9999 185 70.9999H207C207.131 70.9999 207.261 71.0257 207.383 71.0759C207.504 71.1261 207.615 71.1998 207.707 71.2926C207.8 71.3855 207.874 71.4958 207.924 71.6172C207.974 71.7385 208 71.8686 208 72C208 72.1313 207.974 72.2614 207.924 72.3828C207.874 72.5041 207.8 72.6144 207.707 72.7073C207.614 72.8001 207.504 72.8738 207.383 72.924C207.261 72.9743 207.131 73.0001 207 73ZM207 67H185C184.869 67.0001 184.739 66.9743 184.617 66.9241C184.496 66.8738 184.386 66.8002 184.293 66.7073C184.2 66.6144 184.126 66.5041 184.076 66.3828C184.026 66.2614 184 66.1313 184 66C184 65.8686 184.026 65.7385 184.076 65.6172C184.126 65.4958 184.2 65.3855 184.293 65.2926C184.386 65.1998 184.496 65.1261 184.617 65.0759C184.739 65.0257 184.869 64.9999 185 64.9999H207C207.131 64.9999 207.261 65.0257 207.383 65.0759C207.504 65.1261 207.615 65.1998 207.707 65.2926C207.8 65.3855 207.874 65.4958 207.924 65.6172C207.974 65.7385 208 65.8686 208 66C208 66.1313 207.974 66.2614 207.924 66.3828C207.874 66.5041 207.8 66.6144 207.707 66.7073C207.614 66.8001 207.504 66.8738 207.383 66.924C207.261 66.9743 207.131 67.0001 207 67ZM206 59C204.896 59 204 58.1026 204 57.0001V52.4141L210.586 59H206Z" fill="url(#paint3_linear_5497_5859)"/>
<path d="M187 83C186.895 83.0664 186 83.7803 186 85C186 85.5117 186.289 86.1543 186.695 86.7734C187.461 85.7139 188 84.6377 188 84C188 83.0478 187.166 83 187 83Z" fill="url(#paint4_linear_5497_5859)"/>
<path d="M96.7058 59.2918L86.7082 49.2942C86.6155 49.2008 86.5051 49.1267 86.3836 49.0762C86.262 49.0258 86.1317 48.9998 86 49H65C62.7949 49 61 50.7939 61 53V93.0001C61 95.2061 62.7949 97 65 97H93.0001C95.2051 97 97 95.2061 97 93V60C97.0002 59.8683 96.9742 59.738 96.9238 59.6164C96.8733 59.4949 96.7992 59.3845 96.7058 59.2918ZM68 59H80C80.1314 58.9999 80.2615 59.0258 80.3828 59.076C80.5042 59.1262 80.6145 59.1999 80.7074 59.2927C80.8002 59.3856 80.8739 59.4959 80.9241 59.6173C80.9743 59.7386 81.0002 59.8687 81.0001 60.0001C81.0002 60.1314 80.9743 60.2615 80.9241 60.3829C80.8739 60.5042 80.8002 60.6145 80.7074 60.7074C80.6145 60.8003 80.5042 60.8739 80.3828 60.9241C80.2615 60.9744 80.1314 61.0002 80 61.0001H68C67.8687 61.0002 67.7386 60.9744 67.6172 60.9241C67.4959 60.8739 67.3856 60.8003 67.2927 60.7074C67.1998 60.6145 67.1262 60.5042 67.0759 60.3829C67.0257 60.2615 66.9999 60.1314 67 60.0001C66.9999 59.8687 67.0257 59.7386 67.0759 59.6173C67.1262 59.4959 67.1998 59.3856 67.2927 59.2927C67.3856 59.1999 67.4959 59.1262 67.6172 59.076C67.7386 59.0258 67.8687 58.9999 68 59ZM82.7012 86.7129C78.3477 91 77.334 91 77 91C75.7578 91 75.3125 89.5742 74.8516 88.0469C74.1543 89.4619 73.3516 91 72 91C71.3046 91 70.4726 90.542 69.6894 89.8447C69.3164 90.2158 68.9452 90.541 68.5996 90.7998C68.4945 90.8787 68.3749 90.9361 68.2476 90.9687C68.1204 91.0014 67.9879 91.0086 67.8578 90.99C67.7278 90.9714 67.6026 90.9273 67.4896 90.8604C67.3766 90.7934 67.2779 90.7048 67.1991 90.5996C66.869 90.1582 66.9588 89.5312 67.4003 89.2002C67.7167 88.9619 68.039 88.6748 68.3554 88.3584C67.5605 87.2617 67 86.0117 67 85C67 82.7178 68.8203 81 70 81C71.1602 81 73 81.8145 73 84C73 85.2734 72.1152 86.9208 71.0136 88.3437C71.4218 88.7246 71.793 88.9774 72.0097 88.9999C72.2304 88.8447 72.8378 87.6083 73.1308 87.0146C73.7284 85.8017 74.1229 84.9999 75 84.9999C76.0254 84.9999 76.3437 86.0634 76.75 87.41C76.8692 87.8094 77.0664 88.4676 77.2402 88.8612C77.9746 88.3651 79.8281 86.7342 81.2988 85.287C81.6933 84.9012 82.3262 84.9032 82.7129 85.2987C83.0996 85.6923 83.0958 86.3252 82.7012 86.7129ZM90 79H76C75.8686 79.0001 75.7386 78.9743 75.6172 78.9241C75.4958 78.8738 75.3856 78.8002 75.2927 78.7073C75.1998 78.6144 75.1261 78.5041 75.0759 78.3828C75.0257 78.2614 74.9999 78.1313 75 78C74.9999 77.8686 75.0257 77.7385 75.0759 77.6172C75.1261 77.4958 75.1998 77.3855 75.2927 77.2926C75.3856 77.1998 75.4958 77.1261 75.6172 77.0759C75.7386 77.0257 75.8686 76.9998 76 76.9999H90C90.1313 76.9998 90.2614 77.0257 90.3828 77.0759C90.5041 77.1261 90.6144 77.1998 90.7073 77.2926C90.8002 77.3855 90.8738 77.4958 90.9241 77.6172C90.9743 77.7385 91.0001 77.8686 91 78C91.0001 78.1313 90.9743 78.2614 90.9241 78.3828C90.8738 78.5041 90.8002 78.6144 90.7073 78.7073C90.6144 78.8002 90.5041 78.8738 90.3828 78.9241C90.2614 78.9743 90.1313 79.0001 90 79ZM90 73H68C67.8687 73.0001 67.7386 72.9743 67.6172 72.9241C67.4959 72.8738 67.3856 72.8002 67.2927 72.7073C67.1998 72.6144 67.1262 72.5041 67.0759 72.3828C67.0257 72.2614 66.9999 72.1313 67 72C66.9999 71.8686 67.0257 71.7385 67.0759 71.6172C67.1262 71.4958 67.1998 71.3855 67.2927 71.2926C67.3856 71.1998 67.4959 71.1261 67.6172 71.0759C67.7386 71.0257 67.8687 70.9999 68 70.9999H90.0001C90.1314 70.9999 90.2615 71.0257 90.3829 71.0759C90.5042 71.1261 90.6145 71.1998 90.7074 71.2926C90.8003 71.3855 90.8739 71.4958 90.9241 71.6172C90.9744 71.7385 91.0002 71.8686 91.0001 72C91.0002 72.1313 90.9743 72.2614 90.9241 72.3828C90.8738 72.5041 90.8002 72.6144 90.7073 72.7073C90.6144 72.8001 90.5041 72.8738 90.3828 72.924C90.2614 72.9743 90.1313 73.0001 90 73ZM90 67H68C67.8687 67.0001 67.7386 66.9743 67.6172 66.9241C67.4959 66.8738 67.3856 66.8002 67.2927 66.7073C67.1998 66.6144 67.1262 66.5041 67.0759 66.3828C67.0257 66.2614 66.9999 66.1313 67 66C66.9999 65.8686 67.0257 65.7385 67.0759 65.6172C67.1262 65.4958 67.1998 65.3855 67.2927 65.2926C67.3856 65.1998 67.4959 65.1261 67.6172 65.0759C67.7386 65.0257 67.8687 64.9999 68 64.9999H90.0001C90.1314 64.9999 90.2615 65.0257 90.3829 65.0759C90.5042 65.1261 90.6145 65.1998 90.7074 65.2926C90.8003 65.3855 90.8739 65.4958 90.9241 65.6172C90.9744 65.7385 91.0002 65.8686 91.0001 66C91.0002 66.1313 90.9743 66.2614 90.9241 66.3828C90.8738 66.5041 90.8002 66.6144 90.7073 66.7073C90.6144 66.8001 90.5041 66.8738 90.3828 66.924C90.2614 66.9743 90.1313 67.0001 90 67ZM89 59C87.8965 59 87.0001 58.1026 87.0001 57.0001V52.4141L93.586 59H89Z" fill="url(#paint5_linear_5497_5859)"/>
<path d="M70 83C69.8945 83.0664 69 83.7803 69 85C69 85.5117 69.289 86.1543 69.6953 86.7734C70.461 85.7139 71 84.6377 71 84C71 83.0478 70.166 83 70 83Z" fill="url(#paint6_linear_5497_5859)"/>
<path d="M331.706 59.2918L321.708 49.2942C321.615 49.2008 321.505 49.1267 321.384 49.0762C321.262 49.0258 321.132 48.9998 321 49H300C297.795 49 296 50.7939 296 53V93.0001C296 95.2061 297.795 97 300 97H328C330.205 97 332 95.2061 332 93V60C332 59.8683 331.974 59.738 331.924 59.6164C331.873 59.4949 331.799 59.3845 331.706 59.2918ZM303 59H315C315.131 58.9999 315.261 59.0258 315.383 59.076C315.504 59.1262 315.614 59.1999 315.707 59.2927C315.8 59.3856 315.874 59.4959 315.924 59.6173C315.974 59.7386 316 59.8687 316 60.0001C316 60.1314 315.974 60.2615 315.924 60.3829C315.874 60.5042 315.8 60.6145 315.707 60.7074C315.614 60.8003 315.504 60.8739 315.383 60.9241C315.261 60.9744 315.131 61.0002 315 61.0001H303C302.869 61.0002 302.739 60.9744 302.617 60.9241C302.496 60.8739 302.386 60.8003 302.293 60.7074C302.2 60.6145 302.126 60.5042 302.076 60.3829C302.026 60.2615 302 60.1314 302 60.0001C302 59.8687 302.026 59.7386 302.076 59.6173C302.126 59.4959 302.2 59.3856 302.293 59.2927C302.386 59.1999 302.496 59.1262 302.617 59.076C302.739 59.0258 302.869 58.9999 303 59ZM317.701 86.7129C313.348 91 312.334 91 312 91C310.758 91 310.313 89.5742 309.852 88.0469C309.154 89.4619 308.352 91 307 91C306.305 91 305.473 90.542 304.689 89.8447C304.316 90.2158 303.945 90.541 303.6 90.7998C303.494 90.8787 303.375 90.9361 303.248 90.9687C303.12 91.0014 302.988 91.0086 302.858 90.99C302.728 90.9714 302.603 90.9273 302.49 90.8604C302.377 90.7934 302.278 90.7048 302.199 90.5996C301.869 90.1582 301.959 89.5312 302.4 89.2002C302.717 88.9619 303.039 88.6748 303.355 88.3584C302.561 87.2617 302 86.0117 302 85C302 82.7178 303.82 81 305 81C306.16 81 308 81.8145 308 84C308 85.2734 307.115 86.9208 306.014 88.3437C306.422 88.7246 306.793 88.9774 307.01 88.9999C307.23 88.8447 307.838 87.6083 308.131 87.0146C308.728 85.8017 309.123 84.9999 310 84.9999C311.025 84.9999 311.344 86.0634 311.75 87.41C311.869 87.8094 312.066 88.4676 312.24 88.8612C312.975 88.3651 314.828 86.7342 316.299 85.287C316.693 84.9012 317.326 84.9032 317.713 85.2987C318.1 85.6923 318.096 86.3252 317.701 86.7129ZM325 79H311C310.869 79.0001 310.739 78.9743 310.617 78.9241C310.496 78.8738 310.386 78.8002 310.293 78.7073C310.2 78.6144 310.126 78.5041 310.076 78.3828C310.026 78.2614 310 78.1313 310 78C310 77.8686 310.026 77.7385 310.076 77.6172C310.126 77.4958 310.2 77.3855 310.293 77.2926C310.386 77.1998 310.496 77.1261 310.617 77.0759C310.739 77.0257 310.869 76.9998 311 76.9999H325C325.131 76.9998 325.261 77.0257 325.383 77.0759C325.504 77.1261 325.614 77.1998 325.707 77.2926C325.8 77.3855 325.874 77.4958 325.924 77.6172C325.974 77.7385 326 77.8686 326 78C326 78.1313 325.974 78.2614 325.924 78.3828C325.874 78.5041 325.8 78.6144 325.707 78.7073C325.614 78.8002 325.504 78.8738 325.383 78.9241C325.261 78.9743 325.131 79.0001 325 79ZM325 73H303C302.869 73.0001 302.739 72.9743 302.617 72.9241C302.496 72.8738 302.386 72.8002 302.293 72.7073C302.2 72.6144 302.126 72.5041 302.076 72.3828C302.026 72.2614 302 72.1313 302 72C302 71.8686 302.026 71.7385 302.076 71.6172C302.126 71.4958 302.2 71.3855 302.293 71.2926C302.386 71.1998 302.496 71.1261 302.617 71.0759C302.739 71.0257 302.869 70.9999 303 70.9999H325C325.131 70.9999 325.261 71.0257 325.383 71.0759C325.504 71.1261 325.615 71.1998 325.707 71.2926C325.8 71.3855 325.874 71.4958 325.924 71.6172C325.974 71.7385 326 71.8686 326 72C326 72.1313 325.974 72.2614 325.924 72.3828C325.874 72.5041 325.8 72.6144 325.707 72.7073C325.614 72.8001 325.504 72.8738 325.383 72.924C325.261 72.9743 325.131 73.0001 325 73ZM325 67H303C302.869 67.0001 302.739 66.9743 302.617 66.9241C302.496 66.8738 302.386 66.8002 302.293 66.7073C302.2 66.6144 302.126 66.5041 302.076 66.3828C302.026 66.2614 302 66.1313 302 66C302 65.8686 302.026 65.7385 302.076 65.6172C302.126 65.4958 302.2 65.3855 302.293 65.2926C302.386 65.1998 302.496 65.1261 302.617 65.0759C302.739 65.0257 302.869 64.9999 303 64.9999H325C325.131 64.9999 325.261 65.0257 325.383 65.0759C325.504 65.1261 325.615 65.1998 325.707 65.2926C325.8 65.3855 325.874 65.4958 325.924 65.6172C325.974 65.7385 326 65.8686 326 66C326 66.1313 325.974 66.2614 325.924 66.3828C325.874 66.5041 325.8 66.6144 325.707 66.7073C325.614 66.8001 325.504 66.8738 325.383 66.924C325.261 66.9743 325.131 67.0001 325 67ZM324 59C322.896 59 322 58.1026 322 57.0001V52.4141L328.586 59H324Z" fill="url(#paint7_linear_5497_5859)"/>
<path d="M305 83C304.895 83.0664 304 83.7803 304 85C304 85.5117 304.289 86.1543 304.695 86.7734C305.461 85.7139 306 84.6377 306 84C306 83.0478 305.166 83 305 83Z" fill="url(#paint8_linear_5497_5859)"/>
</g>
<defs>
<radialGradient id="paint0_radial_5497_5859" cx="0" cy="0" r="1" gradientUnits="userSpaceOnUse" gradientTransform="translate(195.5 72.5) rotate(90) scale(78.5 69.6549)">
<stop offset="0.524044" stop-color="#D252B5" stop-opacity="0"/>
<stop offset="1" stop-color="#D252B5"/>
</radialGradient>
<radialGradient id="paint1_radial_5497_5859" cx="0" cy="0" r="1" gradientUnits="userSpaceOnUse" gradientTransform="translate(78.5 72.5) rotate(90) scale(78.5 69.6549)">
<stop offset="0.524044" stop-color="#D252B5" stop-opacity="0"/>
<stop offset="1" stop-color="#D252B5"/>
</radialGradient>
<radialGradient id="paint2_radial_5497_5859" cx="0" cy="0" r="1" gradientUnits="userSpaceOnUse" gradientTransform="translate(313.5 72.5) rotate(90) scale(78.5 69.6549)">
<stop offset="0.524044" stop-color="#D252B5" stop-opacity="0"/>
<stop offset="1" stop-color="#D252B5"/>
</radialGradient>
<linearGradient id="paint3_linear_5497_5859" x1="196" y1="49" x2="196" y2="97" gradientUnits="userSpaceOnUse">
<stop stop-color="#D252B5" stop-opacity="0.35"/>
<stop offset="0.605793" stop-color="#D252B5"/>
</linearGradient>
<linearGradient id="paint4_linear_5497_5859" x1="187" y1="83" x2="187" y2="86.7734" gradientUnits="userSpaceOnUse">
<stop stop-color="#D252B5" stop-opacity="0.35"/>
<stop offset="0.605793" stop-color="#D252B5"/>
</linearGradient>
<linearGradient id="paint5_linear_5497_5859" x1="79" y1="49" x2="79" y2="97" gradientUnits="userSpaceOnUse">
<stop stop-color="#D252B5" stop-opacity="0.35"/>
<stop offset="0.605793" stop-color="#D252B5"/>
</linearGradient>
<linearGradient id="paint6_linear_5497_5859" x1="70" y1="83" x2="70" y2="86.7734" gradientUnits="userSpaceOnUse">
<stop stop-color="#D252B5" stop-opacity="0.35"/>
<stop offset="0.605793" stop-color="#D252B5"/>
</linearGradient>
<linearGradient id="paint7_linear_5497_5859" x1="314" y1="49" x2="314" y2="97" gradientUnits="userSpaceOnUse">
<stop stop-color="#D252B5" stop-opacity="0.35"/>
<stop offset="0.605793" stop-color="#D252B5"/>
</linearGradient>
<linearGradient id="paint8_linear_5497_5859" x1="305" y1="83" x2="305" y2="86.7734" gradientUnits="userSpaceOnUse">
<stop stop-color="#D252B5" stop-opacity="0.35"/>
<stop offset="0.605793" stop-color="#D252B5"/>
</linearGradient>
<clipPath id="clip0_5497_5859">
<rect width="392" height="146" fill="white"/>
</clipPath>
</defs>
</svg>
