<svg width="405" height="180" viewBox="0 0 405 180" fill="none" xmlns="http://www.w3.org/2000/svg">
<g clip-path="url(#clip0_3923_945)">
<g clip-path="url(#clip1_3923_945)">
<path d="M203 39C208.343 39 213.364 41.0793 217.143 44.8574C220.921 48.6356 223 53.6569 223 59C223 64.3431 220.921 69.3644 217.143 73.1426C213.364 76.9207 208.343 79 203 79C197.657 79 192.636 76.9207 188.857 73.1426C185.079 69.3644 183 64.3431 183 59C183 53.6569 185.079 48.6356 188.857 44.8574C192.636 41.0793 197.657 39 203 39ZM203 62.0459C196.817 62.0459 191.588 66.7412 190.881 72.8271L190.849 73.1016L191.061 73.2788C194.295 75.9875 198.46 77.6218 203 77.6218C207.54 77.6218 211.706 75.9875 214.94 73.2788L215.151 73.1016L215.119 72.8261C214.803 70.11 213.576 67.5668 211.629 65.6196C209.325 63.3158 206.258 62.0459 203 62.0459ZM203 40.3782C192.731 40.3782 184.378 48.7314 184.378 59C184.378 63.6566 186.097 67.9196 188.931 71.1875L189.58 71.9347L189.817 70.9752C190.444 68.437 191.797 66.1236 193.746 64.3085C195.092 63.0547 196.655 62.1026 198.345 61.487L199.287 61.1434L198.457 60.5805C196.298 59.1178 194.879 56.6466 194.879 53.8518C194.879 49.3744 198.523 45.7308 203 45.7308C207.477 45.7308 211.121 49.3744 211.121 53.8518C211.121 56.645 209.704 59.1155 207.546 60.5785L206.716 61.1414L207.658 61.484C209.494 62.1527 211.178 63.2205 212.602 64.645C214.349 66.391 215.587 68.5805 216.182 70.9772L216.419 71.9357L217.067 71.1895C219.902 67.9216 221.622 63.6576 221.622 59C221.622 48.7314 213.269 40.3782 203 40.3782ZM203 47.109C199.282 47.109 196.257 50.1332 196.257 53.8518C196.257 57.3976 199.008 60.3106 202.487 60.5735V60.5956H203C206.718 60.5956 209.743 57.5702 209.743 53.8518C209.743 50.1332 206.718 47.109 203 47.109Z" fill="#232F6F"/>
</g>
<g clip-path="url(#clip2_3923_945)">
<path d="M139.36 65.3604C144.703 65.3604 149.725 67.4397 153.503 71.2177C157.281 74.9959 159.36 80.0173 159.36 85.3604C159.36 90.7034 157.281 95.7248 153.503 99.503C149.725 103.281 144.703 105.36 139.36 105.36C134.017 105.36 128.996 103.281 125.218 99.503C121.44 95.7248 119.36 90.7034 119.36 85.3604C119.36 80.0173 121.44 74.9959 125.218 71.2177C128.996 67.4396 134.017 65.3604 139.36 65.3604ZM139.36 88.4062C133.177 88.4062 127.948 93.1016 127.241 99.1875L127.209 99.4619L127.421 99.6392C130.655 102.348 134.821 103.982 139.36 103.982C143.9 103.982 148.066 102.348 151.3 99.6392L151.512 99.4619L151.48 99.1865C151.164 96.4703 149.936 93.9272 147.989 91.9799C145.685 89.6761 142.618 88.4062 139.36 88.4062ZM139.36 66.7386C129.092 66.7386 120.739 75.0918 120.739 85.3604C120.739 90.0169 122.457 94.28 125.292 97.5479L125.94 98.295L126.177 97.3355C126.804 94.7974 128.157 92.484 130.107 90.6688C131.452 89.4151 133.016 88.463 134.705 87.8473L135.647 87.5038L134.817 86.9409C132.658 85.4781 131.239 83.0069 131.239 80.2121C131.24 75.7347 134.883 72.0911 139.36 72.0911C143.838 72.0911 147.481 75.7347 147.481 80.2121C147.481 83.0054 146.064 85.4759 143.907 86.9389L143.076 87.5018L144.019 87.8443C145.854 88.5131 147.538 89.5809 148.963 91.0054C150.709 92.7513 151.947 94.9408 152.542 97.3375L152.78 98.2961L153.427 97.5499C156.263 94.2819 157.982 90.0179 157.982 85.3604C157.982 75.0918 149.629 66.7386 139.36 66.7386ZM139.36 73.4693C135.642 73.4693 132.618 76.4935 132.618 80.2121C132.618 83.758 135.368 86.6709 138.848 86.9339V86.9559H139.36C143.079 86.9559 146.103 83.9305 146.103 80.2121C146.103 76.4935 143.079 73.4693 139.36 73.4693Z" fill="#232F6F"/>
<circle opacity="0.1" cx="205.5" cy="146.5" r="52.5" fill="white"/>
</g>
<g clip-path="url(#clip3_3923_945)">
<path d="M266.64 65.3604C271.983 65.3604 277.004 67.4397 280.782 71.2177C284.56 74.9959 286.64 80.0173 286.64 85.3604C286.64 90.7034 284.56 95.7248 280.782 99.503C277.004 103.281 271.983 105.36 266.64 105.36C261.297 105.36 256.275 103.281 252.497 99.503C248.719 95.7248 246.64 90.7034 246.64 85.3604C246.64 80.0173 248.719 74.9959 252.497 71.2177C256.275 67.4396 261.297 65.3604 266.64 65.3604ZM266.64 88.4062C260.457 88.4062 255.228 93.1016 254.52 99.1875L254.488 99.4619L254.701 99.6392C257.935 102.348 262.1 103.982 266.64 103.982C271.18 103.982 275.346 102.348 278.58 99.6392L278.791 99.4619L278.759 99.1865C278.443 96.4703 277.215 93.9272 275.268 91.9799C272.964 89.6761 269.897 88.4062 266.64 88.4062ZM266.64 66.7386C256.371 66.7386 248.018 75.0918 248.018 85.3604C248.018 90.0169 249.737 94.28 252.571 97.5479L253.219 98.295L253.457 97.3355C254.084 94.7974 255.437 92.484 257.386 90.6688C258.732 89.4151 260.295 88.463 261.984 87.8473L262.927 87.5038L262.096 86.9409C259.937 85.4781 258.519 83.0069 258.519 80.2121C258.519 75.7347 262.162 72.0911 266.64 72.0911C271.117 72.0911 274.76 75.7347 274.761 80.2121C274.761 83.0054 273.343 85.4759 271.186 86.9389L270.356 87.5018L271.298 87.8443C273.134 88.5131 274.817 89.5809 276.242 91.0054C277.988 92.7513 279.227 94.9408 279.822 97.3375L280.059 98.2961L280.706 97.5499C283.542 94.2819 285.261 90.0179 285.261 85.3604C285.261 75.0918 276.908 66.7386 266.64 66.7386ZM266.64 73.4693C262.921 73.4693 259.897 76.4935 259.897 80.2121C259.897 83.758 262.647 86.6709 266.127 86.9339V86.9559H266.64C270.358 86.9559 273.382 83.9305 273.382 80.2121C273.382 76.4935 270.358 73.4693 266.64 73.4693Z" fill="#232F6F"/>
</g>
<g clip-path="url(#clip4_3923_945)">
<path d="M293 129C298.343 129 303.364 131.079 307.143 134.857C310.921 138.636 313 143.657 313 149C313 154.343 310.921 159.364 307.143 163.143C303.364 166.921 298.343 169 293 169C287.657 169 282.636 166.921 278.857 163.143C275.079 159.364 273 154.343 273 149C273 143.657 275.079 138.636 278.857 134.857C282.636 131.079 287.657 129 293 129ZM293 152.046C286.817 152.046 281.588 156.741 280.881 162.827L280.849 163.102L281.061 163.279C284.295 165.987 288.46 167.622 293 167.622C297.54 167.622 301.706 165.988 304.94 163.279L305.151 163.102L305.119 162.826C304.803 160.11 303.576 157.567 301.629 155.62C299.325 153.316 296.258 152.046 293 152.046ZM293 130.378C282.731 130.378 274.378 138.731 274.378 149C274.378 153.657 276.097 157.92 278.931 161.188L279.58 161.935L279.817 160.975C280.444 158.437 281.797 156.124 283.746 154.308C285.092 153.055 286.655 152.103 288.345 151.487L289.287 151.143L288.457 150.581C286.298 149.118 284.879 146.647 284.879 143.852C284.879 139.374 288.523 135.731 293 135.731C297.477 135.731 301.121 139.374 301.121 143.852C301.121 146.645 299.704 149.116 297.546 150.579L296.716 151.141L297.658 151.484C299.494 152.153 301.178 153.221 302.602 154.645C304.349 156.391 305.587 158.58 306.182 160.977L306.419 161.936L307.067 161.19C309.902 157.922 311.622 153.658 311.622 149C311.622 138.731 303.269 130.378 293 130.378ZM293 137.109C289.282 137.109 286.257 140.133 286.257 143.852C286.257 147.398 289.008 150.311 292.487 150.574V150.596H293C296.718 150.596 299.743 147.57 299.743 143.852C299.743 140.133 296.718 137.109 293 137.109Z" fill="#232F6F"/>
</g>
<g clip-path="url(#clip5_3923_945)">
<path d="M113 129C118.343 129 123.364 131.079 127.143 134.857C130.921 138.636 133 143.657 133 149C133 154.343 130.921 159.364 127.143 163.143C123.364 166.921 118.343 169 113 169C107.657 169 102.636 166.921 98.8574 163.143C95.0793 159.364 93 154.343 93 149C93 143.657 95.0793 138.636 98.8574 134.857C102.636 131.079 107.657 129 113 129ZM113 152.046C106.817 152.046 101.588 156.741 100.881 162.827L100.849 163.102L101.061 163.279C104.295 165.987 108.46 167.622 113 167.622C117.54 167.622 121.706 165.988 124.94 163.279L125.151 163.102L125.119 162.826C124.803 160.11 123.576 157.567 121.629 155.62C119.325 153.316 116.258 152.046 113 152.046ZM113 130.378C102.731 130.378 94.3782 138.731 94.3782 149C94.3782 153.657 96.0969 157.92 98.9315 161.188L99.5795 161.935L99.8169 160.975C100.444 158.437 101.797 156.124 103.746 154.308C105.092 153.055 106.655 152.103 108.345 151.487L109.287 151.143L108.457 150.581C106.298 149.118 104.879 146.647 104.879 143.852C104.879 139.374 108.523 135.731 113 135.731C117.477 135.731 121.121 139.374 121.121 143.852C121.121 146.645 119.704 149.116 117.546 150.579L116.716 151.141L117.658 151.484C119.494 152.153 121.178 153.221 122.602 154.645C124.349 156.391 125.587 158.58 126.182 160.977L126.419 161.936L127.067 161.19C129.902 157.922 131.622 153.658 131.622 149C131.622 138.731 123.269 130.378 113 130.378ZM113 137.109C109.282 137.109 106.257 140.133 106.257 143.852C106.257 147.398 109.008 150.311 112.487 150.574V150.596H113C116.718 150.596 119.743 147.57 119.743 143.852C119.743 140.133 116.718 137.109 113 137.109Z" fill="#232F6F"/>
</g>
<circle opacity="0.2" cx="203" cy="149" r="36.5" stroke="#232F6F"/>
<circle opacity="0.5" cx="203" cy="149" r="30.5" stroke="#232F6F"/>
<path d="M231.5 122.5L251.5 102.5" stroke="#232F6F" stroke-linecap="round" stroke-linejoin="round" stroke-dasharray="1 3"/>
<path d="M175 122.5L155 102.5" stroke="#232F6F" stroke-linecap="round" stroke-linejoin="round" stroke-dasharray="1 3"/>
<path d="M156 197L176 177" stroke="#232F6F" stroke-linecap="round" stroke-linejoin="round" stroke-dasharray="1 3"/>
<path d="M250.5 197L230.5 177" stroke="#232F6F" stroke-linecap="round" stroke-linejoin="round" stroke-dasharray="1 3"/>
<path d="M203.5 82.5V109" stroke="#232F6F" stroke-linecap="round" stroke-linejoin="round" stroke-dasharray="1 3"/>
<path d="M246.5 48.0001L218.684 111.992" stroke="#232F6F" stroke-linecap="round" stroke-linejoin="round" stroke-dasharray="1 3"/>
<path d="M162.5 48.0001L190.316 111.992" stroke="#232F6F" stroke-linecap="round" stroke-linejoin="round" stroke-dasharray="1 3"/>
<path d="M270.005 148.995L243.505 148.995" stroke="#232F6F" stroke-linecap="round" stroke-linejoin="round" stroke-dasharray="1 3"/>
<path d="M302 190.5L240.441 164.353" stroke="#232F6F" stroke-linecap="round" stroke-linejoin="round" stroke-dasharray="1 3"/>
<path d="M302 105L240.441 131.147" stroke="#232F6F" stroke-linecap="round" stroke-linejoin="round" stroke-dasharray="1 3"/>
<path d="M163.505 148.995L137.005 148.995" stroke="#232F6F" stroke-linecap="round" stroke-linejoin="round" stroke-dasharray="1 3"/>
<path d="M166.572 133.638L101.5 105" stroke="#232F6F" stroke-linecap="round" stroke-linejoin="round" stroke-dasharray="1 3"/>
<path d="M166.572 161.862L101.5 190.5" stroke="#232F6F" stroke-linecap="round" stroke-linejoin="round" stroke-dasharray="1 3"/>
<path d="M186.096 145.305L191.949 135.431C193.21 133.304 195.499 132 197.971 132H208.029C210.501 132 212.79 133.304 214.051 135.431L219.904 145.305C221.198 147.488 221.209 150.201 219.933 152.394L214.042 162.52C212.788 164.675 210.484 166 207.991 166H198.009C195.516 166 193.212 164.675 191.958 162.52L186.067 152.394C184.791 150.201 184.802 147.488 186.096 145.305Z" fill="url(#paint0_linear_3923_945)"/>
<path d="M201 138H196.6L190 148.522L196.6 160H201L194.4 148.522L201 138Z" fill="#131313"/>
<path d="M205 138H209.4L216 148.522L209.4 160H205L211.6 148.522L205 138Z" fill="#131313"/>
<g clip-path="url(#clip6_3923_945)">
<path d="M254 14C258.274 14 262.292 15.6635 265.314 18.6859C268.337 21.7084 270 25.7255 270 30C270 34.2745 268.337 38.2915 265.314 41.3141C262.292 44.3366 258.274 46 254 46C249.726 46 245.708 44.3365 242.686 41.3141C239.663 38.2916 238 34.2745 238 30C238 25.7255 239.663 21.7085 242.686 18.6859C245.708 15.6634 249.726 14 254 14ZM254 32.4367C249.054 32.4367 244.87 36.193 244.304 41.0617L244.279 41.2813L244.449 41.4231C247.036 43.59 250.368 44.8974 254 44.8974C257.632 44.8974 260.965 43.59 263.552 41.4231L263.721 41.2813L263.696 41.0609C263.443 38.888 262.461 36.8535 260.903 35.2957C259.06 33.4526 256.606 32.4367 254 32.4367ZM254 15.1026C245.785 15.1026 239.103 21.7852 239.103 30C239.103 33.7253 240.478 37.1357 242.745 39.75L243.264 40.3478L243.454 39.5801C243.955 37.5496 245.038 35.6989 246.597 34.2468C247.674 33.2438 248.924 32.4821 250.276 31.9896L251.03 31.7147L250.365 31.2644C248.638 30.0942 247.503 28.1172 247.503 25.8814C247.503 22.2995 250.418 19.3846 254 19.3846C257.582 19.3846 260.497 22.2995 260.497 25.8814C260.497 28.116 259.363 30.0924 257.637 31.2628L256.973 31.7131L257.727 31.9872C259.195 32.5222 260.542 33.3764 261.682 34.516C263.079 35.9128 264.07 37.6644 264.546 39.5817L264.736 40.3486L265.253 39.7516C267.522 37.1373 268.897 33.7261 268.897 30C268.897 21.7852 262.215 15.1026 254 15.1026ZM254 20.4872C251.025 20.4872 248.606 22.9065 248.606 25.8814C248.606 28.7181 250.806 31.0485 253.59 31.2588V31.2764H254C256.975 31.2764 259.394 28.8561 259.394 25.8814C259.394 22.9065 256.975 20.4872 254 20.4872Z" fill="#232F6F"/>
</g>
<g clip-path="url(#clip7_3923_945)">
<path d="M153 14C157.274 14 161.292 15.6635 164.314 18.6859C167.337 21.7084 169 25.7255 169 30C169 34.2745 167.337 38.2915 164.314 41.3141C161.292 44.3366 157.274 46 153 46C148.726 46 144.708 44.3365 141.686 41.3141C138.663 38.2916 137 34.2745 137 30C137 25.7255 138.663 21.7085 141.686 18.6859C144.708 15.6634 148.726 14 153 14ZM153 32.4367C148.054 32.4367 143.87 36.193 143.304 41.0617L143.279 41.2813L143.449 41.4231C146.036 43.59 149.368 44.8974 153 44.8974C156.632 44.8974 159.965 43.59 162.552 41.4231L162.721 41.2813L162.696 41.0609C162.443 38.888 161.461 36.8535 159.903 35.2957C158.06 33.4526 155.606 32.4367 153 32.4367ZM153 15.1026C144.785 15.1026 138.103 21.7852 138.103 30C138.103 33.7253 139.478 37.1357 141.745 39.75L142.264 40.3478L142.454 39.5801C142.955 37.5496 144.038 35.6989 145.597 34.2468C146.674 33.2438 147.924 32.4821 149.276 31.9896L150.03 31.7147L149.365 31.2644C147.638 30.0942 146.503 28.1172 146.503 25.8814C146.503 22.2995 149.418 19.3846 153 19.3846C156.582 19.3846 159.497 22.2995 159.497 25.8814C159.497 28.116 158.363 30.0924 156.637 31.2628L155.973 31.7131L156.727 31.9872C158.195 32.5222 159.542 33.3764 160.682 34.516C162.079 35.9128 163.07 37.6644 163.546 39.5817L163.736 40.3486L164.253 39.7516C166.522 37.1373 167.897 33.7261 167.897 30C167.897 21.7852 161.215 15.1026 153 15.1026ZM153 20.4872C150.025 20.4872 147.606 22.9065 147.606 25.8814C147.606 28.7181 149.806 31.0485 152.59 31.2588V31.2764H153C155.975 31.2764 158.394 28.8561 158.394 25.8814C158.394 22.9065 155.975 20.4872 153 20.4872Z" fill="#232F6F"/>
</g>
<g clip-path="url(#clip8_3923_945)">
<path d="M323 81C327.274 81 331.292 82.6635 334.314 85.6859C337.337 88.7084 339 92.7255 339 97C339 101.274 337.337 105.292 334.314 108.314C331.292 111.337 327.274 113 323 113C318.726 113 314.708 111.337 311.686 108.314C308.663 105.292 307 101.274 307 97C307 92.7255 308.663 88.7085 311.686 85.6859C314.708 82.6634 318.726 81 323 81ZM323 99.4367C318.054 99.4367 313.87 103.193 313.304 108.062L313.279 108.281L313.449 108.423C316.036 110.59 319.368 111.897 323 111.897C326.632 111.897 329.965 110.59 332.552 108.423L332.721 108.281L332.696 108.061C332.443 105.888 331.461 103.853 329.903 102.296C328.06 100.453 325.606 99.4367 323 99.4367ZM323 82.1026C314.785 82.1026 308.103 88.7852 308.103 97C308.103 100.725 309.478 104.136 311.745 106.75L312.264 107.348L312.454 106.58C312.955 104.55 314.038 102.699 315.597 101.247C316.674 100.244 317.924 99.4821 319.276 98.9896L320.03 98.7147L319.365 98.2644C317.638 97.0942 316.503 95.1172 316.503 92.8814C316.503 89.2995 319.418 86.3846 323 86.3846C326.582 86.3846 329.497 89.2995 329.497 92.8814C329.497 95.116 328.363 97.0924 326.637 98.2628L325.973 98.7131L326.727 98.9872C328.195 99.5222 329.542 100.376 330.682 101.516C332.079 102.913 333.07 104.664 333.546 106.582L333.736 107.349L334.253 106.752C336.522 104.137 337.897 100.726 337.897 97C337.897 88.7852 331.215 82.1026 323 82.1026ZM323 87.4872C320.025 87.4872 317.606 89.9065 317.606 92.8814C317.606 95.7181 319.806 98.0485 322.59 98.2588V98.2764H323C325.975 98.2764 328.394 95.8561 328.394 92.8814C328.394 89.9065 325.975 87.4872 323 87.4872Z" fill="#232F6F"/>
</g>
<g clip-path="url(#clip9_3923_945)">
<path d="M83 81C87.2745 81 91.2915 82.6635 94.3141 85.6859C97.3366 88.7084 99 92.7255 99 97C99 101.274 97.3365 105.292 94.3141 108.314C91.2916 111.337 87.2745 113 83 113C78.7255 113 74.7085 111.337 71.6859 108.314C68.6634 105.292 67 101.274 67 97C67 92.7255 68.6635 88.7085 71.6859 85.6859C74.7084 82.6634 78.7255 81 83 81ZM83 99.4367C78.0535 99.4367 73.8704 103.193 73.3045 108.062L73.2788 108.281L73.4487 108.423C76.0361 110.59 79.3681 111.897 83 111.897C86.6319 111.897 89.9648 110.59 92.5521 108.423L92.7212 108.281L92.6955 108.061C92.4427 105.888 91.4605 103.853 89.903 102.296C88.0596 100.453 85.6061 99.4367 83 99.4367ZM83 82.1026C74.7852 82.1026 68.1026 88.7852 68.1026 97C68.1026 100.725 69.4775 104.136 71.7452 106.75L72.2636 107.348L72.4535 106.58C72.9552 104.55 74.0376 102.699 75.597 101.247C76.6736 100.244 77.9242 99.4821 79.2756 98.9896L80.0296 98.7147L79.3654 98.2644C77.6382 97.0942 76.5032 95.1172 76.5032 92.8814C76.5033 89.2995 79.4181 86.3846 83 86.3846C86.5819 86.3846 89.4967 89.2995 89.4968 92.8814C89.4968 95.116 88.3628 97.0924 86.637 98.2628L85.9728 98.7131L86.7268 98.9872C88.1951 99.5222 89.5422 100.376 90.6819 101.516C92.079 102.913 93.0695 104.664 93.5457 106.582L93.7356 107.349L94.2532 106.752C96.5217 104.137 97.8974 100.726 97.8974 97C97.8974 88.7852 91.2148 82.1026 83 82.1026ZM83 87.4872C80.0254 87.4872 77.6059 89.9065 77.6058 92.8814C77.6058 95.7181 79.806 98.0485 82.5897 98.2588V98.2764H83C85.9747 98.2764 88.3942 95.8561 88.3942 92.8814C88.3941 89.9065 85.9746 87.4872 83 87.4872Z" fill="#232F6F"/>
</g>
<path opacity="0.3" d="M179.138 145.219L188.622 129.4C189.887 127.291 192.166 126 194.626 126H211.374C213.834 126 216.113 127.291 217.378 129.4L226.862 145.219C228.18 147.417 228.191 150.16 226.891 152.369L217.369 168.55C216.111 170.688 213.816 172 211.336 172H194.664C192.184 172 189.889 170.688 188.631 168.55L179.109 152.369C177.809 150.16 177.82 147.417 179.138 145.219Z" stroke="#3FA1E3"/>
</g>
<defs>
<linearGradient id="paint0_linear_3923_945" x1="203" y1="132" x2="203" y2="166" gradientUnits="userSpaceOnUse">
<stop stop-color="#3FA1E3" stop-opacity="0.35"/>
<stop offset="0.605793" stop-color="#3FA1E3"/>
</linearGradient>
<clipPath id="clip0_3923_945">
<rect width="405" height="180" fill="white"/>
</clipPath>
<clipPath id="clip1_3923_945">
<rect width="40" height="40" fill="white" transform="translate(183 39)"/>
</clipPath>
<clipPath id="clip2_3923_945">
<rect width="40" height="40" fill="white" transform="translate(119.36 65.3604)"/>
</clipPath>
<clipPath id="clip3_3923_945">
<rect width="40" height="40" fill="white" transform="translate(246.64 65.3604)"/>
</clipPath>
<clipPath id="clip4_3923_945">
<rect width="40" height="40" fill="white" transform="translate(273 129)"/>
</clipPath>
<clipPath id="clip5_3923_945">
<rect width="40" height="40" fill="white" transform="translate(93 129)"/>
</clipPath>
<clipPath id="clip6_3923_945">
<rect width="32" height="32" fill="white" transform="translate(238 14)"/>
</clipPath>
<clipPath id="clip7_3923_945">
<rect width="32" height="32" fill="white" transform="translate(137 14)"/>
</clipPath>
<clipPath id="clip8_3923_945">
<rect width="32" height="32" fill="white" transform="translate(307 81)"/>
</clipPath>
<clipPath id="clip9_3923_945">
<rect width="32" height="32" fill="white" transform="translate(67 81)"/>
</clipPath>
</defs>
</svg>
