<svg width="405" height="180" viewBox="0 0 405 180" fill="none" xmlns="http://www.w3.org/2000/svg">
<g clip-path="url(#clip0_3923_1022)">
<circle opacity="0.2" cx="203" cy="170" r="136" fill="url(#paint0_radial_3923_1022)"/>
<circle cx="203" cy="170" r="140.5" stroke="#232F6F"/>
<circle cx="203" cy="170" r="92.5" stroke="#232F6F"/>
<path opacity="0.5" d="M105 69.5L203 171L67.5 133C74.3 102.6 95.3333 78 105 69.5Z" fill="url(#paint1_linear_3923_1022)"/>
<circle cx="203" cy="170" r="44.5" stroke="#232F6F"/>
<g filter="url(#filter0_f_3923_1022)">
<path d="M203 171L105 69.5" stroke="url(#paint2_linear_3923_1022)" stroke-width="2"/>
</g>
<g style="mix-blend-mode:screen" opacity="0.2" filter="url(#filter1_f_3923_1022)">
<path d="M110.019 95.0056C116.854 94.8013 122.577 100.183 122.804 107.019C123.008 113.854 117.626 119.577 110.791 119.804C103.955 120.008 98.2327 114.626 98.0056 107.791C97.8013 100.955 103.183 95.2327 110.019 95.0056Z" fill="url(#paint3_radial_3923_1022)"/>
</g>
<g style="mix-blend-mode:screen" opacity="0.5" filter="url(#filter2_f_3923_1022)">
<path d="M110.363 101.003C113.982 100.895 117.011 103.744 117.131 107.363C117.24 110.982 114.39 114.011 110.772 114.131C107.153 114.24 104.123 111.39 104.003 107.772C103.895 104.153 106.744 101.123 110.363 101.003Z" fill="url(#paint4_radial_3923_1022)"/>
</g>
<g style="mix-blend-mode:screen">
<path d="M110.449 106.001C111.273 105.976 111.962 106.625 111.99 107.449C112.014 108.273 111.366 108.963 110.542 108.99C109.718 109.015 109.028 108.366 109.001 107.542C108.976 106.718 109.625 106.028 110.449 106.001Z" fill="#3FA1E3"/>
</g>
<g style="mix-blend-mode:screen" opacity="0.2" filter="url(#filter3_f_3923_1022)">
<path d="M129.019 140.006C135.854 139.801 141.577 145.183 141.804 152.019C142.008 158.854 136.626 164.577 129.791 164.804C122.955 165.008 117.233 159.626 117.006 152.791C116.801 145.955 122.183 140.233 129.019 140.006Z" fill="url(#paint5_radial_3923_1022)"/>
</g>
<g style="mix-blend-mode:screen" opacity="0.5" filter="url(#filter4_f_3923_1022)">
<path d="M129.363 146.003C132.982 145.895 136.011 148.744 136.131 152.363C136.24 155.982 133.39 159.011 129.772 159.131C126.153 159.24 123.123 156.39 123.003 152.772C122.895 149.153 125.744 146.123 129.363 146.003Z" fill="url(#paint6_radial_3923_1022)"/>
</g>
<g style="mix-blend-mode:screen">
<path d="M129.449 151.001C130.273 150.976 130.962 151.625 130.99 152.449C131.014 153.273 130.366 153.963 129.542 153.99C128.718 154.015 128.028 153.366 128.001 152.542C127.976 151.718 128.625 151.028 129.449 151.001Z" fill="#3FA1E3"/>
</g>
<g opacity="0.3">
<g style="mix-blend-mode:screen" opacity="0.3" filter="url(#filter5_f_3923_1022)">
<path d="M222.363 51.003C225.982 50.8948 229.011 53.7441 229.131 57.3628C229.24 60.9815 226.39 64.0112 222.772 64.1314C219.153 64.2396 216.123 61.3903 216.003 57.7716C215.895 54.1529 218.744 51.1232 222.363 51.003Z" fill="url(#paint7_radial_3923_1022)"/>
</g>
<g style="mix-blend-mode:screen">
<path d="M222.449 56.0007C223.273 55.976 223.962 56.6249 223.99 57.449C224.014 58.2732 223.366 58.9631 222.542 58.9905C221.718 59.0151 221.028 58.3662 221.001 57.5421C220.976 56.718 221.625 56.0281 222.449 56.0007Z" fill="#3FA1E3"/>
</g>
</g>
<g opacity="0.3">
<g style="mix-blend-mode:screen" opacity="0.3" filter="url(#filter6_f_3923_1022)">
<path d="M256.2 113.84C259.819 113.732 262.849 116.581 262.969 120.2C263.077 123.819 260.228 126.849 256.609 126.969C252.99 127.077 249.961 124.228 249.841 120.609C249.732 116.99 252.582 113.961 256.2 113.84Z" fill="url(#paint8_radial_3923_1022)"/>
</g>
<g style="mix-blend-mode:screen">
<path d="M256.286 118.838C257.11 118.813 257.8 119.462 257.827 120.286C257.852 121.111 257.203 121.801 256.379 121.828C255.555 121.853 254.866 121.204 254.838 120.38C254.814 119.555 255.462 118.865 256.286 118.838Z" fill="#3FA1E3"/>
</g>
</g>
<g opacity="0.3">
<g style="mix-blend-mode:screen" opacity="0.3" filter="url(#filter7_f_3923_1022)">
<path d="M320.363 125.003C323.982 124.895 327.011 127.744 327.131 131.363C327.24 134.982 324.39 138.011 320.772 138.131C317.153 138.24 314.123 135.39 314.003 131.772C313.895 128.153 316.744 125.123 320.363 125.003Z" fill="url(#paint9_radial_3923_1022)"/>
</g>
<g style="mix-blend-mode:screen">
<path d="M320.449 130.001C321.273 129.976 321.962 130.625 321.99 131.449C322.014 132.273 321.366 132.963 320.542 132.99C319.718 133.015 319.028 132.366 319.001 131.542C318.976 130.718 319.625 130.028 320.449 130.001Z" fill="#3FA1E3"/>
</g>
</g>
</g>
<defs>
<filter id="filter0_f_3923_1022" x="102.281" y="66.8054" width="103.439" height="106.889" filterUnits="userSpaceOnUse" color-interpolation-filters="sRGB">
<feFlood flood-opacity="0" result="BackgroundImageFix"/>
<feBlend mode="normal" in="SourceGraphic" in2="BackgroundImageFix" result="shape"/>
<feGaussianBlur stdDeviation="1" result="effect1_foregroundBlur_3923_1022"/>
</filter>
<filter id="filter1_f_3923_1022" x="94" y="91" width="32.8093" height="32.8093" filterUnits="userSpaceOnUse" color-interpolation-filters="sRGB">
<feFlood flood-opacity="0" result="BackgroundImageFix"/>
<feBlend mode="normal" in="SourceGraphic" in2="BackgroundImageFix" result="shape"/>
<feGaussianBlur stdDeviation="2" result="effect1_foregroundBlur_3923_1022"/>
</filter>
<filter id="filter2_f_3923_1022" x="103" y="100" width="15.1344" height="15.1343" filterUnits="userSpaceOnUse" color-interpolation-filters="sRGB">
<feFlood flood-opacity="0" result="BackgroundImageFix"/>
<feBlend mode="normal" in="SourceGraphic" in2="BackgroundImageFix" result="shape"/>
<feGaussianBlur stdDeviation="0.5" result="effect1_foregroundBlur_3923_1022"/>
</filter>
<filter id="filter3_f_3923_1022" x="113" y="136" width="32.8093" height="32.8093" filterUnits="userSpaceOnUse" color-interpolation-filters="sRGB">
<feFlood flood-opacity="0" result="BackgroundImageFix"/>
<feBlend mode="normal" in="SourceGraphic" in2="BackgroundImageFix" result="shape"/>
<feGaussianBlur stdDeviation="2" result="effect1_foregroundBlur_3923_1022"/>
</filter>
<filter id="filter4_f_3923_1022" x="122" y="145" width="15.1344" height="15.1343" filterUnits="userSpaceOnUse" color-interpolation-filters="sRGB">
<feFlood flood-opacity="0" result="BackgroundImageFix"/>
<feBlend mode="normal" in="SourceGraphic" in2="BackgroundImageFix" result="shape"/>
<feGaussianBlur stdDeviation="0.5" result="effect1_foregroundBlur_3923_1022"/>
</filter>
<filter id="filter5_f_3923_1022" x="211" y="46" width="23.1344" height="23.1343" filterUnits="userSpaceOnUse" color-interpolation-filters="sRGB">
<feFlood flood-opacity="0" result="BackgroundImageFix"/>
<feBlend mode="normal" in="SourceGraphic" in2="BackgroundImageFix" result="shape"/>
<feGaussianBlur stdDeviation="2.5" result="effect1_foregroundBlur_3923_1022"/>
</filter>
<filter id="filter6_f_3923_1022" x="244.838" y="108.837" width="23.1344" height="23.1343" filterUnits="userSpaceOnUse" color-interpolation-filters="sRGB">
<feFlood flood-opacity="0" result="BackgroundImageFix"/>
<feBlend mode="normal" in="SourceGraphic" in2="BackgroundImageFix" result="shape"/>
<feGaussianBlur stdDeviation="2.5" result="effect1_foregroundBlur_3923_1022"/>
</filter>
<filter id="filter7_f_3923_1022" x="309" y="120" width="23.1344" height="23.1343" filterUnits="userSpaceOnUse" color-interpolation-filters="sRGB">
<feFlood flood-opacity="0" result="BackgroundImageFix"/>
<feBlend mode="normal" in="SourceGraphic" in2="BackgroundImageFix" result="shape"/>
<feGaussianBlur stdDeviation="2.5" result="effect1_foregroundBlur_3923_1022"/>
</filter>
<radialGradient id="paint0_radial_3923_1022" cx="0" cy="0" r="1" gradientUnits="userSpaceOnUse" gradientTransform="translate(203 170) rotate(90) scale(136)">
<stop offset="0.480792" stop-color="#232F6F" stop-opacity="0"/>
<stop offset="1" stop-color="#232F6F"/>
</radialGradient>
<linearGradient id="paint1_linear_3923_1022" x1="138.5" y1="103" x2="118" y2="140.5" gradientUnits="userSpaceOnUse">
<stop stop-color="#232F6F"/>
<stop offset="1" stop-color="#232F6F" stop-opacity="0"/>
</linearGradient>
<linearGradient id="paint2_linear_3923_1022" x1="106" y1="120.75" x2="203" y2="120.75" gradientUnits="userSpaceOnUse">
<stop offset="0.5481" stop-color="#3FA1E3"/>
<stop offset="1" stop-color="#3FA1E3" stop-opacity="0"/>
</linearGradient>
<radialGradient id="paint3_radial_3923_1022" cx="0" cy="0" r="1" gradientUnits="userSpaceOnUse" gradientTransform="translate(110.405 107.405) rotate(90) scale(12.4047)">
<stop stop-color="#3FA1E3" stop-opacity="0"/>
<stop offset="1" stop-color="#3FA1E3"/>
</radialGradient>
<radialGradient id="paint4_radial_3923_1022" cx="0" cy="0" r="1" gradientUnits="userSpaceOnUse" gradientTransform="translate(110.567 107.567) rotate(90) scale(6.56719)">
<stop stop-color="#3FA1E3" stop-opacity="0"/>
<stop offset="1" stop-color="#3FA1E3"/>
</radialGradient>
<radialGradient id="paint5_radial_3923_1022" cx="0" cy="0" r="1" gradientUnits="userSpaceOnUse" gradientTransform="translate(129.405 152.405) rotate(90) scale(12.4047)">
<stop stop-color="#3FA1E3" stop-opacity="0"/>
<stop offset="1" stop-color="#3FA1E3"/>
</radialGradient>
<radialGradient id="paint6_radial_3923_1022" cx="0" cy="0" r="1" gradientUnits="userSpaceOnUse" gradientTransform="translate(129.567 152.567) rotate(90) scale(6.56719)">
<stop stop-color="#3FA1E3" stop-opacity="0"/>
<stop offset="1" stop-color="#3FA1E3"/>
</radialGradient>
<radialGradient id="paint7_radial_3923_1022" cx="0" cy="0" r="1" gradientUnits="userSpaceOnUse" gradientTransform="translate(222.567 57.5672) rotate(90) scale(6.56719)">
<stop stop-color="#3FA1E3" stop-opacity="0"/>
<stop offset="1" stop-color="#3FA1E3"/>
</radialGradient>
<radialGradient id="paint8_radial_3923_1022" cx="0" cy="0" r="1" gradientUnits="userSpaceOnUse" gradientTransform="translate(256.405 120.405) rotate(90) scale(6.56719)">
<stop stop-color="#3FA1E3" stop-opacity="0"/>
<stop offset="1" stop-color="#3FA1E3"/>
</radialGradient>
<radialGradient id="paint9_radial_3923_1022" cx="0" cy="0" r="1" gradientUnits="userSpaceOnUse" gradientTransform="translate(320.567 131.567) rotate(90) scale(6.56719)">
<stop stop-color="#3FA1E3" stop-opacity="0"/>
<stop offset="1" stop-color="#3FA1E3"/>
</radialGradient>
<clipPath id="clip0_3923_1022">
<rect width="405" height="180" fill="white"/>
</clipPath>
</defs>
</svg>
