<svg width="405" height="180" viewBox="0 0 405 180" fill="none" xmlns="http://www.w3.org/2000/svg">
<g clip-path="url(#clip0_3923_1051)">
<circle opacity="0.3" cx="299" cy="72" r="27" fill="url(#paint0_radial_3923_1051)"/>
<circle opacity="0.3" cx="299" cy="168" r="27" fill="url(#paint1_radial_3923_1051)"/>
<circle opacity="0.3" cx="203" cy="168" r="27" fill="url(#paint2_radial_3923_1051)"/>
<rect x="63.5" y="28.5" width="87" height="87" rx="29.5" stroke="#232F6F"/>
<rect x="63.5" y="124.5" width="87" height="87" rx="29.5" stroke="#232F6F"/>
<rect x="159.5" y="28.5" width="87" height="87" rx="29.5" stroke="#232F6F"/>
<path d="M159 154C159 137.431 172.431 124 189 124H217C233.569 124 247 137.431 247 154V182C247 198.569 233.569 212 217 212H189C172.431 212 159 198.569 159 182V154Z" stroke="#232F6F" stroke-linecap="round" stroke-linejoin="round" stroke-dasharray="4 5"/>
<rect x="255" y="28" width="88" height="88" rx="30" stroke="#232F6F" stroke-linecap="round" stroke-linejoin="round" stroke-dasharray="4 5"/>
<path d="M255 154C255 137.431 268.431 124 285 124H313C329.569 124 343 137.431 343 154V182C343 198.569 329.569 212 313 212H285C268.431 212 255 198.569 255 182V154Z" stroke="#232F6F" stroke-linecap="round" stroke-linejoin="round" stroke-dasharray="4 5"/>
<path d="M90.0963 68.3048L95.9495 58.4306C97.2101 56.304 99.4989 55 101.971 55H112.029C114.501 55 116.79 56.304 118.051 58.4306L123.904 68.3048C125.198 70.488 125.209 73.2007 123.933 75.3944L118.042 85.5202C116.788 87.6746 114.484 89 111.991 89H102.009C99.5164 89 97.2119 87.6746 95.9585 85.5202L90.0673 75.3944C88.791 73.2007 88.8021 70.488 90.0963 68.3048Z" fill="url(#paint3_linear_3923_1051)"/>
<path d="M105 61H100.6L94 71.5217L100.6 83H105L98.4 71.5217L105 61Z" fill="#131313"/>
<path d="M109 61H113.4L120 71.5217L113.4 83H109L115.6 71.5217L109 61Z" fill="#131313"/>
<path d="M90.0963 164.305L95.9495 154.431C97.2101 152.304 99.4989 151 101.971 151H112.029C114.501 151 116.79 152.304 118.051 154.431L123.904 164.305C125.198 166.488 125.209 169.201 123.933 171.394L118.042 181.52C116.788 183.675 114.484 185 111.991 185H102.009C99.5164 185 97.2119 183.675 95.9585 181.52L90.0673 171.394C88.791 169.201 88.8021 166.488 90.0963 164.305Z" fill="url(#paint4_linear_3923_1051)"/>
<path d="M105 157H100.6L94 167.522L100.6 179H105L98.4 167.522L105 157Z" fill="#131313"/>
<path d="M109 157H113.4L120 167.522L113.4 179H109L115.6 167.522L109 157Z" fill="#131313"/>
<path d="M186.096 68.3048L191.949 58.4306C193.21 56.304 195.499 55 197.971 55H208.029C210.501 55 212.79 56.304 214.051 58.4306L219.904 68.3048C221.198 70.488 221.209 73.2007 219.933 75.3944L214.042 85.5202C212.788 87.6746 210.484 89 207.991 89H198.009C195.516 89 193.212 87.6746 191.958 85.5202L186.067 75.3944C184.791 73.2007 184.802 70.488 186.096 68.3048Z" fill="url(#paint5_linear_3923_1051)"/>
<path d="M201 61H196.6L190 71.5217L196.6 83H201L194.4 71.5217L201 61Z" fill="#131313"/>
<path d="M205 61H209.4L216 71.5217L209.4 83H205L211.6 71.5217L205 61Z" fill="#131313"/>
<path d="M298.193 60.8838C298.601 60.3713 299.4 60.3722 299.807 60.8838L308.286 71.542C308.79 72.175 308.344 73.1367 307.479 73.1367H302.715V82.5107C302.715 83.0478 302.268 83.4999 301.696 83.5H296.304C295.732 83.4998 295.285 83.0478 295.285 82.5107V73.1367H290.521C289.656 73.1367 289.21 72.175 289.714 71.542L298.193 60.8838Z" stroke="#232F6F"/>
<path d="M298.193 156.884C298.601 156.371 299.4 156.372 299.807 156.884L308.286 167.542C308.79 168.175 308.344 169.137 307.479 169.137H302.715V178.511C302.715 179.048 302.268 179.5 301.696 179.5H296.304C295.732 179.5 295.285 179.048 295.285 178.511V169.137H290.521C289.656 169.137 289.21 168.175 289.714 167.542L298.193 156.884Z" stroke="#232F6F"/>
<path d="M202.193 156.884C202.601 156.371 203.4 156.372 203.807 156.884L212.286 167.542C212.79 168.175 212.344 169.137 211.479 169.137H206.715V178.511C206.715 179.048 206.268 179.5 205.696 179.5H200.304C199.732 179.5 199.285 179.048 199.285 178.511V169.137H194.521C193.656 169.137 193.21 168.175 193.714 167.542L202.193 156.884Z" stroke="#232F6F"/>
<rect x="128" y="26" width="18" height="18" rx="9" fill="#131313"/>
<rect x="128" y="26" width="18" height="18" rx="9" stroke="#131313" stroke-width="2"/>
<path d="M137 27C132.6 27 129 30.6 129 35C129 39.4 132.6 43 137 43C141.4 43 145 39.4 145 35C145 30.6 141.4 27 137 27ZM140.36 33.64L136.52 37.48C136.2 37.8 135.72 37.8 135.4 37.48L133.64 35.72C133.32 35.4 133.32 34.92 133.64 34.6C133.96 34.28 134.44 34.28 134.76 34.6L135.96 35.8L139.24 32.52C139.56 32.2 140.04 32.2 140.36 32.52C140.68 32.84 140.68 33.32 140.36 33.64Z" fill="#3FA1E3"/>
<rect x="225" y="26" width="18" height="18" rx="9" fill="#131313"/>
<rect x="225" y="26" width="18" height="18" rx="9" stroke="#131313" stroke-width="2"/>
<path d="M234 27C229.6 27 226 30.6 226 35C226 39.4 229.6 43 234 43C238.4 43 242 39.4 242 35C242 30.6 238.4 27 234 27ZM237.36 33.64L233.52 37.48C233.2 37.8 232.72 37.8 232.4 37.48L230.64 35.72C230.32 35.4 230.32 34.92 230.64 34.6C230.96 34.28 231.44 34.28 231.76 34.6L232.96 35.8L236.24 32.52C236.56 32.2 237.04 32.2 237.36 32.52C237.68 32.84 237.68 33.32 237.36 33.64Z" fill="#3FA1E3"/>
<rect x="128" y="121" width="18" height="18" rx="9" fill="#131313"/>
<rect x="128" y="121" width="18" height="18" rx="9" stroke="#131313" stroke-width="2"/>
<path d="M137 122C132.6 122 129 125.6 129 130C129 134.4 132.6 138 137 138C141.4 138 145 134.4 145 130C145 125.6 141.4 122 137 122ZM140.36 128.64L136.52 132.48C136.2 132.8 135.72 132.8 135.4 132.48L133.64 130.72C133.32 130.4 133.32 129.92 133.64 129.6C133.96 129.28 134.44 129.28 134.76 129.6L135.96 130.8L139.24 127.52C139.56 127.2 140.04 127.2 140.36 127.52C140.68 127.84 140.68 128.32 140.36 128.64Z" fill="#3FA1E3"/>
</g>
<defs>
<radialGradient id="paint0_radial_3923_1051" cx="0" cy="0" r="1" gradientUnits="userSpaceOnUse" gradientTransform="translate(299 72) rotate(90) scale(27)">
<stop offset="0.480792" stop-color="#232F6F" stop-opacity="0"/>
<stop offset="1" stop-color="#232F6F"/>
</radialGradient>
<radialGradient id="paint1_radial_3923_1051" cx="0" cy="0" r="1" gradientUnits="userSpaceOnUse" gradientTransform="translate(299 168) rotate(90) scale(27)">
<stop offset="0.480792" stop-color="#232F6F" stop-opacity="0"/>
<stop offset="1" stop-color="#232F6F"/>
</radialGradient>
<radialGradient id="paint2_radial_3923_1051" cx="0" cy="0" r="1" gradientUnits="userSpaceOnUse" gradientTransform="translate(203 168) rotate(90) scale(27)">
<stop offset="0.480792" stop-color="#232F6F" stop-opacity="0"/>
<stop offset="1" stop-color="#232F6F"/>
</radialGradient>
<linearGradient id="paint3_linear_3923_1051" x1="107" y1="55" x2="107" y2="89" gradientUnits="userSpaceOnUse">
<stop stop-color="#3FA1E3" stop-opacity="0.35"/>
<stop offset="0.605793" stop-color="#3FA1E3"/>
</linearGradient>
<linearGradient id="paint4_linear_3923_1051" x1="107" y1="151" x2="107" y2="185" gradientUnits="userSpaceOnUse">
<stop stop-color="#3FA1E3" stop-opacity="0.35"/>
<stop offset="0.605793" stop-color="#3FA1E3"/>
</linearGradient>
<linearGradient id="paint5_linear_3923_1051" x1="203" y1="55" x2="203" y2="89" gradientUnits="userSpaceOnUse">
<stop stop-color="#3FA1E3" stop-opacity="0.35"/>
<stop offset="0.605793" stop-color="#3FA1E3"/>
</linearGradient>
<clipPath id="clip0_3923_1051">
<rect width="405" height="180" fill="white"/>
</clipPath>
</defs>
</svg>
