<svg width="392" height="146" viewBox="0 0 392 146" fill="none" xmlns="http://www.w3.org/2000/svg">
<g clip-path="url(#clip0_5459_4541)">
<g filter="url(#filter0_f_5459_4541)">
<circle cx="199" cy="75" r="98" stroke="#D252B5" stroke-width="4"/>
</g>
<circle cx="199" cy="75" r="100" stroke="url(#paint0_linear_5459_4541)"/>
<path d="M267 72.5H326.5" stroke="url(#paint1_linear_5459_4541)" stroke-width="1.17753"/>
<path d="M321.5 67.5L326.5 72.5L321.5 77.5" stroke="url(#paint2_linear_5459_4541)" stroke-width="1.17753"/>
<path d="M260.442 43.5312L314.138 17.9004" stroke="url(#paint3_linear_5459_4541)" stroke-width="1.17753"/>
<path d="M307.472 15.543L314.138 17.9014L311.78 24.5676" stroke="url(#paint4_linear_5459_4541)" stroke-width="1.17753"/>
<path d="M259.945 102.488L313.203 129.018" stroke="url(#paint5_linear_5459_4541)" stroke-width="1.17753"/>
<path d="M310.957 122.312L313.203 129.017L306.499 131.263" stroke="url(#paint6_linear_5459_4541)" stroke-width="1.17753"/>
<path d="M132.5 72.5H73" stroke="url(#paint7_linear_5459_4541)" stroke-width="1.17753"/>
<path d="M78 67.5L73 72.5L78 77.5" stroke="url(#paint8_linear_5459_4541)" stroke-width="1.17753"/>
<path d="M139.059 101.473L85.3629 127.103" stroke="url(#paint9_linear_5459_4541)" stroke-width="1.17753"/>
<path d="M87.7214 120.438L85.3629 127.104L92.0291 129.462" stroke="url(#paint10_linear_5459_4541)" stroke-width="1.17753"/>
<path d="M139.556 42.5156L86.2973 15.9863" stroke="url(#paint11_linear_5459_4541)" stroke-width="1.17753"/>
<path d="M93.0021 13.7383L86.2973 15.9844L88.5434 22.6893" stroke="url(#paint12_linear_5459_4541)" stroke-width="1.17753"/>
<path d="M200.242 27H211.756L215.315 37.9476C217.513 44.647 215.554 51.1732 209.558 55.4854L205.999 44.4758L215.314 37.9471H203.801L200.242 27L196.684 37.9471H185.171L194.486 44.4756L190.928 55.4849L200.243 48.8621L209.558 55.4849L200.243 62L190.928 55.4849C184.932 51.173 182.971 44.6466 185.171 37.9471L188.73 27H200.242Z" fill="url(#paint13_linear_5459_4541)"/>
<path d="M203.125 95.4414C202.457 95.9078 201.893 96.5035 201.465 97.1924L201.387 97.3227L199.904 99.8602L193.732 110.441L199.578 120.434L198.097 122.973C197.521 123.963 196.614 124.724 195.533 125.126C194.451 125.528 193.262 125.546 192.169 125.176C191.019 124.797 190.087 123.964 189.457 122.94L189.393 122.834L183.256 112.323C182.917 111.756 182.743 111.099 182.743 110.442C182.742 109.823 182.897 109.214 183.195 108.669L183.256 108.561L189.568 97.7487C189.966 97.0623 190.537 96.4893 191.226 96.0853C191.914 95.6814 192.696 95.4601 193.496 95.4429L193.605 95.4417L203.125 95.4414ZM205.084 95.7063C206.159 95.3477 207.326 95.3613 208.393 95.7448C209.46 96.1284 210.364 96.8592 210.955 97.8173L211.011 97.9104L217.23 108.56C217.569 109.125 217.743 109.784 217.743 110.442C217.743 111.058 217.59 111.674 217.292 112.215L217.23 112.322L210.918 123.134C210.519 123.821 209.948 124.394 209.26 124.798C208.572 125.202 207.79 125.423 206.99 125.44L206.881 125.441H197.361C198.023 124.974 198.585 124.382 199.014 123.699L199.099 123.56L200.581 121.021L206.753 110.441L200.908 100.437L202.308 98.049C202.938 96.9751 203.896 96.0988 205.084 95.7063Z" fill="url(#paint14_linear_5459_4541)"/>
<path fill-rule="evenodd" clip-rule="evenodd" d="M149.708 61.2764C153.126 58.7981 156.544 59.5587 159.706 63.0483V63.0537C162.868 66.5474 166.371 73.3654 165.17 80.594C164.925 82.1549 164.405 83.658 163.634 85.0313C162.123 87.6224 159.636 89.4755 156.748 90.1628C153.546 90.9966 150.148 90.5041 147.303 88.7935C146.942 88.5608 146.596 88.3054 146.267 88.0289C143.748 85.7645 142.23 82.5682 142.053 79.157C141.913 77.2593 142.051 75.351 142.461 73.4942C142.834 71.7882 143.395 70.1306 144.134 68.5525C145.359 65.6892 147.276 63.1863 149.708 61.2764ZM147.03 71.0958C147.422 69.6791 148.802 65.5522 152.061 63.4766C152.224 63.3749 152.321 63.1928 152.316 62.9989C152.31 62.805 152.203 62.6288 152.035 62.5366C151.867 62.4444 151.663 62.4503 151.501 62.552C149.582 63.8574 148.063 65.6825 147.114 67.8204C146.656 68.7792 146.283 69.7773 145.998 70.8029C145.958 70.948 145.979 71.1033 146.056 71.232C146.134 71.3605 146.26 71.4506 146.405 71.4808C146.681 71.5399 146.955 71.3714 147.03 71.0958Z" fill="url(#paint15_linear_5459_4541)"/>
<path d="M156.288 92.7488C160.332 94.6306 165.078 94.0076 168.518 91.1436C174.308 86.2333 175.911 76.2022 175.911 76.2022C175.911 76.2022 176.934 71.0058 175.051 68.0069C173.169 65.008 168.518 65.0338 164.263 66.5156C166.164 70.4546 167.212 74.7619 167.334 79.1468C167.28 85.7598 162.674 91.4315 156.29 92.7447" fill="url(#paint16_linear_5459_4541)"/>
<path d="M239.673 68.4589L240.373 59.8455L240.373 59.8549C240.392 59.7228 240.288 59.6094 240.155 59.6094H237.84C237.717 59.6094 237.613 59.7228 237.623 59.8551L237.963 64.0764H237.254C237.223 64.0766 237.191 64.0831 237.163 64.0958C237.134 64.1084 237.108 64.1269 237.087 64.1499C237.066 64.173 237.049 64.2002 237.039 64.2298C237.029 64.2594 237.025 64.2909 237.027 64.3222L237.424 68.4965C237.831 68.4303 238.246 68.4021 238.672 68.4021C239.006 68.4021 239.341 68.4211 239.673 68.4589Z" fill="url(#paint17_linear_5459_4541)"/>
<path d="M234.239 60.1194C234.362 60.0721 234.494 60.1476 234.532 60.2705H234.542L236.829 68.6005C236.092 68.7686 235.383 69.0388 234.721 69.4032L232.916 65.616C232.86 65.5026 232.916 65.361 233.039 65.3138L233.71 65.0683L231.943 61.2148C231.886 61.1016 231.943 60.96 232.066 60.9127L234.239 60.1194Z" fill="url(#paint18_linear_5459_4541)"/>
<path d="M234.201 69.7148L229.202 62.6694H229.193C229.117 62.5655 228.975 62.5465 228.872 62.6315L227.104 64.1145C227.08 64.1339 227.06 64.1582 227.045 64.186C227.031 64.2137 227.022 64.2442 227.02 64.2754C227.019 64.3066 227.024 64.3379 227.035 64.3671C227.046 64.3963 227.063 64.4228 227.085 64.4448L230.062 67.4577L229.514 67.9112C229.491 67.9318 229.473 67.9569 229.46 67.985C229.447 68.013 229.44 68.0434 229.439 68.0743C229.438 68.1052 229.443 68.1359 229.455 68.1647C229.466 68.1934 229.483 68.2196 229.505 68.2415L232.5 71.1881C232.992 70.6215 233.568 70.1304 234.201 69.7148Z" fill="url(#paint19_linear_5459_4541)"/>
<path d="M224.685 66.8248C224.751 66.7116 224.902 66.6737 225.006 66.7493L232.123 71.6605C231.666 72.2604 231.297 72.9217 231.026 73.6249L227.208 71.8776C227.085 71.8305 227.038 71.6792 227.104 71.566L227.463 70.952L223.626 69.1387C223.599 69.1252 223.575 69.1062 223.555 69.0829C223.535 69.0596 223.52 69.0326 223.512 69.0034C223.503 68.9742 223.5 68.9435 223.503 68.9132C223.507 68.8828 223.516 68.8536 223.532 68.8271L224.685 66.8248Z" fill="url(#paint20_linear_5459_4541)"/>
<path d="M222.454 72.01C222.331 71.9816 222.199 72.0571 222.18 72.1893L222.171 72.1798L221.774 74.456C221.755 74.5882 221.84 74.711 221.972 74.7203L226.197 75.1169L226.074 75.8159C226.067 75.8466 226.067 75.8783 226.074 75.909C226.081 75.9396 226.094 75.9685 226.113 75.9936C226.131 76.0187 226.155 76.0394 226.183 76.0544C226.211 76.0694 226.241 76.0783 226.272 76.0804L230.459 76.4204C230.476 75.6645 230.597 74.9146 230.818 74.1915L222.454 72.01Z" fill="url(#paint21_linear_5459_4541)"/>
<path d="M221.67 78.1016C221.651 77.9695 221.736 77.8466 221.869 77.8373L221.859 77.8369L230.469 77.0441C230.507 77.8089 230.658 78.5548 230.894 79.2538L226.849 80.3682C226.726 80.3966 226.594 80.321 226.575 80.1889L226.452 79.4899L222.351 80.5571C222.228 80.5855 222.095 80.51 222.076 80.3778L221.67 78.1016Z" fill="url(#paint22_linear_5459_4541)"/>
<path d="M223.182 83.739C223.186 83.7693 223.195 83.7986 223.211 83.825L223.201 83.8248L224.363 85.8271C224.43 85.9405 224.581 85.9784 224.685 85.9028L228.172 83.4945L228.531 84.1177C228.547 84.1442 228.568 84.1671 228.593 84.1849C228.619 84.2028 228.647 84.2152 228.677 84.2214C228.708 84.2277 228.739 84.2275 228.769 84.221C228.799 84.2146 228.828 84.2019 228.853 84.1838L232.274 81.7472C231.801 81.1616 231.404 80.51 231.111 79.811L223.305 83.5134C223.278 83.5269 223.254 83.5459 223.234 83.5692C223.214 83.5925 223.199 83.6196 223.191 83.6488C223.182 83.6779 223.179 83.7086 223.182 83.739Z" fill="url(#paint23_linear_5459_4541)"/>
<path d="M226.594 88.3487L232.671 82.2006L232.68 82.2002C233.19 82.7481 233.786 83.2298 234.428 83.6264L232.047 87.083C232.029 87.1094 232.007 87.1318 231.98 87.1487C231.953 87.1656 231.923 87.1767 231.892 87.1811C231.861 87.1856 231.829 87.1834 231.799 87.1747C231.768 87.1659 231.74 87.1508 231.716 87.1304L231.168 86.6675L228.711 90.1241C228.635 90.2281 228.493 90.247 228.389 90.162L226.613 88.679C226.588 88.6596 226.568 88.6353 226.553 88.6075C226.539 88.5798 226.531 88.5493 226.529 88.5181C226.527 88.4869 226.532 88.4556 226.543 88.4264C226.554 88.3972 226.571 88.3707 226.594 88.3487Z" fill="url(#paint24_linear_5459_4541)"/>
<path d="M231.348 91.7678C231.291 91.8811 231.348 92.0227 231.47 92.07L231.461 92.0605L233.635 92.8538C233.757 92.9011 233.89 92.8254 233.928 92.7025L235.052 88.6134L235.723 88.8587C235.846 88.906 235.988 88.8305 236.016 88.7076L237.075 84.6467C236.328 84.5051 235.61 84.2501 234.948 83.9098L231.348 91.7678Z" fill="url(#paint25_linear_5459_4541)"/>
<path d="M236.971 93.3638L237.67 84.7506C238.001 84.7978 238.332 84.8167 238.672 84.8167C239.097 84.8167 239.513 84.7883 239.919 84.7222L240.316 88.8966C240.326 89.0289 240.222 89.1421 240.089 89.1421H239.381L239.721 93.3636C239.74 93.496 239.636 93.6094 239.503 93.6094H237.188C237.065 93.6094 236.961 93.496 236.971 93.3638Z" fill="url(#paint26_linear_5459_4541)"/>
<path d="M245.883 61.1302C246.006 61.1774 246.062 61.3095 246.006 61.4324L242.395 69.2805C241.734 68.95 241.025 68.6947 240.269 68.5437L241.327 64.4825C241.365 64.3598 241.497 64.2843 241.62 64.3314L242.291 64.5772L243.416 60.4876C243.454 60.3648 243.586 60.2894 243.709 60.3366L245.883 61.1302Z" fill="url(#paint27_linear_5459_4541)"/>
<path d="M244.673 71.0086L250.75 64.8608L250.759 64.8602C250.844 64.7657 250.844 64.6147 250.74 64.5297L248.964 63.0469C248.869 62.9619 248.718 62.9808 248.642 63.0848L246.185 66.5414L245.637 66.0785C245.533 65.9935 245.382 66.0219 245.306 66.1258L242.925 69.5825C243.57 69.9757 244.158 70.4556 244.673 71.0086Z" fill="url(#paint28_linear_5459_4541)"/>
<path d="M254.133 69.3845C254.199 69.4979 254.162 69.6397 254.039 69.6961L254.029 69.7056L246.223 73.4078C245.921 72.709 245.533 72.0573 245.061 71.4717L248.482 69.035C248.586 68.9502 248.737 68.9878 248.803 69.1012L249.162 69.715L252.649 67.3067C252.753 67.2406 252.905 67.269 252.971 67.3822L254.133 69.3845Z" fill="url(#paint29_linear_5459_4541)"/>
<path d="M255.664 75.1079L255.267 72.8316L255.249 72.8411C255.23 72.709 255.097 72.6334 254.974 72.6616L250.873 73.7288L250.75 73.0299C250.731 72.8979 250.599 72.8129 250.476 72.8506L246.431 73.9651C246.667 74.6639 246.818 75.4006 246.856 76.1751L255.466 75.3722C255.497 75.3685 255.526 75.3587 255.553 75.3433C255.58 75.3279 255.603 75.3072 255.622 75.2825C255.64 75.2578 255.654 75.2296 255.661 75.1996C255.668 75.1695 255.669 75.1383 255.664 75.1079Z" fill="url(#paint30_linear_5459_4541)"/>
<path d="M255.154 81.0106C255.135 81.1427 255.003 81.2182 254.88 81.19L254.87 81.1804L246.506 78.9988C246.728 78.2758 246.849 77.5259 246.866 76.7701L251.052 77.1099C251.083 77.1136 251.113 77.1234 251.139 77.1388C251.166 77.1542 251.19 77.1749 251.208 77.1997C251.227 77.2244 251.24 77.2526 251.247 77.2827C251.255 77.3127 251.256 77.3439 251.251 77.3744L251.128 78.0732L255.352 78.47C255.383 78.4737 255.413 78.4835 255.439 78.4989C255.466 78.5143 255.49 78.535 255.508 78.5597C255.527 78.5844 255.54 78.6126 255.547 78.6426C255.555 78.6727 255.556 78.7038 255.551 78.7343L255.154 81.0106Z" fill="url(#paint31_linear_5459_4541)"/>
<path d="M252.328 86.46C252.432 86.5261 252.583 86.4977 252.649 86.3845L253.802 84.3822C253.869 84.2688 253.821 84.1272 253.708 84.0706L249.871 82.2572L250.23 81.6433C250.296 81.5301 250.249 81.3882 250.126 81.3316L246.308 79.5844C246.037 80.2876 245.668 80.949 245.212 81.549L252.328 86.46Z" fill="url(#paint32_linear_5459_4541)"/>
<path d="M248.132 90.5304L243.133 83.485H243.123C243.756 83.0789 244.323 82.5783 244.824 82.0117L247.82 84.9583C247.915 85.0528 247.915 85.2039 247.811 85.2889L247.262 85.7423L250.239 88.755C250.325 88.8494 250.325 89.0005 250.221 89.0855L248.453 90.5683C248.359 90.6533 248.208 90.6344 248.132 90.5304Z" fill="url(#paint33_linear_5459_4541)"/>
<path d="M242.792 92.9293C242.83 93.0522 242.962 93.1277 243.085 93.0804H243.095L245.268 92.2872C245.391 92.24 245.448 92.1079 245.391 91.985L243.624 88.1317L244.295 87.886C244.418 87.8483 244.475 87.7067 244.418 87.5838L242.613 83.7966C241.951 84.1611 241.242 84.4313 240.505 84.5993L242.792 92.9293Z" fill="url(#paint34_linear_5459_4541)"/>
</g>
<defs>
<filter id="filter0_f_5459_4541" x="83" y="-41" width="232" height="232" filterUnits="userSpaceOnUse" color-interpolation-filters="sRGB">
<feFlood flood-opacity="0" result="BackgroundImageFix"/>
<feBlend mode="normal" in="SourceGraphic" in2="BackgroundImageFix" result="shape"/>
<feGaussianBlur stdDeviation="8" result="effect1_foregroundBlur_5459_4541"/>
</filter>
<linearGradient id="paint0_linear_5459_4541" x1="200.02" y1="-22.9944" x2="200.02" y2="174.965" gradientUnits="userSpaceOnUse">
<stop offset="0.15" stop-color="#D252B5"/>
<stop offset="1" stop-color="#D252B5" stop-opacity="0"/>
</linearGradient>
<linearGradient id="paint1_linear_5459_4541" x1="326.5" y1="72.7241" x2="273.839" y2="72.7241" gradientUnits="userSpaceOnUse">
<stop stop-color="#D252B5"/>
<stop offset="1" stop-color="#D252B5" stop-opacity="0"/>
</linearGradient>
<linearGradient id="paint2_linear_5459_4541" x1="326.5" y1="69.7414" x2="322.075" y2="69.7414" gradientUnits="userSpaceOnUse">
<stop stop-color="#D252B5"/>
<stop offset="1" stop-color="#D252B5" stop-opacity="0"/>
</linearGradient>
<linearGradient id="paint3_linear_5459_4541" x1="314.235" y1="18.1027" x2="266.71" y2="40.7874" gradientUnits="userSpaceOnUse">
<stop stop-color="#D252B5"/>
<stop offset="1" stop-color="#D252B5" stop-opacity="0"/>
</linearGradient>
<linearGradient id="paint4_linear_5459_4541" x1="312.95" y1="15.4119" x2="308.956" y2="17.3182" gradientUnits="userSpaceOnUse">
<stop stop-color="#D252B5"/>
<stop offset="1" stop-color="#D252B5" stop-opacity="0"/>
</linearGradient>
<linearGradient id="paint5_linear_5459_4541" x1="313.104" y1="129.218" x2="265.967" y2="105.738" gradientUnits="userSpaceOnUse">
<stop stop-color="#D252B5"/>
<stop offset="1" stop-color="#D252B5" stop-opacity="0"/>
</linearGradient>
<linearGradient id="paint6_linear_5459_4541" x1="314.433" y1="126.548" x2="310.472" y2="124.575" gradientUnits="userSpaceOnUse">
<stop stop-color="#D252B5"/>
<stop offset="1" stop-color="#D252B5" stop-opacity="0"/>
</linearGradient>
<linearGradient id="paint7_linear_5459_4541" x1="73" y1="72.7241" x2="125.661" y2="72.7241" gradientUnits="userSpaceOnUse">
<stop stop-color="#D252B5"/>
<stop offset="1" stop-color="#D252B5" stop-opacity="0"/>
</linearGradient>
<linearGradient id="paint8_linear_5459_4541" x1="73" y1="69.7414" x2="77.4253" y2="69.7414" gradientUnits="userSpaceOnUse">
<stop stop-color="#D252B5"/>
<stop offset="1" stop-color="#D252B5" stop-opacity="0"/>
</linearGradient>
<linearGradient id="paint9_linear_5459_4541" x1="85.4594" y1="127.306" x2="132.984" y2="104.621" gradientUnits="userSpaceOnUse">
<stop stop-color="#D252B5"/>
<stop offset="1" stop-color="#D252B5" stop-opacity="0"/>
</linearGradient>
<linearGradient id="paint10_linear_5459_4541" x1="84.1746" y1="124.614" x2="88.1682" y2="122.708" gradientUnits="userSpaceOnUse">
<stop stop-color="#D252B5"/>
<stop offset="1" stop-color="#D252B5" stop-opacity="0"/>
</linearGradient>
<linearGradient id="paint11_linear_5459_4541" x1="86.1973" y1="16.1869" x2="133.334" y2="39.6669" gradientUnits="userSpaceOnUse">
<stop stop-color="#D252B5"/>
<stop offset="1" stop-color="#D252B5" stop-opacity="0"/>
</linearGradient>
<linearGradient id="paint12_linear_5459_4541" x1="87.5273" y1="13.5152" x2="91.4883" y2="15.4883" gradientUnits="userSpaceOnUse">
<stop stop-color="#D252B5"/>
<stop offset="1" stop-color="#D252B5" stop-opacity="0"/>
</linearGradient>
<linearGradient id="paint13_linear_5459_4541" x1="200.243" y1="27" x2="200.243" y2="62" gradientUnits="userSpaceOnUse">
<stop stop-color="#D252B5" stop-opacity="0.35"/>
<stop offset="0.605793" stop-color="#D252B5"/>
</linearGradient>
<linearGradient id="paint14_linear_5459_4541" x1="200.243" y1="95.4414" x2="200.243" y2="125.441" gradientUnits="userSpaceOnUse">
<stop stop-color="#D252B5" stop-opacity="0.35"/>
<stop offset="0.605793" stop-color="#D252B5"/>
</linearGradient>
<linearGradient id="paint15_linear_5459_4541" x1="153.706" y1="59.8242" x2="153.706" y2="90.5594" gradientUnits="userSpaceOnUse">
<stop stop-color="#D252B5" stop-opacity="0.35"/>
<stop offset="0.605793" stop-color="#D252B5"/>
</linearGradient>
<linearGradient id="paint16_linear_5459_4541" x1="166.238" y1="65.5352" x2="166.238" y2="93.8235" gradientUnits="userSpaceOnUse">
<stop stop-color="#D252B5" stop-opacity="0.35"/>
<stop offset="0.605793" stop-color="#D252B5"/>
</linearGradient>
<linearGradient id="paint17_linear_5459_4541" x1="238.667" y1="59.6094" x2="238.667" y2="93.6094" gradientUnits="userSpaceOnUse">
<stop stop-color="#D252B5" stop-opacity="0.35"/>
<stop offset="0.605793" stop-color="#D252B5"/>
</linearGradient>
<linearGradient id="paint18_linear_5459_4541" x1="238.667" y1="59.6094" x2="238.667" y2="93.6094" gradientUnits="userSpaceOnUse">
<stop stop-color="#D252B5" stop-opacity="0.35"/>
<stop offset="0.605793" stop-color="#D252B5"/>
</linearGradient>
<linearGradient id="paint19_linear_5459_4541" x1="238.667" y1="59.6094" x2="238.667" y2="93.6094" gradientUnits="userSpaceOnUse">
<stop stop-color="#D252B5" stop-opacity="0.35"/>
<stop offset="0.605793" stop-color="#D252B5"/>
</linearGradient>
<linearGradient id="paint20_linear_5459_4541" x1="238.667" y1="59.6094" x2="238.667" y2="93.6094" gradientUnits="userSpaceOnUse">
<stop stop-color="#D252B5" stop-opacity="0.35"/>
<stop offset="0.605793" stop-color="#D252B5"/>
</linearGradient>
<linearGradient id="paint21_linear_5459_4541" x1="238.667" y1="59.6094" x2="238.667" y2="93.6094" gradientUnits="userSpaceOnUse">
<stop stop-color="#D252B5" stop-opacity="0.35"/>
<stop offset="0.605793" stop-color="#D252B5"/>
</linearGradient>
<linearGradient id="paint22_linear_5459_4541" x1="238.667" y1="59.6094" x2="238.667" y2="93.6094" gradientUnits="userSpaceOnUse">
<stop stop-color="#D252B5" stop-opacity="0.35"/>
<stop offset="0.605793" stop-color="#D252B5"/>
</linearGradient>
<linearGradient id="paint23_linear_5459_4541" x1="238.667" y1="59.6094" x2="238.667" y2="93.6094" gradientUnits="userSpaceOnUse">
<stop stop-color="#D252B5" stop-opacity="0.35"/>
<stop offset="0.605793" stop-color="#D252B5"/>
</linearGradient>
<linearGradient id="paint24_linear_5459_4541" x1="238.667" y1="59.6094" x2="238.667" y2="93.6094" gradientUnits="userSpaceOnUse">
<stop stop-color="#D252B5" stop-opacity="0.35"/>
<stop offset="0.605793" stop-color="#D252B5"/>
</linearGradient>
<linearGradient id="paint25_linear_5459_4541" x1="238.667" y1="59.6094" x2="238.667" y2="93.6094" gradientUnits="userSpaceOnUse">
<stop stop-color="#D252B5" stop-opacity="0.35"/>
<stop offset="0.605793" stop-color="#D252B5"/>
</linearGradient>
<linearGradient id="paint26_linear_5459_4541" x1="238.667" y1="59.6094" x2="238.667" y2="93.6094" gradientUnits="userSpaceOnUse">
<stop stop-color="#D252B5" stop-opacity="0.35"/>
<stop offset="0.605793" stop-color="#D252B5"/>
</linearGradient>
<linearGradient id="paint27_linear_5459_4541" x1="238.667" y1="59.6094" x2="238.667" y2="93.6094" gradientUnits="userSpaceOnUse">
<stop stop-color="#D252B5" stop-opacity="0.35"/>
<stop offset="0.605793" stop-color="#D252B5"/>
</linearGradient>
<linearGradient id="paint28_linear_5459_4541" x1="238.667" y1="59.6094" x2="238.667" y2="93.6094" gradientUnits="userSpaceOnUse">
<stop stop-color="#D252B5" stop-opacity="0.35"/>
<stop offset="0.605793" stop-color="#D252B5"/>
</linearGradient>
<linearGradient id="paint29_linear_5459_4541" x1="238.667" y1="59.6094" x2="238.667" y2="93.6094" gradientUnits="userSpaceOnUse">
<stop stop-color="#D252B5" stop-opacity="0.35"/>
<stop offset="0.605793" stop-color="#D252B5"/>
</linearGradient>
<linearGradient id="paint30_linear_5459_4541" x1="238.667" y1="59.6094" x2="238.667" y2="93.6094" gradientUnits="userSpaceOnUse">
<stop stop-color="#D252B5" stop-opacity="0.35"/>
<stop offset="0.605793" stop-color="#D252B5"/>
</linearGradient>
<linearGradient id="paint31_linear_5459_4541" x1="238.667" y1="59.6094" x2="238.667" y2="93.6094" gradientUnits="userSpaceOnUse">
<stop stop-color="#D252B5" stop-opacity="0.35"/>
<stop offset="0.605793" stop-color="#D252B5"/>
</linearGradient>
<linearGradient id="paint32_linear_5459_4541" x1="238.667" y1="59.6094" x2="238.667" y2="93.6094" gradientUnits="userSpaceOnUse">
<stop stop-color="#D252B5" stop-opacity="0.35"/>
<stop offset="0.605793" stop-color="#D252B5"/>
</linearGradient>
<linearGradient id="paint33_linear_5459_4541" x1="238.667" y1="59.6094" x2="238.667" y2="93.6094" gradientUnits="userSpaceOnUse">
<stop stop-color="#D252B5" stop-opacity="0.35"/>
<stop offset="0.605793" stop-color="#D252B5"/>
</linearGradient>
<linearGradient id="paint34_linear_5459_4541" x1="238.667" y1="59.6094" x2="238.667" y2="93.6094" gradientUnits="userSpaceOnUse">
<stop stop-color="#D252B5" stop-opacity="0.35"/>
<stop offset="0.605793" stop-color="#D252B5"/>
</linearGradient>
<clipPath id="clip0_5459_4541">
<rect width="392" height="146" fill="white"/>
</clipPath>
</defs>
</svg>
