<svg width="480" height="400" viewBox="0 0 480 400" fill="none" xmlns="http://www.w3.org/2000/svg">
<g clip-path="url(#clip0_5026_4916)">
<g opacity="0.2" filter="url(#filter0_f_5026_4916)">
<ellipse cx="127.5" cy="273" rx="43.5" ry="43" fill="#D252B5"/>
</g>
<g opacity="0.2" filter="url(#filter1_f_5026_4916)">
<ellipse cx="78.5" cy="346" rx="43.5" ry="43" fill="#D252B5"/>
</g>
<g opacity="0.2" filter="url(#filter2_f_5026_4916)">
<ellipse cx="238.5" cy="273" rx="43.5" ry="43" fill="#D252B5"/>
</g>
<g opacity="0.2" filter="url(#filter3_f_5026_4916)">
<ellipse cx="189.5" cy="346" rx="43.5" ry="43" fill="#D252B5"/>
</g>
<g opacity="0.2" filter="url(#filter4_f_5026_4916)">
<ellipse cx="343.5" cy="273" rx="43.5" ry="43" fill="#D252B5"/>
</g>
<g opacity="0.2" filter="url(#filter5_f_5026_4916)">
<ellipse cx="294.5" cy="346" rx="43.5" ry="43" fill="#D252B5"/>
</g>
<g opacity="0.2" filter="url(#filter6_f_5026_4916)">
<ellipse cx="392.5" cy="346" rx="43.5" ry="43" fill="#D252B5"/>
</g>
<path d="M329 272C329 263.178 336.178 256 345 256C348.563 256 351.936 257.146 354.753 259.315L351.035 264.145C349.293 262.804 347.206 262.095 345 262.095C339.539 262.095 335.095 266.539 335.095 272C335.095 277.461 339.539 281.905 345 281.905C349.399 281.905 353.137 279.023 354.425 275.048H345V268.952H361V272C361 280.822 353.822 288 345 288C336.178 288 329 280.822 329 272Z" stroke="#D252B5" stroke-width="1.5"/>
<path d="M252.787 264.169C251.311 261.656 249.31 259.666 246.782 258.2C244.254 256.733 241.494 256 238.5 256C235.506 256 232.745 256.733 230.218 258.2C227.69 259.666 225.688 261.656 224.213 264.169C222.738 266.681 222 269.425 222 272.401C222 275.974 223.049 279.188 225.147 282.043C227.246 284.897 229.956 286.872 233.279 287.969C233.666 288.04 233.952 287.99 234.138 287.819C234.325 287.649 234.418 287.435 234.418 287.179C234.418 287.136 234.414 286.752 234.407 286.026C234.4 285.392 234.396 284.759 234.396 284.125L233.902 284.21C233.587 284.268 233.189 284.292 232.709 284.285C232.23 284.278 231.732 284.228 231.216 284.136C230.7 284.044 230.221 283.83 229.777 283.495C229.333 283.161 229.018 282.723 228.832 282.182L228.617 281.691C228.474 281.364 228.248 281 227.94 280.602C227.632 280.203 227.321 279.933 227.006 279.79L226.855 279.683C226.755 279.612 226.662 279.526 226.576 279.427C226.49 279.327 226.426 279.228 226.383 279.128C226.34 279.028 226.375 278.946 226.49 278.882C226.605 278.818 226.812 278.786 227.113 278.786L227.543 278.85C227.829 278.907 228.183 279.078 228.606 279.363C229.029 279.647 229.376 280.018 229.648 280.473C229.978 281.057 230.375 281.502 230.84 281.808C231.306 282.114 231.775 282.267 232.248 282.267C232.72 282.267 233.128 282.231 233.472 282.16C233.816 282.089 234.138 281.982 234.439 281.84C234.568 280.886 234.919 280.152 235.491 279.64C234.675 279.555 233.941 279.426 233.289 279.256C232.638 279.085 231.965 278.807 231.27 278.422C230.575 278.038 229.999 277.561 229.54 276.992C229.082 276.422 228.706 275.675 228.413 274.749C228.119 273.824 227.972 272.756 227.972 271.546C227.972 269.823 228.538 268.357 229.67 267.147C229.14 265.851 229.19 264.399 229.82 262.79C230.235 262.662 230.851 262.758 231.668 263.079C232.484 263.399 233.082 263.673 233.462 263.901C233.841 264.128 234.146 264.321 234.375 264.477C235.707 264.107 237.082 263.922 238.5 263.922C239.918 263.922 241.293 264.107 242.625 264.477L243.441 263.965C244 263.623 244.659 263.31 245.418 263.025C246.177 262.741 246.757 262.662 247.158 262.791C247.803 264.399 247.86 265.852 247.33 267.147C248.461 268.357 249.027 269.824 249.027 271.546C249.027 272.756 248.88 273.827 248.587 274.76C248.294 275.693 247.914 276.44 247.449 277.002C246.983 277.565 246.403 278.038 245.708 278.423C245.014 278.807 244.34 279.084 243.689 279.255C243.037 279.426 242.303 279.555 241.487 279.64C242.231 280.281 242.603 281.292 242.603 282.673V287.178C242.603 287.434 242.693 287.648 242.872 287.819C243.051 287.989 243.334 288.039 243.721 287.968C247.044 286.872 249.755 284.897 251.853 282.042C253.951 279.188 255 275.974 255 272.4C254.999 269.425 254.261 266.681 252.787 264.169Z" stroke="#D252B5" stroke-width="1.5"/>
<path d="M383.2 346.4C384.967 346.4 386.4 344.967 386.4 343.2C386.4 341.433 384.967 340 383.2 340C381.433 340 380 341.433 380 343.2C380 344.967 381.433 346.4 383.2 346.4Z" stroke="#D252B5" stroke-width="1.5"/>
<path d="M396 346.4C397.767 346.4 399.2 344.967 399.2 343.2C399.2 341.433 397.767 340 396 340C394.233 340 392.8 341.433 392.8 343.2C392.8 344.967 394.233 346.4 396 346.4Z" stroke="#D252B5" stroke-width="1.5"/>
<path d="M408.8 346.4C410.567 346.4 412 344.967 412 343.2C412 341.433 410.567 340 408.8 340C407.032 340 405.6 341.433 405.6 343.2C405.6 344.967 407.032 346.4 408.8 346.4Z" stroke="#D252B5" stroke-width="1.5"/>
<path d="M182.502 328.79L182.287 328.072L182.286 328.072L182.502 328.79ZM191.907 328.436L192.068 327.703L192.068 327.703L191.907 328.436ZM200.3 332.693L201.044 332.783L201.091 332.392L200.796 332.131L200.3 332.693ZM200.288 332.791L200.818 333.321L201.002 333.138L201.033 332.88L200.288 332.791ZM194.517 338.562L193.986 338.032L193.4 338.619L194.042 339.143L194.517 338.562ZM194.606 338.638V339.388H196.673L195.088 338.062L194.606 338.638ZM194.488 338.638L194.016 339.221L194.223 339.388H194.488V338.638ZM187.15 336.35L187.094 335.602L187.094 335.602L187.15 336.35ZM180.243 339.721L180.096 340.456L180.512 340.539L180.798 340.226L180.243 339.721ZM180.122 339.753L179.978 340.489L180.26 340.544L180.507 340.397L180.122 339.753ZM177.476 339.501L177.473 338.751L177.471 338.751L177.476 339.501ZM170.083 341.747L170.271 342.473L170.392 342.442L170.497 342.373L170.083 341.747ZM169.79 341.844L169.066 341.647L168.668 343.114L170.074 342.538L169.79 341.844ZM174.454 333.67L173.917 333.147L173.917 333.147L174.454 333.67ZM182.502 328.79L182.717 329.508C185.649 328.629 188.757 328.512 191.747 329.168L191.907 328.436L192.068 327.703C188.829 326.993 185.462 327.119 182.287 328.072L182.502 328.79ZM191.907 328.436L191.747 329.168C194.736 329.824 197.509 331.23 199.804 333.256L200.3 332.693L200.796 332.131C198.31 329.937 195.306 328.413 192.068 327.703L191.907 328.436ZM200.3 332.693L199.555 332.604L199.543 332.702L200.288 332.791L201.033 332.88L201.044 332.783L200.3 332.693ZM200.288 332.791L199.758 332.261L193.986 338.032L194.517 338.562L195.047 339.093L200.818 333.321L200.288 332.791ZM194.517 338.562L194.042 339.143C194.069 339.165 194.085 339.179 194.125 339.213L194.606 338.638L195.088 338.062C195.068 338.046 195.025 338.009 194.991 337.982L194.517 338.562ZM194.606 338.638V337.888H194.488V338.638V339.388H194.606V338.638ZM194.488 338.638L194.96 338.055C192.747 336.264 189.932 335.386 187.094 335.602L187.15 336.35L187.207 337.097C189.665 336.911 192.101 337.67 194.016 339.221L194.488 338.638ZM187.15 336.35L187.094 335.602C184.255 335.818 181.605 337.111 179.689 339.216L180.243 339.721L180.798 340.226C182.457 338.403 184.75 337.284 187.207 337.097L187.15 336.35ZM180.243 339.721L180.39 338.985C180.079 338.923 179.835 339.051 179.737 339.109L180.122 339.753L180.507 340.397C180.49 340.407 180.449 340.429 180.387 340.447C180.324 340.464 180.221 340.481 180.096 340.456L180.243 339.721ZM180.122 339.753L180.266 339.017C179.349 338.838 178.414 338.748 177.473 338.751L177.476 339.501L177.478 340.251C178.32 340.248 179.157 340.329 179.978 340.489L180.122 339.753ZM177.476 339.501L177.471 338.751C174.691 338.768 171.981 339.594 169.67 341.121L170.083 341.747L170.497 342.373C172.566 341.005 174.992 340.266 177.48 340.251L177.476 339.501ZM170.083 341.747L169.895 341.021C169.767 341.054 169.636 341.096 169.506 341.15L169.79 341.844L170.074 342.538C170.136 342.513 170.201 342.491 170.271 342.473L170.083 341.747ZM169.79 341.844L170.514 342.04C171.315 339.086 172.856 336.386 174.991 334.193L174.454 333.67L173.917 333.147C171.604 335.522 169.934 338.448 169.066 341.647L169.79 341.844ZM174.454 333.67L174.991 334.193C177.127 332.001 179.786 330.388 182.717 329.508L182.502 328.79L182.286 328.072C179.111 329.024 176.23 330.772 173.917 333.147L174.454 333.67Z" fill="#D252B5"/>
<path d="M200.373 332.707L200.871 332.146L200.342 331.677L199.843 332.177L200.373 332.707ZM206.038 341.842L205.314 342.038L205.387 342.307L205.618 342.463L206.038 341.842ZM211.235 348.583L211.943 348.335L211.943 348.335L211.235 348.583ZM211.39 357.094L212.106 357.316L212.106 357.316L211.39 357.094ZM206.44 364.019L206.883 364.624L206.883 364.624L206.44 364.019ZM198.338 366.628L198.344 365.878H198.338V366.628ZM187.914 366.628L187.384 367.158L187.603 367.378H187.914V366.628ZM187.857 366.571V365.821H186.047L187.327 367.102L187.857 366.571ZM187.899 366.571V367.321H188.649V366.571H187.899ZM187.899 358.298L187.369 357.768L187.149 357.987V358.298H187.899ZM187.914 358.283V357.533H187.603L187.384 357.753L187.914 358.283ZM198.338 358.283V359.033H198.338L198.338 358.283ZM200.332 357.887L200.619 358.58L200.619 358.58L200.332 357.887ZM202.023 356.757L202.554 357.287L202.554 357.287L202.023 356.757ZM203.153 355.065L203.846 355.352L203.846 355.352L203.153 355.065ZM203.55 353.071L204.3 353.071V353.071H203.55ZM203.153 351.076L203.846 350.789L203.846 350.789L203.153 351.076ZM202.023 349.386L202.554 348.855L202.554 348.855L202.023 349.386ZM200.332 348.256L200.619 347.563L200.619 347.563L200.332 348.256ZM198.338 347.859H197.588V348.609L198.338 348.609L198.338 347.859ZM198.338 346.819L197.588 346.805V346.819H198.338ZM197.377 342.252L198.058 341.937L198.058 341.937L197.377 342.252ZM194.517 338.562L193.986 338.032L193.4 338.619L194.042 339.143L194.517 338.562ZM200.373 332.707L199.875 333.268C202.503 335.6 204.394 338.648 205.314 342.038L206.038 341.842L206.762 341.645C205.765 337.973 203.717 334.672 200.871 332.146L200.373 332.707ZM206.038 341.842L205.618 342.463C207.896 344.004 209.617 346.237 210.528 348.831L211.235 348.583L211.943 348.335C210.926 345.436 209.003 342.942 206.458 341.221L206.038 341.842ZM211.235 348.583L210.528 348.831C211.438 351.426 211.489 354.245 210.673 356.871L211.39 357.094L212.106 357.316C213.017 354.383 212.96 351.233 211.943 348.335L211.235 348.583ZM211.39 357.094L210.673 356.871C209.858 359.497 208.218 361.791 205.998 363.413L206.44 364.019L206.883 364.624C209.363 362.812 211.194 360.25 212.106 357.316L211.39 357.094ZM206.44 364.019L205.998 363.413C203.778 365.035 201.093 365.899 198.344 365.878L198.338 366.628L198.332 367.378C201.404 367.402 204.402 366.436 206.883 364.624L206.44 364.019ZM198.338 366.628V365.878H187.914V366.628V367.378H198.338V366.628ZM187.914 366.628L188.444 366.098L188.388 366.041L187.857 366.571L187.327 367.102L187.384 367.158L187.914 366.628ZM187.857 366.571V367.321H187.899V366.571V365.821H187.857V366.571ZM187.899 366.571H188.649V358.298H187.899H187.149V366.571H187.899ZM187.899 358.298L188.43 358.828L188.444 358.814L187.914 358.283L187.384 357.753L187.369 357.768L187.899 358.298ZM187.914 358.283V359.033H198.338V358.283V357.533H187.914V358.283ZM198.338 358.283L198.338 359.033C199.121 359.033 199.896 358.879 200.619 358.58L200.332 357.887L200.045 357.194C199.504 357.418 198.924 357.533 198.338 357.533L198.338 358.283ZM200.332 357.887L200.619 358.58C201.342 358.28 202 357.841 202.554 357.287L202.023 356.757L201.493 356.227C201.079 356.641 200.587 356.97 200.045 357.194L200.332 357.887ZM202.023 356.757L202.554 357.287C203.107 356.733 203.547 356.076 203.846 355.352L203.153 355.065L202.46 354.778C202.236 355.32 201.907 355.812 201.493 356.227L202.023 356.757ZM203.153 355.065L203.846 355.352C204.146 354.629 204.3 353.854 204.3 353.071L203.55 353.071L202.8 353.071C202.8 353.657 202.684 354.237 202.46 354.778L203.153 355.065ZM203.55 353.071H204.3C204.3 352.289 204.146 351.513 203.846 350.789L203.153 351.076L202.46 351.363C202.685 351.904 202.8 352.485 202.8 353.071H203.55ZM203.153 351.076L203.846 350.789C203.547 350.066 203.107 349.409 202.554 348.855L202.023 349.386L201.493 349.916C201.907 350.33 202.236 350.822 202.46 351.363L203.153 351.076ZM202.023 349.386L202.554 348.855C202 348.302 201.342 347.862 200.619 347.563L200.332 348.256L200.045 348.949C200.587 349.173 201.079 349.502 201.493 349.916L202.023 349.386ZM200.332 348.256L200.619 347.563C199.896 347.263 199.121 347.109 198.338 347.109L198.338 347.859L198.338 348.609C198.924 348.609 199.504 348.725 200.045 348.949L200.332 348.256ZM198.338 347.859H199.088V346.819H198.338H197.588V347.859H198.338ZM198.338 346.819L199.088 346.833C199.12 345.144 198.767 343.47 198.058 341.937L197.377 342.252L196.696 342.567C197.31 343.894 197.616 345.343 197.588 346.805L198.338 346.819ZM197.377 342.252L198.058 341.937C197.348 340.404 196.3 339.051 194.991 337.982L194.517 338.562L194.042 339.143C195.174 340.069 196.082 341.24 196.696 342.567L197.377 342.252ZM194.517 338.562L195.047 339.093L200.903 333.237L200.373 332.707L199.843 332.177L193.986 338.032L194.517 338.562Z" fill="#D252B5"/>
<path d="M175.333 357.762L175.643 357.079L175.17 356.864L174.803 357.231L175.333 357.762ZM177.476 358.226L177.475 358.976H177.476V358.226ZM187.899 358.226H188.649V357.476H187.899V358.226ZM187.899 366.57V367.32H188.649V366.57H187.899ZM177.476 366.57V365.82L177.472 365.82L177.476 366.57ZM169.292 363.848L168.562 363.677L168.451 364.152L168.84 364.446L169.292 363.848ZM169.306 363.789L168.775 363.259L168.624 363.41L168.575 363.619L169.306 363.789ZM175.333 357.762L175.023 358.445C175.793 358.795 176.63 358.975 177.475 358.976L177.476 358.226L177.476 357.476C176.843 357.475 176.219 357.34 175.643 357.079L175.333 357.762ZM177.476 358.226V358.976H187.899V358.226V357.476H177.476V358.226ZM187.899 358.226H187.149V366.57H187.899H188.649V358.226H187.899ZM187.899 366.57V365.82H177.476V366.57V367.32H187.899V366.57ZM177.476 366.57L177.472 365.82C174.684 365.832 171.969 364.929 169.744 363.249L169.292 363.848L168.84 364.446C171.327 366.324 174.362 367.334 177.479 367.32L177.476 366.57ZM169.292 363.848L170.022 364.018L170.036 363.959L169.306 363.789L168.575 363.619L168.562 363.677L169.292 363.848ZM169.306 363.789L169.836 364.319L175.863 358.292L175.333 357.762L174.803 357.231L168.775 363.259L169.306 363.789Z" fill="#D252B5"/>
<path d="M177.476 339.5C174.651 339.517 171.903 340.416 169.614 342.07C167.325 343.725 165.61 346.053 164.709 348.73C163.808 351.407 163.765 354.298 164.586 357.001C165.408 359.703 167.053 362.081 169.292 363.803L175.338 357.756C174.57 357.409 173.897 356.881 173.378 356.217C172.859 355.552 172.508 354.772 172.357 353.943C172.206 353.113 172.258 352.259 172.509 351.454C172.76 350.65 173.203 349.918 173.799 349.321C174.395 348.725 175.127 348.283 175.932 348.031C176.737 347.78 177.59 347.728 178.42 347.88C179.249 348.031 180.03 348.381 180.694 348.901C181.358 349.42 181.887 350.093 182.234 350.861L188.28 344.814C187.011 343.155 185.375 341.812 183.501 340.89C181.627 339.968 179.564 339.493 177.476 339.5Z" stroke="#D252B5" stroke-width="1.5"/>
<path d="M78.206 361.971C84.3729 360.857 89.4664 359.936 89.5249 359.923L89.6312 359.9L83.8091 352.822C80.6069 348.929 77.9869 345.729 77.9869 345.71C77.9869 345.675 83.9988 328.754 84.0326 328.694C84.0439 328.674 88.1352 335.893 93.9501 346.194C99.3941 355.838 103.882 363.79 103.924 363.865L104 364L85.4967 363.998L66.9935 363.995L78.206 361.971ZM56 359.812C56 359.802 58.7434 354.935 62.0964 348.996L68.1927 338.197L75.2974 332.103C79.2049 328.752 82.4125 326.005 82.4254 326C82.4382 325.995 82.3868 326.127 82.3111 326.294C82.2355 326.461 78.7639 334.071 74.5965 343.207L67.0195 359.816L61.5098 359.823C58.4794 359.827 56 359.822 56 359.812Z" stroke="#D252B5" stroke-width="1.5"/>
<path fill-rule="evenodd" clip-rule="evenodd" d="M296.408 322.333L295.421 334.493C294.954 334.44 294.487 334.413 294.007 334.413C293.406 334.413 292.819 334.453 292.245 334.547L291.685 328.653C291.672 328.467 291.819 328.307 292.005 328.307H293.006L292.526 322.347C292.512 322.16 292.659 322 292.833 322H296.101C296.288 322 296.435 322.16 296.408 322.347V322.333ZM288.163 322.933C288.109 322.76 287.923 322.653 287.749 322.72L284.68 323.84C284.507 323.907 284.427 324.107 284.507 324.267L287.002 329.707L286.055 330.053C285.881 330.12 285.801 330.32 285.881 330.48L288.43 335.827C289.35 335.32 290.351 334.933 291.405 334.693L288.176 322.933H288.163ZM280.638 326.32L287.696 336.267C286.802 336.853 285.988 337.547 285.294 338.347L281.065 334.187C280.931 334.053 280.944 333.84 281.078 333.72L281.852 333.08L277.649 328.827C277.515 328.693 277.529 328.48 277.676 328.36L280.171 326.267C280.317 326.147 280.518 326.173 280.624 326.32H280.638ZM274.714 332.08C274.567 331.973 274.353 332.027 274.26 332.187L272.632 335.013C272.539 335.173 272.605 335.373 272.766 335.453L278.183 338.013L277.676 338.88C277.582 339.04 277.649 339.253 277.822 339.32L283.213 341.787C283.6 340.787 284.12 339.853 284.76 339.013L274.714 332.08ZM270.724 339.76C270.751 339.573 270.938 339.467 271.111 339.507L282.919 342.587C282.612 343.587 282.439 344.64 282.412 345.733L276.501 345.253C276.315 345.24 276.181 345.067 276.221 344.88L276.395 343.893L270.431 343.333C270.244 343.32 270.124 343.147 270.15 342.96L270.711 339.747L270.724 339.76ZM270.284 347.733C270.097 347.747 269.977 347.92 270.004 348.107L270.577 351.32C270.604 351.507 270.791 351.613 270.964 351.573L276.755 350.067L276.928 351.053C276.955 351.24 277.142 351.347 277.315 351.307L283.026 349.733C282.692 348.747 282.479 347.693 282.425 346.613L270.271 347.733H270.284ZM272.179 356.187C272.085 356.027 272.152 355.827 272.312 355.747L283.333 350.52C283.746 351.507 284.307 352.427 284.974 353.253L280.144 356.693C279.997 356.8 279.784 356.76 279.69 356.6L279.183 355.72L274.26 359.12C274.113 359.227 273.9 359.173 273.806 359.013L272.165 356.187H272.179ZM285.534 353.893L276.955 362.573C276.822 362.707 276.835 362.92 276.982 363.04L279.49 365.133C279.637 365.253 279.837 365.227 279.944 365.08L283.413 360.2L284.187 360.853C284.333 360.973 284.547 360.947 284.654 360.787L288.016 355.907C287.109 355.347 286.268 354.667 285.548 353.893H285.534ZM283.84 367.827C283.666 367.76 283.586 367.56 283.666 367.4L288.75 356.307C289.684 356.787 290.698 357.147 291.752 357.347L290.257 363.08C290.217 363.253 290.017 363.36 289.844 363.293L288.897 362.947L287.309 368.72C287.255 368.893 287.069 369 286.895 368.933L283.826 367.813L283.84 367.827ZM292.592 357.493L291.605 369.653C291.592 369.84 291.738 370 291.912 370H295.181C295.368 370 295.514 369.84 295.488 369.653L295.007 363.693H296.008C296.195 363.693 296.342 363.533 296.328 363.347L295.768 357.453C295.194 357.547 294.607 357.587 294.007 357.587C293.526 357.587 293.059 357.56 292.592 357.493ZM304.36 324.573C304.44 324.4 304.36 324.213 304.187 324.147L301.118 323.027C300.945 322.96 300.758 323.067 300.705 323.24L299.117 329.013L298.17 328.667C297.996 328.6 297.809 328.707 297.756 328.88L296.262 334.613C297.329 334.827 298.33 335.187 299.264 335.653L304.36 324.573ZM311.058 329.413L302.479 338.093C301.759 337.32 300.931 336.64 300.011 336.08L303.373 331.2C303.48 331.053 303.693 331.013 303.84 331.133L304.614 331.787L308.083 326.907C308.19 326.76 308.403 326.733 308.537 326.853L311.045 328.947C311.192 329.067 311.192 329.28 311.072 329.413H311.058ZM315.701 336.24C315.875 336.16 315.928 335.96 315.835 335.8L314.194 332.973C314.1 332.813 313.887 332.773 313.74 332.867L308.817 336.267L308.31 335.4C308.216 335.24 308.003 335.187 307.856 335.307L303.026 338.747C303.693 339.573 304.24 340.493 304.667 341.48L315.688 336.253L315.701 336.24ZM317.436 340.667L317.996 343.88C318.023 344.067 317.903 344.227 317.716 344.253L305.561 345.387C305.508 344.293 305.294 343.253 304.961 342.267L310.671 340.693C310.845 340.64 311.032 340.76 311.058 340.947L311.232 341.933L317.022 340.427C317.196 340.387 317.383 340.493 317.409 340.68L317.436 340.667ZM316.889 352.467C317.062 352.507 317.249 352.4 317.276 352.213L317.836 349C317.863 348.813 317.743 348.653 317.556 348.627L311.592 348.067L311.765 347.08C311.792 346.893 311.672 346.733 311.485 346.707L305.575 346.227C305.548 347.32 305.374 348.373 305.068 349.373L316.876 352.453L316.889 352.467ZM313.74 359.8C313.647 359.96 313.433 360 313.286 359.907L303.24 352.973C303.88 352.133 304.4 351.2 304.787 350.2L310.178 352.667C310.351 352.747 310.418 352.947 310.324 353.107L309.817 353.973L315.234 356.533C315.395 356.613 315.461 356.813 315.368 356.973L313.74 359.8ZM300.304 355.707L307.362 365.653C307.469 365.8 307.683 365.827 307.816 365.707L310.311 363.613C310.458 363.493 310.458 363.28 310.338 363.147L306.135 358.893L306.909 358.253C307.056 358.133 307.056 357.92 306.922 357.787L302.693 353.627C301.985 354.427 301.185 355.133 300.291 355.707H300.304ZM300.238 369.253C300.064 369.32 299.877 369.213 299.824 369.04L296.595 357.28C297.649 357.04 298.65 356.653 299.57 356.147L302.119 361.493C302.199 361.667 302.119 361.867 301.945 361.92L300.998 362.267L303.493 367.707C303.573 367.88 303.493 368.067 303.32 368.133L300.251 369.253H300.238Z" stroke="#D252B5" stroke-width="1.5"/>
<path d="M144 284V272.28C144 266.52 142.76 262.12 136.04 262.12C132.8 262.12 130.64 263.88 129.76 265.56H129.68V262.64H123.32V284H129.96V273.4C129.96 270.6 130.48 267.92 133.92 267.92C137.32 267.92 137.36 271.08 137.36 273.56V283.96H144V284ZM112.52 262.64H119.16V284H112.52V262.64ZM115.84 252C113.72 252 112 253.72 112 255.84C112 257.96 113.72 259.72 115.84 259.72C117.96 259.72 119.68 257.96 119.68 255.84C119.68 253.72 117.96 252 115.84 252Z" stroke="#D252B5" stroke-width="1.5"/>
<g opacity="0.2" filter="url(#filter7_f_5026_4916)">
<ellipse cx="239.5" cy="91" rx="71.5" ry="71" fill="#D252B5"/>
</g>
<path d="M202.924 86.8895L217.947 61.5464C219.598 58.762 222.595 57.0547 225.831 57.0547H252.294C255.531 57.0547 258.528 58.762 260.178 61.5464L275.201 86.8895C276.896 89.7481 276.91 93.2999 275.239 96.1722L260.167 122.079C258.525 124.9 255.508 126.635 252.245 126.635H225.881C222.618 126.635 219.6 124.9 217.959 122.079L202.887 96.1722C201.215 93.2999 201.23 89.7481 202.924 86.8895Z" fill="url(#paint0_linear_5026_4916)"/>
<path d="M234.969 69.3359H225.965L212.458 90.8685L225.965 114.359H234.969L221.463 90.8685L234.969 69.3359Z" fill="#131313"/>
<path d="M243.156 69.3359H252.16L265.667 90.8685L252.16 114.359H243.156L256.662 90.8685L243.156 69.3359Z" fill="#131313"/>
<g opacity="0.2" filter="url(#filter8_f_5026_4916)">
<circle cx="239.062" cy="92.6987" r="59.2902" stroke="#D252B5" stroke-width="1.30934"/>
</g>
<g opacity="0.5" filter="url(#filter9_f_5026_4916)">
<path d="M192.087 87.6216L212.777 53.0451C214.432 50.2792 217.418 48.5859 220.641 48.5859H257.483C260.707 48.5859 263.693 50.2792 265.348 53.0451L286.038 87.6216C287.758 90.4963 287.773 94.0805 286.076 96.9692L265.337 132.283C263.691 135.085 260.684 136.807 257.434 136.807H220.691C217.441 136.807 214.434 135.085 212.788 132.283L192.048 96.9692C190.352 94.0805 190.367 90.4963 192.087 87.6216Z" stroke="#D252B5" stroke-width="1.30934"/>
</g>
<path d="M260.166 135.039L260.166 149.175C260.166 173.223 278.012 193.63 301.82 197.015C325.453 200.375 343.166 220.63 343.166 244.5" stroke="url(#paint1_linear_5026_4916)" stroke-width="1.17753" stroke-linejoin="round" stroke-dasharray="1.2 4"/>
<path d="M221.166 135.039L221.166 148.68C221.166 173.002 203.252 193.609 179.166 196.993C155.08 200.377 137.166 220.984 137.166 245.306L137.166 246" stroke="url(#paint2_linear_5026_4916)" stroke-width="1.17753" stroke-linejoin="round" stroke-dasharray="1.2 4"/>
<path d="M249.166 136.039L249.166 163.14C249.166 177.76 256.986 191.264 269.666 198.541C282.346 205.818 290.166 219.321 290.166 233.941L290.166 309.039" stroke="url(#paint3_linear_5026_4916)" stroke-width="1.17753" stroke-linejoin="round" stroke-dasharray="1.2 4"/>
<path d="M231.166 136.039L231.166 163.572C231.166 177.949 223.558 191.252 211.166 198.541C198.774 205.83 191.166 219.133 191.166 233.509L191.166 309.039" stroke="url(#paint4_linear_5026_4916)" stroke-width="1.17753" stroke-linejoin="round" stroke-dasharray="1.2 4"/>
<path d="M240 135L240 245" stroke="url(#paint5_linear_5026_4916)" stroke-width="1.17753" stroke-linejoin="round" stroke-dasharray="1.2 4"/>
</g>
<defs>
<filter id="filter0_f_5026_4916" x="52" y="198" width="151" height="150" filterUnits="userSpaceOnUse" color-interpolation-filters="sRGB">
<feFlood flood-opacity="0" result="BackgroundImageFix"/>
<feBlend mode="normal" in="SourceGraphic" in2="BackgroundImageFix" result="shape"/>
<feGaussianBlur stdDeviation="16" result="effect1_foregroundBlur_5026_4916"/>
</filter>
<filter id="filter1_f_5026_4916" x="3" y="271" width="151" height="150" filterUnits="userSpaceOnUse" color-interpolation-filters="sRGB">
<feFlood flood-opacity="0" result="BackgroundImageFix"/>
<feBlend mode="normal" in="SourceGraphic" in2="BackgroundImageFix" result="shape"/>
<feGaussianBlur stdDeviation="16" result="effect1_foregroundBlur_5026_4916"/>
</filter>
<filter id="filter2_f_5026_4916" x="163" y="198" width="151" height="150" filterUnits="userSpaceOnUse" color-interpolation-filters="sRGB">
<feFlood flood-opacity="0" result="BackgroundImageFix"/>
<feBlend mode="normal" in="SourceGraphic" in2="BackgroundImageFix" result="shape"/>
<feGaussianBlur stdDeviation="16" result="effect1_foregroundBlur_5026_4916"/>
</filter>
<filter id="filter3_f_5026_4916" x="114" y="271" width="151" height="150" filterUnits="userSpaceOnUse" color-interpolation-filters="sRGB">
<feFlood flood-opacity="0" result="BackgroundImageFix"/>
<feBlend mode="normal" in="SourceGraphic" in2="BackgroundImageFix" result="shape"/>
<feGaussianBlur stdDeviation="16" result="effect1_foregroundBlur_5026_4916"/>
</filter>
<filter id="filter4_f_5026_4916" x="268" y="198" width="151" height="150" filterUnits="userSpaceOnUse" color-interpolation-filters="sRGB">
<feFlood flood-opacity="0" result="BackgroundImageFix"/>
<feBlend mode="normal" in="SourceGraphic" in2="BackgroundImageFix" result="shape"/>
<feGaussianBlur stdDeviation="16" result="effect1_foregroundBlur_5026_4916"/>
</filter>
<filter id="filter5_f_5026_4916" x="219" y="271" width="151" height="150" filterUnits="userSpaceOnUse" color-interpolation-filters="sRGB">
<feFlood flood-opacity="0" result="BackgroundImageFix"/>
<feBlend mode="normal" in="SourceGraphic" in2="BackgroundImageFix" result="shape"/>
<feGaussianBlur stdDeviation="16" result="effect1_foregroundBlur_5026_4916"/>
</filter>
<filter id="filter6_f_5026_4916" x="317" y="271" width="151" height="150" filterUnits="userSpaceOnUse" color-interpolation-filters="sRGB">
<feFlood flood-opacity="0" result="BackgroundImageFix"/>
<feBlend mode="normal" in="SourceGraphic" in2="BackgroundImageFix" result="shape"/>
<feGaussianBlur stdDeviation="16" result="effect1_foregroundBlur_5026_4916"/>
</filter>
<filter id="filter7_f_5026_4916" x="126.101" y="-21.8988" width="226.798" height="225.798" filterUnits="userSpaceOnUse" color-interpolation-filters="sRGB">
<feFlood flood-opacity="0" result="BackgroundImageFix"/>
<feBlend mode="normal" in="SourceGraphic" in2="BackgroundImageFix" result="shape"/>
<feGaussianBlur stdDeviation="20.9494" result="effect1_foregroundBlur_5026_4916"/>
</filter>
<filter id="filter8_f_5026_4916" x="173.88" y="27.5166" width="130.364" height="130.365" filterUnits="userSpaceOnUse" color-interpolation-filters="sRGB">
<feFlood flood-opacity="0" result="BackgroundImageFix"/>
<feBlend mode="normal" in="SourceGraphic" in2="BackgroundImageFix" result="shape"/>
<feGaussianBlur stdDeviation="2.61867" result="effect1_foregroundBlur_5026_4916"/>
</filter>
<filter id="filter9_f_5026_4916" x="184.894" y="42.6923" width="108.336" height="100.006" filterUnits="userSpaceOnUse" color-interpolation-filters="sRGB">
<feFlood flood-opacity="0" result="BackgroundImageFix"/>
<feBlend mode="normal" in="SourceGraphic" in2="BackgroundImageFix" result="shape"/>
<feGaussianBlur stdDeviation="2.61867" result="effect1_foregroundBlur_5026_4916"/>
</filter>
<linearGradient id="paint0_linear_5026_4916" x1="239.063" y1="57.0547" x2="239.063" y2="126.635" gradientUnits="userSpaceOnUse">
<stop stop-color="#D252B5" stop-opacity="0.35"/>
<stop offset="0.605793" stop-color="#D252B5"/>
</linearGradient>
<linearGradient id="paint1_linear_5026_4916" x1="278.769" y1="135.039" x2="278.769" y2="289.039" gradientUnits="userSpaceOnUse">
<stop offset="0.822123" stop-color="#D252B5"/>
<stop offset="1" stop-color="#D252B5" stop-opacity="0"/>
</linearGradient>
<linearGradient id="paint2_linear_5026_4916" x1="202.338" y1="135.039" x2="202.338" y2="247.5" gradientUnits="userSpaceOnUse">
<stop offset="0.822123" stop-color="#D252B5"/>
<stop offset="1" stop-color="#D252B5" stop-opacity="0"/>
</linearGradient>
<linearGradient id="paint3_linear_5026_4916" x1="258.356" y1="136.039" x2="258.356" y2="317" gradientUnits="userSpaceOnUse">
<stop offset="0.822123" stop-color="#D252B5"/>
<stop offset="1" stop-color="#D252B5" stop-opacity="0"/>
</linearGradient>
<linearGradient id="paint4_linear_5026_4916" x1="222.201" y1="136.039" x2="222.201" y2="317" gradientUnits="userSpaceOnUse">
<stop offset="0.822123" stop-color="#D252B5"/>
<stop offset="1" stop-color="#D252B5" stop-opacity="0"/>
</linearGradient>
<linearGradient id="paint5_linear_5026_4916" x1="240.224" y1="135" x2="240.224" y2="245" gradientUnits="userSpaceOnUse">
<stop offset="0.822123" stop-color="#D252B5"/>
<stop offset="1" stop-color="#D252B5" stop-opacity="0"/>
</linearGradient>
<clipPath id="clip0_5026_4916">
<rect width="480" height="400" fill="white"/>
</clipPath>
</defs>
</svg>
