<svg width="880" height="286" viewBox="0 0 880 286" fill="none" xmlns="http://www.w3.org/2000/svg">
<path d="M317 164C317 155.163 324.163 148 333 148H450C458.837 148 466 155.163 466 164V196C466 204.837 458.837 212 450 212H333C324.163 212 317 204.837 317 196V164Z" fill="#101010"/>
<path d="M333 148.5H450C458.56 148.5 465.5 155.44 465.5 164V196C465.5 204.56 458.56 211.5 450 211.5H333C324.44 211.5 317.5 204.56 317.5 196V164C317.5 155.44 324.44 148.5 333 148.5Z" stroke="url(#paint0_linear_4140_1340)" stroke-opacity="0.08"/>
<path d="M239 236C239 227.163 246.163 220 255 220H372C380.837 220 388 227.163 388 236V268C388 276.837 380.837 284 372 284H255C246.163 284 239 276.837 239 268V236Z" fill="#101010"/>
<path d="M255 220.5H372C380.56 220.5 387.5 227.44 387.5 236V268C387.5 276.56 380.56 283.5 372 283.5H255C246.44 283.5 239.5 276.56 239.5 268V236C239.5 227.44 246.44 220.5 255 220.5Z" stroke="url(#paint1_linear_4140_1340)" stroke-opacity="0.08"/>
<path d="M396 236C396 227.163 403.163 220 412 220H529C537.837 220 545 227.163 545 236V268C545 276.837 537.837 284 529 284H412C403.163 284 396 276.837 396 268V236Z" fill="#101010"/>
<path d="M412 220.5H529C537.56 220.5 544.5 227.44 544.5 236V268C544.5 276.56 537.56 283.5 529 283.5H412C403.44 283.5 396.5 276.56 396.5 268V236C396.5 227.44 403.44 220.5 412 220.5Z" stroke="url(#paint2_linear_4140_1340)" stroke-opacity="0.08"/>
<path d="M82 92C82 83.1634 89.1634 76 98 76H215C223.837 76 231 83.1634 231 92V124C231 132.837 223.837 140 215 140H98C89.1634 140 82 132.837 82 124V92Z" fill="#101010"/>
<path d="M98 76.5H215C223.56 76.5 230.5 83.4396 230.5 92V124C230.5 132.56 223.56 139.5 215 139.5H98C89.4396 139.5 82.5 132.56 82.5 124V92C82.5 83.4396 89.4396 76.5 98 76.5Z" stroke="url(#paint3_linear_4140_1340)" stroke-opacity="0.08"/>
<mask id="mask0_4140_1340" style="mask-type:alpha" maskUnits="userSpaceOnUse" x="80" y="218" width="152" height="68">
<rect x="80" y="218" width="152" height="68" fill="url(#paint4_linear_4140_1340)"/>
</mask>
<g mask="url(#mask0_4140_1340)">
<path d="M82 236C82 227.163 89.1634 220 98 220H215C223.837 220 231 227.163 231 236V268C231 276.837 223.837 284 215 284H98C89.1634 284 82 276.837 82 268V236Z" fill="#101010"/>
<path d="M98 220.5H215C223.56 220.5 230.5 227.44 230.5 236V268C230.5 276.56 223.56 283.5 215 283.5H98C89.4396 283.5 82.5 276.56 82.5 268V236C82.5 227.44 89.4396 220.5 98 220.5Z" stroke="url(#paint5_linear_4140_1340)" stroke-opacity="0.08"/>
</g>
<mask id="mask1_4140_1340" style="mask-type:alpha" maskUnits="userSpaceOnUse" x="4" y="0" width="152" height="68">
<rect x="4" width="152" height="68" fill="url(#paint6_linear_4140_1340)"/>
</mask>
<g mask="url(#mask1_4140_1340)">
<path d="M6 18C6 9.16344 13.1634 2 22 2H139C147.837 2 155 9.16344 155 18V50C155 58.8366 147.837 66 139 66H22C13.1634 66 6 58.8366 6 50V18Z" fill="#101010"/>
<path d="M22 2.5H139C147.56 2.5 154.5 9.43959 154.5 18V50C154.5 58.5604 147.56 65.5 139 65.5H22C13.4396 65.5 6.5 58.5604 6.5 50V18C6.5 9.43959 13.4396 2.5 22 2.5Z" stroke="url(#paint7_linear_4140_1340)" stroke-opacity="0.08"/>
</g>
<mask id="mask2_4140_1340" style="mask-type:alpha" maskUnits="userSpaceOnUse" x="0" y="146" width="152" height="68">
<rect y="146" width="152" height="68" fill="url(#paint8_linear_4140_1340)"/>
</mask>
<g mask="url(#mask2_4140_1340)">
<path d="M2 164C2 155.163 9.16344 148 18 148H135C143.837 148 151 155.163 151 164V196C151 204.837 143.837 212 135 212H18C9.16344 212 2 204.837 2 196V164Z" fill="#101010"/>
<path d="M18 148.5H135C143.56 148.5 150.5 155.44 150.5 164V196C150.5 204.56 143.56 211.5 135 211.5H18C9.43959 211.5 2.5 204.56 2.5 196V164C2.5 155.44 9.43959 148.5 18 148.5Z" stroke="url(#paint9_linear_4140_1340)" stroke-opacity="0.08"/>
</g>
<rect x="164" y="4" width="149" height="64" rx="16" fill="#101010"/>
<rect x="164.5" y="4.5" width="148" height="63" rx="15.5" stroke="url(#paint10_linear_4140_1340)" stroke-opacity="0.08"/>
<rect x="321" y="4" width="149" height="64" rx="16" fill="#101010"/>
<rect x="321.5" y="4.5" width="148" height="63" rx="15.5" stroke="url(#paint11_linear_4140_1340)" stroke-opacity="0.08"/>
<rect x="240" y="76" width="149" height="64" rx="16" fill="#101010"/>
<rect x="240.5" y="76.5" width="148" height="63" rx="15.5" stroke="url(#paint12_linear_4140_1340)" stroke-opacity="0.08"/>
<rect x="397" y="76" width="149" height="64" rx="16" fill="#101010"/>
<rect x="397.5" y="76.5" width="148" height="63" rx="15.5" stroke="url(#paint13_linear_4140_1340)" stroke-opacity="0.08"/>
<rect x="160" y="148" width="149" height="64" rx="16" fill="#101010"/>
<rect x="160.5" y="148.5" width="148" height="63" rx="15.5" stroke="url(#paint14_linear_4140_1340)" stroke-opacity="0.08"/>
<path d="M703.5 142L587.308 142C578.471 142 571.308 134.837 571.308 126L571.308 119.308C571.308 111.406 564.902 105 557 105" stroke="url(#paint15_linear_4140_1340)"/>
<path d="M703.5 146L587.308 146C578.471 146 571.308 153.163 571.308 162L571.308 166C571.308 174.836 564.144 182 555.308 182L475 182" stroke="url(#paint16_linear_4140_1340)"/>
<path d="M703.5 138L596.165 138C587.328 138 580.165 130.837 580.165 122L580.165 52C580.165 43.1634 573.001 36 564.165 36L483 36" stroke="url(#paint17_linear_4140_1340)"/>
<path d="M703.5 150L596.165 150C587.329 150 580.165 157.163 580.165 166L580.165 236C580.165 244.837 573.002 252 564.165 252L557 252" stroke="url(#paint18_linear_4140_1340)"/>
<g opacity="0.6" clip-path="url(#clip0_4140_1340)">
<path d="M212.054 28.0225C207.05 28.0225 203 32.0314 203 36.9846C203 41.9378 207.05 45.9467 212.054 45.9467C217.058 45.9467 221.108 41.9378 221.108 36.9846C221.108 32.0314 217.058 28.0225 212.054 28.0225ZM212.054 41.4746C209.552 41.4746 207.518 39.4612 207.518 36.9846C207.518 34.508 209.552 32.4946 212.054 32.4946C214.556 32.4946 216.59 34.508 216.59 36.9846C216.59 39.4612 214.556 41.4746 212.054 41.4746Z" fill="white"/>
<path d="M227.966 39.9955C227.966 39.2829 228.83 38.9443 229.334 39.4432C231.602 41.7238 235.346 45.6437 235.364 45.6615C235.418 45.7149 235.472 45.804 235.688 45.8753C235.778 45.9109 235.922 45.9109 236.084 45.9109H240.17C240.908 45.9109 241.124 45.0735 240.782 44.6459L234.014 37.7862L233.654 37.4298C232.88 36.5212 232.97 36.1648 233.852 35.2383L239.216 29.3051C239.558 28.8775 239.342 28.0579 238.586 28.0579H234.878C234.734 28.0579 234.626 28.0579 234.518 28.0935C234.302 28.1648 234.212 28.2361 234.158 28.3073C234.14 28.3252 231.17 31.4967 229.334 33.4388C228.83 33.9733 227.93 33.6169 227.93 32.8864V22.7127C227.93 22.196 227.498 22 227.156 22H224.132C223.61 22 223.358 22.3385 223.358 22.6414V45.1982C223.358 45.7149 223.79 45.8575 224.15 45.8575H227.174C227.642 45.8575 227.948 45.5189 227.948 45.1804V44.9488V39.9955H227.966Z" fill="white"/>
<path d="M252.662 45.0913L252.338 42.098C252.302 41.6882 251.906 41.4031 251.492 41.4744C251.258 41.51 251.024 41.5278 250.79 41.5278C248.378 41.5278 246.416 39.657 246.272 37.2873C246.272 37.216 246.272 37.1269 246.272 37.0379V33.3675C246.272 32.8864 246.632 32.4944 247.118 32.4944H251.168C251.456 32.4944 251.888 32.245 251.888 31.7283V28.8953C251.888 28.343 251.528 28.0579 251.204 28.0579H247.118C246.65 28.0579 246.272 27.7194 246.254 27.2561V22.7127C246.254 22.4276 246.038 22 245.48 22H242.474C242.096 22 241.736 22.2316 241.736 22.6949C241.736 22.6949 241.736 37.216 241.736 37.2873C241.862 42.1336 245.876 46 250.79 46C251.204 46 251.6 45.9644 251.996 45.9109C252.428 45.8575 252.716 45.5011 252.662 45.0913Z" fill="white"/>
<path d="M274.478 41.3318C271.922 41.3318 271.526 40.4231 271.526 37.02C271.526 37.0022 271.526 37.0022 271.526 36.9843V28.8062C271.526 28.5211 271.31 28.04 270.734 28.04H267.71C267.332 28.04 266.918 28.3429 266.918 28.8062V29.1803C265.604 28.432 264.074 28.0044 262.454 28.0044C257.45 28.0044 253.4 32.0133 253.4 36.9665C253.4 41.9198 257.45 45.9287 262.454 45.9287C264.704 45.9287 266.756 45.1091 268.34 43.7728C269.186 45.0556 270.554 45.9109 272.696 45.9287C273.056 45.9287 275 45.9999 275 45.0913V41.9019C275 41.6347 274.784 41.3318 274.478 41.3318ZM262.472 41.4743C259.97 41.4743 257.936 39.461 257.936 36.9843C257.936 34.5077 259.97 32.4944 262.472 32.4944C264.974 32.4944 267.008 34.5077 267.008 36.9843C266.99 39.461 264.956 41.4743 262.472 41.4743Z" fill="white"/>
</g>
<g opacity="0.6" clip-path="url(#clip1_4140_1340)">
<path d="M228.082 167.723C228.059 167.365 228.036 166.9 228.036 166.566H228.013C227.943 166.876 227.805 167.246 227.689 167.603L227.238 168.891H226.983L226.579 167.627C226.463 167.293 226.371 166.924 226.278 166.59C226.255 166.9 226.255 167.365 226.232 167.77L226.162 168.903H225.862L226.047 166.221H226.475L226.926 167.532C227.041 167.842 227.111 168.164 227.18 168.45H227.203C227.273 168.187 227.365 167.866 227.481 167.532L227.955 166.221H228.383L228.545 168.903H228.175L228.082 167.723V167.723Z" fill="white"/>
<path d="M229.424 166.435C229.424 166.554 229.331 166.65 229.216 166.65H229.193C229.077 166.65 228.984 166.554 228.984 166.435C228.984 166.316 229.077 166.221 229.193 166.221C229.331 166.221 229.424 166.316 229.424 166.435ZM229.054 168.915V167.007H229.401V168.915H229.054Z" fill="white"/>
<path d="M231.275 168.831C231.113 168.902 230.928 168.95 230.731 168.95C230.164 168.95 229.794 168.569 229.794 167.961C229.771 167.401 230.164 166.948 230.708 166.924H230.8C230.962 166.924 231.124 166.948 231.275 167.019L231.205 167.281C231.089 167.234 230.951 167.186 230.8 167.21C230.372 167.21 230.141 167.52 230.141 167.937C230.141 168.402 230.419 168.664 230.8 168.664C230.939 168.664 231.078 168.64 231.205 168.569L231.275 168.831V168.831Z" fill="white"/>
<path d="M231.656 167.58C231.656 167.365 231.633 167.163 231.633 166.996H231.933L231.956 167.377H231.98C232.049 167.139 232.257 166.96 232.5 166.96C232.523 166.96 232.569 166.96 232.593 166.984V167.294C232.569 167.27 232.523 167.27 232.477 167.27C232.246 167.27 232.072 167.461 232.026 167.735C232.026 167.782 232.003 167.83 232.003 167.878V168.915H231.679L231.656 167.58V167.58Z" fill="white"/>
<path d="M234.594 167.937C234.617 168.45 234.247 168.902 233.749 168.926H233.68C233.183 168.926 232.789 168.545 232.789 167.937C232.789 167.281 233.217 166.924 233.726 166.924C234.189 166.924 234.594 167.341 234.594 167.937ZM233.113 167.937C233.113 168.318 233.298 168.664 233.68 168.664C234.05 168.664 234.247 168.307 234.247 167.937C234.247 167.603 234.108 167.186 233.68 167.186C233.229 167.21 233.113 167.603 233.113 167.937Z" fill="white"/>
<path d="M234.964 168.545C235.102 168.64 235.241 168.688 235.415 168.688C235.646 168.688 235.762 168.569 235.762 168.402C235.762 168.259 235.669 168.163 235.415 168.044C235.091 167.925 234.917 167.734 234.917 167.484C234.917 167.174 235.149 166.924 235.553 166.924C235.715 166.924 235.877 166.972 236.028 167.043L235.958 167.281C235.843 167.21 235.704 167.162 235.588 167.162C235.426 167.138 235.287 167.258 235.287 167.424C235.287 167.567 235.403 167.639 235.634 167.734C235.935 167.854 236.132 168.02 236.132 168.318C236.132 168.652 235.877 168.902 235.426 168.902C235.241 168.902 235.079 168.855 234.906 168.759L234.964 168.545V168.545Z" fill="white"/>
<path d="M238.225 167.937C238.248 168.45 237.878 168.902 237.381 168.926H237.311C236.814 168.926 236.421 168.545 236.421 167.937C236.421 167.281 236.849 166.924 237.358 166.924C237.832 166.924 238.225 167.341 238.225 167.937ZM236.756 167.937C236.756 168.318 236.941 168.664 237.323 168.664C237.705 168.664 237.89 168.307 237.89 167.937C237.89 167.603 237.751 167.186 237.323 167.186C236.895 167.186 236.756 167.603 236.756 167.937Z" fill="white"/>
<path d="M238.676 168.915V167.246H238.421V166.984H238.676V166.888C238.653 166.65 238.722 166.399 238.884 166.209C239 166.09 239.162 166.018 239.335 166.018C239.428 166.018 239.52 166.042 239.613 166.066L239.566 166.328C239.497 166.304 239.428 166.28 239.358 166.28C239.081 166.28 239.011 166.543 239.011 166.841V166.96H239.462V167.222H239.011V168.867L238.676 168.915V168.915Z" fill="white"/>
<path d="M240.226 166.411V166.971H240.723V167.234H240.226V168.271C240.226 168.509 240.295 168.628 240.48 168.628C240.55 168.628 240.619 168.628 240.665 168.604L240.688 168.867C240.596 168.914 240.503 168.914 240.388 168.914C240.249 168.914 240.133 168.867 240.018 168.771C239.925 168.628 239.879 168.437 239.902 168.259V167.198H239.624V166.936H239.902V166.471L240.226 166.411V166.411Z" fill="white"/>
<path d="M227.874 176.197L226.984 179.034H225.804L228.788 170.023H230.129L233.113 179.022H231.91L230.974 176.185H227.874V176.197ZM230.742 175.303L229.898 172.717C229.713 172.133 229.574 171.584 229.447 171.072H229.401C229.285 171.608 229.146 172.157 228.973 172.693L228.129 175.303H230.742V175.303Z" fill="white"/>
<path d="M238.653 178.808C238.087 179.07 237.474 179.189 236.849 179.189C234.975 179.189 233.726 177.854 233.726 175.9C233.726 173.945 235.068 172.467 237.08 172.467C237.624 172.467 238.156 172.562 238.653 172.801L238.399 173.695C237.994 173.48 237.531 173.385 237.057 173.385C235.623 173.385 234.848 174.493 234.848 175.828C234.848 177.33 235.785 178.248 237.034 178.248C237.508 178.248 237.994 178.152 238.422 177.938L238.653 178.808V178.808Z" fill="white"/>
<path d="M241.544 170.727V172.586H243.164V173.456H241.544V176.937C241.544 177.735 241.753 178.2 242.389 178.2C242.597 178.2 242.84 178.176 243.048 178.129L243.094 178.999C242.886 179.118 242.527 179.166 242.065 179.166C241.591 179.19 241.151 178.999 240.839 178.677C240.538 178.296 240.411 177.759 240.411 176.984V173.456H239.428V172.586H240.388V171.013L241.544 170.727V170.727Z" fill="white"/>
<path d="M245.719 170.774C245.719 171.155 245.442 171.477 245.06 171.501H245.014C244.644 171.501 244.332 171.215 244.332 170.845V170.798C244.308 170.416 244.609 170.07 244.991 170.07H245.037C245.419 170.023 245.719 170.357 245.719 170.774C245.719 170.75 245.719 170.75 245.719 170.774ZM244.459 179.046V172.586H245.581V179.022H244.459V179.046Z" fill="white"/>
<path d="M247.928 172.586L249.154 176.221C249.362 176.805 249.524 177.354 249.675 177.89H249.721C249.86 177.354 250.045 176.805 250.241 176.221L251.467 172.586H252.67L250.207 179.023H249.108L246.737 172.586H247.928Z" fill="white"/>
<path d="M254.22 176.019C254.243 177.616 255.226 178.271 256.359 178.271C257.18 178.271 257.701 178.128 258.094 177.938L258.279 178.784C257.62 179.07 256.914 179.225 256.186 179.201C254.266 179.201 253.109 177.866 253.109 175.935C253.109 173.98 254.208 172.455 256.07 172.455C258.117 172.455 258.649 174.29 258.649 175.482C258.649 175.673 258.626 175.84 258.603 176.042H254.22V176.019V176.019ZM257.551 175.172C257.574 174.445 257.25 173.289 255.978 173.289C254.833 173.289 254.312 174.374 254.22 175.172H257.551Z" fill="white"/>
<path d="M225.92 181.249C226.718 181.13 227.516 181.059 228.337 181.059C229.956 181.059 231.113 181.44 231.864 182.191C232.639 182.918 233.09 183.979 233.09 185.409C233.09 186.887 232.639 188.067 231.818 188.914C230.997 189.76 229.655 190.225 227.967 190.225C227.284 190.225 226.579 190.201 225.897 190.106L225.92 181.249V181.249ZM227.076 189.212C227.446 189.259 227.828 189.283 228.198 189.283C230.615 189.283 231.934 187.9 231.934 185.457C231.957 183.323 230.789 182 228.406 182C227.955 182 227.516 182.048 227.065 182.119L227.076 189.212Z" fill="white"/>
<path d="M235.831 181.857C235.831 182.239 235.553 182.56 235.172 182.584H235.125C234.755 182.584 234.443 182.298 234.443 181.929V181.881C234.42 181.5 234.721 181.154 235.102 181.154H235.149C235.507 181.106 235.831 181.44 235.831 181.857C235.831 181.833 235.831 181.833 235.831 181.857ZM234.547 190.129V183.669H235.669V190.106H234.547V190.129Z" fill="white"/>
<path d="M237.566 185.684C237.566 184.933 237.543 184.277 237.519 183.669H238.526L238.572 184.933H238.618C238.919 184.063 239.624 183.526 240.376 183.526C240.492 183.526 240.584 183.526 240.677 183.55V184.659C240.561 184.635 240.445 184.611 240.307 184.611C239.486 184.611 238.942 185.243 238.78 186.113C238.734 186.28 238.734 186.471 238.734 186.649V190.106H237.612L237.566 185.684Z" fill="white"/>
<path d="M242.319 187.102C242.342 188.699 243.325 189.355 244.459 189.355C245.28 189.355 245.8 189.212 246.194 189.021L246.379 189.867C245.72 190.153 245.014 190.308 244.285 190.285C242.366 190.285 241.209 188.95 241.209 187.019C241.209 185.064 242.308 183.538 244.17 183.538C246.217 183.538 246.749 185.374 246.749 186.566C246.749 186.756 246.726 186.923 246.703 187.126H242.319V187.102V187.102ZM245.65 186.256C245.673 185.529 245.349 184.372 244.077 184.372C242.932 184.372 242.412 185.457 242.319 186.256H245.65V186.256Z" fill="white"/>
<path d="M252.624 189.892C252.057 190.154 251.444 190.273 250.82 190.273C248.946 190.273 247.697 188.938 247.697 186.983C247.697 185.028 249.039 183.55 251.051 183.55C251.595 183.55 252.127 183.646 252.624 183.884L252.37 184.778C251.965 184.563 251.502 184.468 251.028 184.468C249.594 184.468 248.819 185.577 248.819 186.912C248.819 188.414 249.756 189.331 251.005 189.331C251.479 189.331 251.965 189.236 252.393 189.021L252.624 189.892V189.892Z" fill="white"/>
<path d="M255.515 181.81V183.67H257.134V184.54H255.515V188.02C255.515 188.819 255.723 189.284 256.359 189.284C256.568 189.284 256.811 189.26 257.019 189.212L257.065 190.082C256.857 190.202 256.498 190.249 256.036 190.249C255.561 190.273 255.122 190.082 254.81 189.76C254.509 189.379 254.382 188.843 254.382 188.068V184.54H253.422V183.67H254.382V182.096L255.515 181.81V181.81Z" fill="white"/>
<path d="M264.016 186.888C264.016 189.26 262.327 190.273 260.87 190.273C259.228 190.273 257.886 189.009 257.886 186.912C257.886 184.754 259.32 183.526 261.009 183.526C262.767 183.526 264.016 184.814 264.016 186.888ZM259.054 186.912C259.054 188.223 259.69 189.379 260.951 189.379C262.2 189.379 262.871 188.223 262.871 186.888C262.871 185.755 262.351 184.373 260.951 184.373C259.552 184.373 259.054 185.755 259.054 186.912Z" fill="white"/>
<path d="M265.45 185.684C265.45 184.933 265.427 184.277 265.404 183.669H266.41L266.456 184.933H266.502C266.803 184.063 267.508 183.526 268.26 183.526C268.376 183.526 268.468 183.526 268.561 183.55V184.659C268.445 184.635 268.33 184.611 268.191 184.611C267.37 184.611 266.826 185.243 266.664 186.113C266.618 186.28 266.618 186.471 266.618 186.649V190.106H265.496L265.45 185.684Z" fill="white"/>
<path d="M270.423 183.669L271.788 187.471C271.927 187.889 272.089 188.389 272.193 188.806H272.216C272.331 188.425 272.447 187.936 272.621 187.471L273.87 183.669H275.072L273.361 188.27C272.54 190.475 271.996 191.631 271.221 192.335C270.816 192.692 270.354 192.942 269.833 193.085L269.556 192.096C269.926 191.977 270.261 191.786 270.562 191.512C270.967 191.154 271.291 190.713 271.499 190.201C271.545 190.106 271.591 190.01 271.591 189.915C271.591 189.796 271.545 189.7 271.499 189.605L269.197 183.681H270.423V183.669Z" fill="white"/>
<path d="M217.738 185.4V190.206C217.738 190.769 217.57 190.885 217.052 190.798C213.579 190.264 210.063 189.773 206.562 189.268C205.932 189.181 205.707 188.951 205.707 188.243C205.763 185.688 205.735 183.119 205.707 180.535C205.707 179.972 205.876 179.799 206.422 179.799C210.007 179.828 213.537 179.828 217.052 179.828C217.626 179.828 217.766 180.059 217.766 180.593C217.71 182.209 217.738 183.797 217.738 185.4Z" fill="white"/>
<path d="M211.786 178.904C210.022 178.904 208.257 178.876 206.492 178.904C205.946 178.904 205.722 178.789 205.722 178.139C205.75 175.527 205.75 172.957 205.722 170.373C205.722 169.868 205.89 169.695 206.352 169.608C209.966 169.074 213.579 168.555 217.193 167.992C217.823 167.905 217.711 168.338 217.711 168.699C217.711 171.009 217.739 173.361 217.711 175.671C217.711 176.523 217.683 177.374 217.711 178.226C217.739 178.76 217.543 178.904 217.053 178.904C215.316 178.876 213.551 178.904 211.786 178.904V178.904Z" fill="white"/>
<path d="M200.105 179.871H204.055C204.475 179.871 204.657 180.015 204.657 180.463V188.489C204.657 188.95 204.461 188.994 204.055 188.95C201.436 188.546 198.817 188.157 196.212 187.781C195.693 187.695 195.525 187.521 195.525 186.958C195.553 184.822 195.553 182.686 195.525 180.506C195.525 179.972 195.665 179.828 196.184 179.828C197.514 179.871 198.789 179.871 200.105 179.871V179.871Z" fill="white"/>
<path d="M200.105 178.905H196.212C195.721 178.905 195.553 178.731 195.553 178.197C195.581 176.09 195.581 173.982 195.553 171.86C195.553 171.355 195.693 171.182 196.212 171.095C198.831 170.749 201.45 170.359 204.055 169.926C204.657 169.84 204.713 170.042 204.713 170.547V178.226C204.713 178.789 204.489 178.876 203.999 178.876C202.696 178.876 201.38 178.905 200.105 178.905V178.905Z" fill="white"/>
</g>
<g opacity="0.6" clip-path="url(#clip2_4140_1340)">
<path d="M372.371 44.8454L369.783 36.8833L376.558 31.9621C378.226 37.07 376.558 41.8046 372.371 44.8454ZM376.558 31.9621L373.971 24H365.596L368.17 31.9621H376.558ZM365.596 24H357.22L354.646 31.9621H363.022L365.596 24ZM354.633 31.9621C352.979 37.07 354.633 41.8046 358.821 44.8454L361.395 36.8833L354.633 31.9621ZM358.821 44.8454L365.596 49.7667L372.371 44.8454L365.596 39.9241L358.821 44.8454Z" fill="white"/>
<path d="M388.988 28.8281C387.908 28.8281 386.961 29.535 386.654 30.5752L382.947 43.3252H385.387L386.481 39.6309C386.494 39.5909 386.521 39.5642 386.561 39.5642H391.456C391.496 39.5642 391.522 39.5909 391.536 39.6309L392.603 43.3252H395.03L391.309 30.5752C391.016 29.535 390.069 28.8281 388.988 28.8281ZM390.936 37.7238C390.922 37.7504 390.895 37.7504 390.869 37.7504H387.135C387.108 37.7504 387.081 37.7371 387.068 37.7238C387.055 37.6971 387.055 37.6704 387.068 37.6437L388.922 31.2154C388.935 31.1754 388.962 31.1487 389.002 31.1487C389.042 31.1621 389.055 31.1887 389.068 31.2154L390.936 37.6437C390.936 37.6704 390.936 37.6971 390.936 37.7238ZM402.272 34.1895H404.619V43.3385H402.779L402.525 42.565C402.512 42.5383 402.498 42.5117 402.472 42.4983C402.445 42.485 402.418 42.485 402.392 42.4983C401.525 43.1518 400.485 43.5119 399.404 43.5253C398.177 43.5253 397.057 42.7917 396.577 41.6581C396.417 41.2847 396.337 40.8979 396.337 40.4978V34.1895H398.684V40.3644C398.684 41.098 399.298 41.6981 400.031 41.6981C400.791 41.6581 401.538 41.4581 402.205 41.098C402.232 41.0846 402.258 41.058 402.245 41.0313L402.272 34.1895ZM422.144 37.0169V43.3385H419.81V37.1503C419.81 36.8035 419.663 36.4568 419.41 36.2167C419.156 35.9633 418.823 35.8299 418.463 35.8299C417.702 35.8699 416.956 36.07 416.275 36.4301C416.249 36.4434 416.235 36.4701 416.235 36.5101V43.3385H413.888V29.0282H416.235V34.763C416.235 34.7897 416.249 34.8297 416.275 34.843C416.302 34.8564 416.342 34.8564 416.369 34.843C417.182 34.3095 418.129 34.0161 419.089 34.0028C420.757 34.0161 422.104 35.3498 422.117 37.0169H422.144ZM410.194 34.1895H411.621V36.0033H410.194C410.167 36.0033 410.154 36.0167 410.127 36.03C410.114 36.0433 410.1 36.07 410.1 36.0967V41.0046C410.1 41.3914 410.421 41.7115 410.821 41.7115C411.034 41.7115 411.341 41.7115 411.621 41.6714V43.3252C411.154 43.4586 410.674 43.5386 410.194 43.5253C408.86 43.5253 407.78 42.4583 407.767 41.1246V36.0833C407.767 36.03 407.727 36.0033 407.673 35.99H406.273V34.1762H407.7C407.753 34.1762 407.78 34.1362 407.793 34.0828V31.0687H410.14V34.0828C410.127 34.1362 410.154 34.1762 410.194 34.1895ZM432.613 30.8687C431.813 29.6017 430.426 28.8415 428.932 28.8415C427.438 28.8415 426.051 29.6017 425.251 30.8687C424.357 32.1757 423.877 34.0161 423.877 36.19C423.797 38.0705 424.291 39.9243 425.264 41.5247C426.065 42.7917 427.452 43.5519 428.945 43.5519C430.439 43.5519 431.826 42.7917 432.626 41.5247C433.533 40.2044 434 38.3639 434 36.2034C434 34.0428 433.52 32.1757 432.626 30.8687H432.613ZM430.692 40.4845C430.239 41.3114 429.666 41.7115 428.945 41.7115C428.238 41.7115 427.665 41.2847 427.198 40.4845C426.585 39.1375 426.291 37.6704 426.358 36.19C426.291 34.7096 426.585 33.2293 427.198 31.8689C427.652 31.042 428.225 30.6419 428.932 30.6419C429.639 30.6419 430.226 31.042 430.679 31.8689C431.293 33.2159 431.586 34.683 431.519 36.1634C431.599 37.6571 431.319 39.1375 430.692 40.4845Z" fill="white"/>
</g>
<g opacity="0.6">
<path d="M276.143 96.1431H287.571V107.572H276.143V96.1431Z" fill="white"/>
<path d="M288.714 96.1431H300.143V107.572H288.714V96.1431Z" fill="white"/>
<path d="M276.143 108.714H287.571V120.143H276.143V108.714Z" fill="white"/>
<path d="M288.714 108.714H300.143V120.143H288.714V108.714Z" fill="white"/>
<path d="M310.869 114.324H309.286L313.864 101.857H315.422L320 114.324H318.417L314.692 103.829H314.594L310.869 114.324ZM311.453 109.454H317.833V110.794H311.453V109.454Z" fill="white"/>
<path d="M321.479 114.324V113.229L326.788 106.411V106.313H321.65V104.974H328.638V106.118L323.476 112.888V112.985H328.809V114.324H321.479Z" fill="white"/>
<path d="M336.915 110.501V104.974H338.351V114.324H336.915V112.742H336.817C336.598 113.217 336.257 113.62 335.794 113.953C335.332 114.282 334.747 114.446 334.041 114.446C333.457 114.446 332.937 114.318 332.483 114.063C332.028 113.803 331.671 113.413 331.411 112.894C331.152 112.37 331.022 111.711 331.022 110.915V104.974H332.458V110.818C332.458 111.5 332.649 112.044 333.031 112.449C333.416 112.855 333.907 113.058 334.504 113.058C334.861 113.058 335.224 112.967 335.594 112.784C335.967 112.602 336.279 112.322 336.531 111.944C336.787 111.567 336.915 111.086 336.915 110.501Z" fill="white"/>
<path d="M340.983 114.324V104.974H342.371V106.386H342.468C342.639 105.923 342.947 105.548 343.393 105.26C343.84 104.972 344.343 104.828 344.903 104.828C345.009 104.828 345.141 104.83 345.299 104.834C345.457 104.838 345.577 104.844 345.658 104.852V106.313C345.609 106.301 345.498 106.283 345.323 106.258C345.153 106.23 344.972 106.216 344.781 106.216C344.327 106.216 343.921 106.311 343.564 106.502C343.211 106.689 342.931 106.948 342.724 107.281C342.521 107.61 342.419 107.985 342.419 108.407V114.324H340.983Z" fill="white"/>
<path d="M350.997 114.519C350.096 114.519 349.319 114.32 348.665 113.923C348.016 113.521 347.515 112.961 347.162 112.242C346.813 111.52 346.638 110.68 346.638 109.722C346.638 108.764 346.813 107.92 347.162 107.19C347.515 106.455 348.006 105.883 348.635 105.473C349.268 105.059 350.007 104.852 350.851 104.852C351.338 104.852 351.819 104.933 352.294 105.096C352.768 105.258 353.201 105.522 353.59 105.887C353.98 106.248 354.29 106.727 354.522 107.324C354.753 107.92 354.869 108.655 354.869 109.527V110.136H347.661V108.894H353.408C353.408 108.367 353.302 107.896 353.091 107.482C352.884 107.068 352.588 106.741 352.202 106.502C351.821 106.262 351.37 106.143 350.851 106.143C350.279 106.143 349.783 106.285 349.365 106.569C348.951 106.849 348.633 107.214 348.41 107.665C348.186 108.115 348.075 108.598 348.075 109.113V109.941C348.075 110.648 348.197 111.246 348.44 111.737C348.688 112.224 349.031 112.596 349.469 112.851C349.907 113.103 350.417 113.229 350.997 113.229C351.374 113.229 351.715 113.176 352.02 113.07C352.328 112.961 352.594 112.798 352.817 112.583C353.04 112.364 353.213 112.092 353.335 111.768L354.723 112.157C354.576 112.628 354.331 113.042 353.986 113.399C353.641 113.752 353.215 114.028 352.708 114.227C352.2 114.422 351.63 114.519 350.997 114.519Z" fill="white"/>
</g>
<g opacity="0.6" clip-path="url(#clip3_4140_1340)">
<path d="M450.57 99.2043V97.3146H456.895C456.965 97.6968 456.999 98.0847 456.997 98.4733C456.997 99.89 456.609 101.645 455.36 102.893C454.146 104.158 452.594 104.833 450.537 104.833C446.726 104.833 443.522 101.729 443.522 97.9164C443.522 94.104 446.726 91 450.537 91C452.646 91 454.146 91.8268 455.276 92.9064L453.944 94.2388C453.134 93.4799 452.038 92.8893 450.537 92.8893C447.755 92.8893 445.579 95.1328 445.579 97.9164C445.579 100.7 447.755 102.945 450.537 102.945C452.342 102.945 453.371 102.22 454.028 101.562C454.564 101.026 454.917 100.257 455.054 99.206L450.57 99.2043Z" fill="white"/>
<path d="M466.633 100.379C466.633 102.945 464.626 104.833 462.165 104.833C459.703 104.833 457.696 102.945 457.696 100.379C457.696 97.7984 459.703 95.9258 462.165 95.9258C464.628 95.9258 466.634 97.7984 466.634 100.379M464.678 100.379C464.678 98.7773 463.514 97.6803 462.165 97.6803C460.816 97.6803 459.652 98.7766 459.652 100.379C459.652 101.965 460.816 103.078 462.165 103.078C463.515 103.078 464.678 101.964 464.678 100.379Z" fill="white"/>
<path d="M476.383 100.379C476.383 102.945 474.377 104.833 471.914 104.833C469.451 104.833 467.445 102.945 467.445 100.379C467.445 97.7984 469.452 95.9258 471.914 95.9258C474.377 95.9258 476.383 97.7984 476.383 100.379M474.427 100.379C474.427 98.7773 473.263 97.6803 471.914 97.6803C470.565 97.6803 469.401 98.7766 469.401 100.379C469.401 101.965 470.565 103.078 471.914 103.078C473.264 103.078 474.427 101.964 474.427 100.379Z" fill="white"/>
<path d="M485.728 96.1957V104.192C485.728 107.481 483.789 108.831 481.495 108.831C479.336 108.831 478.038 107.38 477.549 106.199L479.253 105.491C479.557 106.216 480.298 107.076 481.496 107.076C482.964 107.076 483.874 106.165 483.874 104.462V103.821H483.807C483.368 104.361 482.525 104.833 481.463 104.833C479.236 104.833 477.196 102.893 477.196 100.396C477.196 97.8826 479.236 95.9258 481.463 95.9258C482.525 95.9258 483.368 96.398 483.807 96.9211H483.874V96.1957H485.728ZM484.008 100.396C484.008 98.8275 482.963 97.68 481.63 97.68C480.281 97.68 479.151 98.8271 479.151 100.396C479.151 101.948 480.281 103.078 481.63 103.078C482.962 103.078 484.008 101.948 484.008 100.396Z" fill="white"/>
<path d="M489.042 91.5161H487.086V104.563H489.042V91.5161Z" fill="white"/>
<path d="M496.596 101.847L498.114 102.859C497.626 103.584 496.444 104.833 494.404 104.833C491.874 104.833 489.985 102.876 489.985 100.379C489.985 97.7325 491.891 95.9258 494.184 95.9258C496.495 95.9258 497.625 97.7646 497.996 98.7599L498.198 99.2659L492.243 101.729C492.699 102.623 493.407 103.078 494.402 103.078C495.398 103.078 496.089 102.591 496.596 101.847M491.924 100.245L495.905 98.592C495.685 98.0348 495.028 97.6476 494.252 97.6476C493.257 97.6476 491.874 98.5248 491.924 100.246" fill="white"/>
<path d="M444.549 109.087H446.188L442.928 121.305H441.324L438.696 113.251H438.628L436 121.305H434.396L431 109.087H432.638L435.215 118.694H435.283L437.928 110.725H439.396L442.041 118.694H442.109L444.549 109.087Z" fill="white"/>
<path d="M446.039 117.124C446.039 115.839 446.443 114.775 447.251 113.933C448.07 113.091 449.1 112.67 450.34 112.67C451.58 112.67 452.604 113.091 453.411 113.933C454.23 114.775 454.64 115.839 454.64 117.124C454.64 118.421 454.23 119.485 453.411 120.315C452.603 121.157 451.58 121.578 450.34 121.578C449.1 121.578 448.07 121.157 447.251 120.314C446.443 119.473 446.039 118.409 446.039 117.123M447.609 117.123C447.609 118.022 447.871 118.75 448.394 119.308C448.918 119.865 449.566 120.143 450.34 120.143C451.113 120.143 451.762 119.865 452.285 119.308C452.808 118.75 453.07 118.022 453.07 117.123C453.07 116.236 452.808 115.513 452.285 114.956C451.751 114.387 451.103 114.103 450.34 114.103C449.577 114.103 448.928 114.387 448.394 114.957C447.87 115.514 447.608 116.237 447.609 117.124" fill="white"/>
<path d="M457.324 121.306H455.754V112.944H457.256V114.309H457.325C457.485 113.865 457.812 113.487 458.307 113.174C458.802 112.861 459.288 112.705 459.766 112.705C460.22 112.705 460.607 112.773 460.926 112.91L460.447 114.429C460.253 114.35 459.946 114.31 459.525 114.31C458.934 114.31 458.419 114.549 457.981 115.027C457.543 115.504 457.324 116.062 457.324 116.698V121.306Z" fill="white"/>
<path d="M469.006 121.305H467.112L464.501 117.363L463.221 118.626V121.305H461.651V109.087H463.221V116.612L466.839 112.944H468.853V113.012L465.593 116.254L469.006 121.237V121.305Z" fill="white"/>
<path d="M475.799 118.985C475.799 119.713 475.481 120.328 474.844 120.828C474.206 121.328 473.404 121.578 472.437 121.579C471.596 121.579 470.856 121.36 470.219 120.922C469.595 120.5 469.118 119.895 468.854 119.19L470.253 118.592C470.458 119.093 470.757 119.483 471.149 119.761C471.523 120.034 471.975 120.18 472.438 120.179C472.939 120.179 473.357 120.071 473.692 119.855C474.027 119.639 474.194 119.383 474.195 119.087C474.195 118.553 473.785 118.16 472.966 117.909L471.533 117.551C469.906 117.142 469.093 116.356 469.093 115.195C469.093 114.434 469.403 113.822 470.023 113.361C470.643 112.9 471.437 112.669 472.403 112.67C473.143 112.67 473.811 112.846 474.409 113.199C475.006 113.552 475.424 114.024 475.662 114.615L474.263 115.195C474.103 114.842 473.83 114.551 473.487 114.368C473.118 114.166 472.704 114.063 472.284 114.069C471.895 114.063 471.513 114.17 471.183 114.376C470.858 114.581 470.696 114.831 470.696 115.127C470.696 115.605 471.145 115.946 472.044 116.151L473.307 116.475C474.968 116.885 475.798 117.721 475.798 118.983" fill="white"/>
<path d="M481.251 121.578C480.637 121.578 480.077 121.447 479.571 121.186C479.064 120.924 478.675 120.577 478.401 120.145H478.332L478.401 121.305V124.991H476.832V112.943H478.333V114.104H478.403C478.676 113.672 479.066 113.325 479.572 113.063C480.078 112.801 480.639 112.67 481.253 112.67C482.356 112.67 483.289 113.103 484.051 113.967C484.836 114.844 485.229 115.896 485.229 117.124C485.229 118.365 484.836 119.417 484.051 120.281C483.289 121.146 482.356 121.578 481.253 121.578M480.997 120.145C481.748 120.145 482.379 119.86 482.891 119.291C483.402 118.734 483.657 118.012 483.657 117.124C483.657 116.249 483.402 115.526 482.891 114.957C482.38 114.388 481.749 114.104 480.997 114.104C480.234 114.104 479.597 114.388 479.085 114.957C478.585 115.526 478.334 116.249 478.335 117.124C478.335 118.012 478.585 118.74 479.085 119.309C479.596 119.866 480.233 120.144 480.997 120.144" fill="white"/>
<path d="M489.527 112.671C490.688 112.671 491.604 112.981 492.275 113.601C492.946 114.221 493.281 115.071 493.282 116.152V121.306H491.78V120.145H491.71C491.062 121.101 490.197 121.578 489.117 121.578C488.195 121.578 487.424 121.305 486.804 120.759C486.184 120.213 485.874 119.531 485.874 118.712C485.874 117.847 486.201 117.159 486.855 116.647C487.509 116.135 488.383 115.879 489.475 115.879C490.408 115.879 491.175 116.05 491.779 116.391V116.031C491.779 115.485 491.562 115.021 491.13 114.64C490.714 114.265 490.172 114.061 489.611 114.069C488.735 114.069 488.041 114.438 487.53 115.178L486.147 114.307C486.909 113.216 488.035 112.67 489.525 112.67M487.497 118.748C487.497 119.157 487.67 119.498 488.017 119.771C488.364 120.044 488.77 120.181 489.236 120.181C489.896 120.181 490.484 119.936 491.002 119.447C491.52 118.958 491.779 118.383 491.779 117.724C491.289 117.337 490.607 117.144 489.731 117.143C489.094 117.143 488.562 117.297 488.135 117.604C487.709 117.911 487.496 118.292 487.497 118.748Z" fill="white"/>
<path d="M498.604 121.578C497.364 121.578 496.334 121.157 495.515 120.315C494.707 119.451 494.303 118.387 494.304 117.124C494.304 115.839 494.708 114.775 495.515 113.933C496.334 113.091 497.364 112.67 498.604 112.67C499.457 112.67 500.202 112.884 500.839 113.31C501.477 113.737 501.954 114.325 502.273 115.077L500.841 115.674C500.397 114.627 499.618 114.104 498.503 114.104C497.786 114.104 497.166 114.394 496.643 114.974C496.131 115.555 495.875 116.272 495.875 117.125C495.875 117.978 496.131 118.694 496.643 119.275C497.166 119.855 497.786 120.145 498.503 120.145C499.652 120.145 500.46 119.622 500.926 118.575L502.325 119.173C502.018 119.924 501.538 120.512 500.883 120.939C500.229 121.365 499.47 121.579 498.605 121.579" fill="white"/>
<path d="M507.053 121.578C505.824 121.578 504.812 121.157 504.015 120.315C503.219 119.474 502.821 118.41 502.821 117.124C502.821 115.85 503.207 114.789 503.981 113.942C504.755 113.094 505.744 112.67 506.95 112.67C508.19 112.67 509.177 113.071 509.911 113.873C510.644 114.675 511.011 115.799 511.01 117.244L510.993 117.414H504.425C504.448 118.233 504.721 118.893 505.244 119.394C505.767 119.894 506.392 120.145 507.121 120.145C508.122 120.145 508.907 119.644 509.476 118.643L510.875 119.326C510.518 120.012 509.978 120.585 509.314 120.981C508.648 121.379 507.894 121.578 507.053 121.578M504.545 116.117H509.339C509.292 115.537 509.056 115.056 508.63 114.675C508.205 114.294 507.633 114.104 506.915 114.104C506.324 114.104 505.815 114.286 505.388 114.65C504.962 115.014 504.68 115.503 504.544 116.117" fill="white"/>
</g>
<g opacity="0.6" clip-path="url(#clip4_4140_1340)">
<path d="M366.308 187.87H367.852V194.191C367.852 194.474 367.852 194.71 367.806 194.899C367.761 195.087 367.712 195.276 367.619 195.418C367.526 195.606 367.385 195.795 367.198 195.937C367.058 196.079 366.87 196.22 366.636 196.268C366.449 196.363 366.215 196.41 365.98 196.456C365.745 196.503 365.512 196.503 365.278 196.503C364.997 196.503 364.763 196.503 364.53 196.456C364.297 196.41 364.062 196.362 363.922 196.268V194.946C364.109 195.04 364.296 195.087 364.53 195.134C364.764 195.181 364.951 195.18 365.138 195.18C365.56 195.18 365.84 195.086 366.027 194.897C366.214 194.709 366.308 194.426 366.308 194.048L366.308 187.87ZM372.539 196.503C372.82 196.456 373.055 196.361 373.242 196.22C373.429 196.125 373.616 195.983 373.803 195.795C373.944 195.653 374.084 195.464 374.177 195.276C374.364 194.945 374.458 194.522 374.458 194.002V190.228H372.961V193.907C372.961 194.284 372.915 194.569 372.82 194.756C372.726 194.944 372.586 195.133 372.399 195.228C372.212 195.323 371.978 195.37 371.697 195.37C371.47 195.378 371.245 195.33 371.041 195.228C370.854 195.133 370.713 194.992 370.62 194.803C370.574 194.709 370.526 194.567 370.48 194.426C370.433 194.286 370.434 194.096 370.434 193.907V190.276H368.937V194.05C368.937 194.333 368.982 194.57 369.03 194.804C369.079 195.039 369.171 195.229 369.265 195.417C369.452 195.794 369.78 196.079 370.2 196.266C370.621 196.454 371.136 196.597 371.745 196.597C371.979 196.597 372.307 196.597 372.54 196.503H372.539ZM383.397 196.456H384.894V192.069C384.894 191.927 384.894 191.786 384.848 191.692C384.848 191.55 384.803 191.456 384.755 191.361C384.706 191.266 384.709 191.173 384.661 191.078C384.52 190.747 384.287 190.512 383.959 190.324C383.678 190.136 383.302 190.041 382.835 190.041C382.614 190.046 382.394 190.078 382.18 190.136C381.993 190.182 381.806 190.277 381.618 190.372C381.43 190.466 381.29 190.608 381.15 190.703C381.01 190.844 380.869 190.986 380.776 191.174H380.73C380.543 190.797 380.309 190.513 379.983 190.325C379.654 190.138 379.283 190.041 378.906 190.042C378.685 190.047 378.465 190.079 378.251 190.136C378.064 190.183 377.877 190.278 377.689 190.373C377.502 190.467 377.361 190.561 377.221 190.703C377.082 190.846 376.987 190.94 376.893 191.08H376.847L376.707 190.231H375.443V196.458H376.941V192.166C377.034 192.024 377.175 191.93 377.269 191.835C377.409 191.74 377.503 191.646 377.643 191.599C377.782 191.551 377.924 191.457 378.064 191.457C378.204 191.457 378.345 191.411 378.485 191.411C378.72 191.411 378.906 191.457 379.047 191.6C379.187 191.694 379.281 191.883 379.328 192.071C379.328 192.166 379.374 192.26 379.374 192.354V196.505H380.871V192.213C380.965 192.071 381.105 191.976 381.199 191.882C381.339 191.787 381.433 191.693 381.573 191.646C381.713 191.598 381.854 191.504 381.994 191.504C382.135 191.504 382.275 191.458 382.415 191.458C382.65 191.458 382.837 191.504 382.977 191.646C383.118 191.741 383.211 191.93 383.258 192.118C383.258 192.213 383.304 192.306 383.304 192.401V196.458L383.397 196.456ZM391.774 193.249C391.774 193.815 391.68 194.326 391.54 194.758C391.399 195.19 391.166 195.512 390.883 195.796C390.601 196.081 390.322 196.268 389.994 196.41C389.667 196.551 389.338 196.598 389.011 196.598C388.685 196.598 388.403 196.552 388.122 196.41C387.842 196.267 387.607 196.126 387.466 195.938H387.421V199.429H385.924V190.229H387.234L387.328 190.936C387.515 190.7 387.749 190.465 388.03 190.323C388.311 190.182 388.638 190.087 389.06 190.087C389.388 190.087 389.717 190.133 390.043 190.276C390.358 190.408 390.644 190.6 390.886 190.842C391.12 191.125 391.354 191.408 391.494 191.833C391.686 192.279 391.781 192.761 391.775 193.248L391.774 193.249ZM390.183 193.295C390.183 192.964 390.137 192.682 390.089 192.399C390.043 192.163 389.949 191.927 389.808 191.786C389.668 191.597 389.527 191.503 389.387 191.409C389.2 191.314 389.013 191.267 388.825 191.267C388.544 191.267 388.31 191.313 388.077 191.456C387.845 191.598 387.61 191.739 387.469 191.975V194.758C387.515 194.853 387.61 194.9 387.703 194.994C387.797 195.089 387.89 195.136 387.984 195.183C388.078 195.23 388.219 195.277 388.358 195.324C388.498 195.371 388.639 195.37 388.779 195.37C389.014 195.37 389.201 195.324 389.388 195.229C389.575 195.133 389.716 194.993 389.856 194.804C389.996 194.607 390.092 194.382 390.136 194.143C390.182 193.907 390.182 193.624 390.182 193.294L390.183 193.295ZM397.998 188.72C398.326 188.766 398.606 188.861 398.84 188.956V188.013C398.746 187.966 398.606 187.918 398.512 187.871C398.372 187.825 398.231 187.776 398.091 187.776C397.95 187.73 397.763 187.73 397.576 187.73H397.06C396.404 187.73 395.797 187.825 395.235 188.061C394.673 188.297 394.252 188.58 393.878 189.004C393.504 189.428 393.222 189.9 392.989 190.466C392.802 191.032 392.708 191.645 392.708 192.306C392.708 192.966 392.802 193.58 392.989 194.146C393.176 194.665 393.457 195.136 393.832 195.513C394.206 195.89 394.674 196.175 395.188 196.363C395.75 196.551 396.358 196.646 397.06 196.646C397.389 196.646 397.763 196.6 398.091 196.551C398.419 196.503 398.699 196.41 398.98 196.315V195.372C398.839 195.418 398.746 195.466 398.559 195.513C398.418 195.56 398.23 195.56 398.091 195.608C397.951 195.656 397.763 195.654 397.623 195.654H397.155C396.64 195.654 396.172 195.608 395.751 195.466C395.33 195.323 394.956 195.135 394.682 194.853C394.409 194.57 394.167 194.191 393.98 193.776C393.84 193.351 393.746 192.833 393.746 192.219C393.746 191.605 393.84 191.086 394.027 190.662C394.205 190.252 394.442 189.87 394.729 189.53C395.057 189.246 395.385 189.01 395.797 188.868C396.233 188.713 396.692 188.633 397.154 188.632C397.389 188.632 397.669 188.678 397.997 188.726L397.998 188.72ZM401.134 196.456V187.163H400.143V196.456H401.134ZM407.873 193.39C407.873 193.861 407.827 194.286 407.686 194.71C407.556 195.07 407.366 195.405 407.124 195.701C406.89 195.984 406.563 196.22 406.235 196.363C405.861 196.504 405.487 196.599 405.065 196.599C404.597 196.599 404.223 196.504 403.849 196.363C403.475 196.221 403.192 195.986 402.96 195.701C402.718 195.405 402.528 195.07 402.398 194.71C402.258 194.333 402.211 193.861 402.211 193.39C402.211 192.918 402.257 192.446 402.398 192.069C402.528 191.709 402.718 191.374 402.96 191.078C403.194 190.795 403.521 190.559 403.849 190.416C404.223 190.275 404.597 190.18 405.019 190.18C405.487 190.18 405.861 190.275 406.235 190.416C406.609 190.558 406.891 190.793 407.124 191.078C407.366 191.374 407.556 191.709 407.686 192.069C407.78 192.493 407.873 192.918 407.873 193.39ZM406.843 193.39C406.843 193.013 406.797 192.682 406.702 192.399C406.608 192.116 406.468 191.88 406.328 191.645C406.188 191.456 405.954 191.268 405.767 191.173C405.529 191.077 405.274 191.029 405.018 191.032C404.762 191.029 404.507 191.077 404.269 191.173C404.034 191.261 403.835 191.427 403.708 191.645C403.567 191.833 403.427 192.116 403.334 192.399C403.241 192.681 403.193 193.012 403.193 193.39C403.193 193.767 403.239 194.097 403.334 194.38C403.428 194.663 403.568 194.9 403.708 195.134C403.895 195.323 404.082 195.465 404.269 195.606C404.507 195.702 404.762 195.75 405.018 195.747C405.274 195.75 405.529 195.702 405.767 195.606C406.002 195.518 406.2 195.352 406.328 195.134C406.469 194.946 406.609 194.71 406.702 194.38C406.796 194.097 406.843 193.767 406.843 193.39ZM412.131 196.503C412.366 196.456 412.599 196.314 412.788 196.22C412.975 196.078 413.162 195.936 413.303 195.748C413.444 195.56 413.537 195.371 413.631 195.182C413.685 195.03 413.716 194.871 413.725 194.71C413.725 194.522 413.771 194.333 413.771 194.144V190.417H412.788V194.144C412.789 194.399 412.757 194.652 412.694 194.899C412.6 195.182 412.413 195.37 412.226 195.56C411.957 195.722 411.649 195.803 411.337 195.796C411.024 195.803 410.716 195.722 410.448 195.56C410.214 195.419 410.074 195.23 409.933 194.947C409.839 194.711 409.792 194.428 409.792 194.098V190.371H408.809V194.098C408.809 194.334 408.809 194.523 408.855 194.711C408.901 194.9 408.901 195.042 408.996 195.23C409.09 195.419 409.182 195.607 409.324 195.796C409.465 195.986 409.605 196.127 409.791 196.221C409.987 196.363 410.211 196.459 410.447 196.504C410.724 196.564 411.006 196.596 411.29 196.599C411.618 196.599 411.898 196.599 412.132 196.504L412.131 196.503ZM420.087 187.163V196.455H419.339L419.152 195.793H419.107L418.826 196.076C418.732 196.171 418.591 196.265 418.452 196.36C418.312 196.454 418.171 196.501 417.984 196.548C417.797 196.595 417.61 196.643 417.376 196.643C417.048 196.643 416.719 196.596 416.393 196.454C416.065 196.36 415.785 196.171 415.55 195.888C415.316 195.652 415.082 195.322 414.942 194.897C414.802 194.52 414.708 194.001 414.708 193.436C414.708 193.011 414.754 192.634 414.848 192.303C414.943 191.973 415.035 191.69 415.176 191.454C415.318 191.218 415.457 191.03 415.644 190.841C415.831 190.7 416.018 190.558 416.206 190.464C416.394 190.37 416.58 190.276 416.814 190.228C417.001 190.182 417.188 190.182 417.376 190.182C417.75 190.182 418.078 190.228 418.359 190.37C418.64 190.513 418.874 190.653 419.107 190.936V187.163H420.087ZM419.104 191.738C418.917 191.55 418.683 191.361 418.402 191.219C418.121 191.076 417.841 191.03 417.56 191.03C417.373 191.03 417.186 191.076 416.951 191.125C416.717 191.173 416.577 191.313 416.39 191.502C416.202 191.69 416.062 191.926 415.968 192.256C415.875 192.585 415.782 192.963 415.782 193.435C415.782 193.766 415.827 194.096 415.922 194.378C416.017 194.66 416.109 194.897 416.25 195.086C416.391 195.274 416.578 195.416 416.812 195.557C417.05 195.654 417.304 195.702 417.56 195.699C417.747 195.699 417.934 195.653 418.122 195.604C418.31 195.556 418.45 195.463 418.59 195.416C418.73 195.321 418.824 195.227 418.918 195.133C419.012 195.038 419.105 194.944 419.152 194.85V191.738H419.104Z" fill="white"/>
<path d="M408.629 181.689C408.474 181.689 408.357 181.728 408.202 181.728H390.313C391.516 179.382 393.689 177.543 396.172 176.682C394.386 175.43 393.495 173.24 393.845 171.089C394.194 169.016 395.707 167.256 397.685 166.592C400.363 165.77 403.272 166.865 404.592 169.361C405.873 171.864 405.096 175.032 402.806 176.674C405.29 177.495 407.423 179.333 408.626 181.68C408.471 181.68 407.578 179.685 408.626 181.68L408.629 181.689ZM388.957 181.689C388.957 180.946 389.578 180.203 389.966 179.655C389.009 178.7 387.857 177.966 386.591 177.505C389.617 175.354 388.996 170.543 385.543 169.214C383.409 168.432 381.002 169.214 379.8 171.129C378.48 173.241 379.063 176.057 381.081 177.504C378.995 178.226 377.261 179.723 376.231 181.689H381.042L388.957 181.689Z" fill="white"/>
<path d="M411.267 174.298C413.401 176.448 412.663 180.164 409.908 181.338C409.598 180.242 408.628 179.148 407.852 178.365C407.037 177.504 406.106 176.801 405.104 176.254C405.725 175.432 406.152 174.454 406.385 173.485C408.014 172.663 409.993 173.023 411.274 174.306C411.468 174.502 410.77 173.798 411.274 174.306L411.267 174.298ZM373.01 180.438C373.553 180.945 374.213 181.299 374.95 181.533C375.067 180.633 375.919 179.656 376.541 179.03C377.2 178.287 378.015 177.622 378.869 177.115C377.938 175.745 377.588 174.025 377.938 172.422C375.843 171.64 373.436 172.461 372.234 174.338C370.953 176.253 371.303 178.875 373.01 180.438C373.32 180.751 372.972 180.399 373.01 180.438V180.438ZM389.927 173.633C389.927 174.885 389.539 176.058 388.84 177.075C389.577 177.505 390.198 178.013 390.819 178.6C391.674 177.662 392.681 176.84 393.807 176.215C391.013 172.5 392.604 167.064 396.91 165.382C396.122 164.39 395.062 163.653 393.862 163.264C392.661 162.874 391.374 162.849 390.159 163.192C387.987 163.818 386.241 165.617 385.736 167.846C388.142 168.668 389.926 170.936 389.926 173.635L389.927 173.633Z" fill="white"/>
<path d="M414.914 176.769C414.603 173.328 411.655 170.629 408.201 170.629C407.969 170.629 407.698 170.629 407.464 170.668C406.766 166.522 402.923 163.55 398.772 163.902C396.715 161.32 393.3 160.069 390.079 160.773C388.605 161.089 387.236 161.785 386.108 162.793C384.979 163.8 384.128 165.085 383.638 166.523C381.194 166.601 379.059 167.93 377.819 169.886C373.629 168.947 369.438 172.036 369.088 176.339C368.7 180.446 372.076 184.123 376.227 184.123H408.587C408.82 184.123 409.045 184.084 409.246 184.005C412.738 183.418 415.222 180.211 414.911 176.769H414.914ZM409.055 182.988C411.772 182.557 408.9 183.026 409.055 182.988C408.939 183.026 408.784 183.066 408.668 183.066H376.23C372.582 183.066 369.713 179.782 370.139 176.183C370.597 172.312 374.68 169.809 378.326 171.137C379.413 168.829 381.857 167.383 384.418 167.617C384.753 166.224 385.463 164.95 386.469 163.936C387.475 162.922 388.739 162.206 390.121 161.868C393.225 161.125 396.524 162.416 398.309 165.036C402.538 164.332 406.496 167.656 406.534 171.959C409.677 170.982 413.091 172.976 413.789 176.222C414.41 179.35 412.237 182.479 409.055 182.988V182.988Z" fill="white"/>
</g>
<g opacity="0.6" clip-path="url(#clip5_4140_1340)">
<path d="M300.499 251.908C300.667 250.787 301.675 249.387 303.58 249.387C305.373 249.387 306.381 250.675 306.549 251.908H300.499ZM298.034 252.804C298.034 255.941 300.331 258.07 303.636 258.07C305.821 258.07 307.277 257.006 308.118 256.053C308.23 255.941 308.23 255.829 308.118 255.717L306.941 254.653C306.829 254.541 306.661 254.541 306.605 254.653C305.989 255.157 305.092 255.997 303.692 255.997C302.067 255.997 300.891 254.989 300.611 253.7H308.734C308.958 253.7 309.07 253.588 309.07 253.364V252.86C309.07 249.835 307.109 247.37 303.804 247.37C300.162 247.37 298.034 249.779 298.034 252.804ZM310.471 257.678C310.471 257.846 310.583 257.958 310.751 257.958H312.487C312.655 257.958 312.768 257.846 312.768 257.678V243.224C312.711 243.112 312.655 243 312.487 243H310.695C310.527 243 310.471 243.112 310.471 243.224V257.678ZM294.448 257.678C294.448 257.846 294.56 257.958 294.728 257.958H296.409C296.577 257.958 296.689 257.846 296.689 257.678V251.852C296.689 249.387 295.232 247.37 292.151 247.37H292.095C290.583 247.37 289.462 247.874 288.79 248.434V247.874C288.79 247.706 288.678 247.594 288.51 247.594H286.773C286.605 247.594 286.493 247.706 286.493 247.874V257.622C286.493 257.79 286.605 257.902 286.773 257.902H288.51C288.678 257.902 288.79 257.79 288.79 257.622V252.244C288.79 250.563 289.63 249.331 291.647 249.331C293.664 249.331 294.448 250.563 294.448 252.244V257.678ZM327.221 260.703C328.006 261.655 329.686 262.776 332.039 262.776C335.345 262.776 337.305 260.759 337.305 257.566V247.93C337.305 247.762 337.193 247.65 337.025 247.65H335.401C335.232 247.65 335.12 247.762 335.12 247.93V248.49C334.392 247.874 333.44 247.426 331.871 247.426C328.902 247.426 326.325 249.611 326.325 252.804C326.325 256.053 328.846 258.182 331.871 258.182C333.328 258.182 334.28 257.678 335.008 257.118V257.79C335.008 259.583 333.944 260.815 331.983 260.815C330.359 260.815 329.294 259.919 328.566 259.246C328.454 259.134 328.23 259.134 328.118 259.246L327.221 260.255C327.053 260.367 327.053 260.535 327.221 260.703ZM282.739 252.748C282.739 254.541 281.395 255.997 279.546 255.997C277.697 255.997 276.465 254.429 276.465 252.748V252.636C276.465 250.899 277.754 249.443 279.546 249.443C281.339 249.443 282.739 250.899 282.739 252.748ZM274 252.748C274 255.661 276.353 258.126 279.546 258.126C282.739 258.126 285.092 255.661 285.092 252.748V252.636C285.092 249.723 282.739 247.37 279.546 247.37C276.353 247.37 274 249.723 274 252.748ZM322.796 252.748C322.796 254.541 321.451 255.997 319.602 255.997C317.81 255.997 316.521 254.429 316.521 252.748V252.636C316.521 250.899 317.81 249.443 319.602 249.443C321.451 249.443 322.796 250.899 322.796 252.748ZM314.056 252.748C314.056 255.661 316.409 258.126 319.602 258.126C322.796 258.126 325.148 255.661 325.148 252.748V252.636C325.148 249.723 322.796 247.37 319.602 247.37C316.409 247.37 314.056 249.723 314.056 252.748ZM339.434 257.678C339.434 257.846 339.546 257.958 339.714 257.958H341.451C341.619 257.958 341.731 257.846 341.731 257.678V247.874C341.731 247.762 341.675 247.65 341.507 247.65H339.714C339.546 247.65 339.49 247.762 339.49 247.874V257.678H339.434ZM339.434 245.073C339.434 245.241 339.546 245.353 339.714 245.353H341.451C341.619 245.353 341.731 245.241 341.731 245.073V243.224C341.731 243.112 341.675 243 341.507 243H339.714C339.546 243 339.49 243.112 339.49 243.224V245.073H339.434ZM351.703 257.678C351.703 257.846 351.815 257.958 351.983 257.958H353.72C353.888 257.958 354 257.846 354 257.678V251.852C354 249.387 352.543 247.37 349.462 247.37H349.406C347.894 247.37 346.773 247.874 346.101 248.434V247.874C346.101 247.706 345.989 247.594 345.821 247.594H344.084C343.916 247.594 343.804 247.706 343.804 247.874V257.622C343.804 257.79 343.916 257.902 344.084 257.902H345.821C345.989 257.902 346.101 257.79 346.101 257.622V252.244C346.101 250.563 346.941 249.331 348.958 249.331C350.975 249.331 351.759 250.563 351.759 252.244V257.678H351.703ZM335.064 252.748C335.064 254.541 333.72 255.997 331.871 255.997C330.022 255.997 328.79 254.429 328.79 252.748V252.636C328.79 250.899 330.078 249.443 331.871 249.443C333.664 249.443 335.064 250.899 335.064 252.748Z" fill="white"/>
</g>
<g opacity="0.6" clip-path="url(#clip6_4140_1340)">
<path fill-rule="evenodd" clip-rule="evenodd" d="M433 258.865H445.865V246H433V258.865Z" fill="white"/>
<path fill-rule="evenodd" clip-rule="evenodd" d="M498.646 249.847L499.724 249.666V257.01H498.646V249.847ZM502.873 250.676V255.307C502.873 256.101 503.073 256.376 503.725 256.376C504.018 256.376 503.941 256.379 504.127 256.278L504.274 256.999C503.941 257.186 503.818 257.24 503.352 257.24C503.006 257.24 502.74 257.169 502.486 257.039C502.021 256.794 501.848 256.332 501.848 255.61V250.676H500.983V249.825H501.848V247.103H502.913V249.825H504.578L504.258 250.676H502.873ZM511.409 256.795C510.995 256.795 510.66 256.44 510.66 255.949C510.66 255.458 510.995 255.103 511.409 255.103C511.823 255.103 512.157 255.458 512.157 255.949C512.157 256.44 511.823 256.795 511.409 256.795ZM511.409 254.899C510.864 254.899 510.419 255.371 510.419 255.949C510.419 256.527 510.864 256.998 511.409 256.998C511.955 256.998 512.399 256.527 512.399 255.949C512.399 255.371 511.955 254.899 511.409 254.899ZM511.236 255.859V255.519H511.422C511.53 255.519 511.65 255.541 511.65 255.681C511.65 255.841 511.543 255.859 511.42 255.859H511.236ZM511.859 255.699C511.859 255.449 511.713 255.35 511.444 255.35H511.028V256.54H511.236V256.028H511.362L511.653 256.54H511.867L511.565 256.019C511.749 256.001 511.859 255.902 511.859 255.699ZM510.962 249.825L508.686 257.269C508.233 258.713 507.7 259.665 506.542 259.968L506.236 259.203C506.884 258.983 507.224 258.663 507.507 257.881C507.401 257.314 507.34 257.068 507.34 257.068C507.261 256.606 506.901 255.206 506.675 254.485L505.25 249.984L506.276 249.608L507.634 254.268C507.833 254.947 508.033 256.057 508.033 256.057H508.06C508.06 256.057 508.312 255.134 508.473 254.543L509.777 249.825H510.962ZM478.9 255.178C478.9 255.178 478.78 255.481 478.501 255.697C478.074 256.029 477.768 256.159 477.223 256.159C476.611 256.159 476.197 255.914 475.892 255.322C475.678 254.904 475.625 254.283 475.625 253.446C475.625 252.436 475.731 251.917 476.051 251.369C476.331 250.878 476.77 250.619 477.29 250.619C478.074 250.619 478.568 250.865 478.9 251.369V255.178ZM479.952 247.103H478.913V249.494C478.913 250.013 478.927 250.604 478.927 250.604C478.528 250.027 477.875 249.696 477.13 249.696C476.65 249.696 476.278 249.825 475.851 250.143C474.946 250.82 474.481 251.946 474.481 253.475C474.481 255.768 475.466 257.11 477.182 257.11C477.955 257.11 478.461 256.866 478.94 256.275C478.953 256.649 479.087 257.01 479.087 257.01H480.152C480.005 256.591 479.952 255.928 479.952 254.688V247.103ZM495.803 249.84H497.515L497.196 250.691H495.763V255.322C495.763 256.116 495.962 256.391 496.615 256.391C496.908 256.391 496.831 256.394 497.017 256.292L497.164 257.014C496.831 257.201 496.708 257.255 496.242 257.255C495.896 257.255 495.63 257.184 495.376 257.054C494.911 256.809 494.737 256.347 494.737 255.625V250.691H493.873V249.84H494.737V247.118H495.803V249.84ZM492.781 250.72C492.887 250.979 492.94 251.268 492.94 251.557V257.011H491.888V252.148C491.888 251.383 491.835 251.196 491.649 250.95C491.503 250.763 491.222 250.647 490.916 250.647C490.383 250.647 489.559 251.11 489.079 251.658V257.011H488.068V251.47C488.068 250.446 487.815 249.955 487.815 249.955L488.826 249.652C488.826 249.652 489.067 250.185 489.067 250.778C489.758 250.027 490.45 249.666 491.156 249.666C491.875 249.666 492.514 250.085 492.781 250.72ZM482.499 252.753C482.552 251.267 483.085 250.517 484.03 250.517C484.536 250.517 485.001 250.763 485.228 251.152C485.427 251.498 485.521 251.975 485.534 252.753H482.499ZM484.083 249.637C483.284 249.637 482.632 249.955 482.099 250.633C481.54 251.356 481.301 252.134 481.301 253.346C481.301 255.727 482.405 257.169 484.243 257.169C485.095 257.169 485.894 256.852 486.479 256.275L486.079 255.552C485.614 256.015 485.095 256.23 484.455 256.23C483.789 256.23 483.177 255.971 482.805 255.351C482.578 254.977 482.499 254.456 482.499 253.779V253.605H486.639V253.446C486.613 251.73 486.452 251.052 485.881 250.416C485.427 249.912 484.802 249.637 484.083 249.637ZM471.964 257.01H473.029V247.113H471.964V257.01Z" fill="white"/>
<path fill-rule="evenodd" clip-rule="evenodd" d="M470.846 249.504L471.596 250.711C471.207 251.094 470.832 251.25 470.337 251.25C470.162 251.25 469.974 251.223 469.866 251.209C470.135 251.548 470.27 251.918 470.27 252.4C470.27 253.65 469.196 254.559 467.735 254.559C467.654 254.559 467.601 254.559 467.467 254.545C467.012 254.772 466.757 254.943 466.757 255.141C466.757 255.24 466.864 255.312 467.052 255.312L468.017 255.326C469.062 255.34 469.612 255.51 470.095 255.979C470.497 256.376 470.685 256.873 470.685 257.527C470.685 258.138 470.511 258.606 470.135 259.031C469.532 259.713 468.499 259.968 467.426 259.968C466.449 259.968 465.443 259.798 464.826 259.188C464.451 258.819 464.263 258.392 464.263 257.896C464.263 257.498 464.357 257.299 464.424 257.158H466.087C466.019 257.328 466.005 257.427 466.005 257.625C466.005 258.208 466.462 258.52 467.293 258.52C467.749 258.52 468.138 258.464 468.419 258.279C468.687 258.108 468.861 257.839 468.861 257.541C468.861 256.888 468.312 256.689 467.601 256.675L466.837 256.66C466.033 256.645 465.51 256.575 465.188 256.433C464.866 256.305 464.665 255.979 464.665 255.482C464.665 255.014 464.799 254.573 465.925 254.261C464.933 253.991 464.451 253.324 464.451 252.245C464.451 250.754 465.591 249.789 467.346 249.789C467.735 249.789 468.084 249.845 468.58 249.973C468.955 250.072 469.196 250.129 469.425 250.129C469.92 250.129 470.43 249.902 470.846 249.504ZM459.448 249.732C459.61 250.03 459.704 250.342 459.704 250.64C459.972 250.441 460.2 250.27 460.495 250.1C460.857 249.902 461.326 249.789 461.728 249.789C462.492 249.789 463.163 250.214 463.377 250.839C463.471 251.109 463.511 251.421 463.511 251.875V257.186H461.741V252.457C461.741 251.634 461.607 251.393 461.138 251.393C460.777 251.393 460.308 251.649 459.892 252.046V257.186H458.095V251.918C458.095 251.293 458.014 250.697 457.854 250.214L459.448 249.732ZM456.633 249.745V257.186H454.837V250.043L456.633 249.745ZM450.156 247.318C451.738 247.318 452.221 247.488 452.745 247.8C453.615 248.312 454.084 249.22 454.084 250.357C454.084 251.662 453.495 252.713 452.476 253.224C452.047 253.437 451.644 253.551 450.612 253.551H449.58V257.186H447.703V247.318H450.156ZM467.333 251.179C466.649 251.179 466.26 251.578 466.26 252.259C466.26 252.997 466.689 253.295 467.319 253.295C468.03 253.295 468.419 252.926 468.419 252.259C468.419 251.578 468.017 251.179 467.333 251.179ZM450.773 248.922H449.58V251.932H450.559C451.323 251.932 451.551 251.833 451.805 251.421C451.967 251.152 452.033 250.867 452.033 250.398C452.033 249.476 451.564 248.922 450.773 248.922ZM455.761 246.735C456.365 246.735 456.848 247.261 456.848 247.914C456.848 248.567 456.351 249.093 455.734 249.093C455.132 249.093 454.635 248.567 454.635 247.914C454.635 247.261 455.145 246.735 455.761 246.735Z" fill="white"/>
</g>
<g opacity="0.6">
<g opacity="0.85">
<path d="M145.124 109.978H125.224V120.074H135.185C140.515 120.074 144.867 115.606 145.124 109.978Z" fill="white"/>
</g>
<path d="M135.185 98.8242H125.224V108.92H145.134C144.867 103.292 140.515 98.8242 135.185 98.8242Z" fill="white"/>
<path d="M177.011 98.8242C171.681 98.8242 167.318 103.302 167.061 108.92H186.95C186.704 103.292 182.341 98.8242 177.011 98.8242Z" fill="white"/>
<g opacity="0.85">
<path d="M186.961 109.978H167.061C167.318 115.606 171.671 120.074 177.011 120.074C182.341 120.074 186.704 115.606 186.961 109.978Z" fill="white"/>
</g>
<path d="M146.133 98.8242V109.449C146.133 115.138 150.32 119.789 155.599 120.064V98.8242H146.133Z" fill="white"/>
<g opacity="0.85">
<path d="M166.053 98.8242H156.597V120.074H166.053V109.449V98.8242Z" fill="white"/>
</g>
</g>
<path d="M725.958 140.596L734.438 126.29C735.699 124.163 737.987 122.859 740.459 122.859H755.263C757.735 122.859 760.024 124.163 761.285 126.29L769.765 140.596C771.059 142.779 771.07 145.492 769.794 147.686L761.276 162.327C760.022 164.481 757.718 165.807 755.225 165.807H740.497C738.005 165.807 735.7 164.481 734.447 162.327L725.929 147.686C724.652 145.492 724.663 142.779 725.958 140.596Z" fill="url(#paint19_linear_4140_1340)"/>
<path d="M745.335 130.438H739.777L731.44 143.729L739.777 158.228H745.335L736.998 143.729L745.335 130.438Z" fill="#131313"/>
<path d="M750.388 130.438H755.946L764.282 143.729L755.946 158.228H750.388L758.724 143.729L750.388 130.438Z" fill="#131313"/>
<g opacity="0.2" filter="url(#filter0_f_4140_1340)">
<circle cx="747.861" cy="144.859" r="36.5" stroke="#3FA1E3"/>
</g>
<circle opacity="0.2" cx="748" cy="145" r="73.5" stroke="#3FA1E3"/>
<g opacity="0.2" filter="url(#filter1_f_4140_1340)">
<circle cx="748" cy="145" r="50" fill="#3FA1E3"/>
</g>
<circle opacity="0.1" cx="748" cy="145" r="101.5" stroke="#3FA1E3"/>
<circle opacity="0.05" cx="748" cy="145" r="131.5" stroke="#3FA1E3"/>
<g opacity="0.5" filter="url(#filter2_f_4140_1340)">
<path d="M719.058 141L731.104 121.219C732.374 119.132 734.64 117.859 737.083 117.859H758.64C761.083 117.859 763.348 119.132 764.619 121.219L776.665 141C778.016 143.218 778.027 146.003 776.695 148.232L764.611 168.451C763.347 170.565 761.065 171.859 758.602 171.859H737.121C734.658 171.859 732.376 170.565 731.112 168.451L719.028 148.232C717.695 146.003 717.707 143.218 719.058 141Z" stroke="#3FA1E3"/>
</g>
<g opacity="0.6" filter="url(#filter3_f_4140_1340)">
<circle cx="580" cy="71" r="6" fill="#3FA1E3"/>
</g>
<g filter="url(#filter4_f_4140_1340)">
<circle cx="580" cy="71" r="2" fill="white"/>
</g>
<g opacity="0.6" filter="url(#filter5_f_4140_1340)">
<circle cx="670" cy="138" r="6" fill="#3FA1E3"/>
</g>
<g filter="url(#filter6_f_4140_1340)">
<circle cx="670" cy="138" r="2" fill="white"/>
</g>
<g opacity="0.6" filter="url(#filter7_f_4140_1340)">
<circle cx="603" cy="150" r="6" fill="#3FA1E3"/>
</g>
<g filter="url(#filter8_f_4140_1340)">
<circle cx="603" cy="150" r="2" fill="white"/>
</g>
<g opacity="0.6" filter="url(#filter9_f_4140_1340)">
<circle cx="506" cy="182" r="6" fill="#3FA1E3"/>
</g>
<g filter="url(#filter10_f_4140_1340)">
<circle cx="506" cy="182" r="2" fill="white"/>
</g>
<defs>
<filter id="filter0_f_4140_1340" x="706.861" y="103.859" width="82" height="82" filterUnits="userSpaceOnUse" color-interpolation-filters="sRGB">
<feFlood flood-opacity="0" result="BackgroundImageFix"/>
<feBlend mode="normal" in="SourceGraphic" in2="BackgroundImageFix" result="shape"/>
<feGaussianBlur stdDeviation="2" result="effect1_foregroundBlur_4140_1340"/>
</filter>
<filter id="filter1_f_4140_1340" x="666" y="63" width="164" height="164" filterUnits="userSpaceOnUse" color-interpolation-filters="sRGB">
<feFlood flood-opacity="0" result="BackgroundImageFix"/>
<feBlend mode="normal" in="SourceGraphic" in2="BackgroundImageFix" result="shape"/>
<feGaussianBlur stdDeviation="16" result="effect1_foregroundBlur_4140_1340"/>
</filter>
<filter id="filter2_f_4140_1340" x="713.536" y="113.359" width="68.6497" height="63" filterUnits="userSpaceOnUse" color-interpolation-filters="sRGB">
<feFlood flood-opacity="0" result="BackgroundImageFix"/>
<feBlend mode="normal" in="SourceGraphic" in2="BackgroundImageFix" result="shape"/>
<feGaussianBlur stdDeviation="2" result="effect1_foregroundBlur_4140_1340"/>
</filter>
<filter id="filter3_f_4140_1340" x="569" y="60" width="22" height="22" filterUnits="userSpaceOnUse" color-interpolation-filters="sRGB">
<feFlood flood-opacity="0" result="BackgroundImageFix"/>
<feBlend mode="normal" in="SourceGraphic" in2="BackgroundImageFix" result="shape"/>
<feGaussianBlur stdDeviation="2.5" result="effect1_foregroundBlur_4140_1340"/>
</filter>
<filter id="filter4_f_4140_1340" x="576" y="67" width="8" height="8" filterUnits="userSpaceOnUse" color-interpolation-filters="sRGB">
<feFlood flood-opacity="0" result="BackgroundImageFix"/>
<feBlend mode="normal" in="SourceGraphic" in2="BackgroundImageFix" result="shape"/>
<feGaussianBlur stdDeviation="1" result="effect1_foregroundBlur_4140_1340"/>
</filter>
<filter id="filter5_f_4140_1340" x="659" y="127" width="22" height="22" filterUnits="userSpaceOnUse" color-interpolation-filters="sRGB">
<feFlood flood-opacity="0" result="BackgroundImageFix"/>
<feBlend mode="normal" in="SourceGraphic" in2="BackgroundImageFix" result="shape"/>
<feGaussianBlur stdDeviation="2.5" result="effect1_foregroundBlur_4140_1340"/>
</filter>
<filter id="filter6_f_4140_1340" x="666" y="134" width="8" height="8" filterUnits="userSpaceOnUse" color-interpolation-filters="sRGB">
<feFlood flood-opacity="0" result="BackgroundImageFix"/>
<feBlend mode="normal" in="SourceGraphic" in2="BackgroundImageFix" result="shape"/>
<feGaussianBlur stdDeviation="1" result="effect1_foregroundBlur_4140_1340"/>
</filter>
<filter id="filter7_f_4140_1340" x="592" y="139" width="22" height="22" filterUnits="userSpaceOnUse" color-interpolation-filters="sRGB">
<feFlood flood-opacity="0" result="BackgroundImageFix"/>
<feBlend mode="normal" in="SourceGraphic" in2="BackgroundImageFix" result="shape"/>
<feGaussianBlur stdDeviation="2.5" result="effect1_foregroundBlur_4140_1340"/>
</filter>
<filter id="filter8_f_4140_1340" x="599" y="146" width="8" height="8" filterUnits="userSpaceOnUse" color-interpolation-filters="sRGB">
<feFlood flood-opacity="0" result="BackgroundImageFix"/>
<feBlend mode="normal" in="SourceGraphic" in2="BackgroundImageFix" result="shape"/>
<feGaussianBlur stdDeviation="1" result="effect1_foregroundBlur_4140_1340"/>
</filter>
<filter id="filter9_f_4140_1340" x="495" y="171" width="22" height="22" filterUnits="userSpaceOnUse" color-interpolation-filters="sRGB">
<feFlood flood-opacity="0" result="BackgroundImageFix"/>
<feBlend mode="normal" in="SourceGraphic" in2="BackgroundImageFix" result="shape"/>
<feGaussianBlur stdDeviation="2.5" result="effect1_foregroundBlur_4140_1340"/>
</filter>
<filter id="filter10_f_4140_1340" x="502" y="178" width="8" height="8" filterUnits="userSpaceOnUse" color-interpolation-filters="sRGB">
<feFlood flood-opacity="0" result="BackgroundImageFix"/>
<feBlend mode="normal" in="SourceGraphic" in2="BackgroundImageFix" result="shape"/>
<feGaussianBlur stdDeviation="1" result="effect1_foregroundBlur_4140_1340"/>
</filter>
<linearGradient id="paint0_linear_4140_1340" x1="391.5" y1="148" x2="391.5" y2="212" gradientUnits="userSpaceOnUse">
<stop stop-color="white" stop-opacity="0"/>
<stop offset="1" stop-color="white"/>
</linearGradient>
<linearGradient id="paint1_linear_4140_1340" x1="313.5" y1="220" x2="313.5" y2="284" gradientUnits="userSpaceOnUse">
<stop stop-color="white" stop-opacity="0"/>
<stop offset="1" stop-color="white"/>
</linearGradient>
<linearGradient id="paint2_linear_4140_1340" x1="470.5" y1="220" x2="470.5" y2="284" gradientUnits="userSpaceOnUse">
<stop stop-color="white" stop-opacity="0"/>
<stop offset="1" stop-color="white"/>
</linearGradient>
<linearGradient id="paint3_linear_4140_1340" x1="156.5" y1="76" x2="156.5" y2="140" gradientUnits="userSpaceOnUse">
<stop stop-color="white" stop-opacity="0"/>
<stop offset="1" stop-color="white"/>
</linearGradient>
<linearGradient id="paint4_linear_4140_1340" x1="161" y1="252" x2="80" y2="252" gradientUnits="userSpaceOnUse">
<stop/>
<stop offset="1" stop-opacity="0"/>
</linearGradient>
<linearGradient id="paint5_linear_4140_1340" x1="156.5" y1="220" x2="156.5" y2="284" gradientUnits="userSpaceOnUse">
<stop stop-color="white" stop-opacity="0"/>
<stop offset="1" stop-color="white"/>
</linearGradient>
<linearGradient id="paint6_linear_4140_1340" x1="85" y1="34" x2="4" y2="34" gradientUnits="userSpaceOnUse">
<stop/>
<stop offset="1" stop-opacity="0"/>
</linearGradient>
<linearGradient id="paint7_linear_4140_1340" x1="80.5" y1="2" x2="80.5" y2="66" gradientUnits="userSpaceOnUse">
<stop stop-color="white" stop-opacity="0"/>
<stop offset="1" stop-color="white"/>
</linearGradient>
<linearGradient id="paint8_linear_4140_1340" x1="81" y1="180" x2="0" y2="180" gradientUnits="userSpaceOnUse">
<stop/>
<stop offset="1" stop-opacity="0"/>
</linearGradient>
<linearGradient id="paint9_linear_4140_1340" x1="76.5" y1="148" x2="76.5" y2="212" gradientUnits="userSpaceOnUse">
<stop stop-color="white" stop-opacity="0"/>
<stop offset="1" stop-color="white"/>
</linearGradient>
<linearGradient id="paint10_linear_4140_1340" x1="238.5" y1="4" x2="238.5" y2="68" gradientUnits="userSpaceOnUse">
<stop stop-color="white" stop-opacity="0"/>
<stop offset="1" stop-color="white"/>
</linearGradient>
<linearGradient id="paint11_linear_4140_1340" x1="395.5" y1="4" x2="395.5" y2="68" gradientUnits="userSpaceOnUse">
<stop stop-color="white" stop-opacity="0"/>
<stop offset="1" stop-color="white"/>
</linearGradient>
<linearGradient id="paint12_linear_4140_1340" x1="314.5" y1="76" x2="314.5" y2="140" gradientUnits="userSpaceOnUse">
<stop stop-color="white" stop-opacity="0"/>
<stop offset="1" stop-color="white"/>
</linearGradient>
<linearGradient id="paint13_linear_4140_1340" x1="471.5" y1="76" x2="471.5" y2="140" gradientUnits="userSpaceOnUse">
<stop stop-color="white" stop-opacity="0"/>
<stop offset="1" stop-color="white"/>
</linearGradient>
<linearGradient id="paint14_linear_4140_1340" x1="234.5" y1="148" x2="234.5" y2="212" gradientUnits="userSpaceOnUse">
<stop stop-color="white" stop-opacity="0"/>
<stop offset="1" stop-color="white"/>
</linearGradient>
<linearGradient id="paint15_linear_4140_1340" x1="703.5" y1="123.5" x2="557" y2="123.5" gradientUnits="userSpaceOnUse">
<stop stop-color="#232F6F" stop-opacity="0"/>
<stop offset="0.134636" stop-color="#232F6F"/>
<stop offset="0.899064" stop-color="#232F6F"/>
<stop offset="1" stop-color="#232F6F" stop-opacity="0"/>
</linearGradient>
<linearGradient id="paint16_linear_4140_1340" x1="703.5" y1="164" x2="475" y2="164" gradientUnits="userSpaceOnUse">
<stop stop-color="#232F6F" stop-opacity="0"/>
<stop offset="0.134636" stop-color="#232F6F"/>
<stop offset="0.899064" stop-color="#232F6F"/>
<stop offset="1" stop-color="#232F6F" stop-opacity="0"/>
</linearGradient>
<linearGradient id="paint17_linear_4140_1340" x1="703.5" y1="87" x2="483" y2="87" gradientUnits="userSpaceOnUse">
<stop stop-color="#232F6F" stop-opacity="0"/>
<stop offset="0.134636" stop-color="#232F6F"/>
<stop offset="0.899064" stop-color="#232F6F"/>
<stop offset="1" stop-color="#232F6F" stop-opacity="0"/>
</linearGradient>
<linearGradient id="paint18_linear_4140_1340" x1="703.5" y1="201" x2="557" y2="201" gradientUnits="userSpaceOnUse">
<stop stop-color="#232F6F" stop-opacity="0"/>
<stop offset="0.134636" stop-color="#232F6F"/>
<stop offset="0.899064" stop-color="#232F6F"/>
<stop offset="1" stop-color="#232F6F" stop-opacity="0"/>
</linearGradient>
<linearGradient id="paint19_linear_4140_1340" x1="747.861" y1="122.859" x2="747.861" y2="165.807" gradientUnits="userSpaceOnUse">
<stop stop-color="#3FA1E3" stop-opacity="0.35"/>
<stop offset="0.605793" stop-color="#3FA1E3"/>
</linearGradient>
<clipPath id="clip0_4140_1340">
<rect width="72" height="24" fill="white" transform="translate(203 22)"/>
</clipPath>
<clipPath id="clip1_4140_1340">
<rect width="80" height="29" fill="white" transform="translate(195 164)"/>
</clipPath>
<clipPath id="clip2_4140_1340">
<rect width="80" height="25.7667" fill="white" transform="translate(354 24)"/>
</clipPath>
<clipPath id="clip3_4140_1340">
<rect width="80" height="34.087" fill="white" transform="translate(431 91)"/>
</clipPath>
<clipPath id="clip4_4140_1340">
<rect width="58" height="40" fill="white" transform="translate(363 160)"/>
</clipPath>
<clipPath id="clip5_4140_1340">
<rect width="80" height="19.7199" fill="white" transform="translate(274 243)"/>
</clipPath>
<clipPath id="clip6_4140_1340">
<rect width="80" height="13.9683" fill="white" transform="translate(433 246)"/>
</clipPath>
</defs>
</svg>
