<svg width="404" height="180" viewBox="0 0 404 180" fill="none" xmlns="http://www.w3.org/2000/svg">
<g clip-path="url(#clip0_4950_2355)">
<rect opacity="0.4" x="14" y="12" width="204" height="205" rx="102" fill="url(#paint0_radial_4950_2355)"/>
<rect opacity="0.4" x="180" y="12" width="204" height="205" rx="102" fill="url(#paint1_radial_4950_2355)"/>
<rect x="0.5" y="0.5" width="228" height="228" rx="114" stroke="#232F6F"/>
<rect x="169.5" y="0.5" width="228" height="228" rx="114" stroke="#232F6F"/>
<path d="M123.237 98.3333C122.884 97.7209 122.301 97.274 121.618 97.0909C120.935 96.9079 120.207 97.0037 119.595 97.3573L116.667 99.048V95.6667C116.667 94.9594 116.386 94.2811 115.886 93.781C115.386 93.281 114.707 93 114 93C113.293 93 112.614 93.281 112.114 93.781C111.614 94.2811 111.333 94.9594 111.333 95.6667V99.048L108.405 97.3573C107.793 97.0037 107.065 96.9079 106.382 97.0909C105.699 97.2739 105.116 97.7209 104.763 98.3333C104.409 98.9458 104.313 99.6737 104.496 100.357C104.679 101.04 105.126 101.622 105.739 101.976L108.667 103.667L105.739 105.357C105.131 105.713 104.689 106.295 104.509 106.976C104.329 107.657 104.426 108.381 104.778 108.991C105.13 109.601 105.709 110.047 106.389 110.231C107.068 110.416 107.793 110.324 108.405 109.976L111.333 108.285V111.667C111.333 112.374 111.614 113.052 112.114 113.552C112.614 114.052 113.293 114.333 114 114.333C114.707 114.333 115.386 114.052 115.886 113.552C116.386 113.052 116.667 112.374 116.667 111.667V108.285L119.595 109.976C119.898 110.152 120.233 110.266 120.58 110.312C120.927 110.358 121.28 110.335 121.619 110.245C121.957 110.154 122.274 109.997 122.552 109.784C122.83 109.57 123.063 109.304 123.237 109C123.591 108.388 123.687 107.66 123.504 106.977C123.321 106.293 122.874 105.711 122.261 105.357L119.333 103.667L122.261 101.976C122.874 101.622 123.321 101.04 123.504 100.357C123.687 99.6737 123.591 98.9458 123.237 98.3333ZM100.832 98.3333C100.478 97.7209 99.8959 97.274 99.2128 97.0909C98.5297 96.9079 97.8018 97.0037 97.1893 97.3573L94.2613 99.048V95.6667C94.2613 94.9594 93.9804 94.2811 93.4803 93.781C92.9802 93.281 92.3019 93 91.5947 93C90.8874 93 90.2091 93.281 89.709 93.781C89.209 94.2811 88.928 94.9594 88.928 95.6667V99.048L86 97.3573C85.3875 97.0037 84.6597 96.9079 83.9765 97.0909C83.2934 97.2739 82.711 97.7209 82.3573 98.3333C82.0037 98.9458 81.9079 99.6737 82.0909 100.357C82.2739 101.04 82.7209 101.622 83.3333 101.976L86.2613 103.667L83.3333 105.357C82.7258 105.713 82.2839 106.295 82.1039 106.976C81.9239 107.657 82.0205 108.381 82.3726 108.991C82.7247 109.601 83.3037 110.047 83.9833 110.231C84.6629 110.416 85.3878 110.324 86 109.976L88.928 108.285V111.667C88.928 112.374 89.209 113.052 89.709 113.552C90.2091 114.052 90.8874 114.333 91.5947 114.333C92.3019 114.333 92.9802 114.052 93.4803 113.552C93.9804 113.052 94.2613 112.374 94.2613 111.667V108.285L97.1893 109.976C97.4924 110.152 97.8272 110.266 98.1746 110.312C98.5219 110.358 98.8749 110.335 99.2134 110.245C99.5518 110.154 99.869 109.997 100.147 109.784C100.425 109.57 100.657 109.304 100.832 109C101.186 108.388 101.281 107.66 101.098 106.977C100.915 106.293 100.468 105.711 99.856 105.357L96.928 103.667L99.856 101.976C100.468 101.622 100.915 101.04 101.098 100.357C101.281 99.6737 101.186 98.9458 100.832 98.3333ZM129.48 110.333C129.933 110.333 130.392 110.219 130.811 109.976L133.739 108.285V111.667C133.739 112.374 134.02 113.052 134.52 113.552C135.02 114.052 135.698 114.333 136.405 114.333C137.113 114.333 137.791 114.052 138.291 113.552C138.791 113.052 139.072 112.374 139.072 111.667V108.285L142 109.976C142.303 110.152 142.638 110.266 142.985 110.312C143.333 110.358 143.686 110.335 144.024 110.245C144.362 110.154 144.68 109.997 144.957 109.784C145.235 109.57 145.468 109.304 145.643 109C145.996 108.388 146.092 107.66 145.909 106.977C145.726 106.293 145.279 105.711 144.667 105.357L141.739 103.667L144.667 101.976C145.274 101.62 145.716 101.038 145.896 100.357C146.076 99.6763 145.98 98.952 145.627 98.3421C145.275 97.7323 144.696 97.2865 144.017 97.102C143.337 96.9175 142.612 97.0093 142 97.3573L139.072 99.048V95.6667C139.072 94.9594 138.791 94.2811 138.291 93.781C137.791 93.281 137.113 93 136.405 93C135.698 93 135.02 93.281 134.52 93.781C134.02 94.2811 133.739 94.9594 133.739 95.6667V99.048L130.811 97.3573C130.198 97.0037 129.47 96.9079 128.787 97.0909C128.104 97.2739 127.522 97.7209 127.168 98.3333C126.814 98.9458 126.719 99.6737 126.902 100.357C127.085 101.04 127.532 101.622 128.144 101.976L131.072 103.667L128.144 105.357C127.633 105.65 127.234 106.103 127.008 106.646C126.782 107.189 126.742 107.792 126.895 108.36C127.047 108.928 127.383 109.43 127.851 109.787C128.319 110.144 128.892 110.336 129.48 110.333ZM98 119.667H84.6667C83.9594 119.667 83.2811 119.948 82.781 120.448C82.281 120.948 82 121.626 82 122.333C82 123.041 82.281 123.719 82.781 124.219C83.2811 124.719 83.9594 125 84.6667 125H98C98.7072 125 99.3855 124.719 99.8856 124.219C100.386 123.719 100.667 123.041 100.667 122.333C100.667 121.626 100.386 120.948 99.8856 120.448C99.3855 119.948 98.7072 119.667 98 119.667ZM120.667 119.667H107.333C106.626 119.667 105.948 119.948 105.448 120.448C104.948 120.948 104.667 121.626 104.667 122.333C104.667 123.041 104.948 123.719 105.448 124.219C105.948 124.719 106.626 125 107.333 125H120.667C121.374 125 122.052 124.719 122.552 124.219C123.052 123.719 123.333 123.041 123.333 122.333C123.333 121.626 123.052 120.948 122.552 120.448C122.052 119.948 121.374 119.667 120.667 119.667ZM143.333 119.667H130C129.293 119.667 128.614 119.948 128.114 120.448C127.614 120.948 127.333 121.626 127.333 122.333C127.333 123.041 127.614 123.719 128.114 124.219C128.614 124.719 129.293 125 130 125H143.333C144.041 125 144.719 124.719 145.219 124.219C145.719 123.719 146 123.041 146 122.333C146 121.626 145.719 120.948 145.219 120.448C144.719 119.948 144.041 119.667 143.333 119.667Z" fill="#3FA1E3"/>
<g clip-path="url(#clip1_4950_2355)">
<path d="M282.054 81.8399H257.455V50.3782H282.054V51.2146H284.509V44.782C284.509 43.7978 283.711 43 282.727 43H256.782C255.798 43 255 43.7978 255 44.782V89.218C255 90.2022 255.798 91 256.782 91H282.727C283.711 91 284.509 90.2022 284.509 89.218V78.5487H282.054V81.8399ZM265.936 47.4856C265.936 46.5005 266.735 45.7027 267.719 45.7027H271.791C272.775 45.7027 273.573 46.5005 273.573 47.4856V47.6114H265.936V47.4856ZM269.755 89.0647C268.474 89.0647 267.437 88.0265 267.437 86.7467C267.437 85.466 268.474 84.4286 269.755 84.4286C271.035 84.4286 272.073 85.4659 272.073 86.7467C272.073 88.0265 271.035 89.0647 269.755 89.0647Z" fill="#3FA1E3"/>
<path d="M301.777 60.6161C299.312 56.2913 293.38 53.1336 286.362 52.9214C276.977 52.638 269.209 57.7315 269.011 64.2979C268.912 67.5809 270.724 70.6102 273.733 72.8546C273.733 72.8546 275.365 76.6722 269.987 78.685C273.461 78.8579 275.438 78.0777 276.559 77.2106C277.8 76.2499 277.99 75.1819 277.99 75.1819C280.275 76.0736 282.875 76.6159 285.644 76.6996C295.03 76.9829 302.799 71.8895 302.996 65.3236C303.046 63.6671 302.609 62.075 301.777 60.6161ZM277.577 69.1624C275.869 69.1624 274.604 68.0622 274.604 67.2308C274.604 66.8562 274.967 66.5754 275.306 66.5754C275.517 66.5754 275.752 66.6337 275.962 66.8912C276.501 67.5469 276.934 67.828 277.625 67.828C278.374 67.828 278.959 67.4413 278.959 66.8912C278.959 66.5049 278.655 66.0954 277.331 65.6735L277.039 65.5803C275.459 65.0772 274.803 64.2457 274.803 63.2149C274.803 61.8106 275.986 60.9559 277.577 60.9559C279.147 60.9559 280.235 61.8455 280.235 62.4777C280.235 62.8636 279.931 63.1919 279.509 63.1919C279.275 63.1919 279.111 63.0984 278.795 62.8057C278.479 62.5128 278.128 62.2903 277.554 62.2903C276.816 62.2903 276.313 62.6647 276.313 63.1451C276.313 63.5899 276.77 63.9177 277.765 64.2456L278.046 64.3391C279.943 64.9711 280.469 65.8261 280.469 66.7624C280.469 68.2607 279.111 69.1624 277.577 69.1624ZM289.472 68.4368C289.472 68.8113 289.133 69.1037 288.711 69.1037C288.289 69.1037 287.95 68.8113 287.95 68.4368V63.8004C287.001 65.4745 286.615 66.1302 286.264 66.6922C286.123 66.9146 285.866 67.0902 285.573 67.0902C285.304 67.0902 285.011 66.9381 284.835 66.6452C284.308 65.7792 283.665 64.6785 283.22 63.8476V68.4484C283.22 68.8229 282.892 69.1037 282.471 69.1037C282.038 69.1037 281.733 68.8229 281.733 68.4484V61.7752C281.733 61.2485 282.143 60.9907 282.564 60.9907C282.845 60.9907 283.197 61.1314 283.396 61.4472C284.086 62.5596 284.777 63.7421 285.584 65.1467C286.615 63.3791 287.177 62.4309 287.821 61.424C288.031 61.0959 288.324 60.9907 288.641 60.9907C289.062 60.9907 289.472 61.225 289.472 61.7752V68.4368ZM293.58 69.1624C291.871 69.1624 290.607 68.0622 290.607 67.2308C290.607 66.8562 290.97 66.5754 291.309 66.5754C291.52 66.5754 291.754 66.6337 291.965 66.8912C292.503 67.5469 292.937 67.828 293.628 67.828C294.377 67.828 294.962 67.4413 294.962 66.8912C294.962 66.5049 294.658 66.0954 293.335 65.6735L293.042 65.5803C291.462 65.0772 290.806 64.2457 290.806 63.2149C290.806 61.8106 291.988 60.9559 293.58 60.9559C295.15 60.9559 296.238 61.8455 296.238 62.4777C296.238 62.8636 295.934 63.1919 295.512 63.1919C295.278 63.1919 295.114 63.0984 294.798 62.8057C294.482 62.5128 294.131 62.2903 293.557 62.2903C292.819 62.2903 292.316 62.6647 292.316 63.1451C292.316 63.5899 292.772 63.9177 293.768 64.2456L294.048 64.3391C295.945 64.9711 296.472 65.8261 296.472 66.7624C296.472 68.2607 295.114 69.1624 293.58 69.1624Z" fill="#3FA1E3"/>
</g>
<path d="M276.268 172C275.904 172 275.534 171.917 275.187 171.743C273.992 171.145 273.51 169.691 274.108 168.497C275.532 165.654 276.685 162.684 277.552 159.625C277.916 158.34 279.253 157.593 280.538 157.956C281.823 158.32 282.57 159.657 282.206 160.942C281.256 164.294 279.993 167.549 278.433 170.664C278.009 171.511 277.155 172 276.268 172ZM265.549 171.339C265.094 171.34 264.648 171.211 264.263 170.968C263.132 170.256 262.792 168.763 263.504 167.633C267.617 161.095 269.791 153.536 269.791 145.772C269.791 144.436 270.874 143.353 272.209 143.353C273.545 143.353 274.628 144.436 274.628 145.772C274.628 154.449 272.197 162.899 267.598 170.209C267.139 170.939 266.352 171.339 265.549 171.339ZM257.229 166.406C256.791 166.406 256.361 166.286 255.986 166.06C254.841 165.373 254.47 163.887 255.157 162.742L255.288 162.524C255.297 162.51 255.306 162.495 255.315 162.48C258.468 157.471 260.128 151.695 260.116 145.777C260.116 142.542 261.374 139.505 263.658 137.221C265.942 134.937 268.979 133.679 272.21 133.679C275.44 133.679 278.477 134.937 280.761 137.221C283.045 139.505 284.303 142.542 284.303 145.772C284.303 148.292 284.13 150.843 283.79 153.353C283.61 154.676 282.391 155.604 281.068 155.424C279.744 155.245 278.817 154.026 278.996 152.703C279.308 150.406 279.464 148.09 279.465 145.772C279.465 143.834 278.711 142.012 277.34 140.641C275.97 139.271 274.148 138.516 272.21 138.516C270.271 138.516 268.449 139.271 267.079 140.641C265.708 142.012 264.954 143.834 264.954 145.772C264.967 152.593 263.055 159.255 259.423 165.034L259.305 165.231C258.851 165.987 258.05 166.406 257.229 166.406ZM289.165 165.441C288.941 165.441 288.717 165.409 288.502 165.348C287.217 164.982 286.472 163.644 286.838 162.359C288.365 156.993 289.14 151.412 289.14 145.772C289.139 142.8 288.358 139.88 286.873 137.305C285.386 134.731 283.249 132.594 280.676 131.106C278.102 129.621 275.182 128.838 272.21 128.837H272.209C269.237 128.838 266.318 129.621 263.744 131.105C262.587 131.773 261.108 131.377 260.44 130.22C259.772 129.063 260.169 127.584 261.325 126.916C264.63 125.008 268.394 124 272.209 124H272.211C276.032 124.002 279.786 125.008 283.095 126.918C286.4 128.826 289.155 131.582 291.063 134.887C292.972 138.197 293.977 141.951 293.977 145.772C293.977 151.86 293.14 157.886 291.49 163.684C291.188 164.747 290.219 165.441 289.165 165.441ZM250.44 158.746C250.086 158.746 249.726 158.668 249.386 158.503C248.184 157.92 247.683 156.473 248.266 155.271C249.71 152.295 250.442 149.099 250.442 145.772C250.442 141.949 251.449 138.186 253.354 134.888C254.022 133.731 255.502 133.335 256.658 134.003C257.815 134.672 258.211 136.151 257.543 137.307C256.062 139.871 255.279 142.798 255.279 145.772C255.279 149.837 254.384 153.743 252.618 157.383C252.2 158.244 251.338 158.746 250.44 158.746Z" fill="#3FA1E3"/>
<path d="M364 94.7692V99.6923C364 100.182 363.805 100.652 363.459 100.998C363.113 101.344 362.643 101.538 362.154 101.538C361.664 101.538 361.195 101.344 360.848 100.998C360.502 100.652 360.308 100.182 360.308 99.6923V94.7692C360.308 93.0732 358.927 91.6923 357.231 91.6923H352.308C351.818 91.6923 351.348 91.4978 351.002 91.1516C350.656 90.8054 350.462 90.3358 350.462 89.8462C350.462 89.3565 350.656 88.8869 351.002 88.5407C351.348 88.1945 351.818 88 352.308 88H357.231C359.026 88.0013 360.747 88.7149 362.016 89.9841C363.285 91.2533 363.999 92.9743 364 94.7692ZM317.846 101.538C318.336 101.538 318.805 101.344 319.152 100.998C319.498 100.652 319.692 100.182 319.692 99.6923V94.7692C319.692 93.0732 321.073 91.6923 322.769 91.6923H327.692C328.182 91.6923 328.652 91.4978 328.998 91.1516C329.344 90.8054 329.538 90.3358 329.538 89.8462C329.538 89.3565 329.344 88.8869 328.998 88.5407C328.652 88.1945 328.182 88 327.692 88H322.769C320.974 88.0013 319.253 88.7149 317.984 89.9841C316.715 91.2533 316.001 92.9743 316 94.7692V99.6923C316 100.711 316.827 101.538 317.846 101.538ZM327.692 132.308H322.769C321.073 132.308 319.692 130.927 319.692 129.231V124.308C319.692 123.818 319.498 123.348 319.152 123.002C318.805 122.656 318.336 122.462 317.846 122.462C317.357 122.462 316.887 122.656 316.541 123.002C316.195 123.348 316 123.818 316 124.308V129.231C316.001 131.026 316.715 132.747 317.984 134.016C319.253 135.285 320.974 135.999 322.769 136H327.692C328.182 136 328.652 135.805 328.998 135.459C329.344 135.113 329.538 134.643 329.538 134.154C329.538 133.664 329.344 133.195 328.998 132.848C328.652 132.502 328.182 132.308 327.692 132.308ZM362.154 122.462C361.664 122.462 361.195 122.656 360.848 123.002C360.502 123.348 360.308 123.818 360.308 124.308V129.231C360.308 130.927 358.927 132.308 357.231 132.308H352.308C351.818 132.308 351.348 132.502 351.002 132.848C350.656 133.195 350.462 133.664 350.462 134.154C350.462 134.643 350.656 135.113 351.002 135.459C351.348 135.805 351.818 136 352.308 136H357.231C359.026 135.999 360.747 135.285 362.016 134.016C363.285 132.747 363.999 131.026 364 129.231V124.308C364 123.818 363.805 123.348 363.459 123.002C363.113 122.656 362.643 122.462 362.154 122.462ZM362.154 105.231H317.846C317.357 105.231 316.887 105.425 316.541 105.771C316.195 106.118 316 106.587 316 107.077C316 107.567 316.195 108.036 316.541 108.382C316.887 108.729 317.357 108.923 317.846 108.923H362.154C362.643 108.923 363.113 108.729 363.459 108.382C363.805 108.036 364 107.567 364 107.077C364 106.587 363.805 106.118 363.459 105.771C363.113 105.425 362.643 105.231 362.154 105.231ZM351.298 101.538C349.058 97.5508 345.12 95.3846 340 95.3846C334.88 95.3846 330.942 97.5508 328.702 101.538H351.298ZM353.563 118.695C354.843 117.292 356.394 115.569 356.566 112.615H323.434C323.606 115.569 325.157 117.292 326.437 118.695C326.855 119.163 327.298 119.631 327.692 120.172C330.252 125.538 334.757 128.615 340 128.615C345.243 128.615 349.748 125.538 352.308 120.172C352.702 119.631 353.145 119.163 353.563 118.695Z" fill="#3FA1E3"/>
<rect x="181" y="94" width="36" height="36" rx="18" fill="#131313"/>
<rect x="181" y="94" width="36" height="36" rx="18" stroke="#131313" stroke-width="4"/>
<path d="M199 96C190.2 96 183 103.2 183 112C183 120.8 190.2 128 199 128C207.8 128 215 120.8 215 112C215 103.2 207.8 96 199 96ZM205.72 109.28L198.04 116.96C197.4 117.6 196.44 117.6 195.8 116.96L192.28 113.44C191.64 112.8 191.64 111.84 192.28 111.2C192.92 110.56 193.88 110.56 194.52 111.2L196.92 113.6L203.48 107.04C204.12 106.4 205.08 106.4 205.72 107.04C206.36 107.68 206.36 108.64 205.72 109.28Z" fill="#3FA1E3"/>
</g>
<defs>
<radialGradient id="paint0_radial_4950_2355" cx="0" cy="0" r="1" gradientUnits="userSpaceOnUse" gradientTransform="translate(116 114.5) rotate(90) scale(102.5 102)">
<stop offset="0.480792" stop-color="#232F6F" stop-opacity="0"/>
<stop offset="1" stop-color="#232F6F"/>
</radialGradient>
<radialGradient id="paint1_radial_4950_2355" cx="0" cy="0" r="1" gradientUnits="userSpaceOnUse" gradientTransform="translate(282 114.5) rotate(90) scale(102.5 102)">
<stop offset="0.480792" stop-color="#232F6F" stop-opacity="0"/>
<stop offset="1" stop-color="#232F6F"/>
</radialGradient>
<clipPath id="clip0_4950_2355">
<rect width="404" height="180" fill="white"/>
</clipPath>
<clipPath id="clip1_4950_2355">
<rect width="48" height="48" fill="white" transform="translate(255 43)"/>
</clipPath>
</defs>
</svg>
