<svg width="404" height="180" viewBox="0 0 404 180" fill="none" xmlns="http://www.w3.org/2000/svg">
<path d="M321.75 67.5L223.5 135.5" stroke="#232F6F" stroke-linecap="round" stroke-linejoin="round" stroke-dasharray="1 3"/>
<path d="M175 138L78.75 67.5" stroke="#232F6F" stroke-linecap="round" stroke-linejoin="round" stroke-dasharray="1 3"/>
<path d="M185.75 127.5L158.75 67.5" stroke="#232F6F" stroke-linecap="round" stroke-linejoin="round" stroke-dasharray="1 3"/>
<path d="M206.75 127.5L233.75 67.5" stroke="#232F6F" stroke-linecap="round" stroke-linejoin="round" stroke-dasharray="1 3"/>
<path d="M54.6698 5.05371L54.5262 4.57478L54.5262 4.57479L54.6698 5.05371ZM67.2089 4.58008L67.316 4.09168L67.316 4.09168L67.2089 4.58008ZM78.3993 10.2578L78.8958 10.3171L78.9269 10.0566L78.7302 9.88294L78.3993 10.2578ZM78.3837 10.3887L78.7372 10.7422L78.8596 10.6198L78.8801 10.448L78.3837 10.3887ZM70.6893 18.083L70.3358 17.7295L69.9449 18.1204L70.373 18.4702L70.6893 18.083ZM70.8085 18.1836V18.6836H72.1861L71.1292 17.8L70.8085 18.1836ZM70.6503 18.1836L70.3357 18.5723L70.4733 18.6836H70.6503V18.1836ZM60.8671 15.1328L60.8292 14.6343L60.8291 14.6343L60.8671 15.1328ZM51.6571 19.6279L51.5592 20.1183L51.8365 20.1736L52.0268 19.9646L51.6571 19.6279ZM51.4979 19.6699L51.402 20.1606L51.5887 20.1971L51.7524 20.1003L51.4979 19.6699ZM47.9677 19.334L47.9659 18.834L47.9647 18.834L47.9677 19.334ZM38.1083 22.3311L38.2338 22.8151L38.3145 22.7941L38.384 22.7482L38.1083 22.3311ZM37.7196 22.458L37.237 22.3271L36.9718 23.3048L37.9092 22.9207L37.7196 22.458ZM43.9393 11.5596L43.5811 11.2107L43.5811 11.2107L43.9393 11.5596ZM54.6698 5.05371L54.8134 5.53264C58.8035 4.33609 63.0329 4.17621 67.1018 5.06847L67.2089 4.58008L67.316 4.09168C63.081 3.163 58.679 3.32941 54.5262 4.57478L54.6698 5.05371ZM67.2089 4.58008L67.1018 5.06847C71.1707 5.9608 74.9452 7.87617 78.0684 10.6327L78.3993 10.2578L78.7302 9.88294C75.4795 7.01397 71.551 5.02043 67.316 4.09168L67.2089 4.58008ZM78.3993 10.2578L77.9028 10.1985L77.8872 10.3294L78.3837 10.3887L78.8801 10.448L78.8958 10.3171L78.3993 10.2578ZM78.3837 10.3887L78.0301 10.0351L70.3358 17.7295L70.6893 18.083L71.0429 18.4366L78.7372 10.7422L78.3837 10.3887ZM70.6893 18.083L70.373 18.4702C70.415 18.5045 70.4302 18.519 70.4878 18.5672L70.8085 18.1836L71.1292 17.8C71.1071 17.7815 71.0442 17.7273 71.0057 17.6958L70.6893 18.083ZM70.8085 18.1836V17.6836H70.6503V18.1836V18.6836H70.8085V18.1836ZM70.6503 18.1836L70.9648 17.7949C68.1132 15.4872 64.4871 14.3562 60.8292 14.6343L60.8671 15.1328L60.905 15.6314C64.3084 15.3726 67.6824 16.425 70.3357 18.5723L70.6503 18.1836ZM60.8671 15.1328L60.8291 14.6343C57.1711 14.9125 53.7573 16.5788 51.2874 19.2913L51.6571 19.6279L52.0268 19.9646C54.325 17.4406 57.5014 15.8902 60.905 15.6314L60.8671 15.1328ZM51.6571 19.6279L51.755 19.1376C51.5251 19.0917 51.3363 19.1846 51.2434 19.2395L51.4979 19.6699L51.7524 20.1003C51.7564 20.098 51.7432 20.1066 51.7152 20.1143C51.686 20.1224 51.6302 20.1324 51.5592 20.1183L51.6571 19.6279ZM51.4979 19.6699L51.5939 19.1792C50.4028 18.9462 49.1876 18.8296 47.9659 18.834L47.9677 19.334L47.9694 19.834C49.1252 19.8299 50.2748 19.9402 51.402 20.1606L51.4979 19.6699ZM47.9677 19.334L47.9647 18.834C44.3544 18.8556 40.8349 19.9293 37.8326 21.9139L38.1083 22.3311L38.384 22.7482C41.2248 20.8703 44.5549 19.8544 47.9706 19.834L47.9677 19.334ZM38.1083 22.3311L37.9828 21.8471C37.8353 21.8853 37.6827 21.9328 37.53 21.9954L37.7196 22.458L37.9092 22.9207C38.0102 22.8793 38.1182 22.845 38.2338 22.8151L38.1083 22.3311ZM37.7196 22.458L38.2022 22.5889C39.2929 18.5686 41.3911 14.8927 44.2975 11.9084L43.9393 11.5596L43.5811 11.2107C40.5562 14.3168 38.3723 18.1426 37.237 22.3271L37.7196 22.458ZM43.9393 11.5596L44.2975 11.9084C47.204 8.9241 50.8233 6.72929 54.8134 5.53264L54.6698 5.05371L54.5262 4.57479C50.3731 5.8203 46.6062 8.10468 43.5811 11.2107L43.9393 11.5596Z" fill="url(#paint0_linear_4899_3802)"/>
<path d="M78.4976 10.2754L78.8294 9.90137L78.4771 9.58881L78.144 9.92182L78.4976 10.2754ZM86.0513 22.4561L85.5687 22.5871L85.6174 22.7662L85.7711 22.8702L86.0513 22.4561ZM92.981 31.4443L93.4528 31.2788V31.2788L92.981 31.4443ZM93.186 42.792L93.6635 42.9404L93.6635 42.9403L93.186 42.792ZM86.5864 52.0244L86.8814 52.4282L86.8814 52.4282L86.5864 52.0244ZM75.7837 55.5039L75.7876 55.0039H75.7837V55.5039ZM61.8853 55.5039L61.5317 55.8575L61.6781 56.0039H61.8853V55.5039ZM61.8101 55.4287V54.9287H60.603L61.4565 55.7823L61.8101 55.4287ZM61.8657 55.4287V55.9287H62.3657V55.4287H61.8657ZM61.8657 44.3965L61.5122 44.0429L61.3657 44.1894V44.3965H61.8657ZM61.8853 44.377V43.877H61.6781L61.5317 44.0234L61.8853 44.377ZM75.7837 44.377V43.877V43.877V44.377ZM78.4429 43.8486L78.6342 44.3106L78.6342 44.3106L78.4429 43.8486ZM80.6978 42.3418L81.0513 42.6954H81.0513L80.6978 42.3418ZM82.2046 40.0869L82.6665 40.2783L82.6665 40.2782L82.2046 40.0869ZM82.7329 37.4277H83.2329V37.4277L82.7329 37.4277ZM82.2046 34.7686L82.6665 34.5772L82.6665 34.5772L82.2046 34.7686ZM80.6978 32.5137L81.0513 32.1601L81.0513 32.1601L80.6978 32.5137ZM78.4429 31.0078L78.6342 30.5459L78.6342 30.5459L78.4429 31.0078ZM75.7837 30.4785H75.2837V30.9785H75.7837V30.4785ZM75.7837 29.0928L75.2837 29.0833V29.0928H75.7837ZM74.5034 23.002L74.9572 22.792L74.9572 22.792L74.5034 23.002ZM70.689 18.083L70.3354 17.7294L69.9445 18.1204L70.3726 18.4702L70.689 18.083ZM78.4976 10.2754L78.1657 10.6494C81.7429 13.8231 84.3155 17.9721 85.5687 22.5871L86.0513 22.4561L86.5338 22.325C85.2296 17.5222 82.5522 13.2043 78.8294 9.90137L78.4976 10.2754ZM86.0513 22.4561L85.7711 22.8702C88.8971 24.9845 91.2598 28.0489 92.5092 31.6099L92.981 31.4443L93.4528 31.2788C92.1323 27.5152 89.6352 24.2765 86.3314 22.0419L86.0513 22.4561ZM92.981 31.4443L92.5092 31.6099C93.7585 35.1708 93.8282 39.0398 92.7085 42.6436L93.186 42.792L93.6635 42.9403C94.8469 39.1315 94.7732 35.0424 93.4528 31.2788L92.981 31.4443ZM93.186 42.792L92.7086 42.6436C91.5888 46.2473 89.3388 49.3947 86.2915 51.6207L86.5864 52.0244L86.8814 52.4282C90.102 50.0756 92.4801 46.7491 93.6635 42.9404L93.186 42.792ZM86.5864 52.0244L86.2915 51.6207C83.2441 53.8467 79.5612 55.0333 75.7876 55.0039L75.7837 55.5039L75.7798 56.0039C79.7682 56.0349 83.6607 54.7808 86.8814 52.4282L86.5864 52.0244ZM75.7837 55.5039V55.0039H61.8853V55.5039V56.0039H75.7837V55.5039ZM61.8853 55.5039L62.2388 55.1504L62.1636 55.0752L61.8101 55.4287L61.4565 55.7823L61.5317 55.8575L61.8853 55.5039ZM61.8101 55.4287V55.9287H61.8657V55.4287V54.9287H61.8101V55.4287ZM61.8657 55.4287H62.3657V44.3965H61.8657H61.3657V55.4287H61.8657ZM61.8657 44.3965L62.2193 44.75L62.2388 44.7305L61.8853 44.377L61.5317 44.0234L61.5122 44.0429L61.8657 44.3965ZM61.8853 44.377V44.877H75.7837V44.377V43.877H61.8853V44.377ZM75.7837 44.377V44.877C76.7615 44.877 77.7304 44.6849 78.6342 44.3106L78.4429 43.8486L78.2516 43.3867C77.4694 43.7106 76.6306 43.877 75.7837 43.877V44.377ZM78.4429 43.8486L78.6342 44.3106C79.538 43.9362 80.3596 43.387 81.0513 42.6954L80.6978 42.3418L80.3442 41.9882C79.7453 42.5871 79.0339 43.0626 78.2515 43.3867L78.4429 43.8486ZM80.6978 42.3418L81.0513 42.6954C81.743 42.0037 82.2922 41.1821 82.6665 40.2783L82.2046 40.0869L81.7427 39.8956C81.4186 40.678 80.9431 41.3893 80.3442 41.9882L80.6978 42.3418ZM82.2046 40.0869L82.6665 40.2782C83.0408 39.3744 83.2329 38.4056 83.2329 37.4277H82.7329H82.2329C82.2329 38.2747 82.0665 39.1135 81.7426 39.8956L82.2046 40.0869ZM82.7329 37.4277L83.2329 37.4277C83.2329 36.4498 83.0409 35.4811 82.6665 34.5772L82.2046 34.7686L81.7426 34.9599C82.0666 35.742 82.2329 36.5807 82.2329 37.4278L82.7329 37.4277ZM82.2046 34.7686L82.6665 34.5772C82.2922 33.6734 81.743 32.8518 81.0513 32.1601L80.6978 32.5137L80.3442 32.8672C80.9431 33.4661 81.4186 34.1775 81.7427 34.9599L82.2046 34.7686ZM80.6978 32.5137L81.0513 32.1601C80.3595 31.4683 79.5377 30.9201 78.6342 30.5459L78.4429 31.0078L78.2515 31.4698C79.0341 31.7939 79.7456 32.2686 80.3442 32.8672L80.6978 32.5137ZM78.4429 31.0078L78.6342 30.5459C77.7307 30.1717 76.762 29.9785 75.7837 29.9785V30.4785V30.9785C76.6303 30.9785 77.469 31.1457 78.2516 31.4698L78.4429 31.0078ZM75.7837 30.4785H76.2837V29.0928H75.7837H75.2837V30.4785H75.7837ZM75.7837 29.0928L76.2836 29.1022C76.3247 26.9256 75.8715 24.7678 74.9572 22.792L74.5034 23.002L74.0496 23.2119C74.9003 25.0502 75.322 27.0579 75.2838 29.0833L75.7837 29.0928ZM74.5034 23.002L74.9572 22.792C74.0428 20.8161 72.6912 19.0733 71.0053 17.6958L70.689 18.083L70.3726 18.4702C71.9413 19.752 73.1989 21.3736 74.0497 23.2119L74.5034 23.002ZM70.689 18.083L71.0425 18.4366L78.8511 10.629L78.4976 10.2754L78.144 9.92182L70.3354 17.7294L70.689 18.083Z" fill="url(#paint1_linear_4899_3802)"/>
<path d="M45.11 43.6836L45.3169 43.2284L45.0014 43.085L44.7564 43.33L45.11 43.6836ZM47.9674 44.3037L47.9673 44.8037H47.9674V44.3037ZM61.8658 44.3037H62.3658V43.8037H61.8658V44.3037ZM61.8658 55.4297V55.9297H62.3658V55.4297H61.8658ZM47.9674 55.4297V54.9297L47.9652 54.9297L47.9674 55.4297ZM37.0563 51.7988L36.5702 51.6817L36.4934 52.0003L36.755 52.1978L37.0563 51.7988ZM37.0758 51.7178L36.7223 51.3642L36.6227 51.4638L36.5897 51.6006L37.0758 51.7178ZM45.11 43.6836L44.9031 44.1388C45.8652 44.5761 46.9098 44.8034 47.9673 44.8037L47.9674 44.3037L47.9675 43.8037C47.0533 43.8035 46.1496 43.6069 45.3169 43.2284L45.11 43.6836ZM47.9674 44.3037V44.8037H61.8658V44.3037V43.8037H47.9674V44.3037ZM61.8658 44.3037H61.3658V55.4297H61.8658H62.3658V44.3037H61.8658ZM61.8658 55.4297V54.9297H47.9674V55.4297V55.9297H61.8658V55.4297ZM47.9674 55.4297L47.9652 54.9297C44.1382 54.9462 40.4117 53.7061 37.3576 51.3998L37.0563 51.7988L36.755 52.1978C39.9839 54.636 43.9235 55.9472 47.9696 55.9297L47.9674 55.4297ZM37.0563 51.7988L37.5424 51.916L37.5619 51.8349L37.0758 51.7178L36.5897 51.6006L36.5702 51.6817L37.0563 51.7988ZM37.0758 51.7178L37.4294 52.0713L45.4635 44.0371L45.11 43.6836L44.7564 43.33L36.7223 51.3642L37.0758 51.7178Z" fill="url(#paint2_linear_4899_3802)"/>
<path d="M47.9677 19.3341C44.2019 19.3566 40.5372 20.5547 37.4854 22.7611C34.4335 24.9674 32.147 28.0719 30.9452 31.6408C29.7434 35.2098 29.6862 39.0649 30.7818 42.6679C31.8773 46.2709 34.0708 49.4418 37.0559 51.7376L45.1178 43.6758C44.0933 43.2129 43.1964 42.5084 42.504 41.6227C41.8117 40.737 41.3445 39.6966 41.1427 38.5906C40.9408 37.4847 41.0103 36.3463 41.3451 35.2731C41.68 34.1999 42.2702 33.224 43.0651 32.4291C43.86 31.6342 44.836 31.044 45.9091 30.7091C46.9823 30.3743 48.1207 30.3048 49.2266 30.5067C50.3326 30.7085 51.373 31.1757 52.2587 31.868C53.1444 32.5604 53.8489 33.4573 54.3118 34.4818L62.3736 26.4199C60.6815 24.2078 58.5006 22.4171 56.0015 21.1879C53.5024 19.9586 50.7528 19.3242 47.9677 19.3341Z" stroke="url(#paint3_linear_4899_3802)"/>
<path d="M147.608 52.0818C155.831 50.6167 162.622 49.4043 162.7 49.3877L162.842 49.3573L155.079 40.0438C150.809 34.9214 147.316 30.7105 147.316 30.6862C147.316 30.6403 155.332 8.37574 155.377 8.29653C155.392 8.27005 160.847 17.7693 168.6 31.3234C175.859 44.013 181.843 54.4756 181.899 54.5737L182 54.752L157.329 54.7487L132.658 54.7455L147.608 52.0818ZM118 49.2416C118 49.2285 121.658 42.8239 126.129 35.0092L134.257 20.8007L143.73 12.7824C148.94 8.37235 153.217 4.75872 153.234 4.75213C153.251 4.74555 153.183 4.91954 153.082 5.13878C152.981 5.35803 148.352 15.372 142.795 27.3921L132.693 49.2468L125.346 49.2561C121.306 49.2613 118 49.2547 118 49.2416Z" stroke="url(#paint4_linear_4899_3802)"/>
<path d="M224.036 24.5147C224.036 25.3023 224.121 25.9409 224.27 26.4091C224.44 26.8774 224.653 27.3883 224.951 27.9417C225.058 28.112 225.1 28.2823 225.1 28.4313C225.1 28.6441 224.973 28.857 224.696 29.0698L223.355 29.9638C223.163 30.0915 222.972 30.1554 222.801 30.1554C222.589 30.1554 222.376 30.049 222.163 29.8574C221.865 29.5381 221.609 29.1975 221.397 28.857C221.184 28.4951 220.971 28.0907 220.737 27.6011C219.076 29.5594 216.99 30.5385 214.479 30.5385C212.691 30.5385 211.265 30.0277 210.222 29.006C209.179 27.9843 208.646 26.622 208.646 24.9191C208.646 23.1099 209.285 21.6412 210.583 20.5343C211.882 19.4275 213.606 18.874 215.798 18.874C216.522 18.874 217.267 18.9379 218.055 19.0443C218.842 19.1508 219.651 19.321 220.503 19.5126V17.9588C220.503 16.3411 220.162 15.2129 219.502 14.5531C218.821 13.8932 217.672 13.5739 216.033 13.5739C215.288 13.5739 214.521 13.6591 213.734 13.8506C212.946 14.0422 212.18 14.2764 211.435 14.5744C211.094 14.7234 210.839 14.8085 210.69 14.8511C210.541 14.8936 210.434 14.9149 210.349 14.9149C210.051 14.9149 209.902 14.7021 209.902 14.2551V13.2121C209.902 12.8715 209.945 12.6161 210.051 12.4671C210.158 12.3181 210.349 12.1691 210.647 12.0201C211.392 11.6369 212.286 11.3177 213.329 11.0622C214.372 10.7855 215.479 10.6578 216.65 10.6578C219.183 10.6578 221.035 11.2325 222.227 12.3819C223.397 13.5314 223.993 15.2768 223.993 17.6182V24.5147H224.036ZM215.394 27.7501C216.096 27.7501 216.82 27.6224 217.586 27.367C218.353 27.1116 219.034 26.6433 219.609 26.0047C219.949 25.6003 220.205 25.1533 220.332 24.6424C220.46 24.1316 220.545 23.5143 220.545 22.7906V21.8966C219.928 21.7476 219.268 21.6199 218.587 21.5347C217.906 21.4496 217.246 21.407 216.586 21.407C215.16 21.407 214.117 21.6837 213.414 22.2584C212.712 22.8332 212.371 23.642 212.371 24.7063C212.371 25.7067 212.627 26.4517 213.159 26.9626C213.67 27.4947 214.415 27.7501 215.394 27.7501ZM232.486 30.049C232.103 30.049 231.848 29.9851 231.678 29.8361C231.507 29.7084 231.358 29.4104 231.231 29.006L226.228 12.5522C226.101 12.1265 226.037 11.8498 226.037 11.7008C226.037 11.3602 226.207 11.1687 226.548 11.1687H228.634C229.038 11.1687 229.315 11.2325 229.464 11.3815C229.634 11.5092 229.762 11.8072 229.89 12.2117L233.466 26.3027L236.786 12.2117C236.893 11.7859 237.02 11.5092 237.191 11.3815C237.361 11.2538 237.659 11.1687 238.042 11.1687H239.745C240.149 11.1687 240.426 11.2325 240.596 11.3815C240.767 11.5092 240.916 11.8072 241.001 12.2117L244.364 26.473L248.046 12.2117C248.174 11.7859 248.323 11.5092 248.472 11.3815C248.642 11.2538 248.919 11.1687 249.302 11.1687H251.282C251.622 11.1687 251.814 11.3389 251.814 11.7008C251.814 11.8072 251.793 11.9137 251.771 12.0414C251.75 12.1691 251.707 12.3394 251.622 12.5735L246.492 29.0273C246.365 29.453 246.216 29.7297 246.045 29.8574C245.875 29.9851 245.598 30.0703 245.237 30.0703H243.406C243.002 30.0703 242.725 30.0064 242.555 29.8574C242.384 29.7084 242.235 29.4317 242.15 29.006L238.851 15.2768L235.573 28.9847C235.466 29.4104 235.339 29.6871 235.168 29.8361C234.998 29.9851 234.7 30.049 234.317 30.049H232.486ZM259.839 30.6237C258.732 30.6237 257.625 30.496 256.561 30.2405C255.496 29.9851 254.666 29.7084 254.113 29.3891C253.772 29.1975 253.538 28.9847 253.453 28.7931C253.368 28.6015 253.325 28.3887 253.325 28.1971V27.1116C253.325 26.6646 253.495 26.4517 253.815 26.4517C253.942 26.4517 254.07 26.473 254.198 26.5156C254.326 26.5581 254.517 26.6433 254.73 26.7284C255.454 27.0477 256.241 27.3031 257.071 27.4734C257.923 27.6437 258.753 27.7288 259.604 27.7288C260.945 27.7288 261.988 27.4947 262.712 27.0264C263.436 26.5581 263.819 25.877 263.819 25.0043C263.819 24.4083 263.627 23.9187 263.244 23.5143C262.861 23.1099 262.137 22.748 261.094 22.4074L258.008 21.4496C256.454 20.96 255.305 20.2363 254.602 19.2785C253.9 18.3419 253.538 17.2989 253.538 16.1921C253.538 15.2981 253.73 14.5105 254.113 13.8294C254.496 13.1482 255.007 12.5522 255.645 12.0839C256.284 11.5944 257.008 11.2325 257.859 10.9771C258.71 10.7217 259.604 10.6152 260.541 10.6152C261.009 10.6152 261.499 10.6365 261.967 10.7004C262.457 10.7642 262.904 10.8494 263.351 10.9345C263.776 11.0409 264.181 11.1474 264.564 11.2751C264.947 11.4028 265.245 11.5305 265.458 11.6582C265.756 11.8285 265.969 11.9988 266.097 12.1904C266.224 12.3607 266.288 12.5948 266.288 12.8928V13.8932C266.288 14.3402 266.118 14.5744 265.799 14.5744C265.628 14.5744 265.352 14.4892 264.99 14.3189C263.776 13.7655 262.414 13.4888 260.903 13.4888C259.69 13.4888 258.732 13.6804 258.072 14.0848C257.412 14.4892 257.071 15.1065 257.071 15.9792C257.071 16.5752 257.284 17.0861 257.71 17.4905C258.136 17.8949 258.923 18.2993 260.051 18.6612L263.074 19.619C264.607 20.1086 265.713 20.7897 266.373 21.6624C267.033 22.5352 267.352 23.5356 267.352 24.6424C267.352 25.5577 267.161 26.3878 266.799 27.1116C266.416 27.8353 265.905 28.4738 265.245 28.9847C264.585 29.5168 263.798 29.9 262.882 30.1767C261.925 30.4747 260.924 30.6237 259.839 30.6237Z" stroke="url(#paint5_linear_4899_3802)"/>
<path fill-rule="evenodd" clip-rule="evenodd" d="M263.862 40.9693C256.859 46.1417 246.684 48.8875 237.936 48.8875C225.675 48.8875 214.628 44.3537 206.284 36.8186C205.624 36.2226 206.22 35.4138 207.007 35.882C216.033 41.1183 227.165 44.2898 238.681 44.2898C246.45 44.2898 254.985 42.6721 262.84 39.3516C264.011 38.8195 265.011 40.1179 263.862 40.9693Z" stroke="url(#paint6_linear_4899_3802)"/>
<path fill-rule="evenodd" clip-rule="evenodd" d="M266.778 37.6478C265.884 36.4984 260.86 37.0944 258.583 37.3711C257.902 37.4562 257.795 36.8602 258.412 36.4132C262.414 33.6036 268.991 34.4124 269.758 35.349C270.524 36.3068 269.545 42.8841 265.799 46.0343C265.224 46.5239 264.67 46.2685 264.926 45.6299C265.777 43.5226 267.672 38.7759 266.778 37.6478Z" stroke="url(#paint7_linear_4899_3802)"/>
<path d="M362.162 21.5446C361.211 17.7385 359.087 14.2868 356.076 11.7014C352.627 8.73935 348.226 7.10827 343.685 7.10827C340.278 7.10827 337.014 7.98686 334.134 9.66544C331.083 6.87577 327.083 5.30859 322.881 5.30859C313.866 5.30859 306.498 12.4946 306.204 21.4386C303.088 22.3097 300.266 24.0828 298.109 26.5561C295.461 29.5916 294.001 33.4836 294 37.5121C294 46.7125 301.485 54.1975 310.686 54.1975H357.315C366.515 54.1975 374 46.7125 374 37.5121C374 30.1355 369.108 23.6552 362.162 21.5446Z" stroke="url(#paint8_linear_4899_3802)"/>
<g clip-path="url(#clip0_4899_3802)">
<path d="M200 137C205.343 137 210.364 139.079 214.143 142.857C217.921 146.636 220 151.657 220 157C220 162.343 217.921 167.364 214.143 171.143C210.364 174.921 205.343 177 200 177C194.657 177 189.636 174.921 185.857 171.143C182.079 167.364 180 162.343 180 157C180 151.657 182.079 146.636 185.857 142.857C189.636 139.079 194.657 137 200 137ZM200 160.046C193.817 160.046 188.588 164.741 187.881 170.827L187.849 171.102L188.061 171.279C191.295 173.987 195.46 175.622 200 175.622C204.54 175.622 208.706 173.988 211.94 171.279L212.151 171.102L212.119 170.826C211.803 168.11 210.576 165.567 208.629 163.62C206.325 161.316 203.258 160.046 200 160.046ZM200 138.378C189.731 138.378 181.378 146.731 181.378 157C181.378 161.657 183.097 165.92 185.931 169.188L186.58 169.935L186.817 168.975C187.444 166.437 188.797 164.124 190.746 162.308C192.092 161.055 193.655 160.103 195.345 159.487L196.287 159.143L195.457 158.581C193.298 157.118 191.879 154.647 191.879 151.852C191.879 147.374 195.523 143.731 200 143.731C204.477 143.731 208.121 147.374 208.121 151.852C208.121 154.645 206.704 157.116 204.546 158.579L203.716 159.141L204.658 159.484C206.494 160.153 208.178 161.221 209.602 162.645C211.349 164.391 212.587 166.58 213.182 168.977L213.419 169.936L214.067 169.19C216.902 165.922 218.622 161.658 218.622 157C218.622 146.731 210.269 138.378 200 138.378ZM200 145.109C196.282 145.109 193.257 148.133 193.257 151.852C193.257 155.398 196.008 158.311 199.487 158.574V158.596H200C203.718 158.596 206.743 155.57 206.743 151.852C206.743 148.133 203.718 145.109 200 145.109Z" fill="#232F6F"/>
<circle opacity="0.1" cx="266.14" cy="218.141" r="52.5" fill="white"/>
</g>
<g opacity="0.8" clip-path="url(#clip1_4899_3802)">
<path d="M150 141C154.274 141 158.292 142.663 161.314 145.686C164.337 148.708 166 152.726 166 157C166 161.274 164.337 165.292 161.314 168.314C158.292 171.337 154.274 173 150 173C145.726 173 141.708 171.337 138.686 168.314C135.663 165.292 134 161.274 134 157C134 152.726 135.663 148.708 138.686 145.686C141.708 142.663 145.726 141 150 141ZM150 159.437C145.054 159.437 140.87 163.193 140.304 168.062L140.279 168.281L140.449 168.423C143.036 170.59 146.368 171.897 150 171.897C153.632 171.897 156.965 170.59 159.552 168.423L159.721 168.281L159.696 168.061C159.443 165.888 158.461 163.853 156.903 162.296C155.06 160.453 152.606 159.437 150 159.437ZM150 142.103C141.785 142.103 135.103 148.785 135.103 157C135.103 160.725 136.478 164.136 138.745 166.75L139.264 167.348L139.454 166.58C139.955 164.55 141.038 162.699 142.597 161.247C143.674 160.244 144.924 159.482 146.276 158.99L147.03 158.715L146.365 158.264C144.638 157.094 143.503 155.117 143.503 152.881C143.503 149.3 146.418 146.385 150 146.385C153.582 146.385 156.497 149.3 156.497 152.881C156.497 155.116 155.363 157.092 153.637 158.263L152.973 158.713L153.727 158.987C155.195 159.522 156.542 160.376 157.682 161.516C159.079 162.913 160.07 164.664 160.546 166.582L160.736 167.349L161.253 166.752C163.522 164.137 164.897 160.726 164.897 157C164.897 148.785 158.215 142.103 150 142.103ZM150 147.487C147.025 147.487 144.606 149.907 144.606 152.881C144.606 155.718 146.806 158.048 149.59 158.259V158.276H150C152.975 158.276 155.394 155.856 155.394 152.881C155.394 149.907 152.975 147.487 150 147.487Z" fill="#232F6F"/>
<circle opacity="0.1" cx="202.912" cy="205.912" r="42" fill="white"/>
</g>
<g opacity="0.8" clip-path="url(#clip2_4899_3802)">
<path d="M249 141C244.726 141 240.708 142.663 237.686 145.686C234.663 148.708 233 152.726 233 157C233 161.274 234.663 165.292 237.686 168.314C240.708 171.337 244.726 173 249 173C253.274 173 257.292 171.337 260.314 168.314C263.337 165.292 265 161.274 265 157C265 152.726 263.337 148.708 260.314 145.686C257.292 142.663 253.274 141 249 141ZM249 159.437C253.946 159.437 258.13 163.193 258.696 168.062L258.721 168.281L258.551 168.423C255.964 170.59 252.632 171.897 249 171.897C245.368 171.897 242.035 170.59 239.448 168.423L239.279 168.281L239.304 168.061C239.557 165.888 240.539 163.853 242.097 162.296C243.94 160.453 246.394 159.437 249 159.437ZM249 142.103C257.215 142.103 263.897 148.785 263.897 157C263.897 160.725 262.522 164.136 260.255 166.75L259.736 167.348L259.546 166.58C259.045 164.55 257.962 162.699 256.403 161.247C255.326 160.244 254.076 159.482 252.724 158.99L251.97 158.715L252.635 158.264C254.362 157.094 255.497 155.117 255.497 152.881C255.497 149.3 252.582 146.385 249 146.385C245.418 146.385 242.503 149.3 242.503 152.881C242.503 155.116 243.637 157.092 245.363 158.263L246.027 158.713L245.273 158.987C243.805 159.522 242.458 160.376 241.318 161.516C239.921 162.913 238.93 164.664 238.454 166.582L238.264 167.349L237.747 166.752C235.478 164.137 234.103 160.726 234.103 157C234.103 148.785 240.785 142.103 249 142.103ZM249 147.487C251.975 147.487 254.394 149.907 254.394 152.881C254.394 155.718 252.194 158.048 249.41 158.259V158.276H249C246.025 158.276 243.606 155.856 243.606 152.881C243.606 149.907 246.025 147.487 249 147.487Z" fill="#232F6F"/>
<circle opacity="0.1" cx="42" cy="42" r="42" transform="matrix(-1 0 0 1 238.088 163.912)" fill="white"/>
</g>
<g opacity="0.5" clip-path="url(#clip3_4899_3802)">
<path d="M107 144.199C110.42 144.199 113.633 145.53 116.051 147.948C118.469 150.366 119.8 153.58 119.8 156.999C119.8 160.419 118.469 163.632 116.051 166.051C113.633 168.468 110.42 169.799 107 169.799C103.58 169.799 100.367 168.468 97.9487 166.051C95.5307 163.632 94.2 160.419 94.2 156.999C94.2 153.58 95.5307 150.366 97.9487 147.948C100.367 145.53 103.58 144.199 107 144.199ZM107 158.949C103.043 158.949 99.6963 161.954 99.2435 165.849L99.223 166.024L99.3589 166.138C101.429 167.871 104.094 168.917 107 168.917C109.905 168.917 112.572 167.871 114.642 166.138L114.777 166.024L114.756 165.848C114.554 164.11 113.768 162.482 112.522 161.236C111.048 159.761 109.085 158.949 107 158.949ZM107 145.081C100.428 145.081 95.082 150.427 95.082 156.999C95.082 159.979 96.182 162.708 97.9961 164.799L98.4108 165.277L98.5628 164.663C98.9641 163.039 99.8301 161.558 101.078 160.397C101.939 159.594 102.939 158.985 104.02 158.591L104.624 158.371L104.092 158.011C102.71 157.075 101.803 155.493 101.803 153.704C101.803 150.839 104.134 148.507 107 148.507C109.865 148.507 112.197 150.839 112.197 153.704C112.197 155.492 111.29 157.073 109.91 158.009L109.378 158.37L109.981 158.589C111.156 159.017 112.234 159.7 113.145 160.612C114.263 161.729 115.056 163.131 115.436 164.665L115.588 165.278L116.003 164.801C117.817 162.709 118.918 159.98 118.918 156.999C118.918 150.427 113.572 145.081 107 145.081ZM107 149.389C104.62 149.389 102.685 151.324 102.685 153.704C102.685 155.974 104.445 157.838 106.672 158.006V158.02H107C109.38 158.02 111.315 156.084 111.315 153.704C111.315 151.324 109.38 149.389 107 149.389Z" fill="#232F6F"/>
<circle opacity="0.1" cx="149.329" cy="196.129" r="33.6" fill="white"/>
</g>
<g opacity="0.5" clip-path="url(#clip4_4899_3802)">
<path d="M292 144.199C288.58 144.199 285.367 145.53 282.949 147.948C280.531 150.366 279.2 153.58 279.2 156.999C279.2 160.419 280.531 163.632 282.949 166.051C285.367 168.468 288.58 169.799 292 169.799C295.42 169.799 298.633 168.468 301.051 166.051C303.469 163.632 304.8 160.419 304.8 156.999C304.8 153.58 303.469 150.366 301.051 147.948C298.633 145.53 295.42 144.199 292 144.199ZM292 158.949C295.957 158.949 299.304 161.954 299.756 165.849L299.777 166.024L299.641 166.138C297.571 167.871 294.906 168.917 292 168.917C289.095 168.917 286.428 167.871 284.358 166.138L284.223 166.024L284.244 165.848C284.446 164.11 285.232 162.482 286.478 161.236C287.952 159.761 289.915 158.949 292 158.949ZM292 145.081C298.572 145.081 303.918 150.427 303.918 156.999C303.918 159.979 302.818 162.708 301.004 164.799L300.589 165.277L300.437 164.663C300.036 163.039 299.17 161.558 297.922 160.397C297.061 159.594 296.061 158.985 294.98 158.591L294.376 158.371L294.908 158.011C296.29 157.075 297.197 155.493 297.197 153.704C297.197 150.839 294.866 148.507 292 148.507C289.135 148.507 286.803 150.839 286.803 153.704C286.803 155.492 287.71 157.073 289.09 158.009L289.622 158.37L289.019 158.589C287.844 159.017 286.766 159.7 285.855 160.612C284.737 161.729 283.944 163.131 283.564 164.665L283.412 165.278L282.997 164.801C281.183 162.709 280.082 159.98 280.082 156.999C280.082 150.427 285.428 145.081 292 145.081ZM292 149.389C294.38 149.389 296.315 151.324 296.315 153.704C296.315 155.974 294.555 157.838 292.328 158.006V158.02H292C289.62 158.02 287.685 156.084 287.685 153.704C287.685 151.324 289.62 149.389 292 149.389Z" fill="#232F6F"/>
<circle opacity="0.1" cx="33.6" cy="33.6" r="33.6" transform="matrix(-1 0 0 1 283.271 162.529)" fill="white"/>
</g>
<defs>
<linearGradient id="paint0_linear_4899_3802" x1="58.0594" y1="4" x2="58.0594" y2="22.4582" gradientUnits="userSpaceOnUse">
<stop stop-color="#3FA1E3"/>
<stop offset="1" stop-color="#3FA1E3" stop-opacity="0.35"/>
</linearGradient>
<linearGradient id="paint1_linear_4899_3802" x1="77.9051" y1="10.2754" x2="77.9051" y2="55.5045" gradientUnits="userSpaceOnUse">
<stop stop-color="#3FA1E3"/>
<stop offset="1" stop-color="#3FA1E3" stop-opacity="0.35"/>
</linearGradient>
<linearGradient id="paint2_linear_4899_3802" x1="49.4611" y1="43.6836" x2="49.4611" y2="55.4299" gradientUnits="userSpaceOnUse">
<stop stop-color="#3FA1E3"/>
<stop offset="1" stop-color="#3FA1E3" stop-opacity="0.35"/>
</linearGradient>
<linearGradient id="paint3_linear_4899_3802" x1="46.1868" y1="19.334" x2="46.1868" y2="51.7376" gradientUnits="userSpaceOnUse">
<stop stop-color="#3FA1E3"/>
<stop offset="1" stop-color="#3FA1E3" stop-opacity="0.35"/>
</linearGradient>
<linearGradient id="paint4_linear_4899_3802" x1="150" y1="4.75195" x2="150" y2="54.752" gradientUnits="userSpaceOnUse">
<stop stop-color="#3FA1E3"/>
<stop offset="1" stop-color="#3FA1E3" stop-opacity="0.35"/>
</linearGradient>
<linearGradient id="paint5_linear_4899_3802" x1="237.999" y1="10.6152" x2="237.999" y2="30.6237" gradientUnits="userSpaceOnUse">
<stop stop-color="#3FA1E3"/>
<stop offset="1" stop-color="#3FA1E3" stop-opacity="0.35"/>
</linearGradient>
<linearGradient id="paint6_linear_4899_3802" x1="235.185" y1="35.7422" x2="235.185" y2="48.8875" gradientUnits="userSpaceOnUse">
<stop stop-color="#3FA1E3"/>
<stop offset="1" stop-color="#3FA1E3" stop-opacity="0.35"/>
</linearGradient>
<linearGradient id="paint7_linear_4899_3802" x1="264.003" y1="34.4746" x2="264.003" y2="46.2903" gradientUnits="userSpaceOnUse">
<stop stop-color="#3FA1E3"/>
<stop offset="1" stop-color="#3FA1E3" stop-opacity="0.35"/>
</linearGradient>
<linearGradient id="paint8_linear_4899_3802" x1="334" y1="5.30859" x2="334" y2="54.1975" gradientUnits="userSpaceOnUse">
<stop stop-color="#3FA1E3"/>
<stop offset="1" stop-color="#3FA1E3" stop-opacity="0.35"/>
</linearGradient>
<clipPath id="clip0_4899_3802">
<rect width="40" height="40" fill="white" transform="translate(180 137)"/>
</clipPath>
<clipPath id="clip1_4899_3802">
<rect width="32" height="32" fill="white" transform="translate(134 141)"/>
</clipPath>
<clipPath id="clip2_4899_3802">
<rect width="32" height="32" fill="white" transform="matrix(-1 0 0 1 265 141)"/>
</clipPath>
<clipPath id="clip3_4899_3802">
<rect width="25.6" height="25.6" fill="white" transform="translate(94.2 144.199)"/>
</clipPath>
<clipPath id="clip4_4899_3802">
<rect width="25.6" height="25.6" fill="white" transform="matrix(-1 0 0 1 304.8 144.199)"/>
</clipPath>
</defs>
</svg>
