<svg width="404" height="180" viewBox="0 0 404 180" fill="none" xmlns="http://www.w3.org/2000/svg">
<g clip-path="url(#clip0_4953_3216)">
<rect opacity="0.4" x="22" y="3" width="358" height="359" rx="179" fill="url(#paint0_radial_4953_3216)"/>
<mask id="path-2-inside-1_4953_3216" fill="white">
<path d="M369.806 257.412C362.824 273.97 353.44 289.404 341.957 303.217C341.147 298.376 343.383 292.768 340.051 288.25C336.435 281.189 333.086 273.985 329.318 267.008C327.917 264.413 328.303 262.922 330.368 261.054C352.48 241.62 332.768 251.953 334.94 224.176C335.018 223.425 334.869 222.668 334.513 222.003C334.157 221.338 333.61 220.795 332.943 220.445C322.461 213.741 308.777 211.439 297.945 218.889C284.444 225.28 265.188 220.391 260.821 204.87C256.958 194.553 257.432 184.134 257.331 173.598C257.954 167.916 265.735 166.962 264.473 160.395C264.773 152.056 262.059 143.253 269.932 137.81C270.536 137.276 271.254 136.891 272.032 136.685C272.81 136.479 273.625 136.457 274.412 136.621C281.606 137.493 288.876 135.794 294.943 131.825C301.377 127.74 309.321 130.385 316.448 129.454C319.845 129.212 322.362 130.211 324.453 132.86C328.565 138.061 334.997 139.588 340.401 142.746C342.219 143.809 343.195 142.469 344.048 141.368C348.587 135.501 355.545 133.53 361.645 130.157C364.968 128.25 371.63 135.53 377.301 135.789C388.602 175.412 385.979 219.521 369.806 257.412ZM367.15 108.493C360.377 109.385 364.932 102.941 361.436 99.569C357.926 96.4317 354.588 93.1071 351.435 89.6098C349.803 87.8635 348.747 87.5827 346.86 89.4482C341.791 94.4717 342.076 93.9386 347.987 99.9414C354.888 107.54 360.09 107.413 347.603 112.694C344.761 113.976 342.078 116.896 338.976 112.676C337.099 110.123 334.544 108.407 334.847 104.474C335.314 98.4089 330.694 94.0117 328.557 88.7751C327.918 87.2127 326.79 88.3135 326.189 89.0828C321.692 94.874 314.899 97.1127 308.745 100.33C298.117 109.638 300.543 108.624 286.439 108.22C285.133 108.276 284.749 106.699 284.182 105.777C277.08 94.1317 278.458 91.293 285.815 80.299C288.522 78.6727 300.48 80.5498 302.74 82.9146C303.756 83.9762 304.59 85.2133 306.056 87.0642C307.183 82.5561 306.613 79.102 306.729 75.6994C308.636 61.7375 320.348 68.0296 328.663 64.997C332.592 61.9883 334.205 60.4905 333.372 59.0142C347.272 73.5337 358.684 90.2512 367.15 108.493ZM332.235 57.8457C326.56 54.1446 313.952 50.2427 313.616 41.0974C320.199 46.2452 326.42 51.8412 332.235 57.8457ZM71.2247 56.0763C81.8039 45.4642 93.6404 36.1893 106.47 28.4587C110.833 30.6896 113.946 38.8972 119.419 35.9808C125.256 32.9129 131.477 30.4796 135.667 24.9938C138.041 22.1051 142.195 24.316 145.296 23.4398C157.486 21.7866 160.782 35.6893 165.341 43.9599C164.939 44.2992 164.727 44.6246 164.552 44.6046C153.975 43.4091 144.276 46.8109 134.69 50.5082C131.541 51.7229 129.114 51.826 127.145 48.7888C124.71 45.0331 121.582 44.9246 117.698 46.5448C114.1 49.0919 101.175 49.5319 102.069 54.6439C102.946 59.4466 99.16 67.6326 107.766 65.9963C111.799 64.5908 115.266 76.5279 117.731 69.6651C123.019 48.2018 145.315 66.9318 162.507 53.2176C168.831 49.4588 174.033 61.8398 176.491 66.201C178.359 70.2928 179.71 75.1101 186.277 73.6831C182.159 77.8096 178.012 81.9084 173.94 86.0795C172.759 87.2896 171.685 86.9018 170.359 86.4403C165.239 84.6601 160.05 83.0777 154.948 81.2475C152.514 80.3744 151.346 80.289 151.402 83.5554C155.568 106.019 136.463 84.354 123.195 101.2C106.64 117.866 119.452 131.852 96.6985 149.372C95.3383 150.623 94.2085 150.774 92.8637 149.785C82.9793 142.756 60.7711 138.938 53.3873 150.426C53.2814 150.772 53.2555 151.138 53.3117 151.496C53.3678 151.853 53.5045 152.193 53.7114 152.49C57.666 158.839 57.9762 169.521 65.4844 158.871C67.7194 156.963 70.3445 157.605 72.6332 157.986C75.041 158.387 73.8452 160.941 73.7852 162.426C74.1255 168.35 82.6321 169.405 80.9586 176.074C80.0039 180.898 86.0706 178.231 88.7364 179.041C93.0458 179.663 96.3152 178.219 99.0778 174.848C101.173 172.292 113.199 170.555 115.969 172.199C118.165 174.416 119.087 177.878 120.662 180.585C123.281 185.847 123.393 185.953 127.247 181.794C136.103 174.831 148.55 180.34 156.976 185.175C163.596 188.889 161.409 202.149 171.27 200.243C173.164 199.796 174.188 201.412 175.227 202.583C182.389 211.36 193.954 210.31 198.191 222.346C200.92 227.365 200.628 231.765 198.309 236.732C196.661 246.06 192.081 252.934 182.411 255.546C174.743 258.305 187.679 270.837 170.128 275.834C165.626 276.816 165.043 280.269 165.626 284.318C167.488 294.749 164.96 302.62 153.507 305.368C150.12 306.489 150.724 311 149.116 313.571C141.215 327.995 148.397 338.518 158.46 348.62C149.628 349.142 140.056 350.042 137.003 340.518C133.189 329.422 129.737 318.23 124.082 307.857C122.182 304.374 123.405 300.327 123.356 296.549C121.977 281.091 106.219 269.522 109.179 253.052C110.326 244.803 98.5801 256.583 86.4185 241.57C82.3648 236.754 72.9327 225.113 74.5617 219.079C77.8911 210.766 78.2421 200.739 85.9285 194.969C89.2026 192.42 89.5006 184.47 83.394 186.011C67.7079 188.64 71.0595 176.834 61.8724 179.075C55.6514 179.739 51.1608 177.696 46.3261 173.336C31.8212 159.974 27.6631 169.875 19.3523 159.968C24.9295 120.616 43.1366 84.1509 71.2247 56.0763Z"/>
</mask>
<path d="M369.806 257.412C362.824 273.97 353.44 289.404 341.957 303.217C341.147 298.376 343.383 292.768 340.051 288.25C336.435 281.189 333.086 273.985 329.318 267.008C327.917 264.413 328.303 262.922 330.368 261.054C352.48 241.62 332.768 251.953 334.94 224.176C335.018 223.425 334.869 222.668 334.513 222.003C334.157 221.338 333.61 220.795 332.943 220.445C322.461 213.741 308.777 211.439 297.945 218.889C284.444 225.28 265.188 220.391 260.821 204.87C256.958 194.553 257.432 184.134 257.331 173.598C257.954 167.916 265.735 166.962 264.473 160.395C264.773 152.056 262.059 143.253 269.932 137.81C270.536 137.276 271.254 136.891 272.032 136.685C272.81 136.479 273.625 136.457 274.412 136.621C281.606 137.493 288.876 135.794 294.943 131.825C301.377 127.74 309.321 130.385 316.448 129.454C319.845 129.212 322.362 130.211 324.453 132.86C328.565 138.061 334.997 139.588 340.401 142.746C342.219 143.809 343.195 142.469 344.048 141.368C348.587 135.501 355.545 133.53 361.645 130.157C364.968 128.25 371.63 135.53 377.301 135.789C388.602 175.412 385.979 219.521 369.806 257.412ZM367.15 108.493C360.377 109.385 364.932 102.941 361.436 99.569C357.926 96.4317 354.588 93.1071 351.435 89.6098C349.803 87.8635 348.747 87.5827 346.86 89.4482C341.791 94.4717 342.076 93.9386 347.987 99.9414C354.888 107.54 360.09 107.413 347.603 112.694C344.761 113.976 342.078 116.896 338.976 112.676C337.099 110.123 334.544 108.407 334.847 104.474C335.314 98.4089 330.694 94.0117 328.557 88.7751C327.918 87.2127 326.79 88.3135 326.189 89.0828C321.692 94.874 314.899 97.1127 308.745 100.33C298.117 109.638 300.543 108.624 286.439 108.22C285.133 108.276 284.749 106.699 284.182 105.777C277.08 94.1317 278.458 91.293 285.815 80.299C288.522 78.6727 300.48 80.5498 302.74 82.9146C303.756 83.9762 304.59 85.2133 306.056 87.0642C307.183 82.5561 306.613 79.102 306.729 75.6994C308.636 61.7375 320.348 68.0296 328.663 64.997C332.592 61.9883 334.205 60.4905 333.372 59.0142C347.272 73.5337 358.684 90.2512 367.15 108.493ZM332.235 57.8457C326.56 54.1446 313.952 50.2427 313.616 41.0974C320.199 46.2452 326.42 51.8412 332.235 57.8457ZM71.2247 56.0763C81.8039 45.4642 93.6404 36.1893 106.47 28.4587C110.833 30.6896 113.946 38.8972 119.419 35.9808C125.256 32.9129 131.477 30.4796 135.667 24.9938C138.041 22.1051 142.195 24.316 145.296 23.4398C157.486 21.7866 160.782 35.6893 165.341 43.9599C164.939 44.2992 164.727 44.6246 164.552 44.6046C153.975 43.4091 144.276 46.8109 134.69 50.5082C131.541 51.7229 129.114 51.826 127.145 48.7888C124.71 45.0331 121.582 44.9246 117.698 46.5448C114.1 49.0919 101.175 49.5319 102.069 54.6439C102.946 59.4466 99.16 67.6326 107.766 65.9963C111.799 64.5908 115.266 76.5279 117.731 69.6651C123.019 48.2018 145.315 66.9318 162.507 53.2176C168.831 49.4588 174.033 61.8398 176.491 66.201C178.359 70.2928 179.71 75.1101 186.277 73.6831C182.159 77.8096 178.012 81.9084 173.94 86.0795C172.759 87.2896 171.685 86.9018 170.359 86.4403C165.239 84.6601 160.05 83.0777 154.948 81.2475C152.514 80.3744 151.346 80.289 151.402 83.5554C155.568 106.019 136.463 84.354 123.195 101.2C106.64 117.866 119.452 131.852 96.6985 149.372C95.3383 150.623 94.2085 150.774 92.8637 149.785C82.9793 142.756 60.7711 138.938 53.3873 150.426C53.2814 150.772 53.2555 151.138 53.3117 151.496C53.3678 151.853 53.5045 152.193 53.7114 152.49C57.666 158.839 57.9762 169.521 65.4844 158.871C67.7194 156.963 70.3445 157.605 72.6332 157.986C75.041 158.387 73.8452 160.941 73.7852 162.426C74.1255 168.35 82.6321 169.405 80.9586 176.074C80.0039 180.898 86.0706 178.231 88.7364 179.041C93.0458 179.663 96.3152 178.219 99.0778 174.848C101.173 172.292 113.199 170.555 115.969 172.199C118.165 174.416 119.087 177.878 120.662 180.585C123.281 185.847 123.393 185.953 127.247 181.794C136.103 174.831 148.55 180.34 156.976 185.175C163.596 188.889 161.409 202.149 171.27 200.243C173.164 199.796 174.188 201.412 175.227 202.583C182.389 211.36 193.954 210.31 198.191 222.346C200.92 227.365 200.628 231.765 198.309 236.732C196.661 246.06 192.081 252.934 182.411 255.546C174.743 258.305 187.679 270.837 170.128 275.834C165.626 276.816 165.043 280.269 165.626 284.318C167.488 294.749 164.96 302.62 153.507 305.368C150.12 306.489 150.724 311 149.116 313.571C141.215 327.995 148.397 338.518 158.46 348.62C149.628 349.142 140.056 350.042 137.003 340.518C133.189 329.422 129.737 318.23 124.082 307.857C122.182 304.374 123.405 300.327 123.356 296.549C121.977 281.091 106.219 269.522 109.179 253.052C110.326 244.803 98.5801 256.583 86.4185 241.57C82.3648 236.754 72.9327 225.113 74.5617 219.079C77.8911 210.766 78.2421 200.739 85.9285 194.969C89.2026 192.42 89.5006 184.47 83.394 186.011C67.7079 188.64 71.0595 176.834 61.8724 179.075C55.6514 179.739 51.1608 177.696 46.3261 173.336C31.8212 159.974 27.6631 169.875 19.3523 159.968C24.9295 120.616 43.1366 84.1509 71.2247 56.0763Z" stroke="#232F6F" stroke-width="2" mask="url(#path-2-inside-1_4953_3216)"/>
<circle cx="201" cy="184" r="181.5" stroke="#232F6F"/>
<g opacity="0.3" filter="url(#filter0_f_4953_3216)" style="mix-blend-mode:screen">
<path d="M80.2457 111.254C87.1093 104.554 96.275 102.662 100.769 106.983C105.252 111.344 103.332 120.279 96.5095 126.972C89.6459 133.672 80.4805 135.563 75.9869 131.243C71.5032 126.881 73.4235 117.947 80.2457 111.254Z" fill="url(#paint1_radial_4953_3216)"/>
</g>
<g opacity="0.5" filter="url(#filter1_f_4953_3216)" style="mix-blend-mode:screen">
<path d="M84.5833 115.446C87.7863 112.319 92.0636 111.436 94.1607 113.453C96.2531 115.488 95.3568 119.657 92.1731 122.781C88.9701 125.908 84.6929 126.79 82.5959 124.774C80.5035 122.739 81.3996 118.569 84.5833 115.446Z" fill="url(#paint2_radial_4953_3216)"/>
</g>
<path d="M87.2483 118.328C88.0958 117.501 89.2276 117.267 89.7825 117.801C90.3363 118.34 90.0992 119.443 89.2569 120.269C88.4094 121.097 87.2777 121.33 86.7227 120.796C86.169 120.258 86.406 119.155 87.2483 118.328Z" fill="#3FA1E3"/>
<g opacity="0.3" filter="url(#filter2_f_4953_3216)" style="mix-blend-mode:screen">
<path d="M77.3032 62.4998C81.5033 58.3994 87.1122 57.2421 89.8621 59.8861C92.6059 62.555 91.4306 68.0224 87.2557 72.1183C83.0556 76.2186 77.4469 77.3758 74.697 74.7318C71.9532 72.0629 73.1283 66.5957 77.3032 62.4998Z" fill="url(#paint3_radial_4953_3216)"/>
</g>
<g opacity="0.5" filter="url(#filter3_f_4953_3216)" style="mix-blend-mode:screen">
<path d="M79.9577 65.0636C81.9177 63.1501 84.5352 62.61 85.8185 63.8439C87.0989 65.0893 86.5504 67.6408 84.6022 69.5522C82.6421 71.4657 80.0247 72.0057 78.7414 70.7718C77.461 69.5263 78.0094 66.975 79.9577 65.0636Z" fill="url(#paint4_radial_4953_3216)"/>
</g>
<path d="M81.5885 66.8284C82.1071 66.3221 82.7997 66.1793 83.1393 66.5058C83.4781 66.8354 83.3331 67.5105 82.8176 68.0163C82.299 68.5225 81.6064 68.6654 81.2668 68.3388C80.928 68.0092 81.073 67.3341 81.5885 66.8284Z" fill="#3FA1E3"/>
<g opacity="0.3" filter="url(#filter4_f_4953_3216)" style="mix-blend-mode:screen">
<path d="M348.594 95.3432C354.235 101.141 355.818 108.873 352.168 112.657C348.484 116.433 340.951 114.801 335.316 109.038C329.674 103.24 328.092 95.5082 331.742 91.7243C335.426 87.9488 342.958 89.5805 348.594 95.3432Z" fill="url(#paint5_radial_4953_3216)"/>
</g>
<g opacity="0.5" filter="url(#filter5_f_4953_3216)" style="mix-blend-mode:screen">
<path d="M345.053 98.9948C347.685 101.7 348.424 105.309 346.721 107.075C345.001 108.837 341.486 108.075 338.856 105.386C336.224 102.68 335.485 99.0718 337.188 97.306C338.908 95.5441 342.423 96.3055 345.053 98.9948Z" fill="url(#paint6_radial_4953_3216)"/>
</g>
<path d="M342.618 101.24C343.315 101.956 343.51 102.911 343.059 103.378C342.604 103.844 341.674 103.643 340.978 102.931C340.282 102.215 340.087 101.261 340.537 100.793C340.992 100.327 341.922 100.528 342.618 101.24Z" fill="#3FA1E3"/>
<g opacity="0.3" filter="url(#filter6_f_4953_3216)" style="mix-blend-mode:screen">
<path d="M361.805 157.789C363.815 165.624 361.342 173.12 356.294 174.587C351.219 176.03 345.497 170.867 343.474 163.065C341.464 155.229 343.937 147.734 348.985 146.267C354.06 144.824 359.782 149.986 361.805 157.789Z" fill="url(#paint7_radial_4953_3216)"/>
</g>
<g opacity="0.5" filter="url(#filter7_f_4953_3216)" style="mix-blend-mode:screen">
<path d="M356.916 159.196C357.854 162.853 356.7 166.351 354.344 167.036C351.976 167.709 349.306 165.3 348.362 161.659C347.423 158.002 348.578 154.504 350.934 153.82C353.302 153.146 355.972 155.555 356.916 159.196Z" fill="url(#paint8_radial_4953_3216)"/>
</g>
<path d="M353.688 159.931C353.936 160.898 353.631 161.824 353.007 162.005C352.381 162.183 351.674 161.546 351.424 160.583C351.176 159.615 351.482 158.69 352.105 158.509C352.732 158.33 353.438 158.968 353.688 159.931Z" fill="#3FA1E3"/>
<g opacity="0.3" filter="url(#filter8_f_4953_3216)" style="mix-blend-mode:screen">
<path d="M159.043 60.9011C165.314 59.2181 171.409 61.3856 172.7 65.7314C173.973 70.099 169.936 74.9865 163.691 76.6799C157.419 78.3629 151.325 76.1954 150.034 71.8496C148.761 67.482 152.798 62.5946 159.043 60.9011Z" fill="url(#paint9_radial_4953_3216)"/>
</g>
<g opacity="0.5" filter="url(#filter9_f_4953_3216)" style="mix-blend-mode:screen">
<path d="M160.283 65.1086C163.209 64.3232 166.053 65.3346 166.656 67.3627C167.25 69.4009 165.366 71.6817 162.452 72.472C159.525 73.2574 156.681 72.2459 156.078 70.2178C155.485 68.1796 157.368 65.8988 160.283 65.1086Z" fill="url(#paint10_radial_4953_3216)"/>
</g>
<path d="M160.945 67.8851C161.72 67.6773 162.472 67.945 162.632 68.4817C162.789 69.0211 162.29 69.6247 161.519 69.8338C160.745 70.0416 159.992 69.7739 159.833 69.2372C159.676 68.6978 160.174 68.0942 160.945 67.8851Z" fill="#3FA1E3"/>
<path d="M89 115.499C144.5 100.166 275 86.899 353 156.499" stroke="#3FA1E3" stroke-linecap="round" stroke-linejoin="round" stroke-dasharray="1 3"/>
<path d="M156 70.0006C140.833 69.5006 106.6 77.3006 91 112.501" stroke="#3FA1E3" stroke-linecap="round" stroke-linejoin="round" stroke-dasharray="1 3"/>
<path d="M86.5 65.9995C133.833 44.3328 250.6 20.4995 339 98.4995" stroke="#3FA1E3" stroke-linecap="round" stroke-linejoin="round" stroke-dasharray="1 3"/>
<path d="M161 65.499C154.167 52.1657 133.3 25.999 104.5 27.999" stroke="#3FA1E3" stroke-linecap="round" stroke-linejoin="round" stroke-dasharray="1 3"/>
<path d="M356.5 156.5C358 151 364.6 139.4 379 137" stroke="#3FA1E3" stroke-linecap="round" stroke-linejoin="round" stroke-dasharray="1 3"/>
<path d="M174 2C221.5 2 301 38.5132 352 152" stroke="#3FA1E3" stroke-linecap="round" stroke-linejoin="round" stroke-dasharray="1 3"/>
</g>
<defs>
<filter id="filter0_f_4953_3216" x="69.5637" y="100.666" width="37.6281" height="36.8926" filterUnits="userSpaceOnUse" color-interpolation-filters="sRGB">
<feFlood flood-opacity="0" result="BackgroundImageFix"/>
<feBlend mode="normal" in="SourceGraphic" in2="BackgroundImageFix" result="shape"/>
<feGaussianBlur stdDeviation="2" result="effect1_foregroundBlur_4953_3216"/>
</filter>
<filter id="filter1_f_4953_3216" x="80.4651" y="111.371" width="15.8264" height="15.4844" filterUnits="userSpaceOnUse" color-interpolation-filters="sRGB">
<feFlood flood-opacity="0" result="BackgroundImageFix"/>
<feBlend mode="normal" in="SourceGraphic" in2="BackgroundImageFix" result="shape"/>
<feGaussianBlur stdDeviation="0.5" result="effect1_foregroundBlur_4953_3216"/>
</filter>
<filter id="filter2_f_4953_3216" x="69.2141" y="54.4688" width="26.1309" height="25.6816" filterUnits="userSpaceOnUse" color-interpolation-filters="sRGB">
<feFlood flood-opacity="0" result="BackgroundImageFix"/>
<feBlend mode="normal" in="SourceGraphic" in2="BackgroundImageFix" result="shape"/>
<feGaussianBlur stdDeviation="2" result="effect1_foregroundBlur_4953_3216"/>
</filter>
<filter id="filter3_f_4953_3216" x="77.0494" y="62.1816" width="10.4611" height="10.252" filterUnits="userSpaceOnUse" color-interpolation-filters="sRGB">
<feFlood flood-opacity="0" result="BackgroundImageFix"/>
<feBlend mode="normal" in="SourceGraphic" in2="BackgroundImageFix" result="shape"/>
<feGaussianBlur stdDeviation="0.5" result="effect1_foregroundBlur_4953_3216"/>
</filter>
<filter id="filter4_f_4953_3216" x="325.78" y="85.6895" width="32.351" height="33.002" filterUnits="userSpaceOnUse" color-interpolation-filters="sRGB">
<feFlood flood-opacity="0" result="BackgroundImageFix"/>
<feBlend mode="normal" in="SourceGraphic" in2="BackgroundImageFix" result="shape"/>
<feGaussianBlur stdDeviation="2" result="effect1_foregroundBlur_4953_3216"/>
</filter>
<filter id="filter5_f_4953_3216" x="335.273" y="95.3555" width="13.3638" height="13.668" filterUnits="userSpaceOnUse" color-interpolation-filters="sRGB">
<feFlood flood-opacity="0" result="BackgroundImageFix"/>
<feBlend mode="normal" in="SourceGraphic" in2="BackgroundImageFix" result="shape"/>
<feGaussianBlur stdDeviation="0.5" result="effect1_foregroundBlur_4953_3216"/>
</filter>
<filter id="filter6_f_4953_3216" x="338.775" y="142.025" width="27.7294" height="36.8027" filterUnits="userSpaceOnUse" color-interpolation-filters="sRGB">
<feFlood flood-opacity="0" result="BackgroundImageFix"/>
<feBlend mode="normal" in="SourceGraphic" in2="BackgroundImageFix" result="shape"/>
<feGaussianBlur stdDeviation="2" result="effect1_foregroundBlur_4953_3216"/>
</filter>
<filter id="filter7_f_4953_3216" x="347.035" y="152.707" width="11.207" height="15.4414" filterUnits="userSpaceOnUse" color-interpolation-filters="sRGB">
<feFlood flood-opacity="0" result="BackgroundImageFix"/>
<feBlend mode="normal" in="SourceGraphic" in2="BackgroundImageFix" result="shape"/>
<feGaussianBlur stdDeviation="0.5" result="effect1_foregroundBlur_4953_3216"/>
</filter>
<filter id="filter8_f_4953_3216" x="145.8" y="56.3301" width="31.1351" height="24.9199" filterUnits="userSpaceOnUse" color-interpolation-filters="sRGB">
<feFlood flood-opacity="0" result="BackgroundImageFix"/>
<feBlend mode="normal" in="SourceGraphic" in2="BackgroundImageFix" result="shape"/>
<feGaussianBlur stdDeviation="2" result="effect1_foregroundBlur_4953_3216"/>
</filter>
<filter id="filter9_f_4953_3216" x="154.969" y="63.8418" width="12.7965" height="9.89648" filterUnits="userSpaceOnUse" color-interpolation-filters="sRGB">
<feFlood flood-opacity="0" result="BackgroundImageFix"/>
<feBlend mode="normal" in="SourceGraphic" in2="BackgroundImageFix" result="shape"/>
<feGaussianBlur stdDeviation="0.5" result="effect1_foregroundBlur_4953_3216"/>
</filter>
<radialGradient id="paint0_radial_4953_3216" cx="0" cy="0" r="1" gradientUnits="userSpaceOnUse" gradientTransform="translate(201 182.5) rotate(90) scale(179.5 179)">
<stop offset="0.480792" stop-color="#232F6F" stop-opacity="0"/>
<stop offset="1" stop-color="#232F6F"/>
</radialGradient>
<radialGradient id="paint1_radial_4953_3216" cx="0" cy="0" r="1" gradientUnits="userSpaceOnUse" gradientTransform="translate(88.3778 119.113) rotate(46.7823) scale(11.3007 17.3437)">
<stop stop-color="#3FA1E3" stop-opacity="0"/>
<stop offset="1" stop-color="#3FA1E3"/>
</radialGradient>
<radialGradient id="paint2_radial_4953_3216" cx="0" cy="0" r="1" gradientUnits="userSpaceOnUse" gradientTransform="translate(88.3783 119.113) rotate(46.7823) scale(5.27364 8.09375)">
<stop stop-color="#3FA1E3" stop-opacity="0"/>
<stop offset="1" stop-color="#3FA1E3"/>
</radialGradient>
<radialGradient id="paint3_radial_4953_3216" cx="0" cy="0" r="1" gradientUnits="userSpaceOnUse" gradientTransform="translate(82.2796 67.3089) rotate(46.7823) scale(6.91541 10.6135)">
<stop stop-color="#3FA1E3" stop-opacity="0"/>
<stop offset="1" stop-color="#3FA1E3"/>
</radialGradient>
<radialGradient id="paint4_radial_4953_3216" cx="0" cy="0" r="1" gradientUnits="userSpaceOnUse" gradientTransform="translate(82.28 67.3078) rotate(46.7823) scale(3.22719 4.95295)">
<stop stop-color="#3FA1E3" stop-opacity="0"/>
<stop offset="1" stop-color="#3FA1E3"/>
</radialGradient>
<radialGradient id="paint5_radial_4953_3216" cx="0" cy="0" r="1" gradientUnits="userSpaceOnUse" gradientTransform="translate(341.955 102.191) rotate(136.875) scale(9.53053 14.627)">
<stop stop-color="#3FA1E3" stop-opacity="0"/>
<stop offset="1" stop-color="#3FA1E3"/>
</radialGradient>
<radialGradient id="paint6_radial_4953_3216" cx="0" cy="0" r="1" gradientUnits="userSpaceOnUse" gradientTransform="translate(341.955 102.19) rotate(136.875) scale(4.44758 6.82595)">
<stop stop-color="#3FA1E3" stop-opacity="0"/>
<stop offset="1" stop-color="#3FA1E3"/>
</radialGradient>
<radialGradient id="paint7_radial_4953_3216" cx="0" cy="0" r="1" gradientUnits="userSpaceOnUse" gradientTransform="translate(352.64 160.427) rotate(166.702) scale(9.53053 14.627)">
<stop stop-color="#3FA1E3" stop-opacity="0"/>
<stop offset="1" stop-color="#3FA1E3"/>
</radialGradient>
<radialGradient id="paint8_radial_4953_3216" cx="0" cy="0" r="1" gradientUnits="userSpaceOnUse" gradientTransform="translate(352.639 160.428) rotate(166.702) scale(4.44758 6.82595)">
<stop stop-color="#3FA1E3" stop-opacity="0"/>
<stop offset="1" stop-color="#3FA1E3"/>
</radialGradient>
<radialGradient id="paint9_radial_4953_3216" cx="0" cy="0" r="1" gradientUnits="userSpaceOnUse" gradientTransform="translate(161.367 68.7905) rotate(76.1542) scale(8.21998 11.7412)">
<stop stop-color="#3FA1E3" stop-opacity="0"/>
<stop offset="1" stop-color="#3FA1E3"/>
</radialGradient>
<radialGradient id="paint10_radial_4953_3216" cx="0" cy="0" r="1" gradientUnits="userSpaceOnUse" gradientTransform="translate(161.367 68.7903) rotate(76.1542) scale(3.83599 5.47921)">
<stop stop-color="#3FA1E3" stop-opacity="0"/>
<stop offset="1" stop-color="#3FA1E3"/>
</radialGradient>
<clipPath id="clip0_4953_3216">
<rect width="404" height="180" fill="white"/>
</clipPath>
</defs>
</svg>
