<svg width="404" height="180" viewBox="0 0 404 180" fill="none" xmlns="http://www.w3.org/2000/svg">
<g clip-path="url(#clip0_4621_15662)">
<circle opacity="0.2" cx="202" cy="175.834" r="46.5" stroke="#232F6F"/>
<path d="M226 133L232.5 121" stroke="#232F6F" stroke-linecap="round" stroke-linejoin="round" stroke-dasharray="1 3"/>
<path d="M177.869 133L171.369 121" stroke="#232F6F" stroke-linecap="round" stroke-linejoin="round" stroke-dasharray="1 3"/>
<path d="M92.5 67.0002L99.5 45" stroke="#232F6F" stroke-linecap="round" stroke-linejoin="round" stroke-dasharray="1 3"/>
<path d="M64.5 90.4996L43.5001 67.0003" stroke="#232F6F" stroke-linecap="round" stroke-linejoin="round" stroke-dasharray="1 3"/>
<path d="M161.5 67.5L161.5 57.0001" stroke="#232F6F" stroke-linecap="round" stroke-linejoin="round" stroke-dasharray="1 3"/>
<path d="M225 68.0009L212.999 41.5005" stroke="#232F6F" stroke-linecap="round" stroke-linejoin="round" stroke-dasharray="1 3"/>
<path d="M299.5 67.5L291.861 54.9435" stroke="#232F6F" stroke-linecap="round" stroke-linejoin="round" stroke-dasharray="1 3"/>
<path d="M331 90L363 72" stroke="#232F6F" stroke-linecap="round" stroke-linejoin="round" stroke-dasharray="1 3"/>
<path d="M256 73.5L269.581 53.458" stroke="#232F6F" stroke-linecap="round" stroke-linejoin="round" stroke-dasharray="1 3"/>
<path d="M245 151L303.5 120" stroke="#232F6F" stroke-linecap="round" stroke-linejoin="round" stroke-dasharray="1 3"/>
<path d="M158.869 151L100.369 120" stroke="#232F6F" stroke-linecap="round" stroke-linejoin="round" stroke-dasharray="1 3"/>
<path opacity="0.5" d="M202 136.929C223.4 136.929 240.748 154.273 240.748 175.668C240.748 197.063 223.4 214.407 202 214.407C180.6 214.407 163.252 197.063 163.252 175.668C163.252 154.273 180.6 136.929 202 136.929Z" stroke="#232F6F"/>
<path d="M180.042 171.93L188.55 157.579C189.811 155.453 192.099 154.149 194.571 154.149H209.429C211.9 154.149 214.189 155.453 215.45 157.579L223.958 171.93C225.253 174.113 225.264 176.827 223.987 179.021L215.441 193.707C214.187 195.861 211.883 197.186 209.391 197.186H194.609C192.117 197.186 189.813 195.861 188.559 193.707L180.013 179.021C178.736 176.827 178.747 174.113 180.042 171.93Z" fill="url(#paint0_linear_4621_15662)"/>
<path d="M199.468 161.745H193.897L185.541 175.063L193.897 189.592H199.468L191.112 175.063L199.468 161.745Z" fill="#131313"/>
<path d="M204.532 161.745H210.103L218.459 175.063L210.103 189.592H204.532L212.888 175.063L204.532 161.745Z" fill="#131313"/>
<path opacity="0.3" d="M171.221 171.83L184.339 149.956C185.604 147.846 187.883 146.556 190.342 146.556H213.658C216.117 146.556 218.396 147.846 219.661 149.956L232.779 171.83C234.097 174.028 234.109 176.772 232.808 178.981L219.652 201.333C218.394 203.47 216.1 204.782 213.62 204.782H190.38C187.9 204.782 185.606 203.47 184.348 201.333L171.192 178.981C169.891 176.772 169.903 174.028 171.221 171.83Z" stroke="#3FA1E3"/>
<rect x="67.5" y="70.5" width="47" height="47" rx="11.5" stroke="#232F6F"/>
<path d="M79 94C79 87.3832 84.3832 82 91 82C93.6723 82 96.2017 82.8598 98.3147 84.4864L95.5262 88.1088C94.2197 87.1031 92.6545 86.5714 91 86.5714C86.9039 86.5714 83.5714 89.9039 83.5714 94C83.5714 98.0961 86.9039 101.429 91 101.429C94.2991 101.429 97.1026 99.2671 98.0688 96.2857H91V91.7143H103V94C103 100.617 97.6168 106 91 106C84.3832 106 79 100.617 79 94Z" stroke="#3FA1E3"/>
<rect x="138.5" y="70.5" width="47" height="47" rx="11.5" stroke="#232F6F"/>
<path d="M168.207 86.583L167.86 86.4707C167.819 86.4575 167.778 86.4513 167.771 86.4502C167.753 86.4469 167.732 86.4428 167.71 86.4395C167.665 86.4327 167.605 86.424 167.531 86.4141C167.382 86.3941 167.168 86.3674 166.89 86.333L166.887 86.332L166.4 86.2822C165.913 86.2386 165.425 86.2147 164.936 86.2109H164.93C163.399 86.218 162.13 86.6526 161.182 87.5645C160.223 88.4861 159.769 89.7926 159.75 91.4023V93.4844H157.038V97.874H159.75V105.396C157.081 104.831 154.967 103.577 153.29 101.63C151.606 99.6758 150.681 97.3445 150.521 94.6143L150.5 94.0625C150.527 91.9012 151.052 89.9617 152.069 88.2324L152.07 88.2305C153.068 86.5164 154.488 85.0863 156.196 84.0781L156.198 84.0771C157.919 83.0532 159.849 82.5257 162 82.5C164.151 82.5254 166.081 83.0539 167.802 84.0781H167.804C169.512 85.0863 170.932 86.5164 171.93 88.2305L171.931 88.2324C172.947 89.9619 173.473 91.9013 173.5 94.0625C173.439 97.0317 172.506 99.5455 170.71 101.63C169.057 103.548 166.984 104.789 164.817 105.365V97.874H167.099L167.165 97.4512L167.697 94.0615L167.788 93.4844H164.14V91.7529L164.139 91.7422C164.126 91.4438 164.207 91.15 164.369 90.9014L164.443 90.7979C164.595 90.6045 164.915 90.4329 165.568 90.416H168.207V86.583Z" stroke="#3FA1E3"/>
<rect x="281.5" y="70.5" width="47" height="47" rx="11.5" stroke="#232F6F"/>
<path d="M311.207 86.583L310.86 86.4707C310.819 86.4575 310.778 86.4513 310.771 86.4502C310.753 86.4469 310.732 86.4428 310.71 86.4395C310.665 86.4327 310.605 86.424 310.531 86.4141C310.382 86.3941 310.168 86.3674 309.89 86.333L309.887 86.332L309.4 86.2822C308.913 86.2386 308.425 86.2147 307.936 86.2109H307.93C306.399 86.218 305.13 86.6526 304.182 87.5645C303.223 88.4861 302.769 89.7926 302.75 91.4023V93.4844H300.038V97.874H302.75V105.396C300.081 104.831 297.967 103.577 296.29 101.63C294.606 99.6758 293.681 97.3445 293.521 94.6143L293.5 94.0625C293.527 91.9012 294.052 89.9617 295.069 88.2324L295.07 88.2305C296.068 86.5164 297.488 85.0863 299.196 84.0781L299.198 84.0771C300.919 83.0532 302.849 82.5257 305 82.5C307.151 82.5254 309.081 83.0539 310.802 84.0781H310.804C312.512 85.0863 313.932 86.5164 314.93 88.2305L314.931 88.2324C315.947 89.9619 316.473 91.9013 316.5 94.0625C316.439 97.0317 315.506 99.5455 313.71 101.63C312.057 103.548 309.984 104.789 307.817 105.365V97.874H310.099L310.165 97.4512L310.697 94.0615L310.788 93.4844H307.14V91.7529L307.139 91.7422C307.126 91.4438 307.207 91.15 307.369 90.9014L307.443 90.7979C307.595 90.6045 307.915 90.4329 308.568 90.416H311.207V86.583Z" stroke="#3FA1E3"/>
<rect x="209.5" y="70.5" width="47" height="47" rx="11.5" stroke="#232F6F"/>
<path d="M245 106V97.21C245 92.89 244.07 89.59 239.03 89.59C236.6 89.59 234.98 90.91 234.32 92.17H234.26V89.98H229.49V106H234.47V98.05C234.47 95.95 234.86 93.94 237.44 93.94C239.99 93.94 240.02 96.31 240.02 98.17V105.97H245V106ZM221.39 89.98H226.37V106H221.39V89.98ZM223.88 82C222.29 82 221 83.29 221 84.88C221 86.47 222.29 87.79 223.88 87.79C225.47 87.79 226.76 86.47 226.76 84.88C226.76 83.29 225.47 82 223.88 82Z" stroke="#3FA1E3"/>
<path d="M101.75 2.96973C107.025 2.96973 111.986 5.02274 115.716 8.75296C119.446 12.4833 121.499 17.444 121.499 22.7194C121.499 27.9948 119.446 32.9555 115.716 36.6859C111.986 40.4162 107.025 42.4691 101.75 42.4691C96.4743 42.4691 91.5136 40.4161 87.7832 36.6859C84.0529 32.9555 82 27.9948 82 22.7194C82 17.4441 84.053 12.4833 87.7832 8.75296C91.5136 5.02267 96.4743 2.96973 101.75 2.96973ZM101.75 26.1056C96.0085 26.1056 91.1503 30.4671 90.4936 36.1175L90.4907 36.1421L90.511 36.1595C93.5558 38.7096 97.4766 40.2475 101.75 40.2475C106.023 40.2475 109.944 38.7096 112.988 36.1595L113.009 36.1436L113.006 36.116C112.712 33.5941 111.572 31.2321 109.763 29.4235C107.623 27.2835 104.776 26.1056 101.75 26.1056ZM101.75 5.19137C92.0843 5.19137 84.2216 13.054 84.2216 22.7194C84.2216 27.1025 85.8382 31.115 88.5069 34.1916L88.5692 34.2627L88.5924 34.1713C89.2185 31.6377 90.5693 29.3289 92.5137 27.518C93.8563 26.2672 95.417 25.3164 97.1034 24.7018L97.1948 24.667L97.115 24.6133C94.9143 23.1223 93.465 20.6017 93.465 17.7497C93.4654 13.1823 97.1821 9.46644 101.75 9.46644C106.317 9.46644 110.034 13.1823 110.034 17.7497C110.034 20.6001 108.586 23.1206 106.387 24.6119L106.308 24.6656L106.399 24.6989L107.079 24.9672C108.648 25.6381 110.091 26.6099 111.334 27.853C113.077 29.5954 114.312 31.7809 114.906 34.1728L114.927 34.2642L114.991 34.1931L115.478 33.6058C117.856 30.6137 119.278 26.8296 119.278 22.7194C119.278 13.054 111.415 5.19137 101.75 5.19137ZM101.75 11.6881C98.407 11.6881 95.687 14.4067 95.6866 17.7497C95.6866 20.9372 98.1602 23.5576 101.289 23.794L101.563 23.8143H101.75C105.093 23.8143 107.813 21.0929 107.813 17.7497C107.812 14.4067 105.092 11.6881 101.75 11.6881Z" fill="#232F6F"/>
<path d="M25.7497 33C31.0251 33 35.9858 35.053 39.7162 38.7832C43.4465 42.5136 45.4994 47.4743 45.4994 52.7497C45.4994 58.0251 43.4464 62.9858 39.7162 66.7162C35.9858 70.4465 31.0251 72.4994 25.7497 72.4994C20.4743 72.4994 15.5136 70.4464 11.7832 66.7162C8.05294 62.9858 6 58.0251 6 52.7497C6 47.4743 8.05302 42.5136 11.7832 38.7832C15.5136 35.0529 20.4743 33 25.7497 33ZM25.7497 56.1358C20.0085 56.1358 15.1503 60.4974 14.4936 66.1477L14.4907 66.1724L14.511 66.1898C17.5558 68.7398 21.4766 70.2778 25.7497 70.2778C30.0229 70.2778 33.9437 68.7399 36.9884 66.1898L37.0087 66.1738L37.0058 66.1463C36.7123 63.6244 35.5715 61.2624 33.7633 59.4538C31.6227 57.3138 28.7759 56.1358 25.7497 56.1358ZM25.7497 35.2216C16.0843 35.2216 8.22164 43.0843 8.22164 52.7497C8.22164 57.1327 9.83817 61.1453 12.5069 64.2219L12.5692 64.293L12.5924 64.2016C13.2185 61.6679 14.5693 59.3592 16.5137 57.5483C17.8563 56.2974 19.417 55.3467 21.1034 54.7321L21.1948 54.6973L21.115 54.6436C18.9143 53.1526 17.465 50.632 17.465 47.78C17.4654 43.2126 21.1821 39.4967 25.7497 39.4967C30.3173 39.4967 34.034 43.2126 34.0345 47.78C34.0345 50.6304 32.5863 53.1509 30.3873 54.6422L30.3076 54.6958L30.3989 54.7292L31.079 54.9975C32.648 55.6684 34.0907 56.6402 35.3338 57.8833C37.0766 59.6257 38.3116 61.8112 38.9056 64.2031L38.9273 64.2944L38.9911 64.2234L39.4784 63.6361C41.8561 60.644 43.2778 56.8598 43.2778 52.7497C43.2778 43.0843 35.4152 35.2216 25.7497 35.2216ZM25.7497 41.7184C22.407 41.7184 19.687 44.437 19.6866 47.78C19.6866 50.9675 22.1602 53.5879 25.2886 53.8243L25.5626 53.8446H25.7497C29.0927 53.8446 31.8128 51.1232 31.8128 47.78C31.8124 44.437 29.0924 41.7184 25.7497 41.7184Z" fill="#232F6F"/>
<path d="M381.75 40.0938C387.025 40.0938 391.986 42.1468 395.716 45.877C399.446 49.6074 401.499 54.5681 401.499 59.8435C401.499 65.1188 399.446 70.0796 395.716 73.8099C391.986 77.5402 387.025 79.5932 381.75 79.5932C376.474 79.5932 371.514 77.5402 367.783 73.8099C364.053 70.0796 362 65.1189 362 59.8435C362 54.5681 364.053 49.6074 367.783 45.877C371.514 42.1467 376.474 40.0938 381.75 40.0938ZM381.75 63.2296C376.008 63.2296 371.15 67.5911 370.494 73.2415L370.491 73.2661L370.511 73.2835C373.556 75.8336 377.477 77.3715 381.75 77.3715C386.023 77.3715 389.944 75.8336 392.988 73.2835L393.009 73.2676L393.006 73.24C392.712 70.7181 391.572 68.3561 389.763 66.5475C387.623 64.4075 384.776 63.2296 381.75 63.2296ZM381.75 42.3154C372.084 42.3154 364.222 50.178 364.222 59.8435C364.222 64.2265 365.838 68.2391 368.507 71.3157L368.569 71.3867L368.592 71.2954C369.218 68.7617 370.569 66.4529 372.514 64.642C373.856 63.3912 375.417 62.4405 377.103 61.8258L377.195 61.791L377.115 61.7374C374.914 60.2463 373.465 57.7257 373.465 54.8738C373.465 50.3063 377.182 46.5905 381.75 46.5905C386.317 46.5905 390.034 50.3063 390.034 54.8738C390.034 57.7242 388.586 60.2447 386.387 61.7359L386.308 61.7896L386.399 61.8229L387.079 62.0912C388.648 62.7621 390.091 63.7339 391.334 64.977C393.077 66.7194 394.312 68.9049 394.906 71.2968L394.927 71.3882L394.991 71.3171L395.478 70.7298C397.856 67.7377 399.278 63.9536 399.278 59.8435C399.278 50.178 391.415 42.3154 381.75 42.3154ZM381.75 48.8121C378.407 48.8121 375.687 51.5307 375.687 54.8738C375.687 58.0612 378.16 60.6816 381.289 60.918L381.563 60.9383H381.75C385.093 60.9383 387.813 58.2169 387.813 54.8738C387.812 51.5307 385.092 48.8121 381.75 48.8121Z" fill="#232F6F"/>
<path d="M205.3 1.48535C210.575 1.48535 215.536 3.53837 219.266 7.26858C222.997 10.999 225.05 15.9597 225.05 21.2351C225.05 26.5104 222.997 31.4712 219.266 35.2015C215.536 38.9318 210.575 40.9848 205.3 40.9848C200.024 40.9848 195.064 38.9318 191.333 35.2015C187.603 31.4712 185.55 26.5105 185.55 21.2351C185.55 15.9597 187.603 10.999 191.333 7.26858C195.064 3.53829 200.024 1.48535 205.3 1.48535ZM205.3 24.6212C199.559 24.6212 194.7 28.9827 194.044 34.6331L194.041 34.6577L194.061 34.6751C197.106 37.2252 201.027 38.7631 205.3 38.7631C209.573 38.7631 213.494 37.2252 216.539 34.6751L216.559 34.6592L216.556 34.6316C216.262 32.1097 215.122 29.7477 213.313 27.9391C211.173 25.7991 208.326 24.6212 205.3 24.6212ZM205.3 3.70699C195.634 3.70699 187.772 11.5696 187.772 21.2351C187.772 25.6181 189.388 29.6307 192.057 32.7073L192.119 32.7783L192.143 32.687C192.769 30.1533 194.119 27.8445 196.064 26.0336C197.406 24.7828 198.967 23.8321 200.654 23.2174L200.745 23.1826L200.665 23.129C198.464 21.638 197.015 19.1173 197.015 16.2654C197.015 11.6979 200.732 7.98206 205.3 7.98206C209.867 7.98206 213.584 11.6979 213.585 16.2654C213.585 19.1158 212.136 21.6363 209.937 23.1275L209.858 23.1812L209.949 23.2145L210.629 23.4828C212.198 24.1537 213.641 25.1255 214.884 26.3686C216.627 28.111 217.862 30.2965 218.456 32.6884L218.477 32.7798L218.541 32.7087L219.028 32.1214C221.406 29.1293 222.828 25.3452 222.828 21.2351C222.828 11.5696 214.965 3.70699 205.3 3.70699ZM205.3 10.2037C201.957 10.2037 199.237 12.9223 199.237 16.2654C199.237 19.4528 201.71 22.0732 204.839 22.3096L205.113 22.3299H205.3C208.643 22.3299 211.363 19.6085 211.363 16.2654C211.363 12.9223 208.643 10.2037 205.3 10.2037Z" fill="#232F6F"/>
<path d="M282.75 14.8496C288.025 14.8496 292.986 16.9026 296.716 20.6328C300.446 24.3632 302.499 29.3239 302.499 34.5993C302.499 39.8747 300.446 44.8354 296.716 48.5658C292.986 52.2961 288.025 54.349 282.75 54.349C277.474 54.349 272.514 52.296 268.783 48.5658C265.053 44.8354 263 39.8747 263 34.5993C263 29.3239 265.053 24.3632 268.783 20.6328C272.514 16.9025 277.474 14.8496 282.75 14.8496ZM282.75 37.9854C277.008 37.9854 272.15 42.347 271.494 47.9973L271.491 48.022L271.511 48.0394C274.556 50.5895 278.477 52.1274 282.75 52.1274C287.023 52.1274 290.944 50.5895 293.988 48.0394L294.009 48.0234L294.006 47.9959C293.712 45.474 292.572 43.112 290.763 41.3034C288.623 39.1634 285.776 37.9854 282.75 37.9854ZM282.75 17.0713C273.084 17.0713 265.222 24.9339 265.222 34.5993C265.222 38.9823 266.838 42.9949 269.507 46.0715L269.569 46.1426L269.592 46.0512C270.218 43.5175 271.569 41.2088 273.514 39.3979C274.856 38.147 276.417 37.1963 278.103 36.5817L278.195 36.5469L278.115 36.4932C275.914 35.0022 274.465 32.4816 274.465 29.6296C274.465 25.0622 278.182 21.3463 282.75 21.3463C287.317 21.3463 291.034 25.0622 291.034 29.6296C291.034 32.48 289.586 35.0005 287.387 36.4918L287.308 36.5454L287.399 36.5788L288.079 36.8471C289.648 37.518 291.091 38.4898 292.334 39.7329C294.077 41.4753 295.312 43.6608 295.906 46.0527L295.927 46.144L295.991 46.073L296.478 45.4857C298.856 42.4936 300.278 38.7095 300.278 34.5993C300.278 24.9339 292.415 17.0713 282.75 17.0713ZM282.75 23.568C279.407 23.568 276.687 26.2866 276.687 29.6296C276.687 32.8171 279.16 35.4375 282.289 35.6739L282.563 35.6942H282.75C286.093 35.6942 288.813 32.9728 288.813 29.6296C288.812 26.2866 286.092 23.568 282.75 23.568Z" fill="#232F6F"/>
<path d="M160.75 16C166.025 16 170.986 18.053 174.716 21.7832C178.446 25.5136 180.499 30.4743 180.499 35.7497C180.499 41.0251 178.446 45.9858 174.716 49.7162C170.986 53.4465 166.025 55.4994 160.75 55.4994C155.474 55.4994 150.514 53.4464 146.783 49.7162C143.053 45.9858 141 41.0251 141 35.7497C141 30.4743 143.053 25.5136 146.783 21.7832C150.514 18.0529 155.474 16 160.75 16ZM160.75 39.1358C155.008 39.1358 150.15 43.4974 149.494 49.1477L149.491 49.1724L149.511 49.1898C152.556 51.7398 156.477 53.2778 160.75 53.2778C165.023 53.2778 168.944 51.7399 171.988 49.1898L172.009 49.1738L172.006 49.1463C171.712 46.6244 170.572 44.2624 168.763 42.4538C166.623 40.3138 163.776 39.1358 160.75 39.1358ZM160.75 18.2216C151.084 18.2216 143.222 26.0843 143.222 35.7497C143.222 40.1327 144.838 44.1453 147.507 47.2219L147.569 47.293L147.592 47.2016C148.218 44.6679 149.569 42.3592 151.514 40.5483C152.856 39.2974 154.417 38.3467 156.103 37.7321L156.195 37.6973L156.115 37.6436C153.914 36.1526 152.465 33.632 152.465 30.78C152.465 26.2126 156.182 22.4967 160.75 22.4967C165.317 22.4967 169.034 26.2126 169.034 30.78C169.034 33.6304 167.586 36.1509 165.387 37.6422L165.308 37.6958L165.399 37.7292L166.079 37.9975C167.648 38.6684 169.091 39.6402 170.334 40.8833C172.077 42.6257 173.312 44.8112 173.906 47.2031L173.927 47.2944L173.991 47.2234L174.478 46.6361C176.856 43.644 178.278 39.8598 178.278 35.7497C178.278 26.0843 170.415 18.2216 160.75 18.2216ZM160.75 24.7184C157.407 24.7184 154.687 27.437 154.687 30.78C154.687 33.9675 157.16 36.5879 160.289 36.8243L160.563 36.8446H160.75C164.093 36.8446 166.813 34.1232 166.813 30.78C166.812 27.437 164.092 24.7184 160.75 24.7184Z" fill="#232F6F"/>
</g>
<defs>
<linearGradient id="paint0_linear_4621_15662" x1="202" y1="154.149" x2="202" y2="197.186" gradientUnits="userSpaceOnUse">
<stop stop-color="#3FA1E3" stop-opacity="0.35"/>
<stop offset="0.605793" stop-color="#3FA1E3"/>
</linearGradient>
<clipPath id="clip0_4621_15662">
<rect width="404" height="180" fill="white"/>
</clipPath>
</defs>
</svg>
