<svg width="480" height="400" viewBox="0 0 480 400" fill="none" xmlns="http://www.w3.org/2000/svg">
<ellipse cx="240" cy="200" rx="193" ry="195" fill="#0A0F2B" fill-opacity="0.8" stroke="url(#paint0_linear_4953_3148)"/>
<path opacity="0.2" d="M241.5 56.5C321.031 56.5 385.5 120.749 385.5 200C385.5 279.251 321.031 343.5 241.5 343.5C161.969 343.5 97.5 279.251 97.5 200C97.5 120.749 161.969 56.5 241.5 56.5Z" stroke="#3FA1E3"/>
<path opacity="0.2" d="M241.5 31.5C334.838 31.5 410.5 106.941 410.5 200C410.5 293.059 334.838 368.5 241.5 368.5C148.162 368.5 72.5 293.059 72.5 200C72.5 106.941 148.162 31.5 241.5 31.5Z" stroke="#3FA1E3"/>
<path opacity="0.15" d="M241.5 79.5C308.328 79.5 362.5 133.452 362.5 200C362.5 266.548 308.328 320.5 241.5 320.5C174.672 320.5 120.5 266.548 120.5 200C120.5 133.452 174.672 79.5 241.5 79.5Z" stroke="#3FA1E3"/>
<path opacity="0.12" d="M241.5 100.5C296.731 100.5 341.5 145.05 341.5 200C341.5 254.95 296.731 299.5 241.5 299.5C186.269 299.5 141.5 254.95 141.5 200C141.5 145.05 186.269 100.5 241.5 100.5Z" stroke="#3FA1E3"/>
<path opacity="0.1" d="M241.5 121.5C285.133 121.5 320.5 156.649 320.5 200C320.5 243.351 285.133 278.5 241.5 278.5C197.867 278.5 162.5 243.351 162.5 200C162.5 156.649 197.867 121.5 241.5 121.5Z" stroke="#3FA1E3"/>
<path d="M284.408 131C291.286 130.994 298.135 131.879 304.785 133.634C307.623 134.4 310.415 135.326 313.148 136.407C313.197 136.465 313.225 136.539 313.225 136.615C313.225 136.691 313.197 136.764 313.148 136.823C311.978 139.287 310.715 141.689 309.359 144.031C309.305 144.068 309.241 144.089 309.175 144.089C309.109 144.089 309.044 144.068 308.99 144.031C306.254 143.036 303.461 142.203 300.627 141.535C282.334 137.304 263.113 140.352 247.027 150.037C253.965 155.913 259.869 162.91 264.493 170.738C265.417 172.309 266.527 174.342 267.035 175.359C267.543 176.375 267.82 176.884 268.56 178.547C269.299 180.21 269.992 181.874 270.639 183.583C273.986 192.587 275.692 202.117 275.676 211.723C275.681 222.61 273.48 233.386 269.208 243.4C264.936 253.414 258.679 262.459 250.816 269.99C249.615 271.145 248.09 272.485 247.073 273.363C246.057 274.24 245.317 274.841 243.978 275.858C242.638 276.874 241.251 277.844 239.865 278.815C239.811 278.852 239.747 278.872 239.681 278.872C239.615 278.872 239.55 278.852 239.496 278.815C238.11 277.891 236.447 276.643 235.384 275.858C234.321 275.072 233.582 274.471 232.288 273.363C230.994 272.254 229.746 271.145 228.545 269.99C217.166 259.095 209.225 245.108 205.702 229.753C202.18 214.399 203.23 198.348 208.723 183.583C209.323 181.92 210.248 179.702 210.756 178.593C211.264 177.484 211.449 177.022 212.28 175.405C213.112 173.788 213.897 172.263 214.821 170.784C219.439 162.952 225.345 155.954 232.288 150.083C216.241 140.347 197.036 137.232 178.734 141.397C175.901 142.067 173.109 142.9 170.371 143.892C170.317 143.93 170.253 143.95 170.187 143.95C170.12 143.95 170.056 143.93 170.002 143.892C168.6 141.541 167.319 139.12 166.166 136.638C166.117 136.58 166.091 136.506 166.091 136.43C166.091 136.354 166.117 136.28 166.166 136.222C168.871 135.201 171.633 134.336 174.438 133.634C181.132 131.867 188.029 130.982 194.953 131C210.875 130.979 226.443 135.692 239.681 144.539C252.921 135.698 268.487 130.985 284.408 131ZM215.839 190.107C211.974 202.323 211.448 215.35 214.316 227.838C217.184 240.326 223.342 251.82 232.149 261.125C234.356 254.129 235.478 246.837 235.477 239.501C235.509 221.127 228.478 203.443 215.839 190.107ZM263.662 190.107C251.022 203.443 243.992 221.127 244.024 239.501C244.031 246.836 245.152 254.128 247.351 261.125C259.986 247.786 267.016 230.104 266.988 211.731C266.985 204.396 265.863 197.104 263.662 190.107ZM239.681 155.305C233.294 160.369 227.81 166.477 223.462 173.371C228.78 174.605 234.222 175.226 239.681 175.22C245.14 175.229 250.582 174.608 255.899 173.371C251.546 166.481 246.063 160.374 239.681 155.305Z" fill="url(#paint1_linear_4953_3148)"/>
<g filter="url(#filter0_d_4953_3148)">
<circle cx="241.5" cy="338.5" r="32.5" fill="#0A0F2B" fill-opacity="0.8" shape-rendering="crispEdges"/>
<circle cx="241.5" cy="338.5" r="32.5" stroke="url(#paint2_linear_4953_3148)" shape-rendering="crispEdges"/>
</g>
<mask id="mask0_4953_3148" style="mask-type:alpha" maskUnits="userSpaceOnUse" x="223" y="324" width="24" height="29">
<path d="M223 324.5H246.88V352.5H223V324.5Z" fill="#3FA1E3"/>
</mask>
<g mask="url(#mask0_4953_3148)">
<path fill-rule="evenodd" clip-rule="evenodd" d="M240.309 324.5H246.88L231.58 351.211C231.174 351.92 230.27 352.5 229.572 352.5H223L238.301 325.789C238.707 325.08 239.61 324.5 240.309 324.5Z" fill="#3FA1E3"/>
</g>
<mask id="mask1_4953_3148" style="mask-type:alpha" maskUnits="userSpaceOnUse" x="234" y="324" width="25" height="29">
<path d="M234.276 324.5H258.157V352.5H234.276V324.5Z" fill="#3FA1E3"/>
</mask>
<g mask="url(#mask1_4953_3148)">
<path fill-rule="evenodd" clip-rule="evenodd" d="M251.585 324.5H258.157L242.857 351.211C242.45 351.92 241.547 352.5 240.848 352.5H234.276L249.577 325.789C249.984 325.08 250.887 324.5 251.585 324.5Z" fill="#3FA1E3"/>
</g>
<defs>
<filter id="filter0_d_4953_3148" x="192.5" y="289.5" width="98" height="98" filterUnits="userSpaceOnUse" color-interpolation-filters="sRGB">
<feFlood flood-opacity="0" result="BackgroundImageFix"/>
<feColorMatrix in="SourceAlpha" type="matrix" values="0 0 0 0 0 0 0 0 0 0 0 0 0 0 0 0 0 0 127 0" result="hardAlpha"/>
<feMorphology radius="4" operator="dilate" in="SourceAlpha" result="effect1_dropShadow_4953_3148"/>
<feOffset/>
<feGaussianBlur stdDeviation="6"/>
<feComposite in2="hardAlpha" operator="out"/>
<feColorMatrix type="matrix" values="0 0 0 0 0.247059 0 0 0 0 0.631373 0 0 0 0 0.890196 0 0 0 0.4 0"/>
<feBlend mode="normal" in2="BackgroundImageFix" result="effect1_dropShadow_4953_3148"/>
<feBlend mode="normal" in="SourceGraphic" in2="effect1_dropShadow_4953_3148" result="shape"/>
</filter>
<linearGradient id="paint0_linear_4953_3148" x1="240" y1="5" x2="240" y2="395" gradientUnits="userSpaceOnUse">
<stop stop-color="#3FA1E3"/>
<stop offset="1" stop-color="#3FA1E3" stop-opacity="0.35"/>
</linearGradient>
<linearGradient id="paint1_linear_4953_3148" x1="239.658" y1="131" x2="239.658" y2="278.872" gradientUnits="userSpaceOnUse">
<stop stop-color="#3FA1E3" stop-opacity="0.35"/>
<stop offset="0.605793" stop-color="#3FA1E3"/>
</linearGradient>
<linearGradient id="paint2_linear_4953_3148" x1="241.5" y1="306" x2="241.5" y2="371" gradientUnits="userSpaceOnUse">
<stop stop-color="#3FA1E3"/>
<stop offset="1" stop-color="#3FA1E3" stop-opacity="0.35"/>
</linearGradient>
</defs>
</svg>
