<svg width="480" height="400" viewBox="0 0 480 400" fill="none" xmlns="http://www.w3.org/2000/svg">
<path d="M275.352 167.578H251.914C250.295 167.578 248.984 166.268 248.984 164.648C248.984 163.029 250.295 161.719 251.914 161.719H275.352C276.971 161.719 278.281 163.029 278.281 164.648C278.281 166.268 276.971 167.578 275.352 167.578ZM228.086 167.578C226.468 167.578 225.156 166.266 225.156 164.648C225.156 163.03 226.468 161.719 228.086 161.719C229.704 161.719 231.016 163.03 231.016 164.648C231.016 166.266 229.704 167.578 228.086 167.578ZM216.367 167.578C214.749 167.578 213.438 166.266 213.438 164.648C213.438 163.03 214.749 161.719 216.367 161.719C217.985 161.719 219.297 163.03 219.297 164.648C219.297 166.266 217.985 167.578 216.367 167.578ZM204.648 167.578C203.03 167.578 201.719 166.266 201.719 164.648C201.719 163.03 203.03 161.719 204.648 161.719C206.266 161.719 207.578 163.03 207.578 164.648C207.578 166.266 206.266 167.578 204.648 167.578ZM281.211 150H198.789C193.943 150 190 153.943 190 158.789V170.508C190 175.354 193.943 179.297 198.789 179.297H281.211C286.057 179.297 290 175.354 290 170.508V158.789C290 153.943 286.057 150 281.211 150Z" fill="#0A0F2B" fill-opacity="0.8" stroke="url(#paint0_linear_4896_3205)" stroke-width="1.5"/>
<path d="M275.352 202.932H251.914C250.295 202.932 248.984 201.621 248.984 200.002C248.984 198.383 250.295 197.072 251.914 197.072H275.352C276.971 197.072 278.281 198.383 278.281 200.002C278.281 201.621 276.971 202.932 275.352 202.932ZM228.086 202.932C226.468 202.932 225.156 201.62 225.156 200.002C225.156 198.384 226.468 197.072 228.086 197.072C229.704 197.072 231.016 198.384 231.016 200.002C231.016 201.62 229.704 202.932 228.086 202.932ZM216.367 202.932C214.749 202.932 213.438 201.62 213.438 200.002C213.438 198.384 214.749 197.072 216.367 197.072C217.985 197.072 219.297 198.384 219.297 200.002C219.297 201.62 217.985 202.932 216.367 202.932ZM204.648 202.932C203.03 202.932 201.719 201.62 201.719 200.002C201.719 198.384 203.03 197.072 204.648 197.072C206.266 197.072 207.578 198.384 207.578 200.002C207.578 201.62 206.266 202.932 204.648 202.932ZM281.211 185.353H198.789C193.943 185.353 190 189.296 190 194.143V205.861C190 210.708 193.943 214.65 198.789 214.65H281.211C286.057 214.65 290 210.708 290 205.861V194.143C290 189.296 286.057 185.353 281.211 185.353Z" fill="#0A0F2B" fill-opacity="0.8" stroke="url(#paint1_linear_4896_3205)" stroke-width="1.5"/>
<path d="M275.352 238.807H251.914C250.295 238.807 248.984 237.496 248.984 235.877C248.984 234.258 250.295 232.947 251.914 232.947H275.352C276.971 232.947 278.281 234.258 278.281 235.877C278.281 237.496 276.971 238.807 275.352 238.807ZM228.086 238.807C226.468 238.807 225.156 237.495 225.156 235.877C225.156 234.259 226.468 232.947 228.086 232.947C229.704 232.947 231.016 234.259 231.016 235.877C231.016 237.495 229.704 238.807 228.086 238.807ZM216.367 238.807C214.749 238.807 213.438 237.495 213.438 235.877C213.438 234.259 214.749 232.947 216.367 232.947C217.985 232.947 219.297 234.259 219.297 235.877C219.297 237.495 217.985 238.807 216.367 238.807ZM204.648 238.807C203.03 238.807 201.719 237.495 201.719 235.877C201.719 234.259 203.03 232.947 204.648 232.947C206.266 232.947 207.578 234.259 207.578 235.877C207.578 237.495 206.266 238.807 204.648 238.807ZM281.211 221.228H198.789C193.943 221.228 190 225.171 190 230.018V241.736C190 246.583 193.943 250.525 198.789 250.525H281.211C286.057 250.525 290 246.583 290 241.736V230.018C290 225.171 286.057 221.228 281.211 221.228Z" fill="#0A0F2B" fill-opacity="0.8" stroke="url(#paint2_linear_4896_3205)" stroke-width="1.5"/>
<g clip-path="url(#clip0_4896_3205)">
<path d="M85 149C90.3431 149 95.3644 151.079 99.1426 154.857C102.921 158.636 105 163.657 105 169C105 174.343 102.921 179.364 99.1426 183.143C95.3644 186.921 90.3431 189 85 189C79.6569 189 74.6356 186.921 70.8574 183.143C67.0793 179.364 65 174.343 65 169C65 163.657 67.0793 158.636 70.8574 154.857C74.6356 151.079 79.6569 149 85 149ZM85 172.046C78.8169 172.046 73.588 176.741 72.8806 182.827L72.8486 183.102L73.0609 183.279C76.2951 185.987 80.4602 187.622 85 187.622C89.5399 187.622 93.706 185.988 96.9401 183.279L97.1514 183.102L97.1194 182.826C96.8033 180.11 95.5757 177.567 93.6288 175.62C91.3245 173.316 88.2577 172.046 85 172.046ZM85 150.378C74.7314 150.378 66.3782 158.731 66.3782 169C66.3782 173.657 68.0969 177.92 70.9315 181.188L71.5795 181.935L71.8169 180.975C72.444 178.437 73.7971 176.124 75.7462 174.308C77.092 173.055 78.6552 172.103 80.3446 171.487L81.2871 171.143L80.4567 170.581C78.2977 169.118 76.879 166.647 76.879 163.852C76.8792 159.374 80.5226 155.731 85 155.731C89.4774 155.731 93.1208 159.374 93.121 163.852C93.121 166.645 91.7036 169.116 89.5463 170.579L88.7159 171.141L89.6585 171.484C91.4939 172.153 93.1778 173.221 94.6024 174.645C96.3488 176.391 97.5869 178.58 98.1821 180.977L98.4195 181.936L99.0665 181.19C101.902 177.922 103.622 173.658 103.622 169C103.622 158.731 95.2686 150.378 85 150.378ZM85 157.109C81.2818 157.109 78.2574 160.133 78.2572 163.852C78.2572 167.398 81.0075 170.311 84.4872 170.574V170.596H85C88.7184 170.596 91.7428 167.57 91.7428 163.852C91.7426 160.133 88.7182 157.109 85 157.109Z" fill="#232F6F"/>
<circle opacity="0.1" cx="151.14" cy="230.141" r="52.5" fill="white"/>
</g>
<g clip-path="url(#clip1_4896_3205)">
<path d="M179.64 69.3613C184.983 69.3613 190.004 71.4407 193.782 75.2187C197.56 78.9969 199.64 84.0183 199.64 89.3613C199.64 94.7044 197.56 99.7258 193.782 103.504C190.004 107.282 184.983 109.361 179.64 109.361C174.297 109.361 169.275 107.282 165.497 103.504C161.719 99.7258 159.64 94.7044 159.64 89.3613C159.64 84.0183 161.719 78.9969 165.497 75.2187C169.275 71.4406 174.297 69.3613 179.64 69.3613ZM179.64 92.4072C173.457 92.4072 168.228 97.1026 167.52 103.188L167.488 103.463L167.701 103.64C170.935 106.349 175.1 107.983 179.64 107.983C184.18 107.983 188.346 106.349 191.58 103.64L191.791 103.463L191.759 103.187C191.443 100.471 190.215 97.9282 188.268 95.9809C185.964 93.6771 182.897 92.4072 179.64 92.4072ZM179.64 70.7395C169.371 70.7395 161.018 79.0928 161.018 89.3613C161.018 94.0179 162.737 98.281 165.571 101.549L166.219 102.296L166.457 101.336C167.084 98.7984 168.437 96.485 170.386 94.6698C171.732 93.4161 173.295 92.464 174.984 91.8483L175.927 91.5048L175.096 90.9419C172.937 89.4791 171.519 87.0079 171.519 84.2131C171.519 79.7357 175.162 76.0921 179.64 76.0921C184.117 76.0921 187.76 79.7357 187.761 84.2131C187.761 87.0064 186.343 89.4769 184.186 90.9399L183.356 91.5028L184.298 91.8453C186.134 92.5141 187.817 93.5818 189.242 95.0064C190.988 96.7523 192.227 98.9418 192.822 101.338L193.059 102.297L193.706 101.551C196.542 98.2829 198.261 94.0189 198.261 89.3613C198.261 79.0928 189.908 70.7395 179.64 70.7395ZM179.64 77.4703C175.921 77.4703 172.897 80.4945 172.897 84.2131C172.897 87.7589 175.647 90.6719 179.127 90.9348V90.9569H179.64C183.358 90.9569 186.382 87.9315 186.382 84.2131C186.382 80.4945 183.358 77.4703 179.64 77.4703Z" fill="#232F6F"/>
</g>
<g clip-path="url(#clip2_4896_3205)">
<path d="M180 292C185.343 292 190.364 294.079 194.143 297.857C197.921 301.636 200 306.657 200 312C200 317.343 197.921 322.364 194.143 326.143C190.364 329.921 185.343 332 180 332C174.657 332 169.636 329.921 165.857 326.143C162.079 322.364 160 317.343 160 312C160 306.657 162.079 301.636 165.857 297.857C169.636 294.079 174.657 292 180 292ZM180 315.046C173.817 315.046 168.588 319.741 167.881 325.827L167.849 326.102L168.061 326.279C171.295 328.987 175.46 330.622 180 330.622C184.54 330.622 188.706 328.988 191.94 326.279L192.151 326.102L192.119 325.826C191.803 323.11 190.576 320.567 188.629 318.62C186.325 316.316 183.258 315.046 180 315.046ZM180 293.378C169.731 293.378 161.378 301.731 161.378 312C161.378 316.657 163.097 320.92 165.931 324.188L166.58 324.935L166.817 323.975C167.444 321.437 168.797 319.124 170.746 317.308C172.092 316.055 173.655 315.103 175.345 314.487L176.287 314.143L175.457 313.581C173.298 312.118 171.879 309.647 171.879 306.852C171.879 302.374 175.523 298.731 180 298.731C184.477 298.731 188.121 302.374 188.121 306.852C188.121 309.645 186.704 312.116 184.546 313.579L183.716 314.141L184.658 314.484C186.494 315.153 188.178 316.221 189.602 317.645C191.349 319.391 192.587 321.58 193.182 323.977L193.419 324.936L194.067 324.19C196.902 320.922 198.622 316.658 198.622 312C198.622 301.731 190.269 293.378 180 293.378ZM180 300.109C176.282 300.109 173.257 303.133 173.257 306.852C173.257 310.398 176.008 313.311 179.487 313.574V313.596H180C183.718 313.596 186.743 310.57 186.743 306.852C186.743 303.133 183.718 300.109 180 300.109Z" fill="#232F6F"/>
</g>
<g clip-path="url(#clip3_4896_3205)">
<path d="M125 101C130.343 101 135.364 103.079 139.143 106.857C142.921 110.636 145 115.657 145 121C145 126.343 142.921 131.364 139.143 135.143C135.364 138.921 130.343 141 125 141C119.657 141 114.636 138.921 110.857 135.143C107.079 131.364 105 126.343 105 121C105 115.657 107.079 110.636 110.857 106.857C114.636 103.079 119.657 101 125 101ZM125 124.046C118.817 124.046 113.588 128.741 112.881 134.827L112.849 135.102L113.061 135.279C116.295 137.987 120.46 139.622 125 139.622C129.54 139.622 133.706 137.988 136.94 135.279L137.151 135.102L137.119 134.826C136.803 132.11 135.576 129.567 133.629 127.62C131.325 125.316 128.258 124.046 125 124.046ZM125 102.378C114.731 102.378 106.378 110.731 106.378 121C106.378 125.657 108.097 129.92 110.931 133.188L111.58 133.935L111.817 132.975C112.444 130.437 113.797 128.124 115.746 126.308C117.092 125.055 118.655 124.103 120.345 123.487L121.287 123.143L120.457 122.581C118.298 121.118 116.879 118.647 116.879 115.852C116.879 111.374 120.523 107.731 125 107.731C129.477 107.731 133.121 111.374 133.121 115.852C133.121 118.645 131.704 121.116 129.546 122.579L128.716 123.141L129.658 123.484C131.494 124.153 133.178 125.221 134.602 126.645C136.349 128.391 137.587 130.58 138.182 132.977L138.419 133.936L139.067 133.19C141.902 129.922 143.622 125.658 143.622 121C143.622 110.731 135.269 102.378 125 102.378ZM125 109.109C121.282 109.109 118.257 112.133 118.257 115.852C118.257 119.398 121.008 122.311 124.487 122.574V122.596H125C128.718 122.596 131.743 119.57 131.743 115.852C131.743 112.133 128.718 109.109 125 109.109Z" fill="#232F6F"/>
</g>
<g clip-path="url(#clip4_4896_3205)">
<path d="M125 261C130.343 261 135.364 263.079 139.143 266.857C142.921 270.636 145 275.657 145 281C145 286.343 142.921 291.364 139.143 295.143C135.364 298.921 130.343 301 125 301C119.657 301 114.636 298.921 110.857 295.143C107.079 291.364 105 286.343 105 281C105 275.657 107.079 270.636 110.857 266.857C114.636 263.079 119.657 261 125 261ZM125 284.046C118.817 284.046 113.588 288.741 112.881 294.827L112.849 295.102L113.061 295.279C116.295 297.987 120.46 299.622 125 299.622C129.54 299.622 133.706 297.988 136.94 295.279L137.151 295.102L137.119 294.826C136.803 292.11 135.576 289.567 133.629 287.62C131.325 285.316 128.258 284.046 125 284.046ZM125 262.378C114.731 262.378 106.378 270.731 106.378 281C106.378 285.657 108.097 289.92 110.931 293.188L111.58 293.935L111.817 292.975C112.444 290.437 113.797 288.124 115.746 286.308C117.092 285.055 118.655 284.103 120.345 283.487L121.287 283.143L120.457 282.581C118.298 281.118 116.879 278.647 116.879 275.852C116.879 271.374 120.523 267.731 125 267.731C129.477 267.731 133.121 271.374 133.121 275.852C133.121 278.645 131.704 281.116 129.546 282.579L128.716 283.141L129.658 283.484C131.494 284.153 133.178 285.221 134.602 286.645C136.349 288.391 137.587 290.58 138.182 292.977L138.419 293.936L139.067 293.19C141.902 289.922 143.622 285.658 143.622 281C143.622 270.731 135.269 262.378 125 262.378ZM125 269.109C121.282 269.109 118.257 272.133 118.257 275.852C118.257 279.398 121.008 282.311 124.487 282.574V282.596H125C128.718 282.596 131.743 279.57 131.743 275.852C131.743 272.133 128.718 269.109 125 269.109Z" fill="#232F6F"/>
</g>
<g clip-path="url(#clip5_4896_3205)">
<path d="M85 211C90.3431 211 95.3644 213.079 99.1426 216.857C102.921 220.636 105 225.657 105 231C105 236.343 102.921 241.364 99.1426 245.143C95.3644 248.921 90.3431 251 85 251C79.6569 251 74.6356 248.921 70.8574 245.143C67.0793 241.364 65 236.343 65 231C65 225.657 67.0793 220.636 70.8574 216.857C74.6356 213.079 79.6569 211 85 211ZM85 234.046C78.8169 234.046 73.588 238.741 72.8806 244.827L72.8486 245.102L73.0609 245.279C76.2951 247.987 80.4602 249.622 85 249.622C89.5399 249.622 93.706 247.988 96.9401 245.279L97.1514 245.102L97.1194 244.826C96.8033 242.11 95.5757 239.567 93.6288 237.62C91.3245 235.316 88.2577 234.046 85 234.046ZM85 212.378C74.7314 212.378 66.3782 220.731 66.3782 231C66.3782 235.657 68.0969 239.92 70.9315 243.188L71.5795 243.935L71.8169 242.975C72.444 240.437 73.7971 238.124 75.7462 236.308C77.092 235.055 78.6552 234.103 80.3446 233.487L81.2871 233.143L80.4567 232.581C78.2977 231.118 76.879 228.647 76.879 225.852C76.8792 221.374 80.5226 217.731 85 217.731C89.4774 217.731 93.1208 221.374 93.121 225.852C93.121 228.645 91.7036 231.116 89.5463 232.579L88.7159 233.141L89.6585 233.484C91.4939 234.153 93.1778 235.221 94.6024 236.645C96.3488 238.391 97.5869 240.58 98.1821 242.977L98.4195 243.936L99.0665 243.19C101.902 239.922 103.622 235.658 103.622 231C103.622 220.731 95.2686 212.378 85 212.378ZM85 219.109C81.2818 219.109 78.2574 222.133 78.2572 225.852C78.2572 229.398 81.0075 232.311 84.4872 232.574V232.596H85C88.7184 232.596 91.7428 229.57 91.7428 225.852C91.7426 222.133 88.7182 219.109 85 219.109Z" fill="#232F6F"/>
</g>
<g clip-path="url(#clip6_4896_3205)">
<path d="M125 46C129.274 46 133.292 47.6635 136.314 50.6859C139.337 53.7084 141 57.7255 141 62C141 66.2745 139.337 70.2915 136.314 73.3141C133.292 76.3366 129.274 78 125 78C120.726 78 116.708 76.3365 113.686 73.3141C110.663 70.2916 109 66.2745 109 62C109 57.7255 110.663 53.7085 113.686 50.6859C116.708 47.6634 120.726 46 125 46ZM125 64.4367C120.054 64.4367 115.87 68.193 115.304 73.0617L115.279 73.2813L115.449 73.4231C118.036 75.59 121.368 76.8974 125 76.8974C128.632 76.8974 131.965 75.59 134.552 73.4231L134.721 73.2813L134.696 73.0609C134.443 70.888 133.461 68.8535 131.903 67.2957C130.06 65.4526 127.606 64.4367 125 64.4367ZM125 47.1026C116.785 47.1026 110.103 53.7852 110.103 62C110.103 65.7253 111.478 69.1357 113.745 71.75L114.264 72.3478L114.454 71.5801C114.955 69.5496 116.038 67.6989 117.597 66.2468C118.674 65.2438 119.924 64.4821 121.276 63.9896L122.03 63.7147L121.365 63.2644C119.638 62.0942 118.503 60.1172 118.503 57.8814C118.503 54.2995 121.418 51.3846 125 51.3846C128.582 51.3846 131.497 54.2995 131.497 57.8814C131.497 60.116 130.363 62.0924 128.637 63.2628L127.973 63.7131L128.727 63.9872C130.195 64.5222 131.542 65.3764 132.682 66.516C134.079 67.9128 135.07 69.6644 135.546 71.5817L135.736 72.3486L136.253 71.7516C138.522 69.1373 139.897 65.7261 139.897 62C139.897 53.7852 133.215 47.1026 125 47.1026ZM125 52.4872C122.025 52.4872 119.606 54.9065 119.606 57.8814C119.606 60.7181 121.806 63.0485 124.59 63.2588V63.2764H125C127.975 63.2764 130.394 60.8561 130.394 57.8814C130.394 54.9065 127.975 52.4872 125 52.4872Z" fill="#232F6F"/>
</g>
<g clip-path="url(#clip7_4896_3205)">
<path d="M125 322C129.274 322 133.292 323.663 136.314 326.686C139.337 329.708 141 333.726 141 338C141 342.274 139.337 346.292 136.314 349.314C133.292 352.337 129.274 354 125 354C120.726 354 116.708 352.337 113.686 349.314C110.663 346.292 109 342.274 109 338C109 333.726 110.663 329.708 113.686 326.686C116.708 323.663 120.726 322 125 322ZM125 340.437C120.054 340.437 115.87 344.193 115.304 349.062L115.279 349.281L115.449 349.423C118.036 351.59 121.368 352.897 125 352.897C128.632 352.897 131.965 351.59 134.552 349.423L134.721 349.281L134.696 349.061C134.443 346.888 133.461 344.853 131.903 343.296C130.06 341.453 127.606 340.437 125 340.437ZM125 323.103C116.785 323.103 110.103 329.785 110.103 338C110.103 341.725 111.478 345.136 113.745 347.75L114.264 348.348L114.454 347.58C114.955 345.55 116.038 343.699 117.597 342.247C118.674 341.244 119.924 340.482 121.276 339.99L122.03 339.715L121.365 339.264C119.638 338.094 118.503 336.117 118.503 333.881C118.503 330.3 121.418 327.385 125 327.385C128.582 327.385 131.497 330.3 131.497 333.881C131.497 336.116 130.363 338.092 128.637 339.263L127.973 339.713L128.727 339.987C130.195 340.522 131.542 341.376 132.682 342.516C134.079 343.913 135.07 345.664 135.546 347.582L135.736 348.349L136.253 347.752C138.522 345.137 139.897 341.726 139.897 338C139.897 329.785 133.215 323.103 125 323.103ZM125 328.487C122.025 328.487 119.606 330.907 119.606 333.881C119.606 336.718 121.806 339.048 124.59 339.259V339.276H125C127.975 339.276 130.394 336.856 130.394 333.881C130.394 330.907 127.975 328.487 125 328.487Z" fill="#232F6F"/>
</g>
<g clip-path="url(#clip8_4896_3205)">
<path d="M60 105C64.2745 105 68.2915 106.663 71.3141 109.686C74.3366 112.708 76 116.726 76 121C76 125.274 74.3365 129.292 71.3141 132.314C68.2916 135.337 64.2745 137 60 137C55.7255 137 51.7085 135.337 48.6859 132.314C45.6634 129.292 44 125.274 44 121C44 116.726 45.6635 112.708 48.6859 109.686C51.7084 106.663 55.7255 105 60 105ZM60 123.437C55.0535 123.437 50.8704 127.193 50.3045 132.062L50.2788 132.281L50.4487 132.423C53.0361 134.59 56.3681 135.897 60 135.897C63.6319 135.897 66.9648 134.59 69.5521 132.423L69.7212 132.281L69.6955 132.061C69.4427 129.888 68.4605 127.853 66.903 126.296C65.0596 124.453 62.6061 123.437 60 123.437ZM60 106.103C51.7852 106.103 45.1026 112.785 45.1026 121C45.1026 124.725 46.4775 128.136 48.7452 130.75L49.2636 131.348L49.4535 130.58C49.9552 128.55 51.0376 126.699 52.597 125.247C53.6736 124.244 54.9242 123.482 56.2756 122.99L57.0296 122.715L56.3654 122.264C54.6382 121.094 53.5032 119.117 53.5032 116.881C53.5033 113.3 56.4181 110.385 60 110.385C63.5819 110.385 66.4967 113.3 66.4968 116.881C66.4968 119.116 65.3628 121.092 63.637 122.263L62.9728 122.713L63.7268 122.987C65.1951 123.522 66.5422 124.376 67.6819 125.516C69.079 126.913 70.0695 128.664 70.5457 130.582L70.7356 131.349L71.2532 130.752C73.5217 128.137 74.8974 124.726 74.8974 121C74.8974 112.785 68.2148 106.103 60 106.103ZM60 111.487C57.0254 111.487 54.6059 113.907 54.6058 116.881C54.6058 119.718 56.806 122.048 59.5897 122.259V122.276H60C62.9747 122.276 65.3942 119.856 65.3942 116.881C65.3941 113.907 62.9746 111.487 60 111.487Z" fill="#232F6F"/>
</g>
<g clip-path="url(#clip9_4896_3205)">
<path d="M60 260C64.2745 260 68.2915 261.663 71.3141 264.686C74.3366 267.708 76 271.726 76 276C76 280.274 74.3365 284.292 71.3141 287.314C68.2916 290.337 64.2745 292 60 292C55.7255 292 51.7085 290.337 48.6859 287.314C45.6634 284.292 44 280.274 44 276C44 271.726 45.6635 267.708 48.6859 264.686C51.7084 261.663 55.7255 260 60 260ZM60 278.437C55.0535 278.437 50.8704 282.193 50.3045 287.062L50.2788 287.281L50.4487 287.423C53.0361 289.59 56.3681 290.897 60 290.897C63.6319 290.897 66.9648 289.59 69.5521 287.423L69.7212 287.281L69.6955 287.061C69.4427 284.888 68.4605 282.853 66.903 281.296C65.0596 279.453 62.6061 278.437 60 278.437ZM60 261.103C51.7852 261.103 45.1026 267.785 45.1026 276C45.1026 279.725 46.4775 283.136 48.7452 285.75L49.2636 286.348L49.4535 285.58C49.9552 283.55 51.0376 281.699 52.597 280.247C53.6736 279.244 54.9242 278.482 56.2756 277.99L57.0296 277.715L56.3654 277.264C54.6382 276.094 53.5032 274.117 53.5032 271.881C53.5033 268.3 56.4181 265.385 60 265.385C63.5819 265.385 66.4967 268.3 66.4968 271.881C66.4968 274.116 65.3628 276.092 63.637 277.263L62.9728 277.713L63.7268 277.987C65.1951 278.522 66.5422 279.376 67.6819 280.516C69.079 281.913 70.0695 283.664 70.5457 285.582L70.7356 286.349L71.2532 285.752C73.5217 283.137 74.8974 279.726 74.8974 276C74.8974 267.785 68.2148 261.103 60 261.103ZM60 266.487C57.0254 266.487 54.6059 268.907 54.6058 271.881C54.6058 274.718 56.806 277.048 59.5897 277.259V277.276H60C62.9747 277.276 65.3942 274.856 65.3942 271.881C65.3941 268.907 62.9746 266.487 60 266.487Z" fill="#232F6F"/>
</g>
<g clip-path="url(#clip10_4896_3205)">
<path d="M31 181C35.2745 181 39.2915 182.663 42.3141 185.686C45.3366 188.708 47 192.726 47 197C47 201.274 45.3365 205.292 42.3141 208.314C39.2916 211.337 35.2745 213 31 213C26.7255 213 22.7085 211.337 19.6859 208.314C16.6634 205.292 15 201.274 15 197C15 192.726 16.6635 188.708 19.6859 185.686C22.7084 182.663 26.7255 181 31 181ZM31 199.437C26.0535 199.437 21.8704 203.193 21.3045 208.062L21.2788 208.281L21.4487 208.423C24.0361 210.59 27.3681 211.897 31 211.897C34.6319 211.897 37.9648 210.59 40.5521 208.423L40.7212 208.281L40.6955 208.061C40.4427 205.888 39.4605 203.853 37.903 202.296C36.0596 200.453 33.6061 199.437 31 199.437ZM31 182.103C22.7852 182.103 16.1026 188.785 16.1026 197C16.1026 200.725 17.4775 204.136 19.7452 206.75L20.2636 207.348L20.4535 206.58C20.9552 204.55 22.0376 202.699 23.597 201.247C24.6736 200.244 25.9242 199.482 27.2756 198.99L28.0296 198.715L27.3654 198.264C25.6382 197.094 24.5032 195.117 24.5032 192.881C24.5033 189.3 27.4181 186.385 31 186.385C34.5819 186.385 37.4967 189.3 37.4968 192.881C37.4968 195.116 36.3628 197.092 34.637 198.263L33.9728 198.713L34.7268 198.987C36.1951 199.522 37.5422 200.376 38.6819 201.516C40.079 202.913 41.0695 204.664 41.5457 206.582L41.7356 207.349L42.2532 206.752C44.5217 204.137 45.8974 200.726 45.8974 197C45.8974 188.785 39.2148 182.103 31 182.103ZM31 187.487C28.0254 187.487 25.6059 189.907 25.6058 192.881C25.6058 195.718 27.806 198.048 30.5897 198.259V198.276H31C33.9747 198.276 36.3942 195.856 36.3942 192.881C36.3941 189.907 33.9746 187.487 31 187.487Z" fill="#232F6F"/>
</g>
<path d="M376.718 198.422L390.652 174.917C391.912 172.79 394.201 171.486 396.673 171.486H421.328C423.8 171.486 426.089 172.79 427.349 174.917L441.283 198.422C442.577 200.605 442.588 203.318 441.312 205.512L427.34 229.526C426.087 231.68 423.782 233.006 421.29 233.006H396.711C394.219 233.006 391.914 231.68 390.661 229.526L376.689 205.512C375.413 203.318 375.424 200.605 376.718 198.422Z" fill="url(#paint3_linear_4896_3205)"/>
<path d="M405.382 182.344H397.42L385.478 201.382L397.42 222.15H405.382L393.44 201.382L405.382 182.344Z" fill="#131313"/>
<path d="M412.619 182.344H420.581L432.523 201.382L420.581 222.15H412.619L424.561 201.382L412.619 182.344Z" fill="#131313"/>
<g opacity="0.2" filter="url(#filter0_f_4896_3205)">
<circle cx="409" cy="203" r="52.5" stroke="#3FA1E3"/>
</g>
<g opacity="0.5" filter="url(#filter1_f_4896_3205)">
<path d="M367.131 199.075L386.081 167.406C387.345 165.293 389.626 164 392.087 164H425.913C428.374 164 430.655 165.293 431.919 167.406L450.869 199.075C452.183 201.27 452.194 204.008 450.898 206.214L431.911 238.545C430.653 240.685 428.357 242 425.874 242H392.126C389.643 242 387.347 240.685 386.089 238.545L367.102 206.214C365.806 204.008 365.817 201.27 367.131 199.075Z" stroke="#3FA1E3"/>
</g>
<path opacity="0.5" d="M297 201L360.5 201" stroke="#3FA1E3" stroke-linecap="round" stroke-linejoin="round" stroke-dasharray="1 3"/>
<path opacity="0.5" d="M189.5 112L207 145.5" stroke="#3FA1E3" stroke-linecap="round" stroke-linejoin="round" stroke-dasharray="1 3"/>
<path opacity="0.5" d="M189.5 288L207 254.5" stroke="#3FA1E3" stroke-linecap="round" stroke-linejoin="round" stroke-dasharray="1 3"/>
<path opacity="0.5" d="M143.5 135.5L185 163" stroke="#3FA1E3" stroke-linecap="round" stroke-linejoin="round" stroke-dasharray="1 3"/>
<path opacity="0.5" d="M143.5 264.5L185 237" stroke="#3FA1E3" stroke-linecap="round" stroke-linejoin="round" stroke-dasharray="1 3"/>
<path opacity="0.5" d="M78 132.5L184 174" stroke="#3FA1E3" stroke-linecap="round" stroke-linejoin="round" stroke-dasharray="1 3"/>
<path opacity="0.5" d="M78 267.5L184 226" stroke="#3FA1E3" stroke-linecap="round" stroke-linejoin="round" stroke-dasharray="1 3"/>
<path opacity="0.5" d="M107 174L184.5 185" stroke="#3FA1E3" stroke-linecap="round" stroke-linejoin="round" stroke-dasharray="1 3"/>
<path opacity="0.5" d="M107 226L184.5 215" stroke="#3FA1E3" stroke-linecap="round" stroke-linejoin="round" stroke-dasharray="1 3"/>
<path opacity="0.5" d="M52.5 198L185 199.5" stroke="#3FA1E3" stroke-linecap="round" stroke-linejoin="round" stroke-dasharray="1 3"/>
<path opacity="0.5" d="M136 79L189.5 148.5" stroke="#3FA1E3" stroke-linecap="round" stroke-linejoin="round" stroke-dasharray="1 3"/>
<path opacity="0.5" d="M136 321L189.5 251.5" stroke="#3FA1E3" stroke-linecap="round" stroke-linejoin="round" stroke-dasharray="1 3"/>
<circle cx="284" cy="152" r="24.5" fill="url(#paint4_linear_4896_3205)" stroke="#131313" stroke-width="3"/>
<path d="M282.27 140.731C285.578 137.423 290.96 137.423 294.269 140.731C297.474 143.937 297.574 149.087 294.569 152.414L294.269 152.731C292.113 154.888 289.041 155.644 286.154 154.873L284.665 156.344C284.393 156.614 284.026 156.766 283.642 156.766H283.106V157.325L283.098 157.479C283.081 157.63 283.041 157.779 282.979 157.919C282.895 158.106 282.773 158.273 282.62 158.409L282.618 158.411C282.32 158.675 281.911 158.821 281.485 158.768L281.178 158.732L281.11 159.449C281.079 159.786 280.931 160.102 280.691 160.341C280.452 160.58 280.137 160.727 279.8 160.759L279.082 160.827L279.118 161.135C279.143 161.352 279.12 161.573 279.048 161.779C278.976 161.986 278.858 162.174 278.703 162.329L277.708 163.324C277.436 163.596 277.067 163.75 276.681 163.75H272.703C271.9 163.75 271.25 163.1 271.25 162.297V158.319C271.25 158.128 271.287 157.939 271.36 157.763L271.422 157.634C271.489 157.508 271.575 157.392 271.676 157.291L280.072 148.894C279.307 145.996 280.12 142.881 282.27 140.731ZM293.208 141.792C290.485 139.069 286.053 139.069 283.33 141.792C281.471 143.651 280.824 146.393 281.63 148.881L281.771 149.317L281.446 149.642L272.75 158.338V162.25H276.661L277.625 161.284L277.417 159.478L279.62 159.27L279.757 157.828L279.828 157.065L280.59 157.154L281.606 157.272V155.266H283.621L285.739 153.177L286.173 153.316C288.668 154.125 291.355 153.524 293.208 151.67C295.931 148.947 295.931 144.515 293.208 141.792ZM288.236 142.721C289.352 141.605 291.164 141.605 292.279 142.721C293.395 143.836 293.395 145.648 292.279 146.764C291.164 147.879 289.352 147.879 288.236 146.764C287.121 145.648 287.121 143.836 288.236 142.721ZM291.219 143.781C290.689 143.252 289.827 143.252 289.297 143.781C288.767 144.311 288.767 145.173 289.297 145.703C289.827 146.233 290.689 146.233 291.219 145.703C291.748 145.173 291.748 144.311 291.219 143.781Z" fill="#131313"/>
<defs>
<filter id="filter0_f_4896_3205" x="352" y="146" width="114" height="114" filterUnits="userSpaceOnUse" color-interpolation-filters="sRGB">
<feFlood flood-opacity="0" result="BackgroundImageFix"/>
<feBlend mode="normal" in="SourceGraphic" in2="BackgroundImageFix" result="shape"/>
<feGaussianBlur stdDeviation="2" result="effect1_foregroundBlur_4896_3205"/>
</filter>
<filter id="filter1_f_4896_3205" x="361.638" y="159.5" width="94.725" height="87" filterUnits="userSpaceOnUse" color-interpolation-filters="sRGB">
<feFlood flood-opacity="0" result="BackgroundImageFix"/>
<feBlend mode="normal" in="SourceGraphic" in2="BackgroundImageFix" result="shape"/>
<feGaussianBlur stdDeviation="2" result="effect1_foregroundBlur_4896_3205"/>
</filter>
<linearGradient id="paint0_linear_4896_3205" x1="240" y1="179.297" x2="240" y2="150" gradientUnits="userSpaceOnUse">
<stop stop-color="#3FA1E3"/>
<stop offset="1" stop-color="#3FA1E3" stop-opacity="0.35"/>
</linearGradient>
<linearGradient id="paint1_linear_4896_3205" x1="240" y1="214.65" x2="240" y2="185.353" gradientUnits="userSpaceOnUse">
<stop stop-color="#3FA1E3"/>
<stop offset="1" stop-color="#3FA1E3" stop-opacity="0.35"/>
</linearGradient>
<linearGradient id="paint2_linear_4896_3205" x1="240" y1="250.525" x2="240" y2="221.228" gradientUnits="userSpaceOnUse">
<stop stop-color="#3FA1E3"/>
<stop offset="1" stop-color="#3FA1E3" stop-opacity="0.35"/>
</linearGradient>
<linearGradient id="paint3_linear_4896_3205" x1="409.001" y1="171.486" x2="409.001" y2="233.006" gradientUnits="userSpaceOnUse">
<stop stop-color="#3FA1E3" stop-opacity="0.35"/>
<stop offset="0.605793" stop-color="#3FA1E3"/>
</linearGradient>
<linearGradient id="paint4_linear_4896_3205" x1="284" y1="129" x2="284" y2="175" gradientUnits="userSpaceOnUse">
<stop stop-color="#3FA1E3" stop-opacity="0.35"/>
<stop offset="0.605793" stop-color="#3FA1E3"/>
</linearGradient>
<clipPath id="clip0_4896_3205">
<rect width="40" height="40" fill="white" transform="translate(65 149)"/>
</clipPath>
<clipPath id="clip1_4896_3205">
<rect width="40" height="40" fill="white" transform="translate(159.64 69.3613)"/>
</clipPath>
<clipPath id="clip2_4896_3205">
<rect width="40" height="40" fill="white" transform="translate(160 292)"/>
</clipPath>
<clipPath id="clip3_4896_3205">
<rect width="40" height="40" fill="white" transform="translate(105 101)"/>
</clipPath>
<clipPath id="clip4_4896_3205">
<rect width="40" height="40" fill="white" transform="translate(105 261)"/>
</clipPath>
<clipPath id="clip5_4896_3205">
<rect width="40" height="40" fill="white" transform="translate(65 211)"/>
</clipPath>
<clipPath id="clip6_4896_3205">
<rect width="32" height="32" fill="white" transform="translate(109 46)"/>
</clipPath>
<clipPath id="clip7_4896_3205">
<rect width="32" height="32" fill="white" transform="translate(109 322)"/>
</clipPath>
<clipPath id="clip8_4896_3205">
<rect width="32" height="32" fill="white" transform="translate(44 105)"/>
</clipPath>
<clipPath id="clip9_4896_3205">
<rect width="32" height="32" fill="white" transform="translate(44 260)"/>
</clipPath>
<clipPath id="clip10_4896_3205">
<rect width="32" height="32" fill="white" transform="translate(15 181)"/>
</clipPath>
</defs>
</svg>
