<svg width="93" height="32" viewBox="0 0 93 32" fill="currentColor" xmlns="http://www.w3.org/2000/svg">
  <g clip-path="url(#clip0_657_201298)">
    <path
      d="M26.791 11.2607C24.0726 9.54874 20.277 8.48523 16.1224 8.48523C7.76201 8.48523 0.991592 12.7133 0.991592 17.9271C0.991592 22.7 6.63361 26.6168 13.9426 27.2912V24.5416C9.01864 23.9191 5.32568 21.1955 5.32568 17.9271C5.32568 14.2178 10.147 11.1829 16.1224 11.1829C19.0973 11.1829 21.7901 11.9352 23.7392 13.1543L20.9694 14.8922H29.612V9.49686L26.791 11.2607Z"
      fill="#535B64" />
    <path d="M13.9426 3.81615V24.5416V27.2912L18.2767 24.5416V0.98877L13.9426 3.81615Z" fill="#535B64" />
    <path
      d="M32.6709 16.4459C32.9448 15.4762 33.3899 14.6451 33.9719 13.9179C34.5882 13.1906 35.3072 12.6019 36.1974 12.1864C37.0876 11.7362 38.1148 11.5284 39.2789 11.5284C40.4772 11.5284 41.5043 11.7362 42.3945 12.1864C43.2505 12.6019 44.0037 13.1906 44.5858 13.9179C45.1678 14.6451 45.6129 15.4762 45.8868 16.4459C46.195 17.3809 46.3319 18.3852 46.3319 19.4241C46.3319 20.463 46.195 21.4673 45.8868 22.437C45.6129 23.372 45.1678 24.2031 44.5858 24.9304C44.0037 25.6576 43.2505 26.2463 42.3945 26.6619C41.5043 27.1121 40.4772 27.3198 39.2789 27.3198C38.1148 27.3198 37.0876 27.1121 36.1974 26.6619C35.3072 26.2463 34.5882 25.6576 33.9719 24.9304C33.3899 24.2031 32.9448 23.372 32.6709 22.437C32.3627 21.4673 32.2258 20.463 32.2258 19.4241C32.2258 18.3852 32.3627 17.3809 32.6709 16.4459ZM33.9719 21.8829C34.1774 22.6794 34.5197 23.372 34.9991 24.03C35.4442 24.6533 36.0262 25.1381 36.7452 25.5537C37.4642 25.9346 38.286 26.1078 39.2789 26.1078C40.2718 26.1078 41.1277 25.9346 41.8467 25.5537C42.5657 25.1381 43.1135 24.6533 43.5929 24.03C44.038 23.372 44.3804 22.6794 44.5858 21.8829C44.7912 21.0864 44.9282 20.2552 44.9282 19.4241C44.9282 18.593 44.7912 17.7965 44.5858 17C44.3804 16.2035 44.038 15.4762 43.5929 14.8529C43.1135 14.2296 42.5657 13.7101 41.8467 13.3292C41.1277 12.9482 40.2718 12.7751 39.2789 12.7751C38.286 12.7751 37.4642 12.9482 36.7452 13.3292C36.0262 13.7101 35.4442 14.2296 34.9991 14.8529C34.5197 15.4762 34.1774 16.2035 33.9719 17C33.7665 17.7965 33.6638 18.593 33.6638 19.4241C33.6638 20.2552 33.7665 21.0864 33.9719 21.8829Z"
      fill="#535B64" />
    <path
      d="M48.4547 16.0649V18.1428H48.4889C48.7971 17.3809 49.3107 16.7922 49.9954 16.3766C50.6802 15.961 51.4677 15.7533 52.3579 15.7533C53.1796 15.7533 53.8986 15.8918 54.5149 16.2035C55.1312 16.5151 55.6447 16.9307 56.0556 17.4848C56.4322 18.0042 56.7403 18.6276 56.9458 19.3202C57.1512 20.0128 57.2539 20.7747 57.2539 21.5365C57.2539 22.333 57.1512 23.0603 56.9458 23.7529C56.7403 24.4455 56.4322 25.0688 56.0556 25.5883C55.6447 26.1424 55.1312 26.558 54.5149 26.8696C53.8986 27.1467 53.1796 27.3198 52.3579 27.3198C51.947 27.3198 51.5704 27.2506 51.1595 27.1813C50.7829 27.0774 50.4063 26.9043 50.0981 26.7311C49.7558 26.5233 49.4476 26.2809 49.1737 25.9692C48.934 25.6922 48.7286 25.3459 48.5917 24.9303H48.5574V31.0253H47.2221V16.0649H48.4547ZM55.7132 19.8743C55.5762 19.2856 55.3708 18.8007 55.0969 18.3505C54.7888 17.935 54.4121 17.554 53.9671 17.277C53.522 17 53.0084 16.8961 52.3579 16.8961C51.6389 16.8961 51.0226 17 50.5432 17.277C50.0297 17.5194 49.653 17.8657 49.3449 18.2813C49.071 18.6969 48.8656 19.2163 48.7286 19.7704C48.6259 20.3245 48.5574 20.9132 48.5574 21.5365C48.5574 22.1253 48.6259 22.6793 48.7628 23.2334C48.8998 23.7875 49.1052 24.307 49.4134 24.7225C49.7215 25.1727 50.0981 25.519 50.5775 25.7961C51.0568 26.0731 51.6731 26.2116 52.3579 26.2116C53.0084 26.2116 53.522 26.0731 53.9671 25.7961C54.4121 25.519 54.7888 25.1727 55.0969 24.7225C55.3708 24.307 55.5762 23.7875 55.7132 23.2334C55.8502 22.6793 55.9186 22.1253 55.9186 21.5365C55.9186 20.9825 55.8502 20.4284 55.7132 19.8743Z"
      fill="#535B64" />
    <path
      d="M59.4794 23.4066C59.6164 23.926 59.8218 24.3762 60.1299 24.7918C60.4038 25.2074 60.7805 25.5537 61.2255 25.7961C61.6706 26.0731 62.2185 26.2116 62.8347 26.2116C63.7934 26.2116 64.5467 25.9692 65.0945 25.4498C65.6423 24.9303 66.0189 24.2723 66.2243 23.4066H67.5596C67.2857 24.6533 66.7721 25.6229 66.0189 26.2809C65.2657 26.9735 64.2043 27.3198 62.8347 27.3198C61.9788 27.3198 61.2598 27.1467 60.6435 26.8696C59.993 26.558 59.5136 26.1424 59.1028 25.5883C58.7262 25.0688 58.418 24.4455 58.2468 23.7529C58.0414 23.0603 57.9729 22.333 57.9729 21.5365C57.9729 20.8093 58.0414 20.1167 58.2468 19.4241C58.418 18.7315 58.7262 18.1081 59.1028 17.554C59.5136 17 59.993 16.5844 60.6435 16.2381C61.2598 15.9264 61.9788 15.7533 62.8347 15.7533C63.6907 15.7533 64.4439 15.9264 65.0602 16.2727C65.6765 16.619 66.1901 17.1039 66.5667 17.6579C66.9433 18.2467 67.2172 18.9046 67.3884 19.6319C67.5596 20.3591 67.6281 21.121 67.5939 21.8828H59.274C59.274 22.3677 59.3424 22.8871 59.4794 23.4066ZM66.0189 19.3202C65.8477 18.8354 65.608 18.4198 65.3341 18.0735C65.026 17.7272 64.6836 17.4155 64.2728 17.2077C63.8277 17 63.3826 16.8961 62.8347 16.8961C62.2869 16.8961 61.8076 17 61.3967 17.2077C60.9859 17.4155 60.6093 17.7272 60.3354 18.0735C60.0272 18.4198 59.7875 18.8354 59.6164 19.3202C59.4452 19.7704 59.3424 20.2552 59.274 20.7747H66.2586C66.2586 20.2552 66.1559 19.7704 66.0189 19.3202Z"
      fill="#535B64" />
    <path
      d="M69.5797 16.0649V17.935H69.6139C69.8878 17.277 70.3329 16.7575 70.9834 16.342C71.5997 15.961 72.3187 15.7533 73.1062 15.7533C73.8595 15.7533 74.4757 15.8572 74.9893 16.0303C75.5029 16.2381 75.9138 16.5151 76.2219 16.8961C76.53 17.2424 76.7355 17.6926 76.8724 18.212C77.0094 18.7315 77.0436 19.3202 77.0436 19.9782V27.0081H75.7426V20.186C75.7426 19.7011 75.7083 19.2856 75.6056 18.87C75.5371 18.4891 75.3659 18.1428 75.1605 17.8311C74.9551 17.5194 74.6812 17.3116 74.3046 17.1385C73.9622 16.9653 73.5171 16.8961 73.0035 16.8961C72.4557 16.8961 71.9764 16.9653 71.5655 17.1731C71.1546 17.3463 70.8123 17.6233 70.5383 17.935C70.2302 18.2813 70.0248 18.6622 69.8536 19.147C69.6824 19.5972 69.6139 20.0821 69.5797 20.6362V27.0081H68.2786V16.0649H69.5797Z"
      fill="#535B64" />
    <path d="M79.5773 11.8747V27.0081H78.1735V11.8747H79.5773Z" fill="#535B64" />
    <path
      d="M85.8428 11.8747C88.1368 11.9093 89.8487 12.5673 91.0128 13.814C92.1427 15.0607 92.7247 16.9307 92.7247 19.4241C92.7247 21.9521 92.1427 23.8222 91.0128 25.0688C89.8487 26.3155 88.1368 26.9389 85.8428 27.0081H80.6729V11.8747H85.8428ZM85.1581 25.7615C86.2194 25.7615 87.1439 25.6576 87.9314 25.4152C88.6846 25.1727 89.3351 24.8264 89.8487 24.307C90.328 23.7875 90.7046 23.1295 90.9443 22.333C91.184 21.5365 91.2867 20.5669 91.2867 19.4241C91.2867 18.3159 91.184 17.3463 90.9443 16.5498C90.7046 15.7186 90.328 15.0607 89.8487 14.5758C89.3351 14.0564 88.6846 13.6754 87.9314 13.4677C87.1439 13.2253 86.2194 13.0867 85.1581 13.0867H82.1109V25.7615H85.1581Z"
      fill="#535B64" />
  </g>
  <defs>
    <clipPath id="clip0_657_201298">
      <rect width="91.7331" height="30.0365" fill="white" transform="translate(0.991592 0.98877)" />
    </clipPath>
  </defs>
</svg>