<svg width="404" height="180" viewBox="0 0 404 180" fill="none" xmlns="http://www.w3.org/2000/svg">
<g clip-path="url(#clip0_4899_3914)">
<rect x="110.5" y="8.5" width="87" height="87" rx="29.5" stroke="#232F6F"/>
<rect x="206.5" y="8.5" width="87" height="87" rx="29.5" stroke="#232F6F"/>
<rect x="302.5" y="8.5" width="87" height="87" rx="29.5" stroke="#232F6F"/>
<rect opacity="0.2" x="115" y="13" width="78" height="78" rx="25" fill="url(#paint0_radial_4899_3914)"/>
<rect opacity="0.2" x="211" y="13" width="78" height="78" rx="25" fill="url(#paint1_radial_4899_3914)"/>
<rect opacity="0.2" x="307" y="13" width="78" height="78" rx="25" fill="url(#paint2_radial_4899_3914)"/>
<rect x="14.5" y="104.5" width="87" height="87" rx="29.5" stroke="#232F6F"/>
<rect x="110.5" y="104.5" width="87" height="87" rx="29.5" stroke="#232F6F"/>
<rect x="206.5" y="104.5" width="87" height="87" rx="29.5" stroke="#232F6F"/>
<rect opacity="0.2" x="19" y="109" width="78" height="78" rx="25" fill="url(#paint3_radial_4899_3914)"/>
<rect opacity="0.2" x="115" y="109" width="78" height="78" rx="25" fill="url(#paint4_radial_4899_3914)"/>
<rect opacity="0.2" x="211" y="109" width="78" height="78" rx="25" fill="url(#paint5_radial_4899_3914)"/>
<path d="M138.096 48.3142L143.362 39.4306C144.623 37.304 146.912 36 149.384 36H158.381C160.853 36 163.142 37.304 164.402 39.4306L169.668 48.3142C170.963 50.4974 170.974 53.2101 169.697 55.4038L164.393 64.5202C163.14 66.6746 160.836 68 158.343 68H149.422C146.929 68 144.625 66.6746 143.371 64.5202L138.067 55.4038C136.791 53.2101 136.802 50.4974 138.096 48.3142Z" fill="url(#paint6_linear_4899_3914)"/>
<path d="M152 41.6465H147.859L141.647 51.5493L147.859 62.3524H152L145.788 51.5493L152 41.6465Z" fill="#131313"/>
<path d="M155.765 41.6465H159.906L166.118 51.5493L159.906 62.3524H155.765L161.976 51.5493L155.765 41.6465Z" fill="#131313"/>
<path d="M42.0963 144.314L47.3623 135.431C48.6228 133.304 50.9117 132 53.3838 132H62.3809C64.853 132 67.1419 133.304 68.4025 135.431L73.6685 144.314C74.9626 146.497 74.9737 149.21 73.6974 151.404L68.3935 160.52C67.14 162.675 64.8355 164 62.343 164H53.4217C50.9292 164 48.6247 162.675 47.3712 160.52L42.0673 151.404C40.791 149.21 40.8021 146.497 42.0963 144.314Z" fill="url(#paint7_linear_4899_3914)"/>
<path d="M55.9999 137.646H51.8587L45.647 147.549L51.8587 158.352H55.9999L49.7881 147.549L55.9999 137.646Z" fill="#131313"/>
<path d="M59.7647 137.646H63.9059L70.1177 147.549L63.9059 158.352H59.7647L65.9765 147.549L59.7647 137.646Z" fill="#131313"/>
<path d="M233.096 48.3142L238.362 39.4306C239.623 37.304 241.912 36 244.384 36H253.381C255.853 36 258.142 37.304 259.402 39.4306L264.668 48.3142C265.963 50.4974 265.974 53.2101 264.697 55.4038L259.393 64.5202C258.14 66.6746 255.836 68 253.343 68H244.422C241.929 68 239.625 66.6746 238.371 64.5202L233.067 55.4038C231.791 53.2101 231.802 50.4974 233.096 48.3142Z" fill="url(#paint8_linear_4899_3914)"/>
<path d="M247 41.6465H242.859L236.647 51.5493L242.859 62.3524H247L240.788 51.5493L247 41.6465Z" fill="#131313"/>
<path d="M250.765 41.6465H254.906L261.118 51.5493L254.906 62.3524H250.765L256.976 51.5493L250.765 41.6465Z" fill="#131313"/>
<path d="M137.096 144.314L142.362 135.431C143.623 133.304 145.912 132 148.384 132H157.381C159.853 132 162.142 133.304 163.402 135.431L168.668 144.314C169.963 146.497 169.974 149.21 168.697 151.404L163.393 160.52C162.14 162.675 159.836 164 157.343 164H148.422C145.929 164 143.625 162.675 142.371 160.52L137.067 151.404C135.791 149.21 135.802 146.497 137.096 144.314Z" fill="url(#paint9_linear_4899_3914)"/>
<path d="M151 137.646H146.859L140.647 147.549L146.859 158.352H151L144.788 147.549L151 137.646Z" fill="#131313"/>
<path d="M154.765 137.646H158.906L165.118 147.549L158.906 158.352H154.765L160.976 147.549L154.765 137.646Z" fill="#131313"/>
<path d="M329.096 48.3142L334.362 39.4306C335.623 37.304 337.912 36 340.384 36H349.381C351.853 36 354.142 37.304 355.402 39.4306L360.668 48.3142C361.963 50.4974 361.974 53.2101 360.697 55.4038L355.393 64.5202C354.14 66.6746 351.836 68 349.343 68H340.422C337.929 68 335.625 66.6746 334.371 64.5202L329.067 55.4038C327.791 53.2101 327.802 50.4974 329.096 48.3142Z" fill="url(#paint10_linear_4899_3914)"/>
<path d="M343 41.6465H338.859L332.647 51.5493L338.859 62.3524H343L336.788 51.5493L343 41.6465Z" fill="#131313"/>
<path d="M346.765 41.6465H350.906L357.118 51.5493L350.906 62.3524H346.765L352.976 51.5493L346.765 41.6465Z" fill="#131313"/>
<path d="M233.096 144.314L238.362 135.431C239.623 133.304 241.912 132 244.384 132H253.381C255.853 132 258.142 133.304 259.402 135.431L264.668 144.314C265.963 146.497 265.974 149.21 264.697 151.404L259.393 160.52C258.14 162.675 255.836 164 253.343 164H244.422C241.929 164 239.625 162.675 238.371 160.52L233.067 151.404C231.791 149.21 231.802 146.497 233.096 144.314Z" fill="url(#paint11_linear_4899_3914)"/>
<path d="M247 137.646H242.859L236.647 147.549L242.859 158.352H247L240.788 147.549L247 137.646Z" fill="#131313"/>
<path d="M250.765 137.646H254.906L261.118 147.549L254.906 158.352H250.765L256.976 147.549L250.765 137.646Z" fill="#131313"/>
<circle cx="379" cy="16" r="17" fill="url(#paint12_linear_4899_3914)" stroke="#131313" stroke-width="2"/>
<path d="M380.639 13.0977C380.688 12.7607 381.062 12.5793 381.357 12.75C382.501 13.4127 383.212 14.6434 383.212 15.9609C383.212 17.3887 382.412 18.6657 381.125 19.2939L381.063 19.3242V25.4141C381.063 25.7377 380.801 26 380.477 26H378.524C378.201 26 377.938 25.7377 377.938 25.4141V19.3242L377.877 19.2939C376.59 18.6657 375.79 17.3887 375.79 15.9609C375.79 14.6434 376.5 13.4127 377.644 12.75C377.939 12.5793 378.313 12.7607 378.362 13.0977L378.719 15.5703H380.282L380.639 13.0977ZM381.063 6C381.199 6 381.33 6.04706 381.434 6.13281C381.539 6.21861 381.611 6.33803 381.637 6.4707L381.929 7.92969C382.46 8.08981 382.974 8.3024 383.463 8.56445L384.7 7.73926C384.813 7.66416 384.948 7.63022 385.083 7.64355C385.217 7.6569 385.343 7.71682 385.439 7.8125L387.649 10.0225C387.745 10.1182 387.805 10.2442 387.818 10.3789C387.831 10.5137 387.798 10.649 387.722 10.7617L386.897 11.999C387.159 12.4878 387.373 13.0012 387.533 13.5322L388.991 13.8242C389.124 13.8508 389.243 13.9227 389.329 14.0273C389.415 14.1321 389.462 14.2631 389.462 14.3984V17.5234C389.462 17.6588 389.415 17.7898 389.329 17.8945C389.243 17.9992 389.124 18.071 388.991 18.0977L387.532 18.3896C387.372 18.9206 387.159 19.4341 386.897 19.9229L387.722 21.1602C387.798 21.2728 387.831 21.4082 387.818 21.543C387.805 21.6777 387.745 21.8037 387.649 21.8994L385.439 24.1094C385.326 24.2225 385.176 24.2812 385.025 24.2813C384.91 24.2813 384.796 24.2468 384.7 24.1826L383.488 23.375V19.6963C384.406 18.7195 384.969 17.4072 384.969 15.9609C384.969 12.9406 382.521 10.4922 379.501 10.4922C376.48 10.4922 374.032 12.9406 374.032 15.9609C374.032 17.4072 374.596 18.7195 375.513 19.6963V23.375L374.302 24.1826C374.189 24.2577 374.053 24.2917 373.919 24.2783C373.784 24.265 373.658 24.2051 373.562 24.1094L371.352 21.8994C371.257 21.8037 371.197 21.6777 371.183 21.543C371.17 21.4082 371.204 21.2728 371.279 21.1602L372.104 19.9229C371.842 19.4342 371.63 18.9206 371.469 18.3896L370.01 18.0977C369.737 18.0428 369.54 17.8026 369.54 17.5234V14.3984C369.54 14.2631 369.587 14.1321 369.673 14.0273C369.758 13.9227 369.878 13.8508 370.01 13.8242L371.469 13.5322C371.629 13.0012 371.842 12.4878 372.104 11.999L371.279 10.7617C371.204 10.649 371.17 10.5137 371.183 10.3789C371.197 10.2442 371.257 10.1182 371.352 10.0225L373.562 7.8125C373.658 7.71682 373.784 7.6569 373.919 7.64355C374.053 7.63022 374.189 7.66416 374.302 7.73926L375.539 8.56445C376.028 8.30241 376.541 8.08983 377.072 7.92969L377.364 6.4707C377.391 6.33803 377.462 6.21861 377.567 6.13281C377.672 6.04705 377.803 6 377.938 6H381.063Z" fill="#131313"/>
<circle cx="281" cy="114" r="17" fill="url(#paint13_linear_4899_3914)" stroke="#131313" stroke-width="2"/>
<path d="M282.639 111.098C282.688 110.761 283.062 110.579 283.357 110.75C284.501 111.413 285.212 112.643 285.212 113.961C285.212 115.389 284.412 116.666 283.125 117.294L283.063 117.324V123.414C283.063 123.738 282.801 124 282.477 124H280.524C280.201 124 279.938 123.738 279.938 123.414V117.324L279.877 117.294C278.59 116.666 277.79 115.389 277.79 113.961C277.79 112.643 278.5 111.413 279.644 110.75C279.939 110.579 280.313 110.761 280.362 111.098L280.719 113.57H282.282L282.639 111.098ZM283.063 104C283.199 104 283.33 104.047 283.434 104.133C283.539 104.219 283.611 104.338 283.637 104.471L283.929 105.93C284.46 106.09 284.974 106.302 285.463 106.564L286.7 105.739C286.813 105.664 286.948 105.63 287.083 105.644C287.217 105.657 287.343 105.717 287.439 105.813L289.649 108.022C289.745 108.118 289.805 108.244 289.818 108.379C289.831 108.514 289.798 108.649 289.722 108.762L288.897 109.999C289.159 110.488 289.373 111.001 289.533 111.532L290.991 111.824C291.124 111.851 291.243 111.923 291.329 112.027C291.415 112.132 291.462 112.263 291.462 112.398V115.523C291.462 115.659 291.415 115.79 291.329 115.895C291.243 115.999 291.124 116.071 290.991 116.098L289.532 116.39C289.372 116.921 289.159 117.434 288.897 117.923L289.722 119.16C289.798 119.273 289.831 119.408 289.818 119.543C289.805 119.678 289.745 119.804 289.649 119.899L287.439 122.109C287.326 122.222 287.176 122.281 287.025 122.281C286.91 122.281 286.796 122.247 286.7 122.183L285.488 121.375V117.696C286.406 116.72 286.969 115.407 286.969 113.961C286.969 110.941 284.521 108.492 281.501 108.492C278.48 108.492 276.032 110.941 276.032 113.961C276.032 115.407 276.596 116.72 277.513 117.696V121.375L276.302 122.183C276.189 122.258 276.053 122.292 275.919 122.278C275.784 122.265 275.658 122.205 275.562 122.109L273.352 119.899C273.257 119.804 273.197 119.678 273.183 119.543C273.17 119.408 273.204 119.273 273.279 119.16L274.104 117.923C273.842 117.434 273.63 116.921 273.469 116.39L272.01 116.098C271.737 116.043 271.54 115.803 271.54 115.523V112.398C271.54 112.263 271.587 112.132 271.673 112.027C271.758 111.923 271.878 111.851 272.01 111.824L273.469 111.532C273.629 111.001 273.842 110.488 274.104 109.999L273.279 108.762C273.204 108.649 273.17 108.514 273.183 108.379C273.197 108.244 273.257 108.118 273.352 108.022L275.562 105.813C275.658 105.717 275.784 105.657 275.919 105.644C276.053 105.63 276.189 105.664 276.302 105.739L277.539 106.564C278.028 106.302 278.541 106.09 279.072 105.93L279.364 104.471C279.391 104.338 279.462 104.219 279.567 104.133C279.672 104.047 279.803 104 279.938 104H283.063Z" fill="#131313"/>
<circle cx="186" cy="114" r="17" fill="url(#paint14_linear_4899_3914)" stroke="#131313" stroke-width="2"/>
<path d="M187.639 111.098C187.688 110.761 188.062 110.579 188.357 110.75C189.501 111.413 190.212 112.643 190.212 113.961C190.212 115.389 189.412 116.666 188.125 117.294L188.063 117.324V123.414C188.063 123.738 187.801 124 187.477 124H185.524C185.201 124 184.938 123.738 184.938 123.414V117.324L184.877 117.294C183.59 116.666 182.79 115.389 182.79 113.961C182.79 112.643 183.5 111.413 184.644 110.75C184.939 110.579 185.313 110.761 185.362 111.098L185.719 113.57H187.282L187.639 111.098ZM188.063 104C188.199 104 188.33 104.047 188.434 104.133C188.539 104.219 188.611 104.338 188.637 104.471L188.929 105.93C189.46 106.09 189.974 106.302 190.463 106.564L191.7 105.739C191.813 105.664 191.948 105.63 192.083 105.644C192.217 105.657 192.343 105.717 192.439 105.813L194.649 108.022C194.745 108.118 194.805 108.244 194.818 108.379C194.831 108.514 194.798 108.649 194.722 108.762L193.897 109.999C194.159 110.488 194.373 111.001 194.533 111.532L195.991 111.824C196.124 111.851 196.243 111.923 196.329 112.027C196.415 112.132 196.462 112.263 196.462 112.398V115.523C196.462 115.659 196.415 115.79 196.329 115.895C196.243 115.999 196.124 116.071 195.991 116.098L194.532 116.39C194.372 116.921 194.159 117.434 193.897 117.923L194.722 119.16C194.798 119.273 194.831 119.408 194.818 119.543C194.805 119.678 194.745 119.804 194.649 119.899L192.439 122.109C192.326 122.222 192.176 122.281 192.025 122.281C191.91 122.281 191.796 122.247 191.7 122.183L190.488 121.375V117.696C191.406 116.72 191.969 115.407 191.969 113.961C191.969 110.941 189.521 108.492 186.501 108.492C183.48 108.492 181.032 110.941 181.032 113.961C181.032 115.407 181.596 116.72 182.513 117.696V121.375L181.302 122.183C181.189 122.258 181.053 122.292 180.919 122.278C180.784 122.265 180.658 122.205 180.562 122.109L178.352 119.899C178.257 119.804 178.197 119.678 178.183 119.543C178.17 119.408 178.204 119.273 178.279 119.16L179.104 117.923C178.842 117.434 178.63 116.921 178.469 116.39L177.01 116.098C176.737 116.043 176.54 115.803 176.54 115.523V112.398C176.54 112.263 176.587 112.132 176.673 112.027C176.758 111.923 176.878 111.851 177.01 111.824L178.469 111.532C178.629 111.001 178.842 110.488 179.104 109.999L178.279 108.762C178.204 108.649 178.17 108.514 178.183 108.379C178.197 108.244 178.257 108.118 178.352 108.022L180.562 105.813C180.658 105.717 180.784 105.657 180.919 105.644C181.053 105.63 181.189 105.664 181.302 105.739L182.539 106.564C183.028 106.302 183.541 106.09 184.072 105.93L184.364 104.471C184.391 104.338 184.462 104.219 184.567 104.133C184.672 104.047 184.803 104 184.938 104H188.063Z" fill="#131313"/>
</g>
<defs>
<radialGradient id="paint0_radial_4899_3914" cx="0" cy="0" r="1" gradientUnits="userSpaceOnUse" gradientTransform="translate(154 52) rotate(90) scale(39)">
<stop offset="0.480792" stop-color="#232F6F" stop-opacity="0"/>
<stop offset="1" stop-color="#232F6F"/>
</radialGradient>
<radialGradient id="paint1_radial_4899_3914" cx="0" cy="0" r="1" gradientUnits="userSpaceOnUse" gradientTransform="translate(250 52) rotate(90) scale(39)">
<stop offset="0.480792" stop-color="#232F6F" stop-opacity="0"/>
<stop offset="1" stop-color="#232F6F"/>
</radialGradient>
<radialGradient id="paint2_radial_4899_3914" cx="0" cy="0" r="1" gradientUnits="userSpaceOnUse" gradientTransform="translate(346 52) rotate(90) scale(39)">
<stop offset="0.480792" stop-color="#232F6F" stop-opacity="0"/>
<stop offset="1" stop-color="#232F6F"/>
</radialGradient>
<radialGradient id="paint3_radial_4899_3914" cx="0" cy="0" r="1" gradientUnits="userSpaceOnUse" gradientTransform="translate(58 148) rotate(90) scale(39)">
<stop offset="0.480792" stop-color="#232F6F" stop-opacity="0"/>
<stop offset="1" stop-color="#232F6F"/>
</radialGradient>
<radialGradient id="paint4_radial_4899_3914" cx="0" cy="0" r="1" gradientUnits="userSpaceOnUse" gradientTransform="translate(154 148) rotate(90) scale(39)">
<stop offset="0.480792" stop-color="#232F6F" stop-opacity="0"/>
<stop offset="1" stop-color="#232F6F"/>
</radialGradient>
<radialGradient id="paint5_radial_4899_3914" cx="0" cy="0" r="1" gradientUnits="userSpaceOnUse" gradientTransform="translate(250 148) rotate(90) scale(39)">
<stop offset="0.480792" stop-color="#232F6F" stop-opacity="0"/>
<stop offset="1" stop-color="#232F6F"/>
</radialGradient>
<linearGradient id="paint6_linear_4899_3914" x1="153.882" y1="36" x2="153.882" y2="68" gradientUnits="userSpaceOnUse">
<stop stop-color="#232F6F" stop-opacity="0.35"/>
<stop offset="0.605793" stop-color="#232F6F"/>
</linearGradient>
<linearGradient id="paint7_linear_4899_3914" x1="57.8824" y1="132" x2="57.8824" y2="164" gradientUnits="userSpaceOnUse">
<stop stop-color="#232F6F" stop-opacity="0.35"/>
<stop offset="0.605793" stop-color="#232F6F"/>
</linearGradient>
<linearGradient id="paint8_linear_4899_3914" x1="248.882" y1="36" x2="248.882" y2="68" gradientUnits="userSpaceOnUse">
<stop stop-color="#232F6F" stop-opacity="0.35"/>
<stop offset="0.605793" stop-color="#232F6F"/>
</linearGradient>
<linearGradient id="paint9_linear_4899_3914" x1="152.882" y1="132" x2="152.882" y2="164" gradientUnits="userSpaceOnUse">
<stop stop-color="#232F6F" stop-opacity="0.35"/>
<stop offset="0.605793" stop-color="#232F6F"/>
</linearGradient>
<linearGradient id="paint10_linear_4899_3914" x1="344.882" y1="36" x2="344.882" y2="68" gradientUnits="userSpaceOnUse">
<stop stop-color="#232F6F" stop-opacity="0.35"/>
<stop offset="0.605793" stop-color="#232F6F"/>
</linearGradient>
<linearGradient id="paint11_linear_4899_3914" x1="248.882" y1="132" x2="248.882" y2="164" gradientUnits="userSpaceOnUse">
<stop stop-color="#232F6F" stop-opacity="0.35"/>
<stop offset="0.605793" stop-color="#232F6F"/>
</linearGradient>
<linearGradient id="paint12_linear_4899_3914" x1="379" y1="0" x2="379" y2="32" gradientUnits="userSpaceOnUse">
<stop stop-color="#3FA1E3" stop-opacity="0.35"/>
<stop offset="0.605793" stop-color="#3FA1E3"/>
</linearGradient>
<linearGradient id="paint13_linear_4899_3914" x1="281" y1="98" x2="281" y2="130" gradientUnits="userSpaceOnUse">
<stop stop-color="#3FA1E3" stop-opacity="0.35"/>
<stop offset="0.605793" stop-color="#3FA1E3"/>
</linearGradient>
<linearGradient id="paint14_linear_4899_3914" x1="186" y1="98" x2="186" y2="130" gradientUnits="userSpaceOnUse">
<stop stop-color="#3FA1E3" stop-opacity="0.35"/>
<stop offset="0.605793" stop-color="#3FA1E3"/>
</linearGradient>
<clipPath id="clip0_4899_3914">
<rect width="404" height="180" fill="white"/>
</clipPath>
</defs>
</svg>
