<svg width="405" height="181" viewBox="0 0 405 181" fill="none" xmlns="http://www.w3.org/2000/svg">
<g clip-path="url(#clip0_5026_4354)">
<circle opacity="0.2" cx="78.5" cy="90.5" r="54" stroke="#D252B5"/>
<circle opacity="0.3" cx="200.5" cy="90.5" r="54" stroke="#D252B5"/>
<circle opacity="0.3" cx="322.5" cy="90.5" r="54" stroke="#D252B5"/>
<circle opacity="0.2" cx="78.5" cy="90.5" r="67" stroke="#D252B5"/>
<circle opacity="0.2" cx="200.5" cy="90.5" r="67" stroke="#D252B5"/>
<circle opacity="0.2" cx="322.5" cy="90.5" r="67" stroke="#D252B5"/>
<path d="M78 50C88.6861 50 98.7289 54.1587 106.285 61.7147C113.841 69.2711 118 79.3138 118 90C118 100.686 113.841 110.729 106.285 118.285C98.7289 125.841 88.6862 130 78 130C67.3139 130 57.2711 125.841 49.7147 118.285C42.1585 110.729 38 100.686 38 90C38 79.3139 42.1587 69.2711 49.7147 61.7147C57.2711 54.1585 67.3138 50 78 50ZM78 96.0917C65.6338 96.0917 55.1759 105.482 53.7612 117.654L53.6971 118.203L54.1218 118.558C60.5901 123.975 68.9204 127.244 78 127.244C87.0797 127.244 95.412 123.975 101.88 118.558L102.303 118.203L102.239 117.652C101.607 112.22 99.1513 107.134 95.2576 103.239C90.6491 98.6315 84.5154 96.0917 78 96.0917ZM78 52.7564C57.4629 52.7564 40.7564 69.4629 40.7564 90C40.7564 99.3132 44.1938 107.839 49.863 114.375L51.1591 115.869L51.6338 113.95C52.8881 108.874 55.5941 104.247 59.4924 100.617C62.184 98.1095 65.3105 96.2053 68.6891 94.974L70.5741 94.2869L68.9135 93.1611C64.5954 90.2356 61.758 85.2931 61.758 79.7035C61.7584 70.7488 69.0452 63.4615 78 63.4615C86.9548 63.4615 94.2416 70.7488 94.242 79.7035C94.242 85.2901 91.4071 90.2311 87.0926 93.1571L85.4319 94.2829L87.3169 94.968C90.9877 96.3055 94.3556 98.441 97.2047 101.29C100.698 104.782 103.174 109.161 104.364 113.954L104.839 115.871L106.133 114.379C111.804 107.843 115.244 99.3152 115.244 90C115.244 69.4629 98.5371 52.7564 78 52.7564ZM78 66.2179C70.5636 66.2179 64.5148 72.2663 64.5144 79.7035C64.5144 86.7952 70.0151 92.6212 76.9744 93.147V93.1911H78C85.4368 93.1911 91.4856 87.1403 91.4856 79.7035C91.4852 72.2663 85.4364 66.2179 78 66.2179Z" fill="#D252B5"/>
<path d="M200 50C210.686 50 220.729 54.1587 228.285 61.7147C235.841 69.2711 240 79.3138 240 90C240 100.686 235.841 110.729 228.285 118.285C220.729 125.841 210.686 130 200 130C189.314 130 179.271 125.841 171.715 118.285C164.159 110.729 160 100.686 160 90C160 79.3139 164.159 69.2711 171.715 61.7147C179.271 54.1585 189.314 50 200 50ZM200 96.0917C187.634 96.0917 177.176 105.482 175.761 117.654L175.697 118.203L176.122 118.558C182.59 123.975 190.92 127.244 200 127.244C209.08 127.244 217.412 123.975 223.88 118.558L224.303 118.203L224.239 117.652C223.607 112.22 221.151 107.134 217.258 103.239C212.649 98.6315 206.515 96.0917 200 96.0917ZM200 52.7564C179.463 52.7564 162.756 69.4629 162.756 90C162.756 99.3132 166.194 107.839 171.863 114.375L173.159 115.869L173.634 113.95C174.888 108.874 177.594 104.247 181.492 100.617C184.184 98.1095 187.31 96.2053 190.689 94.974L192.574 94.2869L190.913 93.1611C186.595 90.2356 183.758 85.2931 183.758 79.7035C183.758 70.7488 191.045 63.4615 200 63.4615C208.955 63.4615 216.242 70.7488 216.242 79.7035C216.242 85.2901 213.407 90.2311 209.093 93.1571L207.432 94.2829L209.317 94.968C212.988 96.3055 216.356 98.441 219.205 101.29C222.698 104.782 225.174 109.161 226.364 113.954L226.839 115.871L228.133 114.379C233.804 107.843 237.244 99.3152 237.244 90C237.244 69.4629 220.537 52.7564 200 52.7564ZM200 66.2179C192.564 66.2179 186.515 72.2663 186.514 79.7035C186.514 86.7952 192.015 92.6212 198.974 93.147V93.1911H200C207.437 93.1911 213.486 87.1403 213.486 79.7035C213.485 72.2663 207.436 66.2179 200 66.2179Z" fill="#D252B5"/>
<path d="M322 50C332.686 50 342.729 54.1587 350.285 61.7147C357.841 69.2711 362 79.3138 362 90C362 100.686 357.841 110.729 350.285 118.285C342.729 125.841 332.686 130 322 130C311.314 130 301.271 125.841 293.715 118.285C286.159 110.729 282 100.686 282 90C282 79.3139 286.159 69.2711 293.715 61.7147C301.271 54.1585 311.314 50 322 50ZM322 96.0917C309.634 96.0917 299.176 105.482 297.761 117.654L297.697 118.203L298.122 118.558C304.59 123.975 312.92 127.244 322 127.244C331.08 127.244 339.412 123.975 345.88 118.558L346.303 118.203L346.239 117.652C345.607 112.22 343.151 107.134 339.258 103.239C334.649 98.6315 328.515 96.0917 322 96.0917ZM322 52.7564C301.463 52.7564 284.756 69.4629 284.756 90C284.756 99.3132 288.194 107.839 293.863 114.375L295.159 115.869L295.634 113.95C296.888 108.874 299.594 104.247 303.492 100.617C306.184 98.1095 309.31 96.2053 312.689 94.974L314.574 94.2869L312.913 93.1611C308.595 90.2356 305.758 85.2931 305.758 79.7035C305.758 70.7488 313.045 63.4615 322 63.4615C330.955 63.4615 338.242 70.7488 338.242 79.7035C338.242 85.2901 335.407 90.2311 331.093 93.1571L329.432 94.2829L331.317 94.968C334.988 96.3055 338.356 98.441 341.205 101.29C344.698 104.782 347.174 109.161 348.364 113.954L348.839 115.871L350.133 114.379C355.804 107.843 359.244 99.3152 359.244 90C359.244 69.4629 342.537 52.7564 322 52.7564ZM322 66.2179C314.564 66.2179 308.515 72.2663 308.514 79.7035C308.514 86.7952 314.015 92.6212 320.974 93.147V93.1911H322C329.437 93.1911 335.486 87.1403 335.486 79.7035C335.485 72.2663 329.436 66.2179 322 66.2179Z" fill="#D252B5"/>
<rect x="340" y="28" width="44" height="44" rx="22" fill="#131313"/>
<rect x="340" y="28" width="44" height="44" rx="22" stroke="#131313" stroke-width="4"/>
<path d="M362 30C351 30 342 39 342 50C342 61 351 70 362 70C373 70 382 61 382 50C382 39 373 30 362 30Z" fill="#D252B5"/>
<path d="M362 62.0625C368.591 62.0625 374 56.6536 374 50.0625C374 43.4714 368.591 38.0625 362 38.0625C355.409 38.0625 350 43.4714 350 50.0625C350 56.6536 355.409 62.0625 362 62.0625ZM353.562 47.9531H370.438V52.1719H353.562V47.9531Z" fill="black"/>
<rect x="216" y="28" width="44" height="44" rx="22" fill="#131313"/>
<rect x="216" y="28" width="44" height="44" rx="22" stroke="#131313" stroke-width="4"/>
<path d="M238 30C227 30 218 39 218 50C218 61 227 70 238 70C249 70 258 61 258 50C258 39 249 30 238 30Z" fill="#D252B5"/>
<path d="M238.715 42.7253L227.213 54.227C226.789 54.6516 226.521 55.207 226.453 55.803L225.995 59.827C225.965 60.1099 225.995 60.396 226.083 60.6665C226.171 60.9371 226.316 61.1859 226.506 61.3969C226.697 61.6079 226.931 61.7762 227.191 61.8909C227.452 62.0056 227.733 62.064 228.018 62.0625H228.252L232.276 61.6042C232.87 61.5355 233.424 61.2722 233.852 60.8553L245.354 49.3424L238.715 42.7253ZM249.244 41.7529L246.327 38.8355C246.082 38.5905 245.792 38.3961 245.473 38.2634C245.154 38.1308 244.811 38.0625 244.465 38.0625C244.12 38.0625 243.777 38.1308 243.458 38.2634C243.138 38.3961 242.848 38.5905 242.604 38.8355L239.899 41.5405L246.539 48.18L249.244 45.475C249.489 45.231 249.683 44.9409 249.816 44.6216C249.949 44.3022 250.017 43.9598 250.017 43.6139C250.017 43.2681 249.949 42.9257 249.816 42.6063C249.683 42.287 249.489 41.9969 249.244 41.7529Z" fill="black"/>
<rect x="92" y="28" width="44" height="44" rx="22" fill="#131313"/>
<rect x="92" y="28" width="44" height="44" rx="22" stroke="#131313" stroke-width="4"/>
<path d="M114 30C103 30 94 39 94 50C94 61 103 70 114 70C125 70 134 61 134 50C134 39 125 30 114 30Z" fill="#D252B5"/>
<path d="M114 42.9102C109.415 42.9102 105.256 45.4189 102.188 49.4938C101.937 49.8276 101.937 50.294 102.188 50.6279C105.256 54.7076 109.415 57.2164 114 57.2164C118.585 57.2164 122.744 54.7076 125.812 50.6328C126.063 50.2989 126.063 49.8325 125.812 49.4987C122.744 45.4189 118.585 42.9102 114 42.9102ZM114.329 55.1004C111.285 55.2919 108.771 52.7831 108.963 49.7343C109.12 47.2207 111.157 45.1832 113.671 45.0261C116.715 44.8347 119.229 47.3434 119.037 50.3922C118.875 52.9009 116.838 54.9384 114.329 55.1004ZM114.177 52.7733C112.537 52.8764 111.182 51.5263 111.29 49.8865C111.373 48.5315 112.473 47.4367 113.828 47.3483C115.468 47.2452 116.823 48.5953 116.715 50.2351C116.627 51.595 115.527 52.6898 114.177 52.7733Z" fill="black"/>
<g opacity="0.4">
<circle opacity="0.2" cx="19.5" cy="190.5" r="54" stroke="#D252B5"/>
<circle opacity="0.3" cx="141.5" cy="190.5" r="54" stroke="#D252B5"/>
<circle opacity="0.3" cx="263.5" cy="190.5" r="54" stroke="#D252B5"/>
<circle opacity="0.3" cx="384.5" cy="190.5" r="54" stroke="#D252B5"/>
<circle opacity="0.2" cx="19.5" cy="190.5" r="67" stroke="#D252B5"/>
<circle opacity="0.2" cx="141.5" cy="190.5" r="67" stroke="#D252B5"/>
<circle opacity="0.2" cx="263.5" cy="190.5" r="67" stroke="#D252B5"/>
<circle opacity="0.2" cx="384.5" cy="190.5" r="67" stroke="#D252B5"/>
<path d="M19 150C29.6861 150 39.7289 154.159 47.2853 161.715C54.8415 169.271 59 179.314 59 190C59 200.686 54.8413 210.729 47.2853 218.285C39.7289 225.841 29.6862 230 19 230C8.31386 230 -1.72887 225.841 -9.28526 218.285C-16.8415 210.729 -21 200.686 -21 190C-21 179.314 -16.8413 169.271 -9.28526 161.715C-1.72888 154.159 8.31385 150 19 150ZM19 196.092C6.63384 196.092 -3.82405 205.482 -5.23878 217.654L-5.30288 218.203L-4.8782 218.558C1.59014 223.975 9.92036 227.244 19 227.244C28.0797 227.244 36.412 223.975 42.8802 218.558L43.3029 218.203L43.2388 217.652C42.6066 212.22 40.1513 207.134 36.2576 203.239C31.6491 198.632 25.5154 196.092 19 196.092ZM19 152.756C-1.53712 152.756 -18.2436 169.463 -18.2436 190C-18.2436 199.313 -14.8062 207.839 -9.13702 214.375L-7.84094 215.869L-7.36619 213.95C-6.11191 208.874 -3.40589 204.247 0.492389 200.617C3.18402 198.109 6.31048 196.205 9.6891 194.974L11.5741 194.287L9.91346 193.161C5.59543 190.236 2.75801 185.293 2.75801 179.704C2.75836 170.749 10.0452 163.462 19 163.462C27.9548 163.462 35.2416 170.749 35.242 179.704C35.242 185.29 32.4071 190.231 28.0926 193.157L26.4319 194.283L28.3169 194.968C31.9877 196.305 35.3556 198.441 38.2047 201.29C41.6976 204.782 44.1738 209.161 45.3642 213.954L45.8389 215.871L47.133 214.379C52.8043 207.843 56.2436 199.315 56.2436 190C56.2436 169.463 39.5371 152.756 19 152.756ZM19 166.218C11.5636 166.218 5.51477 172.266 5.51442 179.704C5.51442 186.795 11.0151 192.621 17.9744 193.147V193.191H19C26.4368 193.191 32.4856 187.14 32.4856 179.704C32.4852 172.266 26.4364 166.218 19 166.218Z" fill="#D252B5"/>
<path d="M141 150C151.686 150 161.729 154.159 169.285 161.715C176.841 169.271 181 179.314 181 190C181 200.686 176.841 210.729 169.285 218.285C161.729 225.841 151.686 230 141 230C130.314 230 120.271 225.841 112.715 218.285C105.159 210.729 101 200.686 101 190C101 179.314 105.159 169.271 112.715 161.715C120.271 154.159 130.314 150 141 150ZM141 196.092C128.634 196.092 118.176 205.482 116.761 217.654L116.697 218.203L117.122 218.558C123.59 223.975 131.92 227.244 141 227.244C150.08 227.244 158.412 223.975 164.88 218.558L165.303 218.203L165.239 217.652C164.607 212.22 162.151 207.134 158.258 203.239C153.649 198.632 147.515 196.092 141 196.092ZM141 152.756C120.463 152.756 103.756 169.463 103.756 190C103.756 199.313 107.194 207.839 112.863 214.375L114.159 215.869L114.634 213.95C115.888 208.874 118.594 204.247 122.492 200.617C125.184 198.109 128.31 196.205 131.689 194.974L133.574 194.287L131.913 193.161C127.595 190.236 124.758 185.293 124.758 179.704C124.758 170.749 132.045 163.462 141 163.462C149.955 163.462 157.242 170.749 157.242 179.704C157.242 185.29 154.407 190.231 150.093 193.157L148.432 194.283L150.317 194.968C153.988 196.305 157.356 198.441 160.205 201.29C163.698 204.782 166.174 209.161 167.364 213.954L167.839 215.871L169.133 214.379C174.804 207.843 178.244 199.315 178.244 190C178.244 169.463 161.537 152.756 141 152.756ZM141 166.218C133.564 166.218 127.515 172.266 127.514 179.704C127.514 186.795 133.015 192.621 139.974 193.147V193.191H141C148.437 193.191 154.486 187.14 154.486 179.704C154.485 172.266 148.436 166.218 141 166.218Z" fill="#D252B5"/>
<path d="M263 150C273.686 150 283.729 154.159 291.285 161.715C298.841 169.271 303 179.314 303 190C303 200.686 298.841 210.729 291.285 218.285C283.729 225.841 273.686 230 263 230C252.314 230 242.271 225.841 234.715 218.285C227.159 210.729 223 200.686 223 190C223 179.314 227.159 169.271 234.715 161.715C242.271 154.159 252.314 150 263 150ZM263 196.092C250.634 196.092 240.176 205.482 238.761 217.654L238.697 218.203L239.122 218.558C245.59 223.975 253.92 227.244 263 227.244C272.08 227.244 280.412 223.975 286.88 218.558L287.303 218.203L287.239 217.652C286.607 212.22 284.151 207.134 280.258 203.239C275.649 198.632 269.515 196.092 263 196.092ZM263 152.756C242.463 152.756 225.756 169.463 225.756 190C225.756 199.313 229.194 207.839 234.863 214.375L236.159 215.869L236.634 213.95C237.888 208.874 240.594 204.247 244.492 200.617C247.184 198.109 250.31 196.205 253.689 194.974L255.574 194.287L253.913 193.161C249.595 190.236 246.758 185.293 246.758 179.704C246.758 170.749 254.045 163.462 263 163.462C271.955 163.462 279.242 170.749 279.242 179.704C279.242 185.29 276.407 190.231 272.093 193.157L270.432 194.283L272.317 194.968C275.988 196.305 279.356 198.441 282.205 201.29C285.698 204.782 288.174 209.161 289.364 213.954L289.839 215.871L291.133 214.379C296.804 207.843 300.244 199.315 300.244 190C300.244 169.463 283.537 152.756 263 152.756ZM263 166.218C255.564 166.218 249.515 172.266 249.514 179.704C249.514 186.795 255.015 192.621 261.974 193.147V193.191H263C270.437 193.191 276.486 187.14 276.486 179.704C276.485 172.266 270.436 166.218 263 166.218Z" fill="#D252B5"/>
<path d="M384 150C394.686 150 404.729 154.159 412.285 161.715C419.841 169.271 424 179.314 424 190C424 200.686 419.841 210.729 412.285 218.285C404.729 225.841 394.686 230 384 230C373.314 230 363.271 225.841 355.715 218.285C348.159 210.729 344 200.686 344 190C344 179.314 348.159 169.271 355.715 161.715C363.271 154.159 373.314 150 384 150ZM384 196.092C371.634 196.092 361.176 205.482 359.761 217.654L359.697 218.203L360.122 218.558C366.59 223.975 374.92 227.244 384 227.244C393.08 227.244 401.412 223.975 407.88 218.558L408.303 218.203L408.239 217.652C407.607 212.22 405.151 207.134 401.258 203.239C396.649 198.632 390.515 196.092 384 196.092ZM384 152.756C363.463 152.756 346.756 169.463 346.756 190C346.756 199.313 350.194 207.839 355.863 214.375L357.159 215.869L357.634 213.95C358.888 208.874 361.594 204.247 365.492 200.617C368.184 198.109 371.31 196.205 374.689 194.974L376.574 194.287L374.913 193.161C370.595 190.236 367.758 185.293 367.758 179.704C367.758 170.749 375.045 163.462 384 163.462C392.955 163.462 400.242 170.749 400.242 179.704C400.242 185.29 397.407 190.231 393.093 193.157L391.432 194.283L393.317 194.968C396.988 196.305 400.356 198.441 403.205 201.29C406.698 204.782 409.174 209.161 410.364 213.954L410.839 215.871L412.133 214.379C417.804 207.843 421.244 199.315 421.244 190C421.244 169.463 404.537 152.756 384 152.756ZM384 166.218C376.564 166.218 370.515 172.266 370.514 179.704C370.514 186.795 376.015 192.621 382.974 193.147V193.191H384C391.437 193.191 397.486 187.14 397.486 179.704C397.485 172.266 391.436 166.218 384 166.218Z" fill="#D252B5"/>
</g>
</g>
<defs>
<clipPath id="clip0_5026_4354">
<rect width="405" height="181" fill="white"/>
</clipPath>
</defs>
</svg>
