<svg width="404" height="180" viewBox="0 0 404 180" fill="none" xmlns="http://www.w3.org/2000/svg">
<g clip-path="url(#clip0_4950_2490)">
<g opacity="0.2" filter="url(#filter0_f_4950_2490)">
<ellipse cx="274.5" cy="58" rx="43.5" ry="43" fill="#3FA1E3"/>
</g>
<path opacity="0.3" d="M276.5 26.5C294.733 26.5 309.5 41.0578 309.5 59C309.5 76.9422 294.733 91.5 276.5 91.5C258.267 91.5 243.5 76.9422 243.5 59C243.5 41.0578 258.267 26.5 276.5 26.5Z" stroke="#3FA1E3"/>
<g opacity="0.2" filter="url(#filter1_f_4950_2490)">
<ellipse cx="274.5" cy="146" rx="43.5" ry="43" fill="#3FA1E3"/>
</g>
<path opacity="0.3" d="M276.5 112.5C294.733 112.5 309.5 127.058 309.5 145C309.5 162.942 294.733 177.5 276.5 177.5C258.267 177.5 243.5 162.942 243.5 145C243.5 127.058 258.267 112.5 276.5 112.5Z" stroke="#3FA1E3"/>
<g opacity="0.2" filter="url(#filter2_f_4950_2490)">
<circle cx="342.5" cy="99.5" r="43.5" fill="#3FA1E3"/>
</g>
<circle opacity="0.3" cx="341.5" cy="99.5" r="33" stroke="#3FA1E3"/>
<path opacity="0.2" d="M125 56.7984C125 30.4383 146.529 9.00003 173 9C198.643 9.00004 219.649 29.1182 220.937 54.3398L221 56.7984C221.005 73.9787 211.742 89.2303 197.111 97.6567L197.037 109.448C197.029 111.606 196.167 113.675 194.631 115.205L192.49 117.337L194.728 119.566L195.307 120.212C195.849 120.881 196.283 121.634 196.592 122.441C197.004 123.518 197.184 124.671 197.119 125.822V125.837C196.983 128.078 195.927 130.287 194.013 131.77L192.642 132.855L195.24 135.979C196.462 137.446 197.131 139.293 197.131 141.199C197.131 143.106 196.458 144.949 195.236 146.416L192.638 149.548L194.013 150.629C194.984 151.395 195.771 152.367 196.311 153.477C196.85 154.587 197.13 155.807 197.131 157.04L197.131 164.968C197.131 167.137 196.268 169.219 194.724 170.757L178.813 186.601C175.601 189.8 170.399 189.8 167.187 186.601L151.276 170.757C150.512 169.996 149.903 169.093 149.49 168.1L149.221 167.341C148.987 166.572 148.865 165.771 148.865 164.964L148.861 98.0652C134.21 89.5728 125 73.9208 125 56.7984ZM173 17.4494C151.215 17.4494 133.485 35.1052 133.485 56.7984C133.485 71.6111 141.865 85.1085 155.042 91.8098L157.354 92.9847L157.35 95.5716L157.35 164.855L173 180.439L188.646 164.859L188.638 157.172L180.579 150.804L188.56 141.199L183.341 134.913L180.575 131.591L183.977 128.91L188.513 125.327L180.489 117.337L188.548 109.312L188.665 92.5529L190.959 91.3819C204.177 84.6643 212.52 71.5685 212.515 56.7984C212.515 35.1055 194.785 17.4495 173 17.4494ZM156.827 40.9538C156.828 32.0673 164.076 24.8486 173 24.8485C181.924 24.8485 189.172 32.0676 189.173 40.9538C189.173 49.841 181.925 57.059 173 57.059C164.075 57.0589 156.827 49.841 156.827 40.9538ZM173 33.2979C168.763 33.2981 165.313 36.7343 165.312 40.9538C165.312 45.174 168.762 48.6095 173 48.6096C177.238 48.6096 180.688 45.1741 180.688 40.9538C180.687 36.7342 177.237 33.2979 173 33.2979Z" fill="url(#paint0_linear_4950_2490)"/>
<path opacity="0.4" d="M125 56.7984C125 30.4383 146.529 9.00003 173 9C198.643 9.00004 219.649 29.1182 220.937 54.3398L221 56.7984C221.005 73.9787 211.742 89.2303 197.111 97.6567L197.037 109.448C197.029 111.606 196.167 113.675 194.631 115.205L192.49 117.337L194.728 119.566L195.307 120.212C195.849 120.881 196.283 121.634 196.592 122.441C197.004 123.518 197.184 124.671 197.119 125.822V125.837C196.983 128.078 195.927 130.287 194.013 131.77L192.642 132.855L195.24 135.979C196.462 137.446 197.131 139.293 197.131 141.199C197.131 143.106 196.458 144.949 195.236 146.416L192.638 149.548L194.013 150.629C194.984 151.395 195.771 152.367 196.311 153.477C196.85 154.587 197.13 155.807 197.131 157.04L197.131 164.968C197.131 167.137 196.268 169.219 194.724 170.757L178.813 186.601C175.601 189.8 170.399 189.8 167.187 186.601L151.276 170.757C150.512 169.996 149.903 169.093 149.49 168.1L149.221 167.341C148.987 166.572 148.865 165.771 148.865 164.964L148.861 98.0652C134.21 89.5728 125 73.9208 125 56.7984ZM173 17.4494C151.215 17.4494 133.485 35.1052 133.485 56.7984C133.485 71.6111 141.865 85.1085 155.042 91.8098L157.354 92.9847L157.35 95.5716L157.35 164.855L173 180.439L188.646 164.859L188.638 157.172L180.579 150.804L188.56 141.199L183.341 134.913L180.575 131.591L183.977 128.91L188.513 125.327L180.489 117.337L188.548 109.312L188.665 92.5529L190.959 91.3819C204.177 84.6643 212.52 71.5685 212.515 56.7984C212.515 35.1055 194.785 17.4495 173 17.4494ZM156.827 40.9538C156.828 32.0673 164.076 24.8486 173 24.8485C181.924 24.8485 189.172 32.0676 189.173 40.9538C189.173 49.841 181.925 57.059 173 57.059C164.075 57.0589 156.827 49.841 156.827 40.9538ZM173 33.2979C168.763 33.2981 165.313 36.7343 165.312 40.9538C165.312 45.174 168.762 48.6095 173 48.6096C177.238 48.6096 180.688 45.1741 180.688 40.9538C180.687 36.7342 177.237 33.2979 173 33.2979Z" stroke="url(#paint1_linear_4950_2490)"/>
<g clip-path="url(#clip1_4950_2490)">
<path d="M279.512 75C279.27 75 279.023 74.9449 278.791 74.8288C277.995 74.4297 277.673 73.4609 278.072 72.6647C279.021 70.7696 279.79 68.7892 280.368 66.7499C280.61 65.8931 281.502 65.3951 282.358 65.6376C283.215 65.8802 283.713 66.7713 283.471 67.6282C282.838 69.8629 281.995 72.0329 280.955 74.1096C280.672 74.674 280.103 75 279.512 75ZM272.366 74.5596C272.062 74.5597 271.765 74.4738 271.509 74.3118C270.755 73.8377 270.528 72.8421 271.003 72.0884C273.745 67.7302 275.194 62.6906 275.194 57.5146C275.194 56.6241 275.916 55.9023 276.806 55.9023C277.697 55.9023 278.419 56.6241 278.419 57.5146C278.419 63.2992 276.798 68.9326 273.732 73.8057C273.426 74.2927 272.902 74.5596 272.366 74.5596ZM266.819 71.2704C266.527 71.2704 266.241 71.1908 265.991 71.0403C265.227 70.582 264.98 69.5915 265.438 68.828L265.525 68.6828C265.531 68.673 265.537 68.6633 265.543 68.6536C267.645 65.3143 268.752 61.4636 268.744 57.5177C268.744 55.3611 269.583 53.3366 271.106 51.8139C272.628 50.2911 274.653 49.4525 276.806 49.4525C278.96 49.4525 280.985 50.2911 282.507 51.8139C284.03 53.3365 284.869 55.361 284.869 57.5145C284.869 59.1947 284.753 60.895 284.527 62.5684C284.407 63.451 283.594 64.069 282.712 63.9496C281.83 63.83 281.211 63.0176 281.331 62.1352C281.539 60.6037 281.643 59.06 281.644 57.5146C281.644 56.2225 281.141 55.0078 280.227 54.0942C279.313 53.1805 278.099 52.6774 276.806 52.6774C275.514 52.6774 274.3 53.1806 273.386 54.0942C272.472 55.0078 271.969 56.2225 271.969 57.5146C271.978 62.0622 270.703 66.5035 268.282 70.3563L268.203 70.4876C267.901 70.9913 267.367 71.2704 266.819 71.2704ZM288.11 70.6272C287.961 70.6272 287.812 70.6063 287.668 70.5652C286.811 70.3214 286.315 69.4294 286.559 68.573C287.577 64.9952 288.093 61.2745 288.093 57.5146C288.093 55.5331 287.572 53.5865 286.582 51.8699C285.591 50.1542 284.166 48.7291 282.451 47.7377C280.735 46.7473 278.788 46.2256 276.807 46.2249H276.806C274.825 46.2256 272.879 46.747 271.163 47.737C270.392 48.1822 269.405 47.918 268.96 47.1468C268.515 46.3756 268.779 45.3894 269.55 44.9442C271.754 43.6723 274.263 43 276.806 43H276.807C279.355 43.001 281.857 43.6718 284.064 44.945C286.267 46.2175 288.104 48.0546 289.375 50.258C290.648 52.4648 291.318 54.9675 291.318 57.515C291.318 61.5733 290.76 65.5909 289.66 69.4558C289.458 70.1648 288.813 70.6272 288.11 70.6272ZM262.293 66.164C262.057 66.164 261.818 66.1119 261.591 66.0019C260.79 65.6131 260.455 64.6484 260.844 63.8473C261.807 61.8635 262.295 59.7329 262.295 57.5146C262.295 54.9661 262.966 52.457 264.236 50.2584C264.682 49.4873 265.668 49.2232 266.439 49.6689C267.21 50.1144 267.474 51.1006 267.029 51.8717C266.041 53.5805 265.519 55.5318 265.519 57.5147C265.519 60.2247 264.923 62.829 263.745 65.2552C263.467 65.8295 262.892 66.164 262.293 66.164Z" fill="#3FA1E3"/>
</g>
<path d="M292 134.513V137.795C292 138.121 291.87 138.434 291.64 138.665C291.409 138.896 291.096 139.026 290.769 139.026C290.443 139.026 290.13 138.896 289.899 138.665C289.668 138.434 289.538 138.121 289.538 137.795V134.513C289.538 133.382 288.618 132.462 287.487 132.462H284.205C283.879 132.462 283.566 132.332 283.335 132.101C283.104 131.87 282.974 131.557 282.974 131.231C282.974 130.904 283.104 130.591 283.335 130.36C283.566 130.13 283.879 130 284.205 130H287.487C288.684 130.001 289.831 130.477 290.677 131.323C291.523 132.169 291.999 133.316 292 134.513ZM261.231 139.026C261.557 139.026 261.87 138.896 262.101 138.665C262.332 138.434 262.462 138.121 262.462 137.795V134.513C262.462 133.382 263.382 132.462 264.513 132.462H267.795C268.121 132.462 268.434 132.332 268.665 132.101C268.896 131.87 269.026 131.557 269.026 131.231C269.026 130.904 268.896 130.591 268.665 130.36C268.434 130.13 268.121 130 267.795 130H264.513C263.316 130.001 262.169 130.477 261.323 131.323C260.477 132.169 260.001 133.316 260 134.513V137.795C260 138.474 260.551 139.026 261.231 139.026ZM267.795 159.538H264.513C263.382 159.538 262.462 158.618 262.462 157.487V154.205C262.462 153.879 262.332 153.566 262.101 153.335C261.87 153.104 261.557 152.974 261.231 152.974C260.904 152.974 260.591 153.104 260.36 153.335C260.13 153.566 260 153.879 260 154.205V157.487C260.001 158.684 260.477 159.831 261.323 160.677C262.169 161.523 263.316 161.999 264.513 162H267.795C268.121 162 268.434 161.87 268.665 161.64C268.896 161.409 269.026 161.096 269.026 160.769C269.026 160.443 268.896 160.13 268.665 159.899C268.434 159.668 268.121 159.538 267.795 159.538ZM290.769 152.974C290.443 152.974 290.13 153.104 289.899 153.335C289.668 153.566 289.538 153.879 289.538 154.205V157.487C289.538 158.618 288.618 159.538 287.487 159.538H284.205C283.879 159.538 283.566 159.668 283.335 159.899C283.104 160.13 282.974 160.443 282.974 160.769C282.974 161.096 283.104 161.409 283.335 161.64C283.566 161.87 283.879 162 284.205 162H287.487C288.684 161.999 289.831 161.523 290.677 160.677C291.523 159.831 291.999 158.684 292 157.487V154.205C292 153.879 291.87 153.566 291.64 153.335C291.409 153.104 291.096 152.974 290.769 152.974ZM290.769 141.487H261.231C260.904 141.487 260.591 141.617 260.36 141.848C260.13 142.078 260 142.392 260 142.718C260 143.044 260.13 143.357 260.36 143.588C260.591 143.819 260.904 143.949 261.231 143.949H290.769C291.096 143.949 291.409 143.819 291.64 143.588C291.87 143.357 292 143.044 292 142.718C292 142.392 291.87 142.078 291.64 141.848C291.409 141.617 291.096 141.487 290.769 141.487ZM283.532 139.026C282.039 136.367 279.413 134.923 276 134.923C272.587 134.923 269.961 136.367 268.468 139.026H283.532ZM285.042 150.464C285.895 149.528 286.929 148.379 287.044 146.41H264.956C265.071 148.379 266.105 149.528 266.958 150.464C267.237 150.775 267.532 151.087 267.795 151.448C269.502 155.026 272.505 157.077 276 157.077C279.495 157.077 282.498 155.026 284.205 151.448C284.468 151.087 284.763 150.775 285.042 150.464Z" fill="#3FA1E3"/>
<g clip-path="url(#clip2_4950_2490)">
<path d="M353.652 92.6966C356.053 92.6966 358 90.7497 358 88.3484C358 85.9468 356.053 84 353.652 84C351.25 84 349.303 85.9468 349.303 88.3483C349.303 90.7497 351.25 92.6966 353.652 92.6966ZM353.652 85.875C355.016 85.875 356.125 86.9846 356.125 88.3483C356.125 89.712 355.016 90.8215 353.652 90.8215C352.288 90.8215 351.178 89.712 351.178 88.3483C351.178 86.9846 352.288 85.875 353.652 85.875ZM330.348 95.6517C327.947 95.6517 326 97.5985 326 100C326 102.401 327.947 104.348 330.348 104.348C332.75 104.348 334.697 102.401 334.697 100C334.697 97.5985 332.75 95.6517 330.348 95.6517ZM330.348 102.473C328.984 102.473 327.875 101.364 327.875 100C327.875 98.6363 328.984 97.5267 330.348 97.5267C331.712 97.5267 332.822 98.6363 332.822 100C332.822 101.364 331.712 102.473 330.348 102.473ZM353.652 95.6517C351.25 95.6517 349.303 97.5985 349.303 100C349.303 102.401 351.25 104.348 353.652 104.348C356.053 104.348 358 102.401 358 100C358 97.5985 356.053 95.6517 353.652 95.6517ZM353.652 102.473C352.288 102.473 351.178 101.364 351.178 100C351.178 98.6363 352.288 97.5267 353.652 97.5267C355.016 97.5267 356.125 98.6363 356.125 100C356.125 101.364 355.016 102.473 353.652 102.473ZM330.348 107.303C327.947 107.303 326 109.25 326 111.652C326 114.053 327.947 116 330.348 116C332.75 116 334.697 114.053 334.697 111.652C334.697 109.25 332.75 107.303 330.348 107.303ZM330.348 114.125C328.984 114.125 327.875 113.016 327.875 111.652C327.875 110.288 328.984 109.178 330.348 109.178C331.712 109.178 332.822 110.288 332.822 111.652C332.822 113.016 331.712 114.125 330.348 114.125Z" fill="#3FA1E3"/>
<path d="M353.652 107.303C351.685 107.303 350.024 108.61 349.487 110.402H346.165C345.747 109.006 344.646 107.905 343.25 107.487V104.165C345.042 103.628 346.348 101.967 346.348 100C346.348 98.0331 345.042 96.3721 343.25 95.835V92.5133C345.042 91.9761 346.348 90.3151 346.348 88.3483C346.348 85.9468 344.401 84 342 84C340.033 84 338.372 85.3062 337.835 87.0982H334.513C333.976 85.3062 332.315 84 330.348 84C327.947 84 326 85.9468 326 88.3483C326 90.7497 327.947 92.6965 330.348 92.6965C332.315 92.6965 333.976 91.3902 334.513 89.5982H337.835C338.253 90.9942 339.354 92.0948 340.75 92.5133V95.835C338.958 96.3721 337.652 98.0331 337.652 100C337.652 101.967 338.958 103.628 340.75 104.165V107.487C338.958 108.024 337.652 109.685 337.652 111.652C337.652 114.053 339.599 116 342 116C343.967 116 345.628 114.694 346.165 112.902H349.487C350.024 114.694 351.685 116 353.652 116C356.053 116 358 114.053 358 111.652C358 109.25 356.053 107.303 353.652 107.303Z" fill="#3FA1E3"/>
</g>
<g clip-path="url(#clip3_4950_2490)">
<path d="M20 80C25.3431 80 30.3644 82.0793 34.1426 85.8574C37.9207 89.6356 40 94.6569 40 100C40 105.343 37.9207 110.364 34.1426 114.143C30.3644 117.921 25.3431 120 20 120C14.6569 120 9.63556 117.921 5.85737 114.143C2.07926 110.364 0 105.343 0 100C0 94.6569 2.07934 89.6356 5.85737 85.8574C9.63556 82.0793 14.6569 80 20 80ZM20 103.046C13.8169 103.046 8.58797 107.741 7.88061 113.827L7.84856 114.102L8.0609 114.279C11.2951 116.987 15.4602 118.622 20 118.622C24.5399 118.622 28.706 116.988 31.9401 114.279L32.1514 114.102L32.1194 113.826C31.8033 111.11 30.5757 108.567 28.6288 106.62C26.3245 104.316 23.2577 103.046 20 103.046ZM20 81.3782C9.73144 81.3782 1.37821 89.7314 1.37821 100C1.37821 104.657 3.09689 108.92 5.93149 112.188L6.57953 112.935L6.81691 111.975C7.44405 109.437 8.79705 107.124 10.7462 105.308C12.092 104.055 13.6552 103.103 15.3446 102.487L16.2871 102.143L15.4567 101.581C13.2977 100.118 11.879 97.6466 11.879 94.8518C11.8792 90.3744 15.5226 86.7308 20 86.7308C24.4774 86.7308 28.1208 90.3744 28.121 94.8518C28.121 97.645 26.7036 100.116 24.5463 101.579L23.7159 102.141L24.6585 102.484C26.4939 103.153 28.1778 104.221 29.6024 105.645C31.3488 107.391 32.5869 109.58 33.1821 111.977L33.4195 112.936L34.0665 112.19C36.9022 108.922 38.6218 104.658 38.6218 100C38.6218 89.7314 30.2686 81.3782 20 81.3782ZM20 88.109C16.2818 88.109 13.2574 91.1332 13.2572 94.8518C13.2572 98.3976 16.0075 101.311 19.4872 101.574V101.596H20C23.7184 101.596 26.7428 98.5702 26.7428 94.8518C26.7426 91.1332 23.7182 88.109 20 88.109Z" fill="#232F6F"/>
<circle opacity="0.1" cx="86.1396" cy="161.141" r="52.5" fill="white"/>
</g>
<rect x="132" y="84" width="36" height="36" rx="18" fill="#131313"/>
<rect x="132" y="84" width="36" height="36" rx="18" stroke="#131313" stroke-width="4"/>
<path d="M150 86C141.2 86 134 93.2 134 102C134 110.8 141.2 118 150 118C158.8 118 166 110.8 166 102C166 93.2 158.8 86 150 86ZM156.72 99.28L149.04 106.96C148.4 107.6 147.44 107.6 146.8 106.96L143.28 103.44C142.64 102.8 142.64 101.84 143.28 101.2C143.92 100.56 144.88 100.56 145.52 101.2L147.92 103.6L154.48 97.04C155.12 96.4 156.08 96.4 156.72 97.04C157.36 97.68 157.36 98.64 156.72 99.28Z" fill="#3FA1E3"/>
<path opacity="0.6" d="M44 102H127" stroke="#3FA1E3" stroke-linecap="round" stroke-linejoin="round" stroke-dasharray="1 3"/>
<path opacity="0.6" d="M171 102H254" stroke="#3FA1E3" stroke-linecap="round" stroke-linejoin="round" stroke-dasharray="1 3"/>
</g>
<defs>
<filter id="filter0_f_4950_2490" x="199" y="-17" width="151" height="150" filterUnits="userSpaceOnUse" color-interpolation-filters="sRGB">
<feFlood flood-opacity="0" result="BackgroundImageFix"/>
<feBlend mode="normal" in="SourceGraphic" in2="BackgroundImageFix" result="shape"/>
<feGaussianBlur stdDeviation="16" result="effect1_foregroundBlur_4950_2490"/>
</filter>
<filter id="filter1_f_4950_2490" x="199" y="71" width="151" height="150" filterUnits="userSpaceOnUse" color-interpolation-filters="sRGB">
<feFlood flood-opacity="0" result="BackgroundImageFix"/>
<feBlend mode="normal" in="SourceGraphic" in2="BackgroundImageFix" result="shape"/>
<feGaussianBlur stdDeviation="16" result="effect1_foregroundBlur_4950_2490"/>
</filter>
<filter id="filter2_f_4950_2490" x="267" y="24" width="151" height="151" filterUnits="userSpaceOnUse" color-interpolation-filters="sRGB">
<feFlood flood-opacity="0" result="BackgroundImageFix"/>
<feBlend mode="normal" in="SourceGraphic" in2="BackgroundImageFix" result="shape"/>
<feGaussianBlur stdDeviation="16" result="effect1_foregroundBlur_4950_2490"/>
</filter>
<linearGradient id="paint0_linear_4950_2490" x1="173" y1="9" x2="173" y2="189" gradientUnits="userSpaceOnUse">
<stop stop-color="#3FA1E3"/>
<stop offset="1" stop-color="#3FA1E3" stop-opacity="0"/>
</linearGradient>
<linearGradient id="paint1_linear_4950_2490" x1="173" y1="9" x2="173" y2="189" gradientUnits="userSpaceOnUse">
<stop stop-color="#3FA1E3"/>
<stop offset="1" stop-color="#3FA1E3" stop-opacity="0"/>
</linearGradient>
<clipPath id="clip0_4950_2490">
<rect width="404" height="180" fill="white"/>
</clipPath>
<clipPath id="clip1_4950_2490">
<rect width="32" height="32" fill="white" transform="translate(260 43)"/>
</clipPath>
<clipPath id="clip2_4950_2490">
<rect width="32" height="32" fill="white" transform="translate(326 84)"/>
</clipPath>
<clipPath id="clip3_4950_2490">
<rect width="40" height="40" fill="white" transform="translate(0 80)"/>
</clipPath>
</defs>
</svg>
