<svg width="404" height="180" viewBox="0 0 404 180" fill="none" xmlns="http://www.w3.org/2000/svg">
<g clip-path="url(#clip0_4837_1870)">
<path d="M201.5 9V43M209.349 9.18945L207.712 43.15M217.06 9.74414L213.814 43.5889M224.854 10.6816L219.983 44.3308M233.289 12.1289L226.658 45.4761M240.95 13.8457L232.721 46.8349M248.404 15.8926L238.621 48.4545M255.867 18.332L244.526 50.3851M263.561 21.2754L250.615 52.7146M270.746 24.4375L256.302 55.2169M277.665 27.8867L261.778 57.9467M284.516 31.7207L267.2 60.9808M291.764 36.2715L272.936 64.5825M298.194 40.7754L278.025 68.147M304.308 45.5078L282.863 71.8923M310.279 50.6055L287.589 75.9268M316.76 56.7383L292.718 80.7799M322.176 62.4219L297.005 85.278M327.236 68.2656L301.009 89.9025M332.085 74.4395L304.847 94.7884M337.025 81.4277L308.757 100.319M341.229 88.0586L312.084 105.567M345.052 94.7773L315.109 110.884M348.604 101.779L317.921 116.425M351.964 109.301L320.579 122.378M354.808 116.619L322.831 128.17M357.262 123.949L324.772 133.971M359.395 131.504L326.46 139.95M361.302 139.848L327.97 146.553M362.665 147.58L329.049 152.673M363.642 155.248L329.822 158.741M364.26 163.074L330.311 164.935M364.505 171.994H330.505M72.505 171.994H38.505M72.6549 165.783L38.6943 164.146M73.0946 159.68L39.2499 156.434M73.8368 153.512L40.1876 148.64M74.983 146.836L41.6359 140.205M76.3414 140.773L43.3522 132.545M77.9629 134.873L45.401 125.089M79.8939 128.967L47.8409 117.627M82.2231 122.879L50.7839 109.934M84.7267 117.191L53.9472 102.748M87.4568 111.717L57.3968 95.8298M90.4918 106.295L61.2317 88.9789M94.0931 100.559L65.7821 81.7308M97.6577 95.4688L70.2861 75.2996M101.403 90.6309L75.0187 69.1865M105.437 85.9043L80.116 63.2144M110.292 80.7793L86.2507 56.7377M114.791 76.4922L91.9344 51.3208M119.417 72.4883L97.7796 46.2615M124.303 68.6504L103.954 41.4122M129.834 64.7422L110.942 36.4735M135.081 61.416L117.573 32.2705M140.4 58.3906L124.293 28.4478M145.941 55.5801L131.295 24.8964M151.893 52.9219L138.816 21.5374M157.685 50.6719L146.134 18.6942M163.487 48.7305L153.465 16.241M169.466 47.043L161.021 14.1087M176.069 45.5332L169.363 12.201M182.188 44.4551L177.095 10.8387M188.257 43.6836L184.764 9.86352M194.451 43.1953L192.59 9.24626" stroke="url(#paint0_linear_4837_1870)" stroke-width="1.5"/>
<g opacity="0.2" filter="url(#filter0_f_4837_1870)">
<circle cx="200.5" cy="156.5" r="72.5" fill="#3FA1E3"/>
</g>
<path d="M167.718 153.422L181.652 129.917C182.912 127.79 185.201 126.486 187.673 126.486H212.328C214.8 126.486 217.089 127.79 218.349 129.917L232.283 153.422C233.577 155.605 233.588 158.318 232.312 160.512L218.34 184.526C217.087 186.68 214.782 188.006 212.29 188.006H187.711C185.219 188.006 182.914 186.68 181.661 184.526L167.689 160.512C166.413 158.318 166.424 155.605 167.718 153.422Z" fill="url(#paint1_linear_4837_1870)"/>
<path d="M196.382 137.344H188.42L176.478 156.382L188.42 177.15H196.382L184.44 156.382L196.382 137.344Z" fill="#131313"/>
<path d="M203.619 137.344H211.581L223.523 156.382L211.581 177.15H203.619L215.561 156.382L203.619 137.344Z" fill="#131313"/>
<g opacity="0.2" filter="url(#filter1_f_4837_1870)">
<circle cx="200" cy="158" r="52.5" stroke="#3FA1E3"/>
</g>
<g opacity="0.5" filter="url(#filter2_f_4837_1870)">
<path d="M158.131 154.075L177.081 122.406C178.345 120.293 180.626 119 183.087 119H216.913C219.374 119 221.655 120.293 222.919 122.406L241.869 154.075C243.183 156.27 243.194 159.008 241.898 161.214L222.911 193.545C221.653 195.685 219.357 197 216.874 197H183.126C180.643 197 178.347 195.685 177.089 193.545L158.102 161.214C156.806 159.008 156.817 156.27 158.131 154.075Z" stroke="#3FA1E3"/>
</g>
</g>
<defs>
<filter id="filter0_f_4837_1870" x="96" y="52" width="209" height="209" filterUnits="userSpaceOnUse" color-interpolation-filters="sRGB">
<feFlood flood-opacity="0" result="BackgroundImageFix"/>
<feBlend mode="normal" in="SourceGraphic" in2="BackgroundImageFix" result="shape"/>
<feGaussianBlur stdDeviation="16" result="effect1_foregroundBlur_4837_1870"/>
</filter>
<filter id="filter1_f_4837_1870" x="143" y="101" width="114" height="114" filterUnits="userSpaceOnUse" color-interpolation-filters="sRGB">
<feFlood flood-opacity="0" result="BackgroundImageFix"/>
<feBlend mode="normal" in="SourceGraphic" in2="BackgroundImageFix" result="shape"/>
<feGaussianBlur stdDeviation="2" result="effect1_foregroundBlur_4837_1870"/>
</filter>
<filter id="filter2_f_4837_1870" x="152.638" y="114.5" width="94.7249" height="87" filterUnits="userSpaceOnUse" color-interpolation-filters="sRGB">
<feFlood flood-opacity="0" result="BackgroundImageFix"/>
<feBlend mode="normal" in="SourceGraphic" in2="BackgroundImageFix" result="shape"/>
<feGaussianBlur stdDeviation="2" result="effect1_foregroundBlur_4837_1870"/>
</filter>
<linearGradient id="paint0_linear_4837_1870" x1="362.5" y1="177.311" x2="39" y2="177.311" gradientUnits="userSpaceOnUse">
<stop stop-color="#3FA1E3"/>
<stop offset="1" stop-color="#3FA1E3" stop-opacity="0.12"/>
</linearGradient>
<linearGradient id="paint1_linear_4837_1870" x1="200" y1="126.486" x2="200" y2="188.006" gradientUnits="userSpaceOnUse">
<stop stop-color="#3FA1E3" stop-opacity="0.35"/>
<stop offset="0.605793" stop-color="#3FA1E3"/>
</linearGradient>
<clipPath id="clip0_4837_1870">
<rect width="404" height="180" fill="white"/>
</clipPath>
</defs>
</svg>
