<svg width="480" height="400" viewBox="0 0 480 400" fill="none" xmlns="http://www.w3.org/2000/svg">
<path d="M316.466 175.278C313.879 164.898 308.098 155.485 299.906 148.434C290.52 140.356 278.547 135.908 266.19 135.908C256.919 135.908 248.039 138.304 240.202 142.882C231.901 135.274 221.018 131 209.583 131C185.054 131 165.007 150.597 164.207 174.989C155.727 177.365 148.049 182.2 142.18 188.945C134.974 197.223 131.002 207.837 131 218.824C131 243.915 151.366 264.327 176.401 264.327H303.276C328.311 264.327 348.677 243.915 348.677 218.824C348.677 198.707 335.365 181.034 316.466 175.278Z" fill="#0A0F2B" fill-opacity="0.8" stroke="url(#paint0_linear_4896_3117)"/>
<g opacity="0.2" filter="url(#filter0_f_4896_3117)">
<circle cx="236.5" cy="200.5" r="72.5" fill="#3FA1E3"/>
</g>
<path d="M168.096 207.373L182.882 182.431C184.142 180.304 186.431 179 188.903 179H215.097C217.569 179 219.858 180.304 221.118 182.431L235.904 207.373C237.198 209.556 237.209 212.269 235.933 214.463L221.109 239.941C219.856 242.096 217.551 243.421 215.059 243.421H188.941C186.449 243.421 184.144 242.096 182.891 239.941L168.067 214.463C166.791 212.269 166.802 209.556 168.096 207.373Z" fill="url(#paint1_linear_4896_3117)"/>
<path d="M198.21 190.373H189.873L177.368 210.309L189.873 232.057H198.21L185.705 210.309L198.21 190.373Z" fill="#131313"/>
<path d="M205.79 190.373H214.127L226.632 210.309L214.127 232.057H205.79L218.295 210.309L205.79 190.373Z" fill="#131313"/>
<circle cx="278" cy="211" r="34" fill="url(#paint2_linear_4896_3117)"/>
<mask id="mask0_4896_3117" style="mask-type:alpha" maskUnits="userSpaceOnUse" x="258" y="194" width="26" height="31">
<path d="M258.783 194.742H283.998V224.307H258.783V194.742Z" fill="#131313"/>
</mask>
<g mask="url(#mask0_4896_3117)">
<path fill-rule="evenodd" clip-rule="evenodd" d="M277.059 194.742H283.998L267.842 222.946C267.413 223.695 266.459 224.308 265.722 224.308H258.783L274.939 196.103C275.368 195.354 276.322 194.742 277.059 194.742Z" fill="#131313"/>
</g>
<mask id="mask1_4896_3117" style="mask-type:alpha" maskUnits="userSpaceOnUse" x="270" y="194" width="26" height="31">
<path d="M270.69 194.742H295.905V224.307H270.69V194.742Z" fill="#131313"/>
</mask>
<g mask="url(#mask1_4896_3117)">
<path fill-rule="evenodd" clip-rule="evenodd" d="M288.966 194.742H295.906L279.75 222.946C279.32 223.695 278.367 224.308 277.629 224.308H270.69L286.846 196.103C287.275 195.354 288.229 194.742 288.966 194.742Z" fill="#131313"/>
</g>
<rect x="94.5" y="294.5" width="87" height="87" rx="29.5" stroke="#232F6F"/>
<rect x="190.5" y="294.5" width="87" height="87" rx="29.5" stroke="#232F6F"/>
<rect x="286.5" y="294.5" width="87" height="87" rx="29.5" stroke="#232F6F"/>
<rect opacity="0.2" x="99" y="299" width="78" height="78" rx="25" fill="url(#paint3_radial_4896_3117)"/>
<rect opacity="0.2" x="99" y="299" width="78" height="78" rx="25" fill="url(#paint4_radial_4896_3117)"/>
<rect opacity="0.2" x="195" y="299" width="78" height="78" rx="25" fill="url(#paint5_radial_4896_3117)"/>
<rect opacity="0.2" x="291" y="299" width="78" height="78" rx="25" fill="url(#paint6_radial_4896_3117)"/>
<path d="M136.738 355C136.288 355 135.846 354.884 135.453 354.664L130.359 351.835C127.827 350.427 125.716 348.367 124.247 345.87C122.777 343.373 122.001 340.528 122 337.63V329.776C122 329.122 122.242 328.492 122.68 328.007C123.118 327.521 123.72 327.216 124.37 327.149C126.397 326.934 128.392 326.483 130.314 325.805C132.076 325.182 133.767 324.372 135.357 323.389C135.772 323.135 136.251 323 136.738 323C137.226 323 137.704 323.135 138.12 323.389C139.71 324.372 141.4 325.182 143.163 325.805C145.085 326.483 147.079 326.934 149.106 327.149C149.756 327.216 150.359 327.521 150.796 328.007C151.234 328.492 151.476 329.122 151.476 329.776V337.63C151.475 340.528 150.7 343.373 149.23 345.87C147.76 348.367 145.65 350.427 143.117 351.835L138.023 354.666C137.63 354.885 137.188 355 136.738 355ZM136.738 325.267C136.672 325.266 136.606 325.284 136.549 325.318C134.821 326.386 132.984 327.266 131.07 327.944C128.981 328.681 126.813 329.171 124.611 329.404C124.517 329.412 124.43 329.455 124.366 329.524C124.303 329.593 124.267 329.683 124.267 329.777V337.632C124.268 340.125 124.935 342.573 126.2 344.722C127.464 346.871 129.28 348.643 131.46 349.854L136.554 352.684C136.61 352.716 136.673 352.732 136.737 352.732C136.801 352.732 136.864 352.716 136.92 352.684L142.017 349.854C144.196 348.643 146.012 346.871 147.276 344.722C148.541 342.573 149.208 340.125 149.209 337.632V329.776C149.209 329.682 149.174 329.591 149.11 329.522C149.047 329.453 148.959 329.41 148.866 329.402C146.663 329.169 144.495 328.679 142.407 327.942C140.492 327.266 138.655 326.386 136.927 325.32C136.87 325.285 136.805 325.266 136.738 325.267Z" fill="#3FA1E3"/>
<path d="M135.982 342.367C135.704 342.367 135.436 342.265 135.229 342.08L131.828 339.057C131.617 338.853 131.493 338.577 131.482 338.284C131.471 337.991 131.573 337.706 131.768 337.487C131.962 337.268 132.234 337.133 132.526 337.11C132.818 337.087 133.107 337.178 133.334 337.364L135.91 339.652L140.824 334.411C140.925 334.3 141.047 334.21 141.184 334.147C141.32 334.084 141.467 334.048 141.617 334.042C141.768 334.036 141.918 334.06 142.058 334.112C142.199 334.165 142.328 334.245 142.438 334.348C142.547 334.451 142.635 334.574 142.697 334.711C142.758 334.848 142.792 334.996 142.796 335.147C142.799 335.297 142.773 335.446 142.718 335.586C142.664 335.726 142.582 335.854 142.478 335.962L136.809 342.009C136.703 342.122 136.575 342.212 136.433 342.274C136.291 342.336 136.137 342.367 135.982 342.367Z" fill="#3FA1E3"/>
<g opacity="0.3">
<path d="M423.738 355C423.288 355 422.846 354.884 422.453 354.664L417.359 351.835C414.827 350.427 412.716 348.367 411.247 345.87C409.777 343.373 409.001 340.528 409 337.63V329.776C409 329.122 409.242 328.492 409.68 328.007C410.118 327.521 410.72 327.216 411.37 327.149C413.397 326.934 415.392 326.483 417.314 325.805C419.076 325.182 420.767 324.372 422.357 323.389C422.772 323.135 423.251 323 423.738 323C424.226 323 424.704 323.135 425.12 323.389C426.71 324.372 428.4 325.182 430.163 325.805C432.085 326.483 434.079 326.934 436.106 327.149C436.756 327.216 437.359 327.521 437.796 328.007C438.234 328.492 438.476 329.122 438.476 329.776V337.63C438.475 340.528 437.7 343.373 436.23 345.87C434.76 348.367 432.65 350.427 430.117 351.835L425.023 354.666C424.63 354.885 424.188 355 423.738 355ZM423.738 325.267C423.672 325.266 423.606 325.284 423.549 325.318C421.821 326.386 419.984 327.266 418.07 327.944C415.981 328.681 413.813 329.171 411.611 329.404C411.517 329.412 411.43 329.455 411.366 329.524C411.303 329.593 411.267 329.683 411.267 329.777V337.632C411.268 340.125 411.935 342.573 413.2 344.722C414.464 346.871 416.28 348.643 418.46 349.854L423.554 352.684C423.61 352.716 423.673 352.732 423.737 352.732C423.801 352.732 423.864 352.716 423.92 352.684L429.017 349.854C431.196 348.643 433.012 346.871 434.276 344.722C435.541 342.573 436.208 340.125 436.209 337.632V329.776C436.209 329.682 436.174 329.591 436.11 329.522C436.047 329.453 435.959 329.41 435.866 329.402C433.663 329.169 431.495 328.679 429.407 327.942C427.492 327.266 425.655 326.386 423.927 325.32C423.87 325.285 423.805 325.266 423.738 325.267Z" fill="#3FA1E3"/>
<path d="M422.982 342.367C422.704 342.367 422.436 342.265 422.229 342.08L418.828 339.057C418.617 338.853 418.493 338.577 418.482 338.284C418.471 337.991 418.573 337.706 418.768 337.487C418.962 337.268 419.234 337.133 419.526 337.11C419.818 337.087 420.107 337.178 420.334 337.364L422.91 339.652L427.824 334.411C427.925 334.3 428.047 334.21 428.184 334.147C428.32 334.084 428.467 334.048 428.617 334.042C428.768 334.036 428.918 334.06 429.058 334.112C429.199 334.165 429.328 334.245 429.438 334.348C429.547 334.451 429.635 334.574 429.697 334.711C429.758 334.848 429.792 334.996 429.796 335.147C429.799 335.297 429.773 335.446 429.718 335.586C429.664 335.726 429.582 335.854 429.478 335.962L423.809 342.009C423.703 342.122 423.575 342.212 423.433 342.274C423.291 342.336 423.137 342.367 422.982 342.367Z" fill="#3FA1E3"/>
</g>
<g opacity="0.3">
<path d="M423.738 78C423.288 77.9995 422.846 77.884 422.453 77.6644L417.359 74.8347C414.827 73.4266 412.716 71.3674 411.247 68.87C409.777 66.3726 409.001 63.5278 409 60.6301V52.7758C409 52.1222 409.242 51.4918 409.68 51.0065C410.118 50.5212 410.72 50.2155 411.37 50.1486C413.397 49.9338 415.392 49.4828 417.314 48.8048C419.076 48.1818 420.767 47.372 422.357 46.3892C422.772 46.1347 423.251 46 423.738 46C424.226 46 424.704 46.1347 425.12 46.3892C426.71 47.3717 428.4 48.1815 430.163 48.8048C432.085 49.4828 434.079 49.9338 436.106 50.1486C436.756 50.2155 437.359 50.5212 437.796 51.0065C438.234 51.4918 438.476 52.1222 438.476 52.7758V60.6301C438.475 63.5278 437.7 66.3726 436.23 68.87C434.76 71.3674 432.65 73.4266 430.117 74.8347L425.023 77.6659C424.63 77.8851 424.188 78.0001 423.738 78ZM423.738 48.2666C423.672 48.266 423.606 48.2838 423.549 48.318C421.821 49.3859 419.984 50.2661 418.07 50.9437C415.981 51.6809 413.813 52.171 411.611 52.4039C411.517 52.4119 411.43 52.4546 411.366 52.5238C411.303 52.5929 411.267 52.6834 411.267 52.7773V60.6316C411.268 63.125 411.935 65.5729 413.2 67.7219C414.464 69.8709 416.28 71.6429 418.46 72.8545L423.554 75.6842C423.61 75.7156 423.673 75.7321 423.737 75.7321C423.801 75.7321 423.864 75.7156 423.92 75.6842L429.017 72.8545C431.196 71.6429 433.012 69.8709 434.276 67.7219C435.541 65.5729 436.208 63.125 436.209 60.6316V52.7758C436.209 52.6819 436.174 52.5914 436.11 52.5223C436.047 52.4531 435.959 52.4103 435.866 52.4024C433.663 52.1694 431.495 51.6794 429.407 50.9422C427.492 50.2656 425.655 49.3864 423.927 48.3195C423.87 48.2845 423.805 48.2662 423.738 48.2666Z" fill="#3FA1E3"/>
<path d="M422.982 65.367C422.704 65.3673 422.436 65.265 422.229 65.0798L418.828 62.0566C418.617 61.8534 418.493 61.5765 418.482 61.2839C418.471 60.9913 418.573 60.7056 418.768 60.4868C418.962 60.268 419.234 60.1329 419.526 60.11C419.818 60.087 420.107 60.1779 420.334 60.3636L422.91 62.6522L427.824 57.4114C427.925 57.3003 428.047 57.2104 428.184 57.147C428.32 57.0835 428.467 57.0478 428.617 57.0419C428.768 57.036 428.918 57.06 429.058 57.1125C429.199 57.165 429.328 57.245 429.438 57.3478C429.547 57.4506 429.635 57.5742 429.697 57.7113C429.758 57.8485 429.792 57.9965 429.796 58.1467C429.799 58.297 429.773 58.4464 429.718 58.5865C429.664 58.7265 429.582 58.8543 429.478 58.9624L423.809 65.0088C423.703 65.1221 423.575 65.2123 423.433 65.274C423.291 65.3356 423.137 65.3673 422.982 65.367Z" fill="#3FA1E3"/>
</g>
<path d="M231.828 326.114C235.98 321.962 242.734 321.962 246.886 326.114C250.908 330.136 251.034 336.6 247.263 340.775L246.886 341.172C244.181 343.879 240.325 344.828 236.703 343.86L234.835 345.706C234.493 346.045 234.032 346.235 233.55 346.235H232.879V346.938L232.868 347.13C232.847 347.32 232.797 347.507 232.718 347.683C232.613 347.917 232.46 348.127 232.268 348.298L232.266 348.3C231.892 348.632 231.378 348.814 230.844 348.748L230.458 348.703L230.374 349.603C230.334 350.026 230.148 350.422 229.848 350.722C229.548 351.022 229.152 351.207 228.729 351.246L227.828 351.332L227.874 351.718C227.905 351.991 227.876 352.268 227.786 352.527C227.695 352.786 227.547 353.023 227.353 353.217L226.104 354.466C225.763 354.807 225.299 355 224.815 355H219.824C218.816 355 218 354.184 218 353.176V348.185C218 347.945 218.047 347.708 218.138 347.487L218.216 347.325C218.3 347.167 218.407 347.022 218.534 346.895L229.071 336.357C228.111 332.721 229.131 328.811 231.828 326.114ZM245.555 327.445C242.138 324.028 236.576 324.028 233.159 327.445C230.826 329.778 230.015 333.219 231.026 336.341L231.203 336.889L230.795 337.295L219.882 348.208V353.118H224.79L226 351.906L225.739 349.638L228.504 349.377L228.675 347.569L228.765 346.612L229.721 346.723L230.996 346.87V344.353H233.524L236.183 341.732L236.727 341.907C239.858 342.922 243.229 342.168 245.555 339.841C248.972 336.424 248.972 330.862 245.555 327.445ZM239.316 328.61C240.716 327.211 242.99 327.211 244.39 328.61C245.789 330.01 245.789 332.284 244.39 333.684C242.99 335.084 240.716 335.084 239.316 333.684C237.916 332.284 237.916 330.01 239.316 328.61ZM243.059 329.941C242.394 329.277 241.312 329.277 240.647 329.941C239.982 330.606 239.982 331.688 240.647 332.353C241.312 333.018 242.394 333.018 243.059 332.353C243.723 331.688 243.723 330.606 243.059 329.941Z" fill="#3FA1E3"/>
<path opacity="0.3" d="M42.8284 142.114C46.9804 137.962 53.7339 137.962 57.886 142.114C61.9081 146.136 62.034 152.6 58.2634 156.775L57.886 157.172C55.1807 159.879 51.3254 160.828 47.7034 159.86L45.8345 161.706C45.4934 162.045 45.0322 162.235 44.5502 162.235H43.8786V162.938L43.8676 163.13C43.8473 163.32 43.7968 163.507 43.7181 163.683C43.6131 163.917 43.4598 164.127 43.2684 164.298L43.2659 164.3C42.8915 164.632 42.3779 164.814 41.8443 164.748L41.4583 164.703L41.3737 165.603C41.3342 166.026 41.1483 166.422 40.848 166.722C40.5477 167.022 40.152 167.207 39.7291 167.246L38.8284 167.332L38.8738 167.718C38.9053 167.991 38.8757 168.268 38.7855 168.527C38.6952 168.786 38.5471 169.023 38.3529 169.217L37.1041 170.466C36.7625 170.807 36.2992 171 35.8149 171H30.8235C29.816 171 29 170.184 29 169.176V164.185C29 163.945 29.0468 163.708 29.1385 163.487L29.2157 163.325C29.3001 163.167 29.4072 163.022 29.5343 162.895L40.0711 152.357C39.1106 148.721 40.1314 144.811 42.8284 142.114ZM56.5551 143.445C53.1382 140.028 47.5762 140.028 44.1593 143.445C41.8261 145.778 41.0146 149.219 42.0257 152.341L42.2034 152.889L41.7953 153.295L30.8823 164.208V169.118H35.7904L37 167.906L36.739 165.638L39.5037 165.377L39.6752 163.569L39.7647 162.612L40.7206 162.723L41.9963 162.87V160.353H44.5245L47.1826 157.732L47.7267 157.907C50.858 158.922 54.2294 158.168 56.5551 155.841C59.972 152.424 59.972 146.862 56.5551 143.445ZM50.3161 144.61C51.716 143.211 53.9899 143.211 55.3896 144.61C56.7894 146.01 56.7892 148.284 55.3896 149.684C53.9898 151.084 51.716 151.084 50.3161 149.684C48.9163 148.284 48.9163 146.01 50.3161 144.61ZM54.0588 145.941C53.3941 145.277 52.3118 145.277 51.647 145.941C50.9823 146.606 50.9823 147.688 51.647 148.353C52.3117 149.018 53.394 149.018 54.0588 148.353C54.7232 147.688 54.7234 146.606 54.0588 145.941Z" fill="#3FA1E3"/>
<path d="M329.739 355C329.289 355 328.847 354.885 328.454 354.666L323.359 351.835C320.827 350.427 318.716 348.367 317.246 345.87C315.777 343.372 315.001 340.528 315 337.63V329.775C315 329.122 315.242 328.491 315.68 328.006C316.118 327.521 316.72 327.215 317.37 327.148C319.397 326.933 321.392 326.482 323.314 325.804C325.076 325.181 326.766 324.372 328.355 323.388H328.357C328.773 323.134 329.251 323 329.739 323C330.226 323 330.704 323.134 331.12 323.388C332.71 324.371 334.401 325.181 336.163 325.804C338.085 326.482 340.08 326.933 342.107 327.148C342.757 327.215 343.359 327.521 343.797 328.006C344.235 328.491 344.477 329.122 344.477 329.775V337.63C344.476 340.528 343.7 343.372 342.231 345.87C340.761 348.367 338.651 350.427 336.118 351.835L331.023 354.666C330.631 354.885 330.188 355 329.739 355ZM329.55 325.319C327.822 326.386 325.985 327.265 324.07 327.942C321.981 328.679 319.813 329.169 317.611 329.402C317.517 329.41 317.43 329.452 317.366 329.522C317.303 329.591 317.268 329.681 317.267 329.775V337.63C317.268 340.123 317.935 342.571 319.2 344.72C320.465 346.869 322.281 348.641 324.46 349.853L329.554 352.683C329.61 352.715 329.674 352.732 329.739 352.732C329.803 352.732 329.867 352.715 329.923 352.683L335.017 349.853C337.197 348.641 339.013 346.869 340.277 344.72C341.542 342.571 342.209 340.123 342.21 337.63V329.775C342.21 329.681 342.174 329.591 342.111 329.522C342.047 329.452 341.96 329.41 341.867 329.402C339.664 329.169 337.496 328.679 335.407 327.942C333.492 327.265 331.655 326.386 329.928 325.319C329.87 325.284 329.805 325.266 329.739 325.266C329.672 325.266 329.607 325.284 329.55 325.319Z" fill="#3FA1E3"/>
<path d="M333.518 346.902H325.959C325.058 346.901 324.193 346.542 323.555 345.905C322.918 345.267 322.559 344.402 322.558 343.501V338.966C322.559 338.064 322.918 337.199 323.555 336.562C324.193 335.924 325.058 335.565 325.959 335.564H333.518C334.42 335.565 335.284 335.924 335.922 336.562C336.56 337.199 336.918 338.064 336.919 338.966V343.501C336.918 344.402 336.56 345.267 335.922 345.905C335.284 346.542 334.42 346.901 333.518 346.902ZM325.959 337.832C325.659 337.832 325.37 337.951 325.158 338.164C324.945 338.377 324.826 338.665 324.826 338.966V343.501C324.826 343.801 324.945 344.09 325.158 344.302C325.37 344.515 325.659 344.634 325.959 344.634H333.518C333.818 344.634 334.107 344.515 334.319 344.302C334.532 344.09 334.651 343.801 334.651 343.501V338.966C334.651 338.665 334.532 338.377 334.319 338.164C334.107 337.951 333.818 337.832 333.518 337.832H325.959Z" fill="#3FA1E3"/>
<path d="M332.762 337.832H326.715C326.415 337.832 326.126 337.712 325.914 337.5C325.701 337.287 325.582 336.999 325.582 336.698V333.675C325.582 332.572 326.02 331.515 326.799 330.735C327.579 329.956 328.636 329.518 329.739 329.518C330.841 329.518 331.898 329.956 332.678 330.735C333.458 331.515 333.896 332.572 333.896 333.675V336.698C333.896 336.999 333.776 337.287 333.564 337.5C333.351 337.712 333.063 337.832 332.762 337.832ZM327.849 335.564H331.628V333.675C331.628 333.173 331.429 332.693 331.075 332.338C330.72 331.984 330.24 331.785 329.739 331.785C329.237 331.785 328.757 331.984 328.402 332.338C328.048 332.693 327.849 333.173 327.849 333.675V335.564Z" fill="#3FA1E3"/>
<g opacity="0.3">
<path d="M44.7386 264C44.2888 264 43.8465 263.885 43.4537 263.666L38.3594 260.835C35.8266 259.427 33.7161 257.367 32.2464 254.87C30.7767 252.372 30.0011 249.528 30 246.63V238.775C29.9999 238.122 30.2422 237.491 30.6801 237.006C31.1179 236.521 31.7201 236.215 32.3703 236.148C34.3971 235.933 36.3919 235.482 38.3141 234.804C40.076 234.181 41.7661 233.372 43.3554 232.388H43.3569C43.773 232.134 44.2511 232 44.7386 232C45.2261 232 45.7041 232.134 46.1202 232.388C47.7101 233.371 49.4007 234.181 51.1631 234.804C53.0853 235.482 55.08 235.933 57.1069 236.148C57.757 236.215 58.3592 236.521 58.7971 237.006C59.2349 237.491 59.4772 238.122 59.4771 238.775V246.63C59.476 249.528 58.7005 252.372 57.2307 254.87C55.761 257.367 53.6505 259.427 51.1177 260.835L46.0235 263.666C45.6306 263.885 45.1883 264 44.7386 264ZM44.5496 234.319C42.8218 235.386 40.9847 236.265 39.0699 236.942C36.9812 237.679 34.8133 238.169 32.6106 238.402C32.517 238.41 32.4299 238.452 32.3663 238.522C32.3028 238.591 32.2675 238.681 32.2675 238.775V246.63C32.2683 249.123 32.9355 251.571 34.2 253.72C35.4646 255.869 37.2805 257.641 39.4599 258.853L44.5541 261.683C44.6103 261.715 44.6738 261.732 44.7386 261.732C44.8033 261.732 44.8669 261.715 44.923 261.683L50.0172 258.853C52.1966 257.641 54.0125 255.869 55.2771 253.72C56.5416 251.571 57.2088 249.123 57.2096 246.63V238.775C57.2096 238.681 57.1743 238.591 57.1108 238.522C57.0472 238.452 56.9601 238.41 56.8665 238.402C54.6638 238.169 52.4959 237.679 50.4072 236.942C48.4924 236.265 46.6554 235.386 44.9275 234.319C44.8705 234.284 44.8052 234.266 44.7386 234.266C44.672 234.266 44.6066 234.284 44.5496 234.319Z" fill="#3FA1E3"/>
<path d="M48.5177 255.902H40.9595C40.0577 255.901 39.193 255.542 38.5554 254.905C37.9177 254.267 37.5591 253.402 37.5583 252.501V247.966C37.5591 247.064 37.9177 246.199 38.5554 245.562C39.193 244.924 40.0577 244.565 40.9595 244.564H48.5177C49.4195 244.565 50.2842 244.924 50.9219 245.562C51.5595 246.199 51.9181 247.064 51.9189 247.966V252.501C51.9181 253.402 51.5595 254.267 50.9219 254.905C50.2842 255.542 49.4195 255.901 48.5177 255.902ZM40.9595 246.832C40.6588 246.832 40.3704 246.951 40.1578 247.164C39.9452 247.377 39.8258 247.665 39.8258 247.966V252.501C39.8258 252.801 39.9452 253.09 40.1578 253.302C40.3704 253.515 40.6588 253.634 40.9595 253.634H48.5177C48.8184 253.634 49.1068 253.515 49.3194 253.302C49.532 253.09 49.6515 252.801 49.6515 252.501V247.966C49.6515 247.665 49.532 247.377 49.3194 247.164C49.1068 246.951 48.8184 246.832 48.5177 246.832H40.9595Z" fill="#3FA1E3"/>
<path d="M47.7619 246.832H41.7153C41.4146 246.832 41.1262 246.712 40.9136 246.5C40.701 246.287 40.5815 245.999 40.5815 245.698V242.675C40.5815 241.572 41.0195 240.515 41.7991 239.735C42.5787 238.956 43.6361 238.518 44.7386 238.518C45.8411 238.518 46.8984 238.956 47.678 239.735C48.4576 240.515 48.8956 241.572 48.8956 242.675V245.698C48.8956 245.999 48.7762 246.287 48.5635 246.5C48.3509 246.712 48.0626 246.832 47.7619 246.832ZM42.849 244.564H46.6281V242.675C46.6281 242.173 46.4291 241.693 46.0747 241.338C45.7203 240.984 45.2397 240.785 44.7386 240.785C44.2374 240.785 43.7568 240.984 43.4025 241.338C43.0481 241.693 42.849 242.173 42.849 242.675V244.564Z" fill="#3FA1E3"/>
</g>
<defs>
<filter id="filter0_f_4896_3117" x="132" y="96" width="209" height="209" filterUnits="userSpaceOnUse" color-interpolation-filters="sRGB">
<feFlood flood-opacity="0" result="BackgroundImageFix"/>
<feBlend mode="normal" in="SourceGraphic" in2="BackgroundImageFix" result="shape"/>
<feGaussianBlur stdDeviation="16" result="effect1_foregroundBlur_4896_3117"/>
</filter>
<linearGradient id="paint0_linear_4896_3117" x1="239.839" y1="131" x2="239.839" y2="264.327" gradientUnits="userSpaceOnUse">
<stop stop-color="#3FA1E3"/>
<stop offset="1" stop-color="#3FA1E3" stop-opacity="0.35"/>
</linearGradient>
<linearGradient id="paint1_linear_4896_3117" x1="202" y1="179" x2="202" y2="243.421" gradientUnits="userSpaceOnUse">
<stop stop-color="#3FA1E3" stop-opacity="0.35"/>
<stop offset="0.605793" stop-color="#3FA1E3"/>
</linearGradient>
<linearGradient id="paint2_linear_4896_3117" x1="278" y1="177" x2="278" y2="245" gradientUnits="userSpaceOnUse">
<stop stop-color="#3FA1E3" stop-opacity="0.35"/>
<stop offset="0.605793" stop-color="#3FA1E3"/>
</linearGradient>
<radialGradient id="paint3_radial_4896_3117" cx="0" cy="0" r="1" gradientUnits="userSpaceOnUse" gradientTransform="translate(138 338) rotate(90) scale(39)">
<stop offset="0.480792" stop-color="#232F6F" stop-opacity="0"/>
<stop offset="1" stop-color="#232F6F"/>
</radialGradient>
<radialGradient id="paint4_radial_4896_3117" cx="0" cy="0" r="1" gradientUnits="userSpaceOnUse" gradientTransform="translate(138 338) rotate(90) scale(39)">
<stop offset="0.480792" stop-color="#232F6F" stop-opacity="0"/>
<stop offset="1" stop-color="#232F6F"/>
</radialGradient>
<radialGradient id="paint5_radial_4896_3117" cx="0" cy="0" r="1" gradientUnits="userSpaceOnUse" gradientTransform="translate(234 338) rotate(90) scale(39)">
<stop offset="0.480792" stop-color="#232F6F" stop-opacity="0"/>
<stop offset="1" stop-color="#232F6F"/>
</radialGradient>
<radialGradient id="paint6_radial_4896_3117" cx="0" cy="0" r="1" gradientUnits="userSpaceOnUse" gradientTransform="translate(330 338) rotate(90) scale(39)">
<stop offset="0.480792" stop-color="#232F6F" stop-opacity="0"/>
<stop offset="1" stop-color="#232F6F"/>
</radialGradient>
</defs>
</svg>
