<svg width="33" height="34" viewBox="0 0 33 34" fill="none" xmlns="http://www.w3.org/2000/svg">
<path opacity="0.4" d="M26.9761 9.45361C27.4813 22.1217 19.8612 27.7629 15.9881 29C12.1149 27.7629 4.5188 22.1217 5.024 9.45361C6.37119 9.28866 9.19186 8.16701 9.69706 5H15.9881H16.012H22.303C22.8082 8.16701 25.6289 9.28866 26.9761 9.45361Z" fill="#3FA1E3"/>
<path d="M15.9837 1H24.595C25.2839 5.22268 29.1303 6.71821 30.9674 6.93814C31.6563 23.8289 21.2653 31.3505 15.9837 33C10.7021 31.3505 0.343822 23.8289 1.03273 6.93814C2.8698 6.71821 6.71617 5.22268 7.40508 1H16.0164" stroke="#0D1541" stroke-width="1.5" stroke-linecap="round"/>
<circle cx="16" cy="12" r="4" stroke="#0D1541" stroke-width="1.5" stroke-linecap="round"/>
<path d="M16 16V25.0722" stroke="#0D1541" stroke-width="1.5" stroke-linecap="round"/>
<path d="M16.165 20.2881H18.8042" stroke="#0D1541" stroke-width="1.5" stroke-linecap="round"/>
<path d="M16.165 22.9277H19.9589" stroke="#0D1541" stroke-width="1.5" stroke-linecap="round"/>
</svg>
