<svg width="32" height="32" viewBox="0 0 32 32" fill="none" xmlns="http://www.w3.org/2000/svg">
<g clip-path="url(#clip0_508_1638)">
<path d="M21.4091 31.1042L17.1999 20.2769L17.8181 19.9952C19.683 19.1402 20.7006 17.102 20.2633 15.0978C19.826 13.0936 18.0514 11.6647 16.0001 11.6647C13.9485 11.6647 12.1742 13.0936 11.7369 15.0978C11.2993 17.102 12.3169 19.1402 14.1818 19.9952L14.8 20.2769L10.5908 31.1042L9.90902 30.8225C3.90371 28.3634 -0.0143426 22.5118 3.94611e-05 16.0222C3.94611e-05 7.20417 7.18175 0.0224609 16.0001 0.0224609C24.8182 0.0224609 31.9999 7.20417 31.9999 16.0222C32.0143 22.5118 28.0965 28.3634 22.0909 30.8225L21.4091 31.1042ZM19.0363 20.9859L22.2182 29.1768C27.3121 26.7803 30.5587 21.652 30.5454 16.0222C30.5454 8.00424 24.0181 1.47691 16.0001 1.47691C7.98182 1.47691 1.45449 8.00424 1.45449 16.0222C1.44144 21.652 4.68779 26.7803 9.78198 29.1768L12.9636 20.9859C10.7408 19.626 9.69329 16.9539 10.3996 14.4458C11.1062 11.9375 13.3943 10.2047 16.0001 10.2047C18.6059 10.2047 20.894 11.9375 21.6003 14.4458C22.3066 16.9539 21.2591 19.626 19.0363 20.9859Z" fill="#3FA1E3"/>
</g>
<defs>
<clipPath id="clip0_508_1638">
<rect width="32" height="32" fill="white"/>
</clipPath>
</defs>
</svg>
