<svg width="33" height="32" viewBox="0 0 33 32" fill="none" xmlns="http://www.w3.org/2000/svg">
<g clip-path="url(#clip0_1526_2456)">
<path opacity="0.4" d="M11 24V16H23V24H11Z" fill="#3FA1E3"/>
<g clip-path="url(#clip1_1526_2456)">
<path d="M29.8991 3.78441C26.3828 3.78441 19.9846 3.06842 17.9804 0.429483C17.6398 -0.105641 16.8945 -0.153265 16.4875 0.357484C14.1279 2.99592 7.71487 3.78441 3.9375 3.78441C3.41969 3.78441 3 4.20554 3 4.72529V19.7819C3 26.5634 10.8061 30.706 16.7197 31.994C17.4833 32.16 30.8366 28.7775 30.8366 19.7819V4.72535C30.8366 4.20585 30.4169 3.78448 29.8991 3.78448L29.8991 3.78441ZM28.9616 19.782C28.9616 26.8491 18.5024 29.7146 16.9182 30.1074C15.334 29.7146 4.875 26.8491 4.875 19.782V5.65579C12.1145 5.48854 15.7249 3.40335 17.1602 2.27298C20.0522 4.83085 25.1098 5.56841 28.9616 5.6561V19.782Z" fill="#0D1541"/>
<path d="M12.2336 12.2226V15.0771H11.293C10.7753 15.0771 10.3555 15.4985 10.3555 16.018V23.5463C10.3555 24.0661 10.7753 24.4875 11.293 24.4875H22.543C23.0608 24.4875 23.4805 24.0661 23.4805 23.5463V16.018C23.4805 15.4985 23.0608 15.0771 22.543 15.0771H14.1086V12.2227C14.1086 10.752 15.2668 9.43095 16.9463 9.43095C18.48 9.43095 19.7275 10.6831 19.7275 12.2227C19.7275 12.7422 20.1474 13.1636 20.665 13.1636C21.1828 13.1636 21.6025 12.7422 21.6025 12.2227C21.6025 9.64552 19.5139 7.54883 16.9463 7.54883C14.2165 7.54883 12.2336 9.73045 12.2336 12.2226ZM21.6055 22.6055H12.2305V16.9592H21.6055V22.6055Z" fill="#0D1541"/>
<path d="M17.8555 19.7818C17.8555 19.2619 17.4358 18.8408 16.918 18.8408C16.4005 18.8408 15.9805 19.2619 15.9805 19.7818C15.9805 20.3015 16.4005 20.7229 16.918 20.7229C17.4358 20.7229 17.8555 20.3015 17.8555 19.7818Z" fill="#0D1541"/>
</g>
</g>
<defs>
<clipPath id="clip0_1526_2456">
<rect width="32" height="32" fill="white" transform="translate(0.5)"/>
</clipPath>
<clipPath id="clip1_1526_2456">
<rect width="32" height="32" fill="white" transform="translate(1)"/>
</clipPath>
</defs>
</svg>
