<svg width="32" height="32" viewBox="0 0 32 32" fill="none" xmlns="http://www.w3.org/2000/svg">
<g clip-path="url(#clip0_508_1650)">
<path d="M24.9199 19.7894H26.166V19.7896C27.5881 19.7897 28.9612 19.2704 30.0273 18.3293C31.0934 17.3882 31.7791 16.0901 31.9555 14.679C32.1318 13.268 31.7867 11.841 30.9851 10.6665C30.1834 9.49195 28.9803 8.65065 27.6019 8.30074C27.9553 6.7228 27.7359 5.0706 26.9828 3.63962C26.2298 2.20864 24.9922 1.09222 23.4915 0.490014C21.9908 -0.112193 20.3248 -0.160909 18.7915 0.35258C17.2581 0.866069 15.9575 1.90827 15.1221 3.2928C14.4676 3.01945 13.7655 2.87848 13.0563 2.87805C12.3471 2.87761 11.6449 3.01772 10.9901 3.29028C10.3354 3.56284 9.7411 3.96244 9.24168 4.46599C8.74227 4.96954 8.34758 5.56707 8.08044 6.22405C7.14577 6.0521 6.18553 6.07684 5.26095 6.29668C4.33638 6.51652 3.46777 6.92665 2.71053 7.50089C1.95329 8.07514 1.32404 8.8009 0.862919 9.63189C0.401798 10.4629 0.118927 11.3808 0.0323472 12.3272C-0.0542322 13.2736 0.0573809 14.2277 0.360068 15.1286C0.662754 16.0294 1.14987 16.8573 1.79035 17.5594C2.43082 18.2615 3.21059 18.8225 4.07993 19.2064C4.94927 19.5904 5.88909 19.7889 6.83944 19.7894H7.49535L8.00804 18.5397H6.83944C6.1039 18.5422 5.3751 18.3994 4.69484 18.1197C4.01458 17.8399 3.39623 17.4286 2.87526 16.9094C2.35428 16.3901 1.94091 15.7731 1.65886 15.0938C1.37681 14.4145 1.23162 13.6862 1.23162 12.9506C1.23162 12.2151 1.37681 11.4868 1.65886 10.8075C1.94091 10.1281 2.35428 9.51117 2.87526 8.99193C3.39623 8.47269 4.01458 8.06139 4.69484 7.78162C5.3751 7.50184 6.1039 7.35909 6.83944 7.36155C7.34056 7.36121 7.83947 7.42808 8.32281 7.56036C8.48195 7.60406 8.65192 7.58305 8.79562 7.50191C8.93933 7.42076 9.0451 7.28608 9.08988 7.12724C9.25929 6.52696 9.56286 5.97301 9.97766 5.5072C10.3925 5.04139 10.9077 4.6759 11.4844 4.43831C12.0611 4.20072 12.6842 4.09724 13.3068 4.13569C13.9293 4.17413 14.535 4.3535 15.0781 4.66024C15.1524 4.70233 15.2347 4.72871 15.3197 4.73777C15.4046 4.74682 15.4906 4.73835 15.5722 4.71287C15.6537 4.6874 15.7292 4.64546 15.794 4.58966C15.8587 4.53385 15.9113 4.46536 15.9485 4.38842C16.5639 3.1137 17.6423 2.12162 18.9638 1.61434C20.2853 1.10707 21.7505 1.12278 23.0608 1.65827C24.3711 2.19376 25.4279 3.20873 26.0159 4.49635C26.6038 5.78397 26.6787 7.24734 26.2252 8.58824C26.1955 8.67605 26.1858 8.76937 26.1966 8.86143C26.2074 8.95349 26.2386 9.04198 26.2879 9.12049C26.3372 9.19901 26.4033 9.26558 26.4815 9.3154C26.5596 9.36521 26.6479 9.39701 26.7399 9.40849C27.8965 9.55457 28.954 10.1359 29.6972 11.0341C30.4403 11.9324 30.8133 13.08 30.7402 14.2436C30.6671 15.4071 30.1533 16.499 29.3036 17.2972C28.4538 18.0953 27.3318 18.5396 26.166 18.5397H24.3432L24.9199 19.7894Z" fill="#3FA1E3"/>
<path d="M23.875 21.6646C23.875 21.4862 23.8404 21.3128 23.7722 21.1492C23.7722 21.1491 23.7721 21.149 23.7721 21.1489L22.2827 17.5748C22.0739 17.0737 21.5882 16.75 21.0454 16.75H11.4546C10.9118 16.75 10.4261 17.0737 10.2173 17.5748L8.72776 21.1492C8.65958 21.3128 8.625 21.4862 8.625 21.6646V23.5112C8.625 23.8543 8.75468 24.1675 8.96738 24.4048C8.75468 24.6421 8.625 24.9553 8.625 25.2983V27.0854C8.625 27.4285 8.75468 27.7417 8.96738 27.979C8.75468 28.2163 8.625 28.5295 8.625 28.8726V30.6597C8.625 31.3987 9.22627 32 9.96533 32H22.5347C23.2737 32 23.875 31.3987 23.875 30.6597V28.8726C23.875 28.5295 23.7453 28.2163 23.5326 27.979C23.7453 27.7417 23.875 27.4285 23.875 27.0854V25.2983C23.875 24.9553 23.7453 24.6421 23.5326 24.4048C23.7453 24.1675 23.875 23.8543 23.875 23.5112V21.6646ZM11.0422 17.9185C11.1118 17.7515 11.2736 17.6436 11.4546 17.6436H21.0454C21.2264 17.6436 21.3882 17.7515 21.4578 17.9185L22.4604 20.3242H10.0396L11.0422 17.9185ZM22.9814 30.6597C22.9814 30.906 22.781 31.1064 22.5347 31.1064H9.96533C9.71898 31.1064 9.51855 30.906 9.51855 30.6597V28.8726C9.51855 28.6262 9.71898 28.4258 9.96533 28.4258H22.5347C22.781 28.4258 22.9814 28.6262 22.9814 28.8726V30.6597ZM22.9814 27.0854C22.9814 27.3318 22.781 27.5322 22.5347 27.5322H9.96533C9.71898 27.5322 9.51855 27.3318 9.51855 27.0854V25.2983C9.51855 25.052 9.71898 24.8516 9.96533 24.8516H22.5347C22.781 24.8516 22.9814 25.052 22.9814 25.2983V27.0854ZM22.9814 23.5112C22.9814 23.7576 22.781 23.958 22.5347 23.958H9.96533C9.71898 23.958 9.51855 23.7576 9.51855 23.5112V21.6646C9.51855 21.4161 9.71919 21.2178 9.96533 21.2178H22.5347C22.7816 21.2178 22.9814 21.4169 22.9814 21.6646V23.5112Z" fill="#3FA1E3"/>
<path d="M21.6411 29.3193H13.5396C13.2928 29.3193 13.0928 29.5194 13.0928 29.7661C13.0928 30.0129 13.2928 30.2129 13.5396 30.2129H21.6411C21.8879 30.2129 22.0879 30.0129 22.0879 29.7661C22.0879 29.5194 21.8879 29.3193 21.6411 29.3193Z" fill="#3FA1E3"/>
<path d="M21.6411 22.1113H13.5396C13.2928 22.1113 13.0928 22.3114 13.0928 22.5581C13.0928 22.8048 13.2928 23.0049 13.5396 23.0049H21.6411C21.8879 23.0049 22.0879 22.8048 22.0879 22.5581C22.0879 22.3114 21.8879 22.1113 21.6411 22.1113Z" fill="#3FA1E3"/>
<path d="M10.8589 22.1113C10.6121 22.1113 10.4121 22.3114 10.4121 22.5581C10.4121 22.8048 10.6121 23.0645 10.8589 23.0645C11.1056 23.0645 11.3057 22.8048 11.3057 22.5581C11.3057 22.3114 11.1056 22.1113 10.8589 22.1113Z" fill="#3FA1E3"/>
<path d="M21.6411 25.7451H13.5396C13.2928 25.7451 13.0928 25.9452 13.0928 26.1919C13.0928 26.4386 13.2928 26.6387 13.5396 26.6387H21.6411C21.8879 26.6387 22.0879 26.4386 22.0879 26.1919C22.0879 25.9452 21.8879 25.7451 21.6411 25.7451Z" fill="#3FA1E3"/>
<path d="M10.8589 26.6387C11.1056 26.6387 11.3057 26.4386 11.3057 26.1919C11.3057 25.9451 11.1056 25.7451 10.8589 25.7451C10.6121 25.7451 10.4121 25.9451 10.4121 26.1919C10.4121 26.4386 10.6121 26.6387 10.8589 26.6387Z" fill="#3FA1E3"/>
<path d="M10.8589 30.2129C11.1056 30.2129 11.3057 30.0129 11.3057 29.7661C11.3057 29.5194 11.1056 29.3193 10.8589 29.3193C10.6121 29.3193 10.4121 29.5194 10.4121 29.7661C10.4121 30.0129 10.6121 30.2129 10.8589 30.2129Z" fill="#3FA1E3"/>
<path fill-rule="evenodd" clip-rule="evenodd" d="M16.1875 8.5C15.7733 8.5 15.4375 8.83579 15.4375 9.25V10.875H13.8125C13.3983 10.875 13.0625 11.2108 13.0625 11.625C13.0625 12.0392 13.3983 12.375 13.8125 12.375H15.4375V14C15.4375 14.4142 15.7733 14.75 16.1875 14.75C16.6017 14.75 16.9375 14.4142 16.9375 14V12.375H18.5625C18.9767 12.375 19.3125 12.0392 19.3125 11.625C19.3125 11.2108 18.9767 10.875 18.5625 10.875H16.9375V9.25C16.9375 8.83579 16.6017 8.5 16.1875 8.5Z" fill="#3FA1E3"/>
</g>
<defs>
<clipPath id="clip0_508_1650">
<rect width="32" height="32" fill="white"/>
</clipPath>
</defs>
</svg>
