<svg width="48" height="48" viewBox="0 0 48 48" fill="none" xmlns="http://www.w3.org/2000/svg">
<circle cx="24" cy="24" r="24" fill="#9BE0F6"/>
<g clip-path="url(#clip0_1525_2118)">
<path d="M30.3492 22.7191H36.0003C35.487 18.149 32.4132 14.3428 28.251 12.7725C28.446 13.1712 28.636 13.6128 28.8188 14.1023C29.6997 16.461 30.2326 19.4808 30.3492 22.7191Z" fill="white"/>
<path d="M36.0003 25.4336H30.3492C30.2326 28.672 29.6996 31.6918 28.8188 34.0504C28.636 34.54 28.446 34.9815 28.251 35.3803C32.4132 33.8099 35.487 30.0037 36.0003 25.4336Z" fill="white"/>
<path d="M19.1814 14.1023C19.3643 13.6128 19.5542 13.1712 19.7493 12.7725C15.5871 14.3428 12.5134 18.149 12 22.7191H17.6511C17.7677 19.4808 18.3006 16.461 19.1814 14.1023Z" fill="white"/>
<path d="M19.7494 35.3803C19.5543 34.9815 19.3644 34.54 19.1815 34.0504C18.3007 31.6918 17.7678 28.6721 17.6511 25.4336H12C12.5134 30.0037 15.5871 33.8099 19.7494 35.3803Z" fill="white"/>
<path d="M24.0008 36.1534C25.1689 36.1534 27.3767 32.3826 27.6354 25.4336H20.3662C20.6248 32.3826 22.8326 36.1534 24.0008 36.1534Z" fill="white"/>
<path d="M24.0008 12C22.8326 12 20.6248 15.7707 20.3662 22.7198H27.6354C27.3767 15.7707 25.1689 12 24.0008 12Z" fill="white"/>
</g>
<defs>
<clipPath id="clip0_1525_2118">
<rect width="24" height="24" fill="white" transform="translate(12 12)"/>
</clipPath>
</defs>
</svg>
