<svg width="33" height="32" viewBox="0 0 33 32" fill="none" xmlns="http://www.w3.org/2000/svg">
<g clip-path="url(#clip0_1526_2445)">
<mask id="mask0_1526_2445" style="mask-type:luminance" maskUnits="userSpaceOnUse" x="0" y="0" width="32" height="32">
<path d="M0 9.34601e-05H31.9999V32H0V9.34601e-05Z" fill="white"/>
</mask>
<g mask="url(#mask0_1526_2445)">
<path d="M16 21.5V10H22V6.5L31 16L22 25.5V21.5H16Z" fill="#B2D9F4"/>
<path d="M31.7478 15.3604L22.9978 5.98539C22.4172 5.36333 21.3749 5.7742 21.3749 6.62507V9.43756H16.3258L9.10041 2.21215C9.01335 2.12509 8.91 2.05604 8.79625 2.00893C8.6825 1.96182 8.56059 1.93758 8.43748 1.93759H0.937497C0.419749 1.93759 0 2.35733 0 2.87508C0 3.39283 0.419749 3.81258 0.937497 3.81258H8.04916L15.2745 11.0379C15.3616 11.125 15.4649 11.1941 15.5787 11.2412C15.6924 11.2883 15.8143 11.3126 15.9375 11.3126H22.3124C22.8302 11.3126 23.2499 10.8928 23.2499 10.3751V9.0035L29.78 16L23.2499 22.9966V21.625C23.2499 21.1073 22.8302 20.6875 22.3124 20.6875H15.9375C15.6888 20.6875 15.4503 20.7863 15.2745 20.9621L8.04916 28.1875H0.937497C0.419749 28.1875 0 28.6073 0 29.125C0 29.6428 0.419749 30.0625 0.937497 30.0625H8.43748C8.5606 30.0625 8.68251 30.0382 8.79626 29.9911C8.91 29.944 9.01336 29.8749 9.10041 29.7879L16.3258 22.5625H21.3749V25.375C21.3749 26.2259 22.4172 26.6367 22.9978 26.0147L31.7478 16.6397C32.084 16.2795 32.084 15.7205 31.7478 15.3604Z" fill="#0D1541"/>
<path d="M0.937497 16.9375H13.6741L12.7745 17.8371C12.4084 18.2032 12.4084 18.7968 12.7745 19.1629C13.1406 19.529 13.7343 19.529 14.1003 19.1629L16.6003 16.6629C16.9665 16.2968 16.9665 15.7032 16.6003 15.3371L14.1003 12.8371C13.7343 12.4709 13.1406 12.4709 12.7745 12.8371C12.4084 13.2032 12.4084 13.7968 12.7745 14.1629L13.6741 15.0625H0.937497C0.419749 15.0625 0 15.4822 0 16C0 16.5177 0.419749 16.9375 0.937497 16.9375Z" fill="#0D1541"/>
<path d="M0 9.12498C0 9.64273 0.419749 10.0625 0.937497 10.0625H6.79917L5.89954 10.9621C5.53342 11.3282 5.53342 11.9218 5.89954 12.2878C6.26567 12.654 6.85929 12.654 7.22535 12.2879L9.72535 9.78785C10.0915 9.42179 10.0915 8.82817 9.72535 8.46211L7.22535 5.96205C6.85929 5.59593 6.26567 5.59593 5.89954 5.96205C5.53342 6.32811 5.53342 6.9218 5.89954 7.28786L6.79917 8.18748H0.937497C0.419749 8.18748 0 8.60723 0 9.12498Z" fill="#0D1541"/>
<path d="M0.937497 23.8125H6.79917L5.89954 24.7121C5.53342 25.0782 5.53342 25.6718 5.89954 26.0378C6.26567 26.404 6.85929 26.404 7.22535 26.0379L9.72535 23.5379C10.0915 23.1718 10.0915 22.5782 9.72535 22.2121L7.22535 19.7121C6.85929 19.3459 6.26567 19.3459 5.89954 19.7121C5.53342 20.0781 5.53342 20.6718 5.89954 21.0379L6.79917 21.9375H0.937497C0.419749 21.9375 0 22.3572 0 22.875C0 23.3927 0.419749 23.8125 0.937497 23.8125Z" fill="#0D1541"/>
</g>
</g>
<defs>
<clipPath id="clip0_1526_2445">
<rect width="32" height="32" fill="white"/>
</clipPath>
</defs>
</svg>
