<svg width="34" height="34" viewBox="0 0 34 34" fill="none" xmlns="http://www.w3.org/2000/svg">
<path d="M13.3332 32.5776C14.5106 32.8536 15.7382 32.9997 16.9998 32.9997C25.8363 32.9997 32.9996 25.8363 32.9996 16.9999C32.9996 12.5718 31.2008 8.56385 28.294 5.66694M14.6665 1.16895C6.93601 2.29847 1 8.95594 1 16.9999C1 18.9952 1.36526 20.9052 2.03256 22.6668" stroke="#0D1541" stroke-width="1.5" stroke-linecap="round" stroke-dasharray="1 3"/>
<path d="M17 1C20.6494 1 24.0134 2.2218 26.7053 4.27865" stroke="#0D1541" stroke-width="1.5" stroke-linecap="round"/>
<path d="M17.0645 4.14746V18.9014L24.9988 7.03267" stroke="#0D1541" stroke-width="1.5" stroke-linecap="round"/>
<path d="M10.3333 21H5V25.6666" stroke="#0D1541" stroke-width="1.5" stroke-linecap="round"/>
<path d="M4.95837 25.7348C5.65206 25.272 6.49965 25 7.41478 25C9.76281 25 11.6663 26.7908 11.6663 29C11.6663 31.2091 9.76281 32.9999 7.41478 32.9999C6.20186 32.9999 5.10757 32.522 4.33301 31.7555" stroke="#0D1541" stroke-width="1.5" stroke-linecap="round"/>
<path opacity="0.4" d="M17 18.9998V1C21.7999 1 25.6666 3.33331 26.9999 4.49996L17 18.9998Z" fill="#3FA1E3"/>
</svg>
