<svg width="33" height="33" viewBox="0 0 33 33" fill="none" xmlns="http://www.w3.org/2000/svg">
<circle opacity="0.4" cx="16.834" cy="3" r="2" fill="#3FA1E3"/>
<circle opacity="0.4" cx="5.56604" cy="22.7318" r="2" transform="rotate(-120 5.56604 22.7318)" fill="#3FA1E3"/>
<circle opacity="0.4" cx="28.0355" cy="22.5367" r="2" transform="rotate(120 28.0355 22.5367)" fill="#3FA1E3"/>
<path opacity="0.4" d="M8.54098 20.3962C10.0361 22.9857 13.3473 23.873 15.9368 22.3779C15.9368 22.3779 13.3828 21.7414 11.5898 18.6359C9.7969 15.5305 10.5227 13.0003 10.5227 13.0003C7.93314 14.4954 7.0459 17.8066 8.54098 20.3962Z" fill="#3FA1E3"/>
<path opacity="0.4" d="M17.2481 6C14.258 6 11.834 8.42399 11.834 11.4141C11.834 11.4141 13.6623 9.52051 17.2481 9.52051C20.834 9.52051 22.6623 11.4141 22.6623 11.4141C22.6623 8.42399 20.2383 6 17.2481 6Z" fill="#3FA1E3"/>
<path opacity="0.4" d="M25.2295 21.3958C26.7245 18.8063 25.8373 15.495 23.2477 14C23.2477 14 23.9735 16.5301 22.1806 19.6356C20.3877 22.741 17.8336 23.3775 17.8336 23.3775C20.4231 24.8726 23.7344 23.9854 25.2295 21.3958Z" fill="#3FA1E3"/>
<circle cx="16.8239" cy="2.9899" r="2.2399" stroke="#0D1541" stroke-width="1.5"/>
<path d="M22.6623 11.3936C22.6623 8.40349 20.2383 5.97949 17.2481 5.97949C14.258 5.97949 11.834 8.40349 11.834 11.3936" stroke="#0D1541" stroke-width="1.5" stroke-linecap="round"/>
<circle cx="16.8441" cy="29.0912" r="2.2399" transform="rotate(-180 16.8441 29.0912)" stroke="#0D1541" stroke-width="1.5"/>
<path d="M12.0057 20.6864C12.0057 23.6766 14.4297 26.1006 17.4198 26.1006C20.41 26.1006 22.834 23.6766 22.834 20.6864" stroke="#0D1541" stroke-width="1.5" stroke-linecap="round"/>
<circle cx="5.91924" cy="9.515" r="2.2399" transform="rotate(-60 5.91924 9.515)" stroke="#0D1541" stroke-width="1.5"/>
<circle cx="28.5228" cy="9.51494" r="2.2399" transform="rotate(60 28.5228 9.51494)" stroke="#0D1541" stroke-width="1.5"/>
<path d="M15.9037 9.02872C13.3142 7.53365 10.0029 8.42089 8.50785 11.0104C7.01278 13.6 7.90002 16.9112 10.4896 18.4063" stroke="#0D1541" stroke-width="1.5" stroke-linecap="round"/>
<path d="M23.9519 18.4059C26.5415 16.9109 27.4287 13.5996 25.9336 11.0101C24.4386 8.42053 21.1273 7.53329 18.5378 9.02836" stroke="#0D1541" stroke-width="1.5" stroke-linecap="round"/>
<circle cx="28.5231" cy="22.5661" r="2.2399" transform="rotate(120 28.5231 22.5661)" stroke="#0D1541" stroke-width="1.5"/>
<circle cx="5.9186" cy="22.5661" r="2.2399" transform="rotate(-120 5.9186 22.5661)" stroke="#0D1541" stroke-width="1.5"/>
<path d="M18.5377 23.0523C21.1272 24.5474 24.4385 23.6602 25.9336 21.0706C27.4286 18.4811 26.5414 15.1698 23.9518 13.6748" stroke="#0D1541" stroke-width="1.5" stroke-linecap="round"/>
<path d="M10.4895 13.6751C7.89994 15.1702 7.0127 18.4814 8.50777 21.071C10.0028 23.6605 13.3141 24.5478 15.9036 23.0527" stroke="#0D1541" stroke-width="1.5" stroke-linecap="round"/>
<circle cx="16.834" cy="16" r="4.25" stroke="#0D1541" stroke-width="1.5"/>
</svg>
