<svg width="34" height="34" viewBox="0 0 34 34" fill="none" xmlns="http://www.w3.org/2000/svg">
<circle opacity="0.4" cx="17.167" cy="17" r="9" fill="#3FA1E3"/>
<path d="M11.7449 32.0579L11.4907 32.7635L12.1796 33.0116L12.4442 32.3289L11.7449 32.0579ZM22.5884 32.0582L21.889 32.3291L22.1536 33.0119L22.8425 32.7638L22.5884 32.0582ZM18.7299 22.1008L18.5104 21.3836L17.7391 21.6196L18.0305 22.3718L18.7299 22.1008ZM15.6033 22.1005L16.3027 22.3715L16.5941 21.6195L15.8229 21.3834L15.6033 22.1005ZM0.416992 17C0.416992 24.2594 5.03474 30.4384 11.4907 32.7635L11.999 31.3523C6.11912 29.2347 1.91699 23.6071 1.91699 17H0.416992ZM17.167 0.25C7.91622 0.25 0.416992 7.74923 0.416992 17H1.91699C1.91699 8.57766 8.74465 1.75 17.167 1.75V0.25ZM33.917 17C33.917 7.74923 26.4178 0.25 17.167 0.25V1.75C25.5893 1.75 32.417 8.57766 32.417 17H33.917ZM22.8425 32.7638C29.2989 30.4389 33.917 24.2597 33.917 17H32.417C32.417 23.6074 28.2145 29.2351 22.3343 31.3525L22.8425 32.7638ZM23.2877 31.7872L19.4292 21.8298L18.0305 22.3718L21.889 32.3291L23.2877 31.7872ZM18.9493 22.8179C21.4387 22.0562 23.2504 19.7407 23.2504 17.0001H21.7504C21.7504 19.0629 20.387 20.8093 18.5104 21.3836L18.9493 22.8179ZM23.2504 17.0001C23.2504 13.6403 20.5268 10.9167 17.1671 10.9167V12.4167C19.6984 12.4167 21.7504 14.4688 21.7504 17.0001H23.2504ZM17.1671 10.9167C13.8073 10.9167 11.0837 13.6403 11.0837 17.0001H12.5837C12.5837 14.4688 14.6358 12.4167 17.1671 12.4167V10.9167ZM11.0837 17.0001C11.0837 19.7403 12.8949 22.0555 15.3838 22.8176L15.8229 21.3834C13.9467 20.8088 12.5837 19.0627 12.5837 17.0001H11.0837ZM14.904 21.8295L11.0455 31.7869L12.4442 32.3289L16.3027 22.3715L14.904 21.8295Z" fill="#0D1541"/>
</svg>
