<svg width="34" height="34" viewBox="0 0 34 34" fill="none" xmlns="http://www.w3.org/2000/svg">
<path opacity="0.4" d="M19.0473 5.17107H14.9756V9.44144C16.2337 9.14332 18.75 9.24236 18.75 12.0235C18.75 14.8047 16.2337 15.1667 14.9756 15V18.9753H18.75C18.3682 20.3169 18.4693 23 21.9274 23C25.3855 23 24.9167 20.3169 24.25 18.9753H28.9785V14.6056C30.3026 15.0029 32.9509 15.0426 32.9509 12.0235C32.9509 9.00447 30.3026 9.0442 28.9785 9.44144V5.17107H24.6088C25.1053 3.78071 25.2642 1 21.9274 1C18.5905 1 18.617 3.78071 19.0473 5.17107Z" fill="#3FA1E3"/>
<path d="M29.0003 19.0744C29.0003 26.7654 22.7654 33.0003 15.0744 33.0003C7.38329 33.0003 1.14844 26.7654 1.14844 19.0744C1.14844 11.3833 7.38329 5.14844 15.0744 5.14844" stroke="#0D1541" stroke-width="1.5" stroke-linecap="round"/>
<path d="M14.9756 5.17107H19.0473C18.617 3.78071 18.5905 1 21.9274 1C25.2642 1 25.1053 3.78071 24.6088 5.17107H28.9785V9.44144C30.3026 9.0442 32.9509 9.00447 32.9509 12.0235C32.9509 15.0426 30.3026 15.0029 28.9785 14.6056V18.9753" stroke="#0D1541" stroke-width="1.5" stroke-linecap="round"/>
<path d="M14.975 5.14844V9.29659C16.259 8.96737 18.8269 9.05955 18.8269 12.062C18.8269 15.0645 16.259 15.1567 14.975 14.8274V23.025C13.6582 22.6958 11.0244 22.8274 11.0244 25.9879C11.0244 29.1484 13.6582 29.0826 14.975 28.6546V33.0003" stroke="#0D1541" stroke-width="1.5" stroke-linecap="round"/>
<path d="M1 19.025L5.14815 19.025C4.81893 17.741 4.91111 15.1731 7.91358 15.1731C10.916 15.1731 11.0082 17.741 10.679 19.025L18.8765 19.025C18.5473 20.3418 18.679 22.9756 21.8395 22.9756C25 22.9756 24.9342 20.3418 24.5062 19.025L28.8519 19.025" stroke="#0D1541" stroke-width="1.5" stroke-linecap="round"/>
</svg>
