<svg width="32" height="32" viewBox="0 0 32 32" fill="none" xmlns="http://www.w3.org/2000/svg">
<g clip-path="url(#clip0_508_1643)">
<path d="M16 32C11.7262 32 7.70825 30.3357 4.68625 27.3137C1.66425 24.2917 0 20.2738 0 16C0 11.7262 1.66431 7.70831 4.68625 4.68625C7.70819 1.66419 11.7262 0 16 0C20.2738 0 24.2917 1.66425 27.3137 4.68625C30.3357 7.70825 32 11.7262 32 16C32 20.2738 30.3357 24.2917 27.3137 27.3137C24.2918 30.3358 20.2738 32 16 32ZM16 2C8.28037 2 2 8.28037 2 16C2 23.7196 8.28037 30 16 30C23.7196 30 30 23.7196 30 16C30 8.28037 23.7196 2 16 2Z" fill="#3FA1E3"/>
<path d="M16 15C14.6215 15 13.5 13.8785 13.5 12.5C13.5 11.1215 14.6215 10 16 10C17.3785 10 18.5 11.1215 18.5 12.5C18.5 13.0522 18.9477 13.5 19.5 13.5C20.0523 13.5 20.5 13.0522 20.5 12.5C20.5 10.3624 19.0014 8.5695 17 8.11337V7C17 6.44775 16.5523 6 16 6C15.4477 6 15 6.44775 15 7V8.11337C12.9986 8.5695 11.5 10.3624 11.5 12.5C11.5 14.9813 13.5187 17 16 17C17.3785 17 18.5 18.1215 18.5 19.5C18.5 20.8785 17.3785 22 16 22C14.6215 22 13.5 20.8785 13.5 19.5C13.5 18.9478 13.0523 18.5 12.5 18.5C11.9477 18.5 11.5 18.9478 11.5 19.5C11.5 21.6376 12.9986 23.4305 15 23.8866V25C15 25.5522 15.4477 26 16 26C16.5523 26 17 25.5522 17 25V23.8866C19.0014 23.4305 20.5 21.6376 20.5 19.5C20.5 17.0187 18.4813 15 16 15Z" fill="#3FA1E3"/>
</g>
<defs>
<clipPath id="clip0_508_1643">
<rect width="32" height="32" fill="white"/>
</clipPath>
</defs>
</svg>
