<svg width="33" height="32" viewBox="0 0 33 32" fill="none" xmlns="http://www.w3.org/2000/svg">
<g clip-path="url(#clip0_508_1352)">
<path opacity="0.4" fill-rule="evenodd" clip-rule="evenodd" d="M11 7V26.5H22V7H11ZM14 13V17H19V13C19 12.3333 18.5 11 16.5 11C14.5 11 14 12.3333 14 13Z" fill="#3FA1E3"/>
<path d="M22.034 9.37717V26.3744H10.9668V9.37717V8.62717H10.585L9.76562 7.53261V6.48352V5.625H10.2917V6.15061C10.2917 6.74855 10.7764 7.23352 11.3746 7.23352H11.9132C12.5111 7.23352 12.9961 6.74881 12.9961 6.15061V5.625H13.5232V6.15061C13.5232 6.74855 14.0079 7.23352 14.6061 7.23352H15.1446C15.7427 7.23352 16.2275 6.74871 16.2275 6.15061V5.625H16.7627L16.7701 6.16541L16.7701 6.16542C16.7782 6.75746 17.2605 7.23352 17.8529 7.23352H18.3958C18.9937 7.23352 19.4787 6.7488 19.4787 6.15061V5.625H20.006V6.15061C20.006 6.74854 20.4907 7.23352 21.0889 7.23352H21.6273C22.2253 7.23352 22.7102 6.7488 22.7102 6.15061V5.625H23.2352V6.48352V7.53262L22.4159 8.62717H22.034V9.37717ZM14.1809 16.0054V16.7554H14.9309H18.0676H18.0676H18.8176V16.0054V13.3708C18.8176 12.0908 17.7804 11.0526 16.4993 11.0526C15.2186 11.0526 14.1809 12.0905 14.1809 13.3704V16.0054Z" stroke="#0D1541" stroke-width="1.5"/>
<path d="M31.7488 26.3741H24.7354V13.1836H25.2624V13.7091C25.2624 14.307 25.7472 14.792 26.3453 14.792H26.8829C27.4808 14.792 27.9658 14.3073 27.9658 13.7091V13.1836H28.4918V13.7091C28.4918 14.307 28.9765 14.792 29.5746 14.792H30.1143C30.7121 14.792 31.1972 14.3074 31.1972 13.7091V13.1967L31.7236 13.1913L31.7488 26.3741Z" stroke="#0D1541" stroke-width="1.5"/>
<path d="M8.26375 26.3746H1.25V13.1837H1.77611V13.7092C1.77611 14.3073 2.26091 14.7921 2.85901 14.7921H3.39858C3.99651 14.7921 4.48148 14.3074 4.48148 13.7092V13.1837H5.00759V13.7091C5.00759 14.3072 5.49239 14.792 6.09049 14.792H6.63255C7.22482 14.792 7.70731 14.3162 7.71532 13.7239C7.71532 13.7238 7.71532 13.7237 7.71532 13.7237L7.72266 13.1836H8.23843L8.26375 26.3746ZM8.23808 13.0025V13.0026V13.0025Z" stroke="#0D1541" stroke-width="1.5"/>
</g>
<defs>
<clipPath id="clip0_508_1352">
<rect width="32" height="32" fill="white" transform="translate(0.5)"/>
</clipPath>
</defs>
</svg>
