<svg width="33" height="32" viewBox="0 0 33 32" fill="none" xmlns="http://www.w3.org/2000/svg">
<path d="M9.43748 27.25H1.9375V19.75H9.43748V27.25Z" fill="#B2D9F4" stroke="#0D1541" stroke-width="1.5" stroke-miterlimit="10"/>
<path d="M22.834 8.2159C26.1158 10.181 28.3127 13.7713 28.3127 17.8747C28.3127 18.5147 28.2593 19.1421 28.1566 19.7529" stroke="#0D1541" stroke-width="1.5" stroke-miterlimit="10"/>
<path d="M22.0983 27.8741C20.5526 28.6735 18.7977 29.125 16.9375 29.125C14.0561 29.125 11.4278 28.0418 9.4375 26.2604" stroke="#0D1541" stroke-width="1.5" stroke-miterlimit="10"/>
<path d="M5.90625 16C6.67794 11.4008 10.2402 7.74777 14.7924 6.84172" stroke="#0D1541" stroke-width="1.5" stroke-miterlimit="10"/>
<path d="M17 10.375L12.3125 2.87502H21.6875L17 10.375Z" fill="#B2D9F4" stroke="#0D1541" stroke-width="1.5" stroke-miterlimit="10"/>
<path d="M32.0625 23.5C32.0625 25.5711 30.3835 27.25 28.3125 27.25C26.2414 27.25 24.5625 25.5711 24.5625 23.5C24.5625 21.429 26.2414 19.75 28.3125 19.75C30.3835 19.75 32.0625 21.429 32.0625 23.5Z" fill="#B2D9F4" stroke="#0D1541" stroke-width="1.5" stroke-miterlimit="10"/>
</svg>
