<svg width="48" height="48" viewBox="0 0 48 48" fill="none" xmlns="http://www.w3.org/2000/svg">
<circle cx="24" cy="24" r="24" fill="#9BB4F6"/>
<g clip-path="url(#clip0_1525_2152)">
<path d="M35.3879 21.3886L33.6381 21.0387C33.4459 20.4015 33.1907 19.7851 32.8761 19.1985L33.8658 17.7141C33.956 17.5788 33.9965 17.4165 33.9805 17.2548C33.9645 17.093 33.8929 16.9418 33.7779 16.8269L31.1263 14.1752C31.0114 14.0603 30.8602 13.9887 30.6984 13.9727C30.5367 13.9567 30.3744 13.9972 30.2391 14.0873L28.7545 15.077C28.168 14.7625 27.5516 14.5072 26.9144 14.3151L26.5644 12.5652C26.5326 12.4058 26.4465 12.2624 26.3208 12.1594C26.1951 12.0563 26.0375 12 25.875 12H22.125C21.9625 12 21.8049 12.0563 21.6792 12.1594C21.5535 12.2624 21.4674 12.4058 21.4355 12.5652L21.0856 14.3151C20.4484 14.5072 19.832 14.7625 19.2454 15.077L17.7608 14.0873C17.6256 13.9972 17.4633 13.9567 17.3015 13.9727C17.1398 13.9887 16.9886 14.0603 16.8736 14.1752L14.222 16.8269C14.1071 16.9418 14.0355 17.093 14.0195 17.2548C14.0035 17.4165 14.044 17.5788 14.1342 17.7141L15.1238 19.1985C14.8093 19.7851 14.5541 20.4015 14.3619 21.0387L12.6121 21.3886C12.4527 21.4205 12.3093 21.5066 12.2062 21.6323C12.1032 21.7581 12.0469 21.9156 12.0469 22.0781V25.8281C12.0469 26.1633 12.2835 26.4519 12.6121 26.5176L14.3619 26.8675C14.5541 27.5047 14.8093 28.1211 15.1239 28.7077L14.1342 30.1922C14.044 30.3274 14.0035 30.4897 14.0195 30.6515C14.0356 30.8132 14.1071 30.9645 14.2221 31.0794L16.8737 33.731C16.9886 33.846 17.1398 33.9175 17.3016 33.9336C17.4633 33.9496 17.6256 33.9091 17.7609 33.8189L19.215 32.8495V28.4355C18.1139 27.2634 17.4375 25.6887 17.4375 23.9531C17.4375 20.3287 20.3756 17.3906 24 17.3906C27.6244 17.3906 30.5625 20.3287 30.5625 23.9531C30.5625 25.6887 29.8861 27.2634 28.785 28.4355V32.8495L30.2391 33.8189C30.3545 33.896 30.4901 33.9371 30.6289 33.937C30.8103 33.937 30.9904 33.867 31.1263 33.7311L33.7779 31.0794C33.8928 30.9645 33.9644 30.8133 33.9804 30.6515C33.9964 30.4898 33.9559 30.3275 33.8657 30.1922L32.8761 28.7077C33.1906 28.1212 33.4458 27.5048 33.638 26.8676L35.3878 26.5176C35.5472 26.4857 35.6907 26.3996 35.7937 26.2739C35.8968 26.1482 35.9531 25.9907 35.9531 25.8281V22.0781C35.9531 21.9156 35.8968 21.758 35.7937 21.6323C35.6907 21.5066 35.5473 21.4205 35.3879 21.3886Z" fill="white"/>
<path d="M26.2275 20.1008C25.8736 19.8958 25.4246 20.1133 25.3662 20.518L24.9375 23.4847H23.0625L22.6339 20.518C22.5754 20.1133 22.1265 19.8958 21.7726 20.1008C20.3997 20.896 19.5469 22.3723 19.5469 23.9534C19.5469 25.6668 20.5064 27.1995 22.051 27.9534L22.125 27.9895V35.2972C22.125 35.6855 22.4398 36.0003 22.8281 36.0003H25.1719C25.5602 36.0003 25.875 35.6855 25.875 35.2972V27.9895L25.949 27.9534C27.4936 27.1995 28.4531 25.6668 28.4531 23.9534C28.4531 22.3723 27.6003 20.896 26.2275 20.1008Z" fill="white"/>
</g>
<defs>
<clipPath id="clip0_1525_2152">
<rect width="24" height="24" fill="white" transform="translate(12 12)"/>
</clipPath>
</defs>
</svg>
