<svg width="48" height="48" viewBox="0 0 48 48" fill="none" xmlns="http://www.w3.org/2000/svg">
<circle cx="24" cy="24" r="24" fill="#8CE2CE"/>
<g clip-path="url(#clip0_635_950)">
<path d="M19.0795 15.6109C19.0795 14.1713 17.9082 13 16.4686 13C13.0048 13.1434 13.0058 18.079 16.4686 18.2219C17.9083 18.2219 19.0795 17.0506 19.0795 15.6109Z" fill="white"/>
<path d="M20.9375 23.494V22.6908C20.6913 16.7609 12.244 16.7655 12 22.6908V23.4939C12 23.8822 12.3148 24.197 12.7031 24.197H20.2344C20.6227 24.1971 20.9375 23.8823 20.9375 23.494Z" fill="white"/>
<path d="M34.142 15.6109C34.142 14.1713 32.9707 13 31.5311 13C28.0673 13.1434 28.0683 18.079 31.5311 18.2219C32.9707 18.2219 34.142 17.0506 34.142 15.6109Z" fill="white"/>
<path d="M31.5312 18.2217C29.0672 18.2217 27.0625 20.2264 27.0625 22.6904V23.4935C27.0625 23.8818 27.3773 24.1966 27.7656 24.1966H35.2968C35.6852 24.1966 36 23.8818 36 23.4935V22.6904C36 20.2264 33.9953 18.2217 31.5312 18.2217Z" fill="white"/>
<path d="M16.4186 25.7535C16.4186 25.7034 16.4196 25.6534 16.4205 25.6035H15.0142C14.9583 28.6176 16.4194 31.3406 18.6819 32.9989C18.8841 32.5698 19.1366 32.1691 19.4319 31.8041C17.6016 30.4202 16.4186 28.2251 16.4186 25.7535Z" fill="white"/>
<path d="M20.8972 18.8338C22.7673 17.958 25.2329 17.958 27.1031 18.8338C27.4365 18.4514 27.8186 18.1124 28.2395 17.8265C25.7507 16.425 22.2496 16.425 19.7607 17.8265C20.1817 18.1124 20.5637 18.4514 20.8972 18.8338Z" fill="white"/>
<path d="M31.5798 25.6035C31.6344 28.1155 30.436 30.3973 28.5684 31.8041C28.8637 32.169 29.1162 32.5698 29.3184 32.9989C31.5808 31.3408 33.0421 28.6175 32.986 25.6035H31.5798Z" fill="white"/>
<path d="M26.6107 28.4137C26.6107 26.974 25.4395 25.8027 23.9998 25.8027C20.536 25.9462 20.537 30.8817 23.9998 31.0246C25.4395 31.0246 26.6107 29.8534 26.6107 28.4137Z" fill="white"/>
<path d="M24 31.0254C21.5359 31.0254 19.5312 33.0301 19.5312 35.4941V36.2973C19.5312 36.6856 19.8461 37.0004 20.2344 37.0004H27.7656C28.154 37.0004 28.4688 36.6856 28.4688 36.2973V35.4942C28.4687 33.0301 26.4641 31.0254 24 31.0254Z" fill="white"/>
</g>
<defs>
<clipPath id="clip0_635_950">
<rect width="24" height="24" fill="white" transform="translate(12 13)"/>
</clipPath>
</defs>
</svg>
