<svg width="41" height="37" viewBox="0 0 41 37" fill="none" xmlns="http://www.w3.org/2000/svg">
<g clip-path="url(#clip0_587_1563)">
<path d="M38.7 20.2004H29.4V18.5004C29.4 18.4004 29.4 18.4004 29.4 18.4004L28.8 17.2004L29.4 15.7004L30.7 13.6004L32.6 13.3004L33.5 14.5004C33.6 14.6004 33.7 14.6004 33.8 14.6004H34.5C35.4 14.6004 36.1 13.9004 36.1 13.0004C36.1 12.9004 36.1 12.8004 36 12.8004C35.9 12.7004 35.9 12.7004 35.8 12.7004H35.1C34.5 12.7004 33.9 13.1004 33.6 13.6004L33.2 13.0004L33.6 12.4004H34.1C35 12.4004 35.7 11.7004 35.7 10.8004C35.7 10.6004 35.6 10.5004 35.4 10.5004H34.7C33.8 10.5004 33.1 11.2004 33.1 12.0004L32.5 12.5004L31 12.7004L31.6 11.6004L32.8 8.50039H33.2C34.1 8.50039 34.8 7.80039 34.8 6.90039C34.8 6.70039 34.7 6.60039 34.5 6.60039H33.8C33 6.60039 32.3 7.10039 32.2 7.90039V6.40039L33.3 5.60039H33.8C34.7 5.60039 35.4 4.90039 35.4 4.00039C35.4 3.80039 35.3 3.70039 35.1 3.70039H34.4C33.9 3.70039 33.4 3.90039 33.1 4.40039C32.8 4.00039 32.3 3.70039 31.8 3.70039H31.1C30.9 3.70039 30.8 3.80039 30.8 4.00039C30.8 4.80039 31.4 5.50039 32.2 5.60039L31.8 6.00039C31.7 6.10039 31.7 6.20039 31.7 6.30039V7.90039H31.4C31.3 7.90039 31.2 8.00039 31.1 8.10039L30.1 10.0004L29.7 8.90039L30.3 6.70039V6.60039C30.3 5.70039 29.6 5.00039 28.7 5.00039H28C27.8 5.00039 27.7 5.10039 27.7 5.30039C27.7 6.20039 28.4 6.90039 29.3 6.90039H29.5L29.2 7.80039C28.9 7.40039 28.4 7.20039 27.9 7.20039H27.2C27 7.20039 26.9 7.30039 26.9 7.50039C26.9 8.40039 27.6 9.10039 28.5 9.10039H28.9L29.4 10.7004L28.5 12.4004L27.1 8.40039V7.50039V6.00039L27.7 4.40039V4.30039V3.30039H28C28.9 3.30039 29.6 2.60039 29.6 1.70039C29.6 1.50039 29.5 1.40039 29.3 1.40039H28.6C28.1 1.40039 27.6 1.60039 27.3 2.10039C27 1.70039 26.5 1.40039 26 1.40039H25.3C25.1 1.40039 25 1.50039 25 1.70039C25 2.60039 25.7 3.30039 26.6 3.30039H26.9V4.20039L26.5 5.30039L25.5 4.30039C25.4 4.20039 25.3 4.20039 25.1 4.20039C25 4.30039 24.9 4.40039 24.9 4.50039V7.00039L23.9 6.00039V4.60039C23.9 3.70039 23.2 3.00039 22.3 3.00039H21.6C21.4 3.00039 21.3 3.10039 21.3 3.30039C21.3 4.20039 22 4.90039 22.9 4.90039H23.5V6.20039C23.5 6.30039 23.5 6.40039 23.6 6.40039L25.1 8.00039V8.50039C25.1 8.50039 25.1 8.50039 25.1 8.60039L26.1 13.2004V14.3004L24.8 12.8004V11.3004C25.3 10.7004 25.3 9.70039 24.7 9.10039L24.4 8.70039C24.3 8.60039 24.3 8.60039 24.2 8.60039C24.1 8.60039 24 8.60039 23.9 8.70039C23.2 9.40039 23.2 10.4004 23.8 11.0004L24.2 11.4004V12.2004L23.2 11.1004V7.90039C23.2 7.80039 23.1 7.60039 23 7.60039C22.9 7.60039 22.7 7.60039 22.6 7.70039L22.2 8.40039L21.5 7.10039V5.90039C21.5 5.00039 20.8 4.30039 19.9 4.30039H19.2C19 4.30039 18.9 4.40039 18.9 4.60039C18.9 5.50039 19.6 6.20039 20.5 6.20039H20.8V7.20039C20.8 7.30039 20.8 7.30039 20.8 7.30039L21.7 9.00039L21.2 9.70039C21.2 9.80039 21.1 9.80039 21.1 9.90039V11.5004C21.1 11.6004 21.1 11.6004 21.2 11.7004L22.4 13.4004L21.5 13.7004L20.8 13.2004C20.7 12.4004 20 11.7004 19.2 11.7004H18.5C18.3 11.7004 18.2 11.8004 18.2 12.0004C18.2 12.9004 18.9 13.6004 19.8 13.6004H20.4L21.3 14.2004C21.4 14.3004 21.5 14.3004 21.6 14.2004L22.8 13.7004L25.4 17.3004L26 18.5004L25.5 19.9004H16.7V13.0004C16.7 11.7004 15.6 10.6004 14.3 10.6004H7.3C6.6 10.6004 6 11.0004 5.6 11.6004L0.6 21.9004C0.5 21.9004 0.5 22.0004 0.5 22.1004V29.4004C0.5 30.5004 1.4 31.5004 2.6 31.5004H4.1C4.5 31.5004 4.7 31.2004 4.7 30.9004C4.7 30.6004 4.4 30.3004 4.1 30.3004H2.6C2.2 30.3004 1.8 29.9004 1.8 29.5004V22.4004L6.8 12.4004C6.9 12.1004 7.1 12.0004 7.4 12.0004H14.4C15.1 12.0004 15.6 12.5004 15.6 13.2004V27.0004C15.6 27.4004 15.9 27.6004 16.2 27.6004C16.6 27.6004 16.8 27.3004 16.8 27.0004V21.3004L38.7 21.4004C39 21.4004 39.3 21.7004 39.3 22.0004V29.7004C39.3 30.0004 39.1 30.2004 38.8 30.2004H36.9H36.8C36.3 28.2004 34.6 26.8004 32.5 26.8004C30 26.8004 28 28.8004 28 31.3004C28 33.8004 30 35.8004 32.5 35.8004C34.9 35.8004 36.8 33.9004 36.9 31.6004H38.8C39.8 31.6004 40.6 30.8004 40.6 29.8004V22.0004C40.5 21.0004 39.7 20.2004 38.7 20.2004ZM35 13.1004H35.3C35.2 13.5004 34.8 13.8004 34.4 13.8004H34.1C34.2 13.4004 34.5 13.1004 35 13.1004ZM34.6 10.8004H34.9C34.8 11.2004 34.4 11.5004 34 11.5004H33.7C33.8 11.1004 34.2 10.8004 34.6 10.8004ZM34 7.20039H34.3C34.2 7.60039 33.8 7.90039 33.4 7.90039H33.1C33.2 7.50039 33.6 7.20039 34 7.20039ZM34.6 4.30039H34.9C34.8 4.70039 34.4 5.00039 34 5.00039H33.7C33.8 4.50039 34.2 4.30039 34.6 4.30039ZM31.7 4.30039H32C32.4 4.30039 32.8 4.60039 32.9 5.00039H32.6C32.2 4.90039 31.9 4.60039 31.7 4.30039ZM28.7 8.50039C28.3 8.50039 27.9 8.20039 27.8 7.80039H28.1C28.5 7.80039 28.9 8.10039 29 8.50039H28.7ZM29.4 6.20039C29 6.20039 28.6 5.90039 28.5 5.50039H28.8C29.2 5.50039 29.6 5.80039 29.7 6.20039H29.4ZM28.7 2.00039H29C28.9 2.40039 28.5 2.70039 28.1 2.70039H27.8C27.9 2.20039 28.3 2.00039 28.7 2.00039ZM26.7 2.60039C26.3 2.60039 25.9 2.30039 25.8 1.90039H26.1C26.5 1.90039 26.9 2.20039 27 2.60039H26.7ZM23.1 4.30039C22.7 4.30039 22.3 4.00039 22.2 3.60039H22.5C22.9 3.60039 23.3 3.90039 23.4 4.30039H23.1ZM20.5 5.60039C20.1 5.60039 19.7 5.30039 19.6 4.90039H19.9C20.3 4.90039 20.7 5.20039 20.8 5.60039H20.5ZM19.8 13.1004C19.4 13.1004 19 12.8004 18.9 12.4004H19.2C19.6 12.4004 20 12.7004 20.1 13.1004H19.8ZM24.1 9.40039C24.2 9.50039 24.2 9.50039 24.2 9.50039C24.5 9.80039 24.6 10.2004 24.4 10.6004L24.2 10.4004C23.9 10.2004 23.9 9.80039 24.1 9.40039ZM26.7 18.5004L26.1 17.2004L21.9 11.4004V9.90039L22.5 9.00039V11.2004C22.5 11.3004 22.5 11.4004 22.6 11.4004L26.2 15.3004C26.3 15.4004 26.4 15.4004 26.6 15.4004C26.7 15.4004 26.8 15.2004 26.8 15.1004V13.1004C26.8 13.1004 26.8 13.1004 26.8 13.0004L25.8 8.40039V5.40039L26.4 6.00039V8.50039V8.60039L28 13.0004L27.2 13.8004L27.7 14.3004L28.7 13.3004L30.3 11.0004L31.5 8.50039H32.1L31 11.3004L28.7 15.2004L28.1 16.8004L27.2 17.7004L27.7 18.2004L28.4 17.5004L28.8 18.3004V19.9004H26.4L26.7 19.1004L27.3 19.7004L27.8 19.2004L26.7 18.5004ZM32.4 34.4004C30.6 34.4004 29.2 33.0004 29.2 31.2004C29.2 29.4004 30.6 28.0004 32.4 28.0004C34.2 28.0004 35.6 29.4004 35.6 31.2004C35.6 33.0004 34.2 34.4004 32.4 34.4004Z" fill="#3FA1E3"/>
<path d="M27.0004 30.2002H15.0004C14.6004 30.2002 14.4004 30.5002 14.4004 30.8002C14.4004 31.1002 14.7004 31.4002 15.0004 31.4002H27.0004C27.4004 31.4002 27.6004 31.1002 27.6004 30.8002C27.6004 30.5002 27.3004 30.2002 27.0004 30.2002Z" fill="#3FA1E3"/>
<path d="M13.4996 13.2002C13.0996 13.2002 12.8996 13.5002 12.8996 13.8002V17.5002C12.8996 18.6002 11.9996 19.5002 10.8996 19.5002H4.69961C4.29961 19.5002 4.09961 19.8002 4.09961 20.1002C4.09961 20.4002 4.39961 20.7002 4.69961 20.7002H10.7996C12.5996 20.7002 14.0996 19.2002 14.0996 17.4002V13.7002C14.0996 13.5002 13.7996 13.2002 13.4996 13.2002Z" fill="#3FA1E3"/>
<path d="M36.8 23.7C37.2 23.7 37.4 23.4 37.4 23.1C37.4 22.8 37.1 22.5 36.8 22.5H30.1C29.7 22.5 29.5 22.8 29.5 23.1C29.5 23.4 29.8 23.7 30.1 23.7H36.8Z" fill="#3FA1E3"/>
<path d="M9.5 26.8008C7 26.8008 5 28.8008 5 31.3008C5 33.8008 7 35.8008 9.5 35.8008C12 35.8008 14 33.8008 14 31.3008C14 28.8008 12 26.8008 9.5 26.8008ZM9.5 34.4008C7.7 34.4008 6.3 33.0008 6.3 31.2008C6.3 29.4008 7.7 28.0008 9.5 28.0008C11.3 28.0008 12.7 29.4008 12.7 31.2008C12.7 33.0008 11.3 34.4008 9.5 34.4008Z" fill="#3FA1E3"/>
<path d="M20.2 8.5H19.5V9.2H20.2V8.5Z" fill="#3FA1E3"/>
<path d="M31.9998 14.1006H31.2998V14.8006H31.9998V14.1006Z" fill="#3FA1E3"/>
<path d="M22.7996 15.1006H22.0996V15.8006H22.7996V15.1006Z" fill="#3FA1E3"/>
</g>
<defs>
<clipPath id="clip0_587_1563">
<rect width="40" height="37" fill="white" transform="translate(0.5)"/>
</clipPath>
</defs>
</svg>
