<svg width="41" height="37" viewBox="0 0 41 37" fill="none" xmlns="http://www.w3.org/2000/svg">
<path d="M16.5753 3.94508C13.0821 0.453679 6.24638 0.0488281 1.40783 0.0488281C0.906723 0.0488281 0.5 0.455466 0.5 0.956573C0.5 5.79513 0.903064 12.6309 4.39626 16.1241C5.87055 17.5984 8.13098 18.2575 10.3714 18.2575C12.8061 18.2575 15.2191 17.4786 16.5753 16.1224C19.1771 13.5206 19.6546 7.02253 16.5753 3.94508ZM15.2917 14.8405C13.349 16.7813 7.95489 17.1136 5.68179 14.8405C2.86213 12.0209 2.3737 6.29266 2.32102 1.86985C6.74383 1.92253 12.4721 2.41087 15.2917 5.23053C17.5649 7.50364 17.2326 12.8996 15.2917 14.8405Z" fill="#3FA1E3"/>
<path d="M39.5771 3.63965C34.7385 3.63965 27.9028 4.04271 24.4095 7.5359C21.3303 10.6134 21.8077 17.1114 24.4095 19.7132C25.7658 21.0676 28.1769 21.8465 30.6116 21.8465C32.8521 21.8465 35.1107 21.1893 36.5886 19.7151C40.08 16.2219 40.4848 9.38612 40.4848 4.54748C40.4848 4.04637 40.0782 3.63965 39.5771 3.63965ZM35.3014 18.4295C33.0282 20.7026 27.6322 20.3704 25.6914 18.4295C23.7505 16.4887 23.4183 11.0927 25.6914 8.81956C28.5111 5.9999 34.2392 5.51156 38.662 5.45888C38.6094 9.88348 38.121 15.6117 35.3014 18.4295Z" fill="#3FA1E3"/>
<path d="M33.0209 11.4979C32.8067 11.0422 32.193 10.8861 31.7409 11.0967C24.7781 14.3702 21.3575 20.0785 19.8033 25.9465C17.8805 13.4696 12.3193 9.66595 9.96087 8.0519C9.66674 7.85037 9.43797 7.70331 9.31091 7.57803C8.95687 7.22399 8.38129 7.22399 8.02725 7.57803C7.67321 7.93207 7.67321 8.50765 8.02725 8.86169C8.207 9.03965 8.51746 9.26297 8.93687 9.54978C11.5949 11.3672 18.6558 16.1985 18.6558 35.453C18.6558 35.9541 19.0625 36.3608 19.5636 36.3608C20.0647 36.3608 20.4714 35.9541 20.4714 35.4549C20.4714 27.6751 22.5612 17.4187 32.5143 12.7417C32.5143 12.7399 32.6614 12.6709 32.6614 12.6709C33.1135 12.4566 33.2351 11.9518 33.0209 11.4979Z" fill="#3FA1E3"/>
</svg>
