<svg width="37" height="40" viewBox="0 0 37 40" fill="none" xmlns="http://www.w3.org/2000/svg">
<g clip-path="url(#clip0_546_1585)">
<path d="M35.8333 22.6667H34.5C33.2471 22.6708 32.103 23.3791 31.5407 24.4987L30.6493 23.3107L31.5233 22H32.5C34.34 21.9978 35.8311 20.5067 35.8333 18.6667C35.8333 18.2985 35.5349 18 35.1667 18H33.8333C32.0895 18.0052 30.6456 19.3558 30.524 21.0953L29.444 22.7153L26.5 23.1367L27.7447 21.0033C27.761 20.975 27.7754 20.9456 27.788 20.9153L30.2847 14.6667H31.1667C33.0067 14.6645 34.4978 13.1734 34.5 11.3333C34.5 10.9651 34.2015 10.6667 33.8333 10.6667H32.5C30.9166 10.6687 29.5523 11.7824 29.2333 13.3333H29.1667V10.3333L31.3887 8.66667H32.5C34.34 8.66446 35.8311 7.17337 35.8333 5.33333C35.8333 4.96514 35.5349 4.66667 35.1667 4.66667H33.8333C32.78 4.66962 31.7906 5.17202 31.1667 6.02067C30.5428 5.17202 29.5533 4.66962 28.5 4.66667H27.1667C26.7985 4.66667 26.5 4.96514 26.5 5.33333C26.5035 6.94501 27.6595 8.32336 29.246 8.60733L28.1 9.46667C27.9321 9.59257 27.8333 9.79016 27.8333 10V13.3333H27.1667C26.9128 13.3319 26.6802 13.4749 26.5667 13.702L24.62 17.5953L23.8607 15.318L25.1373 10.8513H25.1267C25.1493 10.7922 25.1627 10.7299 25.1667 10.6667C25.1645 8.82663 23.6734 7.33554 21.8333 7.33333H20.5C20.1318 7.33333 19.8333 7.63181 19.8333 8C19.8355 9.84004 21.3266 11.3311 23.1667 11.3333H23.616L23.072 13.2387C22.4454 12.4589 21.5003 12.0037 20.5 12H19.1667C18.7985 12 18.5 12.2985 18.5 12.6667C18.5022 14.5067 19.9933 15.9978 21.8333 16H22.686L23.76 19.222L21.3667 22.5747L18.5 14.5513V9.462L19.786 6.248C19.8172 6.16905 19.8333 6.08491 19.8333 6V4H20.5C22.34 3.9978 23.8311 2.5067 23.8333 0.666667C23.8333 0.298477 23.5349 0 23.1667 0H21.8333C20.78 0.00295577 19.7906 0.505355 19.1667 1.354C18.5428 0.505355 17.5533 0.00295577 16.5 0H15.1667C14.7985 0 14.5 0.298477 14.5 0.666667C14.5022 2.5067 15.9933 3.9978 17.8333 4H18.5V5.872L17.59 8.14733L15.638 6.19533C15.4473 6.00473 15.1606 5.94772 14.9116 6.05088C14.6625 6.15404 14.5001 6.39707 14.5 6.66667V11.724L12.5 9.724V6.66667C12.4978 4.82663 11.0067 3.33554 9.16667 3.33333H7.83333C7.46514 3.33333 7.16667 3.63181 7.16667 4C7.16887 5.84004 8.65996 7.33113 10.5 7.33333H11.1667V10C11.1667 10.1768 11.237 10.3463 11.362 10.4713L14.5 13.6093V14.6667C14.4999 14.7135 14.5048 14.7602 14.5147 14.806L16.5 24.0707V26.286L13.7933 23.3333H13.8333V20.286C14.92 18.9853 14.8548 17.0756 13.682 15.852L13.0447 14.9487C12.9312 14.7881 12.7527 14.6858 12.5568 14.6691C12.3609 14.6524 12.1677 14.723 12.0287 14.862C10.652 16.238 10.5287 18.3547 11.754 19.58L12.5 20.326V21.926L10.5 19.744V13.3333C10.5001 13.0395 10.3078 12.7803 10.0266 12.6952C9.74545 12.61 9.44166 12.7189 9.27867 12.9633L8.392 14.2967L7.16667 11.8427V9.33333C7.16446 7.4933 5.67337 6.0022 3.83333 6H2.5C2.13181 6 1.83333 6.29848 1.83333 6.66667C1.83554 8.5067 3.32663 9.9978 5.16667 10H5.83333V12C5.83324 12.1034 5.8572 12.2054 5.90333 12.298L7.54 15.5713L6.612 16.9633C6.53916 17.073 6.50021 17.2017 6.5 17.3333V20.6667C6.5 20.8067 6.54409 20.9431 6.626 21.0567L9.11467 24.5027L7.248 25.2507L5.798 24.284C5.60711 22.6058 4.18898 21.3371 2.5 21.3333H1.16667C0.798477 21.3333 0.5 21.6318 0.5 22C0.502204 23.84 1.9933 25.3311 3.83333 25.3333H4.96667L6.79867 26.5547C6.98107 26.6774 7.21228 26.7024 7.41667 26.6213L9.92133 25.6213L15.2613 33.0133L16.4467 35.3847L15.2007 39.1227C15.1329 39.326 15.1671 39.5495 15.2924 39.7233C15.4178 39.8971 15.619 40 15.8333 40H22.5C22.8682 40 23.1667 39.7015 23.1667 39.3333V34.6667C23.1678 34.5635 23.145 34.4615 23.1 34.3687L21.9 31.9687L23.1 28.96L25.64 24.6053L29.536 24.0487L31.3 26.4L31.3093 26.3933C31.4305 26.5628 31.6251 26.6643 31.8333 26.6667H33.1667C35.0067 26.6645 36.4978 25.1734 36.5 23.3333C36.5 23.1565 36.4298 22.987 36.3047 22.8619C36.1797 22.7369 36.0101 22.6667 35.8333 22.6667ZM33.8333 6H34.386C34.1024 6.79847 33.3473 7.3323 32.5 7.33333H31.9473C32.2309 6.53487 32.986 6.00103 33.8333 6ZM27.9473 6H28.5C29.3473 6.00103 30.1024 6.53487 30.386 7.33333H29.8333C28.986 7.3323 28.2309 6.79847 27.9473 6ZM21.8333 1.33333H22.386C22.1024 2.1318 21.3473 2.66563 20.5 2.66667H19.9473C20.2309 1.8682 20.986 1.33437 21.8333 1.33333ZM17.8333 2.66667C16.986 2.66563 16.2309 2.1318 15.9473 1.33333H16.5C17.3473 1.33437 18.1024 1.8682 18.386 2.66667H17.8333ZM10.5 6C9.65267 5.99897 8.89757 5.46513 8.614 4.66667H9.16667C10.014 4.6677 10.7691 5.20153 11.0527 6H10.5ZM12.49 16.4753L12.6233 16.6647C12.645 16.6956 12.6693 16.7246 12.696 16.7513C13.2956 17.3507 13.4522 18.263 13.0867 19.028L12.696 18.6373C12.1624 18.0391 12.0789 17.1636 12.49 16.4753ZM5.16667 8.66667C4.31934 8.66563 3.56424 8.1318 3.28067 7.33333H3.83333C4.68066 7.33437 5.43576 7.8682 5.71933 8.66667H5.16667ZM3.83333 24C2.98601 23.999 2.2309 23.4651 1.94733 22.6667H2.5C3.34733 22.6677 4.10243 23.2015 4.386 24H3.83333ZM32.5 12H33.0527C32.7691 12.7985 32.014 13.3323 31.1667 13.3333H30.614C30.8976 12.5349 31.6527 12.001 32.5 12ZM21.2807 8.66667H21.8333C22.6807 8.6677 23.4358 9.20153 23.7193 10H23.1667C22.3193 9.99897 21.5642 9.46513 21.2807 8.66667ZM21.8333 14.6667C20.986 14.6656 20.2309 14.1318 19.9473 13.3333H20.5C21.3473 13.3344 22.1024 13.8682 22.386 14.6667H21.8333ZM21.924 28.3333C21.9077 28.3617 21.8932 28.3911 21.8807 28.4213L20.598 31.6287L18.6953 33.5313L19.638 34.474L20.984 33.128L21.8333 34.824V38.6667H16.758L17.458 36.5673L18.6953 37.8047L19.638 36.862L17.7147 34.9387L16.4333 32.3687C16.417 32.3366 16.3983 32.3059 16.3773 32.2767L7.83333 20.4513V17.5333L9.03333 15.7333L9.09467 15.7027L9.07667 15.6673L9.16667 15.5333V20C9.16665 20.1669 9.22921 20.3277 9.342 20.4507L16.6753 28.4507C16.8611 28.6533 17.1523 28.7211 17.4085 28.6213C17.6646 28.5216 17.8334 28.2749 17.8333 28V24C17.8335 23.9532 17.8286 23.9064 17.8187 23.8607L15.8333 14.596V8.276L17.1667 9.60933V14.6667C17.1667 14.743 17.1798 14.8187 17.2053 14.8907L20.3967 23.8273L18.6953 25.5287L19.638 26.4713L21.638 24.4713L21.6333 24.4667C21.6606 24.4421 21.6858 24.4154 21.7087 24.3867L25.042 19.72C25.0622 19.6916 25.0802 19.6617 25.096 19.6307L27.5787 14.6667H28.8487L26.5667 20.3733L21.924 28.3333ZM33.8333 19.3333H34.386C34.1024 20.1318 33.3473 20.6656 32.5 20.6667H31.9473C32.2309 19.8682 32.986 19.3344 33.8333 19.3333ZM33.1667 25.3333H32.614C32.8976 24.5349 33.6527 24.001 34.5 24H35.0527C34.7691 24.7985 34.014 25.3323 33.1667 25.3333Z" fill="#3FA1E3"/>
<path d="M4.50033 14.667H3.16699V16.0003H4.50033V14.667Z" fill="#3FA1E3"/>
<path d="M28.5003 26H27.167V27.3333H28.5003V26Z" fill="#3FA1E3"/>
<path d="M9.83333 28H8.5V29.3333H9.83333V28Z" fill="#3FA1E3"/>
</g>
<defs>
<clipPath id="clip0_546_1585">
<rect width="36" height="40" fill="white" transform="translate(0.5)"/>
</clipPath>
</defs>
</svg>
