<svg width="41" height="40" viewBox="0 0 41 40" fill="none" xmlns="http://www.w3.org/2000/svg">
<g clip-path="url(#clip0_546_1614)">
<path d="M20.3666 38.2577C18.9732 38.2577 17.5805 37.9769 16.2908 37.4159L10.1237 34.735C7.89263 33.7646 5.5336 33.1499 3.11228 32.9079L1.08705 32.7053C0.753619 32.6721 0.5 32.3917 0.5 32.0567V25.704C0.5 25.563 0.545875 25.4257 0.630539 25.3131C0.781965 25.1106 4.4117 20.3686 9.95627 21.6024C13.0747 22.2954 15.5855 23.5922 17.1426 24.5582C18.2731 25.2594 19.5983 25.6297 20.9749 25.6297H27.142C28.2049 25.6297 29.1392 26.1922 29.6617 27.0358L34.9732 20.9165C36.003 19.5414 37.6877 18.6992 39.4514 18.6992H39.8483C40.0687 18.6992 40.2738 18.8104 40.3939 18.9946C40.5144 19.1789 40.5334 19.412 40.445 19.6134L35.6412 30.5309C34.5909 32.9187 32.4523 34.7224 29.9209 35.3553L29.0758 35.5664L24.1593 37.5331C22.9494 38.0168 21.6578 38.2577 20.3666 38.2577ZM1.8039 31.4667L3.24207 31.6107C5.79803 31.8662 8.28835 32.5155 10.644 33.5397L16.8107 36.2206C18.9791 37.1634 21.4799 37.2004 23.6756 36.322L28.6323 34.3393C28.6599 34.3285 28.6879 34.3196 28.7166 34.3125L29.6047 34.0902C31.7481 33.5542 33.5589 32.0273 34.4477 30.0058L38.8293 20.0479C37.7074 20.2131 36.675 20.8177 35.9873 21.7344L30.1033 28.5158C30.1041 28.5411 30.1044 28.5661 30.1044 28.5919C30.1044 30.2251 28.7756 31.554 27.1423 31.554H18.5379C17.4194 31.554 16.3139 31.7334 15.2528 32.087L15.0134 31.479L14.8108 30.8595L14.844 30.8487C16.0349 30.4519 17.2788 30.2501 18.5379 30.2501H27.1423C28.0565 30.2501 28.8009 29.506 28.8009 28.5915C28.8009 27.677 28.0568 26.9329 27.1423 26.9329H20.9753C19.3555 26.9329 17.7927 26.4947 16.456 25.6655C14.985 24.7529 12.6137 23.5284 9.6743 22.8746C5.47541 21.9433 2.45399 25.1658 1.80427 25.9345V31.4667H1.8039Z" fill="#3FA1E3"/>
<path d="M26.1713 18.5525C25.1688 18.5525 24.0446 18.2429 22.8071 17.6242C22.6572 17.5488 22.5416 17.4183 22.4849 17.2605C22.4345 17.1192 21.2697 13.7688 23.1208 11.2911C24.4661 9.49007 26.9956 8.67887 30.6432 8.88213C30.9759 8.90041 31.2411 9.16708 31.2575 9.50052C31.2705 9.75936 31.5394 15.869 28.424 17.9031C27.7616 18.3362 27.009 18.5525 26.1713 18.5525ZM23.6385 16.578C25.3508 17.381 26.7196 17.4597 27.7117 16.8118C29.559 15.6053 29.9584 12.0237 29.9681 10.1596C27.1101 10.0898 25.1643 10.7339 24.1651 12.071C22.9761 13.6632 23.4382 15.8533 23.6385 16.578Z" fill="#3FA1E3"/>
<path d="M16.2029 10.0115C15.047 10.0115 13.7137 9.76388 12.55 8.91164C10.5762 7.46527 9.66918 4.71163 9.85342 0.727575C9.86909 0.394513 10.1331 0.126721 10.4662 0.106954C10.7482 0.090916 17.4221 -0.26527 19.6677 3.10563C20.7135 4.67471 20.6278 6.72977 19.4137 9.21487C19.3399 9.36592 19.2109 9.48266 19.0531 9.54047C18.9654 9.57292 17.7417 10.0115 16.2029 10.0115ZM18.8282 8.9288H18.8345H18.8282ZM11.1364 1.3896C11.0801 4.58072 11.8138 6.75588 13.3202 7.85987C15.1239 9.1813 17.5866 8.61961 18.3609 8.39396C19.2467 6.47168 19.3216 4.93691 18.5831 3.82844C17.2106 1.76816 13.1855 1.36535 11.1364 1.3896Z" fill="#3FA1E3"/>
<path d="M21.2939 26.7038C21.2734 26.7038 21.2529 26.7026 21.232 26.7008C20.8847 26.668 20.6248 26.3677 20.6423 26.019C20.6807 25.2522 20.7464 24.5249 20.8355 23.8356C21.1067 19.2227 20.9668 8.48048 14.175 5.50866C13.8453 5.36432 13.6946 4.98016 13.839 4.65008C13.9829 4.32075 14.3682 4.17044 14.6976 4.31441C18.6999 6.0655 21.2178 10.4251 21.9775 16.9219C22.0458 17.5041 22.0969 18.0781 22.1349 18.6372C23.9237 14.1172 26.6602 12.5201 26.8232 12.4287C27.1365 12.2516 27.534 12.3642 27.7108 12.6771C27.8865 12.9904 27.7761 13.3869 27.4639 13.5637C27.3949 13.604 23.1986 16.1223 22.1454 23.8882C22.0652 25.2167 21.9496 26.0638 21.9388 26.1413C21.8936 26.4666 21.6158 26.7038 21.2939 26.7038Z" fill="#3FA1E3"/>
</g>
<defs>
<clipPath id="clip0_546_1614">
<rect width="40" height="40" fill="white" transform="translate(0.5)"/>
</clipPath>
</defs>
</svg>
