<svg width="404" height="180" viewBox="0 0 404 180" fill="none" xmlns="http://www.w3.org/2000/svg">
<g clip-path="url(#clip0_4945_3653)">
<rect x="2" y="36" width="400" height="215" rx="32" stroke="#232F6F"/>
<rect x="62.5" y="102.5" width="87" height="87" rx="29.5" stroke="#232F6F"/>
<rect x="158.5" y="102.5" width="87" height="87" rx="29.5" stroke="#232F6F"/>
<rect x="254.5" y="102.5" width="87" height="87" rx="29.5" stroke="#232F6F"/>
<rect opacity="0.2" x="67" y="107" width="78" height="78" rx="25" fill="url(#paint0_radial_4945_3653)"/>
<rect opacity="0.2" x="163" y="107" width="78" height="78" rx="25" fill="url(#paint1_radial_4945_3653)"/>
<rect opacity="0.2" x="259" y="107" width="78" height="78" rx="25" fill="url(#paint2_radial_4945_3653)"/>
<path d="M104.738 163C104.288 163 103.846 162.884 103.453 162.664L98.3592 159.835C95.8266 158.427 93.7162 156.367 92.2465 153.87C90.7769 151.373 90.0013 148.528 90 145.63V137.776C89.9999 137.122 90.2422 136.492 90.68 136.007C91.1178 135.521 91.7201 135.216 92.3702 135.149C94.397 134.934 96.3918 134.483 98.3139 133.805C100.076 133.182 101.767 132.372 103.357 131.389C103.772 131.135 104.251 131 104.738 131C105.226 131 105.704 131.135 106.12 131.389C107.71 132.372 109.4 133.182 111.163 133.805C113.085 134.483 115.079 134.934 117.106 135.149C117.756 135.216 118.359 135.521 118.796 136.007C119.234 136.492 119.476 137.122 119.476 137.776V145.63C119.475 148.528 118.7 151.373 117.23 153.87C115.76 156.367 113.65 158.427 111.117 159.835L106.023 162.666C105.63 162.885 105.188 163 104.738 163ZM104.738 133.267C104.672 133.266 104.606 133.284 104.549 133.318C102.821 134.386 100.984 135.266 99.0697 135.944C96.981 136.681 94.8132 137.171 92.6106 137.404C92.517 137.412 92.4298 137.455 92.3663 137.524C92.3027 137.593 92.2675 137.683 92.2674 137.777V145.632C92.2682 148.125 92.9354 150.573 94.1999 152.722C95.4645 154.871 97.2804 156.643 99.4597 157.854L104.554 160.684C104.61 160.716 104.673 160.732 104.737 160.732C104.801 160.732 104.864 160.716 104.92 160.684L110.017 157.854C112.196 156.643 114.012 154.871 115.276 152.722C116.541 150.573 117.208 148.125 117.209 145.632V137.776C117.209 137.682 117.174 137.591 117.11 137.522C117.047 137.453 116.959 137.41 116.866 137.402C114.663 137.169 112.495 136.679 110.407 135.942C108.492 135.266 106.655 134.386 104.927 133.32C104.87 133.285 104.805 133.266 104.738 133.267Z" fill="#3FA1E3"/>
<path d="M103.982 150.367C103.704 150.367 103.436 150.265 103.229 150.08L99.8283 147.057C99.6174 146.853 99.4933 146.577 99.482 146.284C99.4708 145.991 99.5731 145.706 99.7677 145.487C99.9623 145.268 100.234 145.133 100.526 145.11C100.818 145.087 101.107 145.178 101.334 145.364L103.91 147.652L108.824 142.411C108.925 142.3 109.047 142.21 109.184 142.147C109.32 142.084 109.467 142.048 109.617 142.042C109.768 142.036 109.918 142.06 110.058 142.112C110.199 142.165 110.328 142.245 110.438 142.348C110.547 142.451 110.635 142.574 110.697 142.711C110.758 142.848 110.792 142.996 110.796 143.147C110.799 143.297 110.773 143.446 110.718 143.586C110.664 143.726 110.582 143.854 110.478 143.962L104.809 150.009C104.703 150.122 104.575 150.212 104.433 150.274C104.291 150.336 104.137 150.367 103.982 150.367Z" fill="#3FA1E3"/>
<path d="M199.828 134.114C203.98 129.962 210.734 129.962 214.886 134.114C218.908 138.136 219.034 144.6 215.263 148.775L214.886 149.172C212.181 151.879 208.325 152.828 204.703 151.86L202.835 153.706C202.493 154.045 202.032 154.235 201.55 154.235H200.879V154.938L200.868 155.13C200.847 155.32 200.797 155.507 200.718 155.683C200.613 155.917 200.46 156.127 200.268 156.298L200.266 156.3C199.892 156.632 199.378 156.814 198.844 156.748L198.458 156.703L198.374 157.603C198.334 158.026 198.148 158.422 197.848 158.722C197.548 159.022 197.152 159.207 196.729 159.246L195.828 159.332L195.874 159.718C195.905 159.991 195.876 160.268 195.786 160.527C195.695 160.786 195.547 161.023 195.353 161.217L194.104 162.466C193.763 162.807 193.299 163 192.815 163H187.824C186.816 163 186 162.184 186 161.176V156.185C186 155.945 186.047 155.708 186.138 155.487L186.216 155.325C186.3 155.167 186.407 155.022 186.534 154.895L197.071 144.357C196.111 140.721 197.131 136.811 199.828 134.114ZM213.555 135.445C210.138 132.028 204.576 132.028 201.159 135.445C198.826 137.778 198.015 141.219 199.026 144.341L199.203 144.889L198.795 145.295L187.882 156.208V161.118H192.79L194 159.906L193.739 157.638L196.504 157.377L196.675 155.569L196.765 154.612L197.721 154.723L198.996 154.87V152.353H201.524L204.183 149.732L204.727 149.907C207.858 150.922 211.229 150.168 213.555 147.841C216.972 144.424 216.972 138.862 213.555 135.445ZM207.316 136.61C208.716 135.211 210.99 135.211 212.39 136.61C213.789 138.01 213.789 140.284 212.39 141.684C210.99 143.084 208.716 143.084 207.316 141.684C205.916 140.284 205.916 138.01 207.316 136.61ZM211.059 137.941C210.394 137.277 209.312 137.277 208.647 137.941C207.982 138.606 207.982 139.688 208.647 140.353C209.312 141.018 210.394 141.018 211.059 140.353C211.723 139.688 211.723 138.606 211.059 137.941Z" fill="#3FA1E3"/>
<path fill-rule="evenodd" clip-rule="evenodd" d="M296.994 159.298H284.269C284.19 159.298 284.114 159.267 284.058 159.211C284.002 159.155 283.971 159.08 283.971 159.001V156.841C283.971 155.606 284.854 154.516 286.214 153.591C288.643 151.932 292.574 150.888 296.994 150.888C297.29 150.888 297.574 150.77 297.784 150.561C297.993 150.351 298.111 150.067 298.111 149.771C298.111 149.475 297.993 149.191 297.784 148.982C297.574 148.773 297.29 148.655 296.994 148.655C292.05 148.655 287.673 149.892 284.955 151.745C282.882 153.159 281.739 154.955 281.739 156.841V159.001C281.739 159.672 282.005 160.315 282.48 160.79C282.954 161.264 283.598 161.531 284.269 161.531H296.994C297.29 161.531 297.574 161.413 297.784 161.204C297.993 160.995 298.111 160.711 298.111 160.415C298.111 160.119 297.993 159.835 297.784 159.625C297.574 159.416 297.29 159.298 296.994 159.298ZM296.994 131C292.476 131 288.808 134.667 288.808 139.186C288.808 143.705 292.476 147.372 296.994 147.372C301.513 147.372 305.18 143.705 305.18 139.186C305.18 134.667 301.513 131 296.994 131ZM296.994 133.233C300.281 133.233 302.948 135.9 302.948 139.186C302.948 142.472 300.281 145.14 296.994 145.14C293.708 145.14 291.041 142.472 291.041 139.186C291.041 135.9 293.708 133.233 296.994 133.233ZM305.925 149.884C304.545 149.925 303.235 150.501 302.274 151.491C301.312 152.481 300.774 153.807 300.774 155.187C300.774 156.567 301.312 157.893 302.274 158.883C303.235 159.873 304.545 160.449 305.925 160.489C308.851 160.489 311.228 158.112 311.228 155.186C311.228 152.26 308.851 149.884 305.925 149.884ZM305.925 152.117C307.618 152.117 308.995 153.492 308.995 155.186C308.995 156.88 307.618 158.257 305.925 158.257C304.231 158.257 302.854 156.88 302.854 155.186C302.854 153.492 304.231 152.117 305.925 152.117Z" fill="#3FA1E3"/>
<path fill-rule="evenodd" clip-rule="evenodd" d="M307.041 150.998V148.487C307.041 148.191 306.923 147.907 306.714 147.698C306.505 147.489 306.221 147.371 305.925 147.371C305.629 147.371 305.345 147.489 305.135 147.698C304.926 147.907 304.808 148.191 304.808 148.487V151C304.808 151.296 304.926 151.58 305.136 151.789C305.345 151.998 305.629 152.115 305.925 152.115C306.221 152.115 306.505 151.997 306.714 151.788C306.924 151.578 307.041 151.294 307.041 150.998ZM309.674 153.015L311.449 151.238C311.659 151.029 311.776 150.745 311.776 150.449C311.776 150.153 311.659 149.869 311.449 149.66C311.24 149.451 310.956 149.333 310.661 149.333C310.365 149.333 310.081 149.451 309.872 149.66L308.095 151.436C307.886 151.646 307.769 151.929 307.769 152.225C307.769 152.521 307.886 152.805 308.095 153.015C308.304 153.224 308.588 153.341 308.884 153.341C309.18 153.341 309.464 153.224 309.674 153.015ZM310.11 156.301H312.622C312.918 156.301 313.202 156.184 313.412 155.974C313.621 155.765 313.739 155.481 313.739 155.185C313.739 154.889 313.621 154.605 313.412 154.396C313.202 154.186 312.918 154.069 312.622 154.069H310.11C309.814 154.069 309.53 154.186 309.321 154.396C309.111 154.605 308.994 154.889 308.994 155.185C308.994 155.481 309.111 155.765 309.321 155.974C309.53 156.184 309.814 156.301 310.11 156.301ZM308.095 158.934L309.872 160.71C309.975 160.813 310.098 160.896 310.234 160.952C310.369 161.008 310.514 161.037 310.661 161.037C310.807 161.037 310.952 161.008 311.087 160.952C311.223 160.896 311.346 160.813 311.449 160.71C311.553 160.606 311.635 160.483 311.691 160.348C311.747 160.213 311.776 160.068 311.776 159.921C311.776 159.775 311.747 159.629 311.691 159.494C311.635 159.359 311.553 159.236 311.449 159.132L309.674 157.355C309.464 157.146 309.18 157.029 308.884 157.029C308.588 157.029 308.304 157.146 308.095 157.355C307.886 157.565 307.769 157.849 307.769 158.145C307.769 158.441 307.886 158.725 308.095 158.934ZM304.808 159.37V161.883C304.808 162.179 304.926 162.463 305.135 162.672C305.345 162.881 305.629 162.999 305.925 162.999C306.221 162.999 306.505 162.881 306.714 162.672C306.923 162.463 307.041 162.179 307.041 161.883V159.37C307.041 159.074 306.923 158.79 306.714 158.581C306.505 158.372 306.221 158.254 305.925 158.254C305.629 158.254 305.345 158.372 305.135 158.581C304.926 158.79 304.808 159.074 304.808 159.37ZM302.175 157.355L300.4 159.132C300.296 159.236 300.214 159.359 300.158 159.494C300.102 159.629 300.073 159.775 300.073 159.921C300.073 160.068 300.102 160.213 300.158 160.348C300.214 160.483 300.296 160.606 300.4 160.71C300.503 160.813 300.626 160.896 300.762 160.952C300.897 161.008 301.042 161.037 301.189 161.037C301.335 161.037 301.48 161.008 301.615 160.952C301.751 160.896 301.874 160.813 301.977 160.71L303.755 158.934C303.963 158.725 304.08 158.441 304.08 158.145C304.08 157.849 303.963 157.565 303.755 157.355C303.545 157.146 303.261 157.029 302.965 157.029C302.669 157.029 302.385 157.146 302.175 157.355ZM301.738 154.069H299.227C298.931 154.069 298.647 154.186 298.438 154.396C298.228 154.605 298.111 154.889 298.111 155.185C298.111 155.481 298.228 155.765 298.438 155.974C298.647 156.184 298.931 156.301 299.227 156.301H301.738C302.034 156.301 302.318 156.184 302.527 155.974C302.736 155.765 302.854 155.481 302.854 155.185C302.854 154.889 302.736 154.605 302.527 154.396C302.318 154.186 302.034 154.069 301.738 154.069ZM303.755 151.436L301.977 149.66C301.874 149.557 301.751 149.474 301.615 149.418C301.48 149.362 301.335 149.333 301.189 149.333C301.042 149.333 300.897 149.362 300.762 149.418C300.626 149.474 300.503 149.557 300.4 149.66C300.296 149.764 300.214 149.887 300.158 150.022C300.102 150.157 300.073 150.303 300.073 150.449C300.073 150.596 300.102 150.741 300.158 150.876C300.214 151.011 300.296 151.134 300.4 151.238L302.175 153.015C302.385 153.224 302.669 153.341 302.965 153.341C303.261 153.341 303.545 153.224 303.755 153.015C303.963 152.805 304.08 152.521 304.08 152.225C304.08 151.929 303.963 151.646 303.755 151.436Z" fill="#3FA1E3"/>
<g filter="url(#filter0_d_4945_3653)">
<rect x="106" y="12" width="192" height="48" rx="20" fill="#0A0F2B" fill-opacity="0.8" shape-rendering="crispEdges"/>
<rect x="106" y="12" width="192" height="48" rx="20" stroke="url(#paint3_linear_4945_3653)" shape-rendering="crispEdges"/>
</g>
<path d="M195.779 50.092C196.211 50.2746 196.649 50.444 197.096 50.588C196.87 49.8985 196.827 49.8236 196.365 48.4307L195.779 50.092ZM205.675 49.6745C206.78 46.9033 207.551 44.0593 207.995 41.179H198.925L197.172 46.1541C198.105 49.1363 198.215 49.3086 198.774 51.0259C200.9 51.4682 203.094 51.4717 205.221 51.0361L205.675 49.6745ZM186 35.3602C186 36.8433 186.215 38.3111 186.616 39.7243H190.27L194.175 37.6441C194.052 35.4269 194.112 33.2033 194.357 30.9961H186.61C186.206 32.4155 186 33.8843 186 35.3602ZM186.007 44.1684C186.036 44.4594 186.24 44.7067 186.531 44.7867C187.5 45.0645 190.31 45.869 191.23 46.1316C191.492 47.0502 192.301 49.8731 192.575 50.831C192.745 51.4958 193.748 51.538 193.957 50.8746C195.307 47.0306 196.973 42.3246 198.321 38.5096C198.498 38.0565 198.12 37.5255 197.638 37.5423C197.416 37.4804 188.042 42.5697 186.385 43.4484C186.124 43.5866 185.971 43.8702 186.007 44.1684Z" fill="#3FA1E3"/>
<path d="M199.441 39.7235H208.191C208.523 36.8234 208.52 33.8947 208.182 30.9953H195.821C195.596 32.9481 195.523 34.9154 195.601 36.8796C196.177 36.5944 196.967 36.0402 197.638 36.0867C199.097 36.054 200.22 37.6207 199.696 38.9962L199.441 39.7235ZM205.194 19.6784C203.086 19.2528 200.914 19.253 198.806 19.6791L198.321 21.0524C197.235 23.7853 196.464 26.6331 196.024 29.5406H207.986C207.523 26.1839 206.405 22.8846 205.194 19.6784ZM216.904 41.1782H209.479C209.113 44.3204 207.995 47.7404 206.904 50.5901C211.502 49.1151 215.16 45.6289 216.904 41.1782ZM187.1 29.5406H194.525C194.89 26.3984 196.008 22.9777 197.099 20.1286C192.501 21.6037 188.844 25.0899 187.1 29.5406ZM206.892 20.1243C208.095 23.185 209.008 26.3373 209.465 29.5406H216.904C216.034 27.3287 214.686 25.3369 212.955 23.7087C211.223 22.0805 209.153 20.8563 206.892 20.1243ZM209.648 30.9953C209.971 33.8967 209.989 36.8214 209.668 39.7235H217.394C218.201 36.9705 218.201 33.7483 217.394 30.9953H209.648Z" fill="#3FA1E3"/>
</g>
<defs>
<filter id="filter0_d_4945_3653" x="89.5" y="-4.5" width="225" height="81" filterUnits="userSpaceOnUse" color-interpolation-filters="sRGB">
<feFlood flood-opacity="0" result="BackgroundImageFix"/>
<feColorMatrix in="SourceAlpha" type="matrix" values="0 0 0 0 0 0 0 0 0 0 0 0 0 0 0 0 0 0 127 0" result="hardAlpha"/>
<feMorphology radius="4" operator="dilate" in="SourceAlpha" result="effect1_dropShadow_4945_3653"/>
<feOffset/>
<feGaussianBlur stdDeviation="6"/>
<feComposite in2="hardAlpha" operator="out"/>
<feColorMatrix type="matrix" values="0 0 0 0 0.247059 0 0 0 0 0.631373 0 0 0 0 0.890196 0 0 0 0.4 0"/>
<feBlend mode="normal" in2="BackgroundImageFix" result="effect1_dropShadow_4945_3653"/>
<feBlend mode="normal" in="SourceGraphic" in2="effect1_dropShadow_4945_3653" result="shape"/>
</filter>
<radialGradient id="paint0_radial_4945_3653" cx="0" cy="0" r="1" gradientUnits="userSpaceOnUse" gradientTransform="translate(106 146) rotate(90) scale(39)">
<stop offset="0.480792" stop-color="#232F6F" stop-opacity="0"/>
<stop offset="1" stop-color="#232F6F"/>
</radialGradient>
<radialGradient id="paint1_radial_4945_3653" cx="0" cy="0" r="1" gradientUnits="userSpaceOnUse" gradientTransform="translate(202 146) rotate(90) scale(39)">
<stop offset="0.480792" stop-color="#232F6F" stop-opacity="0"/>
<stop offset="1" stop-color="#232F6F"/>
</radialGradient>
<radialGradient id="paint2_radial_4945_3653" cx="0" cy="0" r="1" gradientUnits="userSpaceOnUse" gradientTransform="translate(298 146) rotate(90) scale(39)">
<stop offset="0.480792" stop-color="#232F6F" stop-opacity="0"/>
<stop offset="1" stop-color="#232F6F"/>
</radialGradient>
<linearGradient id="paint3_linear_4945_3653" x1="202" y1="12" x2="202" y2="60" gradientUnits="userSpaceOnUse">
<stop stop-color="#3FA1E3"/>
<stop offset="1" stop-color="#3FA1E3" stop-opacity="0.35"/>
</linearGradient>
<clipPath id="clip0_4945_3653">
<rect width="404" height="180" fill="white"/>
</clipPath>
</defs>
</svg>
