<svg width="404" height="180" viewBox="0 0 404 180" fill="none" xmlns="http://www.w3.org/2000/svg">
<g clip-path="url(#clip0_4279_1649)">
<rect x="32.5" y="142.5" width="62" height="62" rx="23.5" stroke="#232F6F"/>
<path d="M46.0963 169.305L51.9495 159.431C53.2101 157.304 55.4989 156 57.971 156H68.029C70.5011 156 72.7899 157.304 74.0505 159.431L79.9038 169.305C81.1979 171.488 81.209 174.201 79.9327 176.394L74.0415 186.52C72.7881 188.675 70.4836 190 67.991 190H58.009C55.5164 190 53.2119 188.675 51.9585 186.52L46.0673 176.394C44.791 174.201 44.8021 171.488 46.0963 169.305Z" fill="url(#paint0_linear_4279_1649)"/>
<path d="M61 162H56.6L50 172.522L56.6 184H61L54.4 172.522L61 162Z" fill="#131313"/>
<path d="M65 162H69.4L76 172.522L69.4 184H65L71.6 172.522L65 162Z" fill="#131313"/>
<rect x="101.5" y="142.5" width="62" height="62" rx="23.5" stroke="#232F6F"/>
<path d="M115.096 169.305L120.949 159.431C122.21 157.304 124.499 156 126.971 156H137.029C139.501 156 141.79 157.304 143.051 159.431L148.904 169.305C150.198 171.488 150.209 174.201 148.933 176.394L143.042 186.52C141.788 188.675 139.484 190 136.991 190H127.009C124.516 190 122.212 188.675 120.958 186.52L115.067 176.394C113.791 174.201 113.802 171.488 115.096 169.305Z" fill="url(#paint1_linear_4279_1649)"/>
<path d="M130 162H125.6L119 172.522L125.6 184H130L123.4 172.522L130 162Z" fill="#131313"/>
<path d="M134 162H138.4L145 172.522L138.4 184H134L140.6 172.522L134 162Z" fill="#131313"/>
<rect x="170.5" y="142.5" width="62" height="62" rx="23.5" stroke="#232F6F"/>
<path d="M184.096 169.305L189.949 159.431C191.21 157.304 193.499 156 195.971 156H206.029C208.501 156 210.79 157.304 212.051 159.431L217.904 169.305C219.198 171.488 219.209 174.201 217.933 176.394L212.042 186.52C210.788 188.675 208.484 190 205.991 190H196.009C193.516 190 191.212 188.675 189.958 186.52L184.067 176.394C182.791 174.201 182.802 171.488 184.096 169.305Z" fill="url(#paint2_linear_4279_1649)"/>
<path d="M199 162H194.6L188 172.522L194.6 184H199L192.4 172.522L199 162Z" fill="#131313"/>
<path d="M203 162H207.4L214 172.522L207.4 184H203L209.6 172.522L203 162Z" fill="#131313"/>
<rect x="32.5" y="0.5" width="62" height="62" rx="23.5" stroke="#232F6F"/>
<path d="M46.0963 27.3048L51.9495 17.4306C53.2101 15.304 55.4989 14 57.971 14H68.029C70.5011 14 72.7899 15.304 74.0505 17.4306L79.9038 27.3048C81.1979 29.488 81.209 32.2007 79.9327 34.3944L74.0415 44.5202C72.7881 46.6746 70.4836 48 67.991 48H58.009C55.5164 48 53.2119 46.6746 51.9585 44.5202L46.0673 34.3944C44.791 32.2007 44.8021 29.488 46.0963 27.3048Z" fill="url(#paint3_linear_4279_1649)"/>
<path d="M61 20H56.6L50 30.5217L56.6 42H61L54.4 30.5217L61 20Z" fill="#131313"/>
<path d="M65 20H69.4L76 30.5217L69.4 42H65L71.6 30.5217L65 20Z" fill="#131313"/>
<rect x="101.5" y="0.5" width="62" height="62" rx="23.5" stroke="#232F6F"/>
<path d="M115.096 27.3048L120.949 17.4306C122.21 15.304 124.499 14 126.971 14H137.029C139.501 14 141.79 15.304 143.051 17.4306L148.904 27.3048C150.198 29.488 150.209 32.2007 148.933 34.3944L143.042 44.5202C141.788 46.6746 139.484 48 136.991 48H127.009C124.516 48 122.212 46.6746 120.958 44.5202L115.067 34.3944C113.791 32.2007 113.802 29.488 115.096 27.3048Z" fill="url(#paint4_linear_4279_1649)"/>
<path d="M130 20H125.6L119 30.5217L125.6 42H130L123.4 30.5217L130 20Z" fill="#131313"/>
<path d="M134 20H138.4L145 30.5217L138.4 42H134L140.6 30.5217L134 20Z" fill="#131313"/>
<rect x="170.5" y="0.5" width="62" height="62" rx="23.5" stroke="#232F6F"/>
<path d="M184.096 27.3048L189.949 17.4306C191.21 15.304 193.499 14 195.971 14H206.029C208.501 14 210.79 15.304 212.051 17.4306L217.904 27.3048C219.198 29.488 219.209 32.2007 217.933 34.3944L212.042 44.5202C210.788 46.6746 208.484 48 205.991 48H196.009C193.516 48 191.212 46.6746 189.958 44.5202L184.067 34.3944C182.791 32.2007 182.802 29.488 184.096 27.3048Z" fill="url(#paint5_linear_4279_1649)"/>
<path d="M199 20H194.6L188 30.5217L194.6 42H199L192.4 30.5217L199 20Z" fill="#131313"/>
<path d="M203 20H207.4L214 30.5217L207.4 42H203L209.6 30.5217L203 20Z" fill="#131313"/>
<rect x="239.5" y="0.5" width="62" height="62" rx="23.5" stroke="#232F6F"/>
<path d="M253.096 27.3048L258.949 17.4306C260.21 15.304 262.499 14 264.971 14H275.029C277.501 14 279.79 15.304 281.051 17.4306L286.904 27.3048C288.198 29.488 288.209 32.2007 286.933 34.3944L281.042 44.5202C279.788 46.6746 277.484 48 274.991 48H265.009C262.516 48 260.212 46.6746 258.958 44.5202L253.067 34.3944C251.791 32.2007 251.802 29.488 253.096 27.3048Z" fill="url(#paint6_linear_4279_1649)"/>
<path d="M268 20H263.6L257 30.5217L263.6 42H268L261.4 30.5217L268 20Z" fill="#131313"/>
<path d="M272 20H276.4L283 30.5217L276.4 42H272L278.6 30.5217L272 20Z" fill="#131313"/>
<rect x="104" y="72" width="61" height="61" rx="23" fill="url(#paint7_linear_4279_1649)"/>
<rect x="104" y="72" width="61" height="61" rx="23" stroke="#3FA1E3" stroke-width="2"/>
<path d="M117.096 98.3048L122.949 88.4306C124.21 86.304 126.499 85 128.971 85H139.029C141.501 85 143.79 86.304 145.051 88.4306L150.904 98.3048C152.198 100.488 152.209 103.201 150.933 105.394L145.042 115.52C143.788 117.675 141.484 119 138.991 119H129.009C126.516 119 124.212 117.675 122.958 115.52L117.067 105.394C115.791 103.201 115.802 100.488 117.096 98.3048Z" fill="url(#paint8_linear_4279_1649)"/>
<path d="M132 91H127.6L121 101.522L127.6 113H132L125.4 101.522L132 91Z" fill="#131313"/>
<path d="M136 91H140.4L147 101.522L140.4 113H136L142.6 101.522L136 91Z" fill="#131313"/>
<rect x="146" y="68" width="22" height="22" rx="11" fill="#3FA1E3"/>
<rect x="146" y="68" width="22" height="22" rx="11" stroke="#131313" stroke-width="2"/>
<path d="M157 72.666C157.18 72.666 157.356 72.7131 157.512 72.8027C157.667 72.8926 157.797 73.0222 157.887 73.1777L162.863 81.7969C162.953 81.9524 163 82.129 163 82.3086C163 82.4882 162.953 82.6648 162.863 82.8203C162.773 82.9759 162.644 83.1055 162.488 83.1953C162.333 83.2851 162.156 83.3329 161.977 83.333H152.023C151.844 83.3329 151.667 83.2851 151.512 83.1953C151.356 83.1055 151.227 82.9759 151.137 82.8203C151.047 82.6648 151 82.4881 151 82.3086C151 82.1289 151.048 81.9525 151.138 81.7969L156.113 73.1777C156.203 73.0221 156.333 72.8926 156.488 72.8027C156.644 72.713 156.82 72.6661 157 72.666ZM157 80.666C156.645 80.6661 156.356 80.9542 156.356 81.3096C156.356 81.665 156.645 81.953 157 81.9531C157.355 81.9531 157.644 81.665 157.644 81.3096C157.644 80.9541 157.355 80.666 157 80.666ZM156.936 75.8359C156.616 75.8359 156.356 76.0954 156.356 76.415V79.1807C156.356 79.5003 156.616 79.7598 156.936 79.7598H157.065C157.385 79.7596 157.644 79.5002 157.644 79.1807V76.415C157.644 76.0955 157.385 75.8361 157.065 75.8359H156.936Z" fill="#131313"/>
<rect x="172.5" y="71.5" width="62" height="62" rx="23.5" stroke="#232F6F"/>
<path d="M186.096 98.3048L191.949 88.4306C193.21 86.304 195.499 85 197.971 85H208.029C210.501 85 212.79 86.304 214.051 88.4306L219.904 98.3048C221.198 100.488 221.209 103.201 219.933 105.394L214.042 115.52C212.788 117.675 210.484 119 207.991 119H198.009C195.516 119 193.212 117.675 191.958 115.52L186.067 105.394C184.791 103.201 184.802 100.488 186.096 98.3048Z" fill="url(#paint9_linear_4279_1649)"/>
<path d="M201 91H196.6L190 101.522L196.6 113H201L194.4 101.522L201 91Z" fill="#131313"/>
<path d="M205 91H209.4L216 101.522L209.4 113H205L211.6 101.522L205 91Z" fill="#131313"/>
<rect x="241.5" y="71.5" width="62" height="62" rx="23.5" stroke="#232F6F"/>
<path d="M255.096 98.3048L260.949 88.4306C262.21 86.304 264.499 85 266.971 85H277.029C279.501 85 281.79 86.304 283.051 88.4306L288.904 98.3048C290.198 100.488 290.209 103.201 288.933 105.394L283.042 115.52C281.788 117.675 279.484 119 276.991 119H267.009C264.516 119 262.212 117.675 260.958 115.52L255.067 105.394C253.791 103.201 253.802 100.488 255.096 98.3048Z" fill="url(#paint10_linear_4279_1649)"/>
<path d="M270 91H265.6L259 101.522L265.6 113H270L263.4 101.522L270 91Z" fill="#131313"/>
<path d="M274 91H278.4L285 101.522L278.4 113H274L280.6 101.522L274 91Z" fill="#131313"/>
<rect x="310.5" y="71.5" width="62" height="62" rx="23.5" stroke="#232F6F"/>
<path d="M324.096 98.3048L329.949 88.4306C331.21 86.304 333.499 85 335.971 85H346.029C348.501 85 350.79 86.304 352.051 88.4306L357.904 98.3048C359.198 100.488 359.209 103.201 357.933 105.394L352.042 115.52C350.788 117.675 348.484 119 345.991 119H336.009C333.516 119 331.212 117.675 329.958 115.52L324.067 105.394C322.791 103.201 322.802 100.488 324.096 98.3048Z" fill="url(#paint11_linear_4279_1649)"/>
<path d="M339 91H334.6L328 101.522L334.6 113H339L332.4 101.522L339 91Z" fill="#131313"/>
<path d="M343 91H347.4L354 101.522L347.4 113H343L349.6 101.522L343 91Z" fill="#131313"/>
</g>
<defs>
<linearGradient id="paint0_linear_4279_1649" x1="63" y1="156" x2="63" y2="190" gradientUnits="userSpaceOnUse">
<stop stop-color="#232F6F" stop-opacity="0.35"/>
<stop offset="0.605793" stop-color="#232F6F"/>
</linearGradient>
<linearGradient id="paint1_linear_4279_1649" x1="132" y1="156" x2="132" y2="190" gradientUnits="userSpaceOnUse">
<stop stop-color="#232F6F" stop-opacity="0.35"/>
<stop offset="0.605793" stop-color="#232F6F"/>
</linearGradient>
<linearGradient id="paint2_linear_4279_1649" x1="201" y1="156" x2="201" y2="190" gradientUnits="userSpaceOnUse">
<stop stop-color="#232F6F" stop-opacity="0.35"/>
<stop offset="0.605793" stop-color="#232F6F"/>
</linearGradient>
<linearGradient id="paint3_linear_4279_1649" x1="63" y1="14" x2="63" y2="48" gradientUnits="userSpaceOnUse">
<stop stop-color="#232F6F" stop-opacity="0.35"/>
<stop offset="0.605793" stop-color="#232F6F"/>
</linearGradient>
<linearGradient id="paint4_linear_4279_1649" x1="132" y1="14" x2="132" y2="48" gradientUnits="userSpaceOnUse">
<stop stop-color="#232F6F" stop-opacity="0.35"/>
<stop offset="0.605793" stop-color="#232F6F"/>
</linearGradient>
<linearGradient id="paint5_linear_4279_1649" x1="201" y1="14" x2="201" y2="48" gradientUnits="userSpaceOnUse">
<stop stop-color="#232F6F" stop-opacity="0.35"/>
<stop offset="0.605793" stop-color="#232F6F"/>
</linearGradient>
<linearGradient id="paint6_linear_4279_1649" x1="270" y1="14" x2="270" y2="48" gradientUnits="userSpaceOnUse">
<stop stop-color="#232F6F" stop-opacity="0.35"/>
<stop offset="0.605793" stop-color="#232F6F"/>
</linearGradient>
<linearGradient id="paint7_linear_4279_1649" x1="134.5" y1="71" x2="134.5" y2="134" gradientUnits="userSpaceOnUse">
<stop stop-color="#3FA1E3" stop-opacity="0"/>
<stop offset="1" stop-color="#3FA1E3" stop-opacity="0.15"/>
</linearGradient>
<linearGradient id="paint8_linear_4279_1649" x1="134" y1="85" x2="134" y2="119" gradientUnits="userSpaceOnUse">
<stop stop-color="#3FA1E3" stop-opacity="0.35"/>
<stop offset="0.605793" stop-color="#3FA1E3"/>
</linearGradient>
<linearGradient id="paint9_linear_4279_1649" x1="203" y1="85" x2="203" y2="119" gradientUnits="userSpaceOnUse">
<stop stop-color="#232F6F" stop-opacity="0.35"/>
<stop offset="0.605793" stop-color="#232F6F"/>
</linearGradient>
<linearGradient id="paint10_linear_4279_1649" x1="272" y1="85" x2="272" y2="119" gradientUnits="userSpaceOnUse">
<stop stop-color="#232F6F" stop-opacity="0.35"/>
<stop offset="0.605793" stop-color="#232F6F"/>
</linearGradient>
<linearGradient id="paint11_linear_4279_1649" x1="341" y1="85" x2="341" y2="119" gradientUnits="userSpaceOnUse">
<stop stop-color="#232F6F" stop-opacity="0.35"/>
<stop offset="0.605793" stop-color="#232F6F"/>
</linearGradient>
<clipPath id="clip0_4279_1649">
<rect width="404" height="180" fill="white"/>
</clipPath>
</defs>
</svg>
