<svg width="404" height="180" viewBox="0 0 404 180" fill="none" xmlns="http://www.w3.org/2000/svg">
<g clip-path="url(#clip0_4953_3197)">
<ellipse cx="202" cy="88.5" rx="70" ry="70.5" fill="#0A0F2B" fill-opacity="0.8" stroke="url(#paint0_linear_4953_3197)"/>
<g opacity="0.2" filter="url(#filter0_f_4953_3197)">
<ellipse cx="202" cy="88.5" rx="60" ry="59.5" fill="#3FA1E3"/>
</g>
<circle opacity="0.1" cx="202" cy="89" r="79.5" stroke="#3FA1E3"/>
<circle opacity="0.1" cx="202" cy="89" r="79.5" stroke="#3FA1E3"/>
<circle opacity="0.2" cx="305" cy="89" r="69.5" stroke="#3FA1E3"/>
<circle opacity="0.5" cx="351" cy="89" r="56.5" stroke="#3FA1E3"/>
<path d="M221.208 58.0001C224.185 57.9973 227.149 58.3803 230.027 59.1398C231.256 59.4713 232.464 59.8722 233.647 60.34C233.669 60.3651 233.68 60.397 233.68 60.4298C233.68 60.4626 233.668 60.4945 233.647 60.5197C233.141 61.5862 232.593 62.6265 232.007 63.6398C231.984 63.6559 231.956 63.6651 231.928 63.6652C231.899 63.6652 231.871 63.656 231.848 63.6398C230.663 63.2094 229.454 62.8486 228.228 62.5597C220.31 60.7281 211.991 62.0477 205.029 66.2394C208.032 68.7825 210.587 71.8116 212.589 75.1993C212.989 75.879 213.468 76.7583 213.688 77.1984C213.908 77.6383 214.029 77.8586 214.349 78.5782C214.669 79.2981 214.969 80.0181 215.249 80.7579C216.698 84.6547 217.436 88.7803 217.429 92.9376C217.431 97.6496 216.478 102.314 214.629 106.648C212.78 110.981 210.073 114.896 206.67 118.155C206.15 118.655 205.49 119.235 205.05 119.615C204.61 119.995 204.29 120.255 203.71 120.695C203.13 121.135 202.53 121.555 201.93 121.975C201.906 121.991 201.878 122 201.85 122C201.821 122 201.793 121.991 201.77 121.975C201.17 121.575 200.45 121.035 199.99 120.695C199.53 120.355 199.21 120.095 198.65 119.615C198.09 119.135 197.55 118.655 197.03 118.155C192.105 113.44 188.668 107.387 187.144 100.741C185.619 94.0957 186.074 87.1483 188.451 80.7579C188.711 80.0381 189.111 79.0787 189.331 78.5988C189.551 78.1188 189.631 77.9188 189.991 77.2189C190.351 76.5189 190.691 75.8588 191.091 75.2189C193.09 71.8291 195.645 68.8006 198.65 66.2599C191.705 62.0461 183.394 60.6979 175.473 62.5001C174.246 62.7902 173.037 63.1509 171.853 63.5802C171.829 63.5965 171.801 63.6046 171.772 63.6046C171.744 63.6046 171.716 63.5965 171.692 63.5802C171.086 62.5627 170.531 61.5139 170.032 60.4396C170.011 60.4144 170 60.3824 170 60.3497C170 60.317 170.011 60.285 170.032 60.2599C171.203 59.8179 172.398 59.4437 173.612 59.1398C176.51 58.3751 179.495 57.9922 182.491 58.0001C189.382 57.9911 196.12 60.0306 201.85 63.8595C207.58 60.0327 214.317 57.9935 221.208 58.0001ZM191.531 83.5822C189.859 88.8693 189.631 94.5075 190.872 99.9122C192.113 105.317 194.779 110.292 198.591 114.319C199.546 111.292 200.031 108.135 200.03 104.96C200.044 97.0077 197.002 89.3541 191.531 83.5822ZM212.229 83.5822C206.759 89.3541 203.715 97.0076 203.729 104.96C203.732 108.135 204.218 111.291 205.17 114.319C210.639 108.546 213.681 100.893 213.669 92.9415C213.667 89.7669 213.182 86.6105 212.229 83.5822ZM201.85 68.5197C199.085 70.7113 196.712 73.3552 194.83 76.339C197.132 76.8729 199.487 77.1412 201.85 77.1388C204.212 77.1425 206.568 76.8742 208.869 76.339C206.985 73.357 204.612 70.7136 201.85 68.5197Z" fill="url(#paint1_linear_4953_3197)"/>
<circle opacity="0.2" cx="70" cy="70" r="69.5" transform="matrix(-1 0 0 1 168 19)" stroke="#3FA1E3"/>
<circle opacity="0.5" cx="57" cy="57" r="56.5" transform="matrix(-1 0 0 1 109 32)" stroke="#3FA1E3"/>
<circle opacity="0.8" cx="45" cy="45" r="44.5" transform="matrix(-1 0 0 1 40 44)" stroke="#3FA1E3"/>
<circle opacity="0.8" cx="406" cy="89" r="44.5" stroke="#3FA1E3"/>
</g>
<defs>
<filter id="filter0_f_4953_3197" x="110" y="-3" width="184" height="183" filterUnits="userSpaceOnUse" color-interpolation-filters="sRGB">
<feFlood flood-opacity="0" result="BackgroundImageFix"/>
<feBlend mode="normal" in="SourceGraphic" in2="BackgroundImageFix" result="shape"/>
<feGaussianBlur stdDeviation="16" result="effect1_foregroundBlur_4953_3197"/>
</filter>
<linearGradient id="paint0_linear_4953_3197" x1="202" y1="18" x2="202" y2="159" gradientUnits="userSpaceOnUse">
<stop stop-color="#3FA1E3"/>
<stop offset="1" stop-color="#3FA1E3" stop-opacity="0.35"/>
</linearGradient>
<linearGradient id="paint1_linear_4953_3197" x1="201.84" y1="58" x2="201.84" y2="122" gradientUnits="userSpaceOnUse">
<stop stop-color="#3FA1E3" stop-opacity="0.35"/>
<stop offset="0.605793" stop-color="#3FA1E3"/>
</linearGradient>
<clipPath id="clip0_4953_3197">
<rect width="404" height="180" fill="white"/>
</clipPath>
</defs>
</svg>
