<svg width="404" height="180" viewBox="0 0 404 180" fill="none" xmlns="http://www.w3.org/2000/svg">
<g clip-path="url(#clip0_4899_3952)">
<path opacity="0.3" d="M0 48L404 136V180H0V48Z" fill="url(#paint0_linear_4899_3952)"/>
<path d="M404 136L7.62939e-06 48" stroke="#3FA1E3" stroke-width="1.5"/>
<path d="M52.5438 142.929C52.3984 138.492 50.5652 134.278 47.4183 131.147C44.0997 127.827 39.6892 126 35 126C25.5291 126 17.7904 133.538 17.4569 142.929C16.7266 143.252 16.1058 143.781 15.6697 144.45C15.2337 145.119 15.001 145.9 15 146.699V151.331C15.0012 152.425 15.4362 153.473 16.2096 154.247C16.983 155.02 18.0316 155.455 19.1254 155.456C19.8331 155.455 20.5115 155.174 21.0119 154.674C21.5123 154.173 21.7938 153.495 21.7947 152.787V145.242C21.7947 143.86 20.7346 142.733 19.3869 142.599C19.8844 134.418 26.695 127.913 35 127.913C39.179 127.913 43.1086 129.542 46.0661 132.5C48.7819 135.216 50.3714 138.756 50.6105 142.6C49.2641 142.735 48.206 143.861 48.206 145.242V152.786C48.206 154.18 49.2826 155.314 50.6463 155.432V157.338C50.6451 158.371 50.2344 159.36 49.5044 160.09C48.7744 160.82 47.7847 161.231 46.7524 161.232H43.8688C43.6744 160.665 43.3074 160.173 42.8193 159.826C42.3312 159.478 41.7465 159.292 41.1473 159.294H38.175C37.7483 159.294 37.3389 159.385 36.9638 159.559C36.4617 159.791 36.0363 160.162 35.7379 160.628C35.4396 161.094 35.2807 161.635 35.28 162.188C35.28 162.963 35.5817 163.69 36.1283 164.234C36.3962 164.504 36.7151 164.718 37.0665 164.864C37.4178 165.01 37.7946 165.084 38.175 165.083H41.1473C42.3795 165.083 43.4657 164.287 43.8707 163.145H46.7524C49.9549 163.145 52.5597 160.54 52.5597 157.338V155.091C53.2856 154.766 53.9021 154.238 54.3351 153.571C54.768 152.903 54.9989 152.125 55 151.33V146.698C55 145.018 53.9884 143.571 52.5438 142.929ZM19.8806 145.242V152.786C19.8806 153.203 19.5419 153.542 19.1248 153.542C18.5383 153.542 17.9761 153.308 17.5614 152.894C17.1467 152.479 16.9135 151.917 16.9128 151.33V146.698C16.9135 146.112 17.1467 145.55 17.5614 145.135C17.9761 144.72 18.5383 144.487 19.1248 144.486C19.5419 144.486 19.8806 144.826 19.8806 145.242ZM42.1072 162.394C42.0596 162.613 41.9385 162.81 41.7638 162.952C41.5891 163.093 41.3714 163.171 41.1466 163.171H38.1744C37.9129 163.171 37.6673 163.069 37.4798 162.882C37.3886 162.791 37.3162 162.683 37.2669 162.564C37.2176 162.446 37.1925 162.318 37.1928 162.19C37.1935 161.93 37.2971 161.68 37.4811 161.497C37.6651 161.313 37.9143 161.209 38.1744 161.209H41.1466C41.4081 161.209 41.6537 161.31 41.8406 161.498C42.0255 161.682 42.1276 161.928 42.1276 162.19C42.1282 162.26 42.1206 162.33 42.1072 162.394ZM53.0865 151.33C53.0859 151.917 52.8526 152.479 52.4379 152.894C52.0233 153.308 51.461 153.542 50.8746 153.542C50.6742 153.542 50.4821 153.462 50.3403 153.321C50.1986 153.179 50.119 152.987 50.1188 152.786V145.242C50.1188 144.826 50.4575 144.486 50.8746 144.486C51.461 144.487 52.0233 144.72 52.4379 145.135C52.8526 145.55 53.0859 146.112 53.0865 146.698V151.33Z" fill="url(#paint1_linear_4899_3952)"/>
<path d="M41.1952 151.659C42.27 151.658 43.3004 151.231 44.0604 150.471C44.8204 149.711 45.2479 148.68 45.2491 147.605V139.345C45.2491 138.265 44.8269 137.247 44.0602 136.48C43.2936 135.713 42.2763 135.291 41.1952 135.291H28.8049C27.7301 135.292 26.6997 135.72 25.9397 136.48C25.1797 137.24 24.7522 138.27 24.751 139.345V147.605C24.7522 148.68 25.1797 149.711 25.9397 150.471C26.6997 151.231 27.7301 151.658 28.8049 151.659H28.8808V153.8C28.8796 154.061 28.93 154.32 29.0292 154.562C29.1284 154.804 29.2745 155.024 29.4589 155.209C29.6434 155.394 29.8626 155.541 30.1041 155.641C30.3455 155.741 30.6043 155.793 30.8657 155.792C31.1269 155.793 31.3856 155.741 31.6262 155.639C31.8668 155.538 32.0846 155.389 32.2664 155.201L35.8273 151.659H41.1952ZM34.7589 150.024L30.9053 153.857C30.888 153.874 30.8753 153.888 30.8389 153.872C30.7949 153.854 30.7949 153.825 30.7949 153.8V150.703C30.7949 150.449 30.6941 150.205 30.5147 150.026C30.3353 149.847 30.0919 149.746 29.8382 149.746H28.8056C28.2381 149.745 27.694 149.519 27.2927 149.118C26.8915 148.717 26.6657 148.173 26.6651 147.605V139.345C26.6657 138.777 26.8915 138.233 27.2927 137.832C27.694 137.431 28.2381 137.205 28.8056 137.204H41.1958C41.766 137.204 42.3024 137.428 42.7081 137.833C43.1137 138.238 43.3363 138.775 43.3363 139.345V147.605C43.3356 148.173 43.1099 148.717 42.7086 149.118C42.3073 149.519 41.7633 149.745 41.1958 149.746H35.4338C35.1805 149.746 34.9382 149.846 34.7589 150.024Z" fill="url(#paint2_linear_4899_3952)"/>
<path d="M30.3522 142.219C29.574 142.219 28.9407 142.853 28.9407 143.63C28.9407 144.408 29.5747 145.042 30.3522 145.042C31.1309 145.042 31.7649 144.408 31.7649 143.63C31.7649 142.853 31.1316 142.219 30.3522 142.219ZM34.9993 142.219C34.2212 142.219 33.5878 142.853 33.5878 143.63C33.5878 144.408 34.2218 145.042 34.9993 145.042C35.7787 145.042 36.4121 144.408 36.4121 143.63C36.4121 142.853 35.7787 142.219 34.9993 142.219ZM39.6464 142.219C38.8683 142.219 38.2349 142.853 38.2349 143.63C38.2349 144.408 38.8689 145.042 39.6464 145.042C40.4252 145.042 41.0592 144.408 41.0592 143.63C41.0592 142.853 40.4252 142.219 39.6464 142.219Z" fill="url(#paint3_linear_4899_3952)"/>
<path d="M321.096 49.2394L331.06 32.4306C332.321 30.304 334.61 29 337.082 29H354.565C357.037 29 359.326 30.304 360.587 32.4306L370.551 49.2394C371.845 51.4226 371.856 54.1353 370.58 56.329L360.578 73.5202C359.324 75.6746 357.02 77 354.527 77H337.12C334.627 77 332.323 75.6746 331.069 73.5202L321.067 56.329C319.791 54.1353 319.802 51.4226 321.096 49.2394Z" fill="url(#paint4_linear_4899_3952)"/>
<path d="M343 37.4707H336.788L327.47 52.3249L336.788 68.5295H343L333.682 52.3249L343 37.4707Z" fill="#131313"/>
<path d="M348.647 37.4707H354.859L364.177 52.3249L354.859 68.5295H348.647L357.965 52.3249L348.647 37.4707Z" fill="#131313"/>
<path d="M303.711 34.9915C310.923 19.0867 327.145 8 346 8C364.855 8 381.077 19.0867 388.289 34.9915M302 67.6384C308.048 85.8456 325.462 99 346 99C366.538 99 383.952 85.8456 390 67.6384" stroke="url(#paint5_linear_4899_3952)" stroke-width="1.5"/>
<path d="M301 31L303.133 35L309 33.5455" stroke="url(#paint6_linear_4899_3952)" stroke-width="1.5"/>
<path d="M393 71L390.867 67L385 68.4545" stroke="url(#paint7_linear_4899_3952)" stroke-width="1.5"/>
<circle cx="377" cy="18" r="17" fill="url(#paint8_linear_4899_3952)" stroke="#131313" stroke-width="2"/>
<path d="M378.639 15.0977C378.688 14.7607 379.062 14.5793 379.357 14.75C380.501 15.4127 381.212 16.6434 381.212 17.9609C381.212 19.3887 380.412 20.6657 379.125 21.2939L379.063 21.3242V27.4141C379.063 27.7377 378.801 28 378.477 28H376.524C376.201 28 375.938 27.7377 375.938 27.4141V21.3242L375.877 21.2939C374.59 20.6657 373.79 19.3887 373.79 17.9609C373.79 16.6434 374.5 15.4127 375.644 14.75C375.939 14.5793 376.313 14.7607 376.362 15.0977L376.719 17.5703H378.282L378.639 15.0977ZM379.063 8C379.199 8 379.33 8.04706 379.434 8.13281C379.539 8.21861 379.611 8.33803 379.637 8.4707L379.929 9.92969C380.46 10.0898 380.974 10.3024 381.463 10.5645L382.7 9.73926C382.813 9.66416 382.948 9.63022 383.083 9.64355C383.217 9.6569 383.343 9.71682 383.439 9.8125L385.649 12.0225C385.745 12.1182 385.805 12.2442 385.818 12.3789C385.831 12.5137 385.798 12.649 385.722 12.7617L384.897 13.999C385.159 14.4878 385.373 15.0012 385.533 15.5322L386.991 15.8242C387.124 15.8508 387.243 15.9227 387.329 16.0273C387.415 16.1321 387.462 16.2631 387.462 16.3984V19.5234C387.462 19.6588 387.415 19.7898 387.329 19.8945C387.243 19.9992 387.124 20.071 386.991 20.0977L385.532 20.3896C385.372 20.9206 385.159 21.4341 384.897 21.9229L385.722 23.1602C385.798 23.2728 385.831 23.4082 385.818 23.543C385.805 23.6777 385.745 23.8037 385.649 23.8994L383.439 26.1094C383.326 26.2225 383.176 26.2812 383.025 26.2813C382.91 26.2813 382.796 26.2468 382.7 26.1826L381.488 25.375V21.6963C382.406 20.7195 382.969 19.4072 382.969 17.9609C382.969 14.9406 380.521 12.4922 377.501 12.4922C374.48 12.4922 372.032 14.9406 372.032 17.9609C372.032 19.4072 372.596 20.7195 373.513 21.6963V25.375L372.302 26.1826C372.189 26.2577 372.053 26.2917 371.919 26.2783C371.784 26.265 371.658 26.2051 371.562 26.1094L369.352 23.8994C369.257 23.8037 369.197 23.6777 369.183 23.543C369.17 23.4082 369.204 23.2728 369.279 23.1602L370.104 21.9229C369.842 21.4342 369.63 20.9206 369.469 20.3896L368.01 20.0977C367.737 20.0428 367.54 19.8026 367.54 19.5234V16.3984C367.54 16.2631 367.587 16.1321 367.673 16.0273C367.758 15.9227 367.878 15.8508 368.01 15.8242L369.469 15.5322C369.629 15.0012 369.842 14.4878 370.104 13.999L369.279 12.7617C369.204 12.649 369.17 12.5137 369.183 12.3789C369.197 12.2442 369.257 12.1182 369.352 12.0225L371.562 9.8125C371.658 9.71682 371.784 9.6569 371.919 9.64355C372.053 9.63022 372.189 9.66416 372.302 9.73926L373.539 10.5645C374.028 10.3024 374.541 10.0898 375.072 9.92969L375.364 8.4707C375.391 8.33803 375.462 8.21861 375.567 8.13281C375.672 8.04705 375.803 8 375.938 8H379.063Z" fill="#131313"/>
</g>
<defs>
<linearGradient id="paint0_linear_4899_3952" x1="202" y1="48" x2="202" y2="180" gradientUnits="userSpaceOnUse">
<stop stop-color="#3FA1E3"/>
<stop offset="1" stop-color="#3FA1E3" stop-opacity="0.12"/>
</linearGradient>
<linearGradient id="paint1_linear_4899_3952" x1="35" y1="126" x2="35" y2="165.083" gradientUnits="userSpaceOnUse">
<stop stop-color="#3FA1E3" stop-opacity="0.35"/>
<stop offset="0.605793" stop-color="#3FA1E3"/>
</linearGradient>
<linearGradient id="paint2_linear_4899_3952" x1="35" y1="135.291" x2="35" y2="155.792" gradientUnits="userSpaceOnUse">
<stop stop-color="#3FA1E3" stop-opacity="0.35"/>
<stop offset="0.605793" stop-color="#3FA1E3"/>
</linearGradient>
<linearGradient id="paint3_linear_4899_3952" x1="34.9999" y1="142.219" x2="34.9999" y2="145.042" gradientUnits="userSpaceOnUse">
<stop stop-color="#3FA1E3" stop-opacity="0.35"/>
<stop offset="0.605793" stop-color="#3FA1E3"/>
</linearGradient>
<linearGradient id="paint4_linear_4899_3952" x1="345.824" y1="29" x2="345.824" y2="77" gradientUnits="userSpaceOnUse">
<stop stop-color="#3FA1E3" stop-opacity="0.35"/>
<stop offset="0.605793" stop-color="#3FA1E3"/>
</linearGradient>
<linearGradient id="paint5_linear_4899_3952" x1="346" y1="11.8559" x2="346" y2="99" gradientUnits="userSpaceOnUse">
<stop stop-color="#3FA1E3" stop-opacity="0.35"/>
<stop offset="1" stop-color="#3FA1E3"/>
</linearGradient>
<linearGradient id="paint6_linear_4899_3952" x1="305" y1="31" x2="305" y2="35" gradientUnits="userSpaceOnUse">
<stop stop-color="#3FA1E3" stop-opacity="0.35"/>
<stop offset="0.605793" stop-color="#3FA1E3"/>
</linearGradient>
<linearGradient id="paint7_linear_4899_3952" x1="389" y1="71" x2="389" y2="67" gradientUnits="userSpaceOnUse">
<stop stop-color="#3FA1E3" stop-opacity="0.35"/>
<stop offset="0.605793" stop-color="#3FA1E3"/>
</linearGradient>
<linearGradient id="paint8_linear_4899_3952" x1="377" y1="2" x2="377" y2="34" gradientUnits="userSpaceOnUse">
<stop stop-color="#3FA1E3" stop-opacity="0.35"/>
<stop offset="0.605793" stop-color="#3FA1E3"/>
</linearGradient>
<clipPath id="clip0_4899_3952">
<rect width="404" height="180" fill="white"/>
</clipPath>
</defs>
</svg>
