<svg width="480" height="400" viewBox="0 0 480 400" fill="none" xmlns="http://www.w3.org/2000/svg">
<circle cx="73.5" cy="332.5" r="54" stroke="#232F6F"/>
<circle opacity="0.5" cx="73.5" cy="332.5" r="67" stroke="#232F6F"/>
<circle cx="95.5" cy="84.5" r="54" stroke="#232F6F"/>
<circle cx="242.5" cy="144.5" r="54" stroke="#232F6F"/>
<circle cx="202.5" cy="281.5" r="54" stroke="#232F6F"/>
<circle cx="406.5" cy="176.5" r="54" stroke="#232F6F"/>
<circle cx="362.5" cy="69.5" r="54" stroke="#232F6F"/>
<circle cx="343.5" cy="323.5" r="54" stroke="#232F6F"/>
<circle opacity="0.5" cx="95.5" cy="84.5" r="67" stroke="#232F6F"/>
<circle opacity="0.5" cx="202.5" cy="281.5" r="67" stroke="#232F6F"/>
<circle opacity="0.5" cx="242.5" cy="144.5" r="67" stroke="#232F6F"/>
<circle opacity="0.5" cx="406.5" cy="176.5" r="67" stroke="#232F6F"/>
<circle opacity="0.5" cx="362.5" cy="69.5" r="67" stroke="#232F6F"/>
<circle opacity="0.5" cx="343.5" cy="323.5" r="67" stroke="#232F6F"/>
<g opacity="0.3" clip-path="url(#clip0_4952_2771)">
<path d="M96 45C106.686 45 116.729 49.1587 124.285 56.7147C131.841 64.2711 136 74.3138 136 85C136 95.6861 131.841 105.729 124.285 113.285C116.729 120.841 106.686 125 96 125C85.3139 125 75.2711 120.841 67.7147 113.285C60.1585 105.729 56 95.6862 56 85C56 74.3139 60.1587 64.2711 67.7147 56.7147C75.2711 49.1585 85.3138 45 96 45ZM96 91.0917C83.6338 91.0917 73.1759 100.482 71.7612 112.654L71.6971 113.203L72.1218 113.558C78.5901 118.975 86.9204 122.244 96 122.244C105.08 122.244 113.412 118.975 119.88 113.558L120.303 113.203L120.239 112.652C119.607 107.22 117.151 102.134 113.258 98.2392C108.649 93.6315 102.515 91.0917 96 91.0917ZM96 47.7564C75.4629 47.7564 58.7564 64.4629 58.7564 85C58.7564 94.3132 62.1938 102.839 67.863 109.375L69.1591 110.869L69.6338 108.95C70.8881 103.874 73.5941 99.2473 77.4924 95.617C80.184 93.1095 83.3105 91.2053 86.6891 89.974L88.5741 89.2869L86.9135 88.1611C82.5954 85.2356 79.758 80.2931 79.758 74.7035C79.7584 65.7488 87.0452 58.4615 96 58.4615C104.955 58.4615 112.242 65.7488 112.242 74.7035C112.242 80.2901 109.407 85.2311 105.093 88.1571L103.432 89.2829L105.317 89.968C108.988 91.3055 112.356 93.441 115.205 96.2901C118.698 99.782 121.174 104.161 122.364 108.954L122.839 110.871L124.133 109.379C129.804 102.843 133.244 94.3152 133.244 85C133.244 64.4629 116.537 47.7564 96 47.7564ZM96 61.2179C88.5636 61.2179 82.5148 67.2663 82.5144 74.7035C82.5144 81.7952 88.0151 87.6212 94.9744 88.147V88.1911H96C103.437 88.1911 109.486 82.1403 109.486 74.7035C109.485 67.2663 103.436 61.2179 96 61.2179Z" fill="#3FA1E3"/>
<circle opacity="0.1" cx="228.279" cy="207.283" r="105" fill="white"/>
</g>
<g clip-path="url(#clip1_4952_2771)">
<path d="M243 103C253.686 103 263.729 107.159 271.285 114.715C278.841 122.271 283 132.314 283 143C283 153.686 278.841 163.729 271.285 171.285C263.729 178.841 253.686 183 243 183C232.314 183 222.271 178.841 214.715 171.285C207.159 163.729 203 153.686 203 143C203 132.314 207.159 122.271 214.715 114.715C222.271 107.159 232.314 103 243 103ZM243 149.092C230.634 149.092 220.176 158.482 218.761 170.654L218.697 171.203L219.122 171.558C225.59 176.975 233.92 180.244 243 180.244C252.08 180.244 260.412 176.975 266.88 171.558L267.303 171.203L267.239 170.652C266.607 165.22 264.151 160.134 260.258 156.239C255.649 151.632 249.515 149.092 243 149.092ZM243 105.756C222.463 105.756 205.756 122.463 205.756 143C205.756 152.313 209.194 160.839 214.863 167.375L216.159 168.869L216.634 166.95C217.888 161.874 220.594 157.247 224.492 153.617C227.184 151.109 230.31 149.205 233.689 147.974L235.574 147.287L233.913 146.161C229.595 143.236 226.758 138.293 226.758 132.704C226.758 123.749 234.045 116.462 243 116.462C251.955 116.462 259.242 123.749 259.242 132.704C259.242 138.29 256.407 143.231 252.093 146.157L250.432 147.283L252.317 147.968C255.988 149.305 259.356 151.441 262.205 154.29C265.698 157.782 268.174 162.161 269.364 166.954L269.839 168.871L271.133 167.379C276.804 160.843 280.244 152.315 280.244 143C280.244 122.463 263.537 105.756 243 105.756ZM243 119.218C235.564 119.218 229.515 125.266 229.514 132.704C229.514 139.795 235.015 145.621 241.974 146.147V146.191H243C250.437 146.191 256.486 140.14 256.486 132.704C256.485 125.266 250.436 119.218 243 119.218Z" fill="#3FA1E3"/>
<circle opacity="0.1" cx="375.279" cy="265.283" r="105" fill="white"/>
</g>
<g clip-path="url(#clip2_4952_2771)">
<path d="M362 29C372.686 29 382.729 33.1587 390.285 40.7147C397.841 48.2711 402 58.3138 402 69C402 79.6861 397.841 89.7289 390.285 97.2853C382.729 104.841 372.686 109 362 109C351.314 109 341.271 104.841 333.715 97.2853C326.159 89.7289 322 79.6862 322 69C322 58.3139 326.159 48.2711 333.715 40.7147C341.271 33.1585 351.314 29 362 29ZM362 75.0917C349.634 75.0917 339.176 84.4825 337.761 96.6543L337.697 97.2031L338.122 97.5577C344.59 102.975 352.92 106.244 362 106.244C371.08 106.244 379.412 102.975 385.88 97.5577L386.303 97.2031L386.239 96.6522C385.607 91.2199 383.151 86.1337 379.258 82.2392C374.649 77.6315 368.515 75.0917 362 75.0917ZM362 31.7564C341.463 31.7564 324.756 48.4629 324.756 69C324.756 78.3132 328.194 86.8393 333.863 93.375L335.159 94.8694L335.634 92.9503C336.888 87.8741 339.594 83.2473 343.492 79.617C346.184 77.1095 349.31 75.2053 352.689 73.974L354.574 73.2869L352.913 72.1611C348.595 69.2356 345.758 64.2931 345.758 58.7035C345.758 49.7488 353.045 42.4615 362 42.4615C370.955 42.4615 378.242 49.7488 378.242 58.7035C378.242 64.2901 375.407 69.2311 371.093 72.1571L369.432 73.2829L371.317 73.968C374.988 75.3055 378.356 77.441 381.205 80.2901C384.698 83.782 387.174 88.1609 388.364 92.9543L388.839 94.8714L390.133 93.379C395.804 86.8432 399.244 78.3152 399.244 69C399.244 48.4629 382.537 31.7564 362 31.7564ZM362 45.2179C354.564 45.2179 348.515 51.2663 348.514 58.7035C348.514 65.7952 354.015 71.6212 360.974 72.147V72.1911H362C369.437 72.1911 375.486 66.1403 375.486 58.7035C375.485 51.2663 369.436 45.2179 362 45.2179Z" fill="#3FA1E3"/>
<circle opacity="0.1" cx="494.279" cy="191.283" r="105" fill="white"/>
</g>
<g clip-path="url(#clip3_4952_2771)">
<path d="M407 134C417.686 134 427.729 138.159 435.285 145.715C442.841 153.271 447 163.314 447 174C447 184.686 442.841 194.729 435.285 202.285C427.729 209.841 417.686 214 407 214C396.314 214 386.271 209.841 378.715 202.285C371.159 194.729 367 184.686 367 174C367 163.314 371.159 153.271 378.715 145.715C386.271 138.159 396.314 134 407 134ZM407 180.092C394.634 180.092 384.176 189.482 382.761 201.654L382.697 202.203L383.122 202.558C389.59 207.975 397.92 211.244 407 211.244C416.08 211.244 424.412 207.975 430.88 202.558L431.303 202.203L431.239 201.652C430.607 196.22 428.151 191.134 424.258 187.239C419.649 182.632 413.515 180.092 407 180.092ZM407 136.756C386.463 136.756 369.756 153.463 369.756 174C369.756 183.313 373.194 191.839 378.863 198.375L380.159 199.869L380.634 197.95C381.888 192.874 384.594 188.247 388.492 184.617C391.184 182.109 394.31 180.205 397.689 178.974L399.574 178.287L397.913 177.161C393.595 174.236 390.758 169.293 390.758 163.704C390.758 154.749 398.045 147.462 407 147.462C415.955 147.462 423.242 154.749 423.242 163.704C423.242 169.29 420.407 174.231 416.093 177.157L414.432 178.283L416.317 178.968C419.988 180.305 423.356 182.441 426.205 185.29C429.698 188.782 432.174 193.161 433.364 197.954L433.839 199.871L435.133 198.379C440.804 191.843 444.244 183.315 444.244 174C444.244 153.463 427.537 136.756 407 136.756ZM407 150.218C399.564 150.218 393.515 156.266 393.514 163.704C393.514 170.795 399.015 176.621 405.974 177.147V177.191H407C414.437 177.191 420.486 171.14 420.486 163.704C420.485 156.266 414.436 150.218 407 150.218Z" fill="#3FA1E3"/>
<circle opacity="0.1" cx="539.279" cy="296.283" r="105" fill="white"/>
</g>
<g clip-path="url(#clip4_4952_2771)">
<path d="M203 241C213.686 241 223.729 245.159 231.285 252.715C238.841 260.271 243 270.314 243 281C243 291.686 238.841 301.729 231.285 309.285C223.729 316.841 213.686 321 203 321C192.314 321 182.271 316.841 174.715 309.285C167.159 301.729 163 291.686 163 281C163 270.314 167.159 260.271 174.715 252.715C182.271 245.159 192.314 241 203 241ZM203 287.092C190.634 287.092 180.176 296.482 178.761 308.654L178.697 309.203L179.122 309.558C185.59 314.975 193.92 318.244 203 318.244C212.08 318.244 220.412 314.975 226.88 309.558L227.303 309.203L227.239 308.652C226.607 303.22 224.151 298.134 220.258 294.239C215.649 289.632 209.515 287.092 203 287.092ZM203 243.756C182.463 243.756 165.756 260.463 165.756 281C165.756 290.313 169.194 298.839 174.863 305.375L176.159 306.869L176.634 304.95C177.888 299.874 180.594 295.247 184.492 291.617C187.184 289.109 190.31 287.205 193.689 285.974L195.574 285.287L193.913 284.161C189.595 281.236 186.758 276.293 186.758 270.704C186.758 261.749 194.045 254.462 203 254.462C211.955 254.462 219.242 261.749 219.242 270.704C219.242 276.29 216.407 281.231 212.093 284.157L210.432 285.283L212.317 285.968C215.988 287.305 219.356 289.441 222.205 292.29C225.698 295.782 228.174 300.161 229.364 304.954L229.839 306.871L231.133 305.379C236.804 298.843 240.244 290.315 240.244 281C240.244 260.463 223.537 243.756 203 243.756ZM203 257.218C195.564 257.218 189.515 263.266 189.514 270.704C189.514 277.795 195.015 283.621 201.974 284.147V284.191H203C210.437 284.191 216.486 278.14 216.486 270.704C216.485 263.266 210.436 257.218 203 257.218Z" fill="#3FA1E3"/>
<circle opacity="0.1" cx="335.279" cy="403.283" r="105" fill="white"/>
</g>
<g clip-path="url(#clip5_4952_2771)">
<path d="M344 282C354.686 282 364.729 286.159 372.285 293.715C379.841 301.271 384 311.314 384 322C384 332.686 379.841 342.729 372.285 350.285C364.729 357.841 354.686 362 344 362C333.314 362 323.271 357.841 315.715 350.285C308.159 342.729 304 332.686 304 322C304 311.314 308.159 301.271 315.715 293.715C323.271 286.159 333.314 282 344 282ZM344 328.092C331.634 328.092 321.176 337.482 319.761 349.654L319.697 350.203L320.122 350.558C326.59 355.975 334.92 359.244 344 359.244C353.08 359.244 361.412 355.975 367.88 350.558L368.303 350.203L368.239 349.652C367.607 344.22 365.151 339.134 361.258 335.239C356.649 330.632 350.515 328.092 344 328.092ZM344 284.756C323.463 284.756 306.756 301.463 306.756 322C306.756 331.313 310.194 339.839 315.863 346.375L317.159 347.869L317.634 345.95C318.888 340.874 321.594 336.247 325.492 332.617C328.184 330.109 331.31 328.205 334.689 326.974L336.574 326.287L334.913 325.161C330.595 322.236 327.758 317.293 327.758 311.704C327.758 302.749 335.045 295.462 344 295.462C352.955 295.462 360.242 302.749 360.242 311.704C360.242 317.29 357.407 322.231 353.093 325.157L351.432 326.283L353.317 326.968C356.988 328.305 360.356 330.441 363.205 333.29C366.698 336.782 369.174 341.161 370.364 345.954L370.839 347.871L372.133 346.379C377.804 339.843 381.244 331.315 381.244 322C381.244 301.463 364.537 284.756 344 284.756ZM344 298.218C336.564 298.218 330.515 304.266 330.514 311.704C330.514 318.795 336.015 324.621 342.974 325.147V325.191H344C351.437 325.191 357.486 319.14 357.486 311.704C357.485 304.266 351.436 298.218 344 298.218Z" fill="#3FA1E3"/>
<circle opacity="0.1" cx="476.279" cy="444.283" r="105" fill="white"/>
</g>
<g clip-path="url(#clip6_4952_2771)">
<path d="M75 291C85.6861 291 95.7289 295.159 103.285 302.715C110.841 310.271 115 320.314 115 331C115 341.686 110.841 351.729 103.285 359.285C95.7289 366.841 85.6862 371 75 371C64.3139 371 54.2711 366.841 46.7147 359.285C39.1585 351.729 35 341.686 35 331C35 320.314 39.1587 310.271 46.7147 302.715C54.2711 295.159 64.3138 291 75 291ZM75 337.092C62.6338 337.092 52.1759 346.482 50.7612 358.654L50.6971 359.203L51.1218 359.558C57.5901 364.975 65.9204 368.244 75 368.244C84.0797 368.244 92.412 364.975 98.8802 359.558L99.3029 359.203L99.2388 358.652C98.6066 353.22 96.1513 348.134 92.2576 344.239C87.6491 339.632 81.5154 337.092 75 337.092ZM75 293.756C54.4629 293.756 37.7564 310.463 37.7564 331C37.7564 340.313 41.1938 348.839 46.863 355.375L48.1591 356.869L48.6338 354.95C49.8881 349.874 52.5941 345.247 56.4924 341.617C59.184 339.109 62.3105 337.205 65.6891 335.974L67.5741 335.287L65.9135 334.161C61.5954 331.236 58.758 326.293 58.758 320.704C58.7584 311.749 66.0452 304.462 75 304.462C83.9548 304.462 91.2416 311.749 91.242 320.704C91.242 326.29 88.4071 331.231 84.0926 334.157L82.4319 335.283L84.3169 335.968C87.9877 337.305 91.3556 339.441 94.2047 342.29C97.6976 345.782 100.174 350.161 101.364 354.954L101.839 356.871L103.133 355.379C108.804 348.843 112.244 340.315 112.244 331C112.244 310.463 95.5371 293.756 75 293.756ZM75 307.218C67.5636 307.218 61.5148 313.266 61.5144 320.704C61.5144 327.795 67.0151 333.621 73.9744 334.147V334.191H75C82.4368 334.191 88.4856 328.14 88.4856 320.704C88.4852 313.266 82.4364 307.218 75 307.218Z" fill="#3FA1E3"/>
<circle opacity="0.1" cx="207.279" cy="453.283" r="105" fill="white"/>
</g>
<rect x="107" y="100" width="44" height="44" rx="22" fill="#131313"/>
<rect x="107" y="100" width="44" height="44" rx="22" stroke="#131313" stroke-width="4"/>
<path d="M129 102C118 102 109 111 109 122C109 133 118 142 129 142C140 142 149 133 149 122C149 111 140 102 129 102Z" fill="#3FA1E3"/>
<path d="M129 134.062C135.591 134.062 141 128.654 141 122.062C141 115.471 135.591 110.062 129 110.062C122.409 110.062 117 115.471 117 122.062C117 128.654 122.409 134.062 129 134.062ZM120.562 119.953H137.438V124.172H120.562V119.953Z" fill="black"/>
<rect x="254" y="158" width="44" height="44" rx="22" fill="#131313"/>
<rect x="254" y="158" width="44" height="44" rx="22" stroke="#131313" stroke-width="4"/>
<path d="M276 160C265 160 256 169 256 180C256 191 265 200 276 200C287 200 296 191 296 180C296 169 287 160 276 160Z" fill="#3FA1E3"/>
<path d="M276 172.91C271.415 172.91 267.256 175.419 264.188 179.494C263.937 179.828 263.937 180.294 264.188 180.628C267.256 184.708 271.415 187.216 276 187.216C280.585 187.216 284.744 184.708 287.812 180.633C288.063 180.299 288.063 179.833 287.812 179.499C284.744 175.419 280.585 172.91 276 172.91ZM276.329 185.1C273.285 185.292 270.771 182.783 270.963 179.734C271.12 177.221 273.157 175.183 275.671 175.026C278.715 174.835 281.229 177.343 281.037 180.392C280.875 182.901 278.838 184.938 276.329 185.1ZM276.177 182.773C274.537 182.876 273.182 181.526 273.29 179.887C273.373 178.532 274.473 177.437 275.828 177.348C277.468 177.245 278.823 178.595 278.715 180.235C278.627 181.595 277.527 182.69 276.177 182.773Z" fill="black"/>
<rect x="373" y="84" width="44" height="44" rx="22" fill="#131313"/>
<rect x="373" y="84" width="44" height="44" rx="22" stroke="#131313" stroke-width="4"/>
<path d="M395 86C384 86 375 95 375 106C375 117 384 126 395 126C406 126 415 117 415 106C415 95 406 86 395 86Z" fill="#3FA1E3"/>
<path d="M395.714 98.7253L384.213 110.227C383.789 110.652 383.521 111.207 383.453 111.803L382.994 115.827C382.965 116.11 382.995 116.396 383.083 116.667C383.171 116.937 383.315 117.186 383.506 117.397C383.697 117.608 383.931 117.776 384.191 117.891C384.451 118.006 384.733 118.064 385.018 118.062H385.252L389.276 117.604C389.87 117.536 390.424 117.272 390.852 116.855L402.354 105.342L395.714 98.7253ZM406.244 97.7529L403.326 94.8355C403.082 94.5905 402.792 94.3961 402.473 94.2634C402.154 94.1308 401.811 94.0625 401.465 94.0625C401.12 94.0625 400.777 94.1308 400.458 94.2634C400.138 94.3961 399.848 94.5905 399.604 94.8355L396.899 97.5405L403.539 104.18L406.244 101.475C406.489 101.231 406.683 100.941 406.816 100.622C406.948 100.302 407.017 99.9598 407.017 99.6139C407.017 99.2681 406.948 98.9257 406.816 98.6063C406.683 98.287 406.489 97.9969 406.244 97.7529Z" fill="black"/>
<rect x="418" y="189" width="44" height="44" rx="22" fill="#131313"/>
<rect x="418" y="189" width="44" height="44" rx="22" stroke="#131313" stroke-width="4"/>
<path d="M440 191C429 191 420 200 420 211C420 222 429 231 440 231C451 231 460 222 460 211C460 200 451 191 440 191Z" fill="#3FA1E3"/>
<path d="M440.714 203.725L429.213 215.227C428.789 215.652 428.521 216.207 428.453 216.803L427.994 220.827C427.965 221.11 427.995 221.396 428.083 221.667C428.171 221.937 428.315 222.186 428.506 222.397C428.697 222.608 428.931 222.776 429.191 222.891C429.451 223.006 429.733 223.064 430.018 223.062H430.252L434.276 222.604C434.87 222.536 435.424 222.272 435.852 221.855L447.354 210.342L440.714 203.725ZM451.244 202.753L448.326 199.836C448.082 199.591 447.792 199.396 447.473 199.263C447.154 199.131 446.811 199.062 446.465 199.062C446.12 199.062 445.777 199.131 445.458 199.263C445.138 199.396 444.848 199.591 444.604 199.836L441.899 202.541L448.539 209.18L451.244 206.475C451.489 206.231 451.683 205.941 451.816 205.622C451.948 205.302 452.017 204.96 452.017 204.614C452.017 204.268 451.948 203.926 451.816 203.606C451.683 203.287 451.489 202.997 451.244 202.753Z" fill="black"/>
<rect x="214" y="296" width="44" height="44" rx="22" fill="#131313"/>
<rect x="214" y="296" width="44" height="44" rx="22" stroke="#131313" stroke-width="4"/>
<path d="M236 298C225 298 216 307 216 318C216 329 225 338 236 338C247 338 256 329 256 318C256 307 247 298 236 298Z" fill="#3FA1E3"/>
<path d="M236.714 310.725L225.213 322.227C224.789 322.652 224.521 323.207 224.453 323.803L223.994 327.827C223.964 328.11 223.995 328.396 224.083 328.667C224.171 328.937 224.315 329.186 224.506 329.397C224.697 329.608 224.93 329.776 225.191 329.891C225.451 330.006 225.733 330.064 226.017 330.062H226.252L230.276 329.604C230.87 329.536 231.424 329.272 231.852 328.855L243.354 317.342L236.714 310.725ZM247.244 309.753L244.326 306.836C244.082 306.591 243.792 306.396 243.473 306.263C243.153 306.131 242.811 306.062 242.465 306.062C242.119 306.062 241.777 306.131 241.458 306.263C241.138 306.396 240.848 306.591 240.604 306.836L237.899 309.541L244.539 316.18L247.244 313.475C247.489 313.231 247.683 312.941 247.816 312.622C247.948 312.302 248.017 311.96 248.017 311.614C248.017 311.268 247.948 310.926 247.816 310.606C247.683 310.287 247.489 309.997 247.244 309.753Z" fill="black"/>
<rect x="355" y="337" width="44" height="44" rx="22" fill="#131313"/>
<rect x="355" y="337" width="44" height="44" rx="22" stroke="#131313" stroke-width="4"/>
<path d="M377 339C366 339 357 348 357 359C357 370 366 379 377 379C388 379 397 370 397 359C397 348 388 339 377 339Z" fill="#3FA1E3"/>
<path d="M377 351.91C372.415 351.91 368.256 354.419 365.188 358.494C364.937 358.828 364.937 359.294 365.188 359.628C368.256 363.708 372.415 366.216 377 366.216C381.585 366.216 385.744 363.708 388.812 359.633C389.063 359.299 389.063 358.833 388.812 358.499C385.744 354.419 381.585 351.91 377 351.91ZM377.329 364.1C374.285 364.292 371.771 361.783 371.963 358.734C372.12 356.221 374.157 354.183 376.671 354.026C379.715 353.835 382.229 356.343 382.037 359.392C381.875 361.901 379.838 363.938 377.329 364.1ZM377.177 361.773C375.537 361.876 374.182 360.526 374.29 358.887C374.373 357.532 375.473 356.437 376.828 356.348C378.468 356.245 379.823 357.595 379.715 359.235C379.627 360.595 378.527 361.69 377.177 361.773Z" fill="black"/>
<rect x="86" y="346" width="44" height="44" rx="22" fill="#131313"/>
<rect x="86" y="346" width="44" height="44" rx="22" stroke="#131313" stroke-width="4"/>
<path d="M108 348C97 348 88 357 88 368C88 379 97 388 108 388C119 388 128 379 128 368C128 357 119 348 108 348Z" fill="#3FA1E3"/>
<path d="M108 360.91C103.415 360.91 99.2562 363.419 96.1878 367.494C95.9374 367.828 95.9374 368.294 96.1878 368.628C99.2562 372.708 103.415 375.216 108 375.216C112.585 375.216 116.744 372.708 119.812 368.633C120.063 368.299 120.063 367.833 119.812 367.499C116.744 363.419 112.585 360.91 108 360.91ZM108.329 373.1C105.285 373.292 102.771 370.783 102.963 367.734C103.12 365.221 105.157 363.183 107.671 363.026C110.715 362.835 113.229 365.343 113.037 368.392C112.875 370.901 110.838 372.938 108.329 373.1ZM108.177 370.773C106.537 370.876 105.182 369.526 105.29 367.887C105.373 366.532 106.473 365.437 107.828 365.348C109.468 365.245 110.823 366.595 110.715 368.235C110.627 369.595 109.527 370.69 108.177 370.773Z" fill="black"/>
<defs>
<clipPath id="clip0_4952_2771">
<rect width="80" height="80" fill="white" transform="translate(56 45)"/>
</clipPath>
<clipPath id="clip1_4952_2771">
<rect width="80" height="80" fill="white" transform="translate(203 103)"/>
</clipPath>
<clipPath id="clip2_4952_2771">
<rect width="80" height="80" fill="white" transform="translate(322 29)"/>
</clipPath>
<clipPath id="clip3_4952_2771">
<rect width="80" height="80" fill="white" transform="translate(367 134)"/>
</clipPath>
<clipPath id="clip4_4952_2771">
<rect width="80" height="80" fill="white" transform="translate(163 241)"/>
</clipPath>
<clipPath id="clip5_4952_2771">
<rect width="80" height="80" fill="white" transform="translate(304 282)"/>
</clipPath>
<clipPath id="clip6_4952_2771">
<rect width="80" height="80" fill="white" transform="translate(35 291)"/>
</clipPath>
</defs>
</svg>
