<svg width="392" height="146" viewBox="0 0 392 146" fill="none" xmlns="http://www.w3.org/2000/svg">
<g clip-path="url(#clip0_5474_5017)">
<circle cx="23" cy="39" r="32" stroke="#D252B5" stroke-width="1.5"/>
<g filter="url(#filter0_f_5474_5017)">
<circle cx="23" cy="39" r="27" fill="url(#paint0_radial_5474_5017)" fill-opacity="0.15"/>
</g>
<path d="M46 60.5L61 75.5" stroke="#D252B5" stroke-width="1.5"/>
<circle cx="32" cy="32" r="32" transform="matrix(-1 0 0 1 426 52)" stroke="#D252B5" stroke-width="1.5"/>
<g filter="url(#filter1_f_5474_5017)">
<circle cx="27" cy="27" r="27" transform="matrix(-1 0 0 1 421 57)" fill="url(#paint1_radial_5474_5017)" fill-opacity="0.15"/>
</g>
<path d="M371 105.5L356 120.5" stroke="#D252B5" stroke-width="1.5"/>
<circle cx="23" cy="123" r="32" stroke="#D252B5" stroke-width="1.5"/>
<g filter="url(#filter2_f_5474_5017)">
<circle cx="23" cy="123" r="27" fill="url(#paint2_radial_5474_5017)" fill-opacity="0.15"/>
</g>
<path d="M46 144.5L61 159.5" stroke="#D252B5" stroke-width="1.5"/>
<circle cx="169" cy="39" r="32" stroke="#D252B5" stroke-width="1.5"/>
<g filter="url(#filter3_f_5474_5017)">
<circle cx="169" cy="39" r="27" fill="url(#paint3_radial_5474_5017)" fill-opacity="0.15"/>
</g>
<path d="M192 60.5L207 75.5" stroke="#D252B5" stroke-width="1.5"/>
<circle cx="32" cy="32" r="32" transform="matrix(-1 0 0 1 280 52)" stroke="#D252B5" stroke-width="1.5"/>
<g filter="url(#filter4_f_5474_5017)">
<circle cx="27" cy="27" r="27" transform="matrix(-1 0 0 1 275 57)" fill="url(#paint4_radial_5474_5017)" fill-opacity="0.15"/>
</g>
<path d="M225 105.5L210 120.5" stroke="#D252B5" stroke-width="1.5"/>
<circle cx="32" cy="32" r="32" transform="matrix(-1 0 0 1 426 136)" stroke="#D252B5" stroke-width="1.5"/>
<g filter="url(#filter5_f_5474_5017)">
<circle cx="27" cy="27" r="27" transform="matrix(-1 0 0 1 421 141)" fill="url(#paint5_radial_5474_5017)" fill-opacity="0.15"/>
</g>
<circle cx="315" cy="39" r="32" stroke="#D252B5" stroke-width="1.5"/>
<g filter="url(#filter6_f_5474_5017)">
<circle cx="315" cy="39" r="27" fill="url(#paint6_radial_5474_5017)" fill-opacity="0.15"/>
</g>
<path d="M338 60.5L353 75.5" stroke="#D252B5" stroke-width="1.5"/>
<circle cx="32" cy="32" r="32" transform="matrix(-1 0 0 1 134 52)" stroke="#D252B5" stroke-width="1.5"/>
<g filter="url(#filter7_f_5474_5017)">
<circle cx="27" cy="27" r="27" transform="matrix(-1 0 0 1 129 57)" fill="url(#paint7_radial_5474_5017)" fill-opacity="0.15"/>
</g>
<path d="M79 105.5L64 120.5" stroke="#D252B5" stroke-width="1.5"/>
<circle cx="32" cy="32" r="32" transform="matrix(-1 0 0 1 426 -34)" stroke="#D252B5" stroke-width="1.5"/>
<g filter="url(#filter8_f_5474_5017)">
<circle cx="27" cy="27" r="27" transform="matrix(-1 0 0 1 421 -29)" fill="url(#paint8_radial_5474_5017)" fill-opacity="0.15"/>
</g>
<path d="M371 19.5L356 34.5" stroke="#D252B5" stroke-width="1.5"/>
<path d="M37.4999 39C37.4999 39 32.7499 49 22.75 49C12.75 49 8 39 8 39C8 39 12.75 29.0001 22.75 29.0001C32.7499 29.0001 37.4999 39 37.4999 39Z" stroke="#D252B5" stroke-width="1.5"/>
<path d="M27.7499 39C27.7499 36.2386 25.5114 34 22.75 34C19.9885 34 17.75 36.2386 17.75 39C17.75 41.7614 19.9885 44 22.75 44C25.5114 44 27.7499 41.7614 27.7499 39Z" stroke="#D252B5" stroke-width="1.5"/>
<path d="M379.5 84C379.5 84 384.25 94 394.25 94C404.25 94 409 84 409 84C409 84 404.25 74.0001 394.25 74.0001C384.25 74.0001 379.5 84 379.5 84Z" stroke="#D252B5" stroke-width="1.5"/>
<path d="M389.25 84C389.25 81.2386 391.489 79 394.25 79C397.011 79 399.25 81.2386 399.25 84C399.25 86.7614 397.011 89 394.25 89C391.489 89 389.25 86.7614 389.25 84Z" stroke="#D252B5" stroke-width="1.5"/>
<circle cx="169" cy="123" r="32" stroke="#D252B5" stroke-width="1.5"/>
<g filter="url(#filter9_f_5474_5017)">
<circle cx="169" cy="123" r="27" fill="url(#paint9_radial_5474_5017)" fill-opacity="0.15"/>
</g>
<path d="M192 144.5L207 159.5" stroke="#D252B5" stroke-width="1.5"/>
<path d="M183.5 39C183.5 39 178.75 49 168.75 49C158.75 49 154 39 154 39C154 39 158.75 29.0001 168.75 29.0001C178.75 29.0001 183.5 39 183.5 39Z" stroke="#D252B5" stroke-width="1.5"/>
<path d="M173.75 39C173.75 36.2386 171.511 34 168.75 34C165.989 34 163.75 36.2386 163.75 39C163.75 41.7614 165.989 44 168.75 44C171.511 44 173.75 41.7614 173.75 39Z" stroke="#D252B5" stroke-width="1.5"/>
<path d="M233.5 84C233.5 84 238.25 94 248.25 94C258.25 94 263 84 263 84C263 84 258.25 74.0001 248.25 74.0001C238.25 74.0001 233.5 84 233.5 84Z" stroke="#D252B5" stroke-width="1.5"/>
<path d="M243.25 84C243.25 81.2386 245.489 79 248.25 79C251.011 79 253.25 81.2386 253.25 84C253.25 86.7614 251.011 89 248.25 89C245.489 89 243.25 86.7614 243.25 84Z" stroke="#D252B5" stroke-width="1.5"/>
<circle cx="32" cy="32" r="32" transform="matrix(-1 0 0 1 280 136)" stroke="#D252B5" stroke-width="1.5"/>
<g filter="url(#filter10_f_5474_5017)">
<circle cx="27" cy="27" r="27" transform="matrix(-1 0 0 1 275 141)" fill="url(#paint10_radial_5474_5017)" fill-opacity="0.15"/>
</g>
<path d="M329.5 39C329.5 39 324.75 49 314.75 49C304.75 49 300 39 300 39C300 39 304.75 29.0001 314.75 29.0001C324.75 29.0001 329.5 39 329.5 39Z" stroke="#D252B5" stroke-width="1.5"/>
<path d="M319.75 39C319.75 36.2386 317.511 34 314.75 34C311.989 34 309.75 36.2386 309.75 39C309.75 41.7614 311.989 44 314.75 44C317.511 44 319.75 41.7614 319.75 39Z" stroke="#D252B5" stroke-width="1.5"/>
<path d="M87.5001 84C87.5001 84 92.2501 94 102.25 94C112.25 94 117 84 117 84C117 84 112.25 74.0001 102.25 74.0001C92.2501 74.0001 87.5001 84 87.5001 84Z" stroke="#D252B5" stroke-width="1.5"/>
<path d="M97.2501 84C97.2501 81.2386 99.4886 79 102.25 79C105.011 79 107.25 81.2386 107.25 84C107.25 86.7614 105.011 89 102.25 89C99.4886 89 97.2501 86.7614 97.2501 84Z" stroke="#D252B5" stroke-width="1.5"/>
<circle cx="32" cy="32" r="32" transform="matrix(-1 0 0 1 280 -34)" stroke="#D252B5" stroke-width="1.5"/>
<g filter="url(#filter11_f_5474_5017)">
<circle cx="27" cy="27" r="27" transform="matrix(-1 0 0 1 275 -29)" fill="url(#paint11_radial_5474_5017)" fill-opacity="0.15"/>
</g>
<path d="M225 19.5L210 34.5" stroke="#D252B5" stroke-width="1.5"/>
<circle cx="315" cy="123" r="32" stroke="#D252B5" stroke-width="1.5"/>
<g filter="url(#filter12_f_5474_5017)">
<circle cx="315" cy="123" r="27" fill="url(#paint12_radial_5474_5017)" fill-opacity="0.15"/>
</g>
<path d="M338 144.5L353 159.5" stroke="#D252B5" stroke-width="1.5"/>
<circle cx="32" cy="32" r="32" transform="matrix(-1 0 0 1 134 136)" stroke="#D252B5" stroke-width="1.5"/>
<g filter="url(#filter13_f_5474_5017)">
<circle cx="27" cy="27" r="27" transform="matrix(-1 0 0 1 129 141)" fill="url(#paint13_radial_5474_5017)" fill-opacity="0.15"/>
</g>
<circle cx="32" cy="32" r="32" transform="matrix(-1 0 0 1 134 -34)" stroke="#D252B5" stroke-width="1.5"/>
<g filter="url(#filter14_f_5474_5017)">
<circle cx="27" cy="27" r="27" transform="matrix(-1 0 0 1 129 -29)" fill="url(#paint14_radial_5474_5017)" fill-opacity="0.15"/>
</g>
<path d="M79 19.5L64 34.5" stroke="#D252B5" stroke-width="1.5"/>
<path d="M37.4999 123C37.4999 123 32.7499 133 22.75 133C12.75 133 8 123 8 123C8 123 12.75 113 22.75 113C32.7499 113 37.4999 123 37.4999 123Z" stroke="#D252B5" stroke-width="1.5"/>
<path d="M27.7499 123C27.7499 120.239 25.5114 118 22.75 118C19.9885 118 17.75 120.239 17.75 123C17.75 125.761 19.9885 128 22.75 128C25.5114 128 27.7499 125.761 27.7499 123Z" stroke="#D252B5" stroke-width="1.5"/>
<path d="M379.5 -1.99997C379.5 -1.99997 384.25 8 394.25 8C404.25 8 409 -1.99997 409 -1.99997C409 -1.99997 404.25 -11.9999 394.25 -11.9999C384.25 -11.9999 379.5 -1.99997 379.5 -1.99997Z" stroke="#D252B5" stroke-width="1.5"/>
<path d="M389.25 -1.99999C389.25 -4.76141 391.489 -6.99997 394.25 -6.99997C397.011 -6.99997 399.25 -4.76141 399.25 -1.99999C399.25 0.761444 397.011 3 394.25 3C391.489 3 389.25 0.761444 389.25 -1.99999Z" stroke="#D252B5" stroke-width="1.5"/>
<path d="M183.5 123C183.5 123 178.75 133 168.75 133C158.75 133 154 123 154 123C154 123 158.75 113 168.75 113C178.75 113 183.5 123 183.5 123Z" stroke="#D252B5" stroke-width="1.5"/>
<path d="M173.75 123C173.75 120.239 171.511 118 168.75 118C165.989 118 163.75 120.239 163.75 123C163.75 125.761 165.989 128 168.75 128C171.511 128 173.75 125.761 173.75 123Z" stroke="#D252B5" stroke-width="1.5"/>
<path d="M233.5 -1.99997C233.5 -1.99997 238.25 8 248.25 8C258.25 8 263 -1.99997 263 -1.99997C263 -1.99997 258.25 -11.9999 248.25 -11.9999C238.25 -11.9999 233.5 -1.99997 233.5 -1.99997Z" stroke="#D252B5" stroke-width="1.5"/>
<path d="M243.25 -1.99999C243.25 -4.76141 245.489 -6.99997 248.25 -6.99997C251.011 -6.99997 253.25 -4.76141 253.25 -1.99999C253.25 0.761444 251.011 3 248.25 3C245.489 3 243.25 0.761444 243.25 -1.99999Z" stroke="#D252B5" stroke-width="1.5"/>
<path d="M329.5 123C329.5 123 324.75 133 314.75 133C304.75 133 300 123 300 123C300 123 304.75 113 314.75 113C324.75 113 329.5 123 329.5 123Z" stroke="#D252B5" stroke-width="1.5"/>
<path d="M319.75 123C319.75 120.239 317.511 118 314.75 118C311.989 118 309.75 120.239 309.75 123C309.75 125.761 311.989 128 314.75 128C317.511 128 319.75 125.761 319.75 123Z" stroke="#D252B5" stroke-width="1.5"/>
<path d="M87.5001 -1.99997C87.5001 -1.99997 92.2501 8 102.25 8C112.25 8 117 -1.99997 117 -1.99997C117 -1.99997 112.25 -11.9999 102.25 -11.9999C92.2501 -11.9999 87.5001 -1.99997 87.5001 -1.99997Z" stroke="#D252B5" stroke-width="1.5"/>
<path d="M97.2501 -1.99999C97.2501 -4.76141 99.4886 -6.99997 102.25 -6.99997C105.011 -6.99997 107.25 -4.76141 107.25 -1.99999C107.25 0.761444 105.011 3 102.25 3C99.4886 3 97.2501 0.761444 97.2501 -1.99999Z" stroke="#D252B5" stroke-width="1.5"/>
</g>
<defs>
<filter id="filter0_f_5474_5017" x="-16" y="0" width="78" height="78" filterUnits="userSpaceOnUse" color-interpolation-filters="sRGB">
<feFlood flood-opacity="0" result="BackgroundImageFix"/>
<feBlend mode="normal" in="SourceGraphic" in2="BackgroundImageFix" result="shape"/>
<feGaussianBlur stdDeviation="6" result="effect1_foregroundBlur_5474_5017"/>
</filter>
<filter id="filter1_f_5474_5017" x="355" y="45" width="78" height="78" filterUnits="userSpaceOnUse" color-interpolation-filters="sRGB">
<feFlood flood-opacity="0" result="BackgroundImageFix"/>
<feBlend mode="normal" in="SourceGraphic" in2="BackgroundImageFix" result="shape"/>
<feGaussianBlur stdDeviation="6" result="effect1_foregroundBlur_5474_5017"/>
</filter>
<filter id="filter2_f_5474_5017" x="-16" y="84" width="78" height="78" filterUnits="userSpaceOnUse" color-interpolation-filters="sRGB">
<feFlood flood-opacity="0" result="BackgroundImageFix"/>
<feBlend mode="normal" in="SourceGraphic" in2="BackgroundImageFix" result="shape"/>
<feGaussianBlur stdDeviation="6" result="effect1_foregroundBlur_5474_5017"/>
</filter>
<filter id="filter3_f_5474_5017" x="130" y="0" width="78" height="78" filterUnits="userSpaceOnUse" color-interpolation-filters="sRGB">
<feFlood flood-opacity="0" result="BackgroundImageFix"/>
<feBlend mode="normal" in="SourceGraphic" in2="BackgroundImageFix" result="shape"/>
<feGaussianBlur stdDeviation="6" result="effect1_foregroundBlur_5474_5017"/>
</filter>
<filter id="filter4_f_5474_5017" x="209" y="45" width="78" height="78" filterUnits="userSpaceOnUse" color-interpolation-filters="sRGB">
<feFlood flood-opacity="0" result="BackgroundImageFix"/>
<feBlend mode="normal" in="SourceGraphic" in2="BackgroundImageFix" result="shape"/>
<feGaussianBlur stdDeviation="6" result="effect1_foregroundBlur_5474_5017"/>
</filter>
<filter id="filter5_f_5474_5017" x="355" y="129" width="78" height="78" filterUnits="userSpaceOnUse" color-interpolation-filters="sRGB">
<feFlood flood-opacity="0" result="BackgroundImageFix"/>
<feBlend mode="normal" in="SourceGraphic" in2="BackgroundImageFix" result="shape"/>
<feGaussianBlur stdDeviation="6" result="effect1_foregroundBlur_5474_5017"/>
</filter>
<filter id="filter6_f_5474_5017" x="276" y="0" width="78" height="78" filterUnits="userSpaceOnUse" color-interpolation-filters="sRGB">
<feFlood flood-opacity="0" result="BackgroundImageFix"/>
<feBlend mode="normal" in="SourceGraphic" in2="BackgroundImageFix" result="shape"/>
<feGaussianBlur stdDeviation="6" result="effect1_foregroundBlur_5474_5017"/>
</filter>
<filter id="filter7_f_5474_5017" x="63" y="45" width="78" height="78" filterUnits="userSpaceOnUse" color-interpolation-filters="sRGB">
<feFlood flood-opacity="0" result="BackgroundImageFix"/>
<feBlend mode="normal" in="SourceGraphic" in2="BackgroundImageFix" result="shape"/>
<feGaussianBlur stdDeviation="6" result="effect1_foregroundBlur_5474_5017"/>
</filter>
<filter id="filter8_f_5474_5017" x="355" y="-41" width="78" height="78" filterUnits="userSpaceOnUse" color-interpolation-filters="sRGB">
<feFlood flood-opacity="0" result="BackgroundImageFix"/>
<feBlend mode="normal" in="SourceGraphic" in2="BackgroundImageFix" result="shape"/>
<feGaussianBlur stdDeviation="6" result="effect1_foregroundBlur_5474_5017"/>
</filter>
<filter id="filter9_f_5474_5017" x="130" y="84" width="78" height="78" filterUnits="userSpaceOnUse" color-interpolation-filters="sRGB">
<feFlood flood-opacity="0" result="BackgroundImageFix"/>
<feBlend mode="normal" in="SourceGraphic" in2="BackgroundImageFix" result="shape"/>
<feGaussianBlur stdDeviation="6" result="effect1_foregroundBlur_5474_5017"/>
</filter>
<filter id="filter10_f_5474_5017" x="209" y="129" width="78" height="78" filterUnits="userSpaceOnUse" color-interpolation-filters="sRGB">
<feFlood flood-opacity="0" result="BackgroundImageFix"/>
<feBlend mode="normal" in="SourceGraphic" in2="BackgroundImageFix" result="shape"/>
<feGaussianBlur stdDeviation="6" result="effect1_foregroundBlur_5474_5017"/>
</filter>
<filter id="filter11_f_5474_5017" x="209" y="-41" width="78" height="78" filterUnits="userSpaceOnUse" color-interpolation-filters="sRGB">
<feFlood flood-opacity="0" result="BackgroundImageFix"/>
<feBlend mode="normal" in="SourceGraphic" in2="BackgroundImageFix" result="shape"/>
<feGaussianBlur stdDeviation="6" result="effect1_foregroundBlur_5474_5017"/>
</filter>
<filter id="filter12_f_5474_5017" x="276" y="84" width="78" height="78" filterUnits="userSpaceOnUse" color-interpolation-filters="sRGB">
<feFlood flood-opacity="0" result="BackgroundImageFix"/>
<feBlend mode="normal" in="SourceGraphic" in2="BackgroundImageFix" result="shape"/>
<feGaussianBlur stdDeviation="6" result="effect1_foregroundBlur_5474_5017"/>
</filter>
<filter id="filter13_f_5474_5017" x="63" y="129" width="78" height="78" filterUnits="userSpaceOnUse" color-interpolation-filters="sRGB">
<feFlood flood-opacity="0" result="BackgroundImageFix"/>
<feBlend mode="normal" in="SourceGraphic" in2="BackgroundImageFix" result="shape"/>
<feGaussianBlur stdDeviation="6" result="effect1_foregroundBlur_5474_5017"/>
</filter>
<filter id="filter14_f_5474_5017" x="63" y="-41" width="78" height="78" filterUnits="userSpaceOnUse" color-interpolation-filters="sRGB">
<feFlood flood-opacity="0" result="BackgroundImageFix"/>
<feBlend mode="normal" in="SourceGraphic" in2="BackgroundImageFix" result="shape"/>
<feGaussianBlur stdDeviation="6" result="effect1_foregroundBlur_5474_5017"/>
</filter>
<radialGradient id="paint0_radial_5474_5017" cx="0" cy="0" r="1" gradientUnits="userSpaceOnUse" gradientTransform="translate(23 39) rotate(90) scale(27)">
<stop stop-color="#D252B5" stop-opacity="0"/>
<stop offset="1" stop-color="#D252B5"/>
</radialGradient>
<radialGradient id="paint1_radial_5474_5017" cx="0" cy="0" r="1" gradientUnits="userSpaceOnUse" gradientTransform="translate(27 27) rotate(90) scale(27)">
<stop stop-color="#D252B5" stop-opacity="0"/>
<stop offset="1" stop-color="#D252B5"/>
</radialGradient>
<radialGradient id="paint2_radial_5474_5017" cx="0" cy="0" r="1" gradientUnits="userSpaceOnUse" gradientTransform="translate(23 123) rotate(90) scale(27)">
<stop stop-color="#D252B5" stop-opacity="0"/>
<stop offset="1" stop-color="#D252B5"/>
</radialGradient>
<radialGradient id="paint3_radial_5474_5017" cx="0" cy="0" r="1" gradientUnits="userSpaceOnUse" gradientTransform="translate(169 39) rotate(90) scale(27)">
<stop stop-color="#D252B5" stop-opacity="0"/>
<stop offset="1" stop-color="#D252B5"/>
</radialGradient>
<radialGradient id="paint4_radial_5474_5017" cx="0" cy="0" r="1" gradientUnits="userSpaceOnUse" gradientTransform="translate(27 27) rotate(90) scale(27)">
<stop stop-color="#D252B5" stop-opacity="0"/>
<stop offset="1" stop-color="#D252B5"/>
</radialGradient>
<radialGradient id="paint5_radial_5474_5017" cx="0" cy="0" r="1" gradientUnits="userSpaceOnUse" gradientTransform="translate(27 27) rotate(90) scale(27)">
<stop stop-color="#D252B5" stop-opacity="0"/>
<stop offset="1" stop-color="#D252B5"/>
</radialGradient>
<radialGradient id="paint6_radial_5474_5017" cx="0" cy="0" r="1" gradientUnits="userSpaceOnUse" gradientTransform="translate(315 39) rotate(90) scale(27)">
<stop stop-color="#D252B5" stop-opacity="0"/>
<stop offset="1" stop-color="#D252B5"/>
</radialGradient>
<radialGradient id="paint7_radial_5474_5017" cx="0" cy="0" r="1" gradientUnits="userSpaceOnUse" gradientTransform="translate(27 27) rotate(90) scale(27)">
<stop stop-color="#D252B5" stop-opacity="0"/>
<stop offset="1" stop-color="#D252B5"/>
</radialGradient>
<radialGradient id="paint8_radial_5474_5017" cx="0" cy="0" r="1" gradientUnits="userSpaceOnUse" gradientTransform="translate(27 27) rotate(90) scale(27)">
<stop stop-color="#D252B5" stop-opacity="0"/>
<stop offset="1" stop-color="#D252B5"/>
</radialGradient>
<radialGradient id="paint9_radial_5474_5017" cx="0" cy="0" r="1" gradientUnits="userSpaceOnUse" gradientTransform="translate(169 123) rotate(90) scale(27)">
<stop stop-color="#D252B5" stop-opacity="0"/>
<stop offset="1" stop-color="#D252B5"/>
</radialGradient>
<radialGradient id="paint10_radial_5474_5017" cx="0" cy="0" r="1" gradientUnits="userSpaceOnUse" gradientTransform="translate(27 27) rotate(90) scale(27)">
<stop stop-color="#D252B5" stop-opacity="0"/>
<stop offset="1" stop-color="#D252B5"/>
</radialGradient>
<radialGradient id="paint11_radial_5474_5017" cx="0" cy="0" r="1" gradientUnits="userSpaceOnUse" gradientTransform="translate(27 27) rotate(90) scale(27)">
<stop stop-color="#D252B5" stop-opacity="0"/>
<stop offset="1" stop-color="#D252B5"/>
</radialGradient>
<radialGradient id="paint12_radial_5474_5017" cx="0" cy="0" r="1" gradientUnits="userSpaceOnUse" gradientTransform="translate(315 123) rotate(90) scale(27)">
<stop stop-color="#D252B5" stop-opacity="0"/>
<stop offset="1" stop-color="#D252B5"/>
</radialGradient>
<radialGradient id="paint13_radial_5474_5017" cx="0" cy="0" r="1" gradientUnits="userSpaceOnUse" gradientTransform="translate(27 27) rotate(90) scale(27)">
<stop stop-color="#D252B5" stop-opacity="0"/>
<stop offset="1" stop-color="#D252B5"/>
</radialGradient>
<radialGradient id="paint14_radial_5474_5017" cx="0" cy="0" r="1" gradientUnits="userSpaceOnUse" gradientTransform="translate(27 27) rotate(90) scale(27)">
<stop stop-color="#D252B5" stop-opacity="0"/>
<stop offset="1" stop-color="#D252B5"/>
</radialGradient>
<clipPath id="clip0_5474_5017">
<rect width="392" height="146" fill="white"/>
</clipPath>
</defs>
</svg>
