<svg width="73" height="22" viewBox="0 0 73 22" fill="none" xmlns="http://www.w3.org/2000/svg">
<g clip-path="url(#clip0_657_201280)">
<g clip-path="url(#clip1_657_201280)">
<path d="M6.61776 21.5899C11.3988 21.5899 13.6741 19.1785 13.6741 15.3085C13.6741 11.6766 11.802 10.3369 8.69145 9.41407L6.84817 8.81868C4.88969 8.25306 4.31366 7.56835 4.31366 5.96079C4.31366 4.32345 5.46571 3.43036 7.5394 3.43036C9.72829 3.43036 11.3412 3.90667 12.5796 4.44253V1.58463C11.4852 0.98924 10.0739 0.483154 7.4818 0.483154C3.01761 0.483154 0.857522 2.83496 0.857522 6.28825C0.857522 9.74154 2.55679 11.2896 5.35051 12.0934L7.22259 12.6292C9.38267 13.3139 10.1027 13.9688 10.1027 15.6657C10.1027 17.5114 8.97946 18.6427 6.32975 18.6427C4.16966 18.6427 2.29758 18.1068 0.713516 17.3924V20.28C2.06717 21.0243 4.02565 21.5899 6.61776 21.5899Z" fill="#535B64"/>
<path d="M15.2934 21.2327H18.5768L20.3625 16.0527H27.7068L29.4924 21.2327H33.1502L26.1227 0.810621H22.4937L15.2934 21.2327ZM23.9626 5.157H24.049L26.8139 13.3139H21.1977L23.9626 5.157Z" fill="#535B64"/>
<path d="M35.9839 21.2327H39.0945V5.36539H39.1809L44.1059 21.2327H47.0148L51.9686 5.36539H52.0838V21.2327H55.6264V0.810621H50.6726L45.8628 16.2016H45.7763L40.9666 0.810621H35.9839V21.2327Z" fill="#535B64"/>
<path d="M60.2568 21.2327H72.1517V18.345H63.7994V0.810621H60.2568V21.2327Z" fill="#535B64"/>
</g>
</g>
<defs>
<clipPath id="clip0_657_201280">
<rect width="71.4382" height="21.1067" fill="white" transform="translate(0.713516 0.483154)"/>
</clipPath>
<clipPath id="clip1_657_201280">
<rect width="71.4382" height="21.1067" fill="white" transform="translate(0.713516 0.483154)"/>
</clipPath>
</defs>
</svg>
