<svg width="404" height="180" viewBox="0 0 404 180" fill="none" xmlns="http://www.w3.org/2000/svg">
<g clip-path="url(#clip0_4621_15729)">
<rect x="1.93262" y="0.5" width="401.567" height="275.496" rx="19.5" stroke="#232F6F"/>
<circle cx="28.6525" cy="22.9219" r="5.2305" stroke="#232F6F"/>
<circle cx="57.305" cy="22.9219" r="5.2305" stroke="#232F6F"/>
<circle cx="85.9574" cy="22.9219" r="5.2305" stroke="#232F6F"/>
<rect x="21.422" y="44.6416" width="84.9574" height="84.9574" rx="19.5" stroke="#3FA1E3"/>
<rect x="21.422" y="143.493" width="84.9574" height="84.9574" rx="19.5" stroke="#3FA1E3"/>
<rect x="118.84" y="44.6416" width="84.9574" height="84.9574" rx="19.5" stroke="#3FA1E3"/>
<rect x="118.84" y="143.493" width="84.9574" height="84.9574" rx="19.5" stroke="#232F6F"/>
<rect x="216.259" y="44.6416" width="84.9574" height="84.9574" rx="19.5" stroke="#232F6F" stroke-dasharray="2 3"/>
<path d="M258.738 75.6592V97.8649" stroke="#232F6F" stroke-linecap="round" stroke-linejoin="round"/>
<path d="M269.848 86.7549L247.642 86.7549" stroke="#232F6F" stroke-linecap="round" stroke-linejoin="round"/>
<path d="M38.7771 83.3563L48.9492 66.1962C50.2098 64.0696 52.4987 62.7656 54.9708 62.7656H72.8306C75.3027 62.7656 77.5916 64.0696 78.8522 66.1962L89.0243 83.3563C90.3185 85.5395 90.3295 88.2522 89.0532 90.4459L78.8432 107.995C77.5897 110.149 75.2852 111.475 72.7927 111.475H55.0087C52.5162 111.475 50.2117 110.149 48.9582 107.995L38.7482 90.4459C37.4719 88.2522 37.4829 85.5395 38.7771 83.3563Z" fill="url(#paint0_linear_4621_15729)"/>
<path d="M61.0355 71.3613H54.7319L45.2766 86.435L54.7319 102.879H61.0355L51.5802 86.435L61.0355 71.3613Z" fill="#131313"/>
<path d="M66.766 71.3613H73.0695L82.5248 86.435L73.0695 102.879H66.766L76.2213 86.435L66.766 71.3613Z" fill="#131313"/>
<path d="M38.7771 182.208L48.9492 165.048C50.2098 162.921 52.4987 161.617 54.9708 161.617H72.8306C75.3027 161.617 77.5916 162.921 78.8522 165.048L89.0243 182.208C90.3185 184.391 90.3295 187.104 89.0532 189.297L78.8432 206.847C77.5897 209.001 75.2852 210.326 72.7927 210.326H55.0087C52.5162 210.326 50.2117 209.001 48.9582 206.847L38.7482 189.297C37.4719 187.104 37.4829 184.391 38.7771 182.208Z" fill="url(#paint1_linear_4621_15729)"/>
<path d="M61.0355 170.213H54.7319L45.2766 185.287L54.7319 201.731H61.0355L51.5802 185.287L61.0355 170.213Z" fill="#131313"/>
<path d="M66.766 170.213H73.0695L82.5248 185.287L73.0695 201.731H66.766L76.2213 185.287L66.766 170.213Z" fill="#131313"/>
<path d="M136.196 83.3563L146.368 66.1962C147.628 64.0696 149.917 62.7656 152.389 62.7656H170.249C172.721 62.7656 175.01 64.0696 176.271 66.1962L186.443 83.3563C187.737 85.5395 187.748 88.2522 186.472 90.4459L176.262 107.995C175.008 110.149 172.704 111.475 170.211 111.475H152.427C149.935 111.475 147.63 110.149 146.377 107.995L136.167 90.4459C134.89 88.2522 134.901 85.5395 136.196 83.3563Z" fill="url(#paint2_linear_4621_15729)"/>
<path d="M158.454 71.3613H152.15L142.695 86.435L152.15 102.879H158.454L148.999 86.435L158.454 71.3613Z" fill="#131313"/>
<path d="M164.184 71.3613H170.488L179.943 86.435L170.488 102.879H164.184L173.64 86.435L164.184 71.3613Z" fill="#131313"/>
<path d="M136.196 182.208L146.368 165.048C147.628 162.921 149.917 161.617 152.389 161.617H170.249C172.721 161.617 175.01 162.921 176.271 165.048L186.443 182.208C187.737 184.391 187.748 187.104 186.472 189.297L176.262 206.847C175.008 209.001 172.704 210.326 170.211 210.326H152.427C149.935 210.326 147.63 209.001 146.377 206.847L136.167 189.297C134.89 187.104 134.901 184.391 136.196 182.208Z" fill="url(#paint3_linear_4621_15729)"/>
<path d="M158.454 170.213H152.15L142.695 185.287L152.15 201.731H158.454L148.999 185.287L158.454 170.213Z" fill="#131313"/>
<path d="M164.184 170.213H170.488L179.943 185.287L170.488 201.731H164.184L173.64 185.287L164.184 170.213Z" fill="#131313"/>
<path d="M277.337 125.279L265.999 128.818C265.901 128.849 265.812 128.902 265.74 128.975C265.668 129.047 265.614 129.136 265.583 129.234L262.044 140.572C261.953 140.853 261.777 141.099 261.54 141.276C261.303 141.453 261.017 141.552 260.722 141.56C260.426 141.568 260.136 141.484 259.89 141.32C259.644 141.155 259.455 140.919 259.349 140.643L249.757 114.823C249.666 114.568 249.649 114.292 249.709 114.027C249.768 113.762 249.901 113.52 250.093 113.328C250.285 113.136 250.528 113.002 250.792 112.943C251.057 112.884 251.333 112.901 251.589 112.992L277.408 122.584C277.684 122.69 277.921 122.879 278.085 123.125C278.25 123.37 278.334 123.661 278.326 123.957C278.318 124.252 278.219 124.538 278.042 124.775C277.865 125.012 277.618 125.188 277.337 125.279Z" fill="#3FA1E3"/>
</g>
<defs>
<linearGradient id="paint0_linear_4621_15729" x1="63.9007" y1="62.7656" x2="63.9007" y2="111.475" gradientUnits="userSpaceOnUse">
<stop stop-color="#3FA1E3" stop-opacity="0.35"/>
<stop offset="0.605793" stop-color="#3FA1E3"/>
</linearGradient>
<linearGradient id="paint1_linear_4621_15729" x1="63.9007" y1="161.617" x2="63.9007" y2="210.326" gradientUnits="userSpaceOnUse">
<stop stop-color="#3FA1E3" stop-opacity="0.35"/>
<stop offset="0.605793" stop-color="#3FA1E3"/>
</linearGradient>
<linearGradient id="paint2_linear_4621_15729" x1="161.319" y1="62.7656" x2="161.319" y2="111.475" gradientUnits="userSpaceOnUse">
<stop stop-color="#3FA1E3" stop-opacity="0.35"/>
<stop offset="0.605793" stop-color="#3FA1E3"/>
</linearGradient>
<linearGradient id="paint3_linear_4621_15729" x1="161.319" y1="161.617" x2="161.319" y2="210.326" gradientUnits="userSpaceOnUse">
<stop stop-color="#232F6F" stop-opacity="0.35"/>
<stop offset="0.605793" stop-color="#232F6F"/>
</linearGradient>
<clipPath id="clip0_4621_15729">
<rect width="404" height="180" fill="white"/>
</clipPath>
</defs>
</svg>
