<svg width="404" height="180" viewBox="0 0 404 180" fill="none" xmlns="http://www.w3.org/2000/svg">
<circle cx="197" cy="40" r="29" fill="#0A0F2B" fill-opacity="0.8" stroke="url(#paint0_linear_4899_3786)"/>
<circle opacity="0.1" cx="197" cy="40" r="32.5" stroke="#3FA1E3"/>
<path fill-rule="evenodd" clip-rule="evenodd" d="M195.882 43.6293C195.882 42.963 195.617 42.3243 195.146 41.8538C194.913 41.6205 194.636 41.4354 194.332 41.3091C194.027 41.1829 193.701 41.1179 193.371 41.1181H187.511C186.845 41.1181 186.206 41.3826 185.736 41.8538C185.502 42.0869 185.317 42.3636 185.191 42.6683C185.065 42.9729 185 43.2995 185 43.6293V49.4888C185 50.1551 185.265 50.7938 185.736 51.2642C185.969 51.4976 186.246 51.6827 186.55 51.8089C186.855 51.9352 187.181 52.0001 187.511 52H193.371C194.037 52 194.676 51.7355 195.146 51.2642C195.38 51.0312 195.565 50.7544 195.691 50.4498C195.817 50.1451 195.882 49.8186 195.882 49.4888V43.6293ZM208.438 43.6293C208.438 42.963 208.174 42.3243 207.702 41.8538C207.469 41.6205 207.192 41.4354 206.888 41.3091C206.583 41.1829 206.257 41.1179 205.927 41.1181H200.067C199.401 41.1181 198.762 41.3826 198.292 41.8538C198.059 42.0869 197.873 42.3636 197.747 42.6683C197.621 42.9729 197.556 43.2995 197.556 43.6293V49.4888C197.556 50.1551 197.821 50.7938 198.292 51.2642C198.525 51.4976 198.802 51.6827 199.106 51.8089C199.411 51.9352 199.738 52.0001 200.067 52H205.927C206.593 52 207.232 51.7355 207.702 51.2642C207.936 51.0312 208.121 50.7544 208.247 50.4498C208.373 50.1451 208.438 49.8186 208.438 49.4888V43.6293ZM204.772 39.2706L208.265 35.7784C208.736 35.3075 209 34.6688 209 34.0029C209 33.3371 208.736 32.6984 208.265 32.2275L204.772 28.7353C204.302 28.2645 203.663 28 202.997 28C202.331 28 201.693 28.2645 201.222 28.7353L197.729 32.2275C197.259 32.6984 196.994 33.3371 196.994 34.0029C196.994 34.6688 197.259 35.3075 197.729 35.7784L201.222 39.2706C201.693 39.7414 202.331 40.0059 202.997 40.0059C203.663 40.0059 204.302 39.7414 204.772 39.2706ZM195.882 31.0732C195.882 30.4069 195.617 29.7682 195.146 29.2978C194.913 29.0644 194.636 28.8793 194.332 28.7531C194.027 28.6268 193.701 28.5619 193.371 28.562H187.511C186.845 28.562 186.206 28.8265 185.736 29.2978C185.502 29.5308 185.317 29.8075 185.191 30.1122C185.065 30.4169 185 30.7434 185 31.0732V36.9327C185 37.599 185.265 38.2377 185.736 38.7081C185.969 38.9415 186.246 39.1266 186.55 39.2528C186.855 39.3791 187.181 39.444 187.511 39.4439H193.371C194.037 39.4439 194.676 39.1794 195.146 38.7081C195.38 38.4751 195.565 38.1983 195.691 37.8937C195.817 37.589 195.882 37.2625 195.882 36.9327V31.0732Z" fill="url(#paint1_linear_4899_3786)"/>
<circle cx="275" cy="39" r="29" fill="#0A0F2B" fill-opacity="0.8" stroke="url(#paint2_linear_4899_3786)"/>
<circle cx="118" cy="39" r="29" fill="#0A0F2B" fill-opacity="0.8" stroke="url(#paint3_linear_4899_3786)"/>
<circle opacity="0.1" cx="275.5" cy="39.5" r="33" stroke="#3FA1E3"/>
<circle opacity="0.1" cx="118.5" cy="39.5" r="33" stroke="#3FA1E3"/>
<path d="M282.636 51C280.9 51 279.236 50.3104 278.008 49.0829C276.781 47.8554 276.091 46.1905 276.091 44.4545C276.091 43.2972 276.551 42.1873 277.369 41.369C278.187 40.5506 279.297 40.0909 280.455 40.0909C282.191 40.0909 283.855 40.7805 285.083 42.008C286.31 43.2355 287 44.9004 287 46.6364C287 47.7937 286.54 48.9036 285.722 49.7219C284.904 50.5403 283.794 51 282.636 51ZM269.545 37.9091C267.809 37.9091 266.145 37.2195 264.917 35.992C263.69 34.7645 263 33.0996 263 31.3636C263 30.2063 263.46 29.0964 264.278 28.2781C265.096 27.4597 266.206 27 267.364 27C269.1 27 270.764 27.6896 271.992 28.9171C273.219 30.1446 273.909 31.8095 273.909 33.5455C273.909 34.7028 273.449 35.8127 272.631 36.631C271.813 37.4494 270.703 37.9091 269.545 37.9091ZM267.364 51C266.206 51 265.096 50.5403 264.278 49.7219C263.46 48.9036 263 47.7937 263 46.6364C263 44.9004 263.69 43.2355 264.917 42.008C266.145 40.7805 267.809 40.0909 269.545 40.0909C270.703 40.0909 271.813 40.5506 272.631 41.369C273.449 42.1873 273.909 43.2972 273.909 44.4545C273.909 46.1905 273.219 47.8554 271.992 49.0829C270.764 50.3104 269.1 51 267.364 51ZM280.455 37.9091C279.297 37.9091 278.187 37.4494 277.369 36.631C276.551 35.8127 276.091 34.7028 276.091 33.5455C276.091 31.8095 276.781 30.1446 278.008 28.9171C279.236 27.6896 280.9 27 282.636 27C283.794 27 284.904 27.4597 285.722 28.2781C286.54 29.0964 287 30.2063 287 31.3636C287 33.0996 286.31 34.7645 285.083 35.992C283.855 37.2195 282.191 37.9091 280.455 37.9091Z" fill="url(#paint4_linear_4899_3786)"/>
<path d="M113.752 27H108.648C107.186 27 106 28.1856 106 29.648V34.752C106 36.2145 107.186 37.4 108.648 37.4H113.752C115.214 37.4 116.4 36.2145 116.4 34.752V29.648C116.4 28.1856 115.214 27 113.752 27Z" fill="url(#paint5_linear_4899_3786)"/>
<path d="M127.352 27H122.248C120.786 27 119.6 28.1856 119.6 29.648V34.752C119.6 36.2145 120.786 37.4 122.248 37.4H127.352C128.814 37.4 130 36.2145 130 34.752V29.648C130 28.1856 128.814 27 127.352 27Z" fill="url(#paint6_linear_4899_3786)"/>
<path d="M113.752 40.6H108.648C107.186 40.6 106 41.7855 106 43.248V48.352C106 49.8145 107.186 51 108.648 51H113.752C115.214 51 116.4 49.8145 116.4 48.352V43.248C116.4 41.7855 115.214 40.6 113.752 40.6Z" fill="url(#paint7_linear_4899_3786)"/>
<path d="M124.8 51C127.672 51 130 48.6719 130 45.8C130 42.9281 127.672 40.6 124.8 40.6C121.928 40.6 119.6 42.9281 119.6 45.8C119.6 48.6719 121.928 51 124.8 51Z" fill="url(#paint8_linear_4899_3786)"/>
<g opacity="0.2" clip-path="url(#clip0_4899_3786)">
<path d="M20 140C25.3431 140 30.3644 142.079 34.1426 145.857C37.9207 149.636 40 154.657 40 160C40 165.343 37.9207 170.364 34.1426 174.143C30.3644 177.921 25.3431 180 20 180C14.6569 180 9.63556 177.921 5.85737 174.143C2.07926 170.364 0 165.343 0 160C0 154.657 2.07934 149.636 5.85737 145.857C9.63556 142.079 14.6569 140 20 140ZM20 163.046C13.8169 163.046 8.58797 167.741 7.88061 173.827L7.84856 174.102L8.0609 174.279C11.2951 176.987 15.4602 178.622 20 178.622C24.5399 178.622 28.706 176.988 31.9401 174.279L32.1514 174.102L32.1194 173.826C31.8033 171.11 30.5757 168.567 28.6288 166.62C26.3245 164.316 23.2577 163.046 20 163.046ZM20 141.378C9.73144 141.378 1.37821 149.731 1.37821 160C1.37821 164.657 3.09689 168.92 5.93149 172.188L6.57953 172.935L6.81691 171.975C7.44405 169.437 8.79705 167.124 10.7462 165.308C12.092 164.055 13.6552 163.103 15.3446 162.487L16.2871 162.143L15.4567 161.581C13.2977 160.118 11.879 157.647 11.879 154.852C11.8792 150.374 15.5226 146.731 20 146.731C24.4774 146.731 28.1208 150.374 28.121 154.852C28.121 157.645 26.7036 160.116 24.5463 161.579L23.7159 162.141L24.6585 162.484C26.4939 163.153 28.1778 164.221 29.6024 165.645C31.3488 167.391 32.5869 169.58 33.1821 171.977L33.4195 172.936L34.0665 172.19C36.9022 168.922 38.6218 164.658 38.6218 160C38.6218 149.731 30.2686 141.378 20 141.378ZM20 148.109C16.2818 148.109 13.2574 151.133 13.2572 154.852C13.2572 158.398 16.0075 161.311 19.4872 161.574V161.596H20C23.7184 161.596 26.7428 158.57 26.7428 154.852C26.7426 151.133 23.7182 148.109 20 148.109Z" fill="#232F6F"/>
<circle opacity="0.1" cx="86.1396" cy="221.141" r="52.5" fill="white"/>
</g>
<g opacity="0.5" clip-path="url(#clip1_4899_3786)">
<path d="M72 140C77.3431 140 82.3644 142.079 86.1426 145.857C89.9207 149.636 92 154.657 92 160C92 165.343 89.9207 170.364 86.1426 174.143C82.3644 177.921 77.3431 180 72 180C66.6569 180 61.6356 177.921 57.8574 174.143C54.0793 170.364 52 165.343 52 160C52 154.657 54.0793 149.636 57.8574 145.857C61.6356 142.079 66.6569 140 72 140ZM72 163.046C65.8169 163.046 60.588 167.741 59.8806 173.827L59.8486 174.102L60.0609 174.279C63.2951 176.987 67.4602 178.622 72 178.622C76.5399 178.622 80.706 176.988 83.9401 174.279L84.1514 174.102L84.1194 173.826C83.8033 171.11 82.5757 168.567 80.6288 166.62C78.3245 164.316 75.2577 163.046 72 163.046ZM72 141.378C61.7314 141.378 53.3782 149.731 53.3782 160C53.3782 164.657 55.0969 168.92 57.9315 172.188L58.5795 172.935L58.8169 171.975C59.444 169.437 60.7971 167.124 62.7462 165.308C64.092 164.055 65.6552 163.103 67.3446 162.487L68.2871 162.143L67.4567 161.581C65.2977 160.118 63.879 157.647 63.879 154.852C63.8792 150.374 67.5226 146.731 72 146.731C76.4774 146.731 80.1208 150.374 80.121 154.852C80.121 157.645 78.7036 160.116 76.5463 161.579L75.7159 162.141L76.6585 162.484C78.4939 163.153 80.1778 164.221 81.6024 165.645C83.3488 167.391 84.5869 169.58 85.1821 171.977L85.4195 172.936L86.0665 172.19C88.9022 168.922 90.6218 164.658 90.6218 160C90.6218 149.731 82.2686 141.378 72 141.378ZM72 148.109C68.2818 148.109 65.2574 151.133 65.2572 154.852C65.2572 158.398 68.0075 161.311 71.4872 161.574V161.596H72C75.7184 161.596 78.7428 158.57 78.7428 154.852C78.7426 151.133 75.7182 148.109 72 148.109Z" fill="#232F6F"/>
<circle opacity="0.1" cx="138.14" cy="221.141" r="52.5" fill="white"/>
</g>
<g clip-path="url(#clip2_4899_3786)">
<path d="M124 140C129.343 140 134.364 142.079 138.143 145.857C141.921 149.636 144 154.657 144 160C144 165.343 141.921 170.364 138.143 174.143C134.364 177.921 129.343 180 124 180C118.657 180 113.636 177.921 109.857 174.143C106.079 170.364 104 165.343 104 160C104 154.657 106.079 149.636 109.857 145.857C113.636 142.079 118.657 140 124 140ZM124 163.046C117.817 163.046 112.588 167.741 111.881 173.827L111.849 174.102L112.061 174.279C115.295 176.987 119.46 178.622 124 178.622C128.54 178.622 132.706 176.988 135.94 174.279L136.151 174.102L136.119 173.826C135.803 171.11 134.576 168.567 132.629 166.62C130.325 164.316 127.258 163.046 124 163.046ZM124 141.378C113.731 141.378 105.378 149.731 105.378 160C105.378 164.657 107.097 168.92 109.931 172.188L110.58 172.935L110.817 171.975C111.444 169.437 112.797 167.124 114.746 165.308C116.092 164.055 117.655 163.103 119.345 162.487L120.287 162.143L119.457 161.581C117.298 160.118 115.879 157.647 115.879 154.852C115.879 150.374 119.523 146.731 124 146.731C128.477 146.731 132.121 150.374 132.121 154.852C132.121 157.645 130.704 160.116 128.546 161.579L127.716 162.141L128.658 162.484C130.494 163.153 132.178 164.221 133.602 165.645C135.349 167.391 136.587 169.58 137.182 171.977L137.419 172.936L138.067 172.19C140.902 168.922 142.622 164.658 142.622 160C142.622 149.731 134.269 141.378 124 141.378ZM124 148.109C120.282 148.109 117.257 151.133 117.257 154.852C117.257 158.398 120.008 161.311 123.487 161.574V161.596H124C127.718 161.596 130.743 158.57 130.743 154.852C130.743 151.133 127.718 148.109 124 148.109Z" fill="#232F6F"/>
<circle opacity="0.1" cx="190.14" cy="221.141" r="52.5" fill="white"/>
</g>
<g clip-path="url(#clip3_4899_3786)">
<path d="M176 140C181.343 140 186.364 142.079 190.143 145.857C193.921 149.636 196 154.657 196 160C196 165.343 193.921 170.364 190.143 174.143C186.364 177.921 181.343 180 176 180C170.657 180 165.636 177.921 161.857 174.143C158.079 170.364 156 165.343 156 160C156 154.657 158.079 149.636 161.857 145.857C165.636 142.079 170.657 140 176 140ZM176 163.046C169.817 163.046 164.588 167.741 163.881 173.827L163.849 174.102L164.061 174.279C167.295 176.987 171.46 178.622 176 178.622C180.54 178.622 184.706 176.988 187.94 174.279L188.151 174.102L188.119 173.826C187.803 171.11 186.576 168.567 184.629 166.62C182.325 164.316 179.258 163.046 176 163.046ZM176 141.378C165.731 141.378 157.378 149.731 157.378 160C157.378 164.657 159.097 168.92 161.931 172.188L162.58 172.935L162.817 171.975C163.444 169.437 164.797 167.124 166.746 165.308C168.092 164.055 169.655 163.103 171.345 162.487L172.287 162.143L171.457 161.581C169.298 160.118 167.879 157.647 167.879 154.852C167.879 150.374 171.523 146.731 176 146.731C180.477 146.731 184.121 150.374 184.121 154.852C184.121 157.645 182.704 160.116 180.546 161.579L179.716 162.141L180.658 162.484C182.494 163.153 184.178 164.221 185.602 165.645C187.349 167.391 188.587 169.58 189.182 171.977L189.419 172.936L190.067 172.19C192.902 168.922 194.622 164.658 194.622 160C194.622 149.731 186.269 141.378 176 141.378ZM176 148.109C172.282 148.109 169.257 151.133 169.257 154.852C169.257 158.398 172.008 161.311 175.487 161.574V161.596H176C179.718 161.596 182.743 158.57 182.743 154.852C182.743 151.133 179.718 148.109 176 148.109Z" fill="#232F6F"/>
<circle opacity="0.1" cx="242.14" cy="221.141" r="52.5" fill="white"/>
</g>
<g clip-path="url(#clip4_4899_3786)">
<path d="M228 140C233.343 140 238.364 142.079 242.143 145.857C245.921 149.636 248 154.657 248 160C248 165.343 245.921 170.364 242.143 174.143C238.364 177.921 233.343 180 228 180C222.657 180 217.636 177.921 213.857 174.143C210.079 170.364 208 165.343 208 160C208 154.657 210.079 149.636 213.857 145.857C217.636 142.079 222.657 140 228 140ZM228 163.046C221.817 163.046 216.588 167.741 215.881 173.827L215.849 174.102L216.061 174.279C219.295 176.987 223.46 178.622 228 178.622C232.54 178.622 236.706 176.988 239.94 174.279L240.151 174.102L240.119 173.826C239.803 171.11 238.576 168.567 236.629 166.62C234.325 164.316 231.258 163.046 228 163.046ZM228 141.378C217.731 141.378 209.378 149.731 209.378 160C209.378 164.657 211.097 168.92 213.931 172.188L214.58 172.935L214.817 171.975C215.444 169.437 216.797 167.124 218.746 165.308C220.092 164.055 221.655 163.103 223.345 162.487L224.287 162.143L223.457 161.581C221.298 160.118 219.879 157.647 219.879 154.852C219.879 150.374 223.523 146.731 228 146.731C232.477 146.731 236.121 150.374 236.121 154.852C236.121 157.645 234.704 160.116 232.546 161.579L231.716 162.141L232.658 162.484C234.494 163.153 236.178 164.221 237.602 165.645C239.349 167.391 240.587 169.58 241.182 171.977L241.419 172.936L242.067 172.19C244.902 168.922 246.622 164.658 246.622 160C246.622 149.731 238.269 141.378 228 141.378ZM228 148.109C224.282 148.109 221.257 151.133 221.257 154.852C221.257 158.398 224.008 161.311 227.487 161.574V161.596H228C231.718 161.596 234.743 158.57 234.743 154.852C234.743 151.133 231.718 148.109 228 148.109Z" fill="#232F6F"/>
<circle opacity="0.1" cx="294.14" cy="221.141" r="52.5" fill="white"/>
</g>
<g clip-path="url(#clip5_4899_3786)">
<path d="M280 140C285.343 140 290.364 142.079 294.143 145.857C297.921 149.636 300 154.657 300 160C300 165.343 297.921 170.364 294.143 174.143C290.364 177.921 285.343 180 280 180C274.657 180 269.636 177.921 265.857 174.143C262.079 170.364 260 165.343 260 160C260 154.657 262.079 149.636 265.857 145.857C269.636 142.079 274.657 140 280 140ZM280 163.046C273.817 163.046 268.588 167.741 267.881 173.827L267.849 174.102L268.061 174.279C271.295 176.987 275.46 178.622 280 178.622C284.54 178.622 288.706 176.988 291.94 174.279L292.151 174.102L292.119 173.826C291.803 171.11 290.576 168.567 288.629 166.62C286.325 164.316 283.258 163.046 280 163.046ZM280 141.378C269.731 141.378 261.378 149.731 261.378 160C261.378 164.657 263.097 168.92 265.931 172.188L266.58 172.935L266.817 171.975C267.444 169.437 268.797 167.124 270.746 165.308C272.092 164.055 273.655 163.103 275.345 162.487L276.287 162.143L275.457 161.581C273.298 160.118 271.879 157.647 271.879 154.852C271.879 150.374 275.523 146.731 280 146.731C284.477 146.731 288.121 150.374 288.121 154.852C288.121 157.645 286.704 160.116 284.546 161.579L283.716 162.141L284.658 162.484C286.494 163.153 288.178 164.221 289.602 165.645C291.349 167.391 292.587 169.58 293.182 171.977L293.419 172.936L294.067 172.19C296.902 168.922 298.622 164.658 298.622 160C298.622 149.731 290.269 141.378 280 141.378ZM280 148.109C276.282 148.109 273.257 151.133 273.257 154.852C273.257 158.398 276.008 161.311 279.487 161.574V161.596H280C283.718 161.596 286.743 158.57 286.743 154.852C286.743 151.133 283.718 148.109 280 148.109Z" fill="#232F6F"/>
<circle opacity="0.1" cx="346.14" cy="221.141" r="52.5" fill="white"/>
</g>
<g opacity="0.5" clip-path="url(#clip6_4899_3786)">
<path d="M332 140C337.343 140 342.364 142.079 346.143 145.857C349.921 149.636 352 154.657 352 160C352 165.343 349.921 170.364 346.143 174.143C342.364 177.921 337.343 180 332 180C326.657 180 321.636 177.921 317.857 174.143C314.079 170.364 312 165.343 312 160C312 154.657 314.079 149.636 317.857 145.857C321.636 142.079 326.657 140 332 140ZM332 163.046C325.817 163.046 320.588 167.741 319.881 173.827L319.849 174.102L320.061 174.279C323.295 176.987 327.46 178.622 332 178.622C336.54 178.622 340.706 176.988 343.94 174.279L344.151 174.102L344.119 173.826C343.803 171.11 342.576 168.567 340.629 166.62C338.325 164.316 335.258 163.046 332 163.046ZM332 141.378C321.731 141.378 313.378 149.731 313.378 160C313.378 164.657 315.097 168.92 317.931 172.188L318.58 172.935L318.817 171.975C319.444 169.437 320.797 167.124 322.746 165.308C324.092 164.055 325.655 163.103 327.345 162.487L328.287 162.143L327.457 161.581C325.298 160.118 323.879 157.647 323.879 154.852C323.879 150.374 327.523 146.731 332 146.731C336.477 146.731 340.121 150.374 340.121 154.852C340.121 157.645 338.704 160.116 336.546 161.579L335.716 162.141L336.658 162.484C338.494 163.153 340.178 164.221 341.602 165.645C343.349 167.391 344.587 169.58 345.182 171.977L345.419 172.936L346.067 172.19C348.902 168.922 350.622 164.658 350.622 160C350.622 149.731 342.269 141.378 332 141.378ZM332 148.109C328.282 148.109 325.257 151.133 325.257 154.852C325.257 158.398 328.008 161.311 331.487 161.574V161.596H332C335.718 161.596 338.743 158.57 338.743 154.852C338.743 151.133 335.718 148.109 332 148.109Z" fill="#232F6F"/>
<circle opacity="0.1" cx="398.14" cy="221.141" r="52.5" fill="white"/>
</g>
<g opacity="0.2" clip-path="url(#clip7_4899_3786)">
<path d="M384 140C389.343 140 394.364 142.079 398.143 145.857C401.921 149.636 404 154.657 404 160C404 165.343 401.921 170.364 398.143 174.143C394.364 177.921 389.343 180 384 180C378.657 180 373.636 177.921 369.857 174.143C366.079 170.364 364 165.343 364 160C364 154.657 366.079 149.636 369.857 145.857C373.636 142.079 378.657 140 384 140ZM384 163.046C377.817 163.046 372.588 167.741 371.881 173.827L371.849 174.102L372.061 174.279C375.295 176.987 379.46 178.622 384 178.622C388.54 178.622 392.706 176.988 395.94 174.279L396.151 174.102L396.119 173.826C395.803 171.11 394.576 168.567 392.629 166.62C390.325 164.316 387.258 163.046 384 163.046ZM384 141.378C373.731 141.378 365.378 149.731 365.378 160C365.378 164.657 367.097 168.92 369.931 172.188L370.58 172.935L370.817 171.975C371.444 169.437 372.797 167.124 374.746 165.308C376.092 164.055 377.655 163.103 379.345 162.487L380.287 162.143L379.457 161.581C377.298 160.118 375.879 157.647 375.879 154.852C375.879 150.374 379.523 146.731 384 146.731C388.477 146.731 392.121 150.374 392.121 154.852C392.121 157.645 390.704 160.116 388.546 161.579L387.716 162.141L388.658 162.484C390.494 163.153 392.178 164.221 393.602 165.645C395.349 167.391 396.587 169.58 397.182 171.977L397.419 172.936L398.067 172.19C400.902 168.922 402.622 164.658 402.622 160C402.622 149.731 394.269 141.378 384 141.378ZM384 148.109C380.282 148.109 377.257 151.133 377.257 154.852C377.257 158.398 380.008 161.311 383.487 161.574V161.596H384C387.718 161.596 390.743 158.57 390.743 154.852C390.743 151.133 387.718 148.109 384 148.109Z" fill="#232F6F"/>
<circle opacity="0.1" cx="450.14" cy="221.141" r="52.5" fill="white"/>
</g>
<path opacity="0.6" d="M280.5 135.5V77" stroke="#3FA1E3" stroke-linecap="round" stroke-linejoin="round" stroke-dasharray="1 3"/>
<path opacity="0.6" d="M189 139L254.5 70" stroke="#3FA1E3" stroke-linecap="round" stroke-linejoin="round" stroke-dasharray="1 3"/>
<path opacity="0.6" d="M122 137V77" stroke="#3FA1E3" stroke-linecap="round" stroke-linejoin="round" stroke-dasharray="1 3"/>
<path opacity="0.6" d="M262.5 140.5L213 72" stroke="#3FA1E3" stroke-linecap="round" stroke-linejoin="round" stroke-dasharray="1 3"/>
<circle cx="122" cy="109" r="10" fill="url(#paint9_linear_4899_3786)"/>
<circle cx="216" cy="109" r="10" fill="url(#paint10_linear_4899_3786)"/>
<circle cx="240" cy="109" r="10" fill="url(#paint11_linear_4899_3786)"/>
<circle cx="280" cy="109" r="10" fill="url(#paint12_linear_4899_3786)"/>
<path d="M277.827 105.329L278.171 106.285C278.36 106.809 278.662 107.285 279.056 107.679C279.45 108.073 279.925 108.375 280.449 108.563L281.405 108.908C281.424 108.915 281.44 108.927 281.452 108.944C281.463 108.96 281.469 108.98 281.469 109C281.469 109.02 281.463 109.04 281.452 109.056C281.44 109.072 281.424 109.085 281.405 109.092L280.449 109.436C279.925 109.625 279.45 109.927 279.056 110.321C278.662 110.715 278.36 111.19 278.171 111.714L277.827 112.67C277.82 112.689 277.807 112.705 277.791 112.717C277.774 112.728 277.755 112.734 277.735 112.734C277.715 112.734 277.695 112.728 277.678 112.717C277.662 112.705 277.649 112.689 277.643 112.67L277.298 111.714C277.11 111.19 276.807 110.715 276.414 110.321C276.02 109.927 275.544 109.625 275.02 109.436L274.064 109.092C274.045 109.085 274.029 109.072 274.018 109.056C274.006 109.04 274 109.02 274 109C274 108.98 274.006 108.96 274.018 108.944C274.029 108.927 274.045 108.915 274.064 108.908L275.02 108.563C275.544 108.375 276.02 108.073 276.414 107.679C276.807 107.285 277.11 106.809 277.298 106.285L277.643 105.329C277.649 105.31 277.662 105.294 277.678 105.282C277.695 105.271 277.714 105.264 277.735 105.264C277.755 105.264 277.775 105.271 277.791 105.282C277.808 105.294 277.82 105.31 277.827 105.329ZM282.129 103.033L282.303 103.517C282.399 103.782 282.552 104.023 282.751 104.222C282.951 104.422 283.192 104.575 283.457 104.67L283.941 104.845C283.951 104.848 283.959 104.855 283.965 104.863C283.97 104.871 283.974 104.881 283.974 104.891C283.974 104.902 283.97 104.912 283.965 104.92C283.959 104.928 283.951 104.935 283.941 104.938L283.457 105.113C283.192 105.208 282.951 105.361 282.751 105.561C282.552 105.76 282.399 106.001 282.303 106.266L282.129 106.75C282.125 106.76 282.119 106.768 282.111 106.774C282.102 106.78 282.092 106.783 282.082 106.783C282.072 106.783 282.062 106.78 282.054 106.774C282.045 106.768 282.039 106.76 282.035 106.75L281.861 106.266C281.765 106.001 281.612 105.76 281.413 105.561C281.213 105.361 280.973 105.208 280.707 105.113L280.223 104.938C280.214 104.935 280.206 104.928 280.2 104.92C280.194 104.912 280.191 104.902 280.191 104.891C280.191 104.881 280.194 104.871 280.2 104.863C280.206 104.855 280.214 104.848 280.223 104.845L280.707 104.67C280.973 104.575 281.213 104.422 281.413 104.222C281.612 104.023 281.765 103.782 281.861 103.517L282.035 103.033C282.039 103.023 282.045 103.015 282.054 103.009C282.062 103.003 282.072 103 282.082 103C282.092 103 282.102 103.003 282.111 103.009C282.119 103.015 282.125 103.023 282.129 103.033ZM282.129 111.25L282.303 111.734C282.399 111.999 282.552 112.24 282.751 112.439C282.951 112.639 283.192 112.792 283.457 112.887L283.941 113.062C283.951 113.065 283.959 113.072 283.965 113.08C283.97 113.088 283.974 113.098 283.974 113.109C283.974 113.119 283.97 113.129 283.965 113.137C283.959 113.145 283.951 113.152 283.941 113.155L283.457 113.33C283.192 113.425 282.951 113.578 282.751 113.778C282.552 113.977 282.399 114.218 282.303 114.483L282.129 114.967C282.125 114.977 282.119 114.985 282.111 114.991C282.102 114.997 282.092 115 282.082 115C282.072 115 282.062 114.997 282.054 114.991C282.045 114.985 282.039 114.977 282.035 114.967L281.861 114.483C281.765 114.218 281.612 113.977 281.413 113.778C281.213 113.578 280.973 113.425 280.707 113.33L280.223 113.155C280.214 113.152 280.206 113.145 280.2 113.137C280.194 113.129 280.191 113.119 280.191 113.109C280.191 113.098 280.194 113.088 280.2 113.08C280.206 113.072 280.214 113.065 280.223 113.062L280.707 112.887C280.973 112.792 281.213 112.639 281.413 112.439C281.612 112.24 281.765 111.999 281.861 111.734L282.035 111.25C282.051 111.206 282.113 111.206 282.129 111.25Z" fill="#131313"/>
<path d="M237.827 105.329L238.171 106.285C238.36 106.809 238.662 107.285 239.056 107.679C239.45 108.073 239.925 108.375 240.449 108.563L241.405 108.908C241.424 108.915 241.44 108.927 241.452 108.944C241.463 108.96 241.469 108.98 241.469 109C241.469 109.02 241.463 109.04 241.452 109.056C241.44 109.072 241.424 109.085 241.405 109.092L240.449 109.436C239.925 109.625 239.45 109.927 239.056 110.321C238.662 110.715 238.36 111.19 238.171 111.714L237.827 112.67C237.82 112.689 237.807 112.705 237.791 112.717C237.774 112.728 237.755 112.734 237.735 112.734C237.715 112.734 237.695 112.728 237.678 112.717C237.662 112.705 237.649 112.689 237.643 112.67L237.298 111.714C237.11 111.19 236.807 110.715 236.414 110.321C236.02 109.927 235.544 109.625 235.02 109.436L234.064 109.092C234.045 109.085 234.029 109.072 234.018 109.056C234.006 109.04 234 109.02 234 109C234 108.98 234.006 108.96 234.018 108.944C234.029 108.927 234.045 108.915 234.064 108.908L235.02 108.563C235.544 108.375 236.02 108.073 236.414 107.679C236.807 107.285 237.11 106.809 237.298 106.285L237.643 105.329C237.649 105.31 237.662 105.294 237.678 105.282C237.695 105.271 237.714 105.264 237.735 105.264C237.755 105.264 237.775 105.271 237.791 105.282C237.808 105.294 237.82 105.31 237.827 105.329ZM242.129 103.033L242.303 103.517C242.399 103.782 242.552 104.023 242.751 104.222C242.951 104.422 243.192 104.575 243.457 104.67L243.941 104.845C243.951 104.848 243.959 104.855 243.965 104.863C243.97 104.871 243.974 104.881 243.974 104.891C243.974 104.902 243.97 104.912 243.965 104.92C243.959 104.928 243.951 104.935 243.941 104.938L243.457 105.113C243.192 105.208 242.951 105.361 242.751 105.561C242.552 105.76 242.399 106.001 242.303 106.266L242.129 106.75C242.125 106.76 242.119 106.768 242.111 106.774C242.102 106.78 242.092 106.783 242.082 106.783C242.072 106.783 242.062 106.78 242.054 106.774C242.045 106.768 242.039 106.76 242.035 106.75L241.861 106.266C241.765 106.001 241.612 105.76 241.413 105.561C241.213 105.361 240.973 105.208 240.707 105.113L240.223 104.938C240.214 104.935 240.206 104.928 240.2 104.92C240.194 104.912 240.191 104.902 240.191 104.891C240.191 104.881 240.194 104.871 240.2 104.863C240.206 104.855 240.214 104.848 240.223 104.845L240.707 104.67C240.973 104.575 241.213 104.422 241.413 104.222C241.612 104.023 241.765 103.782 241.861 103.517L242.035 103.033C242.039 103.023 242.045 103.015 242.054 103.009C242.062 103.003 242.072 103 242.082 103C242.092 103 242.102 103.003 242.111 103.009C242.119 103.015 242.125 103.023 242.129 103.033ZM242.129 111.25L242.303 111.734C242.399 111.999 242.552 112.24 242.751 112.439C242.951 112.639 243.192 112.792 243.457 112.887L243.941 113.062C243.951 113.065 243.959 113.072 243.965 113.08C243.97 113.088 243.974 113.098 243.974 113.109C243.974 113.119 243.97 113.129 243.965 113.137C243.959 113.145 243.951 113.152 243.941 113.155L243.457 113.33C243.192 113.425 242.951 113.578 242.751 113.778C242.552 113.977 242.399 114.218 242.303 114.483L242.129 114.967C242.125 114.977 242.119 114.985 242.111 114.991C242.102 114.997 242.092 115 242.082 115C242.072 115 242.062 114.997 242.054 114.991C242.045 114.985 242.039 114.977 242.035 114.967L241.861 114.483C241.765 114.218 241.612 113.977 241.413 113.778C241.213 113.578 240.973 113.425 240.707 113.33L240.223 113.155C240.214 113.152 240.206 113.145 240.2 113.137C240.194 113.129 240.191 113.119 240.191 113.109C240.191 113.098 240.194 113.088 240.2 113.08C240.206 113.072 240.214 113.065 240.223 113.062L240.707 112.887C240.973 112.792 241.213 112.639 241.413 112.439C241.612 112.24 241.765 111.999 241.861 111.734L242.035 111.25C242.051 111.206 242.113 111.206 242.129 111.25Z" fill="#131313"/>
<path d="M213.827 105.329L214.171 106.285C214.36 106.809 214.662 107.285 215.056 107.679C215.45 108.073 215.925 108.375 216.449 108.563L217.405 108.908C217.424 108.915 217.44 108.927 217.452 108.944C217.463 108.96 217.469 108.98 217.469 109C217.469 109.02 217.463 109.04 217.452 109.056C217.44 109.072 217.424 109.085 217.405 109.092L216.449 109.436C215.925 109.625 215.45 109.927 215.056 110.321C214.662 110.715 214.36 111.19 214.171 111.714L213.827 112.67C213.82 112.689 213.807 112.705 213.791 112.717C213.774 112.728 213.755 112.734 213.735 112.734C213.715 112.734 213.695 112.728 213.678 112.717C213.662 112.705 213.649 112.689 213.643 112.67L213.298 111.714C213.11 111.19 212.807 110.715 212.414 110.321C212.02 109.927 211.544 109.625 211.02 109.436L210.064 109.092C210.045 109.085 210.029 109.072 210.018 109.056C210.006 109.04 210 109.02 210 109C210 108.98 210.006 108.96 210.018 108.944C210.029 108.927 210.045 108.915 210.064 108.908L211.02 108.563C211.544 108.375 212.02 108.073 212.414 107.679C212.807 107.285 213.11 106.809 213.298 106.285L213.643 105.329C213.649 105.31 213.662 105.294 213.678 105.282C213.695 105.271 213.714 105.264 213.735 105.264C213.755 105.264 213.775 105.271 213.791 105.282C213.808 105.294 213.82 105.31 213.827 105.329ZM218.129 103.033L218.303 103.517C218.399 103.782 218.552 104.023 218.751 104.222C218.951 104.422 219.192 104.575 219.457 104.67L219.941 104.845C219.951 104.848 219.959 104.855 219.965 104.863C219.97 104.871 219.974 104.881 219.974 104.891C219.974 104.902 219.97 104.912 219.965 104.92C219.959 104.928 219.951 104.935 219.941 104.938L219.457 105.113C219.192 105.208 218.951 105.361 218.751 105.561C218.552 105.76 218.399 106.001 218.303 106.266L218.129 106.75C218.125 106.76 218.119 106.768 218.111 106.774C218.102 106.78 218.092 106.783 218.082 106.783C218.072 106.783 218.062 106.78 218.054 106.774C218.045 106.768 218.039 106.76 218.035 106.75L217.861 106.266C217.765 106.001 217.612 105.76 217.413 105.561C217.213 105.361 216.973 105.208 216.707 105.113L216.223 104.938C216.214 104.935 216.206 104.928 216.2 104.92C216.194 104.912 216.191 104.902 216.191 104.891C216.191 104.881 216.194 104.871 216.2 104.863C216.206 104.855 216.214 104.848 216.223 104.845L216.707 104.67C216.973 104.575 217.213 104.422 217.413 104.222C217.612 104.023 217.765 103.782 217.861 103.517L218.035 103.033C218.039 103.023 218.045 103.015 218.054 103.009C218.062 103.003 218.072 103 218.082 103C218.092 103 218.102 103.003 218.111 103.009C218.119 103.015 218.125 103.023 218.129 103.033ZM218.129 111.25L218.303 111.734C218.399 111.999 218.552 112.24 218.751 112.439C218.951 112.639 219.192 112.792 219.457 112.887L219.941 113.062C219.951 113.065 219.959 113.072 219.965 113.08C219.97 113.088 219.974 113.098 219.974 113.109C219.974 113.119 219.97 113.129 219.965 113.137C219.959 113.145 219.951 113.152 219.941 113.155L219.457 113.33C219.192 113.425 218.951 113.578 218.751 113.778C218.552 113.977 218.399 114.218 218.303 114.483L218.129 114.967C218.125 114.977 218.119 114.985 218.111 114.991C218.102 114.997 218.092 115 218.082 115C218.072 115 218.062 114.997 218.054 114.991C218.045 114.985 218.039 114.977 218.035 114.967L217.861 114.483C217.765 114.218 217.612 113.977 217.413 113.778C217.213 113.578 216.973 113.425 216.707 113.33L216.223 113.155C216.214 113.152 216.206 113.145 216.2 113.137C216.194 113.129 216.191 113.119 216.191 113.109C216.191 113.098 216.194 113.088 216.2 113.08C216.206 113.072 216.214 113.065 216.223 113.062L216.707 112.887C216.973 112.792 217.213 112.639 217.413 112.439C217.612 112.24 217.765 111.999 217.861 111.734L218.035 111.25C218.051 111.206 218.113 111.206 218.129 111.25Z" fill="#131313"/>
<path d="M119.827 105.329L120.171 106.285C120.36 106.809 120.662 107.285 121.056 107.679C121.45 108.073 121.925 108.375 122.449 108.563L123.405 108.908C123.424 108.915 123.44 108.927 123.452 108.944C123.463 108.96 123.469 108.98 123.469 109C123.469 109.02 123.463 109.04 123.452 109.056C123.44 109.072 123.424 109.085 123.405 109.092L122.449 109.436C121.925 109.625 121.45 109.927 121.056 110.321C120.662 110.715 120.36 111.19 120.171 111.714L119.827 112.67C119.82 112.689 119.807 112.705 119.791 112.717C119.774 112.728 119.755 112.734 119.735 112.734C119.715 112.734 119.695 112.728 119.678 112.717C119.662 112.705 119.649 112.689 119.643 112.67L119.298 111.714C119.11 111.19 118.807 110.715 118.414 110.321C118.02 109.927 117.544 109.625 117.02 109.436L116.064 109.092C116.045 109.085 116.029 109.072 116.018 109.056C116.006 109.04 116 109.02 116 109C116 108.98 116.006 108.96 116.018 108.944C116.029 108.927 116.045 108.915 116.064 108.908L117.02 108.563C117.544 108.375 118.02 108.073 118.414 107.679C118.807 107.285 119.11 106.809 119.298 106.285L119.643 105.329C119.649 105.31 119.662 105.294 119.678 105.282C119.695 105.271 119.714 105.264 119.735 105.264C119.755 105.264 119.775 105.271 119.791 105.282C119.808 105.294 119.82 105.31 119.827 105.329ZM124.129 103.033L124.303 103.517C124.399 103.782 124.552 104.023 124.751 104.222C124.951 104.422 125.192 104.575 125.457 104.67L125.941 104.845C125.951 104.848 125.959 104.855 125.965 104.863C125.97 104.871 125.974 104.881 125.974 104.891C125.974 104.902 125.97 104.912 125.965 104.92C125.959 104.928 125.951 104.935 125.941 104.938L125.457 105.113C125.192 105.208 124.951 105.361 124.751 105.561C124.552 105.76 124.399 106.001 124.303 106.266L124.129 106.75C124.125 106.76 124.119 106.768 124.111 106.774C124.102 106.78 124.092 106.783 124.082 106.783C124.072 106.783 124.062 106.78 124.054 106.774C124.045 106.768 124.039 106.76 124.035 106.75L123.861 106.266C123.765 106.001 123.612 105.76 123.413 105.561C123.213 105.361 122.973 105.208 122.707 105.113L122.223 104.938C122.214 104.935 122.206 104.928 122.2 104.92C122.194 104.912 122.191 104.902 122.191 104.891C122.191 104.881 122.194 104.871 122.2 104.863C122.206 104.855 122.214 104.848 122.223 104.845L122.707 104.67C122.973 104.575 123.213 104.422 123.413 104.222C123.612 104.023 123.765 103.782 123.861 103.517L124.035 103.033C124.039 103.023 124.045 103.015 124.054 103.009C124.062 103.003 124.072 103 124.082 103C124.092 103 124.102 103.003 124.111 103.009C124.119 103.015 124.125 103.023 124.129 103.033ZM124.129 111.25L124.303 111.734C124.399 111.999 124.552 112.24 124.751 112.439C124.951 112.639 125.192 112.792 125.457 112.887L125.941 113.062C125.951 113.065 125.959 113.072 125.965 113.08C125.97 113.088 125.974 113.098 125.974 113.109C125.974 113.119 125.97 113.129 125.965 113.137C125.959 113.145 125.951 113.152 125.941 113.155L125.457 113.33C125.192 113.425 124.951 113.578 124.751 113.778C124.552 113.977 124.399 114.218 124.303 114.483L124.129 114.967C124.125 114.977 124.119 114.985 124.111 114.991C124.102 114.997 124.092 115 124.082 115C124.072 115 124.062 114.997 124.054 114.991C124.045 114.985 124.039 114.977 124.035 114.967L123.861 114.483C123.765 114.218 123.612 113.977 123.413 113.778C123.213 113.578 122.973 113.425 122.707 113.33L122.223 113.155C122.214 113.152 122.206 113.145 122.2 113.137C122.194 113.129 122.191 113.119 122.191 113.109C122.191 113.098 122.194 113.088 122.2 113.08C122.206 113.072 122.214 113.065 122.223 113.062L122.707 112.887C122.973 112.792 123.213 112.639 123.413 112.439C123.612 112.24 123.765 111.999 123.861 111.734L124.035 111.25C124.051 111.206 124.113 111.206 124.129 111.25Z" fill="#131313"/>
<defs>
<linearGradient id="paint0_linear_4899_3786" x1="197" y1="11" x2="197" y2="69" gradientUnits="userSpaceOnUse">
<stop stop-color="#3FA1E3"/>
<stop offset="1" stop-color="#3FA1E3" stop-opacity="0.35"/>
</linearGradient>
<linearGradient id="paint1_linear_4899_3786" x1="197" y1="28" x2="197" y2="52" gradientUnits="userSpaceOnUse">
<stop stop-color="#3FA1E3" stop-opacity="0.35"/>
<stop offset="0.605793" stop-color="#3FA1E3"/>
</linearGradient>
<linearGradient id="paint2_linear_4899_3786" x1="275" y1="10" x2="275" y2="68" gradientUnits="userSpaceOnUse">
<stop stop-color="#3FA1E3"/>
<stop offset="1" stop-color="#3FA1E3" stop-opacity="0.35"/>
</linearGradient>
<linearGradient id="paint3_linear_4899_3786" x1="118" y1="10" x2="118" y2="68" gradientUnits="userSpaceOnUse">
<stop stop-color="#3FA1E3"/>
<stop offset="1" stop-color="#3FA1E3" stop-opacity="0.35"/>
</linearGradient>
<linearGradient id="paint4_linear_4899_3786" x1="275" y1="27" x2="275" y2="51" gradientUnits="userSpaceOnUse">
<stop stop-color="#3FA1E3" stop-opacity="0.35"/>
<stop offset="0.605793" stop-color="#3FA1E3"/>
</linearGradient>
<linearGradient id="paint5_linear_4899_3786" x1="118" y1="27" x2="118" y2="51" gradientUnits="userSpaceOnUse">
<stop stop-color="#3FA1E3" stop-opacity="0.35"/>
<stop offset="0.605793" stop-color="#3FA1E3"/>
</linearGradient>
<linearGradient id="paint6_linear_4899_3786" x1="118" y1="27" x2="118" y2="51" gradientUnits="userSpaceOnUse">
<stop stop-color="#3FA1E3" stop-opacity="0.35"/>
<stop offset="0.605793" stop-color="#3FA1E3"/>
</linearGradient>
<linearGradient id="paint7_linear_4899_3786" x1="118" y1="27" x2="118" y2="51" gradientUnits="userSpaceOnUse">
<stop stop-color="#3FA1E3" stop-opacity="0.35"/>
<stop offset="0.605793" stop-color="#3FA1E3"/>
</linearGradient>
<linearGradient id="paint8_linear_4899_3786" x1="118" y1="27" x2="118" y2="51" gradientUnits="userSpaceOnUse">
<stop stop-color="#3FA1E3" stop-opacity="0.35"/>
<stop offset="0.605793" stop-color="#3FA1E3"/>
</linearGradient>
<linearGradient id="paint9_linear_4899_3786" x1="122" y1="99" x2="122" y2="119" gradientUnits="userSpaceOnUse">
<stop stop-color="#3FA1E3" stop-opacity="0.35"/>
<stop offset="0.605793" stop-color="#3FA1E3"/>
</linearGradient>
<linearGradient id="paint10_linear_4899_3786" x1="216" y1="99" x2="216" y2="119" gradientUnits="userSpaceOnUse">
<stop stop-color="#3FA1E3" stop-opacity="0.35"/>
<stop offset="0.605793" stop-color="#3FA1E3"/>
</linearGradient>
<linearGradient id="paint11_linear_4899_3786" x1="240" y1="99" x2="240" y2="119" gradientUnits="userSpaceOnUse">
<stop stop-color="#3FA1E3" stop-opacity="0.35"/>
<stop offset="0.605793" stop-color="#3FA1E3"/>
</linearGradient>
<linearGradient id="paint12_linear_4899_3786" x1="280" y1="99" x2="280" y2="119" gradientUnits="userSpaceOnUse">
<stop stop-color="#3FA1E3" stop-opacity="0.35"/>
<stop offset="0.605793" stop-color="#3FA1E3"/>
</linearGradient>
<clipPath id="clip0_4899_3786">
<rect width="40" height="40" fill="white" transform="translate(0 140)"/>
</clipPath>
<clipPath id="clip1_4899_3786">
<rect width="40" height="40" fill="white" transform="translate(52 140)"/>
</clipPath>
<clipPath id="clip2_4899_3786">
<rect width="40" height="40" fill="white" transform="translate(104 140)"/>
</clipPath>
<clipPath id="clip3_4899_3786">
<rect width="40" height="40" fill="white" transform="translate(156 140)"/>
</clipPath>
<clipPath id="clip4_4899_3786">
<rect width="40" height="40" fill="white" transform="translate(208 140)"/>
</clipPath>
<clipPath id="clip5_4899_3786">
<rect width="40" height="40" fill="white" transform="translate(260 140)"/>
</clipPath>
<clipPath id="clip6_4899_3786">
<rect width="40" height="40" fill="white" transform="translate(312 140)"/>
</clipPath>
<clipPath id="clip7_4899_3786">
<rect width="40" height="40" fill="white" transform="translate(364 140)"/>
</clipPath>
</defs>
</svg>
