<svg width="480" height="400" viewBox="0 0 480 400" fill="none" xmlns="http://www.w3.org/2000/svg">
<g clip-path="url(#clip0_4950_2278)">
<circle cx="183" cy="79.5" r="59" fill="#0A0F2B" fill-opacity="0.8" stroke="url(#paint0_linear_4950_2278)"/>
<circle cx="183" cy="333.5" r="59" fill="#0A0F2B" fill-opacity="0.8" stroke="url(#paint1_linear_4950_2278)"/>
<circle cx="293" cy="79.5" r="59" fill="#0A0F2B" fill-opacity="0.8" stroke="url(#paint2_linear_4950_2278)"/>
<circle cx="293" cy="333.5" r="59" fill="#0A0F2B" fill-opacity="0.8" stroke="url(#paint3_linear_4950_2278)"/>
<circle cx="395" cy="129.5" r="59" fill="#0A0F2B" fill-opacity="0.8" stroke="url(#paint4_linear_4950_2278)"/>
<circle cx="395" cy="281.5" r="59" fill="#0A0F2B" fill-opacity="0.8" stroke="url(#paint5_linear_4950_2278)"/>
<circle cx="87" cy="129.5" r="59" fill="#0A0F2B" fill-opacity="0.8" stroke="url(#paint6_linear_4950_2278)"/>
<circle cx="87" cy="281.5" r="59" fill="#0A0F2B" fill-opacity="0.8" stroke="url(#paint7_linear_4950_2278)"/>
<g opacity="0.2" filter="url(#filter0_f_4950_2278)">
<circle cx="183" cy="79.5" r="50" fill="#3FA1E3"/>
</g>
<g opacity="0.2" filter="url(#filter1_f_4950_2278)">
<circle cx="183" cy="333.5" r="50" fill="#3FA1E3"/>
</g>
<circle opacity="0.1" cx="183" cy="80" r="66.5" stroke="#3FA1E3"/>
<circle opacity="0.1" cx="183" cy="334" r="66.5" stroke="#3FA1E3"/>
<circle opacity="0.1" cx="294" cy="80" r="66.5" stroke="#3FA1E3"/>
<circle opacity="0.1" cx="294" cy="334" r="66.5" stroke="#3FA1E3"/>
<circle opacity="0.1" cx="396" cy="130" r="66.5" stroke="#3FA1E3"/>
<circle opacity="0.1" cx="396" cy="282" r="66.5" stroke="#3FA1E3"/>
<circle opacity="0.1" cx="88" cy="130" r="66.5" stroke="#3FA1E3"/>
<circle opacity="0.1" cx="88" cy="282" r="66.5" stroke="#3FA1E3"/>
<g opacity="0.2" filter="url(#filter2_f_4950_2278)">
<circle cx="293" cy="79.5" r="50" fill="#3FA1E3"/>
</g>
<g opacity="0.2" filter="url(#filter3_f_4950_2278)">
<circle cx="293" cy="333.5" r="50" fill="#3FA1E3"/>
</g>
<g opacity="0.2" filter="url(#filter4_f_4950_2278)">
<circle cx="395" cy="129.5" r="50" fill="#3FA1E3"/>
</g>
<g opacity="0.2" filter="url(#filter5_f_4950_2278)">
<circle cx="395" cy="281.5" r="50" fill="#3FA1E3"/>
</g>
<g opacity="0.2" filter="url(#filter6_f_4950_2278)">
<circle cx="87" cy="129.5" r="50" fill="#3FA1E3"/>
</g>
<g opacity="0.2" filter="url(#filter7_f_4950_2278)">
<circle cx="87" cy="281.5" r="50" fill="#3FA1E3"/>
</g>
<path opacity="0.6" d="M409 207L69.505 207" stroke="#3FA1E3" stroke-linecap="round" stroke-linejoin="round" stroke-dasharray="1 3"/>
<path d="M72 130C72 121.178 79.1776 114 88 114C91.5631 114 94.9356 115.146 97.753 117.315L94.0349 122.145C92.2929 120.804 90.206 120.095 88 120.095C82.5385 120.095 78.0952 124.539 78.0952 130C78.0952 135.461 82.5385 139.905 88 139.905C92.3988 139.905 96.1368 137.023 97.4251 133.048H88V126.952H104V130C104 138.822 96.8224 146 88 146C79.1776 146 72 138.822 72 130Z" stroke="#3FA1E3" stroke-width="1.5"/>
<path d="M308.787 71.1685C307.311 68.6556 305.31 66.6662 302.782 65.1997C300.254 63.7331 297.494 63 294.5 63C291.506 63 288.745 63.7333 286.218 65.1997C283.69 66.6661 281.688 68.6556 280.213 71.1685C278.738 73.6814 278 76.4254 278 79.4006C278 82.9745 279.049 86.1882 281.147 89.0425C283.246 91.8971 285.956 93.8724 289.279 94.9685C289.666 95.0399 289.952 94.9897 290.138 94.8193C290.325 94.6486 290.418 94.4348 290.418 94.1788C290.418 94.1361 290.414 93.7519 290.407 93.0257C290.4 92.3923 290.396 91.7588 290.396 91.1253L289.902 91.2103C289.587 91.2677 289.189 91.292 288.709 91.2851C288.23 91.2785 287.732 91.2285 287.216 91.1356C286.7 91.0435 286.221 90.83 285.777 90.4954C285.333 90.1608 285.018 89.7229 284.832 89.1822L284.617 88.6908C284.474 88.3637 284.248 88.0002 283.94 87.6018C283.632 87.2031 283.321 86.9328 283.006 86.7904L282.855 86.6834C282.755 86.6123 282.662 86.5265 282.576 86.4269C282.49 86.3274 282.426 86.2277 282.383 86.1279C282.34 86.0281 282.375 85.9462 282.49 85.8819C282.605 85.8177 282.812 85.7865 283.113 85.7865L283.543 85.8503C283.829 85.9074 284.183 86.0778 284.606 86.3627C285.029 86.6474 285.376 87.0175 285.648 87.4729C285.978 88.0568 286.375 88.5017 286.84 88.8078C287.306 89.114 287.775 89.2668 288.248 89.2668C288.72 89.2668 289.128 89.2312 289.472 89.1603C289.816 89.0891 290.138 88.9821 290.439 88.8398C290.568 87.8855 290.919 87.1524 291.491 86.64C290.675 86.5547 289.941 86.4263 289.289 86.2555C288.638 86.0846 287.965 85.8071 287.27 85.4223C286.575 85.0381 285.999 84.5609 285.54 83.9917C285.082 83.4222 284.706 82.6745 284.413 81.7493C284.119 80.8238 283.972 79.7561 283.972 78.546C283.972 76.8231 284.538 75.3569 285.67 74.1466C285.14 72.8513 285.19 71.3992 285.82 69.7904C286.235 69.6621 286.851 69.7584 287.668 70.0786C288.484 70.399 289.082 70.6734 289.462 70.9009C289.841 71.1284 290.146 71.3211 290.375 71.4775C291.707 71.1074 293.082 70.9224 294.5 70.9224C295.918 70.9224 297.293 71.1074 298.625 71.4775L299.441 70.9652C300 70.6233 300.659 70.3101 301.418 70.0253C302.177 69.7407 302.757 69.6623 303.158 69.7906C303.803 71.3995 303.86 72.8515 303.33 74.1469C304.461 75.3571 305.027 76.8237 305.027 78.5463C305.027 79.7563 304.88 80.8274 304.587 81.76C304.294 82.6928 303.914 83.4398 303.449 84.0024C302.983 84.565 302.403 85.0384 301.708 85.4225C301.014 85.807 300.34 86.0845 299.689 86.2555C299.037 86.4265 298.303 86.555 297.487 86.6404C298.231 87.2808 298.603 88.2917 298.603 89.6726V94.1782C298.603 94.4342 298.693 94.6479 298.872 94.8187C299.051 94.9891 299.334 95.0393 299.721 94.9679C303.044 93.8719 305.755 91.8965 307.853 89.0419C309.951 86.1876 311 82.9739 311 79.4C310.999 76.4252 310.261 73.6814 308.787 71.1685Z" stroke="#3FA1E3" stroke-width="1.5"/>
<path d="M383.2 133.4C384.967 133.4 386.4 131.967 386.4 130.2C386.4 128.433 384.967 127 383.2 127C381.433 127 380 128.433 380 130.2C380 131.967 381.433 133.4 383.2 133.4Z" stroke="#3FA1E3" stroke-width="1.5"/>
<path d="M396 133.4C397.767 133.4 399.2 131.967 399.2 130.2C399.2 128.433 397.767 127 396 127C394.233 127 392.8 128.433 392.8 130.2C392.8 131.967 394.233 133.4 396 133.4Z" stroke="#3FA1E3" stroke-width="1.5"/>
<path d="M408.8 133.4C410.567 133.4 412 131.967 412 130.2C412 128.433 410.567 127 408.8 127C407.033 127 405.6 128.433 405.6 130.2C405.6 131.967 407.033 133.4 408.8 133.4Z" stroke="#3FA1E3" stroke-width="1.5"/>
<path d="M383.2 285.4C384.967 285.4 386.4 283.967 386.4 282.2C386.4 280.433 384.967 279 383.2 279C381.433 279 380 280.433 380 282.2C380 283.967 381.433 285.4 383.2 285.4Z" stroke="#3FA1E3" stroke-width="1.5"/>
<path d="M396 285.4C397.767 285.4 399.2 283.967 399.2 282.2C399.2 280.433 397.767 279 396 279C394.233 279 392.8 280.433 392.8 282.2C392.8 283.967 394.233 285.4 396 285.4Z" stroke="#3FA1E3" stroke-width="1.5"/>
<path d="M408.8 285.4C410.567 285.4 412 283.967 412 282.2C412 280.433 410.567 279 408.8 279C407.033 279 405.6 280.433 405.6 282.2C405.6 283.967 407.033 285.4 408.8 285.4Z" stroke="#3FA1E3" stroke-width="1.5"/>
<path d="M176.501 313.79L176.286 313.072L176.286 313.072L176.501 313.79ZM185.907 313.436L186.067 312.703L186.067 312.703L185.907 313.436ZM194.299 317.693L195.044 317.783L195.091 317.392L194.796 317.131L194.299 317.693ZM194.288 317.791L194.818 318.321L195.001 318.138L195.032 317.88L194.288 317.791ZM188.516 323.562L187.986 323.032L187.399 323.619L188.042 324.143L188.516 323.562ZM188.606 323.638V324.388H190.672L189.087 323.062L188.606 323.638ZM188.488 323.638L188.016 324.221L188.222 324.388H188.488V323.638ZM181.15 321.35L181.093 320.602L181.093 320.602L181.15 321.35ZM174.243 324.721L174.096 325.456L174.512 325.539L174.797 325.226L174.243 324.721ZM174.122 324.753L173.978 325.489L174.26 325.544L174.506 325.397L174.122 324.753ZM171.475 324.501L171.472 323.751L171.471 323.751L171.475 324.501ZM164.083 326.747L164.27 327.473L164.391 327.442L164.496 327.373L164.083 326.747ZM163.79 326.844L163.066 326.647L162.668 328.114L164.074 327.538L163.79 326.844ZM168.454 318.67L167.916 318.147L167.916 318.147L168.454 318.67ZM176.501 313.79L176.717 314.508C179.648 313.629 182.756 313.512 185.746 314.168L185.907 313.436L186.067 312.703C182.829 311.993 179.462 312.119 176.286 313.072L176.501 313.79ZM185.907 313.436L185.746 314.168C188.735 314.824 191.509 316.23 193.803 318.256L194.299 317.693L194.796 317.131C192.31 314.937 189.306 313.413 186.067 312.703L185.907 313.436ZM194.299 317.693L193.555 317.604L193.543 317.702L194.288 317.791L195.032 317.88L195.044 317.783L194.299 317.693ZM194.288 317.791L193.757 317.261L187.986 323.032L188.516 323.562L189.046 324.093L194.818 318.321L194.288 317.791ZM188.516 323.562L188.042 324.143C188.068 324.165 188.084 324.179 188.125 324.213L188.606 323.638L189.087 323.062C189.068 323.046 189.024 323.009 188.991 322.982L188.516 323.562ZM188.606 323.638V322.888H188.488V323.638V324.388H188.606V323.638ZM188.488 323.638L188.96 323.055C186.746 321.264 183.932 320.386 181.093 320.602L181.15 321.35L181.207 322.097C183.664 321.911 186.1 322.67 188.016 324.221L188.488 323.638ZM181.15 321.35L181.093 320.602C178.254 320.818 175.605 322.111 173.688 324.216L174.243 324.721L174.797 325.226C176.456 323.403 178.75 322.284 181.207 322.097L181.15 321.35ZM174.243 324.721L174.39 323.985C174.079 323.923 173.835 324.051 173.737 324.109L174.122 324.753L174.506 325.397C174.49 325.407 174.449 325.429 174.387 325.447C174.323 325.464 174.22 325.481 174.096 325.456L174.243 324.721ZM174.122 324.753L174.265 324.017C173.349 323.838 172.413 323.748 171.472 323.751L171.475 324.501L171.478 325.251C172.319 325.248 173.157 325.329 173.978 325.489L174.122 324.753ZM171.475 324.501L171.471 323.751C168.691 323.768 165.981 324.594 163.669 326.121L164.083 326.747L164.496 327.373C166.565 326.005 168.991 325.266 171.48 325.251L171.475 324.501ZM164.083 326.747L163.895 326.021C163.766 326.054 163.635 326.096 163.505 326.15L163.79 326.844L164.074 327.538C164.135 327.513 164.2 327.491 164.27 327.473L164.083 326.747ZM163.79 326.844L164.513 327.04C165.315 324.086 166.856 321.386 168.991 319.193L168.454 318.67L167.916 318.147C165.603 320.522 163.934 323.448 163.066 326.647L163.79 326.844ZM168.454 318.67L168.991 319.193C171.126 317.001 173.786 315.388 176.717 314.508L176.501 313.79L176.286 313.072C173.11 314.024 170.229 315.772 167.916 318.147L168.454 318.67Z" fill="#3FA1E3"/>
<path d="M194.373 317.707L194.871 317.146L194.342 316.677L193.843 317.177L194.373 317.707ZM200.038 326.842L199.314 327.038L199.387 327.307L199.618 327.463L200.038 326.842ZM205.235 333.583L205.943 333.335L205.943 333.335L205.235 333.583ZM205.39 342.094L206.106 342.316L206.106 342.316L205.39 342.094ZM200.44 349.019L200.883 349.624L200.883 349.624L200.44 349.019ZM192.338 351.628L192.344 350.878H192.338V351.628ZM181.914 351.628L181.384 352.158L181.603 352.378H181.914V351.628ZM181.857 351.571V350.821H180.047L181.327 352.102L181.857 351.571ZM181.899 351.571V352.321H182.649V351.571H181.899ZM181.899 343.298L181.369 342.768L181.149 342.987V343.298H181.899ZM181.914 343.283V342.533H181.603L181.384 342.753L181.914 343.283ZM192.338 343.283V344.033H192.338L192.338 343.283ZM194.332 342.887L194.619 343.58L194.619 343.58L194.332 342.887ZM196.023 341.757L196.554 342.287L196.554 342.287L196.023 341.757ZM197.153 340.065L197.846 340.352L197.846 340.352L197.153 340.065ZM197.55 338.071L198.3 338.071V338.071H197.55ZM197.153 336.076L197.846 335.789L197.846 335.789L197.153 336.076ZM196.023 334.386L196.554 333.855L196.554 333.855L196.023 334.386ZM194.332 333.256L194.619 332.563L194.619 332.563L194.332 333.256ZM192.338 332.859H191.588V333.609L192.338 333.609L192.338 332.859ZM192.338 331.819L191.588 331.805V331.819H192.338ZM191.377 327.252L192.058 326.937L192.058 326.937L191.377 327.252ZM188.517 323.562L187.986 323.032L187.4 323.619L188.042 324.143L188.517 323.562ZM194.373 317.707L193.875 318.268C196.503 320.6 198.394 323.648 199.314 327.038L200.038 326.842L200.762 326.645C199.765 322.973 197.717 319.672 194.871 317.146L194.373 317.707ZM200.038 326.842L199.618 327.463C201.896 329.004 203.617 331.237 204.528 333.831L205.235 333.583L205.943 333.335C204.926 330.436 203.003 327.942 200.458 326.221L200.038 326.842ZM205.235 333.583L204.528 333.831C205.438 336.426 205.489 339.245 204.673 341.871L205.39 342.094L206.106 342.316C207.017 339.383 206.96 336.233 205.943 333.335L205.235 333.583ZM205.39 342.094L204.673 341.871C203.858 344.497 202.218 346.791 199.998 348.413L200.44 349.019L200.883 349.624C203.363 347.812 205.194 345.25 206.106 342.316L205.39 342.094ZM200.44 349.019L199.998 348.413C197.778 350.035 195.093 350.899 192.344 350.878L192.338 351.628L192.332 352.378C195.404 352.402 198.402 351.436 200.883 349.624L200.44 349.019ZM192.338 351.628V350.878H181.914V351.628V352.378H192.338V351.628ZM181.914 351.628L182.444 351.098L182.388 351.041L181.857 351.571L181.327 352.102L181.384 352.158L181.914 351.628ZM181.857 351.571V352.321H181.899V351.571V350.821H181.857V351.571ZM181.899 351.571H182.649V343.298H181.899H181.149V351.571H181.899ZM181.899 343.298L182.43 343.828L182.444 343.814L181.914 343.283L181.384 342.753L181.369 342.768L181.899 343.298ZM181.914 343.283V344.033H192.338V343.283V342.533H181.914V343.283ZM192.338 343.283L192.338 344.033C193.121 344.033 193.896 343.879 194.619 343.58L194.332 342.887L194.045 342.194C193.504 342.418 192.924 342.533 192.338 342.533L192.338 343.283ZM194.332 342.887L194.619 343.58C195.342 343.28 196 342.841 196.554 342.287L196.023 341.757L195.493 341.227C195.079 341.641 194.587 341.97 194.045 342.194L194.332 342.887ZM196.023 341.757L196.554 342.287C197.107 341.733 197.547 341.076 197.846 340.352L197.153 340.065L196.46 339.778C196.236 340.32 195.907 340.812 195.493 341.227L196.023 341.757ZM197.153 340.065L197.846 340.352C198.146 339.629 198.3 338.854 198.3 338.071L197.55 338.071L196.8 338.071C196.8 338.657 196.684 339.237 196.46 339.778L197.153 340.065ZM197.55 338.071H198.3C198.3 337.289 198.146 336.513 197.846 335.789L197.153 336.076L196.46 336.363C196.685 336.904 196.8 337.485 196.8 338.071H197.55ZM197.153 336.076L197.846 335.789C197.547 335.066 197.107 334.409 196.554 333.855L196.023 334.386L195.493 334.916C195.907 335.33 196.236 335.822 196.46 336.363L197.153 336.076ZM196.023 334.386L196.554 333.855C196 333.302 195.342 332.862 194.619 332.563L194.332 333.256L194.045 333.949C194.587 334.173 195.079 334.502 195.493 334.916L196.023 334.386ZM194.332 333.256L194.619 332.563C193.896 332.263 193.121 332.109 192.338 332.109L192.338 332.859L192.338 333.609C192.924 333.609 193.504 333.725 194.045 333.949L194.332 333.256ZM192.338 332.859H193.088V331.819H192.338H191.588V332.859H192.338ZM192.338 331.819L193.088 331.833C193.12 330.144 192.767 328.47 192.058 326.937L191.377 327.252L190.696 327.567C191.31 328.894 191.616 330.343 191.588 331.805L192.338 331.819ZM191.377 327.252L192.058 326.937C191.348 325.404 190.3 324.051 188.991 322.982L188.517 323.562L188.042 324.143C189.174 325.069 190.082 326.24 190.696 327.567L191.377 327.252ZM188.517 323.562L189.047 324.093L194.903 318.237L194.373 317.707L193.843 317.177L187.986 323.032L188.517 323.562Z" fill="#3FA1E3"/>
<path d="M169.333 342.764L169.643 342.081L169.17 341.866L168.803 342.233L169.333 342.764ZM171.476 343.228L171.476 343.978H171.476V343.228ZM181.9 343.228H182.65V342.478H181.9V343.228ZM181.9 351.572V352.322H182.65V351.572H181.9ZM171.476 351.572V350.822L171.473 350.822L171.476 351.572ZM163.292 348.85L162.562 348.679L162.451 349.154L162.84 349.448L163.292 348.85ZM163.306 348.791L162.776 348.261L162.624 348.412L162.576 348.621L163.306 348.791ZM169.333 342.764L169.023 343.447C169.793 343.796 170.63 343.977 171.476 343.978L171.476 343.228L171.476 342.478C170.844 342.477 170.219 342.342 169.643 342.081L169.333 342.764ZM171.476 343.228V343.978H181.9V343.228V342.478H171.476V343.228ZM181.9 343.228H181.15V351.572H181.9H182.65V343.228H181.9ZM181.9 351.572V350.822H171.476V351.572V352.322H181.9V351.572ZM171.476 351.572L171.473 350.822C168.684 350.834 165.969 349.931 163.744 348.251L163.292 348.85L162.84 349.448C165.328 351.326 168.363 352.336 171.479 352.322L171.476 351.572ZM163.292 348.85L164.023 349.02L164.036 348.961L163.306 348.791L162.576 348.621L162.562 348.679L163.292 348.85ZM163.306 348.791L163.836 349.321L169.864 343.294L169.333 342.764L168.803 342.233L162.776 348.261L163.306 348.791Z" fill="#3FA1E3"/>
<path d="M171.476 324.5C168.651 324.517 165.903 325.416 163.614 327.07C161.325 328.725 159.61 331.053 158.709 333.73C157.808 336.407 157.765 339.298 158.586 342.001C159.408 344.703 161.053 347.081 163.292 348.803L169.338 342.756C168.57 342.409 167.897 341.881 167.378 341.217C166.859 340.552 166.508 339.772 166.357 338.943C166.206 338.113 166.258 337.259 166.509 336.454C166.76 335.65 167.203 334.918 167.799 334.321C168.395 333.725 169.127 333.283 169.932 333.031C170.737 332.78 171.59 332.728 172.42 332.88C173.249 333.031 174.03 333.381 174.694 333.901C175.358 334.42 175.887 335.093 176.234 335.861L182.28 329.814C181.011 328.155 179.375 326.812 177.501 325.89C175.627 324.968 173.564 324.493 171.476 324.5Z" stroke="#3FA1E3" stroke-width="1.5"/>
<path d="M84.206 294.971C90.3729 293.857 95.4664 292.936 95.5249 292.923L95.6312 292.9L89.8091 285.822C86.6069 281.929 83.9869 278.729 83.9869 278.71C83.9869 278.675 89.9988 261.754 90.0326 261.694C90.0439 261.674 94.1352 268.893 99.9501 279.194C105.394 288.838 109.882 296.79 109.924 296.865L110 297L91.4967 296.998L72.9935 296.995L84.206 294.971ZM62 292.812C62 292.802 64.7434 287.935 68.0964 281.996L74.1927 271.197L81.2974 265.103C85.2049 261.752 88.4125 259.005 88.4254 259C88.4382 258.995 88.3868 259.127 88.3111 259.294C88.2355 259.461 84.7639 267.071 80.5965 276.207L73.0195 292.816L67.5098 292.823C64.4794 292.827 62 292.822 62 292.812Z" stroke="#3FA1E3" stroke-width="1.5"/>
<path fill-rule="evenodd" clip-rule="evenodd" d="M295.408 311.333L294.421 323.493C293.954 323.44 293.487 323.413 293.007 323.413C292.406 323.413 291.819 323.453 291.245 323.547L290.685 317.653C290.672 317.467 290.819 317.307 291.005 317.307H292.006L291.526 311.347C291.512 311.16 291.659 311 291.833 311H295.101C295.288 311 295.435 311.16 295.408 311.347V311.333ZM287.163 311.933C287.109 311.76 286.923 311.653 286.749 311.72L283.68 312.84C283.507 312.907 283.427 313.107 283.507 313.267L286.002 318.707L285.055 319.053C284.881 319.12 284.801 319.32 284.881 319.48L287.43 324.827C288.35 324.32 289.351 323.933 290.405 323.693L287.176 311.933H287.163ZM279.638 315.32L286.696 325.267C285.802 325.853 284.988 326.547 284.294 327.347L280.065 323.187C279.931 323.053 279.944 322.84 280.078 322.72L280.852 322.08L276.649 317.827C276.515 317.693 276.529 317.48 276.676 317.36L279.171 315.267C279.317 315.147 279.518 315.173 279.624 315.32H279.638ZM273.714 321.08C273.567 320.973 273.353 321.027 273.26 321.187L271.632 324.013C271.539 324.173 271.605 324.373 271.766 324.453L277.183 327.013L276.676 327.88C276.582 328.04 276.649 328.253 276.822 328.32L282.213 330.787C282.6 329.787 283.12 328.853 283.76 328.013L273.714 321.08ZM269.724 328.76C269.751 328.573 269.938 328.467 270.111 328.507L281.919 331.587C281.612 332.587 281.439 333.64 281.412 334.733L275.501 334.253C275.315 334.24 275.181 334.067 275.221 333.88L275.395 332.893L269.431 332.333C269.244 332.32 269.124 332.147 269.15 331.96L269.711 328.747L269.724 328.76ZM269.284 336.733C269.097 336.747 268.977 336.92 269.004 337.107L269.577 340.32C269.604 340.507 269.791 340.613 269.964 340.573L275.755 339.067L275.928 340.053C275.955 340.24 276.142 340.347 276.315 340.307L282.026 338.733C281.692 337.747 281.479 336.693 281.425 335.613L269.271 336.733H269.284ZM271.179 345.187C271.085 345.027 271.152 344.827 271.312 344.747L282.333 339.52C282.746 340.507 283.307 341.427 283.974 342.253L279.144 345.693C278.997 345.8 278.784 345.76 278.69 345.6L278.183 344.72L273.26 348.12C273.113 348.227 272.9 348.173 272.806 348.013L271.165 345.187H271.179ZM284.534 342.893L275.955 351.573C275.822 351.707 275.835 351.92 275.982 352.04L278.49 354.133C278.637 354.253 278.837 354.227 278.944 354.08L282.413 349.2L283.187 349.853C283.333 349.973 283.547 349.947 283.654 349.787L287.016 344.907C286.109 344.347 285.268 343.667 284.548 342.893H284.534ZM282.84 356.827C282.666 356.76 282.586 356.56 282.666 356.4L287.75 345.307C288.684 345.787 289.698 346.147 290.752 346.347L289.257 352.08C289.217 352.253 289.017 352.36 288.844 352.293L287.897 351.947L286.309 357.72C286.255 357.893 286.069 358 285.895 357.933L282.826 356.813L282.84 356.827ZM291.592 346.493L290.605 358.653C290.592 358.84 290.738 359 290.912 359H294.181C294.368 359 294.514 358.84 294.488 358.653L294.007 352.693H295.008C295.195 352.693 295.342 352.533 295.328 352.347L294.768 346.453C294.194 346.547 293.607 346.587 293.007 346.587C292.526 346.587 292.059 346.56 291.592 346.493ZM303.36 313.573C303.44 313.4 303.36 313.213 303.187 313.147L300.118 312.027C299.945 311.96 299.758 312.067 299.705 312.24L298.117 318.013L297.17 317.667C296.996 317.6 296.809 317.707 296.756 317.88L295.262 323.613C296.329 323.827 297.33 324.187 298.264 324.653L303.36 313.573ZM310.058 318.413L301.479 327.093C300.759 326.32 299.931 325.64 299.011 325.08L302.373 320.2C302.48 320.053 302.693 320.013 302.84 320.133L303.614 320.787L307.083 315.907C307.19 315.76 307.403 315.733 307.537 315.853L310.045 317.947C310.192 318.067 310.192 318.28 310.072 318.413H310.058ZM314.701 325.24C314.875 325.16 314.928 324.96 314.835 324.8L313.194 321.973C313.1 321.813 312.887 321.773 312.74 321.867L307.817 325.267L307.31 324.4C307.216 324.24 307.003 324.187 306.856 324.307L302.026 327.747C302.693 328.573 303.24 329.493 303.667 330.48L314.688 325.253L314.701 325.24ZM316.436 329.667L316.996 332.88C317.023 333.067 316.903 333.227 316.716 333.253L304.561 334.387C304.508 333.293 304.294 332.253 303.961 331.267L309.671 329.693C309.845 329.64 310.032 329.76 310.058 329.947L310.232 330.933L316.022 329.427C316.196 329.387 316.383 329.493 316.409 329.68L316.436 329.667ZM315.889 341.467C316.062 341.507 316.249 341.4 316.276 341.213L316.836 338C316.863 337.813 316.743 337.653 316.556 337.627L310.592 337.067L310.765 336.08C310.792 335.893 310.672 335.733 310.485 335.707L304.575 335.227C304.548 336.32 304.374 337.373 304.068 338.373L315.876 341.453L315.889 341.467ZM312.74 348.8C312.647 348.96 312.433 349 312.286 348.907L302.24 341.973C302.88 341.133 303.4 340.2 303.787 339.2L309.178 341.667C309.351 341.747 309.418 341.947 309.324 342.107L308.817 342.973L314.234 345.533C314.395 345.613 314.461 345.813 314.368 345.973L312.74 348.8ZM299.304 344.707L306.362 354.653C306.469 354.8 306.683 354.827 306.816 354.707L309.311 352.613C309.458 352.493 309.458 352.28 309.338 352.147L305.135 347.893L305.909 347.253C306.056 347.133 306.056 346.92 305.922 346.787L301.693 342.627C300.985 343.427 300.185 344.133 299.291 344.707H299.304ZM299.238 358.253C299.064 358.32 298.877 358.213 298.824 358.04L295.595 346.28C296.649 346.04 297.65 345.653 298.57 345.147L301.119 350.493C301.199 350.667 301.119 350.867 300.945 350.92L299.998 351.267L302.493 356.707C302.573 356.88 302.493 357.067 302.32 357.133L299.251 358.253H299.238Z" stroke="#3FA1E3" stroke-width="1.5"/>
<path d="M200 92V80.28C200 74.52 198.76 70.12 192.04 70.12C188.8 70.12 186.64 71.88 185.76 73.56H185.68V70.64H179.32V92H185.96V81.4C185.96 78.6 186.48 75.92 189.92 75.92C193.32 75.92 193.36 79.08 193.36 81.56V91.96H200V92ZM168.52 70.64H175.16V92H168.52V70.64ZM171.84 60C169.72 60 168 61.72 168 63.84C168 65.96 169.72 67.72 171.84 67.72C173.96 67.72 175.68 65.96 175.68 63.84C175.68 61.72 173.96 60 171.84 60Z" stroke="#3FA1E3" stroke-width="1.5"/>
</g>
<defs>
<filter id="filter0_f_4950_2278" x="101" y="-2.5" width="164" height="164" filterUnits="userSpaceOnUse" color-interpolation-filters="sRGB">
<feFlood flood-opacity="0" result="BackgroundImageFix"/>
<feBlend mode="normal" in="SourceGraphic" in2="BackgroundImageFix" result="shape"/>
<feGaussianBlur stdDeviation="16" result="effect1_foregroundBlur_4950_2278"/>
</filter>
<filter id="filter1_f_4950_2278" x="101" y="251.5" width="164" height="164" filterUnits="userSpaceOnUse" color-interpolation-filters="sRGB">
<feFlood flood-opacity="0" result="BackgroundImageFix"/>
<feBlend mode="normal" in="SourceGraphic" in2="BackgroundImageFix" result="shape"/>
<feGaussianBlur stdDeviation="16" result="effect1_foregroundBlur_4950_2278"/>
</filter>
<filter id="filter2_f_4950_2278" x="211" y="-2.5" width="164" height="164" filterUnits="userSpaceOnUse" color-interpolation-filters="sRGB">
<feFlood flood-opacity="0" result="BackgroundImageFix"/>
<feBlend mode="normal" in="SourceGraphic" in2="BackgroundImageFix" result="shape"/>
<feGaussianBlur stdDeviation="16" result="effect1_foregroundBlur_4950_2278"/>
</filter>
<filter id="filter3_f_4950_2278" x="211" y="251.5" width="164" height="164" filterUnits="userSpaceOnUse" color-interpolation-filters="sRGB">
<feFlood flood-opacity="0" result="BackgroundImageFix"/>
<feBlend mode="normal" in="SourceGraphic" in2="BackgroundImageFix" result="shape"/>
<feGaussianBlur stdDeviation="16" result="effect1_foregroundBlur_4950_2278"/>
</filter>
<filter id="filter4_f_4950_2278" x="313" y="47.5" width="164" height="164" filterUnits="userSpaceOnUse" color-interpolation-filters="sRGB">
<feFlood flood-opacity="0" result="BackgroundImageFix"/>
<feBlend mode="normal" in="SourceGraphic" in2="BackgroundImageFix" result="shape"/>
<feGaussianBlur stdDeviation="16" result="effect1_foregroundBlur_4950_2278"/>
</filter>
<filter id="filter5_f_4950_2278" x="313" y="199.5" width="164" height="164" filterUnits="userSpaceOnUse" color-interpolation-filters="sRGB">
<feFlood flood-opacity="0" result="BackgroundImageFix"/>
<feBlend mode="normal" in="SourceGraphic" in2="BackgroundImageFix" result="shape"/>
<feGaussianBlur stdDeviation="16" result="effect1_foregroundBlur_4950_2278"/>
</filter>
<filter id="filter6_f_4950_2278" x="5" y="47.5" width="164" height="164" filterUnits="userSpaceOnUse" color-interpolation-filters="sRGB">
<feFlood flood-opacity="0" result="BackgroundImageFix"/>
<feBlend mode="normal" in="SourceGraphic" in2="BackgroundImageFix" result="shape"/>
<feGaussianBlur stdDeviation="16" result="effect1_foregroundBlur_4950_2278"/>
</filter>
<filter id="filter7_f_4950_2278" x="5" y="199.5" width="164" height="164" filterUnits="userSpaceOnUse" color-interpolation-filters="sRGB">
<feFlood flood-opacity="0" result="BackgroundImageFix"/>
<feBlend mode="normal" in="SourceGraphic" in2="BackgroundImageFix" result="shape"/>
<feGaussianBlur stdDeviation="16" result="effect1_foregroundBlur_4950_2278"/>
</filter>
<linearGradient id="paint0_linear_4950_2278" x1="183" y1="20.5" x2="183" y2="138.5" gradientUnits="userSpaceOnUse">
<stop stop-color="#3FA1E3"/>
<stop offset="1" stop-color="#3FA1E3" stop-opacity="0.35"/>
</linearGradient>
<linearGradient id="paint1_linear_4950_2278" x1="183" y1="274.5" x2="183" y2="392.5" gradientUnits="userSpaceOnUse">
<stop stop-color="#3FA1E3"/>
<stop offset="1" stop-color="#3FA1E3" stop-opacity="0.35"/>
</linearGradient>
<linearGradient id="paint2_linear_4950_2278" x1="293" y1="20.5" x2="293" y2="138.5" gradientUnits="userSpaceOnUse">
<stop stop-color="#3FA1E3"/>
<stop offset="1" stop-color="#3FA1E3" stop-opacity="0.35"/>
</linearGradient>
<linearGradient id="paint3_linear_4950_2278" x1="293" y1="274.5" x2="293" y2="392.5" gradientUnits="userSpaceOnUse">
<stop stop-color="#3FA1E3"/>
<stop offset="1" stop-color="#3FA1E3" stop-opacity="0.35"/>
</linearGradient>
<linearGradient id="paint4_linear_4950_2278" x1="395" y1="70.5" x2="395" y2="188.5" gradientUnits="userSpaceOnUse">
<stop stop-color="#3FA1E3"/>
<stop offset="1" stop-color="#3FA1E3" stop-opacity="0.35"/>
</linearGradient>
<linearGradient id="paint5_linear_4950_2278" x1="395" y1="222.5" x2="395" y2="340.5" gradientUnits="userSpaceOnUse">
<stop stop-color="#3FA1E3"/>
<stop offset="1" stop-color="#3FA1E3" stop-opacity="0.35"/>
</linearGradient>
<linearGradient id="paint6_linear_4950_2278" x1="87" y1="70.5" x2="87" y2="188.5" gradientUnits="userSpaceOnUse">
<stop stop-color="#3FA1E3"/>
<stop offset="1" stop-color="#3FA1E3" stop-opacity="0.35"/>
</linearGradient>
<linearGradient id="paint7_linear_4950_2278" x1="87" y1="222.5" x2="87" y2="340.5" gradientUnits="userSpaceOnUse">
<stop stop-color="#3FA1E3"/>
<stop offset="1" stop-color="#3FA1E3" stop-opacity="0.35"/>
</linearGradient>
<clipPath id="clip0_4950_2278">
<rect width="480" height="400" fill="white"/>
</clipPath>
</defs>
</svg>
