<svg width="667" height="667" viewBox="0 0 667 667" fill="none" xmlns="http://www.w3.org/2000/svg">
<path d="M296.531 305.316V302.947C296.531 297.13 291.817 292.416 286 292.416H186.525C184.125 292.415 181.972 291.448 180.396 289.878C178.825 288.302 177.859 286.148 177.859 283.75V255.175C177.859 254.07 176.963 253.175 175.859 253.175C174.753 253.175 173.859 254.07 173.859 255.175V283.75C173.86 290.746 179.528 296.414 186.525 296.415H286C287.811 296.416 289.431 297.143 290.619 298.328C291.804 299.516 292.531 301.136 292.531 302.947V305.316C292.531 306.42 293.427 307.316 294.531 307.316C295.636 307.316 296.531 306.42 296.531 305.316Z" fill="#BAD1E4"/>
<path d="M296.531 305.316V302.947C296.532 301.136 297.259 299.516 298.444 298.328C299.632 297.143 301.252 296.416 303.063 296.415H322.667C329.664 296.415 335.332 290.744 335.333 283.75V255.175C335.333 254.07 334.437 253.175 333.333 253.175C332.229 253.175 331.333 254.07 331.333 255.175V283.75C331.332 286.148 330.367 288.303 328.795 289.878C327.22 291.448 325.067 292.415 322.667 292.416H303.063C297.245 292.416 292.532 297.13 292.531 302.947V305.316C292.531 306.42 293.427 307.316 294.531 307.316C295.636 307.316 296.531 306.42 296.531 305.316Z" fill="#BAD1E4"/>
<path d="M320.664 296.415H521.489C528.485 296.413 534.155 290.745 534.156 283.749V197.487C534.156 196.381 533.261 195.487 532.156 195.487C531.052 195.487 530.156 196.381 530.156 197.487V283.749C530.155 286.148 529.189 288.301 527.617 289.877C526.043 291.448 523.889 292.415 521.489 292.416H320.664C319.56 292.416 318.664 293.311 318.664 294.416C318.664 295.52 319.56 296.416 320.664 296.416" fill="#BAD1E4"/>
<path d="M360.991 246.17H305.677C299.785 246.17 295.011 241.394 295.011 235.503V180.19C295.011 174.299 299.785 169.523 305.677 169.523H360.991C366.881 169.523 371.657 174.299 371.657 180.19V235.503C371.657 241.394 366.881 246.17 360.991 246.17Z" fill="#BAD1E4"/>
<path d="M327.741 225.34L342.111 204.067C343.397 202.163 346.168 202.069 347.579 203.884L364.267 225.34H327.741Z" fill="#EDF5FC"/>
<path d="M302.401 225.34L317.948 191.341C318.532 190.065 320.325 190.016 320.979 191.257L338.925 225.34H302.401Z" fill="white"/>
<path d="M200.763 143.314H77.336C71.4453 143.314 66.6693 138.54 66.6693 132.648V77.3344C66.6693 71.4438 71.4453 66.6678 77.336 66.6678H200.763C206.655 66.6678 211.429 71.4438 211.429 77.3344V132.648C211.429 138.54 206.655 143.314 200.763 143.314Z" fill="#BAD1E4"/>
<path d="M180.027 100.117H140.597C136.716 100.117 133.569 96.9692 133.569 93.0879C133.569 89.2066 136.716 86.0599 140.597 86.0599H180.027C183.908 86.0599 187.055 89.2066 187.055 93.0879C187.055 96.9692 183.908 100.117 180.027 100.117Z" fill="#EDF5FC"/>
<path d="M154.311 123.43H140.597C136.716 123.43 133.569 120.283 133.569 116.402C133.569 112.52 136.716 109.372 140.597 109.372H154.311C158.195 109.372 161.34 112.52 161.34 116.402C161.34 120.283 158.195 123.43 154.311 123.43Z" fill="#9DB4E2"/>
<path d="M96.0364 82.9171L119.974 99.0864C122.979 101.116 123.125 105.489 120.262 107.716L96.2093 126.424C94.1084 128.058 91.0443 126.56 91.0443 123.897V85.5691C91.0443 83.0038 93.9099 81.4811 96.0364 82.9171Z" fill="white"/>
<path d="M200.763 246.17H145.449C139.559 246.17 134.783 241.394 134.783 235.503V180.19C134.783 174.299 139.559 169.523 145.449 169.523H200.763C206.655 169.523 211.429 174.299 211.429 180.19V235.503C211.429 241.394 206.655 246.17 200.763 246.17Z" fill="#BAD1E4"/>
<path d="M147.527 226.537C146.605 226.537 145.697 226.136 144.807 225.329C143.915 224.522 143.469 223.514 143.469 222.306C143.469 221.098 143.871 220.265 144.679 219.804L162.807 207.889L144.679 195.974C143.871 195.457 143.469 194.624 143.469 193.47C143.469 192.206 143.915 191.17 144.807 190.364C145.697 189.557 146.605 189.156 147.527 189.156C148.1 189.156 148.532 189.27 148.821 189.5L171.528 204.35C172.159 204.81 172.635 205.372 172.952 206.033C173.267 206.696 173.425 207.314 173.425 207.889C173.425 208.465 173.267 209.084 172.952 209.745C172.635 210.408 172.159 210.941 171.528 211.342L148.821 226.192C148.532 226.422 148.1 226.537 147.527 226.537Z" fill="white"/>
<path d="M172.011 226.537C171.147 226.537 170.443 226.177 169.896 225.458C169.349 224.737 169.076 223.832 169.076 222.74C169.076 221.644 169.349 220.722 169.896 219.976C170.443 219.228 171.147 218.854 172.011 218.854H199.637C200.443 218.854 201.161 219.228 201.796 219.976C202.428 220.722 202.745 221.644 202.745 222.74C202.745 223.832 202.428 224.737 201.796 225.458C201.161 226.177 200.443 226.537 199.637 226.537H172.011Z" fill="#EDF5FC"/>
<path d="M360.991 143.314H305.677C299.785 143.314 295.011 138.54 295.011 132.648V77.3344C295.011 71.4438 299.785 66.6678 305.677 66.6678H360.991C366.881 66.6678 371.657 71.4438 371.657 77.3344V132.648C371.657 138.54 366.881 143.314 360.991 143.314Z" fill="#BAD1E4"/>
<path d="M325.696 105.962L319.663 91.5818L313.471 105.962H325.696ZM326.432 107.903H312.656L310.243 113.518C309.647 114.9 309.351 115.932 309.351 116.615C309.351 117.158 309.608 117.634 310.125 118.046C310.64 118.456 311.755 118.723 313.471 118.844V119.816H302.265V118.844C303.752 118.583 304.715 118.242 305.152 117.822C306.044 116.982 307.032 115.276 308.117 112.706L320.633 83.4217H321.552L333.937 113.02C334.933 115.399 335.839 116.943 336.652 117.651C337.467 118.359 338.597 118.758 340.051 118.844V119.816H326.013V118.844C327.429 118.775 328.387 118.539 328.885 118.138C329.384 117.734 329.633 117.244 329.633 116.667C329.633 115.898 329.284 114.682 328.584 113.02L326.432 107.903Z" fill="white"/>
<path d="M355.952 114.648V105.49C353.309 106.54 351.604 107.284 350.835 107.72C349.453 108.49 348.465 109.294 347.869 110.134C347.275 110.974 346.979 111.893 346.979 112.889C346.979 114.149 347.355 115.194 348.105 116.026C348.859 116.857 349.724 117.272 350.704 117.272C352.033 117.272 353.783 116.397 355.952 114.648ZM355.952 116.353C353.485 118.26 351.937 119.361 351.307 119.66C350.363 120.096 349.357 120.314 348.291 120.314C346.628 120.314 345.259 119.746 344.184 118.609C343.108 117.472 342.569 115.977 342.569 114.122C342.569 112.95 342.832 111.937 343.357 111.08C344.075 109.89 345.32 108.77 347.096 107.72C348.872 106.672 351.823 105.393 355.952 103.889V102.945C355.952 100.548 355.572 98.9038 354.809 98.0118C354.049 97.1198 352.944 96.6731 351.492 96.6731C350.389 96.6731 349.515 96.9718 348.867 97.5665C348.203 98.1611 347.869 98.8438 347.869 99.6132L347.923 101.134C347.923 101.94 347.716 102.561 347.305 102.997C346.895 103.436 346.357 103.653 345.693 103.653C345.045 103.653 344.516 103.425 344.104 102.972C343.693 102.516 343.488 101.896 343.488 101.108C343.488 99.6051 344.257 98.2212 345.799 96.9625C347.337 95.7025 349.497 95.0731 352.279 95.0731C354.413 95.0731 356.163 95.4318 357.528 96.1478C358.559 96.6918 359.319 97.5398 359.809 98.6932C360.124 99.4452 360.281 100.986 360.281 103.312V111.472C360.281 113.765 360.325 115.168 360.413 115.685C360.5 116.2 360.644 116.546 360.845 116.72C361.047 116.896 361.279 116.982 361.54 116.982C361.82 116.982 362.065 116.921 362.276 116.799C362.643 116.572 363.352 115.933 364.401 114.884V116.353C362.441 118.977 360.571 120.289 358.787 120.289C357.928 120.289 357.247 119.992 356.74 119.397C356.232 118.802 355.969 117.788 355.952 116.353Z" fill="#EDF5FC"/>
<path d="M588.313 186.516H475.997C469.544 186.516 464.313 181.285 464.313 174.833V78.3529C464.313 71.8996 469.544 66.6689 475.997 66.6689H588.313C594.767 66.6689 599.997 71.8996 599.997 78.3529V174.833C599.997 181.285 594.767 186.516 588.313 186.516Z" fill="#BAD1E4"/>
<path d="M530.455 130.672C530.455 130.672 571.684 117.763 572.547 102.405C573.239 90.1145 557.645 88.5799 548.889 98.2572C540.133 107.936 526.768 124.527 526.768 124.527L530.455 130.672Z" fill="#EDF5FC"/>
<path d="M498.485 161.103C512.895 161.867 544.492 160.109 533.22 128.213C533.22 128.213 525.464 116.844 513.672 122.068C503.308 126.659 505.139 144.067 496.139 155.933C494.571 158 495.895 160.965 498.485 161.103Z" fill="white"/>
<path d="M177.859 162.973V151.087C177.859 149.982 176.963 149.087 175.859 149.087C174.753 149.087 173.859 149.982 173.859 151.087V162.973C173.859 164.077 174.753 164.973 175.859 164.973C176.963 164.973 177.859 164.077 177.859 162.973Z" fill="#BAD1E4"/>
<path d="M335.333 162.973V151.087C335.333 149.982 334.437 149.087 333.333 149.087C332.229 149.087 331.333 149.982 331.333 151.087V162.973C331.333 164.077 332.229 164.973 333.333 164.973C334.437 164.973 335.333 164.077 335.333 162.973Z" fill="#BAD1E4"/>
<path d="M220.04 109.689H286.401C287.505 109.689 288.401 108.793 288.401 107.689C288.401 106.584 287.505 105.689 286.401 105.689H220.04C218.936 105.689 218.04 106.584 218.04 107.689C218.04 108.793 218.936 109.689 220.04 109.689Z" fill="#BAD1E4"/>
<path d="M343.347 510.17H499.455C507.536 510.17 514.087 503.618 514.087 495.537V380.571C514.087 380.571 513.593 336.369 449.644 344.342C383.06 352.645 407.117 418.971 359.46 423.771C314.449 428.305 300.576 457.305 312.183 502.107C313.408 506.838 317.64 510.17 322.528 510.17H343.347Z" fill="#BAD1E4"/>
<path d="M500.259 510.17L501.203 395.923C501.344 378.986 490.151 363.937 473.805 359.491C470.128 358.49 466.013 357.818 461.421 357.625C431.108 356.342 416.275 375.085 412.491 391.999C408.708 408.914 400.94 416.685 389.283 420.342C377.624 423.999 336.325 436.726 348.06 463.734C359.796 490.742 359.903 510.17 359.903 510.17H500.259Z" fill="#9DB4E2"/>
<path d="M328.367 510.17L319.005 595.674L314.537 599.998H327.224L323.867 595.426L342.537 510.17H328.367Z" fill="#7496D5"/>
<path d="M419.917 510.17L429.277 595.674L433.745 599.998H421.06L424.417 595.426L405.747 510.17H419.917Z" fill="#537DC1"/>
<path d="M408.708 510.17L399.348 595.674L394.88 599.998H407.567L404.209 595.426L422.88 510.17H408.708Z" fill="#7496D5"/>
<path d="M500.259 510.17L509.62 595.674L514.087 599.998H501.403L504.759 595.426L486.087 510.17H500.259Z" fill="#537DC1"/>
<path d="M486.087 502.322H486.061C485.472 502.308 485.008 501.82 485.021 501.229L487.815 386.24C488.004 378.454 490.792 370.82 495.665 364.745L499.427 360.056C499.797 359.598 500.468 359.524 500.927 359.89C501.387 360.26 501.461 360.932 501.091 361.39L497.331 366.08C492.748 371.792 490.125 378.97 489.948 386.292L487.153 501.281C487.139 501.861 486.664 502.322 486.087 502.322Z" fill="#7496D5"/>
<path d="M466.309 502.322L466.255 502.321C465.667 502.292 465.213 501.79 465.244 501.202L471.753 370.624C472.087 363.912 474.299 357.453 478.144 351.944L480.181 349.026C480.519 348.542 481.185 348.425 481.667 348.761C482.149 349.098 482.268 349.764 481.931 350.246L479.895 353.165C476.277 358.344 474.197 364.418 473.884 370.729L467.373 501.309C467.345 501.878 466.873 502.322 466.309 502.322Z" fill="#7496D5"/>
<path d="M454.047 502.322L453.999 502.321C453.411 502.296 452.955 501.797 452.98 501.209L459.292 357.512L459.948 346.844C459.983 346.257 460.483 345.818 461.079 345.845C461.665 345.882 462.113 346.388 462.077 346.976L461.421 357.625L455.112 501.302C455.087 501.876 454.615 502.322 454.047 502.322Z" fill="#7496D5"/>
<path d="M437.885 502.322L437.813 502.32C437.227 502.281 436.781 501.773 436.819 501.186L445.537 367.938C445.861 362.993 445.067 357.944 443.236 353.337L442.244 350.838C442.027 350.29 442.293 349.67 442.841 349.453C443.389 349.238 444.009 349.501 444.227 350.05L445.219 352.55C447.165 357.448 448.012 362.818 447.667 368.078L438.948 501.325C438.912 501.889 438.443 502.322 437.885 502.322Z" fill="#7496D5"/>
<path d="M422.88 502.322L422.815 502.32C422.228 502.285 421.78 501.78 421.815 501.192L429.369 376.336C429.725 370.481 428.532 364.609 425.923 359.357L424.553 356.596C424.292 356.069 424.507 355.429 425.035 355.166C425.563 354.902 426.201 355.12 426.464 355.648L427.833 358.408C430.609 363.993 431.876 370.238 431.5 376.465L423.944 501.32C423.911 501.886 423.44 502.322 422.88 502.322Z" fill="#7496D5"/>
<path d="M408.881 502.322L408.815 502.32C408.228 502.285 407.78 501.78 407.815 501.192L414.975 382.64C415.111 380.386 415.02 378.11 414.7 375.874L413.48 367.316C413.397 366.734 413.804 366.193 414.387 366.11C414.955 366.022 415.509 366.433 415.593 367.016L416.813 375.574C417.151 377.95 417.251 380.372 417.104 382.769L409.944 501.32C409.911 501.886 409.44 502.322 408.881 502.322Z" fill="#7496D5"/>
<path d="M322.419 510.17L320.348 484.966C319.173 470.675 330.584 458.49 344.919 458.722L490.993 461.097L500.259 510.17H322.419Z" fill="#9DB4E2"/>
<path d="M345.388 599.998H253.123C245.771 599.998 239.789 594.017 239.789 586.665V387.885C239.789 380.533 245.771 374.552 253.123 374.552H344.817C346.291 374.552 347.484 375.746 347.484 377.218C347.484 378.692 346.291 379.885 344.817 379.885H253.123C248.711 379.885 245.123 383.473 245.123 387.885V586.665C245.123 591.076 248.711 594.665 253.123 594.665H345.388C346.861 594.665 348.055 595.858 348.055 597.331C348.055 598.805 346.861 599.998 345.388 599.998Z" fill="#7496D5"/>
<path d="M282.996 556.112L284.595 575.656L286.652 582.971H302.195L305.853 575.656L306.195 556.112C306.195 556.112 293.968 553.941 282.996 556.112Z" fill="#FBCED2"/>
<path d="M311.848 594.05V600.002H248.252V597.25C248.252 594.807 249.853 592.663 252.189 591.98L259.912 589.709L284.593 575.65C299.921 585.292 305.395 576.45 305.82 575.703L305.853 575.65L307.484 580.364C308.584 581.826 309.405 583.501 310.024 585.164C310.087 585.335 310.14 585.495 310.204 585.666C310.257 585.837 310.321 586.018 310.375 586.188C311.697 590.285 311.848 594.05 311.848 594.05Z" fill="#543426"/>
<path d="M437.884 408.75L436.444 422.809L435.495 429.315L433.488 443.129C431.345 457.795 417.959 468.11 403.228 466.446L309.276 461.827C309.276 461.827 310.097 469.433 310.472 480.963C310.504 482.041 310.535 483.161 310.568 484.302V484.622C310.792 495.001 310.621 507.907 309.276 521.143C306.195 551.65 306.195 556.11 306.195 556.11C306.195 556.11 294.876 558.051 282.995 556.11L273.939 445.902C273.299 438.137 275.955 430.457 281.235 424.739C286.504 419.033 293.917 415.801 301.66 415.801C301.863 415.801 302.055 415.811 302.257 415.811L437.884 408.75Z" fill="#FBCA6D"/>
<path d="M435.495 429.315L433.488 443.128C431.345 457.795 417.959 468.11 403.228 466.446L309.276 461.827C309.276 461.827 310.097 469.432 310.472 480.963C309.596 465.422 303.111 454.627 303.111 454.627C351.016 452.878 414.78 435.352 435.495 429.315Z" fill="#F2AF43"/>
<path d="M326.195 556.112L327.796 575.656L329.853 582.971H345.395L349.052 575.656L349.395 556.112C349.395 556.112 337.167 553.941 326.195 556.112Z" fill="#FBCED2"/>
<path d="M355.047 594.05V600.002H291.453V597.25C291.453 594.807 293.053 592.663 295.389 591.98L303.111 589.709L310.204 585.666L327.795 575.65C327.943 575.746 328.092 575.842 328.243 575.927C343.24 585.122 348.604 576.45 349.021 575.703L349.052 575.65L350.685 580.364C354.727 585.74 355.047 594.05 355.047 594.05Z" fill="#543426"/>
<path d="M462.363 418.286V426.851L460.359 440.569L459.399 447.171C457.264 461.838 443.877 472.163 429.147 470.499L352.476 461.827C352.476 461.827 353.329 469.721 353.683 481.625C353.713 482.414 353.724 482.862 353.724 482.862C354.012 493.518 353.895 507.15 352.476 521.143C349.393 551.65 349.393 556.11 349.393 556.11C349.393 556.11 338.077 558.051 326.195 556.11L317.139 445.902C316.497 438.137 319.153 430.457 324.433 424.739C329.703 419.033 337.116 415.801 344.861 415.801C345.063 415.801 345.255 415.811 345.457 415.811L462.363 418.286Z" fill="#FBCA6D"/>
<path d="M320.176 483.396C319.901 483.396 319.668 483.186 319.645 482.907L316.609 445.943C315.96 438.051 318.672 430.188 324.047 424.372C329.553 418.416 337.321 415.12 345.468 415.274L462.371 417.751C462.665 417.758 462.9 418.002 462.893 418.296C462.887 418.587 462.649 418.818 462.36 418.818H462.348L345.444 416.34C337.633 416.172 330.129 419.367 324.831 425.098C319.656 430.694 317.047 438.259 317.672 445.855L320.708 482.819C320.732 483.114 320.515 483.371 320.22 483.395L320.176 483.396Z" fill="#CA7D1C"/>
<path d="M328.243 575.927L328.06 576.119L327.943 576.183L310.375 586.188L303.377 590.178L303.26 590.221L295.537 592.492C293.448 593.111 291.985 595.063 291.985 597.25V600.002H290.919V597.25C290.919 594.594 292.7 592.215 295.24 591.469L302.899 589.218L310.024 585.164L327.528 575.191L327.751 575.127C327.953 575.106 328.156 575.213 328.263 575.394C328.36 575.564 328.349 575.767 328.243 575.927Z" fill="#42261D"/>
<path d="M460.359 440.569L459.399 447.172C457.264 461.838 443.877 472.164 429.147 470.5L352.476 461.828C352.476 461.828 353.329 469.721 353.683 481.625C353.511 477.369 352.615 463.012 348.06 453.945C348.06 453.945 435.259 467.31 460.359 440.569Z" fill="#F2AF43"/>
<path d="M378.448 339.012L317.419 345.758V355.13L391.348 362.326C395.472 362.326 399.229 359.946 400.992 356.217L407.933 341.526C407.933 341.526 396.276 337.184 378.448 339.012Z" fill="#FBCED2"/>
<path d="M411.019 290.725L408.325 291.249C403.888 292.109 400.081 294.941 397.979 298.942L378.448 339.01C378.448 339.01 401.761 340.382 408.391 352.953C408.391 352.953 414.333 300.04 411.019 290.725Z" fill="#F25050"/>
<path d="M317.419 355.091L313.695 356.084H308.976L303.264 353.789L302.021 356.884C301.86 357.292 301.464 357.559 301.027 357.559C300.409 357.559 299.919 357.037 299.956 356.424L300.105 353.923L298.437 356.965C298.24 357.329 297.856 357.559 297.439 357.559C296.616 357.559 296.067 356.711 296.397 355.959L297.683 353.055L301.233 348.555L296.817 352.105L293.917 356.913C293.675 357.312 293.243 357.559 292.773 357.559C291.772 357.559 291.125 356.5 291.583 355.612L294.045 350.805L297.683 346.911L317.419 355.091Z" fill="#F58991"/>
<path d="M317.419 345.758V355.09L298.767 347.36C298.072 347.072 297.292 347.07 296.596 347.358L290.757 349.766L286.152 354.828C285.881 355.13 285.499 355.297 285.107 355.297C284.976 355.297 284.848 355.277 284.719 355.24C283.777 354.977 283.377 353.862 283.939 353.062L288.315 346.786C288.497 346.526 288.745 346.32 289.033 346.189L297.857 342.186C298.529 341.88 299.284 341.8 300.007 341.958L317.419 345.758Z" fill="#FBCED2"/>
<path d="M307.616 349.637L302.509 352.622L296.889 354.91C295.493 355.479 295.9 357.557 297.408 357.557H303.721L313.695 356.083L317.419 355.09L307.616 349.637Z" fill="#FBCED2"/>
<path d="M317.419 348.813V355.091L313.695 356.084L303.721 357.559H297.408C297.068 355.264 301.124 356.412 301.124 356.412C305.752 356.092 309.493 354.549 312.216 352.933C312.431 352.808 312.64 352.679 312.847 352.549C315.828 350.667 317.419 348.813 317.419 348.813Z" fill="#F58991"/>
<path d="M402.88 316.8C402.88 316.8 397.909 342.93 384.024 339.707C384.024 339.707 398.765 342.832 402.88 346.787V316.8Z" fill="#F03A49"/>
<path d="M479.643 328.592V328.602C475.281 366.618 462.363 426.852 462.363 426.852C462.363 426.852 407.335 411.086 376.476 414.51C376.476 414.51 377.948 410.852 380.209 405.274C385.361 392.602 394.631 370.042 400.028 358.288C400.028 358.288 398.94 333.082 403.569 313.2L405.628 291.941L428.775 285.722L450.043 284.624C450.043 284.624 470.875 289.488 479.333 298.853C481.765 301.552 481.392 313.264 479.643 328.592Z" fill="#F25050"/>
<path d="M479.643 328.592V328.602C475.281 366.618 462.363 426.852 462.363 426.852C462.363 426.852 407.335 411.086 376.476 414.51C376.476 414.51 377.948 410.852 380.209 405.274C391.783 406.277 427.057 408.43 439.58 398.746C439.58 398.746 446.951 390.682 447.109 381.434C447.281 372.176 428.444 368.889 428.444 368.889C428.444 368.889 450.533 354.512 460.827 340.805C471.109 327.088 479.643 328.592 479.643 328.592Z" fill="#F03A49"/>
<path d="M429.74 285.847C430.324 291.295 426.687 296.153 421.613 296.696C416.54 297.241 411.956 293.264 411.371 287.816C410.787 282.367 414.425 277.509 419.497 276.965C424.571 276.421 429.156 280.397 429.74 285.847Z" fill="#413F3F"/>
<path d="M456.872 236.279C456.872 236.279 462.245 236.832 462.359 248.273C462.472 259.713 446.472 276.916 446.472 276.916L413.985 245.484L409.516 245.853C408.895 245.905 408.365 245.419 408.361 244.796C408.339 242.223 408.852 235.824 413.968 230.744L411.092 227.956C410.532 227.413 410.717 226.473 411.447 226.196C417.649 223.829 440.783 215.641 448.472 222.001C457.387 229.373 456.872 236.279 456.872 236.279Z" fill="#42261D"/>
<path d="M444.737 265.044L450.043 284.624C450.121 291.17 446.119 296.568 440.652 297.287H440.651C435.932 297.908 431.268 294.87 429.068 289.739L428.476 288.359L426.824 275.804L444.737 265.044Z" fill="#FBCED2"/>
<path d="M439.089 279.363L428.476 288.359L426.824 275.805L439.089 279.363Z" fill="#F58991"/>
<path d="M455.329 260.311C454.092 268.737 448.833 267.372 448.833 267.372C446.647 275.02 441.601 278.796 436.204 280.556C426.071 283.852 415.596 276.695 414.637 266.081C414.007 259.084 413.921 251.319 413.985 245.484C422.828 245.121 430.497 242.583 435.777 240.268C438.215 239.197 440.144 238.172 441.443 237.429C442.204 236.992 443.135 237.607 443.027 238.477C442.901 239.481 442.792 240.508 442.7 241.548C442.135 248.055 442.263 255.031 443.628 260.033C443.585 260.844 444.62 261.217 445.111 260.567L446.967 258.06L447.713 254.604C449.185 252.535 456.577 251.873 455.329 260.311Z" fill="#FBCED2"/>
<path d="M429.249 265.661C429.487 265.677 429.713 265.525 429.781 265.285C429.861 265.01 429.7 264.724 429.425 264.645L424.729 263.305L426.273 252.734C426.315 252.452 426.12 252.189 425.836 252.148C425.583 252.101 425.291 252.301 425.249 252.585L423.639 263.604C423.6 263.86 423.757 264.105 424.008 264.177L429.14 265.642L429.249 265.661Z" fill="#F58991"/>
<path d="M434.221 257.142C434.869 257.187 435.432 256.696 435.476 256.048L435.561 254.823C435.605 254.175 435.116 253.612 434.468 253.568C433.819 253.524 433.256 254.014 433.212 254.663L433.128 255.888C433.084 256.536 433.573 257.098 434.221 257.142Z" fill="#42261D"/>
<path d="M419.667 256.962C420.315 257.006 420.877 256.517 420.921 255.869L421.005 254.643C421.051 253.995 420.56 253.433 419.912 253.389C419.263 253.343 418.701 253.833 418.657 254.482L418.573 255.707C418.528 256.357 419.019 256.917 419.667 256.962Z" fill="#42261D"/>
<path d="M430.335 250.916L430.653 250.833C435.007 248.004 438.601 250.569 438.753 250.68C438.984 250.848 439.308 250.801 439.477 250.571C439.647 250.34 439.6 250.017 439.369 249.847C439.328 249.815 435.06 246.732 430.087 249.964C429.848 250.12 429.78 250.441 429.936 250.681C430.028 250.824 430.179 250.905 430.335 250.916Z" fill="#42261D"/>
<path d="M415.161 251.154L415.479 251.072C419.836 248.241 423.427 250.808 423.58 250.92C423.809 251.086 424.136 251.04 424.304 250.809C424.472 250.58 424.425 250.256 424.195 250.085C424.153 250.054 419.885 246.972 414.915 250.202C414.675 250.358 414.607 250.68 414.763 250.92C414.855 251.062 415.005 251.144 415.161 251.154Z" fill="#42261D"/>
<path d="M448.289 263.022L448.311 263.023C448.548 263.029 448.755 262.857 448.792 262.621C448.857 262.211 449.177 260.963 449.784 260.609C449.909 260.535 450.115 260.454 450.464 260.583C450.713 260.675 450.983 260.551 451.077 260.305C451.168 260.058 451.043 259.785 450.797 259.693C450.264 259.494 449.749 259.527 449.304 259.787C449.101 259.906 448.927 260.062 448.775 260.242C448.877 258.997 449.201 257.738 450.024 257.538C451.751 257.118 452.571 259.023 452.603 259.105C452.708 259.347 452.985 259.459 453.227 259.357C453.471 259.254 453.583 258.975 453.48 258.733C453.08 257.787 451.795 256.127 449.799 256.613C447.333 257.215 447.789 262.05 447.849 262.599C447.873 262.83 448.06 263.006 448.289 263.022Z" fill="#F58991"/>
<path d="M414.747 267.004L414.236 277.848C414.077 281.228 416.595 284.164 419.967 284.461C428.223 285.189 442.612 284.384 447.417 271.073L446.941 264.031C446.907 263.511 446.403 263.155 445.901 263.296L444.211 263.769C443.947 263.843 443.737 264.044 443.651 264.304L442.537 267.707C442.143 268.911 440.679 269.363 439.675 268.591L436.465 266.12C435.763 265.58 434.881 265.335 434.003 265.439C431.455 265.74 425.881 266.325 422.273 266.159C421.26 266.111 420.328 266.695 419.943 267.632L419.119 269.633C418.821 270.357 417.867 270.519 417.348 269.933L414.747 267.004Z" fill="#42261D"/>
<path d="M427.755 271.67C427.475 271.67 427.303 271.661 427.265 271.658C426.972 271.638 426.751 271.385 426.769 271.091C426.789 270.798 427.029 270.562 427.336 270.593C427.38 270.599 432.201 270.866 435.245 267.903C435.455 267.699 435.792 267.703 435.999 267.914C436.203 268.125 436.199 268.463 435.988 268.667C433.167 271.417 429.145 271.67 427.755 271.67Z" fill="white"/>
<path d="M443.34 291.11C443.924 296.558 440.285 301.416 435.213 301.96C430.14 302.503 425.555 298.527 424.972 293.079C424.387 287.63 428.025 282.772 433.097 282.228C438.171 281.684 442.755 285.66 443.34 291.11Z" fill="#CA7D1C"/>
<path d="M433.679 290.514C433.679 290.514 444.937 278.915 450.903 271.67C450.903 271.67 454.04 278.401 454.251 283.314C454.251 283.314 444.197 292.237 434.832 293.615L433.679 290.514Z" fill="#F2AF43"/>
<path d="M439.409 291.531C439.744 294.647 437.661 297.427 434.76 297.737C431.86 298.048 429.236 295.775 428.901 292.657C428.568 289.54 430.648 286.761 433.551 286.449C436.452 286.139 439.076 288.413 439.409 291.531Z" fill="#FBCA6D"/>
<path d="M398.885 361.328L398.861 361.327C398.567 361.315 398.34 361.064 398.353 360.771C399.488 335.54 403.004 313.339 403.039 313.116C403.087 312.825 403.355 312.632 403.651 312.673C403.941 312.721 404.139 312.995 404.093 313.285C404.059 313.507 400.551 335.652 399.417 360.819C399.405 361.105 399.169 361.328 398.885 361.328Z" fill="#BA2152"/>
<path d="M432.957 344.342L371.681 346.172V355.741L439.297 367.738C443.005 368.396 446.787 367.049 449.245 364.194L460.823 350.744L432.957 344.342Z" fill="#FBCED2"/>
<path d="M433.404 344.635C433.404 344.635 445.251 358.154 445.852 362.326C446.451 366.497 445.037 367.166 445.037 367.166C445.037 367.166 446.741 366.818 450.068 363.238C453.395 359.657 460.823 350.743 460.823 350.743L433.404 344.635Z" fill="#F58991"/>
<path d="M355.711 349.931L350.825 354.023L345.271 357.467C343.891 358.323 344.697 360.455 346.299 360.183L353.003 359.045L363.329 355.682L367.105 353.954L355.711 349.931Z" fill="#F58991"/>
<path d="M371.56 346.24L351.159 345.291L341.064 352.112L337.323 360.036C336.873 360.989 337.497 362.1 338.545 362.212C339.121 362.273 339.684 362.003 339.996 361.515L343.971 355.307L350.808 351.024L347.651 355.817L345.901 361.364C345.577 362.391 346.455 363.397 347.516 363.217C348.013 363.132 348.431 362.793 348.615 362.324L350.827 356.696L354.875 352.131L351.917 357.551L351.079 360.864C350.861 361.724 351.599 362.524 352.472 362.375C352.916 362.3 353.281 361.989 353.427 361.565L354.648 358.033L354.941 360.715C355.013 361.376 355.627 361.839 356.281 361.728C356.747 361.649 357.116 361.296 357.216 360.835L357.98 357.325L364.461 358.731L369.471 357.879L373.244 356.151L371.56 346.24Z" fill="#FBCED2"/>
<path d="M361.151 350.937L361.401 350.799C361.563 350.62 361.548 350.344 361.368 350.184C357.448 346.661 353.824 346.448 353.672 346.441C353.435 346.428 353.228 346.613 353.216 346.855C353.204 347.093 353.389 347.297 353.629 347.309C353.664 347.312 357.111 347.529 360.788 350.832C360.891 350.924 361.025 350.959 361.151 350.937Z" fill="#F58991"/>
<path d="M357.98 357.324L360.213 353.492L360.015 354.915C359.875 355.907 360.329 356.888 361.176 357.426L362.591 358.324L357.98 357.324Z" fill="#F58991"/>
<path d="M479.337 298.857L476.301 297.844C470.009 295.748 463.095 298.158 459.472 303.711L432.957 344.342C432.957 344.342 452.613 358.971 456.147 368.799L479.639 328.592L479.337 298.857Z" fill="#F25050"/>
<path d="M432.957 344.877L432.665 344.79C432.417 344.629 432.349 344.298 432.511 344.052L453.067 312.552C453.227 312.305 453.556 312.236 453.805 312.396C454.051 312.557 454.12 312.888 453.96 313.134L433.404 344.636C433.303 344.792 433.131 344.877 432.957 344.877Z" fill="#BA2152"/>
<path d="M455.42 369.467C454.196 369.467 451.895 368.735 448.812 364.508C448.639 364.269 448.692 363.936 448.929 363.761C449.167 363.589 449.5 363.641 449.676 363.879C453.061 368.525 455.244 368.463 455.789 368.353L472.319 339.66C472.467 339.405 472.792 339.319 473.048 339.464C473.304 339.612 473.391 339.939 473.244 340.193L456.609 369.065L456.387 369.276C456.292 369.324 455.963 369.467 455.42 369.467Z" fill="#BA2152"/>
<path d="M341.063 352.645C340.892 352.645 340.724 352.562 340.621 352.411C340.456 352.166 340.52 351.834 340.764 351.67L350.86 344.849L351.184 344.758L371.585 345.706L410.635 344.475C410.937 344.453 411.175 344.698 411.184 344.993C411.195 345.286 410.963 345.533 410.668 345.542L371.577 346.773L351.311 345.831L341.361 352.554L341.063 352.645Z" fill="#F58991"/>
<path d="M401.66 361.592L401.569 361.584L373.324 356.704C372.464 357.124 368.417 358.998 364.496 359.261C364.213 359.288 363.948 359.06 363.928 358.764C363.909 358.47 364.132 358.216 364.424 358.196C368.533 357.922 372.959 355.696 373.003 355.674L373.335 355.624L401.751 360.532C402.04 360.584 402.236 360.86 402.185 361.149C402.139 361.409 401.915 361.592 401.66 361.592Z" fill="#F58991"/>
<path d="M394.417 359.809L342.304 358.209V363.238H394.417V359.809Z" fill="#7496D5"/>
<path d="M346.645 363.238H265.732L247.676 313.41H328.588L346.645 363.238Z" fill="#7496D5"/>
<path d="M247.676 313.41L265.732 363.238L328.588 313.41H247.676Z" fill="#9DB4E2"/>
<path d="M406.873 374.551H227.219V363.237H406.873V374.551Z" fill="#BAD1E4"/>
<path d="M406.873 374.551H339.332V363.237H406.873V374.551Z" fill="#9DB4E2"/>
<path d="M397.273 599.998H333.197C325.847 599.998 319.864 594.017 319.864 586.665V387.885C319.864 380.533 325.847 374.552 333.197 374.552H379.788C381.261 374.552 382.455 375.746 382.455 377.218C382.455 378.692 381.261 379.885 379.788 379.885H333.197C328.787 379.885 325.197 383.473 325.197 387.885V586.665C325.197 591.076 328.787 594.665 333.197 594.665H397.273C398.747 594.665 399.94 595.858 399.94 597.331C399.94 598.805 398.747 599.998 397.273 599.998Z" fill="#7496D5"/>
<path d="M505.552 387.427C505.552 387.427 499.175 425.827 441.335 433.027C387.311 439.753 383.449 467.117 393.931 502.549C395.269 507.071 399.443 510.17 404.16 510.17H499.501C502.844 510.17 505.552 507.461 505.552 504.119V387.427Z" fill="#BAD1E4"/>
<path d="M393.931 503.082C393.7 503.082 393.488 502.931 393.419 502.699C386.905 480.677 387.248 465.262 394.5 454.183C402.109 442.562 417.407 435.47 441.269 432.499C453.431 430.985 464.239 427.95 473.387 423.478C473.652 423.351 473.971 423.458 474.1 423.723C474.229 423.989 474.12 424.307 473.856 424.437C464.6 428.961 453.681 432.029 441.401 433.557C417.868 436.486 402.819 443.425 395.392 454.769C388.324 465.563 388.023 480.698 394.443 502.397C394.527 502.679 394.364 502.975 394.083 503.059L393.931 503.082Z" fill="#537DC1"/>
<path d="M384.805 109.689H451.165C452.269 109.689 453.165 108.793 453.165 107.689C453.165 106.584 452.269 105.689 451.165 105.689H384.805C383.7 105.689 382.805 106.584 382.805 107.689C382.805 108.793 383.7 109.689 384.805 109.689Z" fill="#BAD1E4"/>
<path d="M158.539 520.449C158.539 520.449 153.125 480.963 185.584 423.424C185.584 423.424 203.985 473.827 182.959 520.449H158.539Z" fill="#7496D5"/>
<path d="M132.444 520.449C132.444 520.449 107.987 489.369 127.643 410.741C127.643 410.741 162.844 453.247 150.5 520.449H132.444Z" fill="#7496D5"/>
<path d="M182.959 600.002H121.701C104.975 566.946 103.077 539.694 121.701 520.45H182.959C201.584 539.694 199.684 566.946 182.959 600.002Z" fill="#BAD1E4"/>
<path d="M121.701 520.449C121.701 520.449 93.3584 479.68 95.6432 415.268C95.6432 415.268 144.557 454.16 135.872 520.449H121.701Z" fill="#9DB4E2"/>
<path d="M144.787 520.449C144.787 520.449 133.129 489.597 170.5 436.112C170.5 436.112 182.843 490.275 161.244 520.449H144.787Z" fill="#9DB4E2"/>
<path d="M178.301 553.714C178.301 548.6 174.156 544.456 169.044 544.456C163.931 544.456 159.787 548.6 159.787 553.714C159.787 558.825 163.931 562.971 169.044 562.971C174.156 562.971 178.301 558.825 178.301 553.714Z" fill="#EDF5FC"/>
<path d="M144.872 553.714C144.872 548.6 140.728 544.456 135.616 544.456C130.503 544.456 126.358 548.6 126.358 553.714C126.358 558.825 130.503 562.971 135.616 562.971C140.728 562.971 144.872 558.825 144.872 553.714Z" fill="#EDF5FC"/>
<path d="M157.047 553.713C157.047 550.965 154.82 548.738 152.073 548.738C149.325 548.738 147.097 550.965 147.097 553.713C147.097 556.459 149.325 558.688 152.073 558.688C154.82 558.688 157.047 556.459 157.047 553.713Z" fill="white"/>
<path d="M123.106 553.713C123.106 550.965 120.878 548.738 118.13 548.738C115.383 548.738 113.155 550.965 113.155 553.713C113.155 556.459 115.383 558.688 118.13 558.688C120.878 558.688 123.106 556.459 123.106 553.713Z" fill="white"/>
<path d="M191.504 553.713C191.504 550.965 189.277 548.738 186.529 548.738C183.783 548.738 181.555 550.965 181.555 553.713C181.555 556.459 183.783 558.688 186.529 558.688C189.277 558.688 191.504 556.459 191.504 553.713Z" fill="white"/>
<path d="M555.772 440.644L557.371 458.719H575.984L577.584 440.644L577.495 440.409L577.228 440.292H556.124L556.007 440.313C555.872 440.361 555.772 440.495 555.772 440.644Z" fill="#BAD1E4"/>
<path d="M554.137 439.056C554.288 439.935 554.741 440.728 557.283 440.293L557.385 440.275C557.489 440.256 557.608 440.256 557.745 440.275H576.073L576.308 440.379L576.512 440.275C578.532 440.317 580.157 438.712 580.172 436.884C580.187 435.292 578.972 433.819 577.257 433.493C576.176 429.564 573.031 427.552 570.816 428.139C569.088 428.596 568.239 430.556 568.035 431.052C566.613 429.437 564.365 429.115 562.883 430.103C561.287 431.175 561.319 433.291 561.324 433.427C559.247 431.665 556.724 431.892 555.832 433.087C555.02 434.177 555.691 435.888 555.765 436.072C554.207 437.484 554.037 438.456 554.137 439.056Z" fill="#9DB4E2"/>
<path d="M548.337 444.331L547.064 458.719H532.247L530.972 444.331L531.044 444.143L531.256 444.049H548.057L548.151 444.067L548.337 444.331Z" fill="#BAD1E4"/>
<path d="M549.639 443.065C549.52 443.765 549.157 444.397 547.136 444.051L547.053 444.036H546.767H532.177L531.988 444.119L531.827 444.036C530.217 444.069 528.924 442.792 528.915 441.336C528.903 440.069 529.868 438.896 531.233 438.637C532.093 435.509 534.597 433.908 536.361 434.375C537.737 434.739 538.415 436.299 538.576 436.695C539.707 435.408 541.496 435.152 542.677 435.939C543.948 436.792 543.92 438.476 543.917 438.584C545.572 437.183 547.58 437.363 548.289 438.313C548.936 439.183 548.403 440.544 548.343 440.691C549.584 441.813 549.719 442.588 549.639 443.065Z" fill="#9DB4E2"/>
<path d="M508 467.859H600V458.719H508V467.859Z" fill="#9DB4E2"/>
<path d="M546.293 467.86L564.172 600H567.943L557.721 467.86H546.293Z" fill="#537DC1"/>
<path d="M538.287 467.859H569.715V471.086H538.287V467.859Z" fill="#7496D5"/>
<path d="M554 467.86L526.344 600H522.572L542.572 467.86H554Z" fill="#7496D5"/>
<path d="M554 467.86L581.657 600H585.428L565.428 467.86H554Z" fill="#7496D5"/>
</svg>
