<?xml version="1.0" encoding="UTF-8"?>
<svg width="40px" height="37px" viewBox="0 0 40 37" version="1.1" xmlns="http://www.w3.org/2000/svg" xmlns:xlink="http://www.w3.org/1999/xlink">
    <!-- Generator: Sketch 64 (93537) - https://sketch.com -->
    <title>sprout</title>
    <desc>Created with Sketch.</desc>
    <g id="Page-1" stroke="none" stroke-width="1" fill="none" fill-rule="evenodd">
        <g id="home4" transform="translate(-496.000000, -4480.000000)" fill="#3C474E" fill-rule="nonzero">
            <g id="sprout" transform="translate(496.000000, 4480.000000)">
                <path d="M16.0753191,3.94553191 C12.5821277,0.45412766 5.74638298,0.0492765957 0.907829787,0.0492765957 C0.406723404,0.0492765957 0,0.455914894 0,0.957021277 C0,5.79557447 0.40306383,12.6313191 3.89625532,16.1245957 C5.37055319,17.5988936 7.63097872,18.2579574 9.87140426,18.2579574 C12.3061277,18.2579574 14.7190638,17.4790638 16.0753191,16.1228085 C18.6771064,13.5210213 19.1546383,7.02297872 16.0753191,3.94553191 Z M14.7917447,14.8409362 C12.8490213,16.7817872 7.45489362,17.1140426 5.18178723,14.8409362 C2.36212766,12.0213617 1.87370213,6.29310638 1.82102128,1.87029787 C6.24382979,1.92297872 11.9720851,2.41131915 14.7916596,5.23097872 C17.0648511,7.50408511 16.7325957,12.9000851 14.7917447,14.8409362 Z" id="Shape"></path>
                <path d="M39.0771915,3.64051064 C34.2386383,3.64051064 27.4028936,4.04357447 23.909617,7.53676596 C20.830383,10.6142128 21.3078298,17.1122553 23.909617,19.7140426 C25.2658723,21.0685106 27.6770213,21.8474043 30.1117447,21.8474043 C32.3521702,21.8474043 34.6108085,21.1901277 36.0886809,19.7159149 C39.5800851,16.2227234 39.9849362,9.38697872 39.9849362,4.54834043 C39.9849362,4.04723404 39.5782979,3.64051064 39.0771915,3.64051064 Z M34.8014468,18.430383 C32.5283404,20.7034894 27.1323404,20.371234 25.1914894,18.430383 C23.2506383,16.4895319 22.918383,11.0935319 25.1914894,8.82042553 C28.0111489,6.00076596 33.7393191,5.51242553 38.1621277,5.45974468 C38.1095319,9.88434043 37.6211064,15.6125957 34.8014468,18.430383 Z" id="Shape"></path>
                <path d="M32.5211064,11.4984681 C32.3068936,11.0427234 31.6931915,10.8866383 31.2411064,11.0971915 C24.2782979,14.3707234 20.8577021,20.0789787 19.3034894,25.9469787 C17.380766,13.4701277 11.8195745,9.66646809 9.46110638,8.05242553 C9.16697872,7.85089362 8.93821277,7.70382979 8.81114894,7.57855319 C8.45710638,7.22451064 7.88153191,7.22451064 7.52748936,7.57855319 C7.17344681,7.93259574 7.17344681,8.50817021 7.52748936,8.86221277 C7.70723404,9.04017021 8.01770213,9.26348936 8.43710638,9.55029787 C11.0951489,11.3677447 18.156,16.1990638 18.156,35.4535319 C18.156,35.9546383 18.5627234,36.3613617 19.0638298,36.3613617 C19.5649362,36.3613617 19.9716596,35.9546383 19.9716596,35.4554043 C19.9716596,27.6755745 22.0614468,17.419234 32.0145532,12.7422128 C32.0145532,12.7404255 32.161617,12.6714043 32.161617,12.6714043 C32.6137021,12.4571064 32.7353191,11.9523404 32.5211064,11.4984681 Z" id="Path"></path>
            </g>
        </g>
    </g>
</svg>