<svg width="1708" height="1440" viewBox="0 0 1708 1440" fill="none" xmlns="http://www.w3.org/2000/svg">
<g clip-path="url(#clip0_371_3847)">
<path d="M1348 266.534C1348 503.441 1284.97 824.787 960.107 908.001C887.224 926.667 829.291 950.359 781.777 977.334H0V0.000709295H1322.65C1322.65 0.000709295 1348 116.281 1348 266.534Z" fill="#F4FBFE"/>
<path d="M781.777 977.333C488.877 1143.6 592.132 1434.36 33.4453 1440H0V977.333H781.777Z" fill="#E8F3FB"/>
<path d="M1025.33 1246.74C1025.33 1267.45 1008.55 1284.23 987.849 1284.23C967.148 1284.23 950.367 1267.45 950.367 1246.74C950.367 1226.04 967.148 1209.26 987.849 1209.26C1008.55 1209.26 1025.33 1226.04 1025.33 1246.74Z" fill="#64CABE"/>
<path d="M300.211 246.877C293.467 253.621 282.533 253.621 275.789 246.877C269.045 240.133 269.045 229.199 275.789 222.455C282.533 215.711 293.467 215.711 300.211 222.455C306.955 229.199 306.955 240.133 300.211 246.877ZM310.628 212.038C298.131 199.542 277.869 199.542 265.372 212.038C252.876 224.535 252.876 244.797 265.372 257.294C277.869 269.79 298.131 269.79 310.628 257.294C323.124 244.797 323.124 224.535 310.628 212.038Z" fill="#F0CA0E"/>
<path d="M1347.35 307.805C1347.8 293.81 1348 280.039 1348 266.534C1348 195.91 1342.4 132.791 1336.47 85.7207C1389.95 95.1207 1430.6 141.815 1430.6 198.001C1430.6 250.305 1395.37 294.382 1347.35 307.805Z" fill="#F47387"/>
<path d="M1316.6 312C1253.63 312 1202.6 260.96 1202.6 198C1202.6 135.04 1253.63 84 1316.6 84C1323.37 84 1330.01 84.5867 1336.47 85.72C1342.4 132.791 1348 195.909 1348 266.533C1348 280.039 1347.8 293.809 1347.35 307.804C1337.56 310.539 1327.25 312 1316.6 312Z" fill="#E56F88"/>
<path d="M439.449 607.302C439.449 607.302 448.341 629.962 453.792 637.708C459.243 645.453 429.123 656.066 419.369 652.337C409.617 648.609 415.64 613.038 415.64 613.038L439.449 607.302Z" fill="#192B3B"/>
<path d="M348.553 845.425L334.985 871.699C326.8 870.751 318.433 869.621 309.909 868.331C309.909 868.331 315.743 843.367 317.981 820.553L348.553 845.425Z" fill="#4B88C2"/>
<mask id="mask0_371_3847" style="mask-type:luminance" maskUnits="userSpaceOnUse" x="423" y="652" width="79" height="147">
<path d="M468.34 798.674C459.953 791.923 451.991 784.957 449.809 781.253C449.107 780.054 447.728 777.342 445.92 773.61C449.741 754.186 460.187 729.494 462.607 716.47C460.752 709.733 458.853 702.947 457.044 696.685C446.507 678.346 427.649 659.149 427.649 659.149L427.627 659.466C425.785 656.626 424.908 653.707 423.241 652.226C427.731 654.001 443.121 660.673 448.293 670.614C450.307 674.503 453.517 684.565 457.044 696.685C458.853 702.947 460.752 709.733 462.607 716.47C467.92 735.939 472.917 755.159 474.681 760.45L501.865 787.293L468.34 798.674Z" fill="white"/>
</mask>
<g mask="url(#mask0_371_3847)">
<path d="M468.34 798.674C459.953 791.923 451.991 784.957 449.809 781.253C449.107 780.054 447.728 777.342 445.92 773.61C449.741 754.186 460.187 729.494 462.607 716.47C460.752 709.733 458.853 702.947 457.044 696.685C446.507 678.346 427.649 659.149 427.649 659.149L427.627 659.466C425.785 656.626 424.908 653.707 423.241 652.226C427.731 654.001 443.121 660.673 448.293 670.614C450.307 674.503 453.517 684.565 457.044 696.685C458.853 702.947 460.752 709.733 462.607 716.47C467.92 735.939 472.917 755.159 474.681 760.45L501.865 787.293L468.34 798.674Z" fill="url(#paint0_linear_371_3847)"/>
</g>
<mask id="mask1_371_3847" style="mask-type:luminance" maskUnits="userSpaceOnUse" x="313" y="647" width="144" height="229">
<path d="M389.239 875.203C375.335 875.203 360.691 874.355 345.404 872.83L389.452 857.876L392.171 860.64L449.085 845.152C452.296 857.838 454.58 866.611 454.58 866.611C435.392 872.635 413.435 875.203 389.239 875.203ZM313.435 851.26C315.092 842.414 316.932 831.247 317.981 820.551C318.863 811.823 319.203 803.411 318.479 796.831C307.06 692.115 342.244 656.095 342.244 656.095C342.244 656.095 357.744 647.25 377.211 647.25C380.039 647.25 382.948 647.437 385.908 647.865C409.243 651.211 414.193 647.89 422.26 651.576C422.619 651.74 422.943 651.959 423.241 652.224C424.908 653.706 425.785 656.625 427.627 659.465C431.425 665.321 437.011 673.891 438.932 676.604C441.985 680.878 456.84 702.042 456.84 716.65C456.84 718.21 456.547 719.928 455.981 721.804C455.145 724.632 453.788 727.798 452.137 731.279C448.316 739.352 442.935 749.052 439.339 759.815C438.841 761.262 438.389 762.732 437.983 764.224C435.472 773.292 434.409 783.038 436.671 793.168C437.768 798.078 438.936 803.159 440.129 808.25L313.435 851.26ZM352.305 805.221C350.068 798.482 347.4 787.718 348.056 775.824C349.344 752.24 363.884 717.079 371.572 699.939C370.689 701.41 369.876 702.652 369.241 703.647C365.104 710.16 323.68 760.448 324.268 765.196C324.584 767.73 339.011 787.47 352.305 805.221Z" fill="white"/>
</mask>
<g mask="url(#mask1_371_3847)">
<path d="M389.239 875.203C375.335 875.203 360.691 874.355 345.404 872.83L389.452 857.876L392.171 860.64L449.085 845.152C452.296 857.838 454.58 866.611 454.58 866.611C435.392 872.635 413.435 875.203 389.239 875.203ZM313.435 851.26C315.092 842.414 316.932 831.247 317.981 820.551C318.863 811.823 319.203 803.411 318.479 796.831C307.06 692.115 342.244 656.095 342.244 656.095C342.244 656.095 357.744 647.25 377.211 647.25C380.039 647.25 382.948 647.437 385.908 647.865C409.243 651.211 414.193 647.89 422.26 651.576C422.619 651.74 422.943 651.959 423.241 652.224C424.908 653.706 425.785 656.625 427.627 659.465C431.425 665.321 437.011 673.891 438.932 676.604C441.985 680.878 456.84 702.042 456.84 716.65C456.84 718.21 456.547 719.928 455.981 721.804C455.145 724.632 453.788 727.798 452.137 731.279C448.316 739.352 442.935 749.052 439.339 759.815C438.841 761.262 438.389 762.732 437.983 764.224C435.472 773.292 434.409 783.038 436.671 793.168C437.768 798.078 438.936 803.159 440.129 808.25L313.435 851.26ZM352.305 805.221C350.068 798.482 347.4 787.718 348.056 775.824C349.344 752.24 363.884 717.079 371.572 699.939C370.689 701.41 369.876 702.652 369.241 703.647C365.104 710.16 323.68 760.448 324.268 765.196C324.584 767.73 339.011 787.47 352.305 805.221Z" fill="url(#paint1_linear_371_3847)"/>
</g>
<mask id="mask2_371_3847" style="mask-type:luminance" maskUnits="userSpaceOnUse" x="427" y="659" width="36" height="115">
<path d="M445.92 773.609C445.805 773.384 445.692 773.157 445.58 772.931C443.839 769.336 441.691 764.836 439.339 759.816C442.935 749.053 448.316 739.353 452.137 731.28C453.788 727.799 455.145 724.633 455.981 721.805C456.547 719.929 456.84 718.211 456.84 716.651C456.84 702.043 441.985 680.879 438.932 676.605C437.011 673.892 431.425 665.321 427.627 659.465L427.649 659.148C427.649 659.148 446.507 678.345 457.044 696.684C458.853 702.947 460.752 709.732 462.607 716.469C460.187 729.493 449.741 754.185 445.92 773.609Z" fill="white"/>
</mask>
<g mask="url(#mask2_371_3847)">
<path d="M445.92 773.609C445.805 773.384 445.692 773.157 445.58 772.931C443.839 769.336 441.691 764.836 439.339 759.816C442.935 749.053 448.316 739.353 452.137 731.28C453.788 727.799 455.145 724.633 455.981 721.805C456.547 719.929 456.84 718.211 456.84 716.651C456.84 702.043 441.985 680.879 438.932 676.605C437.011 673.892 431.425 665.321 427.627 659.465L427.649 659.148C427.649 659.148 446.507 678.345 457.044 696.684C458.853 702.947 460.752 709.732 462.607 716.469C460.187 729.493 449.741 754.185 445.92 773.609Z" fill="url(#paint2_linear_371_3847)"/>
</g>
<mask id="mask3_371_3847" style="mask-type:luminance" maskUnits="userSpaceOnUse" x="492" y="813" width="47" height="15">
<path d="M538.448 819.754C538.448 819.754 512.543 834.179 492.524 822.405L521.201 813.113L538.448 819.754Z" fill="white"/>
</mask>
<g mask="url(#mask3_371_3847)">
<path d="M538.448 819.754C538.448 819.754 512.543 834.179 492.524 822.405L521.201 813.113L538.448 819.754Z" fill="url(#paint3_linear_371_3847)"/>
</g>
<path d="M365.105 1183.88C335.167 1189.4 263.08 1167.39 261.249 1161.58C260.095 1157.92 265.657 1145.46 269.887 1136.8C272.373 1131.76 274.387 1128 274.387 1128L304.935 1138.68C305.071 1140.1 305.455 1141.5 305.997 1142.88C312.532 1158.98 345.139 1171.96 354.725 1175.33C365.105 1178.99 365.105 1183.88 365.105 1183.88Z" fill="#2B62A9"/>
<path d="M305.997 1142.88C300.412 1142.48 276.217 1140.55 269.887 1136.8C272.373 1131.76 274.387 1128.01 274.387 1128.01L304.935 1138.68C305.071 1140.1 305.455 1141.5 305.997 1142.88Z" fill="#1D3F5E"/>
<path d="M536.389 1168.68C529.968 1175.72 443.228 1171.74 440.176 1168.98C438.389 1167.37 439.724 1156.5 441.148 1147.72C442.165 1141.48 443.228 1136.3 443.228 1136.3L475.609 1137.23C475.971 1137.98 476.4 1138.68 476.92 1139.38C489.56 1157.42 542.563 1161.92 536.389 1168.68Z" fill="#2B62A9"/>
<path d="M476.92 1139.38C473.392 1141.39 457.813 1149.53 441.148 1147.72C442.165 1141.48 443.228 1136.3 443.228 1136.3L475.609 1137.23C475.971 1137.98 476.4 1138.68 476.92 1139.38Z" fill="#1D3F5E"/>
<mask id="mask4_371_3847" style="mask-type:luminance" maskUnits="userSpaceOnUse" x="272" y="867" width="207" height="275">
<path d="M478.005 1137.46C465.343 1141.3 453.064 1141.39 441.307 1136.85L417.428 999.208L391.877 912.695C391.877 912.695 389.932 971.101 386.88 997.399C383.805 1023.7 308.507 1141.75 308.507 1141.75C294.013 1139.4 281.417 1135.26 272.691 1127.53L325.104 995.568C322.097 970.761 317.62 918.167 315.2 888.772C314.137 876.109 313.481 867.743 313.481 867.743L450.216 867.133H450.487C450.487 867.133 474.929 971.101 476.173 994.347C477.395 1017.59 478.005 1137.46 478.005 1137.46Z" fill="white"/>
</mask>
<g mask="url(#mask4_371_3847)">
<path d="M478.005 1137.46C465.343 1141.3 453.064 1141.39 441.307 1136.85L417.428 999.208L391.877 912.695C391.877 912.695 389.932 971.101 386.88 997.399C383.805 1023.7 308.507 1141.75 308.507 1141.75C294.013 1139.4 281.417 1135.26 272.691 1127.53L325.104 995.568C322.097 970.761 317.62 918.167 315.2 888.772C314.137 876.109 313.481 867.743 313.481 867.743L450.216 867.133H450.487C450.487 867.133 474.929 971.101 476.173 994.347C477.395 1017.59 478.005 1137.46 478.005 1137.46Z" fill="url(#paint4_linear_371_3847)"/>
</g>
<path d="M451.391 871.994C412.476 893.295 322.188 889.135 315.2 888.772C314.137 876.11 313.481 867.743 313.481 867.743L450.216 867.134L451.391 871.994Z" fill="#59C6F0"/>
<mask id="mask5_371_3847" style="mask-type:luminance" maskUnits="userSpaceOnUse" x="379" y="546" width="77" height="129">
<path d="M419.364 652.596C419.364 652.596 422.175 627.125 426.512 626.505C430.849 625.885 451.996 621.402 454.473 600.336C456.952 579.269 458.409 545.002 421.233 546.861C384.056 548.721 383.437 572.885 380.339 593.952C377.241 615.019 385.916 647.857 385.916 647.857C385.916 647.857 386.72 677.41 409.46 673.881C427.311 671.11 419.364 652.596 419.364 652.596Z" fill="white"/>
</mask>
<g mask="url(#mask5_371_3847)">
<path d="M419.364 652.596C419.364 652.596 422.175 627.125 426.512 626.505C430.849 625.885 451.996 621.402 454.473 600.336C456.952 579.269 458.409 545.002 421.233 546.861C384.056 548.721 383.437 572.885 380.339 593.952C377.241 615.019 385.916 647.857 385.916 647.857C385.916 647.857 386.72 677.41 409.46 673.881C427.311 671.11 419.364 652.596 419.364 652.596Z" fill="url(#paint5_linear_371_3847)"/>
</g>
<path d="M423.259 574.58C423.259 574.58 413.888 595.226 402.643 601.223C392.711 606.52 404.899 639.444 398.145 646.199C391.391 652.952 364.276 660.58 343.564 644.82C322.852 629.062 341.98 615.12 359.541 588.104C377.101 561.088 377.156 531.135 402.268 539.755C402.268 539.755 421.384 522.514 451.175 537.659C465.377 544.879 459.988 579.859 459.988 579.859C459.988 579.859 437.5 585.107 423.259 574.58Z" fill="#192B3B"/>
<path d="M695.979 753.814L686.111 724.743L220.137 882.934L230.007 912.006L592.517 788.938L603.685 820.613L632.52 810.497L621.517 779.134L593.108 788.738L640.004 772.817L651.021 804.413L679.856 794.295L668.881 763.014L695.979 753.814Z" fill="#61C9AF"/>
<path d="M203.461 950.734L199.813 951.919C180.548 958.194 159.845 947.66 153.572 928.395L148.399 912.503C142.125 893.238 152.659 872.534 171.924 866.262L175.571 865.075C194.836 858.802 215.539 869.334 221.812 888.599L226.985 904.491C233.259 923.756 222.727 944.46 203.461 950.734ZM254.864 902.068L245.771 874.138C234.747 840.283 198.364 821.772 164.508 832.796L158.1 834.883C124.243 845.907 105.733 882.29 116.757 916.144L125.849 944.074C136.873 977.93 173.255 996.44 207.112 985.416L213.521 983.33C247.377 972.306 265.887 935.923 254.864 902.068Z" fill="#61C9AF"/>
<mask id="mask6_371_3847" style="mask-type:luminance" maskUnits="userSpaceOnUse" x="324" y="699" width="48" height="107">
<path d="M352.305 805.221C339.011 787.47 324.584 767.73 324.268 765.197C323.68 760.449 365.104 710.161 369.241 703.647C369.876 702.653 370.689 701.41 371.572 699.939C363.884 717.079 349.344 752.241 348.056 775.825C347.4 787.718 350.068 798.482 352.305 805.221Z" fill="white"/>
</mask>
<g mask="url(#mask6_371_3847)">
<path d="M352.305 805.221C339.011 787.47 324.584 767.73 324.268 765.197C323.68 760.449 365.104 710.161 369.241 703.647C369.876 702.653 370.689 701.41 371.572 699.939C363.884 717.079 349.344 752.241 348.056 775.825C347.4 787.718 350.068 798.482 352.305 805.221Z" fill="url(#paint6_linear_371_3847)"/>
</g>
<mask id="mask7_371_3847" style="mask-type:luminance" maskUnits="userSpaceOnUse" x="389" y="838" width="61" height="23">
<path d="M392.171 860.641L389.452 857.877L447.361 838.217C447.959 840.623 448.555 842.942 449.085 845.153L392.171 860.641Z" fill="white"/>
</mask>
<g mask="url(#mask7_371_3847)">
<path d="M392.171 860.641L389.452 857.877L447.361 838.217C447.959 840.623 448.555 842.942 449.085 845.153L392.171 860.641Z" fill="url(#paint7_linear_371_3847)"/>
</g>
<path d="M389.452 857.877L389.435 857.86L447.321 838.053C447.335 838.108 447.348 838.162 447.361 838.217L389.452 857.877Z" fill="#63C9A4"/>
<path d="M513.604 815.846C513.604 815.846 517.625 795.303 519.627 796.927C521.627 798.554 523.503 805.806 527.003 800.428C530.504 795.052 539.881 774.047 550.759 777.548C561.637 781.048 556.387 794.052 556.387 794.052L531.867 809.714L513.604 815.846Z" fill="#48C09C"/>
<mask id="mask8_371_3847" style="mask-type:luminance" maskUnits="userSpaceOnUse" x="519" y="778" width="43" height="44">
<path d="M521.373 812.102C521.373 812.102 515.981 793.487 521.901 797.13C527.82 800.771 531.007 807.601 533.739 799.862C536.471 792.122 539.657 778.463 554.227 778.918C568.796 779.373 556.959 803.503 553.316 809.878C553.316 809.878 548.163 819.755 534.032 820.933C519.901 822.111 521.373 812.102 521.373 812.102Z" fill="white"/>
</mask>
<g mask="url(#mask8_371_3847)">
<path d="M521.373 812.102C521.373 812.102 515.981 793.487 521.901 797.13C527.82 800.771 531.007 807.601 533.739 799.862C536.471 792.122 539.657 778.463 554.227 778.918C568.796 779.373 556.959 803.503 553.316 809.878C553.316 809.878 548.163 819.755 534.032 820.933C519.901 822.111 521.373 812.102 521.373 812.102Z" fill="url(#paint8_linear_371_3847)"/>
</g>
<path d="M372.569 836.376C372.569 836.376 386.245 838.63 391.961 838.752C397.676 838.873 403.636 841.914 401.325 844.833C399.015 847.752 392.691 848.117 392.691 851.034C392.691 853.954 394.757 856.022 394.757 856.022L368.611 865.264L359.489 846.536L372.569 836.376Z" fill="#48C09C"/>
<mask id="mask9_371_3847" style="mask-type:luminance" maskUnits="userSpaceOnUse" x="351" y="836" width="48" height="45">
<path d="M372.569 836.375C372.569 836.375 379.924 839.686 383.601 839.686C387.279 839.686 398.311 840.053 398.311 843.362C398.311 846.673 382.131 845.569 383.233 848.878C384.336 852.189 395.368 856.969 396.472 867.265C397.043 872.589 374.04 889.697 365.215 873.517C356.871 858.221 351.24 849.981 351.24 849.981" fill="white"/>
</mask>
<g mask="url(#mask9_371_3847)">
<path d="M372.569 836.375C372.569 836.375 379.924 839.686 383.601 839.686C387.279 839.686 398.311 840.053 398.311 843.362C398.311 846.673 382.131 845.569 383.233 848.878C384.336 852.189 395.368 856.969 396.472 867.265C397.043 872.589 374.04 889.697 365.215 873.517C356.871 858.221 351.24 849.981 351.24 849.981" fill="url(#paint9_linear_371_3847)"/>
</g>
<mask id="mask10_371_3847" style="mask-type:luminance" maskUnits="userSpaceOnUse" x="267" y="653" width="111" height="200">
<path d="M367.456 662.225C367.456 662.225 350.587 638.821 325.737 670.184C300.864 701.546 256.816 746.25 269.819 774.062C282.843 801.876 351.131 852.188 351.131 852.188C362.708 845.855 368.723 841.13 374.397 834.324C374.397 834.324 363.771 820.508 352.305 805.222C339.011 787.472 324.584 767.732 324.268 765.198C323.68 760.45 365.105 710.162 369.243 703.649C369.876 702.654 370.689 701.411 371.572 699.941L371.639 699.806C373.245 697.16 375.008 693.836 376.184 690.037L376.207 689.992L376.275 689.834L376.229 689.857C378.672 681.761 378.309 671.698 367.456 662.225Z" fill="white"/>
</mask>
<g mask="url(#mask10_371_3847)">
<path d="M367.456 662.225C367.456 662.225 350.587 638.821 325.737 670.184C300.864 701.546 256.816 746.25 269.819 774.062C282.843 801.876 351.131 852.188 351.131 852.188C362.708 845.855 368.723 841.13 374.397 834.324C374.397 834.324 363.771 820.508 352.305 805.222C339.011 787.472 324.584 767.732 324.268 765.198C323.68 760.45 365.105 710.162 369.243 703.649C369.876 702.654 370.689 701.411 371.572 699.941L371.639 699.806C373.245 697.16 375.008 693.836 376.184 690.037L376.207 689.992L376.275 689.834L376.229 689.857C378.672 681.761 378.309 671.698 367.456 662.225Z" fill="url(#paint10_linear_371_3847)"/>
</g>
<path d="M426.512 626.505C426.512 626.505 412.507 625.353 408.42 623.496L421.423 638.912C421.423 638.912 423.985 627.1 426.512 626.505Z" fill="#356BBD"/>
<path d="M889.279 744.37C889.279 744.37 856.383 845.007 855.476 858.602C854.569 872.195 839.812 1020.66 839.812 1020.66C853.516 1026.1 867.056 1026.39 881.123 1024.41C881.123 1024.41 904.685 948.281 909.217 915.654C912.709 890.505 915.72 864.626 915.72 864.626L970.843 744.37H889.279Z" fill="#ECC40F"/>
<path d="M1102.82 976.585C1095.46 986.642 1083.86 995.975 1071.47 1000.61C1071.47 1000.61 959.073 892.098 957.24 874.877C956.035 863.493 957.457 807.586 958.567 770.973C959.121 752.186 959.604 738.462 959.604 738.462L1036.69 729.199L1039.12 728.911C1039.1 729.129 1039.1 729.369 1039.07 729.586C1037.72 746.638 1036.06 763.69 1034.03 780.766C1030.68 809.563 1026.27 838.482 1020.45 867.834C1020.45 867.834 1040.09 888.335 1059.65 913.853C1082.63 943.759 1102.82 976.585 1102.82 976.585Z" fill="#ECC40F"/>
<path d="M1039.07 729.588C1037.72 746.64 1036.06 763.692 1034.03 780.768C1023.95 780.333 1008.54 779.393 996.673 777.464C977.427 774.353 964.428 761.86 964.428 761.86L958.567 770.974L955.163 778.293L882.783 764.721L891.083 735.86L973.785 719.217L1036.69 729.201L1039.07 729.588Z" fill="#D6B713"/>
<path d="M1126.53 1004.47C1124.21 1010.95 1050.07 1070.04 1044.72 1064.96C1036.57 1057.21 1070.19 1025.04 1073.32 1005.84C1073.78 1003.26 1073.66 1000.92 1072.82 998.918L1100.94 976.899C1100.94 976.899 1106.12 980.805 1111.84 985.799C1119.37 992.359 1127.86 1000.78 1126.53 1004.47Z" fill="#2B62A9"/>
<path d="M1111.84 985.8C1104.05 998.22 1077.74 1004.81 1073.32 1005.84C1073.78 1003.26 1073.66 1000.92 1072.82 998.919L1100.94 976.9C1100.94 976.9 1106.12 980.806 1111.84 985.8Z" fill="#1D3F5E"/>
<path d="M880.301 1060.66C874.392 1064.21 772.949 1066.31 772.853 1058.9C772.709 1049.23 828.833 1038.52 840.289 1022.65C841.06 1021.59 841.639 1020.51 841.977 1019.37L878.565 1023.09C878.565 1023.09 879.916 1029.14 881.049 1036.4C882.593 1046.36 883.703 1058.61 880.301 1060.66Z" fill="#2B62A9"/>
<path d="M881.049 1036.4C861.924 1037.63 842.724 1024.39 840.289 1022.65C841.06 1021.59 841.639 1020.51 841.977 1019.37L878.565 1023.09C878.565 1023.09 879.916 1029.14 881.049 1036.4Z" fill="#1D3F5E"/>
<mask id="mask11_371_3847" style="mask-type:luminance" maskUnits="userSpaceOnUse" x="926" y="486" width="177" height="249">
<path d="M1102.2 513.724C1102.2 513.724 1078.49 494.272 1051.46 491.776C1024.43 489.279 991.033 482.348 971.501 491.17C951.971 499.991 926.137 532.123 926.137 532.123L983.531 726.244L1030.66 734.4L1102.2 513.724Z" fill="white"/>
</mask>
<g mask="url(#mask11_371_3847)">
<path d="M1102.2 513.724C1102.2 513.724 1078.49 494.272 1051.46 491.776C1024.43 489.279 991.033 482.348 971.501 491.17C951.971 499.991 926.137 532.123 926.137 532.123L983.531 726.244L1030.66 734.4L1102.2 513.724Z" fill="url(#paint11_linear_371_3847)"/>
</g>
<path d="M1008.21 762.436H800.22C792.993 762.436 787.137 756.578 787.137 749.353V545.693C787.137 538.468 792.993 532.61 800.22 532.61H1008.21C1015.44 532.61 1021.3 538.468 1021.3 545.693V749.353C1021.3 756.578 1015.44 762.436 1008.21 762.436Z" fill="#3D5CB3"/>
<path d="M954.853 532.514H854.253V496.241C854.253 468.455 876.78 445.953 904.541 445.953C918.433 445.953 930.999 451.573 940.116 460.69C949.233 469.782 954.853 482.347 954.853 496.241V532.514ZM905.457 414.454H901.888C856.472 414.454 819.668 451.259 819.668 496.674V532.611H987.701V496.674C987.701 451.259 950.872 414.454 905.457 414.454Z" fill="#3D5CB3"/>
<path d="M938.263 622.137C938.263 604.481 923.259 590.167 904.752 590.167C886.245 590.167 871.241 604.481 871.241 622.137C871.241 635 879.223 646.059 890.703 651.132C890.58 651.853 890.5 652.591 890.5 653.347V707.251C890.5 714.489 896.368 720.357 903.608 720.357H905.897C913.136 720.357 919.004 714.489 919.004 707.251V653.347C919.004 652.591 918.925 651.853 918.803 651.132C930.281 646.059 938.263 635 938.263 622.137Z" fill="#192B3B"/>
<mask id="mask12_371_3847" style="mask-type:luminance" maskUnits="userSpaceOnUse" x="1000" y="388" width="77" height="110">
<path d="M1057.62 463.27C1050.68 469.42 1051.45 491.778 1051.45 491.778C1047.61 501.015 1027.57 497.952 1023.71 493.322C1021.52 490.668 1022.34 486.279 1023.16 481.986C1023.76 478.754 1024.36 475.595 1023.71 473.279C1023.37 472.122 1022.72 471.519 1021.81 471.204C1018.5 469.975 1011.72 472.17 1004.46 462.498C995.203 450.174 1003.69 412.404 1003.69 412.404C1016.79 384.667 1056.19 377.031 1071.49 414.719C1084.98 447.951 1064.57 457.095 1057.62 463.27Z" fill="white"/>
</mask>
<g mask="url(#mask12_371_3847)">
<path d="M1057.62 463.27C1050.68 469.42 1051.45 491.778 1051.45 491.778C1047.61 501.015 1027.57 497.952 1023.71 493.322C1021.52 490.668 1022.34 486.279 1023.16 481.986C1023.76 478.754 1024.36 475.595 1023.71 473.279C1023.37 472.122 1022.72 471.519 1021.81 471.204C1018.5 469.975 1011.72 472.17 1004.46 462.498C995.203 450.174 1003.69 412.404 1003.69 412.404C1016.79 384.667 1056.19 377.031 1071.49 414.719C1084.98 447.951 1064.57 457.095 1057.62 463.27Z" fill="url(#paint12_linear_371_3847)"/>
</g>
<path d="M1004 412.365C1004 412.365 1031.31 408.289 1044.57 418.456C1050.76 423.194 1047.44 441.369 1049.16 441.369C1050.87 441.369 1059.47 425.902 1063.48 432.777C1067.49 439.65 1057.62 463.268 1057.62 463.268C1057.62 463.268 1079.55 448.696 1078.56 442.128C1077.78 436.905 1091.1 433.632 1084.8 420.456C1078.5 407.281 1093.63 409.913 1082.18 398.456C1070.72 387 1083.29 387.514 1072.98 380.068C1062.67 372.621 1064.57 362.762 1051.97 367.918C1039.36 373.074 1035.19 355.637 1026.03 365.948C1016.86 376.258 1008.53 362.876 1005.67 377.769C1002.8 392.662 990.172 382.974 996.473 393.86C1002.77 404.742 992.792 406.68 996.803 411.262C1000.81 415.845 1004 412.365 1004 412.365Z" fill="#192B3B"/>
<path d="M786.921 636.179C786.921 636.179 807.805 644.523 804.723 649.848C801.639 655.173 797.716 653.772 799.397 656.855C801.079 659.939 814.532 677.035 809.768 689.648C805.003 702.261 787.345 701.98 787.345 701.98L786.921 636.179Z" fill="#356BBD"/>
<mask id="mask13_371_3847" style="mask-type:luminance" maskUnits="userSpaceOnUse" x="761" y="623" width="43" height="73">
<path d="M787.133 623.267C787.133 623.267 764.856 630.933 761.503 652.485C758.151 674.035 796.513 708.835 802.323 690.023C809.976 665.241 787.949 657.611 787.38 652.485C786.651 645.925 801.041 652.517 801.957 647.018C802.687 642.643 787.133 634.387 787.133 634.387" fill="white"/>
</mask>
<g mask="url(#mask13_371_3847)">
<path d="M787.133 623.267C787.133 623.267 764.856 630.933 761.503 652.485C758.151 674.035 796.513 708.835 802.323 690.023C809.976 665.241 787.949 657.611 787.38 652.485C786.651 645.925 801.041 652.517 801.957 647.018C802.687 642.643 787.133 634.387 787.133 634.387" fill="url(#paint13_linear_371_3847)"/>
</g>
<path d="M962.439 762.343C962.439 762.343 961.464 744.475 974.457 744.639C987.452 744.801 1003.86 747.075 1001.26 740.74C998.66 734.406 1000.77 728.558 1002.23 729.045C1003.69 729.531 1021.72 742.527 1021.72 742.527L1021.56 762.506L962.439 762.343Z" fill="#356BBD"/>
<path d="M1045.87 650.977C1045.87 650.977 1037.35 620.001 1040.07 600.279C1042.79 580.557 1054.59 550.475 1062.52 530.027C1069.4 512.283 1090.25 549.778 1090.25 549.778L1065.77 649.069L1045.87 650.977Z" fill="#4E61B7"/>
<mask id="mask14_371_3847" style="mask-type:luminance" maskUnits="userSpaceOnUse" x="970" y="582" width="128" height="190">
<path d="M1057.43 595.09L1047.83 643.087L1022.52 739.955C1022.52 739.955 1005.07 725.119 1001.58 729.482C998.084 733.846 1012.05 743.446 1009.43 746.937C1006.81 750.427 973.479 741.046 970.817 752.075C967.787 764.627 972.787 766.323 997.223 770.687C1021.66 775.05 1029.73 767.81 1037.91 758.567C1047.87 747.313 1087.1 652.687 1087.1 652.687C1087.1 652.687 1099.31 616.034 1096.7 600.326C1094.08 584.618 1069.64 572.401 1057.43 595.09Z" fill="white"/>
</mask>
<g mask="url(#mask14_371_3847)">
<path d="M1057.43 595.09L1047.83 643.087L1022.52 739.955C1022.52 739.955 1005.07 725.119 1001.58 729.482C998.084 733.846 1012.05 743.446 1009.43 746.937C1006.81 750.427 973.479 741.046 970.817 752.075C967.787 764.627 972.787 766.323 997.223 770.687C1021.66 775.05 1029.73 767.81 1037.91 758.567C1047.87 747.313 1087.1 652.687 1087.1 652.687C1087.1 652.687 1099.31 616.034 1096.7 600.326C1094.08 584.618 1069.64 572.401 1057.43 595.09Z" fill="url(#paint14_linear_371_3847)"/>
</g>
<mask id="mask15_371_3847" style="mask-type:luminance" maskUnits="userSpaceOnUse" x="1045" y="508" width="71" height="111">
<path d="M1087.12 508.196C1077.55 507.529 1067.03 517.422 1060.05 538.366C1053.06 559.31 1045.22 602.692 1045.22 602.692C1062.16 613.497 1083.61 619.57 1103.81 617.813C1103.81 617.813 1115.81 556.584 1115.15 542.206C1114.51 528.162 1108.74 509.704 1087.12 508.196Z" fill="white"/>
</mask>
<g mask="url(#mask15_371_3847)">
<path d="M1087.12 508.196C1077.55 507.529 1067.03 517.422 1060.05 538.366C1053.06 559.31 1045.22 602.692 1045.22 602.692C1062.16 613.497 1083.61 619.57 1103.81 617.813C1103.81 617.813 1115.81 556.584 1115.15 542.206C1114.51 528.162 1108.74 509.704 1087.12 508.196Z" fill="url(#paint15_linear_371_3847)"/>
</g>
<path d="M1023.16 481.984C1023.76 478.752 1024.36 475.594 1023.71 473.278C1023.37 472.12 1022.72 471.518 1021.81 471.203C1024.97 471.179 1036.37 470.963 1039.1 469.491L1023.16 481.984Z" fill="#356BBD"/>
</g>
<defs>
<linearGradient id="paint0_linear_371_3847" x1="406.168" y1="734.015" x2="514.275" y2="734.015" gradientUnits="userSpaceOnUse">
<stop stop-color="#F8A3B7"/>
<stop offset="0.787079" stop-color="#F47387"/>
<stop offset="1" stop-color="#F47387"/>
</linearGradient>
<linearGradient id="paint1_linear_371_3847" x1="383.375" y1="647.251" x2="383.375" y2="875.203" gradientUnits="userSpaceOnUse">
<stop stop-color="#F8A3B7"/>
<stop offset="0.787079" stop-color="#F47387"/>
<stop offset="1" stop-color="#F47387"/>
</linearGradient>
<linearGradient id="paint2_linear_371_3847" x1="406.168" y1="734.015" x2="514.275" y2="734.015" gradientUnits="userSpaceOnUse">
<stop stop-color="#F795A8"/>
<stop offset="0.787079" stop-color="#F35A70"/>
<stop offset="1" stop-color="#F35A70"/>
</linearGradient>
<linearGradient id="paint3_linear_371_3847" x1="492.524" y1="820.07" x2="538.448" y2="820.07" gradientUnits="userSpaceOnUse">
<stop stop-color="#F8A3B7"/>
<stop offset="0.787079" stop-color="#F47387"/>
<stop offset="1" stop-color="#F47387"/>
</linearGradient>
<linearGradient id="paint4_linear_371_3847" x1="375.348" y1="867.132" x2="375.348" y2="1141.75" gradientUnits="userSpaceOnUse">
<stop stop-color="#78D2D0"/>
<stop offset="0.646635" stop-color="#5AC5EF"/>
<stop offset="1" stop-color="#5B9CDA"/>
</linearGradient>
<linearGradient id="paint5_linear_371_3847" x1="417.617" y1="546.789" x2="417.617" y2="674.174" gradientUnits="userSpaceOnUse">
<stop stop-color="#4EAADF"/>
<stop offset="0.787079" stop-color="#4473C2"/>
<stop offset="1" stop-color="#4473C2"/>
</linearGradient>
<linearGradient id="paint6_linear_371_3847" x1="383.375" y1="647.251" x2="383.375" y2="875.203" gradientUnits="userSpaceOnUse">
<stop stop-color="#F795A8"/>
<stop offset="0.787079" stop-color="#F35A70"/>
<stop offset="1" stop-color="#F35A70"/>
</linearGradient>
<linearGradient id="paint7_linear_371_3847" x1="383.375" y1="647.251" x2="383.375" y2="875.203" gradientUnits="userSpaceOnUse">
<stop stop-color="#F795A8"/>
<stop offset="0.787079" stop-color="#F35A70"/>
<stop offset="1" stop-color="#F35A70"/>
</linearGradient>
<linearGradient id="paint8_linear_371_3847" x1="519.127" y1="799.969" x2="561.309" y2="799.969" gradientUnits="userSpaceOnUse">
<stop stop-color="#4EAADF"/>
<stop offset="0.787079" stop-color="#4473C2"/>
<stop offset="1" stop-color="#4473C2"/>
</linearGradient>
<linearGradient id="paint9_linear_371_3847" x1="351.24" y1="858.343" x2="398.31" y2="858.343" gradientUnits="userSpaceOnUse">
<stop stop-color="#4EAADF"/>
<stop offset="0.787079" stop-color="#4473C2"/>
<stop offset="1" stop-color="#4473C2"/>
</linearGradient>
<linearGradient id="paint10_linear_371_3847" x1="267.468" y1="753.01" x2="377.464" y2="753.01" gradientUnits="userSpaceOnUse">
<stop stop-color="#F8A3B7"/>
<stop offset="0.787079" stop-color="#F47387"/>
<stop offset="1" stop-color="#F47387"/>
</linearGradient>
<linearGradient id="paint11_linear_371_3847" x1="1014.17" y1="486.824" x2="1014.17" y2="734.4" gradientUnits="userSpaceOnUse">
<stop stop-color="#6373C1"/>
<stop offset="0.787079" stop-color="#5A5DB4"/>
<stop offset="1" stop-color="#5A5DB4"/>
</linearGradient>
<linearGradient id="paint12_linear_371_3847" x1="1000.14" y1="443.376" x2="1076" y2="443.376" gradientUnits="userSpaceOnUse">
<stop stop-color="#4EAADF"/>
<stop offset="0.787079" stop-color="#4473C2"/>
<stop offset="1" stop-color="#4473C2"/>
</linearGradient>
<linearGradient id="paint13_linear_371_3847" x1="761.296" y1="659.339" x2="803.936" y2="659.339" gradientUnits="userSpaceOnUse">
<stop stop-color="#4EAADF"/>
<stop offset="0.787079" stop-color="#4473C2"/>
<stop offset="1" stop-color="#4473C2"/>
</linearGradient>
<linearGradient id="paint14_linear_371_3847" x1="970.024" y1="677.298" x2="1097.06" y2="677.298" gradientUnits="userSpaceOnUse">
<stop stop-color="#4EAADF"/>
<stop offset="0.787079" stop-color="#4473C2"/>
<stop offset="1" stop-color="#4473C2"/>
</linearGradient>
<linearGradient id="paint15_linear_371_3847" x1="1045.22" y1="563.138" x2="1115.18" y2="563.138" gradientUnits="userSpaceOnUse">
<stop stop-color="#6373C1"/>
<stop offset="0.787079" stop-color="#5A5DB4"/>
<stop offset="1" stop-color="#5A5DB4"/>
</linearGradient>
<clipPath id="clip0_371_3847">
<rect width="1708" height="1440" fill="white"/>
</clipPath>
</defs>
</svg>
