<svg width="1440" height="603" viewBox="0 0 1440 603" fill="none" xmlns="http://www.w3.org/2000/svg">
<circle cx="1098.5" cy="178.5" r="15.5" fill="#F5D1A7"/>
<circle cx="539.5" cy="71.5" r="11.5" fill="#A6E8C2"/>
<circle cx="1204" cy="67" r="21" fill="#A6E8C2"/>
<circle cx="248.5" cy="98.5" r="15.5" fill="#F5D1A7"/>
<circle cx="1152" cy="289" r="21" fill="#A6E8C2"/>
<circle cx="337" cy="447" r="21" fill="#F5EEB1"/>
<circle cx="1316.5" cy="223.5" r="10.5" fill="#F5EEB1"/>
<g clip-path="url(#clip0_958_979)">
<path d="M1211.83 64.0461C1211.83 63.3649 1211.69 62.7047 1211.43 62.0809C1211.18 61.48 1210.81 60.9404 1210.35 60.4773C1209.89 60.0142 1209.35 59.6506 1208.75 59.3961C1208.12 59.132 1207.46 59 1206.78 59C1206.1 59 1205.44 59.134 1204.82 59.3961C1204.21 59.6506 1203.68 60.0142 1203.21 60.4773C1202.75 60.9404 1202.39 61.48 1202.13 62.0809C1201.87 62.7028 1201.73 63.3649 1201.73 64.0461C1201.73 64.8977 1201.95 65.732 1202.36 66.4745L1196.32 72.5099C1196.18 72.6496 1196.13 72.862 1196.22 73.0629C1196.24 73.105 1196.26 73.1433 1196.3 73.1758L1197.65 74.5287C1197.68 74.5613 1197.72 74.5881 1197.76 74.6072C1197.96 74.6933 1198.18 74.6512 1198.32 74.5096L1199.15 73.6734L1200.36 74.877C1200.39 74.9095 1200.43 74.9363 1200.47 74.9555C1200.67 75.0416 1200.88 74.9995 1201.02 74.8579L1202.35 73.5241C1202.39 73.4916 1202.41 73.4533 1202.43 73.4112C1202.52 73.2103 1202.48 72.9979 1202.34 72.8582L1201.15 71.6737L1204.35 68.4722C1205.09 68.8798 1205.93 69.0942 1206.78 69.0942C1207.46 69.0942 1208.12 68.9602 1208.74 68.698C1209.35 68.4435 1209.88 68.08 1210.35 67.6169C1210.81 67.1538 1211.17 66.6142 1211.43 66.0133C1211.69 65.3875 1211.83 64.7274 1211.83 64.0461ZM1208.55 65.8162C1208.08 66.2888 1207.45 66.5491 1206.78 66.5491C1206.11 66.5491 1205.48 66.2888 1205.01 65.8162C1204.54 65.3435 1204.27 64.714 1204.27 64.0461C1204.27 63.3764 1204.53 62.7487 1205.01 62.2761C1205.48 61.8034 1206.11 61.5432 1206.78 61.5432C1207.44 61.5432 1208.07 61.8034 1208.55 62.2761C1209.02 62.7487 1209.28 63.3783 1209.28 64.0461C1209.28 64.714 1209.02 65.3435 1208.55 65.8162Z" fill="white"/>
</g>
<g clip-path="url(#clip1_958_979)">
<path d="M1321.88 221.469C1321.88 221.001 1321.79 220.547 1321.61 220.118C1321.43 219.705 1321.18 219.334 1320.87 219.016C1320.55 218.697 1320.18 218.447 1319.76 218.272C1319.34 218.091 1318.88 218 1318.41 218C1317.94 218 1317.49 218.092 1317.06 218.272C1316.65 218.447 1316.28 218.697 1315.96 219.016C1315.64 219.334 1315.39 219.705 1315.21 220.118C1315.03 220.546 1314.94 221.001 1314.94 221.469C1314.94 222.055 1315.09 222.628 1315.37 223.139L1311.22 227.288C1311.12 227.384 1311.09 227.53 1311.15 227.668C1311.16 227.697 1311.18 227.724 1311.2 227.746L1312.13 228.676C1312.16 228.698 1312.18 228.717 1312.21 228.73C1312.35 228.789 1312.5 228.76 1312.59 228.663L1313.17 228.088L1313.99 228.915C1314.02 228.938 1314.04 228.956 1314.07 228.969C1314.21 229.029 1314.36 229 1314.45 228.902L1315.37 227.985C1315.39 227.963 1315.41 227.937 1315.42 227.908C1315.48 227.77 1315.45 227.624 1315.36 227.528L1314.54 226.713L1316.74 224.512C1317.25 224.792 1317.82 224.94 1318.41 224.94C1318.88 224.94 1319.33 224.848 1319.76 224.667C1320.17 224.492 1320.55 224.242 1320.86 223.924C1321.18 223.606 1321.43 223.235 1321.61 222.822C1321.79 222.391 1321.88 221.938 1321.88 221.469ZM1319.63 222.686C1319.3 223.011 1318.87 223.19 1318.41 223.19C1317.95 223.19 1317.52 223.011 1317.19 222.686C1316.87 222.361 1316.69 221.928 1316.69 221.469C1316.69 221.009 1316.87 220.577 1317.19 220.252C1317.52 219.927 1317.95 219.748 1318.41 219.748C1318.87 219.748 1319.3 219.927 1319.63 220.252C1319.95 220.577 1320.13 221.01 1320.13 221.469C1320.13 221.928 1319.95 222.361 1319.63 222.686Z" fill="white"/>
</g>
<g clip-path="url(#clip2_958_979)">
<path d="M345.315 438.773C343.068 436.526 339.411 436.526 337.164 438.773C335.517 440.421 335.031 442.88 335.896 445.012L327 453.881V456.912H330.314L330.926 455.151L332.586 454.61L333.118 452.978L334.701 452.566L339.075 448.192C341.207 449.057 343.667 448.572 345.315 446.924C347.562 444.677 347.562 441.02 345.315 438.773ZM342.681 442.828C341.801 442.828 341.085 442.112 341.085 441.232C341.085 440.352 341.801 439.636 342.681 439.636C343.561 439.636 344.277 440.352 344.277 441.232C344.277 442.112 343.561 442.828 342.681 442.828Z" fill="white"/>
</g>
<path d="M535.062 76.8748L535.938 77.7498L536.812 76.8748L535.938 75.9998L536.812 75.1248L537.688 75.9998L538.562 75.1248L537.688 74.2498L541.25 70.7498C542.625 71.6248 544.5 71.3748 545.5 69.9373C546.188 68.9373 546.25 67.5623 545.562 66.5623C544.438 64.8748 542.125 64.6873 540.75 66.0623C539.688 67.1248 539.562 68.6873 540.375 69.8748L533.75 76.4373C533.5 76.6873 533.5 77.0623 533.75 77.3123C534 77.5623 534.375 77.5623 534.625 77.3123L535.062 76.8748ZM541.688 66.9998C542.438 66.3123 543.562 66.3123 544.312 66.9998C545.063 67.6873 545.063 68.8748 544.312 69.5623C543.562 70.2498 542.438 70.2498 541.688 69.5623C540.938 68.8748 540.938 67.6873 541.688 66.9998Z" fill="white"/>
<path d="M1093.08 185.167L1094.25 186.334L1095.42 185.167L1094.25 184L1095.42 182.834L1096.58 184L1097.75 182.834L1096.58 181.667L1101.33 177C1103.17 178.167 1105.67 177.834 1107 175.917C1107.92 174.584 1108 172.75 1107.08 171.417C1105.58 169.167 1102.5 168.917 1100.67 170.75C1099.25 172.167 1099.08 174.25 1100.17 175.834L1091.33 184.584C1091 184.917 1091 185.417 1091.33 185.75C1091.67 186.084 1092.17 186.084 1092.5 185.75L1093.08 185.167ZM1101.92 172C1102.92 171.084 1104.42 171.084 1105.42 172C1106.42 172.917 1106.42 174.5 1105.42 175.417C1104.42 176.334 1102.92 176.334 1101.92 175.417C1100.92 174.5 1100.92 172.917 1101.92 172Z" fill="white"/>
<g clip-path="url(#clip3_958_979)">
<path d="M1162.07 278.923C1160.85 277.701 1158.85 277.701 1157.62 278.923C1157.31 279.229 1157.07 279.588 1156.91 279.978C1155.68 279.023 1153.89 279.108 1152.75 280.236C1152.15 280.829 1151.83 281.618 1151.83 282.458C1151.83 283.297 1152.15 284.086 1152.75 284.679C1153.08 285.004 1153.46 285.242 1153.87 285.394L1141.19 298.015C1140.94 298.267 1140.94 298.677 1141.19 298.928L1142.03 299.807C1142.28 300.057 1142.69 300.056 1142.94 299.806L1144.89 297.779L1146.5 299.377C1146.62 299.502 1146.79 299.564 1146.95 299.564C1147.12 299.564 1147.28 299.501 1147.41 299.374C1147.66 299.122 1147.66 298.714 1147.41 298.463L1146.96 298.023L1147.76 297.234C1147.76 297.236 1147.76 297.237 1147.76 297.239L1148.21 297.685C1148.33 297.81 1148.5 297.872 1148.66 297.872C1148.83 297.872 1148.99 297.809 1149.12 297.682C1149.37 297.43 1149.37 297.022 1149.12 296.771L1147.51 295.175L1155.6 287.159C1155.76 287.544 1155.99 287.897 1156.29 288.199C1156.91 288.81 1157.72 289.115 1158.52 289.115C1159.33 289.115 1160.14 288.81 1160.75 288.199C1161.35 287.606 1161.68 286.817 1161.68 285.978C1161.68 285.273 1161.45 284.605 1161.02 284.057C1161.4 283.904 1161.76 283.674 1162.07 283.365C1162.67 282.772 1163 281.983 1163 281.144C1163 280.305 1162.67 279.516 1162.07 278.923ZM1153.11 282.458C1153.11 281.964 1153.31 281.5 1153.66 281.15C1154.02 280.788 1154.5 280.607 1154.98 280.607C1155.46 280.607 1155.94 280.788 1156.3 281.15C1156.65 281.5 1156.85 281.964 1156.85 282.458C1156.85 282.951 1156.65 283.415 1156.3 283.765C1155.57 284.489 1154.39 284.489 1153.66 283.765C1153.31 283.415 1153.11 282.951 1153.11 282.458ZM1159.84 287.285C1159.12 288.009 1157.93 288.009 1157.2 287.285C1156.85 286.936 1156.66 286.472 1156.66 285.978C1156.66 285.485 1156.85 285.02 1157.2 284.671C1157.57 284.309 1158.05 284.128 1158.52 284.128C1159 284.128 1159.48 284.309 1159.84 284.671C1160.2 285.02 1160.39 285.485 1160.39 285.978C1160.39 286.472 1160.2 286.936 1159.84 287.285ZM1161.17 282.451C1160.44 283.175 1159.25 283.175 1158.52 282.451C1158.17 282.102 1157.98 281.638 1157.98 281.144C1157.98 280.651 1158.17 280.186 1158.52 279.837C1158.89 279.475 1159.37 279.294 1159.85 279.294C1160.32 279.294 1160.8 279.475 1161.17 279.837C1161.52 280.186 1161.71 280.651 1161.71 281.144C1161.71 281.638 1161.52 282.102 1161.17 282.451Z" fill="white"/>
</g>
<g clip-path="url(#clip4_958_979)">
<path d="M254.909 92.5189L255.999 91.4287L254.571 90.001L245.365 99.207C243.99 98.4496 242.226 98.6538 241.06 99.8199C239.647 101.234 239.647 103.526 241.06 104.94C242.474 106.353 244.766 106.353 246.18 104.94C247.346 103.774 247.55 102.01 246.793 100.635L252.199 95.2283L253.291 96.3195L256 93.6101L254.909 92.5189ZM244.754 103.513C244.451 103.816 244.048 103.983 243.62 103.983C243.192 103.983 242.79 103.816 242.487 103.513C241.862 102.888 241.862 101.871 242.487 101.246C242.79 100.944 243.192 100.777 243.62 100.777C244.048 100.777 244.451 100.944 244.754 101.246C245.379 101.871 245.379 102.888 244.754 103.513Z" fill="white"/>
</g>
<defs>
<clipPath id="clip0_958_979">
<rect width="16" height="16" fill="white" transform="translate(1196 59)"/>
</clipPath>
<clipPath id="clip1_958_979">
<rect width="11" height="11" fill="white" transform="translate(1311 218)"/>
</clipPath>
<clipPath id="clip2_958_979">
<rect width="20" height="20" fill="white" transform="translate(327 437)"/>
</clipPath>
<clipPath id="clip3_958_979">
<rect width="22" height="22" fill="white" transform="translate(1141 278)"/>
</clipPath>
<clipPath id="clip4_958_979">
<rect width="16" height="16" fill="white" transform="translate(240 90)"/>
</clipPath>
</defs>
</svg>
