<svg width="480" height="400" viewBox="0 0 480 400" fill="none" xmlns="http://www.w3.org/2000/svg">
<rect opacity="0.4" x="133" y="20" width="203" height="204" rx="101.5" fill="url(#paint0_radial_4837_1792)"/>
<rect opacity="0.4" x="19" y="175" width="203" height="204" rx="101.5" fill="url(#paint1_radial_4837_1792)"/>
<rect opacity="0.4" x="259" y="175" width="203" height="204" rx="101.5" fill="url(#paint2_radial_4837_1792)"/>
<rect x="120.5" y="7.5" width="229" height="229" rx="114.5" stroke="#232F6F"/>
<rect x="5.5" y="162.5" width="229" height="229" rx="114.5" stroke="#232F6F"/>
<rect x="246.5" y="162.5" width="229" height="229" rx="114.5" stroke="#232F6F"/>
<path d="M234.471 74C233.215 74 231.919 74.04 230.584 74.1201C227.992 74.2802 225.244 74.7204 222.338 75.4409C219.59 76.1613 217.234 76.9618 215.271 77.8423C212.287 79.2032 209.263 80.9642 206.201 83.1255C202.745 85.6071 199.683 88.6089 197.013 92.131C194.343 95.6532 192.183 99.4955 190.534 103.658L189.945 105.099C189.238 106.86 188.767 108.181 188.531 109.061C187.51 112.663 187 116.586 187 120.828C187 124.751 187.353 128.473 188.06 131.995C189.788 140 193.008 146.844 197.719 152.528C201.803 157.491 207.261 161.813 214.093 165.496C217.862 167.497 222.162 168.838 226.991 169.518C231.821 170.198 236.709 170.158 241.657 169.398C246.604 168.638 251.119 167.217 255.203 165.135C262.271 161.453 268.239 155.89 273.108 148.445C275.542 144.763 277.427 140.761 278.762 136.438C280.254 131.635 281 126.672 281 121.549C281 116.986 280.175 112.223 278.526 107.26C277.191 103.098 275.385 99.2153 273.108 95.6131C269.103 89.1292 264.077 84.0461 258.03 80.3639C251.119 76.1213 243.267 74 234.471 74ZM230.466 96.8139H236.827C238.084 96.8139 239.222 97.1941 240.243 97.9546C241.264 98.715 241.971 99.6956 242.363 100.896L254.85 139.32C255.399 140.921 255.301 142.462 254.555 143.943C253.809 145.423 252.69 146.404 251.198 146.884C250.57 147.044 249.942 147.124 249.313 147.124C248.057 147.124 246.918 146.764 245.897 146.044C244.876 145.323 244.17 144.323 243.777 143.042L242.592 139.209C241.686 136.277 238.974 134.277 235.905 134.277H232.095C229.026 134.277 226.314 136.277 225.408 139.209L224.223 143.042C223.83 144.243 223.124 145.223 222.103 145.984C221.082 146.744 219.943 147.124 218.687 147.124C218.058 147.124 217.47 147.044 216.92 146.884C215.349 146.404 214.191 145.443 213.445 144.003C212.699 142.562 212.561 141.041 213.033 139.44L224.93 101.016C225.322 99.7356 226.029 98.715 227.05 97.9546C228.071 97.1941 229.21 96.8139 230.466 96.8139Z" fill="url(#paint3_linear_4837_1792)"/>
<path d="M118.155 229C118.301 229 118.442 229.054 118.551 229.152L121.425 231.744C123.679 233.779 125.94 235.806 128.167 237.868C142.605 251.22 154.828 266.245 164.029 283.539C164.502 284.422 164.929 285.332 165.356 286.236L165.822 287.219C165.922 287.43 165.839 287.681 165.634 287.791C165.438 287.896 165.195 287.838 165.068 287.655L164.758 287.206L163.378 285.205L162.412 283.773C155.715 273.875 149.006 263.963 139.793 256.032C137.005 253.628 133.929 251.595 130.638 249.982C123.975 246.736 118.047 248.034 112.961 253.361C108.124 258.428 105.614 264.719 103.346 271.117C103.051 271.94 102.742 272.757 102.433 273.573L102.102 274.457C101.986 274.767 101.645 274.931 101.33 274.829C101.014 274.726 100.835 274.391 100.925 274.071C101.52 271.931 102.075 269.78 102.63 267.624C104.01 262.303 105.39 256.982 107.309 251.856C109.346 246.394 111.922 241.127 114.492 235.86C115.547 233.691 116.603 231.522 117.619 229.342C117.716 229.134 117.925 229 118.155 229Z" fill="url(#paint4_linear_4837_1792)"/>
<path d="M122.943 294.74C122.943 294.738 122.941 294.737 122.939 294.737C113.588 299.246 92.6303 303.877 79.3226 304.05C76.2414 304.09 73.8455 301.743 74.2615 298.69C76.4265 282.801 91.5219 245.288 100.313 236.153C100.603 235.851 101.007 236.165 100.843 236.549C100.564 237.236 100.262 237.913 99.9358 238.577L99.5021 239.441C94.5077 249.225 89.5198 259.023 86.9635 269.759C86.0429 273.456 85.5402 277.249 85.4652 281.062C85.3995 290.031 90.8802 296.134 100.034 296.516C104.437 296.697 108.886 296.228 113.329 295.753C115.261 295.552 117.186 295.345 119.112 295.191C119.821 295.137 120.518 295.05 121.425 294.93L122.941 294.743C122.942 294.742 122.943 294.741 122.943 294.74Z" fill="url(#paint5_linear_4837_1792)"/>
<path d="M92.5625 314.539C91.5582 314.617 91.565 315.825 92.5714 315.867C113.724 316.735 134.249 313.326 154.511 306.829C158.493 305.552 160.23 300.927 157.931 297.434C150.527 286.184 141.36 276.805 130.987 268.463C130.518 268.086 130.079 268.432 130.454 268.902L130.77 269.303C131.887 270.816 133.057 272.302 134.233 273.787C136.921 277.194 139.609 280.6 141.633 284.348C146.745 293.852 143.972 302.071 133.957 306.408C127.372 309.265 120.176 311.213 113.059 312.377C106.291 313.475 99.4232 314.004 92.5625 314.539Z" fill="url(#paint6_linear_4837_1792)"/>
<path d="M369.956 241.942C369.956 236.926 364.667 233.672 360.19 235.934C357.924 237.08 356.495 239.403 356.495 241.942V298.506C356.495 302.738 352.738 306.06 348.688 304.831C346.566 304.187 344.551 303.401 342.644 302.474C338.528 300.471 335.302 298.015 332.966 295.105C330.629 292.196 329.461 289.04 329.461 285.64C329.461 282.466 330.518 279.462 332.632 276.628C334.746 273.794 337.675 271.394 341.421 269.429C344.165 267.989 347.159 266.854 350.401 266.023C352.492 265.487 354.047 263.662 354.047 261.504C354.047 258.842 351.723 256.76 349.106 257.252C343.851 258.241 339.008 259.806 334.579 261.947C328.794 264.744 324.27 268.182 321.006 272.263C317.669 276.42 316 280.879 316 285.64C316 290.552 317.817 295.162 321.451 299.47C324.937 303.626 329.758 307.084 335.914 309.842C341.545 312.366 347.767 314.02 354.578 314.804C355.831 314.948 357.095 314.712 358.232 314.166L365.985 310.445C368.412 309.28 369.956 306.826 369.956 304.134V241.942ZM377.233 257.283C374.624 256.779 372.292 258.851 372.292 261.508C372.292 263.661 373.85 265.478 375.939 266.003C378.541 266.657 380.971 267.508 383.228 268.557C384.585 269.187 384.593 271.041 383.298 271.792C381.758 272.685 382.117 275.003 383.854 275.389L395.956 278.077C400.419 279.068 404.55 275.414 404.111 270.864L403.661 266.198C403.402 263.516 400.459 261.998 398.124 263.341C396.945 264.019 395.496 263.987 394.307 263.327C389.257 260.52 383.566 258.505 377.233 257.283Z" fill="url(#paint7_linear_4837_1792)"/>
<rect x="302" y="34" width="36" height="36" rx="18" fill="#131313"/>
<rect x="302" y="34" width="36" height="36" rx="18" stroke="#131313" stroke-width="4"/>
<path d="M320 36C311.2 36 304 43.2 304 52C304 60.8 311.2 68 320 68C328.8 68 336 60.8 336 52C336 43.2 328.8 36 320 36ZM326.72 49.28L319.04 56.96C318.4 57.6 317.44 57.6 316.8 56.96L313.28 53.44C312.64 52.8 312.64 51.84 313.28 51.2C313.92 50.56 314.88 50.56 315.52 51.2L317.92 53.6L324.48 47.04C325.12 46.4 326.08 46.4 326.72 47.04C327.36 47.68 327.36 48.64 326.72 49.28Z" fill="#3FA1E3"/>
<rect x="432" y="198" width="36" height="36" rx="18" fill="#131313"/>
<rect x="432" y="198" width="36" height="36" rx="18" stroke="#131313" stroke-width="4"/>
<path d="M450 200C441.2 200 434 207.2 434 216C434 224.8 441.2 232 450 232C458.8 232 466 224.8 466 216C466 207.2 458.8 200 450 200ZM456.72 213.28L449.04 220.96C448.4 221.6 447.44 221.6 446.8 220.96L443.28 217.44C442.64 216.8 442.64 215.84 443.28 215.2C443.92 214.56 444.88 214.56 445.52 215.2L447.92 217.6L454.48 211.04C455.12 210.4 456.08 210.4 456.72 211.04C457.36 211.68 457.36 212.64 456.72 213.28Z" fill="#3FA1E3"/>
<rect x="11" y="198" width="36" height="36" rx="18" fill="#131313"/>
<rect x="11" y="198" width="36" height="36" rx="18" stroke="#131313" stroke-width="4"/>
<path d="M29 200C20.2 200 13 207.2 13 216C13 224.8 20.2 232 29 232C37.8 232 45 224.8 45 216C45 207.2 37.8 200 29 200ZM35.72 213.28L28.04 220.96C27.4 221.6 26.44 221.6 25.8 220.96L22.28 217.44C21.64 216.8 21.64 215.84 22.28 215.2C22.92 214.56 23.88 214.56 24.52 215.2L26.92 217.6L33.48 211.04C34.12 210.4 35.08 210.4 35.72 211.04C36.36 211.68 36.36 212.64 35.72 213.28Z" fill="#3FA1E3"/>
<defs>
<radialGradient id="paint0_radial_4837_1792" cx="0" cy="0" r="1" gradientUnits="userSpaceOnUse" gradientTransform="translate(234.5 122) rotate(90) scale(102 101.5)">
<stop offset="0.480792" stop-color="#232F6F" stop-opacity="0"/>
<stop offset="1" stop-color="#232F6F"/>
</radialGradient>
<radialGradient id="paint1_radial_4837_1792" cx="0" cy="0" r="1" gradientUnits="userSpaceOnUse" gradientTransform="translate(120.5 277) rotate(90) scale(102 101.5)">
<stop offset="0.480792" stop-color="#232F6F" stop-opacity="0"/>
<stop offset="1" stop-color="#232F6F"/>
</radialGradient>
<radialGradient id="paint2_radial_4837_1792" cx="0" cy="0" r="1" gradientUnits="userSpaceOnUse" gradientTransform="translate(360.5 277) rotate(90) scale(102 101.5)">
<stop offset="0.480792" stop-color="#232F6F" stop-opacity="0"/>
<stop offset="1" stop-color="#232F6F"/>
</radialGradient>
<linearGradient id="paint3_linear_4837_1792" x1="234" y1="74" x2="234" y2="170" gradientUnits="userSpaceOnUse">
<stop stop-color="#3FA1E3" stop-opacity="0.35"/>
<stop offset="0.605793" stop-color="#3FA1E3"/>
</linearGradient>
<linearGradient id="paint4_linear_4837_1792" x1="120" y1="229" x2="120" y2="316" gradientUnits="userSpaceOnUse">
<stop stop-color="#3FA1E3" stop-opacity="0.35"/>
<stop offset="0.605793" stop-color="#3FA1E3"/>
</linearGradient>
<linearGradient id="paint5_linear_4837_1792" x1="120" y1="229" x2="120" y2="316" gradientUnits="userSpaceOnUse">
<stop stop-color="#3FA1E3" stop-opacity="0.35"/>
<stop offset="0.605793" stop-color="#3FA1E3"/>
</linearGradient>
<linearGradient id="paint6_linear_4837_1792" x1="120" y1="229" x2="120" y2="316" gradientUnits="userSpaceOnUse">
<stop stop-color="#3FA1E3" stop-opacity="0.35"/>
<stop offset="0.605793" stop-color="#3FA1E3"/>
</linearGradient>
<linearGradient id="paint7_linear_4837_1792" x1="360.5" y1="231" x2="360.5" y2="315" gradientUnits="userSpaceOnUse">
<stop stop-color="#3FA1E3" stop-opacity="0.35"/>
<stop offset="0.605793" stop-color="#3FA1E3"/>
</linearGradient>
</defs>
</svg>
