<svg width="404" height="180" viewBox="0 0 404 180" fill="none" xmlns="http://www.w3.org/2000/svg">
<g clip-path="url(#clip0_4899_3840)">
<path d="M124.5 54V53H123.5V54V55H124.5V54ZM46 79H47V35H46H45V79H46ZM78 3V4H124.5V3V2H78V3ZM46 35H47C47 17.8792 60.8792 4 78 4V3V2C59.7746 2 45 16.7746 45 35H46ZM72.2524 105V104C58.4327 104 47 92.7946 47 79H46H45C45 93.9242 57.3533 106 72.2524 106V105ZM98 79.5H97C97 93.0185 85.796 104 72.2524 104V105V106C86.8754 106 99 94.1481 99 79.5H98ZM123.5 54V53C108.864 53 97 64.8645 97 79.5H98H99C99 65.969 109.969 55 123.5 55V54ZM150 28.5H149C149 42.031 138.031 53 124.5 53V54V55C139.136 55 151 43.1355 151 28.5H150ZM150 28.5H151C151 13.8645 139.136 2 124.5 2V3V4C138.031 4 149 14.969 149 28.5H150Z" fill="url(#paint0_linear_4899_3840)"/>
<path d="M229.5 156V155H175.5V156V157H229.5V156ZM175.5 105V106H176.5V105V104H175.5V105ZM227.5 54V55H331.5V54V53H227.5V54ZM331.5 105V104H280.5V105V106H331.5V105ZM280.5 105V104C265.864 104 254 115.864 254 130.5H255H256C256 116.969 266.969 106 280.5 106V105ZM357 79.5H356C356 93.031 345.031 104 331.5 104V105V106C346.136 106 358 94.1355 358 79.5H357ZM331.5 54V55C345.031 55 356 65.969 356 79.5H357H358C358 64.8645 346.136 53 331.5 53V54ZM202 79.5H203C203 65.969 213.969 55 227.5 55V54V53C212.864 53 201 64.8645 201 79.5H202ZM176.5 105V106C191.136 106 203 94.1355 203 79.5H202H201C201 93.031 190.031 104 176.5 104V105ZM150 130.5H151C151 116.969 161.969 106 175.5 106V105V104C160.864 104 149 115.864 149 130.5H150ZM175.5 156V155C161.969 155 151 144.031 151 130.5H150H149C149 145.136 160.864 157 175.5 157V156ZM229.5 156V157C244.136 157 256 145.136 256 130.5H255H254C254 144.031 243.031 155 229.5 155V156Z" fill="url(#paint1_linear_4899_3840)"/>
<g clip-path="url(#clip1_4899_3840)">
<path d="M20 8C25.3431 8 30.3644 10.0793 34.1426 13.8574C37.9207 17.6356 40 22.6569 40 28C40 33.3431 37.9207 38.3644 34.1426 42.1426C30.3644 45.9207 25.3431 48 20 48C14.6569 48 9.63556 45.9207 5.85737 42.1426C2.07926 38.3644 0 33.3431 0 28C0 22.6569 2.07934 17.6356 5.85737 13.8574C9.63556 10.0793 14.6569 8 20 8ZM20 31.0459C13.8169 31.0459 8.58797 35.7412 7.88061 41.8271L7.84856 42.1016L8.0609 42.2788C11.2951 44.9875 15.4602 46.6218 20 46.6218C24.5399 46.6218 28.706 44.9875 31.9401 42.2788L32.1514 42.1016L32.1194 41.8261C31.8033 39.11 30.5757 36.5668 28.6288 34.6196C26.3245 32.3158 23.2577 31.0459 20 31.0459ZM20 9.37821C9.73144 9.37821 1.37821 17.7314 1.37821 28C1.37821 32.6566 3.09689 36.9196 5.93149 40.1875L6.57953 40.9347L6.81691 39.9752C7.44405 37.437 8.79705 35.1236 10.7462 33.3085C12.092 32.0547 13.6552 31.1026 15.3446 30.487L16.2871 30.1434L15.4567 29.5805C13.2977 28.1178 11.879 25.6466 11.879 22.8518C11.8792 18.3744 15.5226 14.7308 20 14.7308C24.4774 14.7308 28.1208 18.3744 28.121 22.8518C28.121 25.645 26.7036 28.1155 24.5463 29.5785L23.7159 30.1414L24.6585 30.484C26.4939 31.1527 28.1778 32.2205 29.6024 33.645C31.3488 35.391 32.5869 37.5805 33.1821 39.9772L33.4195 40.9357L34.0665 40.1895C36.9022 36.9216 38.6218 32.6576 38.6218 28C38.6218 17.7314 30.2686 9.37821 20 9.37821ZM20 16.109C16.2818 16.109 13.2574 19.1332 13.2572 22.8518C13.2572 26.3976 16.0075 29.3106 19.4872 29.5735V29.5956H20C23.7184 29.5956 26.7428 26.5702 26.7428 22.8518C26.7426 19.1332 23.7182 16.109 20 16.109Z" fill="#232F6F"/>
<circle opacity="0.1" cx="86.1396" cy="89.1406" r="52.5" fill="white"/>
</g>
<g clip-path="url(#clip2_4899_3840)">
<path d="M72 8C77.3431 8 82.3644 10.0793 86.1426 13.8574C89.9207 17.6356 92 22.6569 92 28C92 33.3431 89.9207 38.3644 86.1426 42.1426C82.3644 45.9207 77.3431 48 72 48C66.6569 48 61.6356 45.9207 57.8574 42.1426C54.0793 38.3644 52 33.3431 52 28C52 22.6569 54.0793 17.6356 57.8574 13.8574C61.6356 10.0793 66.6569 8 72 8ZM72 31.0459C65.8169 31.0459 60.588 35.7412 59.8806 41.8271C59.8606 41.9984 59.9286 42.1683 60.0609 42.2788C63.2951 44.9875 67.4602 46.6218 72 46.6218C76.5399 46.6218 80.706 44.9875 83.9401 42.2788C84.072 42.1682 84.1393 41.9972 84.1194 41.8261C83.8033 39.11 82.5757 36.5668 80.6288 34.6196C78.3245 32.3158 75.2577 31.0459 72 31.0459ZM72 9.37821C61.7314 9.37821 53.3782 17.7314 53.3782 28C53.3782 32.6566 55.0969 36.9196 57.9315 40.1875C58.2037 40.5014 58.7171 40.3785 58.8169 39.9752C59.444 37.437 60.7971 35.1236 62.7462 33.3085C64.092 32.0547 65.6552 31.1026 67.3446 30.487C67.7377 30.3437 67.8031 29.8153 67.4567 29.5805C65.2977 28.1178 63.879 25.6466 63.879 22.8518C63.8792 18.3744 67.5226 14.7308 72 14.7308C76.4774 14.7308 80.1208 18.3744 80.121 22.8518C80.121 25.645 78.7036 28.1155 76.5463 29.5785C76.2003 29.8131 76.2656 30.3412 76.6585 30.484C78.4939 31.1527 80.1778 32.2205 81.6024 33.645C83.3488 35.391 84.5869 37.5805 85.1821 39.9772C85.2819 40.3801 85.7945 40.5032 86.0665 40.1895C88.9022 36.9216 90.6218 32.6576 90.6218 28C90.6218 17.7314 82.2686 9.37821 72 9.37821ZM72 16.109C68.2818 16.109 65.2574 19.1332 65.2572 22.8518C65.2572 26.394 68.0019 29.3047 71.4766 29.5727C71.4825 29.5732 71.4872 29.5781 71.4872 29.5841C71.4872 29.5904 71.4923 29.5956 71.4986 29.5956H72C75.7184 29.5956 78.7428 26.5702 78.7428 22.8518C78.7426 19.1332 75.7182 16.109 72 16.109Z" fill="url(#paint2_linear_4899_3840)"/>
<circle opacity="0.1" cx="138.14" cy="89.1406" r="52.5" fill="white"/>
</g>
<path d="M124 8C129.343 8 134.364 10.0793 138.143 13.8574C141.921 17.6356 144 22.6569 144 28C144 33.3431 141.921 38.3644 138.143 42.1426C134.364 45.9207 129.343 48 124 48C118.657 48 113.636 45.9207 109.857 42.1426C106.079 38.3644 104 33.3431 104 28C104 22.6569 106.079 17.6356 109.857 13.8574C113.636 10.0793 118.657 8 124 8ZM124 31.0459C117.817 31.0459 112.588 35.7412 111.881 41.8271C111.861 41.9984 111.929 42.1683 112.061 42.2788C115.295 44.9875 119.46 46.6218 124 46.6218C128.54 46.6218 132.706 44.9875 135.94 42.2788C136.072 42.1682 136.139 41.9972 136.119 41.8261C135.803 39.11 134.576 36.5668 132.629 34.6196C130.325 32.3158 127.258 31.0459 124 31.0459ZM124 9.37821C113.731 9.37821 105.378 17.7314 105.378 28C105.378 32.6566 107.097 36.9196 109.931 40.1875C110.204 40.5014 110.717 40.3785 110.817 39.9752C111.444 37.437 112.797 35.1236 114.746 33.3085C116.092 32.0547 117.655 31.1026 119.345 30.487C119.738 30.3437 119.803 29.8153 119.457 29.5805C117.298 28.1178 115.879 25.6466 115.879 22.8518C115.879 18.3744 119.523 14.7308 124 14.7308C128.477 14.7308 132.121 18.3744 132.121 22.8518C132.121 25.645 130.704 28.1155 128.546 29.5785C128.2 29.8131 128.266 30.3412 128.658 30.484C130.494 31.1527 132.178 32.2205 133.602 33.645C135.349 35.391 136.587 37.5805 137.182 39.9772C137.282 40.3801 137.795 40.5032 138.067 40.1895C140.902 36.9216 142.622 32.6576 142.622 28C142.622 17.7314 134.269 9.37821 124 9.37821ZM124 16.109C120.282 16.109 117.257 19.1332 117.257 22.8518C117.257 26.394 120.002 29.3047 123.477 29.5727C123.483 29.5732 123.487 29.5781 123.487 29.5841C123.487 29.5904 123.492 29.5956 123.499 29.5956H124C127.718 29.5956 130.743 26.5702 130.743 22.8518C130.743 19.1332 127.718 16.109 124 16.109Z" fill="url(#paint3_linear_4899_3840)"/>
<g clip-path="url(#clip3_4899_3840)">
<path d="M176 8C181.343 8 186.364 10.0793 190.143 13.8574C193.921 17.6356 196 22.6569 196 28C196 33.3431 193.921 38.3644 190.143 42.1426C186.364 45.9207 181.343 48 176 48C170.657 48 165.636 45.9207 161.857 42.1426C158.079 38.3644 156 33.3431 156 28C156 22.6569 158.079 17.6356 161.857 13.8574C165.636 10.0793 170.657 8 176 8ZM176 31.0459C169.817 31.0459 164.588 35.7412 163.881 41.8271L163.849 42.1016L164.061 42.2788C167.295 44.9875 171.46 46.6218 176 46.6218C180.54 46.6218 184.706 44.9875 187.94 42.2788L188.151 42.1016L188.119 41.8261C187.803 39.11 186.576 36.5668 184.629 34.6196C182.325 32.3158 179.258 31.0459 176 31.0459ZM176 9.37821C165.731 9.37821 157.378 17.7314 157.378 28C157.378 32.6566 159.097 36.9196 161.931 40.1875L162.58 40.9347L162.817 39.9752C163.444 37.437 164.797 35.1236 166.746 33.3085C168.092 32.0547 169.655 31.1026 171.345 30.487L172.287 30.1434L171.457 29.5805C169.298 28.1178 167.879 25.6466 167.879 22.8518C167.879 18.3744 171.523 14.7308 176 14.7308C180.477 14.7308 184.121 18.3744 184.121 22.8518C184.121 25.645 182.704 28.1155 180.546 29.5785L179.716 30.1414L180.658 30.484C182.494 31.1527 184.178 32.2205 185.602 33.645C187.349 35.391 188.587 37.5805 189.182 39.9772L189.419 40.9357L190.067 40.1895C192.902 36.9216 194.622 32.6576 194.622 28C194.622 17.7314 186.269 9.37821 176 9.37821ZM176 16.109C172.282 16.109 169.257 19.1332 169.257 22.8518C169.257 26.3976 172.008 29.3106 175.487 29.5735V29.5956H176C179.718 29.5956 182.743 26.5702 182.743 22.8518C182.743 19.1332 179.718 16.109 176 16.109Z" fill="#232F6F"/>
<circle opacity="0.1" cx="242.14" cy="89.1406" r="52.5" fill="white"/>
</g>
<g clip-path="url(#clip4_4899_3840)">
<path d="M228 8C233.343 8 238.364 10.0793 242.143 13.8574C245.921 17.6356 248 22.6569 248 28C248 33.3431 245.921 38.3644 242.143 42.1426C238.364 45.9207 233.343 48 228 48C222.657 48 217.636 45.9207 213.857 42.1426C210.079 38.3644 208 33.3431 208 28C208 22.6569 210.079 17.6356 213.857 13.8574C217.636 10.0793 222.657 8 228 8ZM228 31.0459C221.817 31.0459 216.588 35.7412 215.881 41.8271L215.849 42.1016L216.061 42.2788C219.295 44.9875 223.46 46.6218 228 46.6218C232.54 46.6218 236.706 44.9875 239.94 42.2788L240.151 42.1016L240.119 41.8261C239.803 39.11 238.576 36.5668 236.629 34.6196C234.325 32.3158 231.258 31.0459 228 31.0459ZM228 9.37821C217.731 9.37821 209.378 17.7314 209.378 28C209.378 32.6566 211.097 36.9196 213.931 40.1875L214.58 40.9347L214.817 39.9752C215.444 37.437 216.797 35.1236 218.746 33.3085C220.092 32.0547 221.655 31.1026 223.345 30.487L224.287 30.1434L223.457 29.5805C221.298 28.1178 219.879 25.6466 219.879 22.8518C219.879 18.3744 223.523 14.7308 228 14.7308C232.477 14.7308 236.121 18.3744 236.121 22.8518C236.121 25.645 234.704 28.1155 232.546 29.5785L231.716 30.1414L232.658 30.484C234.494 31.1527 236.178 32.2205 237.602 33.645C239.349 35.391 240.587 37.5805 241.182 39.9772L241.419 40.9357L242.067 40.1895C244.902 36.9216 246.622 32.6576 246.622 28C246.622 17.7314 238.269 9.37821 228 9.37821ZM228 16.109C224.282 16.109 221.257 19.1332 221.257 22.8518C221.257 26.3976 224.008 29.3106 227.487 29.5735V29.5956H228C231.718 29.5956 234.743 26.5702 234.743 22.8518C234.743 19.1332 231.718 16.109 228 16.109Z" fill="#232F6F"/>
<circle opacity="0.1" cx="294.14" cy="89.1406" r="52.5" fill="white"/>
</g>
<g clip-path="url(#clip5_4899_3840)">
<path d="M280 8C285.343 8 290.364 10.0793 294.143 13.8574C297.921 17.6356 300 22.6569 300 28C300 33.3431 297.921 38.3644 294.143 42.1426C290.364 45.9207 285.343 48 280 48C274.657 48 269.636 45.9207 265.857 42.1426C262.079 38.3644 260 33.3431 260 28C260 22.6569 262.079 17.6356 265.857 13.8574C269.636 10.0793 274.657 8 280 8ZM280 31.0459C273.817 31.0459 268.588 35.7412 267.881 41.8271L267.849 42.1016L268.061 42.2788C271.295 44.9875 275.46 46.6218 280 46.6218C284.54 46.6218 288.706 44.9875 291.94 42.2788L292.151 42.1016L292.119 41.8261C291.803 39.11 290.576 36.5668 288.629 34.6196C286.325 32.3158 283.258 31.0459 280 31.0459ZM280 9.37821C269.731 9.37821 261.378 17.7314 261.378 28C261.378 32.6566 263.097 36.9196 265.931 40.1875L266.58 40.9347L266.817 39.9752C267.444 37.437 268.797 35.1236 270.746 33.3085C272.092 32.0547 273.655 31.1026 275.345 30.487L276.287 30.1434L275.457 29.5805C273.298 28.1178 271.879 25.6466 271.879 22.8518C271.879 18.3744 275.523 14.7308 280 14.7308C284.477 14.7308 288.121 18.3744 288.121 22.8518C288.121 25.645 286.704 28.1155 284.546 29.5785L283.716 30.1414L284.658 30.484C286.494 31.1527 288.178 32.2205 289.602 33.645C291.349 35.391 292.587 37.5805 293.182 39.9772L293.419 40.9357L294.067 40.1895C296.902 36.9216 298.622 32.6576 298.622 28C298.622 17.7314 290.269 9.37821 280 9.37821ZM280 16.109C276.282 16.109 273.257 19.1332 273.257 22.8518C273.257 26.3976 276.008 29.3106 279.487 29.5735V29.5956H280C283.718 29.5956 286.743 26.5702 286.743 22.8518C286.743 19.1332 283.718 16.109 280 16.109Z" fill="#232F6F"/>
<circle opacity="0.1" cx="346.14" cy="89.1406" r="52.5" fill="white"/>
</g>
<g clip-path="url(#clip6_4899_3840)">
<path d="M332 8C337.343 8 342.364 10.0793 346.143 13.8574C349.921 17.6356 352 22.6569 352 28C352 33.3431 349.921 38.3644 346.143 42.1426C342.364 45.9207 337.343 48 332 48C326.657 48 321.636 45.9207 317.857 42.1426C314.079 38.3644 312 33.3431 312 28C312 22.6569 314.079 17.6356 317.857 13.8574C321.636 10.0793 326.657 8 332 8ZM332 31.0459C325.817 31.0459 320.588 35.7412 319.881 41.8271L319.849 42.1016L320.061 42.2788C323.295 44.9875 327.46 46.6218 332 46.6218C336.54 46.6218 340.706 44.9875 343.94 42.2788L344.151 42.1016L344.119 41.8261C343.803 39.11 342.576 36.5668 340.629 34.6196C338.325 32.3158 335.258 31.0459 332 31.0459ZM332 9.37821C321.731 9.37821 313.378 17.7314 313.378 28C313.378 32.6566 315.097 36.9196 317.931 40.1875L318.58 40.9347L318.817 39.9752C319.444 37.437 320.797 35.1236 322.746 33.3085C324.092 32.0547 325.655 31.1026 327.345 30.487L328.287 30.1434L327.457 29.5805C325.298 28.1178 323.879 25.6466 323.879 22.8518C323.879 18.3744 327.523 14.7308 332 14.7308C336.477 14.7308 340.121 18.3744 340.121 22.8518C340.121 25.645 338.704 28.1155 336.546 29.5785L335.716 30.1414L336.658 30.484C338.494 31.1527 340.178 32.2205 341.602 33.645C343.349 35.391 344.587 37.5805 345.182 39.9772L345.419 40.9357L346.067 40.1895C348.902 36.9216 350.622 32.6576 350.622 28C350.622 17.7314 342.269 9.37821 332 9.37821ZM332 16.109C328.282 16.109 325.257 19.1332 325.257 22.8518C325.257 26.3976 328.008 29.3106 331.487 29.5735V29.5956H332C335.718 29.5956 338.743 26.5702 338.743 22.8518C338.743 19.1332 335.718 16.109 332 16.109Z" fill="#232F6F"/>
<circle opacity="0.1" cx="398.14" cy="89.1406" r="52.5" fill="white"/>
</g>
<g clip-path="url(#clip7_4899_3840)">
<path d="M384 8C389.343 8 394.364 10.0793 398.143 13.8574C401.921 17.6356 404 22.6569 404 28C404 33.3431 401.921 38.3644 398.143 42.1426C394.364 45.9207 389.343 48 384 48C378.657 48 373.636 45.9207 369.857 42.1426C366.079 38.3644 364 33.3431 364 28C364 22.6569 366.079 17.6356 369.857 13.8574C373.636 10.0793 378.657 8 384 8ZM384 31.0459C377.817 31.0459 372.588 35.7412 371.881 41.8271L371.849 42.1016L372.061 42.2788C375.295 44.9875 379.46 46.6218 384 46.6218C388.54 46.6218 392.706 44.9875 395.94 42.2788L396.151 42.1016L396.119 41.8261C395.803 39.11 394.576 36.5668 392.629 34.6196C390.325 32.3158 387.258 31.0459 384 31.0459ZM384 9.37821C373.731 9.37821 365.378 17.7314 365.378 28C365.378 32.6566 367.097 36.9196 369.931 40.1875L370.58 40.9347L370.817 39.9752C371.444 37.437 372.797 35.1236 374.746 33.3085C376.092 32.0547 377.655 31.1026 379.345 30.487L380.287 30.1434L379.457 29.5805C377.298 28.1178 375.879 25.6466 375.879 22.8518C375.879 18.3744 379.523 14.7308 384 14.7308C388.477 14.7308 392.121 18.3744 392.121 22.8518C392.121 25.645 390.704 28.1155 388.546 29.5785L387.716 30.1414L388.658 30.484C390.494 31.1527 392.178 32.2205 393.602 33.645C395.349 35.391 396.587 37.5805 397.182 39.9772L397.419 40.9357L398.067 40.1895C400.902 36.9216 402.622 32.6576 402.622 28C402.622 17.7314 394.269 9.37821 384 9.37821ZM384 16.109C380.282 16.109 377.257 19.1332 377.257 22.8518C377.257 26.3976 380.008 29.3106 383.487 29.5735V29.5956H384C387.718 29.5956 390.743 26.5702 390.743 22.8518C390.743 19.1332 387.718 16.109 384 16.109Z" fill="#232F6F"/>
<circle opacity="0.1" cx="450.14" cy="89.1406" r="52.5" fill="white"/>
</g>
<g clip-path="url(#clip8_4899_3840)">
<path d="M20 60C25.3431 60 30.3644 62.0793 34.1426 65.8574C37.9207 69.6356 40 74.6569 40 80C40 85.3431 37.9207 90.3644 34.1426 94.1426C30.3644 97.9207 25.3431 100 20 100C14.6569 100 9.63556 97.9207 5.85737 94.1426C2.07926 90.3644 0 85.3431 0 80C0 74.6569 2.07934 69.6356 5.85737 65.8574C9.63556 62.0793 14.6569 60 20 60ZM20 83.0459C13.8169 83.0459 8.58797 87.7412 7.88061 93.8271L7.84856 94.1016L8.0609 94.2788C11.2951 96.9875 15.4602 98.6218 20 98.6218C24.5399 98.6218 28.706 96.9875 31.9401 94.2788L32.1514 94.1016L32.1194 93.8261C31.8033 91.11 30.5757 88.5668 28.6288 86.6196C26.3245 84.3158 23.2577 83.0459 20 83.0459ZM20 61.3782C9.73144 61.3782 1.37821 69.7314 1.37821 80C1.37821 84.6566 3.09689 88.9196 5.93149 92.1875L6.57953 92.9347L6.81691 91.9752C7.44405 89.437 8.79705 87.1236 10.7462 85.3085C12.092 84.0547 13.6552 83.1026 15.3446 82.487L16.2871 82.1434L15.4567 81.5805C13.2977 80.1178 11.879 77.6466 11.879 74.8518C11.8792 70.3744 15.5226 66.7308 20 66.7308C24.4774 66.7308 28.1208 70.3744 28.121 74.8518C28.121 77.645 26.7036 80.1155 24.5463 81.5785L23.7159 82.1414L24.6585 82.484C26.4939 83.1527 28.1778 84.2205 29.6024 85.645C31.3488 87.391 32.5869 89.5805 33.1821 91.9772L33.4195 92.9357L34.0665 92.1895C36.9022 88.9216 38.6218 84.6576 38.6218 80C38.6218 69.7314 30.2686 61.3782 20 61.3782ZM20 68.109C16.2818 68.109 13.2574 71.1332 13.2572 74.8518C13.2572 78.3976 16.0075 81.3106 19.4872 81.5735V81.5956H20C23.7184 81.5956 26.7428 78.5702 26.7428 74.8518C26.7426 71.1332 23.7182 68.109 20 68.109Z" fill="#232F6F"/>
<circle opacity="0.1" cx="86.1396" cy="141.141" r="52.5" fill="white"/>
</g>
<path d="M72 60C77.3431 60 82.3644 62.0793 86.1426 65.8574C89.9207 69.6356 92 74.6569 92 80C92 85.3431 89.9207 90.3644 86.1426 94.1426C82.3644 97.9207 77.3431 100 72 100C66.6569 100 61.6356 97.9207 57.8574 94.1426C54.0793 90.3644 52 85.3431 52 80C52 74.6569 54.0793 69.6356 57.8574 65.8574C61.6356 62.0793 66.6569 60 72 60ZM72 83.0459C65.8169 83.0459 60.588 87.7412 59.8806 93.8271C59.8606 93.9984 59.9286 94.1683 60.0609 94.2788C63.2951 96.9875 67.4602 98.6218 72 98.6218C76.5399 98.6218 80.706 96.9875 83.9401 94.2788C84.072 94.1682 84.1393 93.9972 84.1194 93.8261C83.8033 91.11 82.5757 88.5668 80.6288 86.6196C78.3245 84.3158 75.2577 83.0459 72 83.0459ZM72 61.3782C61.7314 61.3782 53.3782 69.7314 53.3782 80C53.3782 84.6566 55.0969 88.9196 57.9315 92.1875C58.2037 92.5014 58.7171 92.3785 58.8169 91.9752C59.444 89.437 60.7971 87.1236 62.7462 85.3085C64.092 84.0547 65.6552 83.1026 67.3446 82.487C67.7377 82.3437 67.8031 81.8153 67.4567 81.5805C65.2977 80.1178 63.879 77.6466 63.879 74.8518C63.8792 70.3744 67.5226 66.7308 72 66.7308C76.4774 66.7308 80.1208 70.3744 80.121 74.8518C80.121 77.645 78.7036 80.1155 76.5463 81.5785C76.2003 81.8131 76.2656 82.3412 76.6585 82.484C78.4939 83.1527 80.1778 84.2205 81.6024 85.645C83.3488 87.391 84.5869 89.5805 85.1821 91.9772C85.2819 92.3801 85.7945 92.5032 86.0665 92.1895C88.9022 88.9216 90.6218 84.6576 90.6218 80C90.6218 69.7314 82.2686 61.3782 72 61.3782ZM72 68.109C68.2818 68.109 65.2574 71.1332 65.2572 74.8518C65.2572 78.394 68.0019 81.3047 71.4766 81.5727C71.4825 81.5732 71.4872 81.5781 71.4872 81.5841C71.4872 81.5904 71.4923 81.5956 71.4986 81.5956H72C75.7184 81.5956 78.7428 78.5702 78.7428 74.8518C78.7426 71.1332 75.7182 68.109 72 68.109Z" fill="url(#paint4_linear_4899_3840)"/>
<g clip-path="url(#clip9_4899_3840)">
<path d="M124 60C129.343 60 134.364 62.0793 138.143 65.8574C141.921 69.6356 144 74.6569 144 80C144 85.3431 141.921 90.3644 138.143 94.1426C134.364 97.9207 129.343 100 124 100C118.657 100 113.636 97.9207 109.857 94.1426C106.079 90.3644 104 85.3431 104 80C104 74.6569 106.079 69.6356 109.857 65.8574C113.636 62.0793 118.657 60 124 60ZM124 83.0459C117.817 83.0459 112.588 87.7412 111.881 93.8271L111.849 94.1016L112.061 94.2788C115.295 96.9875 119.46 98.6218 124 98.6218C128.54 98.6218 132.706 96.9875 135.94 94.2788L136.151 94.1016L136.119 93.8261C135.803 91.11 134.576 88.5668 132.629 86.6196C130.325 84.3158 127.258 83.0459 124 83.0459ZM124 61.3782C113.731 61.3782 105.378 69.7314 105.378 80C105.378 84.6566 107.097 88.9196 109.931 92.1875L110.58 92.9347L110.817 91.9752C111.444 89.437 112.797 87.1236 114.746 85.3085C116.092 84.0547 117.655 83.1026 119.345 82.487L120.287 82.1434L119.457 81.5805C117.298 80.1178 115.879 77.6466 115.879 74.8518C115.879 70.3744 119.523 66.7308 124 66.7308C128.477 66.7308 132.121 70.3744 132.121 74.8518C132.121 77.645 130.704 80.1155 128.546 81.5785L127.716 82.1414L128.658 82.484C130.494 83.1527 132.178 84.2205 133.602 85.645C135.349 87.391 136.587 89.5805 137.182 91.9772L137.419 92.9357L138.067 92.1895C140.902 88.9216 142.622 84.6576 142.622 80C142.622 69.7314 134.269 61.3782 124 61.3782ZM124 68.109C120.282 68.109 117.257 71.1332 117.257 74.8518C117.257 78.3976 120.008 81.3106 123.487 81.5735V81.5956H124C127.718 81.5956 130.743 78.5702 130.743 74.8518C130.743 71.1332 127.718 68.109 124 68.109Z" fill="#232F6F"/>
<circle opacity="0.1" cx="190.14" cy="141.141" r="52.5" fill="white"/>
</g>
<g clip-path="url(#clip10_4899_3840)">
<path d="M176 60C181.343 60 186.364 62.0793 190.143 65.8574C193.921 69.6356 196 74.6569 196 80C196 85.3431 193.921 90.3644 190.143 94.1426C186.364 97.9207 181.343 100 176 100C170.657 100 165.636 97.9207 161.857 94.1426C158.079 90.3644 156 85.3431 156 80C156 74.6569 158.079 69.6356 161.857 65.8574C165.636 62.0793 170.657 60 176 60ZM176 83.0459C169.817 83.0459 164.588 87.7412 163.881 93.8271L163.849 94.1016L164.061 94.2788C167.295 96.9875 171.46 98.6218 176 98.6218C180.54 98.6218 184.706 96.9875 187.94 94.2788L188.151 94.1016L188.119 93.8261C187.803 91.11 186.576 88.5668 184.629 86.6196C182.325 84.3158 179.258 83.0459 176 83.0459ZM176 61.3782C165.731 61.3782 157.378 69.7314 157.378 80C157.378 84.6566 159.097 88.9196 161.931 92.1875L162.58 92.9347L162.817 91.9752C163.444 89.437 164.797 87.1236 166.746 85.3085C168.092 84.0547 169.655 83.1026 171.345 82.487L172.287 82.1434L171.457 81.5805C169.298 80.1178 167.879 77.6466 167.879 74.8518C167.879 70.3744 171.523 66.7308 176 66.7308C180.477 66.7308 184.121 70.3744 184.121 74.8518C184.121 77.645 182.704 80.1155 180.546 81.5785L179.716 82.1414L180.658 82.484C182.494 83.1527 184.178 84.2205 185.602 85.645C187.349 87.391 188.587 89.5805 189.182 91.9772L189.419 92.9357L190.067 92.1895C192.902 88.9216 194.622 84.6576 194.622 80C194.622 69.7314 186.269 61.3782 176 61.3782ZM176 68.109C172.282 68.109 169.257 71.1332 169.257 74.8518C169.257 78.3976 172.008 81.3106 175.487 81.5735V81.5956H176C179.718 81.5956 182.743 78.5702 182.743 74.8518C182.743 71.1332 179.718 68.109 176 68.109Z" fill="#232F6F"/>
<circle opacity="0.1" cx="242.14" cy="141.141" r="52.5" fill="white"/>
</g>
<path d="M228 60C233.343 60 238.364 62.0793 242.143 65.8574C245.921 69.6356 248 74.6569 248 80C248 85.3431 245.921 90.3644 242.143 94.1426C238.364 97.9207 233.343 100 228 100C222.657 100 217.636 97.9207 213.857 94.1426C210.079 90.3644 208 85.3431 208 80C208 74.6569 210.079 69.6356 213.857 65.8574C217.636 62.0793 222.657 60 228 60ZM228 83.0459C221.817 83.0459 216.588 87.7412 215.881 93.8271C215.861 93.9984 215.929 94.1683 216.061 94.2788C219.295 96.9875 223.46 98.6218 228 98.6218C232.54 98.6218 236.706 96.9875 239.94 94.2788C240.072 94.1682 240.139 93.9972 240.119 93.8261C239.803 91.11 238.576 88.5668 236.629 86.6196C234.325 84.3158 231.258 83.0459 228 83.0459ZM228 61.3782C217.731 61.3782 209.378 69.7314 209.378 80C209.378 84.6566 211.097 88.9196 213.931 92.1875C214.204 92.5014 214.717 92.3785 214.817 91.9752C215.444 89.437 216.797 87.1236 218.746 85.3085C220.092 84.0547 221.655 83.1026 223.345 82.487C223.738 82.3437 223.803 81.8153 223.457 81.5805C221.298 80.1178 219.879 77.6466 219.879 74.8518C219.879 70.3744 223.523 66.7308 228 66.7308C232.477 66.7308 236.121 70.3744 236.121 74.8518C236.121 77.645 234.704 80.1155 232.546 81.5785C232.2 81.8131 232.266 82.3412 232.658 82.484C234.494 83.1527 236.178 84.2205 237.602 85.645C239.349 87.391 240.587 89.5805 241.182 91.9772C241.282 92.3801 241.795 92.5032 242.067 92.1895C244.902 88.9216 246.622 84.6576 246.622 80C246.622 69.7314 238.269 61.3782 228 61.3782ZM228 68.109C224.282 68.109 221.257 71.1332 221.257 74.8518C221.257 78.394 224.002 81.3047 227.477 81.5727C227.483 81.5732 227.487 81.5781 227.487 81.5841C227.487 81.5904 227.492 81.5956 227.499 81.5956H228C231.718 81.5956 234.743 78.5702 234.743 74.8518C234.743 71.1332 231.718 68.109 228 68.109Z" fill="url(#paint5_linear_4899_3840)"/>
<path d="M280 60C285.343 60 290.364 62.0793 294.143 65.8574C297.921 69.6356 300 74.6569 300 80C300 85.3431 297.921 90.3644 294.143 94.1426C290.364 97.9207 285.343 100 280 100C274.657 100 269.636 97.9207 265.857 94.1426C262.079 90.3644 260 85.3431 260 80C260 74.6569 262.079 69.6356 265.857 65.8574C269.636 62.0793 274.657 60 280 60ZM280 83.0459C273.817 83.0459 268.588 87.7412 267.881 93.8271C267.861 93.9984 267.929 94.1683 268.061 94.2788C271.295 96.9875 275.46 98.6218 280 98.6218C284.54 98.6218 288.706 96.9875 291.94 94.2788C292.072 94.1682 292.139 93.9972 292.119 93.8261C291.803 91.11 290.576 88.5668 288.629 86.6196C286.325 84.3158 283.258 83.0459 280 83.0459ZM280 61.3782C269.731 61.3782 261.378 69.7314 261.378 80C261.378 84.6566 263.097 88.9196 265.931 92.1875C266.204 92.5014 266.717 92.3785 266.817 91.9752C267.444 89.437 268.797 87.1236 270.746 85.3085C272.092 84.0547 273.655 83.1026 275.345 82.487C275.738 82.3437 275.803 81.8153 275.457 81.5805C273.298 80.1178 271.879 77.6466 271.879 74.8518C271.879 70.3744 275.523 66.7308 280 66.7308C284.477 66.7308 288.121 70.3744 288.121 74.8518C288.121 77.645 286.704 80.1155 284.546 81.5785C284.2 81.8131 284.266 82.3412 284.658 82.484C286.494 83.1527 288.178 84.2205 289.602 85.645C291.349 87.391 292.587 89.5805 293.182 91.9772C293.282 92.3801 293.795 92.5032 294.067 92.1895C296.902 88.9216 298.622 84.6576 298.622 80C298.622 69.7314 290.269 61.3782 280 61.3782ZM280 68.109C276.282 68.109 273.257 71.1332 273.257 74.8518C273.257 78.394 276.002 81.3047 279.477 81.5727C279.483 81.5732 279.487 81.5781 279.487 81.5841C279.487 81.5904 279.492 81.5956 279.499 81.5956H280C283.718 81.5956 286.743 78.5702 286.743 74.8518C286.743 71.1332 283.718 68.109 280 68.109Z" fill="url(#paint6_linear_4899_3840)"/>
<g clip-path="url(#clip11_4899_3840)">
<path d="M332 60C337.343 60 342.364 62.0793 346.143 65.8574C349.921 69.6356 352 74.6569 352 80C352 85.3431 349.921 90.3644 346.143 94.1426C342.364 97.9207 337.343 100 332 100C326.657 100 321.636 97.9207 317.857 94.1426C314.079 90.3644 312 85.3431 312 80C312 74.6569 314.079 69.6356 317.857 65.8574C321.636 62.0793 326.657 60 332 60ZM332 83.0459C325.817 83.0459 320.588 87.7412 319.881 93.8271C319.861 93.9984 319.929 94.1683 320.061 94.2788C323.295 96.9875 327.46 98.6218 332 98.6218C336.54 98.6218 340.706 96.9875 343.94 94.2788C344.072 94.1682 344.139 93.9972 344.119 93.8261C343.803 91.11 342.576 88.5668 340.629 86.6196C338.325 84.3158 335.258 83.0459 332 83.0459ZM332 61.3782C321.731 61.3782 313.378 69.7314 313.378 80C313.378 84.6566 315.097 88.9196 317.931 92.1875C318.204 92.5014 318.717 92.3785 318.817 91.9752C319.444 89.437 320.797 87.1236 322.746 85.3085C324.092 84.0547 325.655 83.1026 327.345 82.487C327.738 82.3437 327.803 81.8153 327.457 81.5805C325.298 80.1178 323.879 77.6466 323.879 74.8518C323.879 70.3744 327.523 66.7308 332 66.7308C336.477 66.7308 340.121 70.3744 340.121 74.8518C340.121 77.645 338.704 80.1155 336.546 81.5785C336.2 81.8131 336.266 82.3412 336.658 82.484C338.494 83.1527 340.178 84.2205 341.602 85.645C343.349 87.391 344.587 89.5805 345.182 91.9772C345.282 92.3801 345.795 92.5032 346.067 92.1895C348.902 88.9216 350.622 84.6576 350.622 80C350.622 69.7314 342.269 61.3782 332 61.3782ZM332 68.109C328.282 68.109 325.257 71.1332 325.257 74.8518C325.257 78.394 328.002 81.3047 331.477 81.5727C331.483 81.5732 331.487 81.5781 331.487 81.5841C331.487 81.5904 331.492 81.5956 331.499 81.5956H332C335.718 81.5956 338.743 78.5702 338.743 74.8518C338.743 71.1332 335.718 68.109 332 68.109Z" fill="url(#paint7_linear_4899_3840)"/>
<circle opacity="0.1" cx="398.14" cy="141.141" r="52.5" fill="white"/>
</g>
<g clip-path="url(#clip12_4899_3840)">
<path d="M384 60C389.343 60 394.364 62.0793 398.143 65.8574C401.921 69.6356 404 74.6569 404 80C404 85.3431 401.921 90.3644 398.143 94.1426C394.364 97.9207 389.343 100 384 100C378.657 100 373.636 97.9207 369.857 94.1426C366.079 90.3644 364 85.3431 364 80C364 74.6569 366.079 69.6356 369.857 65.8574C373.636 62.0793 378.657 60 384 60ZM384 83.0459C377.817 83.0459 372.588 87.7412 371.881 93.8271L371.849 94.1016L372.061 94.2788C375.295 96.9875 379.46 98.6218 384 98.6218C388.54 98.6218 392.706 96.9875 395.94 94.2788L396.151 94.1016L396.119 93.8261C395.803 91.11 394.576 88.5668 392.629 86.6196C390.325 84.3158 387.258 83.0459 384 83.0459ZM384 61.3782C373.731 61.3782 365.378 69.7314 365.378 80C365.378 84.6566 367.097 88.9196 369.931 92.1875L370.58 92.9347L370.817 91.9752C371.444 89.437 372.797 87.1236 374.746 85.3085C376.092 84.0547 377.655 83.1026 379.345 82.487L380.287 82.1434L379.457 81.5805C377.298 80.1178 375.879 77.6466 375.879 74.8518C375.879 70.3744 379.523 66.7308 384 66.7308C388.477 66.7308 392.121 70.3744 392.121 74.8518C392.121 77.645 390.704 80.1155 388.546 81.5785L387.716 82.1414L388.658 82.484C390.494 83.1527 392.178 84.2205 393.602 85.645C395.349 87.391 396.587 89.5805 397.182 91.9772L397.419 92.9357L398.067 92.1895C400.902 88.9216 402.622 84.6576 402.622 80C402.622 69.7314 394.269 61.3782 384 61.3782ZM384 68.109C380.282 68.109 377.257 71.1332 377.257 74.8518C377.257 78.3976 380.008 81.3106 383.487 81.5735V81.5956H384C387.718 81.5956 390.743 78.5702 390.743 74.8518C390.743 71.1332 387.718 68.109 384 68.109Z" fill="#232F6F"/>
<circle opacity="0.1" cx="450.14" cy="141.141" r="52.5" fill="white"/>
</g>
<g clip-path="url(#clip13_4899_3840)">
<path d="M20 112C25.3431 112 30.3644 114.079 34.1426 117.857C37.9207 121.636 40 126.657 40 132C40 137.343 37.9207 142.364 34.1426 146.143C30.3644 149.921 25.3431 152 20 152C14.6569 152 9.63556 149.921 5.85737 146.143C2.07926 142.364 0 137.343 0 132C0 126.657 2.07934 121.636 5.85737 117.857C9.63556 114.079 14.6569 112 20 112ZM20 135.046C13.8169 135.046 8.58797 139.741 7.88061 145.827L7.84856 146.102L8.0609 146.279C11.2951 148.987 15.4602 150.622 20 150.622C24.5399 150.622 28.706 148.988 31.9401 146.279L32.1514 146.102L32.1194 145.826C31.8033 143.11 30.5757 140.567 28.6288 138.62C26.3245 136.316 23.2577 135.046 20 135.046ZM20 113.378C9.73144 113.378 1.37821 121.731 1.37821 132C1.37821 136.657 3.09689 140.92 5.93149 144.188L6.57953 144.935L6.81691 143.975C7.44405 141.437 8.79705 139.124 10.7462 137.308C12.092 136.055 13.6552 135.103 15.3446 134.487L16.2871 134.143L15.4567 133.581C13.2977 132.118 11.879 129.647 11.879 126.852C11.8792 122.374 15.5226 118.731 20 118.731C24.4774 118.731 28.1208 122.374 28.121 126.852C28.121 129.645 26.7036 132.116 24.5463 133.579L23.7159 134.141L24.6585 134.484C26.4939 135.153 28.1778 136.221 29.6024 137.645C31.3488 139.391 32.5869 141.58 33.1821 143.977L33.4195 144.936L34.0665 144.19C36.9022 140.922 38.6218 136.658 38.6218 132C38.6218 121.731 30.2686 113.378 20 113.378ZM20 120.109C16.2818 120.109 13.2574 123.133 13.2572 126.852C13.2572 130.398 16.0075 133.311 19.4872 133.574V133.596H20C23.7184 133.596 26.7428 130.57 26.7428 126.852C26.7426 123.133 23.7182 120.109 20 120.109Z" fill="#232F6F"/>
<circle opacity="0.1" cx="86.1396" cy="193.141" r="52.5" fill="white"/>
</g>
<g clip-path="url(#clip14_4899_3840)">
<path d="M72 112C77.3431 112 82.3644 114.079 86.1426 117.857C89.9207 121.636 92 126.657 92 132C92 137.343 89.9207 142.364 86.1426 146.143C82.3644 149.921 77.3431 152 72 152C66.6569 152 61.6356 149.921 57.8574 146.143C54.0793 142.364 52 137.343 52 132C52 126.657 54.0793 121.636 57.8574 117.857C61.6356 114.079 66.6569 112 72 112ZM72 135.046C65.8169 135.046 60.588 139.741 59.8806 145.827L59.8486 146.102L60.0609 146.279C63.2951 148.987 67.4602 150.622 72 150.622C76.5399 150.622 80.706 148.988 83.9401 146.279L84.1514 146.102L84.1194 145.826C83.8033 143.11 82.5757 140.567 80.6288 138.62C78.3245 136.316 75.2577 135.046 72 135.046ZM72 113.378C61.7314 113.378 53.3782 121.731 53.3782 132C53.3782 136.657 55.0969 140.92 57.9315 144.188L58.5795 144.935L58.8169 143.975C59.444 141.437 60.7971 139.124 62.7462 137.308C64.092 136.055 65.6552 135.103 67.3446 134.487L68.2871 134.143L67.4567 133.581C65.2977 132.118 63.879 129.647 63.879 126.852C63.8792 122.374 67.5226 118.731 72 118.731C76.4774 118.731 80.1208 122.374 80.121 126.852C80.121 129.645 78.7036 132.116 76.5463 133.579L75.7159 134.141L76.6585 134.484C78.4939 135.153 80.1778 136.221 81.6024 137.645C83.3488 139.391 84.5869 141.58 85.1821 143.977L85.4195 144.936L86.0665 144.19C88.9022 140.922 90.6218 136.658 90.6218 132C90.6218 121.731 82.2686 113.378 72 113.378ZM72 120.109C68.2818 120.109 65.2574 123.133 65.2572 126.852C65.2572 130.398 68.0075 133.311 71.4872 133.574V133.596H72C75.7184 133.596 78.7428 130.57 78.7428 126.852C78.7426 123.133 75.7182 120.109 72 120.109Z" fill="#232F6F"/>
<circle opacity="0.1" cx="138.14" cy="193.141" r="52.5" fill="white"/>
</g>
<g clip-path="url(#clip15_4899_3840)">
<path d="M124 112C129.343 112 134.364 114.079 138.143 117.857C141.921 121.636 144 126.657 144 132C144 137.343 141.921 142.364 138.143 146.143C134.364 149.921 129.343 152 124 152C118.657 152 113.636 149.921 109.857 146.143C106.079 142.364 104 137.343 104 132C104 126.657 106.079 121.636 109.857 117.857C113.636 114.079 118.657 112 124 112ZM124 135.046C117.817 135.046 112.588 139.741 111.881 145.827L111.849 146.102L112.061 146.279C115.295 148.987 119.46 150.622 124 150.622C128.54 150.622 132.706 148.988 135.94 146.279L136.151 146.102L136.119 145.826C135.803 143.11 134.576 140.567 132.629 138.62C130.325 136.316 127.258 135.046 124 135.046ZM124 113.378C113.731 113.378 105.378 121.731 105.378 132C105.378 136.657 107.097 140.92 109.931 144.188L110.58 144.935L110.817 143.975C111.444 141.437 112.797 139.124 114.746 137.308C116.092 136.055 117.655 135.103 119.345 134.487L120.287 134.143L119.457 133.581C117.298 132.118 115.879 129.647 115.879 126.852C115.879 122.374 119.523 118.731 124 118.731C128.477 118.731 132.121 122.374 132.121 126.852C132.121 129.645 130.704 132.116 128.546 133.579L127.716 134.141L128.658 134.484C130.494 135.153 132.178 136.221 133.602 137.645C135.349 139.391 136.587 141.58 137.182 143.977L137.419 144.936L138.067 144.19C140.902 140.922 142.622 136.658 142.622 132C142.622 121.731 134.269 113.378 124 113.378ZM124 120.109C120.282 120.109 117.257 123.133 117.257 126.852C117.257 130.398 120.008 133.311 123.487 133.574V133.596H124C127.718 133.596 130.743 130.57 130.743 126.852C130.743 123.133 127.718 120.109 124 120.109Z" fill="#232F6F"/>
<circle opacity="0.1" cx="190.14" cy="193.141" r="52.5" fill="white"/>
</g>
<g clip-path="url(#clip16_4899_3840)">
<path d="M176 112C181.343 112 186.364 114.079 190.143 117.857C193.921 121.636 196 126.657 196 132C196 137.343 193.921 142.364 190.143 146.143C186.364 149.921 181.343 152 176 152C170.657 152 165.636 149.921 161.857 146.143C158.079 142.364 156 137.343 156 132C156 126.657 158.079 121.636 161.857 117.857C165.636 114.079 170.657 112 176 112ZM176 135.046C169.817 135.046 164.588 139.741 163.881 145.827C163.861 145.998 163.929 146.168 164.061 146.279C167.295 148.987 171.46 150.622 176 150.622C180.54 150.622 184.706 148.987 187.94 146.279C188.072 146.168 188.139 145.997 188.119 145.826C187.803 143.11 186.576 140.567 184.629 138.62C182.325 136.316 179.258 135.046 176 135.046ZM176 113.378C165.731 113.378 157.378 121.731 157.378 132C157.378 136.657 159.097 140.92 161.931 144.187C162.204 144.501 162.717 144.379 162.817 143.975C163.444 141.437 164.797 139.124 166.746 137.308C168.092 136.055 169.655 135.103 171.345 134.487C171.738 134.344 171.803 133.815 171.457 133.581C169.298 132.118 167.879 129.647 167.879 126.852C167.879 122.374 171.523 118.731 176 118.731C180.477 118.731 184.121 122.374 184.121 126.852C184.121 129.645 182.704 132.116 180.546 133.579C180.2 133.813 180.266 134.341 180.658 134.484C182.494 135.153 184.178 136.221 185.602 137.645C187.349 139.391 188.587 141.58 189.182 143.977C189.282 144.38 189.795 144.503 190.067 144.19C192.902 140.922 194.622 136.658 194.622 132C194.622 121.731 186.269 113.378 176 113.378ZM176 120.109C172.282 120.109 169.257 123.133 169.257 126.852C169.257 130.394 172.002 133.305 175.477 133.573C175.483 133.573 175.487 133.578 175.487 133.584C175.487 133.59 175.492 133.596 175.499 133.596H176C179.718 133.596 182.743 130.57 182.743 126.852C182.743 123.133 179.718 120.109 176 120.109Z" fill="url(#paint8_linear_4899_3840)"/>
<circle opacity="0.1" cx="242.14" cy="193.141" r="52.5" fill="white"/>
</g>
<g clip-path="url(#clip17_4899_3840)">
<path d="M228 112C233.343 112 238.364 114.079 242.143 117.857C245.921 121.636 248 126.657 248 132C248 137.343 245.921 142.364 242.143 146.143C238.364 149.921 233.343 152 228 152C222.657 152 217.636 149.921 213.857 146.143C210.079 142.364 208 137.343 208 132C208 126.657 210.079 121.636 213.857 117.857C217.636 114.079 222.657 112 228 112ZM228 135.046C221.817 135.046 216.588 139.741 215.881 145.827C215.861 145.998 215.929 146.168 216.061 146.279C219.295 148.987 223.46 150.622 228 150.622C232.54 150.622 236.706 148.987 239.94 146.279C240.072 146.168 240.139 145.997 240.119 145.826C239.803 143.11 238.576 140.567 236.629 138.62C234.325 136.316 231.258 135.046 228 135.046ZM228 113.378C217.731 113.378 209.378 121.731 209.378 132C209.378 136.657 211.097 140.92 213.931 144.187C214.204 144.501 214.717 144.379 214.817 143.975C215.444 141.437 216.797 139.124 218.746 137.308C220.092 136.055 221.655 135.103 223.345 134.487C223.738 134.344 223.803 133.815 223.457 133.581C221.298 132.118 219.879 129.647 219.879 126.852C219.879 122.374 223.523 118.731 228 118.731C232.477 118.731 236.121 122.374 236.121 126.852C236.121 129.645 234.704 132.116 232.546 133.579C232.2 133.813 232.266 134.341 232.658 134.484C234.494 135.153 236.178 136.221 237.602 137.645C239.349 139.391 240.587 141.58 241.182 143.977C241.282 144.38 241.795 144.503 242.067 144.19C244.902 140.922 246.622 136.658 246.622 132C246.622 121.731 238.269 113.378 228 113.378ZM228 120.109C224.282 120.109 221.257 123.133 221.257 126.852C221.257 130.394 224.002 133.305 227.477 133.573C227.483 133.573 227.487 133.578 227.487 133.584C227.487 133.59 227.492 133.596 227.499 133.596H228C231.718 133.596 234.743 130.57 234.743 126.852C234.743 123.133 231.718 120.109 228 120.109Z" fill="url(#paint9_linear_4899_3840)"/>
<circle opacity="0.1" cx="294.14" cy="193.141" r="52.5" fill="white"/>
</g>
<g clip-path="url(#clip18_4899_3840)">
<path d="M280 112C285.343 112 290.364 114.079 294.143 117.857C297.921 121.636 300 126.657 300 132C300 137.343 297.921 142.364 294.143 146.143C290.364 149.921 285.343 152 280 152C274.657 152 269.636 149.921 265.857 146.143C262.079 142.364 260 137.343 260 132C260 126.657 262.079 121.636 265.857 117.857C269.636 114.079 274.657 112 280 112ZM280 135.046C273.817 135.046 268.588 139.741 267.881 145.827L267.849 146.102L268.061 146.279C271.295 148.987 275.46 150.622 280 150.622C284.54 150.622 288.706 148.988 291.94 146.279L292.151 146.102L292.119 145.826C291.803 143.11 290.576 140.567 288.629 138.62C286.325 136.316 283.258 135.046 280 135.046ZM280 113.378C269.731 113.378 261.378 121.731 261.378 132C261.378 136.657 263.097 140.92 265.931 144.188L266.58 144.935L266.817 143.975C267.444 141.437 268.797 139.124 270.746 137.308C272.092 136.055 273.655 135.103 275.345 134.487L276.287 134.143L275.457 133.581C273.298 132.118 271.879 129.647 271.879 126.852C271.879 122.374 275.523 118.731 280 118.731C284.477 118.731 288.121 122.374 288.121 126.852C288.121 129.645 286.704 132.116 284.546 133.579L283.716 134.141L284.658 134.484C286.494 135.153 288.178 136.221 289.602 137.645C291.349 139.391 292.587 141.58 293.182 143.977L293.419 144.936L294.067 144.19C296.902 140.922 298.622 136.658 298.622 132C298.622 121.731 290.269 113.378 280 113.378ZM280 120.109C276.282 120.109 273.257 123.133 273.257 126.852C273.257 130.398 276.008 133.311 279.487 133.574V133.596H280C283.718 133.596 286.743 130.57 286.743 126.852C286.743 123.133 283.718 120.109 280 120.109Z" fill="#232F6F"/>
<circle opacity="0.1" cx="346.14" cy="193.141" r="52.5" fill="white"/>
</g>
<g clip-path="url(#clip19_4899_3840)">
<path d="M332 112C337.343 112 342.364 114.079 346.143 117.857C349.921 121.636 352 126.657 352 132C352 137.343 349.921 142.364 346.143 146.143C342.364 149.921 337.343 152 332 152C326.657 152 321.636 149.921 317.857 146.143C314.079 142.364 312 137.343 312 132C312 126.657 314.079 121.636 317.857 117.857C321.636 114.079 326.657 112 332 112ZM332 135.046C325.817 135.046 320.588 139.741 319.881 145.827L319.849 146.102L320.061 146.279C323.295 148.987 327.46 150.622 332 150.622C336.54 150.622 340.706 148.988 343.94 146.279L344.151 146.102L344.119 145.826C343.803 143.11 342.576 140.567 340.629 138.62C338.325 136.316 335.258 135.046 332 135.046ZM332 113.378C321.731 113.378 313.378 121.731 313.378 132C313.378 136.657 315.097 140.92 317.931 144.188L318.58 144.935L318.817 143.975C319.444 141.437 320.797 139.124 322.746 137.308C324.092 136.055 325.655 135.103 327.345 134.487L328.287 134.143L327.457 133.581C325.298 132.118 323.879 129.647 323.879 126.852C323.879 122.374 327.523 118.731 332 118.731C336.477 118.731 340.121 122.374 340.121 126.852C340.121 129.645 338.704 132.116 336.546 133.579L335.716 134.141L336.658 134.484C338.494 135.153 340.178 136.221 341.602 137.645C343.349 139.391 344.587 141.58 345.182 143.977L345.419 144.936L346.067 144.19C348.902 140.922 350.622 136.658 350.622 132C350.622 121.731 342.269 113.378 332 113.378ZM332 120.109C328.282 120.109 325.257 123.133 325.257 126.852C325.257 130.398 328.008 133.311 331.487 133.574V133.596H332C335.718 133.596 338.743 130.57 338.743 126.852C338.743 123.133 335.718 120.109 332 120.109Z" fill="#232F6F"/>
<circle opacity="0.1" cx="398.14" cy="193.141" r="52.5" fill="white"/>
</g>
<g clip-path="url(#clip20_4899_3840)">
<path d="M384 112C389.343 112 394.364 114.079 398.143 117.857C401.921 121.636 404 126.657 404 132C404 137.343 401.921 142.364 398.143 146.143C394.364 149.921 389.343 152 384 152C378.657 152 373.636 149.921 369.857 146.143C366.079 142.364 364 137.343 364 132C364 126.657 366.079 121.636 369.857 117.857C373.636 114.079 378.657 112 384 112ZM384 135.046C377.817 135.046 372.588 139.741 371.881 145.827L371.849 146.102L372.061 146.279C375.295 148.987 379.46 150.622 384 150.622C388.54 150.622 392.706 148.988 395.94 146.279L396.151 146.102L396.119 145.826C395.803 143.11 394.576 140.567 392.629 138.62C390.325 136.316 387.258 135.046 384 135.046ZM384 113.378C373.731 113.378 365.378 121.731 365.378 132C365.378 136.657 367.097 140.92 369.931 144.188L370.58 144.935L370.817 143.975C371.444 141.437 372.797 139.124 374.746 137.308C376.092 136.055 377.655 135.103 379.345 134.487L380.287 134.143L379.457 133.581C377.298 132.118 375.879 129.647 375.879 126.852C375.879 122.374 379.523 118.731 384 118.731C388.477 118.731 392.121 122.374 392.121 126.852C392.121 129.645 390.704 132.116 388.546 133.579L387.716 134.141L388.658 134.484C390.494 135.153 392.178 136.221 393.602 137.645C395.349 139.391 396.587 141.58 397.182 143.977L397.419 144.936L398.067 144.19C400.902 140.922 402.622 136.658 402.622 132C402.622 121.731 394.269 113.378 384 113.378ZM384 120.109C380.282 120.109 377.257 123.133 377.257 126.852C377.257 130.398 380.008 133.311 383.487 133.574V133.596H384C387.718 133.596 390.743 130.57 390.743 126.852C390.743 123.133 387.718 120.109 384 120.109Z" fill="#232F6F"/>
<circle opacity="0.1" cx="450.14" cy="193.141" r="52.5" fill="white"/>
</g>
<g clip-path="url(#clip21_4899_3840)">
<path d="M20 164C25.3431 164 30.3644 166.079 34.1426 169.857C37.9207 173.636 40 178.657 40 184C40 189.343 37.9207 194.364 34.1426 198.143C30.3644 201.921 25.3431 204 20 204C14.6569 204 9.63556 201.921 5.85737 198.143C2.07926 194.364 0 189.343 0 184C0 178.657 2.07934 173.636 5.85737 169.857C9.63556 166.079 14.6569 164 20 164ZM20 187.046C13.8169 187.046 8.58797 191.741 7.88061 197.827L7.84856 198.102L8.0609 198.279C11.2951 200.987 15.4602 202.622 20 202.622C24.5399 202.622 28.706 200.988 31.9401 198.279L32.1514 198.102L32.1194 197.826C31.8033 195.11 30.5757 192.567 28.6288 190.62C26.3245 188.316 23.2577 187.046 20 187.046ZM20 165.378C9.73144 165.378 1.37821 173.731 1.37821 184C1.37821 188.657 3.09689 192.92 5.93149 196.188L6.57953 196.935L6.81691 195.975C7.44405 193.437 8.79705 191.124 10.7462 189.308C12.092 188.055 13.6552 187.103 15.3446 186.487L16.2871 186.143L15.4567 185.581C13.2977 184.118 11.879 181.647 11.879 178.852C11.8792 174.374 15.5226 170.731 20 170.731C24.4774 170.731 28.1208 174.374 28.121 178.852C28.121 181.645 26.7036 184.116 24.5463 185.579L23.7159 186.141L24.6585 186.484C26.4939 187.153 28.1778 188.221 29.6024 189.645C31.3488 191.391 32.5869 193.58 33.1821 195.977L33.4195 196.936L34.0665 196.19C36.9022 192.922 38.6218 188.658 38.6218 184C38.6218 173.731 30.2686 165.378 20 165.378ZM20 172.109C16.2818 172.109 13.2574 175.133 13.2572 178.852C13.2572 182.398 16.0075 185.311 19.4872 185.574V185.596H20C23.7184 185.596 26.7428 182.57 26.7428 178.852C26.7426 175.133 23.7182 172.109 20 172.109Z" fill="#232F6F"/>
</g>
<g clip-path="url(#clip22_4899_3840)">
<path d="M72 164C77.3431 164 82.3644 166.079 86.1426 169.857C89.9207 173.636 92 178.657 92 184C92 189.343 89.9207 194.364 86.1426 198.143C82.3644 201.921 77.3431 204 72 204C66.6569 204 61.6356 201.921 57.8574 198.143C54.0793 194.364 52 189.343 52 184C52 178.657 54.0793 173.636 57.8574 169.857C61.6356 166.079 66.6569 164 72 164ZM72 187.046C65.8169 187.046 60.588 191.741 59.8806 197.827L59.8486 198.102L60.0609 198.279C63.2951 200.987 67.4602 202.622 72 202.622C76.5399 202.622 80.706 200.988 83.9401 198.279L84.1514 198.102L84.1194 197.826C83.8033 195.11 82.5757 192.567 80.6288 190.62C78.3245 188.316 75.2577 187.046 72 187.046ZM72 165.378C61.7314 165.378 53.3782 173.731 53.3782 184C53.3782 188.657 55.0969 192.92 57.9315 196.188L58.5795 196.935L58.8169 195.975C59.444 193.437 60.7971 191.124 62.7462 189.308C64.092 188.055 65.6552 187.103 67.3446 186.487L68.2871 186.143L67.4567 185.581C65.2977 184.118 63.879 181.647 63.879 178.852C63.8792 174.374 67.5226 170.731 72 170.731C76.4774 170.731 80.1208 174.374 80.121 178.852C80.121 181.645 78.7036 184.116 76.5463 185.579L75.7159 186.141L76.6585 186.484C78.4939 187.153 80.1778 188.221 81.6024 189.645C83.3488 191.391 84.5869 193.58 85.1821 195.977L85.4195 196.936L86.0665 196.19C88.9022 192.922 90.6218 188.658 90.6218 184C90.6218 173.731 82.2686 165.378 72 165.378ZM72 172.109C68.2818 172.109 65.2574 175.133 65.2572 178.852C65.2572 182.398 68.0075 185.311 71.4872 185.574V185.596H72C75.7184 185.596 78.7428 182.57 78.7428 178.852C78.7426 175.133 75.7182 172.109 72 172.109Z" fill="#232F6F"/>
</g>
<g clip-path="url(#clip23_4899_3840)">
<path d="M124 164C129.343 164 134.364 166.079 138.143 169.857C141.921 173.636 144 178.657 144 184C144 189.343 141.921 194.364 138.143 198.143C134.364 201.921 129.343 204 124 204C118.657 204 113.636 201.921 109.857 198.143C106.079 194.364 104 189.343 104 184C104 178.657 106.079 173.636 109.857 169.857C113.636 166.079 118.657 164 124 164ZM124 187.046C117.817 187.046 112.588 191.741 111.881 197.827L111.849 198.102L112.061 198.279C115.295 200.987 119.46 202.622 124 202.622C128.54 202.622 132.706 200.988 135.94 198.279L136.151 198.102L136.119 197.826C135.803 195.11 134.576 192.567 132.629 190.62C130.325 188.316 127.258 187.046 124 187.046ZM124 165.378C113.731 165.378 105.378 173.731 105.378 184C105.378 188.657 107.097 192.92 109.931 196.188L110.58 196.935L110.817 195.975C111.444 193.437 112.797 191.124 114.746 189.308C116.092 188.055 117.655 187.103 119.345 186.487L120.287 186.143L119.457 185.581C117.298 184.118 115.879 181.647 115.879 178.852C115.879 174.374 119.523 170.731 124 170.731C128.477 170.731 132.121 174.374 132.121 178.852C132.121 181.645 130.704 184.116 128.546 185.579L127.716 186.141L128.658 186.484C130.494 187.153 132.178 188.221 133.602 189.645C135.349 191.391 136.587 193.58 137.182 195.977L137.419 196.936L138.067 196.19C140.902 192.922 142.622 188.658 142.622 184C142.622 173.731 134.269 165.378 124 165.378ZM124 172.109C120.282 172.109 117.257 175.133 117.257 178.852C117.257 182.398 120.008 185.311 123.487 185.574V185.596H124C127.718 185.596 130.743 182.57 130.743 178.852C130.743 175.133 127.718 172.109 124 172.109Z" fill="#232F6F"/>
</g>
<g clip-path="url(#clip24_4899_3840)">
<path d="M176 164C181.343 164 186.364 166.079 190.143 169.857C193.921 173.636 196 178.657 196 184C196 189.343 193.921 194.364 190.143 198.143C186.364 201.921 181.343 204 176 204C170.657 204 165.636 201.921 161.857 198.143C158.079 194.364 156 189.343 156 184C156 178.657 158.079 173.636 161.857 169.857C165.636 166.079 170.657 164 176 164ZM176 187.046C169.817 187.046 164.588 191.741 163.881 197.827L163.849 198.102L164.061 198.279C167.295 200.987 171.46 202.622 176 202.622C180.54 202.622 184.706 200.988 187.94 198.279L188.151 198.102L188.119 197.826C187.803 195.11 186.576 192.567 184.629 190.62C182.325 188.316 179.258 187.046 176 187.046ZM176 165.378C165.731 165.378 157.378 173.731 157.378 184C157.378 188.657 159.097 192.92 161.931 196.188L162.58 196.935L162.817 195.975C163.444 193.437 164.797 191.124 166.746 189.308C168.092 188.055 169.655 187.103 171.345 186.487L172.287 186.143L171.457 185.581C169.298 184.118 167.879 181.647 167.879 178.852C167.879 174.374 171.523 170.731 176 170.731C180.477 170.731 184.121 174.374 184.121 178.852C184.121 181.645 182.704 184.116 180.546 185.579L179.716 186.141L180.658 186.484C182.494 187.153 184.178 188.221 185.602 189.645C187.349 191.391 188.587 193.58 189.182 195.977L189.419 196.936L190.067 196.19C192.902 192.922 194.622 188.658 194.622 184C194.622 173.731 186.269 165.378 176 165.378ZM176 172.109C172.282 172.109 169.257 175.133 169.257 178.852C169.257 182.398 172.008 185.311 175.487 185.574V185.596H176C179.718 185.596 182.743 182.57 182.743 178.852C182.743 175.133 179.718 172.109 176 172.109Z" fill="#232F6F"/>
</g>
<g clip-path="url(#clip25_4899_3840)">
<path d="M228 164C233.343 164 238.364 166.079 242.143 169.857C245.921 173.636 248 178.657 248 184C248 189.343 245.921 194.364 242.143 198.143C238.364 201.921 233.343 204 228 204C222.657 204 217.636 201.921 213.857 198.143C210.079 194.364 208 189.343 208 184C208 178.657 210.079 173.636 213.857 169.857C217.636 166.079 222.657 164 228 164ZM228 187.046C221.817 187.046 216.588 191.741 215.881 197.827L215.849 198.102L216.061 198.279C219.295 200.987 223.46 202.622 228 202.622C232.54 202.622 236.706 200.988 239.94 198.279L240.151 198.102L240.119 197.826C239.803 195.11 238.576 192.567 236.629 190.62C234.325 188.316 231.258 187.046 228 187.046ZM228 165.378C217.731 165.378 209.378 173.731 209.378 184C209.378 188.657 211.097 192.92 213.931 196.188L214.58 196.935L214.817 195.975C215.444 193.437 216.797 191.124 218.746 189.308C220.092 188.055 221.655 187.103 223.345 186.487L224.287 186.143L223.457 185.581C221.298 184.118 219.879 181.647 219.879 178.852C219.879 174.374 223.523 170.731 228 170.731C232.477 170.731 236.121 174.374 236.121 178.852C236.121 181.645 234.704 184.116 232.546 185.579L231.716 186.141L232.658 186.484C234.494 187.153 236.178 188.221 237.602 189.645C239.349 191.391 240.587 193.58 241.182 195.977L241.419 196.936L242.067 196.19C244.902 192.922 246.622 188.658 246.622 184C246.622 173.731 238.269 165.378 228 165.378ZM228 172.109C224.282 172.109 221.257 175.133 221.257 178.852C221.257 182.398 224.008 185.311 227.487 185.574V185.596H228C231.718 185.596 234.743 182.57 234.743 178.852C234.743 175.133 231.718 172.109 228 172.109Z" fill="#232F6F"/>
</g>
<g clip-path="url(#clip26_4899_3840)">
<path d="M280 164C285.343 164 290.364 166.079 294.143 169.857C297.921 173.636 300 178.657 300 184C300 189.343 297.921 194.364 294.143 198.143C290.364 201.921 285.343 204 280 204C274.657 204 269.636 201.921 265.857 198.143C262.079 194.364 260 189.343 260 184C260 178.657 262.079 173.636 265.857 169.857C269.636 166.079 274.657 164 280 164ZM280 187.046C273.817 187.046 268.588 191.741 267.881 197.827L267.849 198.102L268.061 198.279C271.295 200.987 275.46 202.622 280 202.622C284.54 202.622 288.706 200.988 291.94 198.279L292.151 198.102L292.119 197.826C291.803 195.11 290.576 192.567 288.629 190.62C286.325 188.316 283.258 187.046 280 187.046ZM280 165.378C269.731 165.378 261.378 173.731 261.378 184C261.378 188.657 263.097 192.92 265.931 196.188L266.58 196.935L266.817 195.975C267.444 193.437 268.797 191.124 270.746 189.308C272.092 188.055 273.655 187.103 275.345 186.487L276.287 186.143L275.457 185.581C273.298 184.118 271.879 181.647 271.879 178.852C271.879 174.374 275.523 170.731 280 170.731C284.477 170.731 288.121 174.374 288.121 178.852C288.121 181.645 286.704 184.116 284.546 185.579L283.716 186.141L284.658 186.484C286.494 187.153 288.178 188.221 289.602 189.645C291.349 191.391 292.587 193.58 293.182 195.977L293.419 196.936L294.067 196.19C296.902 192.922 298.622 188.658 298.622 184C298.622 173.731 290.269 165.378 280 165.378ZM280 172.109C276.282 172.109 273.257 175.133 273.257 178.852C273.257 182.398 276.008 185.311 279.487 185.574V185.596H280C283.718 185.596 286.743 182.57 286.743 178.852C286.743 175.133 283.718 172.109 280 172.109Z" fill="#232F6F"/>
</g>
<g clip-path="url(#clip27_4899_3840)">
<path d="M332 164C337.343 164 342.364 166.079 346.143 169.857C349.921 173.636 352 178.657 352 184C352 189.343 349.921 194.364 346.143 198.143C342.364 201.921 337.343 204 332 204C326.657 204 321.636 201.921 317.857 198.143C314.079 194.364 312 189.343 312 184C312 178.657 314.079 173.636 317.857 169.857C321.636 166.079 326.657 164 332 164ZM332 187.046C325.817 187.046 320.588 191.741 319.881 197.827L319.849 198.102L320.061 198.279C323.295 200.987 327.46 202.622 332 202.622C336.54 202.622 340.706 200.988 343.94 198.279L344.151 198.102L344.119 197.826C343.803 195.11 342.576 192.567 340.629 190.62C338.325 188.316 335.258 187.046 332 187.046ZM332 165.378C321.731 165.378 313.378 173.731 313.378 184C313.378 188.657 315.097 192.92 317.931 196.188L318.58 196.935L318.817 195.975C319.444 193.437 320.797 191.124 322.746 189.308C324.092 188.055 325.655 187.103 327.345 186.487L328.287 186.143L327.457 185.581C325.298 184.118 323.879 181.647 323.879 178.852C323.879 174.374 327.523 170.731 332 170.731C336.477 170.731 340.121 174.374 340.121 178.852C340.121 181.645 338.704 184.116 336.546 185.579L335.716 186.141L336.658 186.484C338.494 187.153 340.178 188.221 341.602 189.645C343.349 191.391 344.587 193.58 345.182 195.977L345.419 196.936L346.067 196.19C348.902 192.922 350.622 188.658 350.622 184C350.622 173.731 342.269 165.378 332 165.378ZM332 172.109C328.282 172.109 325.257 175.133 325.257 178.852C325.257 182.398 328.008 185.311 331.487 185.574V185.596H332C335.718 185.596 338.743 182.57 338.743 178.852C338.743 175.133 335.718 172.109 332 172.109Z" fill="#232F6F"/>
</g>
<g clip-path="url(#clip28_4899_3840)">
<path d="M384 164C389.343 164 394.364 166.079 398.143 169.857C401.921 173.636 404 178.657 404 184C404 189.343 401.921 194.364 398.143 198.143C394.364 201.921 389.343 204 384 204C378.657 204 373.636 201.921 369.857 198.143C366.079 194.364 364 189.343 364 184C364 178.657 366.079 173.636 369.857 169.857C373.636 166.079 378.657 164 384 164ZM384 187.046C377.817 187.046 372.588 191.741 371.881 197.827L371.849 198.102L372.061 198.279C375.295 200.987 379.46 202.622 384 202.622C388.54 202.622 392.706 200.988 395.94 198.279L396.151 198.102L396.119 197.826C395.803 195.11 394.576 192.567 392.629 190.62C390.325 188.316 387.258 187.046 384 187.046ZM384 165.378C373.731 165.378 365.378 173.731 365.378 184C365.378 188.657 367.097 192.92 369.931 196.188L370.58 196.935L370.817 195.975C371.444 193.437 372.797 191.124 374.746 189.308C376.092 188.055 377.655 187.103 379.345 186.487L380.287 186.143L379.457 185.581C377.298 184.118 375.879 181.647 375.879 178.852C375.879 174.374 379.523 170.731 384 170.731C388.477 170.731 392.121 174.374 392.121 178.852C392.121 181.645 390.704 184.116 388.546 185.579L387.716 186.141L388.658 186.484C390.494 187.153 392.178 188.221 393.602 189.645C395.349 191.391 396.587 193.58 397.182 195.977L397.419 196.936L398.067 196.19C400.902 192.922 402.622 188.658 402.622 184C402.622 173.731 394.269 165.378 384 165.378ZM384 172.109C380.282 172.109 377.257 175.133 377.257 178.852C377.257 182.398 380.008 185.311 383.487 185.574V185.596H384C387.718 185.596 390.743 182.57 390.743 178.852C390.743 175.133 387.718 172.109 384 172.109Z" fill="#232F6F"/>
</g>
<circle cx="27" cy="157" r="17" fill="url(#paint10_linear_4899_3840)" stroke="#131313" stroke-width="2"/>
<path d="M27.0788 146C27.1122 146 27.1444 146.012 27.1692 146.035L27.8253 146.631C28.3398 147.099 28.8558 147.565 29.3643 148.039C32.6599 151.108 35.4499 154.562 37.55 158.538C37.658 158.741 37.7555 158.95 37.853 159.158L37.9598 159.385C37.9824 159.433 37.9636 159.49 37.917 159.515C37.8721 159.539 37.8161 159.526 37.7871 159.484L37.7165 159.381L37.4015 158.921L37.181 158.592C35.6524 156.316 34.1209 154.037 32.0179 152.214C31.3816 151.662 30.6794 151.194 29.9283 150.823C28.4073 150.077 27.0542 150.376 25.8932 151.6C24.7892 152.765 24.2162 154.211 23.6986 155.682C23.6311 155.871 23.5606 156.059 23.4901 156.247L23.4146 156.45C23.3881 156.521 23.3101 156.559 23.2378 156.535C23.1659 156.512 23.1253 156.435 23.1454 156.362C23.2816 155.87 23.4083 155.375 23.5351 154.879C23.8502 153.656 24.1652 152.433 24.6032 151.254C25.0682 149.999 25.6562 148.788 26.2427 147.577C26.4837 147.078 26.7247 146.58 26.9567 146.078C26.9787 146.031 27.0263 146 27.0788 146Z" fill="#131313"/>
<path d="M28.1718 161.113C28.1718 161.112 28.1713 161.112 28.1709 161.112C26.3708 161.986 22.6865 162.88 19.7543 163.163C18.1418 163.318 16.9742 162.086 17.3573 160.512C18.3596 156.394 21.2395 149.494 23.0055 147.645C23.0717 147.576 23.1646 147.647 23.1271 147.735C23.0636 147.893 22.9946 148.049 22.9201 148.202L22.8211 148.4C21.6811 150.65 20.5426 152.902 19.9591 155.37C19.7489 156.22 19.6342 157.092 19.6171 157.968C19.6021 160.03 20.8531 161.433 22.9426 161.521C23.9477 161.562 24.9632 161.455 25.9772 161.346C26.4182 161.299 26.8577 161.252 27.2972 161.216C27.4592 161.204 27.6182 161.184 27.8253 161.156L28.1712 161.113C28.1715 161.113 28.1718 161.113 28.1718 161.113Z" fill="#131313"/>
<path d="M21.2371 165.664C21.0064 165.682 21.0079 165.96 21.2392 165.969C26.0667 166.169 30.7512 165.386 35.3756 163.892C36.2873 163.598 36.6854 162.539 36.1615 161.737C34.4712 159.149 32.3777 156.991 30.0087 155.073C29.9017 154.986 29.8007 155.065 29.8863 155.173L29.9583 155.265C30.2133 155.613 30.4803 155.954 30.7488 156.296C31.3623 157.079 31.9759 157.862 32.4379 158.724C33.6049 160.909 32.9719 162.798 30.6858 163.795C29.1828 164.452 27.5402 164.9 25.9157 165.167C24.3707 165.42 22.8031 165.541 21.2371 165.664Z" fill="#131313"/>
<circle cx="67" cy="157" r="17" fill="url(#paint11_linear_4899_3840)" stroke="#131313" stroke-width="2"/>
<path d="M67.6003 147C67.3329 147 67.0572 147.008 66.7732 147.025C66.2218 147.058 65.637 147.15 65.0188 147.3C64.434 147.45 63.9327 147.617 63.515 147.8C62.8801 148.084 62.2368 148.451 61.5852 148.901C60.85 149.418 60.1984 150.044 59.6303 150.777C59.0622 151.511 58.6028 152.312 58.2519 153.179L58.1266 153.479C57.9762 153.846 57.8759 154.121 57.8258 154.304C57.6086 155.055 57.5 155.872 57.5 156.756C57.5 157.573 57.5752 158.349 57.7256 159.082C58.0931 160.75 58.7782 162.176 59.7807 163.36C60.6495 164.394 61.8108 165.294 63.2644 166.062C64.0664 166.479 64.9812 166.758 66.0088 166.9C67.0363 167.041 68.0764 167.033 69.1291 166.875C70.1817 166.716 71.1424 166.42 72.0113 165.987C73.515 165.219 74.7849 164.06 75.8208 162.509C76.3388 161.742 76.7398 160.908 77.0238 160.008C77.3413 159.007 77.5 157.973 77.5 156.906C77.5 155.955 77.3246 154.963 76.9737 153.929C76.6896 153.062 76.3053 152.253 75.8208 151.503C74.9687 150.152 73.8993 149.093 72.6128 148.326C71.1424 147.442 69.4716 147 67.6003 147ZM66.7481 151.753H68.1015C68.3688 151.753 68.6111 151.832 68.8283 151.991C69.0455 152.149 69.1959 152.353 69.2794 152.603L71.9361 160.608C72.053 160.942 72.0322 161.263 71.8734 161.571C71.7147 161.88 71.4766 162.084 71.1591 162.184C71.0255 162.218 70.8918 162.234 70.7581 162.234C70.4908 162.234 70.2485 162.159 70.0313 162.009C69.8141 161.859 69.6637 161.651 69.5802 161.384L69.4564 160.992C69.187 160.138 68.3952 159.558 67.5 159.558C66.6048 159.558 65.813 160.138 65.5436 160.992L65.4198 161.384C65.3363 161.634 65.1859 161.838 64.9687 161.997C64.7515 162.155 64.5092 162.234 64.2419 162.234C64.1082 162.234 63.9829 162.218 63.8659 162.184C63.5317 162.084 63.2853 161.884 63.1266 161.584C62.9678 161.284 62.9386 160.967 63.0388 160.633L65.5702 152.628C65.6537 152.362 65.8041 152.149 66.0213 151.991C66.2385 151.832 66.4808 151.753 66.7481 151.753Z" fill="#131313"/>
<circle cx="107" cy="157" r="17" fill="url(#paint12_linear_4899_3840)" stroke="#131313" stroke-width="2"/>
<path d="M109.731 149.592C109.731 148.406 108.478 147.639 107.422 148.178C106.89 148.449 106.555 148.995 106.555 149.592V161.555C106.555 163.366 104.912 164.816 103.287 164.018C102.316 163.541 101.554 162.956 101.003 162.263C100.452 161.57 100.176 160.819 100.176 160.009C100.176 159.254 100.426 158.538 100.924 157.864C101.423 157.189 102.114 156.618 102.998 156.15C103.644 155.808 104.348 155.538 105.111 155.34C105.608 155.211 105.977 154.778 105.977 154.264C105.977 153.63 105.423 153.134 104.8 153.253C103.564 153.488 102.426 153.86 101.384 154.368C100.019 155.034 98.9512 155.853 98.1812 156.825C97.3937 157.814 97 158.876 97 160.009C97 161.179 97.4287 162.277 98.2862 163.302C99.1087 164.292 100.246 165.115 101.699 165.772C102.854 166.294 104.114 166.66 105.48 166.869C106.18 166.977 106.892 166.837 107.53 166.528C108.876 165.876 109.731 164.511 109.731 163.016V149.592ZM111.46 153.26C110.838 153.139 110.282 153.632 110.282 154.265C110.282 154.777 110.653 155.209 111.149 155.336C111.761 155.491 112.332 155.693 112.863 155.942C113.185 156.093 113.186 156.533 112.879 156.712C112.514 156.926 112.6 157.477 113.013 157.569L115.853 158.206C116.912 158.443 117.894 157.577 117.791 156.496L117.683 155.37C117.623 154.738 116.928 154.381 116.379 154.7C116.1 154.861 115.757 154.854 115.476 154.696C114.288 154.03 112.949 153.551 111.46 153.26Z" fill="#131313"/>
</g>
<defs>
<linearGradient id="paint0_linear_4899_3840" x1="98" y1="3" x2="98" y2="105" gradientUnits="userSpaceOnUse">
<stop stop-color="#3FA1E3" stop-opacity="0.35"/>
<stop offset="0.605793" stop-color="#3FA1E3"/>
</linearGradient>
<linearGradient id="paint1_linear_4899_3840" x1="253.5" y1="54" x2="253.5" y2="156" gradientUnits="userSpaceOnUse">
<stop stop-color="#3FA1E3" stop-opacity="0.35"/>
<stop offset="0.605793" stop-color="#3FA1E3"/>
</linearGradient>
<linearGradient id="paint2_linear_4899_3840" x1="72" y1="8" x2="72" y2="48" gradientUnits="userSpaceOnUse">
<stop stop-color="#3FA1E3" stop-opacity="0.35"/>
<stop offset="0.605793" stop-color="#3FA1E3"/>
</linearGradient>
<linearGradient id="paint3_linear_4899_3840" x1="124" y1="8" x2="124" y2="48" gradientUnits="userSpaceOnUse">
<stop stop-color="#3FA1E3" stop-opacity="0.35"/>
<stop offset="0.605793" stop-color="#3FA1E3"/>
</linearGradient>
<linearGradient id="paint4_linear_4899_3840" x1="72" y1="60" x2="72" y2="100" gradientUnits="userSpaceOnUse">
<stop stop-color="#3FA1E3" stop-opacity="0.35"/>
<stop offset="0.605793" stop-color="#3FA1E3"/>
</linearGradient>
<linearGradient id="paint5_linear_4899_3840" x1="228" y1="60" x2="228" y2="100" gradientUnits="userSpaceOnUse">
<stop stop-color="#3FA1E3" stop-opacity="0.35"/>
<stop offset="0.605793" stop-color="#3FA1E3"/>
</linearGradient>
<linearGradient id="paint6_linear_4899_3840" x1="280" y1="60" x2="280" y2="100" gradientUnits="userSpaceOnUse">
<stop stop-color="#3FA1E3" stop-opacity="0.35"/>
<stop offset="0.605793" stop-color="#3FA1E3"/>
</linearGradient>
<linearGradient id="paint7_linear_4899_3840" x1="332" y1="60" x2="332" y2="100" gradientUnits="userSpaceOnUse">
<stop stop-color="#3FA1E3" stop-opacity="0.35"/>
<stop offset="0.605793" stop-color="#3FA1E3"/>
</linearGradient>
<linearGradient id="paint8_linear_4899_3840" x1="176" y1="112" x2="176" y2="152" gradientUnits="userSpaceOnUse">
<stop stop-color="#3FA1E3" stop-opacity="0.35"/>
<stop offset="0.605793" stop-color="#3FA1E3"/>
</linearGradient>
<linearGradient id="paint9_linear_4899_3840" x1="228" y1="112" x2="228" y2="152" gradientUnits="userSpaceOnUse">
<stop stop-color="#3FA1E3" stop-opacity="0.35"/>
<stop offset="0.605793" stop-color="#3FA1E3"/>
</linearGradient>
<linearGradient id="paint10_linear_4899_3840" x1="27" y1="141" x2="27" y2="173" gradientUnits="userSpaceOnUse">
<stop stop-color="#3FA1E3" stop-opacity="0.35"/>
<stop offset="0.605793" stop-color="#3FA1E3"/>
</linearGradient>
<linearGradient id="paint11_linear_4899_3840" x1="67" y1="141" x2="67" y2="173" gradientUnits="userSpaceOnUse">
<stop stop-color="#3FA1E3" stop-opacity="0.35"/>
<stop offset="0.605793" stop-color="#3FA1E3"/>
</linearGradient>
<linearGradient id="paint12_linear_4899_3840" x1="107" y1="141" x2="107" y2="173" gradientUnits="userSpaceOnUse">
<stop stop-color="#3FA1E3" stop-opacity="0.35"/>
<stop offset="0.605793" stop-color="#3FA1E3"/>
</linearGradient>
<clipPath id="clip0_4899_3840">
<rect width="404" height="180" fill="white"/>
</clipPath>
<clipPath id="clip1_4899_3840">
<rect width="40" height="40" fill="white" transform="translate(0 8)"/>
</clipPath>
<clipPath id="clip2_4899_3840">
<rect width="40" height="40" fill="white" transform="translate(52 8)"/>
</clipPath>
<clipPath id="clip3_4899_3840">
<rect width="40" height="40" fill="white" transform="translate(156 8)"/>
</clipPath>
<clipPath id="clip4_4899_3840">
<rect width="40" height="40" fill="white" transform="translate(208 8)"/>
</clipPath>
<clipPath id="clip5_4899_3840">
<rect width="40" height="40" fill="white" transform="translate(260 8)"/>
</clipPath>
<clipPath id="clip6_4899_3840">
<rect width="40" height="40" fill="white" transform="translate(312 8)"/>
</clipPath>
<clipPath id="clip7_4899_3840">
<rect width="40" height="40" fill="white" transform="translate(364 8)"/>
</clipPath>
<clipPath id="clip8_4899_3840">
<rect width="40" height="40" fill="white" transform="translate(0 60)"/>
</clipPath>
<clipPath id="clip9_4899_3840">
<rect width="40" height="40" fill="white" transform="translate(104 60)"/>
</clipPath>
<clipPath id="clip10_4899_3840">
<rect width="40" height="40" fill="white" transform="translate(156 60)"/>
</clipPath>
<clipPath id="clip11_4899_3840">
<rect width="40" height="40" fill="white" transform="translate(312 60)"/>
</clipPath>
<clipPath id="clip12_4899_3840">
<rect width="40" height="40" fill="white" transform="translate(364 60)"/>
</clipPath>
<clipPath id="clip13_4899_3840">
<rect width="40" height="40" fill="white" transform="translate(0 112)"/>
</clipPath>
<clipPath id="clip14_4899_3840">
<rect width="40" height="40" fill="white" transform="translate(52 112)"/>
</clipPath>
<clipPath id="clip15_4899_3840">
<rect width="40" height="40" fill="white" transform="translate(104 112)"/>
</clipPath>
<clipPath id="clip16_4899_3840">
<rect width="40" height="40" fill="white" transform="translate(156 112)"/>
</clipPath>
<clipPath id="clip17_4899_3840">
<rect width="40" height="40" fill="white" transform="translate(208 112)"/>
</clipPath>
<clipPath id="clip18_4899_3840">
<rect width="40" height="40" fill="white" transform="translate(260 112)"/>
</clipPath>
<clipPath id="clip19_4899_3840">
<rect width="40" height="40" fill="white" transform="translate(312 112)"/>
</clipPath>
<clipPath id="clip20_4899_3840">
<rect width="40" height="40" fill="white" transform="translate(364 112)"/>
</clipPath>
<clipPath id="clip21_4899_3840">
<rect width="40" height="40" fill="white" transform="translate(0 164)"/>
</clipPath>
<clipPath id="clip22_4899_3840">
<rect width="40" height="40" fill="white" transform="translate(52 164)"/>
</clipPath>
<clipPath id="clip23_4899_3840">
<rect width="40" height="40" fill="white" transform="translate(104 164)"/>
</clipPath>
<clipPath id="clip24_4899_3840">
<rect width="40" height="40" fill="white" transform="translate(156 164)"/>
</clipPath>
<clipPath id="clip25_4899_3840">
<rect width="40" height="40" fill="white" transform="translate(208 164)"/>
</clipPath>
<clipPath id="clip26_4899_3840">
<rect width="40" height="40" fill="white" transform="translate(260 164)"/>
</clipPath>
<clipPath id="clip27_4899_3840">
<rect width="40" height="40" fill="white" transform="translate(312 164)"/>
</clipPath>
<clipPath id="clip28_4899_3840">
<rect width="40" height="40" fill="white" transform="translate(364 164)"/>
</clipPath>
</defs>
</svg>
