<svg width="480" height="400" viewBox="0 0 480 400" fill="none" xmlns="http://www.w3.org/2000/svg">
<g opacity="0.4" filter="url(#filter0_f_4831_16768)">
<path d="M218.929 201.267C223.534 193.196 235.169 193.196 239.774 201.267L267.611 250.053C272.176 258.053 266.399 268 257.188 268H201.514C192.304 268 186.527 258.053 191.092 250.053L218.929 201.267Z" fill="#3FA1E3"/>
</g>
<path d="M219.858 68.5615C224.269 60.8155 235.434 60.8155 239.844 68.5615L379.203 313.31C383.568 320.976 378.032 330.5 369.21 330.5H90.4929C81.6708 330.5 76.1345 320.976 80.4998 313.31L219.858 68.5615Z" stroke="#232F6F"/>
<path d="M219.848 118.645C224.255 110.877 235.448 110.877 239.854 118.645L337.25 290.325C341.599 297.992 336.061 307.5 327.247 307.5H132.456C123.642 307.5 118.104 297.992 122.453 290.325L219.848 118.645Z" stroke="#232F6F"/>
<path d="M219.364 163.501C223.778 155.77 234.925 155.77 239.339 163.501L299.17 268.298C303.547 275.964 298.01 285.5 289.182 285.5H169.52C160.692 285.5 155.156 275.964 159.533 268.298L219.364 163.501Z" stroke="#232F6F"/>
<rect opacity="0.4" x="310" y="249" width="121" height="121" rx="60.5" fill="url(#paint0_radial_4831_16768)"/>
<rect opacity="0.4" x="34" y="249" width="121" height="121" rx="60.5" fill="url(#paint1_radial_4831_16768)"/>
<rect opacity="0.4" x="170" y="30" width="121" height="121" rx="60.5" fill="url(#paint2_radial_4831_16768)"/>
<rect x="302.5" y="241.5" width="136" height="136" rx="68" stroke="#232F6F"/>
<rect x="26.5" y="241.5" width="136" height="136" rx="68" stroke="#232F6F"/>
<rect x="162.5" y="22.5" width="136" height="136" rx="68" stroke="#232F6F"/>
<path d="M230.421 48C229.298 48 228.14 48.0354 226.947 48.1063C224.632 48.2481 222.175 48.6379 219.579 49.2758C217.123 49.9137 215.018 50.6224 213.263 51.4021C210.596 52.607 207.895 54.1662 205.158 56.0799C202.07 58.2771 199.333 60.9349 196.947 64.0535C194.561 67.1721 192.632 70.5741 191.158 74.2597L190.632 75.5355C190 77.0948 189.579 78.2642 189.368 79.0439C188.456 82.2333 188 85.7062 188 89.4627C188 92.9356 188.316 96.2314 188.947 99.35C190.491 106.438 193.368 112.498 197.579 117.53C201.228 121.924 206.105 125.751 212.211 129.012C215.579 130.784 219.421 131.971 223.737 132.573C228.053 133.176 232.421 133.14 236.842 132.467C241.263 131.794 245.298 130.536 248.947 128.693C255.263 125.432 260.596 120.507 264.947 113.915C267.123 110.655 268.807 107.111 270 103.284C271.333 99.031 272 94.6367 272 90.1006C272 86.0606 271.263 81.8435 269.789 77.4491C268.596 73.7636 266.982 70.3261 264.947 67.1366C261.368 61.3956 256.877 56.895 251.474 53.6347C245.298 49.8782 238.281 48 230.421 48ZM226.842 68.1998H232.526C233.649 68.1998 234.667 68.5364 235.579 69.2098C236.491 69.8831 237.123 70.7513 237.474 71.8145L248.632 105.835C249.123 107.253 249.035 108.617 248.368 109.928C247.702 111.239 246.702 112.108 245.368 112.533C244.807 112.675 244.246 112.746 243.684 112.746C242.561 112.746 241.544 112.427 240.632 111.789C239.719 111.151 239.088 110.265 238.737 109.131L237.849 106.285C236.937 103.361 234.23 101.37 231.167 101.37H228.833C225.77 101.37 223.063 103.361 222.151 106.285L221.263 109.131C220.912 110.194 220.281 111.062 219.368 111.736C218.456 112.409 217.439 112.746 216.316 112.746C215.754 112.746 215.228 112.675 214.737 112.533C213.333 112.108 212.298 111.257 211.632 109.981C210.965 108.706 210.842 107.359 211.263 105.941L221.895 71.9208C222.246 70.7868 222.877 69.8831 223.789 69.2098C224.702 68.5364 225.719 68.1998 226.842 68.1998Z" fill="url(#paint3_linear_4831_16768)"/>
<path d="M95.3559 268C95.4861 268 95.6117 268.048 95.7087 268.135L98.27 270.429C100.279 272.229 102.294 274.024 104.28 275.849C117.148 287.666 128.043 300.964 136.243 316.27C136.665 317.052 137.045 317.857 137.426 318.657L137.84 319.524C137.929 319.712 137.856 319.937 137.672 320.035C137.498 320.127 137.283 320.075 137.17 319.914L136.893 319.516L135.663 317.745L134.802 316.477C128.833 307.717 122.853 298.944 114.641 291.925C112.157 289.798 109.415 287.998 106.482 286.57C100.543 283.697 95.2594 284.846 90.7258 289.561C86.4149 294.045 84.1774 299.613 82.1566 305.276C81.8931 306.005 81.6178 306.727 81.3425 307.45L81.0479 308.231C80.9439 308.507 80.6418 308.652 80.3615 308.562C80.0787 308.47 79.9192 308.171 79.9994 307.885C80.5297 305.993 81.024 304.091 81.5182 302.184C82.7482 297.475 83.9782 292.766 85.6886 288.228C87.5043 283.395 89.8004 278.733 92.0906 274.072C93.0309 272.153 93.9713 270.234 94.8765 268.305C94.9637 268.119 95.1505 268 95.3559 268Z" fill="url(#paint4_linear_4831_16768)"/>
<path d="M99.6231 326.184C99.6231 326.182 99.6213 326.181 99.6198 326.181C91.4137 330.11 73.1804 334.144 61.299 334.414C58.2197 334.484 55.8516 332.123 56.3208 329.078C58.5384 314.692 71.7298 282.295 79.4551 274.328C79.7135 274.061 80.0719 274.341 79.925 274.682C79.6769 275.289 79.4073 275.888 79.1167 276.476L78.7301 277.241C74.2786 285.901 69.8329 294.572 67.5544 304.074C66.7339 307.346 66.2858 310.703 66.219 314.078C66.1604 322.016 71.0454 327.418 79.2046 327.755C83.1289 327.915 87.0943 327.501 91.0539 327.08C92.7759 326.902 94.4921 326.719 96.2083 326.583C96.8409 326.535 97.4617 326.458 98.27 326.352L99.621 326.186C99.6222 326.186 99.6231 326.185 99.6231 326.184Z" fill="url(#paint5_linear_4831_16768)"/>
<path d="M72.5448 343.707C71.6554 343.776 71.6614 344.846 72.5527 344.882C91.4083 345.65 109.705 342.633 127.767 336.88C131.305 335.753 132.847 331.643 130.795 328.548C124.198 318.599 116.03 310.304 106.789 302.924C106.372 302.591 105.983 302.899 106.318 303.315L106.599 303.671C107.595 305.009 108.637 306.324 109.686 307.639C112.082 310.654 114.477 313.669 116.281 316.987C120.838 325.398 118.366 332.672 109.44 336.51C103.571 339.039 97.1572 340.763 90.8137 341.794C84.7807 342.765 78.6599 343.233 72.5448 343.707Z" fill="url(#paint6_linear_4831_16768)"/>
<path d="M379.894 278.679C379.894 274.235 375.214 271.347 371.241 273.339C369.221 274.352 367.945 276.419 367.945 278.679V327.526C367.945 331.756 364.184 335.087 360.163 333.775C358.59 333.261 357.086 332.658 355.651 331.965C351.997 330.201 349.133 328.037 347.059 325.474C344.986 322.91 343.949 320.131 343.949 317.135C343.949 314.339 344.887 311.692 346.763 309.196C348.639 306.699 351.24 304.585 354.564 302.854C357.006 301.583 359.67 300.581 362.555 299.848C364.4 299.38 365.773 297.772 365.773 295.868C365.773 293.525 363.727 291.691 361.423 292.12C356.744 292.991 352.433 294.372 348.491 296.263C343.356 298.726 339.34 301.756 336.444 305.351C333.481 309.013 332 312.941 332 317.135C332 321.462 333.613 325.524 336.839 329.318C339.933 332.98 344.212 336.026 349.676 338.456C354.62 340.655 360.075 342.104 366.042 342.804C367.286 342.95 368.541 342.716 369.672 342.177L375.904 339.208C378.341 338.047 379.894 335.588 379.894 332.889V278.679ZM386.317 292.147C384.019 291.708 381.968 293.532 381.968 295.872C381.968 297.771 383.342 299.372 385.185 299.831C387.503 300.408 389.666 301.159 391.674 302.086C392.874 302.639 392.881 304.277 391.736 304.936C390.376 305.719 390.691 307.765 392.223 308.103L403.015 310.482C406.957 311.35 410.6 308.121 410.209 304.103L409.814 300.041C409.583 297.658 406.972 296.306 404.893 297.493C403.848 298.09 402.566 298.062 401.512 297.48C397.019 295.001 391.954 293.224 386.317 292.147Z" fill="url(#paint7_linear_4831_16768)"/>
<path d="M229 259L228.281 258.821C209.418 251.108 211.035 226.713 211.035 226.354L211.214 224.74H212.831C221.095 224.74 227.922 219.717 227.922 219.717L229 219L230.078 219.717C230.078 219.717 236.905 224.74 245.169 224.74H246.786L246.965 226.354C246.965 226.534 248.582 251.108 229.719 258.641L229 259ZM214.628 228.327C214.628 233.35 215.706 249.314 229 255.233C242.294 249.493 243.372 233.529 243.372 228.327C236.725 227.789 231.156 224.74 229 223.305C226.844 224.74 221.275 227.789 214.628 228.327Z" fill="#3FA1E3"/>
<path d="M229 251.646C217.143 246.623 218.221 230.3 218.221 230.3C224.149 230.3 229 226.534 229 226.534C229 226.534 233.851 230.3 239.779 230.3C239.779 230.3 240.857 246.623 229 251.646Z" fill="#3FA1E3"/>
<defs>
<filter id="filter0_f_4831_16768" x="165.497" y="171.213" width="127.709" height="120.787" filterUnits="userSpaceOnUse" color-interpolation-filters="sRGB">
<feFlood flood-opacity="0" result="BackgroundImageFix"/>
<feBlend mode="normal" in="SourceGraphic" in2="BackgroundImageFix" result="shape"/>
<feGaussianBlur stdDeviation="12" result="effect1_foregroundBlur_4831_16768"/>
</filter>
<radialGradient id="paint0_radial_4831_16768" cx="0" cy="0" r="1" gradientUnits="userSpaceOnUse" gradientTransform="translate(370.5 309.5) rotate(90) scale(60.5)">
<stop offset="0.480792" stop-color="#232F6F" stop-opacity="0"/>
<stop offset="1" stop-color="#232F6F"/>
</radialGradient>
<radialGradient id="paint1_radial_4831_16768" cx="0" cy="0" r="1" gradientUnits="userSpaceOnUse" gradientTransform="translate(94.5 309.5) rotate(90) scale(60.5)">
<stop offset="0.480792" stop-color="#232F6F" stop-opacity="0"/>
<stop offset="1" stop-color="#232F6F"/>
</radialGradient>
<radialGradient id="paint2_radial_4831_16768" cx="0" cy="0" r="1" gradientUnits="userSpaceOnUse" gradientTransform="translate(230.5 90.5) rotate(90) scale(60.5)">
<stop offset="0.480792" stop-color="#232F6F" stop-opacity="0"/>
<stop offset="1" stop-color="#232F6F"/>
</radialGradient>
<linearGradient id="paint3_linear_4831_16768" x1="230" y1="48" x2="230" y2="133" gradientUnits="userSpaceOnUse">
<stop stop-color="#3FA1E3" stop-opacity="0.35"/>
<stop offset="0.605793" stop-color="#3FA1E3"/>
</linearGradient>
<linearGradient id="paint4_linear_4831_16768" x1="97" y1="268" x2="97" y2="345" gradientUnits="userSpaceOnUse">
<stop stop-color="#3FA1E3" stop-opacity="0.35"/>
<stop offset="0.605793" stop-color="#3FA1E3"/>
</linearGradient>
<linearGradient id="paint5_linear_4831_16768" x1="97" y1="268" x2="97" y2="345" gradientUnits="userSpaceOnUse">
<stop stop-color="#3FA1E3" stop-opacity="0.35"/>
<stop offset="0.605793" stop-color="#3FA1E3"/>
</linearGradient>
<linearGradient id="paint6_linear_4831_16768" x1="97" y1="268" x2="97" y2="345" gradientUnits="userSpaceOnUse">
<stop stop-color="#3FA1E3" stop-opacity="0.35"/>
<stop offset="0.605793" stop-color="#3FA1E3"/>
</linearGradient>
<linearGradient id="paint7_linear_4831_16768" x1="371.5" y1="269" x2="371.5" y2="343" gradientUnits="userSpaceOnUse">
<stop stop-color="#3FA1E3" stop-opacity="0.35"/>
<stop offset="0.605793" stop-color="#3FA1E3"/>
</linearGradient>
</defs>
</svg>
