<svg width="480" height="400" viewBox="0 0 480 400" fill="none" xmlns="http://www.w3.org/2000/svg">
<g clip-path="url(#clip0_4952_2714)">
<rect x="38" y="236" width="400" height="215" rx="32" stroke="#232F6F"/>
<rect opacity="0.4" x="42" y="240" width="392" height="209" rx="28" fill="url(#paint0_radial_4952_2714)"/>
<rect x="98.5" y="302.5" width="87" height="87" rx="29.5" stroke="#232F6F"/>
<rect x="194.5" y="302.5" width="87" height="87" rx="29.5" stroke="#232F6F"/>
<rect x="290.5" y="302.5" width="87" height="87" rx="29.5" stroke="#232F6F"/>
<rect opacity="0.2" x="103" y="307" width="78" height="78" rx="25" fill="url(#paint1_radial_4952_2714)"/>
<rect opacity="0.2" x="199" y="307" width="78" height="78" rx="25" fill="url(#paint2_radial_4952_2714)"/>
<rect opacity="0.2" x="295" y="307" width="78" height="78" rx="25" fill="url(#paint3_radial_4952_2714)"/>
<path d="M140.738 363C140.288 363 139.846 362.884 139.453 362.664L134.359 359.835C131.827 358.427 129.716 356.367 128.247 353.87C126.777 351.373 126.001 348.528 126 345.63V337.776C126 337.122 126.242 336.492 126.68 336.007C127.118 335.521 127.72 335.216 128.37 335.149C130.397 334.934 132.392 334.483 134.314 333.805C136.076 333.182 137.767 332.372 139.357 331.389C139.772 331.135 140.251 331 140.738 331C141.226 331 141.704 331.135 142.12 331.389C143.71 332.372 145.4 333.182 147.163 333.805C149.085 334.483 151.079 334.934 153.106 335.149C153.756 335.216 154.359 335.521 154.796 336.007C155.234 336.492 155.476 337.122 155.476 337.776V345.63C155.475 348.528 154.7 351.373 153.23 353.87C151.76 356.367 149.65 358.427 147.117 359.835L142.023 362.666C141.63 362.885 141.188 363 140.738 363ZM140.738 333.267C140.672 333.266 140.606 333.284 140.549 333.318C138.821 334.386 136.984 335.266 135.07 335.944C132.981 336.681 130.813 337.171 128.611 337.404C128.517 337.412 128.43 337.455 128.366 337.524C128.303 337.593 128.267 337.683 128.267 337.777V345.632C128.268 348.125 128.935 350.573 130.2 352.722C131.464 354.871 133.28 356.643 135.46 357.854L140.554 360.684C140.61 360.716 140.673 360.732 140.737 360.732C140.801 360.732 140.864 360.716 140.92 360.684L146.017 357.854C148.196 356.643 150.012 354.871 151.276 352.722C152.541 350.573 153.208 348.125 153.209 345.632V337.776C153.209 337.682 153.174 337.591 153.11 337.522C153.047 337.453 152.959 337.41 152.866 337.402C150.663 337.169 148.495 336.679 146.407 335.942C144.492 335.266 142.655 334.386 140.927 333.32C140.87 333.285 140.805 333.266 140.738 333.267Z" fill="#3FA1E3"/>
<path d="M139.982 350.367C139.704 350.367 139.436 350.265 139.229 350.08L135.828 347.057C135.617 346.853 135.493 346.577 135.482 346.284C135.471 345.991 135.573 345.706 135.768 345.487C135.962 345.268 136.234 345.133 136.526 345.11C136.818 345.087 137.107 345.178 137.334 345.364L139.91 347.652L144.824 342.411C144.925 342.3 145.047 342.21 145.184 342.147C145.32 342.084 145.467 342.048 145.617 342.042C145.768 342.036 145.918 342.06 146.058 342.112C146.199 342.165 146.328 342.245 146.438 342.348C146.547 342.451 146.635 342.574 146.697 342.711C146.758 342.848 146.792 342.996 146.796 343.147C146.799 343.297 146.773 343.446 146.718 343.586C146.664 343.726 146.582 343.854 146.478 343.962L140.809 350.009C140.703 350.122 140.575 350.212 140.433 350.274C140.291 350.336 140.137 350.367 139.982 350.367Z" fill="#3FA1E3"/>
<path d="M235.828 334.114C239.98 329.962 246.734 329.962 250.886 334.114C254.908 338.136 255.034 344.6 251.263 348.775L250.886 349.172C248.181 351.879 244.325 352.828 240.703 351.86L238.835 353.706C238.493 354.045 238.032 354.235 237.55 354.235H236.879V354.938L236.868 355.13C236.847 355.32 236.797 355.507 236.718 355.683C236.613 355.917 236.46 356.127 236.268 356.298L236.266 356.3C235.892 356.632 235.378 356.814 234.844 356.748L234.458 356.703L234.374 357.603C234.334 358.026 234.148 358.422 233.848 358.722C233.548 359.022 233.152 359.207 232.729 359.246L231.828 359.332L231.874 359.718C231.905 359.991 231.876 360.268 231.786 360.527C231.695 360.786 231.547 361.023 231.353 361.217L230.104 362.466C229.763 362.807 229.299 363 228.815 363H223.824C222.816 363 222 362.184 222 361.176V356.185C222 355.945 222.047 355.708 222.138 355.487L222.216 355.325C222.3 355.167 222.407 355.022 222.534 354.895L233.071 344.357C232.111 340.721 233.131 336.811 235.828 334.114ZM249.555 335.445C246.138 332.028 240.576 332.028 237.159 335.445C234.826 337.778 234.015 341.219 235.026 344.341L235.203 344.889L234.795 345.295L223.882 356.208V361.118H228.79L230 359.906L229.739 357.638L232.504 357.377L232.675 355.569L232.765 354.612L233.721 354.723L234.996 354.87V352.353H237.524L240.183 349.732L240.727 349.907C243.858 350.922 247.229 350.168 249.555 347.841C252.972 344.424 252.972 338.862 249.555 335.445ZM243.316 336.61C244.716 335.211 246.99 335.211 248.39 336.61C249.789 338.01 249.789 340.284 248.39 341.684C246.99 343.084 244.716 343.084 243.316 341.684C241.916 340.284 241.916 338.01 243.316 336.61ZM247.059 337.941C246.394 337.277 245.312 337.277 244.647 337.941C243.982 338.606 243.982 339.688 244.647 340.353C245.312 341.018 246.394 341.018 247.059 340.353C247.723 339.688 247.723 338.606 247.059 337.941Z" fill="#3FA1E3"/>
<path fill-rule="evenodd" clip-rule="evenodd" d="M332.994 359.298H320.269C320.19 359.298 320.114 359.267 320.058 359.211C320.002 359.155 319.971 359.08 319.971 359.001V356.841C319.971 355.606 320.854 354.516 322.214 353.591C324.643 351.932 328.574 350.888 332.994 350.888C333.29 350.888 333.574 350.77 333.784 350.561C333.993 350.351 334.111 350.067 334.111 349.771C334.111 349.475 333.993 349.191 333.784 348.982C333.574 348.773 333.29 348.655 332.994 348.655C328.05 348.655 323.673 349.892 320.955 351.745C318.882 353.159 317.739 354.955 317.739 356.841V359.001C317.739 359.672 318.005 360.315 318.48 360.79C318.954 361.264 319.598 361.531 320.269 361.531H332.994C333.29 361.531 333.574 361.413 333.784 361.204C333.993 360.995 334.111 360.711 334.111 360.415C334.111 360.119 333.993 359.835 333.784 359.625C333.574 359.416 333.29 359.298 332.994 359.298ZM332.994 331C328.476 331 324.808 334.667 324.808 339.186C324.808 343.705 328.476 347.372 332.994 347.372C337.513 347.372 341.18 343.705 341.18 339.186C341.18 334.667 337.513 331 332.994 331ZM332.994 333.233C336.281 333.233 338.948 335.9 338.948 339.186C338.948 342.472 336.281 345.14 332.994 345.14C329.708 345.14 327.041 342.472 327.041 339.186C327.041 335.9 329.708 333.233 332.994 333.233ZM341.925 349.884C340.545 349.925 339.235 350.501 338.274 351.491C337.312 352.481 336.774 353.807 336.774 355.187C336.774 356.567 337.312 357.893 338.274 358.883C339.235 359.873 340.545 360.449 341.925 360.489C344.851 360.489 347.228 358.112 347.228 355.186C347.228 352.26 344.851 349.884 341.925 349.884ZM341.925 352.117C343.618 352.117 344.995 353.492 344.995 355.186C344.995 356.88 343.618 358.257 341.925 358.257C340.231 358.257 338.854 356.88 338.854 355.186C338.854 353.492 340.231 352.117 341.925 352.117Z" fill="#3FA1E3"/>
<path fill-rule="evenodd" clip-rule="evenodd" d="M343.041 350.998V348.487C343.041 348.191 342.923 347.907 342.714 347.698C342.505 347.489 342.221 347.371 341.925 347.371C341.629 347.371 341.345 347.489 341.135 347.698C340.926 347.907 340.808 348.191 340.808 348.487V351C340.808 351.296 340.926 351.58 341.136 351.789C341.345 351.998 341.629 352.115 341.925 352.115C342.221 352.115 342.505 351.997 342.714 351.788C342.924 351.578 343.041 351.294 343.041 350.998ZM345.674 353.015L347.449 351.238C347.659 351.029 347.776 350.745 347.776 350.449C347.776 350.153 347.659 349.869 347.449 349.66C347.24 349.451 346.956 349.333 346.661 349.333C346.365 349.333 346.081 349.451 345.872 349.66L344.095 351.436C343.886 351.646 343.769 351.929 343.769 352.225C343.769 352.521 343.886 352.805 344.095 353.015C344.304 353.224 344.588 353.341 344.884 353.341C345.18 353.341 345.464 353.224 345.674 353.015ZM346.11 356.301H348.622C348.918 356.301 349.202 356.184 349.412 355.974C349.621 355.765 349.739 355.481 349.739 355.185C349.739 354.889 349.621 354.605 349.412 354.396C349.202 354.186 348.918 354.069 348.622 354.069H346.11C345.814 354.069 345.53 354.186 345.321 354.396C345.111 354.605 344.994 354.889 344.994 355.185C344.994 355.481 345.111 355.765 345.321 355.974C345.53 356.184 345.814 356.301 346.11 356.301ZM344.095 358.934L345.872 360.71C345.975 360.813 346.098 360.896 346.234 360.952C346.369 361.008 346.514 361.037 346.661 361.037C346.807 361.037 346.952 361.008 347.087 360.952C347.223 360.896 347.346 360.813 347.449 360.71C347.553 360.606 347.635 360.483 347.691 360.348C347.747 360.213 347.776 360.068 347.776 359.921C347.776 359.775 347.747 359.629 347.691 359.494C347.635 359.359 347.553 359.236 347.449 359.132L345.674 357.355C345.464 357.146 345.18 357.029 344.884 357.029C344.588 357.029 344.304 357.146 344.095 357.355C343.886 357.565 343.769 357.849 343.769 358.145C343.769 358.441 343.886 358.725 344.095 358.934ZM340.808 359.37V361.883C340.808 362.179 340.926 362.463 341.135 362.672C341.345 362.881 341.629 362.999 341.925 362.999C342.221 362.999 342.505 362.881 342.714 362.672C342.923 362.463 343.041 362.179 343.041 361.883V359.37C343.041 359.074 342.923 358.79 342.714 358.581C342.505 358.372 342.221 358.254 341.925 358.254C341.629 358.254 341.345 358.372 341.135 358.581C340.926 358.79 340.808 359.074 340.808 359.37ZM338.175 357.355L336.4 359.132C336.296 359.236 336.214 359.359 336.158 359.494C336.102 359.629 336.073 359.775 336.073 359.921C336.073 360.068 336.102 360.213 336.158 360.348C336.214 360.483 336.296 360.606 336.4 360.71C336.503 360.813 336.626 360.896 336.762 360.952C336.897 361.008 337.042 361.037 337.189 361.037C337.335 361.037 337.48 361.008 337.615 360.952C337.751 360.896 337.874 360.813 337.977 360.71L339.755 358.934C339.963 358.725 340.08 358.441 340.08 358.145C340.08 357.849 339.963 357.565 339.755 357.355C339.545 357.146 339.261 357.029 338.965 357.029C338.669 357.029 338.385 357.146 338.175 357.355ZM337.738 354.069H335.227C334.931 354.069 334.647 354.186 334.438 354.396C334.228 354.605 334.111 354.889 334.111 355.185C334.111 355.481 334.228 355.765 334.438 355.974C334.647 356.184 334.931 356.301 335.227 356.301H337.738C338.034 356.301 338.318 356.184 338.527 355.974C338.736 355.765 338.854 355.481 338.854 355.185C338.854 354.889 338.736 354.605 338.527 354.396C338.318 354.186 338.034 354.069 337.738 354.069ZM339.755 351.436L337.977 349.66C337.874 349.557 337.751 349.474 337.615 349.418C337.48 349.362 337.335 349.333 337.189 349.333C337.042 349.333 336.897 349.362 336.762 349.418C336.626 349.474 336.503 349.557 336.4 349.66C336.296 349.764 336.214 349.887 336.158 350.022C336.102 350.157 336.073 350.303 336.073 350.449C336.073 350.596 336.102 350.741 336.158 350.876C336.214 351.011 336.296 351.134 336.4 351.238L338.175 353.015C338.385 353.224 338.669 353.341 338.965 353.341C339.261 353.341 339.545 353.224 339.755 353.015C339.963 352.805 340.08 352.521 340.08 352.225C340.08 351.929 339.963 351.646 339.755 351.436Z" fill="#3FA1E3"/>
<g filter="url(#filter0_d_4952_2714)">
<rect x="194" y="212" width="88" height="48" rx="20" fill="#0A0F2B" fill-opacity="0.8" shape-rendering="crispEdges"/>
<rect x="194" y="212" width="88" height="48" rx="20" stroke="url(#paint4_linear_4952_2714)" shape-rendering="crispEdges"/>
</g>
<path d="M231.779 250.092C232.211 250.275 232.649 250.444 233.096 250.588C232.87 249.899 232.827 249.824 232.365 248.431L231.779 250.092ZM241.675 249.674C242.78 246.903 243.551 244.059 243.995 241.179H234.925L233.172 246.154C234.105 249.136 234.215 249.309 234.774 251.026C236.9 251.468 239.094 251.472 241.221 251.036L241.675 249.674ZM222 235.36C222 236.843 222.215 238.311 222.616 239.724H226.27L230.175 237.644C230.052 235.427 230.112 233.203 230.357 230.996H222.61C222.206 232.415 222 233.884 222 235.36ZM222.007 244.168C222.036 244.459 222.24 244.707 222.531 244.787C223.5 245.065 226.31 245.869 227.23 246.132C227.492 247.05 228.301 249.873 228.575 250.831C228.745 251.496 229.748 251.538 229.957 250.875C231.307 247.031 232.973 242.325 234.321 238.51C234.498 238.056 234.12 237.526 233.638 237.542C233.416 237.48 224.042 242.57 222.385 243.448C222.124 243.587 221.971 243.87 222.007 244.168Z" fill="#3FA1E3"/>
<path d="M235.442 239.724H244.192C244.523 236.823 244.52 233.895 244.182 230.995H231.822C231.597 232.948 231.523 234.915 231.601 236.88C232.177 236.594 232.967 236.04 233.638 236.087C235.098 236.054 236.221 237.621 235.696 238.996L235.442 239.724ZM241.194 219.678C239.086 219.253 236.914 219.253 234.806 219.679L234.321 221.052C233.235 223.785 232.464 226.633 232.024 229.541H243.986C243.523 226.184 242.405 222.885 241.194 219.678ZM252.904 241.178H245.479C245.113 244.32 243.995 247.74 242.904 250.59C247.503 249.115 251.16 245.629 252.904 241.178ZM223.1 229.541H230.525C230.891 226.398 232.008 222.978 233.099 220.129C228.501 221.604 224.844 225.09 223.1 229.541ZM242.892 220.124C244.095 223.185 245.008 226.337 245.465 229.541H252.904C252.035 227.329 250.686 225.337 248.955 223.709C247.223 222.081 245.153 220.856 242.892 220.124ZM245.648 230.995C245.971 233.897 245.989 236.821 245.668 239.724H253.394C254.201 236.97 254.201 233.748 253.394 230.995H245.648Z" fill="#3FA1E3"/>
<g opacity="0.2" clip-path="url(#clip1_4952_2714)">
<path d="M26 129C33.4803 129 40.5102 131.911 45.7997 137.2C51.089 142.49 54 149.52 54 157C54 164.48 51.0889 171.51 45.7997 176.8C40.5102 182.089 33.4803 185 26 185C18.5197 185 11.4898 182.089 6.20032 176.8C0.910971 171.51 -2 164.48 -2 157C-2 149.52 0.911078 142.49 6.20032 137.2C11.4898 131.911 18.5197 129 26 129ZM26 161.264C17.3437 161.264 10.0232 167.838 9.03285 176.358L8.98798 176.742L9.28526 176.99C13.8131 180.782 19.6443 183.071 26 183.071C32.3558 183.071 38.1884 180.783 42.7161 176.99L43.012 176.742L42.9671 176.357C42.5246 172.554 40.8059 168.994 38.0803 166.267C34.8544 163.042 30.5608 161.264 26 161.264ZM26 130.929C11.624 130.929 -0.0705128 142.624 -0.0705128 157C-0.0705128 163.519 2.33564 169.487 6.30409 174.063L7.21134 175.109L7.54367 173.765C8.42166 170.212 10.3159 166.973 13.0447 164.432C14.9288 162.677 17.1173 161.344 19.4824 160.482L20.8019 160.001L19.6394 159.213C16.6168 157.165 14.6306 153.705 14.6306 149.792C14.6309 143.524 19.7316 138.423 26 138.423C32.2684 138.423 37.3691 143.524 37.3694 149.792C37.3694 153.703 35.385 157.162 32.3648 159.21L31.2023 159.998L32.5218 160.478C35.0914 161.414 37.4489 162.909 39.4433 164.903C41.8883 167.347 43.6217 170.413 44.4549 173.768L44.7873 175.11L45.6931 174.065C49.663 169.49 52.0705 163.521 52.0705 157C52.0705 142.624 40.376 130.929 26 130.929ZM26 140.353C20.7945 140.353 16.5603 144.586 16.5601 149.792C16.5601 154.757 20.4106 158.835 25.2821 159.203V159.234H26C31.2058 159.234 35.4399 154.998 35.4399 149.792C35.4397 144.586 31.2055 140.353 26 140.353Z" fill="#3FA1E3"/>
<circle opacity="0.1" cx="118.595" cy="242.598" r="73.5" fill="white"/>
</g>
<g opacity="0.5" clip-path="url(#clip2_4952_2714)">
<path d="M67.8 66C75.2803 66 82.3103 68.9111 87.5997 74.2003C92.8891 79.4898 95.8001 86.5197 95.8001 94C95.8001 101.48 92.889 108.51 87.5997 113.8C82.3103 119.089 75.2804 122 67.8 122C60.3198 122 53.2898 119.089 48.0004 113.8C42.711 108.51 39.8 101.48 39.8 94C39.8 86.5197 42.7111 79.4898 48.0004 74.2003C53.2898 68.911 60.3197 66 67.8 66ZM67.8 98.2642C59.1437 98.2642 51.8232 104.838 50.8329 113.358L50.788 113.742L51.0853 113.99C55.6131 117.782 61.4443 120.071 67.8 120.071C74.1559 120.071 79.9885 117.783 84.5162 113.99L84.8121 113.742L84.7672 113.357C84.3247 109.554 82.606 105.994 79.8804 103.267C76.6544 100.042 72.3608 98.2642 67.8 98.2642ZM67.8 67.9295C53.4241 67.9295 41.7295 79.624 41.7295 94C41.7295 100.519 44.1357 106.487 48.1041 111.063L49.0114 112.109L49.3437 110.765C50.2217 107.212 52.1159 103.973 54.8447 101.432C56.7289 99.6766 58.9174 98.3437 61.2824 97.4818L62.6019 97.0008L61.4395 96.2127C58.4169 94.1649 56.4307 90.7052 56.4307 86.7925C56.4309 80.5242 61.5317 75.4231 67.8 75.4231C74.0684 75.4231 79.1692 80.5242 79.1694 86.7925C79.1694 90.703 77.185 94.1618 74.1648 96.2099L73.0024 96.998L74.3219 97.4776C76.8915 98.4138 79.249 99.9087 81.2434 101.903C83.6884 104.347 85.4217 107.413 86.255 110.768L86.5873 112.11L87.4932 111.065C91.4631 106.49 93.8706 100.521 93.8706 94C93.8706 79.624 82.176 67.9295 67.8 67.9295ZM67.8 77.3526C62.5946 77.3526 58.3604 81.5864 58.3601 86.7925C58.3601 91.7566 62.2106 95.8348 67.0821 96.2029V96.2338H67.8C73.0058 96.2338 77.24 91.9982 77.24 86.7925C77.2397 81.5864 73.0055 77.3526 67.8 77.3526Z" fill="#3FA1E3"/>
<circle opacity="0.1" cx="160.396" cy="179.598" r="73.5" fill="white"/>
</g>
<g clip-path="url(#clip3_4952_2714)">
<path d="M131.6 24C139.08 24 146.11 26.9111 151.4 32.2003C156.689 37.4898 159.6 44.5197 159.6 52C159.6 59.4803 156.689 66.5102 151.4 71.7997C146.11 77.089 139.08 80 131.6 80C124.12 80 117.09 77.0889 111.8 71.7997C106.511 66.5102 103.6 59.4803 103.6 52C103.6 44.5197 106.511 37.4898 111.8 32.2003C117.09 26.911 124.12 24 131.6 24ZM131.6 56.2642C122.944 56.2642 115.623 62.8377 114.633 71.358L114.588 71.7422L114.885 71.9904C119.413 75.7825 125.244 78.0705 131.6 78.0705C137.956 78.0705 143.789 75.7825 148.316 71.9904L148.612 71.7422L148.567 71.3566C148.125 67.5539 146.406 63.9936 143.68 61.2674C140.454 58.0421 136.161 56.2642 131.6 56.2642ZM131.6 25.9295C117.224 25.9295 105.53 37.624 105.53 52C105.53 58.5192 107.936 64.4875 111.904 69.0625L112.811 70.1086L113.144 68.7652C114.022 65.2119 115.916 61.9731 118.645 59.4319C120.529 57.6766 122.717 56.3437 125.082 55.4818L126.402 55.0008L125.24 54.2127C122.217 52.1649 120.231 48.7052 120.231 44.7925C120.231 38.5242 125.332 33.4231 131.6 33.4231C137.868 33.4231 142.969 38.5242 142.969 44.7925C142.969 48.703 140.985 52.1618 137.965 54.2099L136.802 54.998L138.122 55.4776C140.692 56.4138 143.049 57.9087 145.043 59.903C147.488 62.3474 149.222 65.4126 150.055 68.768L150.387 70.11L151.293 69.0653C155.263 64.4902 157.671 58.5206 157.671 52C157.671 37.624 145.976 25.9295 131.6 25.9295ZM131.6 35.3526C126.395 35.3526 122.16 39.5864 122.16 44.7925C122.16 49.7566 126.011 53.8348 130.882 54.2029V54.2338H131.6C136.806 54.2338 141.04 49.9982 141.04 44.7925C141.04 39.5864 136.806 35.3526 131.6 35.3526Z" fill="#3FA1E3"/>
<circle opacity="0.1" cx="224.196" cy="137.598" r="73.5" fill="white"/>
</g>
<g clip-path="url(#clip4_4952_2714)">
<path d="M203.4 4C210.88 4 217.91 6.91108 223.2 12.2003C228.489 17.4898 231.4 24.5197 231.4 32C231.4 39.4803 228.489 46.5102 223.2 51.7997C217.91 57.089 210.88 60 203.4 60C195.92 60 188.89 57.0889 183.6 51.7997C178.311 46.5102 175.4 39.4803 175.4 32C175.4 24.5197 178.311 17.4898 183.6 12.2003C188.89 6.91097 195.92 4 203.4 4ZM203.4 36.2642C194.744 36.2642 187.423 42.8377 186.433 51.358L186.388 51.7422L186.685 51.9904C191.213 55.7825 197.044 58.0705 203.4 58.0705C209.756 58.0705 215.589 55.7825 220.116 51.9904L220.412 51.7422L220.367 51.3566C219.925 47.5539 218.206 43.9936 215.48 41.2674C212.255 38.0421 207.961 36.2642 203.4 36.2642ZM203.4 5.92949C189.024 5.92949 177.33 17.624 177.33 32C177.33 38.5192 179.736 44.4875 183.704 49.0625L184.611 50.1086L184.944 48.7652C185.822 45.2119 187.716 41.9731 190.445 39.4319C192.329 37.6766 194.517 36.3437 196.883 35.4818L198.202 35.0008L197.04 34.2127C194.017 32.1649 192.031 28.7052 192.031 24.7925C192.031 18.5242 197.132 13.4231 203.4 13.4231C209.669 13.4231 214.769 18.5242 214.77 24.7925C214.77 28.703 212.785 32.1618 209.765 34.2099L208.602 34.998L209.922 35.4776C212.492 36.4138 214.849 37.9087 216.843 39.903C219.288 42.3474 221.022 45.4126 221.855 48.768L222.187 50.11L223.093 49.0653C227.063 44.4902 229.471 38.5206 229.471 32C229.471 17.624 217.776 5.92949 203.4 5.92949ZM203.4 15.3526C198.195 15.3526 193.96 19.5864 193.96 24.7925C193.96 29.7566 197.811 33.8348 202.682 34.2029V34.2338H203.4C208.606 34.2338 212.84 29.9982 212.84 24.7925C212.84 19.5864 208.606 15.3526 203.4 15.3526Z" fill="#3FA1E3"/>
<circle opacity="0.1" cx="295.996" cy="117.598" r="73.5" fill="white"/>
</g>
<g clip-path="url(#clip5_4952_2714)">
<path d="M276.2 4C283.68 4 290.71 6.91108 296 12.2003C301.289 17.4898 304.2 24.5197 304.2 32C304.2 39.4803 301.289 46.5102 296 51.7997C290.71 57.089 283.68 60 276.2 60C268.72 60 261.69 57.0889 256.4 51.7997C251.111 46.5102 248.2 39.4803 248.2 32C248.2 24.5197 251.111 17.4898 256.4 12.2003C261.69 6.91097 268.72 4 276.2 4ZM276.2 36.2642C267.544 36.2642 260.223 42.8377 259.233 51.358L259.188 51.7422L259.485 51.9904C264.013 55.7825 269.844 58.0705 276.2 58.0705C282.556 58.0705 288.388 55.7825 292.916 51.9904L293.212 51.7422L293.167 51.3566C292.725 47.5539 291.006 43.9936 288.28 41.2674C285.054 38.0421 280.761 36.2642 276.2 36.2642ZM276.2 5.92949C261.824 5.92949 250.129 17.624 250.129 32C250.129 38.5192 252.536 44.4875 256.504 49.0625L257.411 50.1086L257.744 48.7652C258.622 45.2119 260.516 41.9731 263.245 39.4319C265.129 37.6766 267.317 36.3437 269.682 35.4818L271.002 35.0008L269.839 34.2127C266.817 32.1649 264.831 28.7052 264.831 24.7925C264.831 18.5242 269.932 13.4231 276.2 13.4231C282.468 13.4231 287.569 18.5242 287.569 24.7925C287.569 28.703 285.585 32.1618 282.565 34.2099L281.402 34.998L282.722 35.4776C285.291 36.4138 287.649 37.9087 289.643 39.903C292.088 42.3474 293.822 45.4126 294.655 48.768L294.987 50.11L295.893 49.0653C299.863 44.4902 302.27 38.5206 302.27 32C302.27 17.624 290.576 5.92949 276.2 5.92949ZM276.2 15.3526C270.994 15.3526 266.76 19.5864 266.76 24.7925C266.76 29.7566 270.611 33.8348 275.482 34.2029V34.2338H276.2C281.406 34.2338 285.64 29.9982 285.64 24.7925C285.64 19.5864 281.405 15.3526 276.2 15.3526Z" fill="#3FA1E3"/>
<circle opacity="0.1" cx="368.796" cy="117.598" r="73.5" fill="white"/>
</g>
<g clip-path="url(#clip6_4952_2714)">
<path d="M348 24C355.48 24 362.51 26.9111 367.8 32.2003C373.089 37.4898 376 44.5197 376 52C376 59.4803 373.089 66.5102 367.8 71.7997C362.51 77.089 355.48 80 348 80C340.52 80 333.49 77.0889 328.2 71.7997C322.911 66.5102 320 59.4803 320 52C320 44.5197 322.911 37.4898 328.2 32.2003C333.49 26.911 340.52 24 348 24ZM348 56.2642C339.344 56.2642 332.023 62.8377 331.033 71.358L330.988 71.7422L331.285 71.9904C335.813 75.7825 341.644 78.0705 348 78.0705C354.356 78.0705 360.188 75.7825 364.716 71.9904L365.012 71.7422L364.967 71.3566C364.525 67.5539 362.806 63.9936 360.08 61.2674C356.854 58.0421 352.561 56.2642 348 56.2642ZM348 25.9295C333.624 25.9295 321.929 37.624 321.929 52C321.929 58.5192 324.336 64.4875 328.304 69.0625L329.211 70.1086L329.544 68.7652C330.422 65.2119 332.316 61.9731 335.045 59.4319C336.929 57.6766 339.117 56.3437 341.482 55.4818L342.802 55.0008L341.639 54.2127C338.617 52.1649 336.631 48.7052 336.631 44.7925C336.631 38.5242 341.732 33.4231 348 33.4231C354.268 33.4231 359.369 38.5242 359.369 44.7925C359.369 48.703 357.385 52.1618 354.365 54.2099L353.202 54.998L354.522 55.4776C357.091 56.4138 359.449 57.9087 361.443 59.903C363.888 62.3474 365.622 65.4126 366.455 68.768L366.787 70.11L367.693 69.0653C371.663 64.4902 374.071 58.5206 374.071 52C374.071 37.624 362.376 25.9295 348 25.9295ZM348 35.3526C342.795 35.3526 338.56 39.5864 338.56 44.7925C338.56 49.7566 342.411 53.8348 347.282 54.2029V54.2338H348C353.206 54.2338 357.44 49.9982 357.44 44.7925C357.44 39.5864 353.205 35.3526 348 35.3526Z" fill="#3FA1E3"/>
<circle opacity="0.1" cx="440.596" cy="137.598" r="73.5" fill="white"/>
</g>
<g opacity="0.5" clip-path="url(#clip7_4952_2714)">
<path d="M407 66C414.48 66 421.51 68.9111 426.8 74.2003C432.089 79.4898 435 86.5197 435 94C435 101.48 432.089 108.51 426.8 113.8C421.51 119.089 414.48 122 407 122C399.52 122 392.49 119.089 387.2 113.8C381.911 108.51 379 101.48 379 94C379 86.5197 381.911 79.4898 387.2 74.2003C392.49 68.911 399.52 66 407 66ZM407 98.2642C398.344 98.2642 391.023 104.838 390.033 113.358L389.988 113.742L390.285 113.99C394.813 117.782 400.644 120.071 407 120.071C413.356 120.071 419.188 117.783 423.716 113.99L424.012 113.742L423.967 113.357C423.525 109.554 421.806 105.994 419.08 103.267C415.854 100.042 411.561 98.2642 407 98.2642ZM407 67.9295C392.624 67.9295 380.929 79.624 380.929 94C380.929 100.519 383.336 106.487 387.304 111.063L388.211 112.109L388.544 110.765C389.422 107.212 391.316 103.973 394.045 101.432C395.929 99.6766 398.117 98.3437 400.482 97.4818L401.802 97.0008L400.639 96.2127C397.617 94.1649 395.631 90.7052 395.631 86.7925C395.631 80.5242 400.732 75.4231 407 75.4231C413.268 75.4231 418.369 80.5242 418.369 86.7925C418.369 90.703 416.385 94.1618 413.365 96.2099L412.202 96.998L413.522 97.4776C416.091 98.4138 418.449 99.9087 420.443 101.903C422.888 104.347 424.622 107.413 425.455 110.768L425.787 112.11L426.693 111.065C430.663 106.49 433.071 100.521 433.071 94C433.071 79.624 421.376 67.9295 407 67.9295ZM407 77.3526C401.795 77.3526 397.56 81.5864 397.56 86.7925C397.56 91.7566 401.411 95.8348 406.282 96.2029V96.2338H407C412.206 96.2338 416.44 91.9982 416.44 86.7925C416.44 81.5864 412.205 77.3526 407 77.3526Z" fill="#3FA1E3"/>
<circle opacity="0.1" cx="499.595" cy="179.598" r="73.5" fill="white"/>
</g>
<g opacity="0.2" clip-path="url(#clip8_4952_2714)">
<path d="M445.6 124C453.08 124 460.11 126.911 465.4 132.2C470.689 137.49 473.6 144.52 473.6 152C473.6 159.48 470.689 166.51 465.4 171.8C460.11 177.089 453.08 180 445.6 180C438.12 180 431.09 177.089 425.8 171.8C420.511 166.51 417.6 159.48 417.6 152C417.6 144.52 420.511 137.49 425.8 132.2C431.09 126.911 438.12 124 445.6 124ZM445.6 156.264C436.944 156.264 429.623 162.838 428.633 171.358L428.588 171.742L428.885 171.99C433.413 175.782 439.244 178.071 445.6 178.071C451.956 178.071 457.789 175.783 462.316 171.99L462.612 171.742L462.567 171.357C462.125 167.554 460.406 163.994 457.68 161.267C454.454 158.042 450.161 156.264 445.6 156.264ZM445.6 125.929C431.224 125.929 419.53 137.624 419.53 152C419.53 158.519 421.936 164.487 425.904 169.063L426.811 170.109L427.144 168.765C428.022 165.212 429.916 161.973 432.645 159.432C434.529 157.677 436.717 156.344 439.082 155.482L440.402 155.001L439.24 154.213C436.217 152.165 434.231 148.705 434.231 144.792C434.231 138.524 439.332 133.423 445.6 133.423C451.868 133.423 456.969 138.524 456.969 144.792C456.969 148.703 454.985 152.162 451.965 154.21L450.802 154.998L452.122 155.478C454.692 156.414 457.049 157.909 459.043 159.903C461.488 162.347 463.222 165.413 464.055 168.768L464.387 170.11L465.293 169.065C469.263 164.49 471.671 158.521 471.671 152C471.671 137.624 459.976 125.929 445.6 125.929ZM445.6 135.353C440.395 135.353 436.16 139.586 436.16 144.792C436.16 149.757 440.011 153.835 444.882 154.203V154.234H445.6C450.806 154.234 455.04 149.998 455.04 144.792C455.04 139.586 450.806 135.353 445.6 135.353Z" fill="#3FA1E3"/>
<circle opacity="0.1" cx="538.196" cy="237.598" r="73.5" fill="white"/>
</g>
<path d="M209.5 67.5L234 197" stroke="#232F6F" stroke-linecap="round" stroke-linejoin="round" stroke-dasharray="1 3"/>
<path d="M266.5 67.5L242 197" stroke="#232F6F" stroke-linecap="round" stroke-linejoin="round" stroke-dasharray="1 3"/>
<path d="M150 84.5L228 198.5" stroke="#232F6F" stroke-linecap="round" stroke-linejoin="round" stroke-dasharray="1 3"/>
<path d="M326 84.5L248 198.5" stroke="#232F6F" stroke-linecap="round" stroke-linejoin="round" stroke-dasharray="1 3"/>
<path d="M100 116.5L219 198.5" stroke="#232F6F" stroke-linecap="round" stroke-linejoin="round" stroke-dasharray="1 3"/>
<path d="M376 116.5L257 198.5" stroke="#232F6F" stroke-linecap="round" stroke-linejoin="round" stroke-dasharray="1 3"/>
<path d="M61 164.5L208 198.5" stroke="#232F6F" stroke-linecap="round" stroke-linejoin="round" stroke-dasharray="1 3"/>
<path d="M415 164.5L268 198.5" stroke="#232F6F" stroke-linecap="round" stroke-linejoin="round" stroke-dasharray="1 3"/>
</g>
<defs>
<filter id="filter0_d_4952_2714" x="177.5" y="195.5" width="121" height="81" filterUnits="userSpaceOnUse" color-interpolation-filters="sRGB">
<feFlood flood-opacity="0" result="BackgroundImageFix"/>
<feColorMatrix in="SourceAlpha" type="matrix" values="0 0 0 0 0 0 0 0 0 0 0 0 0 0 0 0 0 0 127 0" result="hardAlpha"/>
<feMorphology radius="4" operator="dilate" in="SourceAlpha" result="effect1_dropShadow_4952_2714"/>
<feOffset/>
<feGaussianBlur stdDeviation="6"/>
<feComposite in2="hardAlpha" operator="out"/>
<feColorMatrix type="matrix" values="0 0 0 0 0.247059 0 0 0 0 0.631373 0 0 0 0 0.890196 0 0 0 0.4 0"/>
<feBlend mode="normal" in2="BackgroundImageFix" result="effect1_dropShadow_4952_2714"/>
<feBlend mode="normal" in="SourceGraphic" in2="effect1_dropShadow_4952_2714" result="shape"/>
</filter>
<radialGradient id="paint0_radial_4952_2714" cx="0" cy="0" r="1" gradientUnits="userSpaceOnUse" gradientTransform="translate(238 344.5) rotate(90) scale(104.5 196)">
<stop offset="0.480792" stop-color="#232F6F" stop-opacity="0"/>
<stop offset="1" stop-color="#232F6F"/>
</radialGradient>
<radialGradient id="paint1_radial_4952_2714" cx="0" cy="0" r="1" gradientUnits="userSpaceOnUse" gradientTransform="translate(142 346) rotate(90) scale(39)">
<stop offset="0.480792" stop-color="#232F6F" stop-opacity="0"/>
<stop offset="1" stop-color="#232F6F"/>
</radialGradient>
<radialGradient id="paint2_radial_4952_2714" cx="0" cy="0" r="1" gradientUnits="userSpaceOnUse" gradientTransform="translate(238 346) rotate(90) scale(39)">
<stop offset="0.480792" stop-color="#232F6F" stop-opacity="0"/>
<stop offset="1" stop-color="#232F6F"/>
</radialGradient>
<radialGradient id="paint3_radial_4952_2714" cx="0" cy="0" r="1" gradientUnits="userSpaceOnUse" gradientTransform="translate(334 346) rotate(90) scale(39)">
<stop offset="0.480792" stop-color="#232F6F" stop-opacity="0"/>
<stop offset="1" stop-color="#232F6F"/>
</radialGradient>
<linearGradient id="paint4_linear_4952_2714" x1="238" y1="212" x2="238" y2="260" gradientUnits="userSpaceOnUse">
<stop stop-color="#3FA1E3"/>
<stop offset="1" stop-color="#3FA1E3" stop-opacity="0.35"/>
</linearGradient>
<clipPath id="clip0_4952_2714">
<rect width="480" height="400" fill="white"/>
</clipPath>
<clipPath id="clip1_4952_2714">
<rect width="56" height="56" fill="white" transform="translate(-2 129)"/>
</clipPath>
<clipPath id="clip2_4952_2714">
<rect width="56" height="56" fill="white" transform="translate(39.8 66)"/>
</clipPath>
<clipPath id="clip3_4952_2714">
<rect width="56" height="56" fill="white" transform="translate(103.6 24)"/>
</clipPath>
<clipPath id="clip4_4952_2714">
<rect width="56" height="56" fill="white" transform="translate(175.4 4)"/>
</clipPath>
<clipPath id="clip5_4952_2714">
<rect width="56" height="56" fill="white" transform="translate(248.2 4)"/>
</clipPath>
<clipPath id="clip6_4952_2714">
<rect width="56" height="56" fill="white" transform="translate(320 24)"/>
</clipPath>
<clipPath id="clip7_4952_2714">
<rect width="56" height="56" fill="white" transform="translate(379 66)"/>
</clipPath>
<clipPath id="clip8_4952_2714">
<rect width="56" height="56" fill="white" transform="translate(417.6 124)"/>
</clipPath>
</defs>
</svg>
