<svg width="48" height="48" viewBox="0 0 48 48" fill="none" xmlns="http://www.w3.org/2000/svg">
<g clip-path="url(#clip0_5003_2054)">
<path d="M24 47.9992C10.7664 47.9992 0 37.2328 0 23.9992C0 10.7656 10.7664 0 24 0C37.2336 0 48 10.7656 48 23.9992C48 37.2328 37.2328 47.9992 24 47.9992Z" fill="white"/>
<path d="M36.1612 7.0947C37.1857 7.0947 38.1983 7.14736 39.1973 7.24311C35.1773 3.5942 29.844 1.36719 24 1.36719C11.5204 1.36719 1.36682 11.52 1.36682 24.0003C1.36682 28.4544 2.66584 32.6092 4.89684 36.1144C6.09533 19.8886 19.6289 7.0947 36.1612 7.0947Z" fill="#E0E0E0"/>
<path opacity="0.7" d="M23.9992 46.6325C36.4787 46.6325 46.6323 36.4797 46.6323 23.9994C46.6323 17.3638 43.7614 11.3866 39.1973 7.24216C38.1983 7.14641 37.1857 7.09375 36.1612 7.09375C19.6297 7.09375 6.09533 19.8885 4.89685 36.1135C8.916 42.4307 15.9745 46.6325 23.9992 46.6325Z" fill="#B5B5B5"/>
<path d="M24 41.9009C33.8863 41.9009 41.9007 33.8865 41.9007 24.0003C41.9007 14.114 33.8863 6.09961 24 6.09961C14.1138 6.09961 6.09937 14.114 6.09937 24.0003C6.09937 33.8865 14.1138 41.9009 24 41.9009Z" fill="#9E9E9E"/>
<path d="M36.8402 8.91997C37.2336 9.31335 38.5118 9.92057 39.1079 10.1919C39.2276 10.2461 39.2276 10.4153 39.1079 10.4695C38.5118 10.7408 37.2344 11.3473 36.8402 11.7414C36.4468 12.1348 35.8396 13.4131 35.5683 14.0091C35.514 14.1288 35.3449 14.1288 35.2906 14.0091C35.0193 13.4131 34.4129 12.1356 34.0187 11.7414C33.6253 11.3481 32.3471 10.7408 31.751 10.4695C31.6313 10.4153 31.6313 10.2461 31.751 10.1919C32.3471 9.92057 33.6245 9.31415 34.0187 8.91997C34.4121 8.52659 35.0193 7.24832 35.2906 6.65227C35.3449 6.53258 35.514 6.53258 35.5683 6.65227C35.8388 7.24832 36.446 8.5258 36.8402 8.91997Z" fill="white"/>
<path d="M10.8199 21.8748L15.816 13.4466C16.5363 12.2315 17.8442 11.4863 19.2569 11.4863H27.9873C29.3999 11.4863 30.7078 12.2315 31.4282 13.4466L36.4242 21.8748C37.1637 23.1224 37.1701 24.6725 36.4407 25.926L31.423 34.5505C30.7068 35.7816 29.3899 36.539 27.9656 36.539H19.2785C17.8542 36.539 16.5374 35.7816 15.8211 34.5505L10.8034 25.926C10.0741 24.6725 10.0804 23.1224 10.8199 21.8748Z" fill="#E0E0E0"/>
<path d="M22.1484 15.9062H18.9062L14.0431 23.6591L18.9062 32.1168H22.1484L17.2852 23.6591L22.1484 15.9062Z" fill="#9E9E9E"/>
<path d="M25.0958 15.9062H28.3379L33.201 23.6591L28.3379 32.1168H25.0958L29.9589 23.6591L25.0958 15.9062Z" fill="#9E9E9E"/>
<path opacity="0.3" d="M36.4082 22.0586C37.1477 23.3061 37.1541 24.8558 36.4248 26.1094L31.4072 34.7344C30.691 35.9652 29.3743 36.7226 27.9502 36.7227H19.2627C17.8386 36.7226 16.5219 35.9652 15.8057 34.7344L13 29.9111C16.4278 19.6483 25.8314 15.2578 31.6309 14L36.4082 22.0586Z" fill="#9E9E9E"/>
</g>
<defs>
<clipPath id="clip0_5003_2054">
<rect width="48" height="48" fill="white"/>
</clipPath>
</defs>
</svg>
