<?xml version="1.0" encoding="UTF-8" standalone="no"?>
<svg
   xmlns:dc="http://purl.org/dc/elements/1.1/"
   xmlns:cc="http://creativecommons.org/ns#"
   xmlns:rdf="http://www.w3.org/1999/02/22-rdf-syntax-ns#"
   xmlns:svg="http://www.w3.org/2000/svg"
   xmlns="http://www.w3.org/2000/svg"
   viewBox="0 0 1801.84 1081.84"
   height="1081.84"
   width="1801.84"
   xml:space="preserve"
   id="svg2"
   version="1.1"><metadata
     id="metadata8"><rdf:RDF><cc:Work
         rdf:about=""><dc:format>image/svg+xml</dc:format><dc:type
           rdf:resource="http://purl.org/dc/dcmitype/StillImage" /></cc:Work></rdf:RDF></metadata><defs
     id="defs6"><clipPath
       id="clipPath346"
       clipPathUnits="userSpaceOnUse"><path
         id="path344"
         d="m 9982.55,4049.49 -522.43,159.75 v 223.73 h 818.18 c -13.8,-34.66 -29.9,-68.85 -48.4,-102.32 -63.3,-114.27 -148.4,-208.76 -247.35,-281.16" /></clipPath></defs><g
     transform="matrix(1.3333333,0,0,-1.3333333,0,1081.84)"
     id="g10"><g
       transform="scale(0.1)"
       id="g12"><path
         id="path14"
         style="fill:#f2f3ff;fill-opacity:1;fill-rule:nonzero;stroke:none"
         d="m 489.285,354.352 12576.915,1.039 c -430.7,442.679 -556.8,1072.089 -660.6,1680.919 -103.9,608.82 -98.6,1230.13 -135.5,1846.64 -45.9,765.15 -160,1536.04 -459.5,2241.62 -299.5,705.57 -799.5,1345.47 -1477.2,1703.77 -677.61,358.29 -1541.88,399.74 -2200.16,7.04 -525.73,-313.63 -867.19,-851.97 -1256.29,-1324.56 -389.11,-472.6 -905.24,-920.34 -1517.4,-923.83 -493.47,-2.82 -923.98,279.09 -1352.16,561 C 3551.9,6447.88 3099.04,6747.77 2575.84,6704.9 2106.85,6666.47 1697.95,6341.38 1448.25,5942.52 1198.56,5543.66 1084.55,5076.34 992.855,4614.78 715.887,3220.62 596.207,1771.73 489.285,354.352" /><path
         id="path16"
         style="fill:#ffffff;fill-opacity:1;fill-rule:nonzero;stroke:none"
         d="m 9792.15,6586.01 -392.87,-147.36 1532.92,0.13 c -77.6,-0.01 -127.5,75.07 -200,102.91 67.2,54.01 111.1,139.75 103.7,225.6 -7.4,85.85 -71.8,166.93 -156.4,182.92 -84.7,15.99 -179.6,-44.12 -191.6,-129.45 -19.8,106.5 -56.2,232.45 -160.2,262.7 -79,22.97 -164.7,-25.56 -210.8,-93.68 -46.2,-68.12 -61.6,-151.81 -76,-232.81 -50.14,75.11 -162.91,99.27 -239.42,51.29 -76.5,-47.98 -55.12,-144.41 -9.33,-222.25" /><path
         id="path18"
         style="fill:#f2f3ff;fill-opacity:1;fill-rule:nonzero;stroke:none"
         d="m 6096.85,7543.11 -230.01,-86.23 897.42,-0.08 c -45.45,0 -74.64,43.96 -117.06,60.27 39.3,31.61 65.04,81.8 60.72,132.06 -4.32,50.26 -42.01,97.73 -91.58,107.1 -49.57,9.37 -105.12,-25.81 -112.17,-75.77 -11.54,62.36 -32.84,136.1 -93.73,153.81 -46.25,13.46 -96.45,-14.94 -123.46,-54.82 -27.01,-39.87 -36.06,-88.86 -44.49,-136.29 -29.35,43.98 -95.36,58.14 -140.16,30.06 -44.79,-28.08 -32.28,-84.54 -5.48,-130.11" /><path
         id="path20"
         style="fill:#f2f3ff;fill-opacity:1;fill-rule:nonzero;stroke:none"
         d="m 3429.5,7122.66 c -86.49,113.14 -54.2,297.54 65.58,374.56 119.77,77.03 300.96,29.88 368.01,-95.74 -96.05,87.21 -73.37,263.27 33.27,337.15 106.63,73.9 265.1,45.26 353.46,-49.72 88.37,-94.98 109.19,-241 69.97,-364.66 122.16,-9.03 244.33,-18.06 366.51,-27.09 -3.46,131.27 149.48,239.82 272.26,193.24 122.79,-46.59 165.22,-229.27 75.55,-325.22 296.54,-12.35 591.67,-58.41 877.87,-137.01 -644.7,-10.22 -1273.19,-38.79 -1917.99,-38.74 l -1045.27,0.09 480.78,133.14" /><path
         id="path22"
         style="fill:#969fff;fill-opacity:1;fill-rule:nonzero;stroke:none"
         d="M 12227.3,5547.13 V 800.59 c 0,-244.961 -198.5,-443.551 -443.5,-443.551 H 1797.46 c -244.97,0 -443.55,198.59 -443.55,443.551 v 4746.54 c 0,244.97 198.58,443.55 443.55,443.55 h 9986.34 c 245,0 443.5,-198.58 443.5,-443.55" /><path
         id="path24"
         style="fill:#c4c9ff;fill-opacity:1;fill-rule:nonzero;stroke:none"
         d="M 11986.3,5547.13 V 800.59 c 0,-244.961 -198.6,-443.551 -443.5,-443.551 H 1556.43 c -244.97,0 -443.56,198.59 -443.56,443.551 v 4746.54 c 0,244.97 198.59,443.55 443.56,443.55 h 9986.37 c 244.9,0 443.5,-198.58 443.5,-443.55" /><path
         id="path26"
         style="fill:#f7cac8;fill-opacity:1;fill-rule:nonzero;stroke:none"
         d="m 642.598,359.891 c 0,0 -1203.86,1344.959 -316.059,1122.179 506.941,-127.22 -253.9413,613.69 42.324,888.8 296.266,275.11 571.371,-190.46 550.207,-507.89 -21.16,-317.42 63.485,-486.72 190.46,-380.91 126.97,105.81 148.13,253.95 317.42,148.14 169.3,-105.81 126.98,-275.11 42.33,-423.25 -84.65,-148.13 -169.29,-380.901 -42.33,-359.741 126.98,21.16 63.49,232.771 211.62,232.771 148.14,0 240.85,-635.451 -133.51,-720.099 H 642.598" /><path
         id="path28"
         style="fill:#ffffff;fill-opacity:1;fill-rule:nonzero;stroke:none"
         d="m 903.535,359.891 c 18.36,107.109 13.836,258.461 -13.469,450.199 -22.617,158.871 -60.855,345.9 -113.648,555.89 -91.723,364.81 -195.031,670.51 -196.02,673.37 -1.867,5.72 1.317,12.15 7.161,14.18 0.961,0.31 2.136,0.49 3.32,0.49 4.902,0 9.262,-3.07 10.844,-7.65 l 0.125,-0.36 C 612.965,2012.98 712.973,1713.17 800.609,1363.04 917.023,897.621 959.285,560.199 926.313,359.891 h -22.778" /><path
         id="path30"
         style="fill:#ffffff;fill-opacity:1;fill-rule:nonzero;stroke:none"
         d="m 918.777,451 c -40.441,0 -158.093,129.059 -359.683,394.57 -155.356,204.59 -303.739,416.39 -305.192,418.47 -1.714,2.45 -2.371,5.41 -1.851,8.35 0.515,2.94 2.148,5.51 4.594,7.21 1.878,1.32 4.085,2.01 6.378,2.01 3.657,0 7.094,-1.78 9.2,-4.77 C 407.141,1084.1 550.973,889.43 666.824,742.77 798.809,575.691 881.895,485.84 913.77,475.711 l 5.55,-1.762 4.27,3.961 c 56.094,52.051 287.62,580.98 429.56,923.79 1.73,4.2 5.79,6.9 10.32,6.9 1.46,0 2.89,-0.28 4.25,-0.85 2.78,-1.15 4.93,-3.3 6.07,-6.05 1.15,-2.75 1.15,-5.8 0,-8.56 C 1338.87,1308.8 1247.54,1090.13 1153.88,881.691 997.066,532.711 946.68,464.711 930.602,455.238 926.16,452.602 923.223,451 918.777,451" /><path
         id="path32"
         style="fill:#ffffff;fill-opacity:1;fill-rule:nonzero;stroke:none"
         d="M 1314.51,359.891 C 1454.27,488 1598.73,805.66 1627.45,870.789 l 0.83,1.891 c 1.81,4.199 5.87,6.91 10.33,6.91 1.45,0 2.86,-0.301 4.19,-0.891 2.91,-1.25 5.09,-3.5 6.22,-6.359 1.06,-2.699 1.01,-5.61 -0.12,-8.199 -6.18,-14.403 -151.15,-350.469 -302.29,-504.25 h -32.1" /><path
         id="path34"
         style="fill:#e6eeff;fill-opacity:1;fill-rule:nonzero;stroke:none"
         d="M 11235.1,607.449 H 1864.12 c -69.15,0 -125.21,56.063 -125.21,125.211 v 4882.41 c 0,69.15 56.06,125.2 125.21,125.2 h 9370.98 c 69.1,0 125.2,-56.05 125.2,-125.2 V 732.66 c 0,-69.148 -56.1,-125.211 -125.2,-125.211" /><path
         id="path36"
         style="fill:#969fff;fill-opacity:1;fill-rule:nonzero;stroke:none"
         d="m 1409.61,3281.95 c 77.57,0 140.46,-62.88 140.46,-140.45 0,-77.57 -62.89,-140.45 -140.46,-140.45 -77.57,0 -140.45,62.88 -140.45,140.45 0,77.57 62.88,140.45 140.45,140.45" /><path
         id="path38"
         style="fill:#d0d4ff;fill-opacity:1;fill-rule:nonzero;stroke:none"
         d="m 11986.3,1553.28 -626,237.17 v 1359.31 h 24.1 v 471.07 l 601.9,-184.06 V 1553.28" /><path
         id="path40"
         style="fill:#f5f5ff;fill-opacity:1;fill-rule:nonzero;stroke:none"
         d="m 1555.25,5990.68 c 0.01,0 0.01,0 0.02,0 h -0.02 m 0.96,0 c 0.03,0 0.07,0 0.11,0 h 0.11 c -0.08,0 -0.15,0 -0.22,0" /><path
         id="path42"
         style="fill:#d0d4ff;fill-opacity:1;fill-rule:nonzero;stroke:none"
         d="m 1738.91,5435.53 -609.65,230.96 c 34.21,122.7 119.8,223.96 232.13,279.09 l 0.03,0.02 c 5.23,2.56 10.51,5.02 15.84,7.38 l 0.9,0.38 c 10.48,4.61 21.17,8.82 32.06,12.63 l 1.47,0.52 c 5.21,1.8 10.48,3.49 15.78,5.11 l 2.12,0.63 c 10.69,3.18 21.55,5.97 32.56,8.36 l 2.51,0.54 c 5.27,1.11 10.57,2.12 15.91,3.05 0.97,0.16 1.93,0.31 2.91,0.47 5.49,0.92 11.01,1.76 16.57,2.46 l 0.18,0.02 c 5.48,0.69 11,1.25 16.54,1.75 1.03,0.09 2.07,0.19 3.11,0.27 5.39,0.45 10.8,0.79 16.24,1.03 1.09,0.05 2.17,0.08 3.27,0.12 5.26,0.21 10.55,0.34 15.86,0.36 h 0.02 c 0.31,0 0.63,0 0.94,0 0.07,0 0.14,0 0.22,0 v 0 h 2077.92 l 818.9,-250.41 H 1864.12 c -69.15,0 -125.21,-56.05 -125.21,-125.2 v -179.54" /><path
         id="path44"
         style="fill:#ebf1ff;fill-opacity:1;fill-rule:nonzero;stroke:none"
         d="M 11360.3,1790.45 7772.33,3149.76 H 11360.3 V 1790.45 m -24.1,1407.51 H 9460.12 v 499.51 c 1.83,-0.01 3.68,-0.01 5.51,-0.01 267.19,-0.02 528.52,101.58 725.97,288.11 l 1144.6,-350 v -437.61 m -1924.28,0 H 7645.09 l -109.25,41.39 v 1193.62 h 924.82 c 78.89,-247.86 248.96,-467.19 494.47,-603.15 145.29,-80.47 301.39,-123.04 456.79,-130.99 v -500.87 m -1924.28,59.65 -5748.73,2177.92 v 179.54 c 0,69.15 56.06,125.2 125.21,125.2 H 4453.25 L 7487.64,4812.4 V 4432.97 3257.61 m 958.92,1223.56 h -910.72 v 316.49 l 115.12,-35.2 v -165.21 h 540.27 l 245.24,-74.99 c 3.09,-13.78 6.45,-27.45 10.09,-41.09" /><path
         id="path46"
         style="fill:#d0d4ff;fill-opacity:1;fill-rule:nonzero;stroke:none"
         d="m 11542.8,357.039 h -556.9 l -627.3,250.41 h 876.5 c 69.1,0 125.2,56.063 125.2,125.211 v 826.49 l 626,-192.37 V 800.59 c 0,-244.961 -198.6,-443.551 -443.5,-443.551 v 0 m -9803.89,3691.331 -610.77,243.82 -15.27,10.21 v 405.59 l 626.04,-192.37 v -467.25" /><path
         id="path48"
         style="fill:#ebf1ff;fill-opacity:1;fill-rule:nonzero;stroke:none"
         d="m 11235.1,607.449 h -876.5 L 1738.91,4048.37 v 467.25 L 11360.3,1559.15 V 732.66 c 0,-69.148 -56.1,-125.211 -125.2,-125.211" /><path
         id="path50"
         style="fill:#969fff;fill-opacity:1;fill-rule:nonzero;stroke:none"
         d="m 1763.01,4481.17 h 1876.07 v 1235 H 1763.01 Z m 1924.28,-48.2 H 1714.8 v 1331.4 h 1972.49 v -1331.4" /><path
         id="path52"
         style="fill:#969fff;fill-opacity:1;fill-rule:nonzero;stroke:none"
         d="m 3687.29,4481.17 h 1876.07 v 1235 H 3687.29 Z m 1924.27,-48.2 H 3639.08 v 1331.4 h 1972.48 v -1331.4" /><path
         id="path54"
         style="fill:#969fff;fill-opacity:1;fill-rule:nonzero;stroke:none"
         d="m 5611.56,4481.17 h 1876.08 v 1235 H 5611.56 Z m 1924.28,-48.2 H 5563.36 v 1331.4 h 1972.48 v -1331.4" /><path
         id="path56"
         style="fill:#969fff;fill-opacity:1;fill-rule:nonzero;stroke:none"
         d="m 7535.84,4481.17 h 1876.08 v 1235 H 7535.84 v -1235 m 1924.28,-48.2 H 7487.64 v 1331.4 h 1972.48 v -1331.4" /><path
         id="path58"
         style="fill:#969fff;fill-opacity:1;fill-rule:nonzero;stroke:none"
         d="m 9460.12,4481.17 h 1876.08 v 1235 H 9460.12 v -1235 m 1924.28,-48.2 H 9411.92 v 1331.4 h 1972.48 v -1331.4" /><path
         id="path60"
         style="fill:#969fff;fill-opacity:1;fill-rule:nonzero;stroke:none"
         d="M 1763.01,3197.96 H 3639.08 V 4432.97 H 1763.01 Z m 1924.28,-48.2 H 1714.8 V 4481.17 H 3687.29 V 3149.76" /><path
         id="path62"
         style="fill:#3e4bf6;fill-opacity:1;fill-rule:nonzero;stroke:none"
         d="M 1875.9,4315.95 H 3526.2 V 3657.16 L 3225.13,3314.98 H 1875.9 v 1000.97" /><path
         id="path64"
         style="fill:#969fff;fill-opacity:1;fill-rule:nonzero;stroke:none"
         d="M 3687.29,3197.96 H 5563.36 V 4432.97 H 3687.29 Z m 1924.27,-48.2 H 3639.08 V 4481.17 H 5611.56 V 3149.76" /><path
         id="path66"
         style="fill:#969fff;fill-opacity:1;fill-rule:nonzero;stroke:none"
         d="M 5611.56,3197.96 H 7487.64 V 4432.97 H 5611.56 Z m 1924.28,-48.2 H 5563.36 V 4481.17 H 7535.84 V 3149.76" /><path
         id="path68"
         style="fill:#969fff;fill-opacity:1;fill-rule:nonzero;stroke:none"
         d="M 7535.84,3197.96 H 9411.92 V 4432.97 H 7535.84 V 3197.96 m 1924.28,-48.2 H 7487.64 V 4481.17 H 9460.12 V 3149.76" /><path
         id="path70"
         style="fill:#969fff;fill-opacity:1;fill-rule:nonzero;stroke:none"
         d="M 9460.12,3197.96 H 11336.2 V 4432.97 H 9460.12 V 3197.96 m 1924.28,-48.2 H 9411.92 V 4481.17 H 11384.4 V 3149.76" /><path
         id="path72"
         style="fill:#969fff;fill-opacity:1;fill-rule:nonzero;stroke:none"
         d="M 1763.01,1914.77 H 3639.08 V 3149.76 H 1763.01 Z m 1924.28,-48.22 H 1714.8 V 3197.96 H 3687.29 V 1866.55" /><path
         id="path74"
         style="fill:#969fff;fill-opacity:1;fill-rule:nonzero;stroke:none"
         d="M 3687.29,1914.77 H 5563.36 V 3149.76 H 3687.29 Z m 1924.27,-48.22 H 3639.08 V 3197.96 H 5611.56 V 1866.55" /><path
         id="path76"
         style="fill:#969fff;fill-opacity:1;fill-rule:nonzero;stroke:none"
         d="M 5611.56,1914.77 H 7487.64 V 3149.76 H 5611.56 Z m 1924.28,-48.22 H 5563.36 V 3197.96 H 7535.84 V 1866.55" /><path
         id="path78"
         style="fill:#969fff;fill-opacity:1;fill-rule:nonzero;stroke:none"
         d="M 7535.84,1914.77 H 9411.91 V 3149.76 H 7535.84 Z m 1924.28,-48.22 H 7487.64 V 3197.96 H 9460.12 V 1866.55" /><path
         id="path80"
         style="fill:#969fff;fill-opacity:1;fill-rule:nonzero;stroke:none"
         d="M 9460.12,1914.77 H 11336.2 V 3149.76 H 9460.12 Z m 1924.28,-48.22 H 9411.91 V 3197.96 H 11384.4 V 1866.55" /><path
         id="path82"
         style="fill:#969fff;fill-opacity:1;fill-rule:nonzero;stroke:none"
         d="M 1763.01,631.551 H 3639.08 V 1866.55 H 1763.01 Z M 3687.29,583.352 H 1714.8 V 1914.77 H 3687.29 V 583.352" /><path
         id="path84"
         style="fill:#969fff;fill-opacity:1;fill-rule:nonzero;stroke:none"
         d="M 3687.29,631.551 H 5563.36 V 1866.55 H 3687.29 Z M 5611.56,583.352 H 3639.08 V 1914.77 H 5611.56 V 583.352" /><path
         id="path86"
         style="fill:#969fff;fill-opacity:1;fill-rule:nonzero;stroke:none"
         d="M 5611.56,631.551 H 7487.64 V 1866.55 H 5611.56 Z M 7535.84,583.352 H 5563.36 V 1914.77 H 7535.84 V 583.352" /><path
         id="path88"
         style="fill:#969fff;fill-opacity:1;fill-rule:nonzero;stroke:none"
         d="M 7535.84,631.551 H 9411.91 V 1866.55 H 7535.84 Z M 9460.12,583.352 H 7487.64 V 1914.77 H 9460.12 V 583.352" /><path
         id="path90"
         style="fill:#969fff;fill-opacity:1;fill-rule:nonzero;stroke:none"
         d="M 9460.12,631.551 H 11336.2 V 1866.55 H 9460.12 Z M 11384.4,583.352 H 9411.91 V 1914.77 H 11384.4 V 583.352" /><path
         id="path92"
         style="fill:#969fff;fill-opacity:1;fill-rule:nonzero;stroke:none"
         d="M 5088.07,6070.64 H 2860.96 c -45.26,0 -81.95,-36.69 -81.95,-81.95 h 2391.01 c 0,45.26 -36.69,81.95 -81.95,81.95" /><path
         id="path94"
         style="fill:#969fff;fill-opacity:1;fill-rule:nonzero;stroke:none"
         d="m 7223.58,6070.64 h -1359.4 c -45.26,0 -81.95,-36.69 -81.95,-81.95 h 1523.31 c 0,45.26 -36.69,81.95 -81.96,81.95" /><path
         id="path96"
         style="fill:#969fff;fill-opacity:1;fill-rule:nonzero;stroke:none"
         d="m 3225.13,3314.98 301.07,342.18 h -301.07 z" /><path
         id="path98"
         style="fill:#969fff;fill-opacity:1;fill-rule:nonzero;stroke:none"
         d="M 5732.36,1751.4 H 7382.67 V 1092.61 L 7081.59,750.43 H 5732.36 V 1751.4" /><path
         id="path100"
         style="fill:#bfc5ff;fill-opacity:1;fill-rule:nonzero;stroke:none"
         d="m 7081.59,750.43 301.08,342.18 h -301.08 z" /><path
         id="path102"
         style="fill:#ffcb3b;fill-opacity:1;fill-rule:nonzero;stroke:none"
         d="m 4085.92,4080.65 1639.93,184.72 73.73,-654.66 -260.87,-373.73 -1340.76,-151.01 -112.03,994.68" /><path
         id="path104"
         style="fill:#ffe9ad;fill-opacity:1;fill-rule:nonzero;stroke:none"
         d="m 5538.71,3236.98 260.87,373.73 -299.17,-33.69 z" /><path
         id="path106"
         style="fill:#f7567e;fill-opacity:1;fill-rule:nonzero;stroke:none"
         d="M 7650.96,5598.22 H 9301.25 V 4939.44 L 9000.19,4597.25 H 7650.96 v 1000.97" /><path
         id="path108"
         style="fill:#ff91ad;fill-opacity:1;fill-rule:nonzero;stroke:none"
         d="m 8137.29,5235.28 h -239.34 c -18.59,0 -33.66,15.07 -33.66,33.66 0,18.59 15.07,33.66 33.66,33.66 h 239.34 c 18.59,0 33.66,-15.07 33.66,-33.66 0,-18.59 -15.07,-33.66 -33.66,-33.66" /><path
         id="path110"
         style="fill:#ff91ad;fill-opacity:1;fill-rule:nonzero;stroke:none"
         d="m 8735.66,5085.69 h -837.71 c -18.59,0 -33.66,15.07 -33.66,33.66 0,18.59 15.07,33.66 33.66,33.66 h 837.71 c 18.59,0 33.66,-15.07 33.66,-33.66 0,-18.59 -15.07,-33.66 -33.66,-33.66" /><path
         id="path112"
         style="fill:#ff91ad;fill-opacity:1;fill-rule:nonzero;stroke:none"
         d="m 8361.68,4936.1 h -463.73 c -18.59,0 -33.66,15.07 -33.66,33.66 0,18.59 15.07,33.65 33.66,33.65 h 463.73 c 18.59,0 33.66,-15.06 33.66,-33.65 0,-18.59 -15.07,-33.66 -33.66,-33.66" /><path
         id="path114"
         style="fill:#ff91ad;fill-opacity:1;fill-rule:nonzero;stroke:none"
         d="m 8660.87,5235.28 h -388.95 c -18.58,0 -33.65,15.07 -33.65,33.66 0,18.59 15.07,33.66 33.65,33.66 h 388.95 c 18.58,0 33.65,-15.07 33.65,-33.66 0,-18.59 -15.07,-33.66 -33.65,-33.66" /><path
         id="path116"
         style="fill:#969fff;fill-opacity:1;fill-rule:nonzero;stroke:none"
         d="m 2371.88,3977.11 h -239.35 c -18.59,0 -33.66,15.07 -33.66,33.66 0,18.59 15.07,33.66 33.66,33.66 h 239.35 c 18.59,0 33.66,-15.07 33.66,-33.66 0,-18.59 -15.07,-33.66 -33.66,-33.66" /><path
         id="path118"
         style="fill:#969fff;fill-opacity:1;fill-rule:nonzero;stroke:none"
         d="m 2970.25,3827.52 h -837.72 c -18.59,0 -33.66,15.07 -33.66,33.65 0,18.6 15.07,33.67 33.66,33.67 h 837.72 c 18.59,0 33.66,-15.07 33.66,-33.67 0,-18.58 -15.07,-33.65 -33.66,-33.65" /><path
         id="path120"
         style="fill:#969fff;fill-opacity:1;fill-rule:nonzero;stroke:none"
         d="m 2596.26,3677.93 h -463.73 c -18.59,0 -33.66,15.07 -33.66,33.65 0,18.6 15.07,33.67 33.66,33.67 h 463.73 c 18.59,0 33.67,-15.07 33.67,-33.67 0,-18.58 -15.08,-33.65 -33.67,-33.65" /><path
         id="path122"
         style="fill:#969fff;fill-opacity:1;fill-rule:nonzero;stroke:none"
         d="m 2895.45,3977.11 h -388.94 c -18.59,0 -33.66,15.07 -33.66,33.66 0,18.59 15.07,33.66 33.66,33.66 h 388.94 c 18.59,0 33.66,-15.07 33.66,-33.66 0,-18.59 -15.07,-33.66 -33.66,-33.66" /><path
         id="path124"
         style="fill:#bfc5ff;fill-opacity:1;fill-rule:nonzero;stroke:none"
         d="m 6266.9,1441.49 h -239.34 c -18.59,0 -33.65,15.06 -33.65,33.66 0,18.58 15.06,33.65 33.65,33.65 h 239.34 c 18.6,0 33.67,-15.07 33.67,-33.65 0,-18.6 -15.07,-33.66 -33.67,-33.66" /><path
         id="path126"
         style="fill:#bfc5ff;fill-opacity:1;fill-rule:nonzero;stroke:none"
         d="m 6865.27,1291.9 h -837.71 c -18.59,0 -33.65,15.06 -33.65,33.65 0,18.59 15.06,33.66 33.65,33.66 h 837.71 c 18.6,0 33.67,-15.07 33.67,-33.66 0,-18.59 -15.07,-33.65 -33.67,-33.65" /><path
         id="path128"
         style="fill:#bfc5ff;fill-opacity:1;fill-rule:nonzero;stroke:none"
         d="m 6491.3,1142.3 h -463.74 c -18.59,0 -33.65,15.07 -33.65,33.66 0,18.59 15.06,33.66 33.65,33.66 h 463.74 c 18.58,0 33.65,-15.07 33.65,-33.66 0,-18.59 -15.07,-33.66 -33.65,-33.66" /><path
         id="path130"
         style="fill:#bfc5ff;fill-opacity:1;fill-rule:nonzero;stroke:none"
         d="m 6790.48,1441.49 h -388.94 c -18.59,0 -33.66,15.06 -33.66,33.66 0,18.58 15.07,33.65 33.66,33.65 h 388.94 c 18.59,0 33.66,-15.07 33.66,-33.65 0,-18.6 -15.07,-33.66 -33.66,-33.66" /><path
         id="path132"
         style="fill:#ffe9ad;fill-opacity:1;fill-rule:nonzero;stroke:none"
         d="m 4568.35,3875.33 -237.98,-25.56 c -18.49,-1.99 -35.08,11.38 -37.06,29.87 -1.98,18.49 11.39,35.08 29.87,37.06 l 237.98,25.56 c 18.49,1.99 35.08,-11.39 37.06,-29.88 1.99,-18.47 -11.38,-35.06 -29.87,-37.05" /><path
         id="path134"
         style="fill:#ffe9ad;fill-opacity:1;fill-rule:nonzero;stroke:none"
         d="m 5179.28,3790.49 -832.93,-89.46 c -18.49,-1.99 -35.08,11.39 -37.06,29.87 -1.99,18.49 11.38,35.08 29.87,37.06 l 832.92,89.46 c 18.49,1.99 35.08,-11.38 37.06,-29.87 1.99,-18.48 -11.39,-35.08 -29.86,-37.06" /><path
         id="path136"
         style="fill:#ffe9ad;fill-opacity:1;fill-rule:nonzero;stroke:none"
         d="m 4823.41,3601.82 -461.09,-49.52 c -18.48,-1.99 -35.07,11.38 -37.06,29.87 -1.99,18.48 11.39,35.07 29.88,37.06 l 461.08,49.52 c 18.48,1.98 35.07,-11.39 37.06,-29.87 1.98,-18.49 -11.4,-35.08 -29.87,-37.06" /><path
         id="path138"
         style="fill:#ffe9ad;fill-opacity:1;fill-rule:nonzero;stroke:none"
         d="m 5088.93,3931.24 -386.71,-41.53 c -18.49,-1.99 -35.08,11.39 -37.06,29.87 -2,18.48 11.38,35.07 29.87,37.06 l 386.71,41.54 c 18.48,1.98 35.08,-11.39 37.06,-29.88 1.99,-18.48 -11.39,-35.08 -29.87,-37.06" /><path
         id="path140"
         style="fill:#f78fa9;fill-opacity:1;fill-rule:nonzero;stroke:none"
         d="m 9000.19,4597.25 301.06,342.19 h -301.06 v -342.19" /><path
         id="path142"
         style="fill:#43b3ff;fill-opacity:1;fill-rule:nonzero;stroke:none"
         d="M 9605.18,1530.85 7541.4,2598.36 7709.72,2923.77 9773.5,1856.26 9605.18,1530.85" /><path
         id="path144"
         style="fill:#f7c6d2;fill-opacity:1;fill-rule:nonzero;stroke:none"
         d="m 7541.4,2598.36 168.32,325.41 -608.54,135.66 c -24.98,5.57 -41.12,-25.63 -22.14,-42.81 l 462.36,-418.26" /><path
         id="path146"
         style="fill:#ffc31b;fill-opacity:1;fill-rule:nonzero;stroke:none"
         d="m 9605.18,1530.85 149.86,-77.52 168.32,325.41 -149.86,77.52 -168.32,-325.41" /><path
         id="path148"
         style="fill:#f7567e;fill-opacity:1;fill-rule:nonzero;stroke:none"
         d="m 9755.04,1453.33 196.95,-101.87 c 89.91,-46.49 200.41,-11.32 246.91,78.54 46.4,89.85 11.3,200.38 -78.6,246.87 l -196.94,101.87 -168.32,-325.41" /><path
         id="path150"
         style="fill:#5261ff;fill-opacity:1;fill-rule:nonzero;stroke:none"
         d="m 7398.29,2993.19 -297.11,66.24 c -24.98,5.57 -41.12,-25.63 -22.14,-42.81 l 225.74,-204.21 93.51,180.78" /><path
         id="path152"
         style="fill:#ffa2ad;fill-opacity:1;fill-rule:nonzero;stroke:none"
         d="M 9548.59,393.52 V 184.699 h -109.68 l -12.66,225.692 122.34,-16.871" /><path
         id="path154"
         style="fill:#fe7592;fill-opacity:1;fill-rule:nonzero;stroke:none"
         d="m 9548.59,311.25 h -116.78 l -5.56,99.141 122.34,-16.871 v -82.27" /><path
         id="path156"
         style="fill:#ffc31b;fill-opacity:1;fill-rule:nonzero;stroke:none"
         d="m 9480.19,1503.56 43.27,-647.951 55.44,-382.05 h -195.06 l -218.38,671.201 c 0,0 -125.25,-269.768 -138.1,-366.119 -12.85,-96.332 -67.44,-247.282 -67.44,-247.282 l -231.23,16.063 c 0,0 19.27,334 19.27,417.488 0,83.51 38.54,552.39 38.54,552.39 l 382.17,231.23 311.52,-244.97" /><path
         id="path158"
         style="fill:#ffa000;fill-opacity:1;fill-rule:nonzero;stroke:none"
         d="m 8776.99,1398.85 c 5.47,69.3 9.51,118.45 9.51,118.45 l 382.17,231.23 311.52,-244.97 6.29,-94.37 c 0,0 -128.59,-50.98 -275.27,-34.14 l -14.12,62.89 -22.15,-66.3 c 0,0 -169.66,-18.67 -397.95,27.21" /><path
         id="path160"
         style="fill:#ffa2ad;fill-opacity:1;fill-rule:nonzero;stroke:none"
         d="m 8887,410.391 -45.91,-225.692 h -112.4 l 19.09,253.102 139.22,-27.41" /><path
         id="path162"
         style="fill:#fe7592;fill-opacity:1;fill-rule:nonzero;stroke:none"
         d="m 8738.24,311.25 9.54,126.551 139.22,-27.41 -20.16,-99.141 h -128.6" /><path
         id="path164"
         style="fill:#f7567e;fill-opacity:1;fill-rule:nonzero;stroke:none"
         d="M 9548.59,184.699 V 68.2695 c 0,-19.5781 -15.88,-35.4492 -35.45,-35.4492 h -247.19 c -40.08,0 -40.08,35.8594 -35.86,50.6289 4.22,14.7617 137.1,50.6208 208.82,101.2498 h 109.68" /><path
         id="path166"
         style="fill:#f7567e;fill-opacity:1;fill-rule:nonzero;stroke:none"
         d="M 8841.09,184.699 V 68.2695 c 0,-19.5781 -15.87,-35.4492 -35.45,-35.4492 h -247.19 c -40.08,0 -40.08,35.8594 -35.86,50.6289 4.22,14.7617 134.38,50.6208 206.1,101.2498 h 112.4" /><path
         id="path168"
         style="fill:#ffa2ad;fill-opacity:1;fill-rule:nonzero;stroke:none"
         d="m 8770.51,1955.42 c 0,0 -53.76,-102.14 -137.09,-145.16 -83.33,-43 -287.62,129.04 -376.33,298.38 l 56.45,43.01 266.12,-185.48 96.77,142.47 94.08,-153.22" /><path
         id="path170"
         style="fill:#ffa2ad;fill-opacity:1;fill-rule:nonzero;stroke:none"
         d="m 8315.5,2143.52 c 0,0 -1.01,42.31 -24.24,84.11 -23.24,41.8 -61.08,52.72 -89.65,50.12 -28.56,-2.61 -49.67,71.52 -65.5,82.92 -15.83,11.4 -26.37,0 -21.1,-17.1 5.27,-17.11 -10.55,-57.04 5.27,-85.54 15.83,-28.52 137.38,-148.26 137.38,-148.26 l 57.84,33.75" /><path
         id="path172"
         style="fill:#fe7592;fill-opacity:1;fill-rule:nonzero;stroke:none"
         d="m 8633.42,1810.26 c -55.09,-28.42 -163.02,37.12 -255.49,133.74 0.17,-0.08 163.43,-110.77 214.66,-120.19 51.25,-9.42 105.69,91.86 105.69,91.86 -55.91,88.53 -71.37,120.08 -71.37,120.08 l 49.52,72.89 94.08,-153.22 c 0,0 -53.76,-102.14 -137.09,-145.16" /><path
         id="path174"
         style="fill:#ffa2ad;fill-opacity:1;fill-rule:nonzero;stroke:none"
         d="m 9601.1,2108.64 c 0,0 64.53,-123.65 99.47,-274.18 34.94,-150.52 24.19,-236.55 24.19,-236.55 h -89.47 c 0,0 -47.62,276.88 -165.9,451.59 l 131.71,59.14" /><path
         id="path176"
         style="fill:#fe7592;fill-opacity:1;fill-rule:nonzero;stroke:none"
         d="m 9478.71,2035.28 -3.57,16.8 125.96,56.56 c 0,0 8.57,-16.41 21.14,-44.55 -12.63,-14.75 -33.81,-37.46 -57.57,-54.4 -23.58,-16.81 -12.64,-94.7 -0.81,-151.9 -22.43,60.61 -50.61,123.23 -85.15,177.49" /><path
         id="path178"
         style="fill:#fe7592;fill-opacity:1;fill-rule:nonzero;stroke:none"
         d="m 9077.58,2692.98 v -129.02 h 91.01 v 109.66 l -91.01,19.36" /><path
         id="path180"
         style="fill:#ffa2ad;fill-opacity:1;fill-rule:nonzero;stroke:none"
         d="m 9000.87,2896.18 c 0,0 -48.38,-154.82 -16.13,-199.98 32.25,-45.15 145.15,-38.7 145.15,-38.7 l 51.6,209.66 -180.62,29.02" /><path
         id="path182"
         style="fill:#1a006d;fill-opacity:1;fill-rule:nonzero;stroke:none"
         d="m 9082.33,2846.83 c 0,0 -24.43,-69.08 -19.12,-100.95 5.32,-31.88 46.75,-137.07 100.94,-133.89 54.2,3.2 70.14,191.27 70.14,191.27 l -151.96,43.57" /><path
         id="path184"
         style="fill:#ffa2ad;fill-opacity:1;fill-rule:nonzero;stroke:none"
         d="m 9054.44,2729.38 c 0,0 70.49,-16.65 68.65,30.61 -1.86,47.27 -28.05,69.87 -45.51,59.6 -17.47,-10.27 -23.14,-6.16 -23.14,-6.16 v -84.05" /><path
         id="path186"
         style="fill:#fe7592;fill-opacity:1;fill-rule:nonzero;stroke:none"
         d="m 9123.09,2800.86 v -24.18 c 0,0 -68.84,-3.2 -139.82,49.74 7.83,38.51 17.6,69.76 17.6,69.76 l 168.31,-79.05 -46.09,-16.27" /><path
         id="path188"
         style="fill:#f7567e;fill-opacity:1;fill-rule:nonzero;stroke:none"
         d="m 9062.45,2994.14 c 0,0 67.02,112.75 171.84,42.66 104.8,-70.08 67.52,-214 -2.97,-260.12 0,0 -134.48,1.1 -250.28,81.86 -115.8,80.75 -140.17,182.83 -99.03,208.74 41.13,25.9 94.26,0 180.44,-73.14" /><path
         id="path190"
         style="fill:#3e4bf6;fill-opacity:1;fill-rule:nonzero;stroke:none"
         d="m 9224.52,2508.83 -11.05,64.11 c 0,0 -130.33,44.22 -239.82,-39.78 v -35.39 c 0,0 109.38,48.65 250.87,11.06" /><path
         id="path192"
         style="fill:#2c34ac;fill-opacity:1;fill-rule:nonzero;stroke:none"
         d="m 9218.95,2541.17 3.94,-22.88 c 0,0 -49.76,19.47 -140.9,13.71 0,0 82.69,16.07 136.96,9.17" /><path
         id="path194"
         style="fill:#3e4bf6;fill-opacity:1;fill-rule:nonzero;stroke:none"
         d="m 9642.04,2107.46 c 0,0 -164.75,354.24 -410.77,408.99 -89.62,19.95 -151.18,25.06 -250.87,-11.05 -99.7,-36.12 -250.46,-224.57 -359.76,-397.94 0,0 15.08,-116.84 188.45,-207.29 l -52.76,-422.13 c 0,0 288.76,-30.16 398.79,-30.16 l 20.22,237.45 55.93,-237.45 c 0,0 188.4,-3.77 290.17,18.85 l -79.15,546.5 c 0,0 146.99,49 199.75,94.23" /><path
         id="path196"
         style="fill:#2c34ac;fill-opacity:1;fill-rule:nonzero;stroke:none"
         d="m 9519.03,2042.02 -0.35,-0.15 c -41.72,-17.07 -76.39,-28.64 -76.39,-28.64 l 0.51,-3.54 -41.94,229.27 c 0,0 70.98,-157.48 118.17,-196.94" /><path
         id="path198"
         style="fill:#ffa000;fill-opacity:1;fill-rule:nonzero;stroke:none"
         d="M 9611.16,544.211 9607.12,374 h -239.34 l -34.48,170.211 h 277.86" /><path
         id="path200"
         style="fill:#ffa000;fill-opacity:1;fill-rule:nonzero;stroke:none"
         d="M 9004.88,544.211 8941.38,374 h -241.53 l -6.48,202.32 311.51,-32.109" /><path
         id="path202"
         style="fill:#2c34ac;fill-opacity:1;fill-rule:nonzero;stroke:none"
         d="m 8809.55,1891.19 53.03,303.7 -139.22,-238.78 z" /><path
         id="path204"
         style="fill:#ffa2ad;fill-opacity:1;fill-rule:nonzero;stroke:none"
         d="m 9636.34,1598.79 c 0,0 -45.33,-109.95 -28.17,-127.12 17.17,-17.17 80.13,-51.51 114.48,-45.79 34.33,5.72 0.47,155.73 0.47,172.91 0,17.17 -86.78,0 -86.78,0" /><path
         id="path206"
         style="fill:#ffa2ad;fill-opacity:1;fill-rule:nonzero;stroke:none"
         d="m 9719.63,1602.4 c 0,0 28.61,-17.16 34.33,-40.06 5.73,-22.9 22.91,-40.06 17.18,-51.51 -5.73,-11.44 -22.9,0 -28.62,11.45 -5.72,11.44 -34.34,34.33 -34.34,34.33 l 11.45,45.79" /><path
         id="path208"
         style="fill:#ffa2ad;fill-opacity:1;fill-rule:nonzero;stroke:none"
         d="m 8294.39,2149.69 c 0,0 15.83,68.42 5.29,102.64 -10.56,34.2 -10.56,74.13 -15.83,79.83 -5.28,5.7 -26.39,17.11 -26.39,-17.11 0,-34.21 0,-50.71 0,-50.71 l -36.92,-51.93 73.85,-62.72" /><path
         id="path210"
         style="fill:#1a006d;fill-opacity:1;fill-rule:nonzero;stroke:none"
         d="m 2713.45,168.082 c 0,0 -150.28,-60.113 -150.28,-90.1718 0,-30.0586 255.48,-15.0313 293.05,7.5117 37.57,22.5471 0,82.6601 0,82.6601 h -142.77" /><path
         id="path212"
         style="fill:#1a006d;fill-opacity:1;fill-rule:nonzero;stroke:none"
         d="m 3365.32,168.082 c 0,0 150.28,-60.113 150.28,-90.1718 0,-30.0586 -255.48,-15.0313 -293.05,7.5117 -37.57,22.5471 0,82.6601 0,82.6601 h 142.77" /><path
         id="path214"
         style="fill:#482af6;fill-opacity:1;fill-rule:nonzero;stroke:none"
         d="m 2738.92,1696.5 c 0,0 -148.31,-865.141 -65.92,-1540.781 0,0 57.68,-24.707 205.99,0 l 148.31,922.831 164.79,-906.351 c 0,0 90.63,-41.187 205.99,0 0,0 8.24,1112.331 -74.16,1524.301 h -585" /><path
         id="path216"
         style="fill:#ade4ff;fill-opacity:1;fill-rule:nonzero;stroke:none"
         d="m 2720.33,1447.26 c -10.21,0 -16.53,1.1 -16.81,1.16 -1.34,0.25 -2.22,1.54 -1.97,2.88 0.26,1.33 1.55,2.2 2.88,1.96 1.37,-0.26 137.27,-23.67 180.4,161.41 0.31,1.33 1.65,2.15 2.96,1.84 1.32,-0.31 2.15,-1.63 1.84,-2.95 -35.04,-150.34 -130.43,-166.3 -169.3,-166.3" /><path
         id="path218"
         style="fill:#ade4ff;fill-opacity:1;fill-rule:nonzero;stroke:none"
         d="m 3357.14,1447.55 h -0.06 c -1.64,0.04 -164.24,5.82 -167.45,174.76 -0.03,1.36 1.05,2.49 2.42,2.51 h 0.04 c 1.34,0 2.44,-1.08 2.47,-2.42 3.11,-164.17 156.12,-169.77 162.64,-169.93 1.36,-0.03 2.43,-1.16 2.4,-2.52 -0.03,-1.34 -1.12,-2.4 -2.46,-2.4" /><path
         id="path220"
         style="fill:#ade4ff;fill-opacity:1;fill-rule:nonzero;stroke:none"
         d="m 3005.04,1435.3 h 36.28 v 176.35 h -36.28 z m 38.74,-4.92 h -41.2 c -1.36,0 -2.46,1.11 -2.46,2.46 v 181.27 c 0,1.37 1.1,2.46 2.46,2.46 h 41.2 c 1.36,0 2.46,-1.09 2.46,-2.46 v -181.27 c 0,-1.35 -1.1,-2.46 -2.46,-2.46" /><path
         id="path222"
         style="fill:#ffb1d0;fill-opacity:1;fill-rule:nonzero;stroke:none"
         d="m 2979.78,2650.15 c 0,0 31.04,-121.45 -84.31,-146.16 0,0 82.39,-173.04 148.31,-173.04 65.92,0 156.55,197.75 156.55,197.75 0,0 -107.11,8.23 -107.11,41.19 0,32.96 0,82.41 0,82.41 l -113.44,-2.15" /><path
         id="path224"
         style="fill:#feab00;fill-opacity:1;fill-rule:nonzero;stroke:none"
         d="m 2895.47,2528.7 148.31,-173.03 140.07,197.75 c 0,0 477.89,-56.82 477.89,-411.97 0,-206 -304.86,-197.76 -304.86,-197.76 V 1630.6 c 0,0 -280.14,-32.96 -667.4,0 v 173.02 c 0,0 -280.14,123.6 -173.03,411.98 107.11,288.39 379.02,313.1 379.02,313.1" /><path
         id="path226"
         style="fill:#ff9400;fill-opacity:1;fill-rule:nonzero;stroke:none"
         d="m 3356.88,1943.69 c -98.87,0 -131.83,8.24 -131.83,8.24 l 5.76,54.76 -435.21,-13.01 -23.72,-49.99 h 205.98 l 8.24,-90.63 c 0,0 -140.07,-115.35 -296.62,-49.44 v -98.07 c 50.43,-2.07 185.98,2.13 313.1,91.98 0,0 136.08,25.15 156.98,51.75 20.89,26.6 22.79,39.9 22.79,39.9 l 174.53,15.57 v 38.94 c 0,0 3.86,-0.1 10.68,0.01 v 21.35 l -10.68,-21.36" /><path
         id="path228"
         style="fill:#482af6;fill-opacity:1;fill-rule:nonzero;stroke:none"
         d="m 2842.15,2517.92 209.87,-228.16 196.37,251.62 -64.54,12.04 -140.07,-197.75 -148.31,173.03 -53.32,-10.78" /><path
         id="path230"
         style="fill:#ffb1d0;fill-opacity:1;fill-rule:nonzero;stroke:none"
         d="m 2984.83,1867.03 c 0,0 124.87,2.51 149.58,43.7 24.72,41.2 -156.55,32.96 -156.55,32.96 l 6.97,-76.66" /><path
         id="path232"
         style="fill:#ff9400;fill-opacity:1;fill-rule:nonzero;stroke:none"
         d="m 3241.53,2108.49 c 0,0 107.11,90.63 247.18,98.86 0,0 -82.77,21.43 -150.99,21.43 0,0 -19.04,76.16 1.58,155.49 l -97.77,-275.78" /><path
         id="path234"
         style="fill:#1a006d;fill-opacity:1;fill-rule:nonzero;stroke:none"
         d="m 3270.95,1927.22 h -462.58 c -11.67,0 -21.75,8.15 -24.18,19.57 l -71.88,337.82 c -3.27,15.38 8.46,29.86 24.18,29.86 h 606.34 c 15.72,0 27.45,-14.48 24.18,-29.86 l -71.88,-337.82 c -2.43,-11.42 -12.51,-19.57 -24.18,-19.57" /><path
         id="path236"
         style="fill:#240099;fill-opacity:1;fill-rule:nonzero;stroke:none"
         d="m 3111.75,2120.84 c 0,-39.81 -32.27,-72.09 -72.09,-72.09 -39.82,0 -72.1,32.28 -72.1,72.09 0,39.83 32.28,72.1 72.1,72.1 39.82,0 72.09,-32.27 72.09,-72.1" /><path
         id="path238"
         style="fill:#fe7592;fill-opacity:1;fill-rule:nonzero;stroke:none"
         d="m 3052.57,2553.42 c 15.13,0 28.82,5.16 40.85,14.44 l -0.2,2.03 c 0,32.96 0,82.41 0,82.41 l -113.44,-2.15 c 0,0 9.56,-37.52 -1.73,-75.1 20.81,-15.87 46.87,-21.63 74.52,-21.63" /><path
         id="path240"
         style="fill:#ffb1d0;fill-opacity:1;fill-rule:nonzero;stroke:none"
         d="m 3037.54,2914.63 c -82.65,0 -112.71,-112.71 -105.2,-195.37 7.52,-82.66 60.12,-105.2 120.23,-105.2 60.12,0 97.68,67.63 97.68,150.29 0,82.65 -45.08,150.28 -112.71,150.28" /><path
         id="path242"
         style="fill:#1a006d;fill-opacity:1;fill-rule:nonzero;stroke:none"
         d="m 2895.47,2734.69 c 32.96,-16.49 107.11,49.43 107.11,90.63 0,41.19 98.88,-57.67 181.27,-16.48 82.4,41.2 74.16,74.16 32.96,82.4 0,0 90.63,16.48 57.68,90.64 -32.96,74.15 -173.03,41.19 -230.71,0 0,0 0,74.15 -57.68,41.19 -57.67,-32.96 -82.39,-90.64 -82.39,-107.11 0,0 -16.48,41.19 -49.44,-32.96 -32.96,-74.16 8.24,-131.84 41.2,-148.31" /><path
         id="path244"
         style="fill:#501857;fill-opacity:1;fill-rule:nonzero;stroke:none"
         d="m 7203.1,5998.04 c 0,0 -54.15,-16.2 -97.37,0 -22.47,8.43 -37.44,210.57 -14.98,218.99 22.47,8.42 67.4,-109.49 74.89,-117.92 7.49,-8.42 37.46,-42.11 37.46,-42.11 v -58.96" /><path
         id="path246"
         style="fill:#ff9400;fill-opacity:1;fill-rule:nonzero;stroke:none"
         d="m 8516.6,5967.33 c -220.11,0 -564.6,44.89 -669.45,37.41 -104.85,-7.49 -531.72,-37.45 -651.54,-14.98 0,0 -14.98,37.44 0,112.34 0,0 509.25,157.27 629.08,172.24 119.82,14.98 651.55,-44.93 651.55,-44.93 l 40.36,-262.08" /><path
         id="path248"
         style="fill:#1a006d;fill-opacity:1;fill-rule:nonzero;stroke:none"
         d="m 8611.04,7337.79 c 22.47,-44.93 44.94,-59.91 157.27,-59.91 112.33,0 217.19,-52.42 172.25,-179.74 -44.93,-127.31 -239.65,-74.89 -329.52,-44.93 -89.87,29.96 -404.41,29.96 -404.41,157.27 0,127.31 97.35,112.33 112.33,194.72 l 292.08,-67.41" /><path
         id="path250"
         style="fill:#2a00ad;fill-opacity:1;fill-rule:nonzero;stroke:none"
         d="m 7641.72,6506.72 v 0 c -10.87,0 -20.65,6.6 -24.72,16.67 l -124.9,308.96 c -5.1,12.61 4.18,26.36 17.77,26.36 h 5.05 c 7.82,0 14.86,-4.74 17.79,-11.99 l 126.78,-313.64 c 5.1,-12.6 -4.18,-26.36 -17.77,-26.36" /><path
         id="path252"
         style="fill:#2a00ad;fill-opacity:1;fill-rule:nonzero;stroke:none"
         d="m 8031.89,6559.15 h -389.43 c -14.48,0 -26.21,-11.74 -26.21,-26.21 0,-14.48 11.73,-26.22 26.21,-26.22 h 389.43 c 14.48,0 26.22,11.74 26.22,26.22 0,14.47 -11.74,26.21 -26.22,26.21" /><path
         id="path254"
         style="fill:#f7567e;fill-opacity:1;fill-rule:nonzero;stroke:none"
         d="m 8386.37,7165.54 c -127.32,-29.95 -232.16,-209.69 -277.1,-314.54 -44.93,-104.85 -202.2,-119.82 -284.58,-104.85 0,0 -37.45,-59.91 -7.49,-104.84 0,0 247.14,-119.83 479.29,29.96 l 89.88,494.27" /><path
         id="path256"
         style="fill:#f7567e;fill-opacity:1;fill-rule:nonzero;stroke:none"
         d="m 8551.12,7180.52 c 112.35,-37.44 262.12,-112.03 262.12,-479.3 0,-164.76 -14.97,-307.05 -14.97,-307.05 0,0 -524.24,0 -576.66,0 0,0 -29.96,674.01 164.76,771.37 l 164.75,14.98" /><path
         id="path258"
         style="fill:#de355f;fill-opacity:1;fill-rule:nonzero;stroke:none"
         d="m 8220.07,6462.44 c 59.71,-10.15 168.58,-10.72 308.59,66.53 99.3,54.79 146.94,147.14 162.95,236.98 0,0 -4.8,-177.19 -112.69,-274.21 -43.99,-39.55 -88.01,-65.96 -88.01,-65.96 l 248.29,-31.61 c -138.57,0 -476.07,0 -517.59,0 0,0 -1.15,25.9 -1.54,68.27" /><path
         id="path260"
         style="fill:#de355f;fill-opacity:1;fill-rule:nonzero;stroke:none"
         d="m 8169.18,6667.55 c 11.98,56.99 102.89,315.21 102.89,315.21 -29.14,-101.92 -42.42,-227.95 -48.14,-337.2 l -0.6,-12.91 c -74.8,-31.4 -148.29,-39.11 -211.76,-36.1 l -77.29,9.11 c 149.86,-8.41 234.9,61.89 234.9,61.89" /><path
         id="path262"
         style="fill:#ffb1d0;fill-opacity:1;fill-rule:nonzero;stroke:none"
         d="m 8501.59,7258.62 c 0,0 -10.38,-55.63 49.53,-78.1 0,0 6.7,-154.11 -127.31,-127.31 -74.88,14.97 -44.93,97.36 -37.44,112.33 7.49,14.98 44.93,0 37.44,59.92 l 77.78,33.16" /><path
         id="path264"
         style="fill:#fe7592;fill-opacity:1;fill-rule:nonzero;stroke:none"
         d="m 8415.79,7182.57 c 6.73,6.68 11.06,18.65 8.02,42.89 l 77.78,33.16 c 0,0 -3.33,-17.92 4.73,-37.52 l 0.01,-0.05 c 0,0 -21.07,-44.9 -90.54,-38.48" /><path
         id="path266"
         style="fill:#f7567e;fill-opacity:1;fill-rule:nonzero;stroke:none"
         d="m 8648.49,7008.27 c -108.69,96.61 -224.68,-22.46 -277.1,-224.67 -52.43,-202.21 -202.21,-202.21 -202.21,-202.21 0,0 -22.46,-14.97 0,-104.84 0,0 142.29,-67.4 359.48,52.42 217.18,119.83 187.23,419.39 119.83,479.3" /><path
         id="path268"
         style="fill:#70227a;fill-opacity:1;fill-rule:nonzero;stroke:none"
         d="m 7352.87,6087.12 c 0,0 -74.89,-44.94 -134.8,-59.92 -59.92,-14.98 -89.87,-14.98 -82.38,-37.44 7.49,-22.47 172.25,-22.47 217.18,-22.47 44.93,0 59.91,59.91 59.91,59.91 l -59.91,59.92" /><path
         id="path270"
         style="fill:#feab00;fill-opacity:1;fill-rule:nonzero;stroke:none"
         d="m 8798.27,6394.17 c 14.97,-179.74 -29.96,-441.86 -329.52,-426.88 -299.57,14.98 -501.77,202.2 -606.62,209.69 -104.84,7.49 -337.01,-172.24 -441.86,-187.22 0,0 -59.91,37.44 -74.89,119.82 0,0 329.52,419.39 501.77,419.39 172.25,0 509.67,-134.8 509.67,-134.8 h 441.45" /><path
         id="path272"
         style="fill:#ffb1d0;fill-opacity:1;fill-rule:nonzero;stroke:none"
         d="m 8163.77,6573.18 c 0,0 -120.51,45.6 -147.41,23.16 -26.92,-22.43 25.77,-111.1 149.21,-104.21 l -1.8,81.05" /><path
         id="path274"
         style="fill:#ffb1d0;fill-opacity:1;fill-rule:nonzero;stroke:none"
         d="m 7824.69,6731.18 c 0,0 -112.34,59.91 -142.3,22.46 -29.96,-37.44 128.52,-100.41 128.52,-100.41 l 13.78,77.95" /><path
         id="path276"
         style="fill:#de355f;fill-opacity:1;fill-rule:nonzero;stroke:none"
         d="m 8169.18,6581.39 c 0,0 149.78,0 202.21,202.21 16.81,64.87 40.18,121.19 67.74,164.57 0,0 -119.26,-192.83 -142.2,-248.27 -22.94,-55.44 -63.35,-111.8 -127.75,-118.51" /><path
         id="path278"
         style="fill:#ffb1d0;fill-opacity:1;fill-rule:nonzero;stroke:none"
         d="m 8441.9,7493 c 78.14,-6.91 97.12,-115.98 83.1,-193.49 -14.02,-77.51 -65.62,-94.41 -122.46,-89.38 -56.83,5.03 -86.68,72.1 -79.77,150.24 6.93,78.14 55.21,138.29 119.13,132.63" /><path
         id="path280"
         style="fill:#3e4bf6;fill-opacity:1;fill-rule:nonzero;stroke:none"
         d="m 8618.53,7480.09 c 45.98,-26.27 29.96,-142.3 -7.49,-142.3 -37.45,0 -97.36,22.47 -164.76,37.45 -67.4,14.97 -149.79,0 -149.79,37.45 0,37.44 -14.97,119.82 14.98,134.8 29.97,14.98 202.21,-7.49 307.06,-67.4" /><path
         id="path282"
         style="fill:#3e4bf6;fill-opacity:1;fill-rule:nonzero;stroke:none"
         d="m 8618.53,7465.11 c 0,0 59.91,142.29 -89.87,194.72 -149.78,52.42 -209.7,-134.81 -209.7,-134.81 l 299.57,-59.91" /><path
         id="path284"
         style="fill:#8ba3ec;fill-opacity:1;fill-rule:nonzero;stroke:none"
         d="m 8563.54,7346.46 1.2,0.33 c 28.51,17.46 44.01,68.63 42.51,108.01 -0.84,22.13 -7.02,37.24 -17.4,42.56 -1.13,0.58 -2.51,0.13 -3.09,-1 -0.58,-1.13 -0.13,-2.52 1,-3.1 8.7,-4.45 14.12,-18.54 14.89,-38.63 1.41,-37.24 -13.6,-87.55 -40.32,-103.91 -1.08,-0.67 -1.42,-2.08 -0.76,-3.17 l 1.97,-1.09" /><path
         id="path286"
         style="fill:#8ba3ec;fill-opacity:1;fill-rule:nonzero;stroke:none"
         d="m 8476.37,7366.79 c 11.3,0 21.13,18.27 27.55,34.16 16.4,40.64 29.29,113.65 13.6,123.5 -1.07,0.66 -2.5,0.34 -3.17,-0.73 -0.68,-1.08 -0.36,-2.5 0.73,-3.18 11.27,-7.07 2.63,-73.16 -15.43,-117.87 -8.59,-21.26 -17.43,-32.68 -24.51,-31.15 -1.19,0.25 -2.46,-0.54 -2.73,-1.78 -0.26,-1.25 0.54,-2.46 1.78,-2.73 l 2.18,-0.22" /><path
         id="path288"
         style="fill:#8ba3ec;fill-opacity:1;fill-rule:nonzero;stroke:none"
         d="m 8413.28,7378.15 c 1.25,0 2.29,1.01 2.3,2.27 0.02,1.27 -1,2.31 -2.27,2.33 -5.79,0.08 -10.01,9.77 -11.56,26.6 -4.24,45.89 12.35,126.73 37.5,131.76 1.24,0.25 2.05,1.46 1.8,2.71 -0.25,1.25 -1.48,2.04 -2.71,1.8 -29.98,-5.99 -45.06,-94.63 -41.17,-136.7 1.84,-20.01 7.4,-30.65 16.08,-30.77 h 0.03" /><path
         id="path290"
         style="fill:#8ba3ec;fill-opacity:1;fill-rule:nonzero;stroke:none"
         d="m 8333.13,7384.81 1.87,0.96 c 0.74,1.03 0.5,2.47 -0.54,3.21 -10.67,7.65 -8.17,65.41 1.19,111.95 6.5,32.27 14.05,47.76 18.64,48.81 1.24,0.28 2.02,1.51 1.74,2.75 -0.29,1.24 -1.53,2.02 -2.76,1.74 -10.04,-2.29 -17.58,-29.76 -22.13,-52.39 -8.23,-40.94 -13.73,-106.31 0.65,-116.6 l 1.34,-0.43" /><path
         id="path292"
         style="fill:#8ba3ec;fill-opacity:1;fill-rule:nonzero;stroke:none"
         d="m 8362.22,7549.15 c 1.02,0 1.95,0.68 2.22,1.72 17.9,68.38 98.04,114.84 121.77,115.61 1.26,0.04 2.27,1.1 2.22,2.37 -0.04,1.27 -1.16,2.17 -2.38,2.23 -27.59,-0.9 -107.8,-49.31 -126.05,-119.05 -0.33,-1.23 0.41,-2.49 1.64,-2.81 l 0.58,-0.07" /><path
         id="path294"
         style="fill:#8ba3ec;fill-opacity:1;fill-rule:nonzero;stroke:none"
         d="m 8509.12,7522.33 c 1.06,0 2,0.72 2.25,1.79 0.07,0.33 7.52,33.35 11.22,67.1 5.08,46.39 0.78,72.09 -12.78,76.42 -1.2,0.4 -2.5,-0.28 -2.88,-1.5 -0.39,-1.2 0.28,-2.5 1.49,-2.88 10.86,-3.47 14.27,-28.87 9.6,-71.51 -3.67,-33.49 -11.07,-66.28 -11.14,-66.61 -0.29,-1.24 0.49,-2.47 1.73,-2.76 l 0.51,-0.05" /><path
         id="path296"
         style="fill:#8ba3ec;fill-opacity:1;fill-rule:nonzero;stroke:none"
         d="m 8575.73,7498.8 2.12,1.41 c 15.56,37.1 9.71,95.45 -4.65,128.24 -3.84,8.8 -10.2,19.93 -18.64,22.99 -1.19,0.45 -2.52,-0.17 -2.95,-1.37 -0.43,-1.19 0.19,-2.52 1.38,-2.95 5.38,-1.96 11.06,-9.24 15.99,-20.51 13.98,-31.92 19.72,-88.64 4.62,-124.62 -0.48,-1.17 0.06,-2.52 1.24,-3.01 l 0.89,-0.18" /><path
         id="path298"
         style="fill:#ff9400;fill-opacity:1;fill-rule:nonzero;stroke:none"
         d="m 8605.05,6338.57 -248.23,55.6 h 441.45 c 1.49,-17.84 2.36,-36.49 2.48,-55.6 h -195.7" /><path
         id="path300"
         style="fill:#ffb1d0;fill-opacity:1;fill-rule:nonzero;stroke:none"
         d="M 4594.55,1060.33 C 4427.07,844.512 4332.1,573.41 4328.27,300.25 c 33.53,4.609 56.72,-46.211 84.91,-64.93 99.12,305.602 259.64,597.59 446.09,859.22 l -264.72,-34.21" /><path
         id="path302"
         style="fill:#ffb1d0;fill-opacity:1;fill-rule:nonzero;stroke:none"
         d="m 5127.61,1074.26 c 18.78,-325.299 -23.49,-613.541 -55.65,-937.78 -32.26,0 -54,30.231 -86.27,30.231 -43.61,297.828 -60.45,599.578 -50.23,900.409 64.51,0 127.63,7.14 192.15,7.14" /><path
         id="path304"
         style="fill:#3e4bf6;fill-opacity:1;fill-rule:nonzero;stroke:none"
         d="m 4984.42,165.43 c 0,0 -48.2,-106.0511 -19.27,-106.0511 28.91,0 269.95,0 294.05,0 24.1,0 62.67,14.4609 0,53.0191 -62.67,38.571 -274.78,53.032 -274.78,53.032" /><path
         id="path306"
         style="fill:#3e4bf6;fill-opacity:1;fill-rule:nonzero;stroke:none"
         d="m 4328.83,300.402 c 0,0 -67.49,-62.664 -28.93,-120.511 38.57,-57.852 192.82,-120.5121 231.39,-120.5121 38.56,0 110.87,0 43.39,53.0191 -67.49,53.032 -130.16,120.524 -130.16,120.524 0,0 -48.21,67.48 -115.69,67.48" /><path
         id="path308"
         style="fill:#43b3ff;fill-opacity:1;fill-rule:nonzero;stroke:none"
         d="m 5131.82,1027.13 c -184.98,-60.958 -392.72,-67.7 -575.83,-1.35 58.28,49.69 101.29,137.58 67.82,206.47 -120.23,247.44 -110.19,553.86 25.98,792.91 125.12,14.63 268.46,17.51 389.54,-17.25 l -1.88,-1.01 c 192.93,-282.64 221.46,-660.04 96.41,-978.59 l -2.04,-1.18" /><path
         id="path310"
         style="fill:#f7567e;fill-opacity:1;fill-rule:nonzero;stroke:none"
         d="m 5134.75,1941.76 c -163.92,-96.92 -378.36,-101.95 -546.64,-12.83 27.02,72.18 32.96,147.66 21.27,223.85 -223.32,220.08 -312.12,581.74 -222.11,882.07 36.59,0 86.81,-6.57 123.4,-6.57 -7.38,-138.8 -9.55,-291.63 78.1,-399.5 77.88,-95.86 215.59,-131.74 335.86,-103.68 120.27,28.06 222.36,112.64 289.99,215.98 67.63,103.34 103.69,224.41 124.92,346.07 28,-1.89 85.24,-9.92 113.23,-11.82 3.25,-326.5 -158.17,-679.73 -389.72,-909.95 0.22,-74.9 44.22,-153.94 71.7,-223.62" /><path
         id="path312"
         style="fill:#ffb1d0;fill-opacity:1;fill-rule:nonzero;stroke:none"
         d="m 4415.6,3024.03 c -75.15,30.5 -140.35,139.59 -123.29,218.87 64.28,2.34 107.93,-58.46 153.26,-104.09 18.23,-18.37 23.05,68.41 51.98,73.22 28.91,4.83 24.1,-28.91 19.28,-67.48 -4.82,-38.56 -31.16,-115.49 -31.16,-115.49 l -70.07,-5.03" /><path
         id="path314"
         style="fill:#ffb1d0;fill-opacity:1;fill-rule:nonzero;stroke:none"
         d="m 5350.79,3086.7 c 0,0 -53.03,48.2 -53.03,106.06 0,57.84 -38.56,115.69 0,106.05 38.57,-9.65 28.93,-67.49 33.74,-72.31 4.83,-4.82 9.64,115.69 43.39,115.69 33.74,0 91.59,-43.38 91.59,-77.13 0,-33.74 14.47,-154.26 -14.46,-188 l -101.23,9.64" /><path
         id="path316"
         style="fill:#ffb1d0;fill-opacity:1;fill-rule:nonzero;stroke:none"
         d="m 4811.51,2912.22 c -82.64,0 -112.7,-112.72 -105.19,-195.37 7.52,-82.65 60.12,-105.2 120.22,-105.2 60.12,0 97.69,67.63 97.69,150.28 0,82.66 -45.09,150.29 -112.72,150.29" /><path
         id="path318"
         style="fill:#ffb1d0;fill-opacity:1;fill-rule:nonzero;stroke:none"
         d="m 4892.39,2567.94 c -20.22,-2.3 -38.56,14.82 -44.76,34.22 -6.21,19.38 -8.43,53 -5.42,73.13 -22.81,0 -47.45,1.05 -70.26,1.05 14.82,-63.82 1.31,-133.68 -36.23,-187.37 19.43,-26.5 34.38,-61.09 66.78,-66.51 31.71,-5.3 63.62,14.76 80.63,42.04 17,27.29 7.88,71.32 9.26,103.44" /><path
         id="path320"
         style="fill:#1a006d;fill-opacity:1;fill-rule:nonzero;stroke:none"
         d="m 4895.08,2935.73 c 51.6,-46.44 67.44,-132.55 25.5,-187.87 -31.75,-41.88 -89.34,-61.74 -112.05,-109.13 -22.91,-47.81 -1.65,-104.06 -2.25,-157.08 -0.96,-84.17 -65.68,-163.36 -147.97,-181.05 -82.29,-17.7 -173.85,27.89 -209.33,104.22 -11.13,23.96 -16.99,52.22 -7.06,76.7 12.4,30.52 46.27,48.52 57.7,79.42 14.84,40.15 -13.56,83.26 -13.16,126.06 0.53,59.27 53.79,102.54 101.43,137.81 28.79,21.3 56.33,44.66 76.47,74.6 14.08,20.94 19.16,52.09 40.08,68.04 50.95,38.84 148.61,6.11 190.64,-31.72" /><path
         id="path322"
         style="fill:#c9d5ff;fill-opacity:1;fill-rule:nonzero;stroke:none"
         d="m 12564.7,1440.48 c 0,0 -110.3,709.57 -283.8,520.35 -173.4,-189.22 -110.4,-1040.709 -110.4,-1040.709 0,0 -94.6,283.829 -220.7,220.759 -126.2,-63.08 0,-551.892 0,-551.892 0,0 -157.7,94.602 -220.8,0 C 11666,494.379 11908.7,384 11908.7,384 h 1123.1 c 0,0 258.3,31.539 352.9,189.219 94.6,157.679 -315.4,0 -315.4,0 0,0 551.9,725.341 425.8,946.101 -126.2,220.75 -504.6,-283.83 -504.6,-283.83 0,0 378.4,1088.01 94.6,1261.45 -283.8,173.46 -520.4,-693.79 -520.4,-1056.46" /><path
         id="path324"
         style="fill:#ffffff;fill-opacity:1;fill-rule:nonzero;stroke:none"
         d="m 12523.4,376.109 -1.9,0.25 c -4.2,1.063 -6.8,5.352 -5.7,9.571 l 427.6,1695.09 c 1.1,4.22 5.3,6.81 9.6,5.71 4.2,-1.06 6.8,-5.34 5.7,-9.56 l -427.6,-1695.1 c -0.9,-3.558 -4.1,-5.961 -7.7,-5.961" /><path
         id="path326"
         style="fill:#ffffff;fill-opacity:1;fill-rule:nonzero;stroke:none"
         d="m 12654.6,964.238 c -73,0 -135.9,26.352 -187.1,78.412 -74.3,75.57 -123.7,202.83 -146.7,378.24 -17.1,130.04 -12.4,239.6 -12.3,240.69 0.1,4.24 3.6,7.53 7.8,7.53 l 0.4,-0.01 c 4.3,-0.18 7.7,-3.88 7.5,-8.22 -0.2,-4.32 -17.3,-432.51 154.6,-607.19 50.1,-50.91 112.4,-75.491 184.2,-73.561 4.1,0.172 8,-3.309 8.1,-7.649 0.1,-4.359 -3.3,-8 -7.6,-8.109 -3,-0.082 -6,-0.133 -8.9,-0.133" /><path
         id="path328"
         style="fill:#ffffff;fill-opacity:1;fill-rule:nonzero;stroke:none"
         d="m 12602.1,587.648 c -8.8,0 -17.3,0.512 -25.9,1.543 -4.3,0.508 -7.4,4.43 -6.8,8.758 0.5,4.332 4.5,7.391 8.7,6.891 318.5,-37.719 732.4,721.33 736.6,729 2.1,3.85 6.9,5.22 10.7,3.2 3.8,-2.08 5.2,-6.85 3.2,-10.68 -1.1,-1.94 -106.2,-195.81 -250,-382.36 -182.5,-236.629 -342.7,-356.352 -476.5,-356.352" /><path
         id="path330"
         style="fill:#3d67ff;fill-opacity:1;fill-rule:nonzero;stroke:none"
         d="m 11457.7,538.859 -82.9,476.861 836,0.07 83,-476.86 z m 286.4,3160.641 82.9,-476.86 -836,-0.07 -82.9,476.86 z m 280,-1610.22 83,-476.87 -836.1,-0.07 -82.9,476.86 z m -93.3,536.74 82.9,-476.87 -836,-0.07 -82.9,476.87 z m -10.4,59.88 -836,-0.07 -83,476.86 836,0.07 z m -638.9,-1133.44 836,0.07 82.9,-476.86 -836,-0.07 z M 12442.1,35.1484 11738.3,4082.1 c -2.8,16.29 -18.3,27.18 -34.6,24.38 -16.3,-2.85 -27.2,-18.34 -24.4,-34.63 l 54.4,-312.47 -836,-0.07 -56.2,322.72 c -2.8,16.29 -18.3,27.17 -34.6,24.37 -16.3,-2.83 -27.2,-18.34 -24.4,-34.63 L 11486.4,24.8203 C 11488.9,10.25 11501.5,0 11515.8,0 c 1.7,0 3.5,0.148438 5.2,0.449219 16.3,2.832031 27.2,18.332081 24.4,34.621081 l -77.2,443.9097 836,0.059 79,-454.1601 c 2.5,-14.5469 15.1,-24.8085875 29.4,-24.8085875 1.7,0 3.4,0.1484375 5.2,0.4492185 16.3,2.832029 27.2,18.339869 24.3,34.628869" /><path
         id="path332"
         style="fill:#6ecbff;fill-opacity:1;fill-rule:nonzero;stroke:none"
         d="m 11739.1,4106.92 c 160.5,-94.66 425.6,-354.98 425.6,-514.06 0,-159.08 -337.5,-207.28 -337.5,-207.28 l -88.1,721.34" /><path
         id="path334"
         style="fill:#ffcb3b;fill-opacity:1;fill-rule:nonzero;stroke:none"
         d="m 10806.5,4138.05 -107.4,-193.99 -434.4,240.55 107.4,193.99 434.4,-240.55" /><path
         id="path336"
         style="fill:#3e4bf6;fill-opacity:1;fill-rule:nonzero;stroke:none"
         d="m 12043.2,3326.42 v 0 c -41.3,-74.53 -135.1,-101.5 -209.7,-60.22 l -1286.2,712.31 149.5,269.89 1286.2,-712.3 c 74.5,-41.28 101.5,-135.16 60.2,-209.68" /><path
         id="path338"
         style="fill:#7070cf;fill-opacity:1;fill-rule:nonzero;stroke:none"
         d="m 10229.9,4330.65 c -233.49,-421.56 -764.48,-574.04 -1186.03,-340.58 -421.55,233.46 -574.04,764.45 -340.58,1186 233.46,421.56 764.45,574.04 1186.01,340.58 421.5,-233.46 574,-764.45 340.6,-1186 M 9978.04,5676.9 c -510.06,282.47 -1152.53,97.98 -1435,-412.09 -282.47,-510.05 -97.97,-1152.52 412.09,-1434.99 510.05,-282.47 1152.57,-97.97 1434.97,412.08 282.5,510.06 98,1152.53 -412.06,1435" /><g
         id="g340"><g
           clip-path="url(#clipPath346)"
           id="g342"><path
             id="path348"
             style="fill:#cde9ff;fill-opacity:1;fill-rule:nonzero;stroke:none"
             d="m 9460.12,4049.49 h 818.18 v 383.48 h -818.18 z" /></g></g><path
         id="path350"
         style="fill:#cfeaff;fill-opacity:1;fill-rule:nonzero;stroke:none"
         d="m 9465.79,3880.68 c -1.89,0 -3.78,0 -5.67,0.02 v 328.54 l 522.43,-159.75 c -150.02,-109.83 -331.72,-168.81 -516.76,-168.81" /><path
         id="path352"
         style="fill:#cde9ff;fill-opacity:1;fill-rule:nonzero;stroke:none"
         d="m 9411.92,4223.98 -683.43,208.99 h 683.43 v -208.99" /><path
         id="path354"
         style="fill:#cfeaff;fill-opacity:1;fill-rule:nonzero;stroke:none"
         d="m 9411.92,3882.35 c -125.32,7.77 -250.91,42.84 -368.05,107.72 -184.33,102.08 -317.22,261.07 -388.88,442.9 h 73.5 l 683.43,-208.99 v -341.63" /><path
         id="path356"
         style="fill:#cde9ff;fill-opacity:1;fill-rule:nonzero;stroke:none"
         d="m 10295.7,4481.17 h -835.58 v 1144.84 c 2.41,0.02 4.83,0.03 7.25,0.03 142.99,0 287.98,-35.21 421.93,-109.39 287.8,-159.36 450.1,-457.36 450,-764.56 -0.1,-90.61 -14.3,-182.03 -43.6,-270.92 m -883.78,0 H 8637.6 c -12.45,37.95 -22.32,76.76 -29.49,116.08 h 392.08 l 301.06,342.19 v 658.78 h -52.63 c 53.35,13.77 108.07,22.54 163.3,26.06 V 4481.17" /><path
         id="path358"
         style="fill:#a5c2ff;fill-opacity:1;fill-rule:nonzero;stroke:none"
         d="m 10295.7,4481.17 h -883.78 v 1143.11 c 16.03,1.02 32.08,1.6 48.2,1.73 V 4481.17 h 835.58 v 0" /><path
         id="path360"
         style="fill:#a5c2ff;fill-opacity:1;fill-rule:nonzero;stroke:none"
         d="m 9411.92,3882.35 v 0 550.62 h -756.93 c -6.28,15.91 -12.07,31.96 -17.39,48.2 h 774.32 48.2 -48.2 v -598.82" /><path
         id="path362"
         style="fill:#a5c2ff;fill-opacity:1;fill-rule:nonzero;stroke:none"
         d="m 9460.12,3880.7 c -16.05,0.1 -32.13,0.65 -48.2,1.65 v 598.82 h 48.2 835.58 c -5.3,-16.17 -11.1,-32.22 -17.4,-48.2 H 9460.12 V 4209.24 3880.7" /><path
         id="path364"
         style="fill:#d59dbf;fill-opacity:1;fill-rule:nonzero;stroke:none"
         d="m 9000.19,4597.25 h -392.08 c -9.44,51.75 -14.24,104.42 -14.21,157.38 0.06,111.19 21.42,223.6 65.84,331.06 h 75.92 c 18.59,0 33.66,15.07 33.66,33.66 0,18.59 -15.07,33.66 -33.66,33.66 h -44.7 c 3.98,7.71 8.1,15.42 12.33,23.06 120.86,218.24 321.45,364.36 545.33,422.15 h 52.63 v -658.78 h -301.06 v -342.19" /><path
         id="path366"
         style="fill:#d9bbd6;fill-opacity:1;fill-rule:nonzero;stroke:none"
         d="m 8735.66,5085.69 h -75.92 c 9.38,22.7 19.76,45.12 31.22,67.32 h 44.7 c 18.59,0 33.66,-15.07 33.66,-33.66 0,-18.59 -15.07,-33.66 -33.66,-33.66" /><path
         id="path368"
         style="fill:#d5bad4;fill-opacity:1;fill-rule:nonzero;stroke:none"
         d="m 9000.19,4597.25 v 0 342.19 h 301.06 l -301.06,-342.19" /><path
         id="path370"
         style="fill:#92aae7;fill-opacity:1;fill-rule:nonzero;stroke:none"
         d="m 9465.79,3880.68 c -142.99,0 -287.97,35.21 -421.92,109.39 -287.76,159.36 -450.14,457.36 -449.97,764.56 -0.03,-52.96 4.77,-105.63 14.21,-157.38 7.17,-39.32 17.04,-78.13 29.49,-116.08 v 0 c 5.32,-16.24 11.11,-32.29 17.39,-48.2 71.66,-181.83 204.55,-340.82 388.88,-442.9 117.14,-64.88 242.73,-99.95 368.05,-107.72 v 0 c 16.07,-1 32.15,-1.55 48.2,-1.65 1.89,-0.02 3.78,-0.02 5.67,-0.02 185.04,0 366.74,58.98 516.76,168.81 98.95,72.4 184.05,166.89 247.35,281.16 18.5,33.47 34.6,67.66 48.4,102.32 6.3,15.98 12.1,32.03 17.4,48.2 v 0 c 29.3,88.89 43.5,180.31 43.6,270.92 -0.1,-142.83 -35.3,-287.65 -109.4,-421.44 -159.3,-287.61 -457.09,-449.97 -764.11,-449.97" /><path
         id="path372"
         style="fill:#ffffff;fill-opacity:1;fill-rule:nonzero;stroke:none"
         d="m 9465.55,4039.59 c -119.33,0 -237.34,30.24 -344.61,89.64 -46.58,25.8 -63.43,84.47 -37.63,131.05 25.79,46.59 84.47,63.42 131.05,37.63 121.66,-67.38 262.26,-83.33 395.92,-44.95 133.67,38.38 244.38,126.52 311.75,248.17 25.79,46.58 84.47,63.44 131.07,37.64 46.6,-25.8 63.4,-84.47 37.6,-131.05 -92.31,-166.71 -244.03,-287.49 -427.2,-340.09 -65.3,-18.75 -131.84,-28.04 -197.95,-28.04" /><path
         id="path374"
         style="fill:#ffffff;fill-opacity:1;fill-rule:nonzero;stroke:none"
         d="m 9085.63,5142.5 c -28.6,0 -56.91,12.67 -75.93,36.93 -32.85,41.9 -25.52,102.5 16.38,135.36 108.99,85.44 239.72,137.08 378.07,149.34 53.01,4.7 99.84,-34.48 104.55,-87.52 4.7,-53.04 -34.48,-99.85 -87.53,-104.55 -101.08,-8.96 -196.57,-46.66 -276.11,-109.02 -17.65,-13.84 -38.61,-20.54 -59.43,-20.54" /><path
         id="path376"
         style="fill:#1a006d;fill-opacity:1;fill-rule:nonzero;stroke:none"
         d="m 12036.8,1790.2 c 0,0 21.6,-70.78 27.6,-93.77 6,-23 -87.7,-84.03 -87.7,-84.03 l -169.9,-0.01 c 0,0 15.9,25.64 49.5,48.64 33.7,23 72.6,56.62 67.3,102.61 l 113.2,26.56" /><path
         id="path378"
         style="fill:#1a006d;fill-opacity:1;fill-rule:nonzero;stroke:none"
         d="m 11410.5,2322.82 c 0,0 36.8,-45.99 32.6,-74.29 -4.3,-28.31 -75.1,-99.43 -75.1,-99.43 l -114.7,-0.01 c 0,0 35.1,41.04 38.6,65.8 3.6,24.78 -15.9,120.31 -15.9,120.31 l 134.5,-12.38" /><path
         id="path380"
         style="fill:#2c34ac;fill-opacity:1;fill-rule:nonzero;stroke:none"
         d="m 11022.8,2970.75 c 26.8,-221.38 222.4,-643.07 222.4,-643.07 0,0 94.6,-60.22 197.9,0.02 l -111,601.02 -309.3,42.03" /><path
         id="path382"
         style="fill:#3e4bf6;fill-opacity:1;fill-rule:nonzero;stroke:none"
         d="m 11887.2,3242.64 c 0,0 56.8,-293.08 44,-394.27 -12.9,-101.19 133.2,-1057.97 133.2,-1057.97 0,0 -36.2,-35.14 -177.1,-39.18 0,0 -194.6,600.28 -261.4,921.95 -30.1,145.06 -25.8,165.34 -25.8,165.34 0,0 -46.2,-23.45 -275.8,-20.31 -461.4,6.34 -330.9,298.21 -57.5,395.9 l 620.4,28.54" /><path
         id="path384"
         style="fill:#2c34ac;fill-opacity:1;fill-rule:nonzero;stroke:none"
         d="m 11899.7,3172.88 c -7.1,41.71 -12.5,69.76 -12.5,69.76 l -500.8,19.9 -119.6,-48.44 c 0,0 151.9,-87.17 377.5,-82.32 225.6,4.85 255.4,41.09 255.4,41.1" /><path
         id="path386"
         style="fill:#ffb1d0;fill-opacity:1;fill-rule:nonzero;stroke:none"
         d="m 11498.7,4199.69 11.6,-159.71 165.9,31.65 -29.6,164.23 -147.9,-36.17" /><path
         id="path388"
         style="fill:#b4e4ff;fill-opacity:1;fill-rule:nonzero;stroke:none"
         d="m 11630.5,4138.38 c -175.5,-9.68 -228,-243.88 -275.4,-389.01 -47.4,-145.14 -62.2,-506.78 -62.2,-506.78 0,0 93.3,-46.48 356.5,-41.15 147.1,2.97 286.3,41.48 286.3,41.48 0,0 35.4,914.24 -305.2,895.46" /><path
         id="path390"
         style="fill:#6ecbff;fill-opacity:1;fill-rule:nonzero;stroke:none"
         d="m 11355.1,3749.37 c 31.8,97.53 66,235.29 138.3,318.09 28.8,-1.09 54.5,-21.39 77.2,-72.12 54,-120.75 -32.1,-389.59 -239.3,-424.66 -4.4,-0.74 -8.8,-1.41 -13.3,-2.05 9.2,66.59 21.4,132.53 37.1,180.74" /><path
         id="path392"
         style="fill:#b4e4ff;fill-opacity:1;fill-rule:nonzero;stroke:none"
         d="m 11570.6,4007.07 c 54,-101.15 -32.1,-326.34 -239.3,-355.71 -207.2,-29.38 -462,41.42 -592.3,177.79 l 39.4,95.76 c 0,0 178.6,-79.87 373.6,-28.16 195.1,51.71 329.5,276.99 418.6,110.32" /><path
         id="path394"
         style="fill:#ffb1d0;fill-opacity:1;fill-rule:nonzero;stroke:none"
         d="m 10750.1,3856.1 c 0,0 -172.8,56.81 -175.7,85.88 -2.8,29.07 34,43.21 80.6,34.73 46.7,-8.49 123.4,-51.8 123.4,-51.8 l -28.3,-68.81" /><path
         id="path396"
         style="fill:#fe7592;fill-opacity:1;fill-rule:nonzero;stroke:none"
         d="m 11603.2,4190.49 c -25.7,-27.81 -62,-45.77 -99.9,-54.33 l -4.6,63.53 99.5,24.34 5,-33.54" /><path
         id="path398"
         style="fill:#ffb1d0;fill-opacity:1;fill-rule:nonzero;stroke:none"
         d="m 11640.8,4512.53 c 123.4,-46.97 72.1,-207.65 37.2,-263.27 -35,-55.62 -126.7,-77.47 -196.6,-68.74 -69.9,8.73 -63.3,65.52 -52.4,131.04 10.9,65.53 28.4,270.84 211.8,200.97" /><path
         id="path400"
         style="fill:#1a006d;fill-opacity:1;fill-rule:nonzero;stroke:none"
         d="m 11570.5,4338.31 c 0,0 -31.4,-61.78 -46.5,-36.16 -15,25.61 0,158.2 0,158.2 0,0 -182.3,165.73 -93.4,238.05 88.9,72.33 200.4,-146.13 200.4,-146.13 0,0 -18.1,76.84 33.1,72.33 51.3,-4.52 128.1,-99.35 101,-153.68 -16.6,-33.15 -16.6,-33.15 -16.6,-33.15 0,0 33.2,19.59 48.2,-18.08 15.1,-37.66 -25.3,-69.95 -54.2,-73.83 0,0 -48.6,-151.03 -107.1,-136.37 -27,6.78 -13.1,73.66 -13.1,73.66 l -51.8,55.16" /><path
         id="path402"
         style="fill:#ffb1d0;fill-opacity:1;fill-rule:nonzero;stroke:none"
         d="m 11570.5,4338.31 c 0,0 25.8,58.77 62,39.18 36.2,-19.58 15.1,-125.05 -75.3,-108.49 l 13.3,69.31" /></g></g></svg>