<?xml version="1.0" encoding="UTF-8"?>
<svg width="36px" height="40px" viewBox="0 0 36 40" version="1.1" xmlns="http://www.w3.org/2000/svg" xmlns:xlink="http://www.w3.org/1999/xlink">
    <!-- Generator: Sketch 64 (93537) - https://sketch.com -->
    <title>tree</title>
    <desc>Created with Sketch.</desc>
    <g id="Page-1" stroke="none" stroke-width="1" fill="none" fill-rule="evenodd">
        <g id="home4" transform="translate(-962.000000, -4472.000000)" fill="#3C474E" fill-rule="nonzero">
            <g id="tree" transform="translate(962.000000, 4472.000000)">
                <path d="M35.3333333,22.6666667 L34,22.6666667 C32.7471276,22.6708183 31.6030232,23.3790857 31.0406667,24.4986667 L30.1493333,23.3106667 L31.0233333,22 L32,22 C33.8400354,21.9977959 35.3311293,20.5067021 35.3333333,18.6666667 C35.3333333,18.2984768 35.0348565,18 34.6666667,18 L33.3333333,18 C31.5895458,18.00519 30.1455793,19.3557815 30.024,21.0953333 L28.944,22.7153333 L26,23.1366667 L27.2446667,21.0033333 C27.2609699,20.9749525 27.2754438,20.9455593 27.288,20.9153333 L29.7846667,14.6666667 L30.6666667,14.6666667 C32.5067021,14.6644626 33.9977959,13.1733688 34,11.3333333 C34,10.9651435 33.7015232,10.6666667 33.3333333,10.6666667 L32,10.6666667 C30.4165994,10.6686655 29.0522884,11.7823888 28.7333333,13.3333333 L28.6666667,13.3333333 L28.6666667,10.3333333 L30.8886667,8.66666667 L32,8.66666667 C33.8400354,8.66446259 35.3311293,7.17336877 35.3333333,5.33333333 C35.3333333,4.9651435 35.0348565,4.66666667 34.6666667,4.66666667 L33.3333333,4.66666667 C32.280032,4.66962244 31.2905695,5.17202199 30.6666667,6.02066667 C30.0427638,5.17202199 29.0533014,4.66962244 28,4.66666667 L26.6666667,4.66666667 C26.2984768,4.66666667 26,4.9651435 26,5.33333333 C26.0034728,6.94500796 27.1595367,8.32335935 28.746,8.60733333 L27.6,9.46666667 C27.4321294,9.59256959 27.3333333,9.7901618 27.3333333,10 L27.3333333,13.3333333 L26.6666667,13.3333333 C26.4127829,13.3319475 26.1801506,13.4748871 26.0666667,13.702 L24.12,17.5953333 L23.3606667,15.318 L24.6373333,10.8513333 L24.6266667,10.8513333 C24.6492567,10.7921532 24.6627433,10.7298901 24.6666667,10.6666667 C24.6644626,8.82663123 23.1733688,7.33553741 21.3333333,7.33333333 L20,7.33333333 C19.6318102,7.33333333 19.3333333,7.63181017 19.3333333,8 C19.3355374,9.84003543 20.8266312,11.3311293 22.6666667,11.3333333 L23.116,11.3333333 L22.572,13.2386667 C21.945434,12.4589081 21.0002972,12.0037333 20,12 L18.6666667,12 C18.2984768,12 18,12.2984768 18,12.6666667 C18.0022041,14.5067021 19.4932979,15.9977959 21.3333333,16 L22.186,16 L23.26,19.222 L20.8666667,22.5746667 L18,14.5513333 L18,9.462 L19.286,6.248 C19.317243,6.16904836 19.3333019,6.08490867 19.3333333,6 L19.3333333,4 L20,4 C21.8400354,3.99779592 23.3311293,2.5067021 23.3333333,0.666666667 C23.3333333,0.298476833 23.0348565,0 22.6666667,0 L21.3333333,0 C20.280032,0.00295577047 19.2905695,0.505355326 18.6666667,1.354 C18.0427638,0.505355326 17.0533014,0.00295577047 16,0 L14.6666667,0 C14.2984768,0 14,0.298476833 14,0.666666667 C14.0022041,2.5067021 15.4932979,3.99779592 17.3333333,4 L18,4 L18,5.872 L17.09,8.14733333 L15.138,6.19533333 C14.9473372,6.00472806 14.6606423,5.94771873 14.4115636,6.05088135 C14.162485,6.15404397 14.0000576,6.3970694 14,6.66666667 L14,11.724 L12,9.724 L12,6.66666667 C11.9977959,4.82663123 10.5067021,3.33553741 8.66666667,3.33333333 L7.33333333,3.33333333 C6.9651435,3.33333333 6.66666667,3.63181017 6.66666667,4 C6.66887074,5.84003543 8.15996457,7.33112926 10,7.33333333 L10.6666667,7.33333333 L10.6666667,10 C10.6667044,10.1767965 10.7369671,10.3463382 10.862,10.4713333 L14,13.6093333 L14,14.6666667 C13.9998598,14.7135036 14.0047772,14.7602188 14.0146667,14.806 L16,24.0706667 L16,26.286 L13.2933333,23.3333333 L13.3333333,23.3333333 L13.3333333,20.286 C14.420003,18.9853288 14.354822,17.0755542 13.182,15.852 L12.5446667,14.9486667 C12.4312338,14.7880919 12.2527089,14.685772 12.056821,14.6690624 C11.8609331,14.6523528 11.6676575,14.7229574 11.5286667,14.862 C10.152,16.238 10.0286667,18.3546667 11.254,19.58 L12,20.326 L12,21.926 L10,19.744 L10,13.3333333 C10.0000659,13.0395387 9.80779836,12.7803341 9.52662328,12.6951528 C9.2454482,12.6099715 8.94165676,12.7188962 8.77866667,12.9633333 L7.892,14.2966667 L6.66666667,11.8426667 L6.66666667,9.33333333 C6.66446259,7.4932979 5.17336877,6.00220408 3.33333333,6 L2,6 C1.63181017,6 1.33333333,6.29847683 1.33333333,6.66666667 C1.33553741,8.5067021 2.82663123,9.99779592 4.66666667,10 L5.33333333,10 L5.33333333,12 C5.33323685,12.1034182 5.35720187,12.2054407 5.40333333,12.298 L7.04,15.5713333 L6.112,16.9633333 C6.03916006,17.0730004 6.00020828,17.2016804 6,17.3333333 L6,20.6666667 C6,20.8066721 6.04409035,20.9431222 6.126,21.0566667 L8.61466667,24.5026667 L6.748,25.2506667 L5.298,24.284 C5.10710534,22.6058421 3.68897624,21.3370652 2,21.3333333 L0.666666667,21.3333333 C0.298476833,21.3333333 0,21.6318102 0,22 C0.00220407756,23.8400354 1.4932979,25.3311293 3.33333333,25.3333333 L4.46666667,25.3333333 L6.29866667,26.5546667 C6.48106889,26.6774401 6.7122772,26.7023817 6.91666667,26.6213333 L9.42133333,25.6213333 L14.7613333,33.0133333 L15.9466667,35.3846667 L14.7006667,39.1226667 C14.6329492,39.3259817 14.6670957,39.5494546 14.7924384,39.7232702 C14.9177811,39.8970858 15.1190376,40 15.3333333,40 L22,40 C22.3681898,40 22.6666667,39.7015232 22.6666667,39.3333333 L22.6666667,34.6666667 C22.6677999,34.5635132 22.6449791,34.4615041 22.6,34.3686667 L21.4,31.9686667 L22.6,28.96 L25.14,24.6053333 L29.036,24.0486667 L30.8,26.4 L30.8093333,26.3933333 C30.9304515,26.562754 31.1250852,26.6642805 31.3333333,26.6666667 L32.6666667,26.6666667 C34.5067021,26.6644626 35.9977959,25.1733688 36,23.3333333 C36,23.1565223 35.9297621,22.9869531 35.8047379,22.8619288 C35.6797136,22.7369046 35.5101443,22.6666667 35.3333333,22.6666667 Z M33.3333333,6 L33.886,6 C33.602431,6.79846777 32.8473259,7.33229958 32,7.33333333 L31.4473333,7.33333333 C31.7309024,6.53486557 32.4860075,6.00103376 33.3333333,6 L33.3333333,6 Z M27.4473333,6 L28,6 C28.8473259,6.00103376 29.602431,6.53486557 29.886,7.33333333 L29.3333333,7.33333333 C28.4860075,7.33229958 27.7309024,6.79846777 27.4473333,6 L27.4473333,6 Z M21.3333333,1.33333333 L21.886,1.33333333 C21.602431,2.1318011 20.8473259,2.66563291 20,2.66666667 L19.4473333,2.66666667 C19.7309024,1.8681989 20.4860075,1.33436709 21.3333333,1.33333333 L21.3333333,1.33333333 Z M17.3333333,2.66666667 C16.4860075,2.66563291 15.7309024,2.1318011 15.4473333,1.33333333 L16,1.33333333 C16.8473259,1.33436709 17.602431,1.8681989 17.886,2.66666667 L17.3333333,2.66666667 Z M10,6 C9.15267414,5.99896624 8.39756905,5.46513443 8.114,4.66666667 L8.66666667,4.66666667 C9.51399253,4.66770042 10.2690976,5.20153223 10.5526667,6 L10,6 Z M11.99,16.4753333 L12.1233333,16.6646667 C12.1449588,16.695637 12.1692753,16.7246384 12.196,16.7513333 C12.7956042,17.3507122 12.9521518,18.2630158 12.5866667,19.028 L12.196,18.6373333 C11.6623508,18.039075 11.5789342,17.1636061 11.99,16.4753333 Z M4.66666667,8.66666667 C3.81934081,8.66563291 3.06423571,8.1318011 2.78066667,7.33333333 L3.33333333,7.33333333 C4.18065919,7.33436709 4.93576429,7.8681989 5.21933333,8.66666667 L4.66666667,8.66666667 Z M3.33333333,24 C2.48600747,23.9989662 1.73090238,23.4651344 1.44733333,22.6666667 L2,22.6666667 C2.84732586,22.6677004 3.60243095,23.2015322 3.886,24 L3.33333333,24 Z M32,12 L32.5526667,12 C32.2690976,12.7984678 31.5139925,13.3322996 30.6666667,13.3333333 L30.114,13.3333333 C30.397569,12.5348656 31.1526741,12.0010338 32,12 L32,12 Z M20.7806667,8.66666667 L21.3333333,8.66666667 C22.1806592,8.66770042 22.9357643,9.20153223 23.2193333,10 L22.6666667,10 C21.8193408,9.99896624 21.0642357,9.46513443 20.7806667,8.66666667 Z M21.3333333,14.6666667 C20.4860075,14.6656329 19.7309024,14.1318011 19.4473333,13.3333333 L20,13.3333333 C20.8473259,13.3343671 21.602431,13.8681989 21.886,14.6666667 L21.3333333,14.6666667 Z M21.424,28.3333333 C21.4076967,28.3617142 21.3932228,28.3911073 21.3806667,28.4213333 L20.098,31.6286667 L18.1953333,33.5313333 L19.138,34.474 L20.484,33.128 L21.3333333,34.824 L21.3333333,38.6666667 L16.258,38.6666667 L16.958,36.5673333 L18.1953333,37.8046667 L19.138,36.862 L17.2146667,34.9386667 L15.9333333,32.3686667 C15.917041,32.3366163 15.8983197,32.3058598 15.8773333,32.2766667 L7.33333333,20.4513333 L7.33333333,17.5333333 L8.53333333,15.7333333 L8.59466667,15.7026667 L8.57666667,15.6673333 L8.66666667,15.5333333 L8.66666667,20 C8.66664877,20.1668716 8.7292127,20.3276823 8.842,20.4506667 L16.1753333,28.4506667 C16.3611414,28.6532736 16.6522625,28.7210508 16.9084528,28.6213475 C17.1646432,28.5216442 17.3333628,28.2749077 17.3333333,28 L17.3333333,24 C17.3334735,23.953163 17.3285561,23.9064479 17.3186667,23.8606667 L15.3333333,14.596 L15.3333333,8.276 L16.6666667,9.60933333 L16.6666667,14.6666667 C16.6667159,14.7429896 16.6797926,14.8187441 16.7053333,14.8906667 L19.8966667,23.8273333 L18.1953333,25.5286667 L19.138,26.4713333 L21.138,24.4713333 L21.1333333,24.4666667 C21.1606246,24.4421404 21.185823,24.415381 21.2086667,24.3866667 L24.542,19.72 C24.5621777,19.6915942 24.580227,19.661735 24.596,19.6306667 L27.0786667,14.6666667 L28.3486667,14.6666667 L26.0666667,20.3733333 L21.424,28.3333333 Z M33.3333333,19.3333333 L33.886,19.3333333 C33.602431,20.1318011 32.8473259,20.6656329 32,20.6666667 L31.4473333,20.6666667 C31.7309024,19.8681989 32.4860075,19.3343671 33.3333333,19.3333333 L33.3333333,19.3333333 Z M32.6666667,25.3333333 L32.114,25.3333333 C32.397569,24.5348656 33.1526741,24.0010338 34,24 L34.5526667,24 C34.2690976,24.7984678 33.5139925,25.3322996 32.6666667,25.3333333 Z" id="Shape"></path>
                <rect id="Rectangle" x="2.66666667" y="14.6666667" width="1.33333333" height="1.33333333"></rect>
                <rect id="Rectangle" x="26.6666667" y="26" width="1.33333333" height="1.33333333"></rect>
                <rect id="Rectangle" x="8" y="28" width="1.33333333" height="1.33333333"></rect>
            </g>
        </g>
    </g>
</svg>