<svg width="404" height="180" viewBox="0 0 404 180" fill="none" xmlns="http://www.w3.org/2000/svg">
<path opacity="0.2" d="M285.109 18C264.615 18 246.101 26.4096 232.859 39.9485L215.207 57.9942L234.292 77.5019L252.467 58.9185C260.746 50.4545 272.323 45.1864 285.109 45.1864C310.226 45.1864 330.666 65.5157 330.666 90.503C330.666 115.484 310.226 135.814 285.109 135.814C272.323 135.814 260.746 130.546 252.467 122.075C225.691 94.7 198.916 67.3243 172.141 39.9485C158.899 26.4096 140.385 18 119.891 18C79.6368 18 47 50.4605 47 90.503C47 130.539 79.6368 163 119.891 163C140.385 163 158.899 154.59 172.141 141.052L189.793 123.006L170.708 103.498L152.533 122.075C144.254 130.546 132.677 135.814 119.891 135.814C94.7737 135.814 74.334 115.484 74.334 90.503C74.334 65.5157 94.7737 45.1864 119.891 45.1864C132.677 45.1864 144.254 50.4545 152.533 58.9185L232.859 141.052C246.101 154.59 264.615 163 285.109 163C325.363 163 358 130.539 358 90.503C358 50.4605 325.363 18 285.109 18Z" fill="url(#paint0_linear_4834_1476)"/>
<path opacity="0.4" d="M285.109 18.5C325.09 18.5 357.5 50.7391 357.5 90.5029C357.5 130.261 325.09 162.5 285.109 162.5C264.755 162.5 246.368 154.148 233.217 140.702L152.891 58.5693C144.521 50.0131 132.817 44.6865 119.891 44.6865C94.5001 44.6865 73.834 65.237 73.834 90.5029C73.834 115.763 94.5001 136.313 119.891 136.313C132.817 136.313 144.521 130.987 152.891 122.425L170.707 104.213L189.093 123.006L171.783 140.702C158.632 154.148 140.245 162.5 119.891 162.5C79.9104 162.5 47.5 130.261 47.5 90.5029C47.5001 50.7391 79.9104 18.5 119.891 18.5C140.245 18.5 158.632 26.8517 171.783 40.2979C198.558 67.6737 225.334 95.0493 252.109 122.425C260.479 130.987 272.183 136.313 285.109 136.313C310.5 136.313 331.166 115.763 331.166 90.5029C331.166 65.237 310.5 44.6865 285.109 44.6865C272.183 44.6865 260.479 50.0131 252.109 58.5693L234.291 76.7861L215.906 57.9932L233.217 40.2979C246.368 26.8517 264.755 18.5 285.109 18.5Z" stroke="url(#paint1_linear_4834_1476)"/>
<g opacity="0.2">
<path d="M32.5485 86.7421L37.5614 78.2855C38.5699 76.5842 40.401 75.541 42.3787 75.541H51.0217C52.9994 75.541 54.8305 76.5842 55.839 78.2855L60.8519 86.7421C61.8872 88.4887 61.8961 90.6588 60.875 92.4138L55.8318 101.082C54.829 102.806 52.9854 103.866 50.9914 103.866H42.409C40.415 103.866 38.5714 102.806 37.5686 101.082L32.5254 92.4138C31.5043 90.6588 31.5132 88.4887 32.5485 86.7421Z" fill="url(#paint2_linear_4834_1476)"/>
<path d="M45.0338 80.541H41.3682L35.8698 89.3066L41.3682 98.869H45.0338L39.5354 89.3066L45.0338 80.541Z" fill="#131313"/>
<path d="M48.3667 80.541H52.0323L57.5306 89.3066L52.0323 98.869H48.3667L53.8651 89.3066L48.3667 80.541Z" fill="#131313"/>
</g>
<g opacity="0.4">
<path d="M71.4155 86.3708L77.055 76.857C78.1896 74.9431 80.2495 73.7695 82.4744 73.7695H92.1978C94.4228 73.7695 96.4827 74.9431 97.6172 76.857L103.257 86.3708C104.422 88.3357 104.431 90.7771 103.283 92.7514L97.6091 102.503C96.481 104.442 94.407 105.635 92.1637 105.635H82.5086C80.2653 105.635 78.1912 104.442 77.0631 102.503L71.3895 92.7514C70.2408 90.7771 70.2507 88.3356 71.4155 86.3708Z" fill="url(#paint3_linear_4834_1476)"/>
<path d="M85.4614 79.3945H81.3377L75.152 89.2558L81.3377 100.013H85.4614L79.2758 89.2558L85.4614 79.3945Z" fill="#131313"/>
<path d="M89.2109 79.3945H93.3346L99.5203 89.2558L93.3346 100.013H89.2109L95.3965 89.2558L89.2109 79.3945Z" fill="#131313"/>
</g>
<g opacity="0.7">
<path d="M114.24 86.0014L120.506 75.4306C121.766 73.304 124.055 72 126.527 72H137.331C139.803 72 142.092 73.304 143.353 75.4306L149.619 86.0014C150.913 88.1846 150.924 90.8973 149.648 93.091L143.344 103.926C142.09 106.081 139.786 107.406 137.293 107.406H126.565C124.073 107.406 121.768 106.081 120.515 103.926L114.211 93.091C112.934 90.8973 112.946 88.1846 114.24 86.0014Z" fill="url(#paint4_linear_4834_1476)"/>
<path d="M129.846 78.25H125.264L118.391 89.2069L125.264 101.16H129.846L122.973 89.2069L129.846 78.25Z" fill="#131313"/>
<path d="M134.012 78.25H138.594L145.467 89.2069L138.594 101.16H134.012L140.885 89.2069L134.012 78.25Z" fill="#131313"/>
</g>
<path d="M160.811 86.0014L167.077 75.4306C168.338 73.304 170.627 72 173.099 72H183.903C186.375 72 188.664 73.304 189.924 75.4306L196.191 86.0014C197.485 88.1846 197.496 90.8973 196.219 93.091L189.915 103.926C188.662 106.081 186.357 107.406 183.865 107.406H173.137C170.644 107.406 168.34 106.081 167.086 103.926L160.782 93.091C159.506 90.8973 159.517 88.1846 160.811 86.0014Z" fill="url(#paint5_linear_4834_1476)"/>
<path d="M176.418 78.25H171.836L164.963 89.2069L171.836 101.16H176.418L169.545 89.2069L176.418 78.25Z" fill="#131313"/>
<path d="M180.584 78.25H185.166L192.039 89.2069L185.166 101.16H180.584L187.457 89.2069L180.584 78.25Z" fill="#131313"/>
<path d="M207.383 86.0014L213.649 75.4306C214.91 73.304 217.199 72 219.671 72H230.475C232.947 72 235.236 73.304 236.496 75.4306L242.762 86.0014C244.056 88.1846 244.067 90.8973 242.791 93.091L236.487 103.926C235.234 106.081 232.929 107.406 230.437 107.406H219.709C217.216 107.406 214.912 106.081 213.658 103.926L207.354 93.091C206.078 90.8973 206.089 88.1846 207.383 86.0014Z" fill="url(#paint6_linear_4834_1476)"/>
<path d="M222.99 78.25H218.408L211.535 89.2069L218.408 101.16H222.99L216.117 89.2069L222.99 78.25Z" fill="#131313"/>
<path d="M227.156 78.25H231.738L238.611 89.2069L231.738 101.16H227.156L234.029 89.2069L227.156 78.25Z" fill="#131313"/>
<g opacity="0.7">
<path d="M253.955 86.0014L260.221 75.4306C261.482 73.304 263.77 72 266.242 72H277.046C279.518 72 281.807 73.304 283.068 75.4306L289.334 86.0014C290.628 88.1846 290.639 90.8973 289.363 93.091L283.059 103.926C281.805 106.081 279.501 107.406 277.008 107.406H266.28C263.788 107.406 261.483 106.081 260.23 103.926L253.926 93.091C252.65 90.8973 252.661 88.1846 253.955 86.0014Z" fill="url(#paint7_linear_4834_1476)"/>
<path d="M269.561 78.25H264.979L258.106 89.2069L264.979 101.16H269.561L262.688 89.2069L269.561 78.25Z" fill="#131313"/>
<path d="M273.727 78.25H278.309L285.182 89.2069L278.309 101.16H273.727L280.6 89.2069L273.727 78.25Z" fill="#131313"/>
</g>
<g opacity="0.4">
<path d="M300.317 86.3708L305.956 76.857C307.091 74.9431 309.151 73.7695 311.376 73.7695H321.099C323.324 73.7695 325.384 74.9431 326.519 76.857L332.158 86.3708C333.323 88.3357 333.333 90.7771 332.184 92.7514L326.51 102.503C325.382 104.442 323.308 105.635 321.065 105.635H311.41C309.167 105.635 307.093 104.442 305.964 102.503L300.291 92.7514C299.142 90.7771 299.152 88.3356 300.317 86.3708Z" fill="url(#paint8_linear_4834_1476)"/>
<path d="M314.363 79.3945H310.239L304.053 89.2558L310.239 100.013H314.363L308.177 89.2558L314.363 79.3945Z" fill="#131313"/>
<path d="M318.112 79.3945H322.236L328.422 89.2558L322.236 100.013H318.112L324.298 89.2558L318.112 79.3945Z" fill="#131313"/>
</g>
<g opacity="0.2">
<path d="M342.722 86.7421L347.735 78.2855C348.743 76.5842 350.574 75.541 352.552 75.541H361.195C363.173 75.541 365.004 76.5842 366.012 78.2855L371.025 86.7421C372.06 88.4887 372.069 90.6588 371.048 92.4138L366.005 101.082C365.002 102.806 363.159 103.866 361.165 103.866H352.582C350.588 103.866 348.745 102.806 347.742 101.082L342.699 92.4138C341.678 90.6588 341.686 88.4887 342.722 86.7421Z" fill="url(#paint9_linear_4834_1476)"/>
<path d="M355.207 80.541H351.541L346.043 89.3066L351.541 98.869H355.207L349.709 89.3066L355.207 80.541Z" fill="#131313"/>
<path d="M358.54 80.541H362.205L367.704 89.3066L362.205 98.869H358.54L364.038 89.3066L358.54 80.541Z" fill="#131313"/>
</g>
<defs>
<linearGradient id="paint0_linear_4834_1476" x1="202.5" y1="18" x2="202.5" y2="163" gradientUnits="userSpaceOnUse">
<stop stop-color="#3FA1E3"/>
<stop offset="1" stop-color="#3FA1E3" stop-opacity="0"/>
</linearGradient>
<linearGradient id="paint1_linear_4834_1476" x1="202.5" y1="18" x2="202.5" y2="163" gradientUnits="userSpaceOnUse">
<stop stop-color="#3FA1E3"/>
<stop offset="1" stop-color="#3FA1E3" stop-opacity="0"/>
</linearGradient>
<linearGradient id="paint2_linear_4834_1476" x1="46.7002" y1="75.541" x2="46.7002" y2="103.866" gradientUnits="userSpaceOnUse">
<stop stop-color="#3FA1E3" stop-opacity="0.35"/>
<stop offset="0.605793" stop-color="#3FA1E3"/>
</linearGradient>
<linearGradient id="paint3_linear_4834_1476" x1="87.3361" y1="73.7695" x2="87.3361" y2="105.635" gradientUnits="userSpaceOnUse">
<stop stop-color="#3FA1E3" stop-opacity="0.35"/>
<stop offset="0.605793" stop-color="#3FA1E3"/>
</linearGradient>
<linearGradient id="paint4_linear_4834_1476" x1="131.929" y1="72" x2="131.929" y2="107.406" gradientUnits="userSpaceOnUse">
<stop stop-color="#3FA1E3" stop-opacity="0.35"/>
<stop offset="0.605793" stop-color="#3FA1E3"/>
</linearGradient>
<linearGradient id="paint5_linear_4834_1476" x1="178.501" y1="72" x2="178.501" y2="107.406" gradientUnits="userSpaceOnUse">
<stop stop-color="#3FA1E3" stop-opacity="0.35"/>
<stop offset="0.605793" stop-color="#3FA1E3"/>
</linearGradient>
<linearGradient id="paint6_linear_4834_1476" x1="225.073" y1="72" x2="225.073" y2="107.406" gradientUnits="userSpaceOnUse">
<stop stop-color="#3FA1E3" stop-opacity="0.35"/>
<stop offset="0.605793" stop-color="#3FA1E3"/>
</linearGradient>
<linearGradient id="paint7_linear_4834_1476" x1="271.644" y1="72" x2="271.644" y2="107.406" gradientUnits="userSpaceOnUse">
<stop stop-color="#3FA1E3" stop-opacity="0.35"/>
<stop offset="0.605793" stop-color="#3FA1E3"/>
</linearGradient>
<linearGradient id="paint8_linear_4834_1476" x1="316.237" y1="73.7695" x2="316.237" y2="105.635" gradientUnits="userSpaceOnUse">
<stop stop-color="#3FA1E3" stop-opacity="0.35"/>
<stop offset="0.605793" stop-color="#3FA1E3"/>
</linearGradient>
<linearGradient id="paint9_linear_4834_1476" x1="356.873" y1="75.541" x2="356.873" y2="103.866" gradientUnits="userSpaceOnUse">
<stop stop-color="#3FA1E3" stop-opacity="0.35"/>
<stop offset="0.605793" stop-color="#3FA1E3"/>
</linearGradient>
</defs>
</svg>
