<svg width="404" height="180" viewBox="0 0 404 180" fill="none" xmlns="http://www.w3.org/2000/svg">
<g clip-path="url(#clip0_4622_15792)">
<path d="M47.7497 0C53.0251 0 57.9858 2.05302 61.7162 5.78323C65.4465 9.51361 67.4994 14.4743 67.4994 19.7497C67.4994 25.0251 65.4464 29.9858 61.7162 33.7162C57.9858 37.4465 53.0251 39.4994 47.7497 39.4994C42.4743 39.4994 37.5136 37.4464 33.7832 33.7162C30.0529 29.9858 28 25.0251 28 19.7497C28 14.4743 30.053 9.51361 33.7832 5.78323C37.5136 2.05294 42.4743 1.49328e-07 47.7497 0ZM47.7497 23.1358C42.0085 23.1358 37.1503 27.4974 36.4936 33.1477L36.4907 33.1724L36.511 33.1898C39.5558 35.7398 43.4766 37.2778 47.7497 37.2778C52.0229 37.2778 55.9437 35.7399 58.9884 33.1898L59.0087 33.1738L59.0058 33.1463C58.7123 30.6244 57.5715 28.2624 55.7633 26.4538C53.6227 24.3138 50.7759 23.1358 47.7497 23.1358ZM47.7497 2.22164C38.0843 2.22164 30.2216 10.0843 30.2216 19.7497C30.2216 24.1327 31.8382 28.1453 34.5069 31.2219L34.5692 31.293L34.5924 31.2016C35.2185 28.6679 36.5693 26.3592 38.5137 24.5483C39.8563 23.2974 41.417 22.3467 43.1034 21.7321L43.1948 21.6973L43.115 21.6436C40.9143 20.1526 39.465 17.632 39.465 14.78C39.4654 10.2126 43.1821 6.49671 47.7497 6.49671C52.3173 6.49671 56.034 10.2126 56.0345 14.78C56.0345 17.6304 54.5863 20.1509 52.3873 21.6422L52.3076 21.6958L52.3989 21.7292L53.079 21.9975C54.648 22.6684 56.0907 23.6402 57.3338 24.8833C59.0766 26.6257 60.3116 28.8112 60.9056 31.2031L60.9273 31.2944L60.9911 31.2234L61.4784 30.6361C63.8561 27.644 65.2778 23.8598 65.2778 19.7497C65.2778 10.0843 57.4152 2.22164 47.7497 2.22164ZM47.7497 8.71835C44.407 8.71835 41.687 11.437 41.6866 14.78C41.6866 17.9675 44.1602 20.5879 47.2886 20.8243L47.5626 20.8446H47.7497C51.0927 20.8446 53.8128 18.1232 53.8128 14.78C53.8124 11.437 51.0924 8.71835 47.7497 8.71835Z" fill="#232F6F"/>
<path d="M109.65 0C114.925 0 119.886 2.05302 123.616 5.78323C127.347 9.51361 129.4 14.4743 129.4 19.7497C129.4 25.0251 127.347 29.9858 123.616 33.7162C119.886 37.4465 114.925 39.4994 109.65 39.4994C104.374 39.4994 99.4138 37.4464 95.6834 33.7162C91.9531 29.9858 89.9001 25.0251 89.9001 19.7497C89.9001 14.4743 91.9532 9.51361 95.6834 5.78323C99.4138 2.05294 104.374 1.49328e-07 109.65 0ZM109.65 23.1358C103.909 23.1358 99.0505 27.4974 98.3937 33.1477L98.3908 33.1724L98.4111 33.1898C101.456 35.7398 105.377 37.2778 109.65 37.2778C113.923 37.2778 117.844 35.7399 120.889 33.1898L120.909 33.1738L120.906 33.1463C120.612 30.6244 119.472 28.2624 117.663 26.4538C115.523 24.3138 112.676 23.1358 109.65 23.1358ZM109.65 2.22164C99.9844 2.22164 92.1218 10.0843 92.1218 19.7497C92.1218 24.1327 93.7383 28.1453 96.407 31.2219L96.4694 31.293L96.4926 31.2016C97.1186 28.6679 98.4695 26.3592 100.414 24.5483C101.756 23.2974 103.317 22.3467 105.004 21.7321L105.095 21.6973L105.015 21.6436C102.814 20.1526 101.365 17.632 101.365 14.78C101.366 10.2126 105.082 6.49671 109.65 6.49671C114.217 6.49671 117.934 10.2126 117.935 14.78C117.935 17.6304 116.486 20.1509 114.287 21.6422L114.208 21.6958L114.299 21.7292L114.979 21.9975C116.548 22.6684 117.991 23.6402 119.234 24.8833C120.977 26.6257 122.212 28.8112 122.806 31.2031L122.827 31.2944L122.891 31.2234L123.379 30.6361C125.756 27.644 127.178 23.8598 127.178 19.7497C127.178 10.0843 119.315 2.22164 109.65 2.22164ZM109.65 8.71835C106.307 8.71835 103.587 11.437 103.587 14.78C103.587 17.9675 106.06 20.5879 109.189 20.8243L109.463 20.8446H109.65C112.993 20.8446 115.713 18.1232 115.713 14.78C115.713 11.437 112.993 8.71835 109.65 8.71835Z" fill="#232F6F"/>
<path d="M171.55 0C176.825 0 181.786 2.05302 185.516 5.78323C189.247 9.51361 191.3 14.4743 191.3 19.7497C191.3 25.0251 189.247 29.9858 185.516 33.7162C181.786 37.4465 176.825 39.4994 171.55 39.4994C166.275 39.4994 161.314 37.4464 157.583 33.7162C153.853 29.9858 151.8 25.0251 151.8 19.7497C151.8 14.4743 153.853 9.51361 157.583 5.78323C161.314 2.05294 166.275 1.49328e-07 171.55 0ZM171.55 23.1358C165.809 23.1358 160.951 27.4974 160.294 33.1477L160.291 33.1724L160.311 33.1898C163.356 35.7398 167.277 37.2778 171.55 37.2778C175.823 37.2778 179.744 35.7399 182.789 33.1898L182.809 33.1738L182.806 33.1463C182.513 30.6244 181.372 28.2624 179.564 26.4538C177.423 24.3138 174.576 23.1358 171.55 23.1358ZM171.55 2.22164C161.885 2.22164 154.022 10.0843 154.022 19.7497C154.022 24.1327 155.638 28.1453 158.307 31.2219L158.369 31.293L158.393 31.2016C159.019 28.6679 160.37 26.3592 162.314 24.5483C163.657 23.2974 165.217 22.3467 166.904 21.7321L166.995 21.6973L166.915 21.6436C164.714 20.1526 163.265 17.632 163.265 14.78C163.266 10.2126 166.982 6.49671 171.55 6.49671C176.118 6.49671 179.834 10.2126 179.835 14.78C179.835 17.6304 178.387 20.1509 176.188 21.6422L176.108 21.6958L176.199 21.7292L176.879 21.9975C178.448 22.6684 179.891 23.6402 181.134 24.8833C182.877 26.6257 184.112 28.8112 184.706 31.2031L184.728 31.2944L184.791 31.2234L185.279 30.6361C187.656 27.644 189.078 23.8598 189.078 19.7497C189.078 10.0843 181.215 2.22164 171.55 2.22164ZM171.55 8.71835C168.207 8.71835 165.487 11.437 165.487 14.78C165.487 17.9675 167.96 20.5879 171.089 20.8243L171.363 20.8446H171.55C174.893 20.8446 177.613 18.1232 177.613 14.78C177.613 11.437 174.893 8.71835 171.55 8.71835Z" fill="#232F6F"/>
<path d="M233.45 0C238.725 0 243.686 2.05302 247.417 5.78323C251.147 9.51361 253.2 14.4743 253.2 19.7497C253.2 25.0251 251.147 29.9858 247.417 33.7162C243.686 37.4465 238.725 39.4994 233.45 39.4994C228.175 39.4994 223.214 37.4464 219.484 33.7162C215.753 29.9858 213.7 25.0251 213.7 19.7497C213.7 14.4743 215.753 9.51361 219.484 5.78323C223.214 2.05294 228.175 1.49328e-07 233.45 0ZM233.45 23.1358C227.709 23.1358 222.851 27.4974 222.194 33.1477L222.191 33.1724L222.211 33.1898C225.256 35.7398 229.177 37.2778 233.45 37.2778C237.723 37.2778 241.644 35.7399 244.689 33.1898L244.709 33.1738L244.706 33.1463C244.413 30.6244 243.272 28.2624 241.464 26.4538C239.323 24.3138 236.476 23.1358 233.45 23.1358ZM233.45 2.22164C223.785 2.22164 215.922 10.0843 215.922 19.7497C215.922 24.1327 217.538 28.1453 220.207 31.2219L220.27 31.293L220.293 31.2016C220.919 28.6679 222.27 26.3592 224.214 24.5483C225.557 23.2974 227.117 22.3467 228.804 21.7321L228.895 21.6973L228.815 21.6436C226.615 20.1526 225.165 17.632 225.165 14.78C225.166 10.2126 228.882 6.49671 233.45 6.49671C238.018 6.49671 241.734 10.2126 241.735 14.78C241.735 17.6304 240.287 20.1509 238.088 21.6422L238.008 21.6958L238.099 21.7292L238.779 21.9975C240.348 22.6684 241.791 23.6402 243.034 24.8833C244.777 26.6257 246.012 28.8112 246.606 31.2031L246.628 31.2944L246.691 31.2234L247.179 30.6361C249.556 27.644 250.978 23.8598 250.978 19.7497C250.978 10.0843 243.115 2.22164 233.45 2.22164ZM233.45 8.71835C230.107 8.71835 227.387 11.437 227.387 14.78C227.387 17.9675 229.861 20.5879 232.989 20.8243L233.263 20.8446H233.45C236.793 20.8446 239.513 18.1232 239.513 14.78C239.513 11.437 236.793 8.71835 233.45 8.71835Z" fill="#232F6F"/>
<path d="M295.35 0C300.626 0 305.586 2.05302 309.317 5.78323C313.047 9.51361 315.1 14.4743 315.1 19.7497C315.1 25.0251 313.047 29.9858 309.317 33.7162C305.586 37.4465 300.626 39.4994 295.35 39.4994C290.075 39.4994 285.114 37.4464 281.384 33.7162C277.653 29.9858 275.6 25.0251 275.6 19.7497C275.6 14.4743 277.653 9.51361 281.384 5.78323C285.114 2.05294 290.075 1.49328e-07 295.35 0ZM295.35 23.1358C289.609 23.1358 284.751 27.4974 284.094 33.1477L284.091 33.1724L284.111 33.1898C287.156 35.7398 291.077 37.2778 295.35 37.2778C299.623 37.2778 303.544 35.7399 306.589 33.1898L306.609 33.1738L306.606 33.1463C306.313 30.6244 305.172 28.2624 303.364 26.4538C301.223 24.3138 298.376 23.1358 295.35 23.1358ZM295.35 2.22164C285.685 2.22164 277.822 10.0843 277.822 19.7497C277.822 24.1327 279.439 28.1453 282.107 31.2219L282.17 31.293L282.193 31.2016C282.819 28.6679 284.17 26.3592 286.114 24.5483C287.457 23.2974 289.017 22.3467 290.704 21.7321L290.795 21.6973L290.715 21.6436C288.515 20.1526 287.065 17.632 287.065 14.78C287.066 10.2126 290.783 6.49671 295.35 6.49671C299.918 6.49671 303.635 10.2126 303.635 14.78C303.635 17.6304 302.187 20.1509 299.988 21.6422L299.908 21.6958L299.999 21.7292L300.68 21.9975C302.249 22.6684 303.691 23.6402 304.934 24.8833C306.677 26.6257 307.912 28.8112 308.506 31.2031L308.528 31.2944L308.592 31.2234L309.079 30.6361C311.457 27.644 312.878 23.8598 312.878 19.7497C312.878 10.0843 305.016 2.22164 295.35 2.22164ZM295.35 8.71835C292.007 8.71835 289.287 11.437 289.287 14.78C289.287 17.9675 291.761 20.5879 294.889 20.8243L295.163 20.8446H295.35C298.693 20.8446 301.413 18.1232 301.413 14.78C301.413 11.437 298.693 8.71835 295.35 8.71835Z" fill="#232F6F"/>
<path d="M357.25 0C362.526 0 367.486 2.05302 371.217 5.78323C374.947 9.51361 377 14.4743 377 19.7497C377 25.0251 374.947 29.9858 371.217 33.7162C367.486 37.4465 362.526 39.4994 357.25 39.4994C351.975 39.4994 347.014 37.4464 343.284 33.7162C339.554 29.9858 337.501 25.0251 337.501 19.7497C337.501 14.4743 339.554 9.51361 343.284 5.78323C347.014 2.05294 351.975 1.49328e-07 357.25 0ZM357.25 23.1358C351.509 23.1358 346.651 27.4974 345.994 33.1477L345.991 33.1724L346.012 33.1898C349.056 35.7398 352.977 37.2778 357.25 37.2778C361.523 37.2778 365.444 35.7399 368.489 33.1898L368.509 33.1738L368.506 33.1463C368.213 30.6244 367.072 28.2624 365.264 26.4538C363.123 24.3138 360.276 23.1358 357.25 23.1358ZM357.25 2.22164C347.585 2.22164 339.722 10.0843 339.722 19.7497C339.722 24.1327 341.339 28.1453 344.007 31.2219L344.07 31.293L344.093 31.2016C344.719 28.6679 346.07 26.3592 348.014 24.5483C349.357 23.2974 350.918 22.3467 352.604 21.7321L352.695 21.6973L352.616 21.6436C350.415 20.1526 348.966 17.632 348.966 14.78C348.966 10.2126 352.683 6.49671 357.25 6.49671C361.818 6.49671 365.535 10.2126 365.535 14.78C365.535 17.6304 364.087 20.1509 361.888 21.6422L361.808 21.6958L361.9 21.7292L362.58 21.9975C364.149 22.6684 365.591 23.6402 366.834 24.8833C368.577 26.6257 369.812 28.8112 370.406 31.2031L370.428 31.2944L370.492 31.2234L370.979 30.6361C373.357 27.644 374.778 23.8598 374.778 19.7497C374.778 10.0843 366.916 2.22164 357.25 2.22164ZM357.25 8.71835C353.908 8.71835 351.188 11.437 351.187 14.78C351.187 17.9675 353.661 20.5879 356.789 20.8243L357.063 20.8446H357.25C360.593 20.8446 363.313 18.1232 363.313 14.78C363.313 11.437 360.593 8.71835 357.25 8.71835Z" fill="#232F6F"/>
<path opacity="0.2" d="M307.422 44C281.392 44 257.877 54.7296 241.059 72.0032L218.639 95.027L242.879 119.916L265.962 96.2064C276.478 85.4074 291.182 78.6861 307.422 78.6861C339.323 78.6861 365.283 104.624 365.283 136.504C365.283 168.376 339.323 194.314 307.422 194.314C291.182 194.314 276.478 187.593 265.962 176.786C231.955 141.859 197.948 106.931 163.941 72.0032C147.123 54.7296 123.608 44 97.5781 44C46.4519 44 5 85.4152 5 136.504C5 187.585 46.4519 229 97.5781 229C123.608 229 147.123 218.27 163.941 200.997L186.361 177.973L162.121 153.084L139.038 176.786C128.522 187.593 113.818 194.314 97.5781 194.314C65.6772 194.314 39.7168 168.376 39.7168 136.504C39.7168 104.624 65.6772 78.6861 97.5781 78.6861C113.818 78.6861 128.522 85.4074 139.038 96.2064L241.059 200.997C257.877 218.27 281.392 229 307.422 229C358.548 229 400 187.585 400 136.504C400 85.4152 358.548 44 307.422 44Z" fill="url(#paint0_linear_4622_15792)"/>
<path opacity="0.4" d="M307.422 44.5C358.272 44.5 399.5 85.6917 399.5 136.504C399.5 187.308 358.272 228.5 307.422 228.5C281.532 228.5 258.145 217.829 241.417 200.648L139.396 95.8574C128.79 84.9662 113.958 78.1865 97.5781 78.1865C65.4015 78.1865 39.2168 104.347 39.2168 136.504C39.2168 168.653 65.4015 194.813 97.5781 194.813C113.959 194.813 128.79 188.033 139.396 177.134L162.12 153.8L185.661 177.973L163.583 200.648C146.855 217.829 123.468 228.5 97.5781 228.5C46.7276 228.5 5.50003 187.308 5.5 136.504C5.5 85.6917 46.7276 44.5 97.5781 44.5C123.468 44.5 146.855 55.1708 163.583 72.3516C197.59 107.279 231.596 142.207 265.604 177.134V177.135C276.209 188.034 291.041 194.813 307.422 194.813C339.598 194.813 365.783 168.653 365.783 136.504C365.783 104.347 339.599 78.1865 307.422 78.1865C291.298 78.1865 276.673 84.7557 266.104 95.3496L265.604 95.8574L242.879 119.199L219.338 95.0264L241.417 72.3516C258.145 55.1708 281.532 44.5 307.422 44.5Z" stroke="url(#paint1_linear_4622_15792)"/>
<g opacity="0.3">
<path d="M47.7497 96C53.0251 96 57.9858 98.053 61.7162 101.783C65.4465 105.514 67.4994 110.474 67.4994 115.75C67.4994 121.025 65.4464 125.986 61.7162 129.716C57.9858 133.446 53.0251 135.499 47.7497 135.499C42.4743 135.499 37.5136 133.446 33.7832 129.716C30.0529 125.986 28 121.025 28 115.75C28 110.474 30.053 105.514 33.7832 101.783C37.5136 98.0529 42.4743 96 47.7497 96ZM47.7497 119.136C42.0085 119.136 37.1503 123.497 36.4936 129.148L36.4907 129.172L36.511 129.19C39.5558 131.74 43.4766 133.278 47.7497 133.278C52.0229 133.278 55.9437 131.74 58.9884 129.19L59.0087 129.174L59.0058 129.146C58.7123 126.624 57.5715 124.262 55.7633 122.454C53.6227 120.314 50.7759 119.136 47.7497 119.136ZM47.7497 98.2216C38.0843 98.2216 30.2216 106.084 30.2216 115.75C30.2216 120.133 31.8382 124.145 34.5069 127.222L34.5692 127.293L34.5924 127.202C35.2185 124.668 36.5693 122.359 38.5137 120.548C39.8563 119.297 41.417 118.347 43.1034 117.732L43.1948 117.697L43.115 117.644C40.9143 116.153 39.465 113.632 39.465 110.78C39.4654 106.213 43.1821 102.497 47.7497 102.497C52.3173 102.497 56.034 106.213 56.0345 110.78C56.0345 113.63 54.5863 116.151 52.3873 117.642L52.3076 117.696L52.3989 117.729L53.079 117.997C54.648 118.668 56.0907 119.64 57.3338 120.883C59.0766 122.626 60.3116 124.811 60.9056 127.203L60.9273 127.294L60.9911 127.223L61.4784 126.636C63.8561 123.644 65.2778 119.86 65.2778 115.75C65.2778 106.084 57.4152 98.2216 47.7497 98.2216ZM47.7497 104.718C44.407 104.718 41.687 107.437 41.6866 110.78C41.6866 113.967 44.1602 116.588 47.2886 116.824L47.5626 116.845H47.7497C51.0927 116.845 53.8128 114.123 53.8128 110.78C53.8124 107.437 51.0924 104.718 47.7497 104.718Z" fill="#232F6F"/>
<path d="M109.65 96C114.925 96 119.886 98.053 123.616 101.783C127.347 105.514 129.4 110.474 129.4 115.75C129.4 121.025 127.347 125.986 123.616 129.716C119.886 133.446 114.925 135.499 109.65 135.499C104.374 135.499 99.4138 133.446 95.6834 129.716C91.9531 125.986 89.9001 121.025 89.9001 115.75C89.9001 110.474 91.9532 105.514 95.6834 101.783C99.4138 98.0529 104.374 96 109.65 96ZM109.65 119.136C103.909 119.136 99.0505 123.497 98.3937 129.148L98.3908 129.172L98.4111 129.19C101.456 131.74 105.377 133.278 109.65 133.278C113.923 133.278 117.844 131.74 120.889 129.19L120.909 129.174L120.906 129.146C120.612 126.624 119.472 124.262 117.663 122.454C115.523 120.314 112.676 119.136 109.65 119.136ZM109.65 98.2216C99.9844 98.2216 92.1218 106.084 92.1218 115.75C92.1218 120.133 93.7383 124.145 96.407 127.222L96.4694 127.293L96.4926 127.202C97.1186 124.668 98.4695 122.359 100.414 120.548C101.756 119.297 103.317 118.347 105.004 117.732L105.095 117.697L105.015 117.644C102.814 116.153 101.365 113.632 101.365 110.78C101.366 106.213 105.082 102.497 109.65 102.497C114.217 102.497 117.934 106.213 117.935 110.78C117.935 113.63 116.486 116.151 114.287 117.642L114.208 117.696L114.299 117.729L114.979 117.997C116.548 118.668 117.991 119.64 119.234 120.883C120.977 122.626 122.212 124.811 122.806 127.203L122.827 127.294L122.891 127.223L123.379 126.636C125.756 123.644 127.178 119.86 127.178 115.75C127.178 106.084 119.315 98.2216 109.65 98.2216ZM109.65 104.718C106.307 104.718 103.587 107.437 103.587 110.78C103.587 113.967 106.06 116.588 109.189 116.824L109.463 116.845H109.65C112.993 116.845 115.713 114.123 115.713 110.78C115.713 107.437 112.993 104.718 109.65 104.718Z" fill="#232F6F"/>
<path d="M171.55 96C176.825 96 181.786 98.053 185.516 101.783C189.247 105.514 191.3 110.474 191.3 115.75C191.3 121.025 189.247 125.986 185.516 129.716C181.786 133.446 176.825 135.499 171.55 135.499C166.275 135.499 161.314 133.446 157.583 129.716C153.853 125.986 151.8 121.025 151.8 115.75C151.8 110.474 153.853 105.514 157.583 101.783C161.314 98.0529 166.275 96 171.55 96ZM171.55 119.136C165.809 119.136 160.951 123.497 160.294 129.148L160.291 129.172L160.311 129.19C163.356 131.74 167.277 133.278 171.55 133.278C175.823 133.278 179.744 131.74 182.789 129.19L182.809 129.174L182.806 129.146C182.513 126.624 181.372 124.262 179.564 122.454C177.423 120.314 174.576 119.136 171.55 119.136ZM171.55 98.2216C161.885 98.2216 154.022 106.084 154.022 115.75C154.022 120.133 155.638 124.145 158.307 127.222L158.369 127.293L158.393 127.202C159.019 124.668 160.37 122.359 162.314 120.548C163.657 119.297 165.217 118.347 166.904 117.732L166.995 117.697L166.915 117.644C164.714 116.153 163.265 113.632 163.265 110.78C163.266 106.213 166.982 102.497 171.55 102.497C176.118 102.497 179.834 106.213 179.835 110.78C179.835 113.63 178.387 116.151 176.188 117.642L176.108 117.696L176.199 117.729L176.879 117.997C178.448 118.668 179.891 119.64 181.134 120.883C182.877 122.626 184.112 124.811 184.706 127.203L184.728 127.294L184.791 127.223L185.279 126.636C187.656 123.644 189.078 119.86 189.078 115.75C189.078 106.084 181.215 98.2216 171.55 98.2216ZM171.55 104.718C168.207 104.718 165.487 107.437 165.487 110.78C165.487 113.967 167.96 116.588 171.089 116.824L171.363 116.845H171.55C174.893 116.845 177.613 114.123 177.613 110.78C177.613 107.437 174.893 104.718 171.55 104.718Z" fill="#232F6F"/>
<path d="M233.45 96C238.725 96 243.686 98.053 247.417 101.783C251.147 105.514 253.2 110.474 253.2 115.75C253.2 121.025 251.147 125.986 247.417 129.716C243.686 133.446 238.725 135.499 233.45 135.499C228.175 135.499 223.214 133.446 219.484 129.716C215.753 125.986 213.7 121.025 213.7 115.75C213.7 110.474 215.753 105.514 219.484 101.783C223.214 98.0529 228.175 96 233.45 96ZM233.45 119.136C227.709 119.136 222.851 123.497 222.194 129.148L222.191 129.172L222.211 129.19C225.256 131.74 229.177 133.278 233.45 133.278C237.723 133.278 241.644 131.74 244.689 129.19L244.709 129.174L244.706 129.146C244.413 126.624 243.272 124.262 241.464 122.454C239.323 120.314 236.476 119.136 233.45 119.136ZM233.45 98.2216C223.785 98.2216 215.922 106.084 215.922 115.75C215.922 120.133 217.538 124.145 220.207 127.222L220.27 127.293L220.293 127.202C220.919 124.668 222.27 122.359 224.214 120.548C225.557 119.297 227.117 118.347 228.804 117.732L228.895 117.697L228.815 117.644C226.615 116.153 225.165 113.632 225.165 110.78C225.166 106.213 228.882 102.497 233.45 102.497C238.018 102.497 241.734 106.213 241.735 110.78C241.735 113.63 240.287 116.151 238.088 117.642L238.008 117.696L238.099 117.729L238.779 117.997C240.348 118.668 241.791 119.64 243.034 120.883C244.777 122.626 246.012 124.811 246.606 127.203L246.628 127.294L246.691 127.223L247.179 126.636C249.556 123.644 250.978 119.86 250.978 115.75C250.978 106.084 243.115 98.2216 233.45 98.2216ZM233.45 104.718C230.107 104.718 227.387 107.437 227.387 110.78C227.387 113.967 229.861 116.588 232.989 116.824L233.263 116.845H233.45C236.793 116.845 239.513 114.123 239.513 110.78C239.513 107.437 236.793 104.718 233.45 104.718Z" fill="#232F6F"/>
<path d="M295.35 96C300.626 96 305.586 98.053 309.317 101.783C313.047 105.514 315.1 110.474 315.1 115.75C315.1 121.025 313.047 125.986 309.317 129.716C305.586 133.446 300.626 135.499 295.35 135.499C290.075 135.499 285.114 133.446 281.384 129.716C277.653 125.986 275.6 121.025 275.6 115.75C275.6 110.474 277.653 105.514 281.384 101.783C285.114 98.0529 290.075 96 295.35 96ZM295.35 119.136C289.609 119.136 284.751 123.497 284.094 129.148L284.091 129.172L284.111 129.19C287.156 131.74 291.077 133.278 295.35 133.278C299.623 133.278 303.544 131.74 306.589 129.19L306.609 129.174L306.606 129.146C306.313 126.624 305.172 124.262 303.364 122.454C301.223 120.314 298.376 119.136 295.35 119.136ZM295.35 98.2216C285.685 98.2216 277.822 106.084 277.822 115.75C277.822 120.133 279.439 124.145 282.107 127.222L282.17 127.293L282.193 127.202C282.819 124.668 284.17 122.359 286.114 120.548C287.457 119.297 289.017 118.347 290.704 117.732L290.795 117.697L290.715 117.644C288.515 116.153 287.065 113.632 287.065 110.78C287.066 106.213 290.783 102.497 295.35 102.497C299.918 102.497 303.635 106.213 303.635 110.78C303.635 113.63 302.187 116.151 299.988 117.642L299.908 117.696L299.999 117.729L300.68 117.997C302.249 118.668 303.691 119.64 304.934 120.883C306.677 122.626 307.912 124.811 308.506 127.203L308.528 127.294L308.592 127.223L309.079 126.636C311.457 123.644 312.878 119.86 312.878 115.75C312.878 106.084 305.016 98.2216 295.35 98.2216ZM295.35 104.718C292.007 104.718 289.287 107.437 289.287 110.78C289.287 113.967 291.761 116.588 294.889 116.824L295.163 116.845H295.35C298.693 116.845 301.413 114.123 301.413 110.78C301.413 107.437 298.693 104.718 295.35 104.718Z" fill="#232F6F"/>
<path d="M357.25 96C362.526 96 367.486 98.053 371.217 101.783C374.947 105.514 377 110.474 377 115.75C377 121.025 374.947 125.986 371.217 129.716C367.486 133.446 362.526 135.499 357.25 135.499C351.975 135.499 347.014 133.446 343.284 129.716C339.554 125.986 337.501 121.025 337.501 115.75C337.501 110.474 339.554 105.514 343.284 101.783C347.014 98.0529 351.975 96 357.25 96ZM357.25 119.136C351.509 119.136 346.651 123.497 345.994 129.148L345.991 129.172L346.012 129.19C349.056 131.74 352.977 133.278 357.25 133.278C361.523 133.278 365.444 131.74 368.489 129.19L368.509 129.174L368.506 129.146C368.213 126.624 367.072 124.262 365.264 122.454C363.123 120.314 360.276 119.136 357.25 119.136ZM357.25 98.2216C347.585 98.2216 339.722 106.084 339.722 115.75C339.722 120.133 341.339 124.145 344.007 127.222L344.07 127.293L344.093 127.202C344.719 124.668 346.07 122.359 348.014 120.548C349.357 119.297 350.918 118.347 352.604 117.732L352.695 117.697L352.616 117.644C350.415 116.153 348.966 113.632 348.966 110.78C348.966 106.213 352.683 102.497 357.25 102.497C361.818 102.497 365.535 106.213 365.535 110.78C365.535 113.63 364.087 116.151 361.888 117.642L361.808 117.696L361.9 117.729L362.58 117.997C364.149 118.668 365.591 119.64 366.834 120.883C368.577 122.626 369.812 124.811 370.406 127.203L370.428 127.294L370.492 127.223L370.979 126.636C373.357 123.644 374.778 119.86 374.778 115.75C374.778 106.084 366.916 98.2216 357.25 98.2216ZM357.25 104.718C353.908 104.718 351.188 107.437 351.187 110.78C351.187 113.967 353.661 116.588 356.789 116.824L357.063 116.845H357.25C360.593 116.845 363.313 114.123 363.313 110.78C363.313 107.437 360.593 104.718 357.25 104.718Z" fill="#232F6F"/>
</g>
<g opacity="0.5">
<path d="M20.7497 48C26.0251 48 30.9858 50.053 34.7162 53.7832C38.4465 57.5136 40.4994 62.4743 40.4994 67.7497C40.4994 73.0251 38.4464 77.9858 34.7162 81.7162C30.9858 85.4465 26.0251 87.4994 20.7497 87.4994C15.4743 87.4994 10.5136 85.4464 6.78323 81.7162C3.05294 77.9858 1 73.0251 1 67.7497C1 62.4743 3.05302 57.5136 6.78323 53.7832C10.5136 50.0529 15.4743 48 20.7497 48ZM20.7497 71.1358C15.0085 71.1358 10.1503 75.4974 9.49358 81.1477L9.49068 81.1724L9.51098 81.1898C12.5558 83.7398 16.4766 85.2778 20.7497 85.2778C25.0229 85.2778 28.9437 83.7399 31.9884 81.1898L32.0087 81.1738L32.0058 81.1463C31.7123 78.6244 30.5715 76.2624 28.7633 74.4538C26.6227 72.3138 23.7759 71.1358 20.7497 71.1358ZM20.7497 50.2216C11.0843 50.2216 3.22164 58.0843 3.22164 67.7497C3.22164 72.1327 4.83817 76.1453 7.50686 79.2219L7.56922 79.293L7.59242 79.2016C8.21846 76.6679 9.56932 74.3592 11.5137 72.5483C12.8563 71.2974 14.417 70.3467 16.1034 69.7321L16.1948 69.6973L16.115 69.6436C13.9143 68.1526 12.465 65.632 12.465 62.78C12.4654 58.2126 16.1821 54.4967 20.7497 54.4967C25.3173 54.4967 29.034 58.2126 29.0345 62.78C29.0345 65.6304 27.5863 68.1509 25.3873 69.6422L25.3076 69.6958L25.3989 69.7292L26.079 69.9975C27.648 70.6684 29.0907 71.6402 30.3338 72.8833C32.0766 74.6257 33.3116 76.8112 33.9056 79.2031L33.9273 79.2944L33.9911 79.2234L34.4784 78.6361C36.8561 75.644 38.2778 71.8598 38.2778 67.7497C38.2778 58.0843 30.4152 50.2216 20.7497 50.2216ZM20.7497 56.7184C17.407 56.7184 14.687 59.437 14.6866 62.78C14.6866 65.9675 17.1602 68.5879 20.2886 68.8243L20.5626 68.8446H20.7497C24.0927 68.8446 26.8128 66.1232 26.8128 62.78C26.8124 59.437 24.0924 56.7184 20.7497 56.7184Z" fill="#232F6F"/>
<path d="M81.3331 48C86.6085 48 91.5693 50.053 95.2996 53.7832C99.0299 57.5136 101.083 62.4743 101.083 67.7497C101.083 73.0251 99.0298 77.9858 95.2996 81.7162C91.5693 85.4465 86.6085 87.4994 81.3331 87.4994C76.0578 87.4994 71.097 85.4464 67.3667 81.7162C63.6364 77.9858 61.5834 73.0251 61.5834 67.7497C61.5834 62.4743 63.6365 57.5136 67.3667 53.7832C71.097 50.0529 76.0578 48 81.3331 48ZM81.3331 71.1358C75.5919 71.1358 70.7338 75.4974 70.077 81.1477L70.0741 81.1724L70.0944 81.1898C73.1393 83.7398 77.0601 85.2778 81.3331 85.2778C85.6063 85.2778 89.5271 83.7399 92.5719 81.1898L92.5922 81.1738L92.5893 81.1463C92.2958 78.6244 91.155 76.2624 89.3467 74.4538C87.2062 72.3138 84.3593 71.1358 81.3331 71.1358ZM81.3331 50.2216C71.6677 50.2216 63.8051 58.0843 63.8051 67.7497C63.8051 72.1327 65.4216 76.1453 68.0903 79.2219L68.1527 79.293L68.1759 79.2016C68.8019 76.6679 70.1528 74.3592 72.0971 72.5483C73.4398 71.2974 75.0005 70.3467 76.6868 69.7321L76.7782 69.6973L76.6984 69.6436C74.4977 68.1526 73.0484 65.632 73.0484 62.78C73.0488 58.2126 76.7655 54.4967 81.3331 54.4967C85.9008 54.4967 89.6175 58.2126 89.6179 62.78C89.6179 65.6304 88.1697 68.1509 85.9708 69.6422L85.891 69.6958L85.9824 69.7292L86.6625 69.9975C88.2315 70.6684 89.6741 71.6402 90.9172 72.8833C92.66 74.6257 93.895 76.8112 94.489 79.2031L94.5107 79.2944L94.5745 79.2234L95.0618 78.6361C97.4395 75.644 98.8612 71.8598 98.8612 67.7497C98.8612 58.0843 90.9986 50.2216 81.3331 50.2216ZM81.3331 56.7184C77.9905 56.7184 75.2705 59.437 75.27 62.78C75.27 65.9675 77.7436 68.5879 80.872 68.8243L81.1461 68.8446H81.3331C84.6761 68.8446 87.3963 66.1232 87.3963 62.78C87.3958 59.437 84.6758 56.7184 81.3331 56.7184Z" fill="#232F6F"/>
<path d="M141.917 48C147.192 48 152.153 50.053 155.883 53.7832C159.613 57.5136 161.666 62.4743 161.666 67.7497C161.666 73.0251 159.613 77.9858 155.883 81.7162C152.153 85.4465 147.192 87.4994 141.917 87.4994C136.641 87.4994 131.68 85.4464 127.95 81.7162C124.22 77.9858 122.167 73.0251 122.167 67.7497C122.167 62.4743 124.22 57.5136 127.95 53.7832C131.68 50.0529 136.641 48 141.917 48ZM141.917 71.1358C136.175 71.1358 131.317 75.4974 130.66 81.1477L130.658 81.1724L130.678 81.1898C133.723 83.7398 137.643 85.2778 141.917 85.2778C146.19 85.2778 150.111 83.7399 153.155 81.1898L153.176 81.1738L153.173 81.1463C152.879 78.6244 151.738 76.2624 149.93 74.4538C147.79 72.3138 144.943 71.1358 141.917 71.1358ZM141.917 50.2216C132.251 50.2216 124.389 58.0843 124.389 67.7497C124.389 72.1327 126.005 76.1453 128.674 79.2219L128.736 79.293L128.759 79.2016C129.385 76.6679 130.736 74.3592 132.681 72.5483C134.023 71.2974 135.584 70.3467 137.27 69.7321L137.362 69.6973L137.282 69.6436C135.081 68.1526 133.632 65.632 133.632 62.78C133.632 58.2126 137.349 54.4967 141.917 54.4967C146.484 54.4967 150.201 58.2126 150.201 62.78C150.201 65.6304 148.753 68.1509 146.554 69.6422L146.474 69.6958L146.566 69.7292L147.246 69.9975C148.815 70.6684 150.258 71.6402 151.501 72.8833C153.243 74.6257 154.478 76.8112 155.072 79.2031L155.094 79.2944L155.158 79.2234L155.645 78.6361C158.023 75.644 159.445 71.8598 159.445 67.7497C159.445 58.0843 151.582 50.2216 141.917 50.2216ZM141.917 56.7184C138.574 56.7184 135.854 59.437 135.853 62.78C135.853 65.9675 138.327 68.5879 141.455 68.8243L141.73 68.8446H141.917C145.26 68.8446 147.98 66.1232 147.98 62.78C147.979 59.437 145.259 56.7184 141.917 56.7184Z" fill="#232F6F"/>
<path d="M202.5 48C207.775 48 212.736 50.053 216.466 53.7832C220.197 57.5136 222.25 62.4743 222.25 67.7497C222.25 73.0251 220.197 77.9858 216.466 81.7162C212.736 85.4465 207.775 87.4994 202.5 87.4994C197.225 87.4994 192.264 85.4464 188.533 81.7162C184.803 77.9858 182.75 73.0251 182.75 67.7497C182.75 62.4743 184.803 57.5136 188.533 53.7832C192.264 50.0529 197.225 48 202.5 48ZM202.5 71.1358C196.759 71.1358 191.901 75.4974 191.244 81.1477L191.241 81.1724L191.261 81.1898C194.306 83.7398 198.227 85.2778 202.5 85.2778C206.773 85.2778 210.694 83.7399 213.739 81.1898L213.759 81.1738L213.756 81.1463C213.463 78.6244 212.322 76.2624 210.514 74.4538C208.373 72.3138 205.526 71.1358 202.5 71.1358ZM202.5 50.2216C192.835 50.2216 184.972 58.0843 184.972 67.7497C184.972 72.1327 186.588 76.1453 189.257 79.2219L189.319 79.293L189.343 79.2016C189.969 76.6679 191.32 74.3592 193.264 72.5483C194.607 71.2974 196.167 70.3467 197.854 69.7321L197.945 69.6973L197.865 69.6436C195.665 68.1526 194.215 65.632 194.215 62.78C194.216 58.2126 197.932 54.4967 202.5 54.4967C207.068 54.4967 210.784 58.2126 210.785 62.78C210.785 65.6304 209.337 68.1509 207.138 69.6422L207.058 69.6958L207.149 69.7292L207.829 69.9975C209.398 70.6684 210.841 71.6402 212.084 72.8833C213.827 74.6257 215.062 76.8112 215.656 79.2031L215.678 79.2944L215.741 79.2234L216.229 78.6361C218.606 75.644 220.028 71.8598 220.028 67.7497C220.028 58.0843 212.165 50.2216 202.5 50.2216ZM202.5 56.7184C199.157 56.7184 196.437 59.437 196.437 62.78C196.437 65.9675 198.91 68.5879 202.039 68.8243L202.313 68.8446H202.5C205.843 68.8446 208.563 66.1232 208.563 62.78C208.563 59.437 205.843 56.7184 202.5 56.7184Z" fill="#232F6F"/>
<path d="M263.083 48C268.359 48 273.32 50.053 277.05 53.7832C280.78 57.5136 282.833 62.4743 282.833 67.7497C282.833 73.0251 280.78 77.9858 277.05 81.7162C273.32 85.4465 268.359 87.4994 263.083 87.4994C257.808 87.4994 252.847 85.4464 249.117 81.7162C245.387 77.9858 243.334 73.0251 243.334 67.7497C243.334 62.4743 245.387 57.5136 249.117 53.7832C252.847 50.0529 257.808 48 263.083 48ZM263.083 71.1358C257.342 71.1358 252.484 75.4974 251.827 81.1477L251.824 81.1724L251.845 81.1898C254.89 83.7398 258.81 85.2778 263.083 85.2778C267.357 85.2778 271.277 83.7399 274.322 81.1898L274.342 81.1738L274.34 81.1463C274.046 78.6244 272.905 76.2624 271.097 74.4538C268.956 72.3138 266.11 71.1358 263.083 71.1358ZM263.083 50.2216C253.418 50.2216 245.555 58.0843 245.555 67.7497C245.555 72.1327 247.172 76.1453 249.841 79.2219L249.903 79.293L249.926 79.2016C250.552 76.6679 251.903 74.3592 253.847 72.5483C255.19 71.2974 256.751 70.3467 258.437 69.7321L258.529 69.6973L258.449 69.6436C256.248 68.1526 254.799 65.632 254.799 62.78C254.799 58.2126 258.516 54.4967 263.083 54.4967C267.651 54.4967 271.368 58.2126 271.368 62.78C271.368 65.6304 269.92 68.1509 267.721 69.6422L267.641 69.6958L267.733 69.7292L268.413 69.9975C269.982 70.6684 271.424 71.6402 272.668 72.8833C274.41 74.6257 275.645 76.8112 276.239 79.2031L276.261 79.2944L276.325 79.2234L276.812 78.6361C279.19 75.644 280.612 71.8598 280.612 67.7497C280.612 58.0843 272.749 50.2216 263.083 50.2216ZM263.083 56.7184C259.741 56.7184 257.021 59.437 257.02 62.78C257.02 65.9675 259.494 68.5879 262.622 68.8243L262.896 68.8446H263.083C266.426 68.8446 269.147 66.1232 269.147 62.78C269.146 59.437 266.426 56.7184 263.083 56.7184Z" fill="#232F6F"/>
<path d="M323.667 48C328.942 48 333.903 50.053 337.633 53.7832C341.364 57.5136 343.417 62.4743 343.417 67.7497C343.417 73.0251 341.364 77.9858 337.633 81.7162C333.903 85.4465 328.942 87.4994 323.667 87.4994C318.391 87.4994 313.431 85.4464 309.7 81.7162C305.97 77.9858 303.917 73.0251 303.917 67.7497C303.917 62.4743 305.97 57.5136 309.7 53.7832C313.431 50.0529 318.391 48 323.667 48ZM323.667 71.1358C317.926 71.1358 313.067 75.4974 312.411 81.1477L312.408 81.1724L312.428 81.1898C315.473 83.7398 319.394 85.2778 323.667 85.2778C327.94 85.2778 331.861 83.7399 334.906 81.1898L334.926 81.1738L334.923 81.1463C334.629 78.6244 333.489 76.2624 331.68 74.4538C329.54 72.3138 326.693 71.1358 323.667 71.1358ZM323.667 50.2216C314.001 50.2216 306.139 58.0843 306.139 67.7497C306.139 72.1327 307.755 76.1453 310.424 79.2219L310.486 79.293L310.51 79.2016C311.136 76.6679 312.486 74.3592 314.431 72.5483C315.773 71.2974 317.334 70.3467 319.021 69.7321L319.112 69.6973L319.032 69.6436C316.831 68.1526 315.382 65.632 315.382 62.78C315.382 58.2126 319.099 54.4967 323.667 54.4967C328.234 54.4967 331.951 58.2126 331.952 62.78C331.952 65.6304 330.503 68.1509 328.304 69.6422L328.225 69.6958L328.316 69.7292L328.996 69.9975C330.565 70.6684 332.008 71.6402 333.251 72.8833C334.994 74.6257 336.229 76.8112 336.823 79.2031L336.844 79.2944L336.908 79.2234L337.395 78.6361C339.773 75.644 341.195 71.8598 341.195 67.7497C341.195 58.0843 333.332 50.2216 323.667 50.2216ZM323.667 56.7184C320.324 56.7184 317.604 59.437 317.604 62.78C317.604 65.9675 320.077 68.5879 323.206 68.8243L323.48 68.8446H323.667C327.01 68.8446 329.73 66.1232 329.73 62.78C329.73 59.437 327.01 56.7184 323.667 56.7184Z" fill="#232F6F"/>
<path d="M384.25 48C389.526 48 394.486 50.053 398.217 53.7832C401.947 57.5136 404 62.4743 404 67.7497C404 73.0251 401.947 77.9858 398.217 81.7162C394.486 85.4465 389.526 87.4994 384.25 87.4994C378.975 87.4994 374.014 85.4464 370.284 81.7162C366.554 77.9858 364.501 73.0251 364.501 67.7497C364.501 62.4743 366.554 57.5136 370.284 53.7832C374.014 50.0529 378.975 48 384.25 48ZM384.25 71.1358C378.509 71.1358 373.651 75.4974 372.994 81.1477L372.991 81.1724L373.012 81.1898C376.056 83.7398 379.977 85.2778 384.25 85.2778C388.523 85.2778 392.444 83.7399 395.489 81.1898L395.509 81.1738L395.506 81.1463C395.213 78.6244 394.072 76.2624 392.264 74.4538C390.123 72.3138 387.276 71.1358 384.25 71.1358ZM384.25 50.2216C374.585 50.2216 366.722 58.0843 366.722 67.7497C366.722 72.1327 368.339 76.1453 371.007 79.2219L371.07 79.293L371.093 79.2016C371.719 76.6679 373.07 74.3592 375.014 72.5483C376.357 71.2974 377.918 70.3467 379.604 69.7321L379.695 69.6973L379.616 69.6436C377.415 68.1526 375.966 65.632 375.966 62.78C375.966 58.2126 379.683 54.4967 384.25 54.4967C388.818 54.4967 392.535 58.2126 392.535 62.78C392.535 65.6304 391.087 68.1509 388.888 69.6422L388.808 69.6958L388.9 69.7292L389.58 69.9975C391.149 70.6684 392.591 71.6402 393.834 72.8833C395.577 74.6257 396.812 76.8112 397.406 79.2031L397.428 79.2944L397.492 79.2234L397.979 78.6361C400.357 75.644 401.778 71.8598 401.778 67.7497C401.778 58.0843 393.916 50.2216 384.25 50.2216ZM384.25 56.7184C380.908 56.7184 378.188 59.437 378.187 62.78C378.187 65.9675 380.661 68.5879 383.789 68.8243L384.063 68.8446H384.25C387.593 68.8446 390.313 66.1232 390.313 62.78C390.313 59.437 387.593 56.7184 384.25 56.7184Z" fill="#232F6F"/>
</g>
<g opacity="0.21">
<path d="M20.7497 144C26.0251 144 30.9858 146.053 34.7162 149.783C38.4465 153.514 40.4994 158.474 40.4994 163.75C40.4994 169.025 38.4464 173.986 34.7162 177.716C30.9858 181.446 26.0251 183.499 20.7497 183.499C15.4743 183.499 10.5136 181.446 6.78323 177.716C3.05294 173.986 1 169.025 1 163.75C1 158.474 3.05302 153.514 6.78323 149.783C10.5136 146.053 15.4743 144 20.7497 144ZM20.7497 167.136C15.0085 167.136 10.1503 171.497 9.49358 177.148L9.49068 177.172L9.51098 177.19C12.5558 179.74 16.4766 181.278 20.7497 181.278C25.0229 181.278 28.9437 179.74 31.9884 177.19L32.0087 177.174L32.0058 177.146C31.7123 174.624 30.5715 172.262 28.7633 170.454C26.6227 168.314 23.7759 167.136 20.7497 167.136ZM20.7497 146.222C11.0843 146.222 3.22164 154.084 3.22164 163.75C3.22164 168.133 4.83817 172.145 7.50686 175.222L7.56922 175.293L7.59242 175.202C8.21846 172.668 9.56932 170.359 11.5137 168.548C12.8563 167.297 14.417 166.347 16.1034 165.732L16.1948 165.697L16.115 165.644C13.9143 164.153 12.465 161.632 12.465 158.78C12.4654 154.213 16.1821 150.497 20.7497 150.497C25.3173 150.497 29.034 154.213 29.0345 158.78C29.0345 161.63 27.5863 164.151 25.3873 165.642L25.3076 165.696L25.3989 165.729L26.079 165.997C27.648 166.668 29.0907 167.64 30.3338 168.883C32.0766 170.626 33.3116 172.811 33.9056 175.203L33.9273 175.294L33.9911 175.223L34.4784 174.636C36.8561 171.644 38.2778 167.86 38.2778 163.75C38.2778 154.084 30.4152 146.222 20.7497 146.222ZM20.7497 152.718C17.407 152.718 14.687 155.437 14.6866 158.78C14.6866 161.967 17.1602 164.588 20.2886 164.824L20.5626 164.845H20.7497C24.0927 164.845 26.8128 162.123 26.8128 158.78C26.8124 155.437 24.0924 152.718 20.7497 152.718Z" fill="#232F6F"/>
<path d="M81.3331 144C86.6085 144 91.5693 146.053 95.2996 149.783C99.0299 153.514 101.083 158.474 101.083 163.75C101.083 169.025 99.0298 173.986 95.2996 177.716C91.5693 181.446 86.6085 183.499 81.3331 183.499C76.0578 183.499 71.097 181.446 67.3667 177.716C63.6364 173.986 61.5834 169.025 61.5834 163.75C61.5834 158.474 63.6365 153.514 67.3667 149.783C71.097 146.053 76.0578 144 81.3331 144ZM81.3331 167.136C75.5919 167.136 70.7338 171.497 70.077 177.148L70.0741 177.172L70.0944 177.19C73.1393 179.74 77.0601 181.278 81.3331 181.278C85.6063 181.278 89.5271 179.74 92.5719 177.19L92.5922 177.174L92.5893 177.146C92.2958 174.624 91.155 172.262 89.3467 170.454C87.2062 168.314 84.3593 167.136 81.3331 167.136ZM81.3331 146.222C71.6677 146.222 63.8051 154.084 63.8051 163.75C63.8051 168.133 65.4216 172.145 68.0903 175.222L68.1527 175.293L68.1759 175.202C68.8019 172.668 70.1528 170.359 72.0971 168.548C73.4398 167.297 75.0005 166.347 76.6868 165.732L76.7782 165.697L76.6984 165.644C74.4977 164.153 73.0484 161.632 73.0484 158.78C73.0488 154.213 76.7655 150.497 81.3331 150.497C85.9008 150.497 89.6175 154.213 89.6179 158.78C89.6179 161.63 88.1697 164.151 85.9708 165.642L85.891 165.696L85.9824 165.729L86.6625 165.997C88.2315 166.668 89.6741 167.64 90.9172 168.883C92.66 170.626 93.895 172.811 94.489 175.203L94.5107 175.294L94.5745 175.223L95.0618 174.636C97.4395 171.644 98.8612 167.86 98.8612 163.75C98.8612 154.084 90.9986 146.222 81.3331 146.222ZM81.3331 152.718C77.9905 152.718 75.2705 155.437 75.27 158.78C75.27 161.967 77.7436 164.588 80.872 164.824L81.1461 164.845H81.3331C84.6761 164.845 87.3963 162.123 87.3963 158.78C87.3958 155.437 84.6758 152.718 81.3331 152.718Z" fill="#232F6F"/>
<path d="M141.917 144C147.192 144 152.153 146.053 155.883 149.783C159.613 153.514 161.666 158.474 161.666 163.75C161.666 169.025 159.613 173.986 155.883 177.716C152.153 181.446 147.192 183.499 141.917 183.499C136.641 183.499 131.68 181.446 127.95 177.716C124.22 173.986 122.167 169.025 122.167 163.75C122.167 158.474 124.22 153.514 127.95 149.783C131.68 146.053 136.641 144 141.917 144ZM141.917 167.136C136.175 167.136 131.317 171.497 130.66 177.148L130.658 177.172L130.678 177.19C133.723 179.74 137.643 181.278 141.917 181.278C146.19 181.278 150.111 179.74 153.155 177.19L153.176 177.174L153.173 177.146C152.879 174.624 151.738 172.262 149.93 170.454C147.79 168.314 144.943 167.136 141.917 167.136ZM141.917 146.222C132.251 146.222 124.389 154.084 124.389 163.75C124.389 168.133 126.005 172.145 128.674 175.222L128.736 175.293L128.759 175.202C129.385 172.668 130.736 170.359 132.681 168.548C134.023 167.297 135.584 166.347 137.27 165.732L137.362 165.697L137.282 165.644C135.081 164.153 133.632 161.632 133.632 158.78C133.632 154.213 137.349 150.497 141.917 150.497C146.484 150.497 150.201 154.213 150.201 158.78C150.201 161.63 148.753 164.151 146.554 165.642L146.474 165.696L146.566 165.729L147.246 165.997C148.815 166.668 150.258 167.64 151.501 168.883C153.243 170.626 154.478 172.811 155.072 175.203L155.094 175.294L155.158 175.223L155.645 174.636C158.023 171.644 159.445 167.86 159.445 163.75C159.445 154.084 151.582 146.222 141.917 146.222ZM141.917 152.718C138.574 152.718 135.854 155.437 135.853 158.78C135.853 161.967 138.327 164.588 141.455 164.824L141.73 164.845H141.917C145.26 164.845 147.98 162.123 147.98 158.78C147.979 155.437 145.259 152.718 141.917 152.718Z" fill="#232F6F"/>
<path d="M202.5 144C207.775 144 212.736 146.053 216.466 149.783C220.197 153.514 222.25 158.474 222.25 163.75C222.25 169.025 220.197 173.986 216.466 177.716C212.736 181.446 207.775 183.499 202.5 183.499C197.225 183.499 192.264 181.446 188.533 177.716C184.803 173.986 182.75 169.025 182.75 163.75C182.75 158.474 184.803 153.514 188.533 149.783C192.264 146.053 197.225 144 202.5 144ZM202.5 167.136C196.759 167.136 191.901 171.497 191.244 177.148L191.241 177.172L191.261 177.19C194.306 179.74 198.227 181.278 202.5 181.278C206.773 181.278 210.694 179.74 213.739 177.19L213.759 177.174L213.756 177.146C213.463 174.624 212.322 172.262 210.514 170.454C208.373 168.314 205.526 167.136 202.5 167.136ZM202.5 146.222C192.835 146.222 184.972 154.084 184.972 163.75C184.972 168.133 186.588 172.145 189.257 175.222L189.319 175.293L189.343 175.202C189.969 172.668 191.32 170.359 193.264 168.548C194.607 167.297 196.167 166.347 197.854 165.732L197.945 165.697L197.865 165.644C195.665 164.153 194.215 161.632 194.215 158.78C194.216 154.213 197.932 150.497 202.5 150.497C207.068 150.497 210.784 154.213 210.785 158.78C210.785 161.63 209.337 164.151 207.138 165.642L207.058 165.696L207.149 165.729L207.829 165.997C209.398 166.668 210.841 167.64 212.084 168.883C213.827 170.626 215.062 172.811 215.656 175.203L215.678 175.294L215.741 175.223L216.229 174.636C218.606 171.644 220.028 167.86 220.028 163.75C220.028 154.084 212.165 146.222 202.5 146.222ZM202.5 152.718C199.157 152.718 196.437 155.437 196.437 158.78C196.437 161.967 198.91 164.588 202.039 164.824L202.313 164.845H202.5C205.843 164.845 208.563 162.123 208.563 158.78C208.563 155.437 205.843 152.718 202.5 152.718Z" fill="#232F6F"/>
<path d="M263.083 144C268.359 144 273.32 146.053 277.05 149.783C280.78 153.514 282.833 158.474 282.833 163.75C282.833 169.025 280.78 173.986 277.05 177.716C273.32 181.446 268.359 183.499 263.083 183.499C257.808 183.499 252.847 181.446 249.117 177.716C245.387 173.986 243.334 169.025 243.334 163.75C243.334 158.474 245.387 153.514 249.117 149.783C252.847 146.053 257.808 144 263.083 144ZM263.083 167.136C257.342 167.136 252.484 171.497 251.827 177.148L251.824 177.172L251.845 177.19C254.89 179.74 258.81 181.278 263.083 181.278C267.357 181.278 271.277 179.74 274.322 177.19L274.342 177.174L274.34 177.146C274.046 174.624 272.905 172.262 271.097 170.454C268.956 168.314 266.11 167.136 263.083 167.136ZM263.083 146.222C253.418 146.222 245.555 154.084 245.555 163.75C245.555 168.133 247.172 172.145 249.841 175.222L249.903 175.293L249.926 175.202C250.552 172.668 251.903 170.359 253.847 168.548C255.19 167.297 256.751 166.347 258.437 165.732L258.529 165.697L258.449 165.644C256.248 164.153 254.799 161.632 254.799 158.78C254.799 154.213 258.516 150.497 263.083 150.497C267.651 150.497 271.368 154.213 271.368 158.78C271.368 161.63 269.92 164.151 267.721 165.642L267.641 165.696L267.733 165.729L268.413 165.997C269.982 166.668 271.424 167.64 272.668 168.883C274.41 170.626 275.645 172.811 276.239 175.203L276.261 175.294L276.325 175.223L276.812 174.636C279.19 171.644 280.612 167.86 280.612 163.75C280.612 154.084 272.749 146.222 263.083 146.222ZM263.083 152.718C259.741 152.718 257.021 155.437 257.02 158.78C257.02 161.967 259.494 164.588 262.622 164.824L262.896 164.845H263.083C266.426 164.845 269.147 162.123 269.147 158.78C269.146 155.437 266.426 152.718 263.083 152.718Z" fill="#232F6F"/>
<path d="M323.667 144C328.942 144 333.903 146.053 337.633 149.783C341.364 153.514 343.417 158.474 343.417 163.75C343.417 169.025 341.364 173.986 337.633 177.716C333.903 181.446 328.942 183.499 323.667 183.499C318.391 183.499 313.431 181.446 309.7 177.716C305.97 173.986 303.917 169.025 303.917 163.75C303.917 158.474 305.97 153.514 309.7 149.783C313.431 146.053 318.391 144 323.667 144ZM323.667 167.136C317.926 167.136 313.067 171.497 312.411 177.148L312.408 177.172L312.428 177.19C315.473 179.74 319.394 181.278 323.667 181.278C327.94 181.278 331.861 179.74 334.906 177.19L334.926 177.174L334.923 177.146C334.629 174.624 333.489 172.262 331.68 170.454C329.54 168.314 326.693 167.136 323.667 167.136ZM323.667 146.222C314.001 146.222 306.139 154.084 306.139 163.75C306.139 168.133 307.755 172.145 310.424 175.222L310.486 175.293L310.51 175.202C311.136 172.668 312.486 170.359 314.431 168.548C315.773 167.297 317.334 166.347 319.021 165.732L319.112 165.697L319.032 165.644C316.831 164.153 315.382 161.632 315.382 158.78C315.382 154.213 319.099 150.497 323.667 150.497C328.234 150.497 331.951 154.213 331.952 158.78C331.952 161.63 330.503 164.151 328.304 165.642L328.225 165.696L328.316 165.729L328.996 165.997C330.565 166.668 332.008 167.64 333.251 168.883C334.994 170.626 336.229 172.811 336.823 175.203L336.844 175.294L336.908 175.223L337.395 174.636C339.773 171.644 341.195 167.86 341.195 163.75C341.195 154.084 333.332 146.222 323.667 146.222ZM323.667 152.718C320.324 152.718 317.604 155.437 317.604 158.78C317.604 161.967 320.077 164.588 323.206 164.824L323.48 164.845H323.667C327.01 164.845 329.73 162.123 329.73 158.78C329.73 155.437 327.01 152.718 323.667 152.718Z" fill="#232F6F"/>
<path d="M384.25 144C389.526 144 394.486 146.053 398.217 149.783C401.947 153.514 404 158.474 404 163.75C404 169.025 401.947 173.986 398.217 177.716C394.486 181.446 389.526 183.499 384.25 183.499C378.975 183.499 374.014 181.446 370.284 177.716C366.554 173.986 364.501 169.025 364.501 163.75C364.501 158.474 366.554 153.514 370.284 149.783C374.014 146.053 378.975 144 384.25 144ZM384.25 167.136C378.509 167.136 373.651 171.497 372.994 177.148L372.991 177.172L373.012 177.19C376.056 179.74 379.977 181.278 384.25 181.278C388.523 181.278 392.444 179.74 395.489 177.19L395.509 177.174L395.506 177.146C395.213 174.624 394.072 172.262 392.264 170.454C390.123 168.314 387.276 167.136 384.25 167.136ZM384.25 146.222C374.585 146.222 366.722 154.084 366.722 163.75C366.722 168.133 368.339 172.145 371.007 175.222L371.07 175.293L371.093 175.202C371.719 172.668 373.07 170.359 375.014 168.548C376.357 167.297 377.918 166.347 379.604 165.732L379.695 165.697L379.616 165.644C377.415 164.153 375.966 161.632 375.966 158.78C375.966 154.213 379.683 150.497 384.25 150.497C388.818 150.497 392.535 154.213 392.535 158.78C392.535 161.63 391.087 164.151 388.888 165.642L388.808 165.696L388.9 165.729L389.58 165.997C391.149 166.668 392.591 167.64 393.834 168.883C395.577 170.626 396.812 172.811 397.406 175.203L397.428 175.294L397.492 175.223L397.979 174.636C400.357 171.644 401.778 167.86 401.778 163.75C401.778 154.084 393.916 146.222 384.25 146.222ZM384.25 152.718C380.908 152.718 378.188 155.437 378.187 158.78C378.187 161.967 380.661 164.588 383.789 164.824L384.063 164.845H384.25C387.593 164.845 390.313 162.123 390.313 158.78C390.313 155.437 387.593 152.718 384.25 152.718Z" fill="#232F6F"/>
</g>
</g>
<defs>
<linearGradient id="paint0_linear_4622_15792" x1="202.5" y1="44" x2="202.5" y2="229" gradientUnits="userSpaceOnUse">
<stop stop-color="#3FA1E3"/>
<stop offset="1" stop-color="#3FA1E3" stop-opacity="0"/>
</linearGradient>
<linearGradient id="paint1_linear_4622_15792" x1="202.5" y1="44" x2="202.5" y2="229" gradientUnits="userSpaceOnUse">
<stop stop-color="#3FA1E3"/>
<stop offset="1" stop-color="#3FA1E3" stop-opacity="0"/>
</linearGradient>
<clipPath id="clip0_4622_15792">
<rect width="404" height="180" fill="white"/>
</clipPath>
</defs>
</svg>
