<svg width="404" height="180" viewBox="0 0 404 180" fill="none" xmlns="http://www.w3.org/2000/svg">
<g clip-path="url(#clip0_4622_15763)">
<g opacity="0.2" filter="url(#filter0_f_4622_15763)">
<circle cx="202.5" cy="151.5" r="72.5" fill="#3FA1E3"/>
</g>
<path d="M169.718 148.422L183.652 124.917C184.912 122.79 187.201 121.486 189.673 121.486H214.328C216.8 121.486 219.089 122.79 220.349 124.917L234.283 148.422C235.577 150.605 235.588 153.318 234.312 155.512L220.34 179.526C219.087 181.68 216.782 183.006 214.29 183.006H189.711C187.219 183.006 184.914 181.68 183.661 179.526L169.689 155.512C168.413 153.318 168.424 150.605 169.718 148.422Z" fill="url(#paint0_linear_4622_15763)"/>
<path d="M198.382 132.343H190.42L178.478 151.381L190.42 172.149H198.382L186.44 151.381L198.382 132.343Z" fill="#131313"/>
<path d="M205.619 132.343H213.581L225.523 151.381L213.581 172.149H205.619L217.561 151.381L205.619 132.343Z" fill="#131313"/>
<g opacity="0.2" filter="url(#filter1_f_4622_15763)">
<circle cx="202" cy="153" r="52.5" stroke="#3FA1E3"/>
</g>
<g opacity="0.5" filter="url(#filter2_f_4622_15763)">
<path d="M160.131 149.075L179.081 117.406C180.345 115.293 182.626 114 185.087 114H218.913C221.374 114 223.655 115.293 224.919 117.406L243.869 149.075C245.183 151.27 245.194 154.008 243.898 156.214L224.911 188.545C223.653 190.685 221.357 192 218.874 192H185.126C182.643 192 180.347 190.685 179.089 188.545L160.102 156.214C158.806 154.008 158.817 151.27 160.131 149.075Z" stroke="#3FA1E3"/>
</g>
<path d="M94.7497 148C100.025 148 104.986 150.053 108.716 153.783C112.446 157.514 114.499 162.474 114.499 167.75C114.499 173.025 112.446 177.986 108.716 181.716C104.986 185.446 100.025 187.499 94.7497 187.499C89.4743 187.499 84.5136 185.446 80.7832 181.716C77.0529 177.986 75 173.025 75 167.75C75 162.474 77.053 157.514 80.7832 153.783C84.5136 150.053 89.4743 148 94.7497 148ZM94.7497 171.136C89.0085 171.136 84.1503 175.497 83.4936 181.148L83.4907 181.172L83.511 181.19C86.5558 183.74 90.4766 185.278 94.7497 185.278C99.0229 185.278 102.944 183.74 105.988 181.19L106.009 181.174L106.006 181.146C105.712 178.624 104.572 176.262 102.763 174.454C100.623 172.314 97.7759 171.136 94.7497 171.136ZM94.7497 150.222C85.0843 150.222 77.2216 158.084 77.2216 167.75C77.2216 172.133 78.8382 176.145 81.5069 179.222L81.5692 179.293L81.5924 179.202C82.2185 176.668 83.5693 174.359 85.5137 172.548C86.8563 171.297 88.417 170.347 90.1034 169.732L90.1948 169.697L90.115 169.644C87.9143 168.153 86.465 165.632 86.465 162.78C86.4654 158.213 90.1821 154.497 94.7497 154.497C99.3173 154.497 103.034 158.213 103.034 162.78C103.034 165.63 101.586 168.151 99.3873 169.642L99.3076 169.696L99.3989 169.729L100.079 169.997C101.648 170.668 103.091 171.64 104.334 172.883C106.077 174.626 107.312 176.811 107.906 179.203L107.927 179.294L107.991 179.223L108.478 178.636C110.856 175.644 112.278 171.86 112.278 167.75C112.278 158.084 104.415 150.222 94.7497 150.222ZM94.7497 156.718C91.407 156.718 88.687 159.437 88.6866 162.78C88.6866 165.967 91.1602 168.588 94.2886 168.824L94.5626 168.845H94.7497C98.0927 168.845 100.813 166.123 100.813 162.78C100.812 159.437 98.0924 156.718 94.7497 156.718Z" fill="#232F6F"/>
<g opacity="0.3">
<path d="M32.7497 148C38.0251 148 42.9858 150.053 46.7162 153.783C50.4465 157.514 52.4994 162.474 52.4994 167.75C52.4994 173.025 50.4464 177.986 46.7162 181.716C42.9858 185.446 38.0251 187.499 32.7497 187.499C27.4743 187.499 22.5136 185.446 18.7832 181.716C15.0529 177.986 13 173.025 13 167.75C13 162.474 15.053 157.514 18.7832 153.783C22.5136 150.053 27.4743 148 32.7497 148ZM32.7497 171.136C27.0085 171.136 22.1503 175.497 21.4936 181.148L21.4907 181.172L21.511 181.19C24.5558 183.74 28.4766 185.278 32.7497 185.278C37.0229 185.278 40.9437 183.74 43.9884 181.19L44.0087 181.174L44.0058 181.146C43.7123 178.624 42.5715 176.262 40.7633 174.454C38.6227 172.314 35.7759 171.136 32.7497 171.136ZM32.7497 150.222C23.0843 150.222 15.2216 158.084 15.2216 167.75C15.2216 172.133 16.8382 176.145 19.5069 179.222L19.5692 179.293L19.5924 179.202C20.2185 176.668 21.5693 174.359 23.5137 172.548C24.8563 171.297 26.417 170.347 28.1034 169.732L28.1948 169.697L28.115 169.644C25.9143 168.153 24.465 165.632 24.465 162.78C24.4654 158.213 28.1821 154.497 32.7497 154.497C37.3173 154.497 41.034 158.213 41.0345 162.78C41.0345 165.63 39.5863 168.151 37.3873 169.642L37.3076 169.696L37.3989 169.729L38.079 169.997C39.648 170.668 41.0907 171.64 42.3338 172.883C44.0766 174.626 45.3116 176.811 45.9056 179.203L45.9273 179.294L45.9911 179.223L46.4784 178.636C48.8561 175.644 50.2778 171.86 50.2778 167.75C50.2778 158.084 42.4152 150.222 32.7497 150.222ZM32.7497 156.718C29.407 156.718 26.687 159.437 26.6866 162.78C26.6866 165.967 29.1602 168.588 32.2886 168.824L32.5626 168.845H32.7497C36.0927 168.845 38.8128 166.123 38.8128 162.78C38.8124 159.437 36.0924 156.718 32.7497 156.718Z" fill="#232F6F"/>
</g>
<path d="M100.75 94C106.025 94 110.986 96.053 114.716 99.7832C118.446 103.514 120.499 108.474 120.499 113.75C120.499 119.025 118.446 123.986 114.716 127.716C110.986 131.446 106.025 133.499 100.75 133.499C95.4743 133.499 90.5136 131.446 86.7832 127.716C83.0529 123.986 81 119.025 81 113.75C81 108.474 83.053 103.514 86.7832 99.7832C90.5136 96.0529 95.4743 94 100.75 94ZM100.75 117.136C95.0085 117.136 90.1503 121.497 89.4936 127.148L89.4907 127.172L89.511 127.19C92.5558 129.74 96.4766 131.278 100.75 131.278C105.023 131.278 108.944 129.74 111.988 127.19L112.009 127.174L112.006 127.146C111.712 124.624 110.572 122.262 108.763 120.454C106.623 118.314 103.776 117.136 100.75 117.136ZM100.75 96.2216C91.0843 96.2216 83.2216 104.084 83.2216 113.75C83.2216 118.133 84.8382 122.145 87.5069 125.222L87.5692 125.293L87.5924 125.202C88.2185 122.668 89.5693 120.359 91.5137 118.548C92.8563 117.297 94.417 116.347 96.1034 115.732L96.1948 115.697L96.115 115.644C93.9143 114.153 92.465 111.632 92.465 108.78C92.4654 104.213 96.1821 100.497 100.75 100.497C105.317 100.497 109.034 104.213 109.034 108.78C109.034 111.63 107.586 114.151 105.387 115.642L105.308 115.696L105.399 115.729L106.079 115.997C107.648 116.668 109.091 117.64 110.334 118.883C112.077 120.626 113.312 122.811 113.906 125.203L113.927 125.294L113.991 125.223L114.478 124.636C116.856 121.644 118.278 117.86 118.278 113.75C118.278 104.084 110.415 96.2216 100.75 96.2216ZM100.75 102.718C97.407 102.718 94.687 105.437 94.6866 108.78C94.6866 111.967 97.1602 114.588 100.289 114.824L100.563 114.845H100.75C104.093 114.845 106.813 112.123 106.813 108.78C106.812 105.437 104.092 102.718 100.75 102.718Z" fill="#232F6F"/>
<g opacity="0.3">
<path d="M32.7497 87C38.0251 87 42.9858 89.053 46.7162 92.7832C50.4465 96.5136 52.4994 101.474 52.4994 106.75C52.4994 112.025 50.4464 116.986 46.7162 120.716C42.9858 124.446 38.0251 126.499 32.7497 126.499C27.4743 126.499 22.5136 124.446 18.7832 120.716C15.0529 116.986 13 112.025 13 106.75C13 101.474 15.053 96.5136 18.7832 92.7832C22.5136 89.0529 27.4743 87 32.7497 87ZM32.7497 110.136C27.0085 110.136 22.1503 114.497 21.4936 120.148L21.4907 120.172L21.511 120.19C24.5558 122.74 28.4766 124.278 32.7497 124.278C37.0229 124.278 40.9437 122.74 43.9884 120.19L44.0087 120.174L44.0058 120.146C43.7123 117.624 42.5715 115.262 40.7633 113.454C38.6227 111.314 35.7759 110.136 32.7497 110.136ZM32.7497 89.2216C23.0843 89.2216 15.2216 97.0843 15.2216 106.75C15.2216 111.133 16.8382 115.145 19.5069 118.222L19.5692 118.293L19.5924 118.202C20.2185 115.668 21.5693 113.359 23.5137 111.548C24.8563 110.297 26.417 109.347 28.1034 108.732L28.1948 108.697L28.115 108.644C25.9143 107.153 24.465 104.632 24.465 101.78C24.4654 97.2126 28.1821 93.4967 32.7497 93.4967C37.3173 93.4967 41.034 97.2126 41.0345 101.78C41.0345 104.63 39.5863 107.151 37.3873 108.642L37.3076 108.696L37.3989 108.729L38.079 108.997C39.648 109.668 41.0907 110.64 42.3338 111.883C44.0766 113.626 45.3116 115.811 45.9056 118.203L45.9273 118.294L45.9911 118.223L46.4784 117.636C48.8561 114.644 50.2778 110.86 50.2778 106.75C50.2778 97.0843 42.4152 89.2216 32.7497 89.2216ZM32.7497 95.7184C29.407 95.7184 26.687 98.437 26.6866 101.78C26.6866 104.967 29.1602 107.588 32.2886 107.824L32.5626 107.845H32.7497C36.0927 107.845 38.8128 105.123 38.8128 101.78C38.8124 98.437 36.0924 95.7184 32.7497 95.7184Z" fill="#232F6F"/>
</g>
<path d="M142.75 51C148.025 51 152.986 53.053 156.716 56.7832C160.446 60.5136 162.499 65.4743 162.499 70.7497C162.499 76.0251 160.446 80.9858 156.716 84.7162C152.986 88.4465 148.025 90.4994 142.75 90.4994C137.474 90.4994 132.514 88.4464 128.783 84.7162C125.053 80.9858 123 76.0251 123 70.7497C123 65.4743 125.053 60.5136 128.783 56.7832C132.514 53.0529 137.474 51 142.75 51ZM142.75 74.1358C137.008 74.1358 132.15 78.4974 131.494 84.1477L131.491 84.1724L131.511 84.1898C134.556 86.7398 138.477 88.2778 142.75 88.2778C147.023 88.2778 150.944 86.7399 153.988 84.1898L154.009 84.1738L154.006 84.1463C153.712 81.6244 152.572 79.2624 150.763 77.4538C148.623 75.3138 145.776 74.1358 142.75 74.1358ZM142.75 53.2216C133.084 53.2216 125.222 61.0843 125.222 70.7497C125.222 75.1327 126.838 79.1453 129.507 82.2219L129.569 82.293L129.592 82.2016C130.218 79.6679 131.569 77.3592 133.514 75.5483C134.856 74.2974 136.417 73.3467 138.103 72.7321L138.195 72.6973L138.115 72.6436C135.914 71.1526 134.465 68.632 134.465 65.78C134.465 61.2126 138.182 57.4967 142.75 57.4967C147.317 57.4967 151.034 61.2126 151.034 65.78C151.034 68.6304 149.586 71.1509 147.387 72.6422L147.308 72.6958L147.399 72.7292L148.079 72.9975C149.648 73.6684 151.091 74.6402 152.334 75.8833C154.077 77.6257 155.312 79.8112 155.906 82.2031L155.927 82.2944L155.991 82.2234L156.478 81.6361C158.856 78.644 160.278 74.8598 160.278 70.7497C160.278 61.0843 152.415 53.2216 142.75 53.2216ZM142.75 59.7184C139.407 59.7184 136.687 62.437 136.687 65.78C136.687 68.9675 139.16 71.5879 142.289 71.8243L142.563 71.8446H142.75C146.093 71.8446 148.813 69.1232 148.813 65.78C148.812 62.437 146.092 59.7184 142.75 59.7184Z" fill="#232F6F"/>
<g opacity="0.3">
<path d="M70.7497 26C76.0251 26 80.9858 28.053 84.7162 31.7832C88.4465 35.5136 90.4994 40.4743 90.4994 45.7497C90.4994 51.0251 88.4464 55.9858 84.7162 59.7162C80.9858 63.4465 76.0251 65.4994 70.7497 65.4994C65.4743 65.4994 60.5136 63.4464 56.7832 59.7162C53.0529 55.9858 51 51.0251 51 45.7497C51 40.4743 53.053 35.5136 56.7832 31.7832C60.5136 28.0529 65.4743 26 70.7497 26ZM70.7497 49.1358C65.0085 49.1358 60.1503 53.4974 59.4936 59.1477L59.4907 59.1724L59.511 59.1898C62.5558 61.7398 66.4766 63.2778 70.7497 63.2778C75.0229 63.2778 78.9437 61.7399 81.9884 59.1898L82.0087 59.1738L82.0058 59.1463C81.7123 56.6244 80.5715 54.2624 78.7633 52.4538C76.6227 50.3138 73.7759 49.1358 70.7497 49.1358ZM70.7497 28.2216C61.0843 28.2216 53.2216 36.0843 53.2216 45.7497C53.2216 50.1327 54.8382 54.1453 57.5069 57.2219L57.5692 57.293L57.5924 57.2016C58.2185 54.6679 59.5693 52.3592 61.5137 50.5483C62.8563 49.2974 64.417 48.3467 66.1034 47.7321L66.1948 47.6973L66.115 47.6436C63.9143 46.1526 62.465 43.632 62.465 40.78C62.4654 36.2126 66.1821 32.4967 70.7497 32.4967C75.3173 32.4967 79.034 36.2126 79.0345 40.78C79.0345 43.6304 77.5863 46.1509 75.3873 47.6422L75.3076 47.6958L75.3989 47.7292L76.079 47.9975C77.648 48.6684 79.0907 49.6402 80.3338 50.8833C82.0766 52.6257 83.3116 54.8112 83.9056 57.2031L83.9273 57.2944L83.9911 57.2234L84.4784 56.6361C86.8561 53.644 88.2778 49.8598 88.2778 45.7497C88.2778 36.0843 80.4152 28.2216 70.7497 28.2216ZM70.7497 34.7184C67.407 34.7184 64.687 37.437 64.6866 40.78C64.6866 43.9675 67.1602 46.5879 70.2886 46.8243L70.5626 46.8446H70.7497C74.0927 46.8446 76.8128 44.1232 76.8128 40.78C76.8124 37.437 74.0924 34.7184 70.7497 34.7184Z" fill="#232F6F"/>
</g>
<g opacity="0.3">
<path d="M126.75 0C132.025 0 136.986 2.05302 140.716 5.78323C144.446 9.51361 146.499 14.4743 146.499 19.7497C146.499 25.0251 144.446 29.9858 140.716 33.7162C136.986 37.4465 132.025 39.4994 126.75 39.4994C121.474 39.4994 116.514 37.4464 112.783 33.7162C109.053 29.9858 107 25.0251 107 19.7497C107 14.4743 109.053 9.51361 112.783 5.78323C116.514 2.05294 121.474 1.49328e-07 126.75 0ZM126.75 23.1358C121.008 23.1358 116.15 27.4974 115.494 33.1477L115.491 33.1724L115.511 33.1898C118.556 35.7398 122.477 37.2778 126.75 37.2778C131.023 37.2778 134.944 35.7399 137.988 33.1898L138.009 33.1738L138.006 33.1463C137.712 30.6244 136.572 28.2624 134.763 26.4538C132.623 24.3138 129.776 23.1358 126.75 23.1358ZM126.75 2.22164C117.084 2.22164 109.222 10.0843 109.222 19.7497C109.222 24.1327 110.838 28.1453 113.507 31.2219L113.569 31.293L113.592 31.2016C114.218 28.6679 115.569 26.3592 117.514 24.5483C118.856 23.2974 120.417 22.3467 122.103 21.7321L122.195 21.6973L122.115 21.6436C119.914 20.1526 118.465 17.632 118.465 14.78C118.465 10.2126 122.182 6.49671 126.75 6.49671C131.317 6.49671 135.034 10.2126 135.034 14.78C135.034 17.6304 133.586 20.1509 131.387 21.6422L131.308 21.6958L131.399 21.7292L132.079 21.9975C133.648 22.6684 135.091 23.6402 136.334 24.8833C138.077 26.6257 139.312 28.8112 139.906 31.2031L139.927 31.2944L139.991 31.2234L140.478 30.6361C142.856 27.644 144.278 23.8598 144.278 19.7497C144.278 10.0843 136.415 2.22164 126.75 2.22164ZM126.75 8.71835C123.407 8.71835 120.687 11.437 120.687 14.78C120.687 17.9675 123.16 20.5879 126.289 20.8243L126.563 20.8446H126.75C130.093 20.8446 132.813 18.1232 132.813 14.78C132.812 11.437 130.092 8.71835 126.75 8.71835Z" fill="#232F6F"/>
</g>
<path d="M201.75 22C207.025 22 211.986 24.053 215.716 27.7832C219.446 31.5136 221.499 36.4743 221.499 41.7497C221.499 47.0251 219.446 51.9858 215.716 55.7162C211.986 59.4465 207.025 61.4994 201.75 61.4994C196.474 61.4994 191.514 59.4464 187.783 55.7162C184.053 51.9858 182 47.0251 182 41.7497C182 36.4743 184.053 31.5136 187.783 27.7832C191.514 24.0529 196.474 22 201.75 22ZM201.75 45.1358C196.008 45.1358 191.15 49.4974 190.494 55.1477L190.491 55.1724L190.511 55.1898C193.556 57.7398 197.477 59.2778 201.75 59.2778C206.023 59.2778 209.944 57.7399 212.988 55.1898L213.009 55.1738L213.006 55.1463C212.712 52.6244 211.572 50.2624 209.763 48.4538C207.623 46.3138 204.776 45.1358 201.75 45.1358ZM201.75 24.2216C192.084 24.2216 184.222 32.0843 184.222 41.7497C184.222 46.1327 185.838 50.1453 188.507 53.2219L188.569 53.293L188.592 53.2016C189.218 50.6679 190.569 48.3592 192.514 46.5483C193.856 45.2974 195.417 44.3467 197.103 43.7321L197.195 43.6973L197.115 43.6436C194.914 42.1526 193.465 39.632 193.465 36.78C193.465 32.2126 197.182 28.4967 201.75 28.4967C206.317 28.4967 210.034 32.2126 210.034 36.78C210.034 39.6304 208.586 42.1509 206.387 43.6422L206.308 43.6958L206.399 43.7292L207.079 43.9975C208.648 44.6684 210.091 45.6402 211.334 46.8833C213.077 48.6257 214.312 50.8112 214.906 53.2031L214.927 53.2944L214.991 53.2234L215.478 52.6361C217.856 49.644 219.278 45.8598 219.278 41.7497C219.278 32.0843 211.415 24.2216 201.75 24.2216ZM201.75 30.7184C198.407 30.7184 195.687 33.437 195.687 36.78C195.687 39.9675 198.16 42.5879 201.289 42.8243L201.563 42.8446H201.75C205.093 42.8446 207.813 40.1232 207.813 36.78C207.812 33.437 205.092 30.7184 201.75 30.7184Z" fill="#232F6F"/>
<path d="M313.75 148C308.474 148 303.514 150.053 299.783 153.783C296.053 157.514 294 162.474 294 167.75C294 173.025 296.053 177.986 299.783 181.716C303.514 185.446 308.474 187.499 313.75 187.499C319.025 187.499 323.986 185.446 327.716 181.716C331.446 177.986 333.499 173.025 333.499 167.75C333.499 162.474 331.446 157.514 327.716 153.783C323.986 150.053 319.025 148 313.75 148ZM313.75 171.136C319.491 171.136 324.349 175.497 325.006 181.148L325.009 181.172L324.988 181.19C321.944 183.74 318.023 185.278 313.75 185.278C309.477 185.278 305.556 183.74 302.511 181.19L302.491 181.174L302.494 181.146C302.787 178.624 303.928 176.262 305.736 174.454C307.877 172.314 310.724 171.136 313.75 171.136ZM313.75 150.222C323.415 150.222 331.278 158.084 331.278 167.75C331.278 172.133 329.661 176.145 326.993 179.222L326.93 179.293L326.907 179.202C326.281 176.668 324.93 174.359 322.986 172.548C321.643 171.297 320.082 170.347 318.396 169.732L318.305 169.697L318.384 169.644C320.585 168.153 322.034 165.632 322.034 162.78C322.034 158.213 318.317 154.497 313.75 154.497C309.182 154.497 305.465 158.213 305.465 162.78C305.465 165.63 306.913 168.151 309.112 169.642L309.192 169.696L309.1 169.729L308.42 169.997C306.851 170.668 305.409 171.64 304.166 172.883C302.423 174.626 301.188 176.811 300.594 179.203L300.572 179.294L300.508 179.223L300.021 178.636C297.643 175.644 296.222 171.86 296.222 167.75C296.222 158.084 304.084 150.222 313.75 150.222ZM313.75 156.718C317.092 156.718 319.812 159.437 319.813 162.78C319.813 165.967 317.339 168.588 314.211 168.824L313.937 168.845H313.75C310.407 168.845 307.687 166.123 307.687 162.78C307.687 159.437 310.407 156.718 313.75 156.718Z" fill="#232F6F"/>
<g opacity="0.3">
<path d="M375.75 148C370.474 148 365.514 150.053 361.783 153.783C358.053 157.514 356 162.474 356 167.75C356 173.025 358.053 177.986 361.783 181.716C365.514 185.446 370.474 187.499 375.75 187.499C381.025 187.499 385.986 185.446 389.716 181.716C393.446 177.986 395.499 173.025 395.499 167.75C395.499 162.474 393.446 157.514 389.716 153.783C385.986 150.053 381.025 148 375.75 148ZM375.75 171.136C381.491 171.136 386.349 175.497 387.006 181.148L387.009 181.172L386.988 181.19C383.944 183.74 380.023 185.278 375.75 185.278C371.477 185.278 367.556 183.74 364.511 181.19L364.491 181.174L364.494 181.146C364.787 178.624 365.928 176.262 367.736 174.454C369.877 172.314 372.724 171.136 375.75 171.136ZM375.75 150.222C385.415 150.222 393.278 158.084 393.278 167.75C393.278 172.133 391.661 176.145 388.993 179.222L388.93 179.293L388.907 179.202C388.281 176.668 386.93 174.359 384.986 172.548C383.643 171.297 382.082 170.347 380.396 169.732L380.305 169.697L380.384 169.644C382.585 168.153 384.034 165.632 384.034 162.78C384.034 158.213 380.317 154.497 375.75 154.497C371.182 154.497 367.465 158.213 367.465 162.78C367.465 165.63 368.913 168.151 371.112 169.642L371.192 169.696L371.1 169.729L370.42 169.997C368.851 170.668 367.409 171.64 366.166 172.883C364.423 174.626 363.188 176.811 362.594 179.203L362.572 179.294L362.508 179.223L362.021 178.636C359.643 175.644 358.222 171.86 358.222 167.75C358.222 158.084 366.084 150.222 375.75 150.222ZM375.75 156.718C379.092 156.718 381.812 159.437 381.813 162.78C381.813 165.967 379.339 168.588 376.211 168.824L375.937 168.845H375.75C372.407 168.845 369.687 166.123 369.687 162.78C369.687 159.437 372.407 156.718 375.75 156.718Z" fill="#232F6F"/>
</g>
<g opacity="0.3">
<path d="M375.75 87C370.474 87 365.514 89.053 361.783 92.7832C358.053 96.5136 356 101.474 356 106.75C356 112.025 358.053 116.986 361.783 120.716C365.514 124.446 370.474 126.499 375.75 126.499C381.025 126.499 385.986 124.446 389.716 120.716C393.446 116.986 395.499 112.025 395.499 106.75C395.499 101.474 393.446 96.5136 389.716 92.7832C385.986 89.0529 381.025 87 375.75 87ZM375.75 110.136C381.491 110.136 386.349 114.497 387.006 120.148L387.009 120.172L386.988 120.19C383.944 122.74 380.023 124.278 375.75 124.278C371.477 124.278 367.556 122.74 364.511 120.19L364.491 120.174L364.494 120.146C364.787 117.624 365.928 115.262 367.736 113.454C369.877 111.314 372.724 110.136 375.75 110.136ZM375.75 89.2216C385.415 89.2216 393.278 97.0843 393.278 106.75C393.278 111.133 391.661 115.145 388.993 118.222L388.93 118.293L388.907 118.202C388.281 115.668 386.93 113.359 384.986 111.548C383.643 110.297 382.082 109.347 380.396 108.732L380.305 108.697L380.384 108.644C382.585 107.153 384.034 104.632 384.034 101.78C384.034 97.2126 380.317 93.4967 375.75 93.4967C371.182 93.4967 367.465 97.2126 367.465 101.78C367.465 104.63 368.913 107.151 371.112 108.642L371.192 108.696L371.1 108.729L370.42 108.997C368.851 109.668 367.409 110.64 366.166 111.883C364.423 113.626 363.188 115.811 362.594 118.203L362.572 118.294L362.508 118.223L362.021 117.636C359.643 114.644 358.222 110.86 358.222 106.75C358.222 97.0843 366.084 89.2216 375.75 89.2216ZM375.75 95.7184C379.092 95.7184 381.812 98.437 381.813 101.78C381.813 104.967 379.339 107.588 376.211 107.824L375.937 107.845H375.75C372.407 107.845 369.687 105.123 369.687 101.78C369.687 98.437 372.407 95.7184 375.75 95.7184Z" fill="#232F6F"/>
</g>
<path d="M265.75 51C260.474 51 255.514 53.053 251.783 56.7832C248.053 60.5136 246 65.4743 246 70.7497C246 76.0251 248.053 80.9858 251.783 84.7162C255.514 88.4465 260.474 90.4994 265.75 90.4994C271.025 90.4994 275.986 88.4464 279.716 84.7162C283.446 80.9858 285.499 76.0251 285.499 70.7497C285.499 65.4743 283.446 60.5136 279.716 56.7832C275.986 53.0529 271.025 51 265.75 51ZM265.75 74.1358C271.491 74.1358 276.349 78.4974 277.006 84.1477L277.009 84.1724L276.988 84.1898C273.944 86.7398 270.023 88.2778 265.75 88.2778C261.477 88.2778 257.556 86.7399 254.511 84.1898L254.491 84.1738L254.494 84.1463C254.787 81.6244 255.928 79.2624 257.736 77.4538C259.877 75.3138 262.724 74.1358 265.75 74.1358ZM265.75 53.2216C275.415 53.2216 283.278 61.0843 283.278 70.7497C283.278 75.1327 281.661 79.1453 278.993 82.2219L278.93 82.293L278.907 82.2016C278.281 79.6679 276.93 77.3592 274.986 75.5483C273.643 74.2974 272.082 73.3467 270.396 72.7321L270.305 72.6973L270.384 72.6436C272.585 71.1526 274.034 68.632 274.034 65.78C274.034 61.2126 270.317 57.4967 265.75 57.4967C261.182 57.4967 257.465 61.2126 257.465 65.78C257.465 68.6304 258.913 71.1509 261.112 72.6422L261.192 72.6958L261.1 72.7292L260.42 72.9975C258.851 73.6684 257.409 74.6402 256.166 75.8833C254.423 77.6257 253.188 79.8112 252.594 82.2031L252.572 82.2944L252.508 82.2234L252.021 81.6361C249.643 78.644 248.222 74.8598 248.222 70.7497C248.222 61.0843 256.084 53.2216 265.75 53.2216ZM265.75 59.7184C269.092 59.7184 271.812 62.437 271.813 65.78C271.813 68.9675 269.339 71.5879 266.211 71.8243L265.937 71.8446H265.75C262.407 71.8446 259.687 69.1232 259.687 65.78C259.687 62.437 262.407 59.7184 265.75 59.7184Z" fill="#232F6F"/>
<g opacity="0.3">
<path d="M337.75 26C332.474 26 327.514 28.053 323.783 31.7832C320.053 35.5136 318 40.4743 318 45.7497C318 51.0251 320.053 55.9858 323.783 59.7162C327.514 63.4465 332.474 65.4994 337.75 65.4994C343.025 65.4994 347.986 63.4464 351.716 59.7162C355.446 55.9858 357.499 51.0251 357.499 45.7497C357.499 40.4743 355.446 35.5136 351.716 31.7832C347.986 28.0529 343.025 26 337.75 26ZM337.75 49.1358C343.491 49.1358 348.349 53.4974 349.006 59.1477L349.009 59.1724L348.988 59.1898C345.944 61.7398 342.023 63.2778 337.75 63.2778C333.477 63.2778 329.556 61.7399 326.511 59.1898L326.491 59.1738L326.494 59.1463C326.787 56.6244 327.928 54.2624 329.736 52.4538C331.877 50.3138 334.724 49.1358 337.75 49.1358ZM337.75 28.2216C347.415 28.2216 355.278 36.0843 355.278 45.7497C355.278 50.1327 353.661 54.1453 350.993 57.2219L350.93 57.293L350.907 57.2016C350.281 54.6679 348.93 52.3592 346.986 50.5483C345.643 49.2974 344.082 48.3467 342.396 47.7321L342.305 47.6973L342.384 47.6436C344.585 46.1526 346.034 43.632 346.034 40.78C346.034 36.2126 342.317 32.4967 337.75 32.4967C333.182 32.4967 329.465 36.2126 329.465 40.78C329.465 43.6304 330.913 46.1509 333.112 47.6422L333.192 47.6958L333.1 47.7292L332.42 47.9975C330.851 48.6684 329.409 49.6402 328.166 50.8833C326.423 52.6257 325.188 54.8112 324.594 57.2031L324.572 57.2944L324.508 57.2234L324.021 56.6361C321.643 53.644 320.222 49.8598 320.222 45.7497C320.222 36.0843 328.084 28.2216 337.75 28.2216ZM337.75 34.7184C341.092 34.7184 343.812 37.437 343.813 40.78C343.813 43.9675 341.339 46.5879 338.211 46.8243L337.937 46.8446H337.75C334.407 46.8446 331.687 44.1232 331.687 40.78C331.687 37.437 334.407 34.7184 337.75 34.7184Z" fill="#232F6F"/>
</g>
<g opacity="0.3">
<path d="M281.75 0C276.474 0 271.514 2.05302 267.783 5.78323C264.053 9.51361 262 14.4743 262 19.7497C262 25.0251 264.053 29.9858 267.783 33.7162C271.514 37.4465 276.474 39.4994 281.75 39.4994C287.025 39.4994 291.986 37.4464 295.716 33.7162C299.446 29.9858 301.499 25.0251 301.499 19.7497C301.499 14.4743 299.446 9.51361 295.716 5.78323C291.986 2.05294 287.025 1.49328e-07 281.75 0ZM281.75 23.1358C287.491 23.1358 292.349 27.4974 293.006 33.1477L293.009 33.1724L292.988 33.1898C289.944 35.7398 286.023 37.2778 281.75 37.2778C277.477 37.2778 273.556 35.7399 270.511 33.1898L270.491 33.1738L270.494 33.1463C270.787 30.6244 271.928 28.2624 273.736 26.4538C275.877 24.3138 278.724 23.1358 281.75 23.1358ZM281.75 2.22164C291.415 2.22164 299.278 10.0843 299.278 19.7497C299.278 24.1327 297.661 28.1453 294.993 31.2219L294.93 31.293L294.907 31.2016C294.281 28.6679 292.93 26.3592 290.986 24.5483C289.643 23.2974 288.082 22.3467 286.396 21.7321L286.305 21.6973L286.384 21.6436C288.585 20.1526 290.034 17.632 290.034 14.78C290.034 10.2126 286.317 6.49671 281.75 6.49671C277.182 6.49671 273.465 10.2126 273.465 14.78C273.465 17.6304 274.913 20.1509 277.112 21.6422L277.192 21.6958L277.1 21.7292L276.42 21.9975C274.851 22.6684 273.409 23.6402 272.166 24.8833C270.423 26.6257 269.188 28.8112 268.594 31.2031L268.572 31.2944L268.508 31.2234L268.021 30.6361C265.643 27.644 264.222 23.8598 264.222 19.7497C264.222 10.0843 272.084 2.22164 281.75 2.22164ZM281.75 8.71835C285.092 8.71835 287.812 11.437 287.813 14.78C287.813 17.9675 285.339 20.5879 282.211 20.8243L281.937 20.8446H281.75C278.407 20.8446 275.687 18.1232 275.687 14.78C275.687 11.437 278.407 8.71835 281.75 8.71835Z" fill="#232F6F"/>
</g>
<path d="M307.75 94C302.474 94 297.514 96.053 293.783 99.7832C290.053 103.514 288 108.474 288 113.75C288 119.025 290.053 123.986 293.783 127.716C297.514 131.446 302.474 133.499 307.75 133.499C313.025 133.499 317.986 131.446 321.716 127.716C325.446 123.986 327.499 119.025 327.499 113.75C327.499 108.474 325.446 103.514 321.716 99.7832C317.986 96.0529 313.025 94 307.75 94ZM307.75 117.136C313.491 117.136 318.349 121.497 319.006 127.148L319.009 127.172L318.988 127.19C315.944 129.74 312.023 131.278 307.75 131.278C303.477 131.278 299.556 129.74 296.511 127.19L296.491 127.174L296.494 127.146C296.787 124.624 297.928 122.262 299.736 120.454C301.877 118.314 304.724 117.136 307.75 117.136ZM307.75 96.2216C317.415 96.2216 325.278 104.084 325.278 113.75C325.278 118.133 323.661 122.145 320.993 125.222L320.93 125.293L320.907 125.202C320.281 122.668 318.93 120.359 316.986 118.548C315.643 117.297 314.082 116.347 312.396 115.732L312.305 115.697L312.384 115.644C314.585 114.153 316.034 111.632 316.034 108.78C316.034 104.213 312.317 100.497 307.75 100.497C303.182 100.497 299.465 104.213 299.465 108.78C299.465 111.63 300.913 114.151 303.112 115.642L303.192 115.696L303.1 115.729L302.42 115.997C300.851 116.668 299.409 117.64 298.166 118.883C296.423 120.626 295.188 122.811 294.594 125.203L294.572 125.294L294.508 125.223L294.021 124.636C291.643 121.644 290.222 117.86 290.222 113.75C290.222 104.084 298.084 96.2216 307.75 96.2216ZM307.75 102.718C311.092 102.718 313.812 105.437 313.813 108.78C313.813 111.967 311.339 114.588 308.211 114.824L307.937 114.845H307.75C304.407 114.845 301.687 112.123 301.687 108.78C301.687 105.437 304.407 102.718 307.75 102.718Z" fill="#232F6F"/>
</g>
<defs>
<filter id="filter0_f_4622_15763" x="98" y="47" width="209" height="209" filterUnits="userSpaceOnUse" color-interpolation-filters="sRGB">
<feFlood flood-opacity="0" result="BackgroundImageFix"/>
<feBlend mode="normal" in="SourceGraphic" in2="BackgroundImageFix" result="shape"/>
<feGaussianBlur stdDeviation="16" result="effect1_foregroundBlur_4622_15763"/>
</filter>
<filter id="filter1_f_4622_15763" x="145" y="96" width="114" height="114" filterUnits="userSpaceOnUse" color-interpolation-filters="sRGB">
<feFlood flood-opacity="0" result="BackgroundImageFix"/>
<feBlend mode="normal" in="SourceGraphic" in2="BackgroundImageFix" result="shape"/>
<feGaussianBlur stdDeviation="2" result="effect1_foregroundBlur_4622_15763"/>
</filter>
<filter id="filter2_f_4622_15763" x="154.638" y="109.5" width="94.725" height="87" filterUnits="userSpaceOnUse" color-interpolation-filters="sRGB">
<feFlood flood-opacity="0" result="BackgroundImageFix"/>
<feBlend mode="normal" in="SourceGraphic" in2="BackgroundImageFix" result="shape"/>
<feGaussianBlur stdDeviation="2" result="effect1_foregroundBlur_4622_15763"/>
</filter>
<linearGradient id="paint0_linear_4622_15763" x1="202.001" y1="121.486" x2="202.001" y2="183.006" gradientUnits="userSpaceOnUse">
<stop stop-color="#3FA1E3" stop-opacity="0.35"/>
<stop offset="0.605793" stop-color="#3FA1E3"/>
</linearGradient>
<clipPath id="clip0_4622_15763">
<rect width="404" height="180" fill="white"/>
</clipPath>
</defs>
</svg>
