<svg width="512" height="380" viewBox="0 0 512 380" fill="none" xmlns="http://www.w3.org/2000/svg">
<path opacity="0.2" fill-rule="evenodd" clip-rule="evenodd" d="M22.9412 47.0346C24.021 43.4534 28.0271 42.3721 30.8615 44.8129C35.8665 49.1227 41.7763 55.0458 44.362 54.9644C45.6351 54.9269 46.8195 49.2193 46.9393 48.1858C47.6005 42.4406 48.6126 33.4324 56.6108 34.5419C69.8246 36.382 82.0981 44.2423 94.9952 47.6444C119.419 54.0946 146.17 57.7225 171.233 60.8732C196.579 64.0475 217.273 57.8113 241.897 58.0124C256.395 58.1258 268.669 65.1559 282.507 68.2424C290.239 69.9691 298.006 67.7257 305.547 69.2513C313.906 70.9395 312.373 84.3705 320.688 88.1878C326.725 90.9715 333.387 91.0978 339.925 91.0101C341.247 90.9972 346.384 90.2547 347.501 92.0564C353.535 101.833 341.296 136.809 364.121 134.767C371.512 134.101 374.408 126.289 380.454 123.642C386.519 120.971 394.5 124.865 400.841 121.438C406.792 118.212 411.05 112.266 416.555 108.36C423.783 103.22 432.531 100.524 438.319 93.506C443.369 87.3832 444.917 79.0416 450.345 73.2098C455.315 67.868 462.105 64.9077 467.567 60.1821C476.956 52.0544 474.919 39.9479 481.028 30.3844C492.918 12.0246 501.509 32.3754 507.625 43.136C509.061 45.2394 512.653 48.6918 511.897 51.3879C508.747 62.601 496.602 67.8166 491.902 78.3119C488.79 85.2531 495.316 92.6373 492.381 99.83C488.879 108.398 480.522 112.367 475.896 119.913C471.929 126.376 475.765 133.205 473.193 139.668C469.667 148.537 460.986 153.754 458.081 163.531C453.712 178.235 473.745 190.166 467.276 205.599C461.543 219.283 443.718 228.013 434.476 239.265C431.921 242.364 427.185 247.944 426.739 252.166C423.128 277.738 463.411 307.5 456.585 331.495C456.417 332.086 456.145 332.654 455.768 333.138C451.565 338.536 445.734 336.087 442.142 331.742C432.678 320.314 425.054 307.299 415.311 295.909C403.578 282.215 389.238 288.173 373.652 286.17C365.756 285.163 358.914 280.161 350.573 282.329C340.841 284.86 339.101 300.912 330.01 306.09C304.486 317.004 282.449 295.803 269.94 335.12C267.424 344.506 267.543 356.902 253.958 357.092C249.384 357.167 244.442 350.906 242.02 347.667C233.819 336.744 230.801 322.823 222.034 311.949C212.456 300.055 202.567 314.531 191.734 308.786C179.075 302.083 176.232 284.382 162.441 275.852C149.645 267.939 135.541 280.173 121.886 278.612C108.728 277.111 97.9812 265.608 86.3272 260.192C75.9464 255.367 63.0321 255.405 53.3103 250.074C47.8273 247.064 44.5813 241.154 40.2869 236.821C33.4291 229.903 24.8414 225.47 19.9468 216.725C12.6771 203.747 14.6178 187.444 10.6101 173.396C6.97901 160.659 -1.09628 148.765 0.124427 135.057C1.90788 114.998 12.7755 97.3853 18.1879 78.298C21.0772 68.1166 19.9309 57.0183 22.9412 47.0346Z" fill="url(#paint0_radial_5025_3842)"/>
<g clip-path="url(#clip0_5025_3842)">
<path d="M123.824 149L115.529 190.54L123.806 232H130.803L122.516 190.54L130.821 149H123.824Z" fill="url(#paint1_linear_5025_3842)"/>
<path d="M108.157 149L86 190.54L108.119 232H115.747L93.6194 190.54L115.787 149H108.157Z" fill="url(#paint2_linear_5025_3842)"/>
<path d="M139.688 149L147.994 190.54L139.704 232H146.701L154.983 190.54L146.683 149H139.688Z" fill="url(#paint3_linear_5025_3842)"/>
<path d="M154.727 149L176.886 190.541L154.764 232H162.395L184.507 190.541L162.358 149H154.727Z" fill="url(#paint4_linear_5025_3842)"/>
<path d="M214.59 165.599H208.098V207.098H214.59V165.599ZM263.329 186.378C263.329 182.619 262.19 178.408 259.687 174.595C258.035 172.09 255.529 169.812 252.569 168.161C249.608 166.567 245.622 165.598 241.182 165.598H228.029V207.096H241.295C247.216 207.096 252.341 205.273 255.702 202.543C260.824 198.388 263.446 192.128 263.329 186.376M256.497 186.378C256.497 189.224 255.815 191.957 254.219 194.518C253.366 195.771 252.341 196.909 251.201 197.876C248.866 199.754 245.222 201.064 241.009 201.064H234.519V171.632H241.067C245.281 171.632 248.926 172.941 251.26 174.935C254.789 178.008 256.61 182.506 256.495 186.378M273.977 165.599V207.098H300.737V201.176H280.468V188.937H298.743V183.018H280.468V171.519H300.566V165.598H273.977V165.599ZM356.537 207.099V165.598H347.483L334.273 197.705H334.215L320.778 165.598H311.953V207.096H318.331V176.129H318.502L331.427 207.098H336.951L349.934 176.016H350.047V207.098H356.537V207.099ZM376.465 165.599H369.974V207.098H376.465V165.599ZM395.14 197.365H415.41L419.226 207.099H426L409.204 165.601H401.518L384.607 207.099H391.268L395.14 197.365ZM397.417 191.558L405.275 171.861L413.189 191.558H397.417Z" fill="url(#paint5_linear_5025_3842)"/>
<path d="M220.35 220.932C220.149 220.19 219.674 219.425 218.91 218.727C218.145 218.03 216.929 217.557 215.558 217.557C214.5 217.557 213.556 217.804 212.679 218.321C211.824 218.862 211.15 219.581 210.653 220.502C210.158 221.423 209.911 222.459 209.911 223.585C209.843 226.891 212.297 229.658 215.535 229.614C216.908 229.614 218.032 229.253 218.864 228.578C219.719 227.881 220.237 227.004 220.416 225.923H214.543V223.585H223.206V224.484C223.206 226.553 222.44 228.42 221.18 229.77C219.898 231.143 217.896 231.974 215.556 231.974C213.937 231.974 212.496 231.614 211.238 230.894C209.956 230.152 208.966 229.16 208.269 227.902C207.572 226.621 207.233 225.203 207.233 223.629C207.233 222.437 207.457 221.29 207.885 220.233C208.291 219.197 208.875 218.297 209.619 217.557C211.103 216.073 213.24 215.148 215.581 215.148C219.541 215.148 222.128 217.534 222.872 220.142L220.351 220.93H220.35V220.932Z" fill="url(#paint6_linear_5025_3842)"/>
<path d="M233.194 223.249C235.67 223.249 236.433 221.809 236.433 220.526C236.433 219.243 235.871 217.782 233.194 217.782H229.863V223.249H233.194ZM229.865 225.566V231.796H227.3V215.398H233.465C235.446 215.398 236.951 216.006 237.807 216.972C238.662 217.961 239.044 219.109 239.044 220.458C239.044 222.595 237.918 224.306 235.804 225.048L239.449 231.796H236.591L233.284 225.566H229.863H229.865Z" fill="url(#paint7_linear_5025_3842)"/>
<path d="M250.606 229.593C252.18 229.593 253.645 228.895 254.677 227.838C255.689 226.757 256.32 225.207 256.32 223.587C256.32 222.483 256.072 221.472 255.577 220.549C255.059 219.628 254.362 218.909 253.485 218.368C252.609 217.828 251.639 217.559 250.606 217.559C247.433 217.491 244.823 220.303 244.89 223.588C244.823 226.827 247.433 229.661 250.606 229.593ZM242.867 220.305C243.296 219.248 243.903 218.348 244.669 217.606C245.411 216.842 246.309 216.256 247.369 215.828C248.38 215.376 249.482 215.152 250.631 215.152C252.16 215.152 253.578 215.536 254.86 216.255C256.144 216.975 257.155 217.988 257.899 219.292C258.641 220.574 259.024 222.015 259.024 223.565C259.024 224.759 258.8 225.859 258.349 226.917C257.899 227.974 257.291 228.874 256.547 229.593C255.783 230.335 254.883 230.919 253.847 231.347C252.79 231.776 251.71 232 250.561 232C249.412 232 248.333 231.776 247.299 231.347C246.263 230.942 245.363 230.358 244.621 229.638C243.879 228.895 243.292 228.019 242.842 226.962C242.414 225.951 242.19 224.825 242.19 223.632C242.192 222.463 242.416 221.339 242.867 220.305Z" fill="url(#paint8_linear_5025_3842)"/>
<path d="M275.826 225.43C275.826 227.365 275.263 228.984 274.207 230.154C273.174 231.346 271.507 231.998 269.415 231.998C267.323 231.998 265.611 231.301 264.6 230.131C263.589 228.961 263.071 227.387 263.071 225.541V215.398H265.636V225.453C265.636 226.713 265.996 227.724 266.694 228.466C267.414 229.21 268.336 229.57 269.46 229.57C270.652 229.57 271.575 229.21 272.249 228.444C272.902 227.702 273.239 226.733 273.239 225.543V215.398H275.826V225.43Z" fill="url(#paint9_linear_5025_3842)"/>
<path d="M286.51 217.784H283.496V223.361H286.51C287.702 223.361 288.624 223.001 289.12 222.44C289.615 221.877 289.862 221.248 289.862 220.551C289.862 219.313 289.21 217.784 286.51 217.784ZM290.943 224.172C289.954 225.138 288.355 225.724 286.42 225.724H283.496V231.798H280.931V215.398H286.737C289.19 215.398 290.787 216.298 291.642 217.603C292.227 218.503 292.474 219.449 292.474 220.505C292.472 221.921 291.933 223.202 290.943 224.17" fill="url(#paint10_linear_5025_3842)"/>
</g>
<defs>
<radialGradient id="paint0_radial_5025_3842" cx="0" cy="0" r="1" gradientUnits="userSpaceOnUse" gradientTransform="translate(256 190.047) rotate(90) scale(167.047 227.155)">
<stop stop-color="#D252B5" stop-opacity="0"/>
<stop offset="1" stop-color="#D252B5"/>
</radialGradient>
<linearGradient id="paint1_linear_5025_3842" x1="123.175" y1="149" x2="123.175" y2="232" gradientUnits="userSpaceOnUse">
<stop stop-color="#D252B5" stop-opacity="0.35"/>
<stop offset="0.605793" stop-color="#D252B5"/>
</linearGradient>
<linearGradient id="paint2_linear_5025_3842" x1="100.893" y1="149" x2="100.893" y2="232" gradientUnits="userSpaceOnUse">
<stop stop-color="#D252B5" stop-opacity="0.35"/>
<stop offset="0.605793" stop-color="#D252B5"/>
</linearGradient>
<linearGradient id="paint3_linear_5025_3842" x1="147.335" y1="149" x2="147.335" y2="232" gradientUnits="userSpaceOnUse">
<stop stop-color="#D252B5" stop-opacity="0.35"/>
<stop offset="0.605793" stop-color="#D252B5"/>
</linearGradient>
<linearGradient id="paint4_linear_5025_3842" x1="169.617" y1="149" x2="169.617" y2="232" gradientUnits="userSpaceOnUse">
<stop stop-color="#D252B5" stop-opacity="0.35"/>
<stop offset="0.605793" stop-color="#D252B5"/>
</linearGradient>
<linearGradient id="paint5_linear_5025_3842" x1="317.049" y1="165.598" x2="317.049" y2="207.099" gradientUnits="userSpaceOnUse">
<stop stop-color="#D252B5" stop-opacity="0.35"/>
<stop offset="0.605793" stop-color="#D252B5"/>
</linearGradient>
<linearGradient id="paint6_linear_5025_3842" x1="215.219" y1="215.148" x2="215.219" y2="231.974" gradientUnits="userSpaceOnUse">
<stop stop-color="#D252B5" stop-opacity="0.35"/>
<stop offset="0.605793" stop-color="#D252B5"/>
</linearGradient>
<linearGradient id="paint7_linear_5025_3842" x1="233.374" y1="215.398" x2="233.374" y2="231.796" gradientUnits="userSpaceOnUse">
<stop stop-color="#D252B5" stop-opacity="0.35"/>
<stop offset="0.605793" stop-color="#D252B5"/>
</linearGradient>
<linearGradient id="paint8_linear_5025_3842" x1="250.607" y1="215.152" x2="250.607" y2="232" gradientUnits="userSpaceOnUse">
<stop stop-color="#D252B5" stop-opacity="0.35"/>
<stop offset="0.605793" stop-color="#D252B5"/>
</linearGradient>
<linearGradient id="paint9_linear_5025_3842" x1="269.449" y1="215.398" x2="269.449" y2="231.998" gradientUnits="userSpaceOnUse">
<stop stop-color="#D252B5" stop-opacity="0.35"/>
<stop offset="0.605793" stop-color="#D252B5"/>
</linearGradient>
<linearGradient id="paint10_linear_5025_3842" x1="286.703" y1="215.398" x2="286.703" y2="231.798" gradientUnits="userSpaceOnUse">
<stop stop-color="#D252B5" stop-opacity="0.35"/>
<stop offset="0.605793" stop-color="#D252B5"/>
</linearGradient>
<clipPath id="clip0_5025_3842">
<rect width="340" height="83" fill="white" transform="translate(86 149)"/>
</clipPath>
</defs>
</svg>
