<svg width="404" height="180" viewBox="0 0 404 180" fill="none" xmlns="http://www.w3.org/2000/svg">
<g clip-path="url(#clip0_4950_2542)">
<rect x="2" y="8" width="400" height="215" rx="32" stroke="url(#paint0_linear_4950_2542)"/>
<g clip-path="url(#clip1_4950_2542)">
<path d="M74 46C82.5489 46 90.5831 49.3269 96.6282 55.3718C102.673 61.4169 106 69.4511 106 78C106 86.5489 102.673 94.5831 96.6282 100.628C90.5831 106.673 82.5489 110 74 110C65.4511 110 57.4169 106.673 51.3718 100.628C45.3268 94.5831 42 86.5489 42 78C42 69.4511 45.3269 61.4169 51.3718 55.3718C57.4169 49.3268 65.4511 46 74 46ZM74 82.8734C64.1071 82.8734 55.7408 90.386 54.609 100.123L54.5577 100.563L54.8974 100.846C60.0721 105.18 66.7363 107.795 74 107.795C81.2638 107.795 87.9296 105.18 93.1042 100.846L93.4423 100.563L93.391 100.122C92.8853 95.7759 90.9211 91.7069 87.8061 88.5913C84.1193 84.9052 79.2123 82.8734 74 82.8734ZM74 48.2051C57.5703 48.2051 44.2051 61.5703 44.2051 78C44.2051 85.4505 46.955 92.2714 51.4904 97.5L52.5272 98.6955L52.9071 97.1603C53.9105 93.0993 56.0753 89.3978 59.1939 86.4936C61.3472 84.4876 63.8484 82.9642 66.5513 81.9792L68.0593 81.4295L66.7308 80.5288C63.2763 78.1884 61.0064 74.2345 61.0064 69.7628C61.0067 62.599 66.8361 56.7692 74 56.7692C81.1639 56.7692 86.9933 62.599 86.9936 69.7628C86.9936 74.232 84.7257 78.1849 81.274 80.5256L79.9455 81.4263L81.4535 81.9744C84.3902 83.0444 87.0845 84.7528 89.3638 87.0321C92.1581 89.8256 94.1391 93.3287 95.0913 97.1635L95.4712 98.6971L96.5064 97.5032C101.043 92.2745 103.795 85.4521 103.795 78C103.795 61.5703 90.4297 48.2051 74 48.2051ZM74 58.9744C68.0509 58.9744 63.2118 63.8131 63.2115 69.7628C63.2115 75.4362 67.6121 80.0969 73.1795 80.5176V80.5529H74C79.9494 80.5529 84.7885 75.7123 84.7885 69.7628C84.7882 63.8131 79.9491 58.9744 74 58.9744Z" fill="#232F6F"/>
<circle opacity="0.1" cx="179.823" cy="175.824" r="84" fill="white"/>
</g>
<rect x="165.5" y="44.5" width="87" height="87" rx="29.5" stroke="#232F6F"/>
<rect x="261.5" y="44.5" width="87" height="87" rx="29.5" stroke="#232F6F"/>
<rect opacity="0.2" x="170" y="49" width="78" height="78" rx="25" fill="url(#paint1_radial_4950_2542)"/>
<rect opacity="0.2" x="266" y="49" width="78" height="78" rx="25" fill="url(#paint2_radial_4950_2542)"/>
<path d="M207.738 105C207.288 105 206.846 104.884 206.453 104.664L201.359 101.835C198.827 100.427 196.716 98.3674 195.247 95.87C193.777 93.3726 193.001 90.5278 193 87.6301V79.7758C193 79.1222 193.242 78.4918 193.68 78.0065C194.118 77.5212 194.72 77.2155 195.37 77.1486C197.397 76.9338 199.392 76.4828 201.314 75.8048C203.076 75.1818 204.767 74.372 206.357 73.3892C206.772 73.1347 207.251 73 207.738 73C208.226 73 208.704 73.1347 209.12 73.3892C210.71 74.3717 212.4 75.1815 214.163 75.8048C216.085 76.4828 218.079 76.9338 220.106 77.1486C220.756 77.2155 221.359 77.5212 221.796 78.0065C222.234 78.4918 222.476 79.1222 222.476 79.7758V87.6301C222.475 90.5278 221.7 93.3726 220.23 95.87C218.76 98.3674 216.65 100.427 214.117 101.835L209.023 104.666C208.63 104.885 208.188 105 207.738 105ZM207.738 75.2666C207.672 75.266 207.606 75.2838 207.549 75.318C205.821 76.3859 203.984 77.2661 202.07 77.9437C199.981 78.6809 197.813 79.171 195.611 79.4039C195.517 79.4119 195.43 79.4546 195.366 79.5238C195.303 79.5929 195.267 79.6834 195.267 79.7773V87.6316C195.268 90.125 195.935 92.5729 197.2 94.7219C198.464 96.8709 200.28 98.6429 202.46 99.8545L207.554 102.684C207.61 102.716 207.673 102.732 207.737 102.732C207.801 102.732 207.864 102.716 207.92 102.684L213.017 99.8545C215.196 98.6429 217.012 96.8709 218.276 94.7219C219.541 92.5729 220.208 90.125 220.209 87.6316V79.7758C220.209 79.6819 220.174 79.5914 220.11 79.5223C220.047 79.4531 219.959 79.4103 219.866 79.4024C217.663 79.1694 215.495 78.6794 213.407 77.9422C211.492 77.2656 209.655 76.3864 207.927 75.3195C207.87 75.2845 207.805 75.2662 207.738 75.2666Z" fill="#3FA1E3"/>
<path d="M206.982 92.367C206.704 92.3673 206.436 92.265 206.229 92.0798L202.828 89.0566C202.617 88.8534 202.493 88.5765 202.482 88.2839C202.471 87.9913 202.573 87.7056 202.768 87.4868C202.962 87.268 203.234 87.1329 203.526 87.11C203.818 87.087 204.107 87.1779 204.334 87.3636L206.91 89.6522L211.824 84.4114C211.925 84.3003 212.047 84.2104 212.184 84.147C212.32 84.0835 212.467 84.0478 212.617 84.0419C212.768 84.036 212.918 84.06 213.058 84.1125C213.199 84.165 213.328 84.245 213.438 84.3478C213.547 84.4506 213.635 84.5742 213.697 84.7113C213.758 84.8485 213.792 84.9965 213.796 85.1467C213.799 85.297 213.773 85.4464 213.718 85.5865C213.664 85.7265 213.582 85.8543 213.478 85.9624L207.809 92.0088C207.703 92.1221 207.575 92.2123 207.433 92.274C207.291 92.3356 207.137 92.3673 206.982 92.367Z" fill="#3FA1E3"/>
<path d="M302.828 76.114C306.98 71.962 313.734 71.962 317.886 76.114C321.908 80.1362 322.034 86.5997 318.263 90.7745L317.886 91.1716C315.181 93.8785 311.325 94.8278 307.703 93.8603L305.835 95.7059C305.493 96.0445 305.032 96.2352 304.55 96.2353H303.879V96.9375L303.868 97.1299C303.847 97.3205 303.797 97.507 303.718 97.6826C303.613 97.9169 303.46 98.1268 303.268 98.2978L303.266 98.3003C302.892 98.6318 302.378 98.8142 301.844 98.7476L301.458 98.7034L301.374 99.6029C301.334 100.026 301.148 100.422 300.848 100.722C300.548 101.022 300.152 101.207 299.729 101.246L298.828 101.332L298.874 101.718C298.905 101.991 298.876 102.268 298.786 102.527C298.695 102.786 298.547 103.023 298.353 103.217L297.104 104.466C296.763 104.807 296.299 105 295.815 105H290.824C289.816 105 289 104.184 289 103.176V98.1851C289 97.9455 289.047 97.7079 289.138 97.4865L289.216 97.3248C289.3 97.1669 289.407 97.0216 289.534 96.8946L300.071 86.3566C299.111 82.7209 300.131 78.811 302.828 76.114ZM316.555 77.4449C313.138 74.028 307.576 74.028 304.159 77.4449C301.826 79.7781 301.015 83.2185 302.026 86.3407L302.203 86.8885L301.795 87.2954L290.882 98.2083V103.118H295.79L297 101.906L296.739 99.6385L299.504 99.3775L299.675 97.5686L299.765 96.6115L300.721 96.723L301.996 96.8701V94.353H304.524L307.183 91.7316L307.727 91.9069C310.858 92.922 314.229 92.168 316.555 89.8407C319.972 86.4239 319.972 80.8618 316.555 77.4449ZM310.316 78.6103C311.716 77.2108 313.99 77.2106 315.39 78.6103C316.789 80.0101 316.789 82.284 315.39 83.6839C313.99 85.0837 311.716 85.0837 310.316 83.6839C308.916 82.284 308.916 80.0102 310.316 78.6103ZM314.059 79.9412C313.394 79.2766 312.312 79.2767 311.647 79.9412C310.982 80.6059 310.982 81.6882 311.647 82.353C312.312 83.0177 313.394 83.0177 314.059 82.353C314.723 81.6882 314.723 80.6058 314.059 79.9412Z" fill="#3FA1E3"/>
<rect x="166.5" y="139.5" width="87" height="87" rx="29.5" stroke="#232F6F"/>
<rect opacity="0.2" x="171" y="144" width="78" height="78" rx="25" fill="url(#paint3_radial_4950_2542)"/>
<path fill-rule="evenodd" clip-rule="evenodd" d="M208.994 196.298H196.269C196.19 196.298 196.114 196.267 196.058 196.211C196.002 196.155 195.971 196.08 195.971 196.001V193.841C195.971 192.606 196.854 191.516 198.214 190.591C200.643 188.932 204.574 187.888 208.994 187.888C209.29 187.888 209.574 187.77 209.784 187.561C209.993 187.351 210.111 187.067 210.111 186.771C210.111 186.475 209.993 186.191 209.784 185.982C209.574 185.773 209.29 185.655 208.994 185.655C204.05 185.655 199.673 186.892 196.955 188.745C194.882 190.159 193.739 191.955 193.739 193.841V196.001C193.739 196.672 194.005 197.315 194.48 197.79C194.954 198.264 195.598 198.531 196.269 198.531H208.994C209.29 198.531 209.574 198.413 209.784 198.204C209.993 197.995 210.111 197.711 210.111 197.415C210.111 197.119 209.993 196.835 209.784 196.625C209.574 196.416 209.29 196.298 208.994 196.298ZM208.994 168C204.476 168 200.808 171.667 200.808 176.186C200.808 180.705 204.476 184.372 208.994 184.372C213.513 184.372 217.18 180.705 217.18 176.186C217.18 171.667 213.513 168 208.994 168ZM208.994 170.233C212.281 170.233 214.948 172.9 214.948 176.186C214.948 179.472 212.281 182.14 208.994 182.14C205.708 182.14 203.041 179.472 203.041 176.186C203.041 172.9 205.708 170.233 208.994 170.233ZM217.925 186.884C216.545 186.925 215.235 187.501 214.274 188.491C213.312 189.481 212.774 190.807 212.774 192.187C212.774 193.567 213.312 194.893 214.274 195.883C215.235 196.873 216.545 197.449 217.925 197.489C220.851 197.489 223.228 195.112 223.228 192.186C223.228 189.26 220.851 186.884 217.925 186.884ZM217.925 189.117C219.618 189.117 220.995 190.492 220.995 192.186C220.995 193.88 219.618 195.257 217.925 195.257C216.231 195.257 214.854 193.88 214.854 192.186C214.854 190.492 216.231 189.117 217.925 189.117Z" fill="#3FA1E3"/>
</g>
<defs>
<linearGradient id="paint0_linear_4950_2542" x1="202" y1="8" x2="202" y2="223" gradientUnits="userSpaceOnUse">
<stop stop-color="#3FA1E3"/>
<stop offset="1" stop-color="#3FA1E3" stop-opacity="0.35"/>
</linearGradient>
<radialGradient id="paint1_radial_4950_2542" cx="0" cy="0" r="1" gradientUnits="userSpaceOnUse" gradientTransform="translate(209 88) rotate(90) scale(39)">
<stop offset="0.480792" stop-color="#232F6F" stop-opacity="0"/>
<stop offset="1" stop-color="#232F6F"/>
</radialGradient>
<radialGradient id="paint2_radial_4950_2542" cx="0" cy="0" r="1" gradientUnits="userSpaceOnUse" gradientTransform="translate(305 88) rotate(90) scale(39)">
<stop offset="0.480792" stop-color="#232F6F" stop-opacity="0"/>
<stop offset="1" stop-color="#232F6F"/>
</radialGradient>
<radialGradient id="paint3_radial_4950_2542" cx="0" cy="0" r="1" gradientUnits="userSpaceOnUse" gradientTransform="translate(210 183) rotate(90) scale(39)">
<stop offset="0.480792" stop-color="#232F6F" stop-opacity="0"/>
<stop offset="1" stop-color="#232F6F"/>
</radialGradient>
<clipPath id="clip0_4950_2542">
<rect width="404" height="180" fill="white"/>
</clipPath>
<clipPath id="clip1_4950_2542">
<rect width="64" height="64" fill="white" transform="translate(42 46)"/>
</clipPath>
</defs>
</svg>
