<svg width="404" height="180" viewBox="0 0 404 180" fill="none" xmlns="http://www.w3.org/2000/svg">
<g clip-path="url(#clip0_5026_4277)">
<g opacity="0.1" clip-path="url(#clip1_5026_4277)">
<path d="M23.8405 6.72656C28.8737 6.72656 33.604 8.68535 37.1631 12.2443C40.7222 15.8035 42.6809 20.5337 42.6809 25.567C42.6809 30.6003 40.7221 35.3305 37.1631 38.8897C33.604 42.4487 28.8737 44.4075 23.8405 44.4075C18.8072 44.4075 14.0769 42.4487 10.5178 38.8897C6.95871 35.3305 5 30.6003 5 25.567C5 20.5337 6.95879 15.8035 10.5178 12.2443C14.0769 8.68528 18.8072 6.72656 23.8405 6.72656ZM23.8405 28.4363C18.0159 28.4363 13.0901 32.8594 12.4237 38.5925L12.3935 38.851L12.5935 39.018C15.6402 41.5696 19.5638 43.1092 23.8405 43.1092C28.1171 43.1092 32.0417 41.5696 35.0883 39.018L35.2874 38.851L35.2572 38.5915C34.9594 36.0328 33.803 33.6372 31.969 31.8028C29.7983 29.6326 26.9093 28.4363 23.8405 28.4363ZM23.8405 8.02486C14.1672 8.02486 6.2983 15.8938 6.2983 25.567C6.2983 29.9536 7.91734 33.9695 10.5876 37.0479L11.1981 37.7518L11.4217 36.8479C12.0125 34.4569 13.287 32.2776 15.1232 30.5677C16.3909 29.3867 17.8635 28.4898 19.4549 27.9098L20.3428 27.5862L19.5606 27.0559C17.5267 25.678 16.1903 23.35 16.1903 20.7173C16.1905 16.4995 19.6226 13.0671 23.8405 13.0671C28.0583 13.0671 31.4904 16.4995 31.4906 20.7173C31.4906 23.3486 30.1554 25.6759 28.1231 27.054L27.341 27.5843L28.2288 27.907C29.9578 28.537 31.5441 29.5428 32.8861 30.8848C34.5313 32.5295 35.6976 34.592 36.2583 36.8498L36.4819 37.7527L37.0914 37.0498C39.7627 33.9713 41.3826 29.9546 41.3826 25.567C41.3826 15.8938 33.5137 8.02486 23.8405 8.02486ZM23.8405 14.3654C20.3378 14.3654 17.4888 17.2143 17.4886 20.7173C17.4886 24.0575 20.0795 26.8016 23.3574 27.0493V27.0701H23.8405C27.3433 27.0701 30.1923 24.2201 30.1923 20.7173C30.1921 17.2143 27.3431 14.3654 23.8405 14.3654Z" fill="#D252B5"/>
</g>
<g opacity="0.4" clip-path="url(#clip2_5026_4277)">
<path d="M89.7819 6.72656C94.8151 6.72656 99.5454 8.68535 103.105 12.2443C106.664 15.8035 108.622 20.5337 108.622 25.567C108.622 30.6003 106.664 35.3305 103.105 38.8897C99.5454 42.4487 94.8152 44.4075 89.7819 44.4075C84.7486 44.4075 80.0183 42.4487 76.4592 38.8897C72.9001 35.3305 70.9414 30.6003 70.9414 25.567C70.9414 20.5337 72.9002 15.8035 76.4592 12.2443C80.0183 8.68528 84.7486 6.72656 89.7819 6.72656ZM89.7819 28.4363C83.9573 28.4363 79.0315 32.8594 78.3651 38.5925L78.3349 38.851L78.535 39.018C81.5816 41.5696 85.5052 43.1092 89.7819 43.1092C94.0585 43.1092 97.9831 41.5696 101.03 39.018L101.229 38.851L101.199 38.5915C100.901 36.0328 99.7444 33.6372 97.9104 31.8028C95.7397 29.6326 92.8507 28.4363 89.7819 28.4363ZM89.7819 8.02486C80.1086 8.02486 72.2397 15.8938 72.2397 25.567C72.2397 29.9536 73.8587 33.9695 76.529 37.0479L77.1395 37.7518L77.3631 36.8479C77.9539 34.4569 79.2284 32.2776 81.0646 30.5677C82.3324 29.3867 83.8049 28.4898 85.3963 27.9098L86.2842 27.5862L85.502 27.0559C83.4682 25.678 82.1317 23.35 82.1317 20.7173C82.1319 16.4995 85.564 13.0671 89.7819 13.0671C93.9997 13.0671 97.4319 16.4995 97.432 20.7173C97.432 23.3486 96.0968 25.6759 94.0645 27.054L93.2824 27.5843L94.1702 27.907C95.8992 28.537 97.4855 29.5428 98.8275 30.8848C100.473 32.5295 101.639 34.592 102.2 36.8498L102.423 37.7527L103.033 37.0498C105.704 33.9713 107.324 29.9546 107.324 25.567C107.324 15.8938 99.4551 8.02486 89.7819 8.02486ZM89.7819 14.3654C86.2792 14.3654 83.4302 17.2143 83.43 20.7173C83.43 24.0575 86.0209 26.8016 89.2988 27.0493V27.0701H89.7819C93.2847 27.0701 96.1337 24.2201 96.1337 20.7173C96.1336 17.2143 93.2845 14.3654 89.7819 14.3654Z" fill="#D252B5"/>
</g>
<g opacity="0.1" clip-path="url(#clip3_5026_4277)">
<path d="M23.8405 77.377C28.8737 77.377 33.604 79.3357 37.1631 82.8947C40.7222 86.4539 42.6809 91.1841 42.6809 96.2174C42.6809 101.251 40.7221 105.981 37.1631 109.54C33.604 113.099 28.8737 115.058 23.8405 115.058C18.8072 115.058 14.0769 113.099 10.5178 109.54C6.95871 105.981 5 101.251 5 96.2174C5 91.1841 6.95879 86.4539 10.5178 82.8947C14.0769 79.3357 18.8072 77.377 23.8405 77.377ZM23.8405 99.0867C18.0159 99.0867 13.0901 103.51 12.4237 109.243L12.3935 109.501L12.5935 109.668C15.6402 112.22 19.5638 113.76 23.8405 113.76C28.1171 113.76 32.0417 112.22 35.0883 109.668L35.2874 109.501L35.2572 109.242C34.9594 106.683 33.803 104.288 31.969 102.453C29.7983 100.283 26.9093 99.0867 23.8405 99.0867ZM23.8405 78.6753C14.1672 78.6753 6.2983 86.5442 6.2983 96.2174C6.2983 100.604 7.91734 104.62 10.5876 107.698L11.1981 108.402L11.4217 107.498C12.0125 105.107 13.287 102.928 15.1232 101.218C16.3909 100.037 17.8635 99.1402 19.4549 98.5602L20.3428 98.2366L19.5606 97.7063C17.5267 96.3283 16.1903 94.0004 16.1903 91.3676C16.1905 87.1499 19.6226 83.7175 23.8405 83.7175C28.0583 83.7175 31.4904 87.1499 31.4906 91.3676C31.4906 93.999 30.1554 96.3262 28.1231 97.7044L27.341 98.2347L28.2288 98.5574C29.9578 99.1874 31.5441 100.193 32.8861 101.535C34.5313 103.18 35.6976 105.242 36.2583 107.5L36.4819 108.403L37.0914 107.7C39.7627 104.622 41.3826 100.605 41.3826 96.2174C41.3826 86.5442 33.5137 78.6753 23.8405 78.6753ZM23.8405 85.0158C20.3378 85.0158 17.4888 87.8646 17.4886 91.3676C17.4886 94.7079 20.0795 97.452 23.3574 97.6997V97.7204H23.8405C27.3433 97.7204 30.1923 94.8705 30.1923 91.3676C30.1921 87.8646 27.3431 85.0158 23.8405 85.0158Z" fill="#D252B5"/>
</g>
<g opacity="0.2" clip-path="url(#clip4_5026_4277)">
<path d="M55.6339 42.0508C60.6672 42.0508 65.3974 44.0096 68.9566 47.5686C72.5156 51.1277 74.4744 55.8579 74.4744 60.8912C74.4744 65.9245 72.5156 70.6548 68.9566 74.2139C65.3974 77.773 60.6672 79.7317 55.6339 79.7317C50.6006 79.7317 45.8704 77.7729 42.3112 74.2139C38.7522 70.6548 36.7935 65.9245 36.7935 60.8912C36.7935 55.8579 38.7522 51.1277 42.3112 47.5686C45.8704 44.0095 50.6006 42.0508 55.6339 42.0508ZM55.6339 63.7605C49.8093 63.7605 44.8835 68.1836 44.2172 73.9167L44.187 74.1752L44.387 74.3422C47.4337 76.8938 51.3573 78.4334 55.6339 78.4334C59.9106 78.4334 63.8352 76.8938 66.8818 74.3422L67.0808 74.1752L67.0506 73.9157C66.7529 71.3571 65.5964 68.9614 63.7624 67.127C61.5918 64.9568 58.7027 63.7605 55.6339 63.7605ZM55.6339 43.3491C45.9607 43.3491 38.0918 51.218 38.0918 60.8912C38.0918 65.2778 39.7108 69.2937 42.3811 72.3721L42.9915 73.076L43.2151 72.1721C43.8059 69.7811 45.0805 67.6018 46.9166 65.892C48.1844 64.7109 49.657 63.814 51.2484 63.234L52.1362 62.9104L51.354 62.3801C49.3202 61.0022 47.9837 58.6742 47.9837 56.0415C47.9839 51.8237 51.4161 48.3913 55.6339 48.3913C59.8517 48.3913 63.2839 51.8237 63.2841 56.0415C63.2841 58.6728 61.9488 61.0001 59.9166 62.3782L59.1344 62.9085L60.0223 63.2312C61.7513 63.8612 63.3376 64.867 64.6795 66.209C66.3247 67.8537 67.4911 69.9162 68.0517 72.174L68.2754 73.0769L68.8849 72.374C71.5561 69.2956 73.1761 65.2788 73.1761 60.8912C73.1761 51.218 65.3071 43.3491 55.6339 43.3491ZM55.6339 49.6896C52.1313 49.6896 49.2822 52.5385 49.282 56.0415C49.282 59.3817 51.8729 62.1258 55.1508 62.3735V62.3943H55.6339C59.1367 62.3943 61.9858 59.5443 61.9858 56.0415C61.9856 52.5385 59.1365 49.6896 55.6339 49.6896Z" fill="#D252B5"/>
</g>
<g opacity="0.6" clip-path="url(#clip5_5026_4277)">
<path d="M121.575 42.0508C126.609 42.0508 131.339 44.0096 134.898 47.5686C138.457 51.1277 140.416 55.8579 140.416 60.8912C140.416 65.9245 138.457 70.6548 134.898 74.2139C131.339 77.773 126.609 79.7317 121.575 79.7317C116.542 79.7317 111.812 77.7729 108.253 74.2139C104.694 70.6548 102.735 65.9245 102.735 60.8912C102.735 55.8579 104.694 51.1277 108.253 47.5686C111.812 44.0095 116.542 42.0508 121.575 42.0508ZM121.575 63.7605C115.751 63.7605 110.825 68.1836 110.159 73.9167L110.128 74.1752L110.328 74.3422C113.375 76.8938 117.299 78.4334 121.575 78.4334C125.852 78.4334 129.777 76.8938 132.823 74.3422L133.022 74.1752L132.992 73.9157C132.694 71.3571 131.538 68.9614 129.704 67.127C127.533 64.9568 124.644 63.7605 121.575 63.7605ZM121.575 43.3491C111.902 43.3491 104.033 51.218 104.033 60.8912C104.033 65.2778 105.652 69.2937 108.322 72.3721L108.933 73.076L109.157 72.1721C109.747 69.7811 111.022 67.6018 112.858 65.892C114.126 64.7109 115.598 63.814 117.19 63.234L118.078 62.9104L117.295 62.3801C115.262 61.0022 113.925 58.6742 113.925 56.0415C113.925 51.8237 117.357 48.3913 121.575 48.3913C125.793 48.3913 129.225 51.8237 129.225 56.0415C129.225 58.6728 127.89 61.0001 125.858 62.3782L125.076 62.9085L125.964 63.2312C127.693 63.8612 129.279 64.867 130.621 66.209C132.266 67.8537 133.432 69.9162 133.993 72.174L134.217 73.0769L134.826 72.374C137.498 69.2956 139.117 65.2788 139.117 60.8912C139.117 51.218 131.249 43.3491 121.575 43.3491ZM121.575 49.6896C118.073 49.6896 115.224 52.5385 115.223 56.0415C115.223 59.3817 117.814 62.1258 121.092 62.3735V62.3943H121.575C125.078 62.3943 127.927 59.5443 127.927 56.0415C127.927 52.5385 125.078 49.6896 121.575 49.6896Z" fill="#D252B5"/>
</g>
<g opacity="0.2" clip-path="url(#clip6_5026_4277)">
<path d="M55.6339 107.994C60.6672 107.994 65.3974 109.953 68.9566 113.512C72.5156 117.071 74.4744 121.801 74.4744 126.835C74.4744 131.868 72.5156 136.598 68.9566 140.157C65.3974 143.716 60.6672 145.675 55.6339 145.675C50.6006 145.675 45.8704 143.716 42.3112 140.157C38.7522 136.598 36.7935 131.868 36.7935 126.835C36.7935 121.801 38.7522 117.071 42.3112 113.512C45.8704 109.953 50.6006 107.994 55.6339 107.994ZM55.6339 129.704C49.8093 129.704 44.8835 134.127 44.2172 139.86L44.187 140.119L44.387 140.286C47.4337 142.837 51.3573 144.377 55.6339 144.377C59.9106 144.377 63.8352 142.837 66.8818 140.286L67.0808 140.119L67.0506 139.859C66.7529 137.3 65.5964 134.905 63.7624 133.07C61.5918 130.9 58.7027 129.704 55.6339 129.704ZM55.6339 109.292C45.9607 109.292 38.0918 117.161 38.0918 126.835C38.0918 131.221 39.7108 135.237 42.3811 138.315L42.9915 139.019L43.2151 138.115C43.8059 135.724 45.0805 133.545 46.9166 131.835C48.1844 130.654 49.657 129.757 51.2484 129.177L52.1362 128.854L51.354 128.323C49.3202 126.946 47.9837 124.618 47.9837 121.985C47.9839 117.767 51.4161 114.335 55.6339 114.335C59.8517 114.335 63.2839 117.767 63.2841 121.985C63.2841 124.616 61.9488 126.943 59.9166 128.322L59.1344 128.852L60.0223 129.175C61.7513 129.805 63.3376 130.81 64.6795 132.152C66.3247 133.797 67.4911 135.86 68.0517 138.117L68.2754 139.02L68.8849 138.317C71.5561 135.239 73.1761 131.222 73.1761 126.835C73.1761 117.161 65.3071 109.292 55.6339 109.292ZM55.6339 115.633C52.1313 115.633 49.2822 118.482 49.282 121.985C49.282 125.325 51.8729 128.069 55.1508 128.317V128.338H55.6339C59.1367 128.338 61.9858 125.488 61.9858 121.985C61.9856 118.482 59.1365 115.633 55.6339 115.633Z" fill="#D252B5"/>
</g>
<g opacity="0.6" clip-path="url(#clip7_5026_4277)">
<path d="M121.575 107.994C126.609 107.994 131.339 109.953 134.898 113.512C138.457 117.071 140.416 121.801 140.416 126.835C140.416 131.868 138.457 136.598 134.898 140.157C131.339 143.716 126.609 145.675 121.575 145.675C116.542 145.675 111.812 143.716 108.253 140.157C104.694 136.598 102.735 131.868 102.735 126.835C102.735 121.801 104.694 117.071 108.253 113.512C111.812 109.953 116.542 107.994 121.575 107.994ZM121.575 129.704C115.751 129.704 110.825 134.127 110.159 139.86L110.128 140.119L110.328 140.286C113.375 142.837 117.299 144.377 121.575 144.377C125.852 144.377 129.777 142.837 132.823 140.286L133.022 140.119L132.992 139.859C132.694 137.3 131.538 134.905 129.704 133.07C127.533 130.9 124.644 129.704 121.575 129.704ZM121.575 109.292C111.902 109.292 104.033 117.161 104.033 126.835C104.033 131.221 105.652 135.237 108.322 138.315L108.933 139.019L109.157 138.115C109.747 135.724 111.022 133.545 112.858 131.835C114.126 130.654 115.598 129.757 117.19 129.177L118.078 128.854L117.295 128.323C115.262 126.946 113.925 124.618 113.925 121.985C113.925 117.767 117.357 114.335 121.575 114.335C125.793 114.335 129.225 117.767 129.225 121.985C129.225 124.616 127.89 126.943 125.858 128.322L125.076 128.852L125.964 129.175C127.693 129.805 129.279 130.81 130.621 132.152C132.266 133.797 133.432 135.86 133.993 138.117L134.217 139.02L134.826 138.317C137.498 135.239 139.117 131.222 139.117 126.835C139.117 117.161 131.249 109.292 121.575 109.292ZM121.575 115.633C118.073 115.633 115.224 118.482 115.223 121.985C115.223 125.325 117.814 128.069 121.092 128.317V128.338H121.575C125.078 128.338 127.927 125.488 127.927 121.985C127.927 118.482 125.078 115.633 121.575 115.633Z" fill="#D252B5"/>
</g>
<g opacity="0.4" clip-path="url(#clip8_5026_4277)">
<path d="M87.4269 77.377C92.4602 77.377 97.1904 79.3357 100.75 82.8947C104.309 86.4539 106.267 91.1841 106.267 96.2174C106.267 101.251 104.309 105.981 100.75 109.54C97.1904 113.099 92.4602 115.058 87.4269 115.058C82.3936 115.058 77.6633 113.099 74.1042 109.54C70.5451 105.981 68.5864 101.251 68.5864 96.2174C68.5864 91.1841 70.5452 86.4539 74.1042 82.8947C77.6633 79.3357 82.3936 77.377 87.4269 77.377ZM87.4269 99.0867C81.6023 99.0867 76.6765 103.51 76.0101 109.243L75.9799 109.501L76.18 109.668C79.2266 112.22 83.1503 113.76 87.4269 113.76C91.7035 113.76 95.6281 112.22 98.6747 109.668L98.8738 109.501L98.8436 109.242C98.5459 106.683 97.3894 104.288 95.5554 102.453C93.3847 100.283 90.4957 99.0867 87.4269 99.0867ZM87.4269 78.6753C77.7537 78.6753 69.8847 86.5442 69.8847 96.2174C69.8847 100.604 71.5038 104.62 74.174 107.698L74.7845 108.402L75.0081 107.498C75.5989 105.107 76.8734 102.928 78.7096 101.218C79.9774 100.037 81.45 99.1402 83.0413 98.5602L83.9292 98.2366L83.147 97.7063C81.1132 96.3283 79.7767 94.0004 79.7767 91.3676C79.7769 87.1499 83.2091 83.7175 87.4269 83.7175C91.6447 83.7175 95.0769 87.1499 95.077 91.3676C95.077 93.999 93.7418 96.3262 91.7096 97.7044L90.9274 98.2347L91.8152 98.5574C93.5442 99.1874 95.1306 100.193 96.4725 101.535C98.1177 103.18 99.284 105.242 99.8447 107.5L100.068 108.403L100.678 107.7C103.349 104.622 104.969 100.605 104.969 96.2174C104.969 86.5442 97.1001 78.6753 87.4269 78.6753ZM87.4269 85.0158C83.9243 85.0158 81.0752 87.8646 81.075 91.3676C81.075 94.7079 83.6659 97.452 86.9438 97.6997V97.7204H87.4269C90.9297 97.7204 93.7787 94.8705 93.7787 91.3676C93.7786 87.8646 90.9295 85.0158 87.4269 85.0158Z" fill="#D252B5"/>
</g>
<g opacity="0.8" clip-path="url(#clip9_5026_4277)">
<path d="M153.369 77.377C158.402 77.377 163.132 79.3357 166.691 82.8947C170.251 86.4539 172.209 91.1841 172.209 96.2174C172.209 101.251 170.25 105.981 166.691 109.54C163.132 113.099 158.402 115.058 153.369 115.058C148.335 115.058 143.605 113.099 140.046 109.54C136.487 105.981 134.528 101.251 134.528 96.2174C134.528 91.1841 136.487 86.4539 140.046 82.8947C143.605 79.3357 148.335 77.377 153.369 77.377ZM153.369 99.0867C147.544 99.0867 142.618 103.51 141.952 109.243L141.922 109.501L142.122 109.668C145.169 112.22 149.092 113.76 153.369 113.76C157.645 113.76 161.57 112.22 164.617 109.668L164.816 109.501L164.786 109.242C164.488 106.683 163.331 104.288 161.497 102.453C159.327 100.283 156.438 99.0867 153.369 99.0867ZM153.369 78.6753C143.696 78.6753 135.827 86.5442 135.827 96.2174C135.827 100.604 137.446 104.62 140.116 107.698L140.726 108.402L140.95 107.498C141.541 105.107 142.815 102.928 144.651 101.218C145.919 100.037 147.392 99.1402 148.983 98.5602L149.871 98.2366L149.089 97.7063C147.055 96.3283 145.719 94.0004 145.719 91.3676C145.719 87.1499 149.151 83.7175 153.369 83.7175C157.587 83.7175 161.019 87.1499 161.019 91.3676C161.019 93.999 159.684 96.3262 157.651 97.7044L156.869 98.2347L157.757 98.5574C159.486 99.1874 161.072 100.193 162.414 101.535C164.06 103.18 165.226 105.242 165.787 107.5L166.01 108.403L166.62 107.7C169.291 104.622 170.911 100.605 170.911 96.2174C170.911 86.5442 163.042 78.6753 153.369 78.6753ZM153.369 85.0158C149.866 85.0158 147.017 87.8646 147.017 91.3676C147.017 94.7079 149.608 97.452 152.886 97.6997V97.7204H153.369C156.872 97.7204 159.721 94.8705 159.721 91.3676C159.72 87.8646 156.871 85.0158 153.369 85.0158Z" fill="#D252B5"/>
</g>
<g opacity="0.1" clip-path="url(#clip10_5026_4277)">
<path d="M23.8405 143.318C28.8737 143.318 33.604 145.277 37.1631 148.836C40.7222 152.395 42.6809 157.126 42.6809 162.159C42.6809 167.192 40.7221 171.922 37.1631 175.481C33.604 179.041 28.8737 180.999 23.8405 180.999C18.8072 180.999 14.0769 179.04 10.5178 175.481C6.95871 171.922 5 167.192 5 162.159C5 157.126 6.95879 152.395 10.5178 148.836C14.0769 145.277 18.8072 143.318 23.8405 143.318ZM23.8405 165.028C18.0159 165.028 13.0901 169.451 12.4237 175.184L12.3935 175.443L12.5935 175.61C15.6402 178.161 19.5638 179.701 23.8405 179.701C28.1171 179.701 32.0417 178.161 35.0883 175.61L35.2874 175.443L35.2572 175.183C34.9594 172.625 33.803 170.229 31.969 168.395C29.7983 166.224 26.9093 165.028 23.8405 165.028ZM23.8405 144.617C14.1672 144.617 6.2983 152.486 6.2983 162.159C6.2983 166.545 7.91734 170.561 10.5876 173.64L11.1981 174.344L11.4217 173.44C12.0125 171.049 13.287 168.869 15.1232 167.16C16.3909 165.978 17.8635 165.082 19.4549 164.502L20.3428 164.178L19.5606 163.648C17.5267 162.27 16.1903 159.942 16.1903 157.309C16.1905 153.091 19.6226 149.659 23.8405 149.659C28.0583 149.659 31.4904 153.091 31.4906 157.309C31.4906 159.94 30.1554 162.268 28.1231 163.646L27.341 164.176L28.2288 164.499C29.9578 165.129 31.5441 166.135 32.8861 167.477C34.5313 169.121 35.6976 171.184 36.2583 173.442L36.4819 174.345L37.0914 173.642C39.7627 170.563 41.3826 166.546 41.3826 162.159C41.3826 152.486 33.5137 144.617 23.8405 144.617ZM23.8405 150.957C20.3378 150.957 17.4888 153.806 17.4886 157.309C17.4886 160.649 20.0795 163.393 23.3574 163.641V163.662H23.8405C27.3433 163.662 30.1923 160.812 30.1923 157.309C30.1921 153.806 27.3431 150.957 23.8405 150.957Z" fill="#D252B5"/>
</g>
<g opacity="0.4" clip-path="url(#clip11_5026_4277)">
<path d="M89.7819 143.318C94.8151 143.318 99.5454 145.277 103.105 148.836C106.664 152.395 108.622 157.126 108.622 162.159C108.622 167.192 106.664 171.922 103.105 175.481C99.5454 179.041 94.8152 180.999 89.7819 180.999C84.7486 180.999 80.0183 179.04 76.4592 175.481C72.9001 171.922 70.9414 167.192 70.9414 162.159C70.9414 157.126 72.9002 152.395 76.4592 148.836C80.0183 145.277 84.7486 143.318 89.7819 143.318ZM89.7819 165.028C83.9573 165.028 79.0315 169.451 78.3651 175.184L78.3349 175.443L78.535 175.61C81.5816 178.161 85.5052 179.701 89.7819 179.701C94.0585 179.701 97.9831 178.161 101.03 175.61L101.229 175.443L101.199 175.183C100.901 172.625 99.7444 170.229 97.9104 168.395C95.7397 166.224 92.8507 165.028 89.7819 165.028ZM89.7819 144.617C80.1086 144.617 72.2397 152.486 72.2397 162.159C72.2397 166.545 73.8587 170.561 76.529 173.64L77.1395 174.344L77.3631 173.44C77.9539 171.049 79.2284 168.869 81.0646 167.16C82.3324 165.978 83.8049 165.082 85.3963 164.502L86.2842 164.178L85.502 163.648C83.4682 162.27 82.1317 159.942 82.1317 157.309C82.1319 153.091 85.564 149.659 89.7819 149.659C93.9997 149.659 97.4319 153.091 97.432 157.309C97.432 159.94 96.0968 162.268 94.0645 163.646L93.2824 164.176L94.1702 164.499C95.8992 165.129 97.4855 166.135 98.8275 167.477C100.473 169.121 101.639 171.184 102.2 173.442L102.423 174.345L103.033 173.642C105.704 170.563 107.324 166.546 107.324 162.159C107.324 152.486 99.4551 144.617 89.7819 144.617ZM89.7819 150.957C86.2792 150.957 83.4302 153.806 83.43 157.309C83.43 160.649 86.0209 163.393 89.2988 163.641V163.662H89.7819C93.2847 163.662 96.1337 160.812 96.1337 157.309C96.1336 153.806 93.2845 150.957 89.7819 150.957Z" fill="#D252B5"/>
</g>
<path d="M267 107.994H239.359C222.862 107.994 208.613 119.531 205.18 135.666C201.747 151.801 187.497 163.338 171.001 163.338H113.333" stroke="url(#paint0_linear_5026_4277)" stroke-width="1.17753"/>
<path d="M267 82.0879H239.359C222.862 82.0879 208.613 70.5513 205.18 54.416C201.747 38.2807 187.497 26.7441 171.001 26.7441H113.333" stroke="url(#paint1_linear_5026_4277)" stroke-width="1.17753"/>
<path d="M266.411 100.928H233.574C222.174 100.928 211.333 105.867 203.853 114.469C196.373 123.072 185.532 128.011 174.133 128.011H146.303" stroke="url(#paint2_linear_5026_4277)" stroke-width="1.17753"/>
<path d="M266.411 89.1523H233.574C222.174 89.1523 211.333 84.2131 203.853 75.6108C196.373 67.0085 185.532 62.0692 174.133 62.0692H146.303" stroke="url(#paint3_linear_5026_4277)" stroke-width="1.17753"/>
<path d="M267 95.041H176.331" stroke="url(#paint4_linear_5026_4277)" stroke-width="1.17753"/>
<path d="M285.024 91.3203L293.061 77.4839C294.314 75.3272 296.62 74 299.114 74H312.886C315.38 74 317.686 75.3272 318.939 77.4839L326.976 91.3203C328.229 93.4768 328.24 96.1369 327.005 98.3034L318.93 112.467C317.684 114.651 315.363 116 312.848 116H299.152C296.637 116 294.316 114.651 293.07 112.467L284.995 98.3034C283.76 96.1369 283.771 93.4768 285.024 91.3203Z" fill="url(#paint5_linear_5026_4277)"/>
<path d="M304 82H298.4L290 94.4348L298.4 108H304L295.6 94.4348L304 82Z" fill="#131313"/>
<path d="M308 82H313.6L322 94.4348L313.6 108H308L316.4 94.4348L308 82Z" fill="#131313"/>
<g filter="url(#filter0_f_5026_4277)">
<path d="M277.196 91.1407L289.243 71.3592C290.513 69.2731 292.779 68 295.221 68H316.779C319.221 68 321.487 69.2731 322.757 71.3592L334.804 91.1407C336.154 93.3591 336.166 96.1432 334.833 98.3727L322.749 118.591C321.486 120.705 319.204 122 316.741 122H295.259C292.796 122 290.514 120.705 289.251 118.591L277.167 98.3727C275.834 96.1432 275.846 93.3591 277.196 91.1407Z" stroke="#D252B5"/>
</g>
<g opacity="0.3" filter="url(#filter1_f_5026_4277)">
<path d="M268.179 91.0781L284.973 63.3715C286.242 61.2784 288.512 60 290.959 60H321.041C323.488 60 325.758 61.2784 327.027 63.3715L343.821 91.0781C345.162 93.2905 345.173 96.0622 343.851 98.2856L327.018 126.579C325.756 128.7 323.471 130 321.002 130H290.998C288.529 130 286.244 128.7 284.982 126.579L268.149 98.2856C266.827 96.0622 266.838 93.2905 268.179 91.0781Z" stroke="#D252B5"/>
</g>
<g filter="url(#filter2_f_5026_4277)">
<circle cx="305" cy="96" r="84" stroke="#D252B5" stroke-width="4"/>
</g>
<circle cx="305" cy="96" r="86" stroke="url(#paint6_linear_5026_4277)"/>
</g>
<defs>
<filter id="filter0_f_5026_4277" x="272.675" y="64.5" width="66.6504" height="61" filterUnits="userSpaceOnUse" color-interpolation-filters="sRGB">
<feFlood flood-opacity="0" result="BackgroundImageFix"/>
<feBlend mode="normal" in="SourceGraphic" in2="BackgroundImageFix" result="shape"/>
<feGaussianBlur stdDeviation="1.5" result="effect1_foregroundBlur_5026_4277"/>
</filter>
<filter id="filter1_f_5026_4277" x="263.665" y="56.5" width="84.6699" height="77" filterUnits="userSpaceOnUse" color-interpolation-filters="sRGB">
<feFlood flood-opacity="0" result="BackgroundImageFix"/>
<feBlend mode="normal" in="SourceGraphic" in2="BackgroundImageFix" result="shape"/>
<feGaussianBlur stdDeviation="1.5" result="effect1_foregroundBlur_5026_4277"/>
</filter>
<filter id="filter2_f_5026_4277" x="203" y="-6" width="204" height="204" filterUnits="userSpaceOnUse" color-interpolation-filters="sRGB">
<feFlood flood-opacity="0" result="BackgroundImageFix"/>
<feBlend mode="normal" in="SourceGraphic" in2="BackgroundImageFix" result="shape"/>
<feGaussianBlur stdDeviation="8" result="effect1_foregroundBlur_5026_4277"/>
</filter>
<linearGradient id="paint0_linear_5026_4277" x1="267" y1="120.399" x2="113.333" y2="120.399" gradientUnits="userSpaceOnUse">
<stop offset="0.822123" stop-color="#D252B5"/>
<stop offset="1" stop-color="#D252B5" stop-opacity="0"/>
</linearGradient>
<linearGradient id="paint1_linear_5026_4277" x1="267" y1="69.6832" x2="113.333" y2="69.6833" gradientUnits="userSpaceOnUse">
<stop offset="0.822123" stop-color="#D252B5"/>
<stop offset="1" stop-color="#D252B5" stop-opacity="0"/>
</linearGradient>
<linearGradient id="paint2_linear_5026_4277" x1="266.411" y1="106.998" x2="146.303" y2="106.998" gradientUnits="userSpaceOnUse">
<stop offset="0.822123" stop-color="#D252B5"/>
<stop offset="1" stop-color="#D252B5" stop-opacity="0"/>
</linearGradient>
<linearGradient id="paint3_linear_5026_4277" x1="266.411" y1="83.082" x2="146.303" y2="83.082" gradientUnits="userSpaceOnUse">
<stop offset="0.822123" stop-color="#D252B5"/>
<stop offset="1" stop-color="#D252B5" stop-opacity="0"/>
</linearGradient>
<linearGradient id="paint4_linear_5026_4277" x1="267" y1="95.2652" x2="176.331" y2="95.2651" gradientUnits="userSpaceOnUse">
<stop offset="0.822123" stop-color="#D252B5"/>
<stop offset="1" stop-color="#D252B5" stop-opacity="0"/>
</linearGradient>
<linearGradient id="paint5_linear_5026_4277" x1="306" y1="74" x2="306" y2="116" gradientUnits="userSpaceOnUse">
<stop stop-color="#D252B5" stop-opacity="0.35"/>
<stop offset="0.605793" stop-color="#D252B5"/>
</linearGradient>
<linearGradient id="paint6_linear_5026_4277" x1="305.878" y1="11.7248" x2="305.878" y2="181.97" gradientUnits="userSpaceOnUse">
<stop offset="0.15" stop-color="#D252B5"/>
<stop offset="1" stop-color="#D252B5" stop-opacity="0"/>
</linearGradient>
<clipPath id="clip0_5026_4277">
<rect width="404" height="180" fill="white"/>
</clipPath>
<clipPath id="clip1_5026_4277">
<rect width="37.6809" height="37.6809" fill="white" transform="translate(5 6.72656)"/>
</clipPath>
<clipPath id="clip2_5026_4277">
<rect width="37.6809" height="37.6809" fill="white" transform="translate(70.9414 6.72656)"/>
</clipPath>
<clipPath id="clip3_5026_4277">
<rect width="37.6809" height="37.6809" fill="white" transform="translate(5 77.377)"/>
</clipPath>
<clipPath id="clip4_5026_4277">
<rect width="37.6809" height="37.6809" fill="white" transform="translate(36.7935 42.0508)"/>
</clipPath>
<clipPath id="clip5_5026_4277">
<rect width="37.6809" height="37.6809" fill="white" transform="translate(102.735 42.0508)"/>
</clipPath>
<clipPath id="clip6_5026_4277">
<rect width="37.6809" height="37.6809" fill="white" transform="translate(36.7935 107.994)"/>
</clipPath>
<clipPath id="clip7_5026_4277">
<rect width="37.6809" height="37.6809" fill="white" transform="translate(102.735 107.994)"/>
</clipPath>
<clipPath id="clip8_5026_4277">
<rect width="37.6809" height="37.6809" fill="white" transform="translate(68.5864 77.377)"/>
</clipPath>
<clipPath id="clip9_5026_4277">
<rect width="37.6809" height="37.6809" fill="white" transform="translate(134.528 77.377)"/>
</clipPath>
<clipPath id="clip10_5026_4277">
<rect width="37.6809" height="37.6809" fill="white" transform="translate(5 143.318)"/>
</clipPath>
<clipPath id="clip11_5026_4277">
<rect width="37.6809" height="37.6809" fill="white" transform="translate(70.9414 143.318)"/>
</clipPath>
</defs>
</svg>
