<svg width="2581" height="1699" viewBox="0 0 2581 1699" fill="none" xmlns="http://www.w3.org/2000/svg">
<g clip-path="url(#clip0_438_64697)">
<path fill-rule="evenodd" clip-rule="evenodd" d="M2410.14 1316.28C2365.87 1375.93 2243.59 1526.95 2003.47 1646.67C1983.16 1656.8 1961.99 1666.69 1939.97 1676.32C1925.22 1682.75 1910.51 1688.87 1895.82 1694.68H775.649C740.647 1682.09 717.181 1672.13 707.367 1667.85C694.181 1662.09 678.114 1655.09 659.729 1646.67C511.903 1579.04 215.104 1421.24 74.8285 1104.5C15.1046 969.615 -36.3177 802.303 33.8833 716.218C108.715 624.443 162.816 684.321 392.51 676.683C533.774 671.982 608.644 668.494 669.248 617.382C741.31 556.597 706.889 485.423 758.198 337.822C775.367 288.433 856.766 44.2433 1020.81 7.43516C1241.08 -41.9907 1369.29 170.015 1402.04 203.69C1617.87 425.701 1518.21 613.388 1715.48 748.691C1797.46 804.928 1892.97 814.416 2083.99 833.407C2386.02 863.439 2502.92 796.287 2558.4 867.293C2651.38 986.303 2421.5 1300.98 2410.14 1316.28Z" fill="#E8F0FA"/>
<path fill-rule="evenodd" clip-rule="evenodd" d="M736.217 1659.57C647.087 1651.27 558.137 1625.35 471.835 1582.52C402.824 1548.27 335.344 1503.19 271.271 1448.53C162.189 1355.49 99.9551 1265.69 99.3406 1264.79L102.831 1262.39C103.445 1263.28 165.424 1352.71 274.113 1445.39C374.343 1530.85 535.945 1636.67 736.609 1655.35L736.217 1659.57Z" fill="#F685C8"/>
<path fill-rule="evenodd" clip-rule="evenodd" d="M102.534 1269.81C102.534 1269.81 -21.3004 1171.53 15.8408 1135.81C52.9818 1100.1 102.534 1269.81 102.534 1269.81Z" fill="#F685C8"/>
<path fill-rule="evenodd" clip-rule="evenodd" d="M188.077 1367.73C188.077 1367.73 30.0021 1370.4 36.0235 1319.22C42.0448 1268.05 188.077 1367.73 188.077 1367.73Z" fill="#F685C8"/>
<path fill-rule="evenodd" clip-rule="evenodd" d="M283.268 1456.96C283.268 1456.96 126.483 1477.29 126.734 1425.76C126.984 1374.24 283.268 1456.96 283.268 1456.96Z" fill="#F685C8"/>
<path fill-rule="evenodd" clip-rule="evenodd" d="M283.223 1458C283.223 1458 200.88 1323.04 248.059 1302.32C295.24 1281.59 283.223 1458 283.223 1458Z" fill="#F685C8"/>
<path fill-rule="evenodd" clip-rule="evenodd" d="M380.744 1529.72C380.744 1529.72 226.831 1565.85 221.863 1514.56C216.893 1463.26 380.744 1529.72 380.744 1529.72Z" fill="#F685C8"/>
<path fill-rule="evenodd" clip-rule="evenodd" d="M378.984 1529.87C378.984 1529.87 297.065 1394.65 344.317 1374.08C391.571 1353.51 378.984 1529.87 378.984 1529.87Z" fill="#F685C8"/>
<path fill-rule="evenodd" clip-rule="evenodd" d="M497.683 1592.64C497.683 1592.64 373.849 1494.35 410.989 1458.64C448.129 1422.92 497.683 1592.64 497.683 1592.64Z" fill="#F685C8"/>
<path fill-rule="evenodd" clip-rule="evenodd" d="M498.172 1588.49C498.172 1588.49 354.365 1654.17 339.411 1604.85C324.453 1555.55 498.172 1588.49 498.172 1588.49Z" fill="#F685C8"/>
<path fill-rule="evenodd" clip-rule="evenodd" d="M613.695 1635.76C613.695 1635.76 489.86 1537.46 527.001 1501.76C564.143 1466.04 613.695 1635.76 613.695 1635.76Z" fill="#F685C8"/>
<path fill-rule="evenodd" clip-rule="evenodd" d="M616.1 1633.65C616.1 1633.65 479.901 1713.93 459.9 1666.44C439.899 1618.95 616.1 1633.65 616.1 1633.65Z" fill="#F685C8"/>
<path fill-rule="evenodd" clip-rule="evenodd" d="M188.077 1367.73C188.077 1367.73 127.757 1221.6 177.588 1208.47C227.42 1195.35 188.077 1367.73 188.077 1367.73Z" fill="#F685C8"/>
<path fill-rule="evenodd" clip-rule="evenodd" d="M1865.05 1025.19C1796.78 1137.14 1725.69 1139.39 1682.23 1220.33C1637.72 1303.3 1729.01 1373.4 1681.66 1470.69C1671.71 1491.12 1661.12 1503.52 1656.14 1530.56C1647.2 1579.21 1665.81 1624.6 1686.11 1658.32C1688.36 1662.04 1691.86 1664.84 1695.98 1666.21C1696.37 1666.35 1696.76 1666.47 1697.16 1666.56C1701.28 1667.67 1705.68 1667.29 1709.56 1665.49C1734.14 1654.09 1761.86 1635.61 1778.37 1605.11C1801.02 1563.24 1783.95 1533.12 1789.39 1482.49C1792.23 1456.01 1800.86 1427.16 1917.16 1282.75C2019.67 1155.47 2027.25 1160.11 2045.58 1119.1C2082.4 1036.64 2049.59 1022.67 2083.54 916.6C2118.16 808.478 2161.25 794.912 2173 698.947C2177 666.369 2186.81 586.335 2145.85 560.885C2145.53 560.689 2145.19 560.484 2144.86 560.301C2144.49 560.058 2144.09 559.844 2143.69 559.628C2107.88 539.885 2047.46 565.592 2010.92 600.334C1955.09 653.401 1974.24 709.176 1926.54 867.535C1903.99 942.421 1892.68 979.865 1865.05 1025.19Z" fill="#F685C8"/>
<path fill-rule="evenodd" clip-rule="evenodd" d="M2143.68 559.63C2119.25 587.1 2097.25 616.652 2077.96 647.949C2048.19 696.361 2025.11 749.118 2011.63 804.422L2009.12 814.792C2008.43 818.278 2007.81 821.772 2007.15 825.268L2005.19 835.758L2003.69 846.322C2003.24 849.845 2002.65 853.364 2002.29 856.896L2001.21 867.501C2000.4 874.58 2000.04 881.685 1999.48 888.776C1997.6 917.121 1996.57 945.608 1990.89 973.465C1985.32 1001.33 1974.61 1027.92 1961.25 1052.93C1947.93 1078.04 1931.13 1101.14 1911.35 1121.55C1901.43 1131.69 1890.83 1141.15 1879.63 1149.87C1868.45 1158.62 1856.77 1166.73 1844.99 1174.65C1833.19 1182.56 1821.25 1190.33 1809.8 1198.76C1798.21 1207.05 1787.41 1216.4 1777.53 1226.68C1767.77 1237.08 1759.48 1248.78 1752.91 1261.44C1746.39 1274.13 1741.33 1287.51 1737.83 1301.33C1736.04 1308.23 1734.64 1315.21 1733.6 1322.26C1732.63 1329.32 1732.04 1336.43 1731.88 1343.55C1731.75 1350.67 1731.96 1357.77 1732.52 1364.88C1733.12 1371.97 1733.97 1379.04 1734.97 1386.07C1737.03 1400.15 1739.6 1414.13 1741.49 1428.2C1743.49 1442.27 1744.64 1456.44 1744.89 1470.64C1745.35 1499.05 1741.41 1527.39 1734.81 1554.99C1725.65 1593.28 1712.64 1630.55 1695.97 1666.23C1688.57 1682.07 1689.53 1682.4 1697.16 1666.57C1714.32 1631.05 1727.85 1593.89 1737.52 1555.65C1744.41 1527.95 1748.59 1499.33 1748.35 1470.59C1748.2 1456.24 1747.16 1441.92 1745.25 1427.71C1743.44 1413.51 1740.97 1399.48 1739.04 1385.51C1738.11 1378.51 1737.31 1371.53 1736.77 1364.55C1736.29 1357.57 1736.13 1350.61 1736.31 1343.65C1736.52 1336.71 1737.11 1329.78 1738.07 1322.9C1739.09 1316.02 1740.49 1309.2 1742.24 1302.47C1745.72 1289 1750.68 1275.97 1757.07 1263.62C1763.48 1251.36 1771.56 1240.03 1781.05 1229.96C1790.75 1219.93 1801.35 1210.82 1812.72 1202.73C1824.05 1194.45 1835.95 1186.75 1847.79 1178.83C1859.63 1170.91 1871.45 1162.77 1882.8 1153.93C1894.21 1145.11 1905.01 1135.52 1915.12 1125.24C1935.36 1104.57 1952.07 1080.66 1965.68 1055.33C1979.15 1029.95 1990 1002.82 1995.59 974.429C2001.28 946.07 2002.23 917.289 2004.04 889.073C2005.85 860.833 2009.13 832.813 2015.6 805.374L2017.99 795.074C2018.88 791.665 2019.92 788.298 2020.89 784.908L2023.83 774.742C2024.33 773.046 2024.76 771.33 2025.33 769.676L2027.07 764.677L2034.01 744.66L2041.87 724.958C2052.84 698.873 2065.69 673.621 2080.33 649.401C2099.19 617.87 2120.79 588.058 2144.87 560.312C2144.48 560.061 2144.08 559.846 2143.68 559.63Z" fill="white"/>
<path fill-rule="evenodd" clip-rule="evenodd" d="M1708.1 1534.07C1656.72 1586.69 1592.51 1587.16 1594.63 1625.97C1595.12 1635.21 1599.27 1644.33 1605.33 1652.73C1605.79 1653.33 1606.22 1653.92 1606.65 1654.49C1616.61 1667.55 1631.04 1678.63 1643.24 1685.33C1731.73 1733.99 1852.63 1634.39 1874.22 1616.61C1956.25 1549.01 1938.04 1512.36 2017.98 1440.77C2093.53 1373.12 2125.63 1391.71 2213.2 1330.53C2320.16 1255.86 2416.55 1127.39 2396.74 1073.21C2396.49 1072.52 2396.24 1071.88 2395.96 1071.23C2395.14 1069.34 2394.15 1067.53 2393.01 1065.82C2364.9 1024.09 2233.15 1037.24 2143.48 1092.67C2053.12 1148.52 2073.12 1205.51 1975.36 1266.35C1890.45 1319.18 1844.66 1295.31 1785.93 1348.48C1722.85 1405.56 1770.8 1469.83 1708.1 1534.07Z" fill="#B1D0EF"/>
<path fill-rule="evenodd" clip-rule="evenodd" d="M1555.77 1657.57C1555.77 1657.57 1681.12 1656.29 1704.33 1648.71C1727.4 1641.23 1749.31 1630.64 1769.49 1617.21C1779.79 1610.68 1789.05 1602.62 1796.9 1593.29C1804.73 1583.76 1811.24 1573.21 1816.23 1561.93C1826.53 1539.4 1832.97 1515.5 1843.52 1494.21C1853.72 1473.08 1868.08 1454.23 1885.74 1438.77C1894.43 1431.08 1903.82 1424.18 1913.76 1418.18C1923.96 1412.38 1934.74 1407.74 1945.96 1404.33C1957.32 1400.72 1969.14 1397.45 1980.71 1393.38C1992.22 1389.33 2003.48 1384.55 2014.4 1379.08C2019.72 1376.22 2025.15 1373.48 2030.3 1370.33L2038.08 1365.73L2045.66 1360.81L2053.2 1355.86C2055.76 1354.26 2058.09 1352.36 2060.54 1350.62L2067.8 1345.26C2070.26 1343.49 2072.49 1341.46 2074.85 1339.57C2093.49 1324.26 2110.21 1306.74 2124.67 1287.43C2139.29 1268.27 2152.31 1248.11 2166.71 1229.36C2180.93 1210.55 2196.84 1193.09 2214.25 1177.19C2231.75 1161.4 2250.76 1147.34 2270.96 1135.19C2291.39 1122.97 2312.82 1112.5 2335.01 1103.88C2357.5 1095.08 2380.52 1087.77 2403.95 1081.98L2405.21 1081.69C2404.97 1081 2404.7 1080.35 2404.42 1079.7L2403.24 1079.96C2379.58 1085.38 2356.31 1092.35 2333.55 1100.81C2311.08 1109.22 2289.36 1119.51 2268.63 1131.59C2248.07 1143.63 2228.74 1157.63 2210.87 1173.38C2193.06 1189.2 2176.83 1206.71 2162.41 1225.68C2147.78 1244.57 2134.67 1264.67 2120.14 1283.58C2105.82 1302.56 2089.25 1319.74 2070.84 1334.76C2068.52 1336.61 2066.32 1338.58 2063.92 1340.32L2056.72 1345.56C2054.28 1347.28 2051.97 1349.12 2049.44 1350.72L2041.98 1355.56L2034.48 1360.38L2026.78 1364.88C2021.69 1367.98 2016.34 1370.65 2011.09 1373.45C2000.38 1378.84 1989.36 1383.57 1978.05 1387.62C1966.71 1391.66 1954.99 1394.93 1943.47 1398.66C1931.96 1402.21 1920.87 1407.04 1910.41 1413.07C1900.23 1419.24 1890.62 1426.34 1881.76 1434.3C1863.71 1450.21 1849.09 1469.6 1838.73 1491.31C1833.5 1502.34 1828.9 1513.66 1824.92 1525.21C1820.79 1536.74 1816.8 1548.36 1811.86 1559.44C1807.09 1570.47 1800.88 1580.8 1793.37 1590.17C1785.81 1599.33 1776.9 1607.28 1766.94 1613.73C1747.15 1627.2 1725.62 1637.91 1702.94 1645.57C1679.72 1653.44 1655.64 1658.36 1631.2 1660.21C1625.43 1660.72 1619.65 1661.05 1613.8 1661.2C1607.14 1661.38 1600.45 1661.33 1593.71 1661.12C1581 1660.69 1568.33 1659.51 1555.77 1657.57Z" fill="white"/>
<path fill-rule="evenodd" clip-rule="evenodd" d="M847.005 1306.07C847.005 1306.07 984.393 1096.01 857.616 940.87C730.839 785.728 750.336 780.702 739.217 676.779C728.099 572.856 698.745 466.646 610.056 438.744C521.365 410.843 566.209 331.771 443.416 331.624C443.416 331.624 523.62 491.942 500.856 576.647C478.089 661.352 494.519 813.643 553.212 876.208C611.905 938.774 696.02 1028.39 691.629 1142.46C687.239 1256.54 797.611 1309.64 847.005 1306.07Z" fill="#B1D0EF"/>
<path fill-rule="evenodd" clip-rule="evenodd" d="M832.449 1359.28C840.995 1312.06 842.924 1263.53 836.036 1216.13C832.684 1192.45 827.081 1169.13 819.305 1146.51L816.391 1138.04C815.425 1135.21 814.163 1132.5 813.063 1129.72L809.653 1121.44L807.948 1117.31C807.372 1115.93 806.664 1114.62 806.029 1113.27L798.201 1097.16C795.515 1091.88 792.528 1086.76 789.257 1081.81C785.971 1076.91 782.337 1072.13 778.783 1067.29C775.228 1062.45 771.669 1057.59 768.181 1052.69C761.192 1042.9 754.453 1032.92 747.733 1022.98C734.292 1003.08 720.903 983.14 707.565 963.159C694.305 943.124 681.167 922.988 668.583 902.477C655.817 882.019 644.143 860.9 633.604 839.211L629.779 830.995C628.508 828.253 627.415 825.428 626.225 822.649C625.083 819.849 623.839 817.092 622.777 814.259L619.637 805.736L618.071 801.469L616.699 797.137L613.961 788.471C613.103 785.564 612.395 782.615 611.607 779.689C610.863 776.756 609.989 773.847 609.437 770.864C604.153 747.24 601.493 722.889 603.091 698.591C603.98 686.484 605.787 674.461 608.495 662.627C611.077 650.812 614.361 639.247 616.74 627.611C617.941 621.821 618.837 615.972 619.425 610.088C619.933 604.229 620.021 598.341 619.693 592.471C619.315 586.596 618.531 580.755 617.344 574.988C616.083 569.209 614.491 563.509 612.575 557.913C605.176 535.305 592.267 514.965 578.612 495.348C564.879 475.729 550.165 456.752 535.507 437.748C520.816 418.761 506.188 399.715 491.273 380.912C476.329 362.131 461.152 343.531 445.744 325.104C461.629 343.117 477.199 361.397 492.455 379.956C507.72 398.508 522.685 417.281 537.721 436.009C545.2 445.411 552.617 454.863 559.973 464.364C567.321 473.872 574.581 483.459 581.573 493.257C588.564 503.056 595.335 513.049 601.428 523.507C607.6 533.969 612.732 545.012 616.749 556.476C618.785 562.219 620.491 568.075 621.855 574.013C623.155 579.995 624.036 586.06 624.495 592.165C624.884 598.281 624.817 604.417 624.299 610.524C623.716 616.591 622.815 622.624 621.599 628.596C619.204 640.497 615.964 652.063 613.465 663.719C610.856 675.311 609.128 687.083 608.299 698.936C606.832 722.608 609.505 746.473 614.781 769.649C619.964 792.872 628.605 815.203 638.781 836.752C649.157 858.299 660.664 879.285 673.252 899.62C685.709 920.081 698.743 940.221 711.912 960.277C725.133 980.304 738.443 1000.28 751.841 1020.2C758.508 1030.19 765.225 1040.1 772.089 1049.92C775.507 1054.84 778.973 1059.73 782.491 1064.58C785.983 1069.45 789.577 1074.28 792.92 1079.38C796.22 1084.49 799.228 1089.78 801.931 1095.23L809.671 1111.6C810.297 1112.98 811.004 1114.32 811.564 1115.71L813.245 1119.92L816.601 1128.33C817.681 1131.14 818.924 1133.9 819.868 1136.76L822.721 1145.35C830.327 1168.25 835.712 1191.83 838.804 1215.75C841.799 1239.65 842.712 1263.77 841.532 1287.83L841.056 1296.84C840.899 1299.84 840.567 1302.83 840.331 1305.82C839.887 1311.82 839.155 1317.79 838.439 1323.75C836.857 1335.66 834.913 1347.53 832.449 1359.28Z" fill="white"/>
<path fill-rule="evenodd" clip-rule="evenodd" d="M1057.77 1551.16C1057.77 1551.16 1070.77 1376.2 894.351 1284.57C717.931 1192.93 598.992 1147.68 558.232 1003.52C517.475 859.356 463.329 776.394 372.588 740.81C281.849 705.226 283.587 670.627 213.695 643.682C143.801 616.736 25.4875 611.266 25.4875 611.266C25.4875 611.266 230.804 736.036 256.856 878.147C282.908 1020.26 336.021 1110.58 431.62 1174.62C527.221 1238.67 583.496 1426.45 771.127 1453.49C958.756 1480.53 1057.77 1551.16 1057.77 1551.16Z" fill="#F685C8"/>
<path fill-rule="evenodd" clip-rule="evenodd" d="M1064.72 1575.48C1054.73 1546.01 1041.4 1517.8 1024.99 1491.37C1008.54 1465.01 988.488 1441.08 965.41 1420.27C959.5 1415.27 953.717 1410.09 947.544 1405.4C941.41 1400.67 935.089 1396.2 928.582 1391.99C915.466 1383.72 901.909 1376.16 887.97 1369.37L804.545 1327.66C776.749 1313.72 748.966 1299.76 721.366 1285.41C707.553 1278.27 693.808 1270.98 680.132 1263.55C666.475 1256.08 652.889 1248.47 639.688 1240.12C613.556 1223.01 589.178 1203.35 566.912 1181.44C564.041 1178.8 561.436 1175.89 558.7 1173.11L550.594 1164.67L542.805 1155.94C540.204 1153.03 537.585 1150.14 535.137 1147.11C530.151 1141.11 525.115 1135.15 520.413 1128.93C518.039 1125.84 515.589 1122.8 513.279 1119.66L506.383 1110.22C488.084 1084.96 471.849 1058.32 456.089 1031.5C440.532 1004.6 424.644 977.742 411.636 949.353C405.043 935.219 399.309 920.675 394.12 905.979C388.932 891.283 384.427 876.387 378.999 861.899C368.344 832.851 352.345 805.962 333.219 781.653C313.981 757.319 291.741 735.521 267.027 716.777C242.249 698.07 215.748 681.765 187.881 668.081L177.503 662.809L166.889 658.022L156.261 653.259C152.711 651.695 149.211 650.003 145.564 648.658L123.885 640.125L118.458 638.003L112.948 636.113L101.927 632.33L90.9051 628.547C89.0644 627.927 87.2384 627.265 85.3873 626.681L79.802 625.023L57.4551 618.387C50.0405 616.039 42.4551 614.33 34.9368 612.363L12.3379 606.617L34.9952 612.135C42.5353 614.026 50.1431 615.661 57.5821 617.935L80.0072 624.35L85.6149 625.95C87.4739 626.519 89.3087 627.163 91.1567 627.766L102.223 631.441L113.289 635.115L118.827 636.954L124.282 639.023L146.085 647.349C149.752 648.662 153.276 650.319 156.851 651.851L167.552 656.518L178.241 661.21L188.704 666.393C216.784 679.965 243.5 696.191 268.489 714.853C293.489 733.594 316.015 755.425 335.528 779.827C354.972 804.202 371.3 831.35 382.095 860.737C387.607 875.357 392.115 890.249 397.324 904.85C402.532 919.45 408.224 933.863 414.801 947.895C427.764 976.05 443.64 1002.78 459.248 1029.65C475.028 1056.4 491.258 1082.9 509.484 1107.99L516.324 1117.39C518.614 1120.51 521.044 1123.53 523.396 1126.61C528.057 1132.8 533.05 1138.73 537.989 1144.7C540.416 1147.72 543.012 1150.59 545.588 1153.48L553.308 1162.16L561.337 1170.56C564.048 1173.32 566.629 1176.22 569.472 1178.85C591.517 1200.62 615.66 1220.16 641.548 1237.19C654.614 1245.48 668.145 1253.11 681.755 1260.58C695.364 1268.04 709.097 1275.32 722.888 1282.48C750.455 1296.83 778.156 1310.94 805.861 1325.04L889.055 1367.23C903.028 1374.13 916.614 1381.8 929.753 1390.19C936.284 1394.45 942.626 1399 948.778 1403.81C954.953 1408.57 960.766 1413.79 966.644 1418.89C989.613 1440.01 1009.51 1464.25 1025.77 1490.89C1041.94 1517.51 1055.01 1545.88 1064.72 1575.48Z" fill="white"/>
<path fill-rule="evenodd" clip-rule="evenodd" d="M703.592 1490.67C667.216 1431.11 587.695 1376.24 470.933 1384.68C354.171 1393.11 285.591 1318.63 248.315 1252.72C211.061 1186.79 113.351 1108.99 113.351 1108.99C113.351 1108.99 114.503 1109.17 116.842 1109.45C117.297 1109.52 117.792 1109.57 118.343 1109.63C129.544 1110.94 159.775 1113.69 211.129 1112.76C277.843 1111.55 324.341 1180.42 384.024 1181.52C443.689 1182.6 493.491 1197.06 546.251 1227.56C599.009 1258.05 637.892 1271.5 740.016 1260.49C842.148 1249.5 963.527 1417.39 963.527 1417.39C963.807 1423.4 963.825 1429.17 963.583 1434.69C963.585 1434.87 963.58 1435.03 963.564 1435.2C956.288 1593.92 739.837 1550.04 703.592 1490.67Z" fill="#B1D0EF"/>
<path fill-rule="evenodd" clip-rule="evenodd" d="M963.564 1435.2C934.431 1431.39 905.475 1426.29 876.835 1419.73C837.221 1410.63 798.32 1398.68 760.435 1383.96C741.487 1376.64 722.865 1368.44 704.477 1359.88C686.087 1351.33 667.717 1342.79 648.885 1335.45C630.061 1328.05 610.855 1321.68 591.385 1316.13C571.991 1310.45 552.316 1305.79 532.44 1302.16C522.476 1300.48 512.476 1299.17 502.421 1298.14C492.368 1297.11 482.171 1296.18 472.097 1294.3C462.048 1292.43 452.14 1289.88 442.44 1286.66C437.564 1285.12 432.793 1283.34 427.992 1281.66L413.78 1276.09C394.932 1268.29 376.816 1258.83 359.645 1247.81C342.463 1236.89 326.179 1224.76 309.551 1213.18C276.36 1189.94 241.647 1168.94 205.643 1150.35C176.748 1135.27 147.148 1121.64 116.843 1109.46C117.298 1109.52 117.793 1109.58 118.344 1109.64C148.323 1121.18 177.7 1134.19 206.477 1148.67C242.748 1166.99 277.74 1187.74 311.216 1210.77L336.224 1228.1L348.732 1236.72C352.948 1239.52 357.143 1242.34 361.411 1245.03C378.447 1255.87 396.408 1265.19 415.087 1272.87L429.212 1278.35C433.976 1280.01 438.713 1281.77 443.516 1283.26C453.08 1286.4 462.847 1288.9 472.749 1290.72C482.615 1292.52 492.671 1293.41 502.781 1294.43C512.892 1295.45 523.016 1296.71 533.075 1298.4C553.085 1302.12 572.889 1306.87 592.408 1312.63C611.925 1318.27 631.24 1324.73 650.141 1332.24C669.095 1339.68 687.515 1348.31 705.861 1356.89C724.228 1365.47 742.701 1373.77 761.517 1381.25C799.164 1396.23 837.837 1408.49 877.237 1417.93C905.717 1424.91 934.496 1430.49 963.573 1434.71C963.579 1434.87 963.576 1435.04 963.564 1435.2Z" fill="white"/>
<path fill-rule="evenodd" clip-rule="evenodd" d="M1050.17 588.331C1114.7 582.12 1168.99 625.78 1175.97 632.74C1231.48 688.095 1225.83 768.848 1216.4 824.678C1203.83 899.18 1269.66 912.882 1298.63 973.423C1326.01 1030.64 1293.74 1119.68 1233.67 1157.12C1151.09 1208.59 1036.8 1149.52 979.32 1095.65C856.073 980.138 896.675 797.347 902.587 772.616C908.78 746.699 943.653 598.582 1050.17 588.331Z" fill="#31376E"/>
<path fill-rule="evenodd" clip-rule="evenodd" d="M1118.86 880.587C1050.75 871.293 1017.07 808.639 1017.07 808.639C1017.07 808.639 985.209 814.713 977.671 775.744C972.66 749.789 1007.2 725.921 1019.33 772.841C1019.61 772.841 1033.19 772.684 1044.89 742.131C1052.27 722.824 1054.86 697.881 1081.97 703.864C1084.95 704.499 1088 704.787 1091.05 704.719C1117.4 704.364 1151.55 682.46 1154.94 669.36C1154.99 669.189 1155.02 669.007 1155.06 668.836C1155.06 668.836 1155.13 669.044 1155.27 669.445C1157.17 674.983 1171.6 717.792 1178.39 763.507C1187.36 823.896 1183.01 889.344 1118.86 880.587Z" fill="#FBCEBA"/>
<path fill-rule="evenodd" clip-rule="evenodd" d="M1138.38 870.078C1138.38 870.078 1076.06 959.518 1088.11 1011.2C1100.16 1062.89 894.881 1083.66 939.327 988.641C983.772 893.621 1016.72 871.997 1056.03 782.241C1095.34 692.485 1138.38 870.078 1138.38 870.078Z" fill="#FBCEBA"/>
<path fill-rule="evenodd" clip-rule="evenodd" d="M1178.11 953.63C1139.26 963.231 1117.28 992.335 1126.13 1031.36C1162.75 1192.86 1254.92 1576.49 1304.05 1576.62C1366.29 1576.8 1595.72 1587.6 1595.72 1587.6L1630.95 1476.9L1354.21 1486.97L1263.64 1069.36C1257.54 1034.64 1255.4 996.467 1227.47 974.956C1199.78 953.63 1178.11 953.63 1178.11 953.63Z" fill="#F254B2"/>
<path fill-rule="evenodd" clip-rule="evenodd" d="M1268.67 1245.46C1163.01 1461.81 1293.83 1678.17 1293.83 1678.17H800.748C800.748 1678.17 936.597 1461.81 876.214 1361.19C815.832 1260.55 740.368 1064.32 760.494 1008.98C775.286 968.224 871.942 954.738 921.854 950.462C939.766 948.952 951.692 948.596 951.692 948.596L1123.83 945.022L1157.99 948.596C1188.18 953.628 1200.15 957.3 1211.42 979.036C1253.83 1060.75 1313.64 1153.39 1268.67 1245.46Z" fill="#F685C8"/>
<path fill-rule="evenodd" clip-rule="evenodd" d="M1022.13 1562.44C1022.13 1562.44 1117.73 1587.6 1132.82 1582.57C1147.92 1577.53 1198.23 1547.35 1233.45 1562.44C1258.47 1573.16 1293.63 1596.57 1311.91 1609.24C1315.04 1611.41 1316.63 1615.19 1316 1618.93C1315.37 1622.69 1312.63 1625.73 1308.97 1626.76C1302.01 1628.76 1292.22 1629.79 1278.74 1627.85C1243.52 1622.83 1198.23 1627.85 1163.01 1642.95C1136.85 1654.16 986.911 1622.83 986.911 1622.83L1022.13 1562.44Z" fill="#FBCEBA"/>
<path fill-rule="evenodd" clip-rule="evenodd" d="M827.965 968.995C788.469 962.579 751.107 988.963 743.94 1028.33C714.333 1191.26 665.028 1553.12 710.176 1572.51C767.364 1597.05 1032.19 1632.88 1032.19 1632.88L1057.35 1567.47L814.971 1481.69L888.617 1053.98C891.944 1034.65 887.405 1014.8 876.013 998.836C864.621 982.875 847.321 972.131 827.965 968.995Z" fill="#F254B2"/>
<path fill-rule="evenodd" clip-rule="evenodd" d="M1152.13 1100.26C1152.13 1100.26 947.009 982.463 921.859 950.463C939.771 948.952 951.696 948.596 951.696 948.596L1123.83 945.023C1167.94 1032.37 1152.13 1100.26 1152.13 1100.26Z" fill="#FBCEBA"/>
<path fill-rule="evenodd" clip-rule="evenodd" d="M1031.88 829.825C1064.24 867.094 1047.73 903.005 1040.41 924.957C1027.92 962.446 1013.21 968.266 1008.7 1018.87C1003.77 1074.23 1038.37 1103.42 1029.44 1140.84C1021.02 1176.1 991.837 1222.05 951.378 1224.99C906.206 1228.29 862.128 1176.86 856.245 1129.86C849.642 1077.12 885.837 1055.85 894.054 989.594C900.533 937.328 880.702 922.622 873.32 866.408C861.692 777.876 907.164 707.93 917.225 691.997C960.184 623.981 1024.8 586.692 1031.88 593.197C1042.75 603.214 922.925 718.025 951.378 774.93C973.336 818.846 1006.12 800.149 1031.88 829.825Z" fill="#31376E"/>
<path fill-rule="evenodd" clip-rule="evenodd" d="M1194.07 723.607C1194.15 738.423 1188.54 752.705 1178.4 763.504C1170.89 728.251 1174.33 737.969 1164.8 704.716C1161.4 689.981 1160.17 686.256 1154.94 669.357C1155.05 669.383 1155.16 669.407 1155.27 669.444C1177.65 676.04 1194.07 697.787 1194.07 723.607Z" fill="#F254B2"/>
<path fill-rule="evenodd" clip-rule="evenodd" d="M972.691 744.973C959.956 716.926 960.16 684.707 973.244 656.823C986.329 628.939 1010.98 608.194 1040.69 600.065C1083.51 588.685 1130.27 605.465 1158.24 639.297C1178.24 667.614 1179.64 683.697 1181.9 687.129C1187.31 695.353 1164.69 667.645 1155.06 671.274C1136.29 628.474 1089.63 604.598 1045.7 616.277C1022.5 622.443 1002.64 638.73 991.187 660.961C978.689 685.121 978.043 713.697 989.436 738.397L972.691 744.973Z" fill="#9471BF"/>
<path fill-rule="evenodd" clip-rule="evenodd" d="M1000.76 733.252C1030.06 733.252 1053.81 758.42 1053.81 789.468C1053.81 820.514 1030.06 845.684 1000.76 845.684C971.469 845.684 947.723 820.514 947.723 789.468C947.723 758.42 971.469 733.252 1000.76 733.252Z" fill="#F254B2"/>
<path fill-rule="evenodd" clip-rule="evenodd" d="M993.945 733.252C1019.47 733.252 1040.17 758.42 1040.17 789.468C1040.17 820.514 1019.47 845.684 993.945 845.684C968.417 845.684 947.723 820.514 947.723 789.468C947.723 758.42 968.417 733.252 993.945 733.252Z" fill="#9471BF"/>
<path fill-rule="evenodd" clip-rule="evenodd" d="M1140.12 843.287C1150.65 843.287 1159.19 849.609 1159.19 857.406C1159.19 865.203 1150.65 871.523 1140.12 871.523C1129.6 871.523 1121.06 865.203 1121.06 857.406C1121.06 849.609 1129.6 843.287 1140.12 843.287Z" fill="#9471BF"/>
<path fill-rule="evenodd" clip-rule="evenodd" d="M1077.77 879.414C1063.11 879.385 1048.68 875.741 1035.77 868.802C1021.29 861.046 1008.75 850.131 999.067 836.87L1007.26 831.346C1016.15 843.327 1027.58 853.195 1040.73 860.245C1068.91 875.046 1099.49 872.367 1131.62 852.275L1136.86 860.655C1114.72 874.503 1094.83 879.414 1077.77 879.414Z" fill="#9471BF"/>
<path fill-rule="evenodd" clip-rule="evenodd" d="M1140.12 843.524C1150.65 843.524 1159.19 849.846 1159.19 857.643C1159.19 865.44 1150.65 871.762 1140.12 871.762C1129.6 871.762 1121.06 865.44 1121.06 857.643C1121.06 849.846 1129.6 843.524 1140.12 843.524Z" fill="#F254B2"/>
<path fill-rule="evenodd" clip-rule="evenodd" d="M1502.64 1158.52H1993.09L1883.49 1644.87H1393.04L1502.64 1158.52Z" fill="#9471BF"/>
<path fill-rule="evenodd" clip-rule="evenodd" d="M1703.59 1399.59C1710.11 1374.29 1726.41 1356.63 1740 1360.13C1753.6 1363.64 1759.32 1386.99 1752.8 1412.28C1746.28 1437.59 1729.97 1455.24 1716.37 1451.73C1702.79 1448.24 1697.05 1424.88 1703.59 1399.59Z" fill="#F685C8"/>
<path fill-rule="evenodd" clip-rule="evenodd" d="M529.468 1626.91H2139.05V1694.68H529.468V1626.91Z" fill="#373D7D"/>
<path fill-rule="evenodd" clip-rule="evenodd" d="M1389.56 562.671H1852.45V789.668H1389.56V562.671Z" fill="white"/>
<path fill-rule="evenodd" clip-rule="evenodd" d="M1736.73 787.198L1796.08 866.82L1802.01 762.966C1802.01 762.966 1733.76 755.052 1736.73 787.198Z" fill="white"/>
<path d="M1395.29 786.549H1848.07V567.063H1395.29V786.549ZM1856.84 795.328H1386.52V558.281H1856.84V795.328Z" fill="#9471BF"/>
<path d="M1750.48 796.399L1791.53 853.865L1793.95 795.432L1750.48 796.399ZM1799.25 879.773L1733.69 787.989L1803.11 786.448L1799.25 879.773Z" fill="#9471BF"/>
<path fill-rule="evenodd" clip-rule="evenodd" d="M1425.4 617.23H1805.43V636.043H1425.4V617.23Z" fill="#9471BF"/>
<path fill-rule="evenodd" clip-rule="evenodd" d="M1426.03 671.788H1806.05V690.602H1426.03V671.788Z" fill="#9471BF"/>
<path fill-rule="evenodd" clip-rule="evenodd" d="M1426.65 726.347H1806.68V745.16H1426.65V726.347Z" fill="#9471BF"/>
<path fill-rule="evenodd" clip-rule="evenodd" d="M2036.07 379.693H1677.68V203.947H2036.07V379.693Z" fill="white"/>
<path fill-rule="evenodd" clip-rule="evenodd" d="M1767.28 377.778L1721.33 439.424L1716.73 359.025C1716.73 359.025 1769.57 352.892 1767.28 377.778Z" fill="white"/>
<path d="M2031.63 207.346H1681.08V377.278H2031.63V207.346ZM1674.28 200.546H2038.41V384.074H1674.28V200.546Z" fill="#9471BF"/>
<path d="M1722.99 384.154L1724.85 429.394L1756.63 384.902L1722.99 384.154ZM1715.89 377.198L1769.64 378.398L1718.88 449.465L1715.89 377.198Z" fill="#9471BF"/>
<path fill-rule="evenodd" clip-rule="evenodd" d="M2008.32 260.746H1714.09V246.186H2008.32V260.746Z" fill="#9471BF"/>
<path fill-rule="evenodd" clip-rule="evenodd" d="M2007.84 302.986H1713.61V288.426H2007.84V302.986Z" fill="#9471BF"/>
<path fill-rule="evenodd" clip-rule="evenodd" d="M2007.35 345.227H1713.13V330.667H2007.35V345.227Z" fill="#9471BF"/>
</g>
<defs>
<clipPath id="clip0_438_64697">
<rect width="2580.49" height="1698.6" fill="white"/>
</clipPath>
</defs>
</svg>
