<svg width="140" height="60" viewBox="0 0 140 60" fill="none" xmlns="http://www.w3.org/2000/svg">
<g clip-path="url(#clip0_5112_5331)">
<path d="M59.1473 39.086H61.8729L63.4401 34.5804H71.8892L73.4563 39.086H76.2841L69.1296 19.7461H66.3018L59.1473 39.086ZM64.1895 32.4315L67.6645 22.4842L71.1397 32.4315H64.1895Z" fill="#A0A9DB"/>
<path d="M80.3887 39.086H86.3508C92.6195 39.086 95.4812 35.2043 95.4812 29.4161C95.4812 23.628 92.6195 19.7461 86.3508 19.7461H80.3887V39.086ZM83.046 36.7986V22.0336H86.4189C91.4952 22.0336 92.7557 25.7768 92.7557 29.4161C92.7557 33.0554 91.4952 36.7986 86.4189 36.7986H83.046Z" fill="#A0A9DB"/>
<path d="M103.241 39.086V30.3519H111.248V28.0296H103.241V22.0336H112.542V19.7461H100.584V39.086H103.241Z" fill="#A0A9DB"/>
<path d="M115.229 33.4028C115.502 37.458 118.534 39.4336 122.69 39.4336C126.268 39.4336 129.641 37.9432 129.641 33.9228C129.641 31.0113 127.835 29.5557 125.212 28.7931L121.055 27.58C119.249 27.0601 118.33 26.055 118.33 24.53C118.33 22.7624 119.59 21.6533 122.043 21.6533C123.985 21.6533 126.2 22.3464 126.438 25.3272H129.061C128.823 21.48 126.2 19.4004 122.248 19.4004C118.738 19.4004 115.672 20.9947 115.672 24.7033C115.672 27.3374 117.239 29.0011 120.101 29.8329L124.258 31.0459C126.029 31.5659 126.983 32.6057 126.983 34.0961C126.983 35.8983 125.62 37.1808 122.827 37.1808C120.544 37.1808 118.125 36.3489 117.921 33.4028H115.229Z" fill="#A0A9DB"/>
<path d="M26.6114 12.0078H10.2155V28.6877H26.6114V12.0078Z" fill="#A0A9DB"/>
<path d="M45.349 12.0078H28.9531V28.6877H45.349V12.0078Z" fill="#A0A9DB"/>
<path d="M45.349 31.0703H28.9531V47.7502H45.349V31.0703Z" fill="#A0A9DB"/>
<path d="M26.6114 31.0703H10.2155V47.7502H26.6114V31.0703Z" fill="#A0A9DB"/>
</g>
<defs>
<clipPath id="clip0_5112_5331">
<rect width="120" height="36" fill="white" transform="translate(10 12.0078)"/>
</clipPath>
</defs>
</svg>
