<svg width="120" height="48" viewBox="0 0 120 48" fill="none" xmlns="http://www.w3.org/2000/svg">
<path d="M34.7109 26.9401C34.6124 26.682 30.9304 20.2512 30.9304 20.2512C30.9304 20.2512 30.832 20.0576 30.5695 20.0576H29.3859H28.2023C28.0054 20.0576 27.907 20.2512 27.907 20.2512C27.907 20.2512 24.2249 26.7466 24.1265 26.9401C23.9624 27.3917 24.4874 27.3272 24.4874 27.3272H26.2288C26.4257 27.2627 26.5241 27.1337 26.5241 27.1337C26.5241 27.1337 26.9835 26.2926 27.0163 26.1959C27.1804 26.0346 27.3773 26.0346 27.3773 26.0346H29.4796H31.582C31.582 26.0346 31.7788 25.9701 31.9429 26.1959C32.0085 26.2926 32.4351 27.1337 32.4351 27.1337C32.4351 27.1337 32.5335 27.2949 32.7304 27.3272H34.4718C34.3148 27.3272 34.8093 27.3272 34.7109 26.9401ZM30.6351 24.3549H29.4515H28.2679C28.2679 24.3549 28.071 24.3549 28.2023 24.0968C28.3007 23.9032 29.2874 21.9954 29.2874 21.9954C29.2874 21.9954 29.3859 21.8986 29.4843 21.8986C29.5827 21.8986 29.6812 21.9954 29.6812 21.9954C29.6812 21.9954 30.6679 23.9009 30.7663 24.0968C30.832 24.3549 30.6351 24.3549 30.6351 24.3549Z" fill="#A0A9DB"/>
<path d="M36.1569 27.3271C35.9601 27.3271 35.7632 27.1659 35.7632 26.94V20.3801C35.7632 20.1866 35.9601 19.993 36.1569 19.993H37.6358C37.8327 19.993 38.0296 20.1866 38.0296 20.3801V25.1612C38.0296 25.3548 38.2265 25.5483 38.4233 25.5483H42.5976C42.7944 25.5483 42.9913 25.7419 42.9913 25.9354V26.97C42.9913 27.1635 42.7944 27.3571 42.5976 27.3571H36.1218V27.3248H36.1569V27.3271Z" fill="#A0A9DB"/>
<path d="M54.5624 26.9401C54.464 26.682 50.7819 20.2512 50.7819 20.2512C50.7819 20.2512 50.6835 20.0576 50.421 20.0576H49.2702H48.0866C47.8897 20.0576 47.7257 20.2512 47.7257 20.2512C47.7257 20.2512 44.0436 26.7466 43.9452 26.9401C43.7811 27.3917 44.3061 27.3272 44.3061 27.3272H46.0476C46.2444 27.2627 46.3429 27.1337 46.3429 27.1337C46.3429 27.1337 46.8022 26.2926 46.8351 26.1959C46.9991 26.0346 47.196 26.0346 47.196 26.0346H49.2983H51.4007C51.4007 26.0346 51.5976 25.9701 51.7616 26.1959C51.8272 26.2926 52.2538 27.1337 52.2538 27.1337C52.2538 27.1337 52.3522 27.2949 52.5491 27.3272H54.2905C54.1991 27.3272 54.6936 27.3272 54.5624 26.9401ZM50.5194 24.3549H49.2702H48.0866C48.0866 24.3549 47.8897 24.3549 48.021 24.0968C48.1194 23.9032 49.1061 21.9954 49.1061 21.9954C49.1061 21.9954 49.2046 21.8986 49.303 21.8986C49.4015 21.8986 49.4999 21.9954 49.4999 21.9954C49.4999 21.9954 50.4866 23.9009 50.5851 24.0968C50.7163 24.3549 50.5194 24.3549 50.5194 24.3549Z" fill="#A0A9DB"/>
<path d="M64.6851 23.6451V21.3825C64.6851 20.606 64.0288 19.9608 63.239 19.9608H56.7304H55.9733C55.7765 19.9608 55.5796 20.1544 55.5796 20.3479V26.9078C55.5796 27.1014 55.7765 27.2949 55.9733 27.2949H57.4522C57.6491 27.2949 57.846 27.1336 57.846 26.9078V25.841C57.846 25.6475 58.0101 25.4539 58.2397 25.4539H62.0202C62.2171 25.4539 62.414 25.6152 62.414 25.841V26.9078C62.414 27.1014 62.6108 27.2949 62.8077 27.2949H64.2866C64.4835 27.2949 64.6804 27.1336 64.6804 26.9078V25.7765C64.6804 25 64.0241 24.3548 63.2343 24.3548H63.8905C64.3569 24.4516 64.6851 24.0968 64.6851 23.6451ZM57.914 22.3525C57.914 22.159 58.1108 21.9654 58.3077 21.9654H61.9241C62.121 21.9654 62.3179 22.1267 62.3179 22.3525V23.2903C62.3179 23.4839 62.121 23.6774 61.9241 23.6774H58.3077C58.1108 23.6774 57.914 23.5161 57.914 23.2903V22.3525Z" fill="#A0A9DB"/>
<path d="M78.0281 20.0254H76.6476H76.3851H75.1359C75.1359 20.0254 74.2804 19.9609 73.8866 20.9632L72.6046 23.9033C72.6046 23.9033 72.4077 24.4516 72.2437 24.4516C72.0796 24.4516 71.8827 23.9033 71.8827 23.9033L70.6007 20.9632C70.1413 19.9931 69.3515 20.0254 69.3515 20.0254H68.1023H67.8398H66.4593C66.2624 20.0254 66.0656 20.1867 66.0656 20.4125V26.9079C66.0656 27.1014 66.2296 27.295 66.4593 27.295H68.1023C68.2991 27.295 68.496 27.1337 68.496 26.9079V22.2235C68.496 21.8364 68.7913 22.3203 68.7913 22.3203L71.0273 26.5853C71.421 27.3618 71.7843 27.3618 71.7843 27.3618H72.3421H72.8999C72.8999 27.3618 73.1952 27.3618 73.657 26.5853L75.8929 22.3203C75.8929 22.3203 76.1882 21.8364 76.1882 22.2235V26.9079C76.1882 27.1014 76.3523 27.295 76.582 27.295H78.2249C78.4218 27.295 78.6187 27.1337 78.6187 26.9079V20.348C78.4241 20.1867 78.2577 20.0254 78.0281 20.0254Z" fill="#A0A9DB"/>
<path d="M101.857 20.0254H98.5382H95.1866C94.2327 20.0254 93.5108 20.7696 93.4452 21.6729V25.6475C93.4452 26.5853 94.2022 27.295 95.121 27.3595H98.5053H101.89C102.844 27.3595 103.566 26.583 103.566 25.6475V21.6729C103.533 20.7696 102.778 20.0254 101.857 20.0254ZM100.05 21.8341C100.641 21.8341 101.135 22.318 101.135 22.901V24.4517C101.135 25.0323 100.643 25.5185 100.083 25.5185H96.8952C96.3046 25.5185 95.81 25.0346 95.8428 24.4517V22.901C95.8428 22.3203 96.335 21.8341 96.928 21.8341H100.05Z" fill="#A0A9DB"/>
<path d="M116.583 20.0254H115.202H114.94H113.691C113.691 20.0254 112.835 19.9609 112.441 20.9632L111.159 23.9033C111.159 23.9033 110.962 24.4516 110.798 24.4516C110.634 24.4516 110.437 23.9033 110.437 23.9033L109.155 20.9632C108.696 19.9931 107.906 20.0254 107.906 20.0254H106.657H106.394H105.047C104.85 20.0254 104.653 20.1867 104.653 20.4125V26.9079C104.653 27.1014 104.817 27.295 105.047 27.295H106.69C106.887 27.295 107.083 27.1337 107.083 26.9079V22.2235C107.083 21.8364 107.379 22.3203 107.379 22.3203L109.615 26.5853C110.008 27.3618 110.372 27.3618 110.372 27.3618H110.93H111.487C111.487 27.3618 111.783 27.3618 112.244 26.5853L114.48 22.3203C114.48 22.3203 114.776 21.8364 114.776 22.2235V26.9079C114.776 27.1014 114.94 27.295 115.169 27.295H116.812C117.009 27.295 117.206 27.1337 117.206 26.9079V20.348C116.976 20.1867 116.812 20.0254 116.583 20.0254Z" fill="#A0A9DB"/>
<path d="M79.4741 26.099C79.4741 25.4539 80.0319 24.9354 80.6577 24.9354C81.314 24.9354 81.8413 25.4838 81.8413 26.099C81.8413 26.7442 81.2835 27.2626 80.6577 27.2626C79.9687 27.2626 79.4741 26.7465 79.4741 26.099Z" fill="#A0A9DB"/>
<path d="M85.0945 22.4493C85.0945 21.8041 86.1468 21.7718 86.1468 21.7718C86.1468 21.7718 88.7765 21.7718 89.3671 21.7718C89.9577 21.7718 90.0234 22.1589 90.157 22.4493C90.321 22.7396 90.5179 22.7396 90.5179 22.7396C90.5179 22.7396 91.4062 22.7396 91.8984 22.7396C92.3905 22.7396 92.3577 22.0622 92.3577 22.0622C92.3577 22.0622 92.3577 22.0622 92.3577 21.2212C92.3577 19.993 90.2202 19.993 90.2202 19.993C90.2202 19.993 86.7374 19.993 84.764 19.993C82.7601 19.993 82.7601 22.1912 82.7601 22.1912V25.1313C82.7601 25.1313 82.7601 27.3294 84.764 27.3294C86.7679 27.3294 90.2202 27.3294 90.2202 27.3294C90.2202 27.3294 92.3577 27.3294 92.3577 26.1013C92.3577 25.2603 92.3577 25.2603 92.3577 25.2603C92.3577 25.2603 92.4234 24.5829 91.8984 24.5829C91.439 24.5829 90.5179 24.5829 90.5179 24.5829C90.5179 24.5829 90.321 24.5184 90.157 24.8732C89.9929 25.1635 89.9601 25.5506 89.3671 25.5506C88.7741 25.5506 86.1468 25.5506 86.1468 25.5506C86.1468 25.5506 85.0945 25.5506 85.0945 24.8732V22.4493Z" fill="#A0A9DB"/>
<path d="M120 21.1566C120 21.8018 119.442 22.3202 118.816 22.3202C118.127 22.3202 117.633 21.7718 117.633 21.1566C117.633 20.5115 118.191 19.993 118.816 19.993C119.508 19.993 120 20.5414 120 21.1566ZM119.803 21.1566C119.803 20.6082 119.344 20.2188 118.849 20.2188C118.291 20.2188 117.895 20.6705 117.895 21.1566C117.895 21.705 118.355 22.0944 118.849 22.0944C119.344 22.0921 119.803 21.705 119.803 21.1566ZM118.915 20.6382C119.177 20.6382 119.374 20.7995 119.374 20.993C119.374 21.1866 119.21 21.2834 119.013 21.3479L119.407 21.7995H119.144L118.783 21.3479H118.619V21.735H118.357V20.6059H118.849V20.6382H118.915ZM118.619 20.7695V21.1244H118.915C119.079 21.1244 119.177 21.0599 119.177 20.9308C119.177 20.8341 119.079 20.7373 118.915 20.7373H118.619V20.7695Z" fill="#A0A9DB"/>
<path d="M11.4725 19.6383C11.1772 19.348 10.6827 19.348 10.3874 19.6383L3.28815 27.1337L6.31158 26.5853C6.31158 26.5853 9.59752 23.2581 10.2889 22.5139C10.5514 22.2558 10.7483 22.2235 10.9452 22.2235C11.1421 22.2235 11.4046 22.288 11.6014 22.5139C12.2905 23.1913 15.5788 26.5853 15.5788 26.5853L18.6022 27.1337L11.4725 19.6383Z" fill="#A0A9DB"/>
<path d="M21.86 26.3594V21.7051C21.86 21.6083 21.86 20.735 21.4007 19.9608C20.8429 19.0876 19.9546 18.6037 19.9546 18.5392C19.889 18.5392 19.6593 18.3779 19.2983 18.1843C17.6202 17.3111 13.61 15.212 12.3936 14.7581C11.9015 14.5968 11.4397 14.5 10.9475 14.5H10.8819C10.4225 14.5 9.92802 14.5968 9.43583 14.7581C8.18661 15.2097 4.20927 17.3111 2.53348 18.182C2.17255 18.3756 1.94286 18.5369 1.84442 18.5369C1.7788 18.5369 0.890516 19.0853 0.398328 19.894C0.00457814 20.735 0.00457812 21.6382 0.00457812 21.6382V26.2903C0.00457812 26.3548 -0.0610469 27.2604 0.463953 28.0346C1.02177 28.9078 1.91005 29.3917 1.91005 29.4562C1.97567 29.5207 2.20536 29.6175 2.5663 29.8111C4.24208 30.6843 8.18661 32.7834 9.46864 33.235C9.96083 33.3963 10.4225 33.4931 10.9147 33.4931H10.9804C11.4397 33.4931 11.9343 33.3963 12.4265 33.235C13.6757 32.7834 17.653 30.682 19.3288 29.8111C19.6897 29.6175 19.9194 29.4562 20.0179 29.4562C20.0835 29.4562 20.9718 28.9078 21.464 28.0991C21.9257 27.2627 21.86 26.3594 21.86 26.3594ZM21.1358 26.3594C21.1358 26.424 21.1358 27.1359 20.7749 27.6843C20.414 28.265 19.7225 28.7189 19.6241 28.8157C19.5585 28.8157 19.5257 28.8802 19.3616 28.9124C14.496 31.4954 12.7546 32.3364 12.0983 32.53C11.7046 32.6912 11.3085 32.7235 10.9147 32.7235H10.8491C10.4554 32.7235 10.0593 32.659 9.66552 32.53C8.81005 32.2396 6.24833 30.9793 2.40223 28.9101C2.3038 28.8456 2.20536 28.8134 2.20536 28.8134C2.13973 28.8134 1.44833 28.3618 1.02177 27.682C0.660828 27.1336 0.660828 26.4217 0.660828 26.3571V21.7051C0.660828 21.6406 0.660828 20.9286 1.02177 20.3802C1.3827 19.7995 2.07411 19.3456 2.17255 19.2488C2.23817 19.2488 2.27098 19.1843 2.36942 19.1521C6.21552 17.0853 8.77723 15.8249 9.6327 15.5346C10.0265 15.3733 10.4225 15.341 10.8163 15.341H10.9804C11.3741 15.341 11.7702 15.4055 12.164 15.5346C13.0194 15.8249 15.5811 17.0853 19.4272 19.1544C19.5257 19.2189 19.6241 19.2512 19.6241 19.2512C19.6897 19.2512 20.3811 19.735 20.8077 20.3825C21.1686 20.9631 21.1686 21.7074 21.1686 21.7074L21.1358 26.3594Z" fill="#A0A9DB"/>
<path d="M16.3054 19.4125C16.9593 19.4125 17.489 19.9332 17.489 20.5761C17.489 21.2189 16.9593 21.7397 16.3054 21.7397C15.6515 21.7397 15.1218 21.2189 15.1218 20.5761C15.1218 19.9332 15.6515 19.4125 16.3054 19.4125Z" fill="#A0A9DB"/>
</svg>
