<svg width="140" height="60" viewBox="0 0 140 60" fill="none" xmlns="http://www.w3.org/2000/svg">
<path d="M85.0267 14.9717C83.4478 17.6908 81.8704 20.4114 80.2947 23.1337C80.2091 23.0979 80.1228 23.0644 80.0357 23.0333C73.5074 20.5533 66.2916 20.5807 59.7823 23.1103C59.5863 22.7603 55.692 16.0613 55.0667 14.974C54.9749 14.8137 54.8645 14.6649 54.7377 14.5307C54.3076 14.0678 53.7224 13.7791 53.0934 13.7196C52.4643 13.66 51.8354 13.8337 51.3261 14.2076C50.8167 14.5815 50.4626 15.1296 50.331 15.7476C50.1994 16.3655 50.2995 17.0103 50.6123 17.5593C55.1553 25.4227 50.3883 17.0553 55.1577 25.3993C55.1973 25.4693 54.0027 26.013 51.9073 27.7723C48.7667 30.4113 43.0547 36.4687 42 46.3107H98C97.7459 43.8567 97.1603 41.4486 96.2593 39.152C94.8314 35.488 92.6537 32.1628 89.866 29.3893C88.363 27.8931 86.6948 26.5726 84.8937 25.453C86.4337 22.835 87.955 20.189 89.4787 17.5547C89.7075 17.1565 89.8264 16.7047 89.8231 16.2455C89.8198 15.7862 89.6945 15.3362 89.46 14.9413C89.251 14.5914 88.9617 14.2964 88.616 14.0805C88.2703 13.8646 87.8781 13.7342 87.472 13.7C86.254 13.574 85.281 14.4303 85.0243 14.9717M84.931 34.7117C85.8527 36.0953 85.687 37.8173 84.567 38.5617C83.447 39.3083 81.795 38.795 80.8757 37.4113C79.9563 36.0277 80.1197 34.308 81.2397 33.5613C82.3433 32.824 83.9977 33.3047 84.931 34.714M58.814 33.566C59.934 34.3127 60.0973 36.0347 59.178 37.416C58.2587 38.7997 56.6043 39.3177 55.482 38.571C54.362 37.8243 54.1987 36.1023 55.118 34.721C56.0513 33.314 57.7057 32.8287 58.814 33.566Z" fill="#A0A9DB"/>
</svg>
