<svg width="140" height="60" viewBox="0 0 140 60" fill="none" xmlns="http://www.w3.org/2000/svg">
<g clip-path="url(#clip0_5122_5842)">
<path d="M70.304 19.792C68.408 19.792 65.474 17.636 62.384 17.712C58.304 17.766 54.564 20.078 52.462 23.74C48.228 31.09 51.37 41.946 55.5 47.92C57.526 50.828 59.916 54.1 63.084 53.998C66.124 53.868 67.264 52.024 70.954 52.024C74.616 52.024 75.654 53.998 78.874 53.92C82.148 53.868 84.226 50.96 86.226 48.024C88.538 44.648 89.498 41.374 89.55 41.194C89.472 41.168 83.186 38.752 83.11 31.48C83.058 25.4 88.07 22.492 88.304 22.362C85.446 18.182 81.058 17.714 79.524 17.61C75.524 17.298 72.174 19.792 70.304 19.792ZM77.06 13.66C78.746 11.636 79.86 8.806 79.55 6C77.136 6.104 74.226 7.61 72.486 9.636C70.926 11.428 69.578 14.312 69.94 17.064C72.616 17.272 75.37 15.688 77.058 13.662" fill="#A0A9DB"/>
</g>
<defs>
<clipPath id="clip0_5122_5842">
<rect width="48" height="48" fill="white" transform="translate(46 6)"/>
</clipPath>
</defs>
</svg>
