<svg width="140" height="60" viewBox="0 0 140 60" fill="none" xmlns="http://www.w3.org/2000/svg">
<path d="M37.4596 13H25.9459L29.5042 23.9471H41.0174L31.7026 30.4758L35.2621 41.4854C41.2581 37.1732 43.217 30.647 41.0188 23.9476L37.4596 13ZM10.8745 23.9471H22.3879L25.9459 13H14.4337L10.8745 23.9471ZM10.8745 23.9471C8.6751 30.6466 10.6354 37.173 16.6312 41.4849L20.1895 30.4756L10.8745 23.9471ZM16.6312 41.4849L25.9462 48L35.2611 41.4849L25.9462 34.8621L16.6312 41.4849ZM103.521 23.6785C100.796 23.6785 99.0647 24.9002 98.2439 26.8809H98.0376V17.8682H93.9492V41.4287H98.1284V31.2066C98.1284 28.6758 99.7214 27.2171 101.962 27.2171C104.155 27.2171 105.449 28.5962 105.449 30.955V41.429H109.628V30.2669C109.628 26.0382 107.204 23.6785 103.521 23.6785M120.926 17.8294C115.27 17.8294 111.867 22.1985 111.853 29.7925C111.853 37.4081 115.245 41.8353 120.926 41.8353C126.608 41.8353 130 37.4203 130 29.7925C129.997 22.2108 126.583 17.8294 120.926 17.8294ZM116.167 29.7967C116.178 24.2579 118.006 21.3403 120.926 21.3403C122.921 21.3403 124.405 22.6932 125.154 25.3033L116.243 31.6953C116.189 31.0638 116.164 30.4303 116.167 29.7967ZM120.926 38.2864C118.864 38.2864 117.343 36.8472 116.626 34.0508L125.586 27.6202C125.661 28.342 125.698 29.067 125.698 29.7925C125.697 35.3771 123.869 38.2823 120.926 38.2823L120.926 38.2864ZM75.1409 34.0721C75.1409 36.7391 73.2129 38.0615 71.3661 38.0615C69.3575 38.0615 68.0171 36.6588 68.0171 34.4365V23.9268H63.8382V35.0747C63.8382 39.2812 66.2621 41.6631 69.7493 41.6631C72.4046 41.6631 74.2749 40.284 75.0832 38.3232H75.2689V41.4352H79.3212V23.9258H75.1409V34.0721ZM54.391 23.6613C50.6626 23.6613 47.8004 25.3021 46.8765 28.4937L50.7781 29.0403C51.1906 27.844 52.3712 26.818 54.4138 26.818C56.3532 26.818 57.4154 27.7984 57.4154 29.5197V29.5931C57.4154 30.7778 56.1575 30.8349 53.0291 31.1658C49.5943 31.5273 46.2948 32.5391 46.2948 36.4816C46.2948 39.9235 48.846 41.7467 52.2277 41.7467C55.0119 41.7467 56.672 40.459 57.4339 38.9889H57.5731V41.3933H61.5891V29.6787C61.5934 25.052 57.773 23.6613 54.391 23.6613ZM57.4309 35.1147C57.4309 37.0631 55.8378 38.7164 53.3218 38.7164C51.5781 38.7164 50.3317 37.9296 50.3317 36.4138C50.3317 34.8297 51.7288 34.1693 53.5981 33.9064C54.6952 33.7588 56.8885 33.4851 57.4309 33.0524V35.1147ZM88.2422 19.553H84.0633V23.9365H81.5267V27.2144H84.0631V36.9064C84.0403 40.2005 86.4645 41.8191 89.6053 41.7286C90.3238 41.7148 91.0377 41.6122 91.7304 41.4232V38.1555C91.414 38.1971 90.6734 38.2908 90.1352 38.3031C89.0857 38.3265 88.2422 37.9375 88.2422 36.2743V27.2141H91.7407V23.9362H88.2422V19.553Z" fill="#A0A9DB"/>
</svg>
