<svg width="140" height="60" viewBox="0 0 140 60" fill="none" xmlns="http://www.w3.org/2000/svg">
<path d="M11.7139 11.2422H28.8566V28.5966H11.7139V11.2422Z" fill="#A0A9DB"/>
<path d="M30.5709 11.2422H47.7136V28.5966H30.5709V11.2422Z" fill="#A0A9DB"/>
<path d="M11.7139 30.332H28.8566V47.6864H11.7139V30.332Z" fill="#A0A9DB"/>
<path d="M30.5709 30.332H47.7136V47.6864H30.5709V30.332Z" fill="#A0A9DB"/>
<path d="M63.8033 38.8541H61.4291L68.2961 19.9219H70.6337L77.5006 38.8541H75.1264L69.538 22.917H69.3919L63.8033 38.8541ZM64.6799 31.4586H74.2498V33.4924H64.6799V31.4586Z" fill="#A0A9DB"/>
<path d="M79.7195 38.8535V37.1895L87.6823 26.836V26.688H79.9753V24.6543H90.4582V26.3922L82.7147 36.6719V36.8198H90.7139V38.8535H79.7195Z" fill="#A0A9DB"/>
<path d="M102.872 33.0481V24.6543H105.028V38.8535H102.872V36.45H102.726C102.398 37.171 101.886 37.7842 101.192 38.2895C100.498 38.7887 99.6217 39.0383 98.5624 39.0383C97.6858 39.0383 96.9065 38.8442 96.2248 38.456C95.5429 38.0614 95.0072 37.4698 94.6175 36.6811C94.228 35.886 94.0331 34.8846 94.0331 33.6767V24.6543H96.1882V33.5288C96.1882 34.5641 96.4744 35.3899 97.0466 36.0063C97.6249 36.6225 98.3615 36.9306 99.2564 36.9306C99.7921 36.9306 100.337 36.792 100.891 36.5147C101.451 36.2373 101.92 35.8121 102.297 35.239C102.681 34.6657 102.872 33.9355 102.872 33.0481Z" fill="#A0A9DB"/>
<path d="M108.975 38.8527V24.6535H111.057V26.7981H111.203C111.458 26.0956 111.921 25.5256 112.591 25.0879C113.26 24.6504 114.015 24.4316 114.855 24.4316C115.014 24.4316 115.211 24.4347 115.449 24.4409C115.686 24.4471 115.866 24.4563 115.988 24.4686V26.6872C115.915 26.6687 115.747 26.6411 115.485 26.604C115.23 26.5609 114.959 26.5393 114.673 26.5393C113.991 26.5393 113.382 26.6842 112.846 26.9738C112.317 27.2573 111.897 27.6517 111.586 28.157C111.282 28.6563 111.13 29.2264 111.13 29.8672V38.8527H108.975Z" fill="#A0A9DB"/>
<path d="M123.996 39.1486C122.644 39.1486 121.479 38.8466 120.499 38.2427C119.524 37.6326 118.773 36.782 118.243 35.6913C117.72 34.5943 117.458 33.3186 117.458 31.8642C117.458 30.4097 117.72 29.1278 118.243 28.0185C118.773 26.903 119.509 26.0341 120.453 25.4117C121.403 24.783 122.511 24.4688 123.777 24.4688C124.507 24.4688 125.229 24.592 125.941 24.8386C126.653 25.085 127.302 25.4856 127.886 26.0403C128.47 26.5888 128.936 27.316 129.283 28.2218C129.63 29.1278 129.804 30.2433 129.804 31.5684V32.4927H118.992V30.607H127.612C127.612 29.8058 127.454 29.0909 127.137 28.4622C126.827 27.8337 126.382 27.3376 125.804 26.9739C125.232 26.6104 124.556 26.4285 123.777 26.4285C122.918 26.4285 122.176 26.6443 121.549 27.0757C120.928 27.5009 120.45 28.0556 120.115 28.7397C119.78 29.4236 119.613 30.157 119.613 30.9397V32.1969C119.613 33.2692 119.795 34.1782 120.161 34.924C120.532 35.6635 121.047 36.2275 121.704 36.6156C122.361 36.9978 123.125 37.1888 123.996 37.1888C124.562 37.1888 125.073 37.1087 125.53 36.9485C125.993 36.782 126.391 36.5356 126.726 36.2089C127.061 35.8761 127.32 35.4632 127.502 34.9701L129.584 35.5618C129.365 36.2767 128.997 36.9053 128.479 37.4476C127.962 37.9838 127.323 38.4029 126.562 38.7049C125.801 39.0007 124.946 39.1486 123.996 39.1486Z" fill="#A0A9DB"/>
</svg>
