<svg width="120" height="48" viewBox="0 0 120 48" fill="none" xmlns="http://www.w3.org/2000/svg">
<g clip-path="url(#clip0_4168_1559)">
<mask id="mask0_4168_1559" style="mask-type:luminance" maskUnits="userSpaceOnUse" x="3" y="-3" width="115" height="54">
<path d="M117.14 -3H3.14001V51H117.14V-3Z" fill="white"/>
</mask>
<g mask="url(#mask0_4168_1559)">
</g>
<mask id="mask1_4168_1559" style="mask-type:luminance" maskUnits="userSpaceOnUse" x="10" y="1" width="100" height="46">
<path d="M110 1H10V46.6228H110V1Z" fill="white"/>
</mask>
<g mask="url(#mask1_4168_1559)">
</g>
<mask id="mask2_4168_1559" style="mask-type:luminance" maskUnits="userSpaceOnUse" x="9" y="0" width="102" height="47">
<path d="M110.132 0.877197H9.8772V46.7544H110.132V0.877197Z" fill="white"/>
</mask>
<g mask="url(#mask2_4168_1559)">
<path d="M40.6667 25.9298C41.5351 27.6929 41.6755 29.807 40.9912 31.9298C40.307 34.0526 38.8597 36 36.8947 37.4035C34.7105 38.9824 31.9474 39.8596 28.9123 39.9649H28.8947C28.7719 39.9649 28.6491 39.9649 28.5176 39.9649H28.3246C26.2456 39.9385 24.2719 39.3421 22.7544 38.2807C21.3246 37.2719 20.0877 35.8245 19.1316 34.0701C19.5351 35.1403 20.0263 36.1666 20.579 37.1491C22.4298 40.4122 25.0176 42.9385 27.8597 44.2631C31.8684 46.1403 36.0439 45.535 39.5965 42.5701C41.7895 40.5964 43.2193 38.0701 43.6228 35.4473C44.0351 32.7631 43.579 30.2719 42.2632 28.0438C41.8246 27.2982 41.2807 26.5877 40.6579 25.9122L40.6667 25.9298Z" fill="#A0A9DB"/>
<path d="M42.807 11.5263C42.7807 10.7544 42.6842 10.0087 42.5087 9.29822C42.3947 10.614 41.7368 11.8596 40.5263 13.0789C38.7368 14.8772 36.0701 16.307 33.4912 17.693C30.307 19.4035 27.2982 21.0087 27.2894 22.7807V22.9035C27.3947 25.2544 29.1315 26.3245 31.1491 27.5438C30.9386 27.1491 30.8508 26.7631 30.8771 26.3684C30.9736 24.7982 32.8771 23.4386 35.7017 21.8772C39.4035 19.8333 43 17.3508 42.8157 11.5263H42.807Z" fill="#A0A9DB"/>
<path d="M36.6228 2.39472C35.6491 1.93858 34.6053 1.59648 33.5 1.36841C35.0088 2.15788 36.1842 3.44736 36.8509 5.12279C37.4561 6.65788 37.5702 8.35086 37.1754 10.0351C36.7544 11.8245 35.7807 13.5 34.3421 14.8772C33.6403 15.5789 32.7632 16.2456 31.8421 16.9561C30.4649 18.0088 29.0614 19.0877 28.1842 20.2895C29.3947 19.2456 31.2281 18.2631 33.2281 17.193C35.7719 15.8246 38.4035 14.4123 40.1316 12.6754C42.0702 10.7281 42.4649 8.78069 41.386 6.53508C40.3246 4.78069 38.6842 3.34209 36.6316 2.38595L36.6228 2.39472Z" fill="#A0A9DB"/>
<path d="M33.7894 45.8421C33.3596 45.8947 32.9298 45.921 32.4912 45.921C30.8771 45.921 29.2368 45.5438 27.6315 44.7894C24.6841 43.4122 22.0087 40.7982 20.0964 37.4386C18.0877 33.9035 17.0175 29.7719 17.0175 25.5087C16.9473 21.5087 17.9648 17.6228 19.9561 14.2894C21.5087 11.6754 23.3947 9.7982 25.5526 8.70171C25.8684 8.54381 26.1754 8.40346 26.4736 8.28943C25.2456 8.50873 24.0438 8.92101 22.8771 9.53504C20.5526 10.7543 18.3859 12.7807 16.614 15.3947C14.2017 18.9386 12.6227 23.3333 12.1578 27.7631C11.6754 32.3333 12.4736 36.4649 14.3859 39.3947C16.535 42.3508 19.342 44.4736 22.5175 45.535C25.8245 46.6315 29.0877 46.8684 32.2105 46.2456C32.7456 46.1403 33.2719 46 33.7894 45.8421Z" fill="#A0A9DB"/>
<path d="M31.4299 26.3947C31.386 27.1579 31.9387 27.9474 33.1317 28.8158L33.1492 28.8333C34.8422 30.0789 35.7369 31.4123 36.0703 33.1667C36.3597 34.7017 36.0352 36.114 35.1229 37.2719C34.7896 37.693 34.3773 38.0789 33.8948 38.4123C34.8597 38.0351 35.7545 37.5438 36.5703 36.9561C38.4299 35.614 39.8159 33.7719 40.4562 31.7631C40.9299 30.2807 40.9913 28.7719 40.6317 27.4035C40.2545 25.9737 39.4124 24.7281 38.2018 23.7982C37.0966 23.0263 36.1667 22.5789 35.8422 22.4298C32.0527 24.5351 31.4738 25.5789 31.4299 26.3947Z" fill="#A0A9DB"/>
<path d="M9.99989 25.272C10.035 28.772 10.728 32.158 11.9911 35.1492C11.4473 32.9036 11.2981 30.3773 11.5788 27.7106C12.0525 23.193 13.6666 18.7018 16.1315 15.0878C17.956 12.4036 20.1929 10.3159 22.5964 9.0527C25.2981 7.63165 28.1753 7.22814 31.149 7.8334C31.2543 7.85095 31.3595 7.87726 31.4648 7.90358C31.4648 7.90358 31.4823 7.90358 31.4911 7.90358C33.4911 8.3948 35.0701 9.69305 35.6227 11.2895C35.7192 11.5702 35.763 11.8334 35.763 12.0966C36.1402 11.3948 36.4297 10.6667 36.6052 9.91235C36.9736 8.34217 36.8683 6.75445 36.3069 5.3334C35.263 2.68428 32.8332 1.07902 29.7981 1.03516C26.9911 1.08779 24.1753 1.82463 21.6402 3.15796C18.842 4.63165 16.4999 6.76323 14.6929 9.47375C11.5788 14.158 9.94726 19.6229 9.99989 25.272Z" fill="#A0A9DB"/>
<path d="M55.2368 32.1667L54.2105 29.5176L53.1842 32.1667H55.228H55.2368ZM55.4649 32.7632H52.9561L52.4824 33.9912H51.7894L53.8947 28.693H54.535L56.6403 33.9912H55.9473L55.4736 32.7632H55.4649Z" fill="#A0A9DB"/>
<path d="M61.4737 29.2807H58.7105V28.6842H62.5L59.5965 33.386H62.4386V33.9825H58.5614L61.4737 29.2807Z" fill="#A0A9DB"/>
<path d="M63.4211 31.7983H66.0614C66.0176 31 65.4123 30.5702 64.7632 30.5702C64.1141 30.5702 63.5176 30.9825 63.4211 31.7983ZM66.6141 32.272H63.4211C63.5176 33.0878 64.1404 33.5176 64.886 33.5176C65.3421 33.5176 65.7544 33.3509 66.0439 33.0439L66.3597 33.3685C66.0088 33.7983 65.4474 34.0527 64.8246 34.0527C63.7807 34.0527 62.8334 33.3246 62.8334 32.0351C62.8334 30.7456 63.7895 30.0176 64.7632 30.0176C65.7369 30.0176 66.7807 30.7281 66.6229 32.2632L66.6141 32.272Z" fill="#A0A9DB"/>
<path d="M67.9562 28.6842H67.3334V33.9825H67.9562V28.6842Z" fill="#A0A9DB"/>
<path d="M69.465 28.6842H68.8422V33.9825H69.465V28.6842Z" fill="#A0A9DB"/>
<path d="M70.3508 30.1053H70.9736V33.9825H70.3508V30.1053ZM70.3508 28.6842H70.9736V29.2632H70.3508V28.6842Z" fill="#A0A9DB"/>
<path d="M71.6315 33.0088L72.1578 32.8685C72.263 33.2808 72.5701 33.5439 72.9999 33.5439C73.3683 33.5439 73.728 33.3685 73.728 32.9387C73.728 32.6141 73.4999 32.4562 73.0525 32.2632L72.7016 32.1316C72.0613 31.8685 71.7894 31.4913 71.7894 31.0527C71.7894 30.4387 72.3157 30.0352 72.9911 30.0352C73.6139 30.0352 74.0701 30.3773 74.2104 30.9036L73.7104 31.0527C73.5876 30.7281 73.3595 30.5527 73.0174 30.5527C72.6753 30.5527 72.4122 30.7281 72.4122 31.0615C72.4122 31.3071 72.5701 31.5001 72.9736 31.6667L73.2894 31.7983C73.9034 32.0352 74.3508 32.3071 74.3508 32.9474C74.3508 33.7194 73.7016 34.0702 72.9999 34.0702C72.2981 34.0702 71.7543 33.6843 71.6315 33.0176V33.0088Z" fill="#A0A9DB"/>
<path d="M76.5701 31.3334C76.5701 29.7106 77.7894 28.6053 79.2718 28.6053C79.9209 28.6053 80.7631 28.8246 81.342 29.6404L80.8683 29.9825C80.4297 29.3948 79.7981 29.2194 79.2894 29.2194C78.1578 29.2194 77.228 30.0527 77.228 31.3246C77.228 32.5966 78.149 33.4299 79.2981 33.4299C79.8157 33.4299 80.4297 33.2545 80.8683 32.6668L81.342 33.0089C80.7631 33.8334 79.9297 34.0439 79.2718 34.0439C77.7894 34.0439 76.5701 32.9387 76.5701 31.3159V31.3334Z" fill="#A0A9DB"/>
<path d="M85.1315 32.0439C85.1315 31.1229 84.4561 30.6053 83.7456 30.6053C83.035 30.6053 82.3596 31.1229 82.3596 32.0439C82.3596 32.965 83.035 33.4825 83.7456 33.4825C84.4561 33.4825 85.1315 32.9562 85.1315 32.0439ZM81.728 32.0439C81.728 30.7457 82.7368 30.0264 83.7456 30.0264C84.7543 30.0264 85.7631 30.7457 85.7631 32.0439C85.7631 33.3422 84.7543 34.0615 83.7456 34.0615C82.7368 34.0615 81.728 33.3422 81.728 32.0439Z" fill="#A0A9DB"/>
<path d="M92.2192 31.7018V33.9825H91.5964V31.7457C91.5964 31.0352 91.2719 30.6053 90.6578 30.6053C90.0438 30.6053 89.6578 31.0352 89.6578 31.7457V33.9825H89.035V31.7457C89.035 31.0352 88.7105 30.6053 88.0964 30.6053C87.4824 30.6053 87.0964 31.0352 87.0964 31.7457V33.9825H86.4736V30.1053H87.0964V30.7106C87.2806 30.3509 87.6666 30.0352 88.2806 30.0352C88.8245 30.0352 89.2719 30.2808 89.5087 30.8159C89.6929 30.4211 90.114 30.0352 90.8245 30.0352C91.6315 30.0352 92.228 30.5527 92.228 31.7106L92.2192 31.7018Z" fill="#A0A9DB"/>
<path d="M96.3421 32.0439C96.3421 31.079 95.6579 30.6053 94.9649 30.6053C94.272 30.6053 93.579 31.0878 93.579 32.0439C93.579 33.0001 94.272 33.4825 94.9649 33.4825C95.6579 33.4825 96.3421 33.0088 96.3421 32.0439ZM96.9649 32.0439C96.9649 33.3685 96.0088 34.0615 95.0614 34.0615C94.3334 34.0615 93.7895 33.6667 93.6053 33.2544H93.579V35.4036H92.9562V30.1053H93.579V30.8334H93.6053C93.7895 30.4211 94.3334 30.0264 95.0614 30.0264C96.0088 30.0264 96.9649 30.7106 96.9649 32.0439Z" fill="#A0A9DB"/>
<path d="M100.877 32.0439C100.877 31.0878 100.184 30.6053 99.4824 30.6053C98.7807 30.6053 98.1052 31.079 98.1052 32.0439C98.1052 33.0088 98.7982 33.4825 99.4824 33.4825C100.167 33.4825 100.877 33.0001 100.877 32.0439ZM97.4736 32.0439C97.4736 30.7193 98.4385 30.0264 99.3771 30.0264C100.105 30.0264 100.649 30.4211 100.833 30.8334H100.86V30.1053H101.482V33.9825H100.86V33.2544H100.833C100.649 33.6667 100.105 34.0615 99.3771 34.0615C98.4385 34.0615 97.4736 33.3772 97.4736 32.0439Z" fill="#A0A9DB"/>
<path d="M105.807 31.7018V33.9825H105.184V31.7895C105.184 31.0088 104.719 30.6053 104.105 30.6053C103.491 30.6053 103 31.0088 103 31.7895V33.9825H102.377V30.1053H103V30.7369C103.202 30.3685 103.623 30.0264 104.298 30.0264C105.114 30.0264 105.816 30.5351 105.816 31.7018H105.807Z" fill="#A0A9DB"/>
<path d="M109.947 30.1052L108.298 33.9824L107.675 35.4035H107.061L107.702 33.9473L106.07 30.1052H106.719L108.009 33.2105L109.298 30.1052H109.947Z" fill="#A0A9DB"/>
<path d="M57.5438 19.9824C57.5438 19 56.9473 18.3245 55.6491 18.3245H53.9561V21.6052H55.6754C56.9386 21.6052 57.5351 20.9736 57.5351 19.9824H57.5438ZM53.9561 14.1842V16.6491H55.4737C56.421 16.6491 56.8947 16.1315 56.8947 15.4035C56.8947 14.6315 56.4035 14.1842 55.4386 14.1842H53.9561ZM59.693 20.2017C59.693 22.1578 58.3508 23.5 55.807 23.5H51.7982V12.2894H55.9035C57.7982 12.2894 58.9824 13.4736 58.9824 14.9912C58.9824 16.1491 58.2719 16.921 57.5175 17.2543C58.6579 17.5526 59.7017 18.5 59.7017 20.2105L59.693 20.2017Z" fill="#A0A9DB"/>
<path d="M62.6316 18.5175H66.9299C66.8071 17.3508 65.8246 16.7631 64.8246 16.7631C63.8246 16.7631 62.8948 17.3333 62.6316 18.5175ZM68.8071 20.0614H62.6667C62.965 21.1842 63.9474 21.7719 65.1755 21.7719C65.9825 21.7719 66.693 21.5526 67.2895 21.0263L68.2545 22.0526C67.579 22.9035 66.3948 23.5087 64.9387 23.5087C62.6843 23.5087 60.658 21.9736 60.658 19.2456C60.658 16.5175 62.7106 14.9824 64.8159 14.9824C66.9211 14.9824 69.272 16.4473 68.8159 20.0701L68.8071 20.0614Z" fill="#A0A9DB"/>
<path d="M77.7544 18.6753V23.5087H75.6404V19.0262C75.6404 17.8245 74.9913 17.035 73.886 17.035C72.7807 17.035 72.1316 17.8245 72.1316 19.0262V23.5087H70.0176V15.2982H72.1316V16.421C72.5878 15.6929 73.4123 15.1403 74.6404 15.1403C76.3334 15.1403 77.7544 16.1841 77.7544 18.6753Z" fill="#A0A9DB"/>
<path d="M80.9123 18.5175H85.2105C85.0877 17.3508 84.1053 16.7631 83.1053 16.7631C82.1053 16.7631 81.1754 17.3333 80.9123 18.5175ZM87.0877 20.0614H80.9474C81.2456 21.1842 82.2281 21.7719 83.4561 21.7719C84.2632 21.7719 84.9737 21.5526 85.5702 21.0263L86.5351 22.0526C85.8596 22.9035 84.6754 23.5087 83.2193 23.5087C80.9649 23.5087 78.9386 21.9736 78.9386 19.2456C78.9386 16.5175 80.9912 14.9824 83.0965 14.9824C85.2018 14.9824 87.5526 16.4473 87.0965 20.0701L87.0877 20.0614Z" fill="#A0A9DB"/>
<path d="M90.8069 14.9911V15.2894H92.921V16.9824H90.8069V23.5087H88.6929V16.9824H87.649V15.2894H88.6929V14.7543C88.6929 12.342 90.3683 11.9473 91.4561 11.9473C91.8859 11.9473 92.4648 11.9911 92.921 12.2631V13.9209C92.5262 13.728 92.149 13.7455 92.0087 13.7455C91.2017 13.7455 90.8069 14.1841 90.8069 14.9911Z" fill="#A0A9DB"/>
<path d="M95.1843 18.5175H99.4825C99.3597 17.3508 98.3772 16.7631 97.3772 16.7631C96.3772 16.7631 95.4474 17.3333 95.1843 18.5175ZM101.36 20.0614H95.2193C95.5176 21.1842 96.5 21.7719 97.7281 21.7719C98.5351 21.7719 99.2457 21.5526 99.8421 21.0263L100.807 22.0526C100.132 22.9035 98.9474 23.5087 97.4913 23.5087C95.2369 23.5087 93.2106 21.9736 93.2106 19.2456C93.2106 16.5175 95.2632 14.9824 97.3685 14.9824C99.4737 14.9824 101.825 16.4473 101.368 20.0701L101.36 20.0614Z" fill="#A0A9DB"/>
<path d="M104.43 19.307L101.57 15.2982H103.965L105.64 17.7631L107.316 15.2982H109.737L106.877 19.307L110 23.5087H107.57L105.64 20.8421L103.728 23.5087H101.298L104.43 19.307Z" fill="#A0A9DB"/>
</g>
</g>
<defs>
<clipPath id="clip0_4168_1559">
<rect width="120" height="48" fill="white"/>
</clipPath>
</defs>
</svg>
