<svg width="140" height="60" viewBox="0 0 140 60" fill="none" xmlns="http://www.w3.org/2000/svg">
<path d="M48.0813 9.00012C47.8843 8.99764 47.6887 9.03399 47.5058 9.10709C47.3228 9.18019 47.1561 9.28862 47.0151 9.42617C46.874 9.56372 46.7615 9.7277 46.6838 9.90875C46.6062 10.0898 46.5649 10.2844 46.5625 10.4814C46.564 10.5691 46.5703 10.6568 46.5812 10.7439L52.9469 49.3782C53.0256 49.8522 53.2691 50.2832 53.6344 50.5953C53.9996 50.9074 54.4633 51.0806 54.9438 51.0845H85.4781C85.8371 51.0893 86.1859 50.9651 86.4611 50.7346C86.7364 50.5041 86.9198 50.1825 86.9781 49.8282L93.3438 10.7532C93.406 10.3618 93.3108 9.96162 93.0789 9.64015C92.847 9.31869 92.4973 9.10206 92.1062 9.03762C92.0192 9.02646 91.9315 9.0202 91.8438 9.01887L48.0813 9.00012ZM74.8844 36.9189H65.1344L62.5 23.1376H77.2469L74.8844 36.9189Z" fill="#A0A9DB"/>
</svg>
