<svg width="120" height="48" viewBox="0 0 120 48" fill="none" xmlns="http://www.w3.org/2000/svg">
<g clip-path="url(#clip0_4159_1359)">
<path fill-rule="evenodd" clip-rule="evenodd" d="M51.6113 23.549C52.3364 23.2672 52.9585 22.7697 53.3944 22.123C53.8302 21.4763 54.059 20.7113 54.0501 19.9305C54.0501 16.6738 51.7499 15.0593 48.5905 15.0593H40.3041V32.768H49.3111C52.0824 32.768 54.7984 30.8195 54.7984 27.8412C54.7984 24.3006 51.6113 23.5824 51.6113 23.549ZM44.6275 18.7336H47.8422C48.0481 18.7207 48.2544 18.7488 48.4495 18.8162C48.6445 18.8836 48.8244 18.9889 48.9788 19.1262C49.1333 19.2635 49.2593 19.43 49.3496 19.6163C49.4399 19.8025 49.4927 20.0048 49.5051 20.2116C49.5051 20.2747 49.5051 20.3387 49.5051 20.4037C49.4963 20.839 49.3167 21.2533 49.0052 21.5562C48.6938 21.8591 48.2758 22.0261 47.8422 22.0209H44.5997L44.6275 18.7336ZM47.87 29.0604H44.6552V25.581H47.7868C49.3665 25.581 50.1148 26.2769 50.1148 27.3067C50.1148 28.5927 49.1725 29.0604 47.87 29.0604Z" fill="#A0A9DB"/>
<path fill-rule="evenodd" clip-rule="evenodd" d="M64.3319 14.614C59.2326 14.614 56.2395 18.7058 56.2395 23.8831C56.2395 29.0604 59.2326 33.1522 64.3319 33.1522C69.4312 33.1522 72.4243 29.0882 72.4243 23.8831C72.4243 18.6779 69.4589 14.614 64.3319 14.614ZM64.3319 28.9212C61.8377 28.9212 60.5905 26.6666 60.5905 23.8831C60.5905 21.0996 61.8377 18.8728 64.3319 18.8728C66.8261 18.8728 68.1009 21.1274 68.1009 23.8831C68.1009 26.6944 66.8261 28.9212 64.3319 28.9212Z" fill="#A0A9DB"/>
<path fill-rule="evenodd" clip-rule="evenodd" d="M81.8191 22.0181L81.2094 21.879C79.7129 21.5728 78.5212 21.1831 78.5212 20.0975C78.5212 18.9284 79.6575 18.4553 80.6552 18.4553C81.3358 18.4654 82.0071 18.6165 82.627 18.8991C83.2469 19.1817 83.8021 19.5897 84.2579 20.0975L87.0016 17.3697C85.7545 15.9501 83.7314 14.5862 80.572 14.5862C76.8584 14.5862 74.0316 16.6738 74.0316 20.1532C74.0316 23.3264 76.3041 24.8852 79.0755 25.4697L79.6852 25.6089C81.9854 26.0821 82.8445 26.4439 82.8445 27.5573C82.8445 28.615 81.9023 29.3109 80.4612 29.3109C78.7429 29.3109 77.191 28.5594 75.9993 27.0285L73.2002 29.812C74.7522 31.6769 76.7198 33.1243 80.5166 33.1243C83.8145 33.1243 87.3341 31.2315 87.3341 27.3625C87.3896 23.3264 84.3411 22.547 81.8191 22.0181Z" fill="#A0A9DB"/>
<path fill-rule="evenodd" clip-rule="evenodd" d="M97.2002 28.9212C95.2603 28.9212 93.2372 27.3068 93.2372 23.7717C93.2372 20.6264 95.1217 18.8728 97.0893 18.8728C98.6413 18.8728 99.5559 19.5965 100.276 20.8491L103.824 18.4831C102.05 15.7831 99.9439 14.6418 97.0339 14.6418C91.7129 14.6418 88.8307 18.7893 88.8307 23.7996C88.8307 29.0604 92.0178 33.18 96.9785 33.18C100.47 33.18 102.133 31.9552 103.935 29.3388L100.36 26.9227C99.639 28.0862 98.863 28.9212 97.2002 28.9212Z" fill="#A0A9DB"/>
<path fill-rule="evenodd" clip-rule="evenodd" d="M115.657 15.0593V21.5727H110.309V15.0593H105.681V32.7624H110.309V25.7758H115.657V32.7624H120.286V15.0593H115.657Z" fill="#A0A9DB"/>
<path d="M13.6436 10.55C11.0017 10.55 8.41903 11.3369 6.22233 12.8111C4.02562 14.2854 2.3135 16.3807 1.30247 18.8323C0.291432 21.2838 0.0269 23.9814 0.54232 26.584C1.05774 29.1865 2.32996 31.5771 4.19811 33.4534C6.06625 35.3298 8.44642 36.6076 11.0376 37.1252C13.6288 37.6429 16.3146 37.3772 18.7555 36.3618C21.1963 35.3463 23.2826 33.6267 24.7504 31.4203C26.2182 29.214 27.0016 26.6201 27.0016 23.9665C27.0016 20.4083 25.5942 16.9957 23.0891 14.4796C20.584 11.9636 17.1864 10.55 13.6436 10.55ZM13.6436 36.1305C11.2483 36.1305 8.90681 35.4171 6.91519 34.0805C4.92357 32.7439 3.37129 30.8441 2.45465 28.6215C1.53801 26.3988 1.29817 23.953 1.76547 21.5935C2.23277 19.2339 3.38622 17.0665 5.07995 15.3654C6.77368 13.6642 8.93163 12.5057 11.2809 12.0364C13.6302 11.567 16.0653 11.8079 18.2782 12.7285C20.4912 13.6492 22.3827 15.2083 23.7134 17.2086C25.0442 19.209 25.7545 21.5607 25.7545 23.9665C25.7537 27.1924 24.4775 30.2859 22.2065 32.5669C19.9354 34.8479 16.8554 36.1297 13.6436 36.1305Z" fill="#A0A9DB"/>
<path d="M19.1586 15.5881H18.2441V20.1809H9.07086V15.5881H8.12859C6.74848 16.5026 5.61583 17.7467 4.83215 19.2089C4.04847 20.6712 3.63824 22.3059 3.63824 23.9665C3.63824 25.6271 4.04847 27.2618 4.83215 28.724C5.61583 30.1863 6.74848 31.4304 8.12859 32.3448H9.07086V27.7576H18.2441V32.3504H19.1586C20.5393 31.4364 21.6726 30.1924 22.4567 28.7301C23.2408 27.2678 23.6512 25.6329 23.6512 23.9721C23.6512 22.3112 23.2408 20.6763 22.4567 19.214C21.6726 17.7517 20.5393 16.5077 19.1586 15.5937V15.5881ZM7.79603 30.5411C6.93653 29.7741 6.23587 28.8445 5.73408 27.8055C5.23229 26.7665 4.93918 25.6383 4.8715 24.4855C4.80381 23.3327 4.96288 22.1778 5.33962 21.0868C5.71635 19.9957 6.30337 18.9899 7.06716 18.1267C7.29609 17.8699 7.53944 17.6264 7.79603 17.3974V30.5411ZM18.2441 26.4772H9.07086V21.4335H18.2441V26.4772ZM19.4912 30.5133V27.7298V20.1809V17.3974C20.3486 18.1707 21.0459 19.1061 21.5432 20.1501C22.0405 21.1941 22.3282 22.3264 22.3897 23.4821C22.4512 24.6378 22.2854 25.7944 21.9017 26.8857C21.518 27.9771 20.924 28.9818 20.1535 29.8425C19.944 30.0752 19.7229 30.2972 19.4912 30.5077V30.5133Z" fill="#A0A9DB"/>
</g>
<defs>
<clipPath id="clip0_4159_1359">
<rect width="120" height="48" fill="white"/>
</clipPath>
</defs>
</svg>
