<svg width="120" height="48" viewBox="0 0 120 48" fill="none" xmlns="http://www.w3.org/2000/svg">
<g clip-path="url(#clip0_4159_1377)">
<path d="M-0.428711 12.722C0.692712 12.5031 2.96469 12.3406 5.09831 12.3406C7.70528 12.3406 9.30731 12.5878 10.6763 13.3719C11.9943 14.0501 12.9483 15.3004 12.9483 16.9605C12.9483 18.6206 11.9652 20.1182 9.83888 20.8811V20.9376C11.9943 21.5098 13.5964 23.0851 13.5964 25.4516C13.5964 27.1117 12.8099 28.4185 11.6303 29.344C10.2539 30.4036 7.96013 31.0041 4.19535 31.0041C2.09085 31.0041 0.525231 30.8698 -0.428711 30.7356V12.722ZM3.80213 19.7438H5.20755C7.45042 19.7438 8.65918 18.8467 8.65918 17.4833C8.65918 16.1199 7.56692 15.364 5.6299 15.364C4.70509 15.364 4.1735 15.4205 3.8094 15.47V19.7438H3.80213ZM3.80213 27.8746C4.22448 27.9312 4.72694 27.9312 5.45513 27.9312C7.39211 27.9312 9.10344 27.1965 9.10344 25.2891C9.10344 23.3818 7.39211 22.7037 5.25852 22.7037H3.80213V27.8746Z" fill="#A0A9DB"/>
<path d="M14.6886 21.8915C14.6886 19.9347 14.6303 18.6561 14.5793 17.5117H18.2495L18.3878 19.9629H18.4971C19.1961 18.0344 20.8782 17.215 22.1963 17.215C22.5895 17.215 22.7861 17.215 23.092 17.2715V21.1921C22.7861 21.1073 22.422 21.0579 21.9414 21.0579C20.3685 21.0579 19.3053 21.8773 19.0214 23.1559C18.9631 23.4243 18.934 23.7564 18.934 24.0813V30.8275H14.674V21.9056L14.6886 21.8915Z" fill="#A0A9DB"/>
<path d="M29.1872 13.81C29.1872 14.9544 28.2915 15.8798 26.8861 15.8798C25.4806 15.8798 24.6432 14.9544 24.6724 13.81C24.6432 12.6161 25.5389 11.719 26.9152 11.719C28.2915 11.719 29.158 12.6161 29.1872 13.81ZM24.7816 30.8134V17.5116H29.0415V30.8134H24.7816Z" fill="#A0A9DB"/>
<path d="M44.3262 28.8849C44.3262 31.4421 43.7946 33.5402 42.2508 34.8682C40.7362 36.1186 38.69 36.5001 36.6728 36.5001C34.8814 36.5001 32.9735 36.1469 31.7356 35.4687L32.5803 32.3393C33.4469 32.8267 34.9615 33.3424 36.5636 33.3424C38.5807 33.3424 40.1244 32.2828 40.1244 29.8315V28.9626H40.0662C39.2506 30.0787 37.9326 30.7004 36.367 30.7004C32.9735 30.7004 30.5632 28.0372 30.5632 24.2014C30.5632 19.9276 33.4251 17.2079 36.7894 17.2079C38.6681 17.2079 39.8477 17.999 40.5468 19.0869H40.6051L40.7434 17.5116H44.4427C44.3844 18.3522 44.3335 19.4684 44.3335 21.4535V28.8778L44.3262 28.8849ZM40.0662 22.9298C40.0662 22.6614 40.0371 22.3859 39.9788 22.1669C39.673 21.079 38.8574 20.3444 37.6777 20.3444C36.134 20.3444 34.8742 21.7078 34.8742 24.1237C34.8742 26.1087 35.8864 27.6628 37.6777 27.6628C38.77 27.6628 39.6439 26.9564 39.9206 25.9745C40.0298 25.6778 40.0589 25.2398 40.0589 24.8866V22.9298H40.0662Z" fill="#A0A9DB"/>
<path d="M46.6274 11.5H50.8874V19.0869H50.9456C51.3972 18.5147 51.9578 18.0555 52.6278 17.7235C53.2759 17.3986 54.0551 17.2078 54.8415 17.2078C57.565 17.2078 59.633 19.0304 59.633 23.0287V30.8063H55.3731V23.4878C55.3731 21.7501 54.7541 20.5492 53.1594 20.5492C52.0379 20.5492 51.3389 21.2556 51.0257 21.9903C50.9165 22.2587 50.8874 22.6119 50.8874 22.9156V30.8063H46.6274V11.5Z" fill="#A0A9DB"/>
<path d="M66.7038 13.8948V17.5116H69.7621V20.5563H66.7038V25.374C66.7038 26.9776 67.0968 27.7122 68.3857 27.7122C68.976 27.7122 69.2302 27.684 69.6454 27.6063L69.6746 30.7357C69.1141 30.9547 68.1016 31.1171 66.9003 31.1171C65.5239 31.1171 64.3735 30.6297 63.7035 29.9445C62.9171 29.1533 62.5239 27.8747 62.5239 26.0027V20.5633H60.7034V17.5187H62.5239V15.018L66.7038 13.9018V13.8948Z" fill="#A0A9DB"/>
<path d="M71.7503 27.9311C72.8426 28.581 74.4448 29.1249 76.1267 29.1249C78.6247 29.1249 80.0809 27.8464 80.0809 25.9955C80.0809 24.279 79.069 23.3041 76.5198 22.3505C73.4322 21.2908 71.5317 19.7367 71.5317 17.1512C71.5317 14.2973 73.9713 12.171 77.6485 12.171C79.586 12.171 80.9838 12.609 81.8283 13.0682L81.1589 14.9967C80.5395 14.6717 79.2798 14.1278 77.5687 14.1278C74.9909 14.1278 74.0076 15.6254 74.0076 16.8757C74.0076 18.5923 75.1583 19.433 77.7652 20.4149C80.9618 21.6087 82.586 23.1063 82.586 25.8048C82.586 28.6305 80.4305 31.11 75.9665 31.11C74.1464 31.11 72.1505 30.566 71.1458 29.9162L71.7646 27.9311H71.7503Z" fill="#A0A9DB"/>
<path d="M87.4573 13.9513C87.4865 14.7708 86.8677 15.4207 85.8843 15.4207C85.0177 15.4207 84.3989 14.7708 84.3989 13.9513C84.3989 13.1319 85.0469 12.4537 85.9427 12.4537C86.8385 12.4537 87.4573 13.1036 87.4573 13.9513ZM84.7122 30.8205V17.6459H87.181V30.8134H84.7122V30.8205Z" fill="#A0A9DB"/>
<path d="M101.73 28.9131C101.73 31.9295 101.111 33.7803 99.7934 34.9247C98.4753 36.1256 96.5677 36.5 94.8565 36.5C93.1448 36.5 91.4336 36.1185 90.3413 35.4121L90.9608 33.5896C91.8559 34.1335 93.2615 34.6209 94.9435 34.6209C97.4706 34.6209 99.3199 33.3423 99.3199 30.0222V28.5529H99.2622C98.5045 29.7749 97.0483 30.7568 94.9435 30.7568C91.5796 30.7568 89.1692 27.9806 89.1692 24.3355C89.1692 19.871 92.1692 17.342 95.2859 17.342C97.6379 17.342 98.9339 18.5359 99.5171 19.6308H99.5748L99.6844 17.6458H101.84C101.782 18.5995 101.73 19.6591 101.73 21.2627V28.9061V28.9131ZM99.2913 22.845C99.2913 22.4353 99.2622 22.0821 99.1525 21.7572C98.7011 20.3725 97.4998 19.2282 95.7011 19.2282C93.3491 19.2282 91.6665 21.1567 91.6665 24.2084C91.6665 26.7939 93.0137 28.9414 95.679 28.9414C97.1936 28.9414 98.57 28.0159 99.1019 26.4901C99.2401 26.0804 99.2985 25.6212 99.2985 25.2115V22.845H99.2913Z" fill="#A0A9DB"/>
<path d="M104.141 21.2131C104.141 19.8497 104.111 18.7407 104.031 17.6457H106.216L106.354 19.8214H106.412C107.082 18.5711 108.655 17.349 110.898 17.349C112.777 17.349 115.69 18.4369 115.69 22.9509V30.8132H113.221V23.2264C113.221 21.1071 112.406 19.334 110.083 19.334C108.459 19.334 107.192 20.4501 106.777 21.7853C106.667 22.082 106.609 22.4917 106.609 22.9014V30.8203H104.141V21.2201V21.2131Z" fill="#A0A9DB"/>
<path d="M117.649 16.8971C118.734 16.8971 119.571 17.7165 119.571 18.7337C119.571 19.751 118.727 20.5775 117.634 20.5775C116.542 20.5775 115.69 19.7722 115.69 18.7337C115.69 17.6953 116.556 16.8971 117.634 16.8971H117.649ZM117.627 17.2644C116.797 17.2644 116.178 17.9214 116.178 18.7267C116.178 19.532 116.797 20.189 117.656 20.189C118.486 20.2031 119.098 19.5391 119.098 18.7267C119.098 17.9143 118.486 17.2644 117.641 17.2644H117.627ZM117.343 19.6803H116.906V17.8578C117.081 17.8225 117.321 17.7942 117.634 17.7942C117.991 17.7942 118.151 17.8508 118.289 17.9426C118.391 18.0203 118.472 18.1686 118.472 18.3311C118.472 18.543 118.312 18.6984 118.079 18.7691V18.7903C118.26 18.8468 118.37 18.9881 118.428 19.2353C118.486 19.5179 118.522 19.6309 118.566 19.6803H118.093C118.035 19.6097 117.998 19.4543 117.94 19.2424C117.904 19.0446 117.787 18.9528 117.547 18.9528H117.343V19.6803ZM117.35 18.649H117.562C117.802 18.649 117.998 18.5713 117.998 18.3805C117.998 18.211 117.874 18.098 117.598 18.098C117.481 18.098 117.401 18.1121 117.357 18.1192V18.6419L117.35 18.649Z" fill="#A0A9DB"/>
</g>
<defs>
<clipPath id="clip0_4159_1377">
<rect width="120" height="48" fill="white"/>
</clipPath>
</defs>
</svg>
