<svg width="120" height="48" viewBox="0 0 120 48" fill="none" xmlns="http://www.w3.org/2000/svg">
<path d="M119.251 29.7683H103.16V29.2318H119.251V29.7683ZM111.233 26.7635L112.76 25.3147L113.36 25.9049L111.723 27.2464C111.614 27.4074 111.505 27.6757 111.396 27.8366H110.196C110.389 27.3615 110.76 26.9773 111.233 26.7635ZM106.105 17.6415C106.051 17.6415 104.851 17.9635 104.851 17.9635C104.571 18.0728 104.298 18.1982 104.033 18.3391C103.76 18.5 103.487 18.7683 103.487 18.9293L104.578 19.1976C104.728 19.0235 104.892 18.8619 105.069 18.7147L105.342 18.6074L106.214 17.6952C106.269 17.6415 106.269 17.5878 106.078 17.6415H106.105ZM113.469 20.5391C112.805 19.8254 112.186 19.0728 111.614 18.2854C112.025 17.2823 112.175 16.1941 112.051 15.1196C111.828 14.7239 111.573 14.3471 111.287 13.9927C111.178 13.8318 110.687 13.2952 110.469 13.2952C110.414 13.2952 110.36 13.2952 110.36 13.3488L110.414 13.9391C109.705 14.3683 108.887 14.9049 108.178 15.4415C108.164 15.6576 108.182 15.8746 108.233 16.0854C108.347 16.1767 108.476 16.2492 108.614 16.3C109.1 16.1847 109.592 16.0952 110.087 16.0318L109.16 17.3732L108.069 18.1244L106.76 17.6952C106.651 17.6952 106.596 17.6952 106.542 17.7488L105.56 18.7683C105.527 18.7939 105.499 18.8264 105.481 18.8635C105.462 18.9007 105.452 18.9415 105.451 18.983L105.396 20.1098V20.4854C105.378 20.9274 105.513 21.3624 105.778 21.7196L106.378 20.8074C106.255 20.6075 106.163 20.3904 106.105 20.1635V19.1976L106.705 18.7683L108.342 19.8952C108.59 20.3508 108.882 20.7821 109.214 21.183C109.942 21.8082 110.727 22.3651 111.56 22.8464C111.63 23.2669 111.739 23.68 111.887 24.0805L113.851 26.0659L112.705 27.5147C112.485 27.6292 112.298 27.7982 112.164 28.0053C112.03 28.2123 111.954 28.4501 111.942 28.6952H113.305L113.469 27.9439L115.105 26.1732C115.214 26.0659 115.214 26.0122 115.16 25.9049L114.723 24.4025C115.138 23.9388 115.387 23.3547 115.433 22.7391C115.433 21.2903 113.96 20.9147 113.469 20.5122V20.5391ZM115.923 22.9C115.823 22.551 115.696 22.2101 115.542 21.8805C115.542 21.8805 115.596 21.8269 115.76 21.8805C115.923 21.9342 116.742 22.5244 116.742 22.5244C117.178 23.1147 117.451 25.6903 117.451 26.6025C116.973 26.4059 116.531 26.1341 116.142 25.7976L115.923 22.9ZM74.1416 22.3098C74.1416 21.3439 73.8143 20.5927 72.9962 20.5927C72.178 20.5927 71.7962 21.3439 71.7962 22.3098V28.6952H72.778V29.7147H67.2689V28.6952H68.3053V19.8952H67.2689V18.9025H71.578V20.5659H71.6325C71.8748 20.009 72.2778 19.5342 72.7917 19.2004C73.3055 18.8665 73.9076 18.6883 74.5234 18.6878C75.2027 18.6478 75.8732 18.8555 76.4066 19.2713C76.94 19.6871 77.2988 20.2818 77.4143 20.9415C77.5205 21.526 77.5752 22.1185 77.578 22.7122V28.722H78.8871V29.7415H74.0871L74.1416 22.283M51.8325 22.283C51.8325 21.3171 51.5053 20.5659 50.6871 20.5659C49.8689 20.5659 49.4871 21.3171 49.4871 22.283V28.6683H50.4689V29.6878H44.9598V28.6683H45.9962V19.8952H44.9598V18.9025H49.2689V20.5659H49.3234C49.5657 20.009 49.9687 19.5342 50.4826 19.2004C50.9964 18.8665 51.5986 18.6883 52.2143 18.6878C52.8937 18.6478 53.5642 18.8555 54.0975 19.2713C54.6309 19.6871 54.9897 20.2818 55.1053 20.9415C55.2114 21.526 55.2661 22.1185 55.2689 22.7122V28.722H56.578V29.7415H51.778L51.8325 22.283ZM83.6325 19.8683V27.8635C83.6242 27.9571 83.6368 28.0514 83.6695 28.1398C83.7022 28.2282 83.7542 28.3084 83.8217 28.3749C83.8893 28.4414 83.9709 28.4925 84.0607 28.5246C84.1505 28.5568 84.2464 28.5692 84.3416 28.561C84.5638 28.5555 84.7842 28.5194 84.9962 28.4537V29.4196C84.3394 29.7488 83.6044 29.8971 82.8689 29.8488C81.178 29.8488 80.1416 29.0439 80.1416 27.2732V19.8952H78.9962V19.1976C80.3053 18.1781 81.8325 16.9976 83.0325 16.0318H83.6871V18.9025H85.3507V19.8683H83.6325ZM14.8507 13.2952C14.8507 13.2952 17.5234 15.9244 18.7234 17.2659V18.2854C17.1726 16.8896 15.1526 16.1062 13.0507 16.0854C8.08707 16.0854 4.97798 19.7878 4.97798 24.3488C4.97798 28.9098 7.92343 32.5586 13.0507 32.5586C14.1207 32.5674 15.181 32.36 16.1662 31.9493C17.1514 31.5386 18.0403 30.9332 18.778 30.1708V31.1366C17.2507 33.2293 14.4143 34.5708 10.8689 34.5708C4.54162 34.6244 0.177979 30.1171 0.177979 24.3757C0.187921 23.0074 0.472833 21.6545 1.01632 20.395C1.5598 19.1354 2.35113 17.9941 3.34476 17.0365C4.33839 16.079 5.5147 15.3242 6.80599 14.8157C8.09729 14.3071 9.47808 14.0548 10.8689 14.0732C12.2226 14.0773 13.5669 14.2947 14.8507 14.7171V13.2952ZM65.6325 26.8708C65.3398 27.2116 64.9707 27.4811 64.5543 27.658C64.1379 27.8349 63.6854 27.9144 63.2325 27.8903C62.2507 27.8903 60.6689 27.3537 60.6143 24.8318H66.5053C66.5053 24.6171 66.5598 24.2415 66.5598 24.0269C66.5598 20.9683 65.3053 18.7147 61.978 18.7147C58.6507 18.7147 56.9598 21.2366 56.9598 24.3488C56.9598 27.461 58.6507 29.9293 61.978 29.9293C62.8694 29.9762 63.7549 29.7615 64.5221 29.3125C65.2893 28.8635 65.9036 28.2004 66.2871 27.4074L65.6325 26.8708ZM60.5598 23.7586C60.5598 20.9147 60.778 19.8415 61.7598 19.8415C62.7416 19.8415 62.9598 20.861 63.0143 23.7586H60.5598ZM11.9598 24.2952C11.9598 20.9683 12.2871 19.5196 13.4325 19.5196C14.578 19.5196 14.9053 20.9683 14.9053 24.2952C14.9053 27.622 14.578 29.0708 13.4325 29.0708C12.2871 29.0708 11.9598 27.622 11.9598 24.2952ZM7.86889 24.3488C7.86889 27.622 9.88707 30.3049 13.4325 30.3049C16.978 30.3049 18.9962 27.622 18.9962 24.3488C18.9962 21.0757 16.978 18.3659 13.4325 18.3659C9.88707 18.3659 7.86889 21.0488 7.86889 24.322M26.7416 22.283C26.7416 21.3171 26.4143 20.5659 25.5962 20.5659C24.778 20.5659 24.3962 21.3171 24.3962 22.283V28.6683H25.3507V29.6878H19.8689V28.6683H20.9053V19.8952H19.8689V18.9025H24.178V20.5659H24.2325C24.4748 20.009 24.8778 19.5342 25.3917 19.2004C25.9055 18.8665 26.5076 18.6883 27.1234 18.6878C27.8028 18.6478 28.4733 18.8555 29.0066 19.2713C29.54 19.6871 29.8988 20.2818 30.0143 20.9415C30.1205 21.526 30.1752 22.1185 30.178 22.7122V28.722H31.4871V29.7415H26.6871V22.3098L26.7416 22.283ZM39.2325 16.0049C39.2325 16.9708 40.1053 17.6147 41.3598 17.6147C42.6143 17.6147 43.4871 16.9708 43.4871 16.0049C43.4871 15.0391 42.6143 14.3952 41.3598 14.3952C40.1053 14.3952 39.2325 15.0927 39.2325 16.0049ZM36.2325 19.8683V27.8635C36.2242 27.9571 36.2368 28.0514 36.2695 28.1398C36.3022 28.2282 36.3542 28.3084 36.4217 28.3749C36.4893 28.4414 36.5709 28.4925 36.6607 28.5246C36.7505 28.5568 36.8464 28.5692 36.9416 28.561C37.1638 28.5555 37.3841 28.5194 37.5962 28.4537V29.4196C36.9394 29.7488 36.2044 29.8971 35.4689 29.8488C33.778 29.8488 32.7416 29.0439 32.7416 27.2732V19.8952H31.5962V19.1976C32.9053 18.1781 34.4325 16.9976 35.6325 16.0318H36.2598V18.9025H37.6234V19.8683H36.2325ZM100.596 28.722H101.96V29.7415H97.1053V15.9244H95.9053V14.9049H100.623V28.7488L100.596 28.722ZM91.2689 24.3757C91.0531 24.2077 90.7786 24.1306 90.5052 24.161C89.4689 24.161 89.2507 25.1805 89.2507 26.2C89.2507 27.2196 89.578 28.0244 90.4507 28.0244C90.6033 28.0389 90.7572 28.0173 90.8996 27.9613C91.0419 27.9053 91.1686 27.8165 91.2689 27.7025V24.3757ZM91.378 28.4537C91.0653 28.9248 90.6358 29.31 90.1301 29.5728C89.6243 29.8356 89.0589 29.9676 88.4871 29.9561C86.6871 29.9561 85.5962 28.4537 85.5962 26.6293C85.5962 24.483 87.178 23.0878 89.6871 23.0878C90.223 23.0691 90.7582 23.1417 91.2689 23.3025V22.6049C91.2921 22.3384 91.2559 22.0702 91.1627 21.8189C91.0695 21.5676 90.9216 21.3395 90.7293 21.1503C90.5371 20.9612 90.3051 20.8157 90.0497 20.724C89.7943 20.6323 89.5216 20.5967 89.2507 20.6196C88.7581 20.6205 88.2731 20.738 87.8364 20.9622C87.3997 21.1863 87.0242 21.5105 86.7416 21.9074L86.1416 21.1561C86.6 20.4176 87.24 19.8044 88.0026 19.373C88.7651 18.9417 89.6258 18.706 90.5052 18.6878C93.178 18.6878 94.7598 20.2439 94.7598 22.6049V28.722H95.9053V29.7415H91.4325L91.378 28.4537ZM38.6325 29.7415V28.722H39.6143V19.8952H38.6325V18.9025H43.1053V28.722H44.1416V29.7415H38.6325Z" fill="#A0A9DB"/>
</svg>
