<svg width="140" height="60" viewBox="0 0 140 60" fill="none" xmlns="http://www.w3.org/2000/svg">
<path d="M90.0625 18.5617L90.175 18.4867C89.95 18.0742 89.6125 17.6992 89.275 17.5117L71.1625 7.08672C70.8625 6.89922 70.45 6.82422 70 6.82422C69.55 6.82422 69.1375 6.93672 68.8375 7.08672L50.8375 17.5492C50.2 17.9242 49.75 18.8617 49.75 19.5742V40.4617C49.75 40.8742 49.825 41.3242 50.0875 41.7367L50.0125 41.7742C50.2 42.0742 50.4625 42.3367 50.725 42.4867L68.8 52.9492C69.1 53.1367 69.5125 53.2117 69.9625 53.2117C70.4125 53.2117 70.825 53.0992 71.125 52.9492L89.125 42.4867C89.7625 42.1117 90.2125 41.1742 90.2125 40.4617V19.5367C90.25 19.2367 90.2125 18.8992 90.0625 18.5617ZM70 44.8117C61.825 44.8117 55.1875 38.1742 55.1875 29.9992C55.1875 21.8242 61.825 15.1867 70 15.1867C75.5125 15.1867 80.3125 18.2242 82.8625 22.6867L77.9875 25.4992C76.4125 22.6867 73.4125 20.8117 70 20.8117C64.9375 20.8117 60.8125 24.9367 60.8125 29.9992C60.8125 35.0617 64.9375 39.1867 70 39.1867C73.4125 39.1867 76.4125 37.3117 77.9875 34.5367L82.825 37.3867C80.275 41.8117 75.475 44.8117 70 44.8117ZM89.125 29.2492H87.925L87.5875 30.7492H89.125V32.6242H87.25L86.8 34.8742H84.9625L85.4125 32.6242H83.9875L83.5375 34.8742H81.7375L82.1875 32.6242H81.25V30.7492H82.5625L82.9 29.2492H81.25V27.3742H83.2375L83.6875 25.1242H85.525L85.075 27.3742H86.5L86.95 25.1242H88.75L88.3 27.3742H89.125V29.2492ZM84.3625 30.7492H85.7875L86.125 29.2492H84.7L84.3625 30.7492Z" fill="#A0A9DB"/>
</svg>
