<svg width="120" height="48" viewBox="0 0 120 48" fill="none" xmlns="http://www.w3.org/2000/svg">
<path d="M43.9792 26.7629L43.7758 26.9618C43.674 27.0613 41.0801 29.5968 40.1645 32.1324H35.6375C36.6549 28.3541 41.6392 24.4756 41.6897 24.4263L41.9436 24.2274L41.6897 24.0285C41.6384 23.9783 37.3158 20.4491 35.6879 16.4711H40.2653C41.3332 19.6034 43.6219 21.4428 43.7236 21.4929L43.8758 21.6417L44.0279 21.4929C44.1297 21.3935 46.4697 19.5541 47.5879 16.4711H52.1653C50.4358 20.4483 46.1132 23.9783 46.0619 24.0285L45.8079 24.2274L46.0619 24.4263C46.1132 24.4764 51.0975 28.304 52.2158 32.1324H47.6888C46.8245 29.6461 44.1288 27.0613 44.0271 26.9618L43.9758 26.7629H43.9792ZM26.8897 32.4307C30.2975 32.4307 32.4845 31.0384 33.2471 30.4417C32.7384 30.1935 30.9584 29.3478 30.7036 29.199C30.3479 29.5968 29.1775 29.9946 27.2453 29.9946C24.8549 29.9946 23.8375 29.0001 23.8375 25.6197V25.3715H24.0914C28.0079 25.3715 30.9575 24.6753 33.501 23.0841C33.5523 22.8852 33.7045 22.2392 33.7045 21.6918C33.7045 19.1061 31.9245 16.1235 26.9401 16.1235C21.6505 16.1235 19.0566 18.8086 19.0566 24.2767C19.0566 29.9938 21.3966 32.4299 26.8897 32.4299V32.4307ZM23.8384 23.1343C23.8384 20.7475 24.194 18.4108 27.0427 18.4108C28.5175 18.4108 29.5349 19.107 29.5349 20.8971C29.5349 21.4436 29.2297 22.0403 29.2297 22.0905L29.1784 22.1899L29.0262 22.2894C27.6019 23.0348 26.8392 23.4326 24.0923 23.4326H23.8384V23.1343ZM15.7001 24.1279C15.7001 18.6097 12.8514 15.9246 7.05403 15.9246H0.74707V32.4307H7.05403C12.8523 32.3814 15.7001 29.6963 15.7001 24.1279ZM5.37577 18.4601H7.20707C7.61403 18.4601 8.02098 18.5094 8.47837 18.659C9.95316 19.4045 10.6653 20.8469 10.6653 24.1772C10.6653 27.856 9.80098 29.3478 7.96968 29.8943L7.20707 29.9436H5.37577V18.4593V18.4601ZM119.611 17.0185C119.458 16.7202 119.204 16.472 118.898 16.3224C118.593 16.1728 118.288 16.0742 117.983 16.0742C117.677 16.0742 117.372 16.1736 117.067 16.3224C116.762 16.4711 116.508 16.7202 116.355 17.0185C116.203 17.3169 116.101 17.6152 116.101 17.9629C116.101 18.2612 116.203 18.6089 116.355 18.8579C116.507 19.1563 116.762 19.3552 117.067 19.5541C117.372 19.7028 117.677 19.8023 117.983 19.8023C118.288 19.8023 118.644 19.7028 118.898 19.5541C119.204 19.4053 119.407 19.1563 119.611 18.8579C119.763 18.5596 119.864 18.2612 119.864 17.9629C119.864 17.6152 119.813 17.3169 119.611 17.0185ZM119.357 18.7092C119.204 18.9574 119.001 19.1563 118.797 19.2557C118.544 19.4045 118.289 19.4546 118.035 19.4546C117.781 19.4546 117.476 19.4045 117.272 19.2557C117.018 19.107 116.815 18.9081 116.662 18.7092C116.51 18.461 116.458 18.2119 116.458 17.9637C116.458 17.7155 116.51 17.4172 116.662 17.1681C116.814 16.9199 117.017 16.721 117.272 16.6216C117.526 16.4728 117.781 16.4227 118.035 16.4227C118.289 16.4227 118.544 16.472 118.797 16.6216C119.051 16.7703 119.255 16.9692 119.408 17.1681C119.56 17.4163 119.611 17.6654 119.611 17.9637C119.56 18.2119 119.51 18.461 119.357 18.7092H119.357ZM118.339 18.1626C118.288 18.1133 118.237 18.0632 118.187 18.0632C118.339 18.0632 118.492 18.0139 118.594 17.8643C118.696 17.7648 118.746 17.6161 118.746 17.4665C118.746 17.367 118.695 17.2676 118.644 17.1681C118.594 17.0687 118.492 17.0194 118.391 16.9692C118.289 16.9199 118.137 16.9199 117.882 16.9199H117.17V18.9089H117.475V18.1133H117.678C117.78 18.1133 117.882 18.1133 117.932 18.1626C118.034 18.2119 118.136 18.3615 118.288 18.6097L118.491 18.9081H118.898L118.644 18.5604C118.492 18.4117 118.391 18.2621 118.339 18.1626ZM117.881 17.8643H117.474V17.2676H117.83C117.982 17.2676 118.084 17.2676 118.135 17.3169C118.186 17.3169 118.237 17.3662 118.287 17.4163C118.337 17.4665 118.338 17.5158 118.338 17.5651C118.338 17.6144 118.287 17.7138 118.237 17.764C118.237 17.8133 118.084 17.8634 117.881 17.8634V17.8643ZM110.608 32.0831V20.5987C110.608 18.9582 110.404 18.461 109.184 18.461C107.047 18.461 106.183 19.9026 106.132 19.9527L106.082 20.0029V32.0839H101.555V20.5996C101.555 18.9591 101.351 18.4618 100.131 18.4618C97.994 18.4618 97.1297 19.9034 97.0792 19.9536L97.0288 20.0037V32.0848H92.5532V19.6552C92.5532 18.6114 91.4853 17.6169 90.3149 17.0202C91.2305 16.772 93.7732 16.0257 93.9262 15.9764C94.4349 16.1753 95.6558 16.7219 96.0114 17.2191L96.1636 17.418L96.3671 17.2693C96.3671 17.2693 98.4019 16.0266 101.046 16.0266C102.979 16.0266 104.352 16.3742 105.166 17.1205L105.318 17.22L105.471 17.1707C107.149 16.4252 108.675 16.0274 110.048 16.0274C113.71 16.0274 115.032 17.469 115.032 18.812V32.0865H110.607L110.608 32.0831ZM59.6958 24.2775C59.6958 28.4536 60.8653 29.9946 63.3575 29.9946C65.2392 29.9946 66.2053 29.647 66.5618 29.2492C66.8671 29.3979 68.6471 30.293 69.1558 30.542C68.4949 31.0886 66.4601 32.4809 63.2558 32.4809C57.7114 32.4809 54.8132 29.647 54.8132 24.3277C54.8132 18.9582 57.7123 16.1745 63.2558 16.1745C66.4601 16.1745 68.4949 17.5668 69.1558 18.1133C68.6471 18.3615 66.8671 19.2566 66.5618 19.4062C66.2062 19.0084 65.2905 18.6607 63.4088 18.6607C60.8653 18.5613 59.6958 20.053 59.6958 24.2784V24.2775ZM79.3792 16.0742C74.3436 16.0742 71.2923 19.107 71.2923 24.2274C71.2923 29.3478 74.2932 32.3814 79.3792 32.3814C84.4149 32.3814 87.3645 29.3486 87.3645 24.2282C87.4149 19.1571 84.4149 16.075 79.3792 16.075V16.0742ZM79.3792 29.7957C77.1923 29.7957 76.2262 28.4536 76.2262 24.2775C76.2262 20.1015 77.1923 18.7593 79.3792 18.7593C81.5158 18.7593 82.4305 20.0522 82.4305 24.2775C82.481 28.5037 81.5662 29.7957 79.3792 29.7957Z" fill="#A0A9DB"/>
</svg>
