<svg width="140" height="60" viewBox="0 0 140 60" fill="none" xmlns="http://www.w3.org/2000/svg">
<path d="M68.8037 6H76.5978V42.332C72.5995 43.096 69.6638 43.402 66.4758 43.402C56.9597 43.402 52 39.07 52 30.762C52 22.758 57.2636 17.562 65.4132 17.562C66.6784 17.562 67.6398 17.662 68.8037 17.968V6ZM68.8037 24.286C67.9564 23.9981 67.066 23.86 66.1719 23.878C62.2233 23.878 59.947 26.324 59.947 30.608C59.947 34.788 62.124 37.08 66.1223 37.08C66.9823 37.08 67.6914 37.03 68.8037 36.876V24.286ZM89 18.12V36.316C89 42.584 88.5451 45.592 87.1786 48.19C85.9134 50.688 84.2429 52.268 80.8007 54L73.5628 50.534C77.005 48.904 78.6754 47.474 79.7381 45.284C80.8524 43.042 81.2059 40.442 81.2059 33.614V18.118L89 18.12ZM81.2059 6.042H89V14.094H81.2059V6.042Z" fill="#A0A9DB"/>
</svg>
