<svg width="140" height="60" viewBox="0 0 140 60" fill="none" xmlns="http://www.w3.org/2000/svg">
<path d="M53.6547 30.8066H24V46.0172H38.8426C46.7853 46.0172 53.2713 39.2859 53.6547 30.8066Z" fill="#A0A9DB"/>
<path d="M38.8426 14H24V29.2106H53.6699C53.2713 20.7313 46.7853 14 38.8426 14Z" fill="#A0A9DB"/>
<path d="M101.173 14C93.23 14 86.7286 20.7467 86.3453 29.2106H115.985C115.617 20.7313 109.115 14 101.173 14Z" fill="#A0A9DB"/>
<path d="M116 30.8066H86.3453C86.7286 39.2859 93.2146 46.0172 101.173 46.0172C109.115 46.0172 115.617 39.2859 116 30.8066Z" fill="#A0A9DB"/>
<path d="M55.157 14V30.0079C55.157 38.5794 61.3977 45.5867 69.2636 46.0006V14H55.157Z" fill="#A0A9DB"/>
<path d="M84.843 14H70.7518V46.016H84.843V30.0079V14Z" fill="#A0A9DB"/>
</svg>
