<svg width="504" height="100" viewBox="0 0 504 100" fill="none" xmlns="http://www.w3.org/2000/svg">
  <g clip-path="url(#clip0_1040_223)">
    <mask id="mask0_1040_223" style="mask-type:luminance" maskUnits="userSpaceOnUse" x="0" y="0" width="504"
      height="100">
      <path d="M504 0H0V100H504V0Z" fill="#A0A9DB" />
    </mask>
    <g mask="url(#mask0_1040_223)">
      <path fill-rule="evenodd" clip-rule="evenodd"
        d="M187.413 60.7181L184.416 71.246H153.732V69.7619L157.704 66.926V33.054L153.732 30.2181V28.734H185.849L186.565 29.476L184.547 38.9919H183.114C181.811 33.12 179.92 32.3119 170.539 32.3119H166.044V47.8981L180.832 46.954L181.158 47.2219L179.789 52.216L179.399 52.3519L166.044 51.004V67.6681H170.279C177.9 67.6681 181.876 66.456 185.98 60.18L187.413 60.7181ZM503.451 30.2181L499.476 33.054V70.704L498.955 71.246H492.636L469.312 37.846V66.926L474.002 69.7619V71.246H461.103V69.7619L465.078 66.926V32.92L460.518 30.2181V28.734H472.83L495.242 60.9881V33.054L490.551 30.2181V28.734H503.451V30.2181ZM436.345 66.926L441.036 69.7619V71.246H424.099V69.7619L428.074 66.926V33.054L424.099 30.2181V28.734H441.3C453.286 28.734 459.474 32.986 459.474 41.15C459.474 50.4619 450.745 56.806 437.781 56.806C437.194 56.806 436.673 56.806 436.345 56.736V66.926ZM420.842 30.2181L416.803 32.986L403.381 71.246H395.628L381.359 33.1881L377.192 30.2181V28.734H394V30.2181L389.896 33.12L401.493 63.956H401.95L411.723 33.054L407.551 30.2181V28.734H420.842V30.2181ZM436.345 53.23C445.467 53.5 451.004 48.9781 451.004 41.356C451.004 35.0781 447.88 31.9081 441.623 31.9081C439.864 31.9081 437.848 32.3781 436.345 33.12V53.23ZM263.311 53.634C263.311 64.2281 256.469 71.786 246.893 71.786C244.093 71.786 241.746 71.0419 239.467 70.0319V80.4219L244.157 83.2559V84.74H227.543V83.2559L231.585 80.4219V43.446L227.543 40.9481V39.4619L238.295 37.236L239.467 38.0481V42.77C242.008 39.396 246.047 37.306 250.217 37.306C257.97 37.306 263.311 44.3219 263.311 53.634ZM289.567 44.7281H288.133C287.09 44.0519 285.982 43.714 284.874 43.714C282.466 43.714 280.186 44.66 278.165 46.48V66.926L282.986 69.7619V71.246H266.179V69.7619L270.218 66.926V43.446L266.179 40.9481V39.4619L276.991 37.236L278.165 38.0481V43.376C280.25 39.8681 283.899 37.3719 287.546 37.3719C289.241 37.3719 290.675 37.846 291.847 38.72L289.567 44.7281ZM314.061 54.0381C309.698 54.0381 304.813 53.904 299.471 53.7019C300.187 61.26 304.159 65.644 310.676 65.644C314.584 65.644 317.123 64.6319 319.274 62.744L320.641 63.824C318.492 69.1519 313.671 72.054 307.416 72.054C297.84 72.054 291.39 65.24 291.39 54.8481C291.39 44.93 297.776 37.236 307.483 37.236C311.978 37.236 315.366 38.72 317.777 41.624C320.187 44.526 321.359 48.3019 321.295 52.9581L320.316 53.9719C319.015 54.0381 316.928 54.0381 314.061 54.0381ZM326.96 61.664H328.33C330.871 65.9819 334.585 68.4781 337.777 68.4781C340.645 68.4781 342.404 66.9259 342.404 64.4981C342.404 61.73 340.839 60.246 336.929 58.696L333.997 57.5481C328.461 55.3881 325.137 51.9481 325.137 47.426C325.137 41.826 330.22 37.5081 337.777 37.5081C342.14 37.5081 346.31 38.5881 349.374 40.476L346.246 46.01H344.943C342.794 42.5681 340.124 40.814 336.995 40.814C334.195 40.814 332.369 42.4319 332.369 44.66C332.369 47.0881 334.064 48.5719 339.08 50.5981L342.404 51.9481C347.484 53.9719 349.7 57.144 349.7 61.26C349.7 67.736 344.681 71.786 337.06 71.786C332.369 71.786 327.614 70.504 324.16 68.2781L326.96 61.664ZM355.562 61.664H356.929C359.471 65.9819 363.184 68.4781 366.375 68.4781C369.242 68.4781 371.001 66.9259 371.001 64.4981C371.001 61.73 369.439 60.246 365.528 58.696L362.597 57.5481C357.06 55.3881 353.739 51.9481 353.739 47.426C353.739 41.826 358.819 37.5081 366.375 37.5081C370.744 37.5081 374.909 38.5881 377.974 40.476L374.848 46.01H373.54C371.391 42.5681 368.724 40.814 365.595 40.814C362.792 40.814 360.969 42.4319 360.969 44.66C360.969 47.0881 362.664 48.5719 367.68 50.5981L371.001 51.9481C376.084 53.9719 378.3 57.144 378.3 61.26C378.3 67.736 373.283 71.786 365.659 71.786C360.969 71.786 356.214 70.504 352.76 68.2781L355.562 61.664ZM211.193 54.174L220.769 66.926L224.352 69.7619V71.246H208.131V69.7619L211.52 67.1281L205.002 57.954L198.748 67.1281L202.527 69.7619V71.246H189.628V69.7619L193.604 66.994L202.919 55.12L193.407 42.5681L189.759 39.6V38.116H205.914V39.6L202.593 42.23L209.042 51.34L215.297 42.23L211.52 39.6V38.116H224.417V39.6L220.443 42.366L211.193 54.174ZM313.02 49.6519C312.302 43.714 309.634 40.88 306.049 40.88C302.141 40.88 299.535 44.8619 299.34 50.5319L313.02 49.6519ZM255.492 57.074C255.492 49.586 251.976 43.376 246.306 43.376C243.962 43.376 241.682 44.1881 239.467 45.874V63.62C241.292 66.5219 244.093 67.94 247.414 67.94C252.366 67.94 255.492 63.89 255.492 57.074ZM31.2016 100C17.7172 100 9.11641 92.154 9.11641 81.25C9.11641 77.6581 10.1437 73.2719 14.1236 64.3619H0L12.9669 35.636H103.229C105.284 35.636 106.695 34.0419 106.695 32.1819C106.695 30.3181 105.284 28.7219 103.229 28.7219H30.1725L36.593 14.494C40.5729 5.718 49.1757 0 58.547 0H89.2351C106.952 0 120.049 12.632 120.049 29.12C120.049 48.67 102.716 64.3619 82.6869 64.3619H23.3694C21.5697 68.2181 23.6243 71.2781 27.9903 71.2781H75.2389C83.0711 71.2781 89.1058 76.994 89.1058 84.3081C89.1058 92.686 81.2752 100 72.4139 100H31.2016Z"
        fill="#A0A9DB" />
    </g>
  </g>
  <defs>
    <clipPath id="clip0_1040_223">
      <rect width="504" height="100" fill="#A0A9DB" />
    </clipPath>
  </defs>
</svg>