<svg width="120" height="48" viewBox="0 0 120 48" fill="none" xmlns="http://www.w3.org/2000/svg">
<path d="M64.8855 9V27.716C64.8855 31.3907 65.7917 33.0678 69.7416 33.0678C70.6771 33.0678 71.9625 32.8269 72.933 32.6189L72.3088 28.8681C71.652 29.0068 71.0777 28.9901 70.6622 29.0003C68.9348 29.0428 69.084 28.4747 69.084 26.845V19.7999H72.3719V16.6779H69.084V9H64.8855ZM78.6424 9L74.4439 9.0006L74.4445 12.1815V33.0679H80.7143V29.8766H78.6424L78.6424 9ZM27.201 9.0001C22.8704 9.0001 22.1313 10.4747 22.1313 13.8727V16.678L20 17.0287V19.7999H22.1313V29.8766H20.0001V33.0683L28.4391 33.0674V29.8767H26.3299V19.7999H29.4978V16.6779H26.3299V14.2502C26.3299 12.7586 26.7157 12.6063 28.2414 12.6063C28.6569 12.6063 28.983 12.6248 29.6404 12.729L30.2157 9.31328C29.245 9.1383 28.1363 9.0001 27.201 9.0001ZM36.0111 13.4224V14.4894H36.5233V15.9402H36.5524C32.5368 16.6799 29.4937 20.1984 29.4937 24.4304C29.4937 29.1999 33.3576 33.0663 38.124 33.0663C39.7508 33.0663 41.272 32.6153 42.5708 31.8324L43.3271 33.0679H47.7619V28.8681H46.7584L46.7556 15.7947H42.5572V17.0207C41.6925 16.5016 40.7292 16.1304 39.7026 15.9402H39.7263V14.4894H40.2386V13.4224H36.0111ZM56.1687 15.7674C52.2271 15.7674 49.8603 17.1566 49.8603 20.6976C49.8603 24.4386 52.7812 25.6959 56.4617 26.3252C58.4153 26.7216 59.013 27.1189 59.013 27.9462C59.013 28.5423 58.6758 29.6635 56.5917 29.6635C55.8428 29.6635 54.4083 29.69 53.0401 29.4256L53.0419 28.8681H49.8626V32.0055C51.8153 32.5013 54.3744 33.0679 57.0119 33.0679C60.9534 33.0679 62.826 31.1869 62.826 27.5462C62.826 23.7072 59.7186 22.982 56.6245 22.287C54.5078 21.8239 54.2366 21.394 54.2366 20.5989C54.2366 20.0369 54.4749 19.0001 56.4288 19.0001C57.113 19.0001 58.3743 19.0034 59.6445 19.2352V19.7942H62.823V16.6779C60.8693 16.1818 58.839 15.7674 56.1687 15.7674ZM91.3406 16.6779V19.797H93.4059L90.3572 27.3018L87.3087 19.797H89.3783V16.678H80.7143V19.797H82.7842L88.1654 33.0466C87.5425 34.9527 85.5508 36.0474 83.7851 36.0474C83.404 36.0474 82.6775 35.9791 82.123 35.8753L81.7432 39.6883C82.6075 39.8961 83.8537 40 84.7899 40C88.5973 40 91.0974 36.5434 92.6194 32.8708L97.9302 19.7969H100V16.6779L91.3406 16.6779ZM38.3755 19.9831C40.5856 20.1013 42.3659 21.836 42.5583 24.027V24.1714H42.0543V24.6747H42.5584V24.8125C42.3671 27.0046 40.5863 28.7403 38.3755 28.8586V28.3647H37.8725V28.8572C35.6191 28.7259 33.8167 26.9142 33.6991 24.6558H34.1991V24.1525H33.7017C33.8354 21.9097 35.6304 20.1154 37.8725 19.9846V20.4796H38.3755V19.9831ZM40.0081 22.2321L38.3854 23.6469C38.3035 23.6176 38.216 23.6008 38.1244 23.6008C37.6866 23.6008 37.3321 23.9659 37.3321 24.4158C37.3321 24.8663 37.6866 25.2313 38.1244 25.2313C38.5621 25.2313 38.9174 24.8663 38.9174 24.4158C38.9174 24.3304 38.9044 24.2481 38.8807 24.1707L40.3276 22.5519L40.0081 22.2321ZM98.3906 29.8938C97.5083 29.8938 96.7979 30.5955 96.7978 31.4786C96.7978 32.3613 97.5082 33.0629 98.3906 33.0629C99.2729 33.0629 99.9875 32.3613 99.9875 31.4786C99.9875 30.5955 99.2729 29.8938 98.3906 29.8938ZM98.3906 30.161C99.1235 30.161 99.7206 30.7448 99.7206 31.4786C99.7206 32.2119 99.1235 32.8138 98.3906 32.8138C97.6578 32.8138 97.0647 32.2118 97.0647 31.4786C97.0647 30.7449 97.6578 30.161 98.3906 30.161ZM97.7844 30.6995V32.257H98.1417V31.7862H98.3633L98.6847 32.257H99.1235L98.7345 31.7227C98.9334 31.664 99.0602 31.4917 99.0602 31.2386C99.0602 30.8942 98.8203 30.6995 98.4356 30.6995H97.7844ZM98.1417 31.012H98.4356C98.5898 31.012 98.6983 31.0757 98.6983 31.2387C98.6983 31.4104 98.5898 31.4737 98.4268 31.4737H98.1417V31.012Z" fill="#A0A9DB"/>
</svg>
