<svg width="140" height="60" viewBox="0 0 140 60" fill="none" xmlns="http://www.w3.org/2000/svg">
<g clip-path="url(#clip0_5104_5160)">
<path d="M31.2728 38.303V29.987H29.7253V27.6079H31.2728V26.1062C31.2025 24.8202 31.5859 23.5508 32.3539 22.5256C33.0655 21.6516 34.1383 21.165 35.2544 21.2099C36.273 21.2216 37.276 21.4661 38.1887 21.9254L37.575 24.2588C37.3181 24.1244 37.0471 24.0199 36.7671 23.9473C36.4893 23.8678 36.2026 23.8252 35.9141 23.8206C34.8525 23.8206 34.3216 24.5444 34.3216 25.992V27.6089H37.2283V29.988H34.3216V38.304L31.2728 38.303Z" fill="#A0A9DB"/>
<path d="M48.5407 28.8778C47.6853 28.8775 46.8398 29.0627 46.0605 29.4208C45.3693 29.7303 44.8119 30.2837 44.4916 30.9785V38.3018H41.4427V26.1985H44.2411V28.7853C44.6146 27.9981 45.1637 27.3101 45.8447 26.7759C46.435 26.2926 47.1678 26.0242 47.9261 26.0137C48.0938 26.0137 48.2186 26.0137 48.3014 26.0251C48.3817 26.0324 48.4616 26.0439 48.5407 26.0593V28.8778Z" fill="#A0A9DB"/>
<path fill-rule="evenodd" clip-rule="evenodd" d="M57.7297 38.5334C56.8336 38.5472 55.9441 38.374 55.1166 38.0245C54.3744 37.7087 53.7042 37.241 53.1478 36.6506C52.61 36.074 52.1889 35.3959 51.9082 34.6548C51.3338 33.1158 51.3338 31.4167 51.9082 29.8778C52.1886 29.1355 52.6098 28.4564 53.1478 27.8788C53.7048 27.2891 54.3748 26.8215 55.1166 26.5049C55.9449 26.1555 56.835 25.9826 57.7318 25.997C58.6257 25.9817 59.513 26.1546 60.3378 26.5049C61.8114 27.14 62.9657 28.3583 63.5339 29.8778C64.1098 31.4164 64.1098 33.1161 63.5339 34.6548C63.2551 35.3946 62.8384 36.073 62.3066 36.6528C61.7542 37.2445 61.0856 37.7119 60.3439 38.0245C59.516 38.3742 58.6262 38.5474 57.7297 38.5334ZM54.8568 33.74C54.6921 33.2695 54.6111 32.773 54.6175 32.2737V32.2727C54.613 31.7776 54.6941 31.2855 54.8568 30.8188C55.0028 30.3947 55.2266 30.0024 55.5166 29.663C55.7922 29.3437 56.1286 29.0844 56.5056 28.9008C56.8887 28.7151 57.3083 28.6203 57.7329 28.6235C58.1561 28.6205 58.575 28.7113 58.9602 28.8893C59.3381 29.0663 59.6751 29.3222 59.9492 29.6402C60.2394 29.9789 60.4633 30.3709 60.6089 30.7949C60.7715 31.2617 60.8526 31.7537 60.8482 32.2488C60.8541 32.7518 60.7731 33.2519 60.6089 33.7265C60.4631 34.1507 60.2393 34.543 59.9492 34.8823C59.6748 35.1997 59.3379 35.4551 58.9602 35.6321C58.179 35.9855 57.2867 35.9855 56.5056 35.6321C56.1279 35.4551 55.7909 35.1997 55.5166 34.8823C55.2287 34.5464 55.005 34.159 54.8568 33.74Z" fill="#A0A9DB"/>
<path d="M79.3256 38.3034H76.2768V31.5119C76.3347 30.7677 76.1593 30.024 75.7757 29.3872C75.451 28.9447 74.9318 28.6939 74.3888 28.7174C74.0693 28.7202 73.7531 28.7829 73.4561 28.9022C73.1321 29.0278 72.8289 29.2029 72.557 29.4215C72.2696 29.6517 72.0133 29.9195 71.7951 30.218C71.5687 30.5232 71.3988 30.8677 71.294 31.2346V38.3034H68.2461V26.1991H70.9994V28.4401C71.4471 27.6613 72.1119 27.0343 72.9099 26.6384C73.7859 26.1973 74.753 25.9755 75.7307 25.9914C76.3629 25.9649 76.9909 26.1082 77.5512 26.4068C78.0018 26.665 78.378 27.0384 78.6425 27.4899C78.9095 27.9614 79.0906 28.4778 79.1774 29.0144C79.2761 29.5864 79.3257 30.1658 79.3256 30.7465V38.3034Z" fill="#A0A9DB"/>
<path d="M91.3347 37.6772C90.8418 37.8923 90.3365 38.0772 89.822 38.2307C89.214 38.4177 88.5811 38.5116 87.9457 38.509C87.5415 38.5114 87.1397 38.4569 86.7503 38.347C86.3925 38.2463 86.0586 38.0693 85.7728 37.8278C85.482 37.5765 85.2517 37.2602 85.101 36.9035C84.9229 36.4684 84.8375 35.9998 84.8508 35.5286V28.5709H83.3033V26.197H84.8508V22.2695H87.8993V26.197H90.4243V28.5761H87.8993V34.4891C87.8637 34.8313 87.9904 35.1704 88.2406 35.4019C88.4767 35.5812 88.765 35.6745 89.0591 35.6667C89.3772 35.6673 89.6928 35.6128 89.9927 35.5058C90.2942 35.4019 90.5394 35.3053 90.72 35.2285L91.3347 37.6772Z" fill="#A0A9DB"/>
<path fill-rule="evenodd" clip-rule="evenodd" d="M98.0902 38.0372C98.9137 38.3775 99.7968 38.5464 100.686 38.5335V38.5346C101.893 38.5675 103.086 38.2598 104.131 37.6457C105.038 37.1142 105.77 36.3221 106.235 35.3694L103.62 34.631C103.401 35.1467 103.01 35.5677 102.516 35.82C101.99 36.1169 101.399 36.272 100.797 36.2708C100.41 36.2722 100.024 36.2018 99.6609 36.063C98.9253 35.7848 98.323 35.2311 97.9768 34.5158C97.7871 34.1173 97.6711 33.6868 97.6355 33.2457H106.848C106.883 33.094 106.902 32.9391 106.906 32.7836C106.917 32.5988 106.917 32.4066 106.917 32.2062C106.919 31.4016 106.777 30.6034 106.496 29.851C106.224 29.1104 105.807 28.434 105.268 27.8634C104.712 27.2813 104.047 26.8181 103.312 26.5009C102.487 26.1507 101.6 25.9778 100.707 25.9931C99.8059 25.9793 98.912 26.1521 98.0795 26.5009C97.3306 26.8175 96.6538 27.2848 96.088 27.8748C95.5421 28.4527 95.1171 29.1365 94.8379 29.8853C94.5472 30.6632 94.4005 31.4892 94.4055 32.3215C94.4022 33.1361 94.553 33.9438 94.8495 34.7006C95.1362 35.4414 95.5653 36.1169 96.1112 36.6872C96.6753 37.2678 97.348 37.727 98.0902 38.0372ZM102.787 29.0545C103.383 29.6241 103.737 30.4058 103.777 31.2353L97.5899 31.2374C97.6139 30.8131 97.7175 30.3974 97.8964 30.013C98.0613 29.6582 98.2882 29.3372 98.5674 29.066C98.8416 28.8033 99.1614 28.5954 99.5118 28.4532C99.8771 28.3058 100.267 28.2314 100.661 28.2341C101.448 28.2161 102.211 28.5104 102.787 29.0545Z" fill="#A0A9DB"/>
<path fill-rule="evenodd" clip-rule="evenodd" d="M113.55 37.8871C114.228 38.2152 114.971 38.3811 115.722 38.3721C116.522 38.3763 117.312 38.182 118.022 37.8061C118.716 37.4451 119.293 36.8875 119.683 36.2007V37.7199C119.694 38.2432 119.596 38.7632 119.396 39.2454C119.222 39.6553 118.957 40.0185 118.621 40.3067C118.288 40.5889 117.902 40.7975 117.484 40.9194C117.046 41.0515 116.59 41.1176 116.132 41.1157C115.367 41.1209 114.609 40.9552 113.913 40.6307C113.247 40.3249 112.659 39.8664 112.196 39.2911L110.535 40.9308C111.153 41.7155 111.934 42.3509 112.823 42.7907C113.863 43.261 114.995 43.4858 116.132 43.4481C117.026 43.4571 117.916 43.3251 118.77 43.0566C119.533 42.8171 120.243 42.4331 120.865 41.9247C121.451 41.4384 121.923 40.8244 122.244 40.1281C122.58 39.3738 122.746 38.5536 122.732 37.7262V26.1992H120.073V28.3208C119.643 27.6254 119.055 27.0444 118.359 26.6261C117.613 26.1904 116.764 25.9709 115.904 25.9916C114.376 25.9677 112.916 26.6365 111.923 27.8161C111.428 28.4028 111.042 29.0755 110.784 29.8017C110.506 30.587 110.368 31.416 110.376 32.2503C110.371 33.0526 110.502 33.8497 110.764 34.6066C111.006 35.3202 111.375 35.9822 111.855 36.5589C112.321 37.1188 112.899 37.5715 113.55 37.8871ZM117.726 35.7383C117.419 35.8469 117.096 35.9017 116.771 35.9003V35.8993C116.32 35.9036 115.873 35.809 115.462 35.622C115.066 35.4418 114.711 35.1825 114.416 34.8598C114.116 34.5303 113.881 34.1462 113.721 33.7279C113.552 33.2863 113.466 32.8157 113.47 32.3415C113.47 31.8709 113.543 31.4031 113.688 30.9562C113.824 30.5244 114.036 30.1211 114.314 29.7662C114.584 29.4233 114.92 29.1404 115.302 28.9354C115.699 28.7252 116.141 28.6182 116.589 28.6238C117.249 28.6321 117.887 28.8593 118.409 29.2708C118.986 29.7047 119.428 30.2981 119.683 30.9802V33.867C119.572 34.1515 119.418 34.4167 119.226 34.6532C119.032 34.8974 118.806 35.115 118.555 35.3002C118.302 35.4865 118.022 35.6341 117.726 35.7383Z" fill="#A0A9DB"/>
<path fill-rule="evenodd" clip-rule="evenodd" d="M130.225 37.8872C130.902 38.2151 131.646 38.381 132.396 38.3721C133.195 38.3761 133.983 38.1817 134.692 37.8062C135.387 37.4451 135.964 36.8875 136.353 36.2007V37.7252C136.365 38.2484 136.268 38.7682 136.068 39.2507C135.894 39.6604 135.628 40.0237 135.294 40.312C134.96 40.5941 134.573 40.8028 134.156 40.9247C133.717 41.0566 133.261 41.1227 132.803 41.1209C132.037 41.1259 131.28 40.9604 130.584 40.636C129.918 40.3302 129.33 39.8716 128.867 39.2963L127.209 40.9309C127.827 41.7153 128.608 42.3506 129.497 42.7907C130.536 43.261 131.668 43.4856 132.806 43.4481C133.7 43.4572 134.59 43.3252 135.445 43.0566C136.207 42.8174 136.917 42.4333 137.539 41.9247C138.124 41.4382 138.593 40.8242 138.913 40.1282C139.249 39.3739 139.415 38.5537 139.402 37.7262V26.1992H136.743V28.3208C136.314 27.6259 135.727 27.045 135.033 26.6261C134.287 26.1903 133.438 25.9708 132.578 25.9916C131.05 25.9679 129.59 26.6367 128.597 27.8162C128.102 28.4025 127.717 29.0753 127.459 29.8017C127.181 30.5871 127.043 31.4161 127.05 32.2504C127.045 33.0526 127.176 33.8497 127.437 34.6067C127.68 35.3199 128.05 35.9818 128.529 36.559C128.995 37.1188 129.573 37.5715 130.225 37.8872ZM134.397 35.7387C134.09 35.8473 133.767 35.9022 133.441 35.9008V35.8997C132.991 35.904 132.544 35.8095 132.133 35.6225C131.737 35.4423 131.381 35.1831 131.086 34.8602C130.786 34.5307 130.552 34.1466 130.393 33.7283C130.223 33.2867 130.138 32.8162 130.142 32.342C130.141 31.8714 130.214 31.4037 130.359 30.9566C130.495 30.525 130.707 30.1218 130.984 29.7666C131.255 29.4237 131.591 29.1409 131.974 28.9358C132.37 28.7257 132.812 28.6186 133.259 28.6243C133.919 28.6324 134.559 28.8597 135.08 29.2712C135.657 29.7049 136.1 30.2983 136.354 30.9805V33.8675C136.243 34.152 136.089 34.4173 135.898 34.6536C135.702 34.8976 135.477 35.1151 135.227 35.3005C134.973 35.4867 134.693 35.6344 134.397 35.7387Z" fill="#A0A9DB"/>
<path fill-rule="evenodd" clip-rule="evenodd" d="M6.43784 18.5244C9.0561 16.6261 11.6743 17.2087 14.0963 19.8817V19.8858C16.5182 22.562 19.2019 27.7844 18.2814 33.3215C18.0938 34.517 17.6954 35.6684 17.1053 36.7203C15.9475 38.7051 14.0428 40.1245 11.8308 40.6509C9.37769 41.2897 6.77499 40.9124 4.59585 39.6021C4.31953 39.4239 4.05445 39.2282 3.80218 39.0164C1.87271 37.2819 0.709798 34.8336 0.574347 32.2207C0.46745 30.7671 0.572913 29.3054 0.887314 27.8831C1.17286 26.5763 1.60276 25.3066 2.16884 24.0978C3.10673 21.9046 4.57516 19.9874 6.43784 18.5244ZM4.38709 26.046C4.68677 24.9608 5.7443 21.7997 8.24086 20.2098C8.36546 20.1319 8.43969 19.9924 8.43554 19.8439C8.43132 19.6953 8.34947 19.5604 8.22072 19.4898C8.09197 19.4191 7.9359 19.4236 7.8113 19.5016C6.34195 20.5015 5.17801 21.8995 4.45152 23.537C4.10074 24.2715 3.81461 25.036 3.5965 25.8216C3.5658 25.9327 3.58196 26.0517 3.64112 26.1503C3.70029 26.2487 3.79713 26.3177 3.90844 26.3409C4.11963 26.3862 4.32915 26.2571 4.38709 26.046Z" fill="#A0A9DB"/>
<path d="M11.4779 42.6304C14.5756 44.0718 18.2115 43.5946 20.8464 41.4008C25.2811 37.6396 26.5094 29.956 26.5094 29.956C26.5094 29.956 27.2929 25.9756 25.8508 23.6785C24.4087 21.3814 20.8464 21.4011 17.5868 22.5362C19.0435 25.5534 19.8456 28.8527 19.9392 32.2115C19.8979 37.2769 16.3695 41.6213 11.4799 42.6272" fill="#A0A9DB"/>
</g>
<defs>
<clipPath id="clip0_5104_5160">
<rect width="140" height="27" fill="white" transform="translate(0 17)"/>
</clipPath>
</defs>
</svg>
