<svg width="140" height="60" viewBox="0 0 140 60" fill="none" xmlns="http://www.w3.org/2000/svg">
<path d="M62.7304 43.2562C62.7304 43.4437 62.5127 43.5938 62.2383 43.5938C61.926 43.6219 61.7083 43.4719 61.7083 43.2562C61.7083 43.0687 61.926 42.9187 62.2004 42.9187C62.4843 42.8906 62.7304 43.0406 62.7304 43.2562ZM59.7872 42.8344C59.721 43.0219 59.9102 43.2375 60.1941 43.2937C60.4402 43.3875 60.7241 43.2937 60.7809 43.1062C60.8377 42.9187 60.6579 42.7031 60.3739 42.6188C60.1279 42.5531 59.8534 42.6469 59.7872 42.8344ZM63.9701 42.675C63.6957 42.7406 63.5064 42.9188 63.5348 43.1344C63.5632 43.3219 63.8092 43.4438 64.0931 43.3781C64.3676 43.3125 64.5569 43.1344 64.5285 42.9469C64.5001 42.7688 64.2446 42.6469 63.9701 42.675ZM70.1972 6.75C57.0711 6.75 47.0303 16.6219 47.0303 29.625C47.0303 40.0219 53.6359 48.9188 63.0711 52.05C64.2824 52.2656 64.7083 51.525 64.7083 50.9156C64.7083 50.3344 64.6799 47.1281 64.6799 45.1594C64.6799 45.1594 58.0554 46.5656 56.6642 42.3656C56.6642 42.3656 55.5854 39.6375 54.0333 38.9344C54.0333 38.9344 51.8662 37.4625 54.1848 37.4906C54.1848 37.4906 56.5412 37.6781 57.8377 39.9094C59.9102 43.5281 63.3834 42.4875 64.7367 41.8688C64.9543 40.3688 65.5695 39.3281 66.2508 38.7094C60.9607 38.1281 55.6232 37.3687 55.6232 28.35C55.6232 25.7719 56.3425 24.4781 57.8566 22.8281C57.6106 22.2188 56.8062 19.7062 58.1027 16.4625C60.0806 15.8531 64.6326 18.9938 64.6326 18.9938C66.5253 18.4688 68.56 18.1969 70.5757 18.1969C72.5914 18.1969 74.6261 18.4688 76.5188 18.9938C76.5188 18.9938 81.0708 15.8437 83.0487 16.4625C84.3452 19.7156 83.5408 22.2188 83.2948 22.8281C84.8089 24.4875 85.7364 25.7812 85.7364 28.35C85.7364 37.3969 80.1623 38.1187 74.8722 38.7094C75.7428 39.45 76.481 40.8562 76.481 43.0594C76.481 46.2187 76.4526 50.1281 76.4526 50.8969C76.4526 51.5062 76.8879 52.2469 78.0898 52.0312C87.5534 48.9187 93.9697 40.0219 93.9697 29.625C93.9697 16.6219 83.3232 6.75 70.1972 6.75ZM56.2289 39.0844C56.1059 39.1781 56.1343 39.3938 56.2951 39.5719C56.4466 39.7219 56.6642 39.7875 56.7872 39.6656C56.9103 39.5719 56.8819 39.3562 56.721 39.1781C56.5696 39.0281 56.3519 38.9625 56.2289 39.0844ZM55.2068 38.325C55.1406 38.4469 55.2352 38.5969 55.4245 38.6906C55.5759 38.7844 55.7652 38.7562 55.8314 38.625C55.8977 38.5031 55.803 38.3531 55.6138 38.2594C55.4245 38.2031 55.2731 38.2312 55.2068 38.325ZM58.273 41.6625C58.1216 41.7844 58.1784 42.0656 58.3961 42.2438C58.6137 42.4594 58.8882 42.4875 59.0112 42.3375C59.1342 42.2156 59.0774 41.9344 58.8882 41.7562C58.68 41.5406 58.3961 41.5125 58.273 41.6625ZM57.1942 40.2844C57.0428 40.3781 57.0428 40.6219 57.1942 40.8375C57.3456 41.0531 57.6011 41.1469 57.7241 41.0531C57.8756 40.9312 57.8756 40.6875 57.7241 40.4719C57.5916 40.2563 57.3456 40.1625 57.1942 40.2844Z" fill="#A0A9DB"/>
</svg>
