<svg width="140" height="60" viewBox="0 0 140 60" fill="none" xmlns="http://www.w3.org/2000/svg">
<g clip-path="url(#clip0_5114_5480)">
<path d="M55.8625 8.33281C55.5719 7.49844 54.3906 7.49844 54.0906 8.33281L48.7937 24.7203H61.1687C61.1594 24.7203 55.8625 8.33281 55.8625 8.33281ZM46.0844 32.9703C45.8406 33.7203 46.1125 34.5547 46.75 35.0328L69.9906 52.2828L48.7844 24.7203L46.0844 32.9703ZM61.1594 24.7203L70 52.2828L78.8406 24.7203H61.1594ZM93.9156 32.9703L91.2156 24.7203L70 52.2828L93.2406 35.0328C93.8875 34.5547 94.15 33.7203 93.9156 32.9703ZM85.9094 8.33281C85.6187 7.49844 84.4375 7.49844 84.1375 8.33281L78.8312 24.7203H91.2062L85.9094 8.33281Z" fill="#A0A9DB"/>
</g>
<defs>
<clipPath id="clip0_5114_5480">
<rect width="48" height="48" fill="white" transform="translate(46 6)"/>
</clipPath>
</defs>
</svg>
