<svg width="140" height="60" viewBox="0 0 140 60" fill="none" xmlns="http://www.w3.org/2000/svg">
<path d="M82.5153 22.5385C80.8122 22.9361 79.4059 23.149 77.9684 23.6175C76.8278 23.8873 75.6716 24.1712 74.3435 24.4835L74.2497 24.4977C73.5935 24.6681 73.531 24.6823 72.9216 24.0434C72.1872 23.291 71.656 22.8083 70.6404 22.354C67.5622 20.9911 64.5935 21.3886 61.8279 23.0212C58.5154 24.9662 56.8123 27.8482 56.8592 31.4259C56.9061 34.9751 59.5779 37.8855 63.2966 38.3682C66.7341 38.7657 69.5154 37.7151 71.7028 35.4578C72.031 35.0887 72.3278 34.7054 72.656 34.2795C72.781 34.1375 72.8903 33.9813 73.0153 33.811H63.6248C62.6091 33.811 62.3591 33.2431 62.7029 32.4906C63.3279 31.1135 64.4998 28.8136 65.1873 27.6637C65.3279 27.4081 65.6716 26.8402 66.2654 26.8402H82.0622C82.7653 24.9378 83.9059 23.0212 85.4371 21.204C88.984 16.9591 93.1402 14.7444 99.0621 13.8216C104.031 13.0265 108.703 13.4666 112.953 16.0789C116.796 18.464 119.171 21.7009 119.812 25.9458C120.64 31.9228 118.734 36.7781 114.078 40.9379C110.999 43.905 107.062 45.7649 102.531 46.6025C101.656 46.7445 100.796 46.8154 99.9527 46.8864C99.4996 46.9148 99.0621 46.9574 98.6246 47C94.2027 46.9148 90.1559 45.7649 86.7496 43.11C84.359 41.2218 82.7028 38.9077 81.8903 36.2245C81.3122 37.2608 80.6403 38.2688 79.7028 39.22C76.3278 43.4223 71.7497 46.0346 65.9685 46.7303C61.1873 47.3123 56.7654 46.4747 52.8592 43.8199C49.2655 41.3354 47.2186 38.0701 46.6874 33.9955C46.0467 29.1685 47.6092 24.7107 50.8123 21.0337C54.2811 16.9165 58.8592 14.3043 64.4529 13.3815C69.031 12.5012 73.406 13.1117 77.3591 15.5536C79.9372 17.1011 81.7809 19.2164 82.9997 21.7861C83.2965 22.1836 83.0934 22.4108 82.5153 22.5385ZM27.5468 23.3336C27.3515 23.3336 27.3031 23.2484 27.4 23.1064L28.4234 21.9139C28.5203 21.7861 28.764 21.7009 28.9593 21.7009H46.3436C46.5311 21.7009 46.578 21.8287 46.4842 21.9565L45.6561 23.1064C45.5624 23.2484 45.3124 23.3762 45.1717 23.3762L27.5468 23.3336ZM20.1947 27.4081C20 27.4081 19.9513 27.3087 20.0488 27.181L21.0711 25.9884C21.1686 25.8606 21.412 25.7613 21.6063 25.7613H43.8124C43.9999 25.7613 44.0936 25.9032 44.0468 26.031L43.6561 27.0958C43.6093 27.2661 43.4218 27.3655 43.2186 27.3655L20.1947 27.4081ZM31.8312 31.2129C31.7343 31.3407 31.7828 31.4685 31.9765 31.4685L42.5936 31.5111C42.7343 31.5111 42.9374 31.3833 42.9374 31.2129L43.0311 30.1481C43.0311 29.9636 42.9374 29.8358 42.7343 29.8358H32.9999C32.8046 29.8358 32.6109 29.9636 32.5124 30.1055L31.8312 31.2129ZM110.187 28.6574C110.156 28.2883 110.14 27.976 110.078 27.6637C109.203 23.291 104.765 20.8065 100.14 21.7861C95.609 22.7089 92.6871 25.3212 91.6246 29.4809C90.7496 32.9308 92.5934 36.4232 96.0933 37.8429C98.7808 38.9077 101.453 38.7799 104.031 37.5732C107.875 35.6424 109.968 32.9308 110.218 29.126C110.203 28.9556 110.203 28.7994 110.187 28.6574Z" fill="#A0A9DB"/>
</svg>
