<svg width="140" height="60" viewBox="0 0 140 60" fill="none" xmlns="http://www.w3.org/2000/svg">
<g clip-path="url(#clip0_5114_5481)">
<path d="M92.8352 30.5437C92.8352 43.8094 83.7666 53.25 70.3743 53.25C57.5341 53.25 47.1647 42.8625 47.1647 30C47.1647 17.1375 57.5341 6.75 70.3743 6.75C76.6259 6.75 81.8855 9.04688 85.9379 12.8344L79.6207 18.9188C71.357 10.9313 55.9899 16.9313 55.9899 30C55.9899 38.1094 62.4568 44.6813 70.3743 44.6813C79.5646 44.6813 83.0086 38.0813 83.5514 34.6594H70.3743V26.6625H92.4703C92.6855 27.8531 92.8352 28.9969 92.8352 30.5437Z" fill="#A0A9DB"/>
</g>
<defs>
<clipPath id="clip0_5114_5481">
<rect width="46" height="48" fill="white" transform="translate(47 6)"/>
</clipPath>
</defs>
</svg>
