<svg width="120" height="48" viewBox="0 0 120 48" fill="none" xmlns="http://www.w3.org/2000/svg">
<path d="M71.3342 8.00087C72.7538 8 74.1742 8 75.5938 8C75.5946 9.67483 75.5938 11.3497 75.5946 13.0236C77.2685 13.0245 78.9425 13.0236 80.6172 13.0236C80.6181 14.3131 80.6164 15.6026 80.6172 16.8921C78.9425 16.8947 77.2685 16.8903 75.5938 16.8947C75.5946 18.9261 75.5938 20.9584 75.5946 22.9898C75.6004 24.0317 75.519 25.1267 75.9329 26.1041C76.1282 26.5914 76.5588 26.9803 77.0707 27.0343C77.9867 27.1738 78.8269 26.6342 79.5035 26.0457C80.3513 27.152 81.204 28.2549 82.0535 29.3596C81.4783 29.8783 80.8774 30.3753 80.1983 30.7371C78.5917 31.6238 76.6186 31.8479 74.9048 31.1739C73.7511 30.7223 72.8336 29.751 72.2867 28.608C71.537 27.0413 71.3159 25.2575 71.3242 23.5225C71.33 18.3481 71.3117 13.1745 71.3342 8.00087Z" fill="#A0A9DB"/>
<path d="M22.0846 16.0682C23.5325 14.2277 25.6677 12.994 27.9326 12.7307C29.9564 12.4744 32.0509 12.9888 33.7672 14.1414C33.7664 13.7761 33.7664 13.4107 33.7672 13.0463C35.1868 13.0454 36.6064 13.0454 38.026 13.0463C38.0268 18.0769 38.026 23.1075 38.0268 28.1373C38.0077 29.3055 38.0809 30.4782 37.9587 31.6421C37.6611 34.3231 36.185 36.8131 34.0556 38.3197C32.4906 39.4435 30.5789 40.025 28.6831 39.9474C27.1754 39.8934 25.6918 39.4103 24.4019 38.5943C25.095 37.2952 25.804 36.0057 26.5005 34.7093C27.4646 35.3344 28.639 35.6056 29.7603 35.4016C31.2331 35.1574 32.5546 34.1217 33.2128 32.7206C33.6051 31.9263 33.7415 31.0231 33.7215 30.1355C32.0376 31.2498 29.9946 31.7494 28.0149 31.5209C25.4632 31.2507 23.072 29.7441 21.6184 27.5322C20.5046 25.8643 19.9303 23.8111 20.0068 21.7771C20.0708 19.7021 20.8163 17.661 22.0846 16.0682ZM28.152 17.2208C26.6925 17.4823 25.3926 18.5172 24.741 19.9096C24.1883 21.0735 24.0943 22.4684 24.4941 23.7013C24.8873 24.9532 25.7799 26.023 26.9128 26.5949C28.0498 27.1887 29.4228 27.2541 30.6097 26.7806C31.5929 26.3953 32.4424 25.6533 32.9868 24.7126C33.6625 23.5635 33.8553 22.1188 33.5154 20.8172C33.227 19.6811 32.5338 18.6672 31.6079 18.0063C30.613 17.2827 29.343 16.9984 28.152 17.2208Z" fill="#A0A9DB"/>
<path d="M61.1626 12.9451C62.3245 12.6034 63.572 12.599 64.7431 12.8989C66.2974 13.3017 67.6929 14.3026 68.6404 15.6531C67.7535 16.5799 66.8767 17.5171 65.9923 18.4474C65.3125 17.7412 64.532 17.0664 63.5829 16.8249C63.0177 16.7107 62.3627 16.7299 61.8923 17.1187C61.564 17.375 61.4302 17.8755 61.613 18.2661C61.7851 18.6575 62.1699 18.865 62.5082 19.0717C63.858 19.8372 65.2925 20.4518 66.5525 21.3821C67.2615 21.9035 67.9297 22.5294 68.3412 23.3411C69.3252 25.247 69.1432 27.8094 67.7602 29.4537C66.8966 30.5296 65.6399 31.2096 64.3251 31.4355C62.6969 31.7179 60.9622 31.5697 59.4678 30.799C58.4356 30.2707 57.5579 29.4485 56.863 28.4947C57.7424 27.4877 58.6168 26.4772 59.4969 25.4728C60.2192 26.3586 61.17 27.0457 62.2306 27.4005C63.0052 27.6446 63.9594 27.5975 64.5619 26.9707C64.9085 26.6394 65.0332 26.0805 64.8279 25.6324C64.5578 25.036 64.0109 24.6533 63.4873 24.3246C62.3985 23.6934 61.2324 23.2034 60.2042 22.4571C59.2235 21.7587 58.3283 20.852 57.8521 19.6933C57.2819 18.3088 57.385 16.6366 58.1355 15.348C58.8154 14.1919 59.915 13.3131 61.1626 12.9451Z" fill="#A0A9DB"/>
<path d="M89.734 12.7673C91.8301 12.4386 94.0343 12.9251 95.818 14.13C98.0529 15.6061 99.6055 18.158 99.9255 20.9096C100.189 23.0212 99.7476 25.22 98.6888 27.0378C97.3647 29.3439 95.0633 31.0074 92.5266 31.4425C90.6915 31.772 88.7591 31.4791 87.0918 30.6081C85.7345 29.9089 84.5576 28.8374 83.6924 27.5383C82.4648 25.703 81.8954 23.3996 82.1174 21.1703C82.3276 18.8494 83.404 16.6349 85.0596 15.0812C86.3562 13.8519 88.0027 13.0306 89.734 12.7673ZM90.236 17.2199C88.779 17.4745 87.4749 18.5033 86.8225 19.8913C86.1833 21.206 86.1542 22.8224 86.7377 24.1642C87.1874 25.2235 88.0044 26.1023 89.0001 26.6063C90.0831 27.1599 91.3738 27.2462 92.5158 26.8426C93.8723 26.3752 94.9893 25.2244 95.4681 23.8146C96.0598 22.1467 95.7033 20.1615 94.5704 18.8354C93.5215 17.5564 91.821 16.9147 90.236 17.2199Z" fill="#A0A9DB"/>
<path d="M40.8943 13.0359C42.3205 13.035 43.7476 13.035 45.1739 13.0359C45.1755 15.6872 45.1739 18.3385 45.1747 20.9898C45.1813 22.0979 45.1281 23.2122 45.2686 24.315C45.3783 25.1791 45.6027 26.118 46.2876 26.6839C46.906 27.2985 47.836 27.4171 48.6397 27.2192C49.1459 27.0919 49.5706 26.7406 49.9072 26.3369C50.2505 25.9036 50.4117 25.3499 50.5215 24.8085C50.7143 23.7815 50.7043 22.7291 50.696 21.6873C50.6968 18.8032 50.6943 15.92 50.6968 13.0359C52.1214 13.0341 53.546 13.0341 54.9706 13.0359C54.9731 15.6575 54.9656 18.2801 54.9606 20.9017C54.9598 22.6515 55.0254 24.4293 54.6007 26.1381C54.2666 27.574 53.5651 28.9394 52.4879 29.9115C51.5438 30.8121 50.317 31.3544 49.052 31.4991C47.5676 31.6665 45.9967 31.5532 44.6477 30.8296C43.3719 30.1408 42.3313 28.9847 41.7454 27.6107C41.0331 25.9829 40.886 24.1599 40.8935 22.3909C40.8943 19.2722 40.8926 16.1545 40.8943 13.0359Z" fill="#A0A9DB"/>
</svg>
