<svg width="120" height="48" viewBox="0 0 120 48" fill="none" xmlns="http://www.w3.org/2000/svg">
<path d="M50.5908 16.8505V31.0669H55.1838C56.9877 31.1482 58.7092 30.5808 60.1851 29.5247C61.743 28.2249 62.7266 26.1933 62.7266 23.9999C62.7266 22.5377 62.2347 21.1567 61.4967 19.9381C60.8408 19.0445 60.0208 18.2328 59.0369 17.7453C57.807 17.1767 56.4944 16.8505 55.1005 16.8505H50.5908ZM43.7046 16.933V31.1494H45.9178V16.933H43.7046ZM66.4164 16.933V31.1494H75.6824V29.1185H68.7129V24.8932H75.0258V22.8623H68.7129V18.9639H75.6824V16.933H66.4164ZM79.5355 16.933V31.1494H81.7487V20.5061H81.832L86.2584 31.1494H88.1449L92.6546 20.5061V31.1494H94.8678V16.933H91.753L87.1616 27.8999L82.5686 16.933H79.5355ZM99.5424 16.933V31.1494H101.756V16.933H99.5424ZM110.447 16.933L104.625 31.1494H106.922L108.234 27.8174H115.203L116.515 31.1494H118.893L113.072 16.933H110.447ZM52.724 19.0448H55.0189C56.2488 19.0448 57.5613 19.3701 58.5453 20.1824C59.6932 21.1573 60.3485 22.5374 60.3485 24.0809C60.3485 25.0557 60.1025 26.0309 59.5285 26.8432C59.2006 27.2494 58.8736 27.6559 58.4636 27.9809C57.4796 28.712 56.1671 29.1172 54.9372 29.036H52.724V19.0448ZM111.677 19.1257L114.383 25.869H108.972L111.677 19.1257Z" fill="#A0A9DB"/>
<path d="M8.69219 9.37732L0.821045 24L8.69219 38.6226H11.3986L3.5275 24L11.3986 9.37732H8.69219ZM14.2684 9.37732L11.317 24L14.2684 38.6226H16.7283L13.7768 24L16.7283 9.37732H14.2684ZM19.9264 9.37732L22.8779 24L19.9264 38.6226H22.3862L25.3377 24L22.3862 9.37732H19.9264ZM25.256 9.37732L33.1272 24L25.256 38.6226H27.9609L35.832 24L27.9609 9.37732H25.256Z" fill="#A0A9DB"/>
</svg>
