<svg width="140" height="60" viewBox="0 0 140 60" fill="none" xmlns="http://www.w3.org/2000/svg">
<path d="M70.0093 19.2195C64.0807 19.2195 59.2986 24.0289 59.2986 29.9914C59.2986 35.9539 64.0807 40.7633 70.0093 40.7633C75.9379 40.7633 80.72 35.9539 80.72 29.9914C80.72 24.0289 75.9379 19.2195 70.0093 19.2195ZM70.0093 36.9945C66.1781 36.9945 63.046 33.8539 63.046 29.9914C63.046 26.1289 66.1687 22.9883 70.0093 22.9883C73.8499 22.9883 76.9726 26.1289 76.9726 29.9914C76.9726 33.8539 73.8405 36.9945 70.0093 36.9945ZM83.6563 18.7789C83.6563 20.1758 82.5377 21.2914 81.1581 21.2914C79.7692 21.2914 78.6599 20.1664 78.6599 18.7789C78.6599 17.3914 79.7785 16.2664 81.1581 16.2664C82.5377 16.2664 83.6563 17.3914 83.6563 18.7789ZM90.7502 21.3289C90.5917 17.9633 89.8273 14.982 87.3757 12.5258C84.9334 10.0695 81.9691 9.30078 78.6226 9.13203C75.1735 8.93516 64.8357 8.93516 61.3867 9.13203C58.0495 9.29141 55.0852 10.0602 52.6336 12.5164C50.182 14.9727 49.4269 17.9539 49.2591 21.3195C49.0634 24.7883 49.0634 35.1852 49.2591 38.6539C49.4176 42.0195 50.182 45.0008 52.6336 47.457C55.0852 49.9133 58.0402 50.682 61.3867 50.8508C64.8357 51.0477 75.1735 51.0477 78.6226 50.8508C81.9691 50.6914 84.9334 49.9227 87.3757 47.457C89.818 45.0008 90.5824 42.0195 90.7502 38.6539C90.9459 35.1852 90.9459 24.7977 90.7502 21.3289ZM86.2944 42.3758C85.5673 44.2133 84.1597 45.6289 82.3233 46.3695C79.5734 47.4664 73.0482 47.2133 70.0093 47.2133C66.9704 47.2133 60.4359 47.457 57.6953 46.3695C55.8682 45.6383 54.4606 44.2227 53.7242 42.3758C52.6336 39.6102 52.8853 33.0477 52.8853 29.9914C52.8853 26.9352 52.6429 20.3633 53.7242 17.607C54.4513 15.7695 55.8589 14.3539 57.6953 13.6133C60.4452 12.5164 66.9704 12.7695 70.0093 12.7695C73.0482 12.7695 79.5827 12.5258 82.3233 13.6133C84.1504 14.3445 85.5579 15.7602 86.2944 17.607C87.385 20.3727 87.1333 26.9352 87.1333 29.9914C87.1333 33.0477 87.385 39.6195 86.2944 42.3758Z" fill="#A0A9DB"/>
</svg>
