<svg width="140" height="60" viewBox="0 0 140 60" fill="none" xmlns="http://www.w3.org/2000/svg">
<g clip-path="url(#clip0_5122_5890)">
<path d="M46 6H94V54H46V6ZM90.068 42.552C89.718 40.362 88.292 38.522 84.062 36.806C82.59 36.116 80.954 35.636 80.468 34.526C80.286 33.866 80.258 33.506 80.376 33.116C80.676 31.824 82.206 31.436 83.406 31.796C84.186 32.036 84.906 32.636 85.358 33.596C87.426 32.244 87.426 32.244 88.868 31.346C88.328 30.506 88.06 30.144 87.696 29.786C86.436 28.376 84.758 27.656 82.028 27.718L80.618 27.896C79.266 28.226 77.978 28.946 77.198 29.906C74.918 32.488 75.576 36.988 78.336 38.848C81.066 40.888 85.058 41.336 85.568 43.258C86.048 45.598 83.828 46.348 81.636 46.078C80.014 45.718 79.116 44.906 78.126 43.406L74.466 45.508C74.886 46.468 75.366 46.886 76.086 47.726C79.566 51.238 88.266 51.058 89.828 45.718C89.886 45.538 90.308 44.308 89.976 42.418L90.068 42.552ZM72.102 28.062H67.606C67.606 31.938 67.588 35.79 67.588 39.672C67.588 42.136 67.714 44.398 67.312 45.094C66.652 46.472 64.952 46.296 64.18 46.054C63.388 45.662 62.986 45.122 62.52 44.344C62.394 44.134 62.3 43.952 62.266 43.952L58.616 46.202C59.226 47.462 60.116 48.546 61.264 49.236C62.974 50.256 65.272 50.586 67.678 50.046C69.244 49.594 70.594 48.664 71.3 47.224C72.32 45.364 72.104 43.084 72.094 40.532C72.118 36.424 72.094 32.314 72.094 28.174L72.102 28.062Z" fill="#A0A9DB"/>
</g>
<defs>
<clipPath id="clip0_5122_5890">
<rect width="48" height="48" fill="white" transform="translate(46 6)"/>
</clipPath>
</defs>
</svg>
