<svg width="140" height="60" viewBox="0 0 140 60" fill="none" xmlns="http://www.w3.org/2000/svg">
<path d="M9.78492 18.6392C10.8836 18.2476 12.1062 18.7584 12.5138 19.8141C12.5315 19.8482 12.5492 19.8822 12.5492 19.9333C12.9745 21.0742 12.0354 22.4534 10.7595 22.5215C9.83809 22.6237 8.95209 22.1299 8.59768 21.2955C8.15469 20.2909 8.70401 18.9968 9.78492 18.6392ZM84.0316 19.6438L84.1556 19.5417C85.3961 19.5076 86.6364 19.5417 87.8946 19.5246C87.9477 22.6237 87.8946 25.7057 87.9122 28.8048C87.8946 31.5633 87.93 34.3388 87.8946 37.1143C86.601 37.0973 85.3074 37.1143 84.0139 37.0973C84.0316 31.2738 84.0139 25.4673 84.0316 19.6438ZM129.713 19.5417C130.989 19.5246 132.247 19.5417 133.523 19.5246C133.576 19.746 133.612 19.9674 133.612 20.1887C133.594 24.7692 133.594 29.3496 133.612 33.9131C133.576 34.9688 133.683 36.0416 133.541 37.0973C132.265 37.0632 130.971 37.0973 129.696 37.0803C129.696 36.1097 129.696 35.1221 129.696 34.1515C129.696 33.9642 129.643 33.7598 129.554 33.5896C129.146 34.6623 128.668 35.7861 127.729 36.5354C126.577 37.506 124.841 37.7273 123.423 37.1484C122.449 36.7738 121.722 35.9735 121.279 35.071C120.606 33.7088 120.429 32.1592 120.464 30.6438C120.429 29.0772 120.641 27.4596 121.35 26.0292C121.811 25.1097 122.59 24.3265 123.601 23.9689C124.876 23.5432 126.4 23.6624 127.516 24.4627C128.491 25.1438 129.058 26.1995 129.413 27.2723C129.413 27.4766 129.766 27.3574 129.678 27.1871C129.713 24.65 129.696 22.0958 129.713 19.5417ZM126.825 27.1531C126.046 27.1701 125.23 27.4936 124.823 28.1747C124.203 29.1964 124.221 30.4224 124.292 31.5633C124.398 32.4146 124.681 33.3682 125.497 33.828C126.117 34.2196 126.896 34.1855 127.605 34.1174C128.792 33.8961 129.589 32.8063 129.66 31.6995C129.731 30.5246 129.82 29.2475 129.128 28.2258C128.651 27.4766 127.711 27.119 126.825 27.1531ZM36.0105 24.9735C37.0205 23.9178 38.6331 23.5602 40.0506 23.8667C40.9543 24.037 41.7163 24.5989 42.1593 25.3652C42.5846 26.0633 42.6732 26.8806 42.7972 27.6639L43.0453 27.6299C43.4352 26.4379 44.0199 25.1949 45.1185 24.4627C46.04 23.8327 47.2272 23.6454 48.3259 23.8156C49.3358 23.9348 50.2397 24.4627 50.7889 25.2971C51.3383 26.1484 51.5509 27.1701 51.5332 28.1747C51.5332 31.1546 51.5332 34.1174 51.5332 37.0973C50.2219 37.0973 48.9283 37.0973 47.617 37.0973C47.617 34.458 47.617 31.8187 47.617 29.1794C47.617 28.4812 47.3158 27.732 46.6424 27.3744C45.5261 26.8466 44.0022 27.2212 43.3643 28.2769C43.063 28.8218 42.9036 29.4348 42.9213 30.0478C42.9213 32.3976 42.9213 34.7475 42.9213 37.0973C41.6278 37.0973 40.3341 37.0973 39.0406 37.0973C39.0406 34.458 39.0406 31.8187 39.0406 29.1794C39.0406 28.4642 38.7039 27.6809 37.9952 27.3404C36.8964 26.8806 35.6206 27.2042 34.8764 28.1066C34.522 28.6004 34.3271 29.1794 34.3271 29.7753C34.3271 32.2103 34.3271 34.6453 34.3271 37.0803C33.0335 37.0803 31.74 37.0803 30.4464 37.0803C30.4464 32.7552 30.4464 28.4302 30.4464 24.1051C31.7045 24.1051 32.9627 24.1051 34.2385 24.1051C34.2739 25.2119 34.2207 26.3187 34.2562 27.4255L34.4157 27.6639C34.8409 26.7274 35.2308 25.7057 36.0105 24.9735ZM60.464 24.3605C62.2892 23.2537 65.0358 23.7305 66.1344 25.5695C67.0205 26.9487 67.2686 28.6004 67.2862 30.184C67.3216 31.8187 67.2331 33.5215 66.4888 35.0199C66.0636 35.9394 65.3193 36.7738 64.3269 37.1654C63.0334 37.6933 61.5627 37.557 60.3932 36.8248C59.454 36.1948 58.8338 35.2242 58.4617 34.2026C58.3908 33.9982 58.2845 33.7939 58.1605 33.6236C58.1073 33.845 58.0718 34.0663 58.0718 34.2877C58.0718 36.6035 58.0718 38.9193 58.0718 41.235H54.2089C54.2089 35.5307 54.1912 29.8264 54.2089 24.1221C55.4847 24.1221 56.7606 24.1221 58.0364 24.1221C58.0541 25.2289 58.0009 26.3528 58.0718 27.4596C58.249 27.3915 58.3731 27.2552 58.3908 27.085C58.7452 25.9952 59.4363 24.9906 60.4286 24.3605H60.464ZM60.659 27.1531C59.4185 27.1871 58.3731 28.0726 58.1782 29.2475C57.9832 30.2521 58.0009 31.2738 58.2313 32.2784C58.4794 33.1639 59.2059 33.9301 60.1451 34.1174C60.8539 34.1855 61.6335 34.2366 62.2538 33.828C63.0866 33.3341 63.3524 32.3125 63.4587 31.4441C63.5119 30.3202 63.5473 29.0772 62.8917 28.0896C62.3955 27.3915 61.4918 27.1361 60.659 27.1531ZM70.9011 25.2971C72.4605 23.9689 74.64 23.6283 76.6424 23.8327C78.0954 23.9348 79.6016 24.4627 80.523 25.5865C81.285 26.489 81.6217 27.6299 81.8166 28.7537C80.6117 29.0091 79.4067 29.2645 78.184 29.4007C77.9891 28.5664 77.5815 27.6469 76.7133 27.2723C75.7741 26.9317 74.6046 26.9828 73.7895 27.5788C73.0452 28.1407 72.7617 29.0772 72.6909 29.9627C72.6377 30.9673 72.6554 32.023 73.1692 32.9255C73.8957 34.3558 76.1462 34.6793 77.3512 33.6236C77.9005 33.1298 78.0954 32.4146 78.3081 31.7506C79.4776 32.0571 80.6648 32.2955 81.8343 32.5679C81.6748 33.9471 81.0901 35.3434 79.9561 36.2459C78.6447 37.2846 76.8727 37.557 75.2425 37.506C73.4528 37.4378 71.5568 36.893 70.3163 35.5818C68.9696 34.1345 68.5975 32.0911 68.7038 30.2181C68.8102 28.3961 69.4304 26.506 70.9011 25.2971ZM95.3015 23.9178C96.9848 23.6624 98.7747 23.7305 100.334 24.4286C101.822 25.0927 102.957 26.3187 103.47 27.8172C103.949 29.0602 103.949 30.4054 103.86 31.6995C103.701 33.3001 103.027 34.9007 101.752 35.9564C100.175 37.3016 97.924 37.6592 95.904 37.4378C94.1852 37.2505 92.4485 36.5183 91.4208 35.1391C90.3754 33.845 90.0564 32.1763 90.0209 30.5756C90.0741 29.3326 90.2513 28.0726 90.8715 26.9658C91.7044 25.3141 93.4586 24.2413 95.3015 23.9178ZM96.4356 26.9487C95.5319 27.0339 94.7521 27.5617 94.3623 28.345C93.813 29.537 93.8307 30.8992 94.0965 32.1422C94.3092 33.1128 95.0534 33.9982 96.0989 34.1855C96.9848 34.3047 97.9949 34.3388 98.7569 33.8109C99.5543 33.2831 99.8733 32.3295 99.9973 31.427C100.086 30.2691 100.086 29.0261 99.4303 28.0215C98.7924 27.102 97.5165 26.7955 96.4356 26.9487ZM15.2604 24.1221C16.554 24.1221 17.8475 24.1221 19.1588 24.1221C19.1588 26.7274 19.1588 29.3156 19.1588 31.9208C19.1588 32.5679 19.336 33.266 19.8675 33.6747C20.5586 34.2196 21.5864 34.1855 22.3661 33.845C23.2875 33.4533 23.8191 32.4828 23.8191 31.5462C23.8369 29.0772 23.8191 26.5912 23.8191 24.1221C25.1304 24.1221 26.4416 24.1221 27.7353 24.1221C27.7353 28.4472 27.753 32.7893 27.7353 37.1143C26.4771 37.0973 25.2013 37.0973 23.9431 37.1143C23.9078 35.9564 23.9609 34.7985 23.9078 33.6406C23.7129 33.6917 23.5888 33.845 23.5533 34.0323C23.1812 35.1731 22.4724 36.2459 21.3915 36.893C20.0625 37.6762 18.2374 37.7273 16.926 36.893C15.7211 36.1097 15.3136 34.6283 15.2604 33.3171C15.2781 30.2351 15.2781 27.1871 15.2604 24.1221ZM114.528 24.1221C115.822 24.1221 117.133 24.1051 118.426 24.1221V37.0803C117.151 37.0803 115.857 37.0973 114.581 37.0803C114.581 35.9224 114.599 34.7815 114.564 33.6236C114.279 33.6917 114.226 33.9812 114.138 34.2196C113.748 35.2753 113.057 36.2629 112.065 36.8759C110.824 37.6081 109.283 37.6762 107.954 37.0803C107.068 36.6546 106.465 35.8032 106.182 34.9007C105.898 34.0663 105.934 33.1639 105.916 32.2955C105.934 29.571 105.898 26.8296 105.934 24.1051C107.227 24.1221 108.521 24.0881 109.832 24.1221C109.832 26.7614 109.832 29.4007 109.832 32.04C109.796 32.7722 110.151 33.5555 110.86 33.879C112.012 34.4069 113.571 33.9301 114.138 32.8233C114.403 32.3125 114.528 31.7335 114.51 31.1546C114.51 28.8218 114.51 26.472 114.528 24.1221ZM8.61541 36.1778C8.63313 32.1592 8.59768 28.1577 8.63313 24.1392C9.92669 24.1562 11.2202 24.1392 12.5315 24.1562C12.5315 28.2939 12.5315 32.4146 12.5315 36.5524C12.4606 37.9146 12.2303 39.4131 11.1316 40.3836C10.5646 40.9456 9.76721 41.2521 8.96981 41.3883C8.11924 41.5586 7.23325 41.5415 6.38269 41.3713C6.40041 40.3155 6.45357 39.2428 6.54217 38.1871C7.10921 38.2041 7.78256 38.3914 8.24329 37.9827C8.70401 37.4889 8.59768 36.7738 8.61541 36.1778Z" fill="#A0A9DB"/>
</svg>
