<svg width="140" height="60" viewBox="0 0 140 60" fill="none" xmlns="http://www.w3.org/2000/svg">
<path d="M87.8977 9H52.0929C50.4523 9 49.1193 10.3594 49.1193 12.0281V47.9719C49.1193 49.6406 50.4523 51 52.0929 51H87.8977C89.5383 51 90.8806 49.6406 90.8806 47.9719V12.0281C90.8806 10.3594 89.5383 9 87.8977 9ZM61.7409 45H55.5513V24.9562H61.7502V45H61.7409ZM58.6461 22.2188C56.6605 22.2188 55.0572 20.5969 55.0572 18.6094C55.0572 16.6219 56.6605 15 58.6461 15C60.6223 15 62.2349 16.6219 62.2349 18.6094C62.2349 20.6062 60.6316 22.2188 58.6461 22.2188ZM84.9427 45H78.753V35.25C78.753 32.925 78.7064 29.9344 75.5371 29.9344C72.3117 29.9344 71.8177 32.4656 71.8177 35.0813V45H65.6281V24.9562H71.566V27.6937H71.6499C72.4795 26.1187 74.5023 24.4594 77.5133 24.4594C83.7775 24.4594 84.9427 28.6125 84.9427 34.0125V45Z" fill="#A0A9DB"/>
</svg>
