<svg width="259" height="100" viewBox="0 0 259 100" fill="none" xmlns="http://www.w3.org/2000/svg">
  <path
    d="M43.9648 1.36035L68.1074 11.8456C68.6061 12.0626 68.996 12.4741 69.1824 12.9839C69.562 14.0136 69.0305 15.1553 67.997 15.5324L58.1049 19.1434C55.7601 13.6985 50.3387 9.88597 43.9735 9.88597C37.6083 9.88597 32.142 13.6675 29.735 19.078L26.9173 18.0431V27.4263L24.657 24.3525L22.5951 25.1601V16.4554L20.0828 15.5324C19.5738 15.3464 19.1649 14.9607 18.9475 14.4665C18.5057 13.4626 18.9647 12.2899 19.9724 11.8491L43.9631 1.36207L43.9648 1.36035ZM43.832 12.2899C51.034 12.2899 56.8712 18.1034 56.8712 25.272C56.8712 32.4407 51.034 38.2542 43.832 38.2542C36.6299 38.2542 30.7927 32.4407 30.7927 25.272C30.7927 18.1034 36.6299 12.2899 43.832 12.2899ZM87.4826 29.7734V73.817C78.2773 75.4907 69.6586 78.4836 61.6352 82.7955C60.2635 83.5325 58.9677 84.2884 57.7443 85.0616C51.6673 88.9017 47.5348 93.062 45.0363 97.3274V49.5832C54.2089 36.3772 68.3576 29.7734 87.4826 29.7734ZM0.00195312 29.7734C19.3426 29.7734 33.5483 36.4547 42.6207 49.8157V97.9594C40.1688 93.4736 35.9311 89.0911 29.5556 85.0616C28.3322 84.2884 27.0364 83.5325 25.6647 82.7955C17.6948 78.5111 9.13652 75.5303 0.00195312 73.8497V29.7716V29.7734ZM87.4826 91.0766V94.6032C76.3465 94.8219 66.4216 96.6782 59.5302 99.5144C65.1396 96.0738 72.3262 93.4013 80.1856 91.9909C82.6496 91.5484 85.0928 91.2453 87.4826 91.0766ZM87.4826 79.1948V85.8589C84.8012 86.0311 82.0491 86.3583 79.2556 86.8525C67.1239 88.9981 56.7798 93.8266 50.3352 99.6848H49.6951C51.7777 96.2649 55.27 92.8123 60.5292 89.5009C61.649 88.7966 62.8396 88.1044 64.1044 87.4276C71.3703 83.5376 79.1607 80.7928 87.4826 79.1913V79.1948ZM0.00195312 79.1948C8.25826 80.8031 15.99 83.5411 23.2042 87.4087C24.4689 88.0872 25.6612 88.7794 26.7793 89.4854C32.0385 92.8003 35.5343 96.2598 37.6169 99.6866H36.6334C30.2199 93.651 19.6946 88.6572 7.30581 86.4633C4.8315 86.0259 2.38998 85.7177 0.00195312 85.5334V79.1965V79.1948ZM0.00195312 90.7322C2.10183 90.9078 4.23795 91.185 6.38959 91.5673C14.7598 93.0569 22.3673 95.9567 28.1269 99.6866H27.9474C21.1698 96.7764 11.226 94.8409 0.00367763 94.5481V90.7322H0.00195312Z"
    fill="#A0A9DB" />
  <path
    d="M236.984 41.192C237.794 39.5388 238.603 37.0764 238.603 37.0764H238.834C238.834 37.0764 239.643 39.5371 240.452 41.192L242.533 45.4608H234.902L236.983 41.192H236.984ZM246.041 53.0376C246.272 53.4991 246.388 53.537 246.85 53.537H251.437C251.668 53.537 251.746 53.3837 251.746 53.2684C251.746 53.153 251.668 52.9601 251.592 52.8069L240.723 30.4622H236.715L225.846 52.8069C225.769 52.9601 225.693 53.153 225.693 53.2684C225.693 53.3837 225.771 53.537 226.002 53.537H230.588C231.05 53.537 231.166 53.4991 231.397 53.0376L233.054 49.5385H244.309L246.043 53.0376H246.041ZM212.757 34.8464C217.14 34.8464 220.292 37.6154 220.292 41.9996C220.292 46.3838 217.716 49.1528 212.835 49.1528H207.8V34.8464H212.759H212.757ZM212.835 53.537C220.906 53.537 225.52 48.9599 225.52 41.9996C225.52 35.0393 220.061 30.4622 212.759 30.4622H203.034C202.803 30.4622 202.574 30.6929 202.574 30.9237V53.0755C202.574 53.3062 202.805 53.537 203.034 53.537H212.837H212.835ZM186.554 37.0764H186.323C186.323 37.0764 186.309 37.1194 186.282 37.2004L186.268 37.2434C186.149 37.5947 185.852 38.4557 185.485 39.3908L185.436 39.513C185.371 39.6766 185.303 39.8419 185.236 40.0055L185.184 40.1295C185.029 40.498 184.867 40.8613 184.705 41.192L182.624 45.4608H190.256L188.175 41.192C188.012 40.8613 187.85 40.498 187.695 40.1295L187.643 40.0055C187.574 39.8402 187.509 39.6766 187.443 39.513L187.395 39.3908C187.027 38.4557 186.73 37.5947 186.611 37.2434L186.598 37.2004C186.57 37.1212 186.556 37.0764 186.556 37.0764H186.554ZM188.442 30.4622L199.311 52.8069C199.388 52.9601 199.464 53.153 199.464 53.2684C199.464 53.3837 199.387 53.537 199.155 53.537H194.569C194.107 53.537 193.991 53.4991 193.76 53.0376L192.026 49.5385H180.771L179.114 53.0376C178.883 53.4991 178.767 53.537 178.305 53.537H173.719C173.488 53.537 173.41 53.3837 173.41 53.2684C173.41 53.153 173.488 52.9601 173.563 52.8069L184.432 30.4622H188.44H188.442ZM157.353 30.4622C157.784 30.4639 157.9 30.5138 158.126 30.9616L163.504 42.0754C163.542 42.1528 163.58 42.2303 163.616 42.3095L163.671 42.4284C163.699 42.4886 163.727 42.5489 163.754 42.6092L163.808 42.7297C163.88 42.8916 163.949 43.0552 164.018 43.217L164.068 43.3393C164.529 44.4517 164.886 45.5039 164.984 45.8018L164.995 45.831C165.007 45.8655 165.012 45.8844 165.012 45.8844H165.245C165.245 45.8844 165.25 45.8655 165.262 45.831L165.273 45.8018C165.371 45.5039 165.726 44.4517 166.189 43.3393L166.239 43.217C166.308 43.0552 166.377 42.8916 166.449 42.7297L166.503 42.6092C166.53 42.5489 166.558 42.4886 166.586 42.4284L166.641 42.3095C166.679 42.2303 166.715 42.1528 166.753 42.0754L172.131 30.9616C172.364 30.5001 172.48 30.4622 172.944 30.4622H177.587C177.82 30.4622 177.896 30.5776 177.896 30.6929C177.896 30.8083 177.78 31.0391 177.665 31.2698L166.946 53.537H163.309L152.591 31.2698C152.475 31.0391 152.358 30.8083 152.358 30.6929C152.358 30.5776 152.435 30.4622 152.666 30.4622H157.349H157.353ZM148.883 43.9231C149.114 43.9231 149.421 43.6148 149.421 43.3841V40.0761C149.421 39.8454 149.114 39.5371 148.883 39.5371H136.718V34.8447H150.039C150.27 34.8447 150.577 34.5364 150.577 34.3057V30.9977C150.577 30.767 150.27 30.4587 150.039 30.4587H131.945C131.714 30.4587 131.483 30.6895 131.483 30.9202V53.072C131.483 53.3028 131.714 53.5335 131.945 53.5335H150.27C150.501 53.5335 150.808 53.2253 150.808 52.9946V49.6866C150.808 49.4558 150.501 49.1476 150.27 49.1476H136.72V43.9179H148.884L148.883 43.9231ZM126.533 53.537C126.764 53.537 126.995 53.3062 126.995 53.0755V30.9237C126.995 30.6929 126.764 30.4622 126.533 30.4622H122.21C121.979 30.4622 121.748 30.6929 121.748 30.9237V45.4229H121.594C121.594 45.4229 120.166 43.5769 118.892 42.3078L107.199 30.4622H103.648C103.417 30.4622 103.186 30.6929 103.186 30.9237V53.0755C103.186 53.3062 103.417 53.537 103.648 53.537H107.97C108.201 53.537 108.433 53.3062 108.433 53.0755V38.5762H108.548C108.548 38.5762 109.937 40.3069 111.173 41.5381L122.982 53.537H126.533Z"
    fill="#A0A9DB" />
  <path
    d="M203.442 92.201C203.442 92.3508 203.716 92.6263 203.866 92.6263H206.244C206.394 92.6263 206.669 92.3508 206.669 92.201V86.2326C206.669 83.8855 205.392 82.1376 202.515 82.1376C201.214 82.1376 199.838 82.687 198.987 83.5858H198.887L198.612 82.8109C198.512 82.5354 198.362 82.3873 198.186 82.3873H196.261C196.111 82.3873 195.834 82.6611 195.834 82.8109V92.1993C195.834 92.3491 196.111 92.6246 196.261 92.6246H198.612C198.763 92.6246 199.037 92.3491 199.037 92.1993V86.5821C199.461 85.6574 200.438 84.8343 201.763 84.8343C202.79 84.8343 203.44 85.4835 203.44 86.4823V92.1993L203.442 92.201ZM190.777 87.5068C190.777 89.079 189.676 90.1777 188.075 90.1777C186.474 90.1777 185.373 89.079 185.373 87.5068C185.373 85.9347 186.474 84.836 188.075 84.836C189.676 84.836 190.777 85.9605 190.777 87.5068ZM188.075 82.1376C184.873 82.1376 182.171 84.0611 182.171 87.5068C182.171 90.9526 184.873 92.8743 188.075 92.8743C191.278 92.8743 193.98 90.9508 193.98 87.5068C193.98 84.0628 191.278 82.1376 188.075 82.1376ZM176.861 78.9916C176.861 79.8646 177.586 80.5896 178.713 80.5896C179.84 80.5896 180.564 79.8646 180.564 78.9916C180.564 78.1185 179.84 77.3935 178.713 77.3935C177.586 77.3935 176.861 78.1168 176.861 78.9916ZM180.314 82.8109C180.314 82.6611 180.04 82.3873 179.89 82.3873H177.538C177.388 82.3873 177.112 82.6611 177.112 82.8109V92.1993C177.112 92.3491 177.388 92.6246 177.538 92.6246H179.89C180.04 92.6246 180.314 92.3491 180.314 92.1993V82.8109ZM168.574 85.0823V88.8535C168.574 91.5501 170.301 92.8743 172.727 92.8743C173.904 92.8743 174.979 92.449 175.505 92.1011C175.729 91.9513 175.855 91.7757 175.855 91.6018C175.855 91.5019 175.805 91.3262 175.755 91.1523L175.329 89.9039C175.255 89.7041 175.029 89.5801 174.779 89.7041C174.404 89.9039 173.778 90.1794 173.278 90.1794C172.377 90.1794 171.776 89.7799 171.776 88.5814V85.0857H174.979C175.129 85.0857 175.329 84.886 175.329 84.7361V82.7386C175.329 82.5888 175.129 82.3891 174.979 82.3891H171.776V80.0661C171.776 79.9163 171.5 79.6407 171.35 79.6407H168.998C168.848 79.6407 168.572 79.9163 168.572 80.0661V82.3891H167.421C167.271 82.3891 167.071 82.5888 167.071 82.7386V84.7361C167.071 84.886 167.271 85.0857 167.421 85.0857H168.572L168.574 85.0823ZM159.638 90.4256C158.787 90.4256 158.437 90.0502 158.437 89.6266C158.437 89.1772 158.737 88.7777 159.838 88.7777H162.864V89.5526C162.164 90.0261 160.839 90.4273 159.636 90.4273L159.638 90.4256ZM163.065 91.5983L163.365 92.2975C163.465 92.5213 163.615 92.6212 163.789 92.6212H165.641C165.791 92.6212 166.067 92.3457 166.067 92.1958V86.8284C166.067 84.1817 164.466 82.1342 160.587 82.1342C157.058 82.1342 155.633 83.6323 155.633 85.48V85.5799C155.633 85.7297 155.909 86.0035 156.059 86.0035H158.411C158.611 86.0035 158.811 85.9295 158.836 85.778V85.728C158.861 85.0788 159.362 84.6793 160.563 84.6793C162.19 84.6793 162.864 85.4043 162.864 86.4513V86.7268L162.814 86.7526C162.814 86.7526 161.063 86.5787 159.586 86.5787C156.46 86.5787 155.233 88.0269 155.233 89.6989C155.233 91.371 156.484 92.8709 159.086 92.8709C160.637 92.8709 161.962 92.3715 162.989 91.5966H163.063L163.065 91.5983ZM153.752 85.8554C153.352 83.5583 151.225 82.1342 148.298 82.1342C145.07 82.1342 142.394 84.2574 142.394 87.5034C142.394 90.9233 145.046 92.8709 148.398 92.8709C150.526 92.8709 152.251 92.0719 153.402 90.9973C153.652 90.7476 153.752 90.572 153.752 90.374C153.752 90.2483 153.726 90.1484 153.576 89.9486L152.776 88.8999C152.676 88.7501 152.501 88.6261 152.3 88.6261C152.098 88.6261 151.975 88.6761 151.725 88.8758C150.724 89.649 149.748 90.1742 148.448 90.1742C146.697 90.1742 145.62 88.9998 145.62 87.5034C145.62 86.007 146.745 84.8326 148.298 84.8326C149.649 84.8326 150.374 85.4818 150.674 86.3806C150.724 86.5546 150.898 86.7061 151.1 86.7061H153.276C153.526 86.7061 153.776 86.4564 153.776 86.2067C153.776 86.1568 153.777 86.007 153.751 85.8572L153.752 85.8554ZM137.659 91.5484L137.909 92.1717C138.033 92.4972 138.159 92.6212 138.36 92.6212H140.111C140.261 92.6212 140.535 92.3457 140.535 92.1958V82.8075C140.535 82.6577 140.261 82.3839 140.111 82.3839H137.759C137.609 82.3839 137.333 82.6577 137.333 82.8075V88.4505C136.983 89.2994 135.858 90.1725 134.631 90.1725C133.63 90.1725 132.93 89.4734 132.93 88.2249V82.8058C132.93 82.656 132.653 82.3822 132.503 82.3822H130.152C130.001 82.3822 129.727 82.656 129.727 82.8058V88.373C129.727 91.0456 131.102 92.8674 134.03 92.8674C135.556 92.8674 136.657 92.294 137.557 91.5432H137.657L137.659 91.5484ZM119.666 87.5034C119.666 85.9295 120.717 84.8326 122.192 84.8326C123.243 84.8326 124.144 85.3561 124.57 86.2308V89.0773C123.969 89.6507 123.195 90.1759 122.118 90.1759C120.793 90.1759 119.666 89.2271 119.666 87.5051V87.5034ZM124.844 91.5983L125.144 92.2733C125.269 92.523 125.394 92.6229 125.569 92.6229H127.344C127.494 92.6229 127.77 92.3474 127.77 92.1976V76.567C127.77 76.4172 127.496 76.1434 127.344 76.1434H124.992C124.842 76.1434 124.566 76.4189 124.566 76.567V82.9332H124.442C123.892 82.4597 122.765 82.1342 121.69 82.1342C118.588 82.1342 116.462 84.4572 116.462 87.5034C116.462 90.7735 118.663 92.8709 121.366 92.8709C122.917 92.8709 123.917 92.3715 124.792 91.5966H124.842L124.844 91.5983ZM114.025 86.3789C114.176 86.3789 114.376 86.1792 114.376 86.0294V83.882C114.376 83.7322 114.176 83.5325 114.025 83.5325H106.119V80.4862H114.776C114.926 80.4862 115.126 80.2865 115.126 80.1367V77.9893C115.126 77.8395 114.926 77.6398 114.776 77.6398H103.017C102.867 77.6398 102.717 77.7896 102.717 77.9394V92.3216C102.717 92.4714 102.867 92.6212 103.017 92.6212H114.926C115.076 92.6212 115.276 92.4214 115.276 92.2716V90.1243C115.276 89.9745 115.076 89.7747 114.926 89.7747H106.119V86.3789H114.025ZM249.984 62.4087C249.834 62.4087 249.634 62.6084 249.634 62.7583V64.7558C249.634 64.9056 249.834 65.1053 249.984 65.1053H251.135V72.2206C251.135 72.3705 251.411 72.6443 251.562 72.6443H253.913C254.063 72.6443 254.338 72.3687 254.338 72.2206V65.1053H257.464C257.614 65.1053 257.815 64.9056 257.815 64.7558V62.7583C257.815 62.6084 257.614 62.4087 257.464 62.4087H254.338V60.4611C254.338 59.1369 255.062 58.6134 255.989 58.6134C256.439 58.6134 256.99 58.7391 257.364 58.8631C257.664 58.963 257.891 58.8872 257.989 58.6375L258.515 57.2892C258.591 57.0894 258.639 56.9654 258.639 56.8397C258.639 56.64 258.515 56.5401 258.265 56.4161C257.739 56.1664 256.864 55.9167 255.687 55.9167C253.111 55.9167 251.134 57.3891 251.134 60.2355V62.4087H249.983H249.984ZM245.35 67.5265C245.35 69.1004 244.249 70.1973 242.648 70.1973C241.047 70.1973 239.946 69.0987 239.946 67.5265C239.946 65.9543 241.047 64.8557 242.648 64.8557C244.249 64.8557 245.35 65.9801 245.35 67.5265ZM242.648 62.159C239.445 62.159 236.743 64.0807 236.743 67.5265C236.743 70.9722 239.445 72.8957 242.648 72.8957C245.85 72.8957 248.552 70.9739 248.552 67.5265C248.552 64.079 245.85 62.159 242.648 62.159ZM223.419 65.1053V68.8748C223.419 71.5715 225.147 72.8957 227.573 72.8957C228.748 72.8957 229.824 72.4721 230.349 72.1225C230.573 71.9727 230.699 71.7988 230.699 71.6231C230.699 71.5232 230.649 71.3493 230.599 71.1737L230.175 69.9252C230.1 69.7255 229.874 69.5998 229.624 69.7255C229.248 69.9252 228.623 70.199 228.123 70.199C227.222 70.199 226.622 69.7995 226.622 68.601V65.1053H229.824C229.974 65.1053 230.175 64.9056 230.175 64.7558V62.7583C230.175 62.6084 229.974 62.4087 229.824 62.4087H226.622V60.0857C226.622 59.9359 226.347 59.6621 226.196 59.6621H223.844C223.694 59.6621 223.418 59.9376 223.418 60.0857V62.4087H222.267C222.117 62.4087 221.916 62.6084 221.916 62.7583V64.7558C221.916 64.9056 222.117 65.1053 222.267 65.1053H223.418H223.419ZM217.686 72.2206C217.686 72.3705 217.96 72.6443 218.11 72.6443H220.488C220.638 72.6443 220.912 72.3687 220.912 72.2206V66.2539C220.912 63.9068 219.637 62.159 216.759 62.159C215.458 62.159 214.081 62.7083 213.232 63.6072H213.132L212.858 62.834C212.758 62.5585 212.608 62.4104 212.433 62.4104H210.506C210.356 62.4104 210.082 62.6859 210.082 62.834V72.2224C210.082 72.3722 210.356 72.646 210.506 72.646H212.858C213.008 72.646 213.282 72.3705 213.282 72.2224V66.6052C213.708 65.6805 214.683 64.8574 216.01 64.8574C217.035 64.8574 217.686 65.5066 217.686 66.5053V72.2241V72.2206ZM202.645 64.6042C204.196 64.6042 204.971 65.3774 205.021 66.2522H200.017C200.317 65.1536 201.418 64.6042 202.645 64.6042ZM208.099 68.3995C208.099 68.3995 208.223 67.6505 208.223 66.8756C208.223 64.3287 206.422 62.1573 202.619 62.1573C198.816 62.1573 196.664 64.5285 196.664 67.5247C196.664 70.9705 199.417 72.8939 202.969 72.8939C205.147 72.8939 206.648 72.2448 207.673 71.4457C207.899 71.2718 207.999 71.122 207.999 70.9464C207.999 70.8207 207.949 70.6967 207.875 70.5469L207.25 69.3225C207.15 69.1228 206.95 69.047 206.8 69.047C206.6 69.047 206.424 69.121 206.225 69.2467C205.349 69.7702 204.2 70.1956 203.099 70.1956C201.447 70.1956 200.171 69.6962 199.972 68.3978H208.102L208.099 68.3995ZM178.095 72.2189C178.095 72.3687 178.369 72.6425 178.52 72.6425H180.871C181.021 72.6425 181.296 72.367 181.296 72.2189V66.6018C181.672 65.603 182.623 64.9039 183.548 64.9039C184.322 64.9039 184.899 65.3774 184.899 66.3262V72.2189C184.899 72.3687 185.173 72.6425 185.323 72.6425H187.675C187.825 72.6425 188.101 72.367 188.101 72.2189V66.6018C188.475 65.603 189.426 64.9039 190.353 64.9039C191.079 64.9039 191.704 65.3275 191.704 66.3262V72.2189C191.704 72.3687 191.978 72.6425 192.128 72.6425H194.48C194.63 72.6425 194.904 72.367 194.904 72.2189V66.1506C194.904 63.7536 193.654 62.1556 191.252 62.1556C189.901 62.1556 188.65 62.6549 187.599 63.7777H187.523C186.948 62.7789 185.772 62.1556 184.621 62.1556C183.47 62.1556 182.345 62.4552 181.268 63.6038H181.168L180.868 62.8047C180.768 62.5551 180.642 62.4052 180.392 62.4052H178.514C178.364 62.4052 178.09 62.6808 178.09 62.8289V72.2172L178.095 72.2189ZM169.558 65.1036V68.8731C169.558 71.5697 171.285 72.8939 173.711 72.8939C174.887 72.8939 175.962 72.4703 176.487 72.1208C176.713 71.971 176.837 71.797 176.837 71.6214C176.837 71.5215 176.787 71.3476 176.737 71.1719L176.311 69.9235C176.237 69.7237 176.011 69.598 175.761 69.7237C175.384 69.9235 174.76 70.1973 174.259 70.1973C173.359 70.1973 172.758 69.7978 172.758 68.5993V65.1036H175.961C176.111 65.1036 176.311 64.9039 176.311 64.7541V62.7565C176.311 62.6067 176.111 62.407 175.961 62.407H172.758V60.084C172.758 59.9342 172.484 59.6604 172.334 59.6604H169.982C169.832 59.6604 169.556 59.9359 169.556 60.084V62.407H168.405C168.255 62.407 168.055 62.6067 168.055 62.7565V64.7541C168.055 64.9039 168.255 65.1036 168.405 65.1036H169.556H169.558ZM160.621 63.8293C160.421 63.3058 160.247 62.407 159.871 62.407H157.919C157.769 62.407 157.495 62.6825 157.495 62.8306V72.2189C157.495 72.3687 157.769 72.6425 157.919 72.6425H160.271C160.421 72.6425 160.697 72.367 160.697 72.2189V66.65C161.023 65.7012 161.948 64.8522 162.825 64.8522C163.475 64.8522 163.95 65.2775 163.95 66.1007V66.6999C163.95 66.8497 164.226 67.1235 164.376 67.1235H166.728C166.878 67.1235 167.152 66.848 167.152 66.6999V65.6512C167.152 63.404 165.951 62.1556 164 62.1556C162.773 62.1556 161.672 62.5792 160.721 63.8276H160.621V63.8293ZM149.107 70.447C148.257 70.447 147.906 70.0716 147.906 69.648C147.906 69.1985 148.207 68.799 149.308 68.799H152.334V69.5722C151.633 70.0475 150.308 70.447 149.106 70.447H149.107ZM152.536 71.6197L152.836 72.3188C152.936 72.5427 153.086 72.6425 153.261 72.6425H155.112C155.262 72.6425 155.536 72.367 155.536 72.2189V66.8497C155.536 64.203 153.935 62.1556 150.056 62.1556C146.528 62.1556 145.103 63.6537 145.103 65.5014V65.6013C145.103 65.7511 145.377 66.0249 145.527 66.0249H147.879C148.079 66.0249 148.279 65.9508 148.305 65.801V65.7511C148.329 65.1019 148.83 64.7024 150.032 64.7024C151.658 64.7024 152.334 65.4274 152.334 66.4743V66.7498L152.284 66.7757C152.284 66.7757 150.533 66.6018 149.056 66.6018C145.929 66.6018 144.702 68.05 144.702 69.722C144.702 71.3941 145.953 72.8922 148.555 72.8922C150.106 72.8922 151.433 72.3928 152.458 71.6179H152.532L152.536 71.6197ZM140.485 67.5006C140.485 69.2226 139.334 70.1715 138.033 70.1715C136.958 70.1715 136.182 69.8219 135.582 69.2467V66.5759C135.956 65.603 136.933 64.8522 138.108 64.8522C139.535 64.8522 140.485 65.9009 140.485 67.4989V67.5006ZM135.281 63.4557L134.981 62.8065C134.881 62.5568 134.731 62.407 134.581 62.407H132.805C132.655 62.407 132.381 62.6825 132.381 62.8306V78.4612C132.381 78.611 132.655 78.8848 132.805 78.8848H135.157C135.307 78.8848 135.583 78.6093 135.583 78.4612V71.9692H135.657C136.432 72.5685 137.559 72.8922 138.734 72.8922C141.386 72.8922 143.688 70.7948 143.688 67.4989C143.688 64.4028 141.786 62.1556 138.784 62.1556C137.233 62.1556 136.132 62.7548 135.381 63.4539H135.281V63.4557ZM124.942 64.6042C126.494 64.6042 127.268 65.3774 127.32 66.2522H122.316C122.616 65.1536 123.717 64.6042 124.942 64.6042ZM130.397 68.3995C130.397 68.3995 130.523 67.6505 130.523 66.8756C130.523 64.3287 128.721 62.1573 124.918 62.1573C121.115 62.1573 118.964 64.5285 118.964 67.5247C118.964 70.9705 121.716 72.8939 125.269 72.8939C127.444 72.8939 128.947 72.2448 129.972 71.4457C130.196 71.2718 130.298 71.122 130.298 70.9464C130.298 70.8207 130.248 70.6967 130.172 70.5469L129.548 69.3225C129.448 69.1228 129.247 69.047 129.097 69.047C128.897 69.047 128.723 69.121 128.521 69.2467C127.646 69.7702 126.495 70.1956 125.394 70.1956C123.743 70.1956 122.468 69.6962 122.268 68.3978H130.398L130.397 68.3995ZM109.358 60.5076C112.21 60.5145 114.257 62.3174 114.25 65.1639C114.243 68.0104 112.561 69.803 109.384 69.7961L106.107 69.7875L106.131 60.499L109.358 60.5076ZM109.396 72.6443C114.65 72.6443 117.652 69.6721 117.652 65.1536C117.652 60.635 114.1 57.6629 109.346 57.6629H103.017C102.867 57.6629 102.717 57.8127 102.717 57.9625V72.3446C102.717 72.4944 102.867 72.6443 103.017 72.6443H109.398H109.396Z"
    fill="#A0A9DB" />
</svg>