<svg width="140" height="60" viewBox="0 0 140 60" fill="none" xmlns="http://www.w3.org/2000/svg">
<path d="M70.497 54C69.8484 54 69.2019 53.832 68.6342 53.506L62.7023 50.0319C61.8174 49.5419 62.2497 49.3679 62.5407 49.2659C63.7226 48.8599 63.961 48.7659 65.2237 48.0579C65.3551 47.9839 65.5288 48.0119 65.6642 48.0919L70.2222 50.7699C70.3068 50.8144 70.4012 50.8377 70.497 50.8377C70.5928 50.8377 70.6871 50.8144 70.7717 50.7699L88.5411 40.6178C88.6235 40.5679 88.6917 40.498 88.7391 40.4146C88.7865 40.3313 88.8115 40.2374 88.8118 40.1417V19.8414C88.8123 19.7438 88.787 19.6478 88.7384 19.5629C88.6899 19.4781 88.6198 19.4072 88.535 19.3574L70.7738 9.21318C70.69 9.1673 70.5958 9.14324 70.5 9.14324C70.4042 9.14324 70.31 9.1673 70.2262 9.21318L52.469 19.3594C52.3838 19.4085 52.3131 19.4789 52.2638 19.5634C52.2146 19.6479 52.1885 19.7438 52.1882 19.8414V40.1417C52.1886 40.2377 52.2148 40.3319 52.2642 40.4145C52.3135 40.4971 52.3842 40.5652 52.469 40.6118L57.3361 43.3958C59.9768 44.7038 61.5951 43.1638 61.5951 41.6158V21.5734C61.5951 21.2894 61.8254 21.0674 62.1123 21.0674H64.3651C64.6459 21.0674 64.8803 21.2914 64.8803 21.5734V41.6158C64.8803 45.1058 62.9609 47.1059 59.6192 47.1059C58.5928 47.1059 57.7826 47.1059 55.5259 46.0039L50.8628 43.3498C50.2965 43.0224 49.8267 42.5541 49.4999 41.9913C49.1731 41.4285 49.0008 40.7909 49 40.1417V19.8414C49 18.5234 49.7132 17.2913 50.8628 16.6353L68.6321 6.47113C69.2048 6.16199 69.8467 6 70.499 6C71.1513 6 71.7932 6.16199 72.3658 6.47113L90.1332 16.6353C91.2848 17.2933 92 18.5234 92 19.8414V40.1417C91.9988 40.7913 91.8259 41.4292 91.4984 41.992C91.1708 42.5548 90.7002 43.0229 90.1332 43.3498L72.3658 53.506C71.8001 53.832 71.1556 54 70.497 54ZM84.8438 33.9856C84.8438 30.1856 82.2496 29.1735 76.7885 28.4595C71.2708 27.7375 70.7091 27.3635 70.7091 26.0855C70.7091 25.0295 71.1839 23.6194 75.2712 23.6194C78.922 23.6194 80.2676 24.3975 80.8212 26.8335C80.8464 26.9461 80.9095 27.0468 81.0002 27.1191C81.0909 27.1914 81.2037 27.2311 81.3202 27.2315H83.6255C83.6959 27.2308 83.7654 27.2161 83.83 27.1883C83.8945 27.1605 83.9528 27.1201 84.0013 27.0695C84.0498 27.0168 84.0868 26.9549 84.1101 26.8874C84.1334 26.82 84.1424 26.7485 84.1366 26.6775C83.779 22.4814 80.9626 20.5254 75.2712 20.5254C70.204 20.5254 67.1815 22.6414 67.1815 26.1915C67.1815 30.0416 70.1878 31.1056 75.0509 31.5816C80.8697 32.1456 81.3202 32.9876 81.3202 34.1196C81.3202 36.0857 79.7261 36.9237 75.9823 36.9237C71.2809 36.9237 70.2464 35.7557 69.8989 33.4396C69.8796 33.3193 69.8175 33.2099 69.7237 33.131C69.63 33.0521 69.5108 33.0091 69.3878 33.0096H67.0906C67.0231 33.0085 66.956 33.0209 66.8934 33.0459C66.8308 33.0709 66.7739 33.1081 66.726 33.1553C66.6782 33.2025 66.6404 33.2587 66.6148 33.3206C66.5893 33.3825 66.5766 33.4488 66.5774 33.5156C66.5774 36.4797 68.2058 40.0117 75.9823 40.0117C81.6152 40.0137 84.8438 37.8197 84.8438 33.9856Z" fill="#A0A9DB"/>
</svg>
