<svg width="140" height="60" viewBox="0 0 140 60" fill="none" xmlns="http://www.w3.org/2000/svg">
<g clip-path="url(#clip0_5122_5837)">
<g clip-path="url(#clip1_5122_5837)">
<path d="M73.904 50.8811H97.696C98.4507 50.8811 99.1947 50.6864 99.848 50.3211C100.498 49.9572 101.041 49.4295 101.424 48.7904C101.801 48.159 102 47.4376 102 46.7024C101.998 45.9679 101.798 45.2474 101.421 44.6171L85.4453 17.7718C85.0623 17.1337 84.5189 16.6069 83.8693 16.2438C83.2118 15.8759 82.4708 15.6831 81.7173 15.6838C80.9627 15.6838 80.2187 15.8784 79.5653 16.2438C78.9167 16.6073 78.3744 17.134 77.992 17.7718L73.9013 24.6411L65.92 11.2091C65.5369 10.571 64.9936 10.0443 64.344 9.6811C63.6865 9.31326 62.9455 9.12043 62.192 9.1211C61.4347 9.1211 60.6933 9.31576 60.04 9.6811C59.3904 10.0443 58.8471 10.571 58.464 11.2091L38.576 44.6171C38.1989 45.2474 37.999 45.9679 37.9973 46.7024C37.9973 47.4358 38.1947 48.1558 38.5733 48.7904C38.9553 49.4291 39.4977 49.9568 40.1467 50.3211C40.8027 50.6864 41.5467 50.8811 42.3013 50.8811H57.2347C63.1547 50.8811 67.5173 48.3584 70.52 43.4411L77.808 31.1931L81.712 24.6411L93.432 44.3264H77.808L73.904 50.8811ZM56.9947 44.3211L46.5733 44.3158L62.1947 18.0704L69.9893 31.1931L64.7707 39.9664C62.776 43.1558 60.512 44.3184 56.9947 44.3184" fill="#A0A9DB"/>
</g>
</g>
<defs>
<clipPath id="clip0_5122_5837">
<rect width="140" height="60" fill="white"/>
</clipPath>
<clipPath id="clip1_5122_5837">
<rect width="64" height="64" fill="white" transform="translate(38 -2)"/>
</clipPath>
</defs>
</svg>
