<svg width="140" height="60" viewBox="0 0 140 60" fill="none" xmlns="http://www.w3.org/2000/svg">
<path d="M118.741 36.781C115.39 36.781 113.028 34.1401 113.028 30.6667C113.028 27.1933 115.39 24.5521 118.741 24.5521C122.092 24.5521 124.388 27.1933 124.388 30.6667C124.388 34.1401 122.059 36.7812 118.741 36.7812M118.202 40.4212C120.905 40.4212 123.201 39.3559 124.652 37.1254C124.926 39.2894 126.476 40.0771 128.431 40.0771H129.992V36.6482H129.321C128.212 36.6482 127.937 36.1046 127.937 34.8281V21.2676H124.355V24.053C123.136 22.0998 120.839 20.9235 118.202 20.9235C113.5 20.9235 109.182 24.9074 109.182 30.6669C109.182 36.4265 113.511 40.4101 118.202 40.4101L118.202 40.4212ZM99.7546 35.7159C99.7546 38.8011 101.644 40.0771 103.908 40.0771H108.27V36.6482H105.094C103.776 36.6482 103.501 36.1377 103.501 34.8281V24.6965H108.27V21.2674H103.502V14.9531H99.7549L99.7546 35.7159ZM82.6914 40.0771H86.4381V32.0094H87.6907L94.0742 40.0769H98.8098L90.6682 29.8454L96.9198 21.2674H92.7007L87.592 28.5136H86.4383V14.9531H82.6917L82.6914 40.0771ZM70.5286 20.9235C65.2877 20.9235 60.9697 24.9074 60.9697 30.6669C60.9697 36.4265 65.2987 40.4101 70.5286 40.4101C75.7584 40.4101 80.0874 36.4262 80.0874 30.6669C80.0874 24.9074 75.7584 20.9235 70.5286 20.9235ZM70.5286 36.7815C67.1774 36.7815 64.8153 34.1401 64.8153 30.6669C64.8153 27.1936 67.1774 24.5524 70.5286 24.5524C73.8797 24.5524 76.2418 27.1936 76.2418 30.6669C76.2418 34.1403 73.8797 36.7815 70.5286 36.7815ZM31.7549 10.8028L30.9417 20.9235C30.555 20.8791 30.1662 20.8568 29.777 20.8568C29.2826 20.8568 28.7993 20.8899 28.3269 20.9678L27.865 16.0629C27.8622 16.0261 27.867 15.9892 27.879 15.9544C27.891 15.9196 27.91 15.8876 27.9347 15.8605C27.9595 15.8334 27.9895 15.8118 28.0229 15.7969C28.0563 15.782 28.0924 15.7743 28.1289 15.7741H28.9528L28.5575 10.8141C28.5465 10.6586 28.6676 10.5254 28.8104 10.5254H31.502C31.6557 10.5254 31.7767 10.6586 31.7546 10.8139L31.7549 10.8028ZM24.9648 11.3022C24.9207 11.1578 24.767 11.0691 24.6241 11.1247L22.0971 12.0568C21.9542 12.1124 21.8883 12.2788 21.9542 12.4118L24.0089 16.9396L23.2288 17.2281C23.0858 17.2835 23.0202 17.4499 23.0858 17.5831L25.1846 22.0331C25.9538 21.6049 26.7784 21.2874 27.6347 21.0899L24.9758 11.3022H24.9648ZM18.7678 14.1209L24.58 22.3992C23.8439 22.8875 23.1737 23.4646 22.6021 24.1304L19.1198 20.6681C19.0945 20.6423 19.0746 20.6116 19.0614 20.5778C19.0482 20.5441 19.0419 20.5079 19.043 20.4716C19.044 20.4354 19.0523 20.3996 19.0674 20.3667C19.0825 20.3337 19.1041 20.3042 19.1308 20.2799L19.7682 19.7472L16.307 16.207C16.2812 16.1811 16.2611 16.15 16.2482 16.1157C16.2352 16.0814 16.2295 16.0446 16.2316 16.008C16.2337 15.9713 16.2434 15.9355 16.2602 15.9029C16.277 15.8703 16.3005 15.8417 16.329 15.8189L18.3837 14.0764C18.5044 13.9765 18.6694 13.9988 18.7573 14.1209H18.7678ZM13.8897 18.9147C13.7688 18.826 13.5931 18.8705 13.516 19.0035L12.1755 21.3562C12.1579 21.3873 12.1467 21.4217 12.1427 21.4573C12.1387 21.4929 12.1419 21.529 12.1523 21.5633C12.1626 21.5976 12.1797 21.6294 12.2027 21.6567C12.2256 21.6841 12.2539 21.7064 12.2857 21.7223L16.7464 23.853L16.3288 24.5744C16.2519 24.7074 16.3068 24.8852 16.4497 24.9405L20.8884 26.9936C21.2035 26.1673 21.6327 25.3903 22.1632 24.6854L13.8897 18.9147ZM10.6042 25.3067C10.6265 25.1514 10.7802 25.0627 10.923 25.096L20.6468 27.6594C20.3895 28.5089 20.249 29.3901 20.2292 30.2783L15.3619 29.8788C15.3255 29.8763 15.29 29.8658 15.258 29.8482C15.2259 29.8306 15.198 29.8062 15.1761 29.7768C15.1542 29.7473 15.1389 29.7133 15.1311 29.6773C15.1234 29.6413 15.1235 29.604 15.1313 29.568L15.274 28.7467L10.3626 28.2807C10.2089 28.2698 10.11 28.1254 10.1323 27.9701L10.5937 25.2956L10.6042 25.3067ZM10.2422 31.9431C10.0882 31.954 9.98933 32.0984 10.0114 32.2537L10.4838 34.9282C10.5058 35.0835 10.6596 35.1723 10.8025 35.1389L15.5709 33.8849L15.7139 34.7062C15.7357 34.8615 15.8896 34.9502 16.0326 34.9169L20.7349 33.6075C20.4602 32.7862 20.2845 31.9098 20.2404 31.0111L10.2309 31.9427L10.2422 31.9431ZM11.8022 38.9786C11.7845 38.9476 11.7734 38.9131 11.7694 38.8775C11.7654 38.8419 11.7686 38.8058 11.7789 38.7715C11.7893 38.7372 11.8064 38.7054 11.8294 38.6781C11.8523 38.6507 11.8805 38.6284 11.9124 38.6125L20.9875 34.2622C21.3283 35.0835 21.7897 35.8492 22.339 36.5372L18.3617 39.4002C18.3327 39.4214 18.2995 39.4363 18.2645 39.444C18.2294 39.4516 18.1931 39.4517 18.158 39.4444C18.1229 39.4371 18.0896 39.4225 18.0604 39.4015C18.0311 39.3806 18.0065 39.3537 17.9882 39.3226L17.5706 38.5902L13.5164 41.4201C13.3955 41.5088 13.2198 41.4643 13.1427 41.3311L11.7912 38.9784L11.8022 38.9786ZM22.8004 37.07L15.7354 44.2939C15.7096 44.3198 15.6896 44.351 15.6766 44.3853C15.6636 44.4196 15.658 44.4563 15.66 44.493C15.6621 44.5297 15.6719 44.5655 15.6887 44.5981C15.7055 44.6307 15.7289 44.6593 15.7575 44.6821L17.823 46.4246C17.9439 46.5244 18.1088 46.5022 18.1967 46.3801L21.0534 42.3185L21.6905 42.8624C21.7185 42.8864 21.7513 42.9042 21.7865 42.9144C21.8218 42.9247 21.8589 42.9273 21.8952 42.9221C21.9316 42.9168 21.9664 42.9038 21.9974 42.8839C22.0284 42.8641 22.0549 42.8378 22.0751 42.8068L24.8439 38.7453C24.0968 38.2792 23.4045 37.7133 22.8112 37.0695L22.8004 37.07ZM21.4051 48.6665C21.2622 48.6108 21.1966 48.4444 21.2622 48.3114L25.4485 39.0783C26.2176 39.4781 27.0525 39.7777 27.9206 39.9441L26.69 44.7157C26.6572 44.8601 26.4922 44.9488 26.3493 44.8932L25.5694 44.6049L24.2618 49.4097C24.2179 49.554 24.064 49.643 23.9213 49.5874L21.3941 48.6553L21.4051 48.6665ZM28.6128 40.0662L27.7996 50.1867C27.7886 50.342 27.9098 50.4752 28.0525 50.4752H30.7442C30.8981 50.4752 31.019 50.342 30.997 50.1865L30.6014 45.2262H31.4254C31.5793 45.2262 31.7003 45.0932 31.6893 44.9377L31.2276 40.0328C30.7552 40.1105 30.2717 40.1439 29.7775 40.1439C29.3819 40.1439 28.9971 40.1216 28.6128 40.0662ZM38.3036 12.6674C38.3692 12.523 38.3036 12.3678 38.1606 12.3124L35.6332 11.3798C35.4903 11.3244 35.3368 11.413 35.2927 11.5573L33.9851 16.3626L33.2052 16.0738C33.0623 16.0184 32.9085 16.1072 32.8645 16.2513L31.6342 21.0231C32.513 21.2007 33.3369 21.5005 34.106 21.8889L38.3036 12.6674ZM43.8191 16.6958L36.7541 23.9195C36.1556 23.2696 35.4717 22.7058 34.7214 22.2437L37.4902 18.1822C37.5781 18.0601 37.7538 18.0267 37.8747 18.1266L38.5122 18.6705L41.3688 14.6089C41.4567 14.4868 41.6324 14.4646 41.7423 14.5644L43.8078 16.3067C43.9288 16.4066 43.9288 16.5841 43.8299 16.6951L43.8191 16.6958ZM47.6426 22.3772C47.7856 22.311 47.8294 22.1443 47.7525 22.0111L46.4011 19.6584C46.3242 19.5254 46.1485 19.492 46.0275 19.5697L41.9734 22.3995L41.5558 21.6783C41.4787 21.545 41.3029 21.5008 41.182 21.6004L37.2048 24.4636C37.7541 25.1517 38.2047 25.9173 38.5562 26.7384L47.6316 22.3883L47.6426 22.3772ZM49.0709 26.0615L49.5326 28.736C49.5385 28.7719 49.5372 28.8085 49.5287 28.8438C49.5202 28.8791 49.5046 28.9122 49.4831 28.9413C49.4615 28.9703 49.4343 28.9946 49.4031 29.0127C49.3719 29.0308 49.3375 29.0423 49.3018 29.0466L39.2923 29.99C39.2485 29.0799 39.0727 28.2144 38.7978 27.3933L43.5004 26.0837C43.6433 26.0395 43.7971 26.1394 43.8191 26.2944L43.962 27.1157L48.7304 25.8617C48.8734 25.8286 49.0271 25.9173 49.0492 26.0726L49.0709 26.0615ZM48.6205 35.8826C48.7635 35.9157 48.9172 35.8269 48.9392 35.6717L49.4007 32.9971C49.4066 32.9613 49.4053 32.9246 49.3967 32.8894C49.3882 32.8541 49.3727 32.8209 49.3511 32.7919C49.3295 32.7629 49.3023 32.7386 49.2712 32.7204C49.24 32.7023 49.2055 32.6908 49.1698 32.6866L44.2585 32.2203L44.4014 31.3992C44.4074 31.3634 44.4061 31.3267 44.3976 31.2914C44.3891 31.2561 44.3736 31.2229 44.352 31.1939C44.3304 31.1648 44.3032 31.1405 44.272 31.1224C44.2408 31.1042 44.2063 31.0927 44.1706 31.0885L39.3033 30.6892C39.2834 31.5773 39.1429 32.4584 38.8857 33.3079L48.6095 35.8712L48.6205 35.8826ZM46.0275 41.986C45.9507 42.119 45.7749 42.1524 45.654 42.0747L37.3805 36.3043C37.9109 35.5994 38.34 34.8222 38.6551 33.9959L43.094 36.0489C43.2367 36.1154 43.2916 36.2821 43.2147 36.4151L42.7973 37.1365L47.2581 39.2672C47.39 39.3337 47.4448 39.5001 47.368 39.6333L46.0275 41.986ZM34.9633 38.5791L40.7757 46.8575C40.8635 46.9796 41.0393 47.0018 41.1492 46.902L43.2037 45.1597C43.3246 45.0598 43.3246 44.8823 43.2257 44.7713L39.7647 41.2314L40.4021 40.6986C40.5228 40.5988 40.5228 40.4212 40.4131 40.3102L36.9301 36.848C36.3478 37.5138 35.6886 38.102 34.9522 38.5791H34.9633ZM34.9084 49.8537C34.7655 49.9093 34.6117 49.8205 34.5679 49.6762L31.9088 39.8885C32.7651 39.691 33.5899 39.3735 34.3591 38.9453L36.4577 43.3952C36.5235 43.5396 36.4577 43.706 36.3147 43.7502L35.5346 44.039L37.5893 48.5666C37.6552 48.711 37.5893 48.8662 37.4464 48.9216L34.9194 49.8537H34.9084Z" fill="#A0A9DB"/>
</svg>
