<svg width="140" height="60" viewBox="0 0 140 60" fill="none" xmlns="http://www.w3.org/2000/svg">
<mask id="mask0_5104_5162" style="mask-type:luminance" maskUnits="userSpaceOnUse" x="10" y="15" width="120" height="31">
<path d="M130 15.5H10V45.0798H130V15.5Z" fill="white"/>
</mask>
<g mask="url(#mask0_5104_5162)">
<path d="M49.7479 28.8613C50.0001 27.1807 51.5126 25.0798 54.3697 25.0798C57.0587 25.0798 58.5715 27.0126 58.8235 28.8613H49.7479ZM46.0504 30.2059C46.0504 34.9118 49.4958 38.105 54.4539 38.105C57.7311 38.105 59.9159 36.5084 61.1764 35.0798C61.3445 34.9118 61.3445 34.7437 61.1764 34.5757L59.4118 32.9791C59.2437 32.8109 58.9916 32.8109 58.9075 32.9791C57.9832 33.7354 56.6386 34.9958 54.5379 34.9958C52.1008 34.9958 50.3362 33.4832 49.9159 31.5505H62.1008C62.437 31.5505 62.605 31.3823 62.605 31.0462V30.2899C62.605 25.7521 59.6638 22.0546 54.7058 22.0546C49.2437 22.0546 46.0504 25.6681 46.0504 30.2059ZM64.7059 37.5169C64.7059 37.7689 64.8739 37.937 65.1261 37.937H67.7311C67.9833 37.937 68.1513 37.7689 68.1513 37.5169V15.8361C68.0673 15.6681 67.9833 15.5 67.7311 15.5H65.042C64.7899 15.5 64.7059 15.6681 64.7059 15.8361V37.5169ZM40.6723 37.5169C40.6723 37.7689 40.8403 37.937 41.0925 37.937H43.6135C43.8655 37.937 44.0337 37.7689 44.0337 37.5169V28.7773C44.0337 25.0798 41.8488 22.0546 37.227 22.0546H37.1428C34.8739 22.0546 33.1933 22.8109 32.1848 23.6513V22.8109C32.1848 22.5588 32.0168 22.3908 31.7647 22.3908H29.1596C28.9075 22.3908 28.7395 22.5588 28.7395 22.8109V37.4327C28.7395 37.6849 28.9075 37.853 29.1596 37.853H31.7647C32.0168 37.853 32.1848 37.6849 32.1848 37.4327V29.3656C32.1848 26.8445 33.4455 24.9958 36.4707 24.9958C39.4959 24.9958 40.6723 26.8445 40.6723 29.3656V37.5169ZM89.8319 42.0547C91.0084 43.4833 93.5294 45.1638 97.0588 45.1638C102.017 45.1638 104.958 42.1386 104.958 37.3487V22.895C104.958 22.6428 104.79 22.4748 104.538 22.4748H102.101C101.849 22.4748 101.681 22.6428 101.681 22.895V23.7353C100.588 22.8109 99.1597 22.1387 96.8067 22.1387C92.353 22.1387 88.4874 25.416 88.4874 30.2059C88.4874 35.0798 92.2689 38.2732 96.8067 38.2732C98.9916 38.2732 100.42 37.5169 101.513 36.6764V37.6848C101.513 40.3739 99.916 42.2226 96.9748 42.2226C94.5378 42.2226 92.9411 40.8782 91.8487 39.8698C91.6807 39.7018 91.3445 39.7018 91.1764 39.8698L89.8319 41.3823C89.5798 41.5503 89.5798 41.8025 89.8319 42.0547ZM23.1093 30.1219C23.1093 32.8109 21.0924 34.9958 18.3193 34.9958C15.5462 34.9958 13.6975 32.6429 13.6975 30.1219V29.9538C13.6975 27.3487 15.6302 25.1639 18.3193 25.1639C21.0084 25.1639 23.1093 27.3487 23.1093 30.1219ZM10 30.1219C10 34.4916 13.5294 38.189 18.3193 38.189C23.1092 38.189 26.6386 34.4916 26.6386 30.1219V29.9538C26.6386 25.584 23.1092 22.0546 18.3193 22.0546C13.5294 22.0546 10 25.584 10 30.1219ZM83.1933 30.1219C83.1933 32.8109 81.1765 34.9958 78.4033 34.9958C75.7142 34.9958 73.7815 32.6429 73.7815 30.1219V29.9538C73.7815 27.3487 75.7142 25.1639 78.4033 25.1639C81.1765 25.1639 83.1933 27.3487 83.1933 30.1219ZM70.084 30.1219C70.084 34.4916 73.6135 38.189 78.4033 38.189C83.1932 38.189 86.7227 34.4916 86.7227 30.1219V29.9538C86.7227 25.584 83.1932 22.0546 78.4033 22.0546C73.6135 22.0546 70.084 25.584 70.084 30.1219ZM108.151 37.5169C108.151 37.7689 108.319 37.937 108.571 37.937H111.176C111.428 37.937 111.597 37.7689 111.597 37.5169V22.8109C111.597 22.6429 111.513 22.4748 111.261 22.4748H108.571C108.319 22.4748 108.235 22.6429 108.235 22.8109V37.5169H108.151ZM108.151 18.6092C108.151 18.8613 108.319 19.0294 108.571 19.0294H111.176C111.428 19.0294 111.597 18.8613 111.597 18.6092V15.8361C111.597 15.6681 111.513 15.5 111.261 15.5H108.571C108.319 15.5 108.235 15.6681 108.235 15.8361V18.6092H108.151ZM126.555 37.5169C126.555 37.7689 126.723 37.937 126.975 37.937H129.58C129.832 37.937 130 37.7689 130 37.5169V28.7773C130 25.0798 127.815 22.0546 123.193 22.0546H123.109C120.84 22.0546 119.16 22.8109 118.151 23.6513V22.8109C118.151 22.5588 117.983 22.3908 117.731 22.3908H115.126C114.874 22.3908 114.706 22.5588 114.706 22.8109V37.4327C114.706 37.6849 114.874 37.853 115.126 37.853H117.731C117.983 37.853 118.151 37.6849 118.151 37.4327V29.3656C118.151 26.8445 119.412 24.9958 122.437 24.9958C125.462 24.9958 126.639 26.8445 126.639 29.3656V37.5169H126.555ZM101.597 30.1219C101.597 32.8109 99.5799 34.9958 96.8067 34.9958C94.0336 34.9958 92.1849 32.6429 92.1849 30.1219V29.9538C92.1849 27.3487 94.1176 25.1639 96.8067 25.1639C99.4959 25.1639 101.597 27.3487 101.597 30.1219Z" fill="#A0A9DB"/>
</g>
</svg>
