<svg width="140" height="60" viewBox="0 0 140 60" fill="none" xmlns="http://www.w3.org/2000/svg">
<path d="M89.3334 29.6301C89.1107 26.8802 88.3759 24.1958 87.1665 21.7147L94 19.2394C93.4611 18.1261 92.829 17.0601 92.1106 16.0527L88.907 17.217C86.1086 13.3029 82.101 10.412 77.4983 8.98731C72.8955 7.5626 67.9514 7.68264 63.4236 9.32902C58.8957 10.9754 55.0338 14.0573 52.4296 18.1026C49.8254 22.1479 48.6224 26.9334 49.0051 31.7259L52.216 30.5488C52.3162 31.7768 52.5197 32.9943 52.8243 34.1884L46 36.6728C46.6776 39.3459 47.8447 41.8709 49.4425 44.1207L53.0559 42.8079L53.0596 42.8152C55.2536 45.8938 58.2111 48.3515 61.6428 49.9477C66.9447 52.4062 73.0075 52.6664 78.5015 50.6714C83.9954 48.6764 88.4719 44.589 90.949 39.3058C92.5545 35.8773 93.2385 32.0911 92.934 28.3192L89.3334 29.6301ZM83.9666 36.0402C82.3604 39.4727 79.4548 42.1293 75.8874 43.4269C72.32 44.7246 68.3822 44.5574 64.9383 42.9619C63.3783 42.2374 61.9638 41.2352 60.7643 40.0044L57.1159 41.3319C55.1565 39.3169 53.8313 36.7736 53.304 34.016L60.1504 31.5279C59.9067 30.2808 59.8307 29.0069 59.9243 27.7398L56.7042 28.9077C56.8748 26.603 57.6046 24.3743 58.8307 22.4135C60.0569 20.4528 61.7425 18.8189 63.7425 17.6527C65.7424 16.4865 67.9966 15.823 70.3108 15.7193C72.625 15.6156 74.9298 16.0748 77.0265 17.0575H77.0375C78.5939 17.7842 80.0046 18.7877 81.2005 20.0187L84.4059 18.8562C85.2902 19.7641 86.0498 20.7852 86.6647 21.8926L79.8459 24.3862C81.2199 26.8353 81.8442 29.6325 81.6416 32.4318L85.2587 31.119C85.1305 32.8245 84.6927 34.4927 83.9666 36.0421V36.0402Z" fill="#A0A9DB"/>
</svg>
