<svg width="140" height="60" viewBox="0 0 140 60" fill="none" xmlns="http://www.w3.org/2000/svg">
<mask id="mask0_5117_5543" style="mask-type:luminance" maskUnits="userSpaceOnUse" x="4" y="8" width="132" height="44">
<path d="M136 8H4V51.2212H136V8Z" fill="white"/>
</mask>
<g mask="url(#mask0_5117_5543)">
<path d="M41.1242 22.7789C37.2126 20.3155 31.7509 18.7852 25.7726 18.7852C13.7423 18.7852 4 24.8692 4 32.3716C4 39.2396 12.1186 44.8757 22.6359 45.8461V41.8896C15.5506 40.9938 10.2366 37.0747 10.2366 32.3716C10.2366 27.0341 17.1742 22.667 25.7726 22.667C30.0533 22.667 33.9282 23.7495 36.7328 25.5037L32.7472 28.0045H45.1835V20.2408L41.1242 22.7789Z" fill="#A0A9DB"/>
<path d="M22.636 12.0685V41.8915V45.8481L28.8726 41.8915V8L22.636 12.0685Z" fill="#A0A9DB"/>
<path d="M49.5853 30.2401C49.9794 28.8448 50.6199 27.6489 51.4574 26.6024C52.3442 25.5559 53.3788 24.7088 54.6598 24.1109C55.9407 23.4631 57.4188 23.1641 59.0939 23.1641C60.8182 23.1641 62.2962 23.4631 63.5772 24.1109C64.8089 24.7088 65.8927 25.5559 66.7303 26.6024C67.5678 27.6489 68.2083 28.8448 68.6024 30.2401C69.0459 31.5856 69.2429 33.0307 69.2429 34.5256C69.2429 36.0206 69.0459 37.4657 68.6024 38.8611C68.2083 40.2065 67.5678 41.4024 66.7303 42.449C65.8927 43.4954 64.8089 44.3425 63.5772 44.9405C62.2962 45.5883 60.8182 45.8872 59.0939 45.8872C57.4188 45.8872 55.9407 45.5883 54.6598 44.9405C53.3788 44.3425 52.3442 43.4954 51.4574 42.449C50.6199 41.4024 49.9794 40.2065 49.5853 38.8611C49.1418 37.4657 48.9448 36.0206 48.9448 34.5256C48.9448 33.0307 49.1418 31.5856 49.5853 30.2401ZM51.4574 38.0637C51.7531 39.2099 52.2456 40.2065 52.9355 41.1533C53.576 42.0502 54.4134 42.7478 55.4481 43.3459C56.4827 43.894 57.6652 44.1432 59.0939 44.1432C60.5227 44.1432 61.7543 43.894 62.7889 43.3459C63.8235 42.7478 64.6118 42.0502 65.3016 41.1533C65.9421 40.2065 66.4348 39.2099 66.7303 38.0637C67.0259 36.9176 67.223 35.7216 67.223 34.5256C67.223 33.3297 67.0259 32.1836 66.7303 31.0375C66.4348 29.8913 65.9421 28.8448 65.3016 27.9479C64.6118 27.051 63.8235 26.3034 62.7889 25.7553C61.7543 25.2071 60.5227 24.958 59.0939 24.958C57.6652 24.958 56.4827 25.2071 55.4481 25.7553C54.4134 26.3034 53.576 27.051 52.9355 27.9479C52.2456 28.8448 51.7531 29.8913 51.4574 31.0375C51.1618 32.1836 51.014 33.3297 51.014 34.5256C51.014 35.7216 51.1618 36.9176 51.4574 38.0637Z" fill="#A0A9DB"/>
<path d="M72.2973 29.6984V32.6884H72.3466C72.79 31.592 73.5291 30.7449 74.5143 30.1469C75.4997 29.5489 76.6329 29.25 77.9139 29.25C79.0963 29.25 80.1309 29.4493 81.0177 29.8978C81.9045 30.3462 82.6434 30.9442 83.2347 31.7416C83.7766 32.4889 84.22 33.386 84.5157 34.3826C84.8112 35.3792 84.959 36.4756 84.959 37.5718C84.959 38.7179 84.8112 39.7645 84.5157 40.7611C84.22 41.7577 83.7766 42.6546 83.2347 43.4021C82.6434 44.1995 81.9045 44.7975 81.0177 45.2459C80.1309 45.6446 79.0963 45.8937 77.9139 45.8937C77.3226 45.8937 76.7807 45.7941 76.1894 45.6944C75.6475 45.5449 75.1056 45.2958 74.6621 45.0466C74.1696 44.7476 73.7261 44.3988 73.3319 43.9502C72.987 43.5517 72.6915 43.0533 72.4945 42.4553H72.4451V51.2258H70.5237V29.6984H72.2973ZM82.742 35.1799C82.5449 34.3328 82.2493 33.6351 81.8552 32.9873C81.4118 32.3894 80.8698 31.8411 80.2294 31.4425C79.589 31.0439 78.8499 30.8944 77.9139 30.8944C76.8793 30.8944 75.9924 31.0439 75.3026 31.4425C74.5637 31.7913 74.0216 32.2897 73.5783 32.8877C73.1842 33.4857 72.8886 34.2331 72.6915 35.0304C72.5437 35.8278 72.4451 36.6749 72.4451 37.5718C72.4451 38.419 72.5437 39.2162 72.7407 40.0135C72.9378 40.8109 73.2334 41.5584 73.6769 42.1563C74.1202 42.8041 74.6621 43.3024 75.352 43.7012C76.0417 44.0998 76.9285 44.299 77.9139 44.299C78.8499 44.299 79.589 44.0998 80.2294 43.7012C80.8698 43.3024 81.4118 42.8041 81.8552 42.1563C82.2493 41.5584 82.5449 40.8109 82.742 40.0135C82.9391 39.2162 83.0376 38.419 83.0376 37.5718C83.0376 36.7746 82.9391 35.9773 82.742 35.1799Z" fill="#A0A9DB"/>
<path d="M88.1614 40.2628C88.3586 41.0102 88.6541 41.658 89.0975 42.256C89.4916 42.854 90.0337 43.3524 90.674 43.7012C91.3145 44.0998 92.1029 44.299 92.9896 44.299C94.3691 44.299 95.4531 43.9502 96.2413 43.2028C97.0296 42.4553 97.5715 41.5085 97.8671 40.2628H99.7885C99.3944 42.0567 98.6553 43.4519 97.5715 44.3988C96.4877 45.3954 94.9604 45.8937 92.9896 45.8937C91.758 45.8937 90.7234 45.6446 89.8365 45.2459C88.9005 44.7975 88.2107 44.1995 87.6195 43.4021C87.0776 42.6546 86.6341 41.7577 86.3878 40.7611C86.0922 39.7645 85.9937 38.7179 85.9937 37.5718C85.9937 36.5254 86.0922 35.5287 86.3878 34.5321C86.6341 33.5355 87.0776 32.6385 87.6195 31.8411C88.2107 31.0439 88.9005 30.4459 89.8365 29.9476C90.7234 29.4991 91.758 29.25 92.9896 29.25C94.2213 29.25 95.3051 29.4991 96.192 29.9974C97.0788 30.4957 97.8179 31.1935 98.3598 31.9906C98.9017 32.8379 99.2958 33.7846 99.5421 34.8311C99.7885 35.8776 99.8871 36.9739 99.8379 38.0701H87.8659C87.8659 38.7678 87.9643 39.5152 88.1614 40.2628ZM97.5715 34.3826C97.3251 33.685 96.9802 33.087 96.5861 32.5887C96.1428 32.0904 95.6501 31.6418 95.0589 31.3428C94.4185 31.0439 93.778 30.8944 92.9896 30.8944C92.2013 30.8944 91.5116 31.0439 90.9204 31.3428C90.3292 31.6418 89.7873 32.0904 89.3932 32.5887C88.9497 33.087 88.6048 33.685 88.3586 34.3826C88.1122 35.0304 87.9643 35.728 87.8659 36.4756H97.9164C97.9164 35.728 97.7686 35.0304 97.5715 34.3826Z" fill="#A0A9DB"/>
<path d="M102.695 29.6984V32.3894H102.745C103.139 31.4425 103.779 30.695 104.715 30.0971C105.602 29.5489 106.637 29.25 107.77 29.25C108.854 29.25 109.74 29.3995 110.48 29.6486C111.219 29.9476 111.81 30.3462 112.253 30.8944C112.697 31.3928 112.992 32.0406 113.189 32.788C113.386 33.5355 113.436 34.3826 113.436 35.3295V45.4452H111.563V35.6285C111.563 34.9307 111.514 34.3328 111.366 33.7348C111.268 33.1867 111.021 32.6884 110.726 32.2399C110.43 31.7913 110.036 31.4923 109.494 31.2432C109.002 30.994 108.361 30.8944 107.622 30.8944C106.834 30.8944 106.144 30.994 105.553 31.293C104.962 31.5423 104.469 31.9408 104.075 32.3894C103.631 32.8877 103.336 33.4358 103.089 34.1334C102.843 34.7812 102.745 35.479 102.695 36.2763V45.4452H100.823V29.6984H102.695Z" fill="#A0A9DB"/>
<path d="M117.082 23.668V45.4443H115.062V23.668H117.082Z" fill="#A0A9DB"/>
<path d="M126.097 23.668C129.398 23.7178 131.862 24.6646 133.537 26.4585C135.163 28.2525 136 30.9433 136 34.5312C136 38.1689 135.163 40.8599 133.537 42.6537C131.862 44.4477 129.398 45.3447 126.097 45.4443H118.658V23.668H126.097ZM125.112 43.6505C126.639 43.6505 127.969 43.501 129.103 43.1522C130.186 42.8032 131.123 42.3049 131.862 41.5575C132.551 40.81 133.093 39.8631 133.438 38.717C133.783 37.5709 133.931 36.1757 133.931 34.5312C133.931 32.9366 133.783 31.5414 133.438 30.3952C133.093 29.1992 132.551 28.2525 131.862 27.5547C131.123 26.8073 130.186 26.2591 129.103 25.9602C127.969 25.6114 126.639 25.412 125.112 25.412H120.727V43.6505H125.112Z" fill="#A0A9DB"/>
</g>
</svg>
