<svg width="140" height="60" viewBox="0 0 140 60" fill="none" xmlns="http://www.w3.org/2000/svg">
<path d="M62.436 33.9938C62.1079 35.7938 60.8048 44.1844 60.4204 46.5563C60.3923 46.725 60.3266 46.7906 60.1391 46.7906H53.1454C52.4329 46.7906 51.9173 46.1719 52.011 45.4875L57.5048 10.6219C57.6454 9.7219 58.4516 9.03752 59.3798 9.03752C73.6579 9.03752 74.8579 8.69065 78.5048 10.1063C84.1391 12.2906 84.6548 17.5594 82.6298 23.2594C80.6141 29.1281 75.8329 31.65 69.4954 31.725C65.4266 31.7906 62.9798 31.0688 62.436 33.9938ZM85.4704 20.5031C85.3016 20.3813 85.236 20.3344 85.1891 20.625C85.0016 21.6938 84.711 22.7344 84.3641 23.775C80.6235 34.4438 70.2548 33.5156 65.1923 33.5156C64.6204 33.5156 64.2454 33.825 64.1704 34.3969C62.0516 47.5594 61.6298 50.3063 61.6298 50.3063C61.536 50.9719 61.9579 51.5156 62.6235 51.5156H68.5766C69.3829 51.5156 70.0485 50.925 70.2079 50.1188C70.2735 49.6125 70.1048 50.6906 71.5579 41.5594C71.9891 39.4969 72.8985 39.7125 74.3048 39.7125C80.961 39.7125 86.1548 37.0125 87.7016 29.1844C88.311 25.9219 88.1329 22.4906 85.4704 20.5031Z" fill="#A0A9DB"/>
</svg>
