<svg width="120" height="48" viewBox="0 0 120 48" fill="none" xmlns="http://www.w3.org/2000/svg">
<g clip-path="url(#clip0_4168_1529)">
<path d="M55.8847 29.2072C55.0597 28.7385 54.4207 28.0681 53.9647 27.1944C53.5087 26.3207 53.2822 25.3135 53.2822 24.1698C53.2822 23.0261 53.5177 22.0113 53.9887 21.1209C54.4597 20.232 55.1077 19.5373 55.9312 19.0367C56.7562 18.5362 57.6862 18.2859 58.7227 18.2859C60.3562 18.2859 61.6357 18.7986 62.5612 19.8225C63.4882 20.8463 63.9502 22.2479 63.9502 24.0257V24.8144C63.9502 24.8523 63.9202 24.8827 63.8827 24.8827H55.6387C55.5982 24.8827 55.5667 24.9176 55.5712 24.9585C55.6597 25.8914 55.9792 26.6331 56.5297 27.1807C57.0952 27.745 57.8557 28.0256 58.8142 28.0256C59.6932 28.0256 60.3757 27.839 60.8632 27.4659C61.3342 27.1049 61.6942 26.6362 61.9447 26.0613C61.9597 26.0279 61.9957 26.0127 62.0287 26.0249L63.9277 26.7621C63.9637 26.7757 63.9817 26.8182 63.9652 26.8546C63.5557 27.7602 62.9347 28.4928 62.0992 29.051C61.2427 29.6229 60.1477 29.908 58.8142 29.908C57.6832 29.908 56.7067 29.6744 55.8817 29.2057L55.8847 29.2072ZM60.7717 20.9298C60.2692 20.4216 59.5702 20.1683 58.6762 20.1683C57.8287 20.1683 57.1177 20.4338 56.5447 20.9662C55.9882 21.4834 55.6492 22.1842 55.5307 23.067C55.5247 23.108 55.5577 23.1444 55.5982 23.1444H61.5262C61.5652 23.1444 61.5967 23.111 61.5937 23.0716C61.5367 22.1387 61.2637 21.4258 60.7732 20.9298H60.7717Z" fill="#A0A9DB"/>
<path d="M65.5836 18.2298H67.7346C67.7721 18.2298 67.8021 18.2602 67.8021 18.2981V19.9014C67.8021 19.9772 67.9056 19.9954 67.9311 19.9241C68.1216 19.4114 68.4171 19.0019 68.8146 18.694C69.3171 18.3057 70.0626 18.11 71.0526 18.11H71.3151C71.3526 18.11 71.3826 18.1403 71.3826 18.1782V20.138C71.3826 20.1759 71.3526 20.2063 71.3151 20.2063H70.3461C69.3726 20.2063 68.7051 20.6507 68.3436 21.1589C67.9821 21.667 67.8021 22.5164 67.8021 23.7072V29.403C67.8021 29.4409 67.7721 29.4712 67.7346 29.4712H65.5836C65.5461 29.4712 65.5161 29.4409 65.5161 29.403V18.2981C65.5161 18.2602 65.5461 18.2298 65.5836 18.2298Z" fill="#A0A9DB"/>
<path d="M77.0091 16.0516C77.0796 15.821 77.2206 15.6739 77.4336 15.6102C77.6451 15.5465 78.0261 15.5146 78.5766 15.5146H80.2956C80.3331 15.5146 80.3631 15.4843 80.3631 15.4463V13.4623C80.3631 13.4244 80.3331 13.394 80.2956 13.394H77.6121C77.6121 13.394 77.6091 13.394 77.6076 13.394C76.8546 13.4411 76.2666 13.5928 75.8436 13.8461C75.4191 14.1009 75.1176 14.4771 74.9361 14.9776C74.7561 15.4782 74.6646 16.1653 74.6646 17.0375V18.16C74.6646 18.1979 74.6346 18.2283 74.5971 18.2283H72.8706C72.8331 18.2283 72.8031 18.2586 72.8031 18.2965V20.138C72.8031 20.1759 72.8331 20.2062 72.8706 20.2062H74.5971C74.6346 20.2062 74.6646 20.2366 74.6646 20.2745V29.4044C74.6646 29.4424 74.6946 29.4727 74.7321 29.4727H76.8111C76.8486 29.4727 76.8786 29.4424 76.8786 29.4044V20.2745C76.8786 20.2366 76.9086 20.2062 76.9461 20.2062H79.0971C79.1346 20.2062 79.1646 20.1759 79.1646 20.138V18.2965C79.1646 18.2586 79.1346 18.2283 79.0971 18.2283H76.9701C76.9326 18.2283 76.9026 18.1979 76.9026 18.16V17.2271C76.9026 16.672 76.9386 16.2791 77.0091 16.0485V16.0516Z" fill="#A0A9DB"/>
<path d="M82.2787 28.9251C81.4387 28.4336 80.7832 27.7495 80.3122 26.8773C79.8412 26.0036 79.6057 25.004 79.6057 23.877C79.6057 22.7499 79.8442 21.7215 80.3242 20.8402C80.8027 19.9589 81.4627 19.2718 82.3027 18.7803C83.1427 18.2889 84.1042 18.0416 85.1872 18.0416C86.2702 18.0416 87.2122 18.2874 88.0612 18.7803C88.9087 19.2733 89.5687 19.9589 90.0397 20.8402C90.5107 21.7215 90.7462 22.7333 90.7462 23.877C90.7462 25.0207 90.5062 25.9657 90.0277 26.8545C89.5492 27.7434 88.8817 28.4351 88.0252 28.9266C87.1687 29.4195 86.2072 29.6653 85.1407 29.6653C84.0742 29.6653 83.1187 29.4195 82.2787 28.9266V28.9251ZM87.5422 26.6862C88.1227 26.0188 88.4137 25.1071 88.4137 23.9467V23.8512C88.4137 22.6604 88.1272 21.72 87.5542 21.0283C86.9812 20.3381 86.1922 19.9923 85.1872 19.9923C84.1822 19.9923 83.3857 20.3381 82.7962 21.0283C82.2067 21.7185 81.9127 22.6604 81.9127 23.8512V23.9467C81.9127 25.1056 82.1992 26.0188 82.7722 26.6862C83.3452 27.3536 84.1342 27.6858 85.1392 27.6858C86.1442 27.6858 86.9602 27.3521 87.5422 26.6862Z" fill="#A0A9DB"/>
<path d="M100.685 28.9251C99.8602 28.4336 99.2257 27.7465 98.7772 26.8652C98.3302 25.9839 98.1067 24.9722 98.1067 23.8285C98.1067 22.6848 98.3377 21.72 98.8012 20.8388C99.2647 19.9575 99.9157 19.2703 100.756 18.7789C101.596 18.2874 102.55 18.0402 103.618 18.0402C104.873 18.0402 105.922 18.3617 106.762 19.0049C107.585 19.6344 108.178 20.4899 108.542 21.5699C108.554 21.6063 108.535 21.6457 108.499 21.6579L106.439 22.3298C106.403 22.342 106.366 22.3207 106.355 22.2828C106.15 21.5532 105.83 20.9935 105.397 20.6006C104.95 20.1956 104.341 19.9939 103.571 19.9939C102.613 19.9939 101.848 20.3427 101.275 21.042C100.702 21.7413 100.415 22.662 100.415 23.8042V23.8998C100.415 25.0435 100.69 25.9642 101.24 26.662C101.789 27.3612 102.544 27.7101 103.501 27.7101C104.365 27.7101 105.023 27.5038 105.479 27.0912C105.922 26.6893 106.253 26.0931 106.474 25.3013C106.484 25.2649 106.522 25.2422 106.558 25.2543L108.593 25.9035C108.629 25.9157 108.649 25.9551 108.637 25.9915C108.242 27.1504 107.626 28.0484 106.787 28.687C105.931 29.3377 104.852 29.6638 103.549 29.6638C102.466 29.6638 101.512 29.4181 100.687 28.9251H100.685Z" fill="#A0A9DB"/>
<path d="M112.195 28.96C111.37 28.4913 110.731 27.8209 110.275 26.9472C109.819 26.0735 109.592 25.0663 109.592 23.9226C109.592 22.7789 109.828 21.7641 110.299 20.8737C110.77 19.9848 111.418 19.2901 112.241 18.7895C113.066 18.289 113.996 18.0387 115.033 18.0387C116.666 18.0387 117.946 18.5514 118.871 19.5753C119.798 20.5991 120.26 22.0007 120.26 23.7785V24.5672C120.26 24.6052 120.23 24.6355 120.193 24.6355H111.949C111.908 24.6355 111.877 24.6704 111.881 24.7113C111.97 25.6442 112.289 26.3859 112.84 26.9335C113.405 27.4978 114.166 27.7784 115.124 27.7784C116.003 27.7784 116.686 27.5918 117.173 27.2187C117.644 26.8577 118.004 26.389 118.255 25.8141C118.27 25.7807 118.306 25.7656 118.339 25.7777L120.238 26.5149C120.274 26.5285 120.292 26.571 120.275 26.6074C119.866 27.513 119.245 28.2456 118.409 28.8038C117.553 29.3757 116.458 29.6608 115.124 29.6608C113.993 29.6608 113.017 29.4272 112.192 28.9585L112.195 28.96ZM117.082 20.6841C116.579 20.1759 115.88 19.9226 114.986 19.9226C114.139 19.9226 113.428 20.1881 112.855 20.7205C112.298 21.2377 111.959 21.9385 111.841 22.8213C111.835 22.8623 111.868 22.8987 111.908 22.8987H117.836C117.875 22.8987 117.907 22.8653 117.904 22.8259C117.847 21.893 117.572 21.1801 117.083 20.6841H117.082Z" fill="#A0A9DB"/>
<path d="M51.4567 20.9541C51.0247 20.0804 50.4277 19.4099 49.6672 18.9412C48.9052 18.4725 48.0457 18.2389 47.0887 18.2389C46.3192 18.2389 45.6247 18.4057 45.0037 18.7395C44.4577 19.0322 44.0002 19.4311 43.6312 19.9347C43.5937 19.9863 43.5112 19.9575 43.5112 19.8923V18.477L43.4842 18.518V18.477H41.3137C41.2762 18.477 41.2462 18.5074 41.2462 18.5453V34.0809C41.2462 34.1188 41.2762 34.1492 41.3137 34.1492H43.4407C43.4782 34.1492 43.5082 34.1188 43.5082 34.0809V30.0248C43.5082 29.9869 43.5382 29.9566 43.5757 29.9566H47.0647C48.0217 29.9566 48.8857 29.7154 49.6552 29.23C50.4247 28.7461 51.0247 28.0545 51.4567 27.158C51.8887 26.2615 52.1047 25.2255 52.1047 24.05V24.0257C52.1047 22.8501 51.8887 21.8263 51.4567 20.9525V20.9541ZM49.7017 24.1213C49.7017 25.3287 49.4107 26.2737 48.8302 26.9547C48.2497 27.6373 47.4802 27.9786 46.5217 27.9786H43.5772C43.5397 27.9786 43.5097 27.9483 43.5097 27.9104V22.7667C43.5097 22.7667 43.5097 22.7546 43.5112 22.7485C43.6477 22.1812 43.8802 21.6882 44.2132 21.2726C44.7787 20.5657 45.5482 20.2123 46.5217 20.2123C47.4952 20.2123 48.2887 20.5384 48.8527 21.1892C49.4182 21.8399 49.7002 22.7606 49.7002 23.9514V24.1182L49.7017 24.1213Z" fill="#A0A9DB"/>
<path d="M92.0602 18.2298H94.2112C94.2487 18.2298 94.2787 18.2602 94.2787 18.2981V19.9014C94.2787 19.9772 94.3822 19.9954 94.4077 19.9241C94.5982 19.4114 94.8937 19.0019 95.2912 18.694C95.7937 18.3057 96.5392 18.11 97.5292 18.11H97.7917C97.8292 18.11 97.8592 18.1403 97.8592 18.1782V20.138C97.8592 20.1759 97.8292 20.2063 97.7917 20.2063H96.8227C95.8492 20.2063 95.1817 20.6507 94.8202 21.1589C94.4587 21.667 94.2787 22.5164 94.2787 23.7072V29.403C94.2787 29.4409 94.2487 29.4712 94.2112 29.4712H92.0602C92.0227 29.4712 91.9927 29.4409 91.9927 29.403V18.2981C91.9927 18.2602 92.0227 18.2298 92.0602 18.2298Z" fill="#A0A9DB"/>
<path d="M30.3411 11.1916C28.6851 10.2254 26.7081 10.2254 25.0521 11.1916L11.1231 19.3234C9.46714 20.2897 8.47864 22.0219 8.47864 23.9559C8.47864 25.5835 9.18064 27.0655 10.3881 28.0711L13.5156 26.2449L12.7236 25.7837C11.7816 25.2346 11.6811 24.3245 11.6811 23.9574C11.6811 23.5904 11.7831 22.6818 12.7236 22.1311L26.6526 13.9993C27.5946 13.4502 28.4241 13.8158 28.7376 13.9993C29.0511 14.1828 29.7801 14.7274 29.7801 15.8256V32.0878C29.7801 33.1875 29.0511 33.7305 28.7376 33.9141C28.4241 34.0976 27.5931 34.4632 26.6526 33.9141L22.9491 31.7525L19.7451 33.6228L25.0506 36.7202C26.7066 37.6865 28.6836 37.6865 30.3396 36.7202C31.9956 35.754 32.9841 34.0218 32.9841 32.0878V15.8241C32.9841 13.8901 31.9956 12.1578 30.3396 11.1916H30.3411Z" fill="#A0A9DB"/>
<path d="M22.8816 19.8392L19.7541 21.6655L20.5476 22.1281C21.4896 22.6772 21.5901 23.5873 21.5901 23.9544C21.5901 24.3215 21.4881 25.2301 20.5476 25.7807L6.61864 33.9126C5.67664 34.4617 4.84714 34.0961 4.53364 33.9126C4.22014 33.729 3.49114 33.1845 3.49114 32.0863V15.8241C3.49114 14.7243 4.22014 14.1813 4.53364 13.9978C4.84864 13.8142 5.67814 13.4487 6.61864 13.9978L10.3041 16.1502L13.5066 14.2799L8.21914 11.1916C6.56314 10.2254 4.58614 10.2254 2.93014 11.1916C1.27414 12.1578 0.285645 13.8901 0.285645 15.8241V32.0863C0.285645 34.0202 1.27414 35.751 2.93014 36.7187C4.58614 37.685 6.56314 37.685 8.21914 36.7187L22.1481 28.5869C23.8041 27.6206 24.7926 25.8899 24.7926 23.9544C24.7926 22.3268 24.0906 20.8449 22.8816 19.8392Z" fill="#A0A9DB"/>
</g>
<defs>
<clipPath id="clip0_4168_1529">
<rect width="120" height="48" fill="white"/>
</clipPath>
</defs>
</svg>
