<svg width="140" height="60" viewBox="0 0 140 60" fill="none" xmlns="http://www.w3.org/2000/svg">
<g clip-path="url(#clip0_5122_5865)">
<path d="M56.6933 25.2186H54.176L52.8027 32.28H55.0373C56.52 32.28 57.624 32.0009 58.3493 31.4426C59.0747 30.8826 59.5636 29.9502 59.816 28.6453C60.0596 27.392 59.9493 26.5075 59.4853 25.992C59.0196 25.4764 58.0889 25.2186 56.6933 25.2186ZM70 13.168C52.328 13.168 38 20.704 38 30C38 39.296 52.328 46.8346 70 46.8346C87.672 46.8346 102 39.296 102 30C102 20.704 87.672 13.168 70 13.168ZM61.3067 33.0373C60.6107 33.704 59.7733 34.2053 58.8613 34.5066C57.9636 34.7964 56.8213 34.9422 55.4347 34.944H52.2853L51.4133 39.4266H47.7387L51.0187 22.5573H58.0853C60.2098 22.5573 61.76 23.1155 62.736 24.232C63.712 25.3466 64.0053 26.904 63.616 28.904C63.4685 29.6958 63.1938 30.4585 62.8027 31.1626C62.4204 31.8435 61.9218 32.4684 61.3067 33.0373ZM72.0373 34.944L73.4853 27.48C73.6524 26.6302 73.592 26.0515 73.304 25.744C73.0196 25.4346 72.4089 25.28 71.472 25.28H68.56L66.6827 34.9466H63.0347L66.3147 18.0746H69.96L69.088 22.56H72.336C74.3804 22.56 75.7902 22.9164 76.5653 23.6293C77.728 24.6986 77.5733 25.496 77.2667 27.0933L75.7413 34.944H72.0373ZM92.296 28.904C92.1485 29.6958 91.8738 30.4585 91.4827 31.1626C91.1022 31.8435 90.6036 32.4684 89.9867 33.0373C89.2903 33.7019 88.4551 34.2038 87.5413 34.5066C86.6453 34.7964 85.5022 34.9422 84.112 34.944H80.9653L80.0933 39.4293H76.4187L79.6987 22.56H86.7627C88.8871 22.56 90.4373 23.1182 91.4133 24.2346C92.3911 25.3475 92.6853 26.904 92.296 28.904ZM85.376 25.2186H82.8613L81.4853 32.28H83.72C85.2044 32.28 86.3084 32.0009 87.032 31.4426C87.7556 30.8826 88.2453 29.9502 88.5013 28.6453C88.7449 27.392 88.6338 26.5075 88.168 25.992C87.4693 25.2186 86.7707 25.2186 85.376 25.2186Z" fill="#A0A9DB"/>
</g>
<defs>
<clipPath id="clip0_5122_5865">
<rect width="140" height="60" fill="white"/>
</clipPath>
</defs>
</svg>
