<svg width="284" height="100" viewBox="0 0 284 100" fill="none" xmlns="http://www.w3.org/2000/svg">
  <g clip-path="url(#clip0_1040_229)">
    <path
      d="M122.446 63.5096C121.758 63.5388 121.086 63.2958 120.577 62.8331C120.126 62.3558 119.9 61.7187 119.9 60.9219V37.6482C119.9 36.8789 120.113 36.282 120.537 35.8573C120.988 35.4325 121.598 35.2202 122.367 35.2202H132.151C135.148 35.2202 137.482 35.9763 139.154 37.4884C140.825 38.9755 141.66 41.0715 141.66 43.7762C141.66 46.481 140.825 48.5881 139.154 50.0976C137.482 51.6097 135.148 52.3658 132.151 52.3658H125.032V60.9219C125.049 61.2723 124.994 61.6226 124.871 61.9511C124.748 62.2797 124.559 62.5798 124.317 62.8331C123.866 63.2841 123.242 63.5096 122.446 63.5096ZM131.515 48.427C135.041 48.427 136.804 46.8879 136.804 43.8098C136.804 40.7316 135.041 39.1932 131.515 39.1945H125.032V48.427H131.515ZM148.706 63.5096C148.362 63.5238 148.019 63.4677 147.698 63.3445C147.376 63.2214 147.084 63.034 146.837 62.7936C146.373 62.2836 146.13 61.6106 146.161 60.9219V37.5712C146.161 36.802 146.386 36.1919 146.837 35.7409C147.083 35.5003 147.376 35.3125 147.698 35.1891C148.019 35.0656 148.362 35.0091 148.706 35.023C149.503 35.023 150.126 35.2623 150.575 35.7409C150.817 35.9779 151.006 36.2635 151.13 36.579C151.254 36.8946 151.309 37.2327 151.293 37.5712V60.9297C151.307 61.2742 151.25 61.6178 151.127 61.9397C151.004 62.2615 150.816 62.5548 150.575 62.8015C150.126 63.2735 149.503 63.5096 148.706 63.5096ZM169.878 63.6279C167.173 63.6279 164.8 63.0448 162.757 61.8784C160.74 60.7116 159.118 58.9675 158.1 56.8707C157.012 54.6958 156.468 52.1489 156.468 49.2298C156.468 46.3107 157.012 43.7776 158.1 41.6303C159.115 39.5313 160.736 37.7849 162.753 36.6166C164.796 35.449 167.169 34.8652 169.874 34.8652C171.55 34.8514 173.216 35.1181 174.803 35.6541C176.296 36.1338 177.686 36.8898 178.9 37.8829C179.203 38.099 179.449 38.3861 179.615 38.7191C179.757 39.0594 179.824 39.4258 179.813 39.7941C179.829 40.3251 179.661 40.8454 179.336 41.2654C179.203 41.448 179.03 41.5968 178.83 41.6996C178.629 41.8024 178.407 41.8564 178.182 41.8571C177.595 41.8388 177.027 41.6443 176.552 41.299C175.591 40.5484 174.516 39.9576 173.368 39.5495C172.323 39.2023 171.227 39.0343 170.127 39.0525C167.366 39.0525 165.271 39.915 163.841 41.6402C162.435 43.364 161.733 45.8972 161.734 49.2396C161.734 52.611 162.436 55.158 163.841 56.8805C165.271 58.5991 167.366 59.4584 170.127 59.4584C171.196 59.4695 172.259 59.2946 173.269 58.9416C174.435 58.4997 175.541 57.914 176.562 57.1981C176.814 57.0458 177.077 56.9139 177.35 56.8036C177.616 56.6971 177.9 56.6429 178.186 56.6438C178.411 56.6446 178.633 56.6985 178.834 56.8014C179.034 56.9042 179.207 57.053 179.339 57.2355C179.664 57.6557 179.833 58.1759 179.817 58.7069C179.823 59.0747 179.756 59.4401 179.619 59.7818C179.453 60.1148 179.207 60.402 178.904 60.6181C177.685 61.6141 176.298 62.3824 174.807 62.8863C173.214 63.3968 171.55 63.6498 169.878 63.6358V63.6279ZM209.22 60.2059C209.374 60.5294 209.456 60.8829 209.458 61.2414C209.459 61.5406 209.392 61.8362 209.261 62.1053C209.13 62.3744 208.939 62.6099 208.703 62.7936C208.247 63.2097 207.65 63.4374 207.033 63.4307C206.614 63.432 206.201 63.3218 205.839 63.1112C205.447 62.8471 205.142 62.4731 204.963 62.0362L202.578 56.7109H188.58L186.192 62.0362C186.012 62.4767 185.704 62.8527 185.307 63.1151C184.932 63.3291 184.507 63.4394 184.075 63.4346C183.459 63.4322 182.865 63.2058 182.403 62.7976C182.168 62.613 181.978 62.3774 181.847 62.1085C181.716 61.8396 181.648 61.5444 181.648 61.2453C181.651 60.8868 181.732 60.5333 181.887 60.2098L192.866 36.6127C193.082 36.1063 193.46 35.6859 193.94 35.4174C194.422 35.1313 194.971 34.9801 195.531 34.9796C196.079 34.9774 196.617 35.1291 197.083 35.4174C197.579 35.6769 197.972 36.0988 198.195 36.6127L209.22 60.2059ZM190.327 52.7248H200.827L195.577 40.9065L190.327 52.7248ZM222.721 63.6279C220.757 63.641 218.802 63.3754 216.913 62.839C215.109 62.2801 213.637 61.5372 212.496 60.6102C212.004 60.2185 211.684 59.6509 211.602 59.0272C211.52 58.4034 211.684 57.7724 212.059 57.2671C212.195 57.0756 212.374 56.9183 212.581 56.8077C212.788 56.6972 213.019 56.6363 213.253 56.63C213.73 56.63 214.275 56.8174 214.884 57.1882C215.968 57.9822 217.179 58.5876 218.464 58.9791C219.81 59.3637 221.205 59.5511 222.604 59.5353C224.54 59.5353 226.025 59.2066 227.06 58.5491C228.096 57.8588 228.613 56.8641 228.611 55.565C228.611 54.5551 228.121 53.7852 227.139 53.2553C226.185 52.6991 224.58 52.1686 222.326 51.6637C219.991 51.1574 218.093 50.5697 216.635 49.9004C215.176 49.2311 214.075 48.3817 213.332 47.3521C212.59 46.3186 212.218 45.0037 212.218 43.4074C212.2 41.8239 212.687 40.2759 213.61 38.9893C214.594 37.6456 215.929 36.5994 217.468 35.9657C219.239 35.2025 221.15 34.8227 223.077 34.8514C226.871 34.8514 229.959 35.8592 232.343 37.875C232.643 38.1113 232.888 38.4101 233.061 38.7507C233.232 39.0681 233.315 39.4258 233.3 39.7862C233.307 40.3226 233.123 40.844 232.781 41.2575C232.649 41.4401 232.476 41.5889 232.275 41.6917C232.075 41.7945 231.853 41.8485 231.628 41.8492C231.371 41.8508 231.116 41.8102 230.873 41.7289C230.57 41.6058 230.277 41.4594 229.997 41.2911C229.026 40.5585 227.954 39.9693 226.815 39.5416C225.809 39.1471 224.56 38.9499 223.07 38.9499C221.268 38.9499 219.836 39.3214 218.774 40.0643C218.277 40.3928 217.874 40.8435 217.602 41.373C217.331 41.9025 217.2 42.4931 217.222 43.0879C217.206 43.5928 217.327 44.0927 217.572 44.5342C217.818 44.9757 218.178 45.3422 218.616 45.5947C219.536 46.1786 221.113 46.7229 223.347 47.2278C225.713 47.7538 227.619 48.3508 229.065 49.0187C230.549 49.6538 231.676 50.4763 232.446 51.4861C233.243 52.4947 233.637 53.7543 233.629 55.2652C233.652 56.8372 233.164 58.3741 232.237 59.6438C231.335 60.8903 230.049 61.8719 228.379 62.5885C226.754 63.2867 224.868 63.6358 222.721 63.6358V63.6279ZM248.086 63.6279C246.122 63.6407 244.167 63.3751 242.278 62.839C240.476 62.2801 239.005 61.5372 237.864 60.6102C237.372 60.2185 237.051 59.6509 236.969 59.0272C236.888 58.4034 237.052 57.7724 237.426 57.2671C237.562 57.0757 237.74 56.9185 237.947 56.808C238.154 56.6974 238.384 56.6365 238.619 56.63C239.096 56.63 239.64 56.8174 240.249 57.1882C241.334 57.9818 242.544 58.5872 243.83 58.9791C245.175 59.3635 246.57 59.5509 247.97 59.5353C249.906 59.5353 251.39 59.2066 252.423 58.5491C253.459 57.8588 253.976 56.8641 253.975 55.565C253.975 54.5551 253.485 53.7852 252.504 53.2553C251.55 52.6991 249.945 52.1686 247.69 51.6637C245.357 51.1614 243.461 50.5782 242.002 49.9142C240.543 49.2502 239.443 48.4007 238.702 47.3659C237.959 46.3324 237.588 45.0175 237.588 43.4212C237.568 41.8376 238.056 40.2893 238.98 39.0032C239.963 37.6594 241.298 36.6132 242.838 35.9795C244.608 35.2161 246.519 34.8363 248.447 34.8652C252.239 34.8652 255.327 35.873 257.713 37.8888C258.013 38.1245 258.257 38.4235 258.429 38.7645C258.601 39.0816 258.683 39.4396 258.667 39.8C258.675 40.3362 258.491 40.8576 258.151 41.2714C258.018 41.4536 257.845 41.6021 257.644 41.7049C257.444 41.8077 257.222 41.8618 256.997 41.8631C256.74 41.8648 256.484 41.8242 256.24 41.7427C255.938 41.6191 255.646 41.4728 255.367 41.3049C254.394 40.5727 253.322 39.9835 252.183 39.5554C251.175 39.1609 249.926 38.9637 248.437 38.9637C246.632 38.9637 245.2 39.3352 244.141 40.0781C243.107 40.7947 242.589 41.8026 242.589 43.1017C242.573 43.6065 242.694 44.1063 242.939 44.5478C243.184 44.9893 243.544 45.3559 243.981 45.6085C244.909 46.1924 246.486 46.7367 248.713 47.2416C251.079 47.7676 252.985 48.3646 254.43 49.0325C255.917 49.6676 257.044 50.4901 257.811 51.4999C258.608 52.5085 259.006 53.7681 259.006 55.279C259.029 56.8508 258.54 58.3875 257.614 59.6576C256.726 60.9107 255.446 61.8922 253.774 62.6023C252.132 63.2913 250.236 63.6358 248.086 63.6358V63.6279ZM266.224 63.2709C265.455 63.2709 264.845 63.0586 264.392 62.6339C263.969 62.2091 263.758 61.6122 263.758 60.843V37.6501C263.758 36.8809 263.969 36.2839 264.392 35.8592C264.845 35.4345 265.455 35.2222 266.224 35.2222H280.582C281.351 35.2222 281.948 35.3951 282.373 35.7409C282.586 35.9196 282.755 36.1457 282.865 36.4011C282.976 36.6566 283.025 36.9343 283.009 37.2123C283.025 37.5021 282.976 37.7918 282.866 38.0603C282.756 38.3288 282.587 38.5694 282.373 38.7645C281.949 39.1103 281.353 39.2826 280.582 39.2813H268.769V47.003H279.788C280.557 47.003 281.154 47.1752 281.578 47.5197C282.002 47.8649 282.215 48.3679 282.215 49.0325C282.23 49.3104 282.181 49.5881 282.07 49.8435C281.96 50.0989 281.791 50.325 281.578 50.5039C281.154 50.8497 280.557 51.022 279.788 51.0207H268.769V59.2197H280.582C281.351 59.2197 281.948 59.4051 282.373 59.7759C282.797 60.1217 283.009 60.626 283.009 61.2887C283.025 61.5667 282.976 61.8445 282.865 62.1C282.755 62.3554 282.586 62.5815 282.373 62.7601C281.949 63.1059 281.353 63.2788 280.582 63.2788L266.224 63.2709Z"
      fill="#A0A9DB" />
    <path
      d="M49.0498 1.5C75.8238 1.5 97.5303 23.214 97.5303 50.001C97.5303 76.7879 75.8238 98.502 49.0498 98.502C22.2759 98.5018 0.570312 76.7878 0.570312 50.001C0.570317 23.2141 22.2759 1.50014 49.0498 1.5Z"
      stroke="#A0A9DB" stroke-width="3" />
    <path fill-rule="evenodd" clip-rule="evenodd"
      d="M32.7739 17.8577C42.04 17.8577 49.5554 10.3943 49.5554 1.18937C49.5554 0.794902 49.5416 0.400432 49.514 0.0059628L48.8792 4.57546e-05C37.9563 -0.0147633 27.3318 3.56565 18.6441 10.1892C20.1709 12.5472 22.2641 14.4846 24.7326 15.8242C27.201 17.1639 29.9657 17.863 32.7739 17.8577ZM-1 46.9419C-0.622729 40.596 0.96742 34.3813 3.68431 28.6346C5.02521 28.8024 6.31504 29.2539 7.46802 29.9591C8.621 30.6642 9.61073 31.6068 10.3714 32.7242C11.132 33.8417 11.6462 35.1083 11.8796 36.4399C12.1131 37.7715 12.0605 39.1376 11.7254 40.4473C11.3903 41.757 10.7803 42.9803 9.93605 44.0359C9.09176 45.0915 8.03253 45.9552 6.82876 46.5696C5.625 47.1839 4.30429 47.5349 2.95446 47.5991C1.60462 47.6633 0.256592 47.4393 -1 46.9419ZM37.6416 98.7299C33.8574 97.8597 30.1883 96.5483 26.7096 94.8226C26.3484 93.5598 26.3423 92.2218 26.6919 90.9557C27.0414 89.6896 27.7332 88.5444 28.691 87.646C29.6488 86.7476 30.8357 86.1308 32.1212 85.8634C33.4067 85.596 34.7409 85.6883 35.9774 86.1302C37.2138 86.5722 38.3045 87.3465 39.1296 88.3683C39.9547 89.39 40.4822 90.6196 40.6542 91.9218C40.8262 93.224 40.636 94.5484 40.1045 95.7495C39.5731 96.9506 38.7208 97.9818 37.6416 98.7299ZM44.7075 38.3188C44.7075 44.8927 39.3253 50.2239 32.6813 50.2239C26.0373 50.2239 20.6551 44.8986 20.6551 38.3188C20.6551 31.7391 26.0373 26.4137 32.6813 26.4137C39.3253 26.4137 44.7095 31.743 44.7095 38.3188H44.7075ZM62.8454 47.6184C60.9623 47.6188 59.1213 47.0605 57.5554 46.0141C55.9895 44.9677 54.7689 43.4802 54.0481 41.7397C53.3273 39.9993 53.1386 38.0841 53.5058 36.2363C53.8731 34.3886 54.7799 32.6913 56.1115 31.3592C57.443 30.027 59.1396 29.1199 60.9866 28.7524C62.8335 28.385 64.7479 28.5738 66.4876 29.2949C68.2273 30.016 69.7142 31.2371 70.7602 32.8037C71.8062 34.3703 72.3642 36.212 72.3638 38.0959C72.3638 40.6198 71.3624 43.0403 69.5794 44.8259C67.7965 46.6114 65.378 47.6158 62.8553 47.6184H62.8454ZM33.1682 58.0088C31.2852 58.0088 29.4444 58.5674 27.8788 59.6141C26.3131 60.6607 25.0929 62.1483 24.3723 63.8888C23.6518 65.6293 23.4634 67.5445 23.8309 69.3921C24.1984 71.2397 25.1053 72.9368 26.437 74.2687C27.7686 75.6007 29.4652 76.5076 31.3121 76.8749C33.159 77.2422 35.0733 77.0533 36.8129 76.3321C38.5525 75.6109 40.0393 74.3899 41.0851 72.8233C42.131 71.2568 42.6891 69.4151 42.6887 67.5313C42.6881 65.0056 41.6849 62.5835 39.8995 60.7977C38.1141 59.012 35.6929 58.0088 33.1682 58.0088ZM87.6943 45.4252C86.2819 45.4256 84.9011 45.0069 83.7265 44.2222C82.552 43.4375 81.6364 42.3219 81.0957 41.0165C80.5549 39.7112 80.4132 38.2748 80.6885 36.8889C80.9638 35.503 81.6437 34.2299 82.6423 33.2306C83.6409 32.2313 84.9133 31.5507 86.2985 31.2749C87.6837 30.9991 89.1196 31.1405 90.4246 31.6811C91.7295 32.2217 92.8448 33.1374 93.6296 34.3122C94.4143 35.4871 94.8331 36.8683 94.8331 38.2813C94.8331 40.1757 94.0811 41.9924 92.7424 43.3321C91.4036 44.6718 89.5878 45.4247 87.6943 45.4252Z"
      fill="#A0A9DB" />
  </g>
  <defs>
    <clipPath id="clip0_1040_229">
      <rect width="284" height="100" fill="#A0A9DB" />
    </clipPath>
  </defs>
</svg>