<svg width="140" height="60" viewBox="0 0 140 60" fill="none" xmlns="http://www.w3.org/2000/svg">
<mask id="mask0_5104_5156" style="mask-type:luminance" maskUnits="userSpaceOnUse" x="0" y="18" width="140" height="25">
<path d="M140 18H0V42.9434H140V18Z" fill="white"/>
</mask>
<g mask="url(#mask0_5104_5156)">
<path fill-rule="evenodd" clip-rule="evenodd" d="M0 40.9741H22.5146V18H0V40.9741Z" fill="#A0A9DB"/>
<path fill-rule="evenodd" clip-rule="evenodd" d="M114.88 24.869L116.766 24.5471V37.6615H114.88V24.869ZM122.277 26.3503V34.6202C122.277 36.0376 122.627 36.5276 123.768 36.5276C124.281 36.5276 124.146 36.5337 124.473 36.3526L124.73 37.6415C124.146 37.9749 123.931 38.0715 123.115 38.0715C122.51 38.0715 122.044 37.9442 121.601 37.7123C120.786 37.2744 120.483 36.4501 120.483 35.1609V26.3503H118.969V24.8307H120.483V19.9688H122.348V24.8307H125.26L124.701 26.3503H122.277ZM137.215 37.2771C136.49 37.2771 135.905 36.643 135.905 35.7664C135.905 34.8888 136.49 34.2557 137.215 34.2557C137.939 34.2557 138.525 34.8888 138.525 35.7664C138.525 36.643 137.939 37.2771 137.215 37.2771ZM137.215 33.8913C136.261 33.8913 135.482 34.733 135.482 35.7664C135.482 36.7989 136.261 37.6398 137.215 37.6398C138.17 37.6398 138.947 36.7989 138.947 35.7664C138.947 34.733 138.17 33.8913 137.215 33.8913ZM136.913 35.6054V34.9974H137.238C137.426 34.9974 137.637 35.0383 137.637 35.2878C137.637 35.5735 137.45 35.6054 137.234 35.6054H136.913ZM138.002 35.3202C138.002 34.8731 137.747 34.6964 137.277 34.6964H136.548V36.8215H136.913V35.9065H137.133L137.641 36.8215H138.016L137.489 35.8915C137.81 35.8587 138.002 35.6829 138.002 35.3202ZM136.433 24.8307L132.45 38.1235C131.657 40.7015 130.725 42.4012 128.699 42.9428L128.163 41.5774C129.297 41.1844 129.892 40.613 130.387 39.2169C130.201 38.2044 130.095 37.764 130.095 37.764C129.957 36.9398 129.327 34.4392 128.931 33.1521L126.437 25.1143L128.233 24.4428L130.609 32.7646C130.958 33.9773 131.307 35.9598 131.307 35.9598H131.354C131.354 35.9598 131.796 34.3115 132.077 33.2556L134.359 24.8307H136.433ZM80.3251 34.3886C80.3251 34.3886 80.1148 34.9297 79.6258 35.3168C78.8794 35.9081 78.3434 36.1406 77.3904 36.1406C76.3181 36.1406 75.595 35.7029 75.0599 34.6461C74.6863 33.8998 74.5937 32.791 74.5937 31.2966C74.5937 29.4934 74.779 28.5665 75.3388 27.5872C75.8283 26.7114 76.5967 26.2477 77.5069 26.2477C78.8794 26.2477 79.7432 26.6867 80.3251 27.5872V34.3886ZM82.1658 19.9688H80.348V24.2393C80.348 25.1654 80.371 26.2221 80.371 26.2221C79.6732 25.1918 78.53 24.5995 77.2271 24.5995C76.3873 24.5995 75.7354 24.8307 74.9894 25.3978C73.4049 26.6075 72.5906 28.6176 72.5906 31.3481C72.5906 35.4436 74.3147 37.8399 77.3183 37.8399C78.6703 37.8399 79.5567 37.4035 80.3942 36.3476C80.4172 37.0151 80.651 37.6615 80.651 37.6615H82.5152C82.2575 36.913 82.1658 35.7281 82.1658 33.5144V19.9688ZM109.904 24.8567H112.901L112.343 26.3763H109.834V34.6461C109.834 36.064 110.184 36.5546 111.325 36.5546C111.838 36.5546 111.703 36.5605 112.03 36.3787L112.287 37.668C111.703 38.0017 111.488 38.0983 110.672 38.0983C110.067 38.0983 109.602 37.9706 109.158 37.739C108.344 37.3008 108.04 36.4762 108.04 35.1873V26.3763H106.526V24.8567H108.04V19.9956H109.904V24.8567ZM104.615 26.4278C104.802 26.8919 104.895 27.4062 104.895 27.9227V37.6624H103.054V28.9786C103.054 27.6123 102.96 27.2789 102.634 26.8399C102.379 26.5057 101.888 26.2988 101.353 26.2988C100.42 26.2988 98.9773 27.1252 98.1384 28.1028V37.6624H96.3677V27.7686C96.3677 25.9386 95.9262 25.0628 95.9262 25.0628L97.6953 24.5212C97.6953 24.5212 98.1163 25.4728 98.1163 26.5313C99.3256 25.1918 100.536 24.5471 101.773 24.5471C103.031 24.5471 104.15 25.2952 104.615 26.4278ZM86.6235 30.0597C86.7151 27.4054 87.6478 26.0667 89.3014 26.0667C90.1878 26.0667 91.002 26.5057 91.3977 27.2002C91.7477 27.8184 91.911 28.6691 91.9337 30.0597H86.6235ZM89.3947 24.4948C87.9959 24.4948 86.8551 25.0628 85.9234 26.2728C84.9453 27.5633 84.5267 28.9527 84.5267 31.1173C84.5267 35.3691 86.4585 37.9442 89.6745 37.9442C91.1662 37.9442 92.5644 37.378 93.5878 36.3476L92.8885 35.0574C92.0743 35.883 91.1662 36.2683 90.0465 36.2683C88.881 36.2683 87.8097 35.8055 87.158 34.6977C86.7614 34.0296 86.6235 33.1006 86.6235 31.8905V31.5801H93.867V31.2966C93.822 28.2322 93.5404 27.0209 92.5412 25.8858C91.7475 24.9857 90.6526 24.4948 89.3947 24.4948ZM68.1868 37.6615H70.051V19.9871H68.1868V37.6615Z" fill="#A0A9DB"/>
<path fill-rule="evenodd" clip-rule="evenodd" d="M66.2298 24.256L67.5434 26.4115C66.8621 27.0959 66.2064 27.3752 65.3386 27.3752C65.0334 27.3752 64.7037 27.3257 64.5159 27.3003C64.9852 27.9068 65.2218 28.5666 65.2218 29.4288C65.2218 31.6593 63.3434 33.2836 60.7861 33.2836C60.6447 33.2836 60.5507 33.2836 60.3169 33.2576C59.5198 33.6643 59.0741 33.9682 59.0741 34.3224C59.0741 34.4999 59.2608 34.6273 59.5898 34.6273L61.28 34.6526C63.1089 34.6776 64.0705 34.9815 64.9159 35.8194C65.6189 36.5288 65.9486 37.4163 65.9486 38.5833C65.9486 39.6735 65.6431 40.5096 64.9852 41.2697C63.9305 42.4878 62.1224 42.9429 60.2459 42.9429C58.5347 42.9429 56.7742 42.6394 55.6955 41.5487C55.0384 40.8901 54.7103 40.1279 54.7103 39.2424C54.7103 38.5324 54.8736 38.1762 54.9915 37.9235H57.9011C57.7829 38.2281 57.759 38.4042 57.759 38.7588C57.759 39.7994 58.5584 40.3558 60.013 40.3558C60.8101 40.3558 61.4912 40.2563 61.9831 39.9256C62.4521 39.6217 62.7566 39.1406 62.7566 38.6076C62.7566 37.4422 61.7957 37.0863 60.5507 37.061L59.2139 37.0354C57.8067 37.009 56.8924 36.884 56.3285 36.6294C55.7645 36.4019 55.4138 35.8194 55.4138 34.9316C55.4138 34.0954 55.6474 33.3078 57.619 32.7513C55.8824 32.2689 55.0384 31.0771 55.0384 29.1509C55.0384 26.4885 57.0331 24.7647 60.1055 24.7647C60.7861 24.7647 61.3958 24.8659 62.2647 25.0932C62.9202 25.2701 63.3434 25.3729 63.7426 25.3729C64.6104 25.3729 65.502 24.9672 66.2298 24.256ZM46.2844 24.6629C46.567 25.1959 46.731 25.7527 46.731 26.2849C47.1998 25.9292 47.599 25.6249 48.1156 25.3214C48.7487 24.9672 49.5707 24.7647 50.2735 24.7647C51.6112 24.7647 52.7842 25.524 53.1594 26.6409C53.3234 27.1221 53.3943 27.6795 53.3943 28.491V37.9742H50.2963V29.5305C50.2963 28.0605 50.0626 27.6299 49.241 27.6299C48.6089 27.6299 47.788 28.0865 47.0607 28.7949V37.9742H43.9154V28.5666C43.9154 27.451 43.7744 26.3862 43.4937 25.524L46.2844 24.6629ZM41.3571 24.6865V37.9742H38.2141V25.2191L41.3571 24.6865ZM30.0232 20.3524C32.7914 20.3524 33.6364 20.6559 34.5527 21.2142C36.0759 22.1273 36.8962 23.7495 36.8962 25.779C36.8962 28.1108 35.8651 29.9873 34.0825 30.8998C33.3316 31.2801 32.627 31.4833 30.8212 31.4833H29.0154V37.9742H25.7305V20.3524H30.0232ZM60.0817 27.2483C58.8858 27.2483 58.205 27.9595 58.205 29.1758C58.205 30.4946 58.956 31.0262 60.0586 31.0262C61.3027 31.0262 61.9831 30.3675 61.9831 29.1758C61.9831 27.9595 61.28 27.2483 60.0817 27.2483ZM31.1016 23.2165H29.0154V28.5924H30.7278C32.0648 28.5924 32.4641 28.4147 32.9084 27.6795C33.1916 27.1991 33.3074 26.6911 33.3074 25.8536C33.3074 24.2058 32.4869 23.2165 31.1016 23.2165ZM39.832 19.3125C40.8879 19.3125 41.7333 20.2509 41.7333 21.4166C41.7333 22.5827 40.8641 23.5218 39.7849 23.5218C38.73 23.5218 37.8615 22.5827 37.8615 21.4166C37.8615 20.2509 38.7533 19.3125 39.832 19.3125Z" fill="#A0A9DB"/>
</g>
</svg>
