<svg width="458" height="100" viewBox="0 0 458 100" fill="none" xmlns="http://www.w3.org/2000/svg">
  <g clip-path="url(#clip0_1040_209)">
    <mask id="mask0_1040_209" style="mask-type:luminance" maskUnits="userSpaceOnUse" x="0" y="0" width="458"
      height="100">
      <path d="M458 0H0V100H458V0Z" fill="#A0A9DB" />
    </mask>
    <g mask="url(#mask0_1040_209)">
      <path
        d="M30.0533 79.0548C26.5471 79.0548 23.3272 78.3746 20.3933 77.014C17.4595 75.6533 15.0624 73.7917 13.202 71.4285C11.3416 68.994 10.2682 66.2371 9.98199 63.1579V41.1385C10.2682 38.0594 11.3416 35.2667 13.202 32.7604C15.0624 30.2542 17.4595 28.285 20.3933 26.8529C23.3272 25.4206 26.5471 24.7046 30.0533 24.7046C34.9906 24.7046 39.3555 25.886 43.148 28.2492C47.012 30.6123 50.0174 33.8346 52.1639 37.9163C54.3823 41.9979 55.4913 46.6523 55.4913 51.8798C55.4913 57.1071 54.3823 61.7615 52.1639 65.8431C50.0174 69.9248 47.012 73.1471 43.148 75.5102C39.3555 77.8733 34.9906 79.0548 30.0533 79.0548ZM0 100V25.7788H16.422V39.2052L13.7387 51.8798L16.2073 64.5542V100H0ZM27.048 64.2321C29.4092 64.2321 31.4486 63.695 33.1661 62.6208C34.9548 61.5467 36.3502 60.0788 37.352 58.2169C38.3538 56.3552 38.8546 54.2427 38.8546 51.8798C38.8546 49.445 38.3538 47.2969 37.352 45.435C36.3502 43.5731 34.9548 42.141 33.1661 41.1385C31.4486 40.0644 29.445 39.5273 27.1552 39.5273C24.8654 39.5273 22.8263 40.0644 21.0374 41.1385C19.32 42.141 17.9604 43.5731 16.9587 45.435C15.9569 47.2969 15.456 49.445 15.456 51.8798C15.456 54.2427 15.9211 56.3552 16.8513 58.2169C17.8531 60.0788 19.2484 61.5467 21.0374 62.6208C22.8263 63.695 24.8298 64.2321 27.048 64.2321Z"
        fill="#A0A9DB" />
      <path d="M60.6133 77.9806V0H77.0353V77.9806H60.6133Z" fill="#A0A9DB" />
      <path
        d="M107.169 79.0548C102.375 79.0548 98.0813 77.8733 94.2888 75.5102C90.568 73.1471 87.5985 69.9248 85.3803 65.8431C83.2335 61.7615 82.1602 57.1071 82.1602 51.8798C82.1602 46.6523 83.2335 41.9979 85.3803 37.9163C87.5985 33.8346 90.568 30.6123 94.2888 28.2492C98.0813 25.886 102.375 24.7046 107.169 24.7046C110.675 24.7046 113.824 25.3848 116.614 26.7454C119.476 28.106 121.802 30.0035 123.591 32.4383C125.38 34.8013 126.382 37.5223 126.596 40.6015V63.1579C126.382 66.2371 125.38 68.994 123.591 71.4285C121.874 73.7917 119.584 75.6533 116.721 77.014C113.859 78.3746 110.675 79.0548 107.169 79.0548ZM110.496 64.2321C114.002 64.2321 116.829 63.0863 118.975 60.7948C121.122 58.4319 122.196 55.46 122.196 51.8798C122.196 49.445 121.695 47.2969 120.693 45.435C119.763 43.5731 118.403 42.141 116.614 41.1385C114.897 40.0644 112.893 39.5273 110.604 39.5273C108.314 39.5273 106.274 40.0644 104.486 41.1385C102.768 42.141 101.373 43.5731 100.299 45.435C99.2977 47.2969 98.7968 49.445 98.7968 51.8798C98.7968 54.2427 99.2977 56.3552 100.299 58.2169C101.301 60.0788 102.697 61.5467 104.486 62.6208C106.274 63.695 108.278 64.2321 110.496 64.2321ZM121.551 77.9806V63.9098L124.02 51.2352L121.551 38.5606V25.7788H137.651V77.9806H121.551Z"
        fill="#A0A9DB" />
      <path
        d="M180.448 77.9806V48.2277C180.448 45.5067 179.589 43.3225 177.872 41.6756C176.226 39.9571 174.116 39.0977 171.54 39.0977C169.751 39.0977 168.176 39.4917 166.817 40.2792C165.457 40.9954 164.384 42.0694 163.597 43.5017C162.81 44.8621 162.416 46.4375 162.416 48.2277L156.083 45.1127C156.083 41.0313 156.978 37.4508 158.767 34.3717C160.556 31.2925 163.024 28.9294 166.173 27.2825C169.393 25.564 173.006 24.7046 177.013 24.7046C180.878 24.7046 184.276 25.6354 187.21 27.4973C190.216 29.2875 192.577 31.6865 194.294 34.694C196.011 37.7015 196.87 40.9954 196.87 44.5756V77.9806H180.448ZM145.994 77.9806V25.7788H162.416V77.9806H145.994Z"
        fill="#A0A9DB" />
      <path
        d="M214.502 79.1623C211.711 79.1623 209.385 78.1954 207.525 76.2621C205.665 74.3287 204.734 72.0014 204.734 69.2804C204.734 66.416 205.665 64.0529 207.525 62.1912C209.385 60.2577 211.711 59.291 214.502 59.291C217.363 59.291 219.69 60.2577 221.479 62.1912C223.338 64.0529 224.268 66.416 224.268 69.2804C224.268 72.0014 223.338 74.3287 221.479 76.2621C219.69 78.1954 217.363 79.1623 214.502 79.1623Z"
        fill="#A0A9DB" />
      <path
        d="M257.018 79.1623C251.651 79.1623 246.786 77.9806 242.42 75.6177C238.054 73.2546 234.621 69.9965 232.117 65.8431C229.613 61.69 228.359 57.0354 228.359 51.8798C228.359 46.6523 229.613 41.9979 232.117 37.9162C234.692 33.7629 238.163 30.5048 242.528 28.1419C246.892 25.7787 251.794 24.5973 257.232 24.5973C261.31 24.5973 265.033 25.3133 268.395 26.7454C271.83 28.106 274.871 30.1825 277.517 32.9752L267 43.5017C265.784 42.141 264.352 41.1385 262.707 40.4942C261.131 39.8496 259.308 39.5273 257.232 39.5273C254.871 39.5273 252.76 40.0644 250.899 41.1385C249.111 42.141 247.679 43.5731 246.607 45.435C245.605 47.2252 245.103 49.3377 245.103 51.7723C245.103 54.2069 245.605 56.3552 246.607 58.2169C247.679 60.0787 249.146 61.5467 251.007 62.6208C252.867 63.695 254.942 64.2321 257.232 64.2321C259.378 64.2321 261.275 63.874 262.922 63.1579C264.639 62.3702 266.105 61.296 267.321 59.9356L277.734 70.4619C275.013 73.3262 271.936 75.5102 268.503 77.014C265.068 78.446 261.24 79.1623 257.018 79.1623Z"
        fill="#A0A9DB" />
      <path
        d="M305.679 79.1623C300.312 79.1623 295.447 77.9806 291.081 75.6177C286.789 73.1829 283.389 69.889 280.885 65.7358C278.38 61.5825 277.129 56.9281 277.129 51.7723C277.129 46.6165 278.38 41.9979 280.885 37.9162C283.389 33.8346 286.789 30.6123 291.081 28.2492C295.374 25.8146 300.241 24.5973 305.679 24.5973C311.117 24.5973 315.982 25.7787 320.277 28.1419C324.569 30.5048 327.969 33.7629 330.473 37.9162C332.978 41.9979 334.229 46.6165 334.229 51.7723C334.229 56.9281 332.978 61.5825 330.473 65.7358C327.969 69.889 324.569 73.1829 320.277 75.6177C315.982 77.9806 311.117 79.1623 305.679 79.1623ZM305.679 64.2321C308.04 64.2321 310.115 63.7308 311.904 62.7283C313.692 61.6542 315.053 60.1862 315.982 58.3244C316.985 56.391 317.485 54.2069 317.485 51.7723C317.485 49.3377 316.985 47.2252 315.982 45.435C314.981 43.5731 313.586 42.141 311.797 41.1385C310.08 40.0644 308.04 39.5273 305.679 39.5273C303.389 39.5273 301.349 40.0644 299.56 41.1385C297.772 42.141 296.377 43.5731 295.374 45.435C294.373 47.2969 293.873 49.445 293.873 51.8798C293.873 54.2427 294.373 56.391 295.374 58.3244C296.377 60.1862 297.772 61.6542 299.56 62.7283C301.349 63.7308 303.389 64.2321 305.679 64.2321Z"
        fill="#A0A9DB" />
      <path
        d="M339.186 77.9806V25.7788H355.607V77.9806H339.186ZM372.565 77.9806V47.4758C372.565 44.8265 371.743 42.7856 370.096 41.3533C368.523 39.8496 366.555 39.0977 364.194 39.0977C362.548 39.0977 361.08 39.4558 359.793 40.1719C358.505 40.8163 357.468 41.7473 356.679 42.9646C355.965 44.1819 355.607 45.6856 355.607 47.4758L349.274 44.6831C349.274 40.53 350.169 36.9854 351.958 34.0494C353.746 31.0419 356.179 28.7504 359.256 27.175C362.333 25.5281 365.804 24.7046 369.668 24.7046C373.317 24.7046 376.573 25.5281 379.435 27.175C382.369 28.8221 384.694 31.1135 386.412 34.0494C388.129 36.9854 388.987 40.4942 388.987 44.5756V77.9806H372.565ZM405.945 77.9806V47.4758C405.945 44.8265 405.123 42.7856 403.478 41.3533C401.902 39.8496 399.935 39.0977 397.574 39.0977C395.928 39.0977 394.462 39.4558 393.173 40.1719C391.885 40.8163 390.848 41.7473 390.061 42.9646C389.345 44.1819 388.987 45.6856 388.987 47.4758L379.542 46.1869C379.685 41.7473 380.722 37.9521 382.654 34.8013C384.659 31.579 387.269 29.1085 390.49 27.39C393.781 25.5998 397.466 24.7046 401.546 24.7046C405.552 24.7046 409.095 25.564 412.172 27.2825C415.32 28.9294 417.789 31.3283 419.577 34.479C421.438 37.5581 422.369 41.2819 422.369 45.6498V77.9806H405.945Z"
        fill="#A0A9DB" />
    </g>
  </g>
  <defs>
    <clipPath id="clip0_1040_209">
      <rect width="458" height="100" fill="#A0A9DB" />
    </clipPath>
  </defs>
</svg>