<svg width="120" height="48" viewBox="0 0 120 48" fill="none" xmlns="http://www.w3.org/2000/svg">
<path d="M62.5224 14.5155C62.5224 13.6786 61.844 13.0001 61.0071 13.0001C60.1702 13.0001 59.4917 13.6786 59.4917 14.5155V29.6692C59.4917 30.5061 60.1702 31.1845 61.0071 31.1845C61.844 31.1845 62.5224 30.5061 62.5224 29.6692V14.5155Z" fill="#A0A9DB"/>
<path d="M94.3452 14.5155C94.3452 13.6786 93.6667 13.0001 92.8298 13.0001C91.9929 13.0001 91.3145 13.6786 91.3145 14.5155V29.6692C91.3145 30.5061 91.9929 31.1845 92.8298 31.1845C93.6667 31.1845 94.3452 30.5061 94.3452 29.6692V14.5155Z" fill="#A0A9DB"/>
<path d="M50.3996 16.0309C49.2821 16.0319 48.1892 16.3593 47.2552 16.9729C47.1219 16.6485 46.8802 16.3803 46.5713 16.2142C46.2624 16.048 45.9054 15.9942 45.5613 16.0618C45.2171 16.1294 44.907 16.3144 44.684 16.5851C44.4609 16.8558 44.3387 17.1955 44.3381 17.5463V32.6999C44.3381 33.1018 44.4978 33.4873 44.782 33.7715C45.0662 34.0556 45.4516 34.2153 45.8535 34.2153C46.2554 34.2153 46.6408 34.0556 46.925 33.7715C47.2092 33.4873 47.3689 33.1018 47.3689 32.6999V30.3132C48.2776 30.8816 49.3277 31.1835 50.3996 31.1846C53.746 31.1846 56.4611 28.2776 56.4611 24.6912V22.5242C56.4611 18.9379 53.746 16.0309 50.3996 16.0309ZM53.4303 24.8478C53.4303 26.6738 52.0741 28.1538 50.3996 28.1538C48.7251 28.1538 47.3689 26.6738 47.3689 24.8478V22.3676C47.3689 20.5416 48.7251 19.0616 50.3996 19.0616C52.0741 19.0616 53.4303 20.5416 53.4303 22.3676V24.8478Z" fill="#A0A9DB"/>
<path d="M71.6148 16.0309C68.2684 16.0309 65.5533 18.9379 65.5533 22.5242V24.6887C65.5533 28.2751 68.2684 31.182 71.6148 31.182C74.9612 31.182 77.6763 28.2751 77.6763 24.6887V22.5242C77.6763 18.9379 74.9612 16.0309 71.6148 16.0309ZM74.6455 24.8478C74.6455 26.6738 73.2893 28.1538 71.6148 28.1538C69.9403 28.1538 68.5841 26.6738 68.5841 24.8478V22.3676C68.5841 20.5416 69.9403 19.0616 71.6148 19.0616C73.2893 19.0616 74.6455 20.5416 74.6455 22.3676V24.8478Z" fill="#A0A9DB"/>
<path d="M86.7684 28.1538C86.3704 28.1538 85.9763 28.0754 85.6086 27.9231C85.2409 27.7707 84.9068 27.5475 84.6253 27.2661C84.3439 26.9846 84.1207 26.6505 83.9683 26.2828C83.816 25.9151 83.7376 25.521 83.7376 25.123V19.0616H86.7684C87.1703 19.0616 87.5557 18.9019 87.8399 18.6177C88.1241 18.3335 88.2837 17.9481 88.2837 17.5462C88.2837 17.1443 88.1241 16.7588 87.8399 16.4747C87.5557 16.1905 87.1703 16.0308 86.7684 16.0308H83.7376V14.5155C83.7374 14.1137 83.5777 13.7284 83.2935 13.4444C83.0094 13.1604 82.624 13.0009 82.2223 13.0009C81.8205 13.0009 81.4352 13.1604 81.151 13.4444C80.8669 13.7284 80.7071 14.1137 80.7069 14.5155V25.123C80.7069 26.7306 81.3455 28.2724 82.4823 29.4091C83.619 30.5459 85.1608 31.1845 86.7684 31.1845C87.1701 31.1843 87.5554 31.0245 87.8394 30.7404C88.1234 30.4562 88.283 30.0709 88.283 29.6691C88.283 29.2674 88.1234 28.882 87.8394 28.5979C87.5554 28.3137 87.1701 28.154 86.7684 28.1538Z" fill="#A0A9DB"/>
<path d="M108.054 16.1547C107.871 16.0762 107.675 16.0345 107.476 16.0321C107.277 16.0296 107.079 16.0663 106.894 16.1402C106.71 16.2141 106.541 16.3236 106.399 16.4626C106.256 16.6016 106.143 16.7673 106.064 16.9502L102.932 24.2796L99.7906 16.9553C99.7214 16.7597 99.6128 16.5805 99.4715 16.4286C99.3302 16.2767 99.1593 16.1554 98.9692 16.0723C98.7792 15.9892 98.5741 15.946 98.3667 15.9453C98.1592 15.9447 97.9539 15.9866 97.7633 16.0686C97.5728 16.1505 97.4011 16.2707 97.2589 16.4217C97.1166 16.5727 97.0069 16.7513 96.9365 16.9464C96.8661 17.1415 96.8365 17.349 96.8496 17.556C96.8626 17.763 96.918 17.9652 97.0124 18.1499L101.291 28.1311L100.786 29.3182C100.561 29.8607 100.183 30.3263 99.6981 30.6581C99.2134 30.9899 98.6427 31.1737 98.0555 31.1871C97.6536 31.1919 97.2701 31.356 96.9892 31.6435C96.7084 31.931 96.5533 32.3183 96.558 32.7201C96.5626 33.122 96.7268 33.5056 97.0142 33.7864C97.3017 34.0673 97.6889 34.2225 98.0908 34.2178H98.1261C99.2969 34.1905 100.435 33.8246 101.402 33.1644C102.369 32.5042 103.124 31.5779 103.576 30.4976L108.88 18.1499C108.959 17.9649 108.999 17.7661 109 17.5651C109.001 17.3642 108.962 17.1651 108.885 16.9794C108.808 16.7937 108.695 16.6252 108.552 16.4836C108.41 16.342 108.241 16.2302 108.054 16.1547Z" fill="#A0A9DB"/>
<path d="M24.6383 22.0923C25.4752 22.0923 26.1537 21.4138 26.1537 20.5769C26.1537 19.74 25.4752 19.0615 24.6383 19.0615C23.8014 19.0615 23.1229 19.74 23.1229 20.5769C23.1229 21.4138 23.8014 22.0923 24.6383 22.0923Z" fill="#A0A9DB"/>
<path d="M30.6997 16.0307C31.5366 16.0307 32.2151 15.3523 32.2151 14.5154C32.2151 13.6785 31.5366 13 30.6997 13C29.8628 13 29.1843 13.6785 29.1843 14.5154C29.1843 15.3523 29.8628 16.0307 30.6997 16.0307Z" fill="#A0A9DB"/>
<path d="M24.6383 16.0307C25.4752 16.0307 26.1537 15.3523 26.1537 14.5154C26.1537 13.6785 25.4752 13 24.6383 13C23.8014 13 23.1229 13.6785 23.1229 14.5154C23.1229 15.3523 23.8014 16.0307 24.6383 16.0307Z" fill="#A0A9DB"/>
<path d="M18.5769 16.0307C19.4138 16.0307 20.0923 15.3523 20.0923 14.5154C20.0923 13.6785 19.4138 13 18.5769 13C17.74 13 17.0615 13.6785 17.0615 14.5154C17.0615 15.3523 17.74 16.0307 18.5769 16.0307Z" fill="#A0A9DB"/>
<path d="M12.5154 16.0307C13.3523 16.0307 14.0307 15.3523 14.0307 14.5154C14.0307 13.6785 13.3523 13 12.5154 13C11.6785 13 11 13.6785 11 14.5154C11 15.3523 11.6785 16.0307 12.5154 16.0307Z" fill="#A0A9DB"/>
<path d="M12.5154 22.0923C13.3523 22.0923 14.0307 21.4138 14.0307 20.5769C14.0307 19.74 13.3523 19.0615 12.5154 19.0615C11.6785 19.0615 11 19.74 11 20.5769C11 21.4138 11.6785 22.0923 12.5154 22.0923Z" fill="#A0A9DB"/>
<path d="M12.5154 25.1229C12.3164 25.1229 12.1193 25.1621 11.9355 25.2383C11.7516 25.3144 11.5846 25.4261 11.4438 25.5668C11.3031 25.7075 11.1915 25.8745 11.1154 26.0584C11.0392 26.2422 11 26.4393 11 26.6383V32.6998C11 33.1017 11.1597 33.4871 11.4438 33.7713C11.728 34.0555 12.1135 34.2151 12.5154 34.2151C12.9173 34.2151 13.3027 34.0555 13.5869 33.7713C13.8711 33.4871 14.0307 33.1017 14.0307 32.6998V26.6383C14.0307 26.4393 13.9915 26.2422 13.9154 26.0584C13.8392 25.8745 13.7276 25.7075 13.5869 25.5668C13.4462 25.4261 13.2791 25.3144 13.0953 25.2383C12.9114 25.1621 12.7144 25.1229 12.5154 25.1229Z" fill="#A0A9DB"/>
<path d="M24.6383 25.1229C24.2364 25.1229 23.851 25.2826 23.5668 25.5668C23.2826 25.851 23.1229 26.2364 23.1229 26.6383V32.6998C23.1231 33.1015 23.2829 33.4868 23.567 33.7708C23.8512 34.0548 24.2365 34.2144 24.6383 34.2144C25.0401 34.2144 25.4254 34.0548 25.7095 33.7708C25.9937 33.4868 26.1535 33.1015 26.1537 32.6998V26.6383C26.1537 26.4393 26.1145 26.2422 26.0383 26.0584C25.9622 25.8745 25.8505 25.7075 25.7098 25.5668C25.5691 25.4261 25.402 25.3144 25.2182 25.2383C25.0343 25.1621 24.8373 25.1229 24.6383 25.1229Z" fill="#A0A9DB"/>
<path d="M18.5769 19.0615C18.175 19.0615 17.7896 19.2212 17.5054 19.5054C17.2212 19.7895 17.0615 20.175 17.0615 20.5769V32.6998C17.0617 33.1016 17.2215 33.4868 17.5056 33.7709C17.7898 34.0549 18.1751 34.2144 18.5769 34.2144C18.9787 34.2144 19.364 34.0549 19.6481 33.7709C19.9323 33.4868 20.0921 33.1016 20.0923 32.6998V20.5769C20.0923 20.175 19.9326 19.7896 19.6484 19.5054C19.3642 19.2212 18.9788 19.0615 18.5769 19.0615Z" fill="#A0A9DB"/>
<path d="M30.6997 19.0615C30.2978 19.0615 29.9124 19.2212 29.6282 19.5054C29.344 19.7895 29.1843 20.175 29.1843 20.5769V32.6998C29.1843 33.1017 29.344 33.4872 29.6282 33.7714C29.9124 34.0555 30.2978 34.2152 30.6997 34.2152C31.1016 34.2152 31.487 34.0555 31.7712 33.7714C32.0554 33.4872 32.2151 33.1017 32.2151 32.6998V20.5769C32.2151 20.175 32.0554 19.7895 31.7712 19.5054C31.487 19.2212 31.1016 19.0615 30.6997 19.0615Z" fill="#A0A9DB"/>
</svg>
