<svg width="140" height="60" viewBox="0 0 140 60" fill="none" xmlns="http://www.w3.org/2000/svg">
<path d="M75.4246 30.0058C75.4246 31.3371 74.9047 32.6139 73.9791 33.5555C73.0536 34.4971 71.7982 35.0264 70.489 35.027C69.1794 35.027 67.9234 34.498 66.9974 33.5563C66.0714 32.6147 65.5511 31.3375 65.5511 30.0058C65.5511 28.6745 66.0711 27.3977 66.9966 26.4561C67.9221 25.5146 69.1775 24.9853 70.4868 24.9847C71.7963 24.9847 73.0523 25.5137 73.9783 26.4553C74.9043 27.397 75.4246 28.6741 75.4246 30.0058ZM81.2722 6.00044C78.2998 6.00044 74.411 8.15621 70.4779 11.8884C66.5471 8.17642 62.656 6.04535 59.6858 6.04535C58.7804 6.04535 57.9567 6.25419 57.2434 6.66962C54.2069 8.45038 53.5268 13.9992 55.0947 20.9628C48.3725 23.0737 44 26.4488 44 30.0058C44 33.5763 48.3946 36.9604 55.1366 39.0556C53.582 46.0461 54.2754 51.604 57.3185 53.3825C58.0251 53.8024 58.8422 54 59.752 54C62.7222 54 66.6133 51.8442 70.5464 48.1076C74.4772 51.8218 78.3683 53.9528 81.3385 53.9528C82.2439 53.9528 83.0676 53.7507 83.7809 53.3353C86.8152 51.5568 87.4975 46.0079 85.9296 39.0421C92.6275 36.9492 97 33.5673 97 30.0058C97 26.4353 92.6054 23.0512 85.8634 20.9516C87.418 13.9678 86.7246 8.40547 83.6815 6.62471C82.9458 6.20432 82.1161 5.98897 81.2722 6.00044ZM81.2612 8.44813V8.46161C81.7581 8.46161 82.1578 8.56041 82.4935 8.7468C83.9642 9.60461 84.6024 12.8675 84.1055 17.0645C83.9863 18.0974 83.792 19.1866 83.5535 20.2981C81.2953 19.7427 79.0031 19.3421 76.6922 19.099C75.3154 17.1682 73.8141 15.3325 72.1982 13.604C75.7139 10.2805 79.0153 8.45711 81.2634 8.45038L81.2612 8.44813ZM59.6858 8.49304C61.9206 8.49304 65.2375 10.3075 68.762 13.613C67.2471 15.2298 65.7366 17.0645 64.3012 19.0967C61.9852 19.3388 59.6882 19.7424 57.4267 20.3049C57.1895 19.2517 57.0023 18.1876 56.8658 17.1161C56.3578 12.9214 56.985 9.66075 58.4425 8.79171C58.8621 8.5896 59.3258 8.50427 59.6858 8.49304ZM70.4669 15.3421C71.4739 16.396 72.475 17.5667 73.4702 18.8542C72.4985 18.8093 71.5048 18.7779 70.5 18.7779C69.4827 18.7764 68.4816 18.8018 67.4967 18.8542C68.4683 17.5697 69.4731 16.3953 70.4669 15.3421ZM70.5 21.239C72.1342 21.239 73.7617 21.3154 75.3627 21.4479C76.2608 22.7563 77.1316 24.1486 77.9752 25.6247C78.7952 27.0634 79.5446 28.52 80.2233 29.9946C79.5431 31.4655 78.7967 32.9363 77.9862 34.3735C77.1471 35.8556 76.2792 37.2658 75.3804 38.5728C72.1391 38.8616 68.8792 38.8654 65.6372 38.584C64.7109 37.2285 63.8393 35.835 63.0248 34.4072C62.2048 32.9685 61.4554 31.5119 60.7767 30.0373C61.4587 28.542 62.2051 27.0779 63.0137 25.6494C63.8529 24.1673 64.7208 22.7615 65.6196 21.4546C67.2424 21.3081 68.8708 21.2346 70.5 21.2345V21.239ZM62.4727 21.8094C61.9427 22.656 61.4127 23.5228 60.918 24.4143C60.4234 25.2901 59.9559 26.1689 59.5157 27.0506C58.9305 25.5775 58.4337 24.1089 58.0229 22.6785C59.4362 22.3416 60.9269 22.0407 62.4727 21.8094ZM78.5052 21.8094C80.0422 22.0385 81.5188 22.3281 82.9351 22.6785C82.5376 24.0977 82.0408 25.5573 81.4776 27.0192C80.5763 25.2318 79.585 23.4929 78.5074 21.8094H78.5052ZM85.2693 23.3252C86.3396 23.6635 87.3518 24.0363 88.3058 24.4435C92.1306 26.1052 94.604 28.279 94.604 30.0036C94.5929 31.7282 92.1196 33.9109 88.2947 35.5614C87.3672 35.9656 86.3514 36.3294 85.3025 36.6685C84.6389 34.3858 83.8275 32.1503 82.8733 29.9766C83.867 27.6929 84.662 25.463 85.2693 23.3207V23.3252ZM55.6887 23.3342C56.3026 25.4899 57.1131 27.7288 58.1179 30.026C57.1695 32.1862 56.3682 34.4101 55.7196 36.682C54.6508 36.3451 53.635 35.9679 52.6942 35.5592C48.8694 33.9042 46.396 31.7282 46.396 30.0036C46.396 28.279 48.8694 26.0918 52.6942 24.4435C53.6217 24.0393 54.6375 23.6755 55.6887 23.3342ZM81.4776 32.9453C82.0628 34.4207 82.5597 35.8915 82.9705 37.3197C81.5571 37.6723 80.0643 37.971 78.5185 38.1955C79.5942 36.4987 80.5804 34.7463 81.4776 32.9453ZM59.5157 32.9902C59.9574 33.8705 60.4212 34.7485 60.9291 35.6288C61.437 36.5061 61.956 37.3616 62.486 38.1955C60.9969 37.9765 59.5187 37.6872 58.056 37.3287C58.4535 35.914 58.9526 34.4499 59.5135 32.988L59.5157 32.9902ZM83.5733 39.6978C83.8207 40.8049 84.015 41.8715 84.1342 42.8933C84.6422 47.0881 84.015 50.3487 82.5575 51.22C82.2329 51.4221 81.8111 51.5074 81.3142 51.5074C79.0794 51.5074 75.7625 49.6952 72.238 46.3874C73.7529 44.7706 75.2634 42.9382 76.6988 40.9082C79.1434 40.6432 81.4555 40.2368 83.5733 39.6978ZM57.4487 39.7203C59.5687 40.2457 61.8787 40.6522 64.31 40.9149C65.7675 42.9472 67.2802 44.7931 68.804 46.4077C65.2817 49.7379 61.9758 51.5613 59.7277 51.5613C59.3032 51.5634 58.8844 51.4617 58.5065 51.2649C57.0358 50.4115 56.3976 47.1464 56.8945 42.9494C57.0137 41.9165 57.2102 40.8296 57.4487 39.7203ZM67.5187 41.1574C68.4919 41.2054 69.482 41.2308 70.489 41.2338C71.5063 41.2353 72.5074 41.2098 73.4923 41.1574C72.5206 42.4419 71.5158 43.6164 70.5221 44.6718C69.5151 43.6149 68.514 42.4434 67.5187 41.1574Z" fill="#A0A9DB"/>
</svg>
