<svg width="140" height="60" viewBox="0 0 140 60" fill="none" xmlns="http://www.w3.org/2000/svg">
<path d="M89.1552 43.016C89.5902 48.562 89.5902 51.162 89.5902 54H76.6663C76.6663 53.382 76.6784 52.816 76.6885 52.244C76.7248 50.46 76.761 48.602 76.469 44.848C76.0863 39.354 73.7017 38.132 69.3193 38.132H49.002V28.132H69.9396C75.4741 28.132 78.2413 26.462 78.2413 22.034C78.2413 18.142 75.4741 15.784 69.9396 15.784H49V6H72.2436C84.7727 6 91 11.876 91 21.264C91 28.286 86.6175 32.864 80.7004 33.628C85.6951 34.622 88.6154 37.446 89.1552 43.016ZM49 54V46.546H62.663C64.9449 46.546 65.4403 48.226 65.4403 49.23V54H49Z" fill="#A0A9DB"/>
</svg>
