<svg width="140" height="60" viewBox="0 0 140 60" fill="none" xmlns="http://www.w3.org/2000/svg">
<mask id="mask0_5117_5542" style="mask-type:luminance" maskUnits="userSpaceOnUse" x="11" y="12" width="118" height="36">
<path d="M128.606 12.7891H11.1729V47.3273H128.606V12.7891Z" fill="white"/>
</mask>
<g mask="url(#mask0_5117_5542)">
<mask id="mask1_5117_5542" style="mask-type:luminance" maskUnits="userSpaceOnUse" x="11" y="12" width="118" height="36">
<path d="M128.606 12.7891H11.1729V47.3273H128.606V12.7891Z" fill="white"/>
</mask>
<g mask="url(#mask1_5117_5542)">
<path d="M20.8785 47.3274C28.7377 47.3274 32.4779 43.3814 32.4779 37.0487C32.4779 31.1056 29.4005 28.9134 24.2873 27.4033L21.2572 26.429C18.0378 25.5035 17.0909 24.383 17.0909 21.7525C17.0909 19.0732 18.9847 17.6118 22.3935 17.6118C25.9917 17.6118 28.643 18.3912 30.6787 19.268V14.5915C28.8797 13.6172 26.5598 12.7891 22.2988 12.7891C14.9604 12.7891 11.4096 16.6375 11.4096 22.2883C11.4096 27.9391 14.2029 30.4723 18.7953 31.7876L21.8727 32.6644C25.4235 33.7848 26.6071 34.8565 26.6071 37.6332C26.6071 40.6535 24.7607 42.5047 20.405 42.5047C16.8542 42.5047 13.7768 41.6278 11.1729 40.4587V45.1839C13.398 46.4018 16.6175 47.3274 20.8785 47.3274Z" fill="#A0A9DB"/>
<path d="M35.1398 46.7422H40.5371L43.4725 38.2658H55.5454L58.4806 46.7422H64.4934L52.9414 13.3242H46.9759L35.1398 46.7422ZM49.3905 20.4365H49.5325L54.0776 33.7841H44.8455L49.3905 20.4365Z" fill="#A0A9DB"/>
<path d="M69.1516 46.7422H74.2649V20.7775H74.407L82.5028 46.7422H87.2846L95.4278 20.7775H95.6172V46.7422H101.441V13.3242H93.2974L85.3909 38.5095H85.2487L77.3424 13.3242H69.1516V46.7422Z" fill="#A0A9DB"/>
<path d="M109.052 46.7422H128.606V42.0168H114.876V13.3242H109.052V46.7422Z" fill="#A0A9DB"/>
</g>
</g>
</svg>
