<svg width="140" height="60" viewBox="0 0 140 60" fill="none" xmlns="http://www.w3.org/2000/svg">
<g clip-path="url(#clip0_5122_5880)">
<path d="M89.708 8.83182C89.0406 10.43 88.178 11.9394 87.14 13.3258C84.916 11.0222 82.2524 9.18832 79.3069 7.93267C76.3614 6.67703 73.1939 6.02518 69.9919 6.01573C66.7899 6.00628 63.6186 6.63942 60.6657 7.87765C57.7129 9.11589 55.0385 10.934 52.8009 13.2245C50.5634 15.5149 48.8081 18.231 47.6392 21.212C46.4702 24.193 45.9113 27.3782 45.9955 30.5791C46.0797 33.7799 46.8054 36.9314 48.1294 39.8468C49.4535 42.7621 51.3491 45.3822 53.704 47.5518L54.592 48.3418C57.9654 51.1874 62.0607 53.0437 66.4242 53.7051C70.7877 54.3665 75.2491 53.8072 79.3142 52.0891C83.3794 50.3711 86.8897 47.5613 89.4563 43.9711C92.023 40.3808 93.5457 36.1502 93.856 31.7478C94.548 25.7218 92.72 18.0178 89.708 8.83182ZM57.16 47.7498C56.9061 48.0615 56.5656 48.291 56.1814 48.4093C55.7972 48.5275 55.3866 48.5293 55.0014 48.4144C54.6162 48.2995 54.2737 48.073 54.0171 47.7635C53.7605 47.454 53.6014 47.0755 53.5598 46.6757C53.5182 46.2758 53.5961 45.8726 53.7835 45.517C53.9709 45.1614 54.2595 44.8693 54.6128 44.6775C54.9662 44.4858 55.3684 44.4031 55.7687 44.4398C56.169 44.4765 56.5494 44.631 56.862 44.8838C57.2715 45.2306 57.5312 45.7222 57.5867 46.2559C57.6422 46.7896 57.4893 47.3262 57.16 47.7498ZM89.558 40.5858C83.68 48.4378 71.038 45.7718 62.986 46.1658C62.986 46.1658 61.554 46.2658 60.122 46.4618C60.122 46.4618 60.666 46.2158 61.358 45.9678C67.038 43.9938 69.704 43.5978 73.16 41.8198C79.63 38.5118 86.1 31.2518 87.384 23.7438C84.914 30.9558 77.408 37.1778 70.592 39.6958C65.9 41.4258 57.456 43.1038 57.456 43.1038L57.11 42.9058C51.38 40.0918 51.184 27.6458 61.654 23.6458C66.246 21.8658 70.594 22.8558 75.58 21.6698C80.866 20.4358 86.99 16.4838 89.46 11.2978C92.224 19.6458 95.582 32.5838 89.558 40.5858Z" fill="#A0A9DB"/>
</g>
<defs>
<clipPath id="clip0_5122_5880">
<rect width="48" height="48" fill="white" transform="translate(46 6)"/>
</clipPath>
</defs>
</svg>
