<svg width="411" height="100" viewBox="0 0 411 100" fill="none" xmlns="http://www.w3.org/2000/svg">
  <g clip-path="url(#clip0_1040_233)">
    <path
      d="M156.058 47.4722C154.892 46.8888 153.616 46.5277 152.339 46.3611C151.173 46.2222 149.98 46.1944 148.786 46.2222H147.26L143.18 46.2777H133.3C132.245 46.2777 131.219 46.2777 130.164 46.1111C129.331 46.0555 128.526 45.7222 127.86 45.1944C126.861 44.1666 126.528 42.6111 127.083 41.2499C127.611 39.8888 128.887 38.9999 130.303 38.9722H160.165V31.4722H130.303C128.388 31.4722 126.528 32.0277 124.891 33.0555C123.281 34.0277 121.949 35.3888 121.005 37.0555C118.424 41.6111 119.34 47.4166 123.226 50.8888C124.669 52.1388 126.417 52.9722 128.277 53.3333C129.914 53.6388 131.579 53.7499 133.217 53.7222H143.153L147.343 53.6388H148.759C150.119 53.5277 151.479 53.6944 152.727 54.1666C154.143 54.9444 154.892 56.6111 154.531 58.2222C154.171 59.8333 152.811 60.9999 151.201 61.0833H120.728V68.4166H151.284C152.755 68.4166 154.226 68.1111 155.586 67.4722C156.946 66.8333 158.195 65.9166 159.194 64.7499C160.332 63.4444 161.137 61.8888 161.581 60.1944C161.997 58.5833 162.053 56.8888 161.72 55.2777C161.137 51.8888 159 48.9999 156.002 47.4722H156.058Z"
      fill="#A0A9DB" />
    <path
      d="M200.491 33.2222C198.66 32.0833 196.578 31.5 194.441 31.5555H169.047V68.5277H176.207V56.2222H194.386C196.523 56.2222 198.604 55.6666 200.436 54.5555C202.212 53.4444 203.711 51.9166 204.765 50.0833C205.848 48.1944 206.403 46.0277 206.375 43.8333C206.403 41.6666 205.876 39.5555 204.821 37.6666C203.766 35.8333 202.268 34.3055 200.491 33.2222ZM194.358 48.7777H176.179V38.9722L194.358 38.9166C196.911 39.0555 198.882 41.2222 198.882 43.8611C198.882 46.5 196.884 48.6388 194.358 48.7777Z"
      fill="#A0A9DB" />
    <path
      d="M249.059 50.4444C251.446 46.5555 251.529 41.6388 249.281 37.6666C248.226 35.8333 246.756 34.3055 244.979 33.2222C243.148 32.0833 241.066 31.5 238.929 31.5555H213.562V68.4166H220.723V56.1111H236.709L243.092 68.3333H251.224L244.23 54.9166C246.2 53.8888 247.893 52.3611 249.087 50.4444H249.059ZM238.874 48.7777H220.695V38.8611L238.874 38.9166C241.427 39.0555 243.397 41.2222 243.397 43.8611C243.397 46.5 241.399 48.6388 238.874 48.7777Z"
      fill="#A0A9DB" />
    <path d="M265.516 31.5278H258.355V68.4445H265.516V31.5278Z" fill="#A0A9DB" />
    <path
      d="M309.146 59.6111L281.365 31.5555H272.678V68.4167H279.838V40.3611L307.619 68.4444H316.306V31.5555H309.146V59.6111Z"
      fill="#A0A9DB" />
    <path d="M323.465 38.9722H339.617V68.5833H346.778V38.9722H363.513V31.5555H323.465V38.9722Z" fill="#A0A9DB" />
    <path
      d="M406.81 35.8611C404.118 33.1111 400.482 31.5555 396.652 31.5555H383.469C375.559 31.5555 369.148 38.1667 369.148 46.3333V53.7222C369.148 61.8333 375.559 68.4167 383.469 68.4444H396.652C400.454 68.4444 404.09 66.9167 406.782 64.1389C409.474 61.3889 410.973 57.6111 410.973 53.7222V46.3333C410.973 42.4167 409.474 38.6389 406.782 35.8611H406.81ZM403.84 53.7222C403.84 57.7778 400.621 61.0833 396.652 61.0833H383.469C379.528 61.0833 376.337 57.7778 376.309 53.7222V46.3611C376.309 42.3055 379.5 38.9722 383.469 38.9722H396.652C400.593 38.9722 403.812 42.25 403.84 46.3333V53.7222Z"
      fill="#A0A9DB" />
    <path
      d="M80.9566 0H16.1802C7.24364 0 0 7.47222 0 16.6667V83.3333C0 92.5278 7.24364 100 16.1802 100H80.9566C89.8932 100 97.1646 92.5556 97.1646 83.3333V16.6667C97.1646 7.44444 89.8932 0 80.9566 0ZM78.7364 65.4722C77.5985 70.2778 74.4068 74.2778 70.0496 76.3611C68.1068 77.3333 65.9698 77.8056 63.8051 77.8056H19.6772V66.75H63.8328C65.276 66.7222 66.6359 66.0556 67.5795 64.9167C68.6897 63.6111 69.1337 61.8333 68.7729 60.1389C68.5231 58.5 67.5518 57.0833 66.1363 56.3333C64.3046 55.6111 62.3064 55.3333 60.3636 55.5556H58.3099C56.3394 55.5556 54.2856 55.6389 52.2596 55.6667H37.7446C35.3301 55.6667 32.9155 55.5 30.5565 55.0833C25.5609 54.0833 21.3424 50.6389 19.3164 45.8333C18.3727 43.6667 17.9009 41.3333 17.9009 38.9722C17.8732 36.0556 18.5948 33.1667 20.0102 30.6389C21.3701 28.1389 23.2851 26.0556 25.6441 24.5556C28.0032 23.0556 30.723 22.2778 33.4983 22.2778H76.8491V33.3889H33.4983C32.1107 33.3889 30.7785 33.9167 29.8349 34.9444C28.8358 35.9722 28.2807 37.3889 28.3085 38.8611C28.3085 40.3611 28.919 41.8056 29.9737 42.8611C30.945 43.6389 32.1107 44.1389 33.3318 44.2778C34.6917 44.4167 36.2182 44.4722 37.8834 44.4722H38.7992C42.8235 44.5556 46.9032 44.5556 51.0107 44.4722H52.2041C54.2024 44.4722 56.1729 44.4722 58.1434 44.3611H60.2249C61.9456 44.3056 63.6663 44.3889 65.3592 44.5833C67.2465 44.8056 69.0782 45.3889 70.7712 46.25C75.1562 48.5833 78.2368 52.9167 79.0417 57.9444C79.4857 60.4444 79.3747 63 78.7641 65.4722H78.7364Z"
      fill="#A0A9DB" />
  </g>
  <defs>
    <clipPath id="clip0_1040_233">
      <rect width="411" height="100" fill="#A0A9DB" />
    </clipPath>
  </defs>
</svg>