<svg width="140" height="60" viewBox="0 0 140 60" fill="none" xmlns="http://www.w3.org/2000/svg">
<path d="M66.7037 48.2507C64.9419 48.7078 63.082 48.614 61.3752 47.982C59.6684 47.35 58.1969 46.2103 57.1595 44.7167C56.5215 43.8271 56.0682 42.819 55.8264 41.7518C55.5845 40.6846 55.5591 39.5799 55.7514 38.5027C55.8173 38.1491 55.907 37.8003 56.0198 37.4587L56.2301 36.8167L56.805 37.2367C58.1292 38.2085 59.6101 38.9471 61.1835 39.4207L61.6001 39.5467L61.5601 39.9627C61.5095 40.5521 61.6699 41.1403 62.0128 41.6227C62.3255 42.0722 62.7686 42.4153 63.2824 42.6059C63.7963 42.7964 64.3563 42.8253 64.887 42.6887C65.1304 42.6252 65.3622 42.524 65.5741 42.3887L76.7707 35.2647C77.0445 35.0926 77.2793 34.8653 77.4601 34.5974C77.6408 34.3294 77.7635 34.0268 77.8203 33.7087C77.8782 33.384 77.8707 33.051 77.7981 32.7292C77.7255 32.4074 77.5894 32.1033 77.3977 31.8347C77.0849 31.3852 76.6418 31.0421 76.128 30.8516C75.6141 30.661 75.0542 30.6321 74.5234 30.7687C74.2801 30.8322 74.0483 30.9335 73.8364 31.0687L69.564 33.7887C68.8628 34.2374 68.0958 34.5741 67.2906 34.7867C65.529 35.244 63.6692 35.1506 61.9624 34.5189C60.2556 33.8873 58.7841 32.748 57.7464 31.2547C57.1084 30.3648 56.6554 29.3563 56.4139 28.2887C56.1724 27.2211 56.1474 26.1161 56.3403 25.0387C56.5307 23.9832 56.9394 22.9789 57.5401 22.0897C58.1409 21.2006 58.9206 20.4463 59.8295 19.8748L71.0242 12.7488C71.7254 12.3001 72.4924 11.9634 73.2976 11.7508C75.0594 11.2937 76.9193 11.3875 78.6261 12.0194C80.3329 12.6514 81.8044 13.7912 82.8418 15.2848C83.4798 16.1743 83.9331 17.1824 84.175 18.2496C84.4168 19.3168 84.4423 20.4216 84.2499 21.4988C84.184 21.8524 84.0944 22.2012 83.9815 22.5428L83.7712 23.1847L83.1983 22.7648C81.8736 21.7921 80.3921 21.0527 78.8178 20.5788L78.4012 20.4528L78.4412 20.0388C78.4923 19.4487 78.3318 18.8597 77.9886 18.3768C77.6755 17.9276 77.2323 17.5849 76.7185 17.3947C76.2047 17.2045 75.6449 17.1759 75.1143 17.3128C74.871 17.3763 74.6391 17.4775 74.4273 17.6128L63.2306 24.7367C62.9568 24.9088 62.722 25.1361 62.5413 25.4041C62.3605 25.672 62.2378 25.9747 62.181 26.2927C62.1231 26.6175 62.1307 26.9505 62.2032 27.2723C62.2758 27.594 62.4119 27.8981 62.6036 28.1667C62.9164 28.6162 63.3595 28.9593 63.8733 29.1499C64.3872 29.3405 64.9471 29.3694 65.4779 29.2327C65.722 29.1688 65.9546 29.0669 66.1669 28.9307L70.4373 26.2107C71.1387 25.7628 71.9057 25.4268 72.7107 25.2147C74.4724 24.7574 76.3321 24.8509 78.0389 25.4825C79.7457 26.1141 81.2172 27.2535 82.2549 28.7467C82.8929 29.6367 83.3459 30.6452 83.5874 31.7128C83.8289 32.7803 83.8539 33.8854 83.661 34.9627C83.4708 36.0186 83.0623 37.0234 82.4616 37.9128C81.8608 38.8023 81.081 39.557 80.1718 40.1287L68.9771 47.2527C68.2759 47.7013 67.5089 48.038 66.7037 48.2507ZM87.4507 12.3508C82.988 5.97079 74.1709 4.08079 67.7974 8.13679L56.6007 15.2608C55.0877 16.2098 53.79 17.4643 52.7911 18.9436C51.7922 20.4229 51.114 22.0943 50.8 23.8507C50.2653 26.8091 50.7348 29.861 52.134 32.5227C51.1738 33.9731 50.5195 35.6036 50.2112 37.3147C49.8923 39.106 49.9349 40.9428 50.3367 42.7174C50.7384 44.492 51.4911 46.1685 52.5507 47.6487C57.0153 54.0287 65.8304 55.9187 72.2039 51.8647L83.4006 44.7407C84.9137 43.7916 86.2113 42.5372 87.2102 41.0579C88.2092 39.5786 88.8874 37.9071 89.2013 36.1507C89.735 33.1926 89.2664 30.1412 87.8693 27.4787C88.8281 26.0281 89.481 24.3976 89.7881 22.6868C90.1076 20.8953 90.0654 19.0582 89.664 17.2832C89.2626 15.5083 88.5101 13.8313 87.4507 12.3508Z" fill="#A0A9DB"/>
</svg>
