<svg width="120" height="48" viewBox="0 0 120 48" fill="none" xmlns="http://www.w3.org/2000/svg">
<path d="M25.485 14.9506L16.0785 9.5352C14.7858 8.79116 13.1925 8.79116 11.8999 9.5352L2.49063 14.9506C1.19798 15.6946 0.40271 17.071 0.40271 18.559V29.3926C0.40271 30.8807 1.19798 32.257 2.49063 33.001L11.8972 38.4192C13.1898 39.1632 14.7831 39.1632 16.0758 38.4192L25.4823 33.001C26.7749 32.257 27.5702 30.8807 27.5702 29.3926V18.559C27.5702 17.071 26.7749 15.6946 25.4823 14.9506H25.485ZM20.1996 21.3526L18.0134 22.6881C16.9831 23.3203 16.5567 23.5847 16.1113 24.0889C15.674 24.5876 15.3406 25.1736 15.1192 25.8414C15.0154 26.1493 14.9717 26.4764 14.9717 26.8034L14.9662 30.2893C14.9662 30.5263 14.7722 30.7199 14.5344 30.7199H13.444C13.2062 30.7199 13.0122 30.5263 13.0122 30.2893L13.0067 26.8034C13.0067 26.4764 12.9603 26.1493 12.8592 25.8414C12.6378 25.1736 12.3044 24.5876 11.8671 24.0889C11.419 23.5847 10.9926 23.3203 9.96228 22.6881L7.77874 21.3526C7.57377 21.2272 7.51092 20.9629 7.63663 20.7585L8.20505 19.8318C8.33076 19.6302 8.59863 19.5647 8.80086 19.6901L11.6922 21.4616C12.3727 21.8786 13.157 22.1021 13.9551 22.1021H14.0234C14.8214 22.1021 15.6057 21.8786 16.2862 21.4616L19.1776 19.6901C19.3798 19.5647 19.6449 19.6302 19.7706 19.8318L20.3418 20.7585C20.4648 20.9629 20.4019 21.2272 20.1996 21.3526Z" fill="#A0A9DB"/>
<path d="M43.3282 19.9413H36.5643C36.4823 19.9413 36.4304 19.9958 36.4304 20.0748V21.5629C36.4304 21.6446 36.485 21.6964 36.5643 21.6964H38.8763C38.931 21.6964 38.9556 21.7237 38.9556 21.7782V28.9269C38.9556 29.0087 39.0103 29.0605 39.0895 29.0605H40.7975C40.8768 29.0605 40.9315 29.006 40.9315 28.9269V21.7782C40.9315 21.7237 40.9588 21.6964 41.0107 21.6964H43.3227C43.4019 21.6964 43.4566 21.6419 43.4566 21.5629V20.0748C43.4566 19.993 43.4019 19.9413 43.3227 19.9413H43.3282Z" fill="#A0A9DB"/>
<path d="M51.3053 19.9412H45.4433C45.3613 19.9412 45.3094 19.9958 45.3094 20.0748V28.927C45.3094 29.0087 45.3641 29.0605 45.4433 29.0605H51.3053C51.3846 29.0605 51.4393 29.006 51.4393 28.927V27.4907C51.4393 27.4089 51.3846 27.3571 51.3053 27.3571H47.3646C47.3099 27.3571 47.2825 27.3299 47.2825 27.2753V25.384C47.2825 25.3294 47.3099 25.3021 47.3646 25.3021H50.6467C50.7287 25.3021 50.7806 25.2477 50.7806 25.1686V23.746C50.7806 23.6641 50.726 23.6124 50.6467 23.6124H47.3646C47.3099 23.6124 47.2825 23.5852 47.2825 23.5306V21.721C47.2825 21.6665 47.3099 21.6392 47.3646 21.6392H51.3053C51.3846 21.6392 51.4393 21.5847 51.4393 21.5057V20.0693C51.4393 19.9876 51.3846 19.9358 51.3053 19.9358V19.9412Z" fill="#A0A9DB"/>
<path d="M58.1622 20.0748C58.1349 19.993 58.083 19.9413 57.9874 19.9413H56.293C56.1973 19.9413 56.1454 19.9958 56.1181 20.0748L52.9698 28.9269C52.9425 29.0087 52.9698 29.0605 53.0627 29.0605H54.8254C54.9184 29.0605 54.973 29.0196 55.0004 28.9269L55.5114 27.3299H58.7116L59.2363 28.9269C59.2636 29.0196 59.3155 29.0605 59.4112 29.0605H61.1602C61.2532 29.0605 61.2805 29.006 61.2532 28.9269L58.1595 20.0748H58.1622ZM56.0635 25.6537L57.0992 22.4623H57.1402L58.1759 25.6537H56.0635Z" fill="#A0A9DB"/>
<path d="M71.3128 19.9413H69.7387C69.632 19.9413 69.5637 19.9821 69.5227 20.0748L67.249 25.2776H67.1943L64.8823 20.0748C64.8413 19.9821 64.7757 19.9413 64.6664 19.9413H63.065C62.9857 19.9413 62.931 19.9958 62.931 20.0748V28.9269C62.931 29.0087 62.9857 29.0605 63.065 29.0605H64.5845C64.6664 29.0605 64.7183 29.006 64.7183 28.9269V23.7896H64.773L66.4674 27.6378C66.522 27.7577 66.6013 27.8122 66.7242 27.8122H67.6507C67.771 27.8122 67.853 27.7577 67.9076 27.6378L69.602 23.7896H69.6567V28.9269C69.6567 29.0087 69.7113 29.0605 69.7905 29.0605H71.31C71.3893 29.0605 71.4439 29.006 71.4439 28.9269V20.0748C71.4439 19.993 71.3893 19.9413 71.31 19.9413H71.3128Z" fill="#A0A9DB"/>
<path d="M84.463 19.9413H82.7419C82.6485 19.9413 82.5938 19.9821 82.5801 20.0748L81.3148 25.8009H81.2874L79.6754 20.0748C79.6481 19.993 79.5934 19.9413 79.5142 19.9413H78.3445C78.2489 19.9413 78.1969 19.9958 78.1696 20.0748L76.6091 25.8009H76.5818L75.2646 20.0748C75.2509 19.993 75.1962 19.9413 75.1033 19.9413H73.3679C73.275 19.9413 73.2477 19.9958 73.2614 20.0748L75.628 28.9269C75.6553 29.0087 75.71 29.0605 75.7893 29.0605H77.1338C77.2268 29.0605 77.2814 29.006 77.3088 28.9269L78.9102 23.2526H78.9375L80.5253 28.9269C80.553 29.0087 80.6045 29.0605 80.7003 29.0605H82.0445C82.1379 29.0605 82.2064 29.006 82.2201 28.9269L84.5725 20.0748C84.5862 19.993 84.5589 19.9413 84.4662 19.9413H84.463Z" fill="#A0A9DB"/>
<path d="M89.4701 19.7939C87.8682 19.7939 86.6062 20.5325 86.1358 22.007C85.9337 22.6366 85.8813 23.1462 85.8813 24.5008C85.8813 25.8553 85.9361 26.3649 86.1358 26.9945C86.6062 28.469 87.8714 29.2075 89.4701 29.2075C91.0687 29.2075 92.334 28.469 92.8043 26.9945C93.0064 26.3649 93.0612 25.8553 93.0612 24.5008C93.0612 23.1462 93.0064 22.6366 92.8043 22.007C92.334 20.5325 91.0687 19.7939 89.4701 19.7939ZM90.9101 26.4604C90.7079 27.0899 90.2239 27.466 89.4701 27.466C88.7154 27.466 88.2322 27.0899 88.0301 26.4604C87.923 26.1387 87.8819 25.6972 87.8819 24.5035C87.8819 23.3098 87.923 22.8682 88.0301 22.5466C88.2322 21.9171 88.7154 21.5409 89.4701 21.5409C90.2239 21.5409 90.7079 21.9171 90.9101 22.5466C91.0172 22.8682 91.0575 23.3098 91.0575 24.5035C91.0575 25.6972 91.0172 26.1387 90.9101 26.4604Z" fill="#A0A9DB"/>
<path d="M100.366 25.3049C101.374 24.8633 101.992 23.9367 101.992 22.7702C101.992 21.1077 100.754 19.9413 98.8848 19.9413H95.2389C95.16 19.9413 95.1052 19.9958 95.1052 20.0748V28.9269C95.1052 29.0087 95.16 29.0605 95.2389 29.0605H96.9471C97.026 29.0605 97.0808 29.006 97.0808 28.9269V25.6673C97.0808 25.6128 97.1082 25.5856 97.1605 25.5856H98.3847L99.9584 28.9243C99.9995 29.0169 100.041 29.0578 100.161 29.0578H102.071C102.167 29.0578 102.205 28.976 102.167 28.8969L100.366 25.3021V25.3049ZM98.7777 23.9095H97.1654C97.1114 23.9095 97.0864 23.8822 97.0864 23.8277V21.7209C97.0864 21.6664 97.1138 21.6392 97.1654 21.6392H98.7777C99.5323 21.6392 100.016 22.0807 100.016 22.7648C100.016 23.4489 99.5323 23.904 98.7777 23.904V23.9095Z" fill="#A0A9DB"/>
<path d="M108.543 23.577L111.314 20.1157C111.382 20.0339 111.341 19.9413 111.259 19.9413H109.308C109.202 19.9413 109.147 19.9685 109.078 20.0612L106.04 24.0184V20.0748C106.04 19.993 105.985 19.9413 105.906 19.9413H104.198C104.119 19.9413 104.064 19.9958 104.064 20.0748V28.9269C104.064 29.0087 104.119 29.0605 104.198 29.0605H105.906C105.985 29.0605 106.04 29.006 106.04 28.9269V26.6076L107.236 25.1059L109.308 28.9406C109.363 29.0332 109.401 29.0605 109.511 29.0605H111.486C111.579 29.0605 111.62 28.9924 111.565 28.8997L108.54 23.5742L108.543 23.577Z" fill="#A0A9DB"/>
<path d="M116.722 23.5769L116.239 23.5087C115.19 23.3615 114.812 23.0263 114.812 22.503C114.812 21.9252 115.23 21.511 116.036 21.511C116.791 21.511 117.463 21.7535 118.16 22.2087C118.228 22.2496 118.293 22.2359 118.348 22.1678L119.168 20.9468C119.237 20.8542 119.223 20.7997 119.141 20.7451C118.373 20.1537 117.244 19.7939 116.034 19.7939C114.058 19.7939 112.793 20.9059 112.793 22.5848C112.793 24.2636 113.828 25.0649 115.684 25.3211L116.167 25.3893C117.258 25.5364 117.581 25.8716 117.581 26.4085C117.581 27.0518 117.042 27.496 116.088 27.496C115.135 27.496 114.301 27.0408 113.694 26.5585C113.626 26.504 113.547 26.504 113.492 26.5721L112.47 27.7385C112.401 27.8203 112.429 27.913 112.484 27.9675C113.197 28.6516 114.582 29.2157 116.006 29.2157C118.373 29.2157 119.597 27.9947 119.597 26.3459C119.597 24.697 118.603 23.8385 116.72 23.5823L116.722 23.5769Z" fill="#A0A9DB"/>
</svg>
