<svg width="120" height="48" viewBox="0 0 120 48" fill="none" xmlns="http://www.w3.org/2000/svg">
<path d="M10.1214 17.2312V11.588H25.4673V17.2293H23.3096C23.3096 14.9455 22.6276 13.5247 19.9688 13.5247V23.4586C19.9688 24.0125 20.2911 24.3236 20.8649 24.3236H22.268V26.2963H13.2833V24.3236H14.7218C15.2976 24.3236 15.6199 24.0125 15.6199 23.4586V13.5266C12.9611 13.5266 12.2772 14.9474 12.2772 17.2312H10.1214ZM31.6104 18.963C31.6104 22.9085 32.6892 24.777 34.9904 24.777C37.2917 24.777 38.3685 22.9066 38.3685 18.963C38.3685 15.0195 37.2897 13.079 34.9904 13.079C32.6912 13.079 31.6104 14.9815 31.6104 18.963ZM43.3974 18.963C43.3974 23.8437 40.09 26.89 34.9885 26.89C29.8869 26.89 26.6149 23.8437 26.6149 18.963C26.6149 14.0824 29.9223 11 34.9885 11C40.0547 11 43.3974 14.0464 43.3974 18.9612M46.3787 14.4257C46.3787 13.8719 46.0563 13.5247 45.4804 13.5247H44.0419V11.588H53.7458C57.5189 11.588 59.7476 12.7299 59.7476 15.7422C59.7476 18.7544 57.5189 19.9646 53.2801 19.9646H50.7294V23.4605C50.7294 24.0144 51.0518 24.3255 51.6273 24.3255H53.1741V26.2982H44.0812V24.3255H45.4825C46.0581 24.3255 46.3804 24.0144 46.3804 23.4605V14.4276L46.3787 14.4257ZM50.7273 17.9919H52.7042C54.3217 17.9919 55.3986 17.161 55.3986 15.7763C55.3986 14.3916 54.3923 13.5247 53.064 13.5247H50.7273V17.99V17.9919ZM62.8388 14.4257C62.8388 13.8719 62.5143 13.5247 61.9406 13.5247H60.5021V11.588H70.1685C73.9773 11.588 76.2056 12.7299 76.2056 15.7422C76.2056 18.7544 73.9773 19.9646 69.7364 19.9646H67.1857V23.4605C67.1857 24.0144 67.5077 24.3255 68.0857 24.3255H69.6301V26.2982H60.5395V24.3255H61.9427C62.5164 24.3255 62.8406 24.0144 62.8406 23.4605V14.4276L62.8388 14.4257ZM67.1857 17.9919H69.1605C70.7797 17.9919 71.8567 17.161 71.8567 15.7763C71.8567 14.3916 70.8507 13.5247 69.5556 13.5247H67.1857V17.99V17.9919ZM84.7955 11.588L88.4269 22.6638C88.8927 24.0144 89.2168 24.3255 90.0423 24.3255H90.5829V26.2982H82.3899V24.3255H83.072C83.7556 24.3255 84.3315 24.2553 84.3315 24.0144C84.3315 23.7735 84.3315 23.5288 84.2234 23.2177L83.7556 21.6263H79.2633L78.9766 22.4912C78.7248 23.286 78.6189 23.599 78.6189 23.9101C78.6189 24.2553 79.4441 24.3255 80.0553 24.3255H80.7374V26.2982H73.9458V24.3255H74.6983C75.5276 24.3255 75.85 24.0144 76.3175 22.6638L80.1616 11.588H84.7972H84.7955ZM79.9081 19.6535H83.0346L81.5962 14.8772H81.5609L79.906 19.6535H79.9081ZM105.027 21.7306H105.062V14.4276C105.062 13.8738 104.74 13.5266 104.164 13.5266H102.763V11.588H109.879V13.5266H108.476C107.902 13.5266 107.577 13.8719 107.577 14.4276V26.302H102.908L96.4741 15.3628H96.4371V23.4624C96.4371 24.0163 96.7612 24.3274 97.3371 24.3274H98.7734V26.3001H91.6241V24.3274H93.0234C93.6011 24.3274 93.9234 24.0163 93.9234 23.4624V14.4276C93.9234 13.8738 93.6011 13.5266 93.0234 13.5266H91.5871V11.588H99.0269L105.029 21.7306H105.027Z" fill="#A0A9DB"/>
<path d="M44.6177 36.3384L42.6054 30.5928H41.2042L39.0465 36.4427C38.9384 36.7196 38.7242 36.9624 38.4353 36.9624H38.2919V37.8616H40.9861V36.9624H40.4103C40.1234 36.9624 39.9072 36.824 40.0133 36.4427L40.3022 35.7162H42.7803L43.0338 36.4427C43.1419 36.7898 42.9611 36.9624 42.6388 36.9624H42.065V37.8616H45.4783V36.9624H45.3724C45.1916 36.9624 44.8319 36.8942 44.6157 36.3403M40.6638 34.6786L41.5639 32.2544L42.4246 34.6786H40.6638Z" fill="#A0A9DB"/>
<path d="M10.1567 33.3964H10.9467C10.9841 32.4612 11.0194 31.4919 12.456 31.4919H12.6348V36.3042C12.6348 36.6855 12.4186 36.9606 12.0236 36.9606H11.4125V37.8597H15.4017V36.9606H14.7906C14.431 36.9606 14.2148 36.6836 14.2148 36.3042V31.4919H14.3936C15.7948 31.4919 15.8675 32.4612 15.9028 33.3964H16.6575V30.5928H10.1567V33.3964Z" fill="#A0A9DB"/>
<path d="M21.0456 30.4884C18.8545 30.4884 17.5594 32.0116 17.5594 34.2613C17.5594 36.511 18.8545 38 21.0456 38C23.2368 38 24.4964 36.4085 24.4964 34.2613C24.4964 32.114 23.2368 30.4884 21.0456 30.4884ZM21.0456 36.9966C19.5364 36.9966 19.2849 35.1604 19.2849 34.2613C19.2849 32.9126 19.6425 31.526 21.0456 31.526C22.4487 31.526 22.8418 32.9107 22.8418 34.2613C22.8418 35.1623 22.5903 36.9966 21.0456 36.9966Z" fill="#A0A9DB"/>
<path d="M29.5981 30.5928H25.1784V31.4938H25.6461C26.0038 31.4938 26.1492 31.6664 26.1492 32.0477V36.3744C26.1492 36.7898 26.0038 36.9624 25.6461 36.9624H25.1431V37.8616H28.9535V36.9624H28.1615C27.8039 36.9624 27.6585 36.7898 27.6585 36.3744V34.5743H29.6354C30.7496 34.5743 31.6477 33.7435 31.6477 32.6357C31.6477 31.287 30.6769 30.5947 29.5981 30.5947M29.095 33.6069H27.6585V31.4957H28.9889C29.4566 31.4957 30.0324 31.8068 30.0324 32.4991C30.0324 32.9847 29.8516 33.6069 29.0969 33.6069" fill="#A0A9DB"/>
<path d="M36.8927 34.5724C38.0069 34.5724 38.905 33.7416 38.905 32.6338C38.905 31.2851 37.9342 30.5928 36.8219 30.5928H32.4003V31.4938H32.8681C33.2277 31.4938 33.3711 31.6664 33.3711 32.0477V36.3744C33.3711 36.7898 33.2277 36.9624 32.8681 36.9624H32.3669V37.8616H36.1734V36.9624H35.3834C35.0238 36.9624 34.8804 36.7898 34.8804 36.3744V34.5743H36.8927V34.5724ZM34.8804 31.4919H36.2461C36.7139 31.4919 37.2877 31.803 37.2877 32.4953C37.2877 32.9809 37.0715 33.6031 36.3523 33.6031H34.8784V31.4919H34.8804Z" fill="#A0A9DB"/>
<path d="M51.0143 31.4938H51.5902C51.985 31.4938 52.1287 31.6664 52.1287 32.0477V35.6479L48.8584 30.5947H46.2703V31.4957H46.7402C47.0979 31.4957 47.2413 31.6683 47.2413 32.0496V36.3763C47.2413 36.7917 47.0979 36.9643 46.7402 36.9643H46.2371V37.8635H49.2535V36.9643H48.6797C48.3203 36.9643 48.1392 36.7917 48.1392 36.3763V32.4991L51.5528 37.8635H52.9913V32.0477C52.9913 31.6664 53.1346 31.4938 53.4944 31.4938H53.8168V30.5928H51.0122V31.4938H51.0143Z" fill="#A0A9DB"/>
<path d="M66.5035 36.9624C66.1441 36.9624 65.9633 36.7898 65.9633 36.4085V32.0818C65.9633 31.6664 66.1441 31.4938 66.5035 31.4938H66.8986V30.6288H64.0217L62.5143 35.371L60.8616 30.6288H57.9867V31.4938H58.4172C58.7766 31.4938 58.922 31.6664 58.922 32.0818V36.4085C58.922 36.7898 58.7787 36.9624 58.4172 36.9624H57.9514V37.8615H60.7161V36.9624H60.3231C59.9616 36.9624 59.8182 36.7898 59.8182 36.4085V32.0818L61.7598 37.8615H62.6934L64.4913 32.1159V36.4085C64.4913 36.7898 64.3479 36.9624 63.9881 36.9624H63.7367V37.8615H66.936V36.9624H66.5056H66.5035Z" fill="#A0A9DB"/>
<path d="M74.4469 33.4305V30.627H67.9423V31.4919H68.4098C68.6616 31.4919 68.8755 31.6304 68.8755 32.0458V36.4769C68.8755 36.7538 68.6948 36.9625 68.4451 36.9625H67.9423V37.8616H74.4469V34.9195H73.6923V35.7845C73.6923 36.4067 73.2245 36.9606 72.3598 36.9606H70.385V34.7451H71.1395C71.5346 34.7451 71.8213 35.1263 71.8213 35.8187H72.5053V32.5997H71.8213C71.8213 33.2921 71.5346 33.7074 71.1395 33.7074H70.385V31.4919H72.3598C73.2581 31.4919 73.6923 32.0458 73.6923 32.668V33.4305H74.4469Z" fill="#A0A9DB"/>
<path d="M82.172 35.7503V36.4768C82.172 36.9965 81.6689 36.9965 81.6689 36.4768V35.6118C81.6689 34.468 81.0577 34.1228 80.592 34.0203C81.2738 33.916 82.0636 33.2938 82.0636 32.2904C82.0636 31.0783 81.093 30.5244 79.729 30.5244H75.5591V31.4235H76.0287C76.3885 31.4235 76.5301 31.5961 76.5301 31.9774V36.3042C76.5301 36.6854 76.3885 36.858 76.0287 36.858H75.5259V37.7591H79.3343V36.858H78.5441C78.1846 36.858 78.0413 36.6854 78.0413 36.3042V34.504H79.0472C79.515 34.504 80.1969 34.5723 80.1969 35.405V36.4426C80.1969 37.1691 80.592 37.8615 81.5626 37.8615C82.1364 37.8615 82.785 37.5163 82.785 36.5128V35.7503H82.1738H82.172ZM79.3696 33.5347H78.0413V31.4235H79.3696C79.9455 31.4235 80.592 31.7346 80.592 32.427C80.592 32.9126 80.2304 33.5347 79.3696 33.5347Z" fill="#A0A9DB"/>
<path d="M94.9297 31.4938H95.3972V30.6288H91.9091V31.4938H92.3416C92.701 31.4938 92.88 31.7005 92.88 32.0818V36.3042C92.88 36.7196 92.6304 36.9605 92.2689 36.9605H91.9091V37.8597H95.3601V36.9605H95.0377C94.6779 36.9605 94.4265 36.7177 94.4265 36.3042V32.0818C94.4265 31.7005 94.5699 31.4938 94.9297 31.4938Z" fill="#A0A9DB"/>
<path d="M102.008 34.8494C101.973 35.9932 101.937 36.9606 100.499 36.9606H99.0269V32.08C99.0269 31.6987 99.1703 31.4919 99.528 31.4919H100.139V30.627H96.6178V31.4919H97.0126C97.3741 31.4919 97.5531 31.6987 97.5531 32.08V36.4067C97.5531 36.788 97.3741 36.9606 97.0126 36.9606H96.5822V37.8597H102.692V34.8475H102.008V34.8494Z" fill="#A0A9DB"/>
<path d="M109.197 34.8494C109.159 35.9932 109.088 36.9606 107.687 36.9606H106.178V32.08C106.178 31.6987 106.359 31.4919 106.717 31.4919H107.328V30.627H103.806V31.4919H104.201C104.561 31.4919 104.704 31.6987 104.704 32.08V36.4067C104.704 36.788 104.561 36.9606 104.201 36.9606H103.734V37.8597H109.879V34.8475H109.197V34.8494Z" fill="#A0A9DB"/>
<path d="M90.1486 35.7503V36.4768C90.1486 36.9965 89.6454 36.9965 89.6454 36.4768V35.6118C89.6454 34.468 89.036 34.1228 88.5664 34.0203C89.2503 33.916 90.0759 33.2938 90.0759 32.2904C90.0759 31.0783 89.0696 30.5244 87.7056 30.5244H83.5378V31.4235H84.0035C84.3629 31.4235 84.5066 31.5961 84.5066 31.9774V36.3042C84.5066 36.6854 84.3629 36.858 84.0035 36.858H83.5024V37.7591H87.3108V36.858H86.5227C86.1629 36.858 86.0196 36.6854 86.0196 36.3042V34.504H87.0259C87.529 34.504 88.1755 34.5723 88.1755 35.405V36.4426C88.1755 37.1691 88.6077 37.8615 89.5413 37.8615C90.1171 37.8615 90.7636 37.5163 90.7636 36.5128V35.7503H90.1503H90.1486ZM87.3462 33.5347H86.0178V31.4235H87.3462C87.922 31.4235 88.5664 31.7346 88.5664 32.427C88.5664 32.9126 88.2441 33.5347 87.3462 33.5347Z" fill="#A0A9DB"/>
</svg>
