<svg width="120" height="48" viewBox="0 0 120 48" fill="none" xmlns="http://www.w3.org/2000/svg">
<path d="M37.6682 43.5154C37.6682 44.0974 37.8306 44.5504 38.0896 44.8737C38.381 45.1968 38.7695 45.3581 39.2874 45.3581C39.8055 45.3581 40.1945 45.197 40.4536 44.8737C40.7127 44.5504 40.8421 44.0974 40.8421 43.5154V38.6326H42.6233V43.4833C42.6233 44.2915 42.4939 44.9704 42.2349 45.4877C41.9757 46.0051 41.5874 46.4257 41.1016 46.6843C40.6158 46.943 40.0001 47.0722 39.2551 47.0722C38.5104 47.0721 37.8952 46.9429 37.4094 46.6843C36.9235 46.4257 36.5345 46.0051 36.2754 45.4877C36.0163 44.9381 35.8869 44.2915 35.8869 43.4833V38.6326H37.6682V43.5154Z" fill="#A0A9DB"/>
<path d="M70.3487 40.3465H66.8507V41.9309H69.6684V43.6119H66.8507V45.2286H70.3487V46.9426H65.0695V38.6647H70.3487V40.3465Z" fill="#A0A9DB"/>
<path fill-rule="evenodd" clip-rule="evenodd" d="M79.936 38.6647C80.8102 38.6647 81.5549 38.8266 82.1701 39.1499C82.7855 39.4733 83.2713 39.9583 83.5951 40.5726C83.9515 41.187 84.1134 41.931 84.1134 42.804C84.1134 43.6769 83.919 44.4204 83.5951 45.0347C83.2389 45.6491 82.7533 46.1348 82.1379 46.4581C81.5226 46.7814 80.7773 46.9426 79.9029 46.9426H77.0207V38.6647H79.936ZM78.8019 40.3787V45.2286H79.774C80.2596 45.2286 80.713 45.1319 81.0692 44.9702C81.4577 44.8086 81.7493 44.55 81.9437 44.1946V44.2267C82.1704 43.871 82.2677 43.4182 82.2677 42.8362C82.2677 42.2541 82.1702 41.8014 81.9759 41.4457C81.7492 41.09 81.4577 40.7987 81.1015 40.637C80.7452 40.4753 80.2918 40.3787 79.8062 40.3787H78.8019Z" fill="#A0A9DB"/>
<path fill-rule="evenodd" clip-rule="evenodd" d="M53.0529 38.6326C53.6359 38.6326 54.1865 38.7619 54.6399 38.9883C55.0934 39.2145 55.4817 39.5705 55.7409 39.9909C56.0323 40.4112 56.1624 40.8959 56.1624 41.5102C56.1624 42.1246 56 42.642 55.7409 43.0624H55.774C55.5148 43.4504 55.1585 43.7743 54.7374 44.0007L56.2591 46.9105H54.3159L52.9885 44.3885H51.7899V46.9105H50.0087V38.6326H53.0529ZM51.7899 42.7067H52.9232C53.3766 42.7067 53.7005 42.6095 53.9596 42.4155C54.1864 42.2214 54.3159 41.9303 54.3159 41.5423C54.3159 41.1545 54.2187 40.8632 53.9596 40.6692C53.7329 40.4754 53.3764 40.3787 52.9232 40.3787H51.7899V42.7067Z" fill="#A0A9DB"/>
<path d="M51.9197 24.6951C51.9197 25.2771 52.0812 25.7301 52.3404 26.0534C52.6319 26.3767 53.0207 26.5378 53.5389 26.5378C54.0569 26.5378 54.4453 26.3765 54.7043 26.0534C54.9634 25.7301 55.0936 25.2771 55.0936 24.6951V19.8123H56.8749V24.6629C56.8749 25.4712 56.7454 26.1501 56.4864 26.6674C56.2273 27.1848 55.8382 27.6053 55.3524 27.864C54.8666 28.1226 54.2514 28.2518 53.5066 28.2519C52.7617 28.2519 52.1459 28.1227 51.6601 27.864C51.1743 27.6053 50.786 27.1848 50.5269 26.6674C50.2679 26.1177 50.1377 25.4713 50.1376 24.6629V19.8123H51.9197V24.6951Z" fill="#A0A9DB"/>
<path d="M67.9839 19.6505C68.9556 19.6505 69.7655 19.8771 70.3809 20.2975C70.9963 20.7178 71.482 21.3321 71.8059 22.108L70.1866 22.7228C69.9276 22.2703 69.6039 21.9465 69.2477 21.7202C68.8915 21.4938 68.4373 21.3967 67.9839 21.3967C67.5306 21.3968 67.1093 21.4939 66.7532 21.7202V21.6228C66.3969 21.8492 66.106 22.1409 65.9117 22.5289C65.685 22.9168 65.5877 23.3692 65.5877 23.8864C65.5877 24.4038 65.7173 24.8567 65.9117 25.2447C66.106 25.6327 66.397 25.9237 66.7532 26.15C67.1093 26.3764 67.4982 26.4735 67.9839 26.4735C68.4697 26.4735 68.8915 26.3764 69.2477 26.15C69.6038 25.956 69.9277 25.6006 70.1866 25.1481L71.8059 25.7622C71.482 26.5381 70.9963 27.1523 70.3809 27.5727C69.7655 27.9931 68.8584 28.2197 67.9839 28.2197C67.1096 28.2197 66.3649 28.0257 65.7497 27.6701C65.1343 27.3144 64.6479 26.7968 64.2916 26.15C63.9355 25.5033 63.7734 24.5329 63.7734 23.9186C63.7735 23.3045 63.9032 22.7226 64.0974 22.2054C64.2917 21.688 64.5833 21.2351 64.9719 20.8471C65.3282 20.4914 65.7819 20.168 66.3002 19.9739C66.7859 19.7477 67.0126 19.6505 67.9839 19.6505Z" fill="#A0A9DB"/>
<path fill-rule="evenodd" clip-rule="evenodd" d="M39.3204 19.8123C39.9033 19.8123 40.454 19.9416 40.9074 20.1679C41.3608 20.3943 41.7493 20.7503 42.0084 21.1706C42.2998 21.5908 42.429 22.0756 42.4291 22.6899C42.4291 23.3041 42.2674 23.8217 42.0084 24.2421H42.0407C41.7815 24.6301 41.4252 24.954 41.0041 25.1804L42.5266 28.0901H40.5834L39.2551 25.5682H38.0566V28.0901H36.2754V19.8123H39.3204ZM38.0244 23.8542H39.1584C39.6117 23.8541 39.9359 23.7569 40.1949 23.5629C40.4214 23.3689 40.5512 23.0776 40.5512 22.6899C40.5511 22.302 40.4539 22.0107 40.1949 21.8167C39.9683 21.6227 39.6117 21.5262 39.1584 21.5262H38.0244V23.8542Z" fill="#A0A9DB"/>
<path d="M83.9522 21.5262H81.4577V28.0901H79.6764V21.5262H77.2149V19.8123H83.9522V21.5262Z" fill="#A0A9DB"/>
<path d="M67.7574 0.927612C68.4698 0.927612 69.0529 1.05673 69.5387 1.34771C70.0245 1.60633 70.4135 1.96278 70.7049 2.41552L69.3121 3.38512C69.0855 3.12649 68.8259 2.93267 68.5344 2.80336C68.243 2.67404 68.0161 2.60944 67.6599 2.60944C67.3039 2.60944 67.0449 2.67404 66.8507 2.80336C66.6564 2.93267 66.559 3.12659 66.559 3.35296C66.559 3.57932 66.6564 3.74089 66.8507 3.90256C67.045 4.06422 67.4012 4.19334 67.9839 4.32265C68.6641 4.48432 69.2151 4.67891 69.6362 4.90528C70.0571 5.1639 70.3487 5.42272 70.5429 5.7783C70.7372 6.13398 70.8347 6.52211 70.8347 7.0071C70.8346 7.492 70.7374 7.91228 70.4785 8.30022C70.2193 8.68825 69.8623 8.97913 69.4089 9.2055C68.9555 9.43177 68.2754 9.52902 67.7896 9.52902C67.3039 9.52902 66.8501 9.43225 66.4292 9.30294C66.0082 9.17353 65.6197 8.94688 65.2959 8.6559C64.972 8.39718 64.6804 8.00934 64.4537 7.5567L65.8465 6.68358C66.1055 7.07161 66.3646 7.36268 66.7209 7.5567C67.0448 7.75072 67.4339 7.84796 67.8549 7.84796V7.94454C68.2433 7.94454 68.5021 7.87993 68.6964 7.71846C68.8907 7.5568 68.9882 7.3624 68.9882 7.10368C68.9881 6.94211 68.9555 6.81289 68.8584 6.68358C68.7613 6.58662 68.6319 6.45712 68.4054 6.36016C68.2111 6.2631 67.8868 6.16585 67.4657 6.0688C66.818 5.90713 66.2672 5.7135 65.8787 5.45488C65.4901 5.19625 65.1992 4.90499 65.0372 4.58176C64.8752 4.22608 64.7777 3.93462 64.7777 3.44953C64.7777 2.96464 64.9072 2.54435 65.134 2.15641C65.393 1.76838 65.717 1.4775 66.1704 1.25113C66.6239 1.02476 67.0449 0.927612 67.7574 0.927612Z" fill="#A0A9DB"/>
<path d="M37.9921 5.87491C37.9921 6.45687 38.1539 6.90989 38.4129 7.23322C38.7043 7.55655 39.0933 7.7184 39.6114 7.7185C40.1296 7.7185 40.5186 7.55664 40.7776 7.23322C41.0367 6.90989 41.1662 6.45696 41.1662 5.87491V0.992065H42.9474V5.84275C42.9474 6.65117 42.818 7.33066 42.5589 7.848C42.2998 8.36515 41.9113 8.78515 41.4257 9.04378C40.9398 9.3025 40.324 9.43248 39.5791 9.43248C38.8343 9.43248 38.2192 9.3024 37.7335 9.04378C37.2477 8.78515 36.8585 8.36535 36.5994 7.848C36.3403 7.29831 36.2109 6.65117 36.2109 5.84275V0.992065H37.9921V5.87491Z" fill="#A0A9DB"/>
<path d="M55.3846 6.10186V0.992065H57.1666V9.27072H55.5466L51.7577 4.16093V9.27072H50.0087V0.992065H51.6279L55.3846 6.10186Z" fill="#A0A9DB"/>
<path d="M83.7249 2.70605H81.2312V9.27072H79.4177V2.70605H76.9885V0.992065H83.7249V2.70605Z" fill="#A0A9DB"/>
</svg>
