<svg width="140" height="60" viewBox="0 0 140 60" fill="none" xmlns="http://www.w3.org/2000/svg">
<g clip-path="url(#clip0_5104_5158)">
<path d="M42.3187 21.7493H45.9627L48.5862 32.4572C49.0722 34.4781 49.1688 35.6817 49.1688 35.6817H49.2177C49.2177 35.6817 49.3877 34.5031 49.8737 32.4572L52.3749 21.7503H56.5046L59.1516 32.457C59.6615 34.5508 59.7841 35.6814 59.7841 35.6814H59.8575C59.8575 35.6814 59.9057 34.5508 60.3906 32.457L62.9171 21.7503H66.5608L61.9459 39.3146H57.8894L55.0969 28.6784C54.5135 26.3689 54.4644 25.3345 54.4644 25.3345H54.4152C54.4152 25.3345 54.366 26.3689 53.8329 28.6784L51.209 39.3136H47.032L42.3187 21.7493ZM65.9522 32.9335C65.9522 28.9141 68.576 26.3161 72.5363 26.3161C76.4715 26.3161 79.094 28.9141 79.094 32.9322C79.094 36.9743 76.4704 39.598 72.5363 39.598C68.5771 39.5973 65.9522 36.9743 65.9522 32.9322V32.9335ZM75.6932 32.9335C75.6932 30.3345 74.43 28.8664 72.5363 28.8664C70.496 28.8664 69.3531 30.5026 69.3531 32.9335C69.3531 35.5799 70.6163 37.047 72.5363 37.047C74.5767 37.047 75.6932 35.4098 75.6932 32.9322V32.9335ZM80.7207 26.5126H83.951V28.8715H84.0241C84.5835 27.6445 85.9178 26.4169 88.2014 26.4169C88.5888 26.4169 88.8329 26.4656 89.0024 26.5123V29.7121H88.9061C88.9061 29.7121 88.615 29.6167 87.8128 29.6167C85.3116 29.6167 83.951 31.0835 83.951 33.8266V39.3121H80.7207V26.5126ZM90.5087 21.7493H93.7388V27.3797C93.7388 30.6996 93.6899 31.3013 93.6899 31.3013H93.7388L98.5487 26.5133H102.58L96.947 32.0473L103.482 39.3138H99.6661L94.9531 34.0197L93.738 35.1983V39.3118H90.508V21.7493H90.5087ZM103.528 30.596C103.528 25.1822 106.93 21.5741 112.031 21.5741C117.132 21.5741 120.533 25.1822 120.533 30.596C120.533 36.0095 117.132 39.6179 112.031 39.6179C106.93 39.6179 103.528 36.0095 103.528 30.596ZM117.009 30.596C117.009 26.9149 115.018 24.4353 112.029 24.4353C109.039 24.4353 107.05 26.9149 107.05 30.596C107.05 34.2771 109.04 36.7567 112.029 36.7567C115.016 36.7567 117.009 34.2771 117.009 30.596ZM121.769 33.4677H125.462C125.462 35.5376 126.896 36.6922 129.081 36.6922C130.927 36.6922 132.191 35.7771 132.191 34.4781C132.191 33.0113 131.22 32.6253 128.134 32.0246C125.316 31.4705 122.328 30.5317 122.328 26.8746C122.328 23.8189 124.951 21.5098 128.959 21.5098C133.136 21.5098 135.713 23.6748 135.713 26.946H132.019C132.019 25.3587 130.781 24.371 128.959 24.371C127.113 24.371 125.972 25.2613 125.972 26.56C125.972 27.9317 126.773 28.4598 129.251 28.9649C132.918 29.7358 135.93 30.1437 135.93 34.1855C135.93 37.3883 133.113 39.5536 128.959 39.5536C124.733 39.5536 121.769 37.1238 121.769 33.4677Z" fill="#A0A9DB"/>
<path d="M20.9601 18C20.407 18.3871 19.9391 18.8816 19.5849 19.4533L19.52 19.5615L18.2912 21.6676L13.1767 30.4497L18.0211 38.7436L16.7934 40.8508C16.3159 41.6727 15.5647 42.3047 14.6685 42.6384C13.7724 42.9721 12.7869 42.9867 11.8811 42.6798C10.9282 42.3648 10.1555 41.6737 9.63401 40.824L9.58096 40.7355L4.49478 32.0112C4.21406 31.5413 4.06958 30.9957 4.06958 30.45C4.06894 29.9365 4.19764 29.4309 4.44405 28.9791L4.49478 28.8895L9.72544 19.9151C10.0557 19.3453 10.529 18.8698 11.0994 18.5345C11.6697 18.1992 12.3179 18.0155 12.981 18.0013L13.0712 18.0003L20.9601 18ZM22.5834 18.2199C23.4749 17.9222 24.442 17.9335 25.3262 18.2519C26.2103 18.5702 26.959 19.1767 27.4494 19.9719L27.4958 20.0492L32.6492 28.8885C32.9299 29.3577 33.0741 29.9043 33.0741 30.45C33.0741 30.9617 32.9474 31.4732 32.7001 31.9217L32.6492 32.0105L27.4182 40.9847C27.088 41.5544 26.6148 42.03 26.0445 42.3654C25.4741 42.7007 24.826 42.8844 24.1629 42.8987L24.0728 42.8997H16.1838C16.7325 42.5122 17.1981 42.0207 17.5539 41.4538L17.624 41.3383L18.8524 39.2311L23.9672 30.4497L19.1228 22.1459L20.2833 20.1643C20.8051 19.273 21.5988 18.5457 22.5834 18.2199Z" fill="#A0A9DB"/>
</g>
<defs>
<clipPath id="clip0_5104_5158">
<rect width="132" height="25" fill="white" transform="translate(4 18)"/>
</clipPath>
</defs>
</svg>
