<svg width="32" height="32" viewBox="0 0 32 32" fill="none" xmlns="http://www.w3.org/2000/svg">
<g clip-path="url(#clip0_4232_1730)">
<g clip-path="url(#clip1_4232_1730)">
<path d="M24.5867 7.41202C23.6844 8.9658 22.7831 10.5205 21.8827 12.076C21.8338 12.0556 21.7844 12.0365 21.7347 12.0187C18.0042 10.6015 13.8809 10.6172 10.1613 12.0627C10.0493 11.8627 7.824 8.03469 7.46667 7.41336C7.41425 7.32177 7.35114 7.23673 7.27867 7.16002C7.03291 6.89553 6.69851 6.73057 6.33907 6.69654C5.97963 6.6625 5.62021 6.76176 5.32918 6.97542C5.03814 7.18909 4.83578 7.50227 4.76058 7.8554C4.68539 8.20854 4.7426 8.57699 4.92133 8.89069C7.51733 13.384 4.79333 8.60269 7.51867 13.3707C7.54133 13.4107 6.85867 13.7214 5.66133 14.7267C3.86667 16.2347 0.602667 19.696 0 25.32H32C31.8548 23.9178 31.5202 22.5417 31.0053 21.2294C30.1893 19.1357 28.945 17.2355 27.352 15.6507C26.4931 14.7957 25.5399 14.0411 24.5107 13.4014C25.3907 11.9054 26.26 10.3934 27.1307 8.88802C27.2614 8.66051 27.3294 8.40232 27.3275 8.13991C27.3256 7.8775 27.254 7.62031 27.12 7.39469C27.0006 7.19476 26.8352 7.02614 26.6377 6.90279C26.4401 6.77944 26.2161 6.70491 25.984 6.68536C25.288 6.61336 24.732 7.10269 24.5853 7.41202M24.532 18.692C25.0587 19.4827 24.964 20.4667 24.324 20.892C23.684 21.3187 22.74 21.0254 22.2147 20.2347C21.6893 19.444 21.7827 18.4614 22.4227 18.0347C23.0533 17.6134 23.9987 17.888 24.532 18.6934M9.608 18.0374C10.248 18.464 10.3413 19.448 9.816 20.2374C9.29067 21.028 8.34533 21.324 7.704 20.8974C7.064 20.4707 6.97067 19.4867 7.496 18.6974C8.02933 17.8934 8.97467 17.616 9.608 18.0374Z" fill="#A0A9DB"/>
</g>
</g>
<defs>
<clipPath id="clip0_4232_1730">
<rect width="32" height="32" fill="white"/>
</clipPath>
<clipPath id="clip1_4232_1730">
<rect width="32" height="32" fill="white"/>
</clipPath>
</defs>
</svg>
