<svg width="32" height="32" viewBox="0 0 32 32" fill="none" xmlns="http://www.w3.org/2000/svg">
<g clip-path="url(#clip0_4232_1739)">
<path d="M29.375 8.3748L29.45 8.3248C29.3 8.0498 29.075 7.7998 28.85 7.6748L16.775 0.724805C16.575 0.599805 16.3 0.549805 16 0.549805C15.7 0.549805 15.425 0.624805 15.225 0.724805L3.225 7.6998C2.8 7.9498 2.5 8.5748 2.5 9.0498V22.9748C2.5 23.2498 2.55 23.5498 2.725 23.8248L2.675 23.8498C2.8 24.0498 2.975 24.2248 3.15 24.3248L15.2 31.2998C15.4 31.4248 15.675 31.4748 15.975 31.4748C16.275 31.4748 16.55 31.3998 16.75 31.2998L28.75 24.3248C29.175 24.0748 29.475 23.4498 29.475 22.9748V9.0248C29.5 8.8248 29.475 8.5998 29.375 8.3748ZM16 25.8748C10.55 25.8748 6.125 21.4498 6.125 15.9998C6.125 10.5498 10.55 6.1248 16 6.1248C19.675 6.1248 22.875 8.1498 24.575 11.1248L21.325 12.9998C20.275 11.1248 18.275 9.8748 16 9.8748C12.625 9.8748 9.875 12.6248 9.875 15.9998C9.875 19.3748 12.625 22.1248 16 22.1248C18.275 22.1248 20.275 20.8748 21.325 19.0248L24.55 20.9248C22.85 23.8748 19.65 25.8748 16 25.8748ZM28.75 15.4998H27.95L27.725 16.4998H28.75V17.7498H27.5L27.2 19.2498H25.975L26.275 17.7498H25.325L25.025 19.2498H23.825L24.125 17.7498H23.5V16.4998H24.375L24.6 15.4998H23.5V14.2498H24.825L25.125 12.7498H26.35L26.05 14.2498H27L27.3 12.7498H28.5L28.2 14.2498H28.75V15.4998ZM25.575 16.4998H26.525L26.75 15.4998H25.8L25.575 16.4998Z" fill="#A0A9DB"/>
</g>
<defs>
<clipPath id="clip0_4232_1739">
<rect width="32" height="32" fill="white"/>
</clipPath>
</defs>
</svg>
