<svg width="32" height="32" viewBox="0 0 32 32" fill="none" xmlns="http://www.w3.org/2000/svg">
<path d="M14.8539 0H20.1201V24.2213C17.4186 24.7307 15.435 24.9347 13.281 24.9347C6.85114 24.9347 3.5 22.0467 3.5 16.508C3.5 11.172 7.05647 7.708 12.563 7.708C13.4179 7.708 14.0674 7.77467 14.8539 7.97867V0ZM14.8539 12.1907C14.2814 11.9987 13.6797 11.9067 13.0756 11.9187C10.4076 11.9187 8.8696 13.5493 8.8696 16.4053C8.8696 19.192 10.3405 20.72 13.0421 20.72C13.6232 20.72 14.1023 20.6867 14.8539 20.584V12.1907ZM28.5 8.08V20.2107C28.5 24.3893 28.1927 26.3947 27.2693 28.1267C26.4144 29.792 25.2858 30.8453 22.96 32L18.0695 29.6893C20.3953 28.6027 21.5239 27.6493 22.2419 26.1893C22.9948 24.6947 23.2337 22.9613 23.2337 18.4093V8.07867L28.5 8.08ZM23.2337 0.028H28.5V5.396H23.2337V0.028Z" fill="#A0A9DB"/>
</svg>
