<svg width="32" height="32" viewBox="0 0 32 32" fill="none" xmlns="http://www.w3.org/2000/svg">
<g clip-path="url(#clip0_4232_1727)">
<g clip-path="url(#clip1_4232_1727)">
<path d="M20.0049 13.086C19.4599 13.2146 19.0099 13.2835 18.5499 13.4351C18.1849 13.5223 17.8149 13.6142 17.3899 13.7153L17.3599 13.7199C17.1499 13.775 17.1299 13.7796 16.9349 13.5729C16.6999 13.3294 16.5299 13.1733 16.2049 13.0263C15.2199 12.5853 14.2699 12.714 13.3849 13.2422C12.3249 13.8714 11.7799 14.8038 11.7949 15.9613C11.8099 17.1096 12.6649 18.0512 13.8549 18.2074C14.9549 18.336 15.8449 17.9961 16.5449 17.2658C16.6499 17.1463 16.7449 17.0223 16.8499 16.8845C16.8899 16.8386 16.9249 16.7881 16.9649 16.733H13.9599C13.6349 16.733 13.5549 16.5492 13.6649 16.3058C13.8649 15.8603 14.2399 15.1162 14.4599 14.7441C14.5049 14.6614 14.6149 14.4777 14.8049 14.4777H19.8599C20.0849 13.8622 20.4499 13.2422 20.9399 12.6542C22.0749 11.2809 23.4049 10.5644 25.2999 10.2658C26.8899 10.0086 28.3848 10.151 29.7448 10.9961C30.9748 11.7678 31.7348 12.815 31.9398 14.1884C32.2048 16.1221 31.5948 17.6929 30.1048 19.0387C29.1198 19.9987 27.8598 20.6004 26.4099 20.8714C26.1299 20.9173 25.8549 20.9403 25.5849 20.9633C25.4399 20.9724 25.2999 20.9862 25.1599 21C23.7449 20.9724 22.4499 20.6004 21.3599 19.7415C20.5949 19.1306 20.0649 18.3819 19.8049 17.5138C19.6199 17.8491 19.4049 18.1752 19.1049 18.483C18.0249 19.8425 16.5599 20.6877 14.7099 20.9127C13.1799 21.101 11.7649 20.8301 10.5149 19.9711C9.36495 19.1673 8.70995 18.1109 8.53996 16.7927C8.33496 15.231 8.83495 13.7887 9.85995 12.5991C10.9699 11.2671 12.4349 10.422 14.2249 10.1234C15.6899 9.83864 17.0899 10.0361 18.3549 10.8262C19.1799 11.3268 19.7699 12.0112 20.1599 12.8426C20.2549 12.9712 20.1899 13.0447 20.0049 13.086ZM2.41499 13.3432C2.35249 13.3432 2.33699 13.3157 2.36799 13.2697L2.69549 12.8839C2.72649 12.8426 2.80449 12.815 2.86699 12.815H8.42996C8.48996 12.815 8.50496 12.8563 8.47496 12.8977L8.20996 13.2697C8.17996 13.3157 8.09996 13.357 8.05496 13.357L2.41499 13.3432ZM0.0623034 14.6614C3.70739e-06 14.6614 -0.0155962 14.6293 0.0156036 14.588L0.342752 14.2021C0.373952 14.1608 0.451851 14.1286 0.514001 14.1286H7.61996C7.67996 14.1286 7.70996 14.1746 7.69496 14.2159L7.56996 14.5604C7.55496 14.6155 7.49496 14.6477 7.42996 14.6477L0.0623034 14.6614ZM3.78598 15.8924C3.75498 15.9338 3.77048 15.9751 3.83248 15.9751L7.22996 15.9889C7.27496 15.9889 7.33996 15.9475 7.33996 15.8924L7.36996 15.5479C7.36996 15.4882 7.33996 15.4469 7.27496 15.4469H4.15998C4.09748 15.4469 4.03548 15.4882 4.00398 15.5341L3.78598 15.8924ZM28.8598 15.0656C28.8498 14.9462 28.8448 14.8452 28.8248 14.7441C28.5448 13.3294 27.1249 12.5256 25.6449 12.8426C24.1949 13.1411 23.2599 13.9863 22.9199 15.332C22.6399 16.4482 23.2299 17.5781 24.3499 18.0374C25.2099 18.3819 26.0649 18.3406 26.8899 17.9501C28.1198 17.3255 28.7898 16.4482 28.8698 15.2172C28.8648 15.1621 28.8648 15.1116 28.8598 15.0656Z" fill="#A0A9DB"/>
</g>
</g>
<defs>
<clipPath id="clip0_4232_1727">
<rect width="32" height="32" fill="white"/>
</clipPath>
<clipPath id="clip1_4232_1727">
<rect width="32" height="32" fill="white"/>
</clipPath>
</defs>
</svg>
