<svg width="32" height="32" viewBox="0 0 32 32" fill="none" xmlns="http://www.w3.org/2000/svg">
<g clip-path="url(#clip0_4232_1700)">
<g clip-path="url(#clip1_4232_1700)">
<path d="M0 0H32V32H0V0ZM29.3787 24.368C29.1453 22.908 28.1947 21.6813 25.3747 20.5373C24.3933 20.0773 23.3027 19.7573 22.9787 19.0173C22.8573 18.5773 22.8387 18.3373 22.9173 18.0773C23.1173 17.216 24.1373 16.9573 24.9373 17.1973C25.4573 17.3573 25.9373 17.7573 26.2387 18.3973C27.6173 17.496 27.6173 17.496 28.5787 16.8973C28.2187 16.3373 28.04 16.096 27.7973 15.8573C26.9573 14.9173 25.8387 14.4373 24.0187 14.4787L23.0787 14.5973C22.1773 14.8173 21.3187 15.2973 20.7987 15.9373C19.2787 17.6587 19.7173 20.6587 21.5573 21.8987C23.3773 23.2587 26.0387 23.5573 26.3787 24.8387C26.6987 26.3987 25.2187 26.8987 23.7573 26.7187C22.676 26.4787 22.0773 25.9373 21.4173 24.9373L18.9773 26.3387C19.2573 26.9787 19.5773 27.2573 20.0573 27.8173C22.3773 30.1587 28.1773 30.0387 29.2187 26.4787C29.2573 26.3587 29.5387 25.5387 29.3173 24.2787L29.3787 24.368ZM17.4013 14.708H14.404C14.404 17.292 14.392 19.86 14.392 22.448C14.392 24.0907 14.476 25.5987 14.208 26.0627C13.768 26.9813 12.6347 26.864 12.12 26.7027C11.592 26.4413 11.324 26.0813 11.0133 25.5627C10.9293 25.4227 10.8667 25.3013 10.844 25.3013L8.41067 26.8013C8.81733 27.6413 9.41067 28.364 10.176 28.824C11.316 29.504 12.848 29.724 14.452 29.364C15.496 29.0627 16.396 28.4427 16.8667 27.4827C17.5467 26.2427 17.4027 24.7227 17.396 23.0213C17.412 20.2827 17.396 17.5427 17.396 14.7827L17.4013 14.708Z" fill="#A0A9DB"/>
</g>
</g>
<defs>
<clipPath id="clip0_4232_1700">
<rect width="32" height="32" fill="white"/>
</clipPath>
<clipPath id="clip1_4232_1700">
<rect width="32" height="32" fill="white"/>
</clipPath>
</defs>
</svg>
