<svg width="32" height="32" viewBox="0 0 32 32" fill="none" xmlns="http://www.w3.org/2000/svg">
<g clip-path="url(#clip0_4232_1703)">
<path d="M15.9973 31.9999C15.5693 31.9999 15.1427 31.8879 14.768 31.6706L10.8533 29.3546C10.2693 29.0279 10.5547 28.9119 10.7467 28.8439C11.5267 28.5732 11.684 28.5106 12.5173 28.0386C12.604 27.9892 12.7187 28.0079 12.808 28.0612L15.816 29.8466C15.8718 29.8762 15.9341 29.8917 15.9973 29.8917C16.0606 29.8917 16.1228 29.8762 16.1787 29.8466L27.9053 23.0786C27.9597 23.0453 28.0047 22.9987 28.036 22.9432C28.0673 22.8876 28.0838 22.825 28.084 22.7612V9.2279C28.0843 9.16287 28.0676 9.09888 28.0356 9.04229C28.0035 8.98569 27.9573 8.93845 27.9013 8.90524L16.18 2.14257C16.1247 2.11199 16.0625 2.09594 15.9993 2.09594C15.9361 2.09594 15.874 2.11199 15.8187 2.14257L4.1 8.90657C4.04379 8.93933 3.99711 8.98622 3.9646 9.04259C3.93209 9.09895 3.91488 9.16284 3.91467 9.2279V22.7612C3.91493 22.8252 3.93224 22.888 3.96481 22.9431C3.99739 22.9981 4.04405 23.0435 4.1 23.0746L7.312 24.9306C9.05467 25.8026 10.1227 24.7759 10.1227 23.7439V10.3826C10.1227 10.1932 10.2747 10.0452 10.464 10.0452H11.9507C12.136 10.0452 12.2907 10.1946 12.2907 10.3826V23.7439C12.2907 26.0706 11.024 27.4039 8.81867 27.4039C8.14134 27.4039 7.60667 27.4039 6.11734 26.6692L3.04 24.8999C2.66631 24.6817 2.35623 24.3694 2.14057 23.9943C1.9249 23.6191 1.81117 23.194 1.81067 22.7612V9.2279C1.81067 8.34924 2.28134 7.5279 3.04 7.09057L14.7667 0.314569C15.1446 0.108478 15.5682 0.000488281 15.9987 0.000488281C16.4291 0.000488281 16.8527 0.108478 17.2307 0.314569L28.956 7.09057C29.716 7.52924 30.188 8.34924 30.188 9.2279V22.7612C30.1872 23.1942 30.0731 23.6195 29.8569 23.9947C29.6408 24.3699 29.3302 24.682 28.956 24.8999L17.2307 31.6706C16.8573 31.8879 16.432 31.9999 15.9973 31.9999ZM25.4653 18.6572C25.4653 16.1239 23.7533 15.4492 20.1493 14.9732C16.508 14.4919 16.1373 14.2426 16.1373 13.3906C16.1373 12.6866 16.4507 11.7466 19.148 11.7466C21.5573 11.7466 22.4453 12.2652 22.8107 13.8892C22.8273 13.9643 22.869 14.0314 22.9288 14.0796C22.9887 14.1278 23.0631 14.1543 23.14 14.1546H24.6613C24.7078 14.1541 24.7537 14.1443 24.7963 14.1258C24.8389 14.1072 24.8773 14.0803 24.9093 14.0466C24.9413 14.0115 24.9658 13.9701 24.9812 13.9252C24.9965 13.8802 25.0025 13.8326 24.9987 13.7852C24.7627 10.9879 22.904 9.6839 19.148 9.6839C15.804 9.6839 13.8093 11.0946 13.8093 13.4612C13.8093 16.0279 15.7933 16.7372 19.0027 17.0546C22.8427 17.4306 23.14 17.9919 23.14 18.7466C23.14 20.0572 22.088 20.6159 19.6173 20.6159C16.5147 20.6159 15.832 19.8372 15.6027 18.2932C15.5899 18.213 15.5489 18.1401 15.487 18.0875C15.4252 18.0349 15.3465 18.0062 15.2653 18.0066H13.7493C13.7048 18.0059 13.6605 18.0141 13.6192 18.0308C13.5779 18.0474 13.5403 18.0722 13.5087 18.1037C13.4772 18.1351 13.4522 18.1726 13.4354 18.2139C13.4185 18.2551 13.4101 18.2993 13.4107 18.3439C13.4107 20.3199 14.4853 22.6746 19.6173 22.6746C23.3347 22.6759 25.4653 21.2132 25.4653 18.6572Z" fill="#A0A9DB"/>
</g>
<defs>
<clipPath id="clip0_4232_1703">
<rect width="32" height="32" fill="white"/>
</clipPath>
</defs>
</svg>
