<svg width="32" height="32" viewBox="0 0 32 32" fill="none" xmlns="http://www.w3.org/2000/svg">
<g clip-path="url(#clip0_4232_1715)">
<g clip-path="url(#clip1_4232_1715)">
<path d="M17.952 26.4401H29.848C30.2253 26.4401 30.5973 26.3427 30.924 26.1601C31.249 25.9781 31.5206 25.7142 31.712 25.3947C31.9003 25.079 31.9998 24.7183 32 24.3507C31.9992 23.9835 31.8992 23.6232 31.7107 23.3081L23.7227 9.88539C23.5311 9.56636 23.2595 9.30298 22.9347 9.12139C22.6059 8.93747 22.2354 8.84106 21.8587 8.84139C21.4813 8.84139 21.1093 8.93873 20.7827 9.12139C20.4583 9.30316 20.1872 9.56653 19.996 9.88539L17.9507 13.3201L13.96 6.60406C13.7685 6.28503 13.4968 6.02164 13.172 5.84006C12.8432 5.65614 12.4727 5.55973 12.096 5.56006C11.7173 5.56006 11.3467 5.65739 11.02 5.84006C10.6952 6.02164 10.4235 6.28503 10.232 6.60406L0.287991 23.3081C0.0994479 23.6232 -0.000513169 23.9835 -0.00134277 24.3507C-0.00134277 24.7174 0.0973239 25.0774 0.286657 25.3947C0.477646 25.7141 0.748843 25.9779 1.07332 26.1601C1.40132 26.3427 1.77332 26.4401 2.15066 26.4401H9.61732C12.5773 26.4401 14.7587 25.1787 16.26 22.7201L19.904 16.5961L21.856 13.3201L27.716 23.1627H19.904L17.952 26.4401ZM9.49732 23.1601L4.28666 23.1574L12.0973 10.0347L15.9947 16.5961L13.3853 20.9827C12.388 22.5774 11.256 23.1587 9.49732 23.1587" fill="#A0A9DB"/>
</g>
</g>
<defs>
<clipPath id="clip0_4232_1715">
<rect width="32" height="32" fill="white"/>
</clipPath>
<clipPath id="clip1_4232_1715">
<rect width="32" height="32" fill="white"/>
</clipPath>
</defs>
</svg>
