<svg width="32" height="32" viewBox="0 0 32 32" fill="none" xmlns="http://www.w3.org/2000/svg">
<g clip-path="url(#clip0_4232_1736)">
<g clip-path="url(#clip1_4232_1736)">
<path d="M9.34667 13.6093H8.088L7.40133 17.14H8.51867C9.26 17.14 9.812 17.0004 10.1747 16.7213C10.5373 16.4413 10.7818 15.9751 10.908 15.3227C11.0298 14.696 10.9747 14.2538 10.7427 13.996C10.5098 13.7382 10.0444 13.6093 9.34667 13.6093ZM16 7.58398C7.164 7.58398 0 11.352 0 16C0 20.648 7.164 24.4173 16 24.4173C24.836 24.4173 32 20.648 32 16C32 11.352 24.836 7.58398 16 7.58398ZM11.6533 17.5187C11.3053 17.852 10.8867 18.1026 10.4307 18.2533C9.98178 18.3982 9.41067 18.4711 8.71733 18.472H7.14267L6.70667 20.7133H4.86933L6.50933 12.2787H10.0427C11.1049 12.2787 11.88 12.5578 12.368 13.116C12.856 13.6733 13.0027 14.452 12.808 15.452C12.7342 15.8479 12.5969 16.2293 12.4013 16.5813C12.2102 16.9218 11.9609 17.2342 11.6533 17.5187ZM17.0187 18.472L17.7427 14.74C17.8262 14.3151 17.796 14.0258 17.652 13.872C17.5098 13.7173 17.2044 13.64 16.736 13.64H15.28L14.3413 18.4733H12.5173L14.1573 10.0373H15.98L15.544 12.28H17.168C18.1902 12.28 18.8951 12.4582 19.2827 12.8147C19.864 13.3493 19.7867 13.748 19.6333 14.5467L18.8707 18.472H17.0187ZM27.148 15.452C27.0742 15.8479 26.9369 16.2293 26.7413 16.5813C26.5511 16.9218 26.3018 17.2342 25.9933 17.5187C25.6451 17.851 25.2276 18.1019 24.7707 18.2533C24.3227 18.3982 23.7511 18.4711 23.056 18.472H21.4827L21.0467 20.7147H19.2093L20.8493 12.28H24.3813C25.4436 12.28 26.2187 12.5591 26.7067 13.1173C27.1956 13.6738 27.3427 14.452 27.148 15.452ZM23.688 13.6093H22.4307L21.7427 17.14H22.86C23.6022 17.14 24.1542 17.0004 24.516 16.7213C24.8778 16.4413 25.1227 15.9751 25.2507 15.3227C25.3724 14.696 25.3169 14.2538 25.084 13.996C24.7347 13.6093 24.3853 13.6093 23.688 13.6093Z" fill="#A0A9DB"/>
</g>
</g>
<defs>
<clipPath id="clip0_4232_1736">
<rect width="32" height="32" fill="white"/>
</clipPath>
<clipPath id="clip1_4232_1736">
<rect width="32" height="32" fill="white"/>
</clipPath>
</defs>
</svg>
