<svg width="32" height="32" viewBox="0 0 32 32" fill="none" xmlns="http://www.w3.org/2000/svg">
<g clip-path="url(#clip0_4232_1706)">
<g clip-path="url(#clip1_4232_1706)">
<path d="M18.9733 16.0055C18.9733 16.796 18.6594 17.5541 18.1006 18.1132C17.5418 18.6723 16.7838 18.9865 15.9933 18.9869C15.2026 18.9869 14.4443 18.6728 13.8852 18.1137C13.3261 17.5546 13.012 16.7962 13.012 16.0055C13.012 15.2151 13.3259 14.457 13.8847 13.8979C14.4436 13.3388 15.2015 13.0246 15.992 13.0242C16.7827 13.0242 17.541 13.3383 18.1001 13.8974C18.6592 14.4565 18.9733 15.2148 18.9733 16.0055ZM22.504 1.75221C20.7093 1.75221 18.3613 3.03221 15.9867 5.24821C13.6133 3.04421 11.264 1.77888 9.47067 1.77888C8.924 1.77888 8.42667 1.90288 7.996 2.14954C6.16267 3.20688 5.752 6.50155 6.69867 10.6362C2.64 11.8895 0 13.8935 0 16.0055C0 18.1255 2.65333 20.1349 6.724 21.3789C5.78533 25.5295 6.204 28.8295 8.04133 29.8855C8.468 30.1349 8.96133 30.2522 9.51067 30.2522C11.304 30.2522 13.6533 28.9722 16.028 26.7535C18.4013 28.9589 20.7507 30.2242 22.544 30.2242C23.0907 30.2242 23.588 30.1042 24.0187 29.8575C25.8507 28.8015 26.2627 25.5069 25.316 21.3709C29.36 20.1282 32 18.1202 32 16.0055C32 13.8855 29.3467 11.8762 25.276 10.6295C26.2147 6.48288 25.796 3.18021 23.9587 2.12288C23.5144 1.87327 23.0135 1.7454 22.504 1.75221ZM22.4973 3.20554V3.21355C22.7973 3.21355 23.0387 3.27221 23.2413 3.38288C24.1293 3.89221 24.5147 5.82955 24.2147 8.32155C24.1427 8.93488 24.0253 9.58155 23.8813 10.2415C22.5179 9.91175 21.1339 9.67388 19.7387 9.52955C18.9074 8.38315 18.001 7.2932 17.0253 6.26688C19.148 4.29354 21.1413 3.21088 22.4987 3.20688L22.4973 3.20554ZM9.47067 3.23221C10.82 3.23221 12.8227 4.30955 14.9507 6.27221C14.036 7.23221 13.124 8.32155 12.2573 9.52821C10.859 9.67191 9.47215 9.91159 8.10667 10.2455C7.96348 9.62023 7.85046 8.98839 7.768 8.35221C7.46133 5.86155 7.84 3.92554 8.72 3.40954C8.97333 3.28954 9.25333 3.23888 9.47067 3.23221ZM15.98 7.29888C16.588 7.92466 17.1924 8.61977 17.7933 9.38421C17.2067 9.35755 16.6067 9.33888 16 9.33888C15.3858 9.33799 14.7813 9.3531 14.1867 9.38421C14.7733 8.62155 15.38 7.92421 15.98 7.29888ZM16 10.8002C16.9867 10.8002 17.9693 10.8455 18.936 10.9242C19.4782 11.7011 20.004 12.5278 20.5133 13.4042C21.0084 14.2584 21.4609 15.1233 21.8707 15.9989C21.46 16.8722 21.0093 17.7455 20.52 18.5989C20.0133 19.4789 19.4893 20.3162 18.9467 21.0922C16.9896 21.2637 15.0214 21.2659 13.064 21.0989C12.5047 20.294 11.9785 19.4667 11.4867 18.6189C10.9916 17.7647 10.5391 16.8998 10.1293 16.0242C10.5411 15.1364 10.9917 14.2671 11.48 13.4189C11.9867 12.5389 12.5107 11.7042 13.0533 10.9282C14.0331 10.8412 15.0163 10.7976 16 10.7975V10.8002ZM11.1533 11.1389C10.8333 11.6415 10.5133 12.1562 10.2147 12.6855C9.916 13.2055 9.63378 13.7273 9.368 14.2509C9.01467 13.3762 8.71467 12.5042 8.46667 11.6549C9.32 11.4549 10.22 11.2762 11.1533 11.1389ZM20.8333 11.1389C21.7613 11.2749 22.6529 11.4469 23.508 11.6549C23.268 12.4975 22.968 13.3642 22.628 14.2322C22.0838 13.1709 21.4853 12.1385 20.8347 11.1389H20.8333ZM24.9173 12.0389C25.5636 12.2398 26.1747 12.4611 26.7507 12.7029C29.06 13.6895 30.5533 14.9802 30.5533 16.0042C30.5467 17.0282 29.0533 18.3242 26.744 19.3042C26.184 19.5442 25.5707 19.7602 24.9373 19.9615C24.5367 18.6062 24.0468 17.2788 23.4707 15.9882C24.0707 14.6322 24.5507 13.3082 24.9173 12.0362V12.0389ZM7.05733 12.0442C7.428 13.3242 7.91733 14.6535 8.524 16.0175C7.9514 17.3002 7.46759 18.6206 7.076 19.9695C6.43067 19.7695 5.81733 19.5455 5.24933 19.3029C2.94 18.3202 1.44667 17.0282 1.44667 16.0042C1.44667 14.9802 2.94 13.6815 5.24933 12.7029C5.80933 12.4629 6.42267 12.2469 7.05733 12.0442ZM22.628 17.7509C22.9813 18.6269 23.2813 19.5002 23.5293 20.3482C22.676 20.5575 21.7747 20.7349 20.8413 20.8682C21.4908 19.8607 22.0863 18.8202 22.628 17.7509ZM9.368 17.7775C9.63467 18.3002 9.91467 18.8215 10.2213 19.3442C10.528 19.8651 10.8413 20.3731 11.1613 20.8682C10.2623 20.7382 9.36977 20.5664 8.48667 20.3535C8.72667 19.5135 9.028 18.6442 9.36667 17.7762L9.368 17.7775ZM23.8933 21.7602C24.0427 22.4175 24.16 23.0509 24.232 23.6575C24.5387 26.1482 24.16 28.0842 23.28 28.6015C23.084 28.7215 22.8293 28.7722 22.5293 28.7722C21.18 28.7722 19.1773 27.6962 17.0493 25.7322C17.964 24.7722 18.876 23.6842 19.7427 22.4789C21.2187 22.3215 22.6147 22.0802 23.8933 21.7602ZM8.12 21.7735C9.4 22.0855 10.7947 22.3269 12.2627 22.4829C13.1427 23.6895 14.056 24.7855 14.976 25.7442C12.8493 27.7215 10.8533 28.8042 9.496 28.8042C9.23967 28.8055 8.9868 28.7451 8.75867 28.6282C7.87067 28.1215 7.48533 26.1829 7.78533 23.6909C7.85733 23.0775 7.976 22.4322 8.12 21.7735ZM14.2 22.6269C14.7876 22.6553 15.3853 22.6704 15.9933 22.6722C16.6076 22.6731 17.212 22.658 17.8067 22.6269C17.22 23.3895 16.6133 24.0869 16.0133 24.7135C15.4053 24.086 14.8009 23.3904 14.2 22.6269Z" fill="#A0A9DB"/>
</g>
</g>
<defs>
<clipPath id="clip0_4232_1706">
<rect width="32" height="32" fill="white"/>
</clipPath>
<clipPath id="clip1_4232_1706">
<rect width="32" height="32" fill="white"/>
</clipPath>
</defs>
</svg>
