<svg width="32" height="32" viewBox="0 0 32 32" fill="none" xmlns="http://www.w3.org/2000/svg">
<g clip-path="url(#clip0_4232_1718)">
<path d="M26.9458 23.5927C27.1944 26.8278 27.1944 28.3445 27.1944 30H19.8093C19.8093 29.6395 19.8162 29.3093 19.822 28.9757C19.8427 27.935 19.8634 26.8512 19.6966 24.6613C19.4779 21.4565 18.1153 20.7437 15.611 20.7437H4.00115V14.9103H15.9655C19.128 14.9103 20.7093 13.9362 20.7093 11.3532C20.7093 9.08283 19.128 7.70733 15.9655 7.70733H4V2H17.2821C24.4415 2 28 5.42767 28 10.904C28 15.0002 25.4957 17.6707 22.1145 18.1163C24.9686 18.6962 26.6374 20.3435 26.9458 23.5927ZM4 30V25.6518H11.8074C13.1113 25.6518 13.3945 26.6318 13.3945 27.2175V30H4Z" fill="#A0A9DB"/>
</g>
<defs>
<clipPath id="clip0_4232_1718">
<rect width="32" height="32" fill="white"/>
</clipPath>
</defs>
</svg>
