<svg width="32" height="32" viewBox="0 0 32 32" fill="none" xmlns="http://www.w3.org/2000/svg">
<g clip-path="url(#clip0_4232_1697)">
<g clip-path="url(#clip1_4232_1697)">
<path d="M29.1387 1.8882C28.6937 2.95365 28.1187 3.95996 27.4267 4.8842C25.944 3.34848 24.1683 2.12587 22.2046 1.28877C20.2409 0.451677 18.1293 0.0171119 15.9946 0.0108117C13.86 0.00451144 11.7458 0.426604 9.77718 1.25209C7.8086 2.07759 6.02567 3.28969 4.53397 4.81664C3.04226 6.34359 1.87212 8.15433 1.09281 10.1416C0.313511 12.129 -0.0591034 14.2524 -0.00296482 16.3864C0.0531738 18.5203 0.536924 20.6212 1.41964 22.5648C2.30236 24.5084 3.56609 26.2551 5.13602 27.7015L5.72802 28.2282C7.97698 30.1253 10.7071 31.3628 13.6161 31.8037C16.5251 32.2446 19.4994 31.8718 22.2095 30.7264C24.9196 29.581 27.2598 27.7079 28.9709 25.3144C30.682 22.9209 31.6972 20.1005 31.904 17.1655C32.3653 13.1482 31.1467 8.0122 29.1387 1.8882ZM7.44002 27.8335C7.27077 28.0413 7.04375 28.1943 6.78763 28.2732C6.5315 28.352 6.25775 28.3532 6.00094 28.2766C5.74413 28.2 5.51579 28.049 5.34474 27.8427C5.1737 27.6364 5.06762 27.384 5.0399 27.1174C5.01218 26.8509 5.06408 26.5821 5.18902 26.345C5.31396 26.1079 5.50636 25.9132 5.74191 25.7854C5.97746 25.6575 6.2456 25.6024 6.51247 25.6269C6.77934 25.6513 7.03298 25.7543 7.24135 25.9229C7.51436 26.154 7.68746 26.4818 7.72448 26.8376C7.76151 27.1934 7.65958 27.5511 7.44002 27.8335ZM29.0387 23.0575C25.12 28.2922 16.692 26.5149 11.324 26.7775C11.324 26.7775 10.3694 26.8442 9.41468 26.9749C9.41468 26.9749 9.77735 26.8109 10.2387 26.6455C14.0254 25.3295 15.8027 25.0655 18.1067 23.8802C22.42 21.6749 26.7333 16.8349 27.5893 11.8295C25.9427 16.6375 20.9387 20.7855 16.3947 22.4642C13.2667 23.6175 7.63735 24.7362 7.63735 24.7362L7.40668 24.6042C3.58668 22.7282 3.45602 14.4309 10.436 11.7642C13.4974 10.5775 16.396 11.2375 19.72 10.4469C23.244 9.6242 27.3267 6.98954 28.9733 3.5322C30.816 9.09754 33.0547 17.7229 29.0387 23.0575Z" fill="#A0A9DB"/>
</g>
</g>
<defs>
<clipPath id="clip0_4232_1697">
<rect width="32" height="32" fill="white"/>
</clipPath>
<clipPath id="clip1_4232_1697">
<rect width="32" height="32" fill="white"/>
</clipPath>
</defs>
</svg>
