<svg width="32" height="32" viewBox="0 0 32 32" fill="none" xmlns="http://www.w3.org/2000/svg">
<g clip-path="url(#clip0_4232_1721)">
<g clip-path="url(#clip1_4232_1721)">
<path d="M13.8053 28.1667C12.6324 28.4714 11.3944 28.4089 10.2582 27.9876C9.12202 27.5663 8.14252 26.8064 7.45194 25.8107C7.02721 25.2177 6.72547 24.5456 6.56449 23.8341C6.40351 23.1227 6.38655 22.3862 6.51461 21.668C6.55845 21.4323 6.61814 21.1998 6.69327 20.972L6.83327 20.544L7.21594 20.824C8.09744 21.4719 9.08319 21.9643 10.1306 22.28L10.4079 22.364L10.3813 22.6414C10.3476 23.0343 10.4544 23.4264 10.6826 23.748C10.8908 24.0477 11.1858 24.2764 11.5278 24.4035C11.8699 24.5305 12.2426 24.5498 12.5959 24.4587C12.7579 24.4164 12.9122 24.3489 13.0533 24.2587L20.5066 19.5094C20.6889 19.3946 20.8452 19.2431 20.9655 19.0645C21.0858 18.8858 21.1675 18.6841 21.2053 18.472C21.2438 18.2555 21.2388 18.0335 21.1905 17.819C21.1422 17.6045 21.0516 17.4018 20.9239 17.2227C20.7157 16.923 20.4208 16.6943 20.0787 16.5673C19.7367 16.4402 19.3639 16.4209 19.0106 16.512C18.8486 16.5544 18.6943 16.6219 18.5533 16.712L15.7093 18.5254C15.2425 18.8245 14.7319 19.0489 14.1959 19.1907C13.0232 19.4956 11.7852 19.4333 10.6491 19.0122C9.51294 18.5911 8.53336 17.8315 7.84261 16.836C7.41794 16.2427 7.11633 15.5704 6.95558 14.8587C6.79483 14.147 6.77818 13.4103 6.90661 12.692C7.03337 11.9883 7.30538 11.3188 7.70528 10.726C8.10519 10.1333 8.62422 9.63038 9.22927 9.24937L16.6813 4.4987C17.1481 4.19962 17.6586 3.97515 18.1946 3.83337C19.3674 3.52864 20.6055 3.59116 21.7417 4.01248C22.8779 4.4338 23.8574 5.19364 24.5479 6.18937C24.9727 6.78242 25.2744 7.45448 25.4354 8.16595C25.5964 8.87742 25.6133 9.61391 25.4853 10.332C25.4414 10.5678 25.3817 10.8003 25.3066 11.028L25.1666 11.456L24.7853 11.176C23.9035 10.5276 22.9172 10.0347 21.8693 9.7187L21.5919 9.6347L21.6186 9.3587C21.6526 8.96534 21.5458 8.57269 21.3173 8.2507C21.1089 7.95128 20.8139 7.72282 20.4718 7.59601C20.1298 7.46921 19.7571 7.45014 19.4039 7.54137C19.242 7.5837 19.0876 7.65119 18.9466 7.74137L11.4933 12.4907C11.311 12.6054 11.1547 12.757 11.0344 12.9356C10.9141 13.1142 10.8324 13.316 10.7946 13.528C10.7561 13.7445 10.7611 13.9665 10.8094 14.181C10.8577 14.3956 10.9483 14.5983 11.0759 14.7774C11.2841 15.077 11.5791 15.3058 11.9211 15.4328C12.2632 15.5599 12.6359 15.5791 12.9893 15.488C13.1518 15.4454 13.3066 15.3775 13.4479 15.2867L16.2906 13.4734C16.7575 13.1748 17.2681 12.9507 17.8039 12.8094C18.9766 12.5045 20.2146 12.5668 21.3508 12.9879C22.4869 13.409 23.4665 14.1685 24.1573 15.164C24.5819 15.7574 24.8835 16.4297 25.0443 17.1414C25.205 17.8531 25.2217 18.5898 25.0933 19.308C24.9667 20.012 24.6948 20.6818 24.2948 21.2748C23.8949 21.8678 23.3758 22.3709 22.7706 22.752L15.3186 27.5014C14.8518 27.8005 14.3412 28.0249 13.8053 28.1667ZM27.6159 4.23337C24.6453 -0.0199617 18.7759 -1.27996 14.5333 1.42404L7.07994 6.17337C6.07275 6.80609 5.20896 7.64238 4.54399 8.62858C3.87902 9.61478 3.42757 10.7291 3.21861 11.9C2.86267 13.8723 3.17518 15.9069 4.10661 17.6814C3.4674 18.6483 3.03188 19.7353 2.82661 20.876C2.61432 22.0702 2.64272 23.2948 2.91015 24.4778C3.17758 25.6609 3.67865 26.7786 4.38394 27.7654C7.35594 32.0187 13.2239 33.2787 17.4666 30.576L24.9199 25.8267C25.9271 25.194 26.7909 24.3577 27.4559 23.3715C28.1209 22.3853 28.5723 21.271 28.7813 20.1C29.1366 18.1279 28.8246 16.0937 27.8946 14.3187C28.5329 13.3516 28.9675 12.2646 29.1719 11.124C29.3846 9.92973 29.3565 8.70498 29.0893 7.52168C28.8221 6.33839 28.3212 5.2204 27.6159 4.23337Z" fill="#A0A9DB"/>
</g>
</g>
<defs>
<clipPath id="clip0_4232_1721">
<rect width="32" height="32" fill="white"/>
</clipPath>
<clipPath id="clip1_4232_1721">
<rect width="32" height="32" fill="white"/>
</clipPath>
</defs>
</svg>
